<svg width="525" height="122" viewBox="0 0 525 122" fill="none" xmlns="http://www.w3.org/2000/svg">
<g clip-path="url(#clip0_5506_11103)">
<mask id="path-1-outside-1_5506_11103" maskUnits="userSpaceOnUse" x="5" y="5" width="514" height="110" fill="black">
<rect fill="white" x="5" y="5" width="514" height="110"/>
<path d="M34.688 113.536C27.52 113.536 21.8453 112.043 17.664 109.056C13.568 106.069 10.624 101.888 8.832 96.512C7.12533 91.0507 6.272 84.7787 6.272 77.696V42.88C6.272 35.5413 7.21067 29.184 9.088 23.808C10.9653 18.432 14.1653 14.2933 18.688 11.392C23.296 8.40533 29.5253 6.91199 37.376 6.91199C45.056 6.91199 51.072 8.192 55.424 10.752C59.8613 13.312 63.0187 16.8533 64.896 21.376C66.7733 25.8987 67.712 31.1893 67.712 37.248V43.904H45.312V35.456C45.312 33.2373 45.1413 31.1893 44.8 29.312C44.544 27.4347 43.8613 25.9413 42.752 24.832C41.728 23.6373 40.0213 23.04 37.632 23.04C35.1573 23.04 33.3653 23.7227 32.256 25.088C31.1467 26.368 30.4213 27.9893 30.08 29.952C29.824 31.9147 29.696 33.9627 29.696 36.096V84.096C29.696 86.4 29.9093 88.576 30.336 90.624C30.848 92.5867 31.7013 94.208 32.896 95.488C34.176 96.6827 35.968 97.28 38.272 97.28C40.6613 97.28 42.496 96.64 43.776 95.36C45.056 94.08 45.952 92.416 46.464 90.368C46.976 88.32 47.232 86.144 47.232 83.84V71.68H37.888V58.24H67.84V112H52.736L51.456 103.424C50.0907 106.325 48.0853 108.757 45.44 110.72C42.7947 112.597 39.2107 113.536 34.688 113.536ZM108.292 113.536C100.356 113.536 94.1267 112.256 89.604 109.696C85.1667 107.051 82.052 103.253 80.26 98.304C78.468 93.2693 77.572 87.1253 77.572 79.872V8.31999H100.228V83.328C100.228 85.4613 100.399 87.5947 100.74 89.728C101.081 91.8613 101.807 93.6107 102.916 94.976C104.111 96.3413 105.903 97.024 108.292 97.024C110.767 97.024 112.559 96.3413 113.668 94.976C114.777 93.6107 115.46 91.8613 115.716 89.728C116.057 87.5947 116.228 85.4613 116.228 83.328V8.31999H139.012V79.872C139.012 87.1253 138.073 93.2693 136.196 98.304C134.404 103.253 131.289 107.051 126.852 109.696C122.415 112.256 116.228 113.536 108.292 113.536ZM143.758 112L163.342 8.31999H189.454L208.782 112H187.662L184.206 90.112H168.974L165.39 112H143.758ZM171.022 76.416H182.03L176.526 35.968L171.022 76.416ZM215.41 112V8.31999H243.954C250.951 8.31999 257.01 9.08799 262.13 10.624C267.25 12.16 271.218 14.9333 274.034 18.944C276.935 22.8693 278.386 28.4587 278.386 35.712C278.386 39.9787 278.045 43.776 277.362 47.104C276.679 50.432 275.399 53.3333 273.522 55.808C271.73 58.1973 269.127 60.2027 265.714 61.824L279.922 112H256.242L244.85 65.536H238.322V112H215.41ZM238.322 52.352H244.722C247.965 52.352 250.482 51.7973 252.274 50.688C254.066 49.4933 255.303 47.8293 255.986 45.696C256.754 43.4773 257.138 40.832 257.138 37.76C257.138 33.3227 256.327 29.8667 254.706 27.392C253.085 24.9173 250.098 23.68 245.746 23.68H238.322V52.352ZM288.32 112V8.31999H314.56C323.605 8.31999 330.645 9.47199 335.68 11.776C340.715 13.9947 344.256 17.536 346.304 22.4C348.352 27.1787 349.376 33.408 349.376 41.088V78.72C349.376 86.4853 348.352 92.8427 346.304 97.792C344.256 102.656 340.715 106.24 335.68 108.544C330.731 110.848 323.776 112 314.816 112H288.32ZM311.232 96.128H314.816C318.315 96.128 320.832 95.616 322.368 94.592C323.904 93.568 324.843 92.032 325.184 89.984C325.611 87.936 325.824 85.376 325.824 82.304V37.12C325.824 34.048 325.568 31.5733 325.056 29.696C324.629 27.8187 323.648 26.4533 322.112 25.6C320.576 24.7467 318.101 24.32 314.688 24.32H311.232V96.128ZM359.608 112V8.31999H382.52V112H359.608ZM389.148 112L408.732 8.31999H434.844L454.172 112H433.052L429.596 90.112H414.364L410.78 112H389.148ZM416.412 76.416H427.42L421.916 35.968L416.412 76.416ZM460.8 112V8.31999H476.928L498.176 58.24V8.31999H517.12V112H501.632L480.384 58.24V112H460.8Z"/>
</mask>
<path d="M34.688 113.536C27.52 113.536 21.8453 112.043 17.664 109.056C13.568 106.069 10.624 101.888 8.832 96.512C7.12533 91.0507 6.272 84.7787 6.272 77.696V42.88C6.272 35.5413 7.21067 29.184 9.088 23.808C10.9653 18.432 14.1653 14.2933 18.688 11.392C23.296 8.40533 29.5253 6.91199 37.376 6.91199C45.056 6.91199 51.072 8.192 55.424 10.752C59.8613 13.312 63.0187 16.8533 64.896 21.376C66.7733 25.8987 67.712 31.1893 67.712 37.248V43.904H45.312V35.456C45.312 33.2373 45.1413 31.1893 44.8 29.312C44.544 27.4347 43.8613 25.9413 42.752 24.832C41.728 23.6373 40.0213 23.04 37.632 23.04C35.1573 23.04 33.3653 23.7227 32.256 25.088C31.1467 26.368 30.4213 27.9893 30.08 29.952C29.824 31.9147 29.696 33.9627 29.696 36.096V84.096C29.696 86.4 29.9093 88.576 30.336 90.624C30.848 92.5867 31.7013 94.208 32.896 95.488C34.176 96.6827 35.968 97.28 38.272 97.28C40.6613 97.28 42.496 96.64 43.776 95.36C45.056 94.08 45.952 92.416 46.464 90.368C46.976 88.32 47.232 86.144 47.232 83.84V71.68H37.888V58.24H67.84V112H52.736L51.456 103.424C50.0907 106.325 48.0853 108.757 45.44 110.72C42.7947 112.597 39.2107 113.536 34.688 113.536ZM108.292 113.536C100.356 113.536 94.1267 112.256 89.604 109.696C85.1667 107.051 82.052 103.253 80.26 98.304C78.468 93.2693 77.572 87.1253 77.572 79.872V8.31999H100.228V83.328C100.228 85.4613 100.399 87.5947 100.74 89.728C101.081 91.8613 101.807 93.6107 102.916 94.976C104.111 96.3413 105.903 97.024 108.292 97.024C110.767 97.024 112.559 96.3413 113.668 94.976C114.777 93.6107 115.46 91.8613 115.716 89.728C116.057 87.5947 116.228 85.4613 116.228 83.328V8.31999H139.012V79.872C139.012 87.1253 138.073 93.2693 136.196 98.304C134.404 103.253 131.289 107.051 126.852 109.696C122.415 112.256 116.228 113.536 108.292 113.536ZM143.758 112L163.342 8.31999H189.454L208.782 112H187.662L184.206 90.112H168.974L165.39 112H143.758ZM171.022 76.416H182.03L176.526 35.968L171.022 76.416ZM215.41 112V8.31999H243.954C250.951 8.31999 257.01 9.08799 262.13 10.624C267.25 12.16 271.218 14.9333 274.034 18.944C276.935 22.8693 278.386 28.4587 278.386 35.712C278.386 39.9787 278.045 43.776 277.362 47.104C276.679 50.432 275.399 53.3333 273.522 55.808C271.73 58.1973 269.127 60.2027 265.714 61.824L279.922 112H256.242L244.85 65.536H238.322V112H215.41ZM238.322 52.352H244.722C247.965 52.352 250.482 51.7973 252.274 50.688C254.066 49.4933 255.303 47.8293 255.986 45.696C256.754 43.4773 257.138 40.832 257.138 37.76C257.138 33.3227 256.327 29.8667 254.706 27.392C253.085 24.9173 250.098 23.68 245.746 23.68H238.322V52.352ZM288.32 112V8.31999H314.56C323.605 8.31999 330.645 9.47199 335.68 11.776C340.715 13.9947 344.256 17.536 346.304 22.4C348.352 27.1787 349.376 33.408 349.376 41.088V78.72C349.376 86.4853 348.352 92.8427 346.304 97.792C344.256 102.656 340.715 106.24 335.68 108.544C330.731 110.848 323.776 112 314.816 112H288.32ZM311.232 96.128H314.816C318.315 96.128 320.832 95.616 322.368 94.592C323.904 93.568 324.843 92.032 325.184 89.984C325.611 87.936 325.824 85.376 325.824 82.304V37.12C325.824 34.048 325.568 31.5733 325.056 29.696C324.629 27.8187 323.648 26.4533 322.112 25.6C320.576 24.7467 318.101 24.32 314.688 24.32H311.232V96.128ZM359.608 112V8.31999H382.52V112H359.608ZM389.148 112L408.732 8.31999H434.844L454.172 112H433.052L429.596 90.112H414.364L410.78 112H389.148ZM416.412 76.416H427.42L421.916 35.968L416.412 76.416ZM460.8 112V8.31999H476.928L498.176 58.24V8.31999H517.12V112H501.632L480.384 58.24V112H460.8Z" fill="black"/>
<path d="M17.664 109.056L17.0748 109.864L17.0828 109.87L17.664 109.056ZM8.832 96.512L7.87752 96.8103L7.88033 96.8193L7.88332 96.8282L8.832 96.512ZM9.088 23.808L10.0321 24.1377L10.0321 24.1377L9.088 23.808ZM18.688 11.392L19.228 12.2337L19.2319 12.2312L18.688 11.392ZM55.424 10.752L54.917 11.614L54.9243 11.6182L55.424 10.752ZM64.896 21.376L63.9724 21.7594L63.9724 21.7594L64.896 21.376ZM67.712 43.904V44.904H68.712V43.904H67.712ZM45.312 43.904H44.312V44.904H45.312V43.904ZM44.8 29.312L43.8092 29.4471L43.8122 29.4691L43.8161 29.4909L44.8 29.312ZM42.752 24.832L41.9927 25.4828L42.0177 25.5119L42.0449 25.5391L42.752 24.832ZM32.256 25.088L33.0117 25.7429L33.0221 25.7309L33.0321 25.7186L32.256 25.088ZM30.08 29.952L29.0948 29.7807L29.0911 29.8016L29.0884 29.8227L30.08 29.952ZM30.336 90.624L29.357 90.828L29.3621 90.8523L29.3684 90.8764L30.336 90.624ZM32.896 95.488L32.1649 96.1703L32.1885 96.1955L32.2137 96.2191L32.896 95.488ZM43.776 95.36L43.0689 94.6529L43.0689 94.6529L43.776 95.36ZM46.464 90.368L45.4939 90.1255L45.4939 90.1255L46.464 90.368ZM47.232 71.68H48.232V70.68H47.232V71.68ZM37.888 71.68H36.888V72.68H37.888V71.68ZM37.888 58.24V57.24H36.888V58.24H37.888ZM67.84 58.24H68.84V57.24H67.84V58.24ZM67.84 112V113H68.84V112H67.84ZM52.736 112L51.747 112.148L51.8742 113H52.736V112ZM51.456 103.424L52.445 103.276L51.9575 100.01L50.5512 102.998L51.456 103.424ZM45.44 110.72L46.0187 111.536L46.0274 111.529L46.0358 111.523L45.44 110.72ZM34.688 112.536C27.6484 112.536 22.2018 111.068 18.2452 108.242L17.0828 109.87C21.4889 113.017 27.3916 114.536 34.688 114.536V112.536ZM18.2532 108.248C14.3448 105.398 11.515 101.399 9.78068 96.1958L7.88332 96.8282C9.733 102.377 12.7912 106.741 17.0748 109.864L18.2532 108.248ZM9.78648 96.2137C8.11616 90.8687 7.272 84.7005 7.272 77.696H5.272C5.272 84.8568 6.1345 91.2326 7.87752 96.8103L9.78648 96.2137ZM7.272 77.696V42.88H5.272V77.696H7.272ZM7.272 42.88C7.272 35.6228 8.2007 29.3821 10.0321 24.1377L8.14391 23.4783C6.22063 28.9859 5.272 35.4598 5.272 42.88H7.272ZM10.0321 24.1377C11.8404 18.9592 14.9052 15.0068 19.228 12.2337L18.148 10.5503C13.4255 13.5798 10.0902 17.9048 8.14391 23.4783L10.0321 24.1377ZM19.2319 12.2312C23.6224 9.38547 29.6393 7.91199 37.376 7.91199V5.91199C29.4113 5.91199 22.9696 7.42519 18.1441 10.5528L19.2319 12.2312ZM37.376 7.91199C44.9634 7.91199 50.7787 9.17963 54.917 11.6139L55.931 9.89006C51.3653 7.20436 45.1486 5.91199 37.376 5.91199V7.91199ZM54.9243 11.6182C59.1805 14.0737 62.1835 17.4497 63.9724 21.7594L65.8196 20.9926C63.8538 16.2569 60.5422 12.5503 55.9237 9.88581L54.9243 11.6182ZM63.9724 21.7594C65.7889 26.1354 66.712 31.2907 66.712 37.248H68.712C68.712 31.088 67.7578 25.6619 65.8196 20.9926L63.9724 21.7594ZM66.712 37.248V43.904H68.712V37.248H66.712ZM67.712 42.904H45.312V44.904H67.712V42.904ZM46.312 43.904V35.456H44.312V43.904H46.312ZM46.312 35.456C46.312 33.1868 46.1375 31.0781 45.7839 29.1331L43.8161 29.4909C44.1452 31.3006 44.312 33.2879 44.312 35.456H46.312ZM45.7908 29.1769C45.5116 27.1292 44.753 25.4188 43.4591 24.1249L42.0449 25.5391C42.9697 26.4639 43.5764 27.7401 43.8092 29.4471L45.7908 29.1769ZM43.5113 24.1812C42.2165 22.6706 40.1607 22.04 37.632 22.04V24.04C39.882 24.04 41.2395 24.604 41.9927 25.4828L43.5113 24.1812ZM37.632 22.04C34.9846 22.04 32.8475 22.7742 31.4799 24.4574L33.0321 25.7186C33.8832 24.6711 35.3301 24.04 37.632 24.04V22.04ZM31.5003 24.4331C30.2524 25.873 29.4617 27.6708 29.0948 29.7807L31.0652 30.1233C31.381 28.3078 32.0409 26.863 33.0117 25.7429L31.5003 24.4331ZM29.0884 29.8227C28.8264 31.8314 28.696 33.9227 28.696 36.096H30.696C30.696 34.0026 30.8216 31.998 31.0716 30.0813L29.0884 29.8227ZM28.696 36.096V84.096H30.696V36.096H28.696ZM28.696 84.096C28.696 86.4617 28.9151 88.7065 29.357 90.828L31.315 90.42C30.9036 88.4455 30.696 86.3383 30.696 84.096H28.696ZM29.3684 90.8764C29.9156 92.9742 30.8402 94.7509 32.1649 96.1703L33.6271 94.8057C32.5625 93.6651 31.7804 92.1992 31.3036 90.3716L29.3684 90.8764ZM32.2137 96.2191C33.7313 97.6355 35.7969 98.28 38.272 98.28V96.28C36.1391 96.28 34.6207 95.7299 33.5783 94.7569L32.2137 96.2191ZM38.272 98.28C40.8386 98.28 42.9614 97.5888 44.4831 96.0671L43.0689 94.6529C42.0306 95.6912 40.4841 96.28 38.272 96.28V98.28ZM44.4831 96.0671C45.9113 94.639 46.8856 92.8048 47.4341 90.6105L45.4939 90.1255C45.0184 92.0272 44.2007 93.521 43.0689 94.6529L44.4831 96.0671ZM47.4341 90.6105C47.9677 88.4764 48.232 86.2184 48.232 83.84H46.232C46.232 86.0696 45.9843 88.1636 45.4939 90.1255L47.4341 90.6105ZM48.232 83.84V71.68H46.232V83.84H48.232ZM47.232 70.68H37.888V72.68H47.232V70.68ZM38.888 71.68V58.24H36.888V71.68H38.888ZM37.888 59.24H67.84V57.24H37.888V59.24ZM66.84 58.24V112H68.84V58.24H66.84ZM67.84 111H52.736V113H67.84V111ZM53.725 111.852L52.445 103.276L50.467 103.572L51.747 112.148L53.725 111.852ZM50.5512 102.998C49.2581 105.746 47.3607 108.05 44.8442 109.917L46.0358 111.523C48.81 109.465 50.9232 106.905 52.3608 103.85L50.5512 102.998ZM44.8613 109.904C42.4399 111.623 39.0827 112.536 34.688 112.536V114.536C39.3387 114.536 43.1494 113.572 46.0187 111.536L44.8613 109.904ZM89.604 109.696L89.0919 110.555L89.1016 110.561L89.1114 110.566L89.604 109.696ZM80.26 98.304L79.3179 98.6393L79.3197 98.6444L80.26 98.304ZM77.572 8.31999V7.31999H76.572V8.31999H77.572ZM100.228 8.31999H101.228V7.31999H100.228V8.31999ZM100.74 89.728L101.727 89.57L101.727 89.57L100.74 89.728ZM102.916 94.976L102.14 95.6066L102.151 95.6208L102.163 95.6345L102.916 94.976ZM113.668 94.976L114.444 95.6066L114.444 95.6066L113.668 94.976ZM115.716 89.728L114.729 89.57L114.725 89.5894L114.723 89.6089L115.716 89.728ZM116.228 8.31999V7.31999H115.228V8.31999H116.228ZM139.012 8.31999H140.012V7.31999H139.012V8.31999ZM136.196 98.304L135.259 97.9546L135.256 97.9636L136.196 98.304ZM126.852 109.696L127.352 110.562L127.358 110.559L127.364 110.555L126.852 109.696ZM108.292 112.536C100.445 112.536 94.4101 111.267 90.0966 108.826L89.1114 110.566C93.8433 113.245 100.267 114.536 108.292 114.536V112.536ZM90.1161 108.837C85.8811 106.312 82.9153 102.7 81.2003 97.9636L79.3197 98.6444C81.1887 103.806 84.4522 107.789 89.0919 110.555L90.1161 108.837ZM81.2021 97.9687C79.4594 93.0725 78.572 87.0491 78.572 79.872H76.572C76.572 87.2015 77.4766 93.4662 79.3179 98.6393L81.2021 97.9687ZM78.572 79.872V8.31999H76.572V79.872H78.572ZM77.572 9.31999H100.228V7.31999H77.572V9.31999ZM99.228 8.31999V83.328H101.228V8.31999H99.228ZM99.228 83.328C99.228 85.5149 99.403 87.7011 99.7526 89.886L101.727 89.57C101.394 87.4883 101.228 85.4077 101.228 83.328H99.228ZM99.7526 89.886C100.115 92.1534 100.897 94.0771 102.14 95.6066L103.692 94.3454C102.716 93.1442 102.047 91.5693 101.727 89.57L99.7526 89.886ZM102.163 95.6345C103.604 97.2805 105.711 98.024 108.292 98.024V96.024C106.094 96.024 104.618 95.4022 103.669 94.3175L102.163 95.6345ZM108.292 98.024C110.939 98.024 113.077 97.2898 114.444 95.6066L112.892 94.3454C112.041 95.3929 110.594 96.024 108.292 96.024V98.024ZM114.444 95.6066C115.697 94.0652 116.435 92.1263 116.709 89.8471L114.723 89.6089C114.485 91.5963 113.858 93.1561 112.892 94.3454L114.444 95.6066ZM116.703 89.886C117.053 87.7011 117.228 85.5149 117.228 83.328H115.228C115.228 85.4077 115.062 87.4883 114.729 89.57L116.703 89.886ZM117.228 83.328V8.31999H115.228V83.328H117.228ZM116.228 9.31999H139.012V7.31999H116.228V9.31999ZM138.012 8.31999V79.872H140.012V8.31999H138.012ZM138.012 79.872C138.012 87.0451 137.083 93.0633 135.259 97.9546L137.133 98.6534C139.064 93.4754 140.012 87.2055 140.012 79.872H138.012ZM135.256 97.9636C133.541 102.7 130.575 106.312 126.34 108.837L127.364 110.555C132.004 107.789 135.267 103.806 137.136 98.6444L135.256 97.9636ZM126.352 108.83C122.128 111.267 116.141 112.536 108.292 112.536V114.536C116.315 114.536 122.701 113.245 127.352 110.562L126.352 108.83ZM143.758 112L142.775 111.814L142.551 113H143.758V112ZM163.342 8.31999V7.31999H162.513L162.359 8.13439L163.342 8.31999ZM189.454 8.31999L190.437 8.13673L190.285 7.31999H189.454V8.31999ZM208.782 112V113H209.986L209.765 111.817L208.782 112ZM187.662 112L186.674 112.156L186.808 113H187.662V112ZM184.206 90.112L185.194 89.956L185.061 89.112H184.206V90.112ZM168.974 90.112V89.112H168.124L167.987 89.9504L168.974 90.112ZM165.39 112V113H166.24L166.377 112.162L165.39 112ZM171.022 76.416L170.031 76.2812L169.877 77.416H171.022V76.416ZM182.03 76.416V77.416H183.175L183.021 76.2812L182.03 76.416ZM176.526 35.968L177.517 35.8332L175.535 35.8332L176.526 35.968ZM144.741 112.186L164.325 8.5056L162.359 8.13439L142.775 111.814L144.741 112.186ZM163.342 9.31999H189.454V7.31999H163.342V9.31999ZM188.471 8.50325L207.799 112.183L209.765 111.817L190.437 8.13673L188.471 8.50325ZM208.782 111H187.662V113H208.782V111ZM188.65 111.844L185.194 89.956L183.218 90.268L186.674 112.156L188.65 111.844ZM184.206 89.112H168.974V91.112H184.206V89.112ZM167.987 89.9504L164.403 111.838L166.377 112.162L169.961 90.2736L167.987 89.9504ZM165.39 111H143.758V113H165.39V111ZM171.022 77.416H182.03V75.416H171.022V77.416ZM183.021 76.2812L177.517 35.8332L175.535 36.1028L181.039 76.5508L183.021 76.2812ZM175.535 35.8332L170.031 76.2812L172.013 76.5508L177.517 36.1028L175.535 35.8332ZM215.41 112H214.41V113H215.41V112ZM215.41 8.31999V7.31999H214.41V8.31999H215.41ZM274.034 18.944L273.216 19.5186L273.223 19.5286L273.23 19.5384L274.034 18.944ZM277.362 47.104L276.382 46.9031L276.382 46.9031L277.362 47.104ZM273.522 55.808L272.725 55.2036L272.722 55.208L273.522 55.808ZM265.714 61.824L265.285 60.9207L264.522 61.2833L264.752 62.0964L265.714 61.824ZM279.922 112V113H281.244L280.884 111.728L279.922 112ZM256.242 112L255.271 112.238L255.458 113H256.242V112ZM244.85 65.536L245.821 65.2979L245.634 64.536H244.85V65.536ZM238.322 65.536V64.536H237.322V65.536H238.322ZM238.322 112V113H239.322V112H238.322ZM238.322 52.352H237.322V53.352H238.322V52.352ZM252.274 50.688L252.8 51.5383L252.815 51.5294L252.829 51.52L252.274 50.688ZM255.986 45.696L255.041 45.3689L255.037 45.38L255.034 45.3912L255.986 45.696ZM254.706 27.392L253.87 27.94L253.87 27.94L254.706 27.392ZM238.322 23.68V22.68H237.322V23.68H238.322ZM216.41 112V8.31999H214.41V112H216.41ZM215.41 9.31999H243.954V7.31999H215.41V9.31999ZM243.954 9.31999C250.882 9.31999 256.84 10.0809 261.843 11.5818L262.417 9.66617C257.18 8.0951 251.02 7.31999 243.954 7.31999V9.31999ZM261.843 11.5818C266.768 13.0595 270.541 15.7087 273.216 19.5186L274.852 18.3694C271.895 14.158 267.732 11.2604 262.417 9.66617L261.843 11.5818ZM273.23 19.5384C275.956 23.2262 277.386 28.5736 277.386 35.712H279.386C279.386 28.3437 277.915 22.5125 274.838 18.3496L273.23 19.5384ZM277.386 35.712C277.386 39.9275 277.049 43.6554 276.382 46.9031L278.342 47.3049C279.041 43.8966 279.386 40.0299 279.386 35.712H277.386ZM276.382 46.9031C275.727 50.0985 274.504 52.8589 272.725 55.2036L274.319 56.4124C276.295 53.8078 277.632 50.7655 278.342 47.3049L276.382 46.9031ZM272.722 55.208C271.05 57.4378 268.59 59.3509 265.285 60.9207L266.143 62.7273C269.665 61.0544 272.41 58.9569 274.322 56.408L272.722 55.208ZM264.752 62.0964L278.96 112.272L280.884 111.728L266.676 61.5515L264.752 62.0964ZM279.922 111H256.242V113H279.922V111ZM257.213 111.762L245.821 65.2979L243.879 65.7741L255.271 112.238L257.213 111.762ZM244.85 64.536H238.322V66.536H244.85V64.536ZM237.322 65.536V112H239.322V65.536H237.322ZM238.322 111H215.41V113H238.322V111ZM238.322 53.352H244.722V51.352H238.322V53.352ZM244.722 53.352C248.058 53.352 250.787 52.7848 252.8 51.5383L251.748 49.8377C250.177 50.8099 247.871 51.352 244.722 51.352V53.352ZM252.829 51.52C254.817 50.1944 256.19 48.3405 256.938 46.0008L255.034 45.3912C254.417 47.3181 253.315 48.7922 251.719 49.8559L252.829 51.52ZM256.931 46.0231C257.745 43.6724 258.138 40.9109 258.138 37.76H256.138C256.138 40.7531 255.763 43.2822 255.041 45.3689L256.931 46.0231ZM258.138 37.76C258.138 33.2191 257.311 29.5439 255.542 26.844L253.87 27.94C255.343 30.1894 256.138 33.4262 256.138 37.76H258.138ZM255.542 26.844C253.659 23.9697 250.265 22.68 245.746 22.68V24.68C249.931 24.68 252.51 25.8649 253.87 27.94L255.542 26.844ZM245.746 22.68H238.322V24.68H245.746V22.68ZM237.322 23.68V52.352H239.322V23.68H237.322ZM288.32 112H287.32V113H288.32V112ZM288.32 8.31999V7.31999H287.32V8.31999H288.32ZM335.68 11.776L335.264 12.6854L335.277 12.6911L335.68 11.776ZM346.304 22.4L345.382 22.7881L345.385 22.7939L346.304 22.4ZM346.304 97.792L347.226 98.1801L347.228 98.1744L346.304 97.792ZM335.68 108.544L335.264 107.635L335.258 107.637L335.68 108.544ZM311.232 96.128H310.232V97.128H311.232V96.128ZM322.368 94.592L321.813 93.7599L321.813 93.7599L322.368 94.592ZM325.184 89.984L324.205 89.78L324.201 89.7997L324.198 89.8196L325.184 89.984ZM325.056 29.696L324.081 29.9176L324.086 29.9385L324.091 29.9591L325.056 29.696ZM322.112 25.6L321.626 26.4742L321.626 26.4742L322.112 25.6ZM311.232 24.32V23.32H310.232V24.32H311.232ZM289.32 112V8.31999H287.32V112H289.32ZM288.32 9.31999H314.56V7.31999H288.32V9.31999ZM314.56 9.31999C323.542 9.31999 330.417 10.4672 335.264 12.6853L336.096 10.8667C330.874 8.47676 323.669 7.31999 314.56 7.31999V9.31999ZM335.277 12.6911C340.089 14.8116 343.438 18.1703 345.382 22.7881L347.226 22.0119C345.074 16.9017 341.341 13.1778 336.083 10.8609L335.277 12.6911ZM345.385 22.7939C347.36 27.4034 348.376 33.4845 348.376 41.088H350.376C350.376 33.3315 349.344 26.9539 347.223 22.0061L345.385 22.7939ZM348.376 41.088V78.72H350.376V41.088H348.376ZM348.376 78.72C348.376 86.4082 347.361 92.6231 345.38 97.4096L347.228 98.1744C349.343 93.0622 350.376 86.5624 350.376 78.72H348.376ZM345.382 97.4039C343.437 102.025 340.083 105.429 335.264 107.635L336.096 109.453C341.346 107.051 345.075 103.287 347.226 98.1801L345.382 97.4039ZM335.258 107.637C330.499 109.853 323.712 111 314.816 111V113C323.84 113 330.962 111.843 336.102 109.451L335.258 107.637ZM314.816 111H288.32V113H314.816V111ZM311.232 97.128H314.816V95.128H311.232V97.128ZM314.816 97.128C318.362 97.128 321.131 96.6185 322.923 95.424L321.813 93.7599C320.533 94.6135 318.267 95.128 314.816 95.128V97.128ZM322.923 95.424C324.719 94.2268 325.79 92.4315 326.17 90.1484L324.198 89.8196C323.895 91.6325 323.089 92.9092 321.813 93.7599L322.923 95.424ZM326.163 90.188C326.608 88.0496 326.824 85.4158 326.824 82.304H324.824C324.824 85.3362 324.613 87.8224 324.205 89.78L326.163 90.188ZM326.824 82.304V37.12H324.824V82.304H326.824ZM326.824 37.12C326.824 34.0041 326.566 31.4306 326.021 29.4329L324.091 29.9591C324.57 31.7161 324.824 34.0919 324.824 37.12H326.824ZM326.031 29.4744C325.548 27.3495 324.408 25.7314 322.598 24.7258L321.626 26.4742C322.888 27.1753 323.71 28.2878 324.081 29.9176L326.031 29.4744ZM322.598 24.7258C320.829 23.7435 318.139 23.32 314.688 23.32V25.32C318.064 25.32 320.323 25.7498 321.626 26.4742L322.598 24.7258ZM314.688 23.32H311.232V25.32H314.688V23.32ZM310.232 24.32V96.128H312.232V24.32H310.232ZM359.608 112H358.608V113H359.608V112ZM359.608 8.31999V7.31999H358.608V8.31999H359.608ZM382.52 8.31999H383.52V7.31999H382.52V8.31999ZM382.52 112V113H383.52V112H382.52ZM360.608 112V8.31999H358.608V112H360.608ZM359.608 9.31999H382.52V7.31999H359.608V9.31999ZM381.52 8.31999V112H383.52V8.31999H381.52ZM382.52 111H359.608V113H382.52V111ZM389.148 112L388.165 111.814L387.941 113H389.148V112ZM408.732 8.31999V7.31999H407.903L407.749 8.13439L408.732 8.31999ZM434.844 8.31999L435.827 8.13673L435.675 7.31999H434.844V8.31999ZM454.172 112V113H455.376L455.155 111.817L454.172 112ZM433.052 112L432.064 112.156L432.198 113H433.052V112ZM429.596 90.112L430.584 89.956L430.45 89.112H429.596V90.112ZM414.364 90.112V89.112H413.514L413.377 89.9504L414.364 90.112ZM410.78 112V113H411.63L411.767 112.162L410.78 112ZM416.412 76.416L415.421 76.2812L415.267 77.416H416.412V76.416ZM427.42 76.416V77.416H428.565L428.411 76.2812L427.42 76.416ZM421.916 35.968L422.907 35.8332L420.925 35.8332L421.916 35.968ZM390.131 112.186L409.715 8.5056L407.749 8.13439L388.165 111.814L390.131 112.186ZM408.732 9.31999H434.844V7.31999H408.732V9.31999ZM433.861 8.50325L453.189 112.183L455.155 111.817L435.827 8.13673L433.861 8.50325ZM454.172 111H433.052V113H454.172V111ZM434.04 111.844L430.584 89.956L428.608 90.268L432.064 112.156L434.04 111.844ZM429.596 89.112H414.364V91.112H429.596V89.112ZM413.377 89.9504L409.793 111.838L411.767 112.162L415.351 90.2736L413.377 89.9504ZM410.78 111H389.148V113H410.78V111ZM416.412 77.416H427.42V75.416H416.412V77.416ZM428.411 76.2812L422.907 35.8332L420.925 36.1028L426.429 76.5508L428.411 76.2812ZM420.925 35.8332L415.421 76.2812L417.403 76.5508L422.907 36.1028L420.925 35.8332ZM460.8 112H459.8V113H460.8V112ZM460.8 8.31999V7.31999H459.8V8.31999H460.8ZM476.928 8.31999L477.848 7.92835L477.589 7.31999H476.928V8.31999ZM498.176 58.24L497.256 58.6316L499.176 58.24H498.176ZM498.176 8.31999V7.31999H497.176V8.31999H498.176ZM517.12 8.31999H518.12V7.31999H517.12V8.31999ZM517.12 112V113H518.12V112H517.12ZM501.632 112L500.702 112.368L500.952 113H501.632V112ZM480.384 58.24L481.314 57.8724L479.384 58.24H480.384ZM480.384 112V113H481.384V112H480.384ZM461.8 112V8.31999H459.8V112H461.8ZM460.8 9.31999H476.928V7.31999H460.8V9.31999ZM476.008 8.71163L497.256 58.6316L499.096 57.8484L477.848 7.92835L476.008 8.71163ZM499.176 58.24V8.31999H497.176V58.24H499.176ZM498.176 9.31999H517.12V7.31999H498.176V9.31999ZM516.12 8.31999V112H518.12V8.31999H516.12ZM517.12 111H501.632V113H517.12V111ZM502.562 111.632L481.314 57.8724L479.454 58.6076L500.702 112.368L502.562 111.632ZM479.384 58.24V112H481.384V58.24H479.384ZM480.384 111H460.8V113H480.384V111Z" fill="white" mask="url(#path-1-outside-1_5506_11103)"/>
</g>
<defs>
<clipPath id="clip0_5506_11103">
<rect width="525" height="122" fill="white"/>
</clipPath>
</defs>
</svg>
