<svg width="180" height="183" viewBox="0 0 180 183" fill="none" xmlns="http://www.w3.org/2000/svg">
<path d="M90.2418 0C40.4859 0 0 44.5025 0 99.1928C0 134.045 16.5853 164.606 40.9746 182.3L45.3649 179.083C46.3401 178.547 47.804 177.474 48.7793 176.939C50.2425 176.402 51.7064 175.33 52.6816 174.794C54.1448 174.258 55.6087 173.721 57.0719 172.649C58.0471 172.113 59.511 171.576 60.4863 171.04C61.9495 170.505 63.9007 169.968 65.3646 169.432C66.8271 168.895 67.803 168.895 69.2669 168.36C70.7294 167.823 71.7053 167.823 73.1692 167.287C74.6317 166.751 76.0956 166.751 77.5588 166.751C79.0227 166.751 80.9739 166.215 82.4371 166.215V107.235H77.5588V96.5118H101.949V167.287C115.607 169.432 127.802 174.794 139.021 182.3C163.898 164.606 179.996 134.045 179.996 99.1928C180.484 44.5017 139.996 0 90.2418 0ZM117.07 99.1928C117.07 83.1072 104.875 69.7033 90.2418 69.7033C75.6077 69.7033 63.4134 83.1072 63.4134 99.1928C63.4134 110.453 69.2669 120.64 78.0468 125.466V131.363C66.8278 126.001 58.5351 113.669 58.5351 99.1928C58.5351 79.8905 72.6813 64.3412 90.2418 64.3412C107.802 64.3412 121.948 79.8905 121.948 99.1928C121.948 111.525 116.095 122.248 107.314 128.682V122.248C113.168 116.351 117.07 108.308 117.07 99.1928ZM107.314 157.636V151.738C127.314 144.232 141.46 123.321 141.46 98.6565C141.46 68.0942 118.533 42.8941 90.2418 42.8941C61.9495 42.8941 39.0234 68.0942 39.0234 99.1928C39.0234 125.466 55.6087 147.985 78.0468 153.882V159.245C53.1696 153.347 34.1458 128.682 34.1458 99.1928C34.1458 64.8775 59.0224 37.5327 90.2411 37.5327C121.46 37.5327 146.338 64.8768 146.338 99.1921C146.338 126.538 129.753 150.129 107.314 157.636Z" fill="#E44A49"/>
</svg>
