<svg width="212" height="143" viewBox="0 0 212 143" fill="none" xmlns="http://www.w3.org/2000/svg">
<mask id="mask0_5558_5494" style="mask-type:luminance" maskUnits="userSpaceOnUse" x="0" y="0" width="212" height="143">
<path d="M0.15625 0.333008H211.156V142.692H0.15625V0.333008Z" fill="white"/>
</mask>
<g mask="url(#mask0_5558_5494)">
<path d="M210.953 123.9C210.906 123.827 206.427 116.765 201.885 109.827C195.906 100.702 193.557 97.4629 192.521 96.3431L195.318 95.2962L199.453 99.6348L211.219 93.0931L195.198 71.0462C198.042 68.791 199.344 64.9004 198.286 61.6244C197.427 58.9629 195.182 57.2962 192.031 56.9369C196.479 53.7442 199.359 47.0723 197.74 43.1348C197.036 41.4212 194.901 38.9056 188.448 40.3014C191.734 37.0046 194.354 33.0619 195.891 29.041C197.396 25.1139 197.677 21.4994 196.677 19.2546C199.427 16.7598 201.115 14.2025 201.562 11.8535C202.5 6.91602 200.693 4.38477 199.01 3.12957C195.245 0.322275 188.844 1.14519 184.464 3.4004C182.406 4.4629 181.26 5.98373 181.323 7.56186C181.37 8.88477 182.255 10.0306 183.677 10.6348C186.792 11.9473 190.479 10.0983 192.885 7.92644L192.328 7.30665C188.943 10.3535 185.807 10.6296 184 9.86394C182.885 9.38998 182.193 8.52019 182.156 7.53582C182.109 6.29102 183.089 5.05665 184.849 4.14519C190.271 1.34311 195.938 1.87957 198.516 3.80144C200.656 5.4004 201.427 8.12957 200.75 11.7025C200.344 13.8327 198.792 16.1817 196.271 18.5098C195.677 17.6504 194.844 17.0983 193.823 16.9056C191.464 16.4629 188.198 17.8848 184.318 21.0306C184.578 19.0827 183.818 16.64 182.016 15.4317C180.38 14.3327 176.802 13.5567 170.786 19.9317C171.26 16.7858 170.083 13.9421 167.667 12.6921C165.354 11.4994 161.656 11.8796 157.948 16.2806C157.792 11.1244 154.141 5.79623 150.016 5.07748C147.531 4.63998 143.005 5.53582 139.891 15.8952C137.75 8.06707 134.151 6.24415 132.115 5.87436C129.604 5.41602 126.995 6.70248 125.307 9.24415C122.438 13.5723 123.505 18.7389 125.453 22.2129C124.464 22.0671 123.255 22.166 122.057 22.9369C119.849 24.3692 118.422 27.6139 117.807 32.5931C116.427 31.4056 114.474 30.9473 112.406 31.3535C109.589 31.916 107.255 33.9681 106.464 36.5879C105.469 39.8535 106.797 43.7233 110.193 47.6087C105.375 46.0619 99.1406 46.8744 95.2396 52.3431C94.4635 53.4212 93.849 54.7181 93.4375 56.1139C64.474 54.0306 20.3646 35.5358 11.8333 21.8379L11.125 22.2806C19.7448 36.1139 64.0625 54.7806 93.2292 56.9212C92.724 59.0671 92.7344 61.265 93.2552 63.3327L77.0208 75.291L77.8333 75.5254C79.6875 76.0567 87.4531 78.2546 91.3021 78.9942C88.8333 79.7858 86.2917 80.5931 83.7031 81.4212L76.8542 83.6087C49.0417 75.9369 38.0833 64.1192 35.3854 60.6764L34.724 61.1921C38.7292 66.2962 45.026 71.0983 53.4479 75.4577C59.9375 78.8171 67.6875 81.8535 75.4115 84.0671C72.5469 84.9837 69.6875 85.8952 66.8698 86.8014L59.5469 82.6139L52.4219 87.0827L46.8073 78.3744L46.4688 78.5462C41.0104 81.3692 27.2344 88.4629 25.1354 89.4785L10.6146 70.7702L9.91146 71.2129L20.1146 91.8171L5.625 79.8796L16.6562 97.0671L0.15625 86.1973L8.52083 97.5202L18.6979 106.531L9.39062 109.635L2.94792 121.15L13.7656 114.114L22.6406 115.984L12.099 128.426L25.7552 121.864L21.4635 133.963C19.2656 133.864 18.3281 133.807 18.2031 133.791C17.75 133.729 16.25 134.083 13.2708 134.848C12.4479 135.057 11.599 135.275 11.4531 135.291L11.4792 135.708V136.124C11.6302 136.124 11.9948 136.036 13.474 135.656C14.9427 135.281 17.6823 134.588 18.099 134.619C18.3906 134.656 20.7344 134.765 21.7344 134.812C23.1354 134.88 24.8073 134.958 26.4792 135.031L28.474 135.119C31.9896 135.275 35.0417 135.406 35.0417 135.406H35.0677L38.6875 135.088L38.6198 134.255L35.0521 134.567C34.7656 134.557 32.2396 134.452 29.2188 134.317L34.1094 126.749L42.6562 131.088C42.9844 132.15 43.3542 133.124 43.7552 133.937L43.8698 134.166H57.0104L56.9792 133.723C56.9688 133.505 56.6406 128.546 55.9375 125.734C56.5781 125.604 57.2188 125.463 57.8594 125.312C59.8646 124.817 70.401 120.52 79.5781 116.588C81.2031 120.202 83.5469 121.4 85.2396 121.4C85.6146 121.4 85.9531 121.343 86.25 121.244C86.276 121.234 86.2969 121.218 86.3177 121.213C86.4167 121.171 86.5052 121.119 86.5938 121.057L91.5781 118.249L91.6354 118.135C92.3646 116.687 92.4531 113.63 91.5 111.338C95.4583 109.525 97.875 108.322 98.8854 107.671L99.1302 107.515L99.0677 107.234C98.375 104.093 97.5156 101.348 96.5833 99.2806C95.7396 97.4264 94.8229 96.0827 93.8594 95.2962C93.5833 95.0619 93.3021 94.8796 93.0104 94.7389L99.474 92.2754L104.828 103.312L98.7604 126.973L99.1719 127.077C99.7813 127.229 102.234 128.145 103.443 128.609L103.604 128.666L114.792 123.859L116.906 128.218L115.87 127.77L111.406 129.275L99.276 130.937L87.5729 129.265L87.5312 129.26H87.4896C85.8125 129.348 80.2969 129.666 79.6302 129.958L79.9635 130.723C80.4219 130.546 84.625 130.249 87.4896 130.093L99.2135 131.765L99.2708 131.775L111.083 130.15V130.843L106.224 134.041L117.312 137.255L122.547 133.27L129.427 132.895L129.193 130.119L134.562 130.666L129.182 136.041L159.88 142.156L160.073 142.192L164.984 138.218L169.276 139.187L170.354 137.426L171.75 137.739L174.641 131.374L167.026 130.708L176.292 129.343L177.203 131.786L191.964 131.197C188.865 132.791 185.349 134.609 185.349 134.609L184.151 135.223L185.49 135.385C185.49 135.385 190.505 136.01 195.536 136.619C202.219 137.421 204.589 137.708 205.479 137.708C205.969 137.708 206.01 137.624 206.073 137.489C206.146 137.343 206.125 137.166 206.026 137.036C205.859 136.744 205.161 134.676 204.578 132.822L204.51 132.609L200.807 131.525L200.589 130.864L209.88 130.364L208.479 125.718L211.198 124.27L210.953 123.9ZM40.9167 118.973C41.1562 118.192 41.4948 117.687 41.8698 117.546C42.0417 117.479 42.276 117.484 42.5625 117.541C40.724 119.593 41.2292 125.676 42.3073 129.885C40.5625 127.145 40.0677 121.687 40.9167 118.973Z" fill="black"/>
</g>
<path d="M83.0988 31.224C84.0207 31.3021 84.9009 31.3438 85.729 31.3438C93.2238 31.3438 97.2082 28.224 97.7603 25.0208C98.2655 22.125 96.0415 19.5885 92.0936 18.5625C88.6561 17.6719 85.8384 18.0938 84.3592 19.7188C83.4894 20.6823 83.2342 21.974 83.6769 23.1823C84.328 24.9427 86.2759 26.1979 88.8905 26.5365L88.9998 25.7083C86.6978 25.4063 84.9998 24.3542 84.4582 22.8906C84.1196 21.9687 84.3071 21.0156 84.9738 20.276C86.2186 18.9063 88.8019 18.5625 91.88 19.3698C95.3748 20.276 97.3592 22.4375 96.9373 24.8802C96.1873 29.2292 89.4425 30.9427 83.1665 30.3906C67.4217 28.9948 46.5415 17.6094 40.4946 9.26562L39.8228 9.75521C45.9686 18.2448 67.1509 29.8125 83.0988 31.224Z" fill="black"/>
<path d="M194.625 70.9736L210.599 92.958L199.521 99.1143L195.427 94.807L191.714 96.1976C191.708 96.1976 191.708 96.1976 191.708 96.1976L170.823 104.041L156.266 109.505L147.359 112.843C147.359 112.843 145.063 109.328 142.193 104.937C142.193 104.937 142.188 104.932 142.188 104.927C142.177 104.911 142.167 104.901 142.167 104.896C139.755 101.218 136.953 96.932 134.766 93.6038C132.635 90.3747 131.094 88.0466 131.052 88.0466L131.047 87.8903C133.021 87.7861 135.104 87.0518 136.797 85.5726C131.052 93.6038 147.365 100.833 149.094 90.6976C152.172 92.1299 159.745 91.9059 157.917 82.0882C164.479 89.057 174.109 86.3955 174.312 76.3434C177.391 79.4215 184.156 78.5986 183.953 71.0153C188.474 73.2861 192.135 72.7549 194.625 70.9736Z" fill="#C41830"/>
<path d="M191.719 96.2033C192.708 95.9169 210.604 124.13 210.604 124.13L207.974 125.531L207.656 124.485L206.047 124.62V124.615L206.719 121.37L191.714 117.745L190.302 120.354L191.417 120.865C191.417 120.865 189.604 125.573 189.474 125.985L175.891 127.099L176.563 128.901L163.448 130.834H163.443L151.891 129.818L151.901 129.719C151.901 129.719 142.86 106.276 142.193 104.953C145.063 109.339 147.36 112.86 147.36 112.86L156.266 109.516L158.932 116.625L174.307 110.172L170.823 104.047L191.719 96.2033C191.714 96.2033 191.714 96.2033 191.719 96.2033Z" fill="#87AAD2"/>
<path d="M207.969 125.526L209.323 129.99L200.01 130.49L199.255 128.224L196.776 129.193C196.677 129.24 195.438 129.886 193.807 130.724L193.802 130.714L177.484 131.365L176.557 128.891L175.891 127.089L189.469 125.974L206.047 124.615L207.651 124.479L207.969 125.526Z" fill="#C41830"/>
<path d="M206.719 121.365L206.047 124.609V124.615L189.474 125.974C189.604 125.563 191.417 120.854 191.417 120.854L190.302 120.344L191.714 117.734L206.719 121.365Z" fill="#C41830"/>
<path d="M200.015 130.49L200.479 131.875L204.177 132.958C204.177 132.958 205.484 137.099 205.698 137.312C205.917 137.526 185.542 134.984 185.542 134.984C185.542 134.984 190.479 132.438 193.812 130.719C195.443 129.88 196.682 129.24 196.781 129.188L199.255 128.219L200.015 130.49Z" fill="#87AAD2"/>
<path d="M170.823 104.047L174.307 110.161L158.932 116.615L156.266 109.505L170.823 104.047Z" fill="#C41830"/>
<path d="M174.016 131.755L171.505 137.271L170.151 136.969L169.073 138.729L164.88 137.786L167.339 135.797L149.052 131.146L150.521 129.688L151.891 129.812L163.443 130.823H163.448L174.016 131.755Z" fill="#C41830"/>
<mask id="mask1_5558_5494" style="mask-type:luminance" maskUnits="userSpaceOnUse" x="129" y="127" width="40" height="16">
<path d="M129.667 127H168.333V142.693H129.667V127Z" fill="white"/>
</mask>
<g mask="url(#mask1_5558_5494)">
<path d="M167.338 135.797L164.88 137.786L159.958 141.755L130.026 135.797L135.474 130.354H135.479L137.609 128.224L149.052 131.146L167.338 135.797Z" fill="#87AAD2"/>
</g>
<path d="M114.984 123.328L105.276 103.291L99.7603 91.9111L99.6978 91.7445L112.609 86.833L112.677 87.0101L134.765 93.6038C136.953 96.932 139.76 101.218 142.167 104.896C142.167 104.906 142.177 104.916 142.187 104.927C142.187 104.932 142.193 104.937 142.193 104.937C142.859 106.26 151.901 129.708 151.901 129.708L151.89 129.807L150.521 129.682L149.057 131.135L137.609 128.218L135.484 130.349H135.479L128.974 129.682L128.734 129.708L128.323 124.911H117.765C117.765 124.911 117.734 128.869 117.765 129.057L114.984 123.328ZM139.765 111.567L135.479 101.953L123.359 98.4945L126.646 107.765L139.765 111.567Z" fill="#87AAD2"/>
<path d="M93.7449 56.5416C94.1512 55.0364 94.7918 53.6718 95.5783 52.5729C99.6772 46.8281 106.651 46.2187 111.776 48.677C98.8543 35.7604 113.417 27.7604 118.13 33.5052C119.156 23.25 123.255 21.8125 126.333 22.8385C117.719 9.71871 134.943 -4.22399 139.865 17.5104C145.604 -4.22399 158.318 8.07288 157.495 17.5104C164.672 7.86976 172.458 13.8177 170.005 21.4062C181.078 8.69788 185.38 18.5364 183.531 22.2239C190.458 16.2343 194.625 16.2187 196.172 19.1562C198.386 23.3593 195.224 33.6093 187.016 41.0885C203.005 36.5781 198.5 52.9791 190.703 57.2864C199.833 57.2864 200.016 67.0989 194.62 70.9739C192.136 72.7552 188.469 73.2864 183.943 71.026C184.146 78.6093 177.38 79.4375 174.307 76.3593C174.104 86.4062 164.464 89.0677 157.906 82.0989C159.735 91.9166 152.167 92.1458 149.089 90.7083C147.36 100.844 131.047 93.6145 136.787 85.5833C135.094 87.0677 133.016 87.7968 131.037 87.901C127.255 88.0989 123.87 85.9895 124.412 82.3541L151.422 72.0781C149.969 70.1302 150.292 68.0312 150.932 67.1354C148.875 66.1093 147.583 64.0468 147.38 61.7552L147.354 61.7604L131.042 67.1354L135.141 53.802L144.797 47.0052C144.245 46.1146 143.974 45.0989 143.938 44.1093L133.703 50.802C133.703 50.802 133.906 43.3489 133.703 42.7291L133.693 42.6093C132.703 42.6666 131.802 42.4583 131.037 42.0625V53.5937L119.557 70.4062C119.557 70.4062 115.063 71.8385 108.094 74.0625C99.1147 72.4948 94.9949 68.1146 93.7137 63.4948C93.0679 61.125 93.1668 58.6875 93.7449 56.5416Z" fill="#4CAF50"/>
<path d="M135.479 101.953L139.766 111.567L126.646 107.765L123.359 98.4893L135.479 101.953Z" fill="#C41830"/>
<path d="M25.0103 89.9893L29.8228 96.1976L31.604 98.4945C31.8696 98.4059 48.2603 93.1768 66.8176 87.2549C70.1196 86.1924 73.4946 85.1143 76.8592 84.0466C82.4634 82.2549 88.0415 80.4736 93.2238 78.8174C93.2394 78.8122 93.2551 78.8122 93.2655 78.807C98.8071 77.0361 103.901 75.4059 108.104 74.0674C115.062 71.8486 119.562 70.4163 119.562 70.4163L131.047 53.5986V42.0674C131.812 42.4632 132.713 42.6663 133.703 42.6143L133.708 42.734C133.911 43.3486 133.708 50.807 133.708 50.807L143.948 44.1143C143.979 45.1038 144.255 46.1195 144.802 47.0049L135.151 53.807L131.052 67.1403L147.359 61.7653L147.39 61.7601C147.583 64.0466 148.885 66.109 150.943 67.1403C150.297 68.0361 149.979 70.1351 151.432 72.083L124.417 82.3591L112.609 86.8538L99.6978 91.7601L91.9426 94.7132L42.0675 113.672L33.9634 126.218L28.4946 134.677V134.708C26.203 134.604 23.7186 134.494 21.7603 134.401L26.4894 121.052L13.6873 127.208L23.4113 115.724L13.6873 113.672L4.14046 119.88L9.67171 109.979L19.5155 106.698L8.854 97.2705L1.88525 87.833L18.0832 98.4997L7.4165 81.8903L21.3592 93.3747L10.2863 71.0205L25.0103 89.9893Z" fill="#794426"/>
<path d="M131.052 88.0518C131.088 88.0518 132.635 90.3799 134.76 93.609L112.672 87.0153L112.604 86.8382L124.417 82.3486C123.875 85.984 127.26 88.0986 131.042 87.8955L131.052 88.0518Z" fill="#C41830"/>
<path d="M128.729 129.709L128.969 132.516L122.391 132.87L123.891 131.735L117.755 129.063C117.729 128.875 117.755 124.917 117.755 124.917H128.313L128.729 129.709Z" fill="#C41830"/>
<path d="M123.896 131.734L122.396 132.869H122.39L117.224 136.807L107.198 133.906L111.495 131.083V129.687L115.844 128.224L117.76 129.062L123.896 131.734Z" fill="#87AAD2"/>
<path d="M105.276 103.292L114.984 123.334L103.589 128.229C103.589 128.229 100.068 126.881 99.2656 126.677L105.26 103.297L105.276 103.292Z" fill="#87AAD2"/>
<path d="M96.203 99.4583C97.4582 102.234 98.2655 105.547 98.6561 107.323C97.5571 108.036 94.6873 109.427 90.953 111.135C89.6457 111.729 88.2342 112.365 86.755 113.021C84.5467 113.995 82.1821 115.031 79.7967 116.052C69.9478 120.276 59.6613 124.448 57.7603 124.917C56.9061 125.12 56.1196 125.292 55.4217 125.427C53.2238 125.849 51.88 125.932 51.88 125.932C49.9842 122.672 47.328 119.88 45.1248 118.344C44.5259 117.927 43.9582 117.604 43.453 117.391H43.4478C42.7394 117.094 42.1457 117 41.729 117.161C39.4061 118.031 39.5728 126.734 42.1092 130.359L33.9634 126.224L42.0675 113.672L91.9373 94.7031L91.9894 94.849C92.5623 94.9375 93.0988 95.2083 93.5936 95.625C91.578 96.276 86.7655 99.3906 85.0988 100.656L84.6613 104.109L96.203 99.4583ZM83.1405 104.755V102.87L66.8175 109.906L68.2707 111.135L83.1405 104.755ZM52.6092 117.953L66.4634 112.01L63.7759 109.547C63.7759 109.547 54.7811 110.922 46.6613 114.188C47.0259 114.547 52.6092 117.953 52.6092 117.953Z" fill="#C41830"/>
<path d="M96.2033 99.4587L84.6616 104.104L85.0991 100.651C86.771 99.391 91.5835 96.2764 93.5939 95.6201C94.6147 96.4535 95.4845 97.8701 96.2033 99.4587Z" fill="#87AAD2"/>
<path d="M108.109 74.0677C103.906 75.4063 98.8175 77.0313 93.2707 78.8021C93.255 78.8073 93.2446 78.8125 93.229 78.8125C91.7967 79.0833 77.9478 75.1198 77.9478 75.1198L93.7238 63.5C95.005 68.1198 99.13 72.5052 108.109 74.0677Z" fill="#C41830"/>
<path d="M90.9531 111.136C92.0156 113.313 91.9896 116.506 91.2604 117.953L86.3906 120.698C87.6198 119.745 87.9583 115.594 86.7552 113.021C88.2344 112.36 89.6458 111.729 90.9531 111.136Z" fill="black"/>
<path d="M86.7552 113.021C87.9583 115.588 87.6198 119.739 86.3906 120.698L86.1094 120.859C84.6615 121.369 81.6927 120.64 79.7969 116.052C82.1823 115.026 84.5469 113.994 86.7552 113.021Z" fill="#87AAD2"/>
<path d="M83.1408 102.87V104.756L68.271 111.136L66.8179 109.907L83.1408 102.87Z" fill="#87AAD2"/>
<path d="M66.4637 112.005L52.6095 117.948C52.6095 117.948 47.0262 114.541 46.6616 114.182C54.7814 110.916 63.7762 109.536 63.7762 109.536L66.4637 112.005Z" fill="#87AAD2"/>
<path d="M56.5623 133.76H47.203V132.714C49.6821 132.714 48.0311 119.182 44.4321 119.182L45.1196 118.344C47.328 119.88 49.979 122.667 51.8748 125.932C51.8748 125.932 53.2134 125.849 55.4165 125.427C56.203 128.109 56.5623 133.76 56.5623 133.76Z" fill="black"/>
<path d="M52.2967 87.6514L46.4009 91.3545C46.4009 91.3545 29.979 96.3962 29.8332 96.1982H29.828L25.0103 89.9899C25.2238 89.9899 46.6613 78.917 46.6613 78.917L52.2967 87.6514Z" fill="#C41830"/>
<path d="M44.4323 119.177C48.026 119.177 49.6823 132.713 47.2031 132.713C47.0416 132.713 46.8593 132.651 46.6614 132.526C43.3958 130.494 41.7864 119.354 44.3385 119.182C44.375 119.177 44.4114 119.177 44.4323 119.177Z" fill="#87AAD2"/>
<path d="M46.6616 132.531C46.8595 132.656 47.0418 132.714 47.2084 132.714V133.76H44.1251C43.6355 132.771 43.2032 131.578 42.8491 130.286C41.4064 125.094 41.2032 118.391 43.448 117.391H43.4532C43.9584 117.599 44.5209 117.927 45.1251 118.339L44.4376 119.177C44.4116 119.177 44.3751 119.177 44.3439 119.182C41.7918 119.359 43.3959 130.5 46.6616 132.531Z" fill="black"/>
<path d="M29.8281 96.2028C29.9792 96.3955 46.3958 91.3538 46.3958 91.3538L52.2917 87.6559L59.5573 83.0986L66.8177 87.2549C48.2604 93.1768 31.875 98.4111 31.6094 98.4997L29.8281 96.2028Z" fill="#C41830"/>
<path d="M143.479 96.0986C140.677 96.0986 137.656 94.5569 136.135 92.2183C135.062 90.5673 134.864 88.7496 135.552 86.984C134.198 87.7652 132.656 88.234 131.062 88.3173C128.651 88.4371 126.442 87.6767 125.151 86.2496C124.172 85.1767 123.771 83.8069 123.995 82.286L124.823 82.411C124.64 83.6715 124.963 84.8069 125.765 85.6923C126.89 86.9267 128.854 87.5933 131.015 87.4788C133.057 87.3746 135.005 86.5829 136.51 85.2704L139.224 82.8902L137.13 85.8277C135.724 87.7913 135.62 89.9058 136.833 91.7704C138.416 94.2027 141.958 95.7131 144.724 95.1402C146.229 94.8277 148.14 93.7965 148.677 90.6402L148.771 90.1038L149.265 90.3329C150.682 90.9944 153.708 91.4475 155.781 89.8381C157.578 88.4527 158.166 85.8017 157.495 82.1767L157.229 80.7808L158.203 81.8173C161.323 85.1298 165.359 86.385 168.739 85.0829C171.922 83.859 173.797 80.6767 173.885 76.3538L173.906 75.3746L174.599 76.0673C176.104 77.5673 178.495 78.0465 180.416 77.2183C182.505 76.3173 183.614 74.1246 183.531 71.036L183.51 70.3433L184.135 70.6558C188.026 72.5985 191.661 72.5933 194.38 70.635C197.125 68.6663 198.468 64.9058 197.495 61.885C196.995 60.3277 195.448 57.7079 190.718 57.7079H189.099L190.515 56.9267C195.177 54.3538 198.557 47.3069 196.979 43.4631C195.849 40.7235 192.354 40.0256 187.14 41.4944L185.437 41.9735L186.739 40.786C194.614 33.609 198.021 23.5517 195.807 19.359C195.333 18.4527 194.614 17.911 193.666 17.7288C192.062 17.4267 189.047 18.0152 183.812 22.5465L182.229 23.911L183.166 22.036C183.984 20.3954 183.453 17.3902 181.557 16.1194C178.989 14.4006 174.901 16.4267 170.323 21.6819L168.984 23.2183L169.609 21.2808C170.703 17.9215 169.745 14.6923 167.286 13.4267C165.114 12.3017 161.489 12.8538 157.838 17.76L156.958 18.9423L157.088 17.4735C157.526 12.4371 153.885 6.58292 149.875 5.89021C145.922 5.1975 142.422 9.47355 140.276 17.6194L139.838 19.2652L139.463 17.6038C138.031 11.2808 135.302 7.29646 131.968 6.68709C129.791 6.28605 127.51 7.43709 126.01 9.6975C123.114 14.0621 124.562 19.385 126.687 22.6142L127.343 23.6194L126.203 23.2392C125.276 22.9267 123.88 22.7496 122.521 23.6298C120.432 24.9788 119.062 28.4058 118.547 33.5517L118.448 34.5517L117.807 33.7756C116.64 32.3485 114.682 31.7496 112.573 32.1663C110.052 32.6663 107.974 34.4944 107.265 36.8225C106.25 40.161 107.958 44.2652 112.073 48.3798L113.802 50.109L111.593 49.0517C106.932 46.8173 100.041 47.0413 95.9164 52.8173C95.1456 53.9006 94.531 55.2235 94.1456 56.6506C93.5362 58.9006 93.5258 61.234 94.1247 63.3902C95.1664 67.1402 98.4424 71.9579 108.177 73.6558C108.239 73.6663 108.291 73.6819 108.338 73.6871L108.234 74.5152C108.156 74.5048 108.088 74.4892 108.015 74.4735C100.099 73.0933 94.8799 69.234 93.3226 63.6142C92.682 61.3121 92.6872 58.8329 93.3435 56.4319C93.7497 54.911 94.406 53.4944 95.2393 52.3277C99.1403 46.859 105.37 46.0465 110.192 47.5985C106.791 43.7079 105.468 39.8433 106.463 36.5777C107.255 33.9527 109.588 31.9058 112.406 31.3433C114.474 30.9267 116.432 31.3902 117.807 32.5829C118.422 27.6038 119.849 24.3538 122.057 22.9267C123.255 22.1506 124.463 22.0569 125.453 22.2027C123.505 18.7183 122.432 13.5569 125.307 9.22875C126.995 6.6923 129.604 5.40063 132.114 5.86417C134.146 6.23396 137.745 8.05167 139.89 15.885C143.005 5.52563 147.531 4.6298 150.015 5.0673C154.14 5.78084 157.791 11.109 157.948 16.2704C161.656 11.8694 165.354 11.484 167.666 12.6819C170.083 13.9319 171.26 16.7756 170.786 19.9215C176.802 13.5465 180.38 14.3277 182.015 15.4215C183.817 16.6246 184.578 19.0725 184.317 21.0152C188.198 17.8746 191.463 16.4475 193.823 16.8902C195.015 17.1142 195.958 17.8277 196.547 18.9527C197.713 21.161 197.474 24.9319 195.901 29.0308C194.359 33.0517 191.745 37.0048 188.453 40.2913C194.911 38.9006 197.047 41.4163 197.75 43.1298C199.364 47.0621 196.489 53.734 192.036 56.9319C195.187 57.2913 197.437 58.9527 198.297 61.6194C199.39 65.0204 197.948 69.0933 194.87 71.2965C193.208 72.4944 189.677 74.0829 184.37 71.6715C184.281 74.734 182.984 77.01 180.755 77.9683C178.797 78.8069 176.422 78.484 174.687 77.2079C174.364 81.3954 172.291 84.5881 169.052 85.8381C165.677 87.135 161.729 86.1402 158.515 83.2444C158.989 87.3954 157.614 89.4579 156.307 90.4788C154.354 91.9892 151.427 92.01 149.406 91.2704C148.823 93.8069 147.239 95.4527 144.906 95.9423C144.437 96.0517 143.958 96.0986 143.479 96.0986Z" fill="black"/>
<mask id="mask2_5558_5494" style="mask-type:luminance" maskUnits="userSpaceOnUse" x="0" y="69" width="94" height="66">
<path d="M0.15625 69.667H93.6667V135H0.15625V69.667Z" fill="white"/>
</mask>
<g mask="url(#mask2_5558_5494)">
<path d="M22.1458 134.542L21.3594 134.26L25.7552 121.865L12.099 128.427L22.6406 115.984L13.7656 114.115L2.94792 121.151L9.38542 109.641L18.6927 106.536L8.51562 97.5208L0.15625 86.1979L16.6615 97.0677L5.63021 79.8802L20.1198 91.8177L9.91146 71.2083L10.6198 70.7656L31.7604 98.0052C34.1875 97.2292 51.6667 91.6458 66.6979 86.8542C70.0052 85.7917 73.375 84.7135 76.7396 83.6458L83.7083 81.4167C86.9271 80.3958 90.0833 79.3854 93.1094 78.4167L93.3646 79.2135C90.3385 80.1771 87.1823 81.1875 83.9635 82.2135L76.9948 84.4375C73.6302 85.5104 70.2552 86.5833 66.9531 87.6458C45.7969 94.3958 31.9844 98.8125 31.7396 98.8854L31.4635 98.9792L12.5104 74.5573L22.6042 94.9323L9.20833 83.901L19.4948 99.9271L3.61458 89.474L9.16667 96.9896L20.3333 106.87L9.95833 110.328L5.32812 118.609L13.6042 113.224L24.1823 115.453L15.2708 125.979L27.2188 120.234L22.1458 134.542Z" fill="black"/>
</g>
<path d="M93.4012 79.2031L93.146 78.4115L119.302 70.0573L130.63 53.4635V42.0677L131.469 42.0625V53.724L119.828 70.7656L93.4012 79.2031Z" fill="black"/>
<path d="M133.276 51.5833L133.297 50.7865C133.39 47.2708 133.432 43.2917 133.318 42.8542L134.109 42.5938C134.297 43.151 134.208 47.7188 134.151 50.0104L143.943 43.6146L144.401 44.3125L144.182 44.4583L133.276 51.5833Z" fill="black"/>
<path d="M130.412 67.7809L134.797 53.5413L144.891 46.4268L145.375 47.109L145.047 47.3382L135.511 54.0622L131.688 66.4788L147.229 61.359L147.495 62.1507L130.412 67.7809Z" fill="black"/>
<path d="M156.141 75.5212C153.839 74.8024 152.135 73.7243 151.089 72.3232C149.656 70.4066 149.839 68.3962 150.359 67.2972C148.427 66.1618 147.172 64.141 146.969 61.792C146.823 60.1357 147.224 58.4795 148.13 56.9951C148.641 56.1618 149.312 55.3962 150.12 54.7139L150.656 55.3545C149.922 55.9795 149.307 56.6722 148.844 57.4326C148.031 58.7555 147.672 60.2399 147.802 61.7139C147.99 63.9274 149.229 65.8076 151.12 66.7555L151.557 66.9743L151.271 67.3701C150.693 68.1774 150.458 70.0889 151.755 71.818C152.698 73.0837 154.255 74.0576 156.385 74.7243L156.141 75.5212Z" fill="black"/>
<path d="M133.385 43.0365C132.495 43.0365 131.63 42.8333 130.859 42.4375C128.916 41.4375 127.833 39.3854 128.177 37.3281L129 37.4635C128.713 39.1615 129.62 40.8594 131.239 41.6875C131.974 42.0625 132.812 42.2344 133.682 42.1875C134.896 42.1146 136.135 41.6302 137.364 40.7448L137.854 41.4219C136.495 42.401 135.109 42.9375 133.729 43.0208C133.614 43.0313 133.5 43.0365 133.385 43.0365Z" fill="black"/>
<path d="M149.677 50.1198C146.713 49.9271 145.198 48.4375 144.448 47.2188C143.885 46.3073 143.573 45.2344 143.531 44.1198C143.463 42.1823 144.229 40.474 145.526 39.6562L145.974 40.3594C144.942 41.0104 144.312 42.474 144.37 44.0885C144.401 45.0573 144.677 45.9844 145.161 46.7812C145.807 47.8281 147.125 49.1198 149.734 49.2812L149.677 50.1198Z" fill="black"/>
<path d="M28.8438 134.907L28.1406 134.453L41.7865 113.328L41.9167 113.282L151.281 71.6826L151.573 72.4639L42.3385 114.011L28.8438 134.907Z" fill="black"/>
<mask id="mask3_5558_5494" style="mask-type:luminance" maskUnits="userSpaceOnUse" x="191" y="69" width="21" height="32">
<path d="M191 69.667H211.156V100.334H191V69.667Z" fill="white"/>
</mask>
<g mask="url(#mask3_5558_5494)">
<path d="M199.448 99.6361L195.312 95.2975L191.859 96.5892L191.573 95.8079L195.536 94.3184L199.609 98.5944L209.989 92.8236L194.286 71.2194L194.958 70.7246L211.219 93.0944L199.448 99.6361Z" fill="black"/>
</g>
<path d="M147.193 113.359L147.01 113.083C147.01 113.083 144.708 109.563 141.838 105.177L142.542 104.719C144.932 108.38 146.932 111.432 147.531 112.349L191.573 95.8125L191.864 96.5938L147.193 113.359Z" fill="black"/>
<path d="M141.833 105.161L141.812 105.125C139.401 101.448 136.599 97.1663 134.411 93.8382C133.552 92.5361 130.948 88.583 130.745 88.3278L131.052 88.0778V87.6299C131.323 87.6299 131.323 87.6299 135.109 93.3799C137.297 96.708 140.104 100.994 142.515 104.672L142.562 104.771L142.307 104.849L141.833 105.161Z" fill="black"/>
<path d="M93.0991 79.2396C90.922 79.2396 80.0679 76.1615 77.8335 75.526L77.021 75.2917L93.4793 63.1719L93.9741 63.8438L78.8804 74.9583C84.2345 76.474 92.2241 78.5885 93.1512 78.4115L93.4012 79.2083C93.3804 79.2135 93.3595 79.2188 93.3283 79.2292C93.271 79.2344 93.1929 79.2396 93.0991 79.2396Z" fill="black"/>
<mask id="mask4_5558_5494" style="mask-type:luminance" maskUnits="userSpaceOnUse" x="191" y="95" width="21" height="32">
<path d="M191 95H211.156V127H191V95Z" fill="white"/>
</mask>
<g mask="url(#mask4_5558_5494)">
<path d="M208.167 125.896L207.776 125.162L210.011 123.969C203.172 113.203 192.802 97.2866 191.604 96.5886C191.62 96.5938 191.662 96.6095 191.714 96.6095V96.1876L191.599 95.797C192.052 95.672 192.516 95.5366 201.88 109.828C206.427 116.766 210.906 123.833 210.948 123.901L211.193 124.281L208.167 125.896Z" fill="black"/>
</g>
<path d="M151.505 129.865C151.417 129.63 142.464 106.427 141.812 105.135L141.807 105.12C141.797 105.109 141.792 105.094 141.786 105.089L141.766 105.042V104.938H142.094L142.531 104.719L142.161 104.901L142.505 104.672L142.599 104.849C143.531 106.875 151.922 128.62 152.281 129.562L151.505 129.865Z" fill="black"/>
<path d="M112.552 87.4163L112.792 86.6143L134.88 93.208L134.641 94.0101L112.552 87.4163Z" fill="black"/>
<path d="M99.3804 92.099L100.136 91.7344L118.136 128.88L117.386 129.245L99.3804 92.099Z" fill="black"/>
<path d="M103.594 128.677L103.438 128.614C102.229 128.151 99.7814 127.234 99.1616 127.083L98.7554 126.984L104.854 103.192L105.662 103.401L99.771 126.39C100.818 126.724 102.969 127.541 103.578 127.771L114.896 122.911H114.979L114.985 123.333L115.146 123.713L103.594 128.677Z" fill="black"/>
<path d="M158.693 117.167L155.875 109.657L156.661 109.36L159.167 116.063L173.714 109.959L170.458 104.25L171.188 103.839L174.906 110.365L158.693 117.167Z" fill="black"/>
<path d="M190.114 112.031L187.323 107.906L183.229 110.739L181.14 107.843L179.198 108.718L178.854 107.958L181.417 106.807L183.427 109.588L187.542 106.744L190.489 111.099L195.646 110.031L194.198 107L199.187 106.192L199.323 107.015L195.432 107.646L196.854 110.63L190.114 112.031Z" fill="black"/>
<path d="M179.364 122.109L178.682 121.635L183.161 115.229L187.807 116.646L189.917 111.411L190.687 111.724L188.292 117.666L183.5 116.208L179.364 122.109Z" fill="black"/>
<mask id="mask5_5558_5494" style="mask-type:luminance" maskUnits="userSpaceOnUse" x="128" y="127" width="41" height="16">
<path d="M128.333 127H168.333V142.693H128.333V127Z" fill="white"/>
</mask>
<g mask="url(#mask5_5558_5494)">
<path d="M160.068 142.203L159.875 142.167L129.177 136.057L135.177 130.062L135.771 130.651L130.875 135.542L159.849 141.312L166.427 135.995L137.735 128.688L135.776 130.651L135.182 130.062L137.479 127.766L168.25 135.599L160.068 142.203Z" fill="black"/>
</g>
<path d="M169.271 139.198L164.787 138.192L164.974 137.375L168.875 138.255L169.953 136.494L171.266 136.791L173.391 132.114L163.412 131.244L163.485 130.411L174.641 131.39L171.745 137.75L170.349 137.437L169.271 139.198Z" fill="black"/>
<path d="M149.349 131.443L148.76 130.844L150.364 129.261L163.479 130.412L163.406 131.245L150.677 130.125L149.349 131.443Z" fill="black"/>
<path d="M177.203 131.802L175.307 126.718L207.958 124.036L209.88 130.375L199.838 130.916L199.807 130.083L199.995 130.073L208.765 129.604L207.354 124.922L176.474 127.458L177.771 130.937L193.786 130.302L193.823 131.13L177.203 131.802Z" fill="black"/>
<path d="M205.474 137.724C204.583 137.724 202.219 137.438 195.537 136.636C190.5 136.032 185.485 135.407 185.485 135.407L184.146 135.24L185.344 134.625C185.344 134.625 190.281 132.073 193.615 130.354L196.62 128.808L199.505 127.683L200.802 131.542L204.505 132.625L204.573 132.839C205.156 134.698 205.849 136.766 206.021 137.058C206.12 137.183 206.141 137.354 206.073 137.506C206.005 137.636 205.964 137.724 205.474 137.724ZM186.927 134.745C193.682 135.589 202.636 136.667 205.047 136.881C204.823 136.302 204.458 135.245 203.844 133.302L200.146 132.219L198.995 128.771L196.943 129.573L193.995 131.099C191.688 132.292 188.599 133.881 186.927 134.745Z" fill="black"/>
<path d="M189.87 126.099L189.073 125.854C189.182 125.5 190.448 122.198 190.88 121.073L189.719 120.541L191.495 117.255L207.203 121.057L206.453 124.698L205.635 124.531L206.224 121.677L191.927 118.218L190.88 120.151L191.937 120.64L191.797 121.005C191.302 122.312 189.969 125.776 189.87 126.099Z" fill="black"/>
<path d="M122.651 133.203L122.146 132.537L123.078 131.828L117.599 129.448L117.932 128.683L124.714 131.636L122.651 133.203Z" fill="black"/>
<path d="M117.307 137.266L106.219 134.058L111.073 130.854V129.391L115.865 127.776L117.932 128.677L117.599 129.443L115.823 128.672L111.911 129.99V131.308L108.188 133.761L117.135 136.349L122.141 132.537L122.646 133.203L117.307 137.266Z" fill="black"/>
<path d="M122.416 133.292L122.39 132.87V132.453L128.515 132.125L127.937 125.334H118.182C118.172 126.802 118.161 128.818 118.182 129.011V129.063H117.755L117.354 129.125C117.354 129.11 117.349 129.089 117.349 129.063C117.328 128.651 117.333 126.61 117.349 124.907L117.354 124.495H128.708L129.427 132.907L122.416 133.292Z" fill="black"/>
<path d="M43.4064 131.484L33.771 126.588L34.1512 125.849L41.0679 129.359C39.6095 126.218 39.3127 121.338 40.12 118.729C40.4481 117.666 40.9429 117.01 41.5835 116.765C42.0991 116.572 42.7866 116.656 43.6147 117.01L43.2918 117.776C42.6825 117.515 42.1825 117.437 41.8804 117.546C41.5054 117.687 41.1616 118.197 40.922 118.979C40.0575 121.77 40.5939 127.458 42.4585 130.119L43.4064 131.484Z" fill="black"/>
<path d="M51.6509 126.364L51.5155 126.14C49.8071 123.198 47.2655 120.338 44.88 118.682C44.3019 118.281 43.7655 117.974 43.2915 117.771L43.6144 117.005C44.1457 117.229 44.729 117.562 45.3592 117.994C47.7759 119.677 50.3384 122.531 52.104 125.489C52.5832 125.442 53.7342 125.317 55.3384 125.01C56.104 124.864 56.8853 124.698 57.6561 124.505C59.4061 124.073 69.2655 120.109 79.6248 115.661C81.8748 114.698 84.2134 113.677 86.578 112.635C88.0623 111.979 89.4686 111.349 90.7759 110.75C94.5623 109.021 97.0467 107.802 98.1821 107.119C97.5155 104.161 96.703 101.578 95.8175 99.6299C95.0311 97.8903 94.1925 96.6507 93.3228 95.9424C92.8696 95.5622 92.3957 95.3278 91.9217 95.2497L92.0519 94.4268C92.6769 94.5309 93.2811 94.8226 93.854 95.2965C94.8175 96.0882 95.729 97.432 96.5728 99.2861C97.5103 101.349 98.3644 104.093 99.0571 107.234L99.1196 107.521L98.8748 107.677C97.8384 108.349 95.3019 109.604 91.1196 111.515C89.8071 112.109 88.3957 112.744 86.9113 113.401C84.5467 114.448 82.203 115.474 79.9478 116.432C70.6769 120.411 59.88 124.823 57.8436 125.323C57.0623 125.515 56.2707 125.687 55.4842 125.838C53.2863 126.26 51.9478 126.343 51.8957 126.349L51.6509 126.364Z" fill="black"/>
<path d="M52.5728 118.422L52.3853 118.307C51.0675 117.5 46.7342 114.849 46.3644 114.479L45.9165 114.031L46.505 113.797C54.5728 110.552 63.6196 109.146 63.7082 109.125L63.9061 109.099L67.2186 112.135L52.5728 118.422ZM47.5311 114.291C48.6196 115.005 50.979 116.474 52.6353 117.484L65.703 111.88L63.6405 109.984C62.328 110.203 54.6561 111.536 47.5311 114.291Z" fill="black"/>
<path d="M84.1562 104.755L84.7031 100.422L84.8385 100.317C86.3854 99.1455 91.3229 95.9163 93.4583 95.2236L93.7188 96.0153C91.8073 96.6351 87.1979 99.609 85.4844 100.88L85.1562 103.448L96.0417 99.0726L96.3542 99.8434L84.1562 104.755Z" fill="black"/>
<path d="M68.1981 111.619L66.0366 109.791L83.5522 102.239V105.026L68.1981 111.619ZM67.6043 110.021L68.3491 110.651L82.7189 104.479V103.51L67.6043 110.021Z" fill="black"/>
<path d="M47.2033 133.131C46.9585 133.131 46.7033 133.047 46.4377 132.881C43.6304 131.131 42.0939 123.506 42.87 120.396C43.1877 119.11 43.8335 118.797 44.3127 118.766C44.3439 118.761 44.3908 118.761 44.4377 118.761C47.3491 118.761 48.8075 125.511 48.8075 129.287C48.8075 130.344 48.7033 131.235 48.5054 131.865C48.1669 132.912 47.6148 133.131 47.2033 133.131ZM44.4116 119.594C44.4064 119.594 44.396 119.594 44.3908 119.594C43.9741 119.625 43.7658 120.24 43.6773 120.599C42.9741 123.417 44.4533 130.667 46.8804 132.177C47.0054 132.256 47.1148 132.297 47.1981 132.297C47.4533 132.297 47.6356 131.823 47.6981 131.615C47.87 131.068 47.9637 130.266 47.9637 129.292C47.9637 125.021 46.3023 119.599 44.4325 119.599C44.4325 119.594 44.4221 119.594 44.4116 119.594Z" fill="black"/>
<path d="M56.5626 134.177H43.8647L43.7501 133.942C43.2658 132.958 42.8126 131.729 42.4481 130.396C41.1512 125.724 40.521 118.234 43.2814 117.01L43.3647 116.974H43.4533V117.396L43.6199 117.771C41.8491 118.562 41.672 124.474 43.2554 130.177C43.5783 131.354 43.9689 132.448 44.3908 133.343H56.1251C56.021 131.963 55.6616 127.718 55.0262 125.541L55.8283 125.312C56.6147 128.01 56.9741 133.505 56.9897 133.739L57.0158 134.182H56.5626V134.177Z" fill="black"/>
<path d="M85.2344 121.411C83.4844 121.411 81.026 120.135 79.4062 116.208L80.1823 115.891C81.9271 120.125 84.599 120.938 85.974 120.464C86.0208 120.443 86.0781 120.411 86.1302 120.375C87.1042 119.615 87.5885 115.786 86.375 113.198L87.1302 112.844C88.3594 115.464 88.099 119.901 86.6458 121.026C86.5313 121.125 86.3906 121.198 86.25 121.25C85.9531 121.354 85.6094 121.411 85.2344 121.411Z" fill="black"/>
<path d="M86.3123 121.219L85.9009 120.49L90.9373 117.656C91.5623 116.25 91.5467 113.313 90.5728 111.318L91.3228 110.953C92.4634 113.276 92.4009 116.609 91.63 118.141L91.5728 118.255L86.3123 121.219Z" fill="black"/>
<path d="M98.5625 57.1305C97.0208 57.1305 95.4062 57.0732 93.7188 56.9639C64.5625 55.0003 19.7917 36.1982 11.125 22.2816L11.8333 21.8389C20.401 35.5889 64.8125 54.1722 93.776 56.1253C98.9271 56.4743 103.417 56.2816 107.125 55.5576L107.286 56.3805C104.729 56.8805 101.807 57.1305 98.5625 57.1305Z" fill="black"/>
<path d="M85.729 31.3434C84.8957 31.3434 84.0207 31.3018 83.0988 31.2236C67.1509 29.8122 45.9686 18.2445 39.8228 9.76009L40.4998 9.27051C46.5467 17.6143 67.4269 28.9997 83.1717 30.3903C89.4478 30.9476 96.1873 29.2341 96.9425 24.8851C97.3644 22.4476 95.38 20.2809 91.8853 19.3747C88.8019 18.5726 86.2238 18.9111 84.979 20.2809C84.3123 21.0205 84.1248 21.9684 84.4634 22.8955C85.005 24.359 86.6978 25.4111 88.9998 25.7132L88.8957 26.5361C86.2811 26.2028 84.3332 24.9476 83.6821 23.1872C83.2394 21.9788 83.4946 20.682 84.3644 19.7236C85.8384 18.0934 88.6613 17.6715 92.0988 18.5674C96.0415 19.5934 98.2655 22.1299 97.7655 25.0257C97.2134 28.2236 93.229 31.3434 85.729 31.3434Z" fill="black"/>
<path d="M153.193 33.4532C149.474 33.4532 145.75 33.1616 142.094 32.5314L142.234 31.7084C162.771 35.2501 185.646 27.948 195.901 18.8439C198.646 16.4012 200.323 13.9324 200.75 11.698C201.427 8.12511 200.656 5.39594 198.516 3.79698C195.938 1.88032 190.271 1.34386 184.854 4.14594C183.094 5.0574 182.109 6.29178 182.161 7.53657C182.198 8.52094 182.891 9.39594 184.005 9.86469C185.812 10.6303 188.948 10.3543 192.328 7.3074L192.885 7.92719C190.479 10.0991 186.797 11.948 183.682 10.6355C182.26 10.0314 181.375 8.88552 181.323 7.56261C181.26 5.97928 182.411 4.46365 184.469 3.40115C188.849 1.14073 195.245 0.323026 199.01 3.13032C200.698 4.38553 202.505 6.91678 201.568 11.8543C201.104 14.2709 199.339 16.9064 196.453 19.4689C187.88 27.0834 170.63 33.4532 153.193 33.4532Z" fill="black"/>
<path d="M142.536 57.7969C141.547 57.7969 140.609 57.7813 139.745 57.7448L139.781 56.9115C142.198 57.0052 145.203 56.9635 148.474 56.7917C166.885 55.8281 180.479 52.2552 185.328 49.3438L185.76 50.0573C178.724 54.2865 161.526 56.9427 148.515 57.625C146.38 57.7396 144.359 57.7969 142.536 57.7969Z" fill="black"/>
<path d="M93.255 87.4323C89.1353 87.2865 83.1144 86.1979 76.7498 84.4479C68.5936 82.2031 60.3123 79.0104 53.453 75.4531C45.0311 71.0937 38.729 66.2969 34.729 61.1875L35.3905 60.6719C38.0884 64.1198 49.0728 75.9687 76.9738 83.6406C83.2759 85.375 89.2238 86.4531 93.2915 86.599L93.255 87.4323Z" fill="black"/>
<path d="M25.0106 90.4066V89.9899L24.8804 89.5941C25.5158 89.3493 40.6825 81.5368 46.4689 78.5472L46.8075 78.3701L52.646 87.4222L51.9429 87.8753L46.521 79.4587C25.3231 90.4066 25.1408 90.4066 25.0106 90.4066Z" fill="black"/>
<path d="M29.8123 96.6038C29.6092 96.6038 29.5571 96.5361 29.4946 96.4528L30.1665 95.9528C30.0675 95.8226 29.9165 95.7861 29.8436 95.7913C30.5311 95.7393 39.9946 92.8903 46.2238 90.9736L59.5467 82.6143L67.0259 86.8903L66.6144 87.6143L59.5675 83.583L46.5259 91.7549C46.4842 91.7653 42.3696 93.0257 38.2915 94.2497C32.0623 96.1195 30.3696 96.6038 29.8123 96.6038Z" fill="black"/>
<path d="M11.4792 136.126V135.709L11.4531 135.292C11.599 135.277 12.4479 135.058 13.2708 134.849C16.25 134.084 17.75 133.73 18.2031 133.792C18.3333 133.808 19.3542 133.87 21.7708 133.985C23.1719 134.053 24.8437 134.126 26.5156 134.204L28.5104 134.292C31.8281 134.438 34.7396 134.563 35.0469 134.573L38.6146 134.261L38.6875 135.094L35.0625 135.412H35.0365C35.0365 135.412 31.9844 135.277 28.4688 135.126L26.4792 135.037C24.8021 134.964 23.1354 134.886 21.7292 134.818C20.7344 134.771 18.3906 134.662 18.0938 134.626C17.6823 134.594 14.9427 135.287 13.474 135.662C11.9948 136.037 11.6302 136.126 11.4792 136.126Z" fill="black"/>
<path d="M99.2656 131.792L99.2031 131.781L87.4844 130.109C84.6146 130.266 80.4115 130.562 79.9583 130.74L79.625 129.974C80.2917 129.682 85.8021 129.37 87.4792 129.281H87.5208L87.5625 129.286L99.2708 130.953L111.438 129.286L111.552 130.109L99.2656 131.792Z" fill="black"/>
<path d="M135.479 130.771H135.432L128.932 130.11L129.015 129.276L135.515 129.938L135.479 130.334V130.771Z" fill="black"/>
<path d="M163.479 131.245H163.448L163.443 130.812L163.385 130.417L176.505 128.484L176.625 129.307L163.479 131.245Z" fill="black"/>
<path d="M140.51 112.219L126.328 108.11L122.703 97.8701L135.786 101.604L140.51 112.219ZM126.969 107.427L139.016 110.912L135.177 102.297L124.026 99.1149L126.969 107.427Z" fill="black"/>
</svg>
