<svg width="1920" height="1080" viewBox="0 0 1920 1080" fill="none" xmlns="http://www.w3.org/2000/svg">
<path d="M1837.91 866.646C1827.69 857.807 1817.34 849.375 1806.39 841.583C1805.01 840.61 1803.47 840.057 1802.01 840.057C1800.71 840.057 1799.48 840.495 1798.49 841.422C1791.58 840.245 1784.68 839.057 1777.77 837.912C1776.07 835.094 1773.7 833.703 1771.41 833.703C1769.61 833.703 1767.87 834.542 1766.52 836.214C1763.98 843.63 1759.55 847.328 1753.27 847.328C1751.57 847.328 1749.73 847.052 1747.74 846.516C1746.26 845.589 1744.81 845.125 1743.47 845.125C1741.67 845.125 1740.08 845.964 1738.81 847.693C1736.96 849.839 1734.97 851.828 1732.86 853.672C1731.18 850.958 1729.36 848.229 1727.25 844.313C1725.96 841.901 1723.17 839.912 1720.63 839.912C1719.82 839.912 1719.04 840.115 1718.32 840.568C1711.46 845.005 1703.69 846.573 1695.51 846.573C1682.26 846.573 1667.93 842.453 1654.55 839.708C1653.97 839.156 1653.41 838.62 1652.81 838.042C1651.19 836.432 1649.29 835.557 1647.48 835.5C1646.76 833.615 1645.89 831.333 1644.7 827.969C1643.39 824.281 1640.29 822.162 1637.43 822.162C1635.16 822.162 1633.06 823.485 1632.1 826.386C1631.49 828.276 1630.87 830.146 1630.24 832.031L1629.95 831.714C1628.7 829.901 1626.74 829.115 1624.86 829.115C1623.31 829.115 1621.78 829.651 1620.71 830.583C1615.8 829.537 1610.9 828.464 1605.99 827.432C1603.21 823.453 1599.48 820.479 1594.35 819.87C1592.96 819.714 1591.61 819.625 1590.28 819.625C1586.92 819.625 1583.69 820.104 1580.33 820.755C1579.55 820.901 1578.78 820.974 1578.03 820.974C1575.57 820.974 1573.22 820.292 1570.86 819.61C1568.51 818.943 1566.14 818.261 1563.69 818.261C1562.96 818.261 1562.23 818.318 1561.49 818.448C1557.97 819.089 1555.01 822.235 1553.12 825.141C1552.02 826.807 1551.02 828.026 1550.05 829.026C1542.14 823.688 1534.36 818.318 1527.07 818.318C1524.77 818.318 1522.5 818.854 1520.29 820.13C1514.98 812.281 1508.99 809.333 1502.7 809.333C1496.76 809.333 1490.56 811.974 1484.42 815.604C1483.99 815.474 1483.58 815.344 1483.1 815.287C1482.86 815.271 1482.64 815.255 1482.4 815.255C1480.15 815.255 1478.61 816.386 1477.73 818.011C1477.44 818.391 1477.25 818.886 1477.06 819.349C1470.31 812.281 1465.03 805.052 1458.92 796.521C1456.41 797.333 1453.52 797.813 1450.69 797.813C1447.49 797.813 1444.36 797.203 1441.9 795.781C1440.26 796.391 1438.5 796.636 1436.66 796.636C1429.43 796.636 1420.92 792.906 1413.45 792.646C1413.42 792.646 1413.39 792.646 1413.36 792.646C1411.34 792.646 1405.96 794.922 1402.48 795.037C1402.39 795.052 1402.3 795.052 1402.22 795.052C1398.44 795.052 1394.18 791.948 1390.11 791.688C1389.66 792.047 1388.7 793.5 1388.33 793.88C1384.83 790.714 1383.1 786.214 1380.01 782.412C1378.64 782.875 1377.34 783.271 1376.08 783.62L1375.38 783.807C1373 784.417 1370.76 784.75 1368.59 784.75C1368.33 784.75 1368.08 784.75 1367.84 784.735H1367.7C1365.08 784.62 1362.54 783.953 1359.94 782.5C1358.43 786.505 1349.55 789.073 1341.63 789.958L1341.51 789.974C1339.55 790.193 1337.66 790.307 1335.96 790.307C1331.71 790.307 1328.61 789.625 1328.56 788.162C1328.59 789.729 1327.93 791.672 1328.07 793.224C1316.95 796.214 1327.16 804.151 1315.66 806.115C1315.31 806.172 1314.95 806.198 1314.59 806.198C1311.35 806.198 1307.43 804.011 1303.76 801.802C1300.07 799.61 1296.65 797.417 1294.37 797.417C1292.72 797.417 1291.67 798.578 1291.61 801.787C1291.58 803.875 1291.38 805.735 1291.12 807.464C1285.8 806.448 1280.58 804.344 1275.07 800.307C1273.92 799.479 1272.73 799.115 1271.6 799.115C1268.9 799.115 1266.46 801.162 1265.43 803.891C1265.45 803.865 1265.45 803.833 1265.42 803.833C1265.06 803.833 1261.73 806.547 1257.41 809.844C1256.98 808.87 1256.51 807.943 1256.1 806.927C1255.16 804.557 1252.46 803.167 1249.99 803.167C1248.95 803.167 1247.93 803.427 1247.13 803.964C1247.26 803.891 1237.22 796.521 1231.37 793.458C1230.67 793.094 1230.04 792.802 1229.48 792.573L1229.28 792.5C1228.74 792.297 1228.3 792.167 1227.96 792.136C1227.83 792.136 1227.7 792.136 1227.57 792.136C1226.77 792.136 1226 792.208 1225.26 792.281C1224.54 792.37 1223.84 792.5 1223.14 792.662C1216.12 794.313 1210.76 800.12 1206.45 806.302C1204.07 803.979 1201.69 801.641 1199.31 799.333C1198.41 798.276 1197.43 797.708 1196.42 797.375C1195.68 794.995 1194.97 792.589 1194.44 790.078C1193.8 787.073 1190.94 784.849 1188.11 784.735C1187.57 784.719 1187.02 784.693 1186.48 784.662C1186.41 784.662 1186.34 784.662 1186.28 784.662C1183.61 784.662 1180.64 786.594 1180.14 789.495C1179.72 792.021 1178.76 794.224 1177.67 796.36C1174.45 794.37 1171.38 793.516 1168.39 793.516C1161.9 793.516 1155.86 797.563 1149.79 802.485C1146.7 802.787 1143.64 803.078 1140.55 803.412C1129.78 804.63 1119.08 806.521 1108.4 808.432C1107.39 807.797 1106.37 806.953 1105.35 805.708C1102.25 801.875 1098.17 800.438 1093.67 800.438C1084.09 800.438 1072.67 806.969 1065.21 810.537C1060.42 811.656 1055.18 812.776 1050.34 814.615C1049 814.807 1047.65 815.021 1046.3 815.198C1040.97 812.078 1036.58 807.464 1030.67 805.026C1029.08 804.354 1027.64 804.078 1026.29 804.078C1022.37 804.078 1019.27 806.432 1015.98 808.766C1012.69 811.104 1009.23 813.443 1004.61 813.443C1001.95 813.443 998.901 812.672 995.276 810.672C991.417 808.521 986.755 807.594 982.229 807.594C979.995 807.594 977.802 807.813 975.74 808.245C974.219 808.552 972.662 808.698 971.125 808.927C959.339 800.599 944.333 793.776 931.042 793.776C923.406 793.776 916.354 796.026 910.781 801.511C907.776 800.422 904.615 799.943 901.349 799.943C895.932 799.943 890.276 801.292 884.745 803.615C873.12 803.646 861.625 804.833 849.901 806.781C845.458 807.521 841.453 807.839 837.781 807.839C820.583 807.839 810.219 801.005 792.688 799.583C787.667 799.177 782.63 798.985 777.594 798.985C768.875 798.985 760.12 799.552 751.427 800.61C743.943 801.526 729.938 811.625 720.287 811.625C717.63 811.625 715.307 810.875 713.537 808.927C712.432 807.708 710.88 807.141 709.313 807.141C708.021 807.141 706.714 807.521 705.583 808.229L705.162 808.432L704.656 808.391C700.386 808.61 698.63 809.813 697.354 811.005C694.641 811.422 691.724 811.583 688.776 811.583C683.089 811.583 677.328 811.005 672.813 810.698C672.667 810.682 672.537 810.682 672.406 810.682C670.287 810.682 668.735 811.745 667.761 813.297C662.115 815.776 651.292 819.016 654.818 821.307C653.974 820.755 653.016 820.511 652.016 820.511C650.13 820.511 648.156 821.412 646.865 822.844C646.458 823.313 646.125 823.656 645.761 824.063C641.583 822.63 637.255 821.641 632.844 821.453C632.729 821.453 632.61 821.438 632.495 821.438C629.62 821.438 624.849 822.771 619.87 824.11C614.891 825.443 609.724 826.766 606.068 826.766C604.313 826.766 602.906 826.458 602.031 825.703C600.87 824.662 599.172 823.932 597.474 823.932C596.287 823.932 595.083 824.297 594.078 825.167C590.219 828.479 585.792 830.188 581.339 830.188C574.979 830.188 568.583 826.708 563.735 819.464C562.485 817.594 560.38 816.474 558.25 816.474C556.537 816.474 554.781 817.198 553.443 818.839C549.005 824.297 547.422 826.052 545.287 826.052C543.604 826.052 541.589 824.979 537.537 823.745C537.057 823.599 536.552 823.526 536 823.526C533.531 823.526 530.573 824.964 527.599 826.401C524.62 827.823 521.615 829.261 519.047 829.261C517.307 829.261 515.781 828.594 514.594 826.823C513.302 824.875 511.5 823.948 509.599 823.948C507.818 823.948 505.943 824.761 504.302 826.302C499.688 828.563 495.682 829.698 492.302 829.698C486.422 829.698 482.391 826.287 480.198 819.464C479.11 817.62 476.948 816.531 474.771 816.531C472.969 816.531 471.156 817.287 469.922 819C462.203 829.797 456.745 833.714 452.391 833.714C441.563 833.714 437.542 809.464 422.406 806.36C421.318 806.141 420.261 806.026 419.245 806.026C407.807 806.026 400.172 819.016 390.422 826.662C389.552 827.344 388.708 827.912 387.854 828.578C376.646 830.552 364.979 832.891 354.078 835.979C351.162 836.807 347.667 838.261 343.891 839.896C342.615 839.479 341.38 839.188 340.063 838.636C335.052 836.563 327.724 833.339 321.922 833.339C321.719 833.339 321.516 833.339 321.307 833.354C312.386 833.729 305.578 836.906 299.323 841.714C297.583 839.625 295.693 837.578 293.182 836.037C291.589 835.068 284.547 834.208 282.182 833.396C278.583 832.151 280.589 827.068 277.682 827.068C276.724 827.068 275.229 827.62 272.807 829.057C271.094 825.62 267.203 823.833 264.87 821.875C264.625 822.714 264.406 823.542 264.229 824.386C261.776 822.542 255.917 821.901 253.521 820.479C252.432 822.104 249.865 824.167 248.932 825.604C243.985 823.354 233.985 816.287 225.583 816.287C222.552 816.287 219.735 817.198 217.443 819.61C216.875 818.74 215.932 818.115 214.99 817.432H214.974L214.089 816.636L213.448 816.052C213.031 815.547 212.682 814.938 212.464 814.182C211.042 814.386 209.646 814.792 208.271 815.271C207.703 815.474 207.167 815.719 206.615 815.969C205.875 816.287 205.12 816.62 204.406 817.011C203.667 817.401 202.943 817.823 202.229 818.276C201.813 818.537 201.391 818.813 200.985 819.099C200.115 819.714 199.229 820.307 198.401 820.99C197.485 821.698 196.573 822.427 195.729 823.193C195.136 818.552 192.625 816.401 189.969 816.401C186.557 816.401 182.87 819.958 182.641 826.344C180.083 823.193 176.818 822.078 173.089 822.078C166.078 822.078 157.386 826.011 148.636 827.854C148.505 826.287 148.172 824.557 148.172 822.964C140.235 824.703 135.604 832.625 133.932 839.464C131.86 832.761 123.5 833.307 118.912 830.203C118.708 831.063 118.505 831.901 118.349 832.771C115.75 832.078 112.38 831.755 108.724 831.755C101.412 831.755 92.9325 833.078 87.2762 835.427C83.0679 837.172 79.3231 841.802 75.5054 845.849C75.521 838.474 75.521 831.089 75.5314 823.703C75.7085 641.146 75.9116 458.589 76.0835 276.026C369.552 227.266 665.646 202.896 961.839 202.896C1261.69 202.896 1561.66 227.891 1858.72 277.87C1858.53 467.761 1858.33 657.646 1858.14 847.531C1857.04 847.708 1856.02 847.953 1855.05 848.318L1854.84 848.417C1853.95 848.75 1853.09 849.172 1852.28 849.682C1847.52 852.625 1844.45 858.214 1842.23 865.557C1841.96 865.526 1841.67 865.5 1841.39 865.5C1840.13 865.5 1838.93 865.891 1837.91 866.646Z" fill="#794426"/>
<mask id="mask0_5726_20636" style="mask-type:luminance" maskUnits="userSpaceOnUse" x="5" y="179" width="1912" height="624">
<path d="M5.3335 179.016H1916V802.667H5.3335V179.016Z" fill="white"/>
</mask>
<g mask="url(#mask0_5726_20636)">
<path d="M6.04688 179.026L5.42188 756.755C9.53125 753.302 13.5625 749.234 18.0938 748.161C27.25 746 43.1406 747.219 51.5573 750.573C51.7344 749.729 51.9375 748.885 52.1667 748.062C57.1042 751.948 66.0833 752.703 68.3229 759.828C70.1198 753.167 75.099 745.87 83.6458 745.349C83.6458 746.974 84.0104 748.755 84.1406 750.38C98.5781 749.599 112.849 743.75 120.714 754.01C121.161 742.547 133.323 741.807 134.792 752.75C139.87 749.104 146.083 746.042 152.786 746.042C153.583 749.12 156.833 750.151 158.125 752.239C167.458 744.318 184.714 758.698 191.958 762.703C192.958 761.385 195.714 759.641 196.891 758.13C199.443 759.901 205.729 761.338 208.37 763.531C208.573 762.703 208.807 761.875 209.068 761.062C211.562 763.359 215.755 765.693 217.589 769.411C228.021 764.792 222.505 772.719 227.646 775.026C230.182 776.156 237.745 777.943 239.458 779.104C242.156 780.989 244.172 783.312 246.047 785.651C252.75 781.583 260.052 779.193 269.615 779.901C275.943 780.364 284.188 784.734 289.745 787.521C291.167 788.234 292.49 788.682 293.849 789.25C297.885 788.031 301.661 786.969 304.781 786.463C316.448 784.573 328.958 783.547 340.974 782.76C341.891 782.193 342.786 781.687 343.719 781.094C355.125 773.807 363.792 759.802 377.995 763.896C400.708 770.469 400.042 816.995 428.88 781.38C431.797 777.781 437.734 779.25 439.88 782.802C443.583 794.052 452.188 797.083 465.672 791.906C469.297 788.974 474 789.276 476.688 793.312C482.083 801.437 494.302 789.583 501.224 792.109C511.068 795.677 509.745 797.651 518.234 788.391C521.458 784.896 526.844 786.213 529.25 789.812C538.073 802.948 551.688 805.344 561.703 797.812C564.286 795.88 568.057 796.969 570.208 798.911C575.068 803.312 595.839 795.922 603.135 796.635C607.854 797.099 612.469 798.364 616.953 800.073C617.328 799.698 617.693 799.349 618.115 798.911C620.234 796.797 624.021 796.068 626.604 797.812C622.859 795.286 634.427 792.661 640.448 790.453C641.568 788.844 643.365 787.812 645.849 788.104C653.161 788.943 663.583 790.599 672.073 789.698C673.422 788.568 675.307 787.422 679.865 787.422L680.401 787.495L680.87 787.302C683.536 785.823 687.193 786.057 689.359 788.391C698.094 797.896 719.646 782.443 729.833 781.646C744.49 780.495 759.266 780.542 773.896 782.109C796.635 784.531 808.042 794.677 834.979 790.974C847.505 789.25 859.766 788.276 872.193 788.406C881.625 784.776 891.448 783.63 899.953 786.62C916.297 771.542 944.568 781.167 964.391 794.427C966.031 794.198 967.688 794.052 969.328 793.734C975.974 792.411 984.01 792.932 990.167 796.125C1009.76 806.318 1013.65 784.635 1027.94 790.088C1034.26 792.516 1038.94 797.114 1044.64 800.219C1046.07 800.016 1047.51 799.786 1048.96 799.552C1054.11 797.609 1059.71 796.375 1064.82 795.156C1076.52 789.656 1097.3 777.463 1107.68 789.364C1108.77 790.614 1109.85 791.437 1110.94 792.062C1122.33 789.844 1133.76 787.609 1145.27 786.042C1148.56 785.588 1151.84 785.172 1155.14 784.776C1164.58 777.172 1173.93 771.484 1184.92 777.536C1186.06 775.318 1187.09 773.036 1187.54 770.469C1188.08 767.437 1191.4 765.318 1194.31 765.318H1196.05C1199.07 765.318 1202.12 767.437 1202.81 770.469C1203.39 772.995 1204.15 775.401 1204.93 777.781C1206 778.088 1207.05 778.609 1208.02 779.641C1210.56 781.891 1213.1 784.141 1215.64 786.391C1221.24 778.521 1228.45 771.021 1238.61 771.021C1242.39 771.021 1259.27 781.932 1259.09 782.052C1261.98 780.078 1267.26 781.224 1268.68 784.562C1269.12 785.562 1269.62 786.474 1270.08 787.432C1275.1 783.557 1278.87 780.427 1278.67 780.974C1280.22 776.958 1284.82 774.141 1288.96 776.781C1294.84 780.557 1300.41 782.37 1306.1 783.078C1306.39 781.307 1306.59 779.422 1306.64 777.302C1306.88 764.661 1323.01 782.255 1332.34 780.161C1344.63 777.406 1333.71 770.047 1345.6 766.276C1345.44 764.708 1346.17 762.687 1346.12 761.094C1346.26 765.609 1376.65 760.906 1379.68 753.141C1386.4 756.229 1392.81 754.807 1401.14 751.516C1404.45 755.141 1406.31 759.557 1410.04 762.484C1410.45 762.068 1411.46 760.542 1411.95 760.135C1416.4 760.078 1421.07 762.995 1425.18 762.531C1428.95 762.125 1434.81 759.281 1436.9 759.193C1446.96 758.729 1458.73 763.635 1467.35 759.901C1472.34 762.208 1479.88 761.354 1485.58 759.104C1492.11 767.187 1497.77 774.01 1505 780.526C1505.2 780.031 1505.39 779.542 1505.71 779.12C1506.76 777.229 1508.62 775.823 1511.46 775.823C1511.96 775.823 1512.41 775.927 1512.86 776.01C1526.39 767.203 1540.22 762.588 1551.29 776.984C1561.05 770.713 1571.99 776.838 1583.17 782.818C1584.21 781.703 1585.28 780.338 1586.46 778.521C1588.49 775.375 1591.67 771.859 1595.46 770.818C1602.48 768.885 1608.62 773.052 1615.63 771.005C1620.65 769.542 1625.43 768.453 1630.67 768.463C1636.15 768.479 1640.17 771.062 1643.15 774.734C1648.42 775.198 1653.68 775.667 1658.94 776.13C1661.49 773.75 1666.41 773.083 1668.85 776.13L1669.17 776.417C1669.83 774.432 1670.51 772.443 1671.16 770.469C1673.46 763.547 1682.17 764.083 1684.67 770.469C1685.96 773.734 1686.9 775.937 1687.67 777.739C1689.6 777.578 1691.64 778.219 1693.39 779.641C1694.03 780.151 1694.64 780.614 1695.24 781.104C1718.47 782.792 1744.4 787.625 1763.73 773.286C1766.87 770.963 1771.48 772.833 1773.33 775.797C1775.6 779.469 1777.54 781.963 1779.36 784.489C1781.61 782.312 1783.76 780.005 1785.77 777.552C1788.13 774.156 1791.62 773.385 1795.34 775.042C1805.33 776.245 1812.06 771.833 1815.55 761.776C1818.85 757.463 1824.4 757.161 1827.65 761.776C1835.08 761.891 1842.51 762.005 1849.94 762.125C1852.2 759.771 1855.65 759.568 1858.43 761.021C1870.23 767.172 1881.38 774.052 1892.38 781.307C1893.71 780.177 1895.34 779.552 1897.04 779.495C1900.29 768.859 1905.18 761.239 1914.16 758.536L1914.79 180.797L6.04688 179.026Z" fill="white"/>
</g>
</svg>
