<svg width="170" height="148" viewBox="0 0 170 148" fill="none" xmlns="http://www.w3.org/2000/svg">
<mask id="mask0_5558_5497" style="mask-type:luminance" maskUnits="userSpaceOnUse" x="0" y="94" width="170" height="54">
<path d="M0.807129 94.667H169.807V147.693H0.807129V94.667Z" fill="white"/>
</mask>
<g mask="url(#mask0_5558_5497)">
<path d="M157.359 146.568C157.328 144.005 157.349 126.177 157.37 116.547V116.208H137.849V126.646H130.271V112.401H124.448V95.0156H99.5884V104.01H82.3853V118.797H73.8488V110.943H53.3592V130.172H46.2707V121.594H42.4842V101.719H21.8957V127.542C14.6144 127.359 14.4582 127.516 14.328 127.641L14.2238 127.745V146.568H0.807129V147.245H170.182V146.568H157.359Z" fill="black"/>
</g>
<mask id="mask1_5558_5497" style="mask-type:luminance" maskUnits="userSpaceOnUse" x="56" y="0" width="60" height="59">
<path d="M56.6665 0.692383H115.333V58.6663H56.6665V0.692383Z" fill="white"/>
</mask>
<g mask="url(#mask1_5558_5497)">
<path d="M58.8644 36.1611L57.6821 36.8174L59.0363 36.7913C61.1925 36.7549 63.2186 37.557 64.7342 39.0518C66.2707 40.5622 67.1509 42.6455 67.1509 44.7757C67.1509 46.2184 66.7655 47.5882 65.9998 48.8591L65.3019 50.0205L66.4634 49.3278C68.9582 47.8278 71.9582 47.7913 74.4894 49.2236C77.0155 50.6559 78.5259 53.2497 78.5259 56.1507V57.6038L79.1613 56.4632C80.5936 53.8955 83.1978 52.3591 86.13 52.3591C89.0675 52.3591 91.6717 53.8955 93.0988 56.4632L93.755 57.6455L93.729 56.2861C93.6925 54.1299 94.4946 52.1038 95.9894 50.5882C97.4998 49.057 99.5832 48.1768 101.713 48.1768C103.156 48.1768 104.526 48.5622 105.797 49.3226L106.958 50.0205L106.26 48.8591C104.765 46.3643 104.724 43.3643 106.156 40.8382C107.588 38.307 110.182 36.7966 113.083 36.7966H114.536L113.39 36.1611C110.828 34.7393 109.292 32.1351 109.292 29.1976C109.292 26.2549 110.823 23.6507 113.39 22.2288L114.573 21.5674L113.219 21.5934C111.068 21.6351 109.036 20.8278 107.521 19.3382C105.989 17.8278 105.109 15.7393 105.109 13.609C105.109 12.1924 105.505 10.7757 106.255 9.52572L106.953 8.36426L105.792 9.06217C103.276 10.5726 100.255 10.5934 97.7134 9.12988C95.1665 7.66113 93.6769 5.03093 93.729 2.09342L93.7498 0.739258L93.0936 1.92155C91.6665 4.48926 89.0623 6.02051 86.1248 6.02051C83.1925 6.02051 80.5884 4.48926 79.1561 1.92155L78.4998 0.739258L78.5311 2.09342C78.5675 4.24968 77.7655 6.27572 76.2759 7.79134C74.7655 9.32259 72.6769 10.2028 70.5519 10.2028C69.1092 10.2028 67.7342 9.81738 66.4634 9.05697L65.3019 8.35905L65.9998 9.52051C67.4946 12.0153 67.5311 15.0205 66.0988 17.5466C64.6613 20.0778 62.0728 21.5882 59.1665 21.5882H57.7134L58.8592 22.2236C61.4269 23.6507 62.9582 26.2497 62.9582 29.1924C62.9582 32.1299 61.4321 34.7341 58.8644 36.1611Z" fill="black"/>
</g>
<path d="M30.4633 63.8538C30.4737 66.307 29.2029 68.3955 27.8591 70.6038C25.1456 75.0622 22.3383 79.6716 30.6039 87.333L31.0623 86.833C23.2081 79.5518 25.7498 75.3747 28.4373 70.9528C29.7706 68.7601 31.1508 66.4945 31.1404 63.8538C31.13 61.057 29.5727 58.7913 28.0623 56.5986C25.2602 52.5101 22.6091 48.6507 29.7966 41.5986L29.3227 41.1143C21.7289 48.5674 24.6664 52.8434 27.5102 56.9788C28.9581 59.0882 30.4529 61.2705 30.4633 63.8538Z" fill="black"/>
<path d="M47.5782 70.6091C47.5834 72.4945 46.6043 74.1038 45.5678 75.807C43.448 79.2913 41.2501 82.8955 47.7085 88.8851L48.172 88.3903C42.1199 82.7809 44.073 79.5622 46.146 76.1611C47.1876 74.4476 48.2657 72.682 48.2553 70.6091C48.2449 68.4163 47.0314 66.6455 45.8543 64.9372C43.698 61.7913 41.6616 58.8278 47.1876 53.3955L46.7137 52.9111C40.7762 58.7393 43.073 62.083 45.297 65.3174C46.4637 67.0257 47.5678 68.6299 47.5782 70.6091Z" fill="black"/>
<path d="M69.0209 73.6823C69.0157 71.8437 68.0001 70.3646 67.0209 68.9427C65.2449 66.3542 63.5626 63.9063 68.1199 59.4375L67.6459 58.9531C62.6824 63.8229 64.6042 66.6198 66.4636 69.3229C67.4271 70.7292 68.3386 72.0521 68.3438 73.6823C68.3542 75.2292 67.5417 76.5573 66.6876 77.9688C64.9167 80.8802 63.0834 83.8958 68.4688 88.8958L68.9324 88.3958C63.948 83.7708 65.5574 81.125 67.2657 78.3229C68.1303 76.8906 69.0313 75.4167 69.0209 73.6823Z" fill="black"/>
<path d="M139.849 63.8545C139.838 66.5003 141.218 68.766 142.552 70.9587C145.239 75.3753 147.781 79.5524 139.927 86.8389L140.385 87.3337C148.651 79.6774 145.843 75.068 143.13 70.6097C141.786 68.4014 140.515 66.3128 140.526 63.8597C140.536 61.2764 142.036 59.0941 143.484 56.9847C146.328 52.8493 149.265 48.5732 141.672 41.1201L141.198 41.6045C148.385 48.6566 145.734 52.516 142.927 56.6045C141.416 58.792 139.864 61.0628 139.849 63.8545Z" fill="black"/>
<path d="M122.734 70.6097C122.729 72.6826 123.802 74.4535 124.844 76.1618C126.917 79.568 128.875 82.7816 122.818 88.391L123.281 88.891C129.74 82.9066 127.547 79.2972 125.427 75.8128C124.391 74.1097 123.406 72.4951 123.417 70.6149C123.427 68.6305 124.531 67.0264 125.698 65.3232C127.922 62.0889 130.224 58.7399 124.281 52.917L123.807 53.4014C129.339 58.8285 127.302 61.7972 125.141 64.943C123.964 66.6462 122.745 68.4222 122.734 70.6097Z" fill="black"/>
<path d="M103.349 58.9531L102.875 59.4375C107.432 63.9063 105.75 66.3542 103.974 68.9427C102.995 70.3646 101.979 71.8437 101.969 73.6823C101.964 75.4167 102.859 76.8906 103.729 78.3229C105.438 81.125 107.047 83.7708 102.057 88.3958L102.521 88.8958C107.911 83.8958 106.078 80.8802 104.307 77.974C103.448 76.5625 102.641 75.2344 102.646 73.6875C102.656 72.0573 103.568 70.7344 104.531 69.3281C106.391 66.6198 108.313 63.8229 103.349 58.9531Z" fill="black"/>
<path d="M87.4326 77.3799C87.4274 75.9736 86.6565 74.8538 85.9117 73.7653C84.5367 71.7653 83.3492 70.0361 86.7294 66.7236L86.2555 66.2393C82.4742 69.9528 84.0055 72.182 85.3544 74.1507C86.0732 75.1976 86.7503 76.182 86.7555 77.3799C86.7607 78.5257 86.1565 79.5153 85.5211 80.5622C84.2346 82.682 82.7711 85.0778 86.8805 88.8903L87.344 88.3903C83.6409 84.958 84.8388 82.9945 86.0992 80.9163C86.7555 79.833 87.4378 78.708 87.4326 77.3799Z" fill="black"/>
<mask id="mask2_5558_5497" style="mask-type:luminance" maskUnits="userSpaceOnUse" x="123" y="112" width="35" height="36">
<path d="M123.333 112H158V147.693H123.333V112Z" fill="white"/>
</mask>
<g mask="url(#mask2_5558_5497)">
<path d="M138.188 116.547H157.031C157.031 116.547 156.974 146.896 157.031 146.906H124.109V112.739H129.932V126.984H138.188V116.547Z" fill="#F9CA06"/>
</g>
<mask id="mask3_5558_5497" style="mask-type:luminance" maskUnits="userSpaceOnUse" x="82" y="94" width="43" height="54">
<path d="M82 94.667H124.667V147.693H82V94.667Z" fill="white"/>
</mask>
<g mask="url(#mask3_5558_5497)">
<path d="M124.11 112.74V146.907H82.7241V104.349H99.9272V95.3545H124.11V112.74Z" fill="#C41830"/>
</g>
<path d="M104.776 13.6038C104.776 17.9893 108.318 22.0101 113.234 21.9268C110.391 23.5101 108.964 26.3486 108.964 29.1924C108.964 32.0309 110.391 34.8747 113.234 36.4528C113.188 36.4528 113.141 36.4528 113.094 36.4528C106.656 36.4528 102.646 43.4841 105.974 49.0309C104.604 48.208 103.141 47.8382 101.719 47.8382C97.3385 47.8382 93.3125 51.3747 93.3958 56.2966C91.8125 53.4476 88.974 52.0205 86.1354 52.0205C83.2969 52.0205 80.4583 53.4476 78.8698 56.2966C78.8698 56.2445 78.8698 56.1976 78.8698 56.1507C78.8698 49.7184 71.8438 45.708 66.2917 49.0309C67.1146 47.6611 67.4896 46.2028 67.4896 44.7757C67.4896 40.3955 63.9479 36.3747 59.0312 36.4528C61.8802 34.8747 63.3021 32.0309 63.3021 29.1924C63.3021 26.3486 61.8802 23.5101 59.0312 21.9268C59.0833 21.9268 59.1302 21.9268 59.1771 21.9268C65.6094 21.9268 69.6198 14.9007 66.2917 9.34863C67.6667 10.1715 69.125 10.5413 70.5521 10.5413C74.9323 10.5413 78.9531 7.00488 78.8698 2.08301C80.4583 4.93197 83.2969 6.35905 86.1354 6.35905C88.974 6.35905 91.8125 4.93197 93.3958 2.08301C93.2865 8.60384 100.385 12.7028 105.974 9.34863C105.151 10.7184 104.776 12.182 104.776 13.6038ZM101.562 29.1924C101.562 20.6716 94.651 13.7653 86.1354 13.7653C77.6146 13.7653 70.7083 20.6716 70.7083 29.1924C70.7083 37.7132 77.6146 44.6195 86.1354 44.6195C94.651 44.6195 101.562 37.7132 101.562 29.1924Z" fill="#F9CA06"/>
<path d="M101.563 29.1927C101.563 30.2031 101.464 31.2083 101.266 32.2031C101.068 33.1927 100.776 34.1615 100.386 35.0938C100 36.0313 99.521 36.9219 98.9585 37.7604C98.396 38.6042 97.7606 39.3854 97.0418 40.099C96.3283 40.8177 95.547 41.4583 94.7033 42.0208C93.8595 42.5833 92.9741 43.0573 92.0366 43.4427C91.0991 43.8333 90.1356 44.125 89.1408 44.3229C88.1512 44.5208 87.146 44.6198 86.1356 44.6198C85.12 44.6198 84.12 44.5208 83.1252 44.3229C82.1304 44.125 81.1668 43.8333 80.2293 43.4427C79.2918 43.0573 78.4064 42.5833 77.5627 42.0208C76.7189 41.4583 75.9429 40.8177 75.2241 40.099C74.5106 39.3854 73.87 38.6042 73.3075 37.7604C72.745 36.9219 72.271 36.0313 71.8804 35.0938C71.495 34.1615 71.2033 33.1927 71.0054 32.2031C70.8075 31.2083 70.7085 30.2031 70.7085 29.1927C70.7085 28.1771 70.8075 27.1771 71.0054 26.1823C71.2033 25.1875 71.495 24.224 71.8804 23.2865C72.271 22.3542 72.745 21.4635 73.3075 20.6198C73.87 19.7813 74.5106 19 75.2241 18.2812C75.9429 17.5677 76.7189 16.9271 77.5627 16.3646C78.4064 15.8021 79.2918 15.3281 80.2293 14.9375C81.1668 14.5521 82.1304 14.2604 83.1252 14.0625C84.12 13.8646 85.12 13.7656 86.1356 13.7656C87.146 13.7656 88.1512 13.8646 89.1408 14.0625C90.1356 14.2604 91.0991 14.5521 92.0366 14.9375C92.9741 15.3281 93.8595 15.8021 94.7033 16.3646C95.547 16.9271 96.3283 17.5677 97.0418 18.2812C97.7606 19 98.396 19.7813 98.9585 20.6198C99.521 21.4635 100 22.3542 100.386 23.2865C100.776 24.224 101.068 25.1875 101.266 26.1823C101.464 27.1771 101.563 28.1771 101.563 29.1927Z" fill="#F9CA06"/>
<mask id="mask4_5558_5497" style="mask-type:luminance" maskUnits="userSpaceOnUse" x="44" y="110" width="40" height="38">
<path d="M44.6665 110.667H83.3332V147.693H44.6665V110.667Z" fill="white"/>
</mask>
<g mask="url(#mask4_5558_5497)">
<path d="M82.7238 119.135V146.906H45.9321V130.51H53.6978V111.281H73.5103V119.135H82.7238Z" fill="#F9CA06"/>
</g>
<mask id="mask5_5558_5497" style="mask-type:luminance" maskUnits="userSpaceOnUse" x="14" y="101" width="32" height="47">
<path d="M14 101.333H46V147.692H14V101.333Z" fill="white"/>
</mask>
<g mask="url(#mask5_5558_5497)">
<path d="M45.9323 130.51V146.906H14.5625C14.5625 146.906 14.5625 128.088 14.5625 127.89C14.5625 127.697 22.2344 127.89 22.2344 127.89V102.057H42.1458V121.932H45.9323V130.51Z" fill="#C41830"/>
</g>
<mask id="mask6_5558_5497" style="mask-type:luminance" maskUnits="userSpaceOnUse" x="123" y="112" width="35" height="36">
<path d="M123.333 112H158V147.693H123.333V112Z" fill="white"/>
</mask>
<g mask="url(#mask6_5558_5497)">
<path d="M156.974 147.245C156.682 147.193 156.682 147.193 156.677 145.604C156.672 144.776 156.667 143.583 156.667 142.161C156.667 139.312 156.667 135.521 156.672 131.724C156.677 125.083 156.688 118.438 156.693 116.885H138.526V127.328H129.594V113.083H124.109V112.406H130.271V126.651H137.849V116.208H157.37V116.547C157.349 126.792 157.323 146.312 157.365 146.87L157.036 146.896L156.974 147.245Z" fill="black"/>
</g>
<mask id="mask7_5558_5497" style="mask-type:luminance" maskUnits="userSpaceOnUse" x="82" y="94" width="43" height="54">
<path d="M82 94.667H124.667V147.693H82V94.667Z" fill="white"/>
</mask>
<g mask="url(#mask7_5558_5497)">
<path d="M124.448 146.906H123.771V95.6979H100.265V104.688H83.0623V146.906H82.3853V104.01H99.5884V95.0156H124.448V146.906Z" fill="black"/>
</g>
<path d="M54.0363 130.849H45.9321V130.172H53.3592V110.942H73.8488V118.797H82.7238V119.474H73.1717V111.619H54.0363V130.849Z" fill="black"/>
<mask id="mask8_5558_5497" style="mask-type:luminance" maskUnits="userSpaceOnUse" x="20" y="101" width="28" height="47">
<path d="M20.6665 101.333H47.3332V147.692H20.6665V101.333Z" fill="white"/>
</mask>
<g mask="url(#mask8_5558_5497)">
<path d="M46.2705 146.906H45.5934V122.271H41.807V102.396H22.5726V127.891H21.8955V101.719H42.4841V121.594H46.2705V146.906Z" fill="black"/>
</g>
<mask id="mask9_5558_5497" style="mask-type:luminance" maskUnits="userSpaceOnUse" x="14" y="126" width="10" height="22">
<path d="M14 126.667H23.3333V147.693H14V126.667Z" fill="white"/>
</mask>
<g mask="url(#mask9_5558_5497)">
<path d="M14.9012 146.906H14.2241V127.75L14.3283 127.64C14.4585 127.515 14.6147 127.359 22.2397 127.557L22.2241 128.234C19.7814 128.172 15.9064 128.109 14.9012 128.177V146.906Z" fill="black"/>
</g>
<path d="M26.8384 107.995H37.7134V108.672H26.8384V107.995Z" fill="black"/>
<path d="M26.8384 111.792H37.7134V112.469H26.8384V111.792Z" fill="black"/>
<path d="M26.8384 115.589H37.7134V116.266H26.8384V115.589Z" fill="black"/>
<path d="M26.8384 119.386H37.7134V120.063H26.8384V119.386Z" fill="black"/>
<path d="M26.8384 123.183H37.7134V123.86H26.8384V123.183Z" fill="black"/>
<path d="M26.8384 126.979H37.7134V127.657H26.8384V126.979Z" fill="black"/>
<path d="M26.8384 130.776H37.7134V131.453H26.8384V130.776Z" fill="black"/>
<path d="M26.8384 134.573H37.7134V135.25H26.8384V134.573Z" fill="black"/>
<path d="M26.8384 138.37H37.7134V139.047H26.8384V138.37Z" fill="black"/>
<path d="M119.01 102.938H119.687V137.786H119.01V102.938Z" fill="black"/>
<path d="M114.12 102.938H114.797V137.786H114.12V102.938Z" fill="black"/>
<path d="M109.229 102.938H109.906V137.786H109.229V102.938Z" fill="black"/>
<path d="M104.344 102.938H105.021V137.786H104.344V102.938Z" fill="black"/>
<path d="M141.792 120.87H142.469V125.344H141.792V120.87Z" fill="black"/>
<path d="M145.438 120.87H146.115V125.344H145.438V120.87Z" fill="black"/>
<path d="M149.088 120.87H149.765V125.344H149.088V120.87Z" fill="black"/>
<path d="M152.74 120.87H153.417V125.344H152.74V120.87Z" fill="black"/>
<path d="M58.104 116.896H58.7811V121.375H58.104V116.896Z" fill="black"/>
<path d="M61.7554 116.896H62.4325V121.375H61.7554V116.896Z" fill="black"/>
<path d="M65.4009 116.896H66.078V121.375H65.4009V116.896Z" fill="black"/>
<path d="M69.0522 116.896H69.7293V121.375H69.0522V116.896Z" fill="black"/>
<path d="M58.104 124.021H58.7811V128.5H58.104V124.021Z" fill="black"/>
<path d="M61.7554 124.021H62.4325V128.5H61.7554V124.021Z" fill="black"/>
<path d="M65.4009 124.021H66.078V128.5H65.4009V124.021Z" fill="black"/>
<path d="M69.0522 124.021H69.7293V128.5H69.0522V124.021Z" fill="black"/>
<path d="M58.104 131.146H58.7811V135.619H58.104V131.146Z" fill="black"/>
<path d="M61.7554 131.146H62.4325V135.619H61.7554V131.146Z" fill="black"/>
<path d="M65.4009 131.146H66.078V135.619H65.4009V131.146Z" fill="black"/>
<path d="M69.0522 131.146H69.7293V135.619H69.0522V131.146Z" fill="black"/>
<path d="M58.104 138.271H58.7811V142.744H58.104V138.271Z" fill="black"/>
<path d="M61.7554 138.271H62.4325V142.744H61.7554V138.271Z" fill="black"/>
<path d="M65.4009 138.271H66.078V142.744H65.4009V138.271Z" fill="black"/>
<path d="M69.0522 138.271H69.7293V142.744H69.0522V138.271Z" fill="black"/>
<path d="M141.792 128.442H142.469V132.916H141.792V128.442Z" fill="black"/>
<path d="M145.438 128.442H146.115V132.916H145.438V128.442Z" fill="black"/>
<path d="M149.088 128.442H149.765V132.916H149.088V128.442Z" fill="black"/>
<path d="M152.74 128.442H153.417V132.916H152.74V128.442Z" fill="black"/>
<path d="M141.792 136.016H142.469V140.49H141.792V136.016Z" fill="black"/>
<path d="M145.438 136.016H146.115V140.49H145.438V136.016Z" fill="black"/>
<path d="M149.088 136.016H149.765V140.49H149.088V136.016Z" fill="black"/>
<path d="M152.74 136.016H153.417V140.49H152.74V136.016Z" fill="black"/>
<path d="M127.463 131.062H137.948V131.74H127.463V131.062Z" fill="black"/>
<path d="M86.7188 110.229H98.2188V110.907H86.7188V110.229Z" fill="black"/>
<path d="M86.7188 114.714H98.2188V115.391H86.7188V114.714Z" fill="black"/>
<path d="M86.7188 119.192H98.2188V119.869H86.7188V119.192Z" fill="black"/>
<path d="M86.7188 123.677H98.2188V124.359H86.7188V123.677Z" fill="black"/>
<path d="M86.7188 128.167H98.2188V128.844H86.7188V128.167Z" fill="black"/>
<path d="M86.7188 132.651H98.2188V133.328H86.7188V132.651Z" fill="black"/>
<path d="M86.7188 137.136H98.2188V137.813H86.7188V137.136Z" fill="black"/>
<path d="M127.463 134.922H137.948V135.599H127.463V134.922Z" fill="black"/>
<path d="M127.463 138.776H137.948V139.453H127.463V138.776Z" fill="black"/>
<mask id="mask10_5558_5497" style="mask-type:luminance" maskUnits="userSpaceOnUse" x="0" y="145" width="170" height="3">
<path d="M0.807129 145.333H169.807V147.692H0.807129V145.333Z" fill="white"/>
</mask>
<g mask="url(#mask10_5558_5497)">
<path d="M0.807129 146.567H170.182V147.244H0.807129V146.567Z" fill="black"/>
</g>
<path d="M86.1353 44.958C77.4425 44.958 70.3696 37.8851 70.3696 29.1924C70.3696 20.4997 77.4425 13.4268 86.1353 13.4268C94.828 13.4268 101.901 20.4997 101.901 29.1924C101.901 37.8851 94.828 44.958 86.1353 44.958ZM86.1353 14.1038C77.8123 14.1038 71.0467 20.8747 71.0467 29.1924C71.0467 37.5101 77.8123 44.2809 86.1353 44.2809C94.453 44.2809 101.224 37.5101 101.224 29.1924C101.224 20.8747 94.453 14.1038 86.1353 14.1038Z" fill="black"/>
<mask id="mask11_5558_5497" style="mask-type:luminance" maskUnits="userSpaceOnUse" x="56" y="0" width="60" height="59">
<path d="M56.6665 0.692383H115.333V58.6663H56.6665V0.692383Z" fill="white"/>
</mask>
<g mask="url(#mask11_5558_5497)">
<path d="M93.7604 57.6455L93.1042 56.4632C91.6771 53.8955 89.0729 52.3591 86.1354 52.3591C83.1979 52.3591 80.5938 53.8955 79.1667 56.4632L78.5312 57.6038V56.1507C78.5312 53.2497 77.0208 50.6559 74.4896 49.2236C71.9583 47.7913 68.9635 47.8278 66.4688 49.3278L65.3073 50.0205L66.0052 48.8591C66.7656 47.5882 67.151 46.2184 67.151 44.7757C67.151 42.6455 66.2708 40.5622 64.7396 39.0518C63.2187 37.557 61.1979 36.7497 59.0417 36.7913L57.6875 36.8174L58.8698 36.1611C61.4323 34.7341 62.9688 32.1299 62.9688 29.1924C62.9688 26.2497 61.4375 23.6507 58.8698 22.2236L57.724 21.5882H59.1771C62.0781 21.5882 64.6667 20.0778 66.1042 17.5466C67.5365 15.0205 67.5 12.0153 66.0052 9.52051L65.3125 8.35905L66.474 9.05697C67.7448 9.81738 69.1146 10.2028 70.5573 10.2028C72.6875 10.2028 74.7708 9.32259 76.2812 7.79134C77.7708 6.27051 78.5781 4.24968 78.5365 2.09342L78.5156 0.739258L79.1719 1.92155C80.6042 4.48926 83.2083 6.02572 86.1406 6.02572C89.0781 6.02572 91.6823 4.48926 93.1094 1.92676L93.7656 0.739258L93.7396 2.09342C93.6927 5.03093 95.1823 7.66113 97.724 9.12988C100.271 10.5986 103.286 10.5726 105.807 9.06217L106.969 8.36426L106.271 9.52572C105.516 10.7757 105.12 12.1924 105.12 13.6143C105.12 15.7445 106 17.8278 107.536 19.3434C109.052 20.833 111.078 21.6403 113.234 21.5986L114.589 21.5726L113.406 22.2288C110.844 23.6559 109.307 26.2601 109.307 29.1976C109.307 32.1403 110.839 34.7393 113.406 36.1663L114.552 36.8018H113.099C110.193 36.8018 107.604 38.3122 106.172 40.8434C104.74 43.3695 104.776 46.3695 106.271 48.8643L106.969 50.0257L105.807 49.3278C104.536 48.5674 103.167 48.1768 101.729 48.1768C99.599 48.1768 97.5104 49.057 96 50.5934C94.5104 52.1091 93.7083 54.1351 93.7448 56.2913L93.7604 57.6455ZM70.5625 47.4945C72.0208 47.4945 73.4792 47.8747 74.8229 48.6351C77.2917 50.0309 78.8698 52.4476 79.1562 55.2132C80.776 52.9841 83.3177 51.682 86.1302 51.682C88.9479 51.682 91.4844 52.9841 93.1042 55.2132C93.3073 53.2861 94.1406 51.5049 95.5052 50.1143C97.1406 48.4528 99.401 47.4997 101.714 47.4997C102.917 47.4997 104.073 47.7445 105.172 48.2341C104.068 45.7445 104.198 42.9268 105.568 40.5049C106.969 38.0309 109.38 36.458 112.146 36.1663C109.922 34.5466 108.62 32.0153 108.62 29.1976C108.62 26.3747 109.922 23.8382 112.146 22.2236C110.219 22.0205 108.443 21.1872 107.052 19.8226C105.391 18.1872 104.432 15.9215 104.432 13.6143C104.432 12.4268 104.688 11.2497 105.177 10.1455C102.661 11.2705 99.8177 11.1247 97.375 9.71842C94.9323 8.30697 93.3854 5.91113 93.099 3.17676C91.4792 5.40593 88.9427 6.7028 86.125 6.7028C83.3125 6.7028 80.776 5.40072 79.1562 3.17155C78.9531 5.09863 78.1198 6.87988 76.75 8.2653C75.1146 9.93197 72.849 10.8851 70.5417 10.8851C69.3385 10.8851 68.1823 10.6403 67.0833 10.1455C68.1875 12.6403 68.0625 15.4632 66.6875 17.8851C65.2865 20.3591 62.8698 21.932 60.1094 22.2236C62.3333 23.8434 63.6354 26.3747 63.6354 29.1976C63.6354 32.0153 62.3333 34.5518 60.1094 36.1663C62.0365 36.3695 63.8125 37.2028 65.2031 38.5674C66.8646 40.2028 67.8229 42.4684 67.8229 44.7757C67.8229 45.9632 67.5677 47.1403 67.0781 48.2393C68.1979 47.7445 69.3802 47.4945 70.5625 47.4945Z" fill="black"/>
</g>
<path d="M30.6042 87.3337C22.3385 79.6722 25.1458 75.0628 27.8594 70.6045C29.2031 68.3962 30.474 66.3076 30.4635 63.8545C30.4531 61.2712 28.9583 59.0889 27.5052 56.9847C24.6615 52.8493 21.7292 48.568 29.3177 41.1201L29.7917 41.6045C22.6042 48.6566 25.2552 52.516 28.0625 56.5993C29.5677 58.792 31.125 61.0628 31.1354 63.8545C31.1458 66.5003 29.7708 68.766 28.4323 70.9587C25.7448 75.3753 23.2031 79.5524 31.0573 86.8389L30.6042 87.3337Z" fill="black"/>
<path d="M47.7085 88.8851C41.2501 82.9007 43.448 79.2913 45.5678 75.807C46.6043 74.1038 47.5834 72.4893 47.5782 70.6091C47.5678 68.6299 46.4637 67.0205 45.297 65.3174C43.073 62.083 40.7762 58.7393 46.7137 52.9111L47.1876 53.3955C41.6564 58.8226 43.6928 61.7913 45.8543 64.9372C47.0314 66.6455 48.2501 68.4163 48.2553 70.6091C48.2605 72.682 47.1876 74.4476 46.146 76.1611C44.0782 79.5622 42.1199 82.7809 48.172 88.3903L47.7085 88.8851Z" fill="black"/>
<path d="M68.4688 88.8857C63.0782 83.8857 64.9115 80.8753 66.6876 77.9639C67.5417 76.5524 68.3542 75.2243 68.3438 73.6774C68.3386 72.0524 67.4271 70.7243 66.4636 69.318C64.6042 66.6149 62.6824 63.818 67.6459 58.9482L68.1199 59.4326C63.5626 63.9014 65.2449 66.3441 67.0209 68.9326C68.0053 70.3597 69.0157 71.8389 69.0209 73.6722C69.0313 75.4118 68.1303 76.8857 67.2657 78.3128C65.5574 81.1149 63.948 83.7607 68.9324 88.3857L68.4688 88.8857Z" fill="black"/>
<path d="M140.385 87.333L139.927 86.833C147.781 79.5518 145.239 75.3747 142.552 70.9528C141.218 68.7601 139.838 66.4945 139.849 63.8538C139.864 61.057 141.416 58.7913 142.927 56.5986C145.734 52.5101 148.385 48.6507 141.198 41.5986L141.672 41.1143C149.265 48.5622 146.328 52.8382 143.484 56.9788C142.036 59.0882 140.536 61.2705 140.526 63.8538C140.515 66.307 141.786 68.3903 143.13 70.5986C145.843 75.0622 148.651 79.6716 140.385 87.333Z" fill="black"/>
<path d="M123.281 88.8851L122.818 88.3903C128.875 82.7809 126.917 79.5622 124.844 76.1611C123.807 74.4476 122.729 72.682 122.734 70.6091C122.745 68.4163 123.964 66.6455 125.135 64.9372C127.297 61.7913 129.339 58.8278 123.807 53.3955L124.281 52.9111C130.219 58.7393 127.917 62.083 125.698 65.3174C124.526 67.0205 123.422 68.6247 123.411 70.6091C123.406 72.4893 124.385 74.1038 125.422 75.807C127.547 79.2965 129.74 82.9007 123.281 88.8851Z" fill="black"/>
<path d="M102.521 88.8857L102.057 88.391C107.047 83.766 105.438 81.1201 103.729 78.3128C102.859 76.891 101.964 75.4118 101.969 73.6722C101.979 71.8389 102.995 70.3597 103.974 68.9326C105.75 66.3441 107.432 63.9014 102.875 59.4326L103.349 58.9482C108.313 63.818 106.391 66.6149 104.531 69.318C103.568 70.7243 102.656 72.0472 102.646 73.6774C102.641 75.2243 103.448 76.5524 104.307 77.9639C106.078 80.8805 107.911 83.891 102.521 88.8857Z" fill="black"/>
<path d="M86.8799 88.8854C82.7706 85.0781 84.2289 82.6771 85.5154 80.5625C86.156 79.5104 86.7601 78.5208 86.7549 77.3802C86.7445 76.1823 86.0674 75.1927 85.3487 74.1458C83.9997 72.1771 82.4633 69.9479 86.2497 66.2344L86.7237 66.7188C83.3487 70.0365 84.5362 71.7604 85.9112 73.7656C86.656 74.849 87.4216 75.9688 87.432 77.375C87.432 78.7083 86.7549 79.8281 86.0935 80.9115C84.8279 82.9948 83.6299 84.9583 87.3383 88.3906L86.8799 88.8854Z" fill="black"/>
</svg>
