<svg width="395" height="329" viewBox="0 0 395 329" fill="none" xmlns="http://www.w3.org/2000/svg">
<path d="M21.3253 99.3443L15.1444 60.9587L20.4994 60.0965L26.0623 94.6435L35.8719 93.0639L36.49 96.9025L21.3253 99.3443ZM47.2389 95.5606C45.0905 95.9065 43.3658 95.7629 42.0646 95.1297C40.7583 94.4649 39.7385 93.3651 39.0051 91.8301C38.2983 90.2585 37.7541 88.2879 37.3725 85.9185L36.3653 79.663C35.9736 77.2304 35.8849 75.1703 36.0994 73.4827C36.3138 71.7952 36.9394 70.4466 37.9761 69.4369C39.0444 68.4222 40.6211 67.7469 42.7062 67.4112C45.0125 67.0398 46.779 67.2416 48.0058 68.0164C49.2642 68.7861 50.2121 70.0434 50.8496 71.7883C51.482 73.5015 51.9992 75.6061 52.401 78.1019L52.7597 80.3292L41.9549 82.069L42.84 87.5662C43.0181 88.672 43.2578 89.5571 43.5593 90.2217C43.8924 90.8811 44.3081 91.349 44.8063 91.6253C45.3311 91.8649 45.9568 91.9262 46.6834 91.8092C47.4417 91.6871 47.9824 91.4218 48.3055 91.0132C48.6552 90.5679 48.8398 90.0034 48.8593 89.3196C48.9054 88.5991 48.8546 87.7808 48.7071 86.8646L48.44 85.206L53.3685 84.4124L53.5364 85.4549C53.979 88.2035 53.743 90.4618 52.8284 92.2296C51.9138 93.9975 50.0507 95.1078 47.2389 95.5606ZM41.5123 79.3204L47.3412 78.3819L46.9444 75.9176C46.7613 74.7803 46.5455 73.8426 46.297 73.1048C46.0434 72.3353 45.6808 71.794 45.209 71.4811C44.7638 71.1314 44.1147 71.0252 43.2616 71.1626C42.4402 71.2949 41.8389 71.5862 41.4576 72.0365C41.108 72.4818 40.9279 73.1752 40.9175 74.1168C40.902 75.0269 41.0214 76.2717 41.2757 77.8514L41.5123 79.3204ZM65.9529 92.5472C63.7098 92.9084 61.7971 92.5033 60.2148 91.332C58.6274 90.1291 57.5532 88.3897 56.9923 86.1139L61.0039 84.1553C61.5364 85.8522 62.1741 87.0946 62.9168 87.8826C63.6544 88.6389 64.6077 88.923 65.7766 88.7348C66.6928 88.5872 67.3472 88.2226 67.7397 87.6408C68.1271 87.0274 68.2496 86.2784 68.1071 85.3938C67.9799 84.604 67.6917 83.9211 67.2425 83.3452C66.7932 82.7693 66.1202 82.2132 65.2236 81.6769L59.8834 78.4043C58.8033 77.7355 57.8502 76.949 57.0239 76.0448C56.2293 75.1356 55.7022 73.8754 55.4428 72.2641C55.2088 70.8108 55.2973 69.5487 55.7082 68.4778C56.1457 67.3701 56.845 66.4796 57.8062 65.8063C58.7939 65.0962 59.9986 64.6267 61.4203 64.3978C63.695 64.0315 65.547 64.4626 66.9765 65.691C68.4009 66.8877 69.3681 68.4661 69.8781 70.4259L66.4826 72.2854C66.2036 71.3579 65.8817 70.567 65.5171 69.9127C65.1473 69.2267 64.695 68.7323 64.16 68.4295C63.62 68.0951 62.9709 67.989 62.2127 68.1111C61.3912 68.2433 60.7736 68.6345 60.3596 69.2846C59.9722 69.898 59.8396 70.5838 59.9617 71.342C60.038 71.8159 60.2091 72.2745 60.4749 72.7179C60.7673 73.1246 61.2018 73.5084 61.7785 73.8693L67.3296 77.5456C68.0897 78.039 68.81 78.5875 69.4906 79.191C70.2028 79.7894 70.8197 80.5003 71.3412 81.3239C71.8628 82.1475 72.2177 83.1437 72.4059 84.3126C72.6552 85.8607 72.5478 87.2069 72.0838 88.3512C71.6199 89.4955 70.8624 90.4278 69.8116 91.148C68.7556 91.8366 67.4694 92.303 65.9529 92.5472ZM95.7391 87.751C93.5908 88.0969 91.866 87.9533 90.5648 87.3201C89.2585 86.6553 88.2387 85.5554 87.5054 84.0205C86.7985 82.4489 86.2544 80.4783 85.8728 78.1089L84.8656 71.8534C84.4738 69.4208 84.3852 67.3607 84.5997 65.6731C84.8141 63.9856 85.4397 62.637 86.4763 61.6273C87.5446 60.6126 89.1213 59.9373 91.2065 59.6016C93.5128 59.2302 95.2793 59.432 96.5061 60.2068C97.7644 60.9765 98.7124 62.2338 99.3499 63.9787C99.9823 65.6919 100.499 67.7965 100.901 70.2923L101.26 72.5196L90.4551 74.2594L91.3403 79.7566C91.5183 80.8624 91.7581 81.7475 92.0596 82.4121C92.3927 83.0715 92.8083 83.5394 93.3066 83.8157C93.8314 84.0553 94.4571 84.1166 95.1837 83.9996C95.9419 83.8775 96.4826 83.6122 96.8058 83.2036C97.1554 82.7583 97.34 82.1938 97.3596 81.51C97.4056 80.7895 97.3549 79.9712 97.2074 79.055L96.9403 77.3964L101.869 76.6028L102.037 77.6453C102.479 80.3939 102.243 82.6522 101.329 84.42C100.414 86.1879 98.5509 87.2982 95.7391 87.751ZM90.0125 71.5108L95.8415 70.5723L95.4447 68.108C95.2615 66.9707 95.0457 66.033 94.7973 65.2952C94.5437 64.5257 94.1811 63.9844 93.7093 63.6715C93.264 63.3218 92.6149 63.2156 91.7619 63.353C90.9405 63.4853 90.3391 63.7766 89.9579 64.2269C89.6082 64.6722 89.4282 65.3656 89.4177 66.3072C89.4022 67.2173 89.5216 68.4621 89.776 70.0418L90.0125 71.5108ZM108.042 85.381L103.631 57.9899L108.702 57.1734L109.137 59.8746C109.916 58.874 110.81 57.9846 111.819 57.2063C112.828 56.428 113.996 55.932 115.323 55.7183C116.429 55.5403 117.312 55.6898 117.972 56.1669C118.664 56.6389 119.189 57.2836 119.547 58.101C119.938 58.9133 120.204 59.7618 120.346 60.6464L123.917 82.8247L118.847 83.6412L115.512 62.932C115.354 61.9526 115.09 61.2172 114.719 60.7259C114.349 60.2346 113.721 60.0602 112.836 60.2027C112.268 60.2942 111.695 60.5646 111.119 61.0139C110.57 61.4265 110.049 61.9155 109.557 62.481L113.113 84.5645L108.042 85.381ZM130.479 81.7682L126.671 58.1208L123.401 58.6473L122.798 54.9036L126.068 54.377L125.839 52.9554C125.564 51.2493 125.457 49.7757 125.516 48.5345C125.602 47.2566 126.018 46.2172 126.764 45.4164C127.511 44.6156 128.737 44.0778 130.443 43.8031C131.075 43.7014 131.633 43.6439 132.117 43.6308C132.627 43.581 133.193 43.571 133.813 43.6007L134.409 47.2971C134.114 47.2797 133.791 47.2832 133.438 47.3075C133.08 47.3003 132.759 47.3196 132.475 47.3654C131.496 47.5231 130.917 47.9565 130.74 48.6658C130.589 49.3383 130.6 50.2117 130.773 51.2859L131.139 53.5606L135.309 52.889L135.912 56.6328L131.742 57.3043L135.549 80.9517L130.479 81.7682ZM146.148 79.634C145.074 79.807 144.078 79.6595 143.16 79.1915C142.237 78.6919 141.462 78.0063 140.835 77.1348C140.204 76.2318 139.802 75.2431 139.629 74.169C139.354 72.463 139.407 70.9797 139.787 69.7192C140.168 68.4587 140.784 67.3546 141.636 66.4071C142.515 65.4229 143.554 64.5264 144.752 63.7175C145.983 62.9036 147.278 62.0953 148.64 61.2926L148.327 59.3496C148.149 58.2439 147.939 57.3379 147.695 56.6316C147.452 55.9253 147.097 55.4314 146.63 55.15C146.19 54.832 145.575 54.7365 144.785 54.8637C144.09 54.9756 143.547 55.2252 143.155 55.6123C142.796 55.9944 142.569 56.5008 142.476 57.1316C142.378 57.7308 142.393 58.4253 142.52 59.2151L142.741 60.5894L137.688 61.2087C137.262 58.1656 137.599 55.8264 138.697 54.191C139.79 52.5241 141.726 51.4668 144.506 51.0191C147.223 50.5816 149.27 51.0138 150.647 52.3155C152.023 53.6172 152.938 55.674 153.39 58.4858L155.405 70.9966C155.542 71.8496 155.69 72.6685 155.849 73.4532C156.039 74.2329 156.222 74.9652 156.397 75.65C156.599 76.2982 156.78 76.9174 156.939 77.5075L152.295 78.2553C152.119 77.765 151.891 77.1535 151.611 76.4207C151.357 75.6513 151.148 74.9557 150.983 74.334C150.84 75.459 150.387 76.5692 149.623 77.6645C148.886 78.7232 147.728 79.3797 146.148 79.634ZM147.437 74.9537C147.942 74.8723 148.393 74.6538 148.79 74.2983C149.186 73.9427 149.53 73.5632 149.822 73.1597C150.108 72.7246 150.297 72.3863 150.388 72.1448L149.136 64.3729C148.418 64.9424 147.746 65.5043 147.123 66.0585C146.499 66.6127 145.959 67.1858 145.503 67.7778C145.074 68.3331 144.752 68.9521 144.538 69.6348C144.351 70.2809 144.32 70.9988 144.447 71.7886C144.626 72.8944 144.971 73.7301 145.483 74.2959C145.996 74.8616 146.647 75.0809 147.437 74.9537ZM161.355 76.7964L156.945 49.4052L162.015 48.5888L162.45 51.29C163.229 50.2894 164.123 49.4 165.132 48.6217C166.141 47.8434 167.309 47.3474 168.636 47.1337C169.742 46.9557 170.625 47.1052 171.285 47.5823C171.977 48.0543 172.502 48.699 172.861 49.5164C173.251 50.3287 173.517 51.1772 173.66 52.0618L177.231 74.2401L172.16 75.0566L168.825 54.3474C168.668 53.368 168.403 52.6326 168.033 52.1413C167.662 51.65 167.034 51.4756 166.149 51.6181C165.581 51.7096 165.009 51.98 164.433 52.4293C163.883 52.8419 163.362 53.3309 162.87 53.8964L166.426 75.9799L161.355 76.7964ZM189.54 72.647C188.118 72.876 186.922 72.7931 185.951 72.3985C185.011 71.9987 184.257 71.3422 183.689 70.429C183.152 69.5107 182.777 68.388 182.563 67.0611L179.686 49.1953L176.795 49.6607L176.254 46.2961L179.144 45.8306L177.855 37.8218L182.926 37.0053L184.215 45.0141L188.622 44.3044L189.164 47.6691L184.757 48.3788L187.58 65.9129C187.753 66.9871 188.052 67.7331 188.475 68.1511C188.894 68.5374 189.593 68.6517 190.573 68.494C190.825 68.4533 191.107 68.3917 191.418 68.3093C191.76 68.2217 192.087 68.1367 192.398 68.0543L193.001 71.798C192.384 71.9945 191.81 72.1518 191.278 72.2699C190.751 72.4196 190.172 72.5453 189.54 72.647ZM203.17 70.4523C200.927 70.8135 199.014 70.4084 197.432 69.2371C195.844 68.0341 194.77 66.2948 194.209 64.019L198.221 62.0603C198.753 63.7573 199.391 64.9997 200.134 65.7877C200.871 66.544 201.825 66.8281 202.993 66.6399C203.91 66.4923 204.564 66.1277 204.957 65.5459C205.344 64.9325 205.466 64.1835 205.324 63.2989C205.197 62.509 204.909 61.8262 204.459 61.2503C204.01 60.6744 203.337 60.1183 202.44 59.582L197.1 56.3093C196.02 55.6405 195.067 54.8541 194.241 53.9499C193.446 53.0407 192.919 51.7804 192.66 50.1692C192.426 48.7159 192.514 47.4538 192.925 46.3828C193.363 45.2752 194.062 44.3847 195.023 43.7113C196.011 43.0013 197.215 42.5318 198.637 42.3029C200.912 41.9366 202.764 42.3677 204.193 43.596C205.618 44.7928 206.585 46.3711 207.095 48.331L203.699 50.1904C203.42 49.263 203.099 48.4721 202.734 47.8177C202.364 47.1318 201.912 46.6374 201.377 46.3346C200.837 46.0002 200.188 45.8941 199.43 46.0161C198.608 46.1484 197.99 46.5396 197.577 47.1897C197.189 47.803 197.056 48.4889 197.179 49.2471C197.255 49.721 197.426 50.1796 197.692 50.623C197.984 51.0297 198.419 51.4135 198.995 51.7744L204.546 55.4507C205.307 55.9441 206.027 56.4926 206.708 57.096C207.42 57.6944 208.037 58.4054 208.558 59.229C209.08 60.0525 209.435 61.0488 209.623 62.2177C209.872 63.7658 209.765 65.112 209.301 66.2563C208.837 67.4006 208.079 68.3329 207.028 69.0531C205.972 69.7417 204.686 70.2081 203.17 70.4523ZM231.724 65.8545C229.481 66.2157 227.568 65.8106 225.986 64.6392C224.398 63.4363 223.324 61.6969 222.763 59.4212L226.775 57.4625C227.307 59.1594 227.945 60.4019 228.688 61.1898C229.425 61.9462 230.379 62.2302 231.548 62.042C232.464 61.8945 233.118 61.5298 233.511 60.948C233.898 60.3346 234.021 59.5856 233.878 58.701C233.751 57.9112 233.463 57.2284 233.013 56.6524C232.564 56.0765 231.891 55.5205 230.995 54.9842L225.654 51.7115C224.574 51.0427 223.621 50.2562 222.795 49.3521C222 48.4429 221.473 47.1826 221.214 45.5714C220.98 44.1181 221.068 42.856 221.479 41.785C221.917 40.6774 222.616 39.7869 223.577 39.1135C224.565 38.4035 225.77 37.934 227.191 37.7051C229.466 37.3388 231.318 37.7698 232.747 38.9982C234.172 40.195 235.139 41.7733 235.649 43.7331L232.254 45.5926C231.975 44.6652 231.653 43.8743 231.288 43.2199C230.918 42.534 230.466 42.0396 229.931 41.7368C229.391 41.4024 228.742 41.2962 227.984 41.4183C227.162 41.5506 226.545 41.9418 226.131 42.5918C225.743 43.2052 225.611 43.891 225.733 44.6493C225.809 45.1232 225.98 45.5818 226.246 46.0252C226.538 46.4319 226.973 46.8157 227.549 47.1766L233.101 50.8528C233.861 51.3463 234.581 51.8947 235.262 52.4982C235.974 53.0966 236.591 53.8076 237.112 54.6311C237.634 55.4547 237.989 56.451 238.177 57.6199C238.426 59.168 238.319 60.5141 237.855 61.6585C237.391 62.8028 236.633 63.735 235.583 64.4553C234.527 65.1439 233.24 65.6103 231.724 65.8545ZM250.633 62.8096C248.611 63.1352 246.95 62.9814 245.649 62.3482C244.347 61.715 243.322 60.6809 242.572 59.2458C241.854 57.8056 241.33 56.0588 240.999 54.0052L239.717 46.0438C239.387 43.9902 239.336 42.1671 239.566 40.5743C239.827 38.9764 240.476 37.6727 241.513 36.6631C242.549 35.6534 244.079 34.9858 246.101 34.6602C248.123 34.3346 249.769 34.491 251.038 35.1293C252.339 35.7625 253.349 36.7991 254.067 38.2393C254.817 39.6744 255.357 41.4187 255.688 43.4722L256.97 51.4337C257.3 53.4872 257.335 55.3129 257.074 56.9108C256.844 58.5036 256.211 59.8048 255.174 60.8144C254.169 61.819 252.655 62.484 250.633 62.8096ZM250.031 59.0658C251.01 58.9081 251.643 58.5144 251.931 57.8847C252.25 57.2499 252.368 56.4693 252.283 55.5429C252.225 54.5799 252.115 53.5929 251.952 52.5819L250.571 44.0044C250.403 42.9618 250.198 41.9901 249.956 41.0891C249.745 40.1831 249.389 39.4788 248.886 38.9763C248.411 38.437 247.683 38.2463 246.704 38.404C245.724 38.5617 245.077 38.9737 244.763 39.6401C244.444 40.275 244.311 41.0581 244.364 41.9895C244.448 42.9159 244.574 43.9004 244.742 44.943L246.123 53.5205C246.286 54.5315 246.475 55.5058 246.691 56.4434C246.934 57.3443 247.306 58.046 247.808 58.5486C248.31 59.0511 249.051 59.2235 250.031 59.0658ZM263.169 60.4022L258.758 33.011L263.829 32.1945L264.264 34.8958C265.043 33.8952 265.937 33.0058 266.946 32.2275C267.955 31.4491 269.123 30.9532 270.45 30.7395C271.556 30.5614 272.439 30.711 273.099 31.1881C273.791 31.6601 274.316 32.3048 274.674 33.1222C275.064 33.9345 275.331 34.783 275.473 35.6676L279.044 57.8459L273.974 58.6624L270.639 37.9532C270.481 36.9738 270.217 36.2384 269.846 35.7471C269.475 35.2558 268.848 35.0814 267.963 35.2238C267.394 35.3154 266.822 35.5858 266.246 36.0351C265.697 36.4477 265.176 36.9367 264.684 37.5022L268.239 59.5857L263.169 60.4022ZM291.353 56.2528C289.932 56.4818 288.735 56.3989 287.764 56.0043C286.825 55.6045 286.071 54.948 285.502 54.0348C284.965 53.1164 284.59 51.9938 284.377 50.6669L281.5 32.801L278.609 33.2665L278.067 29.9019L280.958 29.4364L279.668 21.4275L284.739 20.6111L286.029 28.6199L290.436 27.9102L290.978 31.2749L286.57 31.9846L289.394 49.5187C289.567 50.5929 289.865 51.3389 290.289 51.7568C290.708 52.1432 291.407 52.2575 292.386 52.0998C292.639 52.0591 292.921 51.9975 293.232 51.9151C293.574 51.8275 293.901 51.7425 294.212 51.66L294.814 55.4038C294.198 55.6003 293.623 55.7576 293.091 55.8757C292.565 56.0254 291.985 56.1511 291.353 56.2528ZM314.946 52.065L309.833 20.3139C309.807 20.3506 309.459 20.5039 308.789 20.7738C308.151 21.0386 307.418 21.3186 306.591 21.614C305.763 21.9093 305.028 22.1735 304.385 22.4067C303.742 22.6399 303.404 22.7591 303.373 22.7642L302.755 18.9256C303.271 18.7128 303.859 18.4398 304.519 18.1067C305.21 17.7686 305.893 17.383 306.569 16.9501C307.276 16.5121 307.924 16.0027 308.511 15.422C309.13 14.8362 309.625 14.1892 309.997 13.481L313.836 12.8629L320.017 51.2485L314.946 52.065ZM337.784 48.3875L336.129 38.1039L324.992 39.8972L324.137 34.5895L330.466 10.185L336.437 9.22357L340.237 32.8236L344.55 32.1292L345.275 36.6312L340.962 37.3256L342.618 47.6091L337.784 48.3875ZM329.148 34.6092L335.404 33.6019L332.595 16.1626L329.148 34.6092ZM20.382 146.089L16.5742 122.441L13.3044 122.968L12.7015 119.224L15.9714 118.698L15.7425 117.276C15.4678 115.57 15.3601 114.096 15.4196 112.855C15.5055 111.577 15.9216 110.538 16.6678 109.737C17.4139 108.936 18.64 108.398 20.3461 108.124C20.9779 108.022 21.5359 107.964 22.02 107.951C22.5305 107.902 23.0961 107.891 23.7168 107.921L24.3119 111.618C24.0174 111.6 23.6939 111.604 23.3413 111.628C22.9836 111.621 22.6625 111.64 22.3782 111.686C21.3988 111.844 20.8204 112.277 20.6429 112.986C20.4919 113.659 20.5029 114.532 20.6758 115.606L21.0421 117.881L25.2124 117.21L25.8152 120.953L21.6449 121.625L25.4527 145.272L20.382 146.089ZM39.0471 143.472C37.0252 143.798 35.3636 143.644 34.0624 143.011C32.7612 142.378 31.7357 141.343 30.9861 139.908C30.268 138.468 29.7436 136.721 29.413 134.668L28.131 126.706C27.8003 124.653 27.7498 122.83 27.9796 121.237C28.2409 119.639 28.8899 118.335 29.9265 117.326C30.9632 116.316 32.4925 115.648 34.5145 115.323C36.5364 114.997 38.1822 115.154 39.4518 115.792C40.753 116.425 41.7627 117.462 42.4808 118.902C43.2304 120.337 43.7706 122.081 44.1013 124.135L45.3832 132.096C45.7139 134.15 45.7486 135.975 45.4873 137.573C45.2576 139.166 44.6244 140.467 43.5877 141.477C42.5826 142.482 41.0691 143.147 39.0471 143.472ZM38.4443 139.728C39.4237 139.571 40.0572 139.177 40.3447 138.547C40.6639 137.912 40.7813 137.132 40.6969 136.205C40.6391 135.242 40.5288 134.255 40.366 133.244L38.9848 124.667C38.8169 123.624 38.6118 122.653 38.3695 121.752C38.1588 120.846 37.8023 120.141 37.3 119.639C36.8243 119.1 36.0967 118.909 35.1173 119.067C34.1379 119.224 33.4912 119.636 33.1771 120.303C32.858 120.938 32.7248 121.721 32.7776 122.652C32.8619 123.578 32.988 124.563 33.1559 125.606L34.5371 134.183C34.6998 135.194 34.8891 136.168 35.1049 137.106C35.3472 138.007 35.7195 138.709 36.2218 139.211C36.7241 139.714 37.4649 139.886 38.4443 139.728ZM51.9142 141.011L47.5036 113.62L52.5743 112.804L56.9849 140.195L51.9142 141.011ZM46.8474 109.545L45.9927 104.237L51.0634 103.421L51.9181 108.728L46.8474 109.545ZM68.823 138.678C66.5799 139.039 64.6671 138.634 63.0848 137.462C61.4974 136.259 60.4232 134.52 59.8623 132.244L63.8739 130.286C64.4065 131.983 65.0441 133.225 65.7868 134.013C66.5244 134.769 67.4777 135.053 68.6467 134.865C69.5629 134.718 70.2172 134.353 70.6097 133.771C70.9971 133.158 71.1196 132.409 70.9772 131.524C70.85 130.734 70.5618 130.051 70.1125 129.476C69.6632 128.9 68.9903 128.344 68.0936 127.807L62.7534 124.535C61.6734 123.866 60.7202 123.079 59.894 122.175C59.0993 121.266 58.5723 120.006 58.3128 118.395C58.0788 116.941 58.1673 115.679 58.5783 114.608C59.0157 113.501 59.7151 112.61 60.6763 111.937C61.6639 111.227 62.8686 110.757 64.2903 110.528C66.565 110.162 68.4171 110.593 69.8465 111.821C71.2709 113.018 72.2381 114.596 72.7482 116.556L69.3526 118.416C69.0736 117.488 68.7518 116.697 68.3871 116.043C68.0174 115.357 67.565 114.863 67.0301 114.56C66.4901 114.226 65.8409 114.119 65.0827 114.241C64.2613 114.374 63.6436 114.765 63.2297 115.415C62.8423 116.028 62.7096 116.714 62.8317 117.472C62.908 117.946 63.0791 118.405 63.345 118.848C63.6373 119.255 64.0719 119.639 64.6486 120L70.1996 123.676C70.9597 124.169 71.6801 124.718 72.3607 125.321C73.0729 125.92 73.6897 126.631 74.2113 127.454C74.7328 128.278 75.0877 129.274 75.276 130.443C75.5252 131.991 75.4179 133.337 74.9539 134.482C74.4899 135.626 73.7325 136.558 72.6816 137.278C71.6257 137.967 70.3394 138.433 68.823 138.678ZM92.4156 143.727L86.5552 107.332L91.6259 106.516L91.9769 108.695C92.4653 107.904 93.0953 107.186 93.8669 106.544C94.6385 105.901 95.6088 105.485 96.7777 105.297C98.1994 105.068 99.382 105.267 100.326 105.893C101.296 106.482 102.077 107.312 102.671 108.383C103.26 109.423 103.712 110.517 104.026 111.666C104.336 112.783 104.557 113.752 104.689 114.573L105.757 121.208C106.068 123.135 106.173 124.998 106.074 126.797C105.969 128.564 105.498 130.066 104.66 131.303C103.849 132.503 102.543 133.248 100.742 133.538C99.7623 133.696 98.8554 133.599 98.0208 133.247C97.1812 132.863 96.4104 132.404 95.7084 131.869L97.4863 142.911L92.4156 143.727ZM99.1055 129.718C99.9901 129.575 100.571 129.157 100.849 128.465C101.121 127.74 101.215 126.817 101.132 125.696C101.049 124.575 100.9 123.351 100.687 122.024L99.6183 115.39C99.4352 114.252 99.2041 113.22 98.9251 112.293C98.6411 111.334 98.2479 110.603 97.7456 110.1C97.2433 109.598 96.5499 109.418 95.6653 109.56C95.0018 109.667 94.3929 109.911 93.8384 110.292C93.2839 110.673 92.816 111.088 92.4348 111.539L95.2581 129.073C95.788 129.344 96.3734 129.558 97.0144 129.714C97.6503 129.838 98.3473 129.84 99.1055 129.718ZM112.589 131.241L106.408 92.8558L111.479 92.0393L117.66 130.425L112.589 131.241ZM126.939 129.32C125.865 129.493 124.982 129.343 124.29 128.871C123.598 128.399 123.057 127.757 122.667 126.945C122.308 126.127 122.058 125.276 121.916 124.392L118.344 102.213L123.415 101.397L126.742 122.059C126.9 123.038 127.167 123.789 127.542 124.312C127.913 124.803 128.541 124.978 129.426 124.835C129.994 124.744 130.553 124.492 131.103 124.079C131.679 123.63 132.213 123.122 132.705 122.557L129.149 100.473L134.22 99.657L138.63 127.048L133.56 127.865L133.125 125.163C132.378 126.159 131.484 127.048 130.443 127.832C129.434 128.61 128.266 129.106 126.939 129.32ZM150.228 125.57C147.984 125.931 146.072 125.526 144.489 124.354C142.902 123.152 141.828 121.412 141.267 119.136L145.278 117.178C145.811 118.875 146.449 120.117 147.191 120.905C147.929 121.661 148.882 121.945 150.051 121.757C150.967 121.61 151.622 121.245 152.014 120.663C152.402 120.05 152.524 119.301 152.382 118.416C152.255 117.626 151.966 116.944 151.517 116.368C151.068 115.792 150.395 115.236 149.498 114.699L144.158 111.427C143.078 110.758 142.125 109.971 141.299 109.067C140.504 108.158 139.977 106.898 139.717 105.287C139.483 103.833 139.572 102.571 139.983 101.5C140.42 100.393 141.12 99.5021 142.081 98.8287C143.068 98.1187 144.273 97.6492 145.695 97.4203C147.97 97.054 149.822 97.4851 151.251 98.7134C152.675 99.9102 153.643 101.489 154.153 103.448L150.757 105.308C150.478 104.38 150.156 103.589 149.792 102.935C149.422 102.249 148.97 101.755 148.435 101.452C147.895 101.118 147.245 101.011 146.487 101.134C145.666 101.266 145.048 101.657 144.634 102.307C144.247 102.92 144.114 103.606 144.236 104.364C144.313 104.838 144.484 105.297 144.75 105.74C145.042 106.147 145.476 106.531 146.053 106.892L151.604 110.568C152.364 111.062 153.085 111.61 153.765 112.213C154.477 112.812 155.094 113.523 155.616 114.346C156.137 115.17 156.492 116.166 156.681 117.335C156.93 118.883 156.822 120.229 156.358 121.374C155.894 122.518 155.137 123.45 154.086 124.17C153.03 124.859 151.744 125.326 150.228 125.57ZM175.925 121.043L166.112 94.5217L171.23 93.6976L178.143 115.192L178.006 92.6064L182.935 91.8128L182.133 120.043L175.925 121.043ZM194.599 118.425C193.524 118.598 192.641 118.448 191.95 117.976C191.258 117.504 190.717 116.862 190.327 116.05C189.968 115.233 189.718 114.381 189.575 113.497L186.004 91.3186L191.075 90.5021L194.402 111.164C194.559 112.143 194.826 112.894 195.202 113.417C195.573 113.909 196.201 114.083 197.085 113.941C197.654 113.849 198.213 113.597 198.762 113.184C199.338 112.735 199.872 112.228 200.365 111.662L196.809 89.5788L201.88 88.7623L206.29 116.153L201.219 116.97L200.785 114.269C200.037 115.264 199.143 116.154 198.103 116.937C197.094 117.715 195.926 118.211 194.599 118.425ZM211.95 115.242L205.769 76.8565L210.84 76.0401L217.021 114.426L211.95 115.242ZM222.305 113.575L217.895 86.1835L222.965 85.367L223.4 88.0682C224.179 87.0677 225.073 86.1782 226.082 85.3999C227.091 84.6216 228.259 84.1256 229.586 83.9119C230.692 83.7339 231.575 83.8834 232.235 84.3605C232.927 84.8325 233.452 85.4773 233.811 86.2947C234.201 87.107 234.467 87.9554 234.61 88.84L238.181 111.018L233.11 111.835L229.775 91.1256C229.618 90.1462 229.353 89.4109 228.983 88.9196C228.612 88.4283 227.984 88.2539 227.1 88.3963C226.531 88.4879 225.959 88.7583 225.383 89.2076C224.833 89.6201 224.312 90.1092 223.82 90.6746L227.376 112.758L222.305 113.575ZM250.774 109.379C248.626 109.725 246.901 109.582 245.6 108.949C244.294 108.284 243.274 107.184 242.54 105.649C241.834 104.077 241.289 102.107 240.908 99.7374L239.901 93.4819C239.509 91.0493 239.42 88.9892 239.635 87.3016C239.849 85.6141 240.475 84.2655 241.511 83.2558C242.58 82.2411 244.156 81.5658 246.241 81.2301C248.548 80.8587 250.314 81.0605 251.541 81.8353C252.799 82.605 253.747 83.8623 254.385 85.6072C255.017 87.3204 255.534 89.425 255.936 91.9208L256.295 94.1481L245.49 95.8879L246.375 101.385C246.553 102.491 246.793 103.376 247.095 104.041C247.428 104.7 247.843 105.168 248.342 105.444C248.866 105.684 249.492 105.745 250.219 105.628C250.977 105.506 251.518 105.241 251.841 104.832C252.19 104.387 252.375 103.822 252.395 103.139C252.441 102.418 252.39 101.6 252.242 100.683L251.975 99.0249L256.904 98.2313L257.072 99.2738C257.514 102.022 257.278 104.281 256.364 106.049C255.449 107.816 253.586 108.927 250.774 109.379ZM245.048 93.1393L250.876 92.2008L250.48 89.7365C250.297 88.5992 250.081 87.6615 249.832 86.9237C249.579 86.1542 249.216 85.6129 248.744 85.3C248.299 84.9503 247.65 84.8441 246.797 84.9815C245.975 85.1138 245.374 85.4051 244.993 85.8554C244.643 86.3007 244.463 86.9941 244.453 87.9357C244.437 88.8458 244.557 90.0906 244.811 91.6703L245.048 93.1393ZM244.467 79.5711L245.752 69.7377L250.823 68.9212L247.026 79.159L244.467 79.5711ZM263.219 106.987L258.809 79.5955L263.879 78.779L264.505 82.6649C265.246 80.8277 266.077 79.5433 266.996 78.8119C267.916 78.0804 268.881 77.6333 269.892 77.4705C270.018 77.4502 270.129 77.4324 270.223 77.4171C270.35 77.3967 270.51 77.3871 270.705 77.3882L271.605 82.9801C271.201 82.8832 270.738 82.8281 270.217 82.8147C269.723 82.7646 269.223 82.7803 268.718 82.8617C267.928 82.9889 267.232 83.2954 266.629 83.7814C266.054 84.2306 265.534 85.0274 265.07 86.1717L268.29 106.17L263.219 106.987ZM282.07 104.34C280.996 104.513 280 104.366 279.082 103.898C278.159 103.398 277.384 102.712 276.757 101.841C276.126 100.938 275.723 99.9493 275.55 98.8751C275.276 97.1691 275.329 95.6858 275.709 94.4253C276.089 93.1648 276.706 92.0608 277.558 91.1133C278.437 90.129 279.475 89.2325 280.674 88.4237C281.904 87.6097 283.2 86.8014 284.562 85.9988L284.249 84.0558C284.071 82.95 283.86 82.044 283.617 81.3377C283.374 80.6314 283.019 80.1376 282.552 79.8562C282.112 79.5381 281.497 79.4427 280.707 79.5699C280.012 79.6818 279.469 79.9313 279.077 80.3185C278.717 80.7005 278.491 81.2069 278.398 81.8377C278.3 82.4369 278.315 83.1314 278.442 83.9213L278.663 85.2956L273.609 85.9149C273.184 82.8718 273.521 80.5325 274.619 78.8972C275.711 77.2302 277.648 76.1729 280.428 75.7253C283.145 75.2878 285.192 75.7199 286.568 77.0216C287.945 78.3234 288.859 80.3801 289.312 83.1919L291.327 95.7028C291.464 96.5558 291.612 97.3746 291.771 98.1594C291.961 98.939 292.144 99.6713 292.319 100.356C292.521 101.004 292.701 101.624 292.861 102.214L288.217 102.961C288.041 102.471 287.813 101.86 287.533 101.127C287.279 100.357 287.07 99.6618 286.905 99.0401C286.762 100.165 286.309 101.275 285.545 102.371C284.808 103.429 283.65 104.086 282.07 104.34ZM283.358 99.6598C283.864 99.5784 284.315 99.36 284.711 99.0044C285.108 98.6488 285.452 98.2693 285.744 97.8658C286.03 97.4308 286.219 97.0925 286.309 96.851L285.058 89.0791C284.339 89.6486 283.668 90.2104 283.044 90.7646C282.421 91.3189 281.881 91.8919 281.425 92.4839C280.996 93.0392 280.674 93.6582 280.46 94.341C280.272 94.987 280.242 95.7049 280.369 96.4948C280.547 97.6005 280.893 98.4363 281.405 99.002C281.917 99.5677 282.569 99.787 283.358 99.6598ZM307.148 100.302C306.168 100.46 305.246 100.365 304.379 100.019C303.54 99.6352 302.787 99.1891 302.122 98.6804L302.443 100.671L297.372 101.487L291.191 63.1017L296.262 62.2853L298.383 75.4596C298.871 74.6679 299.485 73.9531 300.226 73.3154C300.997 72.6725 301.967 72.257 303.136 72.0688C304.558 71.8398 305.741 72.0384 306.684 72.6643C307.654 73.2536 308.436 74.0839 309.03 75.1551C309.619 76.1947 310.07 77.2888 310.385 78.4374C310.694 79.5544 310.915 80.5236 311.048 81.345L312.116 87.9796C312.426 89.9068 312.532 91.7697 312.432 93.5683C312.328 95.3354 311.873 96.8349 311.066 98.0667C310.255 99.267 308.949 100.012 307.148 100.302ZM305.464 96.4893C306.349 96.3468 306.93 95.9291 307.207 95.2362C307.479 94.5117 307.574 93.589 307.491 92.468C307.407 91.3469 307.259 90.123 307.045 88.7961L305.977 82.1615C305.794 81.0242 305.563 79.9918 305.284 79.0643C305 78.1053 304.607 77.3745 304.104 76.872C303.602 76.3694 302.909 76.1894 302.024 76.3318C301.36 76.4387 300.751 76.6826 300.197 77.0636C299.674 77.4395 299.219 77.8368 298.833 78.2555L301.664 95.8371C302.162 96.1134 302.732 96.3296 303.373 96.4857C304.04 96.6051 304.738 96.6063 305.464 96.4893ZM318.947 98.0133L312.766 59.6277L317.836 58.8112L324.017 97.1968L318.947 98.0133ZM336.945 95.504C334.797 95.85 333.072 95.7063 331.771 95.0731C330.465 94.4083 329.445 93.3085 328.712 91.7735C328.005 90.2019 327.461 88.2314 327.079 85.8619L326.072 79.6065C325.68 77.1738 325.591 75.1137 325.806 73.4262C326.02 71.7386 326.646 70.39 327.683 69.3804C328.751 68.3656 330.328 67.6904 332.413 67.3546C334.719 66.9833 336.486 67.185 337.712 67.9598C338.971 68.7296 339.919 69.9869 340.556 71.7317C341.189 73.445 341.706 75.5495 342.108 78.0454L342.466 80.2727L331.661 82.0125L332.547 87.5097C332.725 88.6154 332.964 89.5006 333.266 90.1651C333.599 90.8245 334.015 91.2924 334.513 91.5687C335.038 91.8083 335.663 91.8696 336.39 91.7526C337.148 91.6305 337.689 91.3652 338.012 90.9566C338.362 90.5114 338.546 89.9469 338.566 89.2631C338.612 88.5426 338.561 87.7242 338.414 86.808L338.147 85.1494L343.075 84.3558L343.243 85.3984C343.686 88.147 343.45 90.4052 342.535 92.1731C341.62 93.941 339.757 95.0513 336.945 95.504ZM331.219 79.2639L337.048 78.3253L336.651 75.861C336.468 74.7237 336.252 73.7861 336.004 73.0482C335.75 72.2787 335.387 71.7375 334.916 71.4245C334.47 71.0748 333.821 70.9687 332.968 71.106C332.147 71.2383 331.545 71.5296 331.164 71.9799C330.814 72.4252 330.634 73.1186 330.624 74.0603C330.608 74.9703 330.728 76.2152 330.982 77.7948L331.219 79.2639ZM355.659 92.4907C353.416 92.8518 351.504 92.4468 349.921 91.2754C348.334 90.0725 347.26 88.3331 346.699 86.0574L350.71 84.0987C351.243 85.7956 351.881 87.0381 352.623 87.826C353.361 88.5824 354.314 88.8664 355.483 88.6782C356.399 88.5307 357.054 88.166 357.446 87.5842C357.834 86.9708 357.956 86.2218 357.814 85.3372C357.686 84.5474 357.398 83.8645 356.949 83.2886C356.5 82.7127 355.827 82.1566 354.93 81.6204L349.59 78.3477C348.51 77.6789 347.557 76.8924 346.73 75.9883C345.936 75.079 345.409 73.8188 345.149 72.2076C344.915 70.7543 345.004 69.4922 345.415 68.4212C345.852 67.3136 346.552 66.4231 347.513 65.7497C348.5 65.0397 349.705 64.5702 351.127 64.3413C353.401 63.975 355.254 64.406 356.683 65.6344C358.107 66.8312 359.075 68.4095 359.585 70.3693L356.189 72.2288C355.91 71.3013 355.588 70.5104 355.224 69.8561C354.854 69.1702 354.402 68.6758 353.867 68.373C353.327 68.0386 352.677 67.9324 351.919 68.0545C351.098 68.1868 350.48 68.5779 350.066 69.228C349.679 69.8414 349.546 70.5272 349.668 71.2854C349.745 71.7593 349.916 72.218 350.181 72.6613C350.474 73.068 350.908 73.4518 351.485 73.8127L357.036 77.489C357.796 77.9825 358.517 78.5309 359.197 79.1344C359.909 79.7328 360.526 80.4438 361.048 81.2673C361.569 82.0909 361.924 83.0871 362.112 84.2561C362.362 85.8041 362.254 87.1503 361.79 88.2946C361.326 89.439 360.569 90.3712 359.518 91.0914C358.462 91.7801 357.176 92.2465 355.659 92.4907ZM64.5117 187.682L63.3569 180.511C63.0246 180.996 62.6383 181.415 62.1979 181.767C61.7752 182.094 61.2585 182.307 60.6477 182.405C59.1102 182.653 57.8724 182.28 56.9345 181.285C55.9931 180.27 55.3053 178.415 54.8712 175.719L54.3015 172.18C54.0776 170.79 53.9866 169.487 54.0284 168.27C54.0667 167.032 54.3442 166.004 54.8607 165.186C55.3984 164.365 56.2885 163.854 57.5312 163.654C58.142 163.556 58.7221 163.603 59.2717 163.795C59.8213 163.988 60.3284 164.252 60.793 164.588L60.6048 163.419L63.9852 162.874L67.8922 187.138L64.5117 187.682ZM61.0734 179.614C61.3893 179.563 61.7179 179.456 62.0589 179.293C62.4177 179.106 62.7469 178.869 63.0466 178.583L61.1186 166.61C60.7898 166.446 60.4345 166.32 60.0527 166.23C59.6675 166.119 59.2643 166.098 58.8431 166.166C58.0638 166.291 57.5983 166.755 57.4466 167.557C57.2915 168.339 57.2987 169.256 57.4683 170.309L58.2975 175.459C58.4331 176.301 58.599 177.063 58.7952 177.745C59.0091 178.402 59.2956 178.906 59.6549 179.259C60.0108 179.591 60.4837 179.709 61.0734 179.614ZM73.012 180.414C72.2958 180.53 71.7072 180.43 71.246 180.115C70.7847 179.801 70.4241 179.373 70.164 178.831C69.925 178.286 69.758 177.719 69.6631 177.129L67.2823 162.344L70.6627 161.799L72.8807 175.574C72.9859 176.227 73.1637 176.727 73.4143 177.076C73.6616 177.404 74.08 177.52 74.6698 177.425C75.0489 177.364 75.4216 177.196 75.7878 176.921C76.1718 176.621 76.5279 176.283 76.8561 175.906L74.4855 161.184L77.8659 160.639L80.8063 178.9L77.4259 179.444L77.1359 177.644C76.6377 178.307 76.0418 178.9 75.348 179.422C74.6752 179.941 73.8966 180.272 73.012 180.414ZM89.3591 177.782C87.9269 178.013 86.7771 177.917 85.9096 177.495C85.0387 177.052 84.3589 176.319 83.87 175.295C83.3987 174.247 83.0359 172.934 82.7816 171.354L82.1101 167.184C81.8489 165.562 81.7898 164.189 81.9328 163.064C82.0758 161.939 82.4928 161.04 83.1839 160.366C83.8961 159.69 84.9473 159.24 86.3374 159.016C87.8749 158.768 89.0526 158.903 89.8704 159.419C90.7093 159.933 91.3413 160.771 91.7663 161.934C92.1879 163.076 92.5327 164.479 92.8006 166.143L93.0397 167.628L85.8365 168.788L86.4266 172.453C86.5453 173.19 86.7051 173.78 86.9061 174.223C87.1281 174.663 87.4053 174.974 87.7374 175.159C88.0873 175.318 88.5044 175.359 88.9888 175.281C89.4943 175.2 89.8548 175.023 90.0702 174.751C90.3033 174.454 90.4264 174.077 90.4394 173.622C90.4701 173.141 90.4363 172.596 90.338 171.985L90.1599 170.879L93.4456 170.35L93.5575 171.045C93.8526 172.877 93.6952 174.383 93.0855 175.562C92.4758 176.74 91.2337 177.48 89.3591 177.782ZM85.5414 166.955L89.4274 166.33L89.1628 164.687C89.0407 163.929 88.8969 163.304 88.7312 162.812C88.5622 162.299 88.3204 161.938 88.0059 161.729C87.7091 161.496 87.2763 161.425 86.7076 161.517C86.16 161.605 85.7591 161.799 85.505 162.099C85.2719 162.396 85.1518 162.859 85.1449 163.486C85.1345 164.093 85.2141 164.923 85.3837 165.976L85.5414 166.955ZM105.096 174.989L100.976 149.398L104.356 148.854L108.477 174.445L105.096 174.989ZM117.096 173.316C115.663 173.547 114.514 173.451 113.646 173.029C112.775 172.586 112.095 171.852 111.606 170.829C111.135 169.781 110.772 168.468 110.518 166.888L109.847 162.718C109.585 161.096 109.526 159.722 109.669 158.597C109.812 157.472 110.229 156.573 110.92 155.9C111.633 155.224 112.684 154.774 114.074 154.55C115.611 154.302 116.789 154.437 117.607 154.953C118.446 155.466 119.078 156.305 119.503 157.468C119.924 158.61 120.269 160.013 120.537 161.677L120.776 163.162L113.573 164.322L114.163 167.986C114.282 168.724 114.442 169.314 114.643 169.757C114.865 170.196 115.142 170.508 115.474 170.692C115.824 170.852 116.241 170.893 116.725 170.815C117.231 170.734 117.591 170.557 117.807 170.284C118.04 169.988 118.163 169.611 118.176 169.155C118.207 168.675 118.173 168.129 118.074 167.519L117.896 166.413L121.182 165.884L121.294 166.579C121.589 168.411 121.432 169.917 120.822 171.095C120.212 172.274 118.97 173.014 117.096 173.316ZM113.278 162.489L117.164 161.864L116.899 160.221C116.777 159.462 116.633 158.837 116.468 158.345C116.299 157.832 116.057 157.472 115.742 157.263C115.446 157.03 115.013 156.959 114.444 157.051C113.897 157.139 113.496 157.333 113.241 157.633C113.008 157.93 112.888 158.392 112.881 159.02C112.871 159.627 112.951 160.457 113.12 161.51L113.278 162.489ZM129.572 171.307C128.076 171.548 126.801 171.278 125.746 170.497C124.688 169.695 123.972 168.535 123.598 167.018L126.272 165.712C126.627 166.844 127.052 167.672 127.548 168.197C128.039 168.702 128.675 168.891 129.454 168.765C130.065 168.667 130.501 168.424 130.763 168.036C131.021 167.627 131.103 167.128 131.008 166.538C130.923 166.012 130.731 165.556 130.431 165.172C130.132 164.788 129.683 164.418 129.085 164.06L125.525 161.878C124.805 161.433 124.17 160.908 123.619 160.306C123.089 159.699 122.738 158.859 122.565 157.785C122.409 156.816 122.468 155.975 122.742 155.261C123.034 154.522 123.5 153.929 124.141 153.48C124.799 153.006 125.602 152.693 126.55 152.541C128.066 152.297 129.301 152.584 130.254 153.403C131.204 154.201 131.848 155.253 132.188 156.56L129.925 157.799C129.739 157.181 129.524 156.654 129.281 156.217C129.035 155.76 128.733 155.431 128.376 155.229C128.016 155.006 127.584 154.935 127.078 155.016C126.531 155.105 126.119 155.365 125.843 155.799C125.585 156.208 125.496 156.665 125.577 157.17C125.628 157.486 125.742 157.792 125.92 158.088C126.115 158.359 126.404 158.615 126.789 158.855L130.489 161.306C130.996 161.635 131.476 162.001 131.93 162.403C132.405 162.802 132.816 163.276 133.164 163.825C133.512 164.374 133.748 165.038 133.874 165.817C134.04 166.849 133.968 167.747 133.659 168.51C133.35 169.273 132.845 169.894 132.144 170.374C131.44 170.833 130.583 171.144 129.572 171.307ZM147.123 168.481C146.407 168.596 145.743 168.498 145.131 168.186C144.515 167.853 143.999 167.396 143.581 166.815C143.16 166.213 142.892 165.554 142.776 164.838C142.593 163.7 142.628 162.711 142.882 161.871C143.136 161.031 143.547 160.295 144.115 159.663C144.701 159.007 145.393 158.409 146.192 157.87C147.012 157.327 147.876 156.789 148.784 156.253L148.576 154.958C148.457 154.221 148.316 153.617 148.154 153.146C147.992 152.675 147.755 152.346 147.444 152.158C147.151 151.946 146.741 151.883 146.214 151.967C145.751 152.042 145.389 152.208 145.128 152.467C144.888 152.721 144.737 153.059 144.675 153.479C144.609 153.879 144.619 154.342 144.704 154.868L144.852 155.785L141.482 156.197C141.199 154.169 141.423 152.609 142.155 151.519C142.884 150.408 144.175 149.703 146.028 149.404C147.84 149.113 149.204 149.401 150.122 150.269C151.039 151.136 151.649 152.508 151.951 154.382L153.294 162.723C153.385 163.291 153.484 163.837 153.59 164.36C153.717 164.88 153.839 165.368 153.955 165.825C154.09 166.257 154.21 166.67 154.317 167.063L151.221 167.562C151.103 167.235 150.951 166.827 150.765 166.339C150.596 165.826 150.456 165.362 150.346 164.948C150.251 165.698 149.949 166.438 149.44 167.168C148.948 167.874 148.176 168.311 147.123 168.481ZM147.982 165.361C148.319 165.306 148.619 165.161 148.884 164.924C149.148 164.687 149.377 164.434 149.572 164.165C149.763 163.875 149.889 163.649 149.949 163.488L149.115 158.307C148.636 158.687 148.188 159.061 147.772 159.431C147.356 159.8 146.997 160.182 146.693 160.577C146.407 160.947 146.192 161.36 146.049 161.815C145.924 162.246 145.904 162.724 145.989 163.251C146.108 163.988 146.338 164.545 146.679 164.922C147.021 165.299 147.455 165.446 147.982 165.361ZM161.535 166.16C159.997 166.408 158.76 166.035 157.822 165.04C156.88 164.025 156.193 162.17 155.758 159.474L155.189 155.935C154.965 154.545 154.874 153.242 154.916 152.025C154.954 150.787 155.231 149.759 155.748 148.941C156.286 148.12 157.176 147.609 158.418 147.409C159.029 147.311 159.609 147.358 160.159 147.55C160.709 147.743 161.216 148.007 161.68 148.343L160.312 139.844L163.692 139.3L167.813 164.89L164.432 165.434L164.244 164.266C163.912 164.751 163.525 165.17 163.085 165.522C162.662 165.849 162.146 166.062 161.535 166.16ZM161.961 163.369C162.277 163.318 162.605 163.211 162.946 163.048C163.284 162.864 163.613 162.628 163.934 162.338L162.006 150.365C161.677 150.201 161.322 150.075 160.94 149.985C160.555 149.874 160.152 149.853 159.73 149.921C158.951 150.046 158.486 150.51 158.334 151.312C158.179 152.094 158.186 153.011 158.355 154.064L159.185 159.214C159.32 160.056 159.486 160.818 159.682 161.5C159.896 162.157 160.183 162.661 160.542 163.014C160.898 163.346 161.371 163.464 161.961 163.369ZM173.9 164.169C173.184 164.285 172.595 164.185 172.134 163.87C171.673 163.556 171.312 163.127 171.052 162.586C170.813 162.041 170.646 161.474 170.551 160.884L168.17 146.098L171.551 145.554L173.769 159.329C173.874 159.982 174.052 160.482 174.302 160.831C174.55 161.158 174.968 161.275 175.558 161.18C175.937 161.119 176.31 160.951 176.676 160.676C177.06 160.376 177.416 160.038 177.744 159.661L175.373 144.938L178.754 144.394L181.694 162.655L178.314 163.199L178.024 161.398C177.526 162.062 176.93 162.655 176.236 163.177C175.563 163.696 174.785 164.027 173.9 164.169ZM185.467 162.047L181.347 136.457L184.727 135.913L188.848 161.503L185.467 162.047ZM197.277 160.405C196.329 160.558 195.532 160.502 194.884 160.239C194.258 159.973 193.755 159.535 193.376 158.926C193.018 158.314 192.768 157.566 192.626 156.681L190.708 144.771L188.781 145.081L188.42 142.838L190.347 142.527L189.487 137.188L192.868 136.644L193.727 141.983L196.665 141.51L197.027 143.753L194.088 144.226L195.971 155.916C196.086 156.632 196.285 157.129 196.568 157.408C196.847 157.665 197.313 157.742 197.966 157.636C198.134 157.609 198.322 157.568 198.529 157.513C198.758 157.455 198.975 157.398 199.183 157.343L199.584 159.839C199.173 159.97 198.79 160.075 198.436 160.154C198.085 160.253 197.698 160.337 197.277 160.405ZM207.185 158.81C205.753 159.04 204.603 158.944 203.736 158.522C202.865 158.079 202.185 157.346 201.696 156.323C201.225 155.275 200.862 153.961 200.608 152.382L199.936 148.211C199.675 146.589 199.616 145.216 199.759 144.091C199.902 142.966 200.319 142.067 201.01 141.394C201.722 140.717 202.773 140.267 204.163 140.043C205.701 139.796 206.879 139.93 207.696 140.447C208.535 140.96 209.167 141.798 209.592 142.961C210.014 144.104 210.359 145.507 210.627 147.171L210.866 148.655L203.662 149.815L204.253 153.48C204.371 154.217 204.531 154.807 204.732 155.25C204.954 155.69 205.231 156.002 205.563 156.186C205.913 156.346 206.33 156.387 206.815 156.309C207.32 156.227 207.681 156.05 207.896 155.778C208.129 155.481 208.252 155.105 208.265 154.649C208.296 154.169 208.262 153.623 208.164 153.012L207.986 151.907L211.272 151.377L211.384 152.073C211.679 153.905 211.521 155.41 210.912 156.589C210.302 157.768 209.06 158.508 207.185 158.81ZM203.367 147.983L207.253 147.357L206.989 145.714C206.867 144.956 206.723 144.331 206.557 143.839C206.388 143.326 206.146 142.965 205.832 142.757C205.535 142.523 205.102 142.453 204.534 142.544C203.986 142.632 203.585 142.827 203.331 143.127C203.098 143.424 202.978 143.886 202.971 144.514C202.961 145.12 203.04 145.95 203.21 147.003L203.367 147.983ZM219.661 156.801C218.166 157.042 216.891 156.771 215.836 155.991C214.777 155.189 214.061 154.029 213.687 152.512L216.362 151.206C216.717 152.337 217.142 153.166 217.637 153.691C218.129 154.195 218.764 154.385 219.544 154.259C220.154 154.161 220.591 153.918 220.852 153.53C221.111 153.121 221.192 152.621 221.097 152.032C221.013 151.505 220.82 151.05 220.521 150.666C220.221 150.282 219.773 149.911 219.175 149.554L215.615 147.372C214.895 146.926 214.259 146.402 213.709 145.799C213.179 145.193 212.827 144.353 212.654 143.279C212.498 142.31 212.557 141.468 212.831 140.754C213.123 140.016 213.589 139.422 214.23 138.973C214.889 138.5 215.692 138.187 216.639 138.034C218.156 137.79 219.391 138.078 220.344 138.897C221.293 139.694 221.938 140.747 222.278 142.053L220.014 143.293C219.828 142.675 219.614 142.147 219.371 141.711C219.124 141.254 218.823 140.924 218.466 140.722C218.106 140.499 217.673 140.429 217.168 140.51C216.62 140.598 216.208 140.859 215.932 141.292C215.674 141.701 215.586 142.158 215.667 142.664C215.718 142.98 215.832 143.286 216.009 143.581C216.204 143.852 216.494 144.108 216.878 144.349L220.579 146.8C221.086 147.129 221.566 147.494 222.02 147.897C222.494 148.295 222.906 148.769 223.253 149.318C223.601 149.868 223.838 150.532 223.963 151.311C224.129 152.343 224.058 153.24 223.748 154.003C223.439 154.766 222.934 155.388 222.234 155.868C221.53 156.327 220.672 156.638 219.661 156.801ZM239.519 153.603C238.086 153.834 236.937 153.738 236.069 153.316C235.198 152.873 234.518 152.14 234.029 151.116C233.558 150.068 233.195 148.755 232.941 147.175L232.27 143.005C232.008 141.383 231.949 140.01 232.092 138.885C232.235 137.76 232.652 136.861 233.343 136.187C234.056 135.511 235.107 135.061 236.497 134.837C238.034 134.589 239.212 134.724 240.03 135.24C240.869 135.754 241.501 136.592 241.926 137.755C242.347 138.897 242.692 140.3 242.96 141.964L243.199 143.449L235.996 144.609L236.586 148.274C236.705 149.011 236.865 149.601 237.066 150.044C237.288 150.484 237.565 150.795 237.897 150.98C238.247 151.139 238.664 151.18 239.148 151.102C239.654 151.021 240.014 150.844 240.23 150.572C240.463 150.275 240.586 149.898 240.599 149.443C240.63 148.962 240.596 148.417 240.497 147.806L240.319 146.7L243.605 146.171L243.717 146.866C244.012 148.699 243.855 150.204 243.245 151.383C242.635 152.561 241.393 153.301 239.519 153.603ZM235.701 142.776L239.587 142.151L239.322 140.508C239.2 139.75 239.056 139.125 238.891 138.633C238.722 138.12 238.48 137.759 238.165 137.55C237.869 137.317 237.436 137.246 236.867 137.338C236.32 137.426 235.919 137.62 235.665 137.92C235.431 138.217 235.311 138.68 235.304 139.307C235.294 139.914 235.374 140.744 235.543 141.797L235.701 142.776ZM247.721 152.023L244.78 133.762L248.161 133.218L248.451 135.019C248.97 134.352 249.566 133.759 250.239 133.24C250.911 132.721 251.69 132.391 252.575 132.248C253.312 132.129 253.9 132.229 254.341 132.547C254.802 132.862 255.152 133.292 255.391 133.837C255.651 134.378 255.828 134.944 255.923 135.533L258.304 150.319L254.924 150.863L252.701 137.057C252.596 136.404 252.419 135.914 252.172 135.587C251.925 135.259 251.506 135.143 250.917 135.238C250.538 135.299 250.156 135.479 249.772 135.779C249.406 136.054 249.059 136.38 248.73 136.757L251.101 151.479L247.721 152.023ZM273.856 148.074C272.361 148.315 271.176 148.203 270.302 147.739C269.445 147.25 268.792 146.48 268.342 145.429C267.912 144.375 267.581 143.121 267.347 141.667L266.67 137.466C266.423 135.928 266.349 134.6 266.45 133.482C266.548 132.343 266.93 131.428 267.596 130.737C268.281 130.022 269.36 129.545 270.834 129.308C272.161 129.094 273.218 129.151 274.006 129.478C274.811 129.78 275.42 130.341 275.832 131.161C276.242 131.959 276.548 132.99 276.752 134.254L276.925 135.328L273.86 135.822L273.682 134.716C273.553 133.916 273.399 133.292 273.219 132.846C273.039 132.399 272.795 132.093 272.488 131.926C272.18 131.76 271.773 131.717 271.268 131.799C270.72 131.887 270.319 132.081 270.065 132.381C269.811 132.681 269.68 133.145 269.673 133.773C269.684 134.377 269.773 135.194 269.939 136.226L270.865 141.976C271.116 143.535 271.431 144.554 271.811 145.033C272.19 145.512 272.759 145.69 273.517 145.568C274.086 145.477 274.476 145.284 274.688 144.991C274.918 144.673 275.026 144.266 275.011 143.772C275.017 143.274 274.971 142.719 274.873 142.109L274.634 140.624L277.698 140.13L277.902 141.394C278.098 142.616 278.12 143.693 277.968 144.625C277.837 145.553 277.44 146.309 276.777 146.891C276.136 147.469 275.162 147.864 273.856 148.074ZM284.602 146.344C283.886 146.459 283.222 146.361 282.61 146.049C281.994 145.716 281.478 145.259 281.06 144.678C280.639 144.076 280.371 143.417 280.255 142.7C280.072 141.563 280.108 140.574 280.361 139.734C280.615 138.894 281.026 138.158 281.594 137.526C282.18 136.87 282.872 136.272 283.671 135.733C284.491 135.19 285.355 134.651 286.263 134.116L286.055 132.821C285.936 132.084 285.795 131.48 285.633 131.009C285.471 130.538 285.234 130.209 284.923 130.021C284.63 129.809 284.22 129.746 283.693 129.83C283.23 129.905 282.868 130.071 282.607 130.329C282.367 130.584 282.216 130.922 282.154 131.342C282.089 131.742 282.098 132.205 282.183 132.731L282.331 133.647L278.961 134.06C278.678 132.032 278.902 130.472 279.634 129.382C280.363 128.271 281.654 127.566 283.507 127.267C285.319 126.976 286.683 127.264 287.601 128.131C288.518 128.999 289.128 130.37 289.43 132.245L290.773 140.586C290.865 141.154 290.963 141.7 291.069 142.223C291.196 142.743 291.318 143.231 291.435 143.688C291.569 144.12 291.689 144.533 291.796 144.926L288.7 145.425C288.582 145.098 288.43 144.69 288.244 144.202C288.075 143.689 287.935 143.225 287.825 142.81C287.73 143.561 287.428 144.301 286.919 145.031C286.427 145.737 285.655 146.174 284.602 146.344ZM285.461 143.224C285.798 143.169 286.098 143.024 286.363 142.787C286.627 142.55 286.857 142.297 287.051 142.028C287.242 141.738 287.368 141.512 287.428 141.351L286.594 136.17C286.115 136.549 285.667 136.924 285.251 137.293C284.836 137.663 284.476 138.045 284.172 138.44C283.886 138.81 283.671 139.223 283.529 139.678C283.403 140.108 283.383 140.587 283.468 141.114C283.587 141.851 283.817 142.408 284.159 142.785C284.5 143.162 284.934 143.308 285.461 143.224ZM299.014 144.023C297.519 144.264 296.244 143.994 295.189 143.213C294.13 142.411 293.414 141.251 293.04 139.734L295.715 138.429C296.07 139.56 296.495 140.388 296.99 140.913C297.482 141.418 298.117 141.607 298.897 141.482C299.507 141.383 299.944 141.14 300.205 140.752C300.463 140.343 300.545 139.844 300.45 139.254C300.365 138.728 300.173 138.272 299.874 137.888C299.574 137.505 299.126 137.134 298.528 136.776L294.968 134.595C294.248 134.149 293.612 133.624 293.061 133.022C292.532 132.415 292.18 131.575 292.007 130.501C291.851 129.532 291.91 128.691 292.184 127.977C292.476 127.238 292.942 126.645 293.583 126.196C294.241 125.723 295.044 125.41 295.992 125.257C297.509 125.013 298.743 125.3 299.696 126.119C300.646 126.917 301.291 127.969 301.631 129.276L299.367 130.515C299.181 129.897 298.967 129.37 298.723 128.933C298.477 128.476 298.175 128.147 297.819 127.945C297.459 127.722 297.026 127.651 296.521 127.732C295.973 127.821 295.561 128.081 295.285 128.515C295.027 128.924 294.938 129.381 295.02 129.886C295.071 130.202 295.185 130.508 295.362 130.804C295.557 131.075 295.847 131.331 296.231 131.571L299.932 134.022C300.439 134.351 300.919 134.717 301.373 135.119C301.847 135.518 302.259 135.992 302.606 136.541C302.954 137.09 303.191 137.754 303.316 138.533C303.482 139.565 303.411 140.463 303.101 141.226C302.792 141.989 302.287 142.61 301.586 143.09C300.883 143.549 300.025 143.86 299.014 144.023ZM318.05 140.958C316.513 141.206 315.275 140.832 314.337 139.838C313.395 138.823 312.708 136.967 312.274 134.271L311.704 130.733C311.48 129.343 311.389 128.039 311.431 126.822C311.469 125.585 311.747 124.557 312.263 123.739C312.801 122.918 313.691 122.407 314.934 122.207C315.544 122.109 316.125 122.156 316.674 122.348C317.224 122.54 317.731 122.805 318.195 123.14L316.827 114.642L320.207 114.097L324.328 139.688L320.948 140.232L320.759 139.063C320.427 139.549 320.041 139.968 319.6 140.319C319.178 140.647 318.661 140.86 318.05 140.958ZM318.476 138.167C318.792 138.116 319.12 138.009 319.461 137.846C319.799 137.662 320.128 137.425 320.449 137.136L318.521 125.162C318.192 124.999 317.837 124.873 317.455 124.783C317.07 124.672 316.667 124.65 316.245 124.718C315.466 124.844 315.001 125.308 314.849 126.11C314.694 126.891 314.701 127.808 314.871 128.862L315.7 134.011C315.836 134.854 316.001 135.616 316.198 136.297C316.411 136.954 316.698 137.459 317.057 137.812C317.413 138.143 317.886 138.262 318.476 138.167ZM332.848 138.575C331.416 138.806 330.266 138.71 329.398 138.288C328.527 137.845 327.847 137.112 327.359 136.088C326.887 135.04 326.525 133.727 326.27 132.147L325.599 127.977C325.338 126.355 325.278 124.982 325.421 123.857C325.564 122.732 325.981 121.833 326.673 121.159C327.385 120.483 328.436 120.033 329.826 119.809C331.363 119.561 332.541 119.696 333.359 120.212C334.198 120.726 334.83 121.564 335.255 122.727C335.677 123.869 336.021 125.272 336.289 126.936L336.528 128.421L329.325 129.581L329.915 133.246C330.034 133.983 330.194 134.573 330.395 135.016C330.617 135.456 330.894 135.767 331.226 135.952C331.576 136.111 331.993 136.152 332.477 136.074C332.983 135.993 333.343 135.816 333.559 135.544C333.792 135.247 333.915 134.87 333.928 134.415C333.959 133.934 333.925 133.389 333.827 132.778L333.649 131.672L336.934 131.143L337.046 131.838C337.341 133.67 337.184 135.176 336.574 136.355C335.964 137.533 334.722 138.273 332.848 138.575ZM329.03 127.748L332.916 127.123L332.651 125.48C332.529 124.722 332.385 124.097 332.22 123.605C332.051 123.092 331.809 122.731 331.495 122.522C331.198 122.289 330.765 122.218 330.196 122.31C329.649 122.398 329.248 122.592 328.994 122.892C328.76 123.189 328.64 123.652 328.633 124.279C328.623 124.886 328.703 125.716 328.872 126.769L329.03 127.748ZM83.6524 209.088C82.157 209.328 80.9722 209.217 80.0979 208.752C79.2413 208.264 78.588 207.494 78.1378 206.443C77.7087 205.388 77.3772 204.134 77.1431 202.681L76.4666 198.479C76.219 196.941 76.1456 195.614 76.2465 194.495C76.3439 193.356 76.726 192.441 77.3926 191.75C78.077 191.035 79.1563 190.559 80.6306 190.321C81.9576 190.108 83.0147 190.164 83.802 190.491C84.607 190.794 85.2159 191.355 85.6288 192.174C86.0382 192.973 86.3447 194.004 86.5482 195.267L86.7212 196.342L83.6566 196.835L83.4786 195.729C83.3497 194.929 83.1953 194.306 83.0154 193.859C82.8355 193.413 82.5917 193.106 82.2839 192.94C81.9762 192.773 81.5696 192.731 81.0641 192.812C80.5165 192.9 80.1156 193.094 79.8614 193.395C79.6073 193.695 79.4767 194.159 79.4698 194.787C79.4805 195.39 79.5689 196.208 79.7351 197.24L80.661 202.99C80.9119 204.548 81.2272 205.567 81.6069 206.046C81.9865 206.525 82.5555 206.704 83.3137 206.582C83.8824 206.49 84.2728 206.297 84.4848 206.004C84.7145 205.686 84.822 205.28 84.8072 204.785C84.8134 204.287 84.7673 203.733 84.669 203.122L84.4299 201.637L87.4944 201.144L87.6979 202.407C87.8946 203.629 87.9168 204.706 87.7643 205.638C87.633 206.567 87.236 207.322 86.5734 207.904C85.9319 208.483 84.9583 208.877 83.6524 209.088ZM94.3983 207.357C93.6821 207.473 93.0181 207.374 92.406 207.062C91.7906 206.729 91.274 206.272 90.8563 205.691C90.4353 205.089 90.1671 204.43 90.0518 203.714C89.8686 202.577 89.9039 201.588 90.1575 200.747C90.4112 199.907 90.822 199.171 91.3902 198.539C91.976 197.883 92.6684 197.285 93.4675 196.746C94.2877 196.204 95.1517 195.665 96.0595 195.13L95.8509 193.834C95.7322 193.097 95.5918 192.493 95.4295 192.022C95.2673 191.551 95.0306 191.222 94.7195 191.035C94.426 190.823 94.016 190.759 93.4895 190.844C93.0261 190.918 92.6639 191.085 92.403 191.343C92.1631 191.597 92.0122 191.935 91.9503 192.356C91.8849 192.755 91.8947 193.218 91.9794 193.745L92.127 194.661L88.7578 195.074C88.4743 193.045 88.6986 191.485 89.4306 190.395C90.1592 189.284 91.4502 188.579 93.3037 188.281C95.115 187.989 96.4795 188.277 97.3971 189.145C98.3147 190.013 98.9245 191.384 99.2263 193.258L100.569 201.599C100.661 202.168 100.76 202.714 100.865 203.237C100.992 203.756 101.114 204.245 101.231 204.701C101.365 205.133 101.486 205.546 101.592 205.94L98.4962 206.438C98.3788 206.111 98.2267 205.704 98.04 205.215C97.871 204.702 97.7315 204.238 97.6215 203.824C97.5262 204.574 97.224 205.314 96.715 206.044C96.2236 206.75 95.4514 207.188 94.3983 207.357ZM95.2571 204.237C95.5941 204.183 95.8948 204.037 96.1592 203.8C96.4235 203.563 96.6529 203.31 96.8472 203.041C97.0382 202.751 97.164 202.525 97.2245 202.364L96.3902 197.183C95.9111 197.563 95.4636 197.937 95.0477 198.307C94.6319 198.676 94.272 199.058 93.9682 199.453C93.6821 199.823 93.4677 200.236 93.3249 200.691C93.1997 201.122 93.1796 201.6 93.2644 202.127C93.3831 202.864 93.6132 203.421 93.9549 203.798C94.2965 204.176 94.7306 204.322 95.2571 204.237ZM109.411 204.94C108.464 205.092 107.666 205.037 107.019 204.774C106.392 204.508 105.89 204.07 105.511 203.461C105.153 202.849 104.903 202.1 104.76 201.216L102.842 189.305L100.915 189.616L100.554 187.372L102.481 187.062L101.621 181.723L105.002 181.179L105.862 186.518L108.8 186.045L109.161 188.288L106.223 188.761L108.105 200.45C108.22 201.166 108.419 201.664 108.702 201.942C108.981 202.2 109.447 202.276 110.1 202.171C110.268 202.144 110.456 202.103 110.664 202.048C110.892 201.99 111.11 201.933 111.317 201.878L111.719 204.374C111.308 204.505 110.925 204.61 110.57 204.688C110.219 204.788 109.833 204.872 109.411 204.94ZM117.013 203.716C116.297 203.831 115.633 203.733 115.021 203.421C114.406 203.088 113.889 202.631 113.471 202.05C113.05 201.448 112.782 200.788 112.667 200.072C112.484 198.935 112.519 197.946 112.772 197.106C113.026 196.265 113.437 195.529 114.005 194.898C114.591 194.242 115.283 193.644 116.082 193.105C116.903 192.562 117.767 192.023 118.674 191.488L118.466 190.193C118.347 189.456 118.207 188.852 118.044 188.381C117.882 187.91 117.646 187.581 117.334 187.393C117.041 187.181 116.631 187.117 116.104 187.202C115.641 187.277 115.279 187.443 115.018 187.701C114.778 187.956 114.627 188.294 114.565 188.714C114.5 189.114 114.51 189.577 114.594 190.103L114.742 191.019L111.373 191.432C111.089 189.403 111.314 187.844 112.046 186.754C112.774 185.642 114.065 184.938 115.919 184.639C117.73 184.347 119.094 184.636 120.012 185.503C120.93 186.371 121.539 187.742 121.841 189.617L123.184 197.957C123.276 198.526 123.375 199.072 123.48 199.595C123.607 200.115 123.729 200.603 123.846 201.06C123.98 201.492 124.101 201.905 124.207 202.298L121.111 202.797C120.994 202.47 120.842 202.062 120.655 201.574C120.486 201.061 120.346 200.597 120.236 200.182C120.141 200.932 119.839 201.673 119.33 202.403C118.839 203.108 118.066 203.546 117.013 203.716ZM117.872 200.596C118.209 200.541 118.51 200.396 118.774 200.159C119.038 199.922 119.268 199.668 119.462 199.4C119.653 199.109 119.779 198.884 119.839 198.723L119.005 193.542C118.526 193.921 118.079 194.296 117.663 194.665C117.247 195.035 116.887 195.417 116.583 195.812C116.297 196.182 116.083 196.594 115.94 197.05C115.815 197.48 115.795 197.959 115.879 198.485C115.998 199.223 116.228 199.78 116.57 200.157C116.911 200.534 117.346 200.68 117.872 200.596ZM131.425 201.395C129.93 201.636 128.655 201.366 127.6 200.585C126.542 199.783 125.825 198.623 125.452 197.106L128.126 195.8C128.481 196.932 128.906 197.76 129.401 198.285C129.893 198.79 130.528 198.979 131.308 198.853C131.919 198.755 132.355 198.512 132.616 198.124C132.875 197.715 132.956 197.216 132.861 196.626C132.777 196.1 132.584 195.644 132.285 195.26C131.985 194.876 131.537 194.506 130.939 194.148L127.379 191.966C126.659 191.521 126.023 190.996 125.473 190.393C124.943 189.787 124.592 188.947 124.419 187.873C124.263 186.904 124.322 186.063 124.596 185.349C124.887 184.61 125.353 184.017 125.994 183.568C126.653 183.094 127.456 182.781 128.404 182.629C129.92 182.385 131.155 182.672 132.108 183.491C133.057 184.289 133.702 185.341 134.042 186.648L131.778 187.887C131.592 187.269 131.378 186.742 131.135 186.305C130.888 185.848 130.587 185.518 130.23 185.317C129.87 185.094 129.437 185.023 128.932 185.104C128.384 185.192 127.972 185.453 127.696 185.887C127.438 186.296 127.35 186.753 127.431 187.258C127.482 187.574 127.596 187.88 127.773 188.176C127.968 188.447 128.258 188.703 128.642 188.943L132.343 191.394C132.85 191.723 133.33 192.089 133.784 192.491C134.259 192.89 134.67 193.364 135.018 193.913C135.365 194.462 135.602 195.126 135.727 195.905C135.893 196.937 135.822 197.835 135.513 198.598C135.203 199.361 134.698 199.982 133.998 200.462C133.294 200.921 132.436 201.232 131.425 201.395ZM143.874 199.391C142.926 199.543 142.128 199.488 141.481 199.225C140.855 198.958 140.352 198.521 139.973 197.912C139.615 197.3 139.365 196.551 139.223 195.667L137.305 183.756L135.378 184.066L135.016 181.823L136.943 181.513L136.084 176.174L139.464 175.629L140.324 180.969L143.262 180.496L143.623 182.739L140.685 183.212L142.567 194.901C142.683 195.617 142.882 196.115 143.164 196.393C143.443 196.651 143.909 196.727 144.562 196.622C144.731 196.595 144.919 196.554 145.126 196.499C145.354 196.44 145.572 196.384 145.779 196.329L146.181 198.825C145.77 198.956 145.387 199.06 145.032 199.139C144.681 199.239 144.295 199.323 143.874 199.391ZM148.781 198.341L145.841 180.08L149.221 179.536L149.638 182.127C150.132 180.902 150.686 180.046 151.299 179.558C151.912 179.07 152.555 178.772 153.229 178.664C153.314 178.65 153.387 178.638 153.451 178.628C153.535 178.615 153.642 178.608 153.772 178.609L154.372 182.337C154.102 182.272 153.794 182.235 153.447 182.226C153.117 182.193 152.784 182.204 152.447 182.258C151.92 182.343 151.456 182.547 151.055 182.871C150.671 183.17 150.324 183.702 150.015 184.465L152.161 197.797L148.781 198.341ZM163.808 196.181C162.46 196.398 161.352 196.295 160.485 195.873C159.618 195.451 158.934 194.762 158.434 193.805C157.955 192.845 157.606 191.68 157.385 190.311L156.531 185.003C156.31 183.634 156.277 182.419 156.43 181.357C156.604 180.292 157.037 179.423 157.728 178.75C158.419 178.077 159.438 177.631 160.786 177.414C162.134 177.197 163.232 177.302 164.078 177.727C164.945 178.149 165.619 178.84 166.097 179.8C166.597 180.757 166.957 181.92 167.178 183.289L168.032 188.597C168.253 189.966 168.276 191.183 168.102 192.248C167.948 193.31 167.526 194.177 166.835 194.851C166.165 195.52 165.156 195.964 163.808 196.181ZM163.406 193.685C164.059 193.58 164.482 193.317 164.673 192.897C164.886 192.474 164.964 191.954 164.908 191.336C164.869 190.694 164.796 190.036 164.687 189.362L163.767 183.644C163.655 182.949 163.518 182.301 163.356 181.7C163.216 181.096 162.978 180.627 162.643 180.292C162.326 179.932 161.841 179.805 161.188 179.91C160.535 180.015 160.104 180.29 159.895 180.734C159.682 181.158 159.593 181.68 159.628 182.301C159.685 182.918 159.769 183.575 159.881 184.27L160.801 189.988C160.91 190.662 161.036 191.311 161.18 191.937C161.342 192.537 161.59 193.005 161.925 193.34C162.259 193.675 162.753 193.79 163.406 193.685ZM173.132 200.578L169.225 176.315L172.605 175.771L172.839 177.224C173.165 176.696 173.585 176.218 174.099 175.789C174.614 175.361 175.26 175.084 176.04 174.958C176.987 174.806 177.776 174.938 178.405 175.355C179.052 175.748 179.573 176.302 179.969 177.016C180.361 177.709 180.662 178.438 180.872 179.204C181.078 179.949 181.226 180.595 181.314 181.143L182.026 185.566C182.233 186.85 182.303 188.092 182.237 189.291C182.167 190.469 181.853 191.471 181.295 192.295C180.754 193.096 179.883 193.592 178.682 193.786C178.029 193.891 177.425 193.826 176.868 193.592C176.309 193.336 175.795 193.03 175.327 192.673L176.512 200.034L173.132 200.578ZM177.592 191.239C178.181 191.144 178.569 190.865 178.754 190.403C178.935 189.92 178.998 189.305 178.943 188.558C178.887 187.81 178.788 186.994 178.646 186.11L177.933 181.687C177.811 180.929 177.657 180.24 177.471 179.622C177.282 178.983 177.02 178.495 176.685 178.16C176.35 177.825 175.888 177.705 175.298 177.8C174.856 177.872 174.45 178.034 174.08 178.288C173.71 178.542 173.399 178.819 173.144 179.12L175.027 190.809C175.38 190.99 175.77 191.132 176.197 191.236C176.621 191.319 177.086 191.32 177.592 191.239ZM186.359 192.29L182.239 166.7L185.619 166.155L187.105 175.381C187.621 174.693 188.224 174.077 188.914 173.533C189.605 172.99 190.413 172.644 191.34 172.495C192.056 172.379 192.634 172.481 193.074 172.799C193.535 173.113 193.886 173.543 194.125 174.088C194.385 174.63 194.562 175.195 194.657 175.785L197.038 190.571L193.657 191.115L191.434 177.309C191.329 176.656 191.153 176.166 190.906 175.838C190.659 175.511 190.24 175.394 189.65 175.489C189.25 175.554 188.848 175.737 188.443 176.04C188.059 176.34 187.704 176.689 187.379 177.087L189.74 191.746L186.359 192.29ZM205.429 189.479C203.997 189.709 202.847 189.614 201.98 189.192C201.109 188.748 200.429 188.015 199.94 186.992C199.469 185.944 199.106 184.63 198.852 183.051L198.18 178.88C197.919 177.259 197.86 175.885 198.003 174.76C198.146 173.635 198.563 172.736 199.254 172.063C199.966 171.387 201.017 170.936 202.407 170.713C203.945 170.465 205.122 170.599 205.94 171.116C206.779 171.629 207.411 172.467 207.836 173.631C208.258 174.773 208.603 176.176 208.871 177.84L209.11 179.325L201.906 180.484L202.497 184.149C202.615 184.886 202.775 185.477 202.976 185.92C203.198 186.359 203.475 186.671 203.807 186.855C204.157 187.015 204.574 187.056 205.059 186.978C205.564 186.896 205.925 186.72 206.14 186.447C206.373 186.15 206.496 185.774 206.509 185.318C206.54 184.838 206.506 184.292 206.408 183.681L206.23 182.576L209.516 182.047L209.627 182.742C209.922 184.574 209.765 186.08 209.155 187.258C208.546 188.437 207.304 189.177 205.429 189.479ZM201.611 178.652L205.497 178.026L205.233 176.384C205.111 175.625 204.967 175 204.801 174.508C204.632 173.995 204.39 173.634 204.076 173.426C203.779 173.193 203.346 173.122 202.778 173.213C202.23 173.302 201.829 173.496 201.575 173.796C201.342 174.093 201.222 174.555 201.215 175.183C201.204 175.79 201.284 176.62 201.454 177.673L201.611 178.652ZM220.85 186.736L217.91 168.476L221.291 167.931L221.58 169.732C222.1 169.065 222.696 168.472 223.368 167.953C224.041 167.434 224.82 167.104 225.704 166.961C226.442 166.843 227.03 166.942 227.47 167.26C227.932 167.575 228.282 168.005 228.521 168.55C228.781 169.091 228.958 169.657 229.053 170.247L231.434 185.032L228.054 185.576L225.831 171.77C225.725 171.117 225.549 170.627 225.302 170.3C225.055 169.972 224.636 169.856 224.047 169.951C223.668 170.012 223.286 170.192 222.902 170.492C222.536 170.767 222.189 171.093 221.86 171.47L224.231 186.192L220.85 186.736ZM237.523 184.311C236.807 184.426 236.143 184.328 235.531 184.016C234.916 183.683 234.399 183.226 233.981 182.645C233.56 182.043 233.292 181.384 233.177 180.668C232.994 179.53 233.029 178.541 233.283 177.701C233.536 176.861 233.947 176.125 234.515 175.493C235.101 174.837 235.794 174.239 236.593 173.7C237.413 173.157 238.277 172.618 239.185 172.083L238.976 170.788C238.857 170.051 238.717 169.447 238.555 168.976C238.392 168.505 238.156 168.176 237.845 167.988C237.551 167.776 237.141 167.713 236.615 167.797C236.151 167.872 235.789 168.038 235.528 168.296C235.288 168.551 235.137 168.889 235.075 169.309C235.01 169.709 235.02 170.172 235.105 170.698L235.252 171.615L231.883 172.027C231.599 169.999 231.824 168.439 232.556 167.349C233.284 166.238 234.575 165.533 236.429 165.234C238.24 164.943 239.605 165.231 240.522 166.099C241.44 166.966 242.05 168.338 242.351 170.212L243.694 178.553C243.786 179.121 243.885 179.667 243.991 180.19C244.118 180.71 244.239 181.198 244.356 181.655C244.49 182.087 244.611 182.5 244.718 182.893L241.621 183.392C241.504 183.065 241.352 182.657 241.165 182.169C240.996 181.656 240.857 181.192 240.747 180.778C240.651 181.528 240.349 182.268 239.84 182.998C239.349 183.704 238.577 184.141 237.523 184.311ZM238.382 181.191C238.719 181.136 239.02 180.991 239.284 180.754C239.549 180.517 239.778 180.264 239.972 179.995C240.163 179.705 240.289 179.479 240.35 179.318L239.515 174.137C239.036 174.517 238.589 174.891 238.173 175.261C237.757 175.63 237.397 176.012 237.093 176.407C236.807 176.777 236.593 177.19 236.45 177.645C236.325 178.076 236.305 178.554 236.39 179.081C236.508 179.818 236.738 180.375 237.08 180.752C237.422 181.129 237.856 181.276 238.382 181.191ZM252.537 181.894C251.589 182.046 250.791 181.991 250.144 181.728C249.517 181.461 249.015 181.024 248.636 180.415C248.278 179.803 248.028 179.054 247.885 178.17L245.967 166.259L244.04 166.569L243.679 164.326L245.606 164.016L244.747 158.677L248.127 158.132L248.987 163.472L251.925 162.998L252.286 165.242L249.348 165.715L251.23 177.404C251.346 178.12 251.544 178.618 251.827 178.896C252.106 179.154 252.572 179.23 253.225 179.125C253.394 179.098 253.581 179.057 253.789 179.002C254.017 178.943 254.235 178.887 254.442 178.832L254.844 181.327C254.433 181.459 254.05 181.563 253.695 181.642C253.344 181.742 252.958 181.826 252.537 181.894ZM260.012 180.69C259.296 180.805 258.707 180.705 258.246 180.391C257.785 180.076 257.424 179.648 257.164 179.106C256.925 178.561 256.758 177.994 256.663 177.404L254.282 162.619L257.663 162.075L259.881 175.849C259.986 176.502 260.164 177.003 260.414 177.351C260.662 177.679 261.08 177.795 261.67 177.7C262.049 177.639 262.422 177.471 262.788 177.196C263.172 176.897 263.528 176.558 263.856 176.181L261.486 161.459L264.866 160.915L267.806 179.175L264.426 179.72L264.136 177.919C263.638 178.583 263.042 179.176 262.348 179.698C261.675 180.217 260.897 180.547 260.012 180.69ZM271.358 178.603L268.418 160.343L271.798 159.798L272.216 162.389C272.71 161.164 273.263 160.308 273.876 159.82C274.489 159.333 275.133 159.035 275.807 158.926C275.891 158.912 275.965 158.901 276.028 158.89C276.112 158.877 276.219 158.87 276.349 158.871L276.949 162.599C276.679 162.535 276.371 162.498 276.024 162.489C275.694 162.455 275.361 162.466 275.024 162.52C274.498 162.605 274.034 162.809 273.632 163.133C273.248 163.433 272.901 163.964 272.592 164.727L274.739 178.059L271.358 178.603ZM286.417 176.438C284.985 176.669 283.835 176.573 282.968 176.151C282.097 175.708 281.417 174.974 280.928 173.951C280.457 172.903 280.094 171.59 279.84 170.01L279.168 165.84C278.907 164.218 278.848 162.844 278.991 161.719C279.134 160.594 279.551 159.695 280.242 159.022C280.954 158.346 282.005 157.896 283.395 157.672C284.933 157.424 286.111 157.559 286.928 158.075C287.767 158.588 288.399 159.427 288.824 160.59C289.246 161.732 289.591 163.135 289.859 164.799L290.098 166.284L282.894 167.444L283.485 171.108C283.603 171.846 283.763 172.436 283.964 172.879C284.186 173.318 284.463 173.63 284.795 173.814C285.145 173.974 285.562 174.015 286.047 173.937C286.552 173.856 286.913 173.679 287.128 173.406C287.361 173.11 287.484 172.733 287.497 172.277C287.528 171.797 287.494 171.251 287.396 170.641L287.218 169.535L290.504 169.006L290.615 169.701C290.911 171.533 290.753 173.039 290.143 174.217C289.534 175.396 288.292 176.136 286.417 176.438ZM282.599 165.611L286.485 164.985L286.221 163.343C286.099 162.584 285.955 161.959 285.789 161.467C285.62 160.954 285.378 160.594 285.064 160.385C284.767 160.152 284.334 160.081 283.766 160.173C283.218 160.261 282.817 160.455 282.563 160.755C282.33 161.052 282.21 161.514 282.203 162.142C282.192 162.749 282.272 163.579 282.442 164.632L282.599 165.611ZM294.935 174.807L290.814 149.217L294.195 148.672L298.315 174.263L294.935 174.807ZM302.154 173.645L298.034 148.054L301.414 147.51L305.535 173.1L302.154 173.645ZM314.154 171.972C312.721 172.202 311.572 172.107 310.704 171.685C309.833 171.241 309.153 170.508 308.664 169.485C308.193 168.437 307.83 167.123 307.576 165.544L306.905 161.373C306.643 159.752 306.584 158.378 306.727 157.253C306.87 156.128 307.287 155.229 307.978 154.556C308.691 153.88 309.742 153.429 311.132 153.206C312.669 152.958 313.847 153.092 314.665 153.609C315.504 154.122 316.136 154.96 316.561 156.124C316.982 157.266 317.327 158.669 317.595 160.333L317.834 161.818L310.631 162.977L311.221 166.642C311.34 167.379 311.5 167.969 311.701 168.413C311.923 168.852 312.2 169.164 312.532 169.348C312.882 169.508 313.299 169.549 313.783 169.471C314.289 169.389 314.649 169.213 314.865 168.94C315.098 168.643 315.221 168.267 315.234 167.811C315.265 167.331 315.231 166.785 315.132 166.174L314.954 165.069L318.24 164.54L318.352 165.235C318.647 167.067 318.49 168.573 317.88 169.751C317.27 170.93 316.028 171.67 314.154 171.972ZM310.336 161.145L314.222 160.519L313.957 158.876C313.835 158.118 313.691 157.493 313.526 157.001C313.357 156.488 313.115 156.127 312.8 155.919C312.504 155.686 312.071 155.615 311.502 155.706C310.954 155.795 310.554 155.989 310.299 156.289C310.066 156.586 309.946 157.048 309.939 157.676C309.929 158.283 310.009 159.113 310.178 160.166L310.336 161.145ZM322.197 170.417L321.592 166.658L324.973 166.113L325.578 169.873L322.197 170.417Z" fill="#FAFAFA"/>
<path d="M194.514 280.313C193.764 280.434 193.051 280.448 192.374 280.354C191.71 280.258 191.083 280.055 190.493 279.745C189.914 279.42 189.373 278.994 188.869 278.467L190.06 276.553C190.854 277.371 191.575 277.91 192.225 278.17C192.874 278.43 193.607 278.494 194.423 278.363C194.923 278.282 195.365 278.13 195.748 277.906C196.13 277.683 196.418 277.414 196.61 277.099C196.803 276.784 196.87 276.449 196.813 276.094C196.775 275.857 196.699 275.64 196.586 275.442C196.473 275.244 196.318 275.073 196.119 274.93C195.933 274.784 195.697 274.66 195.411 274.557C195.137 274.453 194.821 274.375 194.462 274.325C194.101 274.262 193.69 274.227 193.229 274.22C192.495 274.19 191.846 274.098 191.281 273.946C190.716 273.794 190.228 273.569 189.815 273.271C189.402 272.972 189.075 272.613 188.831 272.193C188.586 271.76 188.418 271.261 188.327 270.694C188.238 270.142 188.273 269.609 188.434 269.097C188.608 268.583 188.878 268.121 189.244 267.711C189.621 267.285 190.084 266.934 190.634 266.656C191.181 266.366 191.791 266.166 192.462 266.058C193.173 265.944 193.839 265.931 194.461 266.02C195.084 266.109 195.655 266.3 196.175 266.595C196.693 266.876 197.145 267.255 197.533 267.733L196.271 269.456C195.938 269.064 195.583 268.749 195.207 268.513C194.829 268.263 194.431 268.098 194.013 268.016C193.593 267.922 193.159 267.911 192.711 267.983C192.198 268.066 191.763 268.217 191.407 268.436C191.05 268.656 190.784 268.928 190.607 269.254C190.44 269.564 190.388 269.91 190.45 270.292C190.494 270.568 190.588 270.816 190.732 271.036C190.873 271.243 191.064 271.422 191.304 271.572C191.555 271.707 191.877 271.818 192.269 271.903C192.659 271.975 193.119 272.023 193.649 272.046C194.399 272.087 195.076 272.187 195.683 272.346C196.287 272.492 196.813 272.697 197.261 272.963C197.709 273.229 198.064 273.549 198.328 273.926C198.604 274.3 198.78 274.724 198.856 275.198C198.998 276.08 198.917 276.876 198.613 277.587C198.309 278.298 197.81 278.891 197.117 279.367C196.422 279.83 195.554 280.146 194.514 280.313ZM206.718 278.348C205.704 278.511 204.759 278.427 203.882 278.096C203.015 277.749 202.287 277.211 201.697 276.482C201.105 275.741 200.725 274.85 200.558 273.81C200.39 272.77 200.472 271.811 200.804 270.934C201.133 270.044 201.656 269.304 202.371 268.717C203.098 268.113 203.968 267.73 204.982 267.567C205.982 267.406 206.915 267.499 207.782 267.845C208.659 268.177 209.393 268.714 209.986 269.455C210.576 270.184 210.954 271.069 211.122 272.109C211.289 273.149 211.208 274.114 210.879 275.004C210.548 275.881 210.019 276.621 209.292 277.225C208.576 277.812 207.718 278.187 206.718 278.348ZM206.419 276.492C207.038 276.392 207.566 276.152 208.004 275.771C208.441 275.376 208.754 274.894 208.946 274.323C209.136 273.738 209.17 273.112 209.049 272.442C208.951 271.756 208.722 271.171 208.361 270.689C207.998 270.194 207.548 269.834 207.012 269.61C206.477 269.386 205.899 269.323 205.281 269.423C204.662 269.523 204.128 269.771 203.679 270.167C203.24 270.548 202.926 271.031 202.737 271.615C202.545 272.186 202.51 272.807 202.631 273.476C202.726 274.149 202.955 274.734 203.319 275.229C203.68 275.711 204.129 276.071 204.667 276.308C205.216 276.53 205.8 276.592 206.419 276.492ZM217.839 276.557C217.102 276.676 216.429 276.609 215.821 276.356C215.227 276.1 214.728 275.687 214.326 275.118C213.936 274.545 213.673 273.832 213.535 272.976L212.505 266.578L214.539 266.251L215.48 272.096C215.577 272.701 215.754 273.213 216.011 273.631C216.278 274.033 216.609 274.325 217.002 274.504C217.409 274.682 217.869 274.729 218.382 274.647C218.764 274.585 219.103 274.47 219.4 274.3C219.695 274.118 219.936 273.897 220.124 273.637C220.325 273.375 220.466 273.075 220.546 272.738C220.627 272.401 220.638 272.048 220.579 271.68L219.574 265.44L221.608 265.113L223.277 275.479L221.243 275.807L220.893 273.635L221.211 273.34C221.131 273.853 220.932 274.337 220.614 274.794C220.309 275.248 219.919 275.635 219.444 275.955C218.966 276.261 218.432 276.462 217.839 276.557ZM226.13 275.02L224.46 264.653L226.514 264.323L227.038 267.581L226.714 266.823C226.778 266.299 226.948 265.806 227.225 265.343C227.515 264.877 227.864 264.49 228.274 264.181C228.696 263.87 229.151 263.675 229.638 263.597C229.862 263.561 230.076 263.547 230.28 263.554C230.497 263.56 230.669 263.579 230.795 263.613L230.618 265.91C230.45 265.87 230.264 265.846 230.06 265.838C229.867 265.815 229.679 265.819 229.494 265.848C229.139 265.905 228.808 266.033 228.502 266.231C228.208 266.413 227.955 266.65 227.746 266.94C227.547 267.215 227.402 267.529 227.31 267.881C227.216 268.221 227.2 268.581 227.261 268.963L228.183 274.689L226.13 275.02ZM238.085 273.297C237.124 273.452 236.224 273.354 235.384 273.003C234.557 272.65 233.854 272.101 233.275 271.357C232.71 270.611 232.345 269.731 232.182 268.717C232.019 267.704 232.088 266.754 232.391 265.868C232.708 264.98 233.203 264.238 233.877 263.644C234.564 263.047 235.388 262.671 236.349 262.516C237.27 262.368 238.137 262.424 238.949 262.685C239.772 262.931 240.432 263.344 240.931 263.926L240.028 265.489C239.769 265.22 239.455 264.987 239.085 264.79C238.716 264.593 238.335 264.452 237.943 264.366C237.551 264.281 237.184 264.266 236.842 264.321C236.21 264.422 235.67 264.672 235.22 265.068C234.782 265.449 234.461 265.933 234.259 266.519C234.056 267.106 234.009 267.735 234.117 268.406C234.225 269.077 234.474 269.658 234.864 270.149C235.251 270.627 235.72 270.984 236.271 271.219C236.823 271.455 237.401 271.523 238.006 271.426C238.362 271.369 238.695 271.254 239.005 271.083C239.328 270.909 239.628 270.679 239.906 270.391C240.184 270.103 240.433 269.766 240.655 269.379L242.003 270.58C241.677 271.24 241.15 271.825 240.421 272.334C239.706 272.84 238.927 273.162 238.085 273.297ZM249.086 271.526C248.02 271.698 247.036 271.626 246.135 271.312C245.245 270.983 244.499 270.462 243.898 269.748C243.31 269.032 242.933 268.161 242.768 267.134C242.636 266.318 242.648 265.553 242.804 264.84C242.959 264.126 243.227 263.488 243.61 262.927C244.003 262.351 244.501 261.879 245.104 261.512C245.717 261.129 246.406 260.876 247.169 260.754C247.841 260.645 248.487 260.676 249.109 260.846C249.728 261.003 250.285 261.272 250.778 261.651C251.285 262.029 251.699 262.509 252.023 263.092C252.357 263.659 252.576 264.306 252.68 265.032L252.8 265.904L244.329 267.268L243.614 265.722L250.782 264.568L250.54 264.951L250.463 264.477C250.354 264.049 250.147 263.684 249.841 263.382C249.536 263.08 249.177 262.861 248.763 262.725C248.35 262.589 247.919 262.557 247.472 262.629C246.761 262.744 246.184 262.979 245.741 263.333C245.297 263.675 244.992 264.129 244.826 264.696C244.659 265.25 244.637 265.908 244.76 266.672C244.876 267.396 245.129 268.003 245.519 268.494C245.907 268.972 246.4 269.311 247 269.512C247.599 269.713 248.261 269.755 248.985 269.638C249.498 269.555 249.958 269.393 250.365 269.152C250.785 268.909 251.216 268.522 251.657 267.992L252.916 269.268C252.651 269.635 252.307 269.974 251.885 270.285C251.475 270.594 251.026 270.862 250.535 271.09C250.056 271.302 249.573 271.447 249.086 271.526ZM256.648 270.308C256.213 270.378 255.857 270.307 255.58 270.095C255.301 269.87 255.123 269.521 255.047 269.047C254.977 268.612 255.045 268.237 255.25 267.92C255.456 267.603 255.763 267.412 256.171 267.346C256.605 267.276 256.962 267.354 257.241 267.579C257.519 267.791 257.695 268.134 257.772 268.608C257.842 269.042 257.774 269.418 257.568 269.735C257.363 270.051 257.056 270.243 256.648 270.308ZM255.392 262.509C254.957 262.579 254.602 262.508 254.324 262.296C254.045 262.071 253.867 261.721 253.791 261.247C253.721 260.813 253.789 260.437 253.994 260.121C254.2 259.804 254.507 259.613 254.915 259.547C255.349 259.477 255.706 259.555 255.985 259.78C256.263 259.992 256.439 260.335 256.516 260.808C256.586 261.243 256.518 261.618 256.312 261.935C256.107 262.252 255.8 262.443 255.392 262.509ZM271.717 267.801C270.651 267.972 269.659 267.896 268.743 267.571C267.824 267.232 267.055 266.694 266.437 265.957C265.829 265.204 265.442 264.307 265.274 263.267L263.901 254.737L266.033 254.394L267.378 262.746C267.486 263.418 267.742 263.998 268.145 264.487C268.545 264.962 269.028 265.317 269.592 265.55C270.17 265.781 270.768 265.847 271.386 265.747C272.044 265.641 272.611 265.388 273.087 264.987C273.576 264.584 273.936 264.094 274.167 263.517C274.396 262.926 274.457 262.295 274.348 261.624L273.004 253.271L275.037 252.944L276.411 261.474C276.578 262.514 276.485 263.488 276.132 264.396C275.789 265.288 275.235 266.039 274.469 266.649C273.7 267.245 272.783 267.629 271.717 267.801ZM280.43 266.276L278.761 255.91L280.795 255.582L281.138 257.715L280.821 258.009C280.878 257.527 281.067 257.064 281.387 256.621C281.706 256.165 282.109 255.776 282.597 255.454C283.083 255.119 283.603 254.907 284.156 254.818C284.946 254.691 285.629 254.743 286.207 254.974C286.782 255.192 287.252 255.596 287.617 256.185C287.982 256.775 288.242 257.55 288.397 258.511L289.414 264.83L287.381 265.157L286.385 258.977C286.29 258.384 286.133 257.91 285.913 257.554C285.692 257.184 285.402 256.94 285.046 256.822C284.687 256.691 284.266 256.678 283.783 256.782C283.389 256.846 283.037 256.97 282.729 257.155C282.419 257.326 282.157 257.544 281.943 257.808C281.742 258.07 281.594 258.364 281.498 258.69C281.413 259.001 281.398 259.327 281.453 259.67L282.464 265.949L281.457 266.111C281.286 266.138 281.115 266.166 280.943 266.194C280.772 266.221 280.601 266.249 280.43 266.276ZM292.509 264.331L290.84 253.965L292.874 253.637L294.543 264.004L292.509 264.331ZM291.458 251.515C291.024 251.585 290.67 251.527 290.397 251.342C290.124 251.156 289.955 250.859 289.889 250.451C289.828 250.069 289.896 249.741 290.095 249.466C290.307 249.189 290.624 249.016 291.045 248.948C291.479 248.878 291.833 248.936 292.106 249.122C292.379 249.308 292.548 249.604 292.614 250.012C292.676 250.394 292.6 250.724 292.388 251.001C292.19 251.276 291.88 251.447 291.458 251.515ZM302.104 262.989C301.143 263.144 300.243 263.045 299.403 262.694C298.576 262.341 297.873 261.793 297.294 261.049C296.729 260.303 296.364 259.423 296.201 258.409C296.038 257.395 296.108 256.446 296.411 255.559C296.727 254.671 297.222 253.93 297.896 253.335C298.583 252.738 299.407 252.362 300.368 252.208C301.29 252.059 302.156 252.116 302.968 252.377C303.791 252.622 304.452 253.036 304.95 253.617L304.047 255.181C303.788 254.912 303.474 254.679 303.104 254.482C302.735 254.284 302.354 254.143 301.962 254.058C301.571 253.972 301.203 253.957 300.861 254.012C300.229 254.114 299.689 254.363 299.239 254.76C298.801 255.141 298.481 255.625 298.278 256.211C298.075 256.797 298.028 257.426 298.136 258.097C298.244 258.769 298.493 259.35 298.883 259.841C299.27 260.319 299.74 260.675 300.291 260.911C300.842 261.146 301.42 261.215 302.026 261.117C302.381 261.06 302.714 260.946 303.024 260.774C303.347 260.601 303.647 260.37 303.925 260.082C304.203 259.795 304.452 259.457 304.674 259.07L306.022 260.271C305.696 260.932 305.169 261.516 304.441 262.025C303.725 262.532 302.947 262.853 302.104 262.989ZM313.105 261.217C312.039 261.389 311.055 261.318 310.154 261.004C309.264 260.675 308.518 260.153 307.917 259.44C307.329 258.724 306.952 257.853 306.787 256.826C306.656 256.01 306.667 255.245 306.823 254.531C306.978 253.817 307.247 253.18 307.629 252.619C308.022 252.042 308.52 251.57 309.123 251.203C309.736 250.821 310.425 250.568 311.189 250.445C311.86 250.337 312.506 250.368 313.128 250.538C313.747 250.695 314.304 250.963 314.797 251.343C315.304 251.72 315.719 252.201 316.042 252.783C316.376 253.351 316.595 253.997 316.699 254.724L316.819 255.595L308.348 256.959L307.633 255.413L314.801 254.259L314.559 254.643L314.482 254.169C314.373 253.741 314.166 253.376 313.86 253.074C313.555 252.772 313.196 252.553 312.782 252.417C312.369 252.281 311.938 252.249 311.491 252.321C310.78 252.435 310.203 252.67 309.761 253.025C309.316 253.367 309.011 253.821 308.846 254.388C308.678 254.941 308.656 255.6 308.779 256.363C308.895 257.087 309.148 257.695 309.538 258.186C309.926 258.664 310.419 259.003 311.019 259.203C311.618 259.404 312.28 259.446 313.004 259.329C313.517 259.247 313.978 259.085 314.384 258.844C314.804 258.601 315.235 258.214 315.676 257.684L316.935 258.96C316.67 259.327 316.326 259.666 315.904 259.977C315.494 260.286 315.045 260.554 314.555 260.781C314.076 260.994 313.593 261.139 313.105 261.217ZM320.931 259.755L319.074 248.223C318.979 247.631 319.026 247.083 319.215 246.58C319.404 246.077 319.708 245.657 320.126 245.319C320.544 244.982 321.056 244.764 321.662 244.667C322.083 244.599 322.491 244.614 322.885 244.713C323.279 244.811 323.609 244.974 323.875 245.202L323.435 246.873C323.239 246.742 323.028 246.648 322.802 246.59C322.588 246.516 322.388 246.494 322.204 246.524C321.928 246.569 321.698 246.653 321.515 246.777C321.344 246.885 321.227 247.039 321.164 247.238C321.1 247.424 321.088 247.642 321.128 247.893L322.985 259.424L321.958 259.589C321.787 259.617 321.616 259.644 321.445 259.672C321.273 259.7 321.102 259.727 320.931 259.755ZM317.934 251.709L317.632 249.833L323.793 248.841L324.095 250.717L317.934 251.709ZM328.422 258.771C327.987 258.841 327.631 258.77 327.354 258.558C327.075 258.333 326.897 257.984 326.821 257.51C326.751 257.075 326.819 256.7 327.024 256.383C327.23 256.066 327.537 255.875 327.945 255.809C328.379 255.74 328.736 255.817 329.015 256.042C329.293 256.254 329.469 256.597 329.546 257.071C329.616 257.505 329.548 257.881 329.342 258.198C329.137 258.514 328.83 258.706 328.422 258.771ZM336.742 257.411C335.728 257.575 334.783 257.49 333.906 257.159C333.04 256.812 332.312 256.275 331.722 255.546C331.13 254.804 330.75 253.913 330.582 252.873C330.415 251.833 330.497 250.874 330.828 249.997C331.158 249.107 331.68 248.368 332.396 247.78C333.122 247.177 333.992 246.793 335.006 246.63C336.007 246.469 336.94 246.562 337.806 246.909C338.683 247.24 339.418 247.777 340.01 248.519C340.6 249.248 340.979 250.132 341.146 251.172C341.314 252.212 341.233 253.177 340.903 254.067C340.572 254.944 340.043 255.685 339.316 256.288C338.601 256.876 337.743 257.25 336.742 257.411ZM336.443 255.555C337.062 255.456 337.59 255.215 338.029 254.834C338.465 254.44 338.779 253.957 338.97 253.386C339.16 252.802 339.194 252.175 339.073 251.506C338.976 250.819 338.747 250.235 338.385 249.753C338.022 249.257 337.573 248.898 337.037 248.673C336.501 248.449 335.924 248.387 335.305 248.486C334.686 248.586 334.152 248.834 333.703 249.23C333.265 249.612 332.951 250.094 332.761 250.679C332.569 251.25 332.534 251.87 332.656 252.539C332.75 253.212 332.98 253.797 333.343 254.292C333.704 254.774 334.154 255.134 334.692 255.371C335.241 255.594 335.825 255.655 336.443 255.555ZM344.199 256.008L342.529 245.642L344.583 245.311L345.107 248.569L344.783 247.811C344.847 247.287 345.017 246.794 345.294 246.331C345.584 245.866 345.933 245.478 346.343 245.169C346.765 244.858 347.22 244.663 347.707 244.585C347.931 244.549 348.145 244.535 348.349 244.543C348.566 244.548 348.738 244.568 348.864 244.601L348.687 246.899C348.519 246.858 348.333 246.834 348.129 246.827C347.936 246.804 347.748 246.807 347.563 246.837C347.208 246.894 346.877 247.021 346.571 247.219C346.277 247.402 346.024 247.638 345.815 247.928C345.616 248.204 345.471 248.517 345.379 248.87C345.285 249.209 345.269 249.569 345.33 249.951L346.252 255.677L344.199 256.008ZM357.245 258.567C356.507 258.685 355.751 258.686 354.976 258.567C354.216 258.46 353.582 258.258 353.075 257.962L353.571 256.261C353.866 256.416 354.203 256.538 354.582 256.625C354.963 256.726 355.357 256.784 355.765 256.799C356.175 256.828 356.57 256.812 356.952 256.75C357.676 256.633 358.263 256.417 358.711 256.102C359.16 255.787 359.473 255.379 359.649 254.878C359.825 254.377 359.857 253.784 359.747 253.099L359.426 251.105L359.666 251.208C359.665 251.627 359.512 252.057 359.205 252.498C358.909 252.924 358.51 253.299 358.008 253.622C357.507 253.946 356.973 254.154 356.407 254.245C355.42 254.404 354.501 254.315 353.65 253.98C352.81 253.629 352.102 253.088 351.525 252.357C350.946 251.613 350.572 250.721 350.405 249.681C350.238 248.641 350.306 247.685 350.612 246.812C350.928 245.923 351.43 245.187 352.12 244.604C352.82 244.005 353.651 243.628 354.612 243.473C355.007 243.41 355.397 243.401 355.782 243.447C356.166 243.48 356.53 243.563 356.876 243.696C357.219 243.816 357.533 243.962 357.817 244.132C358.101 244.302 358.341 244.493 358.537 244.705C358.734 244.916 358.868 245.124 358.942 245.329L358.533 245.556L358.142 243.128L360.175 242.8L361.743 252.535C361.876 253.364 361.869 254.115 361.721 254.787C361.588 255.47 361.326 256.066 360.935 256.575C360.546 257.096 360.041 257.522 359.419 257.852C358.799 258.195 358.074 258.433 357.245 258.567ZM356.322 252.334C356.967 252.23 357.515 251.987 357.967 251.603C358.418 251.22 358.74 250.743 358.931 250.172C359.123 249.601 359.164 248.973 359.054 248.288C358.943 247.604 358.701 247.022 358.327 246.542C357.963 246.046 357.507 245.688 356.958 245.466C356.422 245.241 355.832 245.181 355.187 245.285C354.555 245.387 354.015 245.636 353.565 246.032C353.127 246.413 352.806 246.897 352.604 247.483C352.412 248.055 352.37 248.676 352.478 249.347C352.586 250.018 352.822 250.602 353.186 251.097C353.56 251.577 354.015 251.929 354.551 252.153C355.1 252.376 355.69 252.436 356.322 252.334Z" fill="#FAFAFA"/>
</svg>
