<svg width="181" height="143" viewBox="0 0 181 143" fill="none" xmlns="http://www.w3.org/2000/svg">
<mask id="mask0_5558_5491" style="mask-type:luminance" maskUnits="userSpaceOnUse" x="0" y="0" width="181" height="143">
<path d="M0.666504 0H180.667V142.604H0.666504V0Z" fill="white"/>
</mask>
<g mask="url(#mask0_5558_5491)">
<path d="M177.24 28.9167C175.594 27.1719 172.932 26 170.37 26.9375C170.76 25.8281 170.719 24.6094 170.208 23.6302C169.734 22.7083 168.906 22.1094 167.849 21.8906C171.885 17.5521 175.083 14.3854 176.875 12.9531L177.75 12.25L176.63 12.3177C172.719 12.5625 168.656 14.4427 164.557 17.9011C163.995 16.9636 163.13 16.1406 162.109 15.5677C164.583 11.776 166.688 9.02084 168.208 7.59376L169.042 6.81772L167.911 6.98959C163.547 7.65105 159.026 10.7448 155.167 15.6927L154.979 15.6979V15.8594C154.359 16.2604 153.76 16.7708 153.208 17.375C151.453 11.599 142.422 8.54168 134.677 9.30209C125.729 10.1771 120.26 15.3854 119.885 23.3021C118.115 21.6771 114.625 20.2761 111.865 21.3021C110.094 21.9636 108.068 23.8438 108.141 28.9896C107.297 28.3281 106.078 28.0365 104.812 28.2136C105.646 24.3906 103.87 21.0052 101.641 19.2917C99.6354 17.7396 97.2552 17.3594 95.1146 18.1979C95.599 16.8229 95.3958 15.2969 94.5312 14.276C93.4896 13.0521 91.7135 12.7604 89.5625 13.4167C90.0573 12.5104 90.1615 11.4688 89.8438 10.3854C89.2396 8.33334 87.1875 6.56251 84.849 6.09376C83.3854 5.79688 80.6094 5.76563 77.9531 8.65105C76.1979 2.88022 67.1667 -0.177075 59.4271 0.578133C50.4688 1.45834 45 6.67188 44.6302 14.6042C42.7969 13.0104 39.1979 12.0521 36.4115 13.0885C32.7604 14.4531 32 18.2969 32.0781 21.5417C31.0156 20.8958 29.349 20.2708 27.8333 20.8281C26.6354 21.2656 25.7865 22.3385 25.3125 24.0156C24.1823 22.8438 21.6458 21.8021 18.9479 21.8958C16.5833 21.9792 12.2656 23.0573 9.88542 29.3177L9.70833 29.7969H34.6094C33.849 31.5625 33.3229 33.4011 33.0365 35.2813L29.0104 32.2761L28.5885 32.849L32.9271 36.0833C32.4427 40.2865 33.1771 44.474 35.1094 48.5365C31.1458 51.2656 25.8333 57.6511 20.776 65.7552L7.79167 56.0729L7.36979 56.6406L20.4062 66.3594C14.1146 76.5677 9.625 87.1771 8.64583 94.1563C6.48958 96.1771 3.45313 100.375 1.79167 104.964L1.625 105.443H1.71875C1.61979 106.422 1.85938 107.328 2.42188 108.151C4.83854 111.651 12.7188 112.995 19.6719 114.182C24.0365 114.922 28.9844 115.766 29.1562 116.964C29.2031 117.302 28.8542 118.073 25.9792 119.464C23.0729 120.875 21.8385 122.615 22.3021 124.62C23.1771 128.443 30.6146 132.844 42.1875 136.396C54.25 140.094 68.5729 142.214 81.4844 142.214C117.583 142.214 140.859 138.339 159.302 129.255C164.344 126.776 166.938 124.417 167.229 122.052C167.531 119.604 165.349 117.755 163.594 116.271C162.62 115.443 161.615 114.589 161.74 114.109C161.802 113.87 162.245 113.396 164.531 112.943C171.656 111.536 175.792 109.339 176.818 106.406C177.656 104.01 176.062 102.083 175.995 102.005L175.891 101.88H150.984C151.682 100.849 151.76 99.7813 151.156 98.9219C150.49 97.9792 148.932 97.3542 146.865 97.8438C148.599 95.8594 148.307 95.4219 148.203 95.2656C147.656 94.4531 146.339 93.7552 141.286 96.4479C143.021 94.1927 144.932 91.3646 144.365 90.5104C144.25 90.3333 144.005 90.1094 143.516 90.0313C141.844 89.7604 138.552 91.2604 134.375 94.125C136.807 91.2188 136.802 89.6146 136.755 89.2552C136.672 88.5833 136.297 88.0677 135.635 87.7188C133.896 86.8125 130.062 89.0938 124.245 94.4896L123.573 93.9896C124.505 89.0573 125.943 83.6042 126.557 81.3646C131.542 80.8958 137.286 79.9427 139.094 78.8281L139.271 78.724L139.26 78.5156C139.26 78.4844 139.24 77.8333 139.115 76.9219C141.094 76.625 144.969 75.4948 145.214 74.1458C145.245 73.9479 145.193 73.7656 145.057 73.6354C144.885 73.474 144.615 73.4271 144.25 73.4479C144.781 73.0625 145.219 72.625 145.219 72.224C145.219 72.0365 145.13 71.875 144.969 71.7708C144.74 71.6146 144.349 71.5938 143.922 71.6406C144.12 71.4636 144.234 71.3177 144.292 71.1927L148.656 69.9896L170.443 83.2448L169.083 81.6094C168.651 81.0938 168.495 79.9167 168.688 78.6146C168.938 76.8958 169.87 74.6198 171.703 73.4011L172.13 73.1198L171.714 72.8177C170.839 72.1927 170.271 71.1615 170.151 69.9844C169.979 68.2865 170.729 66.4375 172.255 64.7917L172.573 64.4427L172.151 64.2344C171.203 63.7656 170.484 62.8229 170.224 61.7188C169.995 60.7344 170.01 59.1667 171.417 57.2917L171.776 56.8177L171.193 56.7292C169.474 56.4636 168.297 55.8594 167.693 54.9323C167.141 54.0833 167.057 52.9375 167.438 51.5313L167.781 50.2656L155.99 61.9115L142.198 51.625C143.417 50.375 144.698 49.1667 146.01 48.0261C147.688 47.6511 150.99 47.9479 155.104 48.8438C158.656 49.6146 162.245 50.724 163.839 51.5417L164.609 51.9375L164.339 51.1146C163.24 47.8177 158.953 46.0521 155.266 45.125C160.297 44.9688 170.052 44.6042 173.177 44.0938L173.88 43.9792L173.37 43.4896C167.953 38.3125 161.656 39.1302 155.495 40.2552C156.245 39.7761 157.229 39.1875 158.411 38.5104H178.062L178.167 38.3542C180.458 34.9427 179.349 31.1511 177.24 28.9167ZM36.8958 49.5886C40.2135 50.7813 49.0208 53.2656 56.8177 53.8906L60.349 56.5261H43.7604L37.8646 63.4948L31.974 59.1042L31.5521 59.6719L37.401 64.0417L30.0729 72.6875L23.4219 67.724C26.6406 61.6823 31.0521 55.7448 36.8958 49.5886ZM40.5104 29.8021H44.1615C42.2396 32.5208 40.3906 35.5261 38.6562 38.7708C38.6458 36.6927 39.2865 33.625 40.5104 29.8021ZM100.448 32.6198C99.0729 31.3229 95.9688 30.1979 92.8594 30.7604L91.5729 29.8021H101.755C101.172 30.4219 100.63 31.3281 100.448 32.6198ZM91.9531 30.974C89.6823 31.6302 86.8958 33.4219 85.1458 38.0313L84.9688 38.5104H102.062L110.078 44.4896C108.797 45.3802 107.531 46.3125 106.401 47.1406C104.151 48.8021 102.026 50.3698 101.234 50.4844C101.203 50.4844 101.172 50.4896 101.146 50.4948C101.26 50.1042 101.979 49.1406 102.516 48.4115C104.005 46.4063 104.948 45.0208 104.536 44.125C104.365 43.7448 103.979 43.5313 103.396 43.4948C101.026 43.3333 97.401 47.7292 94.2083 51.6094C92.3802 53.8281 90.651 55.9219 89.7292 56.4167C89.375 56.599 89.2031 56.6406 89.1302 56.6406C89.099 56.4167 89.3073 55.7656 89.4167 55.4063C89.6562 54.6615 89.8542 54.0156 89.6302 53.625C89.5417 53.4792 89.4062 53.3802 89.2344 53.3438C87.9271 53.0625 83.5104 56.974 81.3958 60.599L78.25 56.8854L78.5469 56.5261H61.5365L58.1198 53.9844C58.8385 54.0208 59.5313 54.0417 60.1875 54.0417C62.0052 54.0417 63.5781 53.8958 64.8958 53.6094L65.4479 53.4896L65.099 53.0417C63.3021 50.7708 57.4896 47.974 48.5469 46.849L48.2656 46.6354C56.4063 45.8073 73.1615 46.474 80.1667 49L80.8229 49.2396L80.6302 48.5677C80.1562 46.974 78.4635 45.3386 75.8542 43.9688C70.7917 41.3177 62.1146 39.599 52.026 42.0052C59.901 38.4688 78.3333 31.6354 87.7135 30.5573L88.7083 30.4479L87.8594 29.9063C87.8021 29.875 87.7448 29.8438 87.6875 29.8073H90.3854L91.9531 30.974ZM34.375 72.6979V75.8958L30.0885 72.6979H34.375ZM124.052 69.2292C124.073 69.1094 124.078 68.9844 124.073 68.849C124.615 67.5833 124.203 66.2083 123.099 65.5886C122.115 64.5313 119.828 63.7708 117.927 64.3177C116.13 64.8333 112.99 67.224 113.49 70.6875C113.885 73.3802 115.74 74.3333 117.245 74.5521C114.479 75.2448 111.25 77.7865 107.641 82.1042L104.026 79.4063L103.604 79.974L107.188 82.6458C102.818 88 99.4219 94.1042 99.3854 94.1667L99.1927 94.5104L99.5573 94.6615C99.7656 94.75 99.9844 94.8333 100.214 94.9219C99.4115 95.9115 98.0885 97.8542 97.2031 99.1823L93.9583 96.7656L93.5365 97.3333L96.8073 99.7761C96.3698 100.438 95.9115 101.141 95.4427 101.87H91.2292V86.7708C93.099 86.1823 95.1042 84.9792 96.5938 83.5521L97.3438 84.1094L97.7708 83.5417L97.099 83.0469C97.9844 82.0833 98.8802 80.75 98.724 79.4063C98.6562 78.8229 98.401 78.3073 97.9531 77.8698C101.276 77.099 103.969 74.7448 104.74 72.7396C105.073 71.8906 105.016 71.125 104.594 70.6042C104.198 70.1198 103.536 69.8698 102.615 69.849C104.87 68.3073 109.776 64.8594 110.661 63.3906C111.094 62.6667 111.141 62.1094 110.802 61.7396C110.604 61.5156 110.099 60.9636 107.266 61.8958C107.885 61.4948 108.542 61.0573 109.188 60.599C112.964 57.9479 114.75 56.0208 114.635 54.7136C114.589 54.2136 114.385 53.8438 114.031 53.6146C113.047 52.9844 111.167 53.6615 109.349 54.3177C108.49 54.625 107.536 54.9688 106.953 55.0365C107.604 54.4219 109.344 53.1615 111.042 51.9323C112.458 50.9115 114.052 49.7552 115.578 48.5833L125.682 56.1198L126.104 55.5521L116.156 48.1302C120.312 44.8802 122.115 42.8177 121.958 41.4688C121.922 41.125 121.734 40.6511 121.047 40.3333C119.031 39.4011 115.828 40.5521 110.693 44.0573L103.245 38.5052H123.427L139.281 50.3281C133.474 56.1563 126.161 65.2656 124.052 69.2344C124.052 69.2396 124.052 69.2344 124.052 69.2292ZM46.224 36.4896C47.5417 34.7188 49.4896 32.4323 51.9167 29.8021H53.5469C50.599 32.1979 48.1354 34.5261 46.224 36.4896ZM34.375 76.7761V93.3646C32.8385 93.7344 30.1927 94.5833 26.8073 96.4896C29.1615 94.1302 32.2344 90.6979 32.1615 88.9219C32.1458 88.5208 31.9792 88.1927 31.6875 87.9688C31.3385 87.6979 29.9688 86.8802 26.9323 87.5208C23.901 88.1563 20.2031 90.0104 15.9427 93.0261C17.0313 85.7083 18.375 77.4688 23.0885 68.3594L34.375 76.7761ZM124.609 38.5104H135.974C137.052 41.1094 138.943 44.6511 143.047 46.9011C142.13 47.625 141.036 48.6094 139.797 49.8333L124.609 38.5104ZM123.339 95.3438C123.37 95.1563 123.406 94.9636 123.438 94.7656L123.729 94.9792C123.594 95.099 123.464 95.224 123.339 95.3438ZM148.542 69.2865L146.771 69.6667L147.031 69.7083L144.089 70.5208C144.026 70.4792 143.958 70.4479 143.865 70.4219C143.266 70.25 141.771 70.4427 140.016 71.5208C140.177 70.7708 140.281 69.8802 140.01 69.5C139.859 69.2865 139.604 69.2031 139.339 69.2761C138.719 69.4427 137.812 70.5521 137.427 72.3281C137.349 72.2396 137.266 72.1563 137.182 72.0781L137.042 71.9479L136.854 72C133.297 72.9636 130.516 73.5573 128.375 73.8073C129.51 70.6094 132.844 61.4167 141.703 52.1406L155.484 62.4167L148.542 69.2865Z" fill="black"/>
</g>
<path d="M12.854 33.807L13.2759 33.2393L26.2967 42.9424L25.8696 43.5101L12.854 33.807Z" fill="black"/>
<path d="M148.906 83.1615L149.328 82.5938L169.385 97.5417L168.958 98.1094L148.906 83.1615Z" fill="black"/>
<path d="M169.609 27.6826C174.943 24.5524 181.932 32.0993 177.885 38.1566C177.875 38.1566 177.87 38.1566 177.865 38.1566C177.865 38.1566 176.854 38.1566 158.385 38.1566L158.37 38.1305C163.536 35.1722 171.406 31.1097 174.594 30.0628C168.49 27.8232 160.135 31.0993 153.25 38.5003C154.005 36.9378 160.792 28.9795 167.12 22.1514C170.26 22.292 170.984 25.542 169.609 27.6826Z" fill="#87AAD2"/>
<mask id="mask1_5558_5491" style="mask-type:luminance" maskUnits="userSpaceOnUse" x="2" y="101" width="176" height="42">
<path d="M2 101.333H178V142.604H2V101.333Z" fill="white"/>
</mask>
<g mask="url(#mask1_5558_5491)">
<path d="M22.724 104.932L59.0105 104.666C59.4272 104.187 59.8959 103.255 60.1667 102.229H89.6772L93.724 105.244C93.0365 106.369 92.5105 107.26 92.2657 107.718C84.0053 110.135 78.5001 115.312 78.5001 115.312C78.3907 115.515 78.3022 115.718 78.2345 115.926C74.9949 116.952 70.8282 125.468 74.8074 127.614C75.9167 127.984 77.0157 126.635 77.5105 124.489C77.9949 122.343 78.8542 120.999 79.4167 120.9C83.9272 120.234 97.9428 113.979 99.1928 113.062C99.5261 112.812 100.287 111.942 101.224 110.796C102.448 109.291 103.984 107.307 105.26 105.64L112.25 110.854C112.349 111.135 112.422 111.369 112.453 111.557C112.708 113.062 109.453 123.322 109.453 123.322C109.74 123.406 110.037 123.468 110.354 123.515C110.354 123.515 109.615 125.676 109.188 127.171C109.052 127.63 108.953 128.031 108.912 128.281C109.745 128.281 121.62 128.281 121.62 128.281C121.62 128.281 121.609 127.755 121.385 127.171C121.162 126.557 120.698 125.885 119.781 125.718C118 125.406 115.302 124.551 115.266 123.442C115.745 123.374 116.037 123.322 116.037 123.322C117.693 120.364 118.51 117.864 118.88 115.796C119.547 112.031 118.734 109.687 118.787 108.551C118.828 107.77 118.078 105.015 117.24 102.229H175.719C175.719 102.229 181.62 109.202 164.458 112.588C152.859 114.88 179.089 119.109 159.141 128.937C141.734 137.505 119.146 141.859 81.4792 141.859C47.2865 141.859 10.8855 127.182 26.1303 119.775C41.3751 112.374 0.0104938 115.895 2.13029 105.083L22.724 104.932Z" fill="#794426"/>
</g>
<path d="M176.656 12.6771C174.588 14.3333 170.932 18.0365 167.12 22.151C160.791 28.9792 154.005 36.9375 153.25 38.5C160.135 31.099 168.484 27.8229 174.594 30.0625C171.406 31.1094 163.536 35.1719 158.37 38.1302C156.297 39.3281 154.656 40.3385 153.937 40.9062C160.479 39.6979 167.364 38.2396 173.13 43.7448C168.916 44.4323 152.219 44.8646 152.219 44.8646C155.916 45.4688 162.63 47.1042 164.005 51.2344C160.823 49.599 149.719 46.7604 145.849 47.7031C144.333 49.0156 142.942 50.349 141.656 51.6719L139.817 50.2969C141.286 48.8333 142.625 47.6354 143.692 46.8438C139.541 44.7656 137.463 41.2708 136.198 38.1615V38.1562C134.885 34.9427 136.453 30.7813 137.635 28.4844C138.151 32.7083 140.135 37.8698 143.026 40.3906C138.239 31.3333 140.76 18.6146 148.942 14.401C146.442 18.6146 145.932 32.9896 146.442 37.375C147.916 28.7552 151.224 21.3646 155.328 16.0521C155.328 16.0521 155.328 16.0521 155.333 16.0521C159.13 11.1302 163.614 8.00521 167.958 7.34375C166.219 8.97396 163.942 12.0781 161.599 15.7031C156.401 23.7135 150.859 34.224 149.969 36.776C153.599 30.9948 158.573 23.5365 164.453 18.4583C168.203 15.2187 172.302 12.9427 176.656 12.6771Z" fill="#4CAF50"/>
<path d="M158.438 64.182L171.146 57.083C168.568 60.5153 170.036 63.5778 172 64.557L148.719 69.6143L158.438 64.182Z" fill="#C41830"/>
<path d="M148.719 69.6149L172 64.5576C168.818 67.9951 169.427 71.6201 171.516 73.1097L148.719 69.6149Z" fill="#C41830"/>
<path d="M148.719 69.6143L171.516 73.1143C168.328 75.2236 167.594 80.3695 168.818 81.8434L148.719 69.6143Z" fill="#C41830"/>
<path d="M171.146 57.083L158.438 64.182L156.031 62.3799L167.099 51.4424C165.87 55.9788 169.552 56.8382 171.146 57.083Z" fill="#C41830"/>
<path d="M161.609 15.7031C162.885 16.3229 163.906 17.3281 164.463 18.4583C158.583 23.5417 153.609 30.9948 149.979 36.776C150.87 34.224 156.417 23.7135 161.609 15.7031Z" fill="#87AAD2"/>
<path d="M156.031 62.3799L158.438 64.182L148.719 69.6143L156.031 62.3799Z" fill="#C41830"/>
<path d="M123.542 38.1561H102.177L92.7656 31.1353C96.4896 30.3905 100.104 32.1926 100.734 33.5623C100.74 31.6873 101.505 30.3592 102.568 29.5363C103.104 29.1248 103.724 28.8332 104.354 28.6769C106 28.2603 107.76 28.7134 108.536 29.9373C107.807 17.8332 117.833 21.0623 120.224 24.1873C120.224 4.33318 150.854 7.08839 153.036 18.1144C153.776 17.2134 154.552 16.5363 155.344 16.0519C151.24 21.3592 147.932 28.7551 146.458 37.3748C145.943 32.9894 146.458 18.6144 148.958 14.4009C140.776 18.6144 138.255 31.3332 143.042 40.3905C140.146 37.8696 138.167 32.703 137.651 28.4842C136.464 30.7811 134.896 34.9426 136.214 38.1561H123.542Z" fill="#87AAD2"/>
<path d="M130.896 97.1249C139.318 90.5364 143.406 89.703 144.073 90.703C144.729 91.6926 140.042 97.453 139.906 97.6197C146.489 93.7916 147.578 94.953 147.911 95.4583C148.245 95.9583 145.661 98.6301 145.661 98.6301C149.828 96.7916 152.833 99.4947 150.245 102.229H134.042L124.276 94.953C128.547 90.9635 133.542 87.026 135.479 88.0364C139.104 89.927 131.099 96.9426 130.896 97.1249Z" fill="#4CAF50"/>
<path d="M142.198 74.2185C143.136 74.0205 144.985 73.4632 144.87 74.0882C144.677 75.1507 140.849 76.3903 138.719 76.6195C138.552 75.5414 138.24 74.2185 137.646 73.2237C137.901 70.6195 139.375 69.2132 139.724 69.7028C140.078 70.1976 139.443 72.3435 139.443 72.3435C141.724 70.6403 143.828 70.5049 143.99 70.9112C144.151 71.3122 141.969 72.5049 141.839 72.5778C143.531 71.9268 144.865 71.7862 144.865 72.2237C144.865 72.8643 142.583 74.0882 142.198 74.2185Z" fill="#794426"/>
<path d="M139.823 50.2969L141.667 51.6719C132.047 61.6406 128.839 71.5 127.859 74.2188C125.948 74.401 124.823 74.2708 123.672 74.1927C124.214 73.4479 124.354 72.4479 124.016 71.4635L124.797 70.9688C124.797 70.9688 124.344 70.6094 124.021 70.1406C125.469 66.6615 133.766 56.3073 139.823 50.2969Z" fill="#4CAF50"/>
<path d="M125.068 81.1357C124.505 83.1982 122.151 86.9587 119.156 91.1305L107.698 82.5837C110.698 78.9535 114.156 75.693 117.328 74.8962C117.854 74.7607 118.338 74.6514 118.776 74.5576C121.125 74.0732 122.411 74.1045 123.667 74.193C124.818 74.2712 125.948 74.4014 127.854 74.2191C129.797 74.042 132.547 73.5368 136.948 72.3389C137.219 72.5837 137.443 72.8753 137.646 73.2191C138.229 74.2139 138.547 75.5368 138.719 76.6149C138.89 77.6982 138.911 78.5264 138.911 78.5264C137.219 79.5732 131.646 80.5472 126.286 81.0316C125.875 81.068 125.469 81.1045 125.068 81.1357Z" fill="#87AAD2"/>
<path d="M134.042 102.229H117.25C117.213 102.12 119.667 99.3857 122.818 96.3337V96.3285C123.292 95.8753 123.776 95.4066 124.276 94.9482L134.042 102.229Z" fill="#4CAF50"/>
<path d="M125.068 81.1302C125.474 81.1042 125.875 81.0677 126.287 81.0312C126.235 81.224 124.318 88.1042 123.193 94.1406L119.162 91.1302C122.146 86.9583 124.505 83.2031 125.068 81.1302Z" fill="#4CAF50"/>
<path d="M124.797 70.9684L124.01 71.4684C124.354 72.4476 124.213 73.4476 123.666 74.1976C122.411 74.1038 121.125 74.0726 118.776 74.5622C118.677 74.4788 118.573 74.3434 118.469 74.1663C118.078 73.5205 117.708 72.3955 117.745 72.0726C116.521 72.1663 116.182 70.734 116.776 70.109C117.13 69.734 117.864 69.5622 118.281 70.1507L118.323 71.083L119.12 71.057V69.7705C120.224 69.484 122.396 67.7809 122.724 66.708C123.307 67.0934 123.682 67.9893 123.719 68.7809C123.724 68.9215 123.719 69.057 123.703 69.1872C123.661 69.5153 123.812 69.8486 124.015 70.1455C124.338 70.6143 124.797 70.9684 124.797 70.9684Z" fill="#794426"/>
<path d="M121.39 127.172C121.609 127.75 121.625 128.281 121.625 128.281C121.625 128.281 109.75 128.281 108.917 128.281C108.953 128.031 109.057 127.635 109.187 127.172H121.39Z" fill="#4CAF50"/>
<path d="M121.391 127.172H109.188C109.615 125.677 110.354 123.515 110.354 123.515C112.109 123.797 114.177 123.588 115.271 123.442C115.307 124.552 118.01 125.406 119.781 125.718C120.703 125.885 121.167 126.557 121.391 127.172Z" fill="#4CAF50"/>
<path d="M120.896 40.6611C123.167 41.708 119.693 44.9632 115.573 48.1455L110.682 44.4996C114.542 41.8434 118.588 39.5986 120.896 40.6611Z" fill="#4CAF50"/>
<path d="M107.698 82.583L119.156 91.1299C118.235 92.4163 117.25 93.7497 116.24 95.0778C116.24 95.0778 115.813 95.1872 115.063 95.3226C112.526 95.7965 106.328 96.6247 100.818 94.7601C100.443 94.6351 100.068 94.4945 99.6929 94.3434C99.6929 94.3382 103.188 88.0465 107.698 82.583Z" fill="#87AAD2"/>
<path d="M118.286 70.1512C117.865 69.5627 117.13 69.7346 116.776 70.1096C116.187 70.7294 116.521 72.1616 117.75 72.0731C117.714 72.396 118.083 73.521 118.469 74.1669L118.375 74.2241C116.891 74.396 114.302 73.7762 113.839 70.6356C113.385 67.4898 116.245 65.1668 118.026 64.6564C119.807 64.1408 121.99 64.87 122.88 65.87C123.964 66.4377 124.203 67.7294 123.719 68.7762C123.687 67.9846 123.312 67.0887 122.729 66.7033C122.401 67.7814 120.229 69.4846 119.125 69.7658V71.0523L118.328 71.0783L118.286 70.1512Z" fill="#C41830"/>
<path d="M122.818 96.3337C119.667 99.3857 117.214 102.125 117.25 102.229C116.219 98.8076 115.062 95.3285 115.062 95.3285C115.813 95.1878 116.24 95.0785 116.24 95.0785C117.255 93.7555 118.24 92.4222 119.161 91.1357L123.193 94.1462C123.052 94.8857 122.922 95.6201 122.818 96.3337Z" fill="#4CAF50"/>
<path d="M117.245 102.229C118.078 105.021 118.828 107.771 118.792 108.552C118.739 109.688 119.552 112.032 118.885 115.797L112.25 110.849C111.562 108.912 109.385 105.068 107.786 102.297C107.786 102.297 106.677 103.776 105.26 105.641L97.2915 99.693C98.8019 97.4118 100.208 95.3962 100.818 94.7607C106.328 96.6253 112.531 95.7972 115.062 95.3232C115.062 95.3232 116.219 98.8076 117.245 102.229Z" fill="#C41830"/>
<path d="M103.255 63.9426C109.745 60.8853 111.464 61.3697 110.354 63.2134C109.25 65.0519 101.286 70.3176 101.286 70.3176C107.906 69.2186 103.615 76.6926 97.1198 77.6717C99.2396 78.9999 98.4531 81.1926 96.5677 83.0936L90.875 78.8488V72.3436L81.4531 61.2134C83.5313 57.2967 88.1719 53.479 89.151 53.6874C90.1354 53.8957 87.3125 58.0884 89.8906 56.7238C92.4635 55.3592 99.8125 43.5988 103.37 43.8436C106.922 44.0936 98.7135 51.203 101.286 50.8332C102.615 50.6405 106.542 47.3332 110.677 44.4947L115.568 48.1405C111.01 51.6717 105.656 55.104 106.427 55.3592C107.901 55.854 114.031 51.9322 114.276 54.7499C114.521 57.5259 103.594 63.7499 103.255 63.9426Z" fill="#4CAF50"/>
<path d="M109.453 123.323C109.453 123.323 112.708 113.063 112.453 111.558C112.422 111.37 112.349 111.136 112.25 110.854L118.885 115.797C118.51 117.865 117.693 120.365 116.042 123.323C116.042 123.323 115.745 123.375 115.271 123.443C114.177 123.594 112.109 123.802 110.354 123.521C110.036 123.469 109.74 123.407 109.453 123.323Z" fill="#C41830"/>
<path d="M112.255 110.854L105.26 105.641C106.682 103.776 107.786 102.297 107.786 102.297C109.385 105.068 111.562 108.917 112.255 110.854Z" fill="#794426"/>
<path d="M97.2918 99.6924L105.261 105.64C103.985 107.307 102.448 109.286 101.224 110.797L101.057 110.718L93.7241 105.25C94.2762 104.364 94.922 103.338 95.6043 102.281C96.1564 101.416 96.7293 100.536 97.2918 99.6924Z" fill="#C41830"/>
<path d="M64.2759 29.4476C73.3644 23.7965 83.5884 18.1767 87.1144 17.3173C75.6717 15.8746 63.7603 22.1298 54.5467 29.4476H51.7603C58.6196 22.0465 68.0884 13.333 72.0675 11.7444C63.7967 11.6298 53.8332 16.984 44.8488 29.4476H40.2498C41.7759 24.7288 43.6509 20.5205 43.6509 20.5205C41.0571 21.1976 37.4061 24.5465 35.1613 29.4476H10.229C14.2707 18.7861 24.3853 22.4632 25.4842 24.8538C26.5884 19.333 30.8123 20.9319 32.4686 22.2496C31.7342 10.1403 42.5832 12.3486 44.9738 15.4736C44.9738 -4.38057 75.5988 -1.62016 77.7811 9.40588C83.9478 1.86422 92.8488 9.99443 88.5415 14.1871C94.4269 11.609 96.1353 16.208 94.3644 18.9632C99.6978 15.8382 106.245 21.9267 104.354 28.6715C103.724 28.833 103.109 29.1142 102.573 29.5361L102.5 29.4423H86.2655C77.2082 25.3903 60.5571 31.8486 48.8019 40.4371C50.8123 38.2444 57.1925 33.8434 64.2759 29.4476Z" fill="#87AAD2"/>
<path d="M102.177 38.1566H85.479C87.1978 33.6253 90.0103 31.6826 92.7655 31.1357L102.177 38.1566Z" fill="#87AAD2"/>
<path d="M101.057 110.719L101.224 110.797C100.281 111.948 99.5209 112.818 99.1928 113.063C97.9428 113.979 83.9271 120.235 79.4167 120.901C79.0261 120.61 78.5886 119.948 78.3074 119.11C77.9896 118.167 77.8751 117.011 78.2344 115.927C78.3021 115.719 78.3907 115.516 78.5001 115.313C78.5001 115.313 84.0053 110.136 92.2657 107.719C92.5105 107.261 93.0365 106.37 93.724 105.245L101.057 110.719Z" fill="#C41830"/>
<path d="M90.875 78.8486L96.5677 83.0934C95.0625 84.609 92.8594 85.9476 90.875 86.5205V78.8486Z" fill="#4CAF50"/>
<path d="M90.8748 86.5205V102.229H89.6769L85.9634 99.458V78.5309H75.4269V102.229H60.1665C60.5675 100.677 60.4894 98.9007 59.0103 98.1507V72.3486H64.6821L71.4425 64.3643L90.8748 78.8538V86.5205Z" fill="#87AAD2"/>
<path d="M90.8752 72.3434V78.8486L71.4429 64.359L77.7814 56.8799L81.4533 61.2132L90.8752 72.3434Z" fill="#87AAD2"/>
<path d="M93.7241 105.25L89.6772 102.229H95.5262L95.6043 102.282C94.922 103.339 94.2762 104.365 93.7241 105.25Z" fill="#794426"/>
<path d="M89.6769 102.229H85.9634V99.458L89.6769 102.229Z" fill="#87AAD2"/>
<path d="M86.2656 29.4481C86.7552 29.6668 87.224 29.9168 87.6719 30.1981C76.1094 31.521 51.724 41.2762 48.5208 43.3648C64.9635 37.9377 78.8958 43.922 80.2865 48.6616C72.7917 45.9585 54.9063 45.4221 47.3385 46.3804L38.5156 39.797C40.5417 35.9116 42.6615 32.4689 44.849 29.4481C53.8333 16.9793 63.8021 11.6304 72.0677 11.745C68.0885 13.3335 58.6198 22.047 51.7604 29.4481C47.8073 33.7137 44.724 37.5418 44.0625 39.3283C46.8229 36.2241 50.4115 32.7241 54.5469 29.4481C63.7552 22.1304 75.6667 15.8752 87.1094 17.3179C83.5833 18.1773 73.3646 23.797 64.2708 29.4481C57.1927 33.8439 50.8125 38.245 48.7969 40.4377C60.5573 31.8543 77.2083 25.3908 86.2656 29.4481Z" fill="#4CAF50"/>
<path d="M75.4272 78.5312H85.9637V102.229H75.4272V78.5312Z" fill="#87AAD2"/>
<path d="M79.4166 120.901C78.8593 121 77.9999 122.343 77.5103 124.489C74.8749 123.755 76.3437 120.932 78.3072 119.114C78.5885 119.948 79.0312 120.614 79.4166 120.901Z" fill="#4CAF50"/>
<path d="M78.2395 115.927C77.8749 117.01 77.9947 118.166 78.3124 119.109C76.3437 120.932 74.8749 123.75 77.5103 124.489C77.0208 126.63 75.9166 127.979 74.8124 127.614C70.828 125.474 74.9999 116.953 78.2395 115.927Z" fill="#4CAF50"/>
<path d="M77.7811 56.8799L71.4425 64.359L61.4165 56.8799H77.7811Z" fill="#C41830"/>
<path d="M71.4425 64.359L64.6821 72.3434H49.13L37.9165 63.9736L43.9269 56.8799H61.4165L71.4425 64.359Z" fill="#C41830"/>
<path d="M64.8228 53.2604C62.6248 53.7396 59.8748 53.7813 56.9478 53.5521L48.4165 47.1875C56.9894 48.25 62.9738 50.9219 64.8228 53.2604Z" fill="#4CAF50"/>
<path d="M24.151 98.5311C28.2813 95.7758 32.0313 94.2446 34.7292 93.6456C36.3958 93.2706 37.6562 93.255 38.3542 93.5206C40.1146 94.2029 36.7188 96.8696 36.5469 97.005C42.0938 94.5311 46.4688 94.3748 43.5052 96.8644C47.4063 95.4738 48.5208 96.8644 48.099 97.8436C52.5573 95.0519 55.4844 95.3331 54.3021 98.2602C56.5833 97.6092 58.0781 97.6769 59.0104 98.1509C60.4844 98.9009 60.5625 100.672 60.1615 102.229C59.8958 103.255 59.4271 104.187 59.0104 104.666L22.724 104.932L2.125 105.088C3.75 100.609 6.73438 96.3956 8.98438 94.3279V94.3227C11.349 92.1508 12.8958 92.354 11.1771 97.1456C12.7083 95.8748 14.1354 94.7654 15.4635 93.8019V93.7967C25.9427 86.1821 30.4063 87.4321 31.4688 88.2498C33.6563 89.9217 24.4635 98.2498 24.151 98.5311Z" fill="#4CAF50"/>
<path d="M48.4114 47.1826L56.9479 53.5472C49.2396 52.943 40.2812 50.4639 36.7969 49.1722C36.2344 48.9691 35.8125 48.792 35.5625 48.6618C33.3542 44.1462 32.8229 39.792 33.3125 35.917L38.3489 39.6774C38.3594 39.7972 38.3802 39.9118 38.3958 40.0212C38.4375 39.9482 38.4739 39.8753 38.5156 39.7972L47.3385 46.3805C46.3229 46.516 45.4948 46.6722 44.901 46.8493C46.1146 46.9326 47.2864 47.042 48.4114 47.1826Z" fill="#4CAF50"/>
<path d="M37.9167 63.9736L49.1302 72.3434H30.8281L37.9167 63.9736Z" fill="#C41830"/>
<path d="M44.9741 77.6719V84.1094H44.7918L38.5366 79.4375V77.6719H44.9741Z" fill="#794426"/>
<path d="M44.9738 84.1094V77.6719H38.5363V84.1094H44.9738ZM34.729 76.6042V72.3438H59.0103V98.151C58.078 97.6771 56.5884 97.6094 54.3019 98.2604C55.4894 95.3333 52.5623 95.0521 48.104 97.8438C48.5207 96.8646 47.4061 95.474 43.5103 96.8646C46.4686 94.375 42.0988 94.5313 36.5519 97.0052C36.7186 96.8698 40.1196 94.2031 38.354 93.5208C37.6613 93.2552 36.4009 93.2708 34.7342 93.6458V76.6042H34.729Z" fill="#87AAD2"/>
<path d="M44.7918 84.1094H38.5366V79.4375L44.7918 84.1094Z" fill="#794426"/>
<path d="M35.1615 29.4476C37.401 24.5465 41.0573 21.1976 43.651 20.5205C43.651 20.5205 41.776 24.7288 40.25 29.4476C39.0521 33.1351 38.0677 37.1403 38.349 39.6768L33.3125 35.9163C33.6042 33.5622 34.2708 31.3851 35.1615 29.4476Z" fill="#4CAF50"/>
<path d="M35.5623 48.6611C35.8123 48.7913 36.2342 48.9684 36.7967 49.1715C30.3175 55.9736 25.9686 62.1143 22.9634 67.8278L20.8853 66.2757C25.8123 58.307 31.3384 51.4476 35.5623 48.6611Z" fill="#4CAF50"/>
<path d="M20.8802 66.2764L22.9583 67.8285C17.9583 77.3285 16.6719 85.641 15.4635 93.7972V93.8024C14.1354 94.766 12.7083 95.8753 11.1771 97.1462C12.8958 92.3597 11.349 92.1514 8.98438 94.3232C10.0208 86.7035 15.0313 75.7139 20.8802 66.2764Z" fill="#4CAF50"/>
<path d="M60.1874 54.0365C59.1718 54.0365 58.0833 53.9948 56.9218 53.901C48.9166 53.2708 39.8228 50.6667 36.677 49.5104C36.1093 49.3021 35.6666 49.1146 35.3957 48.974L35.2968 48.9219L35.2447 48.8177C33.177 44.599 32.4114 40.2448 32.953 35.875C33.2343 33.6094 33.8697 31.401 34.8332 29.3021C37.276 23.9635 41.0676 20.8333 43.552 20.1771L44.2655 19.9896L43.9635 20.6615C43.9478 20.7031 42.0833 24.9115 40.5832 29.5521C39.3072 33.4948 38.6458 36.6458 38.651 38.7656C40.5103 35.2969 42.4895 32.0937 44.5572 29.2344C52.8228 17.7708 62.8489 11.2656 72.0676 11.3854L73.8437 11.4115L72.1978 12.0677C68.3593 13.6042 58.9218 22.2292 52.0155 29.6823C49.5364 32.3646 47.5572 34.6875 46.2187 36.4844C48.302 34.349 51.026 31.7812 54.3228 29.1667C68.9999 17.5052 80.2812 16.0937 87.1562 16.9583L89.0624 17.1979L87.1926 17.651C83.4791 18.5625 72.802 24.5521 64.4583 29.7396L64.0833 29.1406C71.4791 24.5521 80.703 19.3229 85.3905 17.5104C78.552 17.1042 68.1041 19.1302 54.7708 29.724C50.0208 33.4948 46.4687 37.151 44.328 39.5625L43.078 40.9687L43.7291 39.2031C44.3645 37.5 47.1926 33.8542 51.4999 29.2031C57.651 22.5625 65.9166 14.8385 70.5051 12.1354C61.953 12.7292 52.7968 19.0208 45.1301 29.651C42.9166 32.7135 40.7916 36.1875 38.8228 39.9583L38.2082 41.125L38.0416 40.0781C38.0207 39.9583 37.9999 39.8333 37.9895 39.7083C37.7447 37.5104 38.3905 34.0156 39.9062 29.3385C41.0468 25.8125 42.3905 22.5417 42.9947 21.1198C40.6353 22.1302 37.4999 25.1719 35.4739 29.5938C34.5416 31.625 33.927 33.7656 33.6562 35.9635C33.1301 40.1562 33.8593 44.3385 35.8228 48.3958C36.0728 48.5208 36.4478 48.6719 36.9114 48.8438C40.0364 49.9948 49.0416 52.5729 56.9687 53.1979C59.8228 53.4219 62.2291 53.3646 64.1353 53.0312C62.0468 50.9531 56.5676 48.5573 48.3593 47.5365C47.203 47.3906 46.026 47.2812 44.8697 47.2031L42.9322 47.0729L44.7864 46.5156C45.3853 46.3333 46.2291 46.1667 47.2812 46.0312C54.8385 45.0781 71.8801 45.6406 79.6405 48.0781C78.9791 46.8854 77.5208 45.651 75.5051 44.5938C69.9791 41.6927 60.0155 39.9375 48.6197 43.7031L46.0364 44.5573L48.3124 43.0729C51.6405 40.901 74.8228 31.724 86.5624 29.9896C86.4114 29.9167 86.2603 29.8437 86.1041 29.776C79.2916 26.724 64.3593 29.5052 48.9947 40.7292L48.526 40.2031C50.3853 38.1719 56.1978 34.0365 64.0676 29.1458L64.4426 29.75C60.6666 32.0937 57.3749 34.2604 54.7708 36.099C65.703 29.6667 78.677 25.6719 86.3905 29.125C86.8958 29.349 87.3801 29.6094 87.8437 29.901L88.6874 30.4375L87.6926 30.5521C78.3176 31.625 59.8853 38.4635 52.0103 42C62.0937 39.5885 70.7708 41.3125 75.8333 43.9635C78.4478 45.3333 80.1458 46.9635 80.6093 48.5625L80.8072 49.2292L80.1458 48.9948C72.9114 46.3802 55.2708 45.75 47.4739 46.7188C47.7968 46.75 48.1145 46.7865 48.4374 46.8281C57.4322 47.9479 63.2812 50.7552 65.0833 53.0365L65.4374 53.4792L64.8853 53.599C63.578 53.8906 62.0051 54.0365 60.1874 54.0365Z" fill="black"/>
<path d="M64.8438 72.6982H30.0625L43.7604 56.5264H78.5417L64.8438 72.6982ZM31.5938 71.9899H64.5156L77.0156 57.2347H44.0885L31.5938 71.9899Z" fill="black"/>
<path d="M91.2238 102.11H90.5155V72.4743L77.5103 57.1097L78.0467 56.6514L91.2238 72.2139V102.11Z" fill="black"/>
<path d="M58.6616 72.3438H59.37V98.151H58.6616V72.3438Z" fill="black"/>
<path d="M34.375 72.3438H35.0833V93.7969H34.375V72.3438Z" fill="black"/>
<path d="M1.625 105.442L1.79688 104.963C3.48438 100.312 6.58333 96.0518 8.75 94.0674L9.22917 94.5882C7.19792 96.4528 4.32292 100.38 2.64583 104.729L58.8438 104.317C59.1771 103.88 59.5833 103.078 59.8229 102.14C60.0417 101.291 60.3906 99.2445 58.8542 98.4632C57.9063 97.9788 56.4063 98.0257 54.401 98.5986L53.7083 98.7965L53.974 98.1247C54.1615 97.6715 54.401 96.8538 53.9688 96.4893C53.349 95.9632 51.3073 96.2601 48.2917 98.1403L47.3385 98.7393L47.7812 97.6976C47.8802 97.4632 47.8385 97.2184 47.6615 97.0309C47.2292 96.5674 45.9427 96.3695 43.6302 97.1976L41.776 97.859L43.2812 96.5882C44.151 95.859 44.1094 95.583 44.1094 95.5778C43.8854 95.2132 41.1042 95.3695 36.75 97.2965L36.6927 97.3538H36.5417V96.9997L36.3021 96.7445L36.4167 96.6976L36.4062 96.6715C39.9948 95.0778 43.9948 94.057 44.7135 95.1976C44.901 95.4997 44.8281 95.833 44.6458 96.1403C46.8438 95.6038 47.7917 96.1299 48.1771 96.5465C48.3542 96.7288 48.4688 96.9476 48.5156 97.1715C51.2552 95.5778 53.4375 95.109 54.4271 95.9372C54.7708 96.2236 55.0833 96.7601 54.849 97.7445C56.724 97.2913 58.1823 97.3174 59.1771 97.8278C60.5781 98.5413 61.0677 100.177 60.5104 102.312C60.2552 103.317 59.7708 104.333 59.2917 104.896L59.1823 105.015H59.0208L1.625 105.442Z" fill="black"/>
<path d="M24.349 98.8224L24.1875 98.5828L23.8906 98.2859L23.9844 98.2182C28.9531 94.9057 32.8021 93.7182 34.651 93.3068C36.3281 92.9318 37.6823 92.8901 38.4792 93.1922C39.0052 93.3953 39.1615 93.7443 39.1979 93.9995C39.3646 95.0932 37.5573 96.6557 36.7708 97.2755L36.3281 96.7234C37.6615 95.6713 38.5677 94.5724 38.5 94.1036C38.4896 94.062 38.474 93.9526 38.224 93.8536C37.5677 93.6088 36.3229 93.6557 34.8021 93.9943C33.0052 94.3901 29.25 95.5568 24.349 98.8224Z" fill="black"/>
<path d="M24.3957 98.7865L23.9165 98.2657C26.5623 95.8646 31.5259 90.8386 31.4478 88.9427C31.4373 88.698 31.3332 88.5834 31.255 88.5261C31.0988 88.4063 27.2603 85.6615 15.6717 94.0834L15.2603 93.5105C19.8123 90.2032 23.7342 88.1875 26.9269 87.5157C29.9634 86.8802 31.3384 87.698 31.6873 87.9636C31.979 88.1875 32.1405 88.5157 32.1561 88.9167C32.2655 91.5105 25.7134 97.5886 24.3957 98.7865Z" fill="black"/>
<path d="M10.4113 98.2447L10.8488 97.026C11.9738 93.8958 11.4425 93.4322 11.38 93.3905C11.2082 93.276 10.5363 93.3801 9.2238 94.5885L8.74463 94.0676C10.1196 92.8072 11.1353 92.3801 11.7707 92.802C12.38 93.203 12.4217 94.2916 11.8957 96.0989C13.0467 95.1666 14.1717 94.302 15.255 93.5155L15.6717 94.0885C14.3071 95.078 12.8696 96.1978 11.4009 97.4166L10.4113 98.2447Z" fill="black"/>
<path d="M45.3228 84.458H38.1821V77.3174H45.3228V84.458ZM38.8905 83.7497H44.6144V78.0257H38.8905V83.7497Z" fill="black"/>
<path d="M86.3231 102.229H85.6095V78.8851H75.7814V102.229H75.0679V78.1768H86.3231V102.229Z" fill="black"/>
<path d="M90.5835 86.9692L90.4272 86.2765C90.5418 86.2505 90.6564 86.2192 90.771 86.1828C92.672 85.6359 94.8491 84.3286 96.3179 82.8442C97.5262 81.6255 98.1304 80.4328 98.021 79.4901C97.9533 78.8963 97.5835 78.3807 96.9325 77.9745L96.1252 77.464L97.0679 77.3234C100.443 76.813 103.333 74.4172 104.078 72.4901C104.245 72.0578 104.375 71.464 104.042 71.0578C103.656 70.5786 102.698 70.4432 101.349 70.6672L99.7085 70.9432L101.094 70.0265C103.292 68.5682 109.182 64.4849 110.052 63.0317C110.333 62.563 110.349 62.3026 110.276 62.2245C110.198 62.1359 109.354 61.4692 103.458 64.2401L103.401 64.2974L103.25 64.3026V63.9484L103.005 63.6932L103.12 63.6463L103.11 63.6255C109.693 60.5213 110.531 61.4432 110.807 61.7453C111.146 62.1203 111.099 62.6724 110.667 63.3963C109.781 64.8703 104.875 68.313 102.615 69.8547C103.537 69.8703 104.203 70.1255 104.599 70.6099C105.026 71.1359 105.073 71.8911 104.745 72.7505C103.969 74.7505 101.281 77.1047 97.9585 77.8755C98.4012 78.313 98.6616 78.8286 98.7293 79.412C98.9012 80.9015 97.7866 82.3755 96.8231 83.3494C95.2502 84.9328 93.0054 86.2765 90.9793 86.8599C90.8439 86.8963 90.7137 86.938 90.5835 86.9692Z" fill="black"/>
<path d="M103.422 64.2501L103.078 63.6304C107.36 61.2241 114.089 56.6876 113.922 54.7814C113.891 54.4168 113.75 54.2866 113.641 54.2189C112.953 53.7762 111.083 54.4481 109.583 54.9897C107.969 55.5678 106.948 55.9116 106.318 55.6981C106.146 55.6408 106.031 55.5054 106.005 55.3439C105.922 54.8126 106.75 54.1616 110.62 51.3647C112.104 50.297 113.776 49.0835 115.354 47.8647C119.391 44.7449 121.375 42.6251 121.25 41.5574C121.235 41.4012 121.162 41.172 120.745 40.9793C118.422 39.9116 114 42.6408 110.88 44.7866C109.469 45.7553 108.063 46.797 106.818 47.7137C104.198 49.646 102.302 51.047 101.333 51.1824C100.922 51.2449 100.646 51.146 100.505 50.9064C100.193 50.3856 100.755 49.5887 101.943 47.9845C102.823 46.797 104.156 45.0001 103.891 44.4168C103.818 44.2606 103.552 44.2085 103.344 44.1928C103.313 44.1928 103.281 44.1928 103.25 44.1928C101.224 44.1928 97.6356 48.5418 94.745 52.0522C92.7918 54.4272 91.0991 56.4741 90.0522 57.0314C89.5991 57.2658 89.0314 57.5054 88.6564 57.1929C88.2189 56.8283 88.4533 56.0679 88.7345 55.1876C88.8491 54.8283 89.0262 54.2501 89.0158 54.0262C88.146 54.0835 83.8595 57.422 81.7606 61.3751L81.1304 61.047C83.12 57.3022 87.8595 53.0418 89.2241 53.3387C89.396 53.3751 89.5314 53.4741 89.62 53.6251C89.8439 54.0158 89.6408 54.6564 89.4064 55.4064C89.297 55.7658 89.0939 56.4168 89.12 56.6408C89.1929 56.6304 89.3647 56.5939 89.7189 56.4116C90.6408 55.922 92.37 53.8231 94.1981 51.6043C97.3908 47.7241 101.011 43.3335 103.386 43.4897C103.969 43.5314 104.354 43.7449 104.526 44.1199C104.938 45.021 103.995 46.4012 102.505 48.4116C101.964 49.1356 101.25 50.0991 101.136 50.4897C101.162 50.4897 101.193 50.4845 101.224 50.4793C102.016 50.3647 104.141 48.8022 106.391 47.1408C107.641 46.2189 109.052 45.1772 110.474 44.2033C115.735 40.5835 118.99 39.3908 121.037 40.3335C121.724 40.6512 121.912 41.1251 121.948 41.4689C122.104 42.8595 120.203 45.0001 115.776 48.422C114.188 49.646 112.511 50.8595 111.026 51.9324C109.333 53.1616 107.589 54.422 106.943 55.0366C107.526 54.9689 108.474 54.6251 109.333 54.3179C111.151 53.6616 113.031 52.9845 114.016 53.6147C114.375 53.8439 114.578 54.2137 114.62 54.7137C114.735 56.021 112.953 57.9481 109.177 60.5991C106.37 62.5835 103.458 64.2345 103.422 64.2501Z" fill="black"/>
<path d="M108.636 96.2764C106.151 96.2764 103.349 95.9951 100.703 95.0993C100.281 94.9535 99.9064 94.8128 99.5575 94.667L99.1929 94.516L99.3856 94.167C99.422 94.1045 102.943 87.7816 107.422 82.3597C111.12 77.8857 114.422 75.2555 117.245 74.5472C117.755 74.4222 118.245 74.3076 118.708 74.2087C121.136 73.7087 122.453 73.7503 123.698 73.8389L124.146 73.8753C125.151 73.9482 126.193 74.0212 127.823 73.8701C130.031 73.6618 132.99 73.0524 136.86 72.0003L137.047 71.9482L137.188 72.0785C137.474 72.3389 137.729 72.6618 137.948 73.042C138.458 73.9014 138.833 75.0837 139.068 76.5576C139.235 77.6514 139.266 78.4795 139.266 78.516L139.271 78.7191L139.099 78.8285C137.266 79.9587 131.354 80.9274 126.313 81.3805L126.255 81.3857C125.958 81.4066 125.662 81.4326 125.365 81.4587L125.339 81.4639C124.724 83.417 122.745 86.7347 119.448 91.3337C118.531 92.6097 117.547 93.9378 116.521 95.2816L116.443 95.3805L116.328 95.4118C116.307 95.417 115.88 95.5264 115.13 95.667C113.818 95.917 111.427 96.2764 108.636 96.2764ZM100.203 94.1618C100.427 94.2503 100.672 94.3389 100.932 94.4274C106.396 96.2764 112.589 95.4274 114.995 94.9743C115.5 94.8857 115.86 94.8024 116.031 94.7607C117.026 93.4535 117.979 92.167 118.87 90.9274C121.927 86.6566 123.886 83.4274 124.573 81.5264C122.047 81.7035 117.115 81.9378 115.255 81.2191L115.505 80.5576C116.766 81.042 120.198 81.1305 124.714 80.8024L125.042 80.7816C125.427 80.7503 125.813 80.7191 126.198 80.6878L126.25 80.6826C131.901 80.1722 136.87 79.2191 138.547 78.3337C138.531 78.0212 138.485 77.4066 138.365 76.6774C138.151 75.3076 137.792 74.1774 137.339 73.4014C137.188 73.1462 137.026 72.9222 136.849 72.7399C133.031 73.7712 130.099 74.3701 127.891 74.5785C126.198 74.7347 125.125 74.6566 124.089 74.5785L123.641 74.5472C122.453 74.4587 121.188 74.4222 118.849 74.9066C118.401 75.0003 117.917 75.1097 117.417 75.2399C114.75 75.9066 111.568 78.4587 107.964 82.8076C104.13 87.4535 101 92.766 100.203 94.1618Z" fill="black"/>
<path d="M112.313 124.005C111.641 124.005 110.948 123.968 110.297 123.864C109.958 123.812 109.646 123.744 109.349 123.656L109.005 123.557L109.115 123.208C110.412 119.114 112.281 112.651 112.104 111.614C112.078 111.458 112.021 111.244 111.922 110.963C111.281 109.172 109.297 105.63 107.745 102.937C107.318 103.51 106.5 104.593 105.542 105.854C104.422 107.317 102.818 109.406 101.495 111.015C100.417 112.333 99.7345 113.093 99.3959 113.343C98.1407 114.26 84.1043 120.562 79.4689 121.244L79.323 121.271L79.2032 121.182C78.7345 120.833 78.2605 120.078 77.9689 119.224C77.5782 118.062 77.5522 116.849 77.8959 115.817C77.9689 115.593 78.0678 115.364 78.1876 115.146L78.2189 115.093L78.2605 115.057C78.3178 115 83.8595 109.854 92.0262 107.422C92.2918 106.937 92.7814 106.109 93.4272 105.067C94.0105 104.125 94.6616 103.093 95.3074 102.088C95.8959 101.177 96.4584 100.302 97.0001 99.4997C98.0053 97.9788 99.8074 95.3174 100.563 94.5205L101.073 95.0101C100.547 95.5622 99.2762 97.3434 97.5834 99.8903C97.0522 100.692 96.4845 101.562 95.9012 102.474C95.2605 103.474 94.6095 104.5 94.0262 105.437C93.3334 106.573 92.8178 107.442 92.5834 107.89L92.5105 108.021L92.3647 108.062C84.6564 110.317 79.3074 115.057 78.7814 115.536C78.698 115.703 78.6251 115.869 78.5678 116.041C78.1668 117.244 78.4428 118.411 78.6407 119.005C78.8959 119.765 79.2501 120.281 79.5157 120.531C84.0834 119.76 97.7762 113.656 98.9741 112.781C99.1355 112.661 99.5991 112.218 100.943 110.573C102.255 108.968 103.859 106.89 104.969 105.427C106.391 103.567 107.495 102.093 107.495 102.093L107.813 101.661L108.083 102.13C109.813 105.125 111.891 108.807 112.578 110.739C112.693 111.062 112.766 111.307 112.797 111.505C113.031 112.937 110.526 121.062 109.891 123.078C110.052 123.114 110.219 123.146 110.396 123.172C112.104 123.442 114.146 123.244 115.214 123.099C115.474 123.062 115.677 123.031 115.807 123.005C117.198 120.489 118.115 118.047 118.526 115.739C118.99 113.14 118.729 111.213 118.552 109.932C118.474 109.364 118.417 108.911 118.432 108.547C118.453 108.119 118.203 106.692 116.901 102.338C115.886 98.958 114.729 95.4788 114.719 95.4424L115.391 95.2184C115.401 95.2549 116.563 98.7445 117.578 102.13C119.193 107.521 119.156 108.317 119.141 108.578C119.125 108.88 119.182 109.302 119.255 109.833C119.438 111.156 119.708 113.156 119.229 115.864C118.792 118.286 117.823 120.859 116.344 123.5L116.261 123.646L116.099 123.672C116.099 123.672 115.802 123.724 115.313 123.791C114.615 123.89 113.495 124.005 112.313 124.005Z" fill="black"/>
<path d="M150.396 102.583H116.985L116.912 102.333C116.844 102.109 116.823 102.041 118.583 100.145C119.271 99.4006 120.714 97.8798 122.573 96.0777L123.063 96.5881C120.63 98.9423 118.761 100.963 117.969 101.875H150.089C150.886 100.974 151.068 100.031 150.573 99.3277C149.912 98.3902 148.063 97.9579 145.797 98.9527L144.146 99.6818L145.401 98.385C146.412 97.3433 147.5 96.0048 147.578 95.6089C146.875 94.7183 144.287 95.4995 140.255 97.8277V97.9787H139.896V97.6245L139.542 97.6193V97.4214L139.719 97.3173C146.078 93.6193 147.599 94.3693 148.198 95.26C148.302 95.4214 148.594 95.8589 146.86 97.8433C148.922 97.3485 150.485 97.9787 151.146 98.9214C151.875 99.9475 151.625 101.276 150.495 102.474L150.396 102.583Z" fill="black"/>
<path d="M140.177 97.8435L139.63 97.3956C142.13 94.3227 143.99 91.406 143.776 90.8956C143.724 90.8175 143.589 90.755 143.406 90.7237C141.964 90.4893 137.891 92.1039 131.115 97.4008L130.656 96.8643V96.8591C136.578 92.2289 141.375 89.6768 143.516 90.0258C144.005 90.1039 144.25 90.3331 144.365 90.505C145.062 91.5571 142.042 95.5571 140.177 97.8435Z" fill="black"/>
<path d="M131.13 97.3852L130.661 96.8592C132.63 95.1248 136.292 91.3279 136.052 89.3383C136 88.906 135.76 88.5831 135.312 88.3487C133.911 87.6092 129.974 90.1196 124.515 95.2133C124.021 95.6717 123.536 96.13 123.062 96.5883L122.573 96.0727C123.047 95.6144 123.536 95.1508 124.036 94.6873C129.974 89.1456 133.875 86.7967 135.646 87.7185C136.302 88.0675 136.682 88.5831 136.76 89.255C136.812 89.7342 136.812 92.3956 131.13 97.3852Z" fill="black"/>
<path d="M60.1665 101.875H95.5259V102.583H60.1665V101.875Z" fill="black"/>
<path d="M155.62 16.266L155.057 15.8337C158.943 10.8024 163.51 7.66178 167.911 6.98991L169.042 6.82324L168.208 7.59928C166.646 9.06283 164.463 11.9326 161.901 15.891L161.307 15.5055C163.515 12.0941 165.396 9.5472 166.901 7.91699C163.031 8.88574 159.062 11.8128 155.62 16.266Z" fill="black"/>
<path d="M124.344 70.2757L123.688 70.0049C125.146 66.5153 133.312 56.2601 139.573 50.0466C140.906 48.7184 142.068 47.6611 143.042 46.9007C138.828 44.5882 136.938 40.9059 135.88 38.2966L135.854 38.2288C134.427 34.6299 136.411 30.109 137.328 28.3278L137.859 27.307L137.995 28.4476C138.38 31.5778 139.693 35.6924 141.776 38.4893C139.964 33.8695 139.76 28.4788 141.276 23.6559C142.651 19.2705 145.323 15.8695 148.792 14.0882L149.885 13.5205L149.255 14.583C147.208 18.0257 146.495 28.6507 146.635 34.5934C148.229 27.4424 151.177 20.859 155.057 15.8382L155.62 16.2757C151.318 21.8382 148.188 29.3538 146.802 37.4424L146.385 39.8643L146.099 37.4216C145.859 35.3643 145.823 30.7132 146.219 25.8018C146.448 22.958 146.984 18.1351 148.135 15.2861C145.313 17.0882 143.141 20.0986 141.953 23.8747C140.26 29.2601 140.781 35.3695 143.349 40.2288L144.24 41.9059L142.807 40.6611C139.974 38.1976 138.151 33.5674 137.464 29.6768C136.547 31.7445 135.391 35.2341 136.536 38.0257L136.557 38.0934C138.24 42.1976 140.557 44.8799 143.854 46.5309L144.37 46.7913L143.906 47.1299C142.88 47.8851 141.589 49.0361 140.068 50.5518C133.979 56.5934 125.745 66.9216 124.344 70.2757Z" fill="black"/>
<path d="M128.193 74.3434L127.526 74.1038L127.667 73.7028C128.781 70.5674 132.161 61.0101 141.411 51.4268C142.75 50.0361 144.172 48.6976 145.62 47.4372L145.682 47.3799L145.765 47.3591C149.349 46.4841 159.213 48.8122 163.307 50.5205C161.437 47.1976 155.625 45.7757 152.161 45.2132L152.208 44.5101C152.364 44.5049 167.26 44.1143 172.333 43.4997C166.974 38.8538 160.656 40.0205 154.542 41.1559L152.609 41.5153L153.713 40.6299C154.583 39.9372 156.625 38.7236 158.187 37.8226C163.088 35.0153 169.927 31.4893 173.484 30.0882C167.609 28.5674 159.901 31.8695 153.51 38.7393L151.917 40.4528L152.932 38.3434C153.765 36.6143 160.943 28.2965 166.864 21.9111C170.542 17.9372 173.573 14.8851 175.552 13.1507C172.036 13.6611 168.39 15.5309 164.698 18.7288C158.948 23.6872 153.974 31.0778 150.281 36.9632L148.614 39.6195L149.646 36.6559C150.583 33.9632 156.187 23.4163 161.312 15.5101L161.906 15.8903C158.51 21.1351 154.807 27.7236 152.489 32.2341C155.786 27.3122 159.771 22.0361 164.229 18.1872C168.443 14.5465 172.614 12.5726 176.635 12.3226L177.755 12.2549L176.88 12.9528C175.021 14.4424 171.646 17.7913 167.385 22.3903C163.042 27.083 158.656 32.0934 156.015 35.3486C162.302 29.958 169.354 27.7653 174.719 29.7288L175.677 30.083L174.708 30.4007C171.63 31.4059 163.927 35.3591 158.552 38.4424C157.312 39.1559 156.286 39.7653 155.515 40.2601C161.672 39.1351 167.969 38.3174 173.385 43.4945L173.896 43.9841L173.198 44.0986C170.073 44.6091 160.318 44.9736 155.281 45.1351C158.969 46.057 163.255 47.8226 164.354 51.1247L164.63 51.9424L163.859 51.5466C162.265 50.7288 158.672 49.6195 155.125 48.8486C151.01 47.9528 147.703 47.6559 146.031 48.0309C144.614 49.2601 143.239 50.5674 141.927 51.9163C132.792 61.3955 129.443 70.8382 128.344 73.9424L128.193 74.3434Z" fill="black"/>
<path d="M138.755 76.9689L138.677 76.2658C140.927 76.0262 144.016 74.8752 144.464 74.1512C144.094 74.1304 143.24 74.3387 142.802 74.4429C142.61 74.4846 142.438 74.5262 142.281 74.5575L142.229 74.5679L142.188 74.3179L142.047 73.8856L142.115 73.87C142.266 73.8387 142.443 73.7971 142.636 73.7502C143.896 73.4481 144.688 73.2918 145.052 73.6356C145.193 73.7658 145.245 73.9481 145.208 74.146C144.958 75.5835 140.573 76.7762 138.755 76.9689Z" fill="black"/>
<path d="M142.307 74.5518L142.083 73.8799C142.51 73.7393 144.135 72.7914 144.464 72.3278C144.135 72.2914 143.286 72.406 142.047 72.8799L141.995 72.932L141.839 72.9372V72.583L141.578 72.3435L141.724 72.2757L141.714 72.2497C142.307 72.0205 144.297 71.307 144.979 71.7705C145.135 71.8747 145.224 72.0362 145.224 72.2237C145.224 73.2549 142.333 74.5466 142.307 74.5518Z" fill="black"/>
<path d="M138.802 73.2661L139.104 72.2504C139.38 71.3077 139.531 70.3181 139.458 69.99C139.125 70.1619 138.193 71.2296 137.995 73.2608L137.287 73.2244C137.511 70.9379 138.62 69.4744 139.339 69.2869C139.604 69.2088 139.86 69.2973 140.011 69.5056C140.281 69.8911 140.177 70.7765 140.016 71.5317C141.771 70.4483 143.266 70.2608 143.865 70.4275C144.151 70.5108 144.271 70.6671 144.318 70.7869C144.406 71.0004 144.604 71.4952 142.005 72.8963L141.672 72.2713C142.36 71.9015 143.162 71.3858 143.5 71.0838C142.912 71.0473 141.365 71.3546 139.651 72.6358L138.802 73.2661Z" fill="black"/>
<path d="M35.2342 29.8021H9.71338L9.89567 29.3229C12.2707 23.0573 16.5936 21.9844 18.953 21.901C21.6509 21.8073 24.1873 22.8437 25.3175 24.0208C25.7967 22.3385 26.6405 21.2708 27.8384 20.8281C29.354 20.276 31.0207 20.8958 32.0884 21.5469C32.0103 18.3021 32.7655 14.4583 36.4165 13.0937C39.2082 12.0573 42.8071 13.0104 44.6353 14.6041C45.005 6.67706 50.479 1.46352 59.4321 0.583312C67.1717 -0.177104 76.203 2.88539 77.9582 8.65623C80.6144 5.7656 83.3957 5.80206 84.854 6.09373C87.1926 6.56769 89.2446 8.33331 89.8488 10.3906C90.1665 11.4739 90.0623 12.5156 89.5676 13.4219C91.7186 12.7656 93.4946 13.0573 94.5363 14.276C95.4061 15.2969 95.604 16.8229 95.1248 18.2031C97.2655 17.3594 99.6405 17.7448 101.651 19.2916C103.984 21.0937 105.828 24.7187 104.693 28.7656L104.01 28.5729C105.057 24.8489 103.359 21.5104 101.213 19.8541C99.1405 18.2552 96.6457 18.0364 94.5363 19.2708L93.2603 20.0208L94.0623 18.776C94.9009 17.4687 94.8748 15.7708 93.9946 14.7448C92.9842 13.5625 91.0519 13.4791 88.6821 14.5156L86.8957 15.2969L88.2915 13.9323C89.2238 13.026 89.5311 11.8437 89.1717 10.5989C88.6353 8.78644 86.8071 7.21873 84.7134 6.79685C82.3123 6.30727 79.9426 7.31769 78.0519 9.6354L77.578 10.2187L77.4321 9.47915C76.4998 4.77081 69.0728 0.359353 59.4946 1.29685C50.6196 2.16665 45.3175 7.46873 45.3175 15.4791V16.5208L44.6821 15.6927C43.5207 14.1666 39.7238 12.6198 36.6613 13.7604C34.7186 14.4896 32.4738 16.5416 32.8175 22.2291L32.8696 23.0208L32.2498 22.526C31.1925 21.6823 29.4321 21.0052 28.0832 21.5C26.9634 21.9114 26.203 23.0625 25.8332 24.9219L25.6196 25.9896L25.1613 25.0052C24.6769 23.9583 22.0259 22.5052 18.979 22.6146C16.38 22.7083 12.8853 23.9219 10.7446 29.0989H35.229V29.8021H35.2342Z" fill="black"/>
<path d="M164.146 18.6149C163.615 17.542 162.63 16.5941 161.453 16.0212L161.766 15.3857C163.083 16.0264 164.182 17.0941 164.781 18.3024L164.146 18.6149Z" fill="black"/>
<path d="M178.073 38.5104H158.385V37.8021H177.693C179.62 34.7552 178.614 31.401 176.724 29.401C175.187 27.7708 172.453 26.4219 169.792 27.9896L168.51 28.7396L169.312 27.4948C170.005 26.4115 170.114 24.9896 169.578 23.9531C169.255 23.3281 168.562 22.5729 167.104 22.5052L167.135 21.7969C168.536 21.8594 169.63 22.5104 170.208 23.6302C170.719 24.6094 170.765 25.8281 170.37 26.9375C172.932 26 175.594 27.1719 177.239 28.9167C179.354 31.151 180.458 34.9427 178.177 38.3542L178.073 38.5104Z" fill="black"/>
<path d="M136.208 38.5101H84.9634L85.1457 38.0309C87.0884 32.9007 90.3228 31.2601 92.6925 30.7861C95.8592 30.1559 99.0467 31.3017 100.443 32.6194C100.687 30.8851 101.583 29.8486 102.349 29.2601C102.901 28.8278 103.562 28.5049 104.26 28.3278C105.713 27.9632 107.177 28.2392 108.14 28.9944C108.068 23.8434 110.094 21.9684 111.864 21.3069C114.625 20.2809 118.114 21.6872 119.885 23.3122C120.255 15.3903 125.724 10.1819 134.677 9.30694C142.422 8.54653 151.453 11.609 153.208 17.3799C153.765 16.7757 154.359 16.2705 154.979 15.8642V15.7028H155.338V16.0569L155.687 16.0622V16.2601L155.521 16.3642C154.734 16.8486 153.984 17.5205 153.302 18.3486L152.828 18.9319L152.682 18.1924C151.75 13.484 144.323 9.07778 134.75 10.0153C125.87 10.8799 120.573 16.1819 120.573 24.1924V25.2392L119.937 24.4059C118.672 22.7497 114.906 20.9372 112.114 21.9736C109.739 22.8538 108.625 25.6038 108.885 29.9215L108.969 31.2913L108.234 30.1299C107.568 29.0778 106.005 28.6247 104.432 29.0205C103.828 29.1715 103.255 29.4476 102.776 29.8174C102.005 30.4111 101.088 31.5465 101.083 33.5674L101.078 35.1715L100.406 33.7132C99.8644 32.5361 96.4946 30.7549 92.828 31.484C90.7082 31.9059 87.8384 33.3538 85.9946 37.8017H136.203V38.5101H136.208Z" fill="black"/>
<path d="M75.1772 128.032C75.0157 128.032 74.8595 128.006 74.7032 127.953L74.6459 127.927C73.2918 127.198 72.6772 125.771 72.8595 123.802C73.1772 120.459 75.8387 116.313 78.1303 115.589L78.3439 116.266C76.3126 116.907 73.8543 120.818 73.5626 123.87C73.4532 125.021 73.6095 126.547 74.9532 127.292C75.1772 127.354 75.3959 127.323 75.6251 127.193C76.2762 126.828 76.8491 125.787 77.1668 124.412C77.6512 122.292 78.5522 120.698 79.3595 120.552L79.4845 121.25C79.2189 121.302 78.3699 122.323 77.8595 124.573C77.4897 126.167 76.8074 127.344 75.9741 127.813C75.7189 127.953 75.4428 128.032 75.1772 128.032Z" fill="black"/>
<path d="M77.4169 124.834C76.2867 124.516 75.9065 123.86 75.7919 123.365C75.4429 121.922 76.8023 120.032 78.0731 118.854L78.5523 119.375C77.1096 120.709 76.2554 122.287 76.4794 123.198C76.5888 123.657 76.9585 123.969 77.6044 124.151L77.4169 124.834Z" fill="black"/>
<path d="M121.99 128.636H108.5L108.562 128.229C108.599 127.99 108.693 127.625 108.844 127.078C109.271 125.589 110.01 123.422 110.016 123.401L110.688 123.631C110.677 123.651 109.943 125.802 109.521 127.271C109.448 127.532 109.391 127.75 109.344 127.927H121.224C121.198 127.756 121.141 127.532 121.057 127.302C120.797 126.594 120.349 126.183 119.719 126.073C119.234 125.99 114.969 125.183 114.917 123.453L115.625 123.443C115.646 124.094 117.542 124.969 119.844 125.375C120.724 125.532 121.375 126.115 121.724 127.058C121.958 127.683 121.979 128.256 121.979 128.276L121.99 128.636Z" fill="black"/>
<path d="M109.188 126.817H121.391V127.526H109.188V126.817Z" fill="black"/>
<path d="M170.443 83.2445L148.146 69.6768L167.787 50.2705L167.443 51.5361C167.063 52.9424 167.146 54.0882 167.698 54.9372C168.302 55.8643 169.479 56.4632 171.198 56.7288L171.781 56.8174L171.427 57.2913C170.016 59.1715 169.995 60.7393 170.229 61.7184C170.495 62.8278 171.214 63.7653 172.156 64.2393L172.583 64.4476L172.261 64.7966C170.735 66.4424 169.985 68.2861 170.162 69.9893C170.276 71.1663 170.844 72.1976 171.719 72.8226L172.136 73.1195L171.708 73.4059C169.87 74.6247 168.948 76.9007 168.693 78.6195C168.5 79.9163 168.656 81.0934 169.089 81.6143L170.443 83.2445ZM149.287 69.5466L168.031 80.9476C167.875 80.2757 167.854 79.432 167.99 78.5153C168.323 76.2757 169.406 74.2861 170.932 73.0986C170.104 72.3486 169.578 71.2653 169.453 70.0622C169.276 68.2757 169.979 66.3643 171.448 64.6507C170.516 64.0413 169.818 63.0413 169.542 61.8903C169.297 60.8434 169.287 59.234 170.537 57.333C168.906 56.9945 167.755 56.3226 167.11 55.3278C166.604 54.5518 166.417 53.609 166.542 52.4997L149.287 69.5466Z" fill="black"/>
<path d="M171.458 73.4632L146.771 69.6663L171.927 64.208L172.078 64.9007L150.662 69.5518L171.568 72.7653L171.458 73.4632Z" fill="black"/>
<path d="M144.088 71.2555L143.901 70.5732L148.583 69.2816L170.969 56.7764L171.318 57.391L148.854 69.9378L144.088 71.2555Z" fill="black"/>
<path d="M123.943 74.4219L123.573 74.1771L123.328 74.0885L123.38 73.9844C123.865 73.3229 123.974 72.4479 123.672 71.5885L123.583 71.3229L124.208 70.9219C124.052 70.7708 123.875 70.5677 123.719 70.3438C123.432 69.9167 123.307 69.5156 123.349 69.1406C123.365 69.0365 123.37 68.9219 123.359 68.8021L124.068 68.7656C124.078 68.9271 124.073 69.0885 124.052 69.2292C124.031 69.4219 124.115 69.6667 124.302 69.9427C124.589 70.3646 125.005 70.6875 125.005 70.6927L125.401 71.0052L124.427 71.6302C124.682 72.6042 124.526 73.5833 123.984 74.3646L123.943 74.4219Z" fill="black"/>
<path d="M118.552 74.8333C118.427 74.7292 118.307 74.5781 118.167 74.3542C117.865 73.849 117.531 72.9896 117.427 72.4167C116.927 72.349 116.521 72.0573 116.297 71.5938C116.021 71.0052 116.115 70.2917 116.521 69.8594C116.812 69.5573 117.245 69.3906 117.651 69.4115C118.021 69.4375 118.349 69.625 118.573 69.9427L118.635 70.026L118.667 70.7135L118.771 70.7083V69.4896L119.036 69.4219C120.042 69.1615 122.109 67.5156 122.385 66.599L122.526 66.1406L122.922 66.4062C123.661 66.8958 124.036 67.9688 124.068 68.7604L123.359 68.7917C123.338 68.2396 123.13 67.6667 122.838 67.2917C122.182 68.3802 120.516 69.625 119.479 70.0208V71.3958L117.99 71.4427L117.932 70.2865C117.844 70.1823 117.729 70.1302 117.599 70.1198C117.406 70.1094 117.177 70.1979 117.036 70.3542C116.828 70.5677 116.786 70.974 116.932 71.2917C117.036 71.5052 117.25 71.75 117.719 71.7188L118.141 71.6875L118.094 72.1094C118.078 72.3177 118.38 73.3438 118.766 73.9844C118.88 74.1719 118.953 74.25 119 74.2865L118.552 74.8333Z" fill="black"/>
<path d="M117.943 74.6044C116.38 74.6044 113.948 73.8127 113.49 70.6877C112.99 67.2242 116.13 64.8335 117.927 64.3179C119.828 63.771 122.11 64.5315 123.099 65.5887C124.229 66.219 124.636 67.6408 124.042 68.9273L123.724 68.7815H123.365V68.7033L123.396 68.6304C123.781 67.7971 123.672 66.6877 122.714 66.1825L122.656 66.1565L122.615 66.1044C121.813 65.2033 119.766 64.521 118.125 64.995C116.584 65.4377 113.755 67.594 114.188 70.5835C114.615 73.5054 117 74.0262 118.334 73.8752L118.417 74.5783C118.271 74.5887 118.11 74.6044 117.943 74.6044Z" fill="black"/>
<path d="M9.33838 94.3695L8.99984 94.3226H8.63525L8.64046 94.2757C9.59359 87.2393 14.1665 76.4372 20.5832 66.083C25.8071 57.6507 31.3332 51.0205 35.3748 48.3643L35.7655 48.9528C31.8071 51.5622 26.3592 58.1038 21.1873 66.458C14.8175 76.734 10.2811 87.4268 9.33838 94.3695Z" fill="black"/>
<path d="M15.8179 93.8486L15.4793 93.7966H15.1147V93.7393C16.2502 86.0622 17.5418 77.359 22.646 67.6559C25.9377 61.4059 30.4845 55.2809 36.5418 48.9268L37.0522 49.4163C31.0418 55.7236 26.5314 61.7965 23.271 67.9841C18.2241 77.5882 16.9481 86.2288 15.8179 93.8486Z" fill="black"/>
<path d="M123.167 96.3854L122.828 96.3333H122.463V96.276C122.562 95.625 122.687 94.9063 122.844 94.0781C123.792 88.9896 125.297 83.2865 125.906 81.0729L125.958 80.8594L126.021 80.7969L126.286 81.0365L126.625 81.125L126.588 81.2552C125.989 83.4583 124.484 89.1406 123.536 94.2083C123.385 95.026 123.265 95.7396 123.167 96.3854Z" fill="black"/>
<path d="M40.25 29.0938H44.8438V29.8021H40.25V29.0938Z" fill="black"/>
<path d="M51.7603 29.0938H54.5467V29.8021H51.7603V29.0938Z" fill="black"/>
<path d="M71.12 29.8021H64.2762L64.271 29.0938H71.12V29.8021Z" fill="black"/>
<path d="M86.2656 29.0938H102.495V29.8021H86.2656V29.0938Z" fill="black"/>
<path d="M159.286 65.2549L155.818 62.6663L114.792 32.0726L115.219 31.5049L159.708 64.6872L159.286 65.2549Z" fill="black"/>
<path d="M93.5366 97.3441L93.9585 96.7764L138.448 129.953L138.026 130.521L93.5366 97.3441Z" fill="black"/>
<path d="M7.375 56.6458L7.79688 56.0781L55.6042 91.7292L55.1823 92.2969L7.375 56.6458Z" fill="black"/>
<path d="M81.1821 22.9427L81.604 22.375L126.099 55.5573L125.672 56.125L81.1821 22.9427Z" fill="black"/>
<path d="M28.5938 32.849L29.0208 32.2812L97.7656 83.5521L97.3438 84.1198L28.5938 32.849Z" fill="black"/>
<path d="M103.604 79.9691L104.026 79.4014L153.568 116.339L153.14 116.907L103.604 79.9691Z" fill="black"/>
<path d="M12.854 33.807L13.2811 33.2393L26.2915 42.9476L25.8696 43.5153L12.854 33.807Z" fill="black"/>
<path d="M41.1665 112.657L41.5936 112.089L66.0415 130.323L65.6196 130.891L41.1665 112.657Z" fill="black"/>
<path d="M31.5522 59.6722L31.9741 59.1045L56.422 77.3389L56.0002 77.9066L31.5522 59.6722Z" fill="black"/>
<path d="M16.2344 100.536L16.6562 99.9688L41.1042 118.203L40.6823 118.771L16.2344 100.536Z" fill="black"/>
<path d="M76.4009 92.7708L76.8228 92.2031L101.271 110.438L100.844 111.005L76.4009 92.7708Z" fill="black"/>
<path d="M148.917 83.1663L149.338 82.5986L169.385 97.557L168.963 98.1247L148.917 83.1663Z" fill="black"/>
<mask id="mask2_5558_5491" style="mask-type:luminance" maskUnits="userSpaceOnUse" x="0" y="101" width="178" height="42">
<path d="M0.666504 101.333H178V142.604H0.666504V101.333Z" fill="white"/>
</mask>
<g mask="url(#mask2_5558_5491)">
<path d="M81.4842 142.214C68.5727 142.214 54.2498 140.094 42.1873 136.396C30.6144 132.844 23.1769 128.443 22.3019 124.62C21.8383 122.609 23.0727 120.875 25.9789 119.464C28.8592 118.068 29.2081 117.297 29.156 116.964C28.9842 115.771 24.0362 114.927 19.6717 114.182C12.7185 112.995 4.84353 111.651 2.42165 108.151C1.77582 107.214 1.55707 106.156 1.78103 105.021L2.47374 105.156C2.28624 106.109 2.45811 106.964 3.00499 107.75C5.24978 111.005 13.3071 112.375 19.7862 113.479C26.0571 114.552 29.6196 115.234 29.8539 116.859C29.9894 117.833 28.8904 118.833 26.281 120.099C23.7133 121.349 22.6039 122.812 22.9842 124.464C23.7967 127.979 31.2289 132.292 42.3904 135.719C54.3852 139.401 68.6352 141.505 81.4789 141.505C117.469 141.505 140.651 137.651 158.984 128.62C163.729 126.281 166.265 124.042 166.521 121.964C166.776 119.891 164.755 118.182 163.13 116.807C161.833 115.708 160.807 114.839 161.047 113.927C161.245 113.172 162.245 112.667 164.396 112.245C172.942 110.562 175.5 108.01 176.146 106.167C176.745 104.464 175.854 103.01 175.547 102.583H150.245V101.875H175.885L175.989 102C176.057 102.083 177.651 104.005 176.812 106.401C175.786 109.339 171.651 111.536 164.531 112.938C162.245 113.391 161.797 113.865 161.734 114.104C161.609 114.589 162.614 115.438 163.588 116.266C165.344 117.75 167.526 119.599 167.224 122.047C166.932 124.411 164.344 126.771 159.297 129.25C140.859 138.339 117.583 142.214 81.4842 142.214Z" fill="black"/>
</g>
</svg>
