<svg width="210" height="147" viewBox="0 0 210 147" fill="none" xmlns="http://www.w3.org/2000/svg">
<mask id="mask0_5507_6981" style="mask-type:luminance" maskUnits="userSpaceOnUse" x="0" y="0" width="210" height="147">
<path d="M0 0H210V147H0V0Z" fill="white"/>
</mask>
<g mask="url(#mask0_5507_6981)">
<path d="M209.953 97.0674L201.302 65.5309L194.792 63.6403L194.12 56.5882L189.083 54.9893L185.932 55.958C187.401 49.9945 186.604 43.9893 185.974 41.2184C188.286 43.4424 193.703 49.1559 195.677 52.7653L196.177 53.7288L196.432 52.682C197.021 50.2861 198.865 38.1507 181.396 31.8955C184.042 31.0153 188.703 31.1403 192.229 31.2653C193.828 31.307 195.172 31.3486 196.052 31.307L196.849 31.2653L196.307 30.6351C191.896 25.3434 186.229 24.8018 179.422 29.0413C181.526 24.7132 188.198 11.4059 192.062 9.2653L193.115 8.67676L191.938 8.46322C183.37 6.99447 178.922 13.5882 174.974 25.0101C174.807 21.3122 173.589 16.9059 170.943 13.7965C168.677 11.109 165.609 9.68197 161.917 9.55697L160.484 9.5153L161.661 10.3122C166.87 13.9684 168.677 21.0622 169.979 26.2705C170.062 26.6038 170.146 26.9007 170.229 27.2341C168.76 25.6403 166.703 24.4216 164.182 23.583C157.755 21.4841 149.609 22.5726 141.927 26.5622L139.828 27.6559L142.177 27.3591C147.135 26.7288 166.448 29.9216 171.74 33.6611C165.948 36.1351 161.786 40.4632 159.729 43.0674L155.74 40.5049L147.766 39.833L142.979 39.2028C142.135 38.2809 139.745 35.9268 138.568 36.1351C137.812 36.307 130.797 36.2236 126.266 36.1351H126.052L122.109 41.5934L117.781 42.2236L112.87 48.4424L105.688 45.8799L102.286 47.1403L98.9271 42.9372L90.8229 39.5778L84.8594 42.7705L76.2552 33.3643L59.375 35.1716L62.6042 39.3278L55.3438 40.6716L60.4635 47.3903L59.0781 50.958C55.8906 48.1038 40.4375 39.1611 33.2969 37.0205C38.9635 35.8851 50.3438 36.5986 53.2031 38.1091L54.0833 38.5726L53.7865 37.6091C52.7812 34.208 50.6823 31.6455 47.8281 30.3018C44.4271 28.6611 39.974 28.6611 35.2292 30.3018C43.2083 22.3226 54.0833 17.6611 57.651 18.5413L57.8594 17.7445C45.3906 14.0101 36.8646 19.6768 32.75 24.8851C34.7656 16.3174 32.2031 3.63509 27.4167 0.697591L26.3698 0.0673828L26.7031 1.11947C28.7188 7.66634 27.8385 22.3643 26.875 27.6143C25.3177 22.2393 20.7865 13.2497 13.1406 11.4059L12.2188 11.1924L12.6823 12.0361C15.1979 16.609 20.8698 25.1351 23.1771 28.4945C14.7812 25.3434 4.70312 26.3538 1.17188 27.3174L0 27.6143L1.13021 28.0726C5.96354 30.0466 15.2396 31.9372 19.8177 32.8174C14.8229 33.9528 12.7656 37.5622 12.6823 37.7341L12.2604 38.5309L17.9271 37.4372C9.57292 44.5778 10.75 55.958 11.3802 62.1716C11.4219 62.6768 11.4635 63.1768 11.5052 63.6403L11.8385 67.1247L12.3438 63.682C12.5938 62.0466 14.8229 56.5466 17.8854 49.9945C19.4844 46.5934 20.9948 43.5674 22.1719 41.4268C20.4896 48.5674 22.9688 57.3851 23.8906 60.6611C23.974 60.9945 24.0573 61.2497 24.099 61.458C22.3385 62.5934 22.3385 62.7184 22.3385 62.9268C22.2969 63.1768 21.6667 65.1091 21.0365 66.833L15.7031 72.6247L16.7083 77.4163L4.44792 83.8799L0.416667 104.244L8.77604 113.442L16.8385 117.64L19.7344 129.442L42.4115 137.505L61.7656 133.474L84.4844 146.448L84.5677 146.489H114.297L126.938 140.526L136.677 146.489L155.781 143.422L159.271 138.76L172.536 138.302L174.635 133.474L193.786 131.458L209.953 97.0674ZM54.25 62.8851C53.7865 62.8018 53.3698 62.7601 52.9062 62.7184C50.4271 62.4216 49.0417 62.2132 49 60.4893V60.0726L45.0104 60.2809L44.1302 57.5101L36.8646 56.5466L36.7396 56.6716C36.026 57.3018 35.0625 57.932 34.724 57.932C34.1771 57.932 31.8698 57.5934 31.0312 57.4684H30.9896C30.8594 57.4684 30.651 57.4684 27.5885 59.2757C27.4583 56.0413 27.5 46.3851 28.0885 41.3851C29.0156 44.7028 31.5312 48.4007 33.4219 51.2549C34.349 52.6403 35.1458 53.8174 35.4792 54.5309L36.4896 56.7966L36.276 54.3174C35.9427 50.5413 34.724 43.5674 33.3802 39.6247C39.3438 42.8955 53.9583 52.8486 57.0625 55.7445L54.25 62.8851ZM177.536 51.3799V48.6507L171.026 45.583L162.964 46.5934C166.911 39.4528 170.776 35.8018 174.385 35.8018C177.62 36.3486 182.24 45.6247 183.245 55.9997L177.536 51.3799Z" fill="black"/>
</g>
<path d="M183.792 56.8802C183.078 47.7708 178.755 36.0104 174.427 35.3385C169.724 35.3385 165.484 41.0104 162.208 47.0573C161.875 47.7292 161.495 48.401 161.156 49.026C161.156 49.026 160.068 51.6302 159.479 53.0573L157.042 53.7292C156.833 52.7239 156.286 51.8437 155.573 51.2135C156.12 49.0729 157.589 46.2969 159.771 43.526C162.839 39.625 167.333 35.7187 172.536 33.7031C167.964 29.6719 147.094 26.2708 142.094 26.9427C155.995 19.7604 168.172 23.4167 171.234 29.4167C169.724 24.5469 168.464 14.6406 161.875 9.97915C172.75 10.3958 175.141 22.1562 174.469 27.8229C178.583 14.9739 182.953 7.37498 191.854 8.8854C187.068 11.4896 178.375 30.2187 178.375 30.2187C188.37 23.2448 193.62 28.0312 195.969 30.8906C192.948 31.0989 183.583 30.0052 180.224 31.9792C197.271 37.651 196.849 48.9427 195.969 52.6406C193.365 47.8542 184.672 39.3698 185.094 40.0417C185.469 40.5885 187.401 48.8594 185.26 56.6719C184.885 58.0156 184.422 59.3177 183.792 60.5781C183.917 59.3594 183.875 58.1406 183.792 56.8802Z" fill="#4CAF50"/>
<path d="M183.453 103.115C183.453 103.157 183.412 103.157 183.412 103.199C183.453 103.157 183.453 103.157 183.453 103.115Z" fill="#C41830"/>
<path d="M139.073 101.516C132.099 100.844 130.38 100.427 129.078 100.636L137.771 86.9066H145.161L147.724 82.1618L151.667 74.8128H156.625C156.625 74.8128 160.531 74.266 161.578 74.0107C161.703 73.9691 161.786 73.9274 161.828 73.9274C162.042 73.7191 172.495 76.9951 172.495 76.9951L175.562 70.6982L191.854 80.2712C191.854 80.2712 184.672 100.719 183.5 103.073C183.5 103.115 183.453 103.157 183.453 103.157C183.453 103.157 183.411 103.198 183.411 103.24C182.406 105 181.901 107.099 181.021 108.318C179.297 110.714 174.51 107.646 169.724 108.318C164.938 108.99 163.844 111.802 161.917 118.021C159.562 117.979 157.083 117.558 154.943 116.381C153.812 115.75 152.172 115.417 150.24 115.209C147.219 114.115 148.812 109.745 147.552 105.761C146.208 101.516 146 102.188 139.073 101.516Z" fill="#C41830"/>
<path d="M170.062 55.1152L170.271 58.2246L165.359 59.735V57.2194L170.062 55.1152Z" fill="#87AAD2"/>
<path d="M158.891 64.8594L154.271 74.8125H152.594V74.5573C152.594 74.5573 155.953 65.7396 155.995 65.6979C157.797 65.1927 158.891 64.8594 158.891 64.8594Z" fill="#87AAD2"/>
<path d="M155.067 54.3182C155.281 55.6619 154.354 56.964 153.01 57.1776C151.838 57.3859 150.703 56.714 150.281 55.6619C150.198 55.4953 150.156 55.2869 150.114 55.1151C149.906 53.7296 150.828 52.4744 152.172 52.2192C153.515 51.9692 154.859 52.9328 155.067 54.3182Z" fill="#87AAD2"/>
<path d="M157.083 53.943C157.505 56.4169 155.828 58.7711 153.349 59.193C151.167 59.568 149.068 58.2659 148.307 56.2086C148.224 55.9586 148.141 55.7034 148.099 55.4534C147.677 52.9742 149.359 50.6253 151.839 50.245C153.224 50.0367 154.568 50.4586 155.531 51.2971C156.245 51.9273 156.792 52.8075 157 53.818C157.083 53.818 157.083 53.9013 157.083 53.943ZM153.01 57.1773C154.354 56.9638 155.281 55.6617 155.068 54.318V54.2763C154.859 52.8909 153.557 51.969 152.172 52.219C150.786 52.4742 149.865 53.7294 150.115 55.1148C150.156 55.3284 150.198 55.495 150.281 55.6617C150.745 56.7138 151.839 57.3857 153.01 57.1773Z" fill="black"/>
<path d="M148.307 56.2087C149.021 58.266 151.125 59.568 153.349 59.193C155.828 58.7712 157.505 56.4587 157.083 53.943C157.083 53.9014 157.042 53.818 157.042 53.7295L159.479 53.0576L168.885 50.417L169.89 52.891L170.062 55.1149L165.359 57.2191V59.7764L170.312 58.266L170.396 59.6514L158.89 64.9014C158.89 64.9014 157.797 65.2347 155.995 65.7399C152.38 66.792 145.833 68.6826 139.198 70.568L138.104 59.1462L148.307 56.2087Z" fill="#C41830"/>
<mask id="mask1_5507_6981" style="mask-type:luminance" maskUnits="userSpaceOnUse" x="121" y="119" width="57" height="28">
<path d="M121.177 119.308H177.177V147H121.177V119.308Z" fill="white"/>
</mask>
<g mask="url(#mask1_5507_6981)">
<path d="M136.802 146.11L127.021 140.105L122.11 137.084L121.771 131.459L133.443 119.49L147.766 119.995L154.943 125.24L158.516 122.85L171.615 124.74L175.896 129.777L174.386 133.136L172.287 137.923L159.099 138.386L155.573 143.089L136.802 146.11Z" fill="#794426"/>
</g>
<path d="M152.594 74.5576V74.8128H151.667C151.667 74.8128 150.031 73.1722 149.61 73.1722C149.193 73.1722 143.901 72.9222 143.901 72.9222L141.005 76.4899L139.828 76.6982L139.24 70.5264C145.875 68.641 152.38 66.7503 156.037 65.6982C155.953 65.6982 152.594 74.5576 152.594 74.5576Z" fill="#87AAD2"/>
<path d="M123.365 74.9378C127.354 73.8857 133.318 72.2087 139.198 70.5264L139.787 76.6982L135.542 77.5003L129.037 82.5785L126.682 81.3597L123.365 74.9378Z" fill="#87AAD2"/>
<path d="M125.51 66.1613C123.953 65.9946 122.609 65.0259 121.937 63.6404C121.729 63.2654 121.604 62.8436 121.521 62.38C121.099 59.9061 122.276 59.2759 125.594 59.1457C124.208 59.3592 123.281 60.6613 123.536 62.0467C123.578 62.4217 123.745 62.7602 123.953 63.0519C124.5 63.8071 125.427 64.2707 126.432 64.104C127.609 63.8905 128.448 62.9269 128.531 61.7915C128.531 61.6248 128.531 61.4165 128.49 61.2498C128.281 59.9061 126.979 58.9373 125.594 59.1925C129.625 58.4321 130.083 58.4321 130.463 60.9113C130.463 61.0363 130.505 61.1196 130.505 61.2498C130.713 63.5988 129.078 65.7811 126.724 66.1613C126.349 66.2029 125.927 66.2029 125.51 66.1613Z" fill="black"/>
<path d="M123.578 62.0475C123.364 60.6621 124.292 59.4016 125.635 59.1464C126.979 58.9381 128.281 59.8652 128.531 61.2089C128.573 61.4173 128.573 61.5839 128.573 61.7506C128.489 62.886 127.651 63.8912 126.474 64.0631C125.469 64.2298 124.542 63.7662 123.995 63.011C123.786 62.761 123.62 62.4225 123.578 62.0475Z" fill="#87AAD2"/>
<path d="M139.198 70.526C133.276 72.2083 127.313 73.8854 123.365 74.9375L125.511 66.3281V66.1615C125.927 66.2031 126.349 66.2031 126.771 66.1198C129.12 65.7396 130.755 63.5573 130.547 61.2083L138.104 59.0625L139.198 70.526Z" fill="#C41830"/>
<path d="M123.364 74.9375C121.307 75.4844 119.797 75.8594 119.083 75.9844C115.979 69.7708 115.557 65.4479 115.557 65.4479L116.604 65.151L121.979 63.6406C122.651 65.026 123.995 65.9948 125.552 66.1615V66.3281L123.364 74.9375Z" fill="#C41830"/>
<path d="M121.099 79.6406C120.302 78.3802 119.63 77.1198 119.042 75.9844C119.755 75.8594 121.265 75.4844 123.323 74.9375L126.64 81.3594L123.323 79.6406H121.099Z" fill="#87AAD2"/>
<path d="M102.078 47.5997L105.604 46.2976L112.953 48.9018L117.948 42.6049L122.318 41.933L126.224 36.5164C126.224 36.5164 137.516 36.7247 138.609 36.5164C139.703 36.308 142.724 39.5789 142.724 39.5789L147.677 40.2508L155.573 40.9226L159.771 43.657C157.589 46.4278 156.12 49.1987 155.573 51.3393C154.609 50.5008 153.266 50.0789 151.88 50.2872C149.401 50.7091 147.724 53.0164 148.141 55.4955C148.182 55.7455 148.266 56.0424 148.349 56.2508L138.146 59.1049L130.589 61.2508C130.589 61.1622 130.589 61.0372 130.547 60.9122C130.125 58.4331 129.667 58.3914 125.677 59.1935C122.318 59.2768 121.182 59.907 121.604 62.4226C121.688 62.8862 121.812 63.3081 122.021 63.6831L116.651 65.1935L116.562 64.8601C112.953 64.0216 109.047 65.5737 106.443 67.0008L106.318 66.7508L84.8594 43.3185L90.9062 40.0424L98.7188 43.3185L102.078 47.5997Z" fill="#794426"/>
<path d="M103.464 96.0163C103.042 96.3965 102.625 96.7298 102.12 96.8965C101.281 97.1934 100.313 96.8965 99.5158 96.4798C98.7189 96.0579 98.0054 95.4694 97.1252 95.2194C96.3231 94.9694 95.4429 95.0111 94.6043 94.8392C92.922 94.5059 91.5366 93.4121 90.1512 92.4486C89.3543 91.9017 88.4325 91.3548 87.5054 91.0632L87.6356 90.6829C87.8439 90.6829 91.5366 84.1309 91.5366 84.1309L95.7397 82.959L101.198 85.0163L103.38 88.0371L106.318 88.7923L104.557 95.0111L104.641 95.1361C104.261 95.3444 103.886 95.6413 103.464 96.0163Z" fill="#87AAD2"/>
<path d="M77.599 70.0677L77.6406 69.3542L60.8438 47.2656L56.0156 40.8802L63.3229 39.5365L60.1302 35.4219L76.0417 33.7031L84.7344 43.1927L106.193 66.625L106.318 66.875C104.932 67.5885 103.927 68.3021 103.464 68.5938C102.12 69.5208 99.599 68.4688 96.8698 69.2656C94.1406 70.0677 93.6771 75.401 89.4792 74.599C85.2813 73.8021 82.4271 71.7448 80.0312 70.4844C79.3594 70.276 78.5208 70.1094 77.599 70.0677Z" fill="#C41830"/>
<path d="M63.7396 69.5632L66.6771 62.6777L62.0625 57.0059L58.2396 64.86C57.1458 63.9798 55.8437 63.5996 54.5 63.3913L57.526 55.7454L59.1198 51.6725L60.8021 47.3496L77.599 69.4382L77.5573 70.1517C75.0781 70.0267 71.8438 70.6986 68.6927 71.0319C66.849 71.1986 65.25 70.5684 63.7396 69.5632Z" fill="#87AAD2"/>
<path d="M105.646 110.251L101.281 121.298C100.312 121.084 99.2656 120.917 98.1719 120.917C93.8073 120.917 91.6667 122.011 89.6927 123.183C87.7188 124.36 83.8125 121.548 81.7969 122.011C79.7812 122.428 76.4219 123.521 72.099 123.1C67.7708 122.683 69.7031 118.735 66.2188 115.923C62.7344 113.105 61.6406 115.709 59.2448 115.923C58.6198 115.964 58.1146 115.792 57.7344 115.459L61.8073 108.318L69.1979 95.4277L81.1667 99.7559L86.8333 103.787L105.646 110.251Z" fill="#C41830"/>
<path d="M66.7238 62.6777L63.7811 69.5632C61.8905 68.3027 60.2134 66.4121 58.3228 64.86L62.1457 57.0059L66.7238 62.6777Z" fill="#87AAD2"/>
<mask id="mask2_5507_6981" style="mask-type:luminance" maskUnits="userSpaceOnUse" x="0" y="44" width="210" height="103">
<path d="M0 44.6406H210V147H0V44.6406Z" fill="white"/>
</mask>
<g mask="url(#mask2_5507_6981)">
<path d="M23.1353 95.7653C24.3123 95.2184 25.5728 94.9684 27.4998 95.4684C29.1821 95.8903 31.1978 95.0518 32.8748 94.083L26.453 89.1716L20.1561 94.083L23.1353 95.7653ZM106.318 88.7913L103.38 88.0361L101.198 85.0153L95.7394 82.958L91.5363 84.1299C91.5363 84.1299 87.8853 90.682 87.6353 90.682L87.5051 91.0622C88.4321 91.3538 89.354 91.8591 90.1509 92.4476C91.5363 93.4111 92.9217 94.5049 94.604 94.8382C95.4426 95.0101 96.3228 94.9684 97.1248 95.2184C98.0051 95.4684 98.7186 96.057 99.5155 96.4788C100.312 96.8955 101.281 97.2341 102.12 96.8955C102.625 96.7288 103.042 96.3538 103.463 96.0153C103.885 95.6403 104.26 95.3434 104.64 95.1351L104.557 95.0101L106.318 88.7913ZM101.281 121.25L105.646 110.208L86.8332 103.698L81.1665 99.6663L69.1978 95.3851L61.8071 108.276L59.4165 99.1663L30.7759 103.911L34.7238 111.974C38.38 112.646 36.1925 115.666 41.1925 114.156C46.1873 112.646 51.3957 109.619 54.0415 111.218C55.9738 112.39 56.604 114.489 57.7342 115.416C58.1561 115.75 58.6196 115.963 59.2446 115.875C61.6405 115.666 62.7342 113.062 66.2186 115.875C69.703 118.692 67.729 122.593 72.0988 123.057C76.4634 123.521 79.7811 122.385 81.7967 121.968C83.8123 121.547 87.7603 124.359 89.6926 123.14C91.6665 121.968 93.8071 120.875 98.1717 120.875C99.2238 120.875 100.271 121.041 101.281 121.25ZM96.8696 69.3955C99.5988 68.5934 102.12 69.6038 103.463 68.7236C103.927 68.4268 104.974 67.7132 106.318 66.9997C108.963 65.5726 112.87 64.0205 116.437 64.8591L116.521 65.1924L115.474 65.4893C115.474 65.4893 115.89 69.8122 119 76.0257C119.588 77.2028 120.26 78.4216 121.057 79.682H123.323L126.64 81.4007L128.995 82.6195L135.5 77.5413L139.745 76.7445L140.917 76.5309L143.818 72.9632C143.818 72.9632 149.151 73.2132 149.526 73.2132C149.948 73.2132 151.583 74.8538 151.583 74.8538L147.635 82.2028L145.078 86.9476H137.729L129.036 100.677C130.338 100.468 132.057 100.885 139.031 101.557C146 102.229 146.208 101.557 147.51 105.672C148.771 109.661 147.177 114.073 150.198 115.119C152.13 115.333 153.765 115.708 154.901 116.297C157.042 117.474 159.521 117.89 161.875 117.937C163.844 111.718 164.896 108.906 169.682 108.234C174.469 107.562 179.255 110.63 180.979 108.234C181.859 107.015 182.406 104.875 183.37 103.156C183.37 103.156 183.411 103.114 183.411 103.073C183.411 103.026 183.453 103.026 183.453 102.984C184.63 100.635 191.812 80.1872 191.812 80.1872L175.521 70.6091L172.453 76.9111C172.453 76.9111 162.042 73.6351 161.786 73.8434C161.703 73.8434 161.62 73.8851 161.536 73.9268C160.443 74.2236 156.583 74.7288 156.583 74.7288H154.229L158.807 64.7757L170.312 59.5257L170.229 58.1403L169.979 55.0309L169.807 52.807L168.802 50.3278L159.396 52.9736C159.984 51.5466 161.073 48.9424 161.073 48.9424C161.411 48.2705 161.745 47.5986 162.125 46.9684H162.167L170.859 45.8799L177.031 48.7757V51.4632L183.708 56.7549C183.792 58.0153 183.833 59.234 183.792 60.3643C184.422 59.1038 184.927 57.8018 185.26 56.458L189 55.2861L193.661 56.7549L194.333 63.807L200.88 65.6976L209.406 96.8538L193.448 130.911L174.302 132.927L175.771 129.567L171.489 124.526L158.427 122.593L154.859 125.031L147.677 119.781L133.401 119.281L121.771 131.458L122.109 137.083L127.021 140.104L114.255 146.109H84.6926L61.8488 133.052L42.453 137.083L20.1144 129.146L17.2134 117.39L9.02588 113.146L0.838379 104.119L4.82796 84.0882L17.2134 77.583L24.729 81.5726C24.729 81.5726 34.8488 78.3799 35.6509 78.3799C36.4478 78.3799 44.4269 79.7236 44.4269 79.7236L47.953 74.8122L52.1509 72.9216L53.2863 69.7288L50.4269 64.6091L45.4321 62.8851L44.7603 60.7028L48.6248 60.4893C48.7082 63.1351 51.604 62.8434 54.5467 63.307C55.8905 63.5153 57.229 63.8903 58.2811 64.7757C60.1717 66.3695 61.8905 68.2184 63.7394 69.4788C65.2082 70.4841 66.8488 71.1143 68.7394 70.9059C71.8853 70.5674 75.1196 69.8955 77.5988 70.0257C78.5207 70.0674 79.3592 70.2341 80.0311 70.5674C82.4269 71.8278 85.2811 73.8851 89.479 74.682C93.6769 75.484 94.1405 70.1924 96.8696 69.3955Z" fill="#794426"/>
</g>
<path d="M59.4165 99.167L61.8071 108.276L57.7342 115.417C56.604 114.49 55.9738 112.391 54.0415 111.219C51.4373 109.578 46.229 112.604 41.1925 114.157C36.1925 115.667 38.38 112.646 34.7238 111.974L30.7759 103.912L59.4165 99.167Z" fill="#87AAD2"/>
<path d="M59.1616 51.6305L57.5679 55.7035C54.5887 52.7243 37.9585 41.4691 32.6252 38.7816C32.245 37.9014 31.87 37.2295 31.4897 36.9795C37.8335 37.943 57.1043 49.3232 59.0783 51.5889L59.1616 51.6305Z" fill="#4CAF50"/>
<path d="M32.6252 38.7819C34.1772 42.5215 35.521 50.5423 35.8595 54.4017C34.7241 51.8444 28.1304 44.1569 28.1304 38.9538C27.0002 42.4798 27.0002 57.5111 27.2085 59.9902C26.3283 60.5371 25.3595 61.0788 24.6043 61.584C24.3127 60.0736 19.396 45.9642 24.0575 37.6934C22.2137 39.2454 12.5522 59.735 11.9637 63.5579C11.422 57.4277 9.1512 44.1152 19.5679 36.6829L13.0575 37.9434C13.0575 37.9434 15.745 33.0319 22.6304 32.9069C22.6304 32.9069 7.89079 30.3444 1.30225 27.6569C5.24495 26.5215 16.0835 25.6829 24.3543 29.334C23.0939 27.6569 15.9116 16.9486 13.0575 11.7819C21.12 13.7975 25.8647 24.1725 26.8752 29.3757C28.0054 26.5632 29.3908 8.42253 27.1252 0.990234C32.12 4.01628 34.9793 18.8809 31.4064 27.4017C31.1147 27.9486 30.8595 28.4538 30.6512 28.959C30.9481 28.4538 31.1981 27.9486 31.4064 27.4017C34.5991 21.735 43.6668 13.8809 57.6512 18.084C53.4533 17.0736 41.2762 22.7871 33.547 31.2663C42.2814 27.6569 50.7241 29.2507 53.2866 37.6934C49.9272 35.8861 36.2762 35.2975 31.4897 36.9798C31.87 37.2298 32.245 37.9017 32.6252 38.7819Z" fill="#4CAF50"/>
<path d="M26.4116 89.1309L32.8335 94.0423C31.1981 95.0111 29.1408 95.8496 27.4585 95.4277C25.5314 94.9694 24.271 95.1777 23.0939 95.7246L20.0679 94.0007L26.4116 89.1309Z" fill="#C41830"/>
<path d="M47.9533 74.8132L44.4272 79.7246C44.4272 79.7246 36.4481 78.3809 35.6512 78.3809C34.8491 78.3809 24.7293 81.5736 24.7293 81.5736L17.2137 77.584L16.2085 72.6673L21.4116 67.0007C21.4116 67.0007 22.7554 63.2663 22.7554 62.8861C22.7554 62.7611 23.5158 62.2559 24.5627 61.584C25.3179 61.0788 26.245 60.5371 27.1668 59.9902C29.0158 58.8965 30.7762 57.8913 30.9481 57.8913C30.9481 57.8913 34.0106 58.3496 34.6825 58.3496C35.3543 58.3496 36.9481 57.0059 36.9481 57.0059L43.797 57.9329L44.6772 60.7454L45.3491 62.9277L50.3439 64.6517L53.2033 69.7715L52.0679 72.9642L47.9533 74.8132Z" fill="#794426"/>
<path d="M84.4062 43.5423L85.026 42.9746L106.49 66.4225L105.87 66.9902L84.4062 43.5423Z" fill="black"/>
<path d="M77.3019 69.6462L55.2603 40.6305L62.5623 39.2868L59.3332 35.1305L76.2134 33.3232L85.0311 42.9847L84.4009 43.5264L75.8748 34.2087L60.8853 35.8024L64.0363 39.8337L56.7707 41.2191L77.9738 69.141L77.3019 69.6462Z" fill="black"/>
<path d="M90.3231 75.2292C90.0262 75.2292 89.7345 75.1875 89.396 75.1458C85.995 74.5156 83.4325 73.0469 81.3752 71.8698C80.8283 71.5781 80.3283 71.2812 79.8231 70.9896C79.2762 70.6979 78.521 70.526 77.5991 70.4844C75.9585 70.401 73.9845 70.6979 71.9272 70.9896C70.922 71.1146 69.87 71.2813 68.8231 71.4115C67.0158 71.6198 65.3387 71.1146 63.5314 69.8958C62.3543 69.099 61.2606 68.0938 60.1304 67C59.4585 66.3698 58.745 65.7396 58.0314 65.1094C56.9377 64.2292 55.5522 63.8906 54.4585 63.724C53.9168 63.6406 53.37 63.5573 52.8231 63.5156C50.5991 63.2656 48.5002 63.0521 48.2033 60.9115L44.7189 61.1198L44.6772 60.2812L49.0002 60.0312V60.4479C49.0418 62.1719 50.4272 62.3802 52.9064 62.6771C53.4533 62.7188 54.0002 62.8021 54.5887 62.8854C55.7606 63.0938 57.3179 63.4323 58.5314 64.4792C59.245 65.1094 59.9637 65.7396 60.6356 66.3698C61.7658 67.4219 62.8179 68.3854 63.9481 69.1823C65.5887 70.276 67.0575 70.6979 68.6512 70.526C69.6616 70.401 70.7085 70.276 71.7189 70.151C73.8595 69.8542 75.8752 69.5625 77.5575 69.6458C78.6043 69.6875 79.4845 69.8958 80.1564 70.2344C80.6616 70.4844 81.2085 70.7812 81.7554 71.1146C83.8543 72.3333 86.245 73.6771 89.521 74.3073C91.7502 74.7292 92.797 73.2135 93.8908 71.6198C94.646 70.4844 95.4845 69.3125 96.7033 68.974C98.1304 68.5521 99.4325 68.5938 100.61 68.6406C101.698 68.6823 102.625 68.724 103.214 68.3438L103.255 68.3021C103.755 67.9688 104.766 67.2969 106.11 66.5781C108.839 65.1094 112.87 63.5573 116.521 64.3958L116.354 65.1927C112.912 64.3958 109.089 65.9062 106.485 67.2969C105.188 68.0104 104.177 68.6823 103.714 68.974L103.672 69.0156C102.875 69.5625 101.828 69.5208 100.568 69.4792C99.4741 69.4375 98.2137 69.3958 96.9533 69.7708C95.9897 70.0677 95.3179 71.0313 94.6043 72.0833C93.5939 73.5938 92.4637 75.2292 90.3231 75.2292Z" fill="black"/>
<path d="M24.6873 82.0312L16.8384 77.875L15.7446 72.5833L21.078 66.7917C21.7082 65.0677 22.3384 63.1771 22.38 62.8854C22.38 62.6354 22.38 62.5469 24.3957 61.25C25.1092 60.7865 26.0311 60.2396 26.9998 59.651C30.6509 57.4688 30.8592 57.4688 30.9894 57.4688H31.0311C31.8696 57.5938 34.1769 57.9323 34.7238 57.9323C35.0623 57.9323 36.0259 57.2604 36.7394 56.6719L36.8644 56.5469L44.13 57.5104L45.7238 62.5521L50.6821 64.2292L53.703 69.6458L52.4425 73.1719L48.1613 75.1042L44.5519 80.1458L44.2967 80.099C41.1092 79.5573 36.1509 78.7604 35.604 78.7604C35.0207 78.7604 28.6769 80.6875 24.8123 81.9062L24.6873 82.0312ZM17.5936 77.2865L24.7707 81.1094C26.7863 80.4792 34.8488 77.9583 35.6509 77.9583C36.4061 77.9583 42.703 79.0104 44.2134 79.3021L47.6561 74.5156L51.8123 72.625L52.8228 69.7708L50.1353 64.9427L45.0988 63.2188L43.4998 58.2656L37.1196 57.4271C36.6144 57.849 35.3957 58.7708 34.7238 58.7708C34.0936 58.7708 31.5311 58.3906 30.9894 58.3073C30.6509 58.4323 29.3488 59.1927 27.3748 60.3229C26.4113 60.9115 25.5311 61.4583 24.7707 61.9219C23.5988 62.6771 23.2186 62.9688 23.1353 63.0521C23.0103 63.6823 22.3384 65.5729 21.7915 67.125L21.7498 67.2083L16.5832 72.7969L17.5936 77.2865ZM23.1769 62.8854C23.1769 62.8854 23.1769 62.9271 23.1769 62.9688C23.1769 62.9688 23.1769 62.9271 23.1769 62.8854Z" fill="black"/>
<path d="M22.0832 75.9017L21.6665 75.1882C22.0415 74.9382 25.3175 71.8704 27.2915 70.0267L27.4582 69.8548L32.2446 70.8652C39.3853 63.1777 39.6769 63.1777 39.8905 63.1777C40.2238 63.1777 42.8696 63.8079 43.9634 64.1048L43.755 64.9017C42.1978 64.5215 40.4373 64.1048 39.9738 64.0215C39.2186 64.61 35.1457 68.9329 32.6665 71.6204L32.4998 71.7871L27.7134 70.7402C26.5363 71.8288 22.63 75.5684 22.0832 75.9017Z" fill="black"/>
<path d="M110.812 124.907C108.5 124.907 106.573 123.855 106.443 123.813C106.401 123.772 104.094 122.345 101.156 121.673C100.104 121.423 99.099 121.298 98.1719 121.298C93.8906 121.298 91.8333 122.345 89.901 123.522C88.6406 124.277 86.8333 123.647 85.0729 123.058C83.8958 122.641 82.6354 122.22 81.8802 122.386C81.5469 122.47 81.2083 122.553 80.8281 122.641C78.8125 123.141 75.7917 123.855 72.0521 123.48C69.3229 123.225 68.8229 121.631 68.276 119.996C67.8542 118.777 67.3958 117.391 65.9635 116.256C63.7812 114.49 62.7344 114.996 61.4323 115.626C60.8021 115.923 60.1302 116.256 59.2917 116.339C58.5729 116.381 57.9896 116.214 57.4427 115.792C56.9375 115.376 56.5156 114.787 56.099 114.157C55.5104 113.277 54.8385 112.308 53.7865 111.636C52.0677 110.589 48.9167 111.803 45.5156 113.105C44.1302 113.652 42.7031 114.199 41.276 114.621C38.2917 115.542 37.5781 114.912 36.8229 113.865C36.4062 113.277 35.9844 112.688 34.599 112.475C31.1979 111.85 27.2917 111.178 23.2188 112.475L22.9688 111.678C27.25 110.334 31.2396 111.048 34.7656 111.678C36.4479 111.975 37.0365 112.772 37.4948 113.402C38.0417 114.157 38.4219 114.662 41.0208 113.865C42.4115 113.443 43.8385 112.897 45.224 112.35C48.7917 110.964 52.151 109.704 54.2083 110.964C55.4271 111.72 56.1406 112.772 56.7708 113.735C57.1875 114.365 57.526 114.871 57.9479 115.209C58.3229 115.501 58.7031 115.626 59.1615 115.584C59.8333 115.542 60.4219 115.251 61.0104 114.954C62.3958 114.282 63.8229 113.568 66.4271 115.667C68.0677 116.97 68.5677 118.522 68.9896 119.782C69.5365 121.423 69.9115 122.511 72.099 122.725C75.6667 123.1 78.5208 122.386 80.6198 121.881C81 121.798 81.375 121.714 81.7135 121.631C82.7188 121.423 84.0208 121.881 85.3646 122.345C86.9167 122.891 88.5573 123.438 89.4792 122.891C91.4115 121.714 93.6771 120.537 98.1719 120.537C99.1823 120.537 100.229 120.667 101.365 120.917C104.427 121.631 106.781 123.1 106.865 123.141C106.865 123.141 111.021 125.324 114.005 123.141L114.505 123.813C113.333 124.652 112.031 124.907 110.812 124.907Z" fill="black"/>
<path d="M150.495 115.625C150.365 115.583 150.24 115.542 150.115 115.5C147.974 114.745 147.849 112.474 147.766 110.125C147.677 108.74 147.635 107.229 147.177 105.761C146.125 102.484 146.042 102.484 141.635 102.146C140.875 102.104 140.036 102.021 139.031 101.938C136.302 101.682 134.37 101.474 132.984 101.307C130.844 101.057 129.875 100.927 129.12 101.057C128.49 101.141 127.776 100.844 126.896 100.469C125.635 99.922 124.036 99.2501 122.443 99.7553C119.839 100.552 118.161 105.714 118.161 105.802L118.036 106.219L117.615 106.052C117.573 106.011 112.703 103.953 108.333 105.214L108.125 104.417C112.073 103.281 116.229 104.625 117.573 105.13C118.078 103.787 119.714 99.7553 122.276 98.9532C124.167 98.3699 126.01 99.1668 127.312 99.7136C128.026 100.005 128.698 100.297 129.078 100.255C129.917 100.13 130.885 100.214 133.151 100.469C134.536 100.636 136.469 100.844 139.198 101.099C140.161 101.182 141.047 101.266 141.76 101.307C146.25 101.641 146.797 101.682 148.016 105.505C148.521 107.057 148.562 108.656 148.646 110.083C148.771 112.604 148.896 114.156 150.453 114.703C150.536 114.745 150.661 114.787 150.745 114.787L150.495 115.625Z" fill="black"/>
<path d="M175.438 122.552C173.589 122.552 172.203 121.25 170.943 120.037C169.766 118.901 168.677 117.849 167.333 118.021C165.818 118.229 163.844 118.438 161.828 118.354C158.974 118.271 156.625 117.724 154.693 116.636C153.766 116.131 152.297 115.75 150.156 115.5C148.896 115.334 147.552 115.25 146.083 115.12C142.052 114.828 137.474 114.448 133.865 112.938L134.203 112.183C137.688 113.651 142.177 113.99 146.167 114.282C147.636 114.407 149.021 114.49 150.281 114.662C152.594 114.953 154.104 115.334 155.156 115.922C156.958 116.927 159.188 117.474 161.917 117.516C163.886 117.558 165.735 117.391 167.292 117.177C169.011 116.969 170.313 118.188 171.573 119.407C173.167 120.917 174.636 122.344 176.99 121.339L177.323 122.094C176.61 122.427 176.021 122.552 175.438 122.552Z" fill="black"/>
<path d="M197.563 105.298C196.391 105.298 195.297 104.501 194.037 103.574C192.526 102.443 190.802 101.183 188.37 100.886C186.396 100.636 185.011 101.35 183.875 103.282L183.162 102.86C183.958 101.475 185.427 99.7143 188.453 100.089C191.099 100.428 192.99 101.813 194.5 102.943C196.219 104.204 197.229 104.876 198.406 104.287L198.781 105.042C198.406 105.173 197.985 105.298 197.563 105.298Z" fill="black"/>
<path d="M162.292 118.104L161.495 117.849C163.469 111.594 164.646 108.531 169.64 107.859C171.781 107.563 173.88 107.984 175.771 108.359C178.036 108.823 179.844 109.161 180.682 108.026C181.146 107.438 181.484 106.516 181.901 105.547C182.239 104.708 182.614 103.786 183.078 102.984C183.078 102.984 183.12 102.901 183.161 102.859L183.792 103.365C183.328 104.161 182.995 105 182.656 105.844C182.239 106.849 181.859 107.818 181.354 108.49C180.224 110.042 178.083 109.62 175.604 109.161C173.797 108.823 171.781 108.401 169.765 108.656C165.229 109.286 164.182 112.016 162.292 118.104Z" fill="black"/>
<path d="M129.411 100.886L128.698 100.428L137.515 86.485H144.906L147.344 81.9902L148.057 82.3704L145.411 87.3236H137.979L129.411 100.886Z" fill="black"/>
<path d="M148.057 82.3701L147.344 81.9899L151.417 74.4326H156.625C156.958 74.391 160.531 73.8857 161.495 73.6357L161.703 74.4326C160.615 74.7295 156.875 75.2295 156.708 75.2295H151.922L148.057 82.3701Z" fill="black"/>
<path d="M183.75 103.449L183.203 103.027L183.453 103.157L183.12 102.902L183.162 102.818C184.214 100.678 190.469 83.0423 191.391 80.3965L175.771 71.2402L172.75 77.459L172.412 77.3288C168.802 76.1986 162.88 74.3913 162 74.3079C161.917 74.3496 161.828 74.3496 161.745 74.3913L161.537 73.5944C161.578 73.5944 161.62 73.5527 161.662 73.5527C161.917 73.3861 162.88 73.4694 172.328 76.4486L175.438 70.0684L192.443 80.0163L192.318 80.3548C192.021 81.1934 185.094 100.844 183.917 103.199L183.833 103.324C183.792 103.407 183.792 103.407 183.75 103.449ZM161.62 73.5944C161.578 73.5944 161.578 73.6361 161.62 73.5944C161.578 73.6361 161.578 73.6361 161.62 73.5944ZM183.412 103.199L183.078 102.943L183.203 102.985L183.412 103.199Z" fill="black"/>
<path d="M153.896 104.287L152.594 100.636L150.281 98.1569L147.094 95.7246L150.031 92.1934L147.302 89.2975V82.1621H148.099V88.9642L151.125 92.1517L148.307 95.5944L150.87 97.5267L153.349 100.173L154.651 103.995L153.896 104.287Z" fill="black"/>
<path d="M165.776 100.761L165.359 100.048L165.568 100.428L165.359 100.089C165.948 99.6673 169.682 94.0423 169.932 93.1621C169.849 92.6152 168.464 88.2507 167.583 85.6048L167.542 85.4329L172.203 76.7871L172.958 77.1621L168.464 85.4746C169.219 87.7454 170.818 92.6152 170.818 93.1621C170.776 93.834 166.531 100.298 165.776 100.761Z" fill="black"/>
<path d="M157.214 91.9427L157 91.1042L162.755 89.8438L167.667 85.1406L168.255 85.7292L163.172 90.599L157.214 91.9427Z" fill="black"/>
<path d="M157.505 81.2764L156.75 80.943C157.042 80.3128 159.521 74.7295 161.411 73.6774L161.495 73.5941H161.578C161.661 73.5524 161.745 73.5107 161.828 73.5107L162 74.3076C161.958 74.3076 161.917 74.3493 161.875 74.3493L161.786 74.391C160.359 75.2295 158.219 79.5993 157.505 81.2764Z" fill="black"/>
<path d="M113.078 49.4066L105.604 46.7607L101.912 48.1045L98.297 43.6097L90.7397 40.4639L84.7762 43.6566H84.6512V43.2347L84.4429 42.8545L90.6564 39.4951L98.7606 42.8545L102.12 47.0576L105.521 45.7972L112.703 48.3545L117.615 42.1409L121.938 41.5107L125.886 36.0524H126.099C130.63 36.1357 137.646 36.2243 138.401 36.0524C139.573 35.8024 141.969 38.193 142.807 39.1201L147.594 39.7503L155.573 40.4222L159.943 43.2764L159.479 43.9899L155.281 41.2607L147.511 40.6305L142.557 39.9586L142.474 39.8336C141.089 38.3232 139.24 36.8076 138.735 36.8909C137.688 37.1045 128.365 36.9378 126.474 36.8909L122.568 42.3128L118.203 42.9847L113.078 49.4066Z" fill="black"/>
<path d="M183.542 57.2607L183.5 57.2191L176.693 51.7607V49.1566L170.901 46.4274L162.292 47.4743L162.208 46.6774L171.026 45.542L177.537 48.6514V51.3805L184.083 56.5889L183.542 57.2607Z" fill="black"/>
<path d="M183.328 62.4643L183.411 60.4903C183.453 59.4018 183.453 58.2247 183.328 56.9226C182.49 46.1726 177.703 36.3497 174.385 35.7611C170.651 35.8028 166.661 39.6674 162.589 47.2663C162.292 47.8549 161.958 48.4851 161.578 49.2403C161.578 49.2403 160.484 51.8445 159.901 53.2299L159.141 52.8913C159.729 51.4643 160.823 48.8601 160.823 48.8601C161.245 48.0632 161.578 47.433 161.875 46.8445C166.115 38.9538 170.354 34.9226 174.427 34.9226H174.51C179.005 35.6361 183.5 47.4747 184.214 56.8393C184.255 57.3861 184.297 57.9747 184.297 58.4747C184.547 57.8497 184.755 57.1778 184.969 56.4591C187.026 48.9851 185.219 40.8393 184.844 40.1674C184.714 39.9591 184.755 39.7924 184.797 39.7091L184.927 39.4955H185.177C185.849 39.4955 192.99 46.9695 195.844 51.3809C196.349 47.5997 196.094 37.5632 180.182 32.2768L179.297 31.9799L180.094 31.5216C182.615 30.0476 188.203 30.2195 192.318 30.3445C193.406 30.3861 194.375 30.4278 195.172 30.3861C188.661 23.5424 181.188 28.7038 178.708 30.4695L177.453 31.3497L178.125 29.9643C178.458 29.2507 185.932 13.209 190.885 9.09447C182.953 8.38092 178.88 15.8132 175.016 27.8653L174.219 27.6986C174.677 23.8757 173.672 18.0424 170.438 14.3028C168.589 12.1622 166.24 10.8601 163.385 10.4799C168.005 14.4695 169.641 21.1049 170.901 26.0163C171.193 27.1934 171.49 28.3288 171.781 29.2507L171.026 29.5476C169.849 27.2768 167.417 25.433 164.057 24.3393C158.302 22.4903 151.167 23.2455 144.193 26.3965C147.385 26.4382 152.552 27.1101 157.672 28.1153C161.286 28.834 170.021 30.8028 172.917 33.407L173.422 33.8705L172.792 34.1205C166.573 36.5163 162.25 41.2195 160.193 43.8236C158.135 46.4278 156.625 49.157 156.078 51.2976L156.036 51.3809L155.656 51.2559H155.198V51.1309C155.781 48.8601 157.339 46.0059 159.479 43.3184C161.495 40.7559 165.693 36.1778 171.74 33.6205C166.406 29.8809 147.135 26.6882 142.177 27.3184L139.828 27.6153L141.927 26.5215C149.651 22.532 157.755 21.4851 164.182 23.5424C166.703 24.3393 168.76 25.5997 170.229 27.1518C170.146 26.8601 170.062 26.5215 169.979 26.1882C168.677 21.0215 166.87 13.9226 161.661 10.2299L160.484 9.43301L161.917 9.47467C165.609 9.64134 168.677 11.0684 170.943 13.7143C173.589 16.8236 174.807 21.2299 174.974 24.9278C178.922 13.5476 183.37 6.91217 191.938 8.38092L193.115 8.59447L192.062 9.1778C188.203 11.282 181.484 24.6309 179.427 28.959C186.188 24.7143 191.896 25.2611 196.349 30.5111L196.891 31.1413L196.094 31.183C195.214 31.2663 193.87 31.2247 192.276 31.1413C188.745 31.0163 184.083 30.8913 181.438 31.7716C198.906 38.0268 197.021 50.1622 196.474 52.558L196.219 53.6049L195.719 52.6413C193.745 49.0268 188.328 43.3601 186.016 41.0945C186.688 43.9486 187.484 50.3705 185.807 56.5476C185.427 57.933 184.927 59.2768 184.297 60.5372L183.328 62.4643Z" fill="black"/>
<path d="M20.2811 97.7816L19.9009 97.0264C20.4478 96.7712 20.9113 96.4795 21.3696 96.2243C21.9165 95.9326 22.4217 95.5941 22.9686 95.3857C24.4373 94.7139 25.8228 94.6305 27.5884 95.0524C29.1821 95.4691 31.1978 94.5472 32.6248 93.7087C34.3488 92.6566 35.6925 91.4795 35.6925 91.4795L36.2342 92.1097C36.1925 92.1514 34.8488 93.3701 33.0467 94.4639C30.7759 95.8076 28.8905 96.3128 27.3748 95.9326C25.4009 95.4274 24.2707 95.766 23.3019 96.2243C22.7967 96.4378 22.2967 96.7295 21.7915 97.0264C21.328 97.193 20.828 97.4847 20.2811 97.7816Z" fill="black"/>
<path d="M22.9269 96.099L19.354 94.0833L26.4113 88.625L33.0884 93.7083L32.5832 94.3802L26.4113 89.6771L20.8696 93.9583L23.3436 95.3854L22.9269 96.099Z" fill="black"/>
<path d="M65.2085 88.2917L63.3231 85.8958L59.8752 84.5938L56.0991 85.9792H53.2866V85.1406H55.9325L59.9168 83.6719L63.8647 85.1823L65.8804 87.7865L65.2085 88.2917Z" fill="black"/>
<path d="M34.3491 112.141L30.146 103.615L59.7085 98.7031L62.271 108.401L61.4741 108.615L59.12 99.625L31.4064 104.245L35.1043 111.76L34.3491 112.141Z" fill="black"/>
<path d="M101.656 121.423L100.86 121.126L105.057 110.506L86.6252 104.079L80.9585 100.048L69.3647 95.8913L58.0731 115.626L57.7345 115.417H57.3179V115.292L61.4325 108.068L68.9897 94.8809L81.4168 99.334L87.0054 103.324L106.193 110.001L101.656 121.423Z" fill="black"/>
<path d="M101.406 97.4436C100.776 97.4436 100.062 97.2352 99.349 96.855C99.099 96.73 98.8438 96.5633 98.5938 96.3967C98.0469 96.0581 97.5833 95.7665 97.0365 95.5946C96.6198 95.4696 96.1562 95.4279 95.651 95.3863C95.3177 95.3446 94.9375 95.3029 94.5625 95.2613C93.0521 94.9696 91.7917 94.0842 90.5729 93.2456C90.3646 93.1206 90.151 92.954 89.9844 92.8238C89.3542 92.4071 88.4323 91.8186 87.4635 91.5217L87.2552 91.4383C86.6667 91.2717 86.1198 91.23 85.5729 91.3133C84.776 91.4383 84.0625 91.8186 83.2656 92.1936C83.0156 92.3238 82.7604 92.4488 82.5104 92.5738C81.0417 93.2456 79.8229 93.3706 78.8125 92.9071C78.3125 92.6988 77.9323 92.3238 77.5573 91.9852C77.3438 91.8186 77.1354 91.6102 76.9271 91.48C76.4219 91.105 75.7083 90.9383 75.3281 91.2717L74.7812 90.6415C75.5417 90.0113 76.6302 90.2665 77.3854 90.8498C77.6406 91.0217 77.849 91.23 78.0573 91.4383C78.3958 91.7352 78.7292 92.0269 79.1094 92.2352C79.8646 92.5738 80.875 92.4488 82.0885 91.9019C82.3438 91.7769 82.5938 91.6519 82.8438 91.5217C83.6458 91.105 84.4844 90.6831 85.4062 90.5581C86.1198 90.4748 86.875 90.5165 87.6771 90.7665L87.9688 90.8498C88.9323 91.1883 89.8177 91.7769 90.4479 92.1936C90.6562 92.3238 90.8646 92.4904 91.0781 92.6154C92.25 93.4123 93.4271 94.2508 94.7708 94.5061C95.1094 94.5894 95.4427 94.5894 95.7812 94.6311C96.2812 94.6727 96.8281 94.7144 97.3333 94.8811C97.9635 95.0946 98.5521 95.4279 99.099 95.7665C99.349 95.8915 99.5573 96.0581 99.8125 96.1831C100.438 96.5217 101.323 96.855 102.078 96.605C102.542 96.4383 102.958 96.0998 103.297 95.8081C103.714 95.4279 104.135 95.1363 104.516 94.8811C105.646 94.2092 106.573 94.2508 107.62 94.2508H107.917C108.922 94.2508 109.885 94.5061 110.854 94.7144C111.359 94.8394 111.859 94.9696 112.406 95.0529C113.583 95.2613 115.219 95.3029 116.312 94.3811L116.859 95.0113C115.516 96.1415 113.625 96.0998 112.281 95.8915C111.734 95.8081 111.188 95.6831 110.688 95.5529C109.76 95.3446 108.839 95.1363 107.958 95.1363H107.661C106.656 95.0946 105.901 95.0946 104.974 95.6415C104.641 95.8498 104.26 96.0998 103.885 96.4383C103.464 96.8133 103 97.1936 102.411 97.4019C101.995 97.4019 101.698 97.4436 101.406 97.4436Z" fill="black"/>
<path d="M103.797 96.099L105.813 89.0885L103.172 88.375L100.985 85.3073L95.7814 83.3333L91.8752 84.4271C88.1772 91.0208 88.0106 91.0208 87.6772 91.0208H87.2554V90.599H88.0939H87.6772V90.2188C87.547 90.2188 87.4637 90.2656 87.422 90.3073C87.7189 90.0104 89.6043 86.776 91.2033 83.8802L91.2866 83.7135L95.7814 82.4531L101.49 84.5938L103.672 87.6198L106.865 88.4583L105.313 93.875L110.979 89.6354L111.485 90.3073L103.797 96.099Z" fill="black"/>
<mask id="mask3_5507_6981" style="mask-type:luminance" maskUnits="userSpaceOnUse" x="0" y="0" width="35" height="68">
<path d="M0 0H34.5104V67.3073H0V0Z" fill="white"/>
</mask>
<g mask="url(#mask3_5507_6981)">
<path d="M11.8802 67.083L11.5469 63.5986C11.5052 63.1351 11.4635 62.6768 11.4219 62.1299C10.75 55.9163 9.61458 44.5778 17.9271 37.4372L12.2188 38.5309L12.6354 37.7341C12.724 37.5622 14.7812 33.9111 19.776 32.8174C15.1979 31.9372 5.91667 30.0466 1.08854 28.0726L0 27.6143L1.17188 27.2757C4.70312 26.2705 14.7812 25.3018 23.1771 28.4528C20.8698 25.0934 15.1979 16.5674 12.6823 11.9945L12.2188 11.1507L13.1406 11.3643C20.7865 13.2497 25.3177 22.2393 26.875 27.6143C27.8385 22.3643 28.7188 7.66634 26.7031 1.11947L26.3698 0.0673828L27.2917 0.655924C32.6667 3.93197 35.2292 19.2966 31.7448 27.6143L30.9896 27.2757C34.349 19.2132 31.9115 6.15593 27.7969 2.12467C29.6458 10.1455 28.4271 26.6038 27.2083 29.5882L26.6615 30.932L26.4531 29.458C25.9896 27.0674 24.6458 23.2028 22.2552 19.6351C20.5312 17.0726 17.7604 13.8382 13.8958 12.4945C17.0052 17.9111 23.5156 27.6143 24.6458 29.1247L25.6146 30.3851L24.1406 29.7549C16.5833 26.4372 7.13542 26.9007 2.6875 27.7809C9.65625 30.2601 22.5469 32.4841 22.6719 32.5257L22.5885 33.3643C17.7604 33.4476 15.0313 36.0101 13.9375 37.3538L21.3281 35.9268L19.8177 37.0205C10.7083 43.5257 11.5052 54.8226 12.1771 61.3747C14.4427 54.9059 22.0833 38.8643 23.8073 37.3955L25.6146 35.8434L24.4375 37.9007C20.4063 44.9997 23.6823 56.5882 24.7292 60.3643C24.901 60.9111 24.9844 61.2913 25.026 61.4997L24.1875 61.6663C24.1406 61.4997 24.0573 61.1195 23.8906 60.6195C22.9688 57.3434 20.4896 48.5257 22.1719 41.3851C20.9948 43.5674 19.4844 46.5934 17.8854 49.9528C14.8229 56.458 12.5938 61.9632 12.3438 63.6403L11.8802 67.083Z" fill="black"/>
</g>
<path d="M31.0311 29.1673L30.2759 28.7871C30.4842 28.2871 30.7342 27.7402 31.0311 27.1934L31.7863 27.5736C31.5728 28.1152 31.3228 28.6621 31.0311 29.1673Z" fill="black"/>
<path d="M26.7865 60.0318C26.6198 57.7609 26.5782 42.5213 27.7553 38.8234L28.5521 36.2661V38.9536C28.5521 42.5213 31.9115 47.5161 34.1355 50.8338C34.5573 51.4224 34.9323 52.0109 35.2292 52.5161C34.6823 48.2297 33.4636 42.0161 32.2032 38.9953C31.7448 37.8599 31.4063 37.4797 31.2396 37.3547L30.6094 36.8911L31.3646 36.6411C35.7344 35.1307 48.0365 35.4224 52.6146 37.0213C51.5625 34.2505 49.8438 32.2349 47.3646 31.0995C43.7553 29.3755 38.9219 29.6307 33.7188 31.7713L31.9948 32.4016L33.2553 31.0161C39.5938 24.0891 48.875 18.8807 54.5469 17.787C42.323 15.4797 34.5573 22.6984 31.7865 27.6568L31.073 27.2349C34.1771 21.6516 43.3334 13.3807 57.7761 17.7036L57.5678 18.5005C54 17.6203 43.0834 22.2818 35.1459 30.2609C39.8907 28.662 44.2969 28.662 47.7396 30.2609C50.6407 31.6463 52.698 34.162 53.7032 37.563L54 38.5318L53.1146 38.0682C50.1355 36.4745 37.4948 35.7609 32.2917 37.188C32.5417 37.5213 32.7917 38.0266 33.0469 38.6568C34.5573 42.2661 35.9428 50.2453 36.323 54.4016L36.5313 56.8807L35.5209 54.6151C35.1875 53.9016 34.3907 52.7245 33.4636 51.3391C31.5313 48.4849 29.0573 44.787 28.1303 41.4693C27.5 46.8443 27.4584 57.7609 27.6719 60.0318H26.7865Z" fill="black"/>
<path d="M58.7448 51.8441C56.9375 49.7868 37.75 38.3649 31.4062 37.3962L31.5312 36.5576C37.8333 37.5212 57.1875 48.7764 59.3333 51.2972L58.7448 51.8441Z" fill="black"/>
<path d="M57.3595 56.125C57.3179 56.0833 57.2762 56.0417 57.2293 56C54.3752 53.1458 37.6668 41.8073 32.4168 39.1615L32.3335 39.0781L32.6252 38.7812L32.7918 38.4062C38.2502 41.1354 54.8387 52.4323 57.8179 55.4115C57.8595 55.4531 57.9012 55.4948 57.9012 55.4948L57.3595 56.125Z" fill="black"/>
<path d="M54.9219 63.5156L54.5469 63.349H54.125V63.2656L60.4635 47.1406L61.2188 47.4323L54.9219 63.5156Z" fill="black"/>
<path d="M99.6823 55.6618L99.1406 54.9899L102.328 52.3857L101.656 47.641L102.5 47.5576L103.214 52.766L99.6823 55.6618Z" fill="black"/>
<path d="M121.266 58.1413L120.094 52.5996C119.083 52.1361 114.339 49.9538 112.787 49.3236L113.12 48.5684C114.844 49.2819 120.427 51.8444 120.636 51.9694L120.849 52.0527L122.11 58.0163L121.266 58.1413Z" fill="black"/>
<path d="M109.932 58.0156L109.677 57.2188C109.974 57.1302 113.458 55.8333 115.682 54.9896L113.417 52.474L120.427 51.8438L120.511 52.6823L115.136 53.1875L117.11 55.3698L116.521 55.5781C116.271 55.7031 110.349 57.8906 109.932 58.0156Z" fill="black"/>
<path d="M128.364 51.8857L127.776 51.2972C127.984 51.0889 128.573 49.6149 128.953 48.6514C129.708 46.7607 129.958 46.2555 130.213 46.0472C130.38 45.9222 131.344 45.3337 132.396 44.6201L135.963 42.266L141.969 43.568L144.614 41.8493L142.432 39.8753L142.979 39.2451L146 41.9326L142.135 44.4118L136.13 43.1097L132.812 45.2503C131.807 45.9222 130.885 46.5107 130.672 46.6774C130.505 46.8857 130.042 48.0628 129.708 48.9014C129.078 50.542 128.698 51.5472 128.364 51.8857Z" fill="black"/>
<path d="M139.406 56.5893L138.693 56.1674L140.417 53.1049L132.521 50.6257L136.047 47.058C134.578 46.2143 133.026 45.4174 132.688 45.3757C132.688 45.3757 132.771 45.3757 132.86 45.334L132.396 44.6205C132.604 44.4538 132.901 44.282 136.886 46.5945L137.349 46.8445L133.99 50.2038L141.547 52.5997L139.406 56.5893Z" fill="black"/>
<path d="M147.932 56.3748C147.849 56.1248 147.766 55.8332 147.724 55.5363C147.261 52.8488 149.109 50.2863 151.797 49.828C153.266 49.5728 154.734 49.9946 155.828 50.9582C156.667 51.6717 157.214 52.6405 157.464 53.6873L156.667 53.8592C156.5 52.9738 155.995 52.1769 155.323 51.5884C154.396 50.7915 153.182 50.4582 151.964 50.6665C149.74 51.0415 148.182 53.1873 148.563 55.4113C148.604 55.6613 148.646 55.9165 148.729 56.1248L147.932 56.3748Z" fill="black"/>
<path d="M152.635 57.6357C151.458 57.6357 150.364 56.9221 149.948 55.8336C149.864 55.6617 149.781 55.4117 149.781 55.2034C149.651 54.443 149.823 53.6461 150.281 53.0159C150.745 52.3857 151.416 51.969 152.172 51.844C152.927 51.7138 153.724 51.8857 154.354 52.344C154.984 52.8075 155.406 53.4794 155.531 54.2346C155.781 55.8336 154.692 57.344 153.14 57.594C152.927 57.6357 152.76 57.6357 152.635 57.6357ZM152.594 52.5992C152.469 52.5992 152.38 52.5992 152.255 52.6409C151.708 52.7242 151.208 53.0159 150.911 53.4794C150.578 53.943 150.453 54.4898 150.536 55.0315C150.578 55.2034 150.62 55.3701 150.661 55.4951C151.036 56.4169 151.963 56.9221 152.927 56.7555C154.062 56.5888 154.817 55.4951 154.651 54.3596C154.567 53.7763 154.271 53.3128 153.812 52.9742C153.474 52.7659 153.052 52.5992 152.594 52.5992Z" fill="black"/>
<path d="M121.604 63.8079C121.396 63.3912 121.224 62.9277 121.182 62.4225C120.974 61.2506 121.141 60.4485 121.604 59.8652C122.318 58.9798 123.745 58.7714 125.635 58.7298C128.068 58.2662 129.286 58.0579 130.042 58.6048C130.589 58.9798 130.797 59.6933 131.01 60.8287C131.01 60.9121 131.052 60.9954 131.052 61.0787V61.1621L130.214 61.2506V61.1621C130.214 61.0787 130.214 61.0371 130.172 60.9537C130 60.0735 129.875 59.485 129.542 59.2766C129.036 58.9381 127.776 59.1464 125.76 59.5266H125.677C123.703 59.5683 122.693 59.8183 122.234 60.3652C121.938 60.7454 121.854 61.3339 121.979 62.2558C122.068 62.6777 122.151 63.0527 122.359 63.3912L121.604 63.8079Z" fill="black"/>
<path d="M126.052 64.5629C125.089 64.5629 124.208 64.1046 123.662 63.3077C123.412 62.9275 123.24 62.5525 123.156 62.1306C123.031 61.3754 123.198 60.5785 123.662 59.9483C124.125 59.3181 124.797 58.8962 125.552 58.7712C127.146 58.5212 128.656 59.5681 128.912 61.1618C128.953 61.3754 128.953 61.6254 128.953 61.8337C128.87 63.2191 127.859 64.3129 126.516 64.5629C126.349 64.5629 126.182 64.5629 126.052 64.5629ZM126.052 59.5264C125.927 59.5264 125.844 59.5264 125.719 59.5681C125.172 59.6514 124.667 59.9483 124.375 60.4066C124.037 60.8702 123.912 61.4171 123.995 61.9639C124.037 62.2556 124.167 62.5525 124.333 62.8025C124.797 63.4743 125.594 63.8077 126.391 63.6827C127.354 63.516 128.068 62.7191 128.109 61.7504C128.109 61.5837 128.109 61.4587 128.109 61.2921C127.943 60.2816 127.063 59.5264 126.052 59.5264Z" fill="black"/>
<path d="M129.078 83.084L123.24 80.0579H120.849L120.724 79.8496C119.964 78.6309 119.292 77.4173 118.662 76.1569C115.557 69.9382 115.094 65.6569 115.094 65.4902L115.052 65.1517L122.151 63.1361L122.318 63.4329C122.948 64.6934 124.167 65.5736 125.552 65.6986C125.927 65.7402 126.307 65.7402 126.682 65.6569C128.828 65.3236 130.339 63.3496 130.125 61.209L130.083 60.8704L148.563 55.6621L148.688 56.0423C149.36 57.9329 151.292 59.0632 153.266 58.7298C155.531 58.3496 157.042 56.209 156.667 53.985C156.667 53.9434 156.625 53.86 156.625 53.8184L156.5 53.4382L169.094 49.9121L170.271 52.8496L170.818 59.8652L159.188 65.1517L154.651 74.9798L153.896 74.6413L158.557 64.5632L158.682 64.4798L169.932 59.36L169.474 53.0163L168.636 50.959L157.547 54.0684C157.886 56.7142 156.078 59.1934 153.432 59.61C151.208 59.9902 149.021 58.7715 148.099 56.7142L131.011 61.5423C131.052 63.9798 129.287 66.1621 126.854 66.5371C126.391 66.6257 125.927 66.6257 125.469 66.5788C123.912 66.4121 122.526 65.4902 121.729 64.1465L115.979 65.7819C116.146 66.9173 116.901 70.7402 119.422 75.8184C120.005 76.9954 120.636 78.1309 121.307 79.2611H123.453L128.995 82.1152L135.375 77.1621L140.75 76.1986L143.651 72.584H143.86C145.708 72.6673 149.235 72.8392 149.568 72.8392C149.948 72.8392 150.745 73.4277 151.922 74.5996L151.333 75.1882C150.662 74.5163 149.781 73.7611 149.526 73.6777C148.979 73.6777 144.995 73.4694 144.026 73.4277L141.172 76.9538L135.672 77.959L129.078 83.084Z" fill="black"/>
<path d="M164.938 60.3232V56.9222L169.979 54.6982H170.062V55.1149L170.229 55.4951L165.734 57.4691L165.776 59.193L170.188 57.8024L170.396 58.6045L164.938 60.3232Z" fill="black"/>
<path d="M119 76.4069L118.833 75.5684C118.875 75.5684 118.958 75.5684 119 75.5267C119.672 75.4017 121.099 75.0632 123.24 74.4746C126.641 73.5944 131.849 72.1257 139.073 70.0684C143.943 68.6829 149.61 67.0423 155.87 65.235C157.672 64.6934 158.766 64.3965 158.766 64.3965H158.974L170.776 66.4954L172.495 64.4798L173.125 65.0267L171.11 67.3809L158.932 65.1934C158.641 65.2819 157.63 65.5736 156.12 65.9954C149.865 67.7975 144.193 69.4382 139.323 70.8236C132.057 72.8809 126.896 74.3079 123.453 75.2298C121.224 75.8184 119.797 76.1569 119.125 76.2819C119.083 76.4069 119.042 76.4069 119 76.4069Z" fill="black"/>
<path d="M137.682 59.1517L138.515 59.0684L140.219 76.709L139.385 76.7871L137.682 59.1517Z" fill="black"/>
<path d="M153.01 74.6823L152.213 74.3906C155.656 65.3646 155.656 65.3646 155.87 65.2812L156.161 66.0781L155.995 65.6979L156.37 65.8646C156.245 66.1615 154.312 71.2813 153.01 74.6823Z" fill="black"/>
<path d="M126.432 81.7399L126.349 81.5732L122.948 74.9795L125.088 66.2451L125.885 66.4535L123.828 74.8962L127.146 81.318L126.432 81.7399Z" fill="black"/>
<mask id="mask4_5507_6981" style="mask-type:luminance" maskUnits="userSpaceOnUse" x="173" y="53" width="37" height="81">
<path d="M173.177 53.9746H210V133.975H173.177V53.9746Z" fill="white"/>
</mask>
<g mask="url(#mask4_5507_6981)">
<path d="M174.427 133.558L174.344 132.714L193.281 130.699L209.068 96.985L200.63 66.2038L194.036 64.3132L193.323 57.2194L189.083 55.8757L185.469 57.0059L185.219 56.209L189.083 54.9902L194.12 56.5892L194.792 63.6413L201.302 65.5319L209.953 97.0684L193.828 131.501L174.427 133.558Z" fill="black"/>
</g>
<mask id="mask5_5507_6981" style="mask-type:luminance" maskUnits="userSpaceOnUse" x="0" y="76" width="128" height="71">
<path d="M0 76.6406H127.844V147H0V76.6406Z" fill="white"/>
</mask>
<g mask="url(#mask5_5507_6981)">
<path d="M114.338 146.531H84.6092L84.5259 146.49L61.7655 133.516L42.4113 137.505L19.7342 129.484L16.8384 117.641L8.77588 113.443L0.416504 104.245L4.48942 83.7969L17.005 77.2031L17.38 77.9583L5.20296 84.3854L1.30192 103.995L9.27588 112.771L17.5519 117.094L20.4478 128.812L42.4946 136.661L61.9321 132.63L84.8176 145.693H114.172L126.812 139.729L127.187 140.484L114.338 146.531Z" fill="black"/>
</g>
<mask id="mask6_5507_6981" style="mask-type:luminance" maskUnits="userSpaceOnUse" x="121" y="117" width="57" height="31">
<path d="M121.177 117.975H177.177V147.001H121.177V117.975Z" fill="white"/>
</mask>
<g mask="url(#mask6_5507_6981)">
<path d="M136.719 146.532L121.688 137.334L121.308 131.287L133.276 119.026L147.891 119.573L154.943 124.74L158.427 122.386L171.823 124.36L176.36 129.693L172.578 138.344L159.313 138.802L155.828 143.464L136.719 146.532ZM122.526 136.834L136.933 145.651L155.365 142.667L158.891 137.964L172.037 137.506L175.396 129.818L171.365 125.115L158.599 123.266L154.901 125.787L147.594 120.412L133.615 119.907L122.193 131.625L122.526 136.834Z" fill="black"/>
</g>
<path d="M64.1613 69.7298L63.3644 69.3965L66.2186 62.7194L62.1873 57.7611L58.6613 65.0267L57.9009 64.6517L62.0207 56.209L67.1821 62.5944L64.1613 69.7298Z" fill="black"/>
<path d="M135.375 137.631L135.083 137.375C132.729 135.235 128.698 131.792 127.859 131.459L128.156 130.657C129.286 131.078 134.031 135.318 135.375 136.495L143.693 129.271L152.802 132.381L154.438 135.532L165.062 132.422L164.099 128.183L171.781 131.203L171.49 131.959L165.276 129.526L166.073 133.011L154.062 136.537L152.255 133.052L143.943 130.198L135.375 137.631Z" fill="black"/>
<mask id="mask7_5507_6981" style="mask-type:luminance" maskUnits="userSpaceOnUse" x="83" y="133" width="28" height="15">
<path d="M83.8438 133.975H110.51V147.001H83.8438V133.975Z" fill="white"/>
</mask>
<g mask="url(#mask7_5507_6981)">
<path d="M85.1144 146.11L84.2759 146.068C84.2759 145.818 84.4842 139.896 87.7603 138.261C90.9061 136.703 97.4582 136.032 97.755 136.032H97.9217L101.323 138.344L108.838 134.229L109.26 134.943L101.281 139.308L97.7082 136.875C96.703 137 90.9061 137.631 88.1353 139.016C85.3228 140.485 85.1561 146.068 85.1144 146.11Z" fill="black"/>
</g>
<path d="M33.255 133.261L32.4165 133.136C32.7498 130.532 36.4894 127.844 36.6561 127.719L36.7394 127.678L43.755 126.584L46.3123 128.011L52.0259 125.115L52.4009 125.87L46.3123 128.98L43.5832 127.469L37.078 128.475C36.5311 128.896 33.505 131.245 33.255 133.261Z" fill="black"/>
<mask id="mask8_5507_6981" style="mask-type:luminance" maskUnits="userSpaceOnUse" x="197" y="84" width="13" height="14">
<path d="M197.177 84.6406H210V97.974H197.177V84.6406Z" fill="white"/>
</mask>
<g mask="url(#mask8_5507_6981)">
<path d="M209.198 97.2757L203.151 89.5049L199.62 88.3747L198.234 84.9736L199.036 84.6768L200.25 87.7028L203.651 88.7913L209.828 96.7705L209.198 97.2757Z" fill="black"/>
</g>
<path d="M116.354 80.2712C114.214 80.2712 114.047 80.016 114.005 79.7243C113.792 79.3441 112.031 77.792 110.391 76.4482L105.771 77.9587L105.521 77.1618L110.557 75.5264L110.729 75.693C113.708 78.1722 114.464 79.0107 114.677 79.3857C115.307 79.5576 118.37 79.4326 121.057 79.2607L121.099 80.1045C118.917 80.2295 117.406 80.2712 116.354 80.2712Z" fill="black"/>
</svg>
