<svg width="752" height="670" viewBox="0 0 752 670" fill="none" xmlns="http://www.w3.org/2000/svg">
<g clip-path="url(#clip0_5500_11088)">
<g clip-path="url(#clip1_5500_11088)">
<path d="M-66.5051 146.167H-79.6343L-70.0392 193.051L-21.4863 202.49L12.7686 182.628V145.146L-1.98664 129.337L-47.4582 120.032L-48.0587 120.942C-49.8419 123.585 -63.7148 142.407 -66.5051 146.167Z" fill="black"/>
<path d="M277.102 195.758V171.91L276.469 171.425C275.398 170.616 273.795 170.113 271.559 169.9C265.234 169.267 255.653 171.037 255.251 171.115L254.6 171.231L243.416 186.939L260.162 202.665L277.102 195.758Z" fill="black"/>
<path d="M178.149 353.258L180.583 365.727L191.25 365.127L191.689 364.642C193.486 362.692 197.635 357.832 197.395 354.944L197.33 354.136L186.418 347.308L178.149 353.258Z" fill="black"/>
<path d="M338.138 334.469L338.803 334.843L339.464 334.681C339.773 334.598 340.974 334.275 342.725 333.789C347.895 332.343 363.523 328.014 365.713 327.904C368.207 328.518 393.223 334.681 393.223 334.681L394.355 334.954L412.464 306.356L422.355 290.731L413.258 274.986L381.373 263.33H370.526L370.217 263.478C367.51 264.674 362.567 266.767 357.333 268.971C347.391 273.157 341.279 275.749 340.129 276.446C338.152 277.629 330.663 288.005 327.536 292.418L327.115 293L327.258 293.697C335.819 333.027 337.44 334.03 338.138 334.469Z" fill="black"/>
<path d="M454.369 344.393L442.681 330.921L441.48 331.826C439.129 333.596 431.64 336.936 428.952 338.068L427.963 338.488V361.935L443.36 359.209L454.369 344.393Z" fill="black"/>
<path d="M300.071 433.559H321.068L326.223 424.818L337.149 418.969L340.064 398.895L321.585 388.228L306.299 390.579C305.647 390.662 303.365 391.36 291.4 397.163L290.948 397.389L283.408 410.778L283.912 411.591C297.674 433.559 299.004 433.559 300.071 433.559Z" fill="black"/>
<path d="M297.156 560.691L321.424 554.727L348.185 556.589L370.559 564.988L398.91 505.912L367.574 469.465L346 465.058L337.925 469.664C335.07 469.387 320.906 466.822 312.12 465.168L311.5 465.058L295.308 475.175L282.096 518.686L297.156 560.691Z" fill="black"/>
<path d="M218.322 295.721L210.168 312.825L210.279 313.361C213.813 330.302 214.917 331.032 215.499 331.42C216.261 331.942 222.78 337.435 226.702 340.776L227.302 341.293L249.01 336.641L262.223 338.295L270.843 309.161L251.879 290.603H243.642L243.383 290.616C241.097 290.991 219.976 295.384 219.084 295.56L218.322 295.721Z" fill="black"/>
<path d="M664.56 641.897H621.259V561.648H646.986L621.019 538.123V488.223H595.274V514.797L577.83 498.987L579.613 497.37H493.128L422.206 561.634H442.002V641.883H387.97L341.445 611.987L330.03 600.022L329.656 599.73C311.81 589.534 282.794 572.704 280.946 570.953C280.23 570.241 276.308 565.298 258.088 540.378C262.495 532.533 263.437 524.748 260.568 519.384C259.012 516.464 255.607 512.963 248.197 511.974C251.652 504.808 254.069 491.096 247.693 483.861C241.632 476.991 229.829 477.523 212.565 485.469C213.799 479.634 214.025 470.066 208.985 465.123C205.238 461.44 199.547 461.071 192.045 463.986C194.165 452.51 193.777 428.029 183.401 416.049C178.458 410.343 171.907 408.07 163.948 409.304C154.339 410.796 145.954 414.492 139.648 419.99L140.184 418.77L125.286 412.238L115.704 402.656C122.726 394.973 124.981 384.776 121.008 377.883C118.301 373.185 113.224 371.027 106.742 371.642C109.14 367.784 110.438 362.226 110.018 356.682C109.496 349.711 106.386 344.407 101.49 342.12C97.3411 340.175 90.1252 339.611 78.4697 346.643C88.0833 325.585 89.2336 307.493 81.5187 296.438C76.9314 289.873 69.5537 286.514 61.7742 287.47C53.3756 288.491 46.2567 294.216 42.5286 302.873C35.1371 301.852 23.3338 303.215 18.3122 313.555L3.91728 298.318C2.71616 294.054 1.80609 290.681 1.25634 288.297C0.318548 284.259 5.22927 275.006 9.7658 268.228L8.51849 267.401L8.34294 267.239L7.48368 266.006L0.138381 271.083V267.124L-2.11602 268.099C-3.15083 268.551 -4.53212 269.12 -5.72862 269.623C-4.57832 266.283 -2.2269 260.351 0.0228889 254.95L1.72755 250.848L-10.9165 257.38V247.152L-13.5451 249.245C-15.4577 250.769 -22.2486 255.925 -31.0676 259.764C-35.4286 257.884 -42.2703 255.066 -43.8595 255.066C-44.9128 255.001 -55.1084 253.051 -62.5507 251.628C-70.6398 250.085 -74.5296 249.342 -76.4929 249.097C-79.4079 242.874 -92.052 217.648 -112.933 199.552L-114.665 198.046L-136.618 254.95L-124.02 344.975L-124.575 348.038C-124.233 348.103 -123.909 348.168 -123.567 348.232L-118.315 385.797L-145.987 696.126H28.4247L212.159 712.615L275.92 682.41L399.237 671.386L389.799 645.14H664.56V641.897ZM2.42512 299.145C2.40665 299.145 2.40665 299.145 2.42512 299.145Z" fill="black"/>
<path d="M211.286 367.184L208.662 377.676L215.143 387.562L220.673 385.927H226.346L233.446 373.947L223.458 366.084L211.286 367.184Z" fill="black"/>
<path d="M319.511 172.007L322.736 172.122C323.35 154.437 298.94 116.646 267.96 112.853L267.572 116.063C296.394 119.598 320.08 155.749 319.511 172.007Z" fill="black"/>
<path d="M420.682 389.641C414.686 390.076 407.844 398.392 404.989 408.477C392.119 406.615 378.5 397.292 380.611 376.571L377.382 376.248C376.296 386.869 379.036 395.883 385.295 402.319C390.058 407.211 396.724 410.454 404.181 411.605L404.162 411.669H404.227C401.487 425.871 407.729 437.463 421.232 442.877L422.433 439.879C405.654 433.152 406.042 419.015 407.456 411.979C408.283 412.03 409.11 412.076 409.918 412.076C417.568 412.076 424.133 409.646 427.265 405.511C429.45 402.61 429.811 399.122 428.318 395.426C426.129 390.062 422.595 389.494 420.682 389.641ZM425.288 396.627C426.341 399.251 426.129 401.589 424.655 403.548C421.962 407.133 415.513 409.142 408.232 408.787C410.972 399.658 416.903 393.143 420.909 392.848C422.756 392.737 424.235 393.984 425.288 396.627Z" fill="black"/>
<path d="M88.5038 137.381C85.2931 143.151 82.4566 150.64 80.0728 159.691C70.4916 151.195 60.4438 149.961 52.8583 156.48C39.7892 167.697 38.3479 196.715 56.4062 222.934L9.83057 230.857L30.1295 235.948L11.0317 248.029L28.1522 246.325L16.8663 258.29L68.2095 243.747C59.4875 257.884 62.9569 271.162 70.8843 278.521C77.1717 284.356 87.7277 287.198 97.1934 280.841C97.5168 287.858 101.102 293.208 107.001 295.223C113.954 297.588 123.992 295.075 131.901 284.666C133.329 290.667 136.475 295.56 141.108 298.983C145.908 302.499 151.987 304.301 159.037 304.301C162.1 304.301 165.343 303.959 168.734 303.28C173.159 302.388 176.028 300.683 177.52 298.059C180.029 293.615 177.922 287.761 175.705 281.584C173.612 275.768 171.455 269.734 173.238 265.1C175.589 259.002 183.729 258.498 194.036 257.87C203.049 257.316 213.249 256.683 222.179 251.984C230.416 247.655 234.518 240.393 232.91 233.033C231.257 225.461 223.121 217.126 205.562 213.592C222.858 210.058 232.361 202.245 235.618 195.223C238.001 190.072 237.53 184.833 234.273 180.439C231.386 176.549 222.197 168.247 197.149 170.488C205.594 162.638 211.498 150.141 210.898 140.25C210.588 135.029 208.449 131.301 204.703 129.453C198.448 126.358 188.266 129.079 175.151 137.316C175.996 130.589 174.568 120.717 168.004 116.97C159.037 111.865 145.21 120.278 126.907 141.968C125.078 133.75 118.837 125.045 110.651 123.082C106.336 122.042 98.1497 122.255 90.3378 134.285C83.1403 123.147 72.0346 110.973 60.1851 101.294C46.0304 89.7488 32.5917 83.1053 22.313 82.5693L22.1513 85.7941C42.3208 86.8151 74.0904 114.179 88.5038 137.381Z" fill="black"/>
<path d="M642.787 560.026H619.638V643.518H575.22V562.945H536.105V643.518H443.605V560.026H508.059L575.414 498.986L596.877 518.427L619.379 538.82L642.787 560.026ZM498.187 601.171V571.52H468.537V601.171H498.187Z" fill="#87AAD2"/>
<path d="M619.398 489.844V538.839L596.896 518.441V489.844H619.398Z" fill="#F3AE88"/>
<path d="M443.619 560.026H426.406L493.761 499.005H575.432L508.077 560.026H443.619Z" fill="#CE636F"/>
<path d="M536.105 562.945H575.22V643.518H536.105V562.945Z" fill="#F3AE88"/>
<path d="M468.538 571.521H498.187V601.172H468.538V571.521Z" fill="#F3AE88"/>
<path d="M447.352 351.101L442.436 357.717L429.566 360.004V339.561C429.566 339.561 439.424 335.393 442.436 333.125L452.295 344.472L447.352 351.101Z" fill="#794426"/>
<path d="M412.154 276.317L420.47 290.699L411.101 305.497H411.087L370.074 318.84L360.668 308.611L345.608 302.66L340.974 277.823C342.868 276.673 364.073 267.969 370.882 264.952H381.11L412.154 276.317Z" fill="#F3AE88"/>
<path d="M411.087 305.497L393.593 333.106C393.593 333.106 367.477 326.67 365.953 326.301C364.428 325.908 340.586 332.736 339.076 333.106C337.57 333.48 328.848 293.342 328.848 293.342C328.848 293.342 339.076 278.96 340.956 277.823L345.594 302.66L360.654 308.611L370.055 318.839L411.087 305.497Z" fill="#794426"/>
<path d="M-122.107 346.874L-134.945 255.13L-114.037 200.771C-90.5456 221.113 -77.689 250.506 -77.6567 250.506C-77.7398 250.247 -45.5452 256.669 -43.9376 256.669C-42.3161 256.669 -31.118 261.515 -31.118 261.515C-37.0958 264.079 -43.7944 265.909 -50.359 265.747C-50.359 265.747 -32.0419 272.233 -25.1678 276.821C-18.3076 281.39 -19.0698 303.908 -19.444 306.583C-19.8321 309.258 -9.91363 289.027 -9.91363 289.027L4.57831 306.551C4.4813 306.195 3.52503 302.984 2.40706 299.126L18.7977 316.493C16.802 322.277 16.8528 330.709 20.6132 342.836C13.7576 336.35 -8.00108 337.874 -3.37678 366.49C-31.9449 360.392 -34.7167 398.558 8.38955 404.651C-6.10239 410.745 -9.53944 433.268 11.4524 438.225C32.4304 443.173 36.8745 433.864 49.2276 453.11C50.1838 454.603 50.8444 457.324 51.3018 460.89C51.3341 461.214 51.3665 461.537 51.3988 461.865C51.445 462.35 51.4773 462.674 51.4958 462.803C53.3114 481.754 49.9852 518.719 49.9852 518.719C59.9267 517.194 79.7498 521.412 79.7498 521.412C75.7953 517.763 66.034 493.739 66.75 471.932C66.8609 468.495 67.2351 465.122 67.9326 461.879C72.5061 440.512 85.0994 441.274 101.504 441.274C117.913 441.274 129.73 413.051 99.5913 410.745C105.334 409.013 109.953 406.144 113.404 402.688L124.33 413.6L139.505 420.248L140.249 421.561C127.282 433.235 124.09 453.143 139.505 477.573C128.155 467.927 97.5679 482.711 118.107 508.814C112.332 505.991 87.922 510.985 99.4943 530.893C89.2017 527.053 71.2403 539.892 80.8678 555.129C41.6882 561.371 53.2605 612.472 100.146 592.255C91.1466 608.014 105.916 639.467 139.519 603.214C142.31 610.01 153.448 623.398 168.734 598.497L164.193 660.686L134.835 675.734C139.325 674.81 158.599 672.879 161.162 672.879C163.722 672.879 176.953 675.734 176.953 675.734L204.832 672.879L183 660.686L181.036 601.172C184.229 607.838 201.626 609.927 209.974 595.156C244.03 616.348 269.06 570.093 237.517 555.147C244.502 554.32 251.699 548.014 256.157 540.525C262.708 549.488 277.911 570.241 279.791 572.14C282.226 574.551 328.848 601.172 328.848 601.172L340.388 613.267L387.481 643.518L396.997 669.945L275.481 680.825L211.868 710.961L28.5729 694.505H-144.222L-116.679 385.765L-122.107 346.874ZM25.0712 574.066C50.2624 576.432 51.0246 528.056 19.9988 535.66C30.6333 529.502 29.8064 506.416 8.40803 511.701C39.7249 492.602 0.300488 442.669 -24.4703 492.634C-23.2691 466.679 -52.4009 452.898 -72.8568 464.716C-90.1067 474.672 -96.7221 506.139 -74.0764 521.426L-74.0903 521.445C-85.1775 521.523 -100.386 541.029 -85.0666 554.011C-96.8514 556.769 -95.6827 583.519 -72.0807 576.824C-81.1445 585.09 -73.2633 599.259 -57.5241 595.323C-41.7987 591.396 -35.2803 590.458 -29.7875 601.075H-29.769L-28.8128 633.89L-55.1727 641.361C-53.5835 641.361 -27.6301 641.361 -27.6301 641.361H6.18596L-13.0874 633.89L-15.8776 598.871H-15.8453C-10.334 588.254 2.26385 594.154 11.6972 596.506C21.1306 598.871 30.9567 586.665 18.3773 581.555C24.2951 580.359 25.0712 574.066 25.0712 574.066Z" fill="#794426"/>
<path d="M338.313 399.74L335.671 417.929L326.529 422.826L325.166 420.262L315.492 417.522L306.507 422.632L297.739 407.843L306.507 392.168L321.276 389.899L338.313 399.74Z" fill="#794426"/>
<path d="M311.824 466.758C311.824 466.758 336.064 471.299 338.313 471.299L346.273 466.758L366.715 470.925L396.997 506.139L369.746 562.927L348.546 554.967L321.294 553.073L298.191 558.746L283.815 518.603L296.685 476.196L311.824 466.758Z" fill="#F3AE88"/>
<path d="M325.166 420.262L326.528 422.826L325.069 423.602L320.158 431.937C320.158 431.937 301.614 431.937 300.09 431.937C298.584 431.937 285.321 410.731 285.321 410.731L292.144 398.622C292.144 398.622 305.389 392.187 306.525 392.187L297.757 407.862L306.525 422.646L315.506 417.541L325.166 420.262Z" fill="#F3AE88"/>
<path d="M271.087 174.668L271.397 171.508C273.148 171.67 274.621 172.039 275.481 172.704V194.659L267.83 197.786L266.209 193.864L270.487 185.271L271.087 174.668Z" fill="#794426"/>
<path d="M266.223 193.865L267.845 197.787L260.536 200.785L245.573 186.745L255.556 172.724C255.556 172.724 265.253 170.908 271.411 171.522L271.106 174.683L270.52 185.285L266.223 193.865Z" fill="#794426"/>
<path d="M255.445 296.34L269.027 309.632L261.067 336.511L248.959 334.986L227.773 339.528C227.773 339.528 217.545 330.823 216.423 330.061C215.272 329.299 211.886 313.004 211.886 313.004L219.458 297.116C219.458 297.116 241.406 292.561 243.693 292.187H251.26L255.445 296.34Z" fill="#F3AE88"/>
<path d="M176.255 544.415L173.987 508.846L173.012 521.445L169.801 562.946L158.566 547.608L169.801 574.584L139.487 562.946L169.801 583.584L168.702 598.497C153.415 623.417 142.277 610.01 139.487 603.214C105.897 639.467 91.1325 608.014 100.113 592.255C53.2142 612.472 41.6557 561.371 80.8352 555.129C71.2078 539.892 89.183 527.054 99.4618 530.893C87.9034 510.985 112.3 505.991 118.075 508.814C97.5354 482.729 128.122 467.945 139.473 477.573C124.057 453.125 127.249 433.235 140.217 421.561C146.328 416.063 154.612 412.367 164.147 410.893C193.874 406.273 193.209 455.264 189.693 466.726C215.712 454.455 212.533 482.711 209.942 488.486C259.386 464.069 251.602 504.194 245.541 513.369C263.387 514.261 263.128 528.804 256.143 540.493C251.685 547.982 244.488 554.288 237.498 555.115C269.046 570.061 244.016 616.316 209.955 595.124C201.608 609.894 184.196 607.806 181.022 601.14L179.757 562.914L201.608 544.383L176.92 555.129L176.255 544.415Z" fill="#4CAF50"/>
<path d="M231.321 374.353L225.422 384.304H220.446L215.841 385.667L210.394 377.384L212.584 368.693L222.973 367.751L231.321 374.353Z" fill="#794426"/>
<path d="M154.108 217.824L127.087 215.459L136.909 197.302L120.195 214.632L99.9513 217.759L102.885 191.255L91.6174 218.605L59.2288 224.098C28.2815 181.964 52.0452 133.814 80.9644 162.754C83.7223 151.583 86.933 143.281 90.3839 137.316C105.624 110.858 125.045 130.299 125.854 145.78C170.757 90.8993 176.74 129.809 172.753 140.8C221.629 107.873 214.64 157.741 191.703 172.724C250.257 164.519 249.624 209.915 192.71 213.625C234.158 215.879 240.417 240.536 221.449 250.524C202.485 260.513 176.74 251.545 171.746 264.5C166.77 277.468 188.381 297.699 168.424 301.691C148.467 305.678 134.608 297.149 132.839 280.466C119.871 301.413 96.9346 297.44 98.9257 277.468C79.9758 294.442 51.0889 268.274 72.0807 240.975L91.391 235.514L137.329 247.817L100.58 231.153L124.168 222.121L154.108 217.824Z" fill="#4CAF50"/>
<path d="M195.787 355.074C195.999 357.574 190.502 363.538 190.502 363.538L181.895 364.023L179.932 353.956L186.483 349.253L195.787 355.074Z" fill="#794426"/>
<path d="M154.108 217.823L124.154 222.138L100.566 231.166L137.316 247.83L91.3729 235.513L72.0672 240.993L22.073 255.144L32.301 244.282L17.6797 245.742L34.1812 235.301L17.6797 231.166L59.2106 224.097L91.5854 218.604L102.867 191.235L99.9331 217.759L120.181 214.631L136.895 197.301L127.088 215.458L154.108 217.823Z" fill="#F3AE88"/>
<path d="M134.802 675.733L164.16 660.686L168.701 598.497L169.801 583.583L139.487 562.946L169.801 574.583L158.566 547.607L169.801 562.946L173.012 521.444L173.986 508.846L176.255 544.415L176.934 555.161L201.626 544.415L179.77 562.946L181.036 601.171L182.999 660.686L204.832 672.878L176.952 675.733C176.952 675.733 163.74 672.878 161.162 672.878C158.584 672.878 139.311 674.809 134.802 675.733Z" fill="#F3AE88"/>
<path d="M50.747 394.533L43.6465 375.374L60.4113 407.876L71.7111 399.43L86.0737 388.698L78.6822 397.536L64.3011 414.704L66.7495 471.964C66.0335 493.77 75.7949 517.813 79.7493 521.444C79.7493 521.444 59.9263 517.245 49.9847 518.751C49.9847 518.751 53.3109 481.786 51.4954 462.835C51.4769 462.706 51.4445 462.382 51.3983 461.897C51.3799 461.62 51.3475 461.296 51.3013 460.922C50.6361 453.757 48.4002 429.636 48.4002 429.636L41.1704 421.934L33.437 413.697L55.205 427.349V406.564L50.747 394.533Z" fill="#F3AE88"/>
<path d="M50.747 394.533L55.205 406.564V427.349L33.437 413.697L41.1704 421.934L48.4002 429.636C48.4002 429.636 50.6361 453.757 51.3014 460.922C50.844 457.356 50.1834 454.635 49.2271 453.142C36.8741 433.895 32.43 443.205 11.452 438.257C-9.52138 433.299 -6.10282 410.777 8.38913 404.683C-34.7171 398.589 -31.9592 360.424 -3.37721 366.522C-8.00151 337.906 13.7572 336.381 20.6128 342.868C16.8662 330.74 16.82 322.309 18.7973 316.525C23.2368 303.441 37.9412 303.667 43.5033 304.721C55.3343 273.822 106.839 287.922 74.4183 351.281C111.815 324.582 113.713 366.536 102.266 374.173C123.165 368.416 126.764 389.59 113.404 402.738C109.934 406.189 105.333 409.058 99.5909 410.795C129.73 413.096 117.913 441.324 101.503 441.324C85.0851 441.324 72.5057 440.562 67.9322 461.929C67.2347 465.168 66.8605 468.541 66.7496 471.978L64.3012 414.718L78.6822 397.55L86.0737 388.717L71.7111 399.449L60.4114 407.894L43.6465 375.388L50.747 394.533Z" fill="#4CAF50"/>
<path d="M11.129 145.779V181.686L-21.7771 200.785L-68.6761 191.674L-77.6567 147.789H-65.6918C-65.6918 147.789 -48.719 124.832 -46.7418 121.834L-2.84559 130.815L11.129 145.779Z" fill="#F3AE88"/>
<path d="M-74.0769 521.426C-96.7225 506.138 -90.1072 474.653 -72.8573 464.715C-52.4013 452.916 -23.2696 466.679 -24.4707 492.634C0.300037 442.683 39.7106 492.602 8.40758 511.701C29.806 506.415 30.6329 529.502 19.9984 535.66C51.0426 528.055 50.2619 576.431 25.0708 574.066C25.0708 574.066 24.2947 580.358 18.3907 581.541C30.9701 586.646 21.1487 598.857 11.7107 596.487C2.2634 594.121 -10.316 588.235 -15.8273 598.857H-15.8642L-17.7906 574.472L-3.67289 550.948L-1.66333 547.607L-3.64055 549.229L-22.4611 564.632V536.016L-28.4113 573.29L-45.7212 561.874L-30.37 580.372L-29.7556 601.074H-29.7695C-35.2669 590.439 -41.7853 591.382 -57.5061 595.322C-73.2499 599.259 -81.1265 585.089 -72.0673 576.824C-95.6693 583.518 -96.8519 556.769 -85.0486 554.011C-100.4 541.028 -85.178 521.523 -74.0769 521.426Z" fill="#4CAF50"/>
<path d="M-9.91405 289.059C-9.91405 289.059 -19.8325 309.276 -19.4445 306.615C-19.0703 303.94 -18.308 281.422 -25.1682 276.853C-32.0423 272.279 -50.3594 265.779 -50.3594 265.779C-43.7948 265.94 -37.0963 264.092 -31.1184 261.547C-22.8307 258.031 -15.9289 253.18 -12.5888 250.523V260.054L-1.51547 254.349C-1.51547 254.349 -9.1518 272.667 -8.0015 272.279C-6.84658 271.909 -1.51547 269.604 -1.51547 269.604V274.178L8.37528 267.349C7.82091 268.176 -1.83884 282.397 -0.365164 288.685C0.332408 291.655 1.43651 295.656 2.42512 299.144V299.158C3.54309 303.016 4.49936 306.227 4.59638 306.582L-9.91405 289.059Z" fill="#F3AE88"/>
<path d="M-55.1729 641.347L-28.8129 633.872L-29.7692 601.061L-30.3882 580.358L-45.7395 561.86L-28.4249 573.271L-22.4747 536.002V564.614L-3.65414 549.215C-3.67262 550.282 -3.68648 550.934 -3.68648 550.934L-17.8089 574.454L-15.8778 598.838L-13.0875 633.858L6.18579 641.328H-27.6303C-27.6303 641.347 -53.5837 641.347 -55.1729 641.347Z" fill="#F3AE88"/>
<path d="M141.423 298.58L141.424 298.581C146.103 302.039 152.086 303.8 159.056 303.8C162.063 303.8 165.272 303.463 168.646 302.758L168.651 302.756C173.002 301.893 175.707 300.227 177.099 297.781C178.266 295.7 178.381 293.264 177.903 290.532C177.424 287.794 176.363 284.829 175.249 281.721C175.249 281.721 175.248 281.72 175.248 281.72L175.719 281.552M141.423 298.58L173.257 265.067C171.474 269.72 173.626 275.735 175.719 281.552M141.423 298.58C136.888 295.251 133.804 290.459 132.402 284.55L132.157 283.52L131.517 284.363C123.707 294.642 113.884 297.029 107.176 294.749L107.175 294.748C101.508 292.831 98.0273 287.671 97.707 280.817L97.6656 279.93L96.9288 280.425C87.6969 286.625 77.3998 283.868 71.2385 278.154L71.2383 278.154C62.8745 270.403 59.4716 255.855 70.8806 240.689L141.423 298.58ZM175.719 281.552C177.941 287.747 180.029 293.582 177.535 298.026C176.042 300.651 173.174 302.369 168.748 303.247C165.343 303.958 162.1 304.3 159.056 304.3C152.002 304.3 145.908 302.517 141.127 298.983M175.719 281.552L141.127 298.983M141.127 298.983C136.649 295.696 133.562 291.018 132.07 285.285L141.127 298.983ZM175.134 296.696C174.035 298.662 171.691 299.885 168.2 300.591L168.199 300.591C157.819 302.664 148.988 301.377 142.725 296.775L143.021 296.372L142.725 296.775C137.697 293.08 134.673 287.38 133.931 280.343L208.168 140.381M175.134 296.696C175.134 296.697 175.133 296.697 175.133 296.698L174.698 296.451L175.135 296.695C175.134 296.695 175.134 296.696 175.134 296.696ZM175.134 296.696C176.118 294.961 176.065 292.729 175.57 290.329C175.08 287.95 174.13 285.292 173.168 282.602L173.127 282.487L173.127 282.487C171.981 279.293 170.832 276.089 170.239 272.968C169.647 269.852 169.618 266.863 170.674 264.097M170.674 264.097C172.148 260.266 175.144 258.19 179.193 256.982C183.269 255.765 188.336 255.45 193.859 255.107M170.674 264.097L170.208 263.917L170.675 264.095C170.675 264.096 170.675 264.096 170.674 264.097ZM193.859 255.107C193.859 255.107 193.859 255.107 193.859 255.107L193.828 254.608L193.859 255.107ZM193.859 255.107C202.528 254.572 212.48 253.958 220.906 249.525L220.906 249.525C228.013 245.778 231.616 239.831 230.239 233.572C228.423 225.236 217.521 216.177 193.093 214.759L193.083 212.47C216.94 210.81 229.45 201.983 233.138 194.042L233.138 194.042C235.077 189.862 234.708 185.582 232.079 182.039C229.116 178.04 223.831 175.32 216.942 173.93C210.043 172.538 201.473 172.465 191.846 173.817L186.882 174.51L191.071 171.779L191.071 171.779C196.549 168.203 200.958 162.706 203.927 156.948C206.894 151.196 208.452 145.127 208.168 140.381M208.168 140.381C208.168 140.381 208.168 140.382 208.168 140.382L207.669 140.411L208.168 140.381ZM203.502 131.873C200 130.142 191.632 129.425 173.347 141.733L173.61 142.124L173.347 141.733L170.508 143.646M203.502 131.873L221.965 251.509C230.046 247.252 233.982 240.185 232.441 233.107C230.847 225.808 222.956 217.564 205.482 214.049L205.481 213.069C222.687 209.572 232.012 201.807 235.183 194.98C237.493 189.987 237.015 184.93 233.886 180.704C231.126 176.993 222.117 168.724 197.213 170.953L195.755 171.083L196.828 170.088C205.191 162.333 210.989 149.969 210.413 140.246L210.413 140.246C210.115 135.171 208.038 131.616 204.5 129.868L204.5 129.868C201.521 128.395 197.55 128.278 192.645 129.585C187.745 130.89 181.969 133.603 175.435 137.707L174.542 138.267L174.673 137.221C175.087 133.914 174.941 129.833 173.89 126.129C172.837 122.422 170.897 119.156 167.771 117.372C163.515 114.952 158.028 115.676 151.226 119.815C144.432 123.95 136.445 131.427 127.308 142.258L126.658 143.029L126.438 142.045C125.538 138.018 123.553 133.858 120.79 130.468C118.025 127.076 114.507 124.485 110.548 123.535C108.344 123.012 105.094 122.818 101.392 124.484C97.6878 126.151 93.4797 129.703 89.4085 136.771L89.4081 136.771C86.0333 142.605 83.063 150.358 80.5565 159.832L80.3489 160.617L79.7414 160.078C75.0029 155.876 70.1905 153.506 65.6635 152.966C61.15 152.428 56.8803 153.704 53.184 156.873C46.6369 162.495 43.0102 172.774 43.49 185.04C43.9643 197.168 48.4548 211.172 58.021 224.354L59.8247 223.033C49.9898 209.466 46.0388 195.713 45.8484 184.192C45.6564 172.582 49.2881 163.169 54.6533 158.562L54.6537 158.562C58.1744 155.545 62.2986 154.494 66.6895 155.369C71.0591 156.24 75.6547 159.009 80.1869 163.55L80.1869 163.55L81.5823 164.949L82.0544 163.022L82.0544 163.022C84.6199 152.556 87.7477 144.093 91.3464 137.874C96.7578 128.472 103.211 124.071 110.038 125.709L110.038 125.709C114.163 126.704 117.732 129.782 120.31 133.552C122.89 137.324 124.523 141.853 124.732 145.85L124.732 145.851L124.879 148.734L126.7 146.498L126.701 146.498C138.721 131.808 147.507 124.361 153.874 120.907C160.257 117.445 164.277 117.964 166.663 119.325C169.846 121.134 171.553 125.158 172.249 129.252C172.949 133.365 172.662 137.732 171.685 140.42L171.685 140.421L170.508 143.646M203.502 131.873L203.28 132.321M203.502 131.873C203.502 131.873 203.502 131.873 203.501 131.873L203.28 132.321M170.508 143.646L169.802 144.121L185.717 174.673L190.798 171.36C201.575 164.324 208.223 149.669 207.669 140.411C207.507 137.625 206.602 133.961 203.28 132.321M170.508 143.646L170.216 144.445L173.626 142.148C191.883 129.859 200.037 130.718 203.28 132.321M191.916 174.312L185.897 175.152L191.916 174.312Z" fill="black" stroke="black"/>
<path d="M-21.5048 202.49L-70.0531 193.051L-79.6343 146.167H-66.5051C-63.7148 142.388 -49.8419 123.585 -48.0726 120.942L-47.472 120.032L-2.0005 129.337L12.7501 145.146V182.628L-21.5048 202.49ZM-67.3136 190.298L-22.0684 199.085L9.50713 180.762V146.426L-3.67283 132.308L-46.0122 123.65C-49.5971 128.741 -63.7472 147.886 -64.3986 148.759L-64.8836 149.411H-75.6983L-67.3136 190.298Z" fill="black"/>
<path d="M260.176 202.684L243.434 186.957L254.618 171.25L255.265 171.134C255.672 171.051 265.253 169.286 271.573 169.919C273.795 170.127 275.416 170.617 276.488 171.444L277.116 171.929V195.777L260.176 202.684ZM247.693 186.537L260.873 198.905L273.878 193.587V173.661C273.356 173.453 272.547 173.241 271.249 173.13C266.255 172.626 258.702 173.809 256.48 174.197L247.693 186.537Z" fill="black"/>
<path d="M180.583 365.709L178.149 353.244L186.437 347.294L197.344 354.118L197.408 354.931C197.653 357.814 193.505 362.66 191.703 364.624L191.264 365.109L180.583 365.709ZM181.734 354.667L183.226 362.323L189.758 361.949C191.754 359.694 193.519 357.181 194.036 355.869L186.566 351.184L181.734 354.667Z" fill="black"/>
<path d="M-19.2642 308.533C-19.4767 308.533 -19.6707 308.468 -19.8971 308.399C-20.4191 308.237 -21.2275 307.641 -21.0474 306.375C-20.5947 303.15 -20.2389 282.074 -26.0736 278.184C-32.7028 273.772 -50.715 267.368 -50.909 267.304L-60.4902 263.917L-50.3408 264.158C-44.7325 264.305 -38.4774 262.91 -31.765 260.055C-22.655 256.197 -15.5684 250.815 -13.6235 249.258L-10.9996 247.17V257.399L1.6445 250.866L-0.0555396 254.964C-2.30994 260.365 -4.66136 266.315 -5.81166 269.637C-4.59669 269.133 -3.23388 268.551 -2.19445 268.112L0.0553328 267.142V271.097L7.40063 266.024L9.23464 268.681L-3.18307 277.26V272.039C-4.82305 272.732 -6.84647 273.559 -7.56252 273.804L-8.53266 274.128L-9.31338 273.365C-10.0756 272.538 -10.5607 272.021 -4.7399 257.819L-14.2426 262.716V253.781C-17.6473 256.23 -23.4958 260.074 -30.5177 263.04C-34.8464 264.888 -39.0087 266.153 -42.9816 266.833C-36.9853 269.166 -28.6052 272.654 -24.3227 275.509C-18.5389 279.367 -17.6612 292.755 -17.6796 300.734C-15.8964 297.343 -13.5589 292.723 -11.42 288.348L-10.3159 286.093L6.13484 305.987L6.15331 306.601H2.9103H4.53181L3.36303 307.719L-9.63676 292.011C-16.6864 306.486 -18.0815 308.533 -19.2642 308.533ZM-17.8228 306.749C-17.8228 306.795 -17.8228 306.828 -17.8228 306.828C-17.8413 306.814 -17.8413 306.782 -17.8228 306.749Z" fill="black"/>
<path d="M3.02604 307.008C2.99371 306.879 2.8274 306.357 2.60103 305.548C2.19912 304.185 1.56622 302.028 0.868652 299.598L3.98232 298.706C4.67989 301.122 5.30817 303.261 5.7147 304.638C5.95954 305.484 6.12123 306.019 6.15357 306.163L3.02604 307.008Z" fill="black"/>
<path d="M0.850062 299.583C-0.411111 295.106 -1.36739 291.558 -1.95409 289.059C-3.39543 282.882 3.80204 271.244 6.9619 266.523L7.20675 266.199L8.45406 267.414L9.70137 268.241C5.16485 275.019 0.254123 284.277 1.19192 288.315C1.774 290.764 2.69794 294.266 3.94987 298.692L0.850062 299.583Z" fill="black"/>
<path d="M48.8662 518.632L48.8661 518.633L48.7413 520.06L50.1549 519.846C54.9935 519.113 62.306 519.781 68.3833 520.623C74.2971 521.442 79.1256 522.44 79.5119 522.526L83.4735 523.37L80.5006 520.693L80.4964 520.689C80.0052 520.237 79.4413 519.47 78.8365 518.471C78.2259 517.462 77.5545 516.184 76.8543 514.682C75.4536 511.678 73.9282 507.759 72.5364 503.266C69.7542 494.283 67.4949 482.97 67.853 472.059L67.8531 472.058C67.9694 468.563 68.3604 465.244 69.0142 462.213C71.1092 452.432 74.822 447.419 80.1148 444.913C85.3192 442.449 91.9707 442.462 99.7779 442.478L99.8683 442.478H99.8693H101.504C106.396 442.478 110.767 440.213 113.963 436.907C117.164 433.597 119.151 429.279 119.307 425.237C119.363 423.802 119.194 420.908 117.415 418.003C115.646 415.113 112.245 412.148 105.718 410.617L104.364 410.299L105.61 409.682C108.841 408.083 111.729 406.058 114.201 403.586L114.203 403.583C122.024 395.877 124.567 385.208 120.543 378.234C117.958 373.757 113.099 371.635 106.758 372.241L105.753 372.337L106.285 371.479C108.619 367.719 109.9 362.27 109.487 356.817C108.96 349.963 105.93 344.858 101.247 342.67L48.8662 518.632ZM48.8662 518.632L48.8681 518.61C48.9618 517.538 52.0676 482.02 50.4175 463.415M48.8662 518.632L50.4175 463.415M50.4175 463.415L52.647 463.204C54.1404 479.84 51.9294 508.955 51.2698 516.861L51.2209 517.448L51.8077 517.401C59.2917 516.807 70.221 518.512 76.0479 519.566L77.0972 519.756L76.5721 518.828C71.8434 510.47 65.0173 490.454 65.6279 471.899C65.7564 468.26 66.16 464.806 66.8322 461.66C69.1612 450.797 73.599 445.468 79.2757 442.816C85.0126 440.135 92.0949 440.138 99.8662 440.171H99.8683H101.504C105.754 440.171 109.577 438.131 112.361 435.248C115.141 432.37 116.929 428.606 117.063 425.081C117.209 421.3 115.639 418.187 112.597 415.929C109.576 413.687 105.127 412.301 99.5001 411.868L93.5168 411.408L99.2497 409.685C99.2498 409.685 99.2498 409.685 99.2499 409.685C104.509 408.107 109.008 405.489 112.605 401.912C116.044 398.522 118.418 394.408 119.497 390.378C120.576 386.353 120.374 382.364 118.586 379.273C115.824 374.469 110.019 373.163 102.558 375.215L95.8751 377.053L101.652 373.194L101.652 373.193C103.564 371.915 105.085 369.496 106.065 366.61C107.049 363.71 107.512 360.275 107.255 356.884C106.813 351.011 104.322 346.474 100.306 344.605C97.3414 343.22 93.659 343.236 89.4289 344.518C85.1969 345.799 80.3694 348.361 75.0661 352.14L75.0645 352.141L71.3294 354.824L73.4175 350.747C79.1275 339.597 82.5326 329.227 83.5425 320.248C84.5522 311.272 83.1716 303.643 79.2541 298.031L79.2537 298.031C75.2571 292.322 68.8378 289.385 62.0695 290.217C54.2828 291.167 47.7429 296.764 44.5427 305.11C44.5427 305.11 44.5427 305.11 44.5426 305.11L44.2083 305.979L43.2894 305.801L43.2894 305.801L43.2812 305.799L43.2737 305.798C42.844 305.722 38.2688 304.91 33.1773 305.874C28.0407 306.847 22.3087 309.647 19.8489 316.88C17.6908 323.143 18.3415 331.796 21.6735 342.544L50.4175 463.415ZM11.1975 439.392C18.217 441.049 23.4395 441.129 27.6572 441.194L27.6696 441.194L27.6702 441.194L27.7243 441.195C31.7941 441.252 34.994 441.297 38.1411 442.904C41.3018 444.518 44.3476 447.67 48.2668 453.778L48.2688 453.781C48.8505 454.702 49.6052 456.69 50.1576 461.054L50.1592 461.067L50.2065 461.544L52.4431 461.32L52.3937 460.798C51.8731 456.747 51.1208 454.087 50.1505 452.566C45.7992 445.789 42.3452 442.45 38.9433 440.767C35.5387 439.082 32.1246 439.018 27.7058 438.951L27.7055 438.951L27.6856 438.95C23.5987 438.886 18.4821 438.805 11.6977 437.205L11.697 437.205C3.49503 435.258 -1.64877 430.212 -2.2261 423.288L-2.22612 423.288C-2.82722 416.041 1.81845 408.676 8.80944 405.729L8.81006 405.729L12.5423 404.161L8.5316 403.589C-7.08548 401.375 -18.6987 394.381 -22.3422 384.707L-21.8743 384.531L-22.3422 384.707C-24.162 379.875 -23.5651 374.905 -20.6177 371.495C-17.1104 367.411 -10.8727 366.078 -3.63429 367.622C-3.63389 367.622 -3.63348 367.622 -3.63308 367.623L-2.02682 367.959L-2.28616 366.338C-4.17576 354.591 -1.70463 345.97 5.02791 342.408L5.02864 342.407C7.69823 341 10.6514 340.616 13.2996 340.928C15.9399 341.24 18.3242 342.249 19.8393 343.688L22.928 346.611L21.6737 342.545L101.246 342.67C97.2964 340.836 90.2607 340.204 78.6956 347.172L77.3126 348.006L77.9826 346.537C87.5776 325.501 88.6324 307.634 81.0767 296.821C76.5922 290.403 69.3935 287.13 61.8034 288.063C53.6048 289.078 46.6234 294.668 42.9555 303.168L42.8046 303.517L42.4275 303.465C38.5162 302.921 33.3661 303.057 28.6853 304.859C24.0214 306.654 19.8235 310.102 17.7463 316.214L17.7459 316.216C15.749 322.035 15.9394 329.755 18.4036 339.24L18.655 340.208L17.73 339.829C13.819 338.225 8.57477 338.069 3.98898 340.487M11.1975 439.392C11.1976 439.392 11.1977 439.392 11.1978 439.392L11.0826 439.878L11.1975 439.392ZM11.1975 439.392C1.85137 437.179 -3.77874 431.37 -4.43562 423.496L-4.43565 423.496C-5.00645 416.699 -1.67462 410.003 3.94661 405.948L4.86456 405.286L3.75689 405.053C-10.5862 402.04 -20.8952 394.88 -24.4229 385.524M-24.4229 385.524C-26.5591 379.831 -25.7368 374.062 -22.2905 370.074L-22.2902 370.074C-18.6741 365.88 -12.6261 364.062 -5.36403 365.086L-4.71981 365.177L-4.79783 364.531C-5.76107 356.557 -4.57838 351.094 -2.66476 347.361C-0.751833 343.63 1.91313 341.586 3.98898 340.487M-24.4229 385.524C-24.4228 385.524 -24.4228 385.524 -24.4228 385.524L-24.8909 385.7M-24.4229 385.524C-24.4229 385.524 -24.423 385.524 -24.4231 385.523L-24.8909 385.7M3.98898 340.487L3.75573 340.045M3.98898 340.487C3.98917 340.487 3.98936 340.487 3.98956 340.487L3.75573 340.045M3.75573 340.045C-0.494635 342.294 -7.09615 348.359 -5.35366 364.078L42.4964 302.97C34.5552 301.866 21.5369 303.506 17.2729 316.054C15.2739 321.879 15.4356 329.507 17.7666 338.768C17.8819 338.812 17.9962 338.857 18.1094 338.903L17.9197 339.366L17.4357 339.492C17.4056 339.376 17.3758 339.26 17.3463 339.144C13.3841 337.703 8.26551 337.667 3.75573 340.045ZM-24.8909 385.7C-21.333 395.137 -11.0895 402.293 3.00198 405.402M-24.8909 385.7C-27.0807 379.865 -26.2537 373.896 -22.6689 369.747L3.00198 405.402M3.00198 405.402C3.12084 405.313 3.24072 405.224 3.36159 405.137L3.6541 405.543L3.00198 405.402Z" fill="black" stroke="black"/>
<path d="M394.341 334.954L393.204 334.681C393.204 334.681 368.193 328.518 365.694 327.904C363.504 328.019 347.881 332.343 342.707 333.789C340.956 334.275 339.759 334.616 339.45 334.681L338.785 334.843L338.119 334.469C337.422 334.03 335.8 333.027 327.258 293.697L327.115 293L327.536 292.418C330.663 288.005 338.17 277.629 340.129 276.446C341.279 275.749 347.391 273.157 357.328 268.971C362.567 266.767 367.51 264.674 370.217 263.478L370.526 263.33H381.369L413.258 274.986L422.35 290.731L412.464 306.356L409.724 304.624L418.557 290.648L411.023 277.629L380.787 266.573H371.192C368.401 267.807 363.62 269.817 358.561 271.956C351.544 274.908 342.804 278.585 341.769 279.218C340.665 279.981 335.283 287.081 330.548 293.711C334.017 309.632 338.184 327.09 339.773 331.244C340.309 331.096 341.007 330.902 341.815 330.676C363.038 324.776 365.352 324.499 366.327 324.744C367.639 325.067 387.79 330.029 392.83 331.276L409.692 304.637L412.432 306.374L394.341 334.954ZM365.583 327.871H365.597C365.583 327.871 365.583 327.871 365.583 327.871Z" fill="black"/>
<path d="M427.944 361.935V338.488L428.933 338.068C431.626 336.936 439.115 333.577 441.466 331.826L442.663 330.921L454.35 344.393L443.346 359.191L427.944 361.935ZM431.169 340.614V358.059L441.512 356.225L450.202 344.536L442.131 335.231C439.018 337.144 433.442 339.625 431.169 340.614Z" fill="black"/>
<path d="M321.068 433.559H300.072C299.005 433.559 297.674 433.559 283.926 411.591L283.422 410.778L290.962 397.389L291.414 397.163C303.379 391.341 305.648 390.662 306.313 390.579L321.599 388.228L340.083 398.895L337.163 418.969L326.238 424.818L321.068 433.559ZM300.543 430.316H319.22L323.905 422.388L334.197 416.876L336.563 400.581L320.971 391.586L306.641 393.79C305.454 394.1 299.069 397.047 293.299 399.851L287.187 410.681C292.666 419.403 298.857 428.643 300.543 430.316Z" fill="black"/>
<path d="M370.559 564.988L348.185 556.589L321.424 554.727L297.156 560.691L282.096 518.686L295.308 475.175L311.5 465.058L312.12 465.168C320.906 466.822 335.07 469.387 337.925 469.664L346 465.058L367.574 469.465L398.91 505.912L370.559 564.988ZM321.146 551.465L349.109 553.479L368.937 560.918L395.103 506.416L365.874 472.417L346.564 468.476L338.77 472.935H338.332C336.128 472.935 317.354 469.451 312.152 468.476L298.062 477.282L285.515 518.603L299.231 556.866L321.146 551.465Z" fill="black"/>
<path d="M227.335 341.293L226.734 340.775C222.812 337.435 216.294 331.942 215.531 331.42C214.949 331.032 213.831 330.302 210.311 313.36L210.2 312.824L218.354 295.721L219.13 295.56C220.022 295.384 241.147 290.99 243.434 290.616L243.693 290.598H251.925L270.894 309.161L262.269 338.294L249.056 336.64L227.335 341.293ZM217.545 328.911C219.181 330.14 225.778 335.735 228.212 337.791L248.895 333.351L259.917 334.728L267.212 310.103L250.581 293.827H243.804C241.309 294.266 224.415 297.768 220.558 298.558L213.573 313.231C215 320.041 216.816 327.497 217.545 328.911ZM217.315 328.731C217.333 328.731 217.333 328.745 217.347 328.745C217.333 328.745 217.315 328.745 217.315 328.731Z" fill="black"/>
<path d="M442.002 559.864H445.24V643.537H442.002V559.864Z" fill="black"/>
<path d="M576.841 643.518H573.598V564.567H537.726V643.518H534.497V561.324H576.841V643.518Z" fill="black"/>
<path d="M508.705 561.648H422.207L493.128 497.384H579.613L508.705 561.648ZM430.605 558.423H507.458L571.251 500.627H494.394L430.605 558.423Z" fill="black"/>
<path d="M621.26 643.518H618.017V558.423H638.588L574.347 500.206L576.518 497.804L646.987 561.647H621.26V643.518Z" fill="black"/>
<path d="M499.808 602.793H466.916V569.898H499.808V602.793ZM470.159 599.55H496.565V573.142H470.159V599.55Z" fill="black"/>
<path d="M621.019 538.838H617.776V491.465H598.517V518.441H595.274V488.222H621.019V538.838Z" fill="black"/>
<path d="M212.159 712.615L28.4247 696.126H-145.987L-118.301 385.797L-136.618 254.95L-114.716 198.046L-112.984 199.552C-92.0844 217.662 -79.4588 242.887 -76.5391 249.115C-74.5758 249.355 -70.686 250.104 -62.5969 251.642C-55.1592 253.07 -44.959 255.015 -43.9057 255.08C-42.238 255.08 -34.7818 258.207 -30.467 260.074L-31.7467 263.04C-36.8052 260.85 -42.9171 258.42 -43.9704 258.323C-44.7834 258.323 -49.7265 257.413 -63.1836 254.835C-69.4063 253.652 -76.4606 252.308 -77.5924 252.16H-77.6432C-78.678 252.16 -79.0661 251.319 -79.2001 251.042C-81.436 246.195 -93.3178 221.7 -113.353 203.558L-133.292 255.324L-115.04 385.714L-115.058 385.894L-142.453 692.902H28.5725L211.577 709.326L275.06 679.25L275.351 679.217L394.779 668.536L385.974 644.068L389.023 642.969L399.237 671.373L275.92 682.396L212.159 712.615Z" fill="black"/>
<path d="M17.6286 317.624L0.803711 299.791V299.158L2.42522 299.144L3.58938 298.04L19.98 315.402L17.6286 317.624Z" fill="black"/>
<path d="M138.854 421.754L123.406 414.977L112.268 403.856L114.554 401.569L125.254 412.255L140.152 418.788L138.854 421.754Z" fill="black"/>
<path d="M664.56 645.14H387.014L339.223 614.384L327.84 602.456C319.576 597.734 281.089 575.687 278.641 573.271C278.123 572.735 276.553 571.164 254.845 541.463L251.86 537.365L254.489 535.466L257.455 539.55C276.211 565.214 280.216 570.254 280.927 570.97C282.775 572.721 311.792 589.547 329.642 599.748L330.016 600.039L341.427 612L387.952 641.896H664.56V645.14Z" fill="black"/>
<path d="M123.535 679.689L162.622 659.666L168.134 584.411L127.069 556.446L166.868 571.733L151.872 535.744L168.54 558.469L172.379 508.717L175.604 508.731L178.412 552.75L211.027 538.548L181.411 563.676L184.57 659.716L210.085 673.964L176.837 677.355L176.597 677.305C171.344 676.168 162.913 674.5 161.144 674.5C158.566 674.5 139.376 676.445 135.144 677.323L123.535 679.689ZM161.144 671.257C163.689 671.257 174.827 673.609 177.017 674.094L199.547 671.793L181.392 661.643L178.117 562.216L192.207 550.269L175.46 557.564L173.839 531.881L171.099 567.437L165.279 559.49L172.767 577.471L151.955 569.465L171.506 582.771L165.717 661.708L143.977 672.846C151.045 672.052 159.425 671.257 161.144 671.257Z" fill="black"/>
<path d="M80.6734 536.447C76.5032 541.578 75.8569 547.771 78.7896 553.744L79.0722 554.32L78.445 554.454C67.3223 556.825 59.3855 563.291 56.8728 571.951C54.7181 579.39 56.9667 587.149 62.7197 592.222L62.7204 592.223C70.4007 599.021 82.6782 599.974 96.8737 594.77L97.846 594.414L97.5205 595.397C94.7546 603.749 97.1846 613.75 103.505 618.394C106.186 620.351 109.046 621.166 111.977 621.166C116.923 621.166 122.092 618.861 126.799 615.734C131.497 612.613 135.679 608.709 138.639 605.595L139.107 605.103L139.438 605.696C141.658 609.671 145.493 613.55 150.485 613.951C156.59 614.423 162.925 609.713 169.338 599.423L167.438 598.259C164.64 602.753 161.83 606.17 159.071 608.44C156.227 610.782 153.395 611.937 150.667 611.737L150.664 611.737C147.969 611.523 145.734 610.019 144.034 608.223C142.333 606.426 141.127 604.296 140.484 602.724L140.484 602.723L139.824 601.102L138.64 602.388L138.639 602.389C131.879 609.685 125.431 614.656 119.681 617.095C113.922 619.536 108.792 619.46 104.793 616.525C101.56 614.155 99.533 610.128 98.8541 605.769C98.1746 601.406 98.8346 596.644 101.056 592.756L102.712 589.855L99.6459 591.176L99.4481 590.717L99.6459 591.176C84.9417 597.51 71.9559 597.365 64.1516 590.478C59.0421 585.987 57.0744 579.086 58.9752 572.518L58.9754 572.518C61.4448 564.034 69.7302 557.981 80.9827 556.178L80.983 556.178L82.6688 555.91L81.762 554.473L80.6734 536.447ZM80.6734 536.447C84.6306 531.587 91.0422 528.779 96.4801 529.155L97.305 529.212L96.9723 528.455C95.2716 524.585 95.0122 521.433 95.4923 518.903C95.9729 516.37 97.2027 514.418 98.5491 512.965C102.442 508.773 109.369 506.822 114.408 506.994L115.365 507.027L114.845 506.223C111.537 501.111 109.951 496.119 110.058 491.577C110.163 487.046 111.954 482.927 115.47 479.536C120.846 474.354 128.916 472.399 135.173 474.133L136.309 474.448L135.745 473.412C124.366 452.493 125.74 433.122 139.484 420.731C145.753 415.101 154.219 411.31 163.978 409.798L163.902 409.304L163.978 409.798C171.783 408.589 178.156 410.793 182.977 416.376L182.977 416.376C188.069 422.264 190.742 431.26 191.866 440.275C192.989 449.278 192.555 458.211 191.503 463.895L191.339 464.777L192.175 464.452C199.609 461.565 205.051 462.02 208.585 465.48C210.991 467.837 212.17 471.333 212.583 475.017C212.995 478.693 212.636 482.489 212.03 485.366L211.825 486.338L212.728 485.923C221.333 481.972 228.533 479.881 234.307 479.615C240.07 479.35 244.37 480.902 247.273 484.192C250.342 487.677 251.326 492.759 251.088 497.926C250.85 503.083 249.397 508.233 247.701 511.757L247.401 512.378L248.085 512.469C255.332 513.437 258.596 516.843 260.077 519.619L260.077 519.62C262.942 524.973 261.914 532.979 257.072 541.063L257.072 541.064C253.017 547.866 247.257 553.03 241.615 555.198L240.692 555.553L241.525 556.086C248.568 560.596 252.685 567.329 253.015 575.03C253.413 584.32 248.358 593.457 240.115 598.259L240.114 598.259C235.044 601.226 224.604 604.893 210.708 596.899L210.297 596.663L210.04 597.061C205.669 603.8 198.714 607.591 191.216 607.339L191.216 607.339C186.117 607.17 181.929 605.053 180.214 602.064L182.233 601.098C182.916 602.214 184.085 603.134 185.517 603.806C187.141 604.569 189.147 605.035 191.298 605.109L191.299 605.109C198.523 605.342 205.089 601.4 208.949 594.576L208.95 594.574L209.521 593.558L210.504 594.172L210.505 594.172C220.505 600.387 230.63 601.203 238.984 596.318C246.516 591.918 251.153 583.606 250.79 575.117C250.438 566.887 245.502 560.161 236.982 556.123L233.458 554.451L237.33 553.99C243.563 553.253 250.518 547.672 255.145 539.903C257.278 536.325 258.642 532.703 259.162 529.387C259.682 526.075 259.365 523.034 258.09 520.654C256.026 516.8 251.708 514.772 245.45 514.459L243.49 514.357L244.576 512.722L244.577 512.721C246.148 510.345 247.955 505.382 248.606 500.152C249.255 494.938 248.777 489.279 245.574 485.642C242.787 482.476 238.281 481.316 232.384 481.985C226.484 482.654 219.096 485.161 210.399 489.46L207.606 490.841L208.873 488.007C208.873 488.007 208.873 488.006 208.874 488.006C209.658 486.258 210.461 482.303 210.451 478.188C210.44 474.09 209.624 469.641 206.984 467.052C205.282 465.383 202.974 464.646 200.149 464.779C197.336 464.911 193.985 465.906 190.128 467.719L190.127 467.719L187.841 468.795L188.582 466.374C189.92 462.033 190.748 452.984 189.928 443.509C189.11 434.043 186.635 424.009 181.253 417.783L181.253 417.782C176.962 412.821 171.222 410.879 164.278 411.956C154.975 413.396 146.887 416.978 140.935 422.34C133.843 428.725 130.246 436.92 130.167 446.261C130.087 455.587 133.512 466.024 140.394 476.93L80.6734 536.447ZM82.3781 537.794C84.4664 535.22 87.3656 533.281 90.3626 532.213C93.3534 531.148 96.4953 530.932 99.0541 531.884L99.0556 531.884L101.974 532.981L100.406 530.285L100.406 530.284C98.5265 527.049 97.5346 524.088 97.4797 521.425C97.4245 518.746 98.3192 516.399 100.148 514.424L100.149 514.424C102.474 511.92 106.06 510.395 109.395 509.67C111.07 509.305 112.702 509.138 114.11 509.155C115.505 509.172 116.732 509.368 117.564 509.773L117.564 509.773L121.949 511.913L118.929 508.084C114.87 502.937 112.623 497.897 112.275 493.277C111.925 488.639 113.494 484.465 116.979 481.103L117.326 481.463L116.979 481.103C120.039 478.153 124.137 476.356 128.123 475.848C132.101 475.34 136.039 476.11 138.725 478.394L144.289 483.114L140.395 476.93L82.3781 537.794ZM82.3781 537.794C82.3782 537.794 82.3784 537.794 82.3785 537.794L82.7664 538.109L82.3781 537.794ZM82.3781 537.794C81.2173 539.221 79.8276 541.443 79.349 544.293C78.8681 547.157 79.3151 550.612 81.7615 554.472L82.3781 537.794Z" fill="black" stroke="black"/>
<path d="M168.221 462.96L171.45 462.664L175.631 508.665L172.402 508.956L168.221 462.96Z" fill="black"/>
<path d="M171.764 522.465C167.061 516.741 154.306 501.435 151.775 499.426L153.803 496.898C157.046 499.49 172.508 518.28 174.259 520.405L171.764 522.465Z" fill="black"/>
<path d="M218.871 551.225C218.206 551.096 206.246 547.497 201.136 545.954L199.242 545.39L212.048 521.639L214.903 523.177L203.973 543.427C210.459 545.372 218.857 547.885 219.523 548.047L218.871 551.225Z" fill="black"/>
<path d="M200.799 543.001L230.513 525.478L232.162 528.268L202.444 545.792L200.799 543.001Z" fill="black"/>
<path d="M174.919 543.468L198.152 510.754L200.794 512.63L177.562 545.344L174.919 543.468Z" fill="black"/>
<path d="M142.388 527.852L145.021 525.963L159.887 546.684L157.254 548.573L142.388 527.852Z" fill="black"/>
<path d="M101.601 572.366L100.954 569.187L134.673 562.281L108.868 549.054L110.341 546.166L144.333 563.611L101.601 572.366Z" fill="black"/>
<path d="M23.9635 573.939L23.9624 573.948L23.9623 573.948L23.9614 573.953C23.9377 574.11 23.7343 575.455 22.9376 576.895C22.125 578.363 20.6766 579.958 18.165 580.456L14.5161 581.187L17.9636 582.584C19.9822 583.398 21.4815 584.439 22.356 585.683C23.2457 586.948 23.4626 588.388 22.9687 589.897C22.9686 589.897 22.9685 589.897 22.9684 589.898L22.4932 589.742C21.3891 593.133 16.7048 596.067 12.1036 594.916L23.9635 573.939ZM23.9635 573.939L24.1078 572.871M23.9635 573.939L24.1078 572.871M7.8091 510.747L1.6134 514.533L8.65712 512.787L8.65771 512.787C12.5668 511.823 16.0015 511.809 18.7526 512.739C21.52 513.674 23.5663 515.557 24.6754 518.305L24.6755 518.306C25.8436 521.202 25.8069 524.549 24.855 527.532C23.9036 530.514 22.0212 533.181 19.4369 534.684L19.4365 534.684L12.6953 538.596L20.2673 536.746L7.8091 510.747ZM7.8091 510.747C7.80917 510.747 7.80923 510.746 7.80929 510.746L7.8091 510.747ZM24.1078 572.871L25.1847 572.961C25.1859 572.961 25.187 572.961 25.1882 572.961C33.7107 573.782 38.0446 568.358 39.8392 565.1C43.8332 557.889 43.368 547.884 38.6942 541.778C37.2958 539.943 35.2171 538.056 32.2073 536.944C29.1954 535.832 25.2911 535.511 20.268 536.746L24.1078 572.871ZM-6.09212 591.607C-1.71166 591.454 3.1154 592.861 7.50442 594.149L7.54858 510.32C19.5736 502.979 18.7975 492.473 17.8874 488.306L18.3763 488.201C18.3763 488.201 18.3762 488.2 18.3762 488.2C16.575 479.812 10.094 473.251 2.53372 472.309C-0.264053 471.957 -4.34538 472.25 -8.94871 475.108C-13.5449 477.961 -18.6261 483.349 -23.477 493.124L-23.477 493.124L-25.8382 497.885L-25.5925 492.575C-25.5925 492.575 -25.5925 492.575 -25.5925 492.574C-25.0804 481.626 -30.1997 472.052 -39.5939 466.331L-39.5942 466.331C-49.6028 460.243 -62.4421 459.975 -72.3165 465.659L-72.3171 465.66C-80.9995 470.675 -87.035 481.677 -87.4467 493.023L-87.4467 493.024C-87.6762 499.581 -86.1799 511.915 -73.4653 520.477C-69.3052 523.307 -64.2894 525.432 -58.5466 526.836L-59.0637 529.01C-65.0999 527.545 -70.3715 525.305 -74.7178 522.326L-74.7209 522.324C-84.6442 515.629 -90.1045 504.912 -89.6719 492.93L-89.6719 492.929C-89.2382 480.606 -82.8443 469.139 -73.434 463.708C-62.884 457.625 -49.1376 457.876 -38.4467 464.399L-38.4462 464.399C-30.0434 469.511 -24.8302 477.47 -23.6033 486.768L-23.4156 488.191L-22.6786 486.959C-17.8213 478.842 -12.8114 474.454 -8.35078 472.176C-3.89238 469.9 0.0530701 469.713 2.8156 470.058C11.2314 471.118 18.5591 478.339 20.577 487.699C22.2896 495.676 19.8056 503.281 13.8475 508.936L12.9386 509.799H14.1917H14.2102C20.2869 509.799 24.7623 512.5 26.7648 517.446C28.8008 522.511 27.7668 528.667 24.6042 532.947L23.9756 533.798L25.032 533.744C31.5502 533.409 36.8943 535.691 40.4961 540.39C45.7146 547.222 46.2864 558.061 41.8189 566.155C38.5008 572.143 32.9275 575.378 26.3937 575.239L26.0122 575.231L25.9037 575.597C25.4336 577.181 24.3444 579.676 21.925 581.287L21.3154 581.693L21.9156 582.113C24.184 583.7 25.0742 585.487 25.3639 587.02C25.6567 588.569 25.3436 589.901 25.1313 590.563C23.6535 595.067 17.6708 599.096 11.4794 597.546C10.0282 597.174 8.49652 596.737 6.91 596.266L6.90674 596.266C1.90321 594.819 -2.52445 593.689 -6.1871 593.86C-8.03119 593.946 -9.70509 594.362 -11.1713 595.247C-12.523 596.063 -13.6705 597.262 -14.6089 598.913L-16.5919 597.885C-15.3512 595.663 -13.8295 594.163 -12.13 593.186C-10.3168 592.145 -8.27127 591.683 -6.09212 591.607Z" fill="black" stroke="black"/>
<path d="M14.8431 642.95H-66.8145L-30.4668 632.638L-31.9774 580.94L-53.9394 554.5L-29.626 570.55L-24.0639 535.757L-20.8532 536.016V561.227L4.53193 540.442L-16.1365 574.86L-11.5492 632.74L14.8431 642.95ZM-43.5359 639.725H-2.45303L-14.612 635.008L-19.4442 574.084L-7.85344 554.773L-24.0824 568.051V556.413L-27.2099 576.029L-37.5026 569.233L-28.7667 579.771L-27.1452 635.105L-43.5359 639.725Z" fill="black"/>
<path d="M-2.7627 546.425L10.2371 534.029L12.4776 536.376L-0.522148 548.772L-2.7627 546.425Z" fill="black"/>
<path d="M-5.32666 552.763L-5.21117 547.704C-4.88779 532.435 -4.83697 532.255 -4.7261 531.881L-1.63091 532.823L-3.16927 532.352L-1.5801 532.597C-1.67711 533.47 -1.88962 543.491 -1.98663 547.755L-2.01897 549.118L14.7782 547.219L15.1339 550.43L-5.32666 552.763Z" fill="black"/>
<path d="M16.8663 258.29L28.1522 246.324L11.0317 248.029L30.1295 235.948L9.83057 230.857L90.4348 217.145L105.721 180.032L101.767 215.814L119.386 213.088L143.945 187.637L129.665 214.049L168.166 217.417L124.542 223.71L104.747 231.282L137.962 246.343L136.876 249.374L91.3726 237.181L16.8663 258.29ZM36.4492 242.24L27.2606 251.984L91.3587 233.841L118.689 241.168L96.348 231.037L123.891 220.531L140.004 218.212L124.459 216.854L129.808 206.948L120.943 216.137L98.0665 219.658L99.9652 202.421L92.7031 220.027L25.4913 231.457L38.1862 234.654L24.2763 243.455L36.4492 242.24Z" fill="black"/>
<path d="M215.143 387.562L208.662 377.689L211.304 367.202L223.477 366.098L233.46 373.961L226.36 385.945H220.687L215.143 387.562ZM212.145 377.093L216.538 383.769L220.46 382.683H224.512L229.233 374.723L222.488 369.406L213.877 370.186L212.145 377.093Z" fill="black"/>
<path d="M65.1422 472.302L65.1284 472.061L62.6661 414.118L75.9431 398.262L59.8435 410.292L54.4292 399.786L56.8268 406.273V430.264L43.1941 421.722L49.9527 428.92L52.9047 460.761C52.9555 461.117 52.9879 461.472 53.0017 461.782C53.0525 462.189 53.0664 462.493 53.0849 462.609L49.8742 463.016C49.8557 462.886 49.8234 462.544 49.7772 462.027C49.7587 461.717 49.7264 461.426 49.6802 461.103L46.8252 430.315L23.6621 405.658L53.5699 424.416V406.855L42.1085 375.924L45.0605 374.626L60.9476 405.427L96.1865 379.117L65.9368 415.254L68.3714 472.094L65.1422 472.302Z" fill="black"/>
<path d="M70.0898 399.342L71.7991 372.043L75.0329 372.246L73.3236 399.546L70.0898 399.342Z" fill="black"/>
<path d="M78.4189 395.928L96.8561 392.935L97.3735 396.136L78.941 399.125L78.4189 395.928Z" fill="black"/>
<path d="M50.7658 396.155H50.3777L23.3018 382.831L24.7292 379.93L51.4633 393.078L50.7473 394.52L50.7658 396.155Z" fill="black"/>
<path d="M42.0347 375.217L44.497 345.991L47.7307 346.264L45.2684 375.49L42.0347 375.217Z" fill="black"/>
<path d="M27.0161 397.989L30.1205 397.056L34.9897 413.23L31.8853 414.163L27.0161 397.989Z" fill="black"/>
<path d="M18.6729 422.161L41.046 420.317L41.3139 423.551L18.9362 425.39L18.6729 422.161Z" fill="black"/>
<path d="M100.806 194.608L105.38 158.068L108.59 158.47L104.876 188.154C109.856 185.303 119.174 180.198 120.491 179.482L122.043 182.319C117.442 184.832 105.199 191.591 103.777 192.566L100.806 194.608Z" fill="black"/>
<path d="M192.71 238.364L150.754 217.985L172.915 204.306L174.615 207.059L157.466 217.648L194.119 235.449L192.71 238.364Z" fill="black"/>
<path d="M136.036 198.938L144.365 172.835L147.446 173.823L142.323 189.859L174.846 164.246L176.855 166.792L136.036 198.938Z" fill="black"/>
<path d="M148.195 265.359L134.853 247.216L162.733 233.906L164.128 236.826L139.778 248.45L150.805 263.446L148.195 265.359Z" fill="black"/>
<path d="M369.584 320.706L359.73 309.988L344.185 303.843L339.385 278.133L342.563 277.532L347.035 301.496L361.61 307.248L370.558 316.978L410.828 303.875H411.087L411.101 305.515L411.586 307.04L369.584 320.706Z" fill="black"/>
<path d="M245.703 329.008L244.94 325.862C244.779 325.908 244.663 325.959 244.663 325.959C245.606 325.409 251.052 320.203 255.981 315.292L253.838 296.516L257.048 296.146L259.368 316.461L258.818 317.01C247.209 328.634 246.188 328.893 245.703 329.008Z" fill="black"/>
<path d="M305.925 424.817L295.872 407.862L305.098 391.373L307.92 392.962L299.619 407.829L307.093 420.442L315.279 415.771L325.604 418.705L324.713 421.819L315.7 419.259L305.925 424.817Z" fill="black"/>
<path d="M364.867 549.099L333.453 535.678L313.122 542.941L298.746 515.558L305.44 479.388L326.625 468.171L328.136 471.04L308.341 481.513L302.113 515.055L314.679 538.949L333.564 532.209L366.147 546.115L364.867 549.099Z" fill="black"/>
<path d="M-20.4838 178.526H-48.9318V162.462C-51.0708 161.732 -55.6766 160.143 -56.7622 159.82L-55.8383 156.72C-54.3646 157.159 -47.1024 159.672 -46.7929 159.787L-45.7073 160.157V175.283H-21.4863L-8.89305 166.722V154.271L3.36297 144.564L5.37253 147.092L-5.66389 155.828V168.427L-20.4838 178.526Z" fill="black"/>
<path d="M266.694 196.539L262.804 192.857L258.573 193.458L258.12 190.247L263.909 189.438L265.756 191.189L268.916 184.851L269.466 174.585L272.709 174.765L272.109 185.691L266.694 196.539Z" fill="black"/>
<path d="M436.117 355.157L432.971 344.652L436.084 343.728L438.366 351.364L447.01 349.516L447.689 352.676L436.117 355.157Z" fill="black"/>
<path d="M364.594 663.186C348.333 649.16 325.152 643.163 304.127 647.557L303.333 647.732C300.33 648.383 296.93 649.095 293.701 647.995C290.818 646.988 288.693 644.734 286.813 642.742L286.392 642.304C274.506 629.834 257.861 621.551 240.741 619.592L241.115 616.381C258.979 618.423 276.326 627.062 288.739 640.081L289.164 640.534C290.864 642.336 292.615 644.198 294.74 644.946C297.105 645.755 299.928 645.154 302.635 644.572L303.444 644.396C325.443 639.79 349.677 646.064 366.683 660.737L364.594 663.186Z" fill="black"/>
<path d="M107.893 661.305C103.19 653.94 93.336 650.277 84.9697 652.79L82.9278 653.409L82.877 651.284C82.7338 644.733 79.038 638.251 73.0047 633.922C66.9761 629.593 59.6308 628.179 53.3896 630.143L52.4194 627.061C59.6308 624.793 68.0293 626.382 74.885 631.293C81.1446 635.77 85.1822 642.367 85.9768 649.21C95.2162 647.362 105.527 651.593 110.614 659.568L107.893 661.305Z" fill="black"/>
<path d="M322.736 172.122L319.511 172.007C320.08 155.749 296.394 119.598 267.572 116.063L267.96 112.853C298.94 116.646 323.35 154.437 322.736 172.122Z" fill="black"/>
<path d="M421.232 442.877C407.16 437.236 400.937 424.901 404.601 409.872L407.747 410.634C406.19 417.038 404.504 432.681 422.433 439.879L421.232 442.877Z" fill="black"/>
<path d="M409.9 412.075C408.62 412.075 407.327 412.011 405.996 411.867L404.148 411.669L404.587 409.872C407.179 399.172 414.395 390.093 420.668 389.622C422.581 389.474 426.115 390.043 428.286 395.411C429.778 399.107 429.418 402.609 427.233 405.492C424.119 409.645 417.555 412.075 409.9 412.075ZM408.251 408.786C415.527 409.142 421.98 407.113 424.669 403.547C426.147 401.588 426.374 399.25 425.302 396.626C424.235 393.983 422.775 392.736 420.927 392.865C416.922 393.157 410.99 399.657 408.251 408.786Z" fill="black"/>
<path d="M405.996 411.868C397.792 411.009 390.433 407.618 385.277 402.319C379.022 395.883 376.283 386.869 377.368 376.248L380.593 376.571C378.389 398.022 393.075 407.244 406.32 408.639L405.996 411.868Z" fill="black"/>
<path d="M92.0886 143.849C91.2109 142.033 90.1761 140.12 88.9888 138.157C74.8203 114.798 42.5472 86.815 22.1836 85.7802L22.3453 82.5508C32.6102 83.0728 46.0627 89.7164 60.2174 101.276C72.8615 111.606 84.6602 124.768 91.7791 136.489C93.0126 138.55 94.1121 140.541 95.0221 142.454L92.0886 143.849Z" fill="black"/>
</g>
</g>
<defs>
<clipPath id="clip0_5500_11088">
<rect width="752" height="670" fill="white"/>
</clipPath>
<clipPath id="clip1_5500_11088">
<rect width="1703" height="958" fill="white" transform="translate(0 -288)"/>
</clipPath>
</defs>
</svg>
