<svg width="189" height="148" viewBox="0 0 189 148" fill="none" xmlns="http://www.w3.org/2000/svg">
<path d="M18.6406 15.901H15.5938L17.8229 26.7708L29.0781 28.9583L37.0208 24.3542V15.6615L33.599 12L23.0573 9.84375L22.9167 10.0521C22.5052 10.6667 19.2865 15.026 18.6406 15.901Z" fill="black"/>
<path d="M98.3125 27.3961V21.8701L98.1667 21.7555C97.9167 21.568 97.5469 21.4534 97.026 21.4013C95.5625 21.2555 93.3385 21.6669 93.2448 21.6878L93.0938 21.7138L90.5 25.3544L94.3854 29.0003L98.3125 27.3961Z" fill="black"/>
<path d="M75.3696 63.9163L75.9321 66.807L78.4061 66.6663L78.505 66.5518C78.9217 66.1038 79.8853 64.9736 79.828 64.307L79.8123 64.1195L77.2863 62.5361L75.3696 63.9163Z" fill="black"/>
<path d="M112.464 59.5573L112.615 59.6458L112.771 59.6094C112.844 59.5885 113.12 59.5156 113.526 59.401C114.724 59.0677 118.349 58.0625 118.854 58.0365C119.438 58.1771 125.234 59.6094 125.234 59.6094L125.5 59.6719L129.698 53.0417L131.99 49.4167L129.88 45.7656L122.49 43.0625H119.974L119.901 43.099C119.276 43.375 118.125 43.8594 116.911 44.375C114.609 45.3437 113.193 45.9427 112.927 46.1042C112.469 46.3802 110.729 48.7865 110.005 49.8073L109.906 49.9427L109.943 50.1042C111.927 59.224 112.302 59.4583 112.464 59.5573Z" fill="black"/>
<path d="M139.411 61.8594L136.703 58.7344L136.427 58.9479C135.88 59.3542 134.146 60.1302 133.521 60.3906L133.292 60.4896V65.9271L136.859 65.2917L139.411 61.8594Z" fill="black"/>
<path d="M103.635 82.5309H108.505L109.698 80.5049L112.234 79.1507L112.911 74.4945L108.625 72.0205L105.083 72.5674C104.932 72.5882 104.401 72.7497 101.625 74.0934L101.521 74.1455L99.7759 77.2497L99.8905 77.4372C103.083 82.5309 103.39 82.5309 103.635 82.5309Z" fill="black"/>
<path d="M102.964 112.005L108.589 110.625L114.792 111.057L119.979 113.005L126.552 99.307L119.286 90.859L114.286 89.833L112.417 90.9007C111.755 90.8382 108.469 90.2445 106.432 89.859L106.286 89.833L102.531 92.182L99.4688 102.271L102.964 112.005Z" fill="black"/>
<path d="M84.6821 50.5732L82.7915 54.542L82.8175 54.667C83.6353 58.5941 83.8905 58.7607 84.0259 58.8493C84.203 58.9743 85.7134 60.2451 86.6248 61.0212L86.7655 61.141L91.7967 60.0628L94.8592 60.443L96.8592 53.693L92.4634 49.3857H90.5519L90.4946 49.391C89.9634 49.4795 85.0675 50.4951 84.8592 50.5368L84.6821 50.5732Z" fill="black"/>
<mask id="mask0_5516_27425" style="mask-type:luminance" maskUnits="userSpaceOnUse" x="0" y="26" width="189" height="122">
<path d="M0.213379 26.667H188.213V147.693H0.213379V26.667Z" fill="white"/>
</mask>
<g mask="url(#mask0_5516_27425)">
<path d="M188.151 130.834H178.109V112.23H184.073L178.052 106.777V95.209H172.083V101.365L168.042 97.7038L168.453 97.3288H148.401L131.958 112.225H136.547V130.834H124.015L113.229 123.902L110.583 121.126L110.495 121.058C106.359 118.693 99.6301 114.792 99.203 114.386C99.0363 114.225 98.1248 113.074 93.9009 107.298C94.9269 105.48 95.1405 103.678 94.479 102.433C94.1144 101.756 93.328 100.943 91.6092 100.714C92.4113 99.0527 92.9686 95.8704 91.4946 94.1934C90.0884 92.5996 87.3488 92.7246 83.3488 94.5684C83.6353 93.2142 83.6873 90.9954 82.5155 89.8496C81.6509 88.9954 80.328 88.9121 78.5884 89.5892C79.0832 86.9277 78.9894 81.2507 76.5832 78.4746C75.4373 77.1517 73.9217 76.6257 72.0728 76.9069C69.8436 77.2559 67.9009 78.11 66.4426 79.3861L66.5623 79.1048L63.1092 77.5892L60.8905 75.3704C62.5155 73.584 63.0415 71.2246 62.1196 69.6257C61.4894 68.5371 60.3123 68.0371 58.8123 68.1777C59.3644 67.2819 59.6665 65.9954 59.5675 64.709C59.4478 63.0944 58.729 61.8652 57.5936 61.334C56.63 60.8809 54.9582 60.7507 52.255 62.3809C54.4842 57.5007 54.7498 53.3027 52.9634 50.7402C51.8957 49.2194 50.1873 48.4382 48.3853 48.6621C46.4373 48.8965 44.7863 50.2246 43.9217 52.235C42.2082 51.9954 39.4738 52.3132 38.3071 54.709L34.9686 51.1777C34.6925 50.1882 34.479 49.4069 34.354 48.8548C34.1353 47.9173 35.2707 45.7715 36.328 44.1986L36.0363 44.0111L35.9946 43.9694L35.7967 43.6882L34.0936 44.86V43.9434L33.5728 44.1725C33.328 44.2767 33.0103 44.4069 32.7342 44.5215C32.9998 43.7507 33.5467 42.3757 34.0675 41.1204L34.4634 40.1725L31.5311 41.6882V39.3132L30.9217 39.7975C30.479 40.1517 28.9009 41.3496 26.8592 42.2402C25.8488 41.8027 24.2603 41.1465 23.8905 41.1465C23.6457 41.1309 21.2811 40.6829 19.5571 40.3496C17.6821 39.9954 16.7811 39.8236 16.3228 39.7663C15.6509 38.3236 12.7186 32.4746 7.87484 28.2767L7.4738 27.9277L2.38525 41.1204L5.30713 61.9954L5.17692 62.7038C5.25505 62.7194 5.33317 62.735 5.4113 62.7507L6.63005 71.459L0.213379 143.407H40.6509L83.2551 147.23L98.0363 140.23L126.63 137.673L124.443 131.589H188.151V130.834ZM34.6248 51.3704C34.6196 51.3704 34.6196 51.3704 34.6248 51.3704V51.3704Z" fill="black"/>
</g>
<mask id="mask1_5516_27425" style="mask-type:luminance" maskUnits="userSpaceOnUse" x="13" y="0" width="11" height="10">
<path d="M13.3335 0.692383H24.0002V9.33301H13.3335V0.692383Z" fill="white"/>
</mask>
<g mask="url(#mask1_5516_27425)">
<path d="M18.0106 8.35938H20.2345L22.9585 3.77083L19.12 0.75L14.4168 1.17708L13.396 5.19271L15.896 8.97917L18.0106 8.35938Z" fill="black"/>
</g>
<path d="M83.0522 67.1462L82.4429 69.5732L83.9481 71.8701L85.2293 71.4899H86.5418L88.1877 68.7087L85.8752 66.8857L83.0522 67.1462Z" fill="black"/>
<path d="M108.146 21.8903L108.891 21.9163C109.037 17.8174 103.375 9.05697 96.1929 8.17676L96.0991 8.92155C102.787 9.73926 108.276 18.1195 108.146 21.8903Z" fill="black"/>
<path d="M131.604 72.3493C130.213 72.4535 128.625 74.3805 127.963 76.7191C124.979 76.2868 121.823 74.1253 122.312 69.318L121.562 69.2451C121.312 71.7087 121.948 73.7972 123.396 75.2868C124.5 76.4222 126.047 77.1774 127.776 77.443L127.771 77.4587H127.786C127.151 80.7503 128.599 83.4378 131.729 84.693L132.01 84.0003C128.12 82.4378 128.208 79.1618 128.536 77.5316C128.729 77.542 128.917 77.5524 129.109 77.5524C130.88 77.5524 132.401 76.9899 133.13 76.0316C133.635 75.3545 133.719 74.5472 133.375 73.693C132.865 72.4482 132.047 72.318 131.604 72.3493ZM132.672 73.9691C132.917 74.5785 132.865 75.1201 132.526 75.5732C131.901 76.4066 130.401 76.8701 128.713 76.7868C129.349 74.6722 130.729 73.1618 131.656 73.0941C132.083 73.068 132.427 73.3545 132.672 73.9691Z" fill="black"/>
<mask id="mask2_5516_27425" style="mask-type:luminance" maskUnits="userSpaceOnUse" x="36" y="0" width="54" height="54">
<path d="M36 0.692383H89.3333V53.333H36V0.692383Z" fill="white"/>
</mask>
<g mask="url(#mask2_5516_27425)">
<path d="M54.5832 13.8646C53.8384 15.2031 53.1821 16.9375 52.6248 19.0365C50.4061 17.0677 48.078 16.7813 46.3175 18.2917C43.2863 20.8906 42.953 27.6198 47.1405 33.6979L36.3384 35.5365L41.0467 36.7188L36.6196 39.5156L40.5884 39.1198L37.9738 41.8958L49.8748 38.526C47.854 41.8021 48.6561 44.8802 50.4946 46.5885C51.953 47.9375 54.4009 48.599 56.5988 47.125C56.6717 48.75 57.505 49.9896 58.8696 50.4583C60.4842 51.0052 62.8123 50.4219 64.6457 48.0104C64.9738 49.401 65.703 50.5365 66.7811 51.3281C67.8905 52.1458 69.3019 52.5625 70.9373 52.5625C71.6457 52.5625 72.4009 52.4844 73.1821 52.3281C74.2082 52.1198 74.8748 51.724 75.2238 51.1146C75.8019 50.0885 75.3175 48.7292 74.8019 47.2969C74.3175 45.9479 73.8175 44.5521 74.229 43.474C74.7759 42.0625 76.6613 41.9427 79.0519 41.7969C81.1405 41.6719 83.505 41.526 85.578 40.4323C87.4842 39.4323 88.4373 37.7448 88.0623 36.0417C87.6821 34.2865 85.7967 32.3542 81.7238 31.5312C85.7342 30.7135 87.9373 28.901 88.6925 27.276C89.2446 26.0781 89.1353 24.8646 88.38 23.8438C87.7134 22.9427 85.578 21.0208 79.7707 21.5365C81.729 19.7188 83.0988 16.8229 82.9582 14.526C82.8905 13.3177 82.3905 12.4531 81.5259 12.026C80.0728 11.3073 77.7134 11.9375 74.6717 13.849C74.8696 12.2865 74.5363 10 73.0155 9.13021C70.9373 7.94792 67.729 9.89583 63.4842 14.9271C63.0623 13.0208 61.6144 11.0052 59.7186 10.5469C58.7186 10.3073 56.8175 10.3542 55.005 13.1458C53.3384 10.5625 50.7655 7.73958 48.0155 5.49479C44.7342 2.81771 41.6196 1.28125 39.2342 1.15625L39.1978 1.90104C43.8748 2.14063 51.2394 8.48437 54.5832 13.8646Z" fill="black"/>
</g>
<path d="M183.099 111.854H177.734V131.214H167.432V112.531H158.364V131.214H136.917V111.854H151.864L167.479 97.7031L172.458 102.208L177.672 106.938L183.099 111.854ZM149.573 121.396V114.521H142.698V121.396H149.573Z" fill="#87AAD2"/>
<path d="M177.677 95.583V106.942L172.458 102.213V95.583H177.677Z" fill="#F3AE88"/>
<path d="M136.922 111.854H132.927L148.547 97.708H167.485L151.865 111.854H136.922Z" fill="#794426"/>
<path d="M158.365 112.531H167.432V131.214H158.365V112.531Z" fill="#F3AE88"/>
<path d="M142.698 114.521H149.573V121.396H142.698V114.521Z" fill="#F3AE88"/>
<path d="M137.787 63.417L136.646 64.9482L133.662 65.4795V60.7399C133.662 60.7399 135.948 59.7712 136.646 59.2451L138.932 61.8753L137.787 63.417Z" fill="#794426"/>
<path d="M129.625 46.0778L131.552 49.4111L129.38 52.8434H129.375L119.87 55.932L117.687 53.5622L114.198 52.182L113.12 46.4268C113.562 46.1559 118.479 44.1403 120.057 43.4424H122.427L129.625 46.0778Z" fill="#F3AE88"/>
<path d="M129.375 52.8434L125.323 59.2445C125.323 59.2445 119.265 57.7497 118.911 57.6611C118.557 57.5726 113.031 59.1559 112.682 59.2445C112.333 59.3278 110.307 50.0205 110.307 50.0205C110.307 50.0205 112.682 46.6872 113.114 46.4268L114.193 52.182L117.682 53.5622L119.864 55.932L129.375 52.8434Z" fill="#794426"/>
<mask id="mask3_5516_27425" style="mask-type:luminance" maskUnits="userSpaceOnUse" x="0" y="28" width="127" height="120">
<path d="M0.213379 28H126.667V147.693H0.213379V28Z" fill="white"/>
</mask>
<g mask="url(#mask3_5516_27425)">
<path d="M5.74984 62.4326L2.77067 41.1618L7.61963 28.5576C13.0675 33.2764 16.0467 40.0941 16.0571 40.0941C16.0363 40.0316 23.4998 41.5212 23.8748 41.5212C24.2498 41.5212 26.8436 42.6462 26.8436 42.6462C25.4582 43.2399 23.9061 43.6618 22.3853 43.6253C22.3853 43.6253 26.63 45.1305 28.2238 46.193C29.8175 47.2503 29.6405 52.4743 29.5519 53.0941C29.4634 53.7139 31.7603 49.0212 31.7603 49.0212L35.1248 53.0837C35.0988 53.0055 34.88 52.2607 34.6196 51.3649L38.4217 55.391C37.9582 56.7295 37.9686 58.6878 38.8384 61.5003C37.2498 59.9951 32.2082 60.3493 33.2759 66.9795C26.6561 65.568 26.0103 74.417 36.005 75.8285C32.6457 77.2451 31.8488 82.4639 36.7186 83.6149C41.578 84.7607 42.6092 82.6045 45.4738 87.0628C45.6978 87.4118 45.8488 88.042 45.9582 88.8701C45.9634 88.943 45.9686 89.0212 45.979 89.0941C45.9894 89.2087 45.9946 89.2816 45.9998 89.3128C46.4217 93.7087 45.6509 102.276 45.6509 102.276C47.953 101.922 52.5519 102.901 52.5519 102.901C51.6353 102.052 49.3748 96.4847 49.5363 91.4274C49.5623 90.6305 49.6509 89.8493 49.8123 89.0993C50.8696 84.1462 53.7915 84.3232 57.5988 84.3232C61.4009 84.3232 64.1405 77.7764 57.1509 77.2451C58.4842 76.8389 59.5571 76.1774 60.354 75.3753L62.8905 77.9066L66.4061 79.4482L66.578 79.7503C63.5728 82.4587 62.8332 87.0732 66.4061 92.7347C63.7759 90.5003 56.6821 93.9274 61.4478 99.9795C60.1092 99.3285 54.4478 100.485 57.13 105.099C54.7446 104.209 50.578 107.188 52.8123 110.719C43.729 112.167 46.4113 124.016 57.2811 119.328C55.1925 122.979 58.6196 130.271 66.4113 121.865C67.0571 123.443 69.6405 126.547 73.1821 120.771L72.1301 135.193L65.3228 138.683C66.3644 138.464 70.8332 138.021 71.4269 138.021C72.0207 138.021 75.0884 138.683 75.0884 138.683L81.5571 138.021L76.4894 135.193L76.0363 121.396C76.7759 122.938 80.8123 123.422 82.7446 120C90.6457 124.912 96.4478 114.188 89.1301 110.724C90.7498 110.532 92.4217 109.068 93.453 107.334C94.9738 109.412 98.4998 114.224 98.9373 114.662C99.4998 115.224 110.307 121.396 110.307 121.396L112.984 124.198L123.906 131.214L126.109 137.339L97.9373 139.86L83.1873 146.849L40.6873 143.032H0.619629L7.00505 71.4535L5.74984 62.4326ZM39.8748 115.11C45.7134 115.657 45.8905 104.443 38.6978 106.203C41.1613 104.776 40.9738 99.4222 36.0103 100.651C43.2707 96.2191 34.13 84.6462 28.3853 96.2295C28.6665 90.2087 21.9113 87.016 17.1665 89.7555C13.1665 92.0628 11.6353 99.3597 16.8853 102.907H16.88C14.3123 102.927 10.7863 107.448 14.3384 110.459C11.604 111.099 11.8748 117.302 17.3488 115.75C15.2446 117.667 17.0728 120.948 20.7238 120.037C24.3696 119.125 25.88 118.912 27.1561 121.37L27.38 128.979L21.2707 130.714C21.6353 130.714 27.6561 130.714 27.6561 130.714H35.4946L31.0259 128.979L30.38 120.86H30.3853C31.6665 118.396 34.5832 119.766 36.7707 120.313C38.9582 120.86 41.2394 118.032 38.3228 116.844C39.6925 116.568 39.8748 115.11 39.8748 115.11Z" fill="#794426"/>
</g>
<path d="M112.505 74.6924L111.891 78.9059L109.771 80.0413L109.458 79.4476L107.214 78.8122L105.13 79.9997L103.094 76.5674L105.13 72.9372L108.552 72.4111L112.505 74.6924Z" fill="#794426"/>
<path d="M106.364 90.2295C106.364 90.2295 111.984 91.2816 112.505 91.2816L114.349 90.2295L119.088 91.1982L126.109 99.3597L119.792 112.526L114.875 110.683L108.557 110.24L103.203 111.558L99.8696 102.25L102.854 92.417L106.364 90.2295Z" fill="#F3AE88"/>
<path d="M109.458 79.4479L109.771 80.0417L109.432 80.224L108.297 82.1562C108.297 82.1562 103.995 82.1562 103.641 82.1562C103.292 82.1562 100.219 77.2396 100.219 77.2396L101.802 74.4323C101.802 74.4323 104.87 72.9375 105.135 72.9375L103.099 76.5729L105.135 80L107.214 78.8177L109.458 79.4479Z" fill="#F3AE88"/>
<path d="M96.9168 22.5107L96.9897 21.7764C97.396 21.8128 97.7345 21.9014 97.9377 22.0524V27.141L96.1616 27.8701L95.7866 26.9587L96.7762 24.9691L96.9168 22.5107Z" fill="#794426"/>
<path d="M95.7917 26.9587L96.1667 27.8702L94.4688 28.5629L91 25.3077L93.3177 22.0577C93.3177 22.0577 95.5625 21.6358 96.9896 21.7816L96.9219 22.5108L96.7865 24.9691L95.7917 26.9587Z" fill="#794426"/>
<path d="M93.2917 50.7184L96.4375 53.8018L94.5938 60.0309L91.7865 59.6768L86.875 60.7288C86.875 60.7288 84.5 58.7132 84.2448 58.5361C83.974 58.359 83.1875 54.583 83.1875 54.583L84.9427 50.8955C84.9427 50.8955 90.0365 49.8434 90.5625 49.7549H92.3177L93.2917 50.7184Z" fill="#F3AE88"/>
<path d="M74.9272 108.235L74.4012 99.9899L74.1772 102.907L73.4324 112.532L70.8283 108.974L73.4324 115.229L66.4012 112.532L73.4324 117.318L73.1772 120.771C69.6303 126.552 67.0522 123.443 66.4012 121.865C58.6147 130.271 55.1928 122.979 57.271 119.328C46.4012 124.016 43.7189 112.167 52.8022 110.719C50.573 107.188 54.7397 104.209 57.1251 105.099C54.4428 100.485 60.0991 99.3284 61.4376 99.9794C56.6772 93.9326 63.771 90.5055 66.4012 92.7347C62.823 87.068 63.5678 82.4586 66.573 79.7503C67.9897 78.4742 69.9116 77.6201 72.1199 77.2763C79.0158 76.2034 78.8595 87.5628 78.0418 90.2242C84.0783 87.3753 83.3387 93.9274 82.7397 95.2659C94.2033 89.6044 92.4012 98.9065 90.9949 101.037C95.1303 101.245 95.073 104.615 93.4533 107.323C92.4168 109.063 90.7501 110.521 89.1303 110.714C96.4428 114.183 90.6408 124.907 82.7449 119.99C80.8074 123.417 76.771 122.933 76.0314 121.386L75.7397 112.521L80.8074 108.224L75.0835 110.719L74.9272 108.235Z" fill="#4CAF50"/>
<path d="M87.6979 68.8076L86.3281 71.1149H85.1771L84.1094 71.4274L82.8438 69.5055L83.349 67.4951L85.7604 67.2764L87.6979 68.8076Z" fill="#794426"/>
<path d="M69.7919 32.516L63.5262 31.9639L65.8075 27.7555L61.9325 31.7764L57.2346 32.5003L57.9169 26.3545L55.3023 32.693L47.7919 33.9691C40.62 24.1982 46.1304 13.0368 52.8335 19.7451C53.4742 17.1566 54.2189 15.2295 55.0158 13.8493C58.5523 7.71387 63.0523 12.2191 63.245 15.8128C73.6564 3.08887 75.0419 12.1097 74.1148 14.6566C85.4481 7.02116 83.8283 18.5837 78.5106 22.0576C92.0887 20.1566 91.9429 30.6826 78.745 31.542C88.3544 32.0628 89.8075 37.7816 85.4064 40.0941C81.0106 42.4118 75.0419 40.3337 73.8856 43.3337C72.7294 46.3441 77.7398 51.0316 73.1148 51.9587C68.4846 52.8805 65.271 50.9066 64.8648 47.0368C61.8544 51.8962 56.5367 50.9743 57.0002 46.3441C52.6044 50.2764 45.9064 44.2139 50.7762 37.8805L55.2502 36.6149L65.9012 39.4691L57.3804 35.6045L62.8492 33.5107L69.7919 32.516Z" fill="#4CAF50"/>
<path d="M79.4583 64.3333C79.5052 64.9167 78.2344 66.2969 78.2344 66.2969L76.2344 66.4115L75.7812 64.0781L77.3021 62.9844L79.4583 64.3333Z" fill="#794426"/>
<path d="M69.7918 32.5153L62.8491 33.5153L57.3804 35.609L65.9012 39.4736L55.245 36.6143L50.771 37.8851L39.1772 41.1663L41.5522 38.6455L38.1616 38.984L41.9845 36.5674L38.1616 35.609L47.7918 33.9684L55.297 32.6924L57.9116 26.3486L57.2345 32.4997L61.9272 31.7757L65.8022 27.7549L63.5262 31.9632L69.7918 32.5153Z" fill="#F3AE88"/>
<path d="M65.3179 138.682L72.1252 135.192L73.1772 120.771L73.4325 117.317L66.4012 112.531L73.4325 115.229L70.8283 108.974L73.4325 112.531L74.1772 102.906L74.4012 99.9893L74.9272 108.234L75.0887 110.724L80.8127 108.234L75.745 112.531L76.0366 121.396L76.4897 135.192L81.5575 138.021L75.0887 138.682C75.0887 138.682 72.0262 138.021 71.4272 138.021C70.8335 138.021 66.3647 138.463 65.3179 138.682Z" fill="#F3AE88"/>
<path d="M45.8281 73.4847L44.1823 69.042L48.0677 76.5785L50.6875 74.6201L54.0208 72.1305L52.3021 74.1826L48.9688 78.1618L49.5365 91.4378C49.375 96.4899 51.6354 102.068 52.5521 102.907C52.5521 102.907 47.9531 101.933 45.651 102.287C45.651 102.287 46.4219 93.7139 46 89.318C45.9948 89.292 45.9896 89.2139 45.9792 89.1045C45.974 89.0368 45.9687 88.9639 45.9583 88.8753C45.8021 87.2139 45.2812 81.6201 45.2812 81.6201L43.6042 79.8389L41.8125 77.9274L46.8594 81.0941V76.2712L45.8281 73.4847Z" fill="#F3AE88"/>
<path d="M45.828 73.4844L46.8592 76.2709V81.0938L41.8124 77.9271L43.604 79.8386L45.2811 81.6198C45.2811 81.6198 45.8019 87.2136 45.9582 88.875C45.8488 88.0521 45.6978 87.4167 45.4738 87.0729C42.6092 82.6094 41.578 84.7657 36.7186 83.6198C31.854 82.474 32.6457 77.25 36.0051 75.8386C26.0103 74.4219 26.6509 65.5782 33.2759 66.9896C32.2082 60.3542 37.2499 60 38.8384 61.5052C37.9738 58.6927 37.9582 56.7396 38.4217 55.3959C39.4478 52.3646 42.8592 52.4167 44.1457 52.6615C46.8905 45.4948 58.8332 48.7657 51.3176 63.4584C59.9894 57.2657 60.4269 66.9948 57.7707 68.7657C62.6196 67.4271 63.453 72.3386 60.354 75.3854C59.5519 76.1875 58.4842 76.8542 57.1509 77.2552C64.1405 77.7865 61.4009 84.3334 57.5988 84.3334C53.7863 84.3334 50.8696 84.1563 49.8124 89.1094C49.6509 89.8594 49.5623 90.6407 49.5363 91.4375L48.9686 78.1615L52.3019 74.1823L54.0207 72.1354L50.6874 74.625L48.0676 76.5834L44.1821 69.0469L45.828 73.4844Z" fill="#4CAF50"/>
<path d="M36.6405 15.8128V24.1357L29.0103 28.5628L18.1353 26.4535L16.0571 16.2764H18.828C18.828 16.2764 22.7655 10.9535 23.2238 10.2607L33.4009 12.3389L36.6405 15.8128Z" fill="#F3AE88"/>
<path d="M16.8853 102.906C11.6353 99.3596 13.1666 92.0627 17.1666 89.7555C21.9114 87.0211 28.6666 90.2086 28.3853 96.2294C34.1301 84.6461 43.2707 96.219 36.0103 100.651C40.9739 99.4221 41.1614 104.776 38.6978 106.203C45.8957 104.443 45.7135 115.656 39.8749 115.11C39.8749 115.11 39.6926 116.568 38.3228 116.844C41.2447 118.026 38.9635 120.854 36.776 120.308C34.5832 119.761 31.6666 118.396 30.3905 120.854H30.3853L29.9374 115.203L33.2082 109.75L33.677 108.974L33.2187 109.349L28.8541 112.922V106.287L27.4739 114.927L23.4582 112.281L27.0207 116.573L27.1614 121.37H27.1562C25.8853 118.906 24.3749 119.125 20.7291 120.037C17.078 120.948 15.2499 117.667 17.3541 115.75C11.8801 117.302 11.6041 111.099 14.3385 110.459C10.7812 107.448 14.3124 102.927 16.8853 102.906Z" fill="#4CAF50"/>
<path d="M31.7603 49.0312C31.7603 49.0312 29.4634 53.7187 29.5519 53.099C29.6405 52.4792 29.8175 47.2604 28.2238 46.1979C26.63 45.1406 22.3853 43.6302 22.3853 43.6302C23.9061 43.6719 25.4582 43.2396 26.8436 42.651C28.7655 41.8333 30.3696 40.7135 31.1405 40.0938V42.3073L33.7082 40.9844C33.7082 40.9844 31.9373 45.2292 32.2082 45.1406C32.4738 45.0521 33.7082 44.5208 33.7082 44.5208V45.5781L35.9998 43.9948C35.8748 44.1875 33.6353 47.4844 33.979 48.9427C34.1405 49.6302 34.3957 50.5573 34.6248 51.3698C34.88 52.2656 35.104 53.0104 35.1248 53.0938L31.7603 49.0312Z" fill="#F3AE88"/>
<path d="M21.271 130.708L27.3804 128.974L27.1564 121.365L27.0158 116.568L23.4585 112.276L27.4689 114.927L28.8491 106.281V112.917L33.2137 109.349C33.2085 109.594 33.2085 109.745 33.2085 109.745L29.9325 115.198L30.3804 120.854L31.0262 128.969L35.495 130.703H27.6564C27.6564 130.708 21.6356 130.708 21.271 130.708Z" fill="#F3AE88"/>
<mask id="mask4_5516_27425" style="mask-type:luminance" maskUnits="userSpaceOnUse" x="14" y="0" width="9" height="8">
<path d="M14.6665 0.692383H22.6665V7.99967H14.6665V0.692383Z" fill="white"/>
</mask>
<g mask="url(#mask4_5516_27425)">
<path d="M22.4635 3.85938L20.5104 7.15625L19.6562 6.65104C19.3698 6.65104 17.6823 5.63542 17.6823 5.63542L16.5573 6.65104L15.5469 4.45312L16.0573 2.14583L15.9896 1.40625L19.0052 1.14062L22.4635 3.85938Z" fill="#794426"/>
</g>
<path d="M20.5106 7.15592L20.021 7.98405H17.9585L16.0575 8.54655L13.8022 5.12467L14.7085 1.52572L15.9845 1.41113L16.0522 2.15072L15.547 4.4528L16.5575 6.65592L17.6825 5.6403C17.6825 5.6403 19.37 6.65592 19.6564 6.65592L20.5106 7.15592Z" fill="#794426"/>
<path d="M70.9425 52.5628C69.3071 52.5628 67.8904 52.1513 66.781 51.3284C65.7081 50.5419 64.9789 49.4065 64.6456 48.0107C62.8123 50.4221 60.4894 51.0055 58.8748 50.4586C57.505 49.9951 56.6769 48.7503 56.5987 47.1253C54.406 48.5992 51.9581 47.9378 50.4998 46.5888C48.4946 44.7294 47.7133 41.2451 50.4737 37.6513L51.0675 38.1096C48.5935 41.3284 49.255 44.4117 51.005 46.0367C52.4164 47.344 54.7341 47.8596 56.7446 46.0628L57.4633 45.4221L57.3696 46.3805C57.1977 48.0628 57.8539 49.318 59.1091 49.7503C60.5571 50.2346 62.8696 49.5367 64.5362 46.8388L65.1144 45.9065L65.2289 46.9951C65.4008 48.5992 66.0883 49.8909 67.2237 50.7242C68.6404 51.7659 70.6508 52.068 73.0362 51.5888C73.8383 51.4273 74.3383 51.1513 74.5675 50.7451C74.9789 50.0159 74.5466 48.818 74.0935 47.5471C73.5623 46.068 73.0154 44.5367 73.5258 43.1982C74.2446 41.3336 76.4477 41.1982 79.005 41.0419C81.0154 40.9169 83.2966 40.7763 85.2289 39.7607C86.8487 38.9065 87.6352 37.5732 87.3331 36.1878C86.9269 34.3284 84.4477 32.219 78.7185 31.9117L78.7133 31.1669C84.2966 30.8023 87.1769 28.7503 88.0102 26.9534C88.4425 26.0211 88.3591 25.0732 87.781 24.2867C86.4529 22.4951 83.005 21.8023 78.5571 22.4273L76.8956 22.6565L78.3019 21.7398C80.7966 20.1096 82.3383 16.7138 82.2133 14.568C82.1769 13.9221 81.9633 13.068 81.1925 12.693C80.4425 12.318 78.5519 12.1201 74.3175 14.969L73.3644 15.6096L73.7602 14.5263C74.1925 13.3284 74.031 10.5628 72.6456 9.7763C71.63 9.19818 69.0935 9.24506 63.5258 16.0523L62.9164 16.8023L62.8644 15.8336C62.7706 14.0263 61.3852 11.7138 59.5466 11.2711C58.0414 10.9065 56.5883 11.8648 55.3435 14.0367C54.5154 15.4638 53.7914 17.4169 53.1977 19.8336L53.0414 20.4846L52.5727 20.0107C50.4894 17.9273 48.3852 17.5107 46.8071 18.8648C44.3904 20.9378 43.4581 27.4326 48.0935 33.7451L47.4894 34.193C42.9321 27.9898 43.2081 20.9638 46.3175 18.2971C48.0779 16.7815 50.406 17.068 52.6248 19.0367C53.2081 16.8388 53.9008 15.0263 54.6925 13.6617C56.5987 10.3544 58.6612 10.2867 59.7185 10.5419C61.6196 10.9951 63.0675 13.0159 63.4894 14.9221C67.7341 9.89089 70.9373 7.93776 73.0206 9.12526C74.5414 9.98985 74.8696 12.2815 74.6769 13.8388C77.7185 11.9326 80.0779 11.3023 81.5258 12.0159C82.3956 12.4482 82.8904 13.3128 82.9633 14.5211C83.0987 16.818 81.7341 19.7138 79.7758 21.5315C85.5831 21.0107 87.7133 22.943 88.3852 23.8388C89.1352 24.8544 89.2498 26.0732 88.6977 27.2659C87.9425 28.8961 85.7394 30.7086 81.7289 31.5263C85.8019 32.344 87.6873 34.2763 88.0675 36.0315C88.4425 37.7398 87.4841 39.4221 85.5779 40.4273C83.5102 41.5159 81.1404 41.6617 79.0571 41.7919C76.6664 41.9378 74.7758 42.0523 74.2341 43.469C73.8175 44.5471 74.3175 45.943 74.8019 47.2919C75.3175 48.7242 75.8019 50.0784 75.2237 51.1096C74.88 51.719 74.2133 52.1148 73.1873 52.318C72.4008 52.4846 71.6456 52.5628 70.9425 52.5628Z" fill="black"/>
<path d="M29.0729 28.9583L17.8177 26.7708L15.5938 15.901H18.6406C19.2865 15.026 22.5052 10.6667 22.9167 10.0521L23.0521 9.84375L33.599 12L37.0156 15.6615V24.3542L29.0729 28.9583ZM18.4531 26.1302L28.9427 28.1667L36.2656 23.9219V15.9583L33.2083 12.6875L23.3906 10.6771C22.5625 11.8594 19.2813 16.2969 19.1302 16.5L19.0156 16.651H16.5104L18.4531 26.1302Z" fill="black"/>
<path d="M94.3856 29.0052L90.5054 25.3594L93.0991 21.7135L93.2502 21.6875C93.3439 21.6718 95.5627 21.2604 97.0314 21.4062C97.547 21.4583 97.922 21.5677 98.1668 21.7604L98.3179 21.875V27.401L94.3856 29.0052ZM91.495 25.2604L94.547 28.125L97.5627 26.8958V22.276C97.4429 22.2239 97.2554 22.1771 96.9533 22.151C95.797 22.0364 94.047 22.3073 93.5314 22.401L91.495 25.2604Z" fill="black"/>
<path d="M75.9321 66.8021L75.3696 63.9115L77.2863 62.5312L79.8175 64.1146L79.8332 64.3021C79.8905 64.9688 78.9269 66.0937 78.5103 66.5469L78.4061 66.6615L75.9321 66.8021ZM76.1978 64.2396L76.5467 66.0156L78.0571 65.9271C78.5207 65.4063 78.9321 64.8229 79.0519 64.5208L77.3175 63.4323L76.1978 64.2396Z" fill="black"/>
<path d="M29.5939 53.5413C29.547 53.5413 29.5002 53.5309 29.4481 53.5153C29.3283 53.4736 29.1408 53.3382 29.1825 53.0465C29.2866 52.2965 29.37 47.4111 28.0158 46.5101C26.4793 45.484 22.3022 43.9997 22.2554 43.984L20.0366 43.1976L22.3908 43.2549C23.6877 43.2913 25.1408 42.9684 26.6981 42.307C28.8075 41.4111 30.4533 40.1611 30.9012 39.8018L31.5106 39.3174V41.6872L34.4429 40.1715L34.047 41.1247C33.5262 42.3747 32.9793 43.7549 32.7137 44.5257C32.995 44.4111 33.3127 44.2757 33.5522 44.1715L34.0731 43.9476V44.8643L35.7762 43.6872L36.2033 44.307L33.3231 46.2913V45.083C32.9429 45.2445 32.4741 45.4372 32.3075 45.4945L32.0835 45.5674L31.9012 45.3903C31.7241 45.1976 31.6147 45.0778 32.9637 41.7861L30.7606 42.9215V40.8486C29.9689 41.4163 28.6147 42.307 26.9845 42.9945C25.9793 43.4268 25.0158 43.7184 24.0939 43.8747C25.4845 44.4163 27.4272 45.2236 28.422 45.8851C29.7658 46.7809 29.9637 49.8851 29.9637 51.734C30.3752 50.9528 30.9168 49.8799 31.4116 48.8643L31.6668 48.3434L35.4845 52.9528L35.4897 53.0986H34.7345H35.1095L34.8387 53.3538L31.8283 49.7132C30.1929 53.0726 29.87 53.5413 29.5939 53.5413ZM29.9272 53.1299C29.9272 53.1403 29.9272 53.1507 29.9272 53.1507C29.9272 53.1455 29.9272 53.1403 29.9272 53.1299Z" fill="black"/>
<path d="M34.7603 53.1927C34.755 53.1615 34.7186 53.0417 34.6665 52.8542C34.5728 52.5365 34.4217 52.0365 34.2603 51.474L34.9842 51.2656C35.1457 51.8281 35.2915 52.3229 35.3853 52.6406C35.4425 52.8385 35.479 52.9635 35.4894 52.9948L34.7603 53.1927Z" fill="black"/>
<path d="M34.2605 51.4691C33.9636 50.4326 33.7449 49.6097 33.6095 49.0316C33.2761 47.5993 34.9428 44.9014 35.6772 43.8076L35.7345 43.7295L36.0209 44.0107L36.3126 44.2035C35.2605 45.7764 34.1199 47.9222 34.3386 48.8597C34.474 49.4274 34.6876 50.2347 34.974 51.2607L34.2605 51.4691Z" fill="black"/>
<path d="M53.8175 103.557L52.4738 103.27C52.4269 103.26 47.9113 102.317 45.7081 102.651L45.2342 102.724L45.2758 102.244C45.2811 102.161 46.0363 93.6611 45.6248 89.3486L46.3748 89.2757C46.7394 93.1298 46.2186 100.005 46.0623 101.854C47.8175 101.718 50.3644 102.114 51.7133 102.359C50.6092 100.406 49.0206 95.7444 49.1613 91.4163C49.1925 90.5673 49.2863 89.76 49.4425 89.0205C50.5363 83.9371 53.6248 83.9319 57.2186 83.9475H57.5988C59.4894 83.9475 61.0258 82.1298 61.0883 80.5621C61.1508 78.8903 59.7081 77.8173 57.1248 77.6194L55.1144 77.4632L57.0415 76.885C58.2446 76.5257 59.2706 75.9267 60.0883 75.109C61.6561 73.5673 62.2446 71.3694 61.4581 70.0048C60.854 68.958 59.5831 68.6455 57.8696 69.1142L55.63 69.734L57.5675 68.4423C58.3956 67.885 58.9321 66.3069 58.8123 64.7653C58.7133 63.4267 58.1508 62.4215 57.2706 62.01C55.9633 61.4059 53.979 62.0048 51.5311 63.7496L50.2758 64.6507L50.979 63.2809C53.6196 58.1246 54.1144 53.7184 52.3436 51.1767C51.4373 49.885 49.9946 49.2236 48.4686 49.4111C46.7133 49.6246 45.2238 50.8903 44.4946 52.7913L44.3852 53.083L44.0779 53.0257C43.9061 52.9944 39.88 52.2705 38.7706 55.5153C38.2863 56.9319 38.4269 58.9111 39.1977 61.3955L39.6196 62.76L38.5831 61.7809C37.9217 61.1559 36.4738 60.8746 35.2811 61.4996C33.7863 62.2913 33.2081 64.2184 33.6456 66.9267L33.7342 67.4684L33.1925 67.359C31.5363 67.0048 30.1404 67.3173 29.3696 68.2184C28.7186 68.9684 28.5779 70.0725 28.9894 71.1663C29.8123 73.3486 32.4529 74.958 36.0571 75.4684L37.4008 75.6611L36.1508 76.1871C34.5727 76.8538 33.5258 78.5153 33.6613 80.1403C33.7863 81.6819 34.9321 82.8225 36.7967 83.2653C38.3644 83.635 39.5415 83.6507 40.4842 83.6663C42.5258 83.6975 43.7602 83.7184 45.7863 86.8746C46.0258 87.2548 46.2029 87.8903 46.3227 88.833L46.3488 89.0725L45.5988 89.1455L45.5779 88.9215C45.4477 87.9163 45.2758 87.4736 45.1561 87.2809C43.3436 84.458 42.3852 84.4423 40.4738 84.4163C39.4946 84.4007 38.2706 84.385 36.63 83.9996C34.4269 83.4736 33.0727 82.0934 32.9165 80.208C32.7811 78.5882 33.5727 76.9996 34.9061 76.0361C31.5623 75.333 29.13 73.6559 28.2915 71.4371C27.7811 70.083 27.9738 68.6975 28.8019 67.7392C29.6769 66.7236 31.1248 66.3017 32.8331 66.5413C32.3852 62.8069 33.9373 61.3746 34.9321 60.8486C36.0311 60.2705 37.2811 60.3121 38.2186 60.6923C37.6404 58.484 37.5936 56.6663 38.0675 55.2861C39.0519 52.3798 42.0727 51.9996 43.9165 52.2548C44.7811 50.2496 46.4269 48.9267 48.3748 48.6819C50.1821 48.4632 51.8904 49.2392 52.9529 50.76C54.7446 53.3226 54.479 57.5153 52.2498 62.4007C54.9477 60.7757 56.6248 60.9059 57.5831 61.3538C58.7186 61.885 59.4373 63.1142 59.5623 64.7288C59.6613 66.0153 59.3592 67.3069 58.8019 68.1975C60.3071 68.0569 61.4842 68.5621 62.1092 69.6455C63.0779 71.3278 62.4581 73.8538 60.6196 75.6663C60.0415 76.2444 59.3592 76.7236 58.5988 77.0986C61.6769 77.8225 61.8644 79.9163 61.8383 80.609C61.7654 82.5465 59.9373 84.7132 57.5988 84.7132H57.2186C53.5571 84.708 51.1404 84.7028 50.1769 89.1975C50.0259 89.8955 49.9373 90.6559 49.9113 91.4632C49.7446 96.4892 51.9946 101.901 52.8019 102.651L53.8175 103.557Z" fill="black"/>
<path d="M125.495 59.6719L125.229 59.6094C125.229 59.6094 119.432 58.1771 118.854 58.0365C118.344 58.0625 114.724 59.0677 113.521 59.401C113.115 59.5156 112.839 59.5938 112.766 59.6094L112.615 59.6458L112.458 59.5573C112.297 59.4583 111.922 59.224 109.943 50.1042L109.906 49.9427L110.005 49.8073C110.729 48.7865 112.469 46.3802 112.927 46.1042C113.193 45.9427 114.609 45.3437 116.911 44.375C118.125 43.8594 119.276 43.375 119.901 43.099L119.974 43.0625H122.49L129.88 45.7656L131.99 49.4167L129.698 53.0417L129.062 52.6406L131.109 49.3958L129.365 46.3802L122.354 43.8177H120.125C119.479 44.1042 118.37 44.5677 117.198 45.0625C115.573 45.75 113.547 46.6042 113.307 46.75C113.047 46.9271 111.802 48.5729 110.703 50.1094C111.51 53.8021 112.474 57.849 112.844 58.8125C112.969 58.776 113.13 58.7292 113.318 58.6771C118.234 57.3125 118.776 57.2448 119 57.3021C119.302 57.3802 123.974 58.526 125.146 58.8177L129.052 52.6406L129.688 53.0469L125.495 59.6719Z" fill="black"/>
<path d="M133.287 65.9271V60.4896L133.516 60.3906C134.141 60.1302 135.875 59.349 136.422 58.9479L136.698 58.7344L139.412 61.8594L136.86 65.2917L133.287 65.9271ZM134.037 60.9844V65.026L136.432 64.6042L138.448 61.8906L136.573 59.7344C135.854 60.1771 134.563 60.7552 134.037 60.9844Z" fill="black"/>
<path d="M108.505 82.5309H103.635C103.39 82.5309 103.083 82.5309 99.8957 77.4372L99.7759 77.2497L101.526 74.1455L101.63 74.0934C104.406 72.7445 104.932 72.5882 105.083 72.5674L108.63 72.0205L112.917 74.4945L112.239 79.1507L109.703 80.5049L108.505 82.5309ZM103.745 81.7809H108.078L109.161 79.9424L111.552 78.6611L112.099 74.8851L108.484 72.8018L105.161 73.3122C104.885 73.3851 103.406 74.0674 102.068 74.7184L100.651 77.2288C101.922 79.2497 103.354 81.3903 103.745 81.7809Z" fill="black"/>
<path d="M119.979 113.005L114.792 111.057L108.589 110.625L102.964 112.005L99.4688 102.271L102.531 92.182L106.286 89.833L106.432 89.859C108.469 90.2445 111.755 90.8382 112.417 90.9007L114.286 89.833L119.286 90.859L126.552 99.307L119.979 113.005ZM108.526 109.869L115.005 110.333L119.604 112.062L125.672 99.4215L118.896 91.5413L114.417 90.6299L112.609 91.6611H112.51C111.995 91.6611 107.646 90.8538 106.438 90.6299L103.172 92.6663L100.26 102.25L103.443 111.119L108.526 109.869Z" fill="black"/>
<path d="M86.7708 61.141L86.6354 61.0212C85.724 60.2451 84.2135 58.9743 84.0365 58.8493C83.901 58.7607 83.6406 58.5941 82.8229 54.667L82.7969 54.542L84.6875 50.5732L84.8698 50.5368C85.0781 50.4951 89.974 49.4795 90.5052 49.391L90.5625 49.3857H92.474L96.8698 53.693L94.8698 60.443L91.8073 60.0628L86.7708 61.141ZM84.5 58.2712C84.8802 58.5524 86.4115 59.8493 86.974 60.3285L91.7708 59.2972L94.3281 59.6201L96.0208 53.9066L92.1615 50.1357H90.5885C90.0104 50.2347 86.0937 51.0472 85.2031 51.2347L83.5833 54.6357C83.9115 56.2139 84.3333 57.943 84.5 58.2712ZM84.4479 58.2295C84.4531 58.2295 84.4531 58.2295 84.4583 58.2295C84.4531 58.2295 84.4479 58.2295 84.4479 58.2295Z" fill="black"/>
<path d="M136.547 111.817H137.297V131.213H136.547V111.817Z" fill="black"/>
<path d="M167.812 131.214H167.057V112.906H158.739V131.214H157.995V112.156H167.812V131.214Z" fill="black"/>
<path d="M152.011 112.229H131.958L148.401 97.3281H168.453L152.011 112.229ZM133.901 111.479H151.724L166.516 98.0833H148.693L133.901 111.479Z" fill="black"/>
<path d="M178.109 131.213H177.359V111.479H182.13L167.234 97.984L167.734 97.4268L184.073 112.229H178.109V131.213Z" fill="black"/>
<path d="M149.948 121.771H142.323V114.141H149.948V121.771ZM143.073 121.016H149.198V114.896H143.073V121.016Z" fill="black"/>
<path d="M178.052 106.942H177.302V95.958H172.839V102.213H172.083V95.208H178.052V106.942Z" fill="black"/>
<mask id="mask5_5516_27425" style="mask-type:luminance" maskUnits="userSpaceOnUse" x="0" y="26" width="127" height="122">
<path d="M0.213379 26.667H126.667V147.693H0.213379V26.667Z" fill="white"/>
</mask>
<g mask="url(#mask5_5516_27425)">
<path d="M83.2551 147.23L40.6509 143.407H0.213379L6.63005 71.459L2.38525 41.1204L7.46338 27.9277L7.86442 28.2767C12.7082 32.4746 15.6353 38.3236 16.3123 39.7715C16.7707 39.8236 17.6717 40.0007 19.5467 40.3548C21.2707 40.6882 23.6353 41.1361 23.88 41.1517C24.2655 41.1517 25.9946 41.8757 26.9946 42.3079L26.6978 42.9954C25.5259 42.4902 24.1092 41.9277 23.8644 41.9017C23.6769 41.9017 22.5311 41.6934 19.4113 41.0944C17.9686 40.8236 16.3332 40.5111 16.0675 40.4746H16.0571C15.8175 40.4746 15.729 40.2819 15.6978 40.2142C15.1769 39.0944 12.4217 33.4121 7.77588 29.209L3.15609 41.209L7.38525 71.4382V71.4798L1.03109 142.662H40.6873L83.1196 146.469L97.8384 139.495L97.9061 139.49L125.594 137.011L123.557 131.339L124.26 131.084L126.63 137.667L98.0363 140.225L83.2551 147.23Z" fill="black"/>
</g>
<path d="M38.1509 55.6507L34.2446 51.5205V51.3695H34.6248L34.8957 51.1143L38.6925 55.1351L38.1509 55.6507Z" fill="black"/>
<path d="M66.2552 79.7965L62.6771 78.2236L60.0938 75.6455L60.6198 75.1143L63.1042 77.5934L66.5573 79.109L66.2552 79.7965Z" fill="black"/>
<mask id="mask6_5516_27425" style="mask-type:luminance" maskUnits="userSpaceOnUse" x="92" y="105" width="97" height="27">
<path d="M92 105.333H188.214V132H92V105.333Z" fill="white"/>
</mask>
<g mask="url(#mask6_5516_27425)">
<path d="M188.151 131.588H123.797L112.714 124.458L110.078 121.692C108.162 120.599 99.2345 115.484 98.6668 114.927C98.547 114.802 98.1825 114.437 93.1512 107.552L92.4585 106.599L93.0679 106.161L93.7554 107.104C98.1043 113.057 99.0314 114.224 99.1981 114.39C99.6252 114.797 106.354 118.698 110.495 121.062L110.578 121.13L113.224 123.906L124.016 130.833H188.151V131.588Z" fill="black"/>
</g>
<path d="M62.7031 139.599L71.7656 134.953L73.0469 117.505L63.526 111.021L72.75 114.567L69.276 106.224L73.1406 111.494L74.0312 99.958L74.776 99.9632L75.4271 110.166L82.9896 106.875L76.125 112.698L76.8542 134.968L82.7708 138.271L75.0625 139.057L75.0052 139.047C73.7917 138.781 71.8333 138.396 71.4271 138.396C70.8281 138.396 66.375 138.843 65.3958 139.047L62.7031 139.599ZM71.4271 137.64C72.0156 137.64 74.599 138.187 75.1042 138.302L80.3281 137.765L76.1198 135.411L75.3594 112.359L78.625 109.588L74.7448 111.281L74.3698 105.328L73.7344 113.573L72.3854 111.729L74.1198 115.896L69.2917 114.041L73.8281 117.125L72.4844 135.427L67.4427 138.01C69.0833 137.828 71.026 137.64 71.4271 137.64Z" fill="black"/>
<path d="M60.0261 126.146C59.323 126.146 58.6355 125.948 57.9897 125.479C56.474 124.364 55.9115 121.989 56.5626 120.015C53.2501 121.234 50.3543 121.021 48.5261 119.406C47.1563 118.198 46.6251 116.354 47.1355 114.588C47.7345 112.526 49.6147 111.005 52.224 110.448C51.5261 109.021 51.6824 107.536 52.6772 106.312C53.6147 105.161 55.1407 104.489 56.4376 104.578C55.6355 102.75 56.1772 101.562 56.8282 100.864C57.7605 99.8591 59.4011 99.4008 60.5938 99.4424C59.0418 97.0414 59.0834 94.7185 60.7553 93.1091C62.0261 91.8799 63.9428 91.4112 65.4324 91.8278C62.7813 86.9476 63.0834 82.3903 66.323 79.4737C67.797 78.1508 69.7813 77.2601 72.0626 76.906C73.9115 76.6247 75.4272 77.1456 76.573 78.4737C78.9793 81.2549 79.073 86.9268 78.5782 89.5883C80.3178 88.9112 81.6355 88.9997 82.5053 89.8487C83.6772 90.9945 83.6199 93.2133 83.3386 94.5674C87.3386 92.7289 90.0782 92.5987 91.4793 94.1924C92.9636 95.8747 92.4011 99.0518 91.599 100.713C93.3178 100.942 94.1043 101.755 94.4688 102.432C95.1563 103.724 94.8959 105.625 93.7657 107.515C92.8178 109.109 91.4636 110.328 90.1251 110.843C91.7865 111.906 92.7657 113.5 92.8438 115.328C92.9376 117.526 91.7397 119.682 89.7918 120.817C88.5938 121.521 86.1251 122.38 82.8595 120.5C81.823 122.093 80.1772 123 78.3959 122.937C77.1303 122.896 76.073 122.349 75.6876 121.547L76.3647 121.224C76.6251 121.771 77.448 122.156 78.422 122.192C80.047 122.245 81.5313 121.354 82.4063 119.807L82.599 119.463L82.9324 119.672C85.224 121.099 87.5261 121.271 89.4168 120.166C91.1251 119.166 92.1772 117.281 92.0938 115.359C92.0157 113.5 90.9011 111.974 88.9584 111.052L87.7813 110.495L89.0782 110.338C90.4688 110.172 92.0574 108.916 93.1199 107.13C94.099 105.489 94.3595 103.823 93.8022 102.781C93.349 101.937 92.4011 101.474 90.9688 101.406L90.3074 101.37L90.672 100.823C91.3751 99.7601 92.3334 96.2914 90.9168 94.682C89.6928 93.2966 86.9168 93.6091 82.8959 95.5987L81.9584 96.057L82.3855 95.1091C82.7293 94.3383 83.1251 91.5101 81.974 90.3799C81.2397 89.6612 79.9688 89.7237 78.1928 90.557L77.4272 90.9164L77.6772 90.1039C78.2865 88.1299 78.448 81.781 76.0001 78.9476C75.0313 77.8331 73.7449 77.3956 72.1668 77.6351C70.0313 77.9685 68.1772 78.7914 66.8178 80.0153C63.5782 82.932 63.5365 87.4945 66.7136 92.5258L68.0157 94.5987L66.1511 93.0153C64.9688 92.0101 62.6459 92.307 61.2657 93.6403C59.698 95.1508 59.8647 97.3747 61.7293 99.7393L62.7449 101.026L61.2709 100.307C60.5886 99.9737 58.4011 100.245 57.3699 101.359C56.5574 102.229 56.5834 103.416 57.4428 104.901L57.9688 105.807L56.9897 105.437C55.8699 105.021 54.1928 105.614 53.2501 106.771C52.7293 107.416 52.0105 108.76 53.1147 110.505L53.422 110.984L52.8595 111.078C50.2761 111.489 48.4011 112.87 47.849 114.781C47.4168 116.26 47.8595 117.812 49.0105 118.828C50.7709 120.38 53.724 120.432 57.1199 118.968L58.1511 118.526L57.5938 119.5C56.5938 121.25 56.9897 123.807 58.4272 124.859C60.1928 126.156 63.0001 124.968 66.1199 121.599L66.5209 121.166L66.7397 121.708C67.0313 122.416 67.8334 123.635 69.0053 123.729C70.1876 123.812 71.5157 122.729 72.8438 120.557L73.4845 120.948C71.974 123.406 70.4532 124.588 68.9428 124.474C67.7293 124.375 66.8126 123.432 66.2918 122.5C64.9115 123.948 62.3855 126.146 60.0261 126.146Z" fill="black"/>
<path d="M73.0679 89.349L73.8127 89.2812L74.7814 99.9479L74.0366 100.016L73.0679 89.349Z" fill="black"/>
<path d="M73.8854 103.146C72.7969 101.818 69.8385 98.2708 69.25 97.8021L69.724 97.2188C70.474 97.8177 74.0625 102.177 74.4635 102.667L73.8854 103.146Z" fill="black"/>
<path d="M84.8123 109.812C84.6561 109.781 81.88 108.948 80.6978 108.589L80.2603 108.458L83.229 102.953L83.8905 103.312L81.354 108.005C82.8592 108.458 84.8071 109.036 84.9582 109.078L84.8123 109.812Z" fill="black"/>
<path d="M80.6196 107.906L87.5103 103.844L87.8905 104.49L80.9998 108.552L80.6196 107.906Z" fill="black"/>
<path d="M74.6196 108.015L80.005 100.427L80.6196 100.864L75.2342 108.448L74.6196 108.015Z" fill="black"/>
<path d="M67.0781 104.396L67.6875 103.953L71.1354 108.76L70.5208 109.198L67.0781 104.396Z" fill="black"/>
<path d="M57.6198 114.714L57.4688 113.979L65.2865 112.375L59.3021 109.307L59.6458 108.641L67.526 112.682L57.6198 114.714Z" fill="black"/>
<path d="M30.7237 121.026L30.0571 120.677C31.281 118.323 33.8071 119.057 35.8331 119.651C36.1925 119.76 36.5362 119.859 36.8644 119.943C37.9321 120.208 39.0206 119.531 39.2758 118.745C39.4842 118.115 39.0935 117.557 38.1821 117.193L37.0258 116.719L38.2498 116.479C39.3279 116.26 39.4946 115.115 39.4998 115.062L39.5519 114.708L39.9112 114.734C41.8227 114.922 42.7915 113.708 43.1977 112.974C44.104 111.339 43.9946 109.068 42.9425 107.693C42.3123 106.87 41.0779 106.005 38.7862 106.568L36.2498 107.187L38.5102 105.875C39.6508 105.214 40.1925 103.51 39.6769 102.224C39.1873 101.016 37.88 100.573 36.0987 101.016L33.7342 101.599L35.8123 100.328C38.5987 98.625 38.4217 96.1927 38.2081 95.2239C37.7967 93.3177 36.3279 91.8437 34.6352 91.6302C33.38 91.4739 30.9581 91.8854 28.7237 96.3958L27.9269 97.9895L28.0102 96.2083C28.13 93.7135 26.9633 91.5364 24.8175 90.2291C22.5362 88.8385 19.604 88.7812 17.354 90.0729C15.38 91.2135 13.9946 93.7239 13.9008 96.3229C13.8487 97.8229 14.1925 100.635 17.0935 102.589C18.0675 103.255 19.255 103.75 20.6248 104.073L20.4529 104.802C18.9946 104.458 17.7185 103.927 16.6717 103.208C14.3383 101.635 13.0519 99.1093 13.1508 96.2916C13.255 93.401 14.755 90.7031 16.9737 89.4218C19.4581 87.9895 22.6925 88.052 25.2081 89.5833C27.1821 90.7864 28.4112 92.6614 28.7029 94.8541C30.9737 91.0625 33.4112 90.7135 34.729 90.8802C36.7342 91.1302 38.4685 92.8489 38.9477 95.0573C39.354 96.9479 38.7602 98.7552 37.354 100.094C38.8019 100.094 39.8904 100.74 40.3748 101.937C40.8644 103.151 40.6144 104.62 39.8592 105.646C41.406 105.568 42.6821 106.104 43.5415 107.229C44.781 108.854 44.9165 111.417 43.8592 113.333C43.0675 114.755 41.7394 115.531 40.1769 115.495C40.0675 115.875 39.8019 116.484 39.2081 116.88C40.3123 117.651 40.104 118.641 39.9998 118.969C39.6352 120.068 38.1925 121.042 36.6925 120.667C36.354 120.578 35.9998 120.474 35.63 120.37C33.3019 119.693 31.5987 119.344 30.7237 121.026Z" fill="black"/>
<path d="M26.8232 121.542C25.7294 119.427 24.6409 119.438 20.8179 120.396C18.4742 120.985 16.9794 119.959 16.4117 118.901C15.9638 118.073 15.9898 117.136 16.4221 116.323C15.0888 116.49 13.9742 116.183 13.2138 115.427C12.37 114.578 12.0523 113.24 12.4065 112.011C12.62 111.256 13.0732 110.662 13.6513 110.334C12.495 109.104 12.1617 107.542 12.7346 105.964C13.4117 104.089 15.2711 102.552 16.8804 102.542V103.292C15.5836 103.302 14.0106 104.646 13.4377 106.224C13.1304 107.078 12.8648 108.729 14.5836 110.183L15.1513 110.662L14.4273 110.834C13.8127 110.974 13.3388 111.479 13.1304 112.224C12.8544 113.183 13.1044 114.256 13.745 114.901C14.5002 115.662 15.7138 115.828 17.2502 115.396L18.7815 114.964L17.6044 116.032C16.8232 116.745 16.62 117.709 17.0732 118.558C17.5159 119.375 18.7138 120.162 20.6357 119.677C24.2659 118.776 26.0732 118.459 27.495 121.203L26.8232 121.542Z" fill="black"/>
<path d="M37.5002 131.078H18.5679L26.995 128.688L26.646 116.703L21.5522 110.573L27.1929 114.292L28.4793 106.229L29.2241 106.287V112.131L35.1095 107.313L30.3179 115.292L31.3856 128.714L37.5002 131.078ZM23.9689 130.334H33.4897L30.672 129.24L29.5522 115.115L32.2397 110.636L28.4793 113.714V111.016L27.7502 115.563L25.3647 113.99L27.3908 116.433L27.7658 129.261L23.9689 130.334Z" fill="black"/>
<path d="M28.922 106.969L24.4429 101.359L25.0262 100.891L28.7866 105.599L30.6564 101.974L31.3179 102.318L28.922 106.969Z" fill="black"/>
<path d="M30.6562 101.969L32.5 98.3906L33.1719 98.7344L31.3281 102.318L30.6562 101.969Z" fill="black"/>
<path d="M31.0885 102.521H30.7083L30.625 102.25L29.3906 98.0055L30.1146 97.792L31.224 101.594C31.9531 101.203 33.401 100.422 33.5052 100.37L33.8542 101.032C33.7187 101.104 31.2917 102.407 31.1719 102.474L31.0885 102.521Z" fill="black"/>
<path d="M33.4219 108.698L36.4323 105.828L36.9531 106.37L33.9375 109.245L33.4219 108.698Z" fill="black"/>
<path d="M32.8281 110.172L32.8542 108.995C32.9271 105.458 32.9375 105.417 32.9635 105.328L33.6823 105.547L33.3281 105.438L33.6927 105.495C33.6719 105.698 33.625 108.021 33.599 109.01L33.5938 109.323L37.4896 108.885L37.5677 109.63L32.8281 110.172Z" fill="black"/>
<path d="M18.9481 113.036L18.8804 112.286L22.9429 111.943C22.5783 110.927 21.9377 109.073 21.9377 108.661H22.6877H22.3127L22.6877 108.656C22.6981 108.937 23.2658 110.651 23.8127 112.146L23.9845 112.609L18.9481 113.036Z" fill="black"/>
<path d="M23.2293 112.578C21.1147 110.969 18.5731 109.031 18.4741 108.927L18.9897 108.391C19.146 108.526 21.8856 110.615 23.6877 111.979L23.2293 112.578Z" fill="black"/>
<path d="M37.9738 41.8958L40.5884 39.1198L36.6196 39.5156L41.0467 36.7188L36.3384 35.5365L55.0311 32.3542L58.5728 23.75L57.6561 32.0469L61.7446 31.4167L67.4373 25.5156L64.1248 31.6406L73.0519 32.4219L62.9373 33.8802L58.3488 35.6354L66.0519 39.125L65.7967 39.8281L55.2446 37L37.9738 41.8958ZM42.5103 38.1771L40.38 40.4323L55.2446 36.2292L61.5832 37.9271L56.4009 35.5781L62.7863 33.1406L66.5259 32.6042L62.9165 32.2865L64.1613 29.9896L62.104 32.125L56.8019 32.9375L57.2394 28.9427L55.5571 33.026L39.9738 35.6771L42.9165 36.4167L39.6873 38.4583L42.5103 38.1771Z" fill="black"/>
<mask id="mask7_5516_27425" style="mask-type:luminance" maskUnits="userSpaceOnUse" x="13" y="0" width="11" height="10">
<path d="M13.3335 0.692383H24.0002V9.33301H13.3335V0.692383Z" fill="white"/>
</mask>
<g mask="url(#mask7_5516_27425)">
<path d="M15.896 8.97917L13.396 5.19271L14.4116 1.17708L19.12 0.75L22.9585 3.77083L20.2345 8.35938H18.0158L15.896 8.97917ZM14.2033 5.05208L16.2189 8.10417L17.9585 7.60938H19.8075L21.9741 3.95312L18.8908 1.52604L15.0106 1.875L14.2033 5.05208Z" fill="black"/>
</g>
<path d="M83.9481 71.8698L82.4429 69.5781L83.0522 67.1458L85.8752 66.8906L88.1929 68.7135L86.547 71.4948H85.2293L83.9481 71.8698ZM83.2502 69.4375L84.271 70.9896L85.1772 70.7344H86.12L87.2137 68.8906L85.646 67.6562L83.6512 67.8385L83.2502 69.4375Z" fill="black"/>
<path d="M49.1667 91.516L49.1615 91.4587L48.5885 78.0264L51.6667 74.3493L47.9375 77.1357L46.6823 74.7035L47.2396 76.2035V81.7712L44.0781 79.7868L45.6458 81.4587L46.3281 88.8389C46.3385 88.9222 46.349 89.0055 46.349 89.0785C46.3594 89.1722 46.3646 89.2399 46.3698 89.266L45.625 89.3597C45.6198 89.3337 45.6146 89.2503 45.6042 89.1305C45.599 89.0628 45.5937 88.9951 45.5781 88.917L44.9167 81.7816L39.5469 76.0628L46.4844 80.4118V76.3389L43.8229 69.1722L44.5104 68.8701L48.1927 76.0107L56.3646 69.9118L49.349 78.2868L49.9115 91.4691L49.1667 91.516Z" fill="black"/>
<path d="M50.3125 74.5986L50.7083 68.2705L51.4583 68.3174L51.0625 74.6455L50.3125 74.5986Z" fill="black"/>
<path d="M52.2446 73.807L56.5207 73.1143L56.6405 73.8538L52.3644 74.5465L52.2446 73.807Z" fill="black"/>
<path d="M45.8332 73.859H45.7394L39.4634 70.7705L39.7967 70.0986L45.9946 73.1455L45.828 73.4788L45.8332 73.859Z" fill="black"/>
<path d="M43.8071 69.0055L44.38 62.2295L45.13 62.292L44.5571 69.068L43.8071 69.0055Z" fill="black"/>
<path d="M40.3228 74.2861L41.0467 74.0674L42.1717 77.8174L41.453 78.0361L40.3228 74.2861Z" fill="black"/>
<path d="M38.3906 79.891L43.5781 79.4639L43.6406 80.2139L38.4531 80.641L38.3906 79.891Z" fill="black"/>
<path d="M57.4375 27.1299L58.4948 18.6611L59.2396 18.7549L58.3802 25.6351C59.5313 24.9736 61.6927 23.7913 62 23.6247L62.3594 24.2809C61.2917 24.8643 58.4531 26.432 58.125 26.6559L57.4375 27.1299Z" fill="black"/>
<path d="M78.7448 37.2757L69.0156 32.5518L74.1562 29.3799L74.5469 30.0153L70.5729 32.4736L79.0729 36.5986L78.7448 37.2757Z" fill="black"/>
<path d="M65.604 28.1354L67.5363 22.0833L68.2498 22.3125L67.0623 26.0312L74.5988 20.0938L75.0675 20.6823L65.604 28.1354Z" fill="black"/>
<path d="M68.4219 43.5368L65.3281 39.3285L71.7917 36.2451L72.1146 36.917L66.4688 39.6149L69.026 43.0889L68.4219 43.5368Z" fill="black"/>
<path d="M119.755 56.3646L117.469 53.8802L113.865 52.4583L112.75 46.4948L113.49 46.3594L114.526 51.9115L117.906 53.2448L119.979 55.5L129.318 52.4635H129.375L129.38 52.8438L129.495 53.1979L119.755 56.3646Z" fill="black"/>
<path d="M91.0311 58.2917L90.854 57.5625C90.8175 57.5729 90.7915 57.5833 90.7915 57.5833C91.0103 57.4583 92.2707 56.25 93.4113 55.1094L92.9165 50.7604L93.6613 50.6719L94.1978 55.3802L94.0728 55.5104C91.38 58.2031 91.1457 58.2656 91.0311 58.2917Z" fill="black"/>
<path d="M104.995 80.5052L102.662 76.5729L104.802 72.75L105.458 73.1198L103.531 76.5677L105.266 79.4896L107.162 78.4062L109.557 79.0885L109.349 79.8125L107.261 79.2188L104.995 80.5052Z" fill="black"/>
<path d="M118.661 109.318L111.375 106.209L106.661 107.891L103.328 101.542L104.88 93.1566L109.797 90.5576L110.146 91.2243L105.552 93.6514L104.109 101.427L107.026 106.969L111.401 105.407L118.958 108.631L118.661 109.318Z" fill="black"/>
<path d="M29.3123 23.4014H22.7134V19.6774C22.2186 19.5107 21.1509 19.141 20.9009 19.068L21.1144 18.3493C21.4582 18.4482 23.1405 19.0316 23.2134 19.0576L23.4634 19.1462V22.6514H29.078L31.9998 20.667V17.7816L34.8384 15.5264L35.3071 16.1149L32.7498 18.141V21.0628L29.3123 23.4014Z" fill="black"/>
<path d="M16.4323 7.27637L15.1562 4.50033L15.6927 2.07324L16.4219 2.2347L15.9479 4.41699L16.6927 6.03678L17.651 5.17741L17.8854 5.31803C18.6042 5.75033 19.5 6.24512 19.6979 6.28678L19.6615 7.03158C19.5729 7.03158 19.3021 7.03158 17.7344 6.10449L16.4323 7.27637Z" fill="black"/>
<path d="M95.896 27.5778L94.995 26.7236L94.0158 26.8643L93.9116 26.1195L95.2502 25.932L95.6825 26.3382L96.4116 24.8695L96.5418 22.4893L97.2918 22.5309L97.1564 25.0622L95.896 27.5778Z" fill="black"/>
<path d="M135.182 64.3542L134.453 61.9167L135.172 61.7031L135.703 63.474L137.708 63.0469L137.865 63.7812L135.182 64.3542Z" fill="black"/>
<path d="M28.3071 85.7344C27.7707 82.5625 25.3384 79.7969 22.255 78.8646C21.6196 78.6771 20.9269 78.5365 20.255 78.4062C18.3384 78.0208 16.354 77.625 15.2603 75.9635C14.63 75.0052 14.4946 73.8698 14.3696 72.776C14.328 72.4688 14.2967 72.1615 14.2446 71.8594C13.5675 67.5469 9.96338 63.7396 5.67171 62.7969C5.51025 62.7604 5.34359 62.7344 5.18213 62.7031L5.31234 61.9688C5.48421 62 5.6613 62.0313 5.83317 62.0677C10.479 63.0885 14.2446 67.0625 14.9842 71.7396C15.0311 72.0521 15.0675 72.3698 15.1092 72.6875C15.229 73.7448 15.354 74.7396 15.88 75.5469C16.8019 76.9479 18.5519 77.2969 20.4009 77.6667C21.0884 77.8073 21.8019 77.9479 22.4686 78.151C25.8175 79.1615 28.4634 82.1615 29.0467 85.6094L28.3071 85.7344Z" fill="black"/>
<path d="M118.599 135.771C114.828 132.521 109.453 131.131 104.578 132.146L104.391 132.188C103.698 132.339 102.906 132.506 102.162 132.25C101.49 132.016 101 131.495 100.563 131.032L100.464 130.927C97.7085 128.037 93.8491 126.12 89.8804 125.662L89.9689 124.917C94.1095 125.391 98.1304 127.396 101.011 130.417L101.11 130.521C101.5 130.938 101.906 131.37 102.401 131.542C102.948 131.729 103.604 131.589 104.229 131.453L104.422 131.417C109.521 130.349 115.141 131.802 119.083 135.203L118.599 135.771Z" fill="black"/>
<path d="M59.078 135.334C57.9894 133.631 55.703 132.782 53.7603 133.36L53.2915 133.506L53.2759 133.011C53.2446 131.495 52.3853 129.99 50.9894 128.985C49.5884 127.985 47.8853 127.657 46.4425 128.11L46.2134 127.396C47.8853 126.87 49.8332 127.24 51.4269 128.375C52.8748 129.417 53.8123 130.943 53.9946 132.532C56.1405 132.105 58.5311 133.084 59.7082 134.933L59.078 135.334Z" fill="black"/>
<path d="M20.9168 61.9482L20.2137 61.7035C20.9064 59.7035 18.7033 57.8493 16.6981 56.4587C13.0054 53.891 9.82308 50.641 6.73975 47.5055L7.2762 46.9795C10.3283 50.0889 13.4897 53.3128 17.12 55.8389C19.3439 57.3857 21.7814 59.4743 20.9168 61.9482Z" fill="black"/>
<path d="M108.891 21.9163L108.146 21.8903C108.276 18.1195 102.787 9.73926 96.0991 8.92155L96.1929 8.17676C103.375 9.05697 109.037 17.8174 108.891 21.9163Z" fill="black"/>
<path d="M131.729 84.693C128.468 83.3857 127.026 80.5264 127.875 77.042L128.604 77.2191C128.245 78.7035 127.849 82.3285 132.01 84.0003L131.729 84.693Z" fill="black"/>
<path d="M129.104 77.5521C128.807 77.5521 128.505 77.5365 128.198 77.5L127.771 77.4583L127.87 77.0417C128.474 74.5573 130.146 72.4531 131.599 72.3438C132.042 72.3125 132.86 72.4427 133.365 73.6875C133.714 74.5469 133.63 75.3542 133.12 76.026C132.401 76.9896 130.875 77.5521 129.104 77.5521ZM128.719 76.7865C130.406 76.8698 131.901 76.401 132.526 75.5729C132.87 75.1198 132.922 74.5781 132.672 73.9688C132.427 73.3542 132.089 73.0677 131.662 73.099C130.729 73.1667 129.354 74.6719 128.719 76.7865Z" fill="black"/>
<path d="M128.198 77.5003C126.297 77.3024 124.588 76.516 123.396 75.2868C121.942 73.7972 121.307 71.7087 121.557 69.2451L122.307 69.318C121.797 74.292 125.203 76.4326 128.271 76.7555L128.198 77.5003Z" fill="black"/>
<mask id="mask8_5516_27425" style="mask-type:luminance" maskUnits="userSpaceOnUse" x="38" y="0" width="20" height="16">
<path d="M38.6665 0.692383H57.3332V15.9997H38.6665V0.692383Z" fill="white"/>
</mask>
<g mask="url(#mask8_5516_27425)">
<path d="M55.4115 15.3639C55.2083 14.9421 54.9688 14.4993 54.6927 14.041C51.4115 8.62435 43.9271 2.13997 39.2031 1.90039L39.2448 1.15039C41.6198 1.27018 44.7396 2.81185 48.0208 5.49414C50.9531 7.88476 53.6927 10.9368 55.3438 13.6556C55.625 14.1348 55.8802 14.5931 56.0938 15.041L55.4115 15.3639Z" fill="black"/>
</g>
</svg>
