<svg width="174" height="144" viewBox="0 0 174 144" fill="none" xmlns="http://www.w3.org/2000/svg">
<path d="M124.692 55.6249C124.5 56.0728 124.661 56.4895 125.104 56.7083C126.088 57.2031 139.901 57.2395 144.411 57.2395C144.755 57.2395 145.047 57.2395 145.271 57.2395C154.401 57.2291 164.713 57.0676 165.771 56.7291C166.531 56.4895 166.682 55.9583 166.573 55.5416C166.281 54.4426 164.104 53.2447 161.5 53.5103C162.146 52.3489 161.854 51.7031 161.453 51.3541C160.838 50.8228 159.62 50.8437 158.765 51.1874C158.734 50.7083 158.51 50.2968 158.12 49.9895C157.63 49.6041 156.901 49.427 156.265 49.4999C157.01 47.2343 156.89 45.4531 155.901 44.1926C154.036 41.8281 149.739 42.1926 148.463 42.3593C146.317 42.6406 144.635 43.7447 143.969 45.3124C143.62 46.1301 143.562 47.0156 143.791 47.9166C142.5 46.9322 141.088 46.6822 139.786 47.2499C138.338 47.8853 137.427 49.4062 137.416 51.0676C135.567 49.5728 133.666 49.9322 132.51 50.7812C131.437 51.5781 130.942 52.776 131.182 53.8489C128.094 53.0885 125.182 54.4583 124.692 55.6249Z" fill="black"/>
<path d="M24.7031 74.3752C25.349 74.6929 33.2813 74.7397 37.4063 74.7397C37.6771 74.7397 37.9271 74.7397 38.1615 74.7397C42.8542 74.7345 51.0052 74.6564 51.8281 74.396C52.4063 74.2137 52.526 73.7918 52.4375 73.4637C52.2396 72.7241 50.8438 71.9116 49.1458 72.0158C49.4948 71.2449 49.224 70.8231 48.9948 70.6199C48.5781 70.2658 47.8177 70.2449 47.2292 70.4377C47.1719 70.1512 47.0208 69.9064 46.776 69.7085C46.4688 69.4689 46.0365 69.3335 45.6302 69.3491C46.0833 67.8804 45.9792 66.7189 45.3177 65.8752C44.0833 64.3022 41.375 64.4689 40.2656 64.6147C38.8021 64.8074 37.651 65.5679 37.1875 66.6512C36.9844 67.1252 36.9271 67.6252 37 68.146C36.0208 67.4793 35.0625 67.4637 34.375 67.7606C33.4427 68.1564 32.8698 69.1252 32.8281 70.2918C31.5885 69.4168 30.3542 69.672 29.5938 70.2449C28.9063 70.7554 28.5677 71.5106 28.651 72.2189C26.6042 71.7918 24.7083 72.7189 24.3698 73.5054C24.224 73.8595 24.349 74.2033 24.7031 74.3752Z" fill="black"/>
<mask id="mask0_5546_11870" style="mask-type:luminance" maskUnits="userSpaceOnUse" x="0" y="0" width="174" height="144">
<path d="M0.666504 0.333008H174V143.422H0.666504V0.333008Z" fill="white"/>
</mask>
<g mask="url(#mask0_5546_11870)">
<path d="M165.979 117.817C167.057 116.885 168.63 116.432 170.021 116.031C171.495 115.609 172.656 115.275 172.984 114.463C173.141 114.077 173.083 113.635 172.807 113.14C172.151 111.978 169.854 111.197 167.635 110.442C166.229 109.963 164.109 109.239 164.088 108.765C164.083 108.671 164.255 108.437 164.911 108.124C171.443 108.098 172.088 107.499 172.328 107.27L172.656 106.963L172.276 106.723C168.062 104.093 165.109 101.671 162.953 99.9003C160.745 98.0878 159.411 96.9941 158.318 96.9941C157.062 96.9941 154.958 98.843 152.526 100.984C150.937 102.38 149.302 103.817 147.948 104.666C147.609 104.505 147.266 104.333 146.917 104.156L146.906 101.14C147.521 101.645 148.271 101.853 149.047 101.708C150 101.525 150.755 100.848 150.937 100.031C151.01 99.6764 151.026 99.0514 150.463 98.416C151.203 98.1347 151.833 97.4941 152.135 96.8691C152.458 96.218 152.448 95.5826 152.12 95.1243C151.776 94.6503 151.156 94.4108 150.266 94.4108C150.552 93.9472 150.661 93.3743 150.568 92.7545C150.411 91.7337 149.734 90.8951 148.875 90.6712C148.364 90.541 147.396 90.5358 146.276 91.7337C145.943 90.9368 145.318 90.3951 144.484 90.1868C143.271 89.8795 141.838 90.3691 140.989 91.3795C140.526 91.9368 139.88 93.0878 140.474 94.7805C139.771 94.9628 138.969 95.4993 138.547 96.3639C138.333 96.8066 138.109 97.5618 138.401 98.5358C136.948 97.3483 135.557 96.0826 134.239 94.7389C134.271 94.5618 134.297 94.3847 134.302 94.1868C134.37 92.4472 133.239 90.8066 130.937 89.3274C123.297 84.3951 116.953 78.1556 101.594 56.041C101.271 55.5774 100.844 55.2701 100.344 55.1243C101.995 53.9889 103.667 51.9941 104.302 49.4681C104.875 47.1816 104.463 44.8951 103.109 42.8274C106.161 42.3066 107.927 40.6764 108.885 39.3587C110.172 37.5878 110.734 35.317 110.406 33.2233C114.896 31.5618 115.875 26.8326 115.661 24.4264C118.713 24.8847 122.172 23.7858 124.224 21.6764C125.391 20.4733 126.63 18.4003 125.906 15.3691C125.146 12.1972 122.203 9.66597 118.573 9.08263C115.182 8.53576 112.021 9.82743 109.927 12.567C109.505 7.26493 105.854 3.00972 100.385 1.57222C94.9686 0.150342 87.7863 1.77014 83.7447 8.52534C81.1874 6.22847 78.2863 5.53576 75.5468 6.57743C72.9322 7.57222 70.828 10.067 70.2707 12.7181C67.8332 9.54618 64.3332 8.13993 60.5468 8.84305C56.0988 9.67118 52.328 13.2337 51.3749 17.4993C50.5572 21.166 51.7916 24.9628 54.677 27.6556C57.3749 30.1712 60.953 31.2285 64.1093 30.4628C64.2343 32.3899 64.9113 33.791 66.1405 34.6191C67.7551 35.7181 69.9322 35.5358 71.2603 35.1972C70.5676 38.0149 70.8905 40.4056 72.229 42.3014C74.1718 45.0618 78.0832 46.7076 83.8593 47.1972C82.2759 48.6139 81.5832 50.4733 81.9113 52.5201C82.2551 54.6816 83.6405 56.5045 84.9686 57.3066C84.4165 57.6191 83.8853 58.1035 83.3905 58.7649C83.2603 58.9316 83.0884 59.166 82.8749 59.4576C68.052 79.5514 57.2134 87.8795 50.729 91.3274C48.1353 92.2805 47.802 94.2805 47.8124 95.2753C46.979 95.8691 46.1665 96.4316 45.3488 96.9993C44.6822 96.6035 40.8124 94.3743 38.8957 94.2076C37.7603 94.1035 36.8228 94.5774 35.8332 95.0826C34.9738 95.5149 34.0884 95.968 33.0155 96.0462C32.0416 96.1191 30.9895 94.9316 29.8697 93.6764C28.5676 92.218 27.0936 90.5618 25.328 90.5305C25.3176 90.5305 25.3072 90.5305 25.2968 90.5305C23.1874 90.5305 17.703 94.4524 12.8645 97.916C10.2655 99.7753 8.02072 101.38 6.83322 101.989C3.54155 102.197 0.947802 103.374 0.781135 104.744C0.729051 105.161 0.869678 105.932 2.38009 106.39C3.35405 106.692 4.81759 106.947 6.36447 107.218C9.05718 107.692 12.4061 108.275 12.9634 109.15C13.0207 109.239 13.0363 109.322 13.0051 109.411C12.802 110.166 10.0624 111.197 7.86447 112.031C4.57801 113.27 1.73947 114.338 1.78114 115.749C1.86968 119.072 11.6301 119.577 15.8228 119.64C19.8176 119.702 20.3905 120.676 20.453 121.093C20.5832 121.984 19.0936 123.343 17.3853 123.895C13.1509 125.26 8.9478 127.536 9.09884 129.562C9.18739 130.76 10.6093 131.562 13.4478 132.025C20.4166 133.171 33.4113 134.468 39.3905 134.775C37.5468 135.406 36.578 136.249 36.6613 137.187C36.802 138.76 39.8072 140.072 45.5936 141.088C52.4218 142.281 62.4166 142.926 75.302 142.999C76.2134 143.01 77.104 143.01 77.9843 143.01C88.7238 143.01 96.8228 142.603 102.083 141.801C106.729 141.098 109.239 140.072 109.76 138.682C110.276 137.301 108.818 136.051 107.828 135.202C107.516 134.937 107.359 134.697 107.411 134.567C107.646 133.963 110.547 133.442 115.635 133.614C116.021 133.63 116.422 133.64 116.844 133.645C120.354 133.723 125.161 133.833 130.859 136.624C137.323 139.796 152.479 138.192 159.599 136.9C163.838 136.124 168.239 133.968 168.437 131.327C168.578 129.437 166.677 127.692 162.771 126.124C167.526 125.853 172.422 124.52 172.818 122.702C172.979 121.968 172.453 121.317 171.26 120.77C169.578 119.994 168.031 119.619 166.896 119.348C166.187 119.176 165.208 118.942 165.167 118.749C165.167 118.76 165.13 118.551 165.979 117.817ZM144.198 102.635C143.661 102.312 143.12 101.968 142.578 101.614C143.109 101.228 143.745 100.671 144.198 100.255V102.635Z" fill="black"/>
</g>
<path d="M48.406 128.791L47.9268 120.948H47.932C50.8175 123 53.0258 121.833 54.1873 119.974C53.5466 122.906 55.7393 126.442 59.7289 125.781V133.265C60.6143 133.281 61.3279 133.672 61.4893 134.244C61.6977 134.088 61.8956 133.958 62.0727 133.854L61.7185 127.979L61.8018 127.974C63.781 128.672 65.4737 128.093 66.3175 127.104C76.4685 128.786 116.995 127.427 123.088 123.896C129.187 120.359 107.125 120.484 109.073 117.432C111.01 114.401 137.661 115.515 143.833 113.349C144.489 115.005 146.276 116.515 148.567 116.354C145.109 117.802 148.172 121.734 150.995 119.843H151.015L150.719 125.271C150.995 125.609 151.151 126.093 151.151 126.703C152.057 126.203 152.828 126.015 153.448 126.031V126.026L153.213 119.958C157.692 124.713 164.354 115.901 158.166 114.547C161.01 113.64 160.692 107.781 155.453 110.729C156.547 109.843 156.859 108.687 156.713 107.583C156.859 107.588 160.911 107.791 164.833 107.781C160.333 109.854 171.12 110.849 172.505 113.312C173.89 115.776 168.437 115.244 165.755 117.562C163.073 119.875 166.609 119.021 171.12 121.093C175.63 123.166 168.317 125.849 161.005 125.849C174.166 130.359 166.245 135.354 159.541 136.573C152.833 137.797 137.479 139.5 131.015 136.328C124.552 133.161 119.192 133.406 115.656 133.286C112.12 133.161 105.052 133.286 107.609 135.474C110.172 137.672 116.385 142.911 75.3018 142.672C34.2289 142.427 32.0258 136.328 41.906 134.5C38.4945 134.625 21.6716 133.041 13.505 131.698C5.33309 130.359 10.9425 126.333 17.4893 124.229C20.531 123.255 23.781 119.427 15.8279 119.307C7.87475 119.187 2.17683 117.942 2.11954 115.75C2.06225 113.552 12.8018 111.474 13.3383 109.515C13.8695 107.557 5.56225 107.021 2.47892 106.073C-0.604416 105.125 1.82788 102.63 6.93204 102.333C8.47371 103.755 17.6143 102.276 20.2862 103.047C22.9529 103.812 19.156 104.823 18.5623 105.593C17.9685 106.369 20.4216 106.807 23.8018 107.041C24.5727 107.505 25.7185 107.432 26.4581 106.703C26.3279 107.755 26.1612 108.953 26.0987 108.989L26.2341 109.239C22.0831 111.422 18.1248 113.146 15.0623 113.781C17.0206 116.338 35.1768 114.89 39.88 115.307H39.8852C40.2341 115.677 40.6873 116.021 41.2498 116.338C38.1716 118.713 40.755 123.448 45.9008 121.203V127.614H45.3279C46.2081 127.614 47.0154 128.297 46.7445 129.843C47.3748 129.244 47.9373 128.922 48.406 128.791Z" fill="#4CAF50"/>
<path d="M160.792 53.974C164.552 53.1667 167.594 55.8021 165.667 56.4063C163.734 57.0156 126.677 57.1146 125.255 56.4063C123.839 55.6979 127.693 52.9531 131.755 54.375C130.339 51.9323 134.464 48.2813 137.844 51.9427C137.089 48.1406 141.547 44.8958 145.052 49.7396C142.62 46.4219 144.646 43.2135 148.505 42.7031C152.365 42.1927 158.458 42.9063 155.719 50.0156C156.635 49.5104 158.865 50.0156 158.354 51.8385C159.271 50.9271 163.13 50.8229 160.792 53.974Z" fill="#CADBEA"/>
<path d="M164.833 107.781C160.912 107.792 156.86 107.589 156.714 107.583C156.5 106.016 155.36 104.557 154.224 104.135C152.969 103.677 150.563 104.026 149.38 105.672C149.38 105.672 148.87 105.484 147.974 105.062C151.307 103.047 156.37 97.3438 158.318 97.3438C160.271 97.3438 163.682 101.771 172.094 107.021C171.474 107.599 168.198 107.776 164.833 107.781Z" fill="#794426"/>
<path d="M143.833 113.354C142.943 111.109 144.125 108.604 148.922 109.635C148.443 107.87 148.719 106.578 149.375 105.677C150.563 104.026 152.969 103.677 154.219 104.135C155.359 104.557 156.495 106.021 156.708 107.588C156.859 108.693 156.542 109.849 155.448 110.729C160.688 107.781 161.005 113.641 158.161 114.547C164.349 115.901 157.688 124.719 153.208 119.963L153.068 116.411L155.505 113.203L152.943 114.489L152.167 110.297L151.448 114.698L148.557 113.937L151.203 116.286L151.005 119.854H150.984C148.161 121.739 145.099 117.807 148.557 116.359C146.276 116.521 144.49 115.005 143.833 113.354Z" fill="#4CAF50"/>
<path d="M153.448 126.026C152.828 126.016 152.057 126.203 151.151 126.703C151.151 126.094 150.99 125.604 150.719 125.271L151.016 119.844L151.214 116.282L148.568 113.927L151.458 114.693L152.177 110.292L152.953 114.485L155.516 113.198L153.078 116.407L153.219 119.953L153.448 126.026Z" fill="#C41830"/>
<path d="M149.38 94.8227C153.807 94.2134 151.797 98.1665 149.729 98.229C152.406 100.125 148.448 103.068 146.557 100.255L148.568 97.3436L146.25 98.3071L146.74 94.1613L144.547 98.0206L142.802 97.5311L144.547 99.4634C144.547 99.4634 142.807 101.156 141.958 101.62C141.167 101.083 140.339 100.489 139.484 99.8384C137.344 97.0727 139.615 95.0727 140.953 95.0727C139 90.7446 145.339 88.6092 146.135 92.4477C149.115 88.5467 151.651 93.4217 149.38 94.8227Z" fill="#4CAF50"/>
<path d="M147.974 105.062C148.87 105.484 149.38 105.672 149.38 105.672C148.724 106.573 148.443 107.864 148.922 109.63C144.125 108.599 142.948 111.104 143.833 113.349C137.661 115.515 111.01 114.401 109.073 117.432C107.12 120.479 129.187 120.359 123.088 123.896C116.995 127.427 76.4686 128.786 66.3175 127.104C67.2238 126.041 67.1457 124.51 65.3748 123.573C67.6509 123.161 70.3436 120.521 66.8957 119.38C68.9894 116.328 63.7186 113.01 60.9738 117.208C60.5571 116.328 57.0415 115.338 54.8905 118.375C55.3332 116.776 55.0884 115.166 53.9634 114.739C56.9894 112.87 55.1248 108.781 51.0311 109.937C53.3436 105.25 45.6925 101.041 44.2707 109.317C41.0936 107.489 36.9165 112.198 39.88 115.312C35.1665 114.896 17.0155 116.344 15.0571 113.791C18.1196 113.156 22.078 111.432 26.229 109.245C26.8957 108.896 27.5675 108.536 28.2446 108.161C29.604 107.406 30.979 106.625 32.328 105.817C35.2342 104.088 38.0675 102.291 40.5936 100.63C42.3488 99.4737 43.953 98.3956 45.328 97.4477C46.4425 96.6821 47.4009 96.0102 48.1665 95.4633C48.2186 96.4112 48.5884 97.2446 48.953 97.6196C49.8592 98.5258 51.4373 98.3592 52.5311 97.6717C53.6196 96.9842 54.3905 95.906 55.3019 94.9946C56.6353 93.6612 58.2759 92.6821 59.9009 91.7133C62.4321 90.2133 65.4009 85.5102 67.4998 87.1977C69.5988 88.88 64.505 91.5362 64.3748 93.4633C64.2394 95.4008 66.3748 94.5883 66.0259 95.6664C65.6769 96.7446 64.6405 97.4112 63.703 98.0414C61.3644 99.6144 59.0884 101.713 58.5988 104.495C58.3332 106.005 59.229 108.052 60.7394 107.776C61.4113 107.651 61.9061 107.099 62.3384 106.567C67.505 100.255 71.5207 92.9998 74.1353 85.2654C74.5259 84.1144 75.4686 82.6717 76.5675 83.1873C76.9998 83.3956 77.2446 83.8644 77.4009 84.3227C77.9894 86.0987 78.2342 89.4842 77.2967 91.5935C75.3905 95.8904 71.2134 98.9217 73.4946 100.51C75.9634 102.224 77.703 95.1821 79.5728 95.6612C81.4425 96.1404 78.729 101.823 77.328 104.594C75.9217 107.37 73.9321 109.823 72.5467 112.604C71.6092 114.489 71.1248 117.14 72.8071 118.401C74.2811 119.51 76.5363 118.661 77.6248 117.172C78.7238 115.692 79.0103 113.786 79.4478 111.995C80.13 109.172 81.2498 106.458 82.7498 103.974C84.2134 101.557 86.0884 99.2081 86.354 96.3956C86.5884 93.8592 85.7707 90.5779 87.979 89.3071C89.6561 88.3435 91.9113 89.6769 92.5623 91.4946C93.2082 93.3123 92.6873 95.3383 91.9894 97.13C91.6717 97.9477 91.4946 99.1717 92.3332 99.4321C93.1873 99.7081 93.7238 98.5571 94.4009 97.9633C95.4946 96.9998 97.3488 97.6092 98.1769 98.8175C98.9998 100.021 99.0884 101.562 99.1405 103.015C99.2915 106.875 99.4373 110.724 99.5884 114.578C99.6509 116.338 99.7707 118.245 100.885 119.609C102 120.974 104.505 121.286 105.38 119.755C105.812 118.989 105.724 118.041 105.609 117.172C104.765 110.495 103.922 103.812 103.073 97.13C102.526 92.8123 101.963 88.4321 100.292 84.4112C99.6978 82.9633 99.2759 80.7602 100.771 80.3071C101.432 80.1092 102.135 80.4477 102.687 80.8644C104 81.8592 108.114 86.6925 108.958 88.1144C113.135 95.13 110.88 95.8487 115.057 102.864C115.338 103.344 116.406 105.885 119.318 107.041C120.927 107.682 122.505 106.192 124.219 105.974C126.193 105.729 127.75 107.474 129.281 108.734C130.812 109.995 133.515 110.666 134.474 108.927C135.922 105.677 127.417 101.265 123.114 98.2081C118.807 95.1612 113.167 87.9112 114.573 85.6508C115.984 83.3904 117.797 85.4217 119.021 86.4633C120.245 87.4998 121.036 88.9425 121.948 90.2602C124.172 93.4737 125.364 95.1456 128.922 96.7706C131.458 97.9321 133.443 96.8175 133.88 94.8696C135.786 96.8227 137.693 98.4633 139.484 99.8383C140.338 100.489 141.172 101.083 141.958 101.62C142.885 102.239 143.75 102.781 144.547 103.25C145.297 103.687 145.979 104.062 146.583 104.375C147.109 104.651 147.578 104.88 147.974 105.062Z" fill="#794426"/>
<path d="M148.568 97.3438L146.552 100.255L146.573 104.37C145.969 104.057 145.286 103.688 144.536 103.245V99.4531L142.792 97.526L144.536 98.0156L146.734 94.1562L146.245 98.3021L148.568 97.3438Z" fill="#C41830"/>
<path d="M48.1612 95.4588C48.0883 94.0786 48.6716 92.4536 50.8695 91.6515C66.0414 83.5994 81.5258 61.8286 83.6612 58.9796C84.3591 58.0525 85.0883 57.5265 85.8174 57.3338C87.3174 56.9327 88.7862 57.9796 89.8018 59.9588C90.4216 58.0056 94.0831 55.6306 95.9372 58.8911C95.7602 57.4744 97.5258 55.7036 99.1872 55.4067C99.9945 55.2661 100.781 55.4796 101.312 56.24C116.062 77.4744 122.63 84.3806 130.75 89.615C133.187 91.1879 134.015 92.7556 133.958 94.1775C133.948 94.4119 133.922 94.6411 133.87 94.8598C133.432 96.8077 131.448 97.9223 128.911 96.7661C125.354 95.1411 124.166 93.464 121.937 90.2556C121.026 88.9379 120.234 87.4952 119.01 86.4588C117.786 85.4171 115.979 83.3806 114.562 85.6411C113.156 87.9067 118.797 95.1567 123.104 98.2036C127.406 101.256 135.911 105.667 134.463 108.922C133.505 110.657 130.802 109.99 129.271 108.73C127.739 107.469 126.182 105.724 124.208 105.969C122.495 106.183 120.916 107.678 119.307 107.037C116.396 105.875 115.328 103.334 115.047 102.86C110.87 95.839 113.125 95.1254 108.948 88.1098C108.104 86.6879 103.995 81.8546 102.677 80.8546C102.125 80.4379 101.422 80.1046 100.76 80.3025C99.2654 80.7556 99.682 82.9588 100.286 84.4015C101.953 88.4223 102.515 92.8025 103.062 97.1254C103.911 103.803 104.755 110.485 105.599 117.162C105.713 118.037 105.807 118.985 105.37 119.75C104.495 121.276 101.989 120.969 100.875 119.599C99.7549 118.235 99.6404 116.334 99.5779 114.573C99.4268 110.719 99.2758 106.865 99.1352 103.011C99.0779 101.558 98.9893 100.011 98.1664 98.8129C97.3383 97.6046 95.4893 96.99 94.3904 97.9588C93.7185 98.5473 93.1768 99.6984 92.3227 99.4275C91.4841 99.1619 91.6664 97.9431 91.9789 97.1254C92.6768 95.3286 93.2029 93.3025 92.5518 91.49C91.906 89.6671 89.6456 88.339 87.9685 89.3025C85.7602 90.5734 86.5779 93.8494 86.3435 96.3859C86.0779 99.1984 84.2029 101.553 82.7393 103.964C81.2393 106.448 80.1195 109.167 79.4372 111.99C78.9997 113.782 78.7133 115.688 77.6143 117.167C76.5206 118.651 74.2706 119.5 72.7966 118.396C71.1143 117.131 71.5987 114.485 72.5362 112.599C73.9216 109.813 75.9112 107.365 77.3174 104.589C78.7185 101.818 81.432 96.1359 79.5622 95.6567C77.6924 95.1775 75.9529 102.219 73.4841 100.5C71.2029 98.9171 75.3799 95.8806 77.2862 91.589C78.2237 89.4796 77.9789 86.089 77.3904 84.3181C77.2341 83.8598 76.9945 83.3911 76.557 83.1827C75.4581 82.6671 74.5102 84.1098 74.1247 85.2609C71.5154 92.9952 67.4945 100.25 62.3279 106.563C61.8956 107.089 61.4008 107.641 60.7289 107.766C59.2185 108.047 58.3227 106 58.5883 104.485C59.0779 101.709 61.3539 99.615 63.6924 98.0369C64.6299 97.4067 65.6664 96.7348 66.0154 95.6567C66.3643 94.5786 64.2289 95.3911 64.3643 93.4588C64.4997 91.5317 69.5883 88.8754 67.4893 87.1931C65.3852 85.5004 62.4216 90.2036 59.8904 91.7088C58.2654 92.6723 56.6247 93.6567 55.2914 94.99C54.3799 95.9015 53.6091 96.9796 52.5206 97.6671C51.4268 98.3546 49.8487 98.5213 48.9424 97.6098C48.5831 97.2452 48.2133 96.4067 48.1612 95.4588Z" fill="#C41830"/>
<path d="M84.7655 46.9327C81.6613 46.74 68.5415 45.7661 71.755 34.6983C70.1978 35.2765 64.5675 36.2504 64.4373 30.0317C57.9061 31.9744 49.9686 25.4119 51.7134 17.5838C53.4582 9.76085 64.729 4.99523 70.4842 13.6202C70.8748 8.69314 77.5311 3.02647 83.828 9.07856C90.9738 -3.5829 109.625 0.57335 109.625 13.6202C114.172 6.27647 124.099 9.28168 125.573 15.4588C127.047 21.6359 120.161 25.0265 115.265 24.0108C115.651 26.1515 114.875 31.3911 110.021 33.0056C110.797 36.9484 108.271 41.8858 102.515 42.5733C106.547 48.0629 102.573 53.7973 99.1925 55.4119C97.5259 55.7036 95.7603 57.4796 95.9373 58.8963C94.0884 55.6358 90.4269 58.0056 89.8019 59.964C88.7863 57.9848 87.3175 56.9379 85.8228 57.339C83.1561 56.5213 79.7186 50.4848 84.7655 46.9327Z" fill="#CADBEA"/>
<path d="M66.3178 127.104C65.4741 128.099 63.7761 128.677 61.797 127.979H61.7136L61.6459 126.786L64.1511 124.302L61.698 124.671V122.51L64.4376 119.182L60.8386 121.015L59.1564 119.854L60.0366 122.031V123.474L57.2397 122.505L59.7241 124.906V125.781C55.7345 126.442 53.5366 122.901 54.1824 119.974V119.968C54.4949 119.474 54.7293 118.927 54.8803 118.38V118.375C57.0314 115.343 60.5522 116.328 60.9636 117.208C63.7136 113.01 68.9793 116.328 66.8907 119.38C70.3386 120.52 67.6459 123.161 65.3699 123.572C67.1407 124.515 67.2189 126.046 66.3178 127.104Z" fill="#4CAF50"/>
<path d="M59.729 125.782V124.907L57.2446 122.506L60.0415 123.474V122.032L59.1613 119.854L60.8436 121.016L64.4425 119.183L61.6978 122.511V124.672L64.1509 124.302L61.6457 126.787L61.7186 127.979L62.0728 133.86C61.8905 133.964 61.6978 134.089 61.4894 134.25C61.328 133.672 60.6144 133.287 59.729 133.271V125.782Z" fill="#C41830"/>
<path d="M53.9637 114.739C55.0887 115.166 55.3334 116.776 54.8907 118.375C54.8907 118.375 54.8907 118.38 54.8855 118.38C54.5418 118.864 54.3178 119.406 54.1876 119.968V119.973C53.0262 121.833 50.8178 123 47.9324 120.947H47.9272L47.8855 120.208L50.922 115.354L47.6616 118.177L47.5105 116.432L48.1095 111.635L46.1043 116.432L43.5366 113.968L45.8959 118.51V121.213C40.7449 123.453 38.1616 118.723 41.2449 116.348C40.6772 116.031 40.2241 115.687 39.8803 115.317H39.8751C36.9116 112.203 41.0887 107.489 44.2709 109.322C45.6876 101.052 53.3439 105.255 51.0262 109.942C55.1199 108.781 56.9897 112.869 53.9637 114.739Z" fill="#4CAF50"/>
<path d="M48.4844 72.448C50.9792 71.9116 53.0105 73.6668 51.724 74.0678C50.4376 74.4741 25.7969 74.5366 24.8542 74.0678C23.9063 73.5939 26.474 71.771 29.1719 72.7189C28.2292 71.0939 30.9428 68.672 33.224 71.0991C32.7032 68.1095 35.6824 66.4637 38.0157 69.6355C36.3959 67.4272 37.7397 65.297 40.3074 64.9533C42.8751 64.6147 46.9272 65.0887 45.099 69.8126C45.7084 69.4741 47.1928 69.8126 46.8542 71.0262C47.4688 70.422 50.0365 70.3543 48.4844 72.448Z" fill="#CADBEA"/>
<path d="M45.9009 121.209V118.511L43.5415 113.964L46.1092 116.433L48.1092 111.636L47.5103 116.433L47.6613 118.172L50.9217 115.349L47.8853 120.209L47.9321 120.943L48.4113 128.787C47.9425 128.917 47.38 129.245 46.7446 129.844C47.0155 128.302 46.2082 127.615 45.328 127.615H45.9009V121.209Z" fill="#C41830"/>
<path d="M40.4689 100.448C40.5054 99.8541 39.9845 99.151 38.8647 100.031C39.2137 97.4791 35.4429 97.203 34.8335 101.135C34.2137 100.37 33.3439 100.094 33.0939 101.13C32.9168 99.9322 31.7762 98.9739 29.9897 99.5937C31.0835 97.9583 27.8491 95.5416 26.9168 99.203C21.2658 97.5676 21.3022 102.792 23.1304 104.604C22.7189 105.797 23.1147 106.635 23.797 107.042C20.4168 106.807 17.9637 106.37 18.5575 105.599C19.1512 104.828 22.9533 103.818 20.2814 103.047C17.6095 102.276 8.47412 103.76 6.92725 102.333C10.2502 100.677 22.2345 90.8228 25.3231 90.8801C28.4064 90.9426 30.6616 96.578 33.0366 96.401C35.4116 96.2239 36.8647 94.3801 38.8647 94.5624C40.87 94.7395 45.271 97.3645 45.271 97.3645L45.3283 97.4478C43.9585 98.3958 42.3491 99.4791 40.5939 100.63L40.4689 100.448Z" fill="#794426"/>
<path d="M40.5936 100.625C38.0675 102.286 35.2342 104.088 32.328 105.817L32.1665 105.541C32.1665 105.541 32.4842 104.385 31.4321 103.76C32.7394 103.218 33.2394 102.099 33.0936 101.13V101.125C33.3436 100.093 34.2134 100.364 34.8332 101.13C35.4425 97.2027 39.2134 97.4735 38.8644 100.031C39.9842 99.1454 40.505 99.8485 40.4686 100.442L40.5936 100.625Z" fill="#4CAF50"/>
<path d="M28.2083 105.969L28.099 107.896L28.2448 108.161C27.5677 108.536 26.8958 108.896 26.2292 109.245L26.099 108.995C26.1615 108.964 26.3229 107.755 26.4583 106.708C26.5573 105.891 26.6458 105.167 26.6458 105.167L24.9688 103.146L26.9635 103.615L27.4479 101.328C27.4844 101.484 28.2083 103.641 28.2083 103.641L30.1667 103.12L28.2396 105.453L28.2083 105.969Z" fill="#C41830"/>
<path d="M32.3281 105.818C30.9791 106.62 29.6041 107.406 28.2447 108.156L28.0989 107.891L28.2083 105.969L28.2395 105.453L30.1666 103.115L28.2083 103.641C28.2083 103.641 27.4843 101.479 27.4479 101.323L26.9583 103.615L24.9635 103.146L26.6406 105.167C26.6406 105.167 26.5572 105.891 26.4531 106.708C25.7135 107.438 24.5676 107.511 23.7968 107.047C23.1145 106.636 22.7135 105.797 23.1249 104.609C21.2968 102.792 21.2551 97.5678 26.9114 99.2084C27.8489 95.5418 31.0833 97.9584 29.9895 99.5991C31.7708 98.9793 32.9166 99.9428 33.0885 101.136C33.2395 102.104 32.7395 103.229 31.427 103.771C32.4843 104.391 32.1614 105.552 32.1614 105.552L32.3281 105.818Z" fill="#4CAF50"/>
<path d="M144.411 57.2447C139.901 57.2447 126.088 57.2031 125.104 56.7135C124.661 56.4947 124.5 56.0781 124.692 55.6301C125.182 54.4635 128.099 53.0937 131.182 53.8541C130.948 52.776 131.437 51.5781 132.515 50.7864C133.666 49.9374 135.573 49.5781 137.422 51.0728C137.432 49.4114 138.338 47.8906 139.786 47.2551C141.094 46.6874 142.505 46.9426 143.791 47.9218C143.567 47.026 143.625 46.1353 143.974 45.3176C144.64 43.7499 146.323 42.6458 148.463 42.3593C149.739 42.1926 154.041 41.8281 155.901 44.1926C156.89 45.4531 157.015 47.2395 156.265 49.4999C156.901 49.4322 157.635 49.6093 158.12 49.9895C158.515 50.302 158.734 50.7135 158.771 51.1874C159.62 50.8437 160.844 50.8281 161.458 51.3593C161.859 51.7083 162.151 52.3489 161.5 53.5156C164.104 53.2447 166.281 54.4478 166.573 55.5468C166.687 55.9635 166.531 56.4947 165.771 56.7343C164.713 57.0676 154.406 57.2343 145.276 57.2447C145.041 57.2447 144.755 57.2447 144.411 57.2447ZM129.37 54.3176C127.271 54.3176 125.594 55.2551 125.323 55.8958C125.281 55.9947 125.276 56.0364 125.406 56.0989C126.854 56.7083 163.63 56.6874 165.562 56.0781C165.969 55.9531 165.927 55.7916 165.911 55.7187C165.724 55.0208 163.567 53.7291 160.864 54.3124L159.974 54.5051L160.515 53.776C160.906 53.2447 161.489 52.2968 161.005 51.8801C160.495 51.4426 159.052 51.6353 158.599 52.0833L157.677 52.9999L158.026 51.7499C158.172 51.2291 158.057 50.8176 157.692 50.526C157.172 50.1197 156.307 50.0781 155.88 50.3124L155.057 50.7708L155.396 49.8906C156.291 47.5624 156.281 45.7916 155.359 44.6197C153.724 42.5416 149.739 42.8906 148.557 43.0468C146.651 43.2968 145.177 44.2499 144.604 45.5937C144.094 46.7864 144.344 48.177 145.307 49.5051C145.317 49.5156 145.328 49.5312 145.338 49.5416L144.781 49.9426C144.771 49.927 144.765 49.9166 144.755 49.9062C143.338 47.9687 141.588 47.2187 140.062 47.8801C138.64 48.5051 137.849 50.1822 138.187 51.8749L138.422 53.0728L137.599 52.177C135.859 50.2968 133.995 50.5468 132.927 51.3437C132.041 51.9947 131.458 53.1874 132.057 54.2135L132.521 55.0156L131.646 54.7083C130.859 54.427 130.094 54.3176 129.37 54.3176Z" fill="black"/>
<path d="M37.4063 74.7399C33.2813 74.7399 25.349 74.6983 24.7031 74.3753C24.349 74.1983 24.224 73.8597 24.3698 73.5055C24.7031 72.7191 26.6042 71.7868 28.651 72.2139C28.5677 71.5055 28.9063 70.7503 29.5938 70.2399C30.3542 69.6722 31.5885 69.417 32.8281 70.2868C32.875 69.1253 33.4427 68.1566 34.375 67.7555C35.0625 67.4639 36.0208 67.4743 37 68.141C36.9271 67.6253 36.9844 67.1201 37.1875 66.6462C37.651 65.5628 38.8021 64.8024 40.2656 64.6097C41.375 64.4639 44.0781 64.2972 45.3177 65.8753C45.9792 66.7087 46.0833 67.8753 45.6302 69.3441C46.0365 69.3285 46.4688 69.4639 46.776 69.7035C47.0208 69.8962 47.1719 70.1514 47.2292 70.4378C47.8177 70.2451 48.5781 70.266 48.9948 70.6201C49.224 70.818 49.4948 71.2399 49.1458 72.0108C50.8438 71.9066 52.2396 72.7191 52.4375 73.4639C52.5208 73.792 52.4063 74.2087 51.8281 74.391C51.0052 74.6514 42.849 74.7295 38.1615 74.7347C37.9271 74.7399 37.6771 74.7399 37.4063 74.7399ZM25.0104 73.7555C26.5417 74.1722 50.3073 74.1566 51.6198 73.7399C51.7292 73.7087 51.7708 73.667 51.776 73.6566C51.776 73.641 51.75 73.5316 51.5729 73.3701C51.125 72.9743 49.9531 72.4847 48.5573 72.7868L47.6667 72.9795L48.2083 72.2503C48.6042 71.7139 48.7292 71.3024 48.5469 71.1462C48.25 70.891 47.375 71.0108 47.1042 71.2764L46.1823 72.1983L46.5312 70.943C46.6146 70.641 46.5573 70.417 46.349 70.2555C46.0469 70.016 45.5104 69.9847 45.2708 70.1201L44.4427 70.5785L44.7865 69.693C45.3698 68.1878 45.3646 67.0524 44.7813 66.3076C43.7292 64.9691 41.1354 65.1983 40.3594 65.3024C39.1354 65.4639 38.1875 66.068 37.8229 66.9274C37.4948 67.6878 37.6667 68.5785 38.2969 69.4378L37.7448 69.8441C36.599 68.292 35.3958 68.0785 34.651 68.4014C33.7917 68.766 33.3594 69.8285 33.5677 71.0472L33.7656 72.1774L32.9792 71.3441C31.8542 70.1462 30.7031 70.2816 30.0052 70.8024C29.4688 71.2035 29.1146 71.9326 29.474 72.5576L29.9375 73.3597L29.0625 73.0524C27.6927 72.5733 26.2708 72.8597 25.4635 73.3597C25.1719 73.5316 25.0521 73.6826 25.0104 73.7555Z" fill="black"/>
<path d="M50.8542 122.375C49.849 122.375 48.8073 121.99 47.7344 121.229L48.1302 120.667C49.3125 121.511 50.4427 121.839 51.4688 121.631C52.4115 121.443 53.2708 120.792 53.8958 119.792L54.474 120.157C53.75 121.313 52.7344 122.078 51.6042 122.302C51.3594 122.349 51.1094 122.375 50.8542 122.375Z" fill="black"/>
<path d="M54.4793 120.151L53.896 119.786C54.1877 119.323 54.4064 118.823 54.5575 118.286L55.2189 118.468C55.0522 119.067 54.8022 119.635 54.4793 120.151Z" fill="black"/>
<path d="M55.2185 118.469L54.5571 118.286C54.9165 117 54.8435 115.443 53.8435 115.062L53.1925 114.812L53.781 114.448C55.1977 113.573 55.2915 112.328 54.9373 111.521C54.4842 110.49 53.1248 109.703 51.1248 110.271L50.38 110.479L50.7185 109.786C51.3488 108.51 51.2238 107.135 50.38 106.104C49.6248 105.182 48.4738 104.76 47.4477 105.036C46.031 105.406 45.0258 106.948 44.604 109.375L44.5258 109.859L44.0988 109.615C42.5675 108.74 40.9113 109.568 40.0102 110.708C39.1665 111.781 38.6873 113.573 40.1248 115.078L39.6248 115.552C37.8904 113.724 38.4581 111.573 39.4738 110.281C40.4685 109.016 42.2654 108.089 44.0154 108.812C44.7081 105.521 46.3383 104.615 47.2758 104.37C48.5675 104.031 49.9946 104.542 50.9113 105.667C51.7915 106.745 52.0311 108.12 51.5935 109.458C53.6404 109.12 55.0467 110.062 55.5675 111.245C56.0206 112.271 55.8644 113.682 54.5988 114.708C55.4269 115.391 55.6821 116.813 55.2185 118.469Z" fill="black"/>
<path d="M43.3594 122.136C41.7656 122.136 40.5938 121.396 40.0104 120.412C39.2396 119.104 39.5208 117.511 40.6667 116.391C40.2604 116.131 39.9167 115.844 39.6302 115.542L40.1354 115.073C40.4636 115.422 40.8958 115.75 41.4167 116.037L41.875 116.287L41.4583 116.61C40.0886 117.667 40.0417 119.104 40.6042 120.058C41.3281 121.276 43.1979 122.006 45.7656 120.891L45.8177 120.87C45.849 120.854 45.8802 120.844 45.9063 120.828L46.1979 121.453C46.1615 121.469 46.1198 121.485 46.0833 121.5L46.0365 121.521C45.0521 121.948 44.1563 122.136 43.3594 122.136Z" fill="black"/>
<path d="M23.776 107.385C19.224 107.062 18.3906 106.541 18.1823 106.073C18.125 105.942 18.0625 105.687 18.2865 105.39C18.5156 105.083 19.0208 104.817 19.6042 104.51C20.0156 104.291 20.7708 103.896 20.8698 103.682C20.8333 103.64 20.6823 103.515 20.1823 103.375C19.0781 103.057 16.651 103.151 14.3073 103.234C10.8958 103.364 7.66667 103.484 6.69271 102.583L6.32812 102.244L6.77083 102.026C7.94271 101.437 10.224 99.807 12.8594 97.9215C17.6979 94.458 23.1823 90.5361 25.2969 90.5361C25.3073 90.5361 25.3177 90.5361 25.3281 90.5361C27.0885 90.5726 28.5677 92.2288 29.8698 93.6872C30.9896 94.9424 32.0417 96.1299 33.0104 96.0518C34.0833 95.9736 34.974 95.5205 35.8281 95.0882C36.8177 94.583 37.7552 94.109 38.8906 94.2132C40.9479 94.3955 45.2604 96.9528 45.4427 97.057L45.0938 97.6507C45.0469 97.6247 40.7344 95.0622 38.8333 94.8955C37.8958 94.8122 37.0781 95.2236 36.1406 95.6976C35.2656 96.1403 34.2708 96.6403 33.0625 96.734C31.7604 96.8278 30.5938 95.5257 29.3542 94.1351C28.0885 92.7132 26.7708 91.2445 25.3125 91.2132C25.3073 91.2132 25.2969 91.2132 25.2865 91.2132C23.401 91.2132 17.5417 95.4111 13.2604 98.4736C10.9583 100.114 8.93229 101.567 7.63542 102.323C8.90625 102.744 11.8438 102.635 14.276 102.541C16.7917 102.448 19.1615 102.359 20.375 102.708C20.8958 102.859 21.5104 103.099 21.5573 103.599C21.6198 104.208 20.8333 104.625 19.9271 105.104C19.4792 105.343 18.9687 105.614 18.8281 105.797C18.8229 105.797 18.8229 105.802 18.8177 105.802C18.9323 105.922 19.625 106.396 23.8177 106.687L23.776 107.385Z" fill="black"/>
<mask id="mask1_5546_11870" style="mask-type:luminance" maskUnits="userSpaceOnUse" x="0" y="101" width="174" height="43">
<path d="M0.666504 101.667H174V143.422H0.666504V101.667Z" fill="white"/>
</mask>
<g mask="url(#mask1_5546_11870)">
<path d="M77.9841 143.021C77.1039 143.021 76.2133 143.021 75.3018 143.016C62.4164 142.943 52.4164 142.297 45.5935 141.099C39.807 140.089 36.7966 138.776 36.6612 137.198C36.5779 136.26 37.5466 135.422 39.3904 134.792C33.4112 134.49 20.4164 133.182 13.4477 132.042C10.6091 131.573 9.18724 130.771 9.0987 129.578C8.94766 127.552 13.1508 125.271 17.3852 123.911C19.0935 123.365 20.5883 122 20.4529 121.109C20.3904 120.693 19.8174 119.714 15.8227 119.656C11.6299 119.594 1.86432 119.089 1.78099 115.76C1.73932 114.354 4.58307 113.281 7.86432 112.042C10.0622 111.214 12.8018 110.182 13.0049 109.427C13.031 109.333 13.0206 109.255 12.9633 109.161C12.406 108.286 9.05703 107.703 6.36432 107.234C4.81745 106.958 3.35391 106.703 2.37995 106.406C0.874739 105.943 0.728905 105.177 0.780989 104.76C0.947656 103.38 3.58307 102.193 6.9112 102L6.95286 102.682C3.51015 102.875 1.55182 104.057 1.45807 104.833C1.40078 105.328 2.21849 105.635 2.57786 105.745C3.51015 106.031 4.95807 106.286 6.48411 106.552C10.3122 107.219 12.8695 107.74 13.5414 108.792C13.7029 109.042 13.7445 109.323 13.6664 109.604C13.3904 110.625 11.3799 111.448 8.10391 112.682C5.71328 113.583 2.43724 114.818 2.46328 115.74C2.52057 117.828 9.21849 118.865 15.8331 118.964C19.156 119.016 20.9372 119.698 21.1299 121.005C21.3383 122.385 19.4685 123.958 17.5987 124.557C13.0414 126.026 9.68203 128.156 9.7862 129.521C9.84349 130.318 11.182 130.974 13.5622 131.359C21.6143 132.682 38.5466 134.281 41.8956 134.161L41.9685 134.839C38.6872 135.443 37.281 136.427 37.3435 137.135C37.3852 137.568 38.0987 139.089 45.7133 140.422C52.505 141.609 62.4581 142.25 75.307 142.328C101.995 142.479 108.432 140.307 109.125 138.448C109.468 137.521 108.229 136.458 107.406 135.75C106.812 135.24 106.609 134.766 106.776 134.323C107.343 132.875 112.588 132.833 115.666 132.938C116.047 132.948 116.448 132.958 116.87 132.969C120.442 133.047 125.338 133.156 131.166 136.016C133.911 137.365 138.755 137.958 145.177 137.75C150.547 137.573 156.088 136.849 159.479 136.229C163.364 135.526 167.588 133.552 167.755 131.281C167.849 130.052 166.734 128.167 160.89 126.167L158.937 125.495H161C166.661 125.495 171.859 123.88 172.151 122.562C172.255 122.068 171.463 121.62 170.974 121.401C169.354 120.656 167.843 120.292 166.739 120.021C165.432 119.703 164.646 119.516 164.505 118.922C164.396 118.484 164.698 118.01 165.531 117.292C166.724 116.26 168.375 115.786 169.833 115.365C171.021 115.026 172.146 114.698 172.349 114.198C172.38 114.13 172.458 113.927 172.208 113.474C171.682 112.542 169.312 111.734 167.411 111.083C164.885 110.219 163.448 109.688 163.401 108.792C163.364 108.151 164.12 107.724 164.687 107.464L164.833 107.766L165.067 108.026L164.979 108.089C164.265 108.417 164.083 108.661 164.088 108.76C164.109 109.234 166.229 109.953 167.635 110.432C169.854 111.193 172.151 111.974 172.807 113.135C173.083 113.63 173.14 114.073 172.984 114.458C172.656 115.271 171.495 115.604 170.021 116.026C168.63 116.427 167.057 116.88 165.979 117.812C165.13 118.547 165.166 118.75 165.166 118.76C165.213 118.948 166.187 119.182 166.901 119.354C168.031 119.63 169.583 120.005 171.26 120.776C172.458 121.323 172.979 121.974 172.823 122.708C172.427 124.526 167.531 125.859 162.776 126.135C166.677 127.703 168.578 129.448 168.437 131.333C168.239 133.974 163.843 136.135 159.599 136.906C152.489 138.198 137.328 139.802 130.859 136.635C125.166 133.839 120.359 133.734 116.849 133.651C116.427 133.641 116.021 133.635 115.64 133.62C110.552 133.448 107.646 133.969 107.411 134.573C107.359 134.708 107.515 134.948 107.828 135.208C108.817 136.057 110.276 137.307 109.765 138.688C109.245 140.083 106.729 141.104 102.088 141.807C96.8227 142.615 88.7237 143.021 77.9841 143.021Z" fill="black"/>
</g>
<path d="M164.537 108.13C161.136 108.13 157.724 107.979 156.735 107.932H156.698L156.714 107.244L156.766 107.25C157.781 107.297 161.354 107.458 164.828 107.448C168.948 107.432 170.662 107.182 171.38 106.984C167.401 104.458 164.589 102.151 162.511 100.442C160.495 98.7861 159.162 97.6924 158.313 97.6924C157.313 97.6924 155.104 99.6299 152.969 101.51C151.302 102.979 149.578 104.494 148.141 105.359L148.057 105.411H147.964V105.062L147.787 104.776C149.167 103.942 150.87 102.442 152.516 100.994C154.948 98.8538 157.052 97.0049 158.307 97.0049C159.401 97.0049 160.735 98.0986 162.943 99.9111C165.099 101.682 168.047 104.104 172.266 106.734L172.646 106.974L172.318 107.281C172.073 107.51 171.427 108.114 164.823 108.135C164.735 108.13 164.636 108.13 164.537 108.13Z" fill="black"/>
<path d="M80.9634 128.157C74.5832 128.157 69.1821 127.927 66.2603 127.443L66.3175 127.115L66.3123 126.761L66.3696 126.766C76.5155 128.448 116.901 127.084 122.911 123.599C123.802 123.089 123.823 122.802 123.807 122.724C123.656 121.881 119.375 121.136 116.536 120.646C111.979 119.854 109.177 119.292 108.682 118.172C108.594 117.969 108.531 117.641 108.781 117.256C109.875 115.542 116.557 115.115 127.427 114.61C134.114 114.297 141.026 113.974 143.719 113.032C143.724 113.026 143.75 113.021 143.771 113.011L143.802 112.995L144.057 113.631C144.036 113.641 144.015 113.651 143.995 113.657L143.958 113.672C141.156 114.657 134.505 114.964 127.458 115.292C119.437 115.662 110.338 116.084 109.359 117.62C109.255 117.776 109.292 117.854 109.307 117.891C109.693 118.756 113.552 119.427 116.656 119.964C121.364 120.782 124.26 121.339 124.484 122.604C124.625 123.396 123.594 123.995 123.26 124.193C118.911 126.719 96.9009 128.157 80.9634 128.157Z" fill="black"/>
<path d="M50.297 130.807L49.7189 130.437C49.8908 130.119 49.8387 129.672 49.6043 129.375C49.4325 129.161 49.1095 128.948 48.5054 129.119C48.0418 129.244 47.5314 129.573 46.9793 130.099L46.2241 130.802L46.4064 129.786C46.5158 129.151 46.4325 128.64 46.1668 128.323C45.9689 128.088 45.672 127.958 45.3283 127.958C44.771 127.958 44.0835 128.317 43.8752 129.088L43.2085 128.916C43.4637 127.948 44.3335 127.271 45.3283 127.271C45.8752 127.271 46.3595 127.489 46.6877 127.88C46.8856 128.119 47.0887 128.5 47.1304 129.073C47.5418 128.771 47.9429 128.567 48.3179 128.458C49.0575 128.25 49.7189 128.427 50.1356 128.948C50.3179 129.172 50.4377 129.448 50.4845 129.729C51.1512 129.338 51.896 129.349 52.4325 129.526C53.047 129.734 53.4481 130.156 53.4481 130.609H52.7606C52.7606 130.505 52.5679 130.302 52.2137 130.177C51.6512 129.989 50.8595 130.057 50.297 130.807Z" fill="black"/>
<path d="M156.177 121.698C155.016 121.698 153.901 121.187 152.963 120.192L153.453 119.708C155.115 121.479 156.849 121.062 157.729 120.656C159.307 119.927 160.469 118.224 160.323 116.849C160.213 115.859 159.443 115.177 158.099 114.88L156.849 114.609L158.068 114.218C158.854 113.963 159.443 113.213 159.583 112.297C159.698 111.536 159.458 110.854 158.969 110.515C158.26 110.031 157.073 110.208 155.625 111.026L155.24 110.463C156.37 109.552 156.479 108.416 156.375 107.63C156.167 106.088 155.057 104.807 154.109 104.453C152.974 104.036 150.734 104.375 149.656 105.869C148.979 106.807 148.844 108.036 149.255 109.541L149.401 110.083L148.854 109.968C146.713 109.51 145.125 109.744 144.375 110.63C143.833 111.265 143.755 112.213 144.156 113.224C144.729 114.677 146.344 116.166 148.547 116.01L150.635 115.859L148.703 116.672C147.885 117.01 147.417 117.531 147.375 118.14C147.338 118.734 147.724 119.354 148.344 119.718C149.109 120.156 150.005 120.099 150.807 119.562L151.187 120.135C150.177 120.807 148.984 120.88 148.005 120.312C147.151 119.823 146.641 118.958 146.693 118.099C146.713 117.739 146.854 117.166 147.437 116.651C145.49 116.338 144.078 114.89 143.516 113.479C143.026 112.244 143.151 111.01 143.854 110.187C144.469 109.463 145.766 108.729 148.474 109.198C148.182 107.734 148.396 106.453 149.109 105.474C150.422 103.651 153.036 103.333 154.349 103.817C155.672 104.307 156.838 105.906 157.062 107.541C157.172 108.364 157.036 109.13 156.677 109.802C158.01 109.359 158.854 109.604 159.359 109.953C160.068 110.442 160.417 111.38 160.266 112.401C160.141 113.25 159.698 113.994 159.073 114.463C160.583 115.057 160.937 116.135 161.005 116.781C161.187 118.448 159.875 120.427 158.021 121.281C157.401 121.562 156.786 121.698 156.177 121.698Z" fill="black"/>
<path d="M48.0675 128.812L47.5311 120.12L49.4217 117.104L47.3748 118.875L47.1613 116.422L47.4582 114.089L46.2342 117.026L44.8019 115.656L46.2446 118.422V127.615H45.5519V118.589L42.2759 112.276L45.9842 115.839L48.7603 109.172L47.854 116.438L47.9425 117.474L52.4217 113.599L48.229 120.302L48.7498 128.771L48.0675 128.812Z" fill="black"/>
<path d="M63.5207 128.63C62.9582 128.63 62.3436 128.531 61.6873 128.302L61.9165 127.651C63.8957 128.354 65.3801 127.677 66.0571 126.88C66.453 126.422 66.6144 125.885 66.5155 125.38C66.4009 124.791 65.953 124.271 65.2186 123.88L64.3436 123.416L65.3176 123.239C66.7082 122.989 68.1405 121.88 68.203 121C68.2498 120.333 67.4582 119.932 66.7915 119.708L66.3592 119.562L66.6144 119.187C67.0832 118.5 67.1613 117.745 66.828 117.067C66.4217 116.229 65.4842 115.64 64.4426 115.573C63.729 115.531 62.3696 115.708 61.2655 117.396L60.9269 117.911L60.6665 117.354C60.5571 117.125 59.9321 116.765 59.0363 116.682C58.3332 116.62 56.5728 116.672 55.2394 118.489V118.718H55.0728C54.828 119.104 54.6457 119.536 54.5363 120.015L54.5259 120.041C54.2082 121.5 54.6561 123.14 55.6821 124.218C56.6717 125.271 58.0884 125.698 59.6769 125.437C59.729 125.432 59.7811 125.422 59.8228 125.411L59.953 126.083C59.8957 126.093 59.8332 126.109 59.7707 126.114C57.9686 126.416 56.3384 125.911 55.1821 124.692C53.9946 123.448 53.4842 121.625 53.8436 119.932L53.854 119.89C53.9842 119.291 54.2186 118.745 54.5467 118.265L54.5571 118.25C54.5728 118.224 54.5884 118.203 54.604 118.177L54.7082 118.031C56.2498 115.984 58.2759 115.922 59.0884 115.995C59.8488 116.062 60.5311 116.312 60.9426 116.651C61.8748 115.442 63.1405 114.802 64.479 114.885C65.7603 114.963 66.9269 115.703 67.4426 116.765C67.828 117.552 67.8071 118.406 67.4009 119.198C68.6821 119.739 68.9217 120.484 68.8853 121.041C68.8019 122.166 67.5311 123.224 66.203 123.703C66.8592 124.229 67.1092 124.812 67.1926 125.25C67.328 125.963 67.1144 126.703 66.5832 127.328C65.9946 128.01 64.9217 128.63 63.5207 128.63Z" fill="black"/>
<path d="M61.2967 134.829L61.1561 134.344C61.0363 133.928 60.4478 133.625 59.7186 133.61C58.9269 133.599 58.1092 133.922 57.4686 134.5L57.0103 133.995C57.7759 133.297 58.7603 132.907 59.729 132.928C60.5571 132.938 61.255 133.25 61.6092 133.74C61.703 133.678 61.8019 133.615 61.9009 133.563C63.0623 132.928 63.7811 133.297 64.0311 133.49C64.38 133.75 64.5623 134.167 64.4842 134.527L63.8123 134.386C63.828 134.313 63.7759 134.157 63.6196 134.037C63.4686 133.928 63.0415 133.724 62.229 134.162C62.0519 134.266 61.8696 134.386 61.6925 134.521L61.2967 134.829Z" fill="black"/>
<path d="M61.729 133.881L61.2967 126.657L63.1665 124.802L61.354 125.068V122.381L63.1248 120.229L60.8175 121.412L59.9009 120.782L60.38 121.964V123.959L58.5988 123.339L60.0728 124.761V133.271L59.3853 133.276V125.052L55.8853 121.672L59.6978 122.99V122.099L58.4113 118.917L60.8696 120.61L65.755 118.12L62.0415 122.631V124.271L65.1353 123.808L61.9998 126.922L62.4165 133.839L61.729 133.881Z" fill="black"/>
<path d="M26.755 115.687C20.4165 115.687 15.8332 115.369 14.7811 113.994L14.4478 113.562L14.979 113.453C17.7238 112.885 21.453 111.369 26.0623 108.942C26.6769 108.619 27.3332 108.271 28.0728 107.859C29.4009 107.125 30.7759 106.338 32.1509 105.521C34.7863 103.953 37.5675 102.208 40.4009 100.343C42.0311 99.2757 43.6196 98.2028 45.1353 97.1611C46.0728 96.5153 46.9998 95.8695 47.9686 95.1872C48.005 95.1611 48.0155 95.1507 48.0311 95.1403L48.0675 95.1143L48.4582 95.6768L48.4321 95.6976C48.4009 95.7184 48.3696 95.7393 48.3384 95.7601C47.3957 96.4268 46.4686 97.0778 45.5207 97.7288C44.005 98.7705 42.4113 99.8486 40.7811 100.922C37.9373 102.791 35.1561 104.541 32.505 106.114C31.1248 106.937 29.7446 107.724 28.4113 108.463C27.6665 108.875 27.005 109.229 26.3853 109.552C22.0988 111.807 18.5519 113.291 15.8332 113.963C18.229 115.192 26.8123 115.047 32.6665 114.942C35.7759 114.89 38.453 114.843 39.9113 114.974L39.88 115.656C38.4321 115.531 35.7655 115.578 32.6769 115.63C30.5832 115.666 28.5936 115.687 26.755 115.687Z" fill="black"/>
<path d="M32.4946 105.635L31.8332 105.453C31.8436 105.422 32.0675 104.536 31.255 104.057L30.6665 103.708L31.3019 103.443C32.5467 102.927 32.8644 101.901 32.755 101.182L33.4321 101.078C33.578 102 33.1873 103.141 32.0571 103.828C32.6196 104.437 32.6092 105.24 32.4946 105.635Z" fill="black"/>
<path d="M24.8908 107.682C24.4481 107.682 24.0053 107.568 23.6199 107.333C22.7397 106.807 22.4168 105.828 22.7397 104.693C21.7553 103.568 21.2762 101.432 22.1356 99.9634C22.5887 99.1925 23.771 98.0467 26.672 98.7811C27.1303 97.3696 27.922 97.0311 28.3751 96.9582C29.0731 96.8436 29.8283 97.2134 30.2501 97.8748C30.5001 98.2602 30.5991 98.6873 30.5418 99.0988C31.3647 98.9582 31.9689 99.1665 32.3439 99.4009C32.9324 99.755 33.3283 100.37 33.4324 101.078L32.7553 101.177C32.6824 100.672 32.4064 100.239 31.9897 99.9894C31.4949 99.6873 30.8387 99.6613 30.1043 99.9217L29.1408 100.255L29.7085 99.4061C30.0366 98.9113 29.797 98.4321 29.6772 98.2498C29.4012 97.8175 28.922 97.5675 28.4949 97.6405C27.9428 97.729 27.5001 98.3175 27.2501 99.2915L27.1616 99.6352L26.8231 99.5363C24.7918 98.9425 23.3803 99.2186 22.7345 100.312C22.0106 101.547 22.4741 103.469 23.3803 104.359L23.5314 104.515L23.4637 104.719C23.146 105.62 23.3387 106.359 23.9845 106.745C24.672 107.161 25.6356 107.041 26.2241 106.458L26.2553 106.437C26.2658 106.427 26.2814 106.411 26.297 106.396L26.8074 106.849C26.771 106.89 26.7345 106.927 26.6928 106.958C26.1928 107.437 25.5418 107.682 24.8908 107.682Z" fill="black"/>
<path d="M29.0573 107.745L28.7083 107.734C28.5 107.615 27.875 106.797 27.8594 105.974L28.2031 105.953H28.5469C28.5573 106.495 28.9948 107.083 29.0833 107.161C29.026 107.109 28.8698 107.062 28.7292 107.141L29.0573 107.745Z" fill="black"/>
<path d="M26.2658 109.297L25.9325 108.698C25.8283 108.755 25.797 108.844 25.797 108.849C25.8335 108.74 25.9377 108.104 26.12 106.661C26.1929 106.068 26.2606 105.521 26.2918 105.271L24.0522 102.573L26.7033 103.198L27.4325 99.7656L27.7814 101.245C27.8127 101.354 28.1616 102.417 28.4325 103.224L31.1095 102.505L28.5783 105.583L28.4429 107.911L27.7554 107.875L27.9012 105.318L29.2189 103.724L27.9845 104.057L27.8856 103.75C27.8127 103.526 27.6616 103.089 27.5158 102.651L27.2241 104.026L25.8856 103.708L27.0054 105.057L26.9897 105.208C26.9897 105.208 26.9012 105.932 26.797 106.75C26.495 109.167 26.4481 109.193 26.2658 109.297Z" fill="black"/>
<path d="M35.0521 101.948L34.5677 101.349C34.2187 100.922 33.8698 100.765 33.6979 100.802C33.5417 100.838 33.4635 101.073 33.4271 101.213L33.099 101.135H32.75L32.7604 101.052C32.9167 100.401 33.2708 100.198 33.5469 100.135C33.8802 100.057 34.2604 100.177 34.625 100.453C35.1458 98.5048 36.5 97.6455 37.6823 97.8173C38.3958 97.9215 39.0938 98.458 39.2135 99.4111C39.6875 99.1976 40.0313 99.2653 40.2552 99.3798C40.625 99.5726 40.8385 99.9996 40.8125 100.468L40.125 100.432C40.1354 100.27 40.0833 100.067 39.9427 99.9944C39.7656 99.9007 39.4427 100.02 39.0781 100.307L38.4115 100.838L38.526 99.9944C38.6354 99.1871 38.2656 98.6038 37.5833 98.5048C36.7969 98.3903 35.5104 99.0153 35.1719 101.192L35.0521 101.948Z" fill="black"/>
<path d="M154.729 128.266L154.974 127.469C155.005 127.375 154.984 127.193 154.833 126.98C154.698 126.803 154.302 126.386 153.438 126.375C152.823 126.365 152.083 126.579 151.312 127.006L150.802 127.287V126.709C150.802 126.198 150.677 125.776 150.443 125.49C150.229 125.224 149.922 125.084 149.536 125.068C148.62 125.037 147.458 125.719 146.312 126.943L145.812 126.474C147.109 125.089 148.427 124.339 149.557 124.386C150.135 124.401 150.63 124.636 150.974 125.058C151.214 125.355 151.38 125.73 151.448 126.167C152.161 125.839 152.828 125.683 153.448 125.688C154.271 125.698 154.979 126.026 155.385 126.579C155.505 126.74 155.583 126.912 155.63 127.073C156.276 126.891 156.964 126.954 157.411 127.125C157.771 127.256 158.01 127.459 158.104 127.704L157.464 127.954C157.453 127.928 157.38 127.849 157.172 127.766C156.734 127.605 156.005 127.589 155.464 127.875L154.729 128.266Z" fill="black"/>
<path d="M153.104 126.042L152.729 116.297L154.349 114.172L152.693 114.995L152.193 112.297L151.734 115.125L149.87 114.631L151.562 116.136L151.057 125.287L150.37 125.25L150.859 116.433L147.266 113.229L151.177 114.266L152.151 108.292L153.203 113.974L156.677 112.235L153.427 116.521L153.792 126.016L153.104 126.042Z" fill="black"/>
<path d="M146.917 104.411H146.234V104.369L146.213 100.255H146.896L146.917 104.411Z" fill="black"/>
<path d="M142.115 101.917L141.787 101.318C142.583 100.881 144.281 99.2295 144.297 99.2139L144.776 99.7087C144.708 99.7764 142.995 101.433 142.115 101.917Z" fill="black"/>
<path d="M144.88 103.245H144.198V99.589L141.745 96.8755L144.37 97.615L147.276 92.5161L146.651 97.7609L149.505 96.5786L146.969 100.25C147.479 100.896 148.177 101.183 148.906 101.042C149.583 100.912 150.135 100.438 150.26 99.8911C150.365 99.4015 150.109 98.9223 149.526 98.5109L148.688 97.9223L149.708 97.8911C150.474 97.865 151.208 97.1932 151.51 96.5786C151.609 96.3807 151.807 95.8807 151.557 95.5317C151.396 95.3078 150.901 94.964 149.422 95.1671L147.813 95.3911L149.198 94.5369C149.74 94.2036 149.995 93.5786 149.885 92.865C149.771 92.1203 149.287 91.5005 148.698 91.3442C148 91.1671 147.182 91.6307 146.401 92.6567L145.943 93.2505L145.792 92.5161C145.615 91.6463 145.083 91.0578 144.313 90.8598C143.344 90.615 142.193 91.0161 141.51 91.8286C140.818 92.6567 140.729 93.7557 141.26 94.9275L141.479 95.4119H140.948C140.37 95.4119 139.547 95.8859 139.156 96.6775C138.854 97.2869 138.714 98.2973 139.745 99.6255L139.198 100.047C137.885 98.3546 138.219 97.0213 138.537 96.3755C138.964 95.5109 139.766 94.9744 140.464 94.7921C139.87 93.0994 140.521 91.9484 140.984 91.3911C141.828 90.3807 143.266 89.8911 144.474 90.1984C145.313 90.4067 145.932 90.9484 146.266 91.7453C147.391 90.5421 148.359 90.5525 148.87 90.6828C149.729 90.9067 150.406 91.74 150.563 92.7661C150.656 93.3859 150.542 93.9588 150.26 94.4223C151.151 94.4223 151.771 94.6671 152.115 95.1359C152.443 95.5942 152.448 96.2296 152.13 96.8807C151.823 97.5057 151.198 98.1411 150.458 98.4275C151.021 99.063 151.01 99.688 150.932 100.042C150.755 100.86 149.995 101.537 149.037 101.719C147.969 101.922 146.938 101.448 146.266 100.454L146.135 100.256L147.615 98.1098L145.828 98.8546L146.193 95.8078L144.698 98.4223L143.844 98.1828L144.875 99.3286V103.245H144.88Z" fill="black"/>
<path d="M103.422 121.114C102.359 121.114 101.255 120.614 100.609 119.823C99.3696 118.312 99.2915 116.161 99.2342 114.594C99.0936 110.974 98.9529 107.354 98.8123 103.729L98.7863 103.031C98.7342 101.755 98.6769 100.177 97.88 99.0103C97.4529 98.3957 96.7082 97.9374 95.9738 97.8436C95.5988 97.802 95.0571 97.8228 94.6144 98.2186C94.4425 98.3697 94.2759 98.5676 94.0988 98.7811C93.63 99.3332 93.0467 100.021 92.2186 99.7603C91.9061 99.6665 91.6665 99.453 91.5259 99.1613C91.1613 98.4113 91.5363 97.3228 91.6561 97.0103C92.2134 95.5728 92.88 93.4478 92.229 91.6092C91.8957 90.677 91.0675 89.8488 90.1196 89.4999C89.4113 89.2395 88.7082 89.2759 88.1404 89.604C86.6769 90.4426 86.6977 92.3228 86.7238 94.3176C86.7342 95.0207 86.7394 95.7499 86.6769 96.4217C86.4582 98.7759 85.1613 100.802 83.9009 102.76C83.604 103.224 83.3123 103.682 83.0311 104.146C81.5467 106.614 80.4425 109.276 79.7602 112.073C79.6925 112.359 79.63 112.651 79.5571 112.943C79.2082 114.484 78.8436 116.073 77.8852 117.375C77.1769 118.338 76.0259 119.042 74.8904 119.208C74.0207 119.338 73.2238 119.151 72.5832 118.672C70.729 117.281 71.229 114.448 72.2238 112.448C72.9373 111.015 73.8175 109.656 74.6717 108.344C75.4842 107.083 76.3227 105.786 77.005 104.443C79.9738 98.5728 80.005 96.7863 79.7602 96.2447C79.6977 96.1092 79.6092 96.0311 79.4738 95.9947C78.8957 95.8488 78.0936 97.0884 77.3904 98.1822C76.5415 99.5051 75.6561 100.88 74.5623 101.094C74.13 101.182 73.6977 101.083 73.2863 100.792C72.8384 100.479 72.5727 100.094 72.4998 99.6457C72.3071 98.5467 73.2342 97.2655 74.4009 95.6301C75.2811 94.4009 76.2811 93.0103 76.9686 91.4582C77.8748 89.4217 77.604 86.0728 77.0571 84.4322C76.8904 83.9322 76.6769 83.6301 76.4061 83.5051C76.2029 83.4061 76.005 83.4009 75.7967 83.4947C75.2186 83.7395 74.7029 84.6145 74.4477 85.3801C71.8019 93.203 67.8123 100.406 62.5832 106.792C62.104 107.385 61.5623 107.974 60.7863 108.114C60.1769 108.224 59.6092 108.036 59.1404 107.578C58.4269 106.864 58.0467 105.547 58.2446 104.437C58.6665 102.042 60.38 99.8592 63.4894 97.7603L63.5884 97.6926C64.4738 97.0988 65.38 96.4895 65.6821 95.5624C65.7082 95.4686 65.7029 95.4426 65.7029 95.4426C65.6717 95.3905 65.4529 95.3176 65.3279 95.2759C64.8019 95.0936 63.9217 94.7967 64.0154 93.4426C64.0779 92.5363 64.9686 91.6197 65.9061 90.6457C66.7811 89.7342 67.6925 88.7915 67.6457 88.0884C67.6352 87.8645 67.5102 87.6613 67.2707 87.4634C66.104 86.5311 64.479 88.0936 62.755 89.7447C61.8644 90.604 60.9425 91.4895 60.0623 92.0103C58.4842 92.9478 56.854 93.9165 55.5311 95.2395C55.2602 95.5103 54.9946 95.802 54.7394 96.0832C54.13 96.7603 53.4998 97.4582 52.7029 97.9634C51.5102 98.7134 49.755 98.9217 48.6977 97.8645C48.2238 97.3853 47.8644 96.427 47.8123 95.4895C47.7654 94.5832 47.9477 92.3697 50.7238 91.3436C57.2082 87.9009 68.0415 79.5728 82.8696 59.479C83.0832 59.1874 83.255 58.953 83.38 58.7863C84.0988 57.828 84.8852 57.2342 85.7186 57.0103C87.1821 56.6197 88.6613 57.4374 89.7654 59.2134C90.3957 58.1457 91.7186 57.104 93.1248 56.9582C94.1144 56.854 95.005 57.2134 95.6925 57.9738C96.13 56.604 97.7186 55.3228 99.1248 55.0728C100.151 54.8957 101.026 55.2395 101.588 56.0467C116.948 78.1613 123.291 84.4009 130.927 89.328C133.229 90.8176 134.359 92.4478 134.297 94.1874C134.281 94.4634 134.25 94.7082 134.198 94.9426C133.963 95.9738 133.344 96.7863 132.453 97.2238C131.411 97.7395 130.099 97.6874 128.76 97.078C125.073 95.3957 123.854 93.6353 121.646 90.4478C121.443 90.1561 121.245 89.854 121.047 89.552C120.38 88.5415 119.698 87.4947 118.781 86.7238C118.651 86.6092 118.51 86.4895 118.37 86.354C117.62 85.6926 116.698 84.8645 115.906 84.9738C115.521 85.0311 115.172 85.3072 114.849 85.828C113.807 87.5051 118.156 94.2863 123.297 97.927C124.166 98.5467 125.219 99.2238 126.328 99.9426C130.88 102.88 136.041 106.208 134.765 109.062C134.411 109.713 133.838 110.114 133.099 110.26C131.687 110.531 130.047 109.818 129.047 108.995C128.791 108.781 128.536 108.562 128.276 108.333C127.026 107.25 125.739 106.125 124.245 106.307C123.635 106.385 123.015 106.651 122.416 106.906C121.375 107.344 120.297 107.802 119.177 107.354C116.448 106.271 115.286 104.062 114.849 103.229C114.807 103.151 114.771 103.078 114.745 103.036C112.63 99.4842 112.135 97.4895 111.656 95.5676C111.166 93.604 110.708 91.7499 108.646 88.2863C107.812 86.8905 103.729 82.0936 102.463 81.1353C102.036 80.8176 101.416 80.4634 100.854 80.6353C100.562 80.7238 100.359 80.8957 100.234 81.1665C99.8644 81.9374 100.182 83.2811 100.594 84.2759C102.291 88.3645 102.849 92.802 103.401 97.0884C104.245 103.771 105.088 110.448 105.937 117.13C106.036 117.932 106.172 119.026 105.661 119.927C105.271 120.614 104.568 121.036 103.687 121.109C103.599 121.114 103.51 121.114 103.422 121.114ZM95.7134 97.1405C95.8227 97.1405 95.9425 97.1509 96.0571 97.1613C96.9946 97.2811 97.9113 97.8384 98.4477 98.6197C99.3592 99.9478 99.4165 101.64 99.4686 103.005L99.4998 103.703C99.6352 107.323 99.7759 110.943 99.9165 114.568C99.9894 116.474 100.13 118.156 101.14 119.391C101.703 120.083 102.708 120.5 103.635 120.422C104.286 120.37 104.797 120.073 105.073 119.588C105.443 118.937 105.375 118.13 105.26 117.213C104.411 110.536 103.568 103.859 102.724 97.177C102.182 92.9322 101.63 88.5467 99.9686 84.5415C99.7394 83.9895 99.0415 82.0936 99.6196 80.8697C99.8279 80.4217 100.182 80.1249 100.661 79.979C101.328 79.7759 102.099 79.9895 102.885 80.5936C104.229 81.6092 108.37 86.4686 109.245 87.9374C111.359 91.4895 111.854 93.479 112.333 95.4061C112.823 97.3697 113.281 99.2238 115.344 102.693C115.375 102.745 115.416 102.823 115.469 102.917C115.87 103.687 116.948 105.734 119.443 106.724C120.302 107.073 121.203 106.682 122.161 106.281C122.802 106.01 123.469 105.729 124.172 105.635C125.969 105.417 127.443 106.693 128.739 107.828C128.995 108.047 129.245 108.265 129.495 108.474C130.531 109.328 131.969 109.786 132.984 109.594C133.526 109.489 133.922 109.208 134.166 108.765C135.193 106.474 130.078 103.177 125.969 100.526C124.854 99.8072 123.802 99.1249 122.911 98.4947C120.786 96.9895 118.234 94.3749 116.422 91.8384C115.203 90.1353 113.302 87.0467 114.281 85.4738C114.713 84.7811 115.229 84.3905 115.823 84.3072C116.922 84.1509 117.984 85.0936 118.838 85.8592C118.979 85.979 119.114 86.0988 119.239 86.2134C120.229 87.0467 120.943 88.1405 121.635 89.1926C121.833 89.4895 122.026 89.7863 122.224 90.0728C124.364 93.1613 125.547 94.8645 129.062 96.4686C130.208 96.9895 131.307 97.0467 132.161 96.6249C132.864 96.2759 133.354 95.6301 133.541 94.802V94.7967C133.588 94.6092 133.614 94.4061 133.62 94.177C133.677 92.6978 132.651 91.2655 130.568 89.9217C122.849 84.9426 116.458 78.6613 101.031 56.4478C100.521 55.7134 99.7811 55.6665 99.2498 55.7603C97.7186 56.0259 96.13 57.6822 96.2811 58.8645L96.4894 60.5728L95.6404 59.0728C95.0467 58.0363 94.2082 57.5415 93.2082 57.6457C91.8019 57.7967 90.4582 59.0467 90.13 60.078L89.88 60.8697L89.4998 60.1301C88.5311 58.2499 87.1925 57.3384 85.9113 57.677C85.229 57.8592 84.5675 58.3697 83.9425 59.203C83.8175 59.3697 83.6457 59.5988 83.4321 59.8905C68.5207 80.1092 57.5832 88.4947 51.0415 91.9686L50.9946 91.9895C48.7134 92.8228 48.4634 94.5155 48.5102 95.4582C48.5571 96.3176 48.8957 97.078 49.1977 97.3853C49.9894 98.1822 51.4113 97.9842 52.3436 97.3957C53.0623 96.9374 53.6404 96.3072 54.2446 95.6353C54.505 95.3436 54.7759 95.0415 55.0571 94.7655C56.4425 93.3853 58.1092 92.3905 59.7238 91.4322C60.5363 90.9478 61.4321 90.0936 62.2967 89.2603C64.1561 87.4738 66.0779 85.6249 67.7134 86.9426C68.1092 87.2551 68.3175 87.6301 68.3436 88.0572C68.4113 89.0572 67.4425 90.0624 66.4165 91.1249C65.604 91.9686 64.7602 92.8436 64.7186 93.4999C64.6613 94.3228 65.0571 94.4634 65.5675 94.6353C65.9321 94.7603 66.604 94.9895 66.3488 95.7811C65.9738 96.9374 64.9217 97.6457 63.9894 98.2707L63.8904 98.3384C60.9425 100.323 59.3227 102.359 58.9373 104.562C58.7759 105.453 59.0779 106.542 59.6352 107.094C59.9425 107.396 60.2915 107.515 60.6717 107.448C61.2186 107.344 61.6613 106.854 62.0623 106.359C67.2394 100.042 71.1873 92.9113 73.8019 85.1665C74.0988 84.2863 74.7134 83.2186 75.5363 82.8697C75.9217 82.703 76.328 82.7134 76.7082 82.8905C77.1561 83.104 77.4894 83.5415 77.7186 84.229C78.2759 85.9009 78.6248 89.453 77.604 91.7447C76.8905 93.3645 75.8696 94.7863 74.9686 96.0415C73.9373 97.479 73.0415 98.729 73.1821 99.5415C73.229 99.8072 73.3957 100.036 73.6873 100.239C73.9477 100.422 74.1925 100.479 74.4373 100.432C75.2498 100.271 76.0832 98.9738 76.8279 97.8228C77.7342 96.4061 78.5988 95.0676 79.6561 95.3436C79.9946 95.4322 80.2498 95.6457 80.3957 95.9686C80.9425 97.1717 80.0571 99.9634 77.63 104.765C76.9321 106.146 76.078 107.458 75.255 108.729C74.4165 110.031 73.5467 111.375 72.8488 112.776C71.9738 114.536 71.4894 117 73.0102 118.14C73.6248 118.604 74.3227 118.62 74.8019 118.547C75.7707 118.406 76.7394 117.807 77.3488 116.989C78.2238 115.802 78.5727 114.281 78.9061 112.807C78.9686 112.515 79.0415 112.224 79.1092 111.927C79.8019 109.068 80.9321 106.338 82.4529 103.812C82.7342 103.344 83.0363 102.875 83.3332 102.411C84.5467 100.521 85.8019 98.5676 86.005 96.3749C86.0623 95.7395 86.0571 95.0311 86.0467 94.3488C86.0154 92.2447 85.9894 90.0676 87.8071 89.0259C88.5519 88.5936 89.4634 88.5415 90.3644 88.8749C91.5154 89.2967 92.4738 90.2655 92.88 91.3957C93.6144 93.453 92.9009 95.7395 92.3019 97.2759C92.0519 97.927 91.9946 98.5572 92.1509 98.8853C92.2082 99.0103 92.2967 99.0884 92.4321 99.1249C92.7967 99.2447 93.1092 98.9113 93.5779 98.3592C93.7654 98.1405 93.9529 97.9113 94.1613 97.7238C94.5779 97.3332 95.1196 97.1405 95.7134 97.1405Z" fill="black"/>
<path d="M149.26 105.994C149.24 105.989 148.729 105.797 147.828 105.38C147.365 105.156 146.885 104.922 146.417 104.677C145.766 104.343 145.073 103.958 144.37 103.547C143.51 103.041 142.635 102.489 141.766 101.906C140.87 101.297 140.052 100.713 139.271 100.109C137.281 98.5882 135.385 96.9059 133.625 95.1038L133.469 94.9424L133.953 94.458L134.115 94.6247C135.854 96.4007 137.729 98.0622 139.693 99.5622C140.464 100.156 141.271 100.734 142.151 101.338C143.01 101.916 143.875 102.458 144.719 102.958C145.417 103.364 146.094 103.739 146.74 104.073C147.203 104.312 147.667 104.547 148.125 104.76C148.995 105.166 149.5 105.354 149.505 105.359L149.26 105.994Z" fill="black"/>
<path d="M83.4584 77.1719C82.9532 77.1719 82.4479 77.0365 82.0052 76.7292C80.1407 75.4271 81.0417 72.5833 81.5157 71.4219L82.1511 71.6823C81.7396 72.6875 80.9427 75.151 82.3959 76.1667C83.2761 76.7813 84.5365 76.4271 85.2761 75.776C86.1094 75.0417 86.5782 73.9323 86.9532 72.8438L87.0521 72.5469L87.3594 72.6198C88.2032 72.8229 89.1459 72.4792 89.6511 71.7865C90.1667 71.0937 90.2188 70.0937 89.7761 69.349L90.3646 69C90.9427 69.974 90.875 71.2917 90.2032 72.1979C89.5938 73.026 88.5209 73.474 87.5 73.3438C87.1042 74.4323 86.6042 75.5156 85.7292 76.2917C85.1354 76.8073 84.2969 77.1719 83.4584 77.1719Z" fill="black"/>
<path d="M103.396 74.2295C102.484 74.2295 101.521 73.7555 100.823 72.9326C100.089 72.068 99.7031 70.9795 99.3594 70.0212L100.01 69.792C100.344 70.7451 100.693 71.7243 101.344 72.4899C102.016 73.2868 102.974 73.6826 103.781 73.5055C104.224 73.4014 104.641 73.0576 104.849 72.6149C105.021 72.2607 105.031 71.8962 104.885 71.5993L105.5 71.292C105.745 71.7868 105.734 72.3649 105.474 72.9118C105.172 73.542 104.583 74.0264 103.938 74.1722C103.755 74.2087 103.578 74.2295 103.396 74.2295Z" fill="black"/>
<path d="M85.7186 57.6669C84.2082 57.2034 82.3228 55.1096 81.9113 52.5315C81.5884 50.4899 82.2759 48.6305 83.8645 47.2138C78.0832 46.719 74.1717 45.0784 72.2342 42.318C70.8957 40.4169 70.5728 38.0263 71.2603 35.2086C69.9322 35.5524 67.7551 35.7294 66.1457 34.6357C64.9217 33.8024 64.2395 32.4065 64.1145 30.4742C60.953 31.2399 57.3749 30.1878 54.677 27.6722C51.7967 24.9794 50.5572 21.1826 51.3801 17.5107C52.3332 13.2451 56.104 9.68257 60.552 8.85444C64.3332 8.15132 67.8384 9.55757 70.2707 12.7347C70.828 10.0836 72.9374 7.58361 75.552 6.59403C78.2915 5.55236 81.1874 6.24507 83.7447 8.54194C87.7863 1.78674 94.9738 0.166944 100.39 1.58882C105.854 3.02632 109.505 7.28153 109.932 12.5836C112.026 9.84403 115.187 8.54715 118.578 9.09924C122.208 9.68257 125.156 12.2086 125.906 15.3857C126.63 18.4169 125.396 20.4847 124.229 21.6878C122.177 23.8024 118.719 24.9013 115.661 24.4378C115.875 26.8492 114.896 31.5732 110.406 33.2399C110.734 35.3284 110.172 37.5992 108.89 39.3753C107.932 40.6878 106.167 42.318 103.114 42.8388C104.469 44.9117 104.88 47.1982 104.307 49.4846C103.542 52.5263 101.26 54.8128 99.3384 55.7294L99.2655 55.7659L98.9582 55.1513L99.0415 55.1149C100.76 54.2971 102.932 52.1305 103.64 49.318C104.203 47.0628 103.724 44.8024 102.239 42.7867L101.89 42.3076L102.474 42.2399C105.63 41.8649 107.401 40.2555 108.333 38.969C109.573 37.2659 110.078 35.068 109.682 33.0836L109.625 32.7867L109.911 32.6878C114.552 31.1513 115.297 26.1357 114.927 24.0836L114.833 23.5732L115.328 23.6774C118.271 24.2867 121.729 23.2711 123.729 21.2034C124.776 20.1253 125.885 18.2659 125.234 15.5367C124.542 12.6305 121.823 10.3076 118.463 9.77111C115.021 9.21382 111.823 10.719 109.917 13.8024L109.281 14.8336V13.6253C109.281 8.16174 105.724 3.69819 100.213 2.25028C94.953 0.870069 87.9374 2.50028 84.1197 9.25028L83.9061 9.63569L83.5832 9.33361C81.1509 6.98986 78.3853 6.24507 75.7915 7.23465C73.1301 8.24507 71.0415 10.943 70.828 13.6513L70.7499 14.6409L70.1978 13.818C67.9113 10.3909 64.4374 8.83361 60.6717 9.53674C56.4895 10.3076 52.9426 13.6513 52.0467 17.6617C51.2811 21.094 52.4426 24.6513 55.1457 27.1722C57.7915 29.6357 61.3124 30.6044 64.3436 29.7086L64.7707 29.5784L64.7811 30.0315C64.8228 31.9534 65.4113 33.3128 66.5311 34.0732C68.2551 35.2451 70.802 34.693 71.6353 34.3857L72.2759 34.1461L72.0884 34.8024C71.2551 37.6774 71.4947 40.0732 72.7967 41.9274C74.1092 43.7972 77.2551 46.1253 84.7915 46.594L85.7655 46.6565L84.9686 47.219C82.5832 48.8961 82.3592 50.9742 82.5936 52.4326C82.9478 54.6721 84.5988 56.6096 85.9165 57.0159L85.7186 57.6669Z" fill="black"/>
<path d="M78.9635 36.901C75.4479 36.901 73.6875 35.1979 72.9323 34.151C71.8854 32.6823 71.6093 30.8333 72.2083 29.3281L72.8489 29.5833C72.3281 30.8802 72.5781 32.474 73.4895 33.7552C74.2031 34.7448 75.9323 36.3802 79.5052 36.2083L79.5364 36.8906C79.3437 36.8958 79.151 36.901 78.9635 36.901Z" fill="black"/>
<path d="M99.8231 33.3232L99.5522 32.693C102.823 31.3024 105.974 27.3285 105.792 24.818L105.766 24.4639L106.12 24.4482C107.964 24.3597 109.583 23.6253 110.672 22.3805C111.474 21.4535 111.906 20.3337 111.818 19.3857L112.5 19.3232C112.604 20.4535 112.11 21.766 111.188 22.8285C110.042 24.141 108.38 24.943 106.485 25.1149C106.412 27.9066 103.24 31.8701 99.8231 33.3232Z" fill="black"/>
<path d="M88.427 48.6302C86.5936 48.375 85.802 47.5469 85.453 46.8958C84.927 45.8906 85.1353 44.724 85.5051 43.9688L86.1197 44.2708C85.8228 44.875 85.6509 45.7969 86.0572 46.5729C86.4426 47.3021 87.2968 47.776 88.5207 47.9479L88.427 48.6302Z" fill="black"/>
</svg>
