<svg width="159" height="145" viewBox="0 0 159 145" fill="none" xmlns="http://www.w3.org/2000/svg">
<mask id="mask0_5546_11869" style="mask-type:luminance" maskUnits="userSpaceOnUse" x="0" y="0" width="159" height="145">
<path d="M0.333496 0H159V144.422H0.333496V0Z" fill="white"/>
</mask>
<g mask="url(#mask0_5546_11869)">
<path d="M152.157 120.865C153.146 120.006 154.594 119.589 155.87 119.224C157.219 118.834 158.287 118.526 158.589 117.782C158.735 117.427 158.677 117.021 158.427 116.568C157.823 115.495 155.714 114.776 153.677 114.084C152.386 113.646 150.438 112.985 150.417 112.547C150.417 112.464 150.573 112.245 151.177 111.959C157.172 111.938 157.766 111.381 157.99 111.172L158.292 110.891L157.943 110.672C154.068 108.256 151.355 106.026 149.375 104.407C147.349 102.74 146.12 101.735 145.12 101.735C143.974 101.735 142.157 103.365 140.058 105.25C138.657 106.511 137.209 107.813 135.959 108.605L135.797 108.485C135.464 108.235 135.078 107.943 134.641 107.62L134.636 105.542C135.198 106.011 135.891 106.204 136.599 106.068C137.474 105.901 138.172 105.276 138.339 104.526C138.407 104.198 138.422 103.625 137.901 103.042C138.584 102.782 139.157 102.193 139.438 101.625C139.735 101.026 139.73 100.443 139.422 100.021C139.11 99.589 138.542 99.3702 137.719 99.365C137.985 98.9431 138.084 98.4119 138 97.8442C137.855 96.9015 137.235 96.1358 136.443 95.9327C135.98 95.8129 135.089 95.8077 134.052 96.9119C133.745 96.1775 133.177 95.6827 132.407 95.49C131.292 95.2035 129.974 95.6567 129.203 96.5837C128.776 97.0942 128.183 98.1515 128.719 99.6983C128.271 99.8025 127.881 100.063 127.62 100.443C127.308 100.886 127.193 101.469 127.266 102.099C123.099 98.9692 118.198 95.2608 116.917 94.1827C116.792 93.1619 116 92.0994 115.334 91.365C114.146 90.0577 112.073 88.3181 109.875 86.4796C106.995 84.0681 103.73 81.3285 102.203 79.2921C101.292 78.0785 100.209 75.9692 99.0629 73.74C97.3337 70.3806 95.3858 66.589 93.4847 64.8285L96.4326 46.115C98.1931 46.7035 100.25 46.3077 102.146 45.0056C103.469 44.0994 104.438 42.8962 104.698 41.9015C108.235 44.1515 112.907 43.8129 115.631 42.2973C117.078 41.49 117.927 40.391 118.016 39.2244C120.584 39.5525 124.625 38.5108 125.537 36.9848C128.073 37.6567 130.433 37.4587 132.052 36.4379C133.115 35.766 133.849 34.74 134.183 33.4587C135.677 34.4744 138.839 34.6515 141.552 33.7973C143.422 33.2087 146.646 31.615 147.172 27.6098C147.49 25.1462 146.344 22.6098 144.245 21.1567C142.026 19.6202 139.183 19.5212 136.386 20.8702C135.948 17.9952 134.219 15.4848 131.688 14.1046C128.761 12.5056 125.141 12.5942 121.464 14.339C121.011 12.7452 118.631 10.5108 115.412 9.4327C112.875 8.58375 108.042 7.9275 103.834 12.8337C103.318 12.0681 102.209 11.2296 100.974 10.7035C99.3129 10.0004 97.6358 9.92229 96.2087 10.4535C94.4222 5.1827 90.3129 1.81812 84.6097 0.969162C78.0993 0.000412464 71.0681 2.615 67.7191 7.19833C66.2868 6.16708 63.7972 5.98479 60.8024 6.70875C55.9326 7.88062 50.1201 11.3962 47.7712 16.6619C47.0576 15.6515 45.9118 14.891 44.5785 14.5681C43.2035 14.2348 40.4795 14.1046 37.4274 16.839C36.3076 14.8598 33.2816 13.6567 29.6878 13.8025C25.3181 13.9848 19.9691 16.2817 17.9483 22.1827C14.9118 22.2087 13.417 23.8494 13.3128 25.4015C13.1878 27.2452 14.7972 28.339 16.4535 28.6306C16.3128 30.115 16.7972 31.4744 17.7764 32.3025C18.6879 33.0733 20.4535 33.7556 23.7556 32.7712C23.792 35.3962 25.4118 37.9223 28.3597 39.9327C32.6722 42.8598 40.2087 44.6723 46.7191 41.8285C47.1201 42.6827 48.042 44.1931 49.8389 44.9327C51.4535 45.5994 53.3806 45.4848 55.5837 44.6046C56.3858 47.1931 58.6097 49.4171 61.3389 50.3181C64.3493 51.3129 67.5629 50.6619 70.4326 48.49L76.1983 66.7765C75.5576 67.6723 75.1306 68.7608 74.6774 69.9119C73.792 72.1775 72.7868 74.7452 69.8545 76.4379C67.0056 78.0785 65.3649 80.1775 63.9118 82.0317C62.1931 84.2348 60.7087 86.141 57.6618 87.1098C55.9639 87.6515 54.3233 89.1202 53.4743 90.8494C52.9587 91.9015 52.8076 92.9223 53.0316 93.7608C50.6254 95.464 46.2191 98.4796 41.3545 101.662C40.5472 101.209 37.1149 99.3494 35.417 99.1983C34.3701 99.1046 33.516 99.5369 32.6045 100C31.8181 100.401 31.0056 100.813 30.016 100.886C29.1306 100.954 28.1566 99.865 27.1306 98.7087C25.9326 97.3702 24.5733 95.8442 22.9587 95.8181C22.9483 95.8181 22.9378 95.8181 22.9274 95.8181C20.9899 95.8181 15.9535 99.4171 11.5056 102.599C9.12014 104.308 7.05764 105.787 5.96389 106.344C2.94306 106.537 0.557641 107.615 0.406599 108.875C0.354515 109.256 0.484724 109.964 1.87535 110.386C2.77118 110.662 4.10972 110.896 5.53681 111.146C8.01077 111.584 11.0837 112.12 11.5941 112.922C11.6462 113.006 11.6618 113.084 11.6358 113.167C11.4483 113.86 8.93264 114.813 6.91181 115.568C3.89097 116.709 1.28681 117.693 1.32327 118.985C1.4066 122.037 10.3753 122.5 14.2243 122.558C17.891 122.615 18.4222 123.511 18.4795 123.896C18.5993 124.714 17.2295 125.964 15.6618 126.469C11.7712 127.719 7.9066 129.813 8.04722 131.672C8.13056 132.771 9.43785 133.511 12.042 133.938C18.4431 134.99 30.3806 136.183 35.8701 136.464C34.1826 137.042 33.2868 137.813 33.3649 138.677C33.4951 140.125 36.2556 141.329 41.5681 142.261C47.8441 143.36 57.0264 143.948 68.8597 144.021C69.6983 144.026 70.5212 144.026 71.3285 144.026C81.1931 144.026 88.6306 143.651 93.4691 142.917C97.7347 142.271 100.042 141.329 100.521 140.052C100.99 138.782 99.6514 137.636 98.7451 136.855C98.4587 136.61 98.3129 136.391 98.3597 136.271C98.5785 135.714 101.245 135.24 105.917 135.396C106.271 135.407 106.641 135.417 107.032 135.427C110.25 135.5 114.667 135.594 119.901 138.162C125.839 141.073 139.766 139.599 146.302 138.412C150.198 137.704 154.24 135.719 154.422 133.292C154.552 131.558 152.802 129.954 149.219 128.516C153.589 128.266 158.084 127.047 158.448 125.37C158.594 124.698 158.115 124.099 157.016 123.594C155.474 122.886 154.047 122.542 153.006 122.292C152.355 122.131 151.459 121.917 151.417 121.745C151.412 121.73 151.375 121.537 152.157 120.865ZM132.146 105.089V105.756C132.058 105.693 131.98 105.636 131.896 105.568L131.771 105.474C131.907 105.355 132.037 105.224 132.146 105.089Z" fill="black"/>
</g>
<path d="M33.0519 80.5153C33.0519 79.7445 32.4217 79.1143 31.6509 79.1143C30.8748 79.1143 30.2446 79.7445 30.2446 80.5153C30.2446 81.2913 30.8748 81.9163 31.6509 81.9163C32.4217 81.9163 33.0519 81.2913 33.0519 80.5153Z" fill="black"/>
<path d="M45.495 62.901C45.495 62.1302 44.8647 61.5 44.0939 61.5C43.3231 61.5 42.6929 62.1302 42.6929 62.901C42.6929 63.6771 43.3231 64.3073 44.0939 64.3073C44.87 64.3073 45.495 63.6771 45.495 62.901Z" fill="black"/>
<path d="M51.0885 68.6149C51.8594 68.6149 52.4896 67.9847 52.4896 67.2139C52.4896 66.4378 51.8594 65.8076 51.0885 65.8076C50.3177 65.8076 49.6875 66.4378 49.6875 67.2139C49.6875 67.9847 50.3177 68.6149 51.0885 68.6149Z" fill="black"/>
<path d="M64.4894 55.6875C63.7186 55.6875 63.0884 56.3177 63.0884 57.0885C63.0884 57.8646 63.7186 58.4948 64.4894 58.4948C65.2603 58.4948 65.8905 57.8646 65.8905 57.0885C65.8957 56.3177 65.2655 55.6875 64.4894 55.6875Z" fill="black"/>
<path d="M64.1772 74.5212C64.1772 75.292 64.8075 75.9222 65.5783 75.9222C66.3491 75.9222 66.9793 75.292 66.9793 74.5212C66.9793 73.7503 66.3491 73.1201 65.5783 73.1201C64.8075 73.1201 64.1772 73.7451 64.1772 74.5212Z" fill="black"/>
<path d="M36.6356 85.7497C36.6356 84.9788 36.0106 84.3486 35.2345 84.3486C34.4637 84.3486 33.8335 84.9788 33.8335 85.7497C33.8335 86.5205 34.4637 87.1507 35.2345 87.1507C36.0106 87.1559 36.6356 86.5257 36.6356 85.7497Z" fill="black"/>
<path d="M20.8175 70.2087C20.8175 69.4378 20.1873 68.8076 19.4113 68.8076C18.6405 68.8076 18.0103 69.4378 18.0103 70.2087C18.0103 70.9847 18.6405 71.6097 19.4113 71.6097C20.1873 71.6097 20.8175 70.9847 20.8175 70.2087Z" fill="black"/>
<path d="M41.7033 48.359C41.7033 47.5882 41.0731 46.958 40.3022 46.958C39.5262 46.958 38.896 47.5882 38.896 48.359C38.896 49.1299 39.5262 49.7601 40.3022 49.7601C41.0731 49.7601 41.7033 49.1299 41.7033 48.359Z" fill="black"/>
<path d="M128.323 73.1924C127.547 73.1924 126.917 73.8226 126.917 74.5986C126.917 75.3695 127.547 75.9997 128.323 75.9997C129.094 75.9997 129.724 75.3695 129.724 74.5986C129.724 73.8226 129.094 73.1924 128.323 73.1924Z" fill="black"/>
<path d="M130.813 54.4899C130.813 53.7191 130.182 53.0889 129.412 53.0889C128.636 53.0889 128.005 53.7191 128.005 54.4899C128.005 55.2607 128.636 55.891 129.412 55.891C130.182 55.891 130.813 55.2607 130.813 54.4899Z" fill="black"/>
<path d="M116.62 64.3073C117.39 64.3073 118.021 63.6771 118.021 62.901C118.021 62.1302 117.39 61.5 116.62 61.5C115.844 61.5 115.213 62.1302 115.213 62.901C115.213 63.6771 115.844 64.3073 116.62 64.3073Z" fill="black"/>
<path d="M116.979 56.1719C116.979 55.3958 116.349 54.7656 115.578 54.7656C114.802 54.7656 114.172 55.3958 114.172 56.1719C114.172 56.9427 114.802 57.5729 115.578 57.5729C116.349 57.5729 116.979 56.9427 116.979 56.1719Z" fill="black"/>
<path d="M136.588 37.2764C136.588 38.0472 137.219 38.6774 137.989 38.6774C138.765 38.6774 139.396 38.0472 139.396 37.2764C139.396 36.5003 138.765 35.8701 137.989 35.8701C137.219 35.8701 136.588 36.5003 136.588 37.2764Z" fill="black"/>
<path d="M98.7812 55.083C98.7812 55.8538 99.4115 56.484 100.188 56.484C100.958 56.484 101.589 55.8538 101.589 55.083C101.589 54.307 100.958 53.6768 100.188 53.6768C99.4115 53.6768 98.7812 54.307 98.7812 55.083Z" fill="black"/>
<path d="M107.208 76.1719C107.208 76.9427 107.839 77.5729 108.61 77.5729C109.38 77.5729 110.011 76.9427 110.011 76.1719C110.011 75.3958 109.38 74.7656 108.61 74.7656C107.839 74.7656 107.208 75.3958 107.208 76.1719Z" fill="black"/>
<path d="M145.771 69.25C145 69.25 144.37 69.8802 144.37 70.651C144.37 71.4271 145 72.0573 145.771 72.0573C146.542 72.0573 147.172 71.4271 147.172 70.651C147.172 69.8802 146.542 69.25 145.771 69.25Z" fill="black"/>
<path d="M27.37 52.3122C27.37 51.5413 26.7397 50.9111 25.9689 50.9111C25.1981 50.9111 24.5679 51.5413 24.5679 52.3122C24.5679 53.0882 25.1981 53.7184 25.9689 53.7184C26.7397 53.7184 27.37 53.0882 27.37 52.3122Z" fill="black"/>
<path d="M47.5103 84.6618C47.5103 85.4378 48.1405 86.068 48.9165 86.068C49.6873 86.068 50.3175 85.4378 50.3175 84.6618C50.3175 83.891 49.6873 83.2607 48.9165 83.2607C48.1405 83.2607 47.5103 83.891 47.5103 84.6618Z" fill="black"/>
<path d="M44.1512 130.938L43.7137 123.735C46.3648 125.62 48.396 124.547 49.4637 122.839C48.87 125.532 50.8856 128.782 54.5523 128.172V135.052C55.3648 135.063 56.0158 135.422 56.1721 135.948C56.3596 135.802 56.5418 135.683 56.7033 135.589L56.3804 130.193L56.4533 130.188C58.271 130.828 59.8283 130.297 60.6043 129.386C69.9273 130.938 107.156 129.688 112.755 126.443C118.354 123.193 98.0887 123.308 99.8804 120.506C101.662 117.724 126.141 118.74 131.813 116.756C132.417 118.271 134.052 119.662 136.162 119.516C132.985 120.844 135.797 124.459 138.391 122.719H138.412L138.136 127.703C138.396 128.016 138.531 128.464 138.531 129.021C139.365 128.563 140.073 128.391 140.641 128.401L140.427 122.823C144.542 127.193 150.662 119.099 144.979 117.854C147.589 117.021 147.297 111.641 142.485 114.344C143.49 113.537 143.776 112.469 143.641 111.459C143.781 111.464 147.5 111.651 151.099 111.641C146.969 113.542 156.88 114.459 158.151 116.724C159.422 118.985 154.412 118.495 151.948 120.62C149.485 122.745 152.735 121.964 156.88 123.87C161.021 125.771 154.302 128.235 147.584 128.235C159.677 132.381 152.401 136.969 146.24 138.089C140.084 139.209 125.974 140.776 120.037 137.865C114.099 134.959 109.177 135.177 105.927 135.068C102.677 134.959 96.1825 135.068 98.5366 137.078C100.886 139.099 106.599 143.912 68.8596 143.693C31.1252 143.464 29.1043 137.865 38.1773 136.183C35.0418 136.297 19.5887 134.844 12.0835 133.61C4.5783 132.381 9.73455 128.683 15.7502 126.75C18.5418 125.854 21.5262 122.334 14.2241 122.229C6.91684 122.115 1.68246 120.974 1.63038 118.959C1.57309 116.943 11.4429 115.032 11.9325 113.229C12.422 111.433 4.79184 110.943 1.9585 110.068C-0.874829 109.198 1.35955 106.907 6.04705 106.636C7.46371 107.943 15.8595 106.578 18.3179 107.287C20.771 107.995 17.2762 108.922 16.7345 109.631C16.1877 110.339 18.4429 110.745 21.547 110.959C22.2866 111.407 23.3908 111.313 24.0679 110.573C23.9116 111.573 23.7241 112.672 23.6668 112.745L23.6616 112.75C19.5106 114.99 15.8804 116.657 13.521 117.151C15.3231 119.49 32.0054 118.167 36.3231 118.547C36.646 118.886 37.0627 119.203 37.5783 119.49C34.7502 121.677 37.12 126.026 41.8543 123.964V129.854H41.3283C42.1356 129.854 42.8752 130.479 42.6252 131.896C43.2033 131.36 43.7189 131.058 44.1512 130.938Z" fill="#4CAF50"/>
<path d="M151.099 111.646C147.5 111.656 143.781 111.468 143.641 111.458C143.448 110.021 142.401 108.677 141.36 108.291C140.203 107.869 137.99 108.192 136.906 109.703C136.906 109.703 136.557 109.442 135.943 108.989C139.005 107.135 143.328 102.052 145.115 102.052C146.912 102.052 150.042 106.119 157.771 110.942C157.203 111.479 154.193 111.635 151.099 111.646Z" fill="#794426"/>
<path d="M46.8802 41.391C37.2813 45.8181 23.6563 39.8806 24.0781 32.3233C17.9531 34.339 16.4063 30.9327 16.7969 28.3494C12.125 27.8077 12.625 22.3858 18.1719 22.4848C21.5 12.1983 35.3125 12.5056 37.3334 17.339C39.9011 14.891 42.4948 14.3754 44.5052 14.8598C46.0469 15.2348 47.25 16.1983 47.8177 17.339C51.1459 8.77124 64.1511 4.40666 67.7865 7.63583C73.5313 -0.733964 91.7813 -2.55167 96.0156 10.8598C99.3438 9.34937 103.276 11.9692 103.776 13.3806C110.938 4.50562 121.125 11.8702 121.224 14.7921C129.354 10.6827 135.531 15.5265 136.13 21.339C142.38 18.0108 147.484 22.7817 146.854 27.5577C145.932 34.6202 135.948 35.0212 133.979 32.8702C133.333 36.7244 129.443 37.766 125.365 36.5994C124.859 38.1098 120.307 39.3494 117.703 38.839C117.953 42.5369 109.698 45.1046 104.453 41.3442C104.521 43.3442 99.9948 47.2869 96.1771 45.6723L93.1459 64.9275C92.6719 64.5056 92.1927 64.2192 91.7344 64.115C88.2188 63.2921 87.8125 66.7296 87.8125 66.7296C85.9323 64.6879 82.7448 65.9119 82.1771 67.7087C80.7865 65.0108 78.5 64.1931 76.5365 66.8077L70.5938 47.9431C64.0573 53.2348 57.0834 49.2035 55.7813 44.1619C50.0052 46.6515 47.5886 43.1619 46.8802 41.391Z" fill="#CADBEA"/>
<path d="M146.859 70.651C146.859 70.9531 146.755 71.2083 146.542 71.4219C146.328 71.6354 146.073 71.7396 145.771 71.7396C145.469 71.7396 145.213 71.6354 145 71.4219C144.786 71.2083 144.682 70.9531 144.682 70.651C144.682 70.3542 144.786 70.0937 145 69.8802C145.213 69.6719 145.469 69.5625 145.771 69.5625C146.073 69.5625 146.328 69.6719 146.542 69.8802C146.755 70.0937 146.859 70.3542 146.859 70.651Z" fill="#794426"/>
<path d="M131.807 116.755C130.995 114.698 132.078 112.396 136.484 113.343C136.047 111.718 136.302 110.531 136.901 109.703C137.989 108.192 140.203 107.869 141.354 108.291C142.401 108.677 143.443 110.021 143.641 111.458C143.776 112.479 143.489 113.536 142.479 114.349C147.297 111.64 147.588 117.021 144.974 117.854C150.656 119.099 144.536 127.198 140.422 122.828L140.297 119.562L142.536 116.619L140.177 117.802L139.469 113.953L138.807 117.994L136.151 117.291L138.583 119.453L138.401 122.729H138.38C135.786 124.463 132.974 120.849 136.151 119.521C134.052 119.672 132.417 118.276 131.807 116.755Z" fill="#4CAF50"/>
<path d="M140.641 128.401C140.073 128.396 139.365 128.563 138.531 129.026C138.531 128.469 138.391 128.016 138.136 127.709L138.412 122.724L138.594 119.453L136.162 117.287L138.818 117.99L139.479 113.948L140.188 117.797L142.547 116.615L140.307 119.563L140.432 122.823L140.641 128.401Z" fill="#D14256"/>
<path d="M139.083 37.276C139.083 37.5729 138.979 37.8333 138.766 38.0417C138.552 38.2552 138.297 38.3646 137.995 38.3646C137.693 38.3646 137.437 38.2552 137.224 38.0417C137.01 37.8333 136.906 37.5729 136.906 37.276C136.906 36.974 137.01 36.7187 137.224 36.5052C137.437 36.2917 137.693 36.1875 137.995 36.1875C138.297 36.1875 138.552 36.2917 138.766 36.5052C138.979 36.7187 139.083 36.974 139.083 37.276Z" fill="#794426"/>
<path d="M136.906 99.7395C140.974 99.177 139.125 102.807 137.224 102.87C139.688 104.609 136.047 107.312 134.313 104.729L136.162 102.052L134.031 102.937L134.479 99.1302L132.464 102.677L130.865 102.229L132.464 104C132.464 104 132.021 105.042 131.235 105.474C130.146 104.656 128.969 103.771 127.771 102.875C127.151 101.198 127.932 99.9687 129.167 99.9687C127.37 95.9895 133.198 94.0312 133.922 97.5572C136.662 93.9687 138.995 98.4479 136.906 99.7395Z" fill="#4CAF50"/>
<path d="M136.161 102.052L134.312 104.729L134.328 107.781C133.771 107.37 133.141 106.896 132.458 106.391V103.995L130.859 102.224L132.458 102.672L134.474 99.125L134.026 102.938L136.161 102.052Z" fill="#D14256"/>
<path d="M130.495 54.4899C130.495 54.792 130.391 55.0472 130.177 55.2607C129.964 55.4743 129.708 55.5785 129.406 55.5785C129.104 55.5785 128.849 55.4743 128.636 55.2607C128.422 55.0472 128.318 54.792 128.318 54.4899C128.318 54.1878 128.422 53.9326 128.636 53.7191C128.849 53.5055 129.104 53.4014 129.406 53.4014C129.708 53.4014 129.964 53.5055 130.177 53.7191C130.391 53.9326 130.495 54.1878 130.495 54.4899Z" fill="#794426"/>
<path d="M129.411 74.5993C129.411 74.9014 129.302 75.1566 129.089 75.3701C128.88 75.5837 128.62 75.6878 128.323 75.6878C128.021 75.6878 127.766 75.5837 127.552 75.3701C127.339 75.1566 127.234 74.9014 127.234 74.5993C127.234 74.2972 127.339 74.042 127.552 73.8285C127.766 73.6201 128.021 73.5107 128.323 73.5107C128.62 73.5107 128.88 73.6201 129.089 73.8285C129.302 74.042 129.411 74.2972 129.411 74.5993Z" fill="#794426"/>
<path d="M117.708 62.901C117.708 63.2031 117.599 63.4583 117.385 63.6719C117.177 63.8854 116.917 63.9896 116.62 63.9896C116.318 63.9896 116.062 63.8854 115.849 63.6719C115.635 63.4583 115.531 63.2031 115.531 62.901C115.531 62.6042 115.635 62.3438 115.849 62.1354C116.062 61.9219 116.318 61.8125 116.62 61.8125C116.917 61.8125 117.177 61.9219 117.385 62.1354C117.599 62.3438 117.708 62.6042 117.708 62.901Z" fill="#794426"/>
<path d="M116.693 94.4064C117.958 95.4793 123.026 99.3126 127.766 102.87C128.964 103.771 130.146 104.651 131.234 105.469C131.656 105.787 132.068 106.094 132.464 106.391C133.141 106.896 133.771 107.37 134.328 107.781C134.974 108.266 135.521 108.677 135.948 108.99C136.557 109.443 136.911 109.703 136.911 109.703C136.307 110.531 136.047 111.719 136.49 113.344C132.083 112.391 131 114.693 131.818 116.755C126.146 118.745 101.661 117.724 99.8802 120.511C98.0885 123.307 118.359 123.198 112.76 126.443C107.161 129.693 69.9323 130.938 60.6094 129.391C61.4375 128.417 61.3646 127.011 59.7396 126.151C61.8333 125.771 64.3073 123.344 61.1354 122.297C63.0573 119.49 58.2188 116.443 55.6927 120.297C55.3177 119.49 52.0833 118.589 50.1094 121.375C50.5156 119.906 50.2917 118.427 49.2604 118.031C52.0365 116.318 50.3229 112.557 46.5625 113.625C48.6875 109.313 41.6563 105.453 40.3542 113.052C37.4323 111.37 33.5938 115.698 36.3229 118.563C31.9948 118.177 15.3177 119.505 13.5156 117.162C15.875 116.672 19.5104 115.005 23.6562 112.761H23.6615C24.2604 112.432 24.8698 112.099 25.4948 111.75C26.7135 111.063 27.9688 110.344 29.2344 109.594C31.7604 108.099 34.3542 106.5 36.8646 104.906C38.401 103.932 39.9115 102.964 41.3594 102.016C46.8542 98.4324 51.4479 95.2553 53.3958 93.8803C53.6302 94.5105 54.1302 95.0314 54.974 95.3282C58.651 96.6355 61.3438 93.9376 64.4531 90.9168C67.5521 87.8959 69.3542 85.9324 70.901 87.0782C72.4583 88.2241 72.4427 91.0782 74.8229 90.9168C79.1927 90.6199 78.6667 84.9532 82.1771 85.6095C85.6927 86.2605 84.875 87.2449 86.6719 86.8334C88.4688 86.4272 87.8906 87.9793 89.6927 87.7293C91.4896 87.4845 92.3854 86.2605 92.9635 88.797C93.5312 91.3282 95.099 91.9428 96.2292 91.4897C97.4271 91.0053 96.474 88.3855 98.2708 88.8751C100.068 89.3647 101.536 94.0262 103.745 93.4532C105.948 92.8803 104.641 90.0991 106.766 90.9168C108.885 91.7345 111.01 97.4897 115.109 96.1199C116.245 95.7397 116.63 95.1095 116.609 94.4116L116.693 94.4064Z" fill="#794426"/>
<path d="M116.615 94.4059C116.635 95.0986 116.245 95.734 115.109 96.1142C111.01 97.4788 108.891 91.7288 106.766 90.9111C104.646 90.0934 105.948 92.8694 103.745 93.4423C101.542 94.0152 100.073 89.359 98.2708 88.8694C96.4739 88.3798 97.4323 90.9944 96.2291 91.484C95.1041 91.9371 93.5364 91.3225 92.9635 88.7861C92.3906 86.2548 91.4895 87.4788 89.6927 87.7236C87.8958 87.9736 88.4739 86.4215 86.6718 86.8277C84.875 87.234 85.6927 86.2548 82.1823 85.5986C78.6666 84.9475 79.1979 90.6142 74.8281 90.9111C72.4479 91.0725 72.4583 88.2132 70.9062 87.0725C69.3541 85.9267 67.5573 87.8902 64.4531 90.9111C61.3489 93.9319 58.651 96.6298 54.9739 95.3225C54.1354 95.0205 53.6302 94.5048 53.3958 93.8746C52.6145 91.7444 54.9062 88.3017 57.7552 87.3955C63.6145 85.5257 63.9895 80.1559 70.0052 76.6975C74.5989 74.0569 74.5833 69.4267 76.5416 66.8121C78.5052 64.1923 80.7916 65.0152 82.1823 67.7132C82.75 65.9111 85.9375 64.6871 87.8177 66.7288C87.8177 66.7288 88.2239 63.2965 91.7395 64.1142C92.2031 64.2236 92.677 64.51 93.151 64.9319C96.2864 67.6923 99.6093 76.3486 101.953 79.4736C104.651 83.0621 112.344 88.5257 115.099 91.5621C115.74 92.2757 116.594 93.4059 116.615 94.4059Z" fill="#CADBEA"/>
<path d="M116.667 56.1715C116.667 56.4684 116.557 56.7288 116.344 56.9372C116.136 57.1507 115.875 57.2601 115.578 57.2601C115.276 57.2601 115.021 57.1507 114.807 56.9372C114.594 56.7288 114.49 56.4684 114.49 56.1715C114.49 55.8695 114.594 55.6143 114.807 55.4007C115.021 55.1872 115.276 55.083 115.578 55.083C115.875 55.083 116.136 55.1872 116.344 55.4007C116.557 55.6143 116.667 55.8695 116.667 56.1715Z" fill="#794426"/>
<path d="M108.61 75.083C109.214 75.083 109.703 75.5674 109.703 76.1715C109.703 76.7705 109.219 77.2601 108.61 77.2601C108.016 77.2601 107.521 76.7757 107.521 76.1715C107.521 75.5674 108.011 75.083 108.61 75.083Z" fill="#794426"/>
<path d="M100.188 53.9951C100.786 53.9951 101.276 54.4795 101.276 55.0837C101.276 55.6878 100.792 56.1722 100.188 56.1722C99.5885 56.1722 99.0938 55.6878 99.0938 55.0837C99.099 54.4795 99.5885 53.9951 100.188 53.9951Z" fill="#794426"/>
<path d="M66.6668 74.5212C66.6668 74.8232 66.5627 75.0785 66.3491 75.292C66.1356 75.5055 65.8804 75.6097 65.5783 75.6097C65.2762 75.6097 65.021 75.5055 64.8075 75.292C64.5939 75.0785 64.4897 74.8232 64.4897 74.5212C64.4897 74.2191 64.5939 73.9639 64.8075 73.7503C65.021 73.5368 65.2762 73.4326 65.5783 73.4326C65.8804 73.4326 66.1356 73.5368 66.3491 73.7503C66.5627 73.9639 66.6668 74.2191 66.6668 74.5212Z" fill="#794426"/>
<path d="M64.4894 56.0049C65.0884 56.0049 65.578 56.4945 65.578 57.0934C65.578 57.6976 65.0936 58.1872 64.4894 58.1872C63.8905 58.1872 63.4009 57.6976 63.4009 57.0934C63.4009 56.4945 63.8905 56.0049 64.4894 56.0049Z" fill="#794426"/>
<path d="M60.6039 129.391C59.8279 130.302 58.2706 130.833 56.4529 130.193H56.3747L56.307 129.099L58.6091 126.812L56.3539 127.26V125.167L58.3591 122.453L55.5049 124L54.0258 122.729L54.8383 125.167V126.057L52.2654 125.167L54.5466 127.573V128.177C50.8852 128.781 48.8643 125.531 49.4581 122.844C49.4581 122.838 49.4581 122.838 49.4581 122.838C49.7445 122.38 49.9581 121.88 50.0987 121.38V121.375C52.0779 118.588 55.307 119.49 55.6872 120.297C58.2133 116.448 63.0518 119.49 61.1299 122.297C64.2966 123.344 61.8279 125.771 59.7341 126.151C61.3591 127.01 61.432 128.417 60.6039 129.391Z" fill="#4CAF50"/>
<path d="M54.5469 128.177V127.573L52.2656 125.167L54.8385 126.057V125.167L54.026 122.729L55.5104 124L58.3594 122.453L56.3594 125.167V127.266L58.6146 126.818L56.3125 129.104L56.3802 130.198L56.7031 135.594C56.5365 135.693 56.3542 135.807 56.1719 135.953C56.0156 135.427 55.3646 135.068 54.5521 135.057V128.177H54.5469Z" fill="#D14256"/>
<path d="M52.1771 67.2135C52.1771 67.5104 52.0729 67.7708 51.8594 67.9792C51.6458 68.1927 51.3906 68.3021 51.0885 68.3021C50.7865 68.3021 50.5313 68.1927 50.3177 67.9792C50.1042 67.7708 50 67.5104 50 67.2135C50 66.9115 50.1042 66.6563 50.3177 66.4427C50.5313 66.2292 50.7865 66.125 51.0885 66.125C51.3906 66.125 51.6458 66.2292 51.8594 66.4427C52.0729 66.6563 52.1771 66.9115 52.1771 67.2135Z" fill="#794426"/>
<path d="M49.2552 118.031C50.2864 118.427 50.5104 119.906 50.1041 121.375C50.1041 121.375 50.1041 121.38 50.0989 121.38C49.7864 121.823 49.5781 122.318 49.4635 122.839C49.4635 122.839 49.4635 122.839 49.4635 122.844C48.3958 124.552 46.3646 125.62 43.7135 123.74L43.6406 122.552L46.4583 118.594L43.401 120.495L43.3229 119.589L43.875 115.182L42.2604 119.047L39.6771 117.328L41.8437 121.615V123.979C37.1146 126.036 34.7396 121.693 37.5677 119.51C37.0521 119.219 36.6354 118.901 36.3125 118.563C33.5885 115.703 37.4271 111.375 40.3489 113.057C41.651 105.458 48.6823 109.323 46.5573 113.625C50.3177 112.557 52.0312 116.318 49.2552 118.031Z" fill="#4CAF50"/>
<path d="M50.005 84.6618C50.005 84.9639 49.8957 85.2191 49.6821 85.4326C49.4738 85.6462 49.2134 85.7555 48.9165 85.7555C48.6144 85.7555 48.3592 85.6462 48.1457 85.4326C47.9321 85.2191 47.8228 84.9639 47.8228 84.6618C47.8228 84.3649 47.9321 84.1045 48.1457 83.8962C48.3592 83.6826 48.6144 83.5732 48.9165 83.5732C49.2134 83.5732 49.4738 83.6826 49.6821 83.8962C49.8957 84.1045 50.005 84.3649 50.005 84.6618Z" fill="#794426"/>
<path d="M41.8436 123.974V121.604L39.6821 117.323L42.2655 119.041L43.88 115.177L43.328 119.583L43.4061 120.489L46.4582 118.588L43.6457 122.541L43.7186 123.729L44.1509 130.937C43.7238 131.057 43.2082 131.354 42.6196 131.906C42.8696 130.484 42.13 129.859 41.3228 129.859H41.8488V123.974H41.8436Z" fill="#D14256"/>
<path d="M45.1825 62.901C45.1825 63.2031 45.0783 63.4583 44.8647 63.6719C44.6512 63.8854 44.396 63.9896 44.0939 63.9896C43.7918 63.9896 43.5366 63.8854 43.3231 63.6719C43.1095 63.4583 43.0054 63.2031 43.0054 62.901C43.0054 62.6042 43.1095 62.3438 43.3231 62.1354C43.5366 61.9219 43.7918 61.8125 44.0939 61.8125C44.396 61.8125 44.6512 61.9219 44.8647 62.1354C45.0783 62.3438 45.1825 62.6042 45.1825 62.901Z" fill="#794426"/>
<path d="M41.3905 48.359C41.3905 48.6611 41.2811 48.9163 41.0728 49.1299C40.8592 49.3434 40.5988 49.4476 40.3019 49.4476C39.9998 49.4476 39.7446 49.3434 39.5311 49.1299C39.3175 48.9163 39.2134 48.6611 39.2134 48.359C39.2134 48.057 39.3175 47.8018 39.5311 47.5882C39.7446 47.3747 39.9998 47.2705 40.3019 47.2705C40.5988 47.2705 40.8592 47.3747 41.0728 47.5882C41.2811 47.8018 41.3905 48.057 41.3905 48.359Z" fill="#794426"/>
<path d="M35.3854 99.4947C37.2292 99.6614 41.3542 102.01 41.3542 102.01C39.9062 102.958 38.3958 103.932 36.8594 104.901C36.8906 104.359 36.4115 103.713 35.3854 104.521C35.7031 102.172 32.2396 101.917 31.6823 105.531C31.1094 104.828 30.3125 104.578 30.0833 105.526C29.9219 104.432 28.8698 103.547 27.2344 104.12C28.2344 102.614 25.2656 100.396 24.4062 103.76C19.2135 102.255 19.25 107.052 20.9323 108.724C20.5521 109.818 20.9167 110.583 21.5417 110.958C18.4375 110.745 16.1823 110.344 16.7292 109.635C17.276 108.927 20.7656 108 18.3125 107.292C15.8594 106.583 7.46354 107.943 6.04688 106.635C9.09896 105.109 20.1094 96.0624 22.9427 96.1145C25.776 96.1666 27.849 101.349 30.0312 101.187C32.2135 101.021 33.5469 99.328 35.3854 99.4947Z" fill="#794426"/>
<path d="M35.3853 104.526C36.4113 103.714 36.8905 104.36 36.8592 104.907C34.3488 106.495 31.755 108.094 29.229 109.589C29.229 109.589 29.5259 108.526 28.5571 107.953C29.7603 107.459 30.2186 106.422 30.0832 105.537V105.532C30.3123 104.584 31.1092 104.834 31.6821 105.537C32.2394 101.922 35.703 102.172 35.3853 104.526Z" fill="#4CAF50"/>
<path d="M36.3231 85.7497C36.3231 86.0518 36.2137 86.307 36.0002 86.5205C35.7918 86.734 35.5314 86.8382 35.2345 86.8382C34.9325 86.8382 34.6772 86.734 34.4637 86.5205C34.2502 86.307 34.146 86.0518 34.146 85.7497C34.146 85.4476 34.2502 85.1924 34.4637 84.9788C34.6772 84.7653 34.9325 84.6611 35.2345 84.6611C35.5314 84.6611 35.7918 84.7653 36.0002 84.9788C36.2137 85.1924 36.3231 85.4476 36.3231 85.7497Z" fill="#794426"/>
<path d="M32.7396 80.5153C32.7396 80.8174 32.6302 81.0726 32.4167 81.2861C32.2083 81.4997 31.9479 81.6038 31.651 81.6038C31.349 81.6038 31.0937 81.4997 30.8802 81.2861C30.6667 81.0726 30.5625 80.8174 30.5625 80.5153C30.5625 80.2132 30.6667 79.958 30.8802 79.7445C31.0937 79.5361 31.349 79.4268 31.651 79.4268C31.9479 79.4268 32.2083 79.5361 32.4167 79.7445C32.6302 79.958 32.7396 80.2132 32.7396 80.5153Z" fill="#794426"/>
<path d="M30.0835 105.531C30.2189 106.422 29.7606 107.453 28.5574 107.948C29.5262 108.521 29.2293 109.589 29.2293 109.589C27.9637 110.339 26.7085 111.057 25.4897 111.745L25.7918 109.219C25.7918 109.219 27.5314 107.24 27.6408 107.167L25.9116 107.573L24.7658 105.302L24.2866 107.589L22.5626 107.167L24.3231 108.917C24.3231 108.917 24.2033 109.708 24.0626 110.583C23.3856 111.318 22.2814 111.411 21.5418 110.969C20.9168 110.589 20.5522 109.823 20.9324 108.729C19.2501 107.062 19.2137 102.26 24.4064 103.766C25.2658 100.401 28.2345 102.62 27.2345 104.125C28.8647 103.552 29.922 104.432 30.0835 105.531Z" fill="#4CAF50"/>
<path d="M25.9113 107.578L27.6405 107.166C27.5311 107.239 25.7863 109.224 25.7863 109.224L25.4894 111.744C24.8696 112.093 24.255 112.427 23.6561 112.755C23.7134 112.677 23.9009 111.583 24.0571 110.583C24.1978 109.708 24.3175 108.916 24.3175 108.916L22.5571 107.166L24.2811 107.588L24.755 105.302L25.9113 107.578Z" fill="#D14256"/>
<path d="M27.0575 52.3122C27.0575 52.6143 26.9533 52.8695 26.7397 53.083C26.5262 53.2965 26.271 53.4007 25.9689 53.4007C25.6668 53.4007 25.4116 53.2965 25.1981 53.083C24.9897 52.8695 24.8804 52.6143 24.8804 52.3122C24.8804 52.0153 24.9897 51.7549 25.1981 51.5413C25.4116 51.333 25.6668 51.2236 25.9689 51.2236C26.271 51.2236 26.5262 51.333 26.7397 51.5413C26.9533 51.7549 27.0575 52.0153 27.0575 52.3122Z" fill="#794426"/>
<path d="M20.4998 70.2087C20.4998 70.5107 20.3905 70.766 20.1821 70.9795C19.9686 71.193 19.7134 71.2972 19.4113 71.2972C19.1092 71.2972 18.854 71.193 18.6405 70.9795C18.4269 70.766 18.3228 70.5107 18.3228 70.2087C18.3228 69.9066 18.4269 69.6514 18.6405 69.4378C18.854 69.2295 19.1092 69.1201 19.4113 69.1201C19.7134 69.1201 19.9686 69.2295 20.1821 69.4378C20.3905 69.6514 20.4998 69.9066 20.4998 70.2087Z" fill="#794426"/>
<path d="M113.87 96.6404C111.688 96.6404 110.104 94.7706 108.792 93.2081C108.026 92.307 107.302 91.4529 106.651 91.2029C106.318 91.0779 106.078 91.0466 105.938 91.1091C105.766 91.1924 105.667 91.4893 105.557 91.8331C105.344 92.5102 105.047 93.4268 103.823 93.7497C102.349 94.1299 101.214 92.5831 100.214 91.2185C99.5417 90.3018 98.8438 89.3539 98.1875 89.1768C97.9428 89.1091 97.7553 89.1091 97.6407 89.1768C97.4428 89.3018 97.3594 89.7237 97.2813 90.1352C97.1667 90.7393 97.0261 91.4997 96.3438 91.7758C95.7344 92.0258 95.0625 91.9841 94.4636 91.6716C93.8594 91.3539 93.0469 90.6039 92.6563 88.8591C92.4948 88.1456 92.2917 87.7133 92.0678 87.5831C91.8438 87.4581 91.474 87.5727 91.0053 87.7237C90.6355 87.8383 90.224 87.9685 89.7344 88.0362C88.698 88.1768 88.2969 87.781 87.974 87.4581C87.6823 87.1612 87.4844 86.9633 86.7396 87.1352C85.7605 87.3591 85.4323 87.1977 84.8959 86.8747C84.4636 86.6143 83.8125 86.2237 82.1198 85.906C80.6094 85.6247 79.9584 86.6716 79.1355 87.9945C78.2396 89.432 77.2292 91.057 74.849 91.2185C73.1719 91.3279 72.5209 90.1039 71.9428 89.0154C71.6042 88.3747 71.2553 87.7185 70.7188 87.3227C69.5469 86.4581 68.1355 87.7445 65.3178 90.5049L64.5417 91.2602C61.5313 94.1977 58.6823 96.9737 54.8698 95.6143C53.9896 95.3018 53.3803 94.7341 53.1042 93.9789C52.7813 93.0987 52.9115 91.9789 53.474 90.8279C54.3178 89.0987 55.9636 87.6352 57.6615 87.0883C60.7084 86.1195 62.1928 84.2133 63.9115 82.0102C65.3646 80.156 67.0053 78.0518 69.8542 76.4164C72.7917 74.7289 73.7917 72.156 74.6771 69.8904C75.1563 68.682 75.599 67.5362 76.2917 66.6143C77.4375 65.0883 78.5625 64.8435 79.3125 64.906C80.3698 64.9945 81.3646 65.7393 82.1563 67.0206C82.6355 66.2654 83.5261 65.6664 84.5417 65.4424C85.6771 65.1872 86.7709 65.4372 87.625 66.1195C87.7917 65.5674 88.1563 64.7445 88.9271 64.1977C89.6823 63.6664 90.6563 63.531 91.8073 63.8018C92.3073 63.9164 92.8282 64.2185 93.3594 64.6872C95.2969 66.3956 97.2969 70.2862 99.0625 73.7237C100.208 75.9529 101.292 78.0622 102.203 79.2758C103.734 81.3122 106.995 84.0518 109.88 86.4633C112.073 88.3018 114.151 90.0362 115.333 91.3487C116.052 92.1352 116.912 93.307 116.932 94.3904C116.953 95.0414 116.667 95.9216 115.214 96.406C114.74 96.5674 114.292 96.6404 113.87 96.6404ZM106.109 90.4424C106.328 90.4424 106.578 90.4997 106.875 90.6143C107.682 90.9268 108.417 91.7966 109.271 92.8018C110.792 94.6039 112.521 96.6456 115.01 95.8122C115.896 95.5206 116.318 95.057 116.297 94.4112C116.281 93.4685 115.391 92.3539 114.865 91.7758C113.703 90.4997 111.646 88.7758 109.469 86.9477C106.417 84.3956 103.266 81.7549 101.693 79.656C100.75 78.4008 99.6563 76.2706 98.5 74.0154C96.7553 70.6352 94.7865 66.7966 92.9375 65.1664H92.9323C92.4844 64.7654 92.0521 64.5154 91.6615 64.4216C90.6928 64.1977 89.8959 64.2966 89.2865 64.7185C88.3021 65.406 88.125 66.7497 88.1198 66.7706L88.0365 67.4477L87.5782 66.9424C86.8386 66.1404 85.7761 65.8174 84.6719 66.0622C83.6146 66.2966 82.7344 66.9945 82.474 67.8018L82.2448 68.531L81.8959 67.8539C81.1771 66.4633 80.2136 65.6195 79.2553 65.5362C78.4167 65.4633 77.5625 65.9685 76.7917 66.9997C76.1563 67.8487 75.7188 68.9581 75.2657 70.1247C74.3386 72.4841 73.2917 75.1612 70.1615 76.9633C67.4219 78.5414 65.8907 80.5049 64.4063 82.4008C62.698 84.5935 61.0782 86.6664 57.849 87.6924C56.3073 88.182 54.8073 89.5258 54.0365 91.1039C53.5469 92.0987 53.4271 93.0414 53.6928 93.7602C53.9063 94.3435 54.375 94.7706 55.0834 95.0206C58.5209 96.2445 61.1042 93.7237 64.099 90.807L64.8698 90.057C67.7136 87.2706 69.4323 85.5935 71.0886 86.8122C71.7396 87.2914 72.1303 88.0206 72.5 88.7185C73.0573 89.7706 73.5417 90.682 74.8021 90.5883C76.8646 90.4477 77.7448 89.031 78.599 87.656C79.4323 86.3122 80.2969 84.9216 82.2344 85.2862C84.0365 85.6195 84.75 86.0466 85.2188 86.3331C85.6563 86.5935 85.823 86.6924 86.599 86.5102C87.6875 86.2654 88.0938 86.6716 88.4219 87.0049C88.698 87.2862 88.9219 87.5049 89.6511 87.406C90.0834 87.3435 90.474 87.2237 90.8125 87.1143C91.4063 86.9268 91.9219 86.7602 92.3803 87.031C92.7813 87.2602 93.0573 87.781 93.2709 88.7133C93.5365 89.8956 94.0678 90.7393 94.7605 91.1039C95.1928 91.3331 95.6719 91.3643 96.1094 91.1872C96.448 91.0466 96.5469 90.6299 96.6667 90.0102C96.7657 89.4685 96.8698 88.9112 97.3125 88.6352C97.5834 88.4633 97.9271 88.4424 98.3542 88.5622C99.224 88.7966 99.9532 89.7862 100.724 90.8435C101.646 92.1039 102.604 93.4112 103.667 93.1352C104.552 92.906 104.76 92.2602 104.958 91.6352C105.099 91.1924 105.245 90.7341 105.667 90.5362C105.797 90.4737 105.943 90.4424 106.109 90.4424Z" fill="black"/>
<path d="M91.1613 80.0312C90.3696 80.0312 89.0363 79.5365 87.3853 77.0365L87.9113 76.6875C89.1405 78.5521 90.4373 79.5625 91.38 79.3802C91.8071 79.2969 92.13 78.9427 92.2394 78.4271L92.3071 78.1094L92.6196 78.1875C94.2342 78.5937 95.2186 78.599 95.6248 78.2188C95.8748 77.9844 95.9478 77.5417 95.828 76.9167L96.4478 76.8021C96.6092 77.6563 96.4738 78.2865 96.0623 78.6771C95.4894 79.2135 94.4998 79.276 92.7655 78.8698C92.5415 79.474 92.0884 79.8854 91.4894 80C91.4009 80.0208 91.2915 80.0312 91.1613 80.0312Z" fill="black"/>
<path d="M75.745 80.8851C75.0263 80.8851 74.4273 80.5882 74.1408 80.0778C73.9586 79.7653 73.7606 79.0934 74.3961 78.1143L74.9273 78.458C74.5888 78.9736 74.5054 79.4424 74.6877 79.7653C74.8752 80.0882 75.3075 80.2705 75.8336 80.2497C76.5783 80.2184 77.5679 79.7497 78.1356 78.5257L78.7086 78.7861C78.0263 80.2705 76.7919 80.8382 75.8596 80.8799C75.8179 80.8851 75.7815 80.8851 75.745 80.8851Z" fill="black"/>
<path d="M46.3958 125.047C45.474 125.047 44.5156 124.692 43.5312 123.994L43.8958 123.479C44.9844 124.255 46.0156 124.552 46.9635 124.364C47.8281 124.187 48.6198 123.593 49.1875 122.677L49.724 123.01C49.0625 124.073 48.125 124.771 47.0885 124.979C46.8646 125.026 46.6302 125.047 46.3958 125.047Z" fill="black"/>
<path d="M49.7293 123.005L49.1929 122.672C49.4585 122.245 49.6616 121.786 49.797 121.297L50.4012 121.464C50.2554 122.01 50.0262 122.526 49.7293 123.005Z" fill="black"/>
<path d="M39.5102 124.823C38.0518 124.823 36.9737 124.151 36.4373 123.245C35.7289 122.042 35.9841 120.578 37.0362 119.547C36.6716 119.313 36.3539 119.052 36.0883 118.771C34.4893 117.094 35.0102 115.115 35.9425 113.933C36.8539 112.771 38.505 111.917 40.1143 112.584C40.7498 109.563 42.2498 108.729 43.1091 108.5C44.2966 108.193 45.6039 108.662 46.4529 109.693C47.2602 110.683 47.4789 111.948 47.0779 113.177C48.9581 112.865 50.2498 113.729 50.7289 114.818C51.1404 115.761 50.9998 117.058 49.8331 118C50.5987 118.625 50.8331 119.933 50.406 121.453L49.8018 121.281C50.13 120.104 50.0623 118.672 49.1404 118.323L48.5466 118.094L49.0883 117.755C50.3904 116.953 50.4737 115.808 50.1508 115.068C49.7289 114.12 48.4841 113.396 46.6456 113.917L45.9581 114.11L46.2758 113.474C46.8539 112.302 46.7341 111.042 45.9581 110.089C45.2706 109.245 44.2133 108.86 43.2706 109.11C41.9685 109.453 41.0414 110.87 40.656 113.099L40.5831 113.542L40.1873 113.318C38.7862 112.511 37.2602 113.271 36.4373 114.318C35.6612 115.308 35.2237 116.948 36.5414 118.339C36.8539 118.662 37.2498 118.959 37.7237 119.219L38.1404 119.453L37.7602 119.745C36.4998 120.719 36.4581 122.042 36.9789 122.922C37.5883 123.953 39.1977 124.776 41.7133 123.683L41.7654 123.662C41.7914 123.651 41.8175 123.641 41.8435 123.625L42.1143 124.198C42.0779 124.214 42.0414 124.229 42.005 124.245L41.9633 124.261C41.0675 124.656 40.2393 124.823 39.5102 124.823Z" fill="black"/>
<path d="M21.5207 111.276C17.3384 110.984 16.578 110.505 16.3853 110.073C16.328 109.953 16.2707 109.718 16.479 109.442C16.6925 109.166 17.1561 108.922 17.6925 108.635C18.0675 108.437 18.7603 108.073 18.854 107.875C18.8175 107.838 18.6769 107.724 18.2238 107.593C17.2082 107.302 14.979 107.385 12.8228 107.463C9.68734 107.583 6.7238 107.698 5.82796 106.869L5.49463 106.557L5.90088 106.354C6.979 105.817 9.07275 104.317 11.4946 102.583C15.9425 99.4007 20.979 95.8018 22.9165 95.8018C22.9269 95.8018 22.9373 95.8018 22.9478 95.8018C24.5623 95.833 25.9217 97.3538 27.1196 98.6924C28.1457 99.8434 29.1248 100.937 30.005 100.869C30.9946 100.797 31.8071 100.385 32.5936 99.984C33.505 99.5205 34.3644 99.0882 35.4113 99.182C37.2967 99.3486 41.3384 101.64 41.5103 101.734L41.1978 102.281C41.1561 102.26 37.104 99.9632 35.354 99.807C34.4842 99.7288 33.7394 100.109 32.8748 100.547C32.0728 100.953 31.1613 101.411 30.0519 101.5C28.8592 101.583 27.7811 100.385 26.6457 99.109C25.4842 97.8018 24.2759 96.4528 22.9321 96.4268C21.229 96.3903 15.8123 100.265 11.8592 103.093C9.74984 104.604 7.88525 105.937 6.69775 106.635C7.86442 107.021 10.5675 106.916 12.7967 106.833C15.104 106.744 17.2811 106.666 18.3957 106.984C18.8748 107.125 19.4373 107.343 19.4842 107.802C19.5415 108.364 18.8175 108.744 17.9842 109.187C17.5728 109.406 17.104 109.651 16.9738 109.823C16.9686 109.823 16.9686 109.828 16.9686 109.828C17.0675 109.937 17.7082 110.369 21.5623 110.64L21.5207 111.276Z" fill="black"/>
<mask id="mask1_5546_11869" style="mask-type:luminance" maskUnits="userSpaceOnUse" x="0" y="105" width="159" height="40">
<path d="M0.333496 105.333H159V144.422H0.333496V105.333Z" fill="white"/>
</mask>
<g mask="url(#mask1_5546_11869)">
<path d="M71.323 144.016C70.5157 144.016 69.6928 144.01 68.8543 144.005C57.0209 143.938 47.8335 143.344 41.5626 142.245C36.2501 141.318 33.4845 140.109 33.3595 138.661C33.2814 137.797 34.1772 137.031 35.8647 136.448C30.3751 136.172 18.4376 134.974 12.0366 133.922C9.4272 133.495 8.11991 132.755 8.04178 131.661C7.90116 129.797 11.7605 127.708 15.6512 126.458C17.2241 125.953 18.5939 124.698 18.4689 123.88C18.4116 123.5 17.8855 122.599 14.2189 122.547C10.3647 122.49 1.39595 122.026 1.31782 118.969C1.28136 117.677 3.89074 116.693 6.90636 115.557C8.9272 114.792 11.4376 113.849 11.6303 113.156C11.6512 113.068 11.6407 112.995 11.5887 112.911C11.0782 112.104 8.00011 111.568 5.53136 111.135C4.10949 110.885 2.76053 110.651 1.8647 110.375C0.484488 109.953 0.35428 109.245 0.395947 108.859C0.552196 107.594 2.97407 106.505 6.03136 106.328L6.06782 106.958C2.91157 107.141 1.10949 108.224 1.02616 108.938C0.968863 109.391 1.72407 109.672 2.0522 109.776C2.91157 110.042 4.2397 110.271 5.64074 110.516C9.15636 111.13 11.5105 111.604 12.1251 112.573C12.2709 112.802 12.3126 113.063 12.2397 113.318C11.9845 114.255 10.1407 115.01 7.13032 116.146C4.93241 116.974 1.9272 118.109 1.94803 118.953C2.00011 120.87 8.15115 121.823 14.2293 121.917C17.2814 121.964 18.922 122.594 19.0991 123.792C19.2866 125.062 17.573 126.505 15.8491 127.057C11.6668 128.401 8.57824 130.365 8.67199 131.615C8.72407 132.349 9.95845 132.948 12.1407 133.307C19.5418 134.521 35.0939 135.99 38.172 135.88L38.2397 136.505C35.2241 137.063 33.9324 137.964 33.9897 138.615C34.0262 139.01 34.6824 140.406 41.6772 141.63C47.9168 142.724 57.0626 143.312 68.8647 143.385C93.3907 143.521 99.2918 141.526 99.9272 139.823C100.25 138.969 99.1043 137.99 98.3543 137.344C97.8022 136.875 97.6199 136.438 97.771 136.031C98.2918 134.698 103.115 134.661 105.938 134.755C106.287 134.771 106.656 134.776 107.042 134.786C110.323 134.859 114.818 134.958 120.177 137.589C122.698 138.823 127.151 139.375 133.042 139.177C137.979 139.016 143.068 138.349 146.182 137.786C149.755 137.135 153.636 135.323 153.787 133.24C153.875 132.109 152.849 130.38 147.479 128.542L145.688 127.927H147.583C152.781 127.927 157.557 126.443 157.823 125.229C157.922 124.776 157.193 124.365 156.745 124.161C155.255 123.479 153.87 123.141 152.854 122.896C151.656 122.604 150.932 122.432 150.802 121.885C150.703 121.484 150.979 121.052 151.745 120.385C152.839 119.443 154.354 119.005 155.693 118.62C156.787 118.307 157.818 118.005 158.011 117.547C158.031 117.484 158.109 117.297 157.88 116.88C157.396 116.021 155.219 115.281 153.474 114.682C151.151 113.891 149.828 113.401 149.787 112.583C149.755 111.99 150.448 111.599 150.969 111.359L151.099 111.641L151.318 111.875L151.24 111.932C150.583 112.234 150.417 112.464 150.417 112.552C150.438 112.984 152.386 113.646 153.677 114.089C155.719 114.786 157.823 115.505 158.427 116.568C158.677 117.021 158.734 117.432 158.589 117.786C158.287 118.531 157.219 118.839 155.87 119.224C154.594 119.594 153.146 120.01 152.156 120.865C151.375 121.542 151.412 121.729 151.412 121.734C151.453 121.906 152.349 122.125 153 122.281C154.042 122.531 155.469 122.875 157.011 123.583C158.104 124.089 158.589 124.688 158.443 125.359C158.078 127.031 153.583 128.255 149.214 128.505C152.797 129.948 154.547 131.552 154.417 133.286C154.234 135.708 150.193 137.693 146.297 138.401C139.761 139.589 125.839 141.068 119.896 138.151C114.662 135.589 110.245 135.49 107.021 135.417C106.636 135.406 106.261 135.401 105.912 135.385C101.234 135.229 98.573 135.708 98.3543 136.26C98.3074 136.38 98.448 136.604 98.7397 136.844C99.646 137.625 100.984 138.776 100.516 140.042C100.037 141.323 97.7293 142.26 93.4637 142.906C88.6251 143.641 81.1824 144.016 71.323 144.016Z" fill="black"/>
</g>
<path d="M24.2812 118.907C18.4427 118.907 14.2292 118.615 13.2604 117.354L12.9531 116.953L13.4427 116.854C15.5729 116.407 18.9531 114.938 23.5 112.479L23.8021 113.037C19.625 115.287 16.4063 116.724 14.2135 117.313C16.401 118.443 24.3021 118.308 29.6875 118.219C32.5469 118.167 35.0052 118.125 36.3438 118.24L36.2865 118.87C34.9844 118.756 32.5365 118.797 29.6979 118.844C27.7865 118.881 25.9687 118.907 24.2812 118.907Z" fill="black"/>
<path d="M23.8075 113.031L23.5054 112.479C24.1043 112.156 24.7189 111.817 25.3387 111.468C26.547 110.791 27.8022 110.067 29.0679 109.317C31.4377 107.916 34.0054 106.343 36.6929 104.635C38.2241 103.661 39.7397 102.692 41.1825 101.744C46.2345 98.4476 50.8179 95.3018 53.2085 93.6143L53.5731 94.1299C51.1825 95.8226 46.5887 98.9736 41.5314 102.276C40.0783 103.218 38.5679 104.198 37.0314 105.166C34.3387 106.875 31.771 108.453 29.3908 109.859C28.1252 110.614 26.8647 111.338 25.646 112.015C25.021 112.364 24.4116 112.703 23.8075 113.031Z" fill="black"/>
<path d="M150.833 111.958C147.573 111.958 144.286 111.807 143.651 111.776L143.641 111.146H143.677C144.333 111.177 147.776 111.339 151.099 111.323C154.885 111.312 156.464 111.083 157.12 110.901C153.464 108.578 150.88 106.458 148.974 104.891C147.12 103.37 145.896 102.365 145.12 102.365C144.214 102.365 142.318 104.073 140.479 105.724C138.984 107.062 137.443 108.448 136.109 109.255L135.781 108.719C137.068 107.943 138.589 106.578 140.057 105.255C142.156 103.365 143.974 101.734 145.12 101.734C146.12 101.734 147.349 102.745 149.375 104.406C151.354 106.031 154.062 108.255 157.943 110.677L158.292 110.896L157.99 111.177C157.766 111.385 157.172 111.943 151.104 111.964C151.01 111.958 150.922 111.958 150.833 111.958Z" fill="black"/>
<path d="M74.047 130.36C68.1929 130.36 63.2345 130.146 60.5522 129.703L60.6043 129.401V129.078L60.6564 129.084C69.9741 130.631 107.078 129.375 112.599 126.172C113.412 125.698 113.432 125.438 113.422 125.37C113.281 124.589 109.344 123.907 106.745 123.453C102.557 122.729 99.9793 122.214 99.521 121.188C99.4429 120.995 99.3856 120.693 99.6147 120.339C100.62 118.771 106.755 118.375 116.745 117.912C122.886 117.625 129.235 117.328 131.708 116.459L131.792 116.433L132.026 117.016L131.932 117.052C129.354 117.959 123.245 118.24 116.771 118.542C109.401 118.881 101.047 119.271 100.146 120.677C100.052 120.823 100.083 120.896 100.099 120.927C100.453 121.724 104 122.339 106.849 122.834C111.172 123.578 113.833 124.099 114.042 125.256C114.172 125.985 113.224 126.537 112.912 126.714C108.917 129.032 88.6929 130.36 74.047 130.36Z" fill="black"/>
<path d="M52.4844 111.49L64.2448 97.0156L64.7344 97.4115L52.974 111.885L52.4844 111.49Z" fill="black"/>
<path d="M72.7186 116.078L72.1665 115.76C73.5832 113.286 79.2498 97.4531 79.2134 95.5417L79.8436 95.5312C79.8748 97.3542 74.4165 113.099 72.7186 116.078Z" fill="black"/>
<path d="M101.651 113.547C100.453 112.125 93.172 99.7188 93.4064 96.0938L94.0366 96.1354C93.9429 97.5365 95.1877 100.807 97.5418 105.333C99.4897 109.089 101.563 112.464 102.136 113.141L101.651 113.547Z" fill="black"/>
<path d="M120.583 113.631C118.406 112.714 109.234 102.292 108.328 100.375L108.896 100.104C109.75 101.917 118.802 112.198 120.828 113.052L120.583 113.631Z" fill="black"/>
<path d="M31.6509 81.9163C30.8748 81.9163 30.2446 81.2913 30.2446 80.5153C30.2446 79.7445 30.8748 79.1143 31.6509 79.1143C32.4217 79.1143 33.0519 79.7445 33.0519 80.5153C33.0519 81.2913 32.4217 81.9163 31.6509 81.9163ZM31.6509 79.7445C31.2238 79.7445 30.8748 80.0934 30.8748 80.5153C30.8748 80.9424 31.2238 81.2913 31.6509 81.2913C32.078 81.2913 32.4217 80.9424 32.4217 80.5153C32.4217 80.0934 32.0728 79.7445 31.6509 79.7445Z" fill="black"/>
<path d="M44.0939 64.3073C43.3231 64.3073 42.6929 63.6771 42.6929 62.901C42.6929 62.1302 43.3231 61.5 44.0939 61.5C44.8647 61.5 45.495 62.1302 45.495 62.901C45.495 63.6771 44.87 64.3073 44.0939 64.3073ZM44.0939 62.1302C43.6668 62.1302 43.3231 62.474 43.3231 62.901C43.3231 63.3281 43.6668 63.6771 44.0939 63.6771C44.521 63.6771 44.8647 63.3281 44.8647 62.901C44.8647 62.4792 44.521 62.1302 44.0939 62.1302Z" fill="black"/>
<path d="M51.0885 68.6149C50.3177 68.6149 49.6875 67.9847 49.6875 67.2139C49.6875 66.4378 50.3177 65.8076 51.0885 65.8076C51.8594 65.8076 52.4896 66.4378 52.4896 67.2139C52.4896 67.9847 51.8646 68.6149 51.0885 68.6149ZM51.0885 66.4378C50.6615 66.4378 50.3177 66.7868 50.3177 67.2139C50.3177 67.641 50.6615 67.9847 51.0885 67.9847C51.5156 67.9847 51.8594 67.641 51.8594 67.2139C51.8594 66.7868 51.5156 66.4378 51.0885 66.4378Z" fill="black"/>
<path d="M64.4894 58.4997C63.7186 58.4997 63.0884 57.8695 63.0884 57.0934C63.0884 56.3226 63.7186 55.6924 64.4894 55.6924C65.2603 55.6924 65.8905 56.3226 65.8905 57.0934C65.8957 57.8695 65.2655 58.4997 64.4894 58.4997ZM64.4894 56.3226C64.0623 56.3226 63.7186 56.6663 63.7186 57.0934C63.7186 57.5205 64.0623 57.8695 64.4894 57.8695C64.9165 57.8695 65.2603 57.5205 65.2603 57.0934C65.2603 56.6663 64.9165 56.3226 64.4894 56.3226Z" fill="black"/>
<path d="M65.5783 75.9222C64.8075 75.9222 64.1772 75.292 64.1772 74.5212C64.1772 73.7503 64.8075 73.1201 65.5783 73.1201C66.3491 73.1201 66.9793 73.7503 66.9793 74.5212C66.9793 75.292 66.3491 75.9222 65.5783 75.9222ZM65.5783 73.7503C65.1512 73.7503 64.8075 74.0993 64.8075 74.5212C64.8075 74.9482 65.1512 75.292 65.5783 75.292C66.0054 75.292 66.3491 74.9482 66.3491 74.5212C66.3491 74.0941 66.0054 73.7503 65.5783 73.7503Z" fill="black"/>
<path d="M35.2344 87.1559C34.4583 87.1559 33.8281 86.5257 33.8281 85.7549C33.8281 84.9788 34.4583 84.3486 35.2344 84.3486C36.0052 84.3486 36.6354 84.9788 36.6354 85.7549C36.6354 86.5257 36.0104 87.1559 35.2344 87.1559ZM35.2344 84.9788C34.8073 84.9788 34.4583 85.3226 34.4583 85.7497C34.4583 86.1768 34.8073 86.5205 35.2344 86.5205C35.6615 86.5205 36.0052 86.1715 36.0052 85.7497C36.0052 85.3226 35.6615 84.9788 35.2344 84.9788Z" fill="black"/>
<path d="M19.4113 71.6097C18.6405 71.6097 18.0103 70.9847 18.0103 70.2087C18.0103 69.4378 18.6405 68.8076 19.4113 68.8076C20.1821 68.8076 20.8123 69.4378 20.8123 70.2087C20.8175 70.9847 20.1873 71.6097 19.4113 71.6097ZM19.4113 69.4378C18.9842 69.4378 18.6405 69.7816 18.6405 70.2087C18.6405 70.6357 18.9842 70.9847 19.4113 70.9847C19.8384 70.9847 20.1821 70.6357 20.1821 70.2087C20.1821 69.7816 19.8384 69.4378 19.4113 69.4378Z" fill="black"/>
<path d="M40.3022 49.7601C39.5262 49.7601 38.896 49.1299 38.896 48.359C38.896 47.5882 39.5262 46.958 40.3022 46.958C41.0731 46.958 41.7033 47.5882 41.7033 48.359C41.7033 49.1299 41.0731 49.7601 40.3022 49.7601ZM40.3022 47.5882C39.8752 47.5882 39.5262 47.932 39.5262 48.359C39.5262 48.7861 39.8752 49.1299 40.3022 49.1299C40.7293 49.1299 41.0731 48.7861 41.0731 48.359C41.0731 47.932 40.7293 47.5882 40.3022 47.5882Z" fill="black"/>
<path d="M128.323 76.0003C127.547 76.0003 126.917 75.3753 126.917 74.5993C126.917 73.8285 127.547 73.1982 128.323 73.1982C129.094 73.1982 129.724 73.8285 129.724 74.5993C129.724 75.3753 129.094 76.0003 128.323 76.0003ZM128.323 73.8285C127.896 73.8285 127.547 74.1774 127.547 74.5993C127.547 75.0264 127.896 75.3753 128.323 75.3753C128.75 75.3753 129.094 75.0264 129.094 74.5993C129.094 74.1722 128.745 73.8285 128.323 73.8285Z" fill="black"/>
<path d="M129.406 55.891C128.636 55.891 128.005 55.2607 128.005 54.4899C128.005 53.7191 128.636 53.0889 129.406 53.0889C130.177 53.0889 130.807 53.7191 130.807 54.4899C130.807 55.2607 130.182 55.891 129.406 55.891ZM129.406 53.7191C128.979 53.7191 128.636 54.0628 128.636 54.4899C128.636 54.917 128.985 55.2607 129.406 55.2607C129.833 55.2607 130.177 54.917 130.177 54.4899C130.177 54.0628 129.833 53.7191 129.406 53.7191Z" fill="black"/>
<path d="M116.62 64.3073C115.844 64.3073 115.213 63.6771 115.213 62.901C115.213 62.1302 115.844 61.5 116.62 61.5C117.39 61.5 118.021 62.1302 118.021 62.901C118.021 63.6771 117.39 64.3073 116.62 64.3073ZM116.62 62.1302C116.193 62.1302 115.844 62.474 115.844 62.901C115.844 63.3281 116.193 63.6771 116.62 63.6771C117.047 63.6771 117.39 63.3281 117.39 62.901C117.39 62.4792 117.042 62.1302 116.62 62.1302Z" fill="black"/>
<path d="M115.578 57.5729C114.802 57.5729 114.172 56.9427 114.172 56.1719C114.172 55.3958 114.802 54.7656 115.578 54.7656C116.349 54.7656 116.979 55.3958 116.979 56.1719C116.979 56.9427 116.349 57.5729 115.578 57.5729ZM115.578 55.3958C115.151 55.3958 114.802 55.7448 114.802 56.1719C114.802 56.599 115.151 56.9427 115.578 56.9427C116 56.9427 116.349 56.599 116.349 56.1719C116.349 55.7448 116 55.3958 115.578 55.3958Z" fill="black"/>
<path d="M137.995 38.6774C137.224 38.6774 136.594 38.0472 136.594 37.2764C136.594 36.5003 137.224 35.8701 137.995 35.8701C138.766 35.8701 139.396 36.5003 139.396 37.2764C139.396 38.0472 138.766 38.6774 137.995 38.6774ZM137.995 36.5003C137.568 36.5003 137.224 36.8493 137.224 37.2764C137.224 37.7035 137.573 38.0472 137.995 38.0472C138.422 38.0472 138.766 37.7035 138.766 37.2764C138.766 36.8493 138.422 36.5003 137.995 36.5003Z" fill="black"/>
<path d="M100.188 56.484C99.4115 56.484 98.7812 55.8538 98.7812 55.083C98.7812 54.307 99.4115 53.6768 100.188 53.6768C100.958 53.6768 101.589 54.307 101.589 55.083C101.594 55.8538 100.964 56.484 100.188 56.484ZM100.188 54.307C99.7604 54.307 99.4115 54.6507 99.4115 55.083C99.4115 55.5101 99.7604 55.8538 100.188 55.8538C100.615 55.8538 100.958 55.5101 100.958 55.083C100.958 54.6559 100.615 54.307 100.188 54.307Z" fill="black"/>
<path d="M108.61 77.5781C107.839 77.5781 107.208 76.9479 107.208 76.1719C107.208 75.3958 107.839 74.7656 108.61 74.7656C109.386 74.7656 110.016 75.3958 110.016 76.1719C110.016 76.9479 109.386 77.5781 108.61 77.5781ZM108.61 75.3958C108.182 75.3958 107.839 75.7448 107.839 76.1719C107.839 76.599 108.188 76.9427 108.61 76.9427C109.037 76.9427 109.386 76.5937 109.386 76.1719C109.386 75.7448 109.037 75.3958 108.61 75.3958Z" fill="black"/>
<path d="M145.771 72.057C145 72.057 144.37 71.4268 144.37 70.6559C144.37 69.8851 145 69.2549 145.771 69.2549C146.542 69.2549 147.172 69.8851 147.172 70.6559C147.172 71.4268 146.542 72.057 145.771 72.057ZM145.771 69.8799C145.344 69.8799 145 70.2236 145 70.6507C145 71.0778 145.344 71.4268 145.771 71.4268C146.198 71.4268 146.542 71.0778 146.542 70.6507C146.542 70.2288 146.193 69.8799 145.771 69.8799Z" fill="black"/>
<path d="M25.9689 53.7184C25.1981 53.7184 24.5679 53.0882 24.5679 52.3122C24.5679 51.5413 25.1981 50.9111 25.9689 50.9111C26.7397 50.9111 27.37 51.5413 27.37 52.3122C27.37 53.0882 26.7397 53.7184 25.9689 53.7184ZM25.9689 51.5413C25.5418 51.5413 25.1981 51.8851 25.1981 52.3122C25.1981 52.7393 25.5418 53.0882 25.9689 53.0882C26.396 53.0882 26.7397 52.7393 26.7397 52.3122C26.7397 51.8851 26.396 51.5413 25.9689 51.5413Z" fill="black"/>
<path d="M48.9165 86.068C48.1405 86.068 47.5103 85.4378 47.5103 84.6618C47.5103 83.891 48.1405 83.2607 48.9165 83.2607C49.6873 83.2607 50.3175 83.891 50.3175 84.6618C50.3175 85.4378 49.6873 86.068 48.9165 86.068ZM48.9165 83.891C48.4842 83.891 48.1405 84.2399 48.1405 84.6618C48.1405 85.0889 48.4842 85.4378 48.9165 85.4378C49.3436 85.4378 49.6873 85.0889 49.6873 84.6618C49.6873 84.2347 49.3436 83.891 48.9165 83.891Z" fill="black"/>
<path d="M45.8854 132.792L45.3542 132.453C45.5156 132.161 45.4687 131.75 45.25 131.479C45.0937 131.286 44.7917 131.089 44.2396 131.245C43.8177 131.359 43.3437 131.661 42.8385 132.141L42.1458 132.786L42.3125 131.854C42.4115 131.266 42.3385 130.807 42.0885 130.51C41.9063 130.297 41.6354 130.177 41.3177 130.177C40.8073 130.177 40.1719 130.505 39.9844 131.219L39.375 131.057C39.6094 130.167 40.4063 129.547 41.3177 129.547C41.8177 129.547 42.2656 129.745 42.5677 130.104C42.75 130.318 42.9375 130.667 42.974 131.198C43.3542 130.917 43.7187 130.729 44.0625 130.63C44.7396 130.438 45.349 130.599 45.7344 131.078C45.901 131.286 46.0104 131.536 46.0521 131.802C46.6615 131.438 47.349 131.448 47.8438 131.615C48.4063 131.802 48.776 132.188 48.776 132.604H48.1458C48.1458 132.51 47.9688 132.318 47.6458 132.214C47.1302 132.042 46.401 132.104 45.8854 132.792Z" fill="black"/>
<path d="M143.151 124.427C142.083 124.427 141.057 123.958 140.198 123.042L140.656 122.614C142.177 124.229 143.766 123.844 144.573 123.469C146.021 122.802 147.088 121.234 146.953 119.974C146.854 119.062 146.151 118.432 144.911 118.161L143.766 117.911L144.885 117.552C145.604 117.323 146.151 116.63 146.276 115.786C146.38 115.094 146.161 114.463 145.708 114.151C145.062 113.703 143.974 113.875 142.641 114.625L142.286 114.104C143.323 113.271 143.427 112.229 143.328 111.5C143.135 110.088 142.12 108.911 141.245 108.588C140.203 108.203 138.146 108.516 137.161 109.885C136.536 110.745 136.411 111.88 136.792 113.26L136.927 113.76L136.417 113.646C134.458 113.229 132.995 113.443 132.307 114.255C131.807 114.844 131.734 115.713 132.104 116.641C132.63 117.974 134.12 119.344 136.135 119.203L138.057 119.062L136.281 119.807C135.531 120.12 135.094 120.599 135.062 121.156C135.026 121.703 135.375 122.271 135.948 122.604C136.651 123.005 137.474 122.953 138.208 122.463L138.562 122.984C137.635 123.609 136.542 123.672 135.635 123.151C134.854 122.703 134.385 121.906 134.432 121.114C134.453 120.786 134.578 120.26 135.114 119.786C133.328 119.5 132.026 118.172 131.516 116.875C131.068 115.739 131.177 114.609 131.823 113.849C132.391 113.187 133.578 112.51 136.068 112.943C135.797 111.594 136 110.422 136.651 109.521C137.854 107.844 140.26 107.552 141.463 108C142.682 108.448 143.75 109.917 143.958 111.422C144.057 112.172 143.932 112.88 143.604 113.495C144.828 113.088 145.604 113.318 146.068 113.635C146.719 114.083 147.042 114.948 146.901 115.885C146.786 116.661 146.38 117.344 145.807 117.776C147.193 118.323 147.516 119.312 147.583 119.906C147.75 121.437 146.542 123.255 144.838 124.042C144.276 124.297 143.708 124.427 143.151 124.427Z" fill="black"/>
<path d="M43.8385 130.958L43.3177 122.453L45.2917 119.693L43.1354 121.031L43.0052 119.578L43.276 117.432L42.4062 119.516L40.5 118.25L42.1615 121.531V129.865H41.5312V121.682L38.8594 116.396L42.1198 118.573L44.474 112.922L43.6406 119.594L43.6719 119.953L47.6302 117.495L43.9583 122.641L44.4688 130.922L43.8385 130.958Z" fill="black"/>
<path d="M58.0261 130.792C57.5105 130.792 56.9532 130.703 56.349 130.49L56.5574 129.896C58.3699 130.531 59.7397 129.912 60.3594 129.188C60.724 128.761 60.8699 128.271 60.7813 127.807C60.6772 127.266 60.2657 126.787 59.5886 126.427L58.7865 126L59.6824 125.839C60.9584 125.609 62.2709 124.589 62.3282 123.781C62.3751 123.172 61.6511 122.802 61.0365 122.594L60.6355 122.464L60.8751 122.115C61.3022 121.484 61.3751 120.797 61.073 120.172C60.6928 119.396 59.8334 118.859 58.8751 118.797C58.2188 118.755 56.9688 118.917 55.9532 120.469L55.6459 120.938L55.4063 120.427C55.3074 120.214 54.7292 119.886 53.9063 119.813C53.2605 119.755 51.6459 119.807 50.4167 121.469V121.682H50.2709C50.0417 122.037 49.8751 122.438 49.7761 122.875L49.7709 122.901C49.474 124.24 49.8907 125.745 50.8282 126.74C51.7397 127.703 53.0469 128.094 54.5001 127.854C54.5469 127.849 54.5938 127.839 54.6355 127.833L54.7553 128.453C54.7032 128.464 54.6459 128.474 54.5938 128.484C52.9324 128.755 51.4324 128.292 50.3751 127.177C49.2865 126.026 48.8178 124.354 49.1459 122.802L49.1511 122.766C49.2761 122.219 49.4897 121.714 49.7865 121.271L49.7969 121.261C49.8126 121.234 49.8282 121.214 49.8438 121.193L49.9376 121.057C51.3542 119.177 53.2188 119.12 53.9584 119.188C54.6563 119.25 55.2813 119.479 55.6615 119.792C56.5157 118.677 57.6824 118.094 58.9115 118.172C60.0886 118.245 61.1615 118.922 61.6355 119.896C61.9844 120.62 61.9688 121.401 61.5938 122.136C62.7761 122.63 62.9897 123.318 62.9584 123.828C62.8855 124.859 61.7136 125.833 60.4949 126.271C61.099 126.755 61.3282 127.292 61.4011 127.693C61.5313 128.349 61.3282 129.026 60.8438 129.599C60.3074 130.224 59.3178 130.792 58.0261 130.792Z" fill="black"/>
<path d="M55.995 136.484L55.8647 136.036C55.7554 135.656 55.2137 135.385 54.547 135.369C53.8075 135.354 53.0627 135.656 52.4793 136.182L52.0522 135.718C52.7554 135.083 53.672 134.739 54.5575 134.739C55.3127 134.755 55.9533 135.036 56.2814 135.484C56.37 135.427 56.4585 135.369 56.547 135.317C57.62 134.739 58.2762 135.078 58.5054 135.255C58.8283 135.494 58.9897 135.875 58.922 136.208L58.3022 136.078C58.3179 136.01 58.271 135.869 58.1252 135.76C57.9897 135.661 57.5991 135.463 56.8491 135.869C56.6877 135.963 56.5158 136.078 56.3543 136.198L55.995 136.484Z" fill="black"/>
<path d="M56.7033 135.599H56.3908L55.9897 128.979L57.646 127.328L56.0418 127.646V125.062L57.271 123.406L55.4689 124.38L54.6877 123.708L55.1512 125.12V126.5L53.3856 125.885L54.8647 127.443V135.052L54.2345 135.057V127.693L51.146 124.448L54.521 125.615V125.219L53.37 121.745L55.547 123.62L59.4585 121.5L56.672 125.271V126.88L59.5783 126.302L56.6356 129.224L57.021 135.573L56.7033 135.599Z" fill="black"/>
<path d="M136.719 109.958C136.719 109.958 136.365 109.692 135.755 109.239L135.417 108.989C135.052 108.718 134.62 108.396 134.135 108.036L132.271 106.64C132.021 106.458 131.771 106.271 131.51 106.078L127.573 103.125C123.255 99.8799 117.823 95.7757 116.484 94.6455L116.891 94.1611C118.219 95.2861 123.641 99.3799 127.953 102.619L131.891 105.573C132.146 105.765 132.401 105.958 132.646 106.135L134.516 107.531C135 107.89 135.427 108.213 135.792 108.484L136.13 108.734C136.74 109.187 137.094 109.453 137.094 109.453L136.719 109.958Z" fill="black"/>
<path d="M29.5363 109.672L28.9269 109.505C28.9373 109.474 29.1405 108.661 28.3957 108.224L27.854 107.901L28.4373 107.661C29.5832 107.182 29.8748 106.24 29.7707 105.578L30.3957 105.484C30.5259 106.328 30.1717 107.38 29.13 108.01C29.6457 108.568 29.6353 109.307 29.5363 109.672Z" fill="black"/>
<path d="M22.5468 111.552C22.1405 111.552 21.7343 111.448 21.3801 111.235C20.5728 110.745 20.276 109.844 20.5728 108.807C19.6666 107.771 19.2239 105.813 20.0155 104.464C20.4322 103.755 21.5207 102.703 24.1822 103.375C24.6041 102.083 25.3332 101.771 25.7499 101.703C26.3853 101.599 27.0832 101.938 27.4687 102.542C27.703 102.901 27.7916 103.292 27.7343 103.667C28.4999 103.542 29.0468 103.735 29.3957 103.948C29.9322 104.271 30.2968 104.833 30.3957 105.49L29.7707 105.578C29.703 105.115 29.4478 104.714 29.0676 104.485C28.6145 104.208 28.0103 104.188 27.3385 104.422L26.453 104.735L26.9739 103.953C27.276 103.5 27.052 103.057 26.9426 102.891C26.6874 102.495 26.2499 102.266 25.8541 102.333C25.3489 102.412 24.9426 102.953 24.7135 103.844L24.6353 104.162L24.3228 104.068C22.4582 103.526 21.1562 103.776 20.5676 104.787C19.901 105.917 20.328 107.682 21.1562 108.505L21.2968 108.646L21.2343 108.828C20.9478 109.662 21.1249 110.339 21.7135 110.693C22.2864 111.042 23.2395 111.016 23.8385 110.365L24.302 110.792C23.8385 111.287 23.1926 111.552 22.5468 111.552Z" fill="black"/>
<path d="M23.8752 112.984L23.6512 112.75L23.3752 112.619C23.4168 112.521 23.5366 111.911 23.7502 110.531C23.8543 109.896 23.9429 109.302 23.9845 109.031L21.5366 106.599L24.0418 107.208L24.6408 104.364L26.0783 107.224L29.245 106.474L27.8179 107.437C27.7293 107.521 26.87 108.484 26.0887 109.364L25.8075 111.791L25.1772 111.718L25.4845 109.093L25.547 109.021C26.0575 108.442 26.4325 108.021 26.7033 107.724L25.7397 107.948L24.8856 106.255L24.521 107.979L23.5887 107.75L24.6564 108.812L24.6304 108.968C24.6304 108.968 24.5106 109.765 24.37 110.635C24.0314 112.797 23.9689 112.875 23.9012 112.958L23.8752 112.984Z" fill="black"/>
<path d="M31.8854 106.281L31.4375 105.729C31.1146 105.333 30.7917 105.187 30.6354 105.229C30.4948 105.26 30.4219 105.479 30.3906 105.599L30.0885 105.526H29.7656L29.776 105.453C29.9167 104.859 30.2448 104.667 30.4948 104.609C30.8021 104.542 31.1562 104.646 31.4896 104.901C31.9635 103.114 33.2083 102.328 34.2969 102.484C34.9531 102.578 35.599 103.073 35.7031 103.953C36.1354 103.755 36.4583 103.818 36.6615 103.922C37 104.099 37.1979 104.489 37.1719 104.917L36.5417 104.88C36.5521 104.739 36.5 104.552 36.3698 104.484C36.2083 104.401 35.9115 104.505 35.5781 104.771L34.9688 105.255L35.0729 104.479C35.1719 103.734 34.8281 103.198 34.2083 103.109C33.4844 103.005 32.3021 103.578 31.9896 105.583L31.8854 106.281Z" fill="black"/>
<path d="M141.823 130.464L142.047 129.729C142.073 129.641 142.057 129.474 141.917 129.281C141.792 129.115 141.432 128.734 140.635 128.724C140.068 128.714 139.391 128.912 138.682 129.302L138.214 129.563V129.026C138.214 128.557 138.099 128.167 137.885 127.912C137.682 127.662 137.401 127.531 137.047 127.521C136.203 127.484 135.135 128.12 134.089 129.24L133.625 128.813C134.818 127.542 136.036 126.859 137.073 126.891C137.604 126.912 138.057 127.125 138.37 127.51C138.594 127.781 138.745 128.13 138.807 128.531C139.464 128.229 140.073 128.089 140.646 128.094C141.401 128.104 142.052 128.401 142.422 128.912C142.531 129.057 142.609 129.214 142.651 129.365C143.24 129.198 143.875 129.255 144.286 129.406C144.615 129.526 144.839 129.708 144.922 129.938L144.333 130.167C144.323 130.146 144.255 130.068 144.068 130C143.661 129.849 142.99 129.833 142.495 130.099L141.823 130.464Z" fill="black"/>
<path d="M140.328 128.411L139.984 119.464L141.469 117.505L139.953 118.271L139.495 115.786L139.068 118.385L137.354 117.932L138.911 119.318L138.448 127.724L137.818 127.688L138.265 119.583L134.963 116.641L138.557 117.594L139.453 112.109L140.422 117.328L143.614 115.724L140.625 119.667L140.958 128.391L140.328 128.411Z" fill="black"/>
<path d="M134 104.729H134.63L134.646 107.776L134.016 107.782L134 104.729Z" fill="black"/>
<path d="M131.38 105.745L131.078 105.188C131.755 104.818 132.167 103.881 132.172 103.87L132.75 104.115C132.729 104.162 132.255 105.271 131.38 105.745Z" fill="black"/>
<path d="M132.776 106.385H132.146V104.114L129.891 101.619L132.307 102.297L134.974 97.6195L134.401 102.437L137.026 101.343L134.698 104.718C135.167 105.312 135.807 105.573 136.474 105.442C137.094 105.323 137.604 104.89 137.719 104.39C137.813 103.937 137.578 103.5 137.042 103.119L136.271 102.573L137.214 102.547C137.912 102.526 138.589 101.906 138.87 101.338C138.958 101.161 139.141 100.703 138.912 100.38C138.761 100.177 138.307 99.8539 136.953 100.041L135.474 100.244L136.74 99.458C137.234 99.1507 137.474 98.5778 137.37 97.9268C137.266 97.2289 136.828 96.6716 136.287 96.531C135.646 96.3643 134.891 96.7966 134.172 97.7341L133.755 98.281L133.615 97.6039C133.448 96.8018 132.964 96.2601 132.255 96.083C131.365 95.8591 130.307 96.2237 129.682 96.9737C129.047 97.7289 128.964 98.7393 129.453 99.8174L129.651 100.265H129.162C128.734 100.265 128.365 100.448 128.136 100.781C127.802 101.26 127.776 101.979 128.063 102.744L127.474 102.963C127.115 101.994 127.167 101.067 127.62 100.422C127.88 100.041 128.271 99.7862 128.719 99.682C128.182 98.1351 128.776 97.0778 129.203 96.5674C129.979 95.6403 131.292 95.1872 132.406 95.4685C133.177 95.6612 133.745 96.156 134.052 96.8903C135.089 95.7862 135.979 95.7966 136.443 95.9164C137.229 96.1143 137.854 96.8851 138 97.8226C138.083 98.3903 137.984 98.9216 137.719 99.3435C138.542 99.3487 139.109 99.5726 139.422 99.9997C139.729 100.422 139.734 101.01 139.438 101.604C139.156 102.177 138.583 102.765 137.901 103.026C138.422 103.609 138.412 104.182 138.339 104.505C138.172 105.26 137.474 105.88 136.599 106.047C135.62 106.234 134.667 105.802 134.052 104.88L133.932 104.703L135.292 102.734L133.651 103.411L133.984 100.614L132.615 103.021L131.828 102.802L132.776 103.849V106.385Z" fill="black"/>
<path d="M76.2344 66.9067L70.4323 48.4744C67.5573 50.6462 64.3438 51.2973 61.3385 50.3025C58.6094 49.4015 56.3802 47.1827 55.5781 44.589C53.3802 45.4692 51.4479 45.5837 49.8333 44.9171C48.0417 44.1775 47.1146 42.6671 46.7188 41.8129C40.2083 44.6567 32.6667 42.8442 28.3542 39.9171C25.4063 37.9067 23.7865 35.3806 23.7552 32.7556C20.4479 33.74 18.6823 33.0577 17.776 32.2869C16.7917 31.4535 16.3073 30.0994 16.4479 28.615C14.7969 28.3233 13.1875 27.2244 13.3125 25.3858C13.4167 23.8337 14.9115 22.1931 17.9427 22.1671C19.9635 16.266 25.3125 13.9692 29.6875 13.7869C33.276 13.641 36.3073 14.8442 37.4271 16.8233C40.474 14.089 43.1979 14.2192 44.5781 14.5525C45.9063 14.8754 47.0573 15.6358 47.7656 16.6462C50.1198 11.3806 55.9271 7.865 60.7969 6.69312C63.7917 5.96916 66.2865 6.15145 67.7135 7.1827C71.0625 2.59937 78.099 -0.0152134 84.6042 0.953537C90.3125 1.8077 94.4219 5.16708 96.2031 10.4379C97.6354 9.90145 99.3125 9.98479 100.969 10.6879C102.203 11.214 103.318 12.0525 103.833 12.8181C108.036 7.91187 112.87 8.56812 115.406 9.41708C118.63 10.49 121.01 12.7296 121.458 14.3233C125.141 12.5785 128.755 12.49 131.682 14.0837C134.214 15.464 135.948 17.9744 136.385 20.8546C139.177 19.5108 142.021 19.6046 144.24 21.141C146.339 22.5942 147.49 25.1254 147.167 27.5942C146.646 31.5994 143.422 33.1931 141.547 33.7817C138.839 34.6358 135.672 34.4587 134.182 33.4431C133.844 34.7244 133.115 35.7504 132.047 36.4223C130.427 37.4431 128.068 37.641 125.536 36.9692C124.625 38.49 120.583 39.5369 118.016 39.2087C117.922 40.3754 117.073 41.4744 115.625 42.2817C112.896 43.7973 108.224 44.1358 104.698 41.8858C104.432 42.8806 103.464 44.0837 102.146 44.99C100.25 46.2921 98.1875 46.6879 96.4271 46.0994L93.4583 64.9692L92.8333 64.8702L95.9271 45.2192L96.2969 45.3806C98.625 46.365 100.911 45.0733 101.786 44.4692C103.172 43.516 104.161 42.2087 104.13 41.3494L104.109 40.714L104.63 41.0837C107.99 43.5004 112.646 43.214 115.318 41.7296C116.698 40.964 117.453 39.9171 117.385 38.865L117.354 38.4535L117.755 38.5369C120.26 39.0212 124.625 37.8025 125.062 36.5004L125.156 36.2192L125.448 36.2973C127.901 37.0004 130.188 36.8546 131.703 35.8962C132.776 35.2244 133.432 34.1879 133.667 32.8181L133.771 32.1827L134.208 32.6567C135.141 33.6775 138.396 34.1202 141.354 33.1879C143.083 32.641 146.062 31.1827 146.542 27.516C146.828 25.2817 145.786 22.99 143.88 21.6671C141.755 20.1931 138.984 20.1775 136.271 21.615L135.859 21.839L135.812 21.3754C135.516 18.516 133.859 16.0004 131.38 14.641C128.542 13.0942 124.979 13.2452 121.359 15.0785L120.922 15.2973L120.906 14.8025C120.865 13.615 118.625 11.1567 115.208 10.016C112.766 9.20354 108.057 8.57854 104.021 13.5785L103.667 14.016L103.479 13.49C103.26 12.8806 102.172 11.8806 100.724 11.2712C99.7812 10.8754 97.9427 10.3337 96.1406 11.1515L95.8177 11.3025L95.7135 10.964C93.4896 3.92229 87.7396 2.06291 84.5104 1.58375C78.099 0.63062 71.1771 3.25041 68.0417 7.81812L67.8385 8.115L67.5729 7.87541C66.375 6.8077 63.8958 6.59416 60.9479 7.3077C56.0625 8.48479 50.1979 12.0837 48.1094 17.4587L47.8542 18.1202L47.5365 17.4848C46.9792 16.3702 45.8177 15.5056 44.4271 15.1671C43.125 14.8546 40.5052 14.7452 37.5469 17.5681L37.2135 17.8858L37.0365 17.4587C36.2292 15.5212 33.2135 14.2712 29.7135 14.4171C25.5 14.5942 20.3333 16.8285 18.4688 22.5785L18.3958 22.8025L18.1615 22.7973C15.375 22.7452 14.0208 24.1254 13.9375 25.4275C13.8594 26.5473 14.7292 27.7869 16.8281 28.0317L17.1563 28.0733L17.1042 28.3962C16.8958 29.7817 17.2969 31.0577 18.1771 31.8025C19.3542 32.8025 21.3646 32.8806 23.974 32.0212L24.4167 31.8754L24.3906 32.339C24.25 34.8962 25.7813 37.3962 28.7083 39.391C32.9427 42.266 40.3906 44.0317 46.7448 41.0994L47.0417 40.964L47.1667 41.2712C47.4375 41.9431 48.2604 43.5837 50.0677 44.3285C51.6042 44.9587 53.4792 44.8025 55.6563 43.8702L55.9948 43.7244L56.0833 44.0785C56.7396 46.615 58.875 48.8181 61.5312 49.6931C64.4531 50.6567 67.6042 49.9483 70.3906 47.6931L70.7552 47.4015L76.8333 66.714L76.2344 66.9067Z" fill="black"/>
<path d="M49.4164 41.8906C47.2654 41.8906 45.9321 41.0365 45.2185 40.3646C43.8279 39.0677 43.255 37.0469 43.7966 35.3438L44.3956 35.5365C43.9321 37.0104 44.4373 38.7708 45.6508 39.9062C46.6352 40.8333 48.9373 42.1302 53.281 40.4479L53.5102 41.0365C51.9008 41.6563 50.5466 41.8906 49.4164 41.8906Z" fill="black"/>
<path d="M80.3594 44.042C77.5521 44.042 75.2656 42.8232 74 40.5628L74.5521 40.2555C76.0417 42.9222 79.1354 43.9847 82.8177 43.1045C86.026 42.3389 88.599 40.3128 88.6771 38.4951L88.6927 38.141L89.0365 38.193C93.0156 38.8232 95.9219 38.4378 97.4531 37.0785C98.3906 36.2399 98.8385 35.0264 98.7812 33.4587L99.4115 33.4326C99.474 35.1982 98.9583 36.5837 97.8698 37.5472C96.2135 39.016 93.3229 39.4535 89.2656 38.8597C88.9167 40.8753 86.3021 42.917 82.9635 43.7087C82.0573 43.9326 81.1823 44.042 80.3594 44.042Z" fill="black"/>
<path d="M114.661 29.5524C113.719 29.5524 112.625 29.3232 111.516 28.6201L111.854 28.0889C113.448 29.1045 115.01 29.0055 116.036 28.7451C117.568 28.3597 118.781 27.4066 119.193 26.667L119.745 26.9743C119.281 27.8076 117.974 28.9066 116.193 29.3597C115.76 29.4691 115.24 29.5524 114.661 29.5524Z" fill="black"/>
<path d="M86.2344 53.8643C85.8125 53.8643 85.3542 53.8174 84.8594 53.708L84.9948 53.0934C87.0521 53.5413 88.3594 52.8226 89.0938 52.1403C90.276 51.0361 90.651 49.4684 90.5 48.4059L91.125 48.3174C91.3385 49.7913 90.6927 51.5153 89.5208 52.6038C88.8542 53.2184 87.7865 53.8643 86.2344 53.8643Z" fill="black"/>
</svg>
