<svg width="197" height="148" viewBox="0 0 197 148" fill="none" xmlns="http://www.w3.org/2000/svg">
<mask id="mask0_5516_27341" style="mask-type:luminance" maskUnits="userSpaceOnUse" x="0" y="19" width="197" height="129">
<path d="M0.900879 19.333H196.901V147.333H0.900879V19.333Z" fill="white"/>
</mask>
<g mask="url(#mask0_5516_27341)">
<path d="M196.458 143.161C196.297 142.984 180.547 125.474 186.073 111.859C188.599 105.625 187.583 100.052 183.14 95.7396L182.208 94.8385L182.484 96.099C183.406 100.339 182.651 101.745 182.125 102.203C181.666 102.599 181.01 102.641 180.161 102.323C176.984 101.141 177.588 97.2865 178.166 93.5573C178.604 90.7396 179.021 88.0729 177.656 86.7708C176.541 85.7083 176.14 83.349 175.724 80.8594C175.093 77.1354 174.38 72.9219 171.156 70.8125L170.26 70.2292L170.567 71.2552C171.541 74.5156 172.229 81.0833 168.609 85.0104C167.823 85.8594 167.203 86.0885 166.901 86.0208C165.588 85.7396 166.416 80.7656 166.916 77.7865C167 77.3021 167.078 76.8281 167.146 76.3802C167.807 72.1927 163.505 67.1562 160.281 65.8073L159.255 65.3802L159.786 66.3542C161.057 68.6979 161.187 71.4219 160.14 73.651C159.411 75.1979 158.192 76.2396 156.807 76.5156C156.015 76.6667 155.453 76.4896 155.088 75.9583C154.13 74.5677 154.744 71.2135 155.656 69.7604C157.38 67 158.265 62.151 155.083 57.5938L154.416 58C154.614 58.5208 153.713 61.6458 152.156 64.0885C152.578 60.651 151.271 54.901 148.646 52.0312C146.437 49.625 146.276 45.5208 148.125 38.7344L148.51 37.3125L147.474 38.3542C147.281 38.5469 142.776 43.0885 141.817 47.5469C141.26 50.1354 141.869 52.276 142.411 54.1615C142.812 55.5625 143.156 56.776 142.963 57.9167C142.896 58.3385 142.755 58.6146 142.578 58.6719C142.385 58.7344 142.052 58.5781 141.729 58.2656C141.021 57.5833 140.453 56.2917 140.734 55.3125L141.021 54.3125L140.151 54.875C138.864 55.6979 138.047 57.0625 137.786 58.8073C137.354 61.7448 138.521 64.9531 139.536 66.1458C140.364 67.1146 140.552 69.6042 139.614 70.8125C139.052 71.5365 138.203 71.6302 137.099 71.0938C136.463 70.7813 136.062 69.2396 135.635 67.6042C134.817 64.4531 133.703 60.1406 129.739 58.8229L128.646 58.4583L129.297 59.4115C130.755 61.5521 131.151 65.1406 130.166 67.2552C129.666 68.3177 128.88 68.9167 127.823 69.0156C126.619 69.1406 125.724 68.875 125.099 68.2135C123.396 66.4219 124.052 62.0781 124.406 59.7396L124.458 59.3802C124.963 55.9635 123.135 53.1042 119.297 51.3229L118.255 50.8385L118.786 51.8594C119.682 53.5833 118.927 55.4323 117.922 56.5938C117.166 57.4635 116.354 57.8542 116.01 57.7396C115.234 57.4688 115.182 56.0156 115.125 54.3438C115.021 51.4427 114.88 47.474 110.984 45.4792L110.099 45.026L110.437 45.9635C111.63 49.2656 111.734 52.1719 110.718 53.9427C110.119 54.9896 109.135 55.651 107.791 55.901C107.015 56.0469 106.448 55.875 106.057 55.3854C104.724 53.7135 105.646 48.6771 106.593 46.4896C108.416 42.2812 106.869 37.276 102.994 34.8385C99.5309 32.6615 96.9059 27.7969 100.885 21.2604L101.646 20.0156L100.364 20.7188C96.5778 22.7865 93.6872 26.3281 92.6247 30.1823C91.9372 32.6875 92.1143 35.0937 93.1091 36.7865C94.958 39.9271 96.5153 44.6042 95.8018 46.6927C95.6455 47.1563 95.3903 47.4479 95.0257 47.5938C93.9893 48.0104 93.1403 48.026 92.5101 47.6458C91.8018 47.2188 91.3486 46.2604 91.1976 44.8698L91.1299 44.25L90.6038 44.5729C87.7341 46.3333 88.0466 49.9688 88.3018 52.8854C88.4841 55.0208 88.6455 56.8698 87.5413 57.2188C87.2236 57.3229 86.9684 57.3229 86.7705 57.2188C86.2497 56.9479 85.9372 55.9635 85.5778 54.8281C84.9476 52.8281 84.083 50.0885 81.2028 49.0052L80.458 48.7292L80.6924 49.4896C81.2132 51.1719 81.7132 53.0781 81.0257 54.2969C80.6976 54.8854 80.1143 55.2812 79.2549 55.5C78.8226 55.6094 78.4632 55.4844 78.1299 55.1042C75.8747 52.5521 76.4372 40.9271 78.0778 36.7292L78.1038 36.6615V36.5938L78.1091 36.5833H77.7132L77.4372 36.3125L77.3226 36.4323V36.4531C76.4893 37.4896 69.9841 45.6562 68.9111 50.4062C68.3382 52.9635 69.3903 56 70.3174 58.6823C71.1924 61.1927 72.0101 63.5677 71.0466 64.5208C70.7601 64.8125 70.5049 64.9531 70.2913 64.9323C69.8278 64.8854 69.3122 64.1302 68.7601 63.3281C67.9372 62.1198 66.9163 60.6198 65.2341 60.1615L64.4424 59.9479L64.7757 60.6979C65.4841 62.2917 65.8382 64.9062 64.958 66.8906C64.4788 67.9531 63.7132 68.6667 62.6768 69C62.1247 69.1771 61.6768 69.1719 61.3122 68.974C60.4216 68.5 59.9788 66.9427 59.5049 65.2969C58.7705 62.7135 57.932 59.7812 54.9997 59.6458L54.3747 59.6198L54.6247 60.1927C56.0466 63.4583 55.583 66.2031 54.4893 67.474C53.7913 68.2865 52.8174 68.5729 51.7341 68.2865C50.6663 68.0052 50.6768 65.9427 50.6924 63.3333C50.7236 58.9479 50.7601 52.9479 45.6611 49.6406L44.7236 49.0312L45.0726 50.0938C46.4893 54.349 44.3122 57.375 41.7913 60.875C39.932 63.4583 38.0101 66.1354 37.4216 69.5729C37.2445 70.6302 37.3591 71.974 37.4893 73.3958C37.8018 76.8854 38.1195 80.4948 34.3955 81.0625C33.6143 81.1823 32.9632 80.4063 32.6455 79.9323C31.2184 77.8125 30.8018 73.6979 32.4372 70.9531L33.7288 68.7917L31.8434 70.4583C22.8174 78.4479 24.3122 83.4271 25.6299 87.8281C26.1611 89.6042 26.6663 91.2917 26.3747 93.0365C25.2757 92.1198 22.5986 90.1042 20.5466 90.2865L19.9632 90.3385L20.2288 90.8542C25.5466 101.167 16.208 108.891 10.6247 113.505L10.2861 113.786C5.66634 117.609 5.67676 124.208 5.68717 130.026C5.69238 135.417 5.7028 140.073 2.40072 141.859L0.942383 142.646L2.58301 142.599C2.84863 142.594 3.16113 142.589 3.49447 142.583C5.38509 142.562 8.23926 142.521 10.5726 141.802C10.3695 142 10.2497 142.115 10.2445 142.115L9.29134 143.031L10.5934 142.781C12.3382 142.443 19.9736 140.589 23.0101 138.948C23.9788 139.734 26.4528 140.812 30.3591 142.156C29.4997 143.193 28.9528 143.823 28.9476 143.833L28.1611 144.74L29.3278 144.469C30.0049 144.313 31.5778 143.885 33.7601 143.203C34.2341 143.057 34.7288 142.901 35.2341 142.734C37.3122 142.052 39.182 141.375 40.7861 140.729C42.1247 140.188 43.2809 139.661 44.208 139.167L44.2966 139.12C44.7341 138.885 45.1195 138.661 45.4476 138.443C48.2028 141.219 60.6872 145.734 61.2341 145.932L61.8434 146.151L61.1559 141.156C62.4424 140.797 63.5205 140.464 64.4372 140.151C68.0153 141.354 73.307 142.677 76.2393 142.797C77.0101 143.026 77.8278 143.094 78.4893 143.094C78.6247 143.094 78.7497 143.089 78.8747 143.089C78.0153 144.005 77.4893 144.557 77.4841 144.568L76.6091 145.479L77.8434 145.219C79.6091 144.854 85.0309 143.448 90.1663 141.724L90.557 141.594C90.7913 141.516 91.0257 141.438 91.2549 141.354C94.6143 140.188 97.0986 139.12 98.6611 138.177C102.021 141.37 118.312 146.693 119.021 146.922L119.625 147.12L118.297 138.417C120.521 139.526 125.151 140.87 129.135 141.786L129.401 141.844C129.708 141.917 130.015 141.984 130.323 142.052C132.593 142.547 137.672 143.552 139.854 143.208L139.786 143.583C139.422 143.932 139.213 144.141 139.213 144.141L138.265 145.052L139.557 144.807C141.281 144.474 149.531 142.505 153.771 140.599C154.156 140.422 154.5 140.25 154.802 140.089C155.458 140.641 156.713 141.297 158.619 142.099L158.682 142.156L158.786 142.161C163.255 144.01 169.656 145.927 169.718 145.943L170.317 146.125L169.349 140.292C172.708 141.708 183.13 144.057 185.39 143.375C186.515 143.885 187.984 144.036 189.817 144.036C190.896 144.036 192.104 143.984 193.448 143.932C194.302 143.896 195.208 143.854 196.172 143.828L197.021 143.802L196.458 143.161Z" fill="black"/>
</g>
<path d="M53.9321 40.4736L55.0832 40.0101C59.4582 38.2497 60.6353 35.708 60.854 33.8955C61.2186 30.7705 59.0936 27.2393 55.1665 24.4372L54.1613 23.7236L54.5675 24.8903C56.8436 31.3643 56.8592 35.984 54.6144 39.4372L53.9321 40.4736Z" fill="black"/>
<path d="M160.25 51.8232L161.401 51.3597C165.776 49.5941 166.953 47.0628 167.172 45.2399C167.536 42.1201 165.411 38.5837 161.479 35.7868L160.474 35.0732L160.885 36.2399C163.156 42.7087 163.172 47.3285 160.927 50.7868L160.25 51.8232Z" fill="black"/>
<mask id="mask1_5516_27341" style="mask-type:luminance" maskUnits="userSpaceOnUse" x="93" y="0" width="7" height="13">
<path d="M93.3335 0.515625H100V12.6667H93.3335V0.515625Z" fill="white"/>
</mask>
<g mask="url(#mask1_5516_27341)">
<path d="M97.4634 12.1354L98.2811 12.5885L98.0259 11.6875C97.2603 8.95833 98.3176 2.82813 98.8384 1.40104L99.1613 0.515625L98.3072 0.911458C95.5988 2.18229 94.0051 4.21875 93.9217 6.51562C93.8488 8.73438 95.203 10.8854 97.4634 12.1354Z" fill="black"/>
</g>
<path d="M185.411 142.948C183.729 143.782 171.234 141.063 168.854 139.599L169.844 145.563C169.844 145.563 163.38 143.636 158.875 141.761C158.87 141.761 158.87 141.761 158.87 141.761C158.865 141.756 158.859 141.756 158.854 141.756C158.854 141.756 158.854 141.756 158.849 141.756C156.979 140.979 155.453 140.209 154.87 139.599C154.521 139.802 154.104 140.016 153.625 140.229C149.542 142.063 141.453 144.037 139.5 144.407C139.5 144.407 139.932 143.995 140.641 143.297C143.448 140.526 150.63 133.266 152.688 129.344C152.688 129.344 147.135 130.495 145.052 130.391C147.755 128.573 150.615 124.787 152.443 122.12C153.568 120.485 154.297 119.276 154.375 119.193C153.245 119.672 152.115 120.037 151.109 120.308C149.01 120.881 147.427 121.073 147.427 121.073C148.328 120.552 149.25 119.787 150.156 118.881C150.323 118.703 150.49 118.532 150.661 118.354C151.068 117.917 151.469 117.464 151.854 116.99C154.62 113.677 156.88 109.75 157.208 109.131C155.427 110.177 152.094 110.506 152.094 110.506C158.641 102.448 162.443 91.3545 162.443 91.3545C162.443 91.3545 169.745 108.099 171.635 109.979C171.635 109.979 167.766 108.719 167.271 108.516C168.854 112.433 176.198 120.131 176.198 120.131L170.646 119.401C170.646 119.401 176.99 128.818 179.87 131.016C179.87 131.016 173.917 130.073 171.734 129.443C171.604 130.995 180.182 141.12 185.411 142.948Z" fill="#C41830"/>
<path d="M161.255 36.1045C167.667 40.6722 169.62 47.6305 161.255 50.9951C163.807 47.0785 163.318 41.9743 161.255 36.1045Z" fill="#F9CA06"/>
<path d="M154.375 119.192C154.297 119.276 153.568 120.484 152.443 122.119C151.948 121.5 151.5 120.875 151.109 120.307C152.115 120.041 153.245 119.672 154.375 119.192Z" fill="#F9CA06"/>
<path d="M152.688 129.344C150.63 133.266 143.448 140.532 140.641 143.297C140.375 143.375 140.224 143.422 140.224 143.422L140.36 142.662C140.365 142.657 140.375 142.651 140.38 142.646C140.375 142.646 140.37 142.646 140.36 142.641L140.953 139.245C140.313 139.625 138.656 140.115 136.761 140.568H136.755C135.802 139.865 134.818 139.047 133.834 138.151C133.599 137.948 133.365 137.729 133.136 137.516C127.271 132.011 121.599 124.172 121.724 122.563C124.693 123.5 132.808 124.901 132.808 124.901C130.537 123.011 126.683 117.516 123.839 113.224C125.214 111.578 126.49 109.865 127.042 108.604L127.802 108.714C127.802 108.714 126.865 107.641 125.5 105.974C128.037 101.224 131.406 93.9014 131.406 93.9014C131.406 93.9014 134.834 103.37 140.735 110.256C140.735 110.256 137.735 109.974 136.125 109.084C136.412 109.599 138.349 112.787 140.74 115.563C142.834 111.677 145.698 105.464 145.698 105.464C145.698 105.464 147.938 111.651 151.854 116.995C151.469 117.469 151.068 117.922 150.662 118.354C150.261 118.235 149.88 118.089 149.563 117.912C149.636 118.047 149.844 118.396 150.156 118.881C149.25 119.787 148.328 120.552 147.427 121.073C147.427 121.073 149.011 120.881 151.11 120.308C151.5 120.875 151.948 121.5 152.443 122.12C150.615 124.787 147.755 128.568 145.052 130.391C147.136 130.495 152.688 129.344 152.688 129.344Z" fill="#FF9F43"/>
<path d="M140.953 139.245L140.359 142.641C139.25 142.214 138.031 141.49 136.76 140.568C138.656 140.12 140.312 139.625 140.953 139.245Z" fill="#F9CA06"/>
<path d="M124.25 108.198L127.036 108.604C126.484 109.865 125.213 111.578 123.833 113.224C121.765 110.104 120.229 107.625 120.229 107.625L124.25 108.198Z" fill="#F9CA06"/>
<path d="M98.4685 1.27051C97.9425 2.70801 96.8383 8.91113 97.6508 11.7965C93.4216 9.4528 92.7029 3.96322 98.4685 1.27051Z" fill="#F9CA06"/>
<path d="M98.0521 107.308C97.9219 107.464 96.3438 110.339 94.0677 113.761C93.0052 112.552 91.7865 111.104 90.75 109.714C92.5677 109.313 95.3073 108.573 98.0521 107.308Z" fill="#F9CA06"/>
<path d="M91.8748 107.302C91.3123 107.896 90.7394 108.443 90.1769 108.927C89.4686 107.927 88.8905 106.979 88.5728 106.198C88.8957 106.339 90.8123 106.959 91.8748 107.302Z" fill="#F9CA06"/>
<path d="M136.755 140.568C138.031 141.49 139.25 142.219 140.36 142.641V142.662C139.25 143.219 134.985 142.651 130.417 141.662C130.021 141.573 129.625 141.485 129.229 141.391C124.344 140.266 119.401 138.74 117.797 137.667L119.151 146.537C119.151 146.537 101.432 140.776 98.7293 137.667C97.0522 138.745 94.2085 139.907 91.1304 140.974C90.7918 141.094 90.4533 141.209 90.1147 141.328C90.1095 141.328 90.1095 141.328 90.1095 141.328C85.0054 143.037 79.5418 144.453 77.771 144.828C77.771 144.828 78.5731 143.99 79.8543 142.604C79.9272 142.521 80.0002 142.438 80.0783 142.36C80.6512 141.735 81.3179 141.011 82.0314 140.219C82.1147 140.125 82.1929 140.037 82.2762 139.948C85.672 136.172 90.245 130.875 93.2866 126.495C93.5262 126.136 93.7658 125.787 93.9897 125.448C94.7137 124.344 95.3179 123.318 95.7502 122.412C95.7502 122.412 88.1772 124.12 85.3387 123.969C87.6356 122.292 90.0054 119.474 92.0679 116.636C92.1929 116.469 92.3127 116.308 92.4272 116.141H92.4325C93.0054 115.339 93.5522 114.532 94.0679 113.761C96.3387 110.339 97.922 107.464 98.0522 107.308C95.3075 108.573 92.5627 109.313 90.745 109.714C89.422 110.006 88.5887 110.115 88.5887 110.115C89.1147 109.782 89.6408 109.386 90.1772 108.927C90.7397 108.443 91.3127 107.896 91.8752 107.302C91.9689 107.203 92.0679 107.099 92.1616 107C96.9585 101.813 101.375 93.4639 101.917 92.3441C99.4793 93.9014 94.9377 94.3857 94.9377 94.3857C103.865 82.4014 109.052 65.9014 109.052 65.9014C109.052 65.9014 119.011 90.8128 121.578 93.6097C121.578 93.6097 116.307 91.7451 115.63 91.4326C117.125 95.4743 122.406 102.214 125.495 105.974C126.86 107.641 127.802 108.714 127.802 108.714L127.037 108.604L124.25 108.198L120.229 107.625C120.229 107.625 121.771 110.104 123.839 113.224C126.677 117.516 130.537 123.011 132.807 124.901C132.807 124.901 124.693 123.5 121.724 122.563C121.599 124.172 127.271 132.011 133.136 137.516C133.37 137.735 133.604 137.948 133.833 138.151C134.818 139.047 135.802 139.865 136.755 140.568Z" fill="#C41830"/>
<path d="M80.0781 142.359L82.0312 140.219C81.3177 141.01 80.6563 141.734 80.0781 142.359Z" fill="#F9CA06"/>
<path d="M79.3333 106.755C79.1563 107.083 78.3802 108.427 77.2552 110.083C76.875 109.328 76.4896 108.547 76.1094 107.781C77.125 107.593 78.4375 107.271 79.3333 106.755Z" fill="#F9CA06"/>
<path d="M76.1094 107.781C76.4896 108.547 76.875 109.328 77.2552 110.083C78.3802 108.427 79.1563 107.083 79.3334 106.755C78.4375 107.271 77.125 107.594 76.1094 107.781ZM95.7552 122.411C95.3177 123.318 94.7188 124.344 93.9948 125.448C93.7657 125.786 93.5261 126.135 93.2865 126.495C90.25 130.875 85.6771 136.172 82.2813 139.948C82.198 140.036 82.1198 140.125 82.0365 140.219L80.0834 142.359C80.0052 142.438 79.9323 142.521 79.8594 142.604C79.8594 142.604 77.9532 142.917 76.3021 142.406C77.0417 142.432 77.5886 142.375 77.8698 142.208C73.2084 140.25 66.0417 130.755 63.9636 126.615C63.4792 125.229 63.6823 125.073 64.375 125.234C64.4167 125.245 64.4636 125.26 64.5105 125.271C64.5938 125.292 64.6771 125.318 64.7605 125.339C64.8073 125.354 64.8542 125.365 64.9011 125.375C67.698 126.115 71.9948 126.938 71.9948 126.938C70.5573 125.609 68.3125 122.24 66.3334 119.042C67.7084 117.198 68.7032 115.547 68.8959 115.203C67.4427 116.01 65.1146 115.818 65.1146 115.818C66.0365 114.734 66.5209 114.036 67.3021 112.875L68.1094 113.005C68.1094 113.005 67.9323 112.781 67.6302 112.385C71.1563 107.016 73.1407 101.526 73.1407 101.526C73.1407 101.526 74.2448 103.922 75.6198 106.755C81.0313 99.625 84.1459 90.6719 84.1459 90.6719C84.1459 90.6719 89.974 103.833 92.1667 106.995C92.073 107.099 91.9792 107.198 91.8855 107.297H91.8802C90.823 106.958 88.9063 106.333 88.5782 106.198C88.8959 106.974 89.474 107.917 90.1823 108.927C89.6511 109.385 89.1198 109.781 88.5938 110.109C88.5938 110.109 89.4323 110 90.75 109.708C91.7917 111.104 93.0052 112.547 94.073 113.755C93.5573 114.531 93.0157 115.333 92.4375 116.135H92.4323C92.323 116.302 92.198 116.469 92.0782 116.63C90.0157 119.469 87.6407 122.286 85.349 123.964C88.1823 124.125 95.7552 122.411 95.7552 122.411Z" fill="#FF9F43"/>
<path d="M63.9585 126.619C66.0366 130.76 73.2085 140.25 77.8647 142.213C77.5887 142.375 77.0418 142.437 76.3022 142.406C73.5783 142.302 68.2762 141.036 64.4429 139.734C62.5575 139.093 61.0314 138.448 60.3283 137.927L60.7345 140.869L61.3804 145.562C61.3804 145.562 47.62 140.604 45.521 137.927C45.1252 138.203 44.6564 138.484 44.12 138.776C44.12 138.776 44.12 138.776 44.1147 138.776C43.1304 139.312 41.9325 139.849 40.646 140.369C38.8647 141.088 36.9116 141.776 35.12 142.364C34.6147 142.531 34.12 142.687 33.646 142.838C31.6512 143.453 30.0002 143.916 29.2397 144.088C29.2397 144.088 29.9325 143.286 31.021 141.979C32.8283 139.812 35.7137 136.26 38.2814 132.724C38.7502 132.083 39.2033 131.437 39.6356 130.807C40.1043 130.14 40.547 129.474 40.9585 128.833C41.9116 127.343 42.7033 125.963 43.2033 124.802C43.2033 124.802 40.8804 125.385 38.6043 125.786C37.2658 126.026 35.9325 126.198 35.12 126.146C35.8387 125.562 36.5731 124.812 37.297 123.968C37.7345 123.458 38.1616 122.911 38.5887 122.343C38.8335 122.021 39.0731 121.692 39.3127 121.354C42.3595 117.036 44.8387 111.989 44.9897 111.812C41.3127 113.687 37.6408 114.224 37.6408 114.224C42.2606 111.005 47.4637 100.14 47.9897 98.932C46.1043 100.276 42.5783 100.687 42.5783 100.687C49.5054 90.3747 53.5366 76.1768 53.5366 76.1768C53.5366 76.1768 61.2658 97.6091 63.2658 100.021C63.2658 100.021 59.172 98.4111 58.6408 98.1455C60.0679 102.406 65.8908 110.166 67.62 112.396C67.5054 112.562 67.4012 112.718 67.2866 112.885L62.2137 112.078C62.2137 112.078 63.1043 113.672 64.3804 115.843C64.9637 116.823 65.6252 117.927 66.3179 119.052C68.297 122.25 70.5418 125.625 71.9793 126.948C71.9793 126.948 67.6825 126.13 64.8856 125.39C64.8387 125.375 64.7918 125.364 64.745 125.349C64.6616 125.328 64.5731 125.302 64.495 125.281C64.4481 125.271 64.4012 125.26 64.3595 125.244C63.9793 125.135 63.6408 125.036 63.3647 124.937C63.3491 125.244 63.5627 125.833 63.9585 126.619Z" fill="#C41830"/>
<path d="M68.8853 115.208C68.6925 115.552 67.6978 117.198 66.3228 119.041C65.63 117.922 64.9686 116.817 64.3853 115.833L65.104 115.823C65.1092 115.817 67.4269 116.015 68.8853 115.208Z" fill="#F9CA06"/>
<path d="M64.3854 115.833C63.1094 113.661 62.2188 112.067 62.2188 112.067L67.2917 112.875C66.5104 114.036 66.026 114.734 65.1042 115.817L64.3854 115.833Z" fill="#F9CA06"/>
<path d="M60.3281 137.922C61.0313 138.448 62.5573 139.089 64.4427 139.729C63.3125 140.125 62.0156 140.51 60.7292 140.87L60.3281 137.922Z" fill="#F9CA06"/>
<path d="M54.9375 24.7549C61.349 29.3226 63.3021 36.2809 54.9375 39.6455C57.4844 35.734 57 30.6247 54.9375 24.7549Z" fill="#F9CA06"/>
<path d="M44.9946 111.802C44.8488 111.989 42.3696 117.031 39.3175 121.343C37.5155 119.349 34.1144 115.416 33.1821 113.104C33.5884 113.276 36.7394 114.297 36.7394 114.297C36.7186 114.276 36.6925 114.244 36.6665 114.213H37.6457C37.6457 114.213 41.3175 113.677 44.9946 111.802Z" fill="#F9CA06"/>
<path d="M43.2083 124.797C42.7083 125.958 41.9167 127.344 40.9635 128.828C40.1719 127.865 39.349 126.786 38.6094 125.776C40.8854 125.38 43.2083 124.797 43.2083 124.797Z" fill="#F9CA06"/>
<path d="M39.6405 130.802C39.203 131.438 38.7551 132.078 38.2864 132.719C37.3593 131.506 36.7864 130.552 36.8176 130.183C37.4739 130.375 38.5468 130.599 39.6405 130.802Z" fill="#F9CA06"/>
<mask id="mask2_5516_27341" style="mask-type:luminance" maskUnits="userSpaceOnUse" x="1" y="20" width="196" height="125">
<path d="M1.3335 20.667H196.901V144.667H1.3335V20.667Z" fill="white"/>
</mask>
<g mask="url(#mask2_5516_27341)">
<path d="M36.6618 114.219C35.016 112.344 29.2399 99.099 29.2399 99.099C29.2399 99.099 26.1357 108.156 20.7972 114.729C20.7972 114.729 23.516 114.464 24.9691 113.609C24.5628 114.375 20.5524 121.302 16.9899 123.354C16.9899 123.354 19.818 123.01 22.6566 121.818C22.4951 121.99 18.6097 128.562 15.0472 130.953C16.7451 131.042 21.2764 130.104 21.2764 130.104C19.7972 132.927 15.068 137.87 12.3962 140.552C9.71908 142.328 4.78678 142.156 2.57324 142.219C9.88053 138.26 1.91178 121.229 10.516 114.104C15.9482 109.604 26.141 101.5 20.5628 90.6875C23.0264 90.4688 26.6045 93.7708 26.6045 93.7708C28.3962 87.3333 19.0524 82.2969 32.0889 70.7656C29.516 75.0781 31.818 81.8594 34.443 81.4583C40.167 80.5833 37.1982 73.1875 37.8024 69.651C39.1514 61.7344 47.9951 57.6823 45.4378 49.9792C53.5576 55.25 48.1774 67.7656 51.6253 68.6823C55.0785 69.5938 57.2295 65.2396 54.9743 60.0521C60.2503 60.3021 58.1253 70.8958 62.792 69.3958C66.2972 68.2656 66.3857 63.3906 65.1253 60.5625C68.4743 61.474 69.0837 67.0573 71.318 64.8229C73.5472 62.5938 68.1722 55.4844 69.2868 50.5156C70.3857 45.6146 77.4847 36.8854 77.7035 36.6146C75.6826 41.8021 75.292 56.9375 79.3441 55.9062C82.667 55.0625 81.8076 51.8229 81.0576 49.401C86.1357 51.3073 84.5107 58.6406 87.6566 57.625C90.8024 56.6094 86.0003 47.875 90.8024 44.9323C91.1097 47.776 92.6305 48.9948 95.167 47.9792C97.7035 46.9635 95.7764 40.5677 93.443 36.6094C91.1097 32.651 93.6201 24.8698 100.547 21.0781C96.443 27.8177 99.2295 32.9531 102.782 35.1875C106.339 37.4219 108.042 42.1719 106.235 46.3542C105.131 48.901 103.495 57.1094 107.865 56.2969C112.229 55.4896 112.578 50.7552 110.802 45.8438C116.901 48.9635 113.287 57.2188 115.881 58.125C117.229 58.599 120.818 54.9479 119.125 51.6979C122.912 53.4583 124.537 56.1615 124.068 59.3438C123.594 62.5208 122.261 69.9792 127.86 69.4271C131.834 69.0313 131.802 62.4271 129.615 59.2083C135.584 61.1875 134.766 70.4063 136.922 71.4583C140.802 73.3438 141.391 67.7344 139.828 65.9062C138.271 64.0781 136.61 57.6146 140.36 55.2188C139.698 57.5208 142.881 60.8333 143.349 57.9896C143.823 55.151 141.25 52.0313 142.203 47.6354C143.146 43.2344 147.745 38.6354 147.745 38.6354C145.922 45.3333 145.979 49.7135 148.354 52.3021C151.714 55.974 152.74 64.4271 150.979 66.1875C153.511 63.7552 155.172 58.5625 154.766 57.8229C158.094 62.5833 156.677 67.3958 155.328 69.5573C153.969 71.724 153.229 77.625 156.886 76.9062C160.537 76.1927 162.646 70.8021 160.131 66.1719C163.381 67.5313 167.37 72.4688 166.761 76.3281C166.157 80.1875 164.927 86 166.823 86.4115C168.724 86.8177 173.761 80.5521 170.943 71.1458C176.24 74.6094 174.495 84.2969 177.386 87.0625C180.276 89.8281 174.032 100.469 180.026 102.703C182.521 103.63 184.131 101.844 182.865 96.0312C187.74 100.76 187.849 106.448 185.709 111.719C180.021 125.724 196.167 143.432 196.167 143.432C190.985 143.589 187.506 143.99 185.412 142.948C180.183 141.125 171.604 130.995 171.729 129.453C173.907 130.078 179.86 131.026 179.86 131.026C176.985 128.823 170.636 119.406 170.636 119.406L176.193 120.135C176.193 120.135 168.849 112.443 167.266 108.521C167.761 108.729 171.631 109.99 171.631 109.99C169.745 108.104 162.438 91.3646 162.438 91.3646C162.438 91.3646 158.631 102.453 152.089 110.516C152.089 110.516 155.417 110.182 157.203 109.135C156.87 109.755 154.61 113.688 151.849 117C147.933 111.656 145.693 105.469 145.693 105.469C145.693 105.469 142.834 111.677 140.735 115.568C138.344 112.792 136.407 109.599 136.12 109.083C137.724 109.979 140.724 110.26 140.724 110.26C134.823 103.375 131.401 93.9062 131.401 93.9062C131.401 93.9062 128.026 101.229 125.49 105.979C122.401 102.219 117.12 95.4792 115.625 91.4323C116.302 91.75 121.578 93.6146 121.578 93.6146C119.006 90.8125 109.047 65.9062 109.047 65.9062C109.047 65.9062 103.86 82.401 94.9378 94.3906C94.9378 94.3906 99.4795 93.901 101.912 92.349C101.37 93.4688 96.9535 101.812 92.1566 107.005C89.9639 103.844 84.1305 90.6823 84.1305 90.6823C84.1305 90.6823 81.016 99.6302 75.6097 106.766C74.2347 103.927 73.1253 101.531 73.1253 101.531C73.1253 101.531 71.141 107.021 67.6201 112.396C65.8962 110.167 60.068 102.406 58.641 98.1458C59.1722 98.4167 63.266 100.021 63.266 100.021C61.266 97.6094 53.5368 76.1771 53.5368 76.1771C53.5368 76.1771 49.5055 90.375 42.5785 100.688C42.5785 100.688 46.1045 100.271 47.9899 98.9323C47.4639 100.141 42.2607 111.005 37.641 114.224L36.6618 114.219Z" fill="#F9CA06"/>
</g>
<path d="M38.5939 122.343C38.1668 122.906 37.7397 123.453 37.297 123.963C36.4741 122.802 35.9272 121.989 35.9272 121.989L38.5939 122.343Z" fill="#F9CA06"/>
<path d="M38.2917 132.718C35.7188 136.255 32.8333 139.807 31.026 141.974C27.8802 140.906 23.9948 139.448 23.0625 138.468C20.3073 140.093 12.2969 142.057 10.5156 142.396C10.5156 142.396 11.276 141.672 12.3958 140.552C15.0677 137.869 19.7969 132.927 21.276 130.099C21.276 130.099 16.7448 131.036 15.0469 130.948C18.6094 128.557 22.4948 121.984 22.6562 121.812C19.8229 123.01 16.9896 123.349 16.9896 123.349C20.5521 121.302 24.5625 114.369 24.9688 113.604C23.5104 114.458 20.7969 114.724 20.7969 114.724C26.1354 108.151 29.2396 99.0986 29.2396 99.0986C29.2396 99.0986 35.0208 112.338 36.6615 114.213C36.6875 114.244 36.7135 114.276 36.7396 114.297C36.7396 114.297 33.5833 113.276 33.1771 113.104C34.1094 115.416 37.5104 119.343 39.3125 121.343C39.0729 121.682 38.8333 122.01 38.5938 122.338L35.9271 121.984C35.9271 121.984 36.474 122.797 37.2969 123.958C36.5781 124.802 35.8438 125.547 35.1198 126.135C35.9375 126.182 37.2656 126.01 38.6094 125.771C39.349 126.781 40.1719 127.859 40.9635 128.823C40.5521 129.463 40.1042 130.13 39.6406 130.797C38.5469 130.588 37.474 130.364 36.8177 130.182C36.7865 130.552 37.3594 131.505 38.2917 132.718Z" fill="#FF9F43"/>
<path d="M40.6615 129.078C39.9531 128.214 39.1563 127.182 38.2969 126.01L38.9219 125.547C39.776 126.714 40.5677 127.734 41.2656 128.583L40.6615 129.078Z" fill="black"/>
<path d="M36.979 124.187C36.1613 123.036 35.6092 122.213 35.604 122.208L35.1196 121.489L38.6457 121.958L38.5467 122.734L36.7498 122.5C36.979 122.828 37.2759 123.255 37.6248 123.739L36.979 124.187Z" fill="black"/>
<path d="M9.2915 143.037L10.2446 142.12C10.255 142.11 11.0155 141.381 12.1196 140.276C14.5675 137.818 18.7186 133.485 20.5103 130.651C19.0988 130.922 16.3175 131.407 15.0311 131.344L13.854 131.282L14.8332 130.631C16.7394 129.349 19.0363 126.657 21.6717 122.615C19.255 123.469 17.1405 123.729 17.0363 123.74L15.1353 123.969L16.8019 123.011C19.6405 121.375 22.755 116.563 24.0259 114.448C22.578 114.943 20.9217 115.11 20.8332 115.12L19.9009 115.209L20.4946 114.485C25.7342 108.037 28.8436 99.068 28.8696 98.9743L29.1978 98.0264L29.5988 98.9482C29.6613 99.0837 35.3748 112.157 36.9634 113.969C36.9946 114.006 37.005 114.021 37.0155 114.026L38.1509 115.172L36.6196 114.677C36.3905 114.604 34.9478 114.136 33.9478 113.797C35.1821 116.052 37.9478 119.25 39.6144 121.089L39.0311 121.615C37.1196 119.5 33.7655 115.594 32.8175 113.261L32.4686 112.386L33.3332 112.75C33.5519 112.849 34.7394 113.24 35.7394 113.568C33.953 110.641 30.453 102.818 29.2759 100.151C28.3748 102.516 25.703 109 21.7082 114.214C22.5988 114.068 23.9269 113.776 24.7707 113.276L25.9582 112.584L25.3123 113.802C25.2759 113.865 22.0103 119.745 18.5988 122.677C19.6561 122.453 21.0832 122.068 22.4998 121.469L24.1821 120.756L22.9425 122.094C22.9269 122.115 22.8488 122.245 22.7238 122.438C20.3019 126.214 18.1353 128.927 16.2603 130.526C18.2446 130.339 21.1613 129.74 21.1978 129.729L22.0103 129.563L21.6248 130.292C20.13 133.146 15.3696 138.12 12.6717 140.839C12.3332 141.172 12.0207 141.479 11.7603 141.74C14.7811 141.037 20.6509 139.443 22.8592 138.141L23.1248 137.985L23.3436 138.214C23.7394 138.631 25.2759 139.625 31.1509 141.615L30.8957 142.36C26.6717 140.922 24.0207 139.787 23.0103 138.964C19.9738 140.604 12.3384 142.459 10.5936 142.797L9.2915 143.037Z" fill="black"/>
<path d="M37.979 132.958C36.3748 130.864 36.4165 130.328 36.4321 130.151L36.4686 129.677L36.9269 129.807C37.4894 129.968 38.4269 130.172 39.7134 130.416L39.5675 131.182C38.6925 131.021 37.979 130.869 37.4217 130.739C37.6196 131.109 37.979 131.677 38.5988 132.479L37.979 132.958Z" fill="black"/>
<path d="M170.333 146.115L169.734 145.932C169.672 145.917 163.266 144 158.802 142.156L158.698 142.151L158.635 142.089C156.729 141.292 155.474 140.63 154.818 140.078C154.521 140.245 154.172 140.411 153.786 140.589C149.542 142.5 141.297 144.469 139.573 144.797L138.281 145.042L139.229 144.13C139.229 144.13 139.661 143.719 140.365 143.026L140.911 143.583C140.854 143.635 140.802 143.693 140.745 143.74C143.708 143.057 149.969 141.443 153.458 139.875C153.932 139.661 154.339 139.453 154.667 139.266L154.932 139.104L155.151 139.333C155.479 139.682 156.401 140.312 158.922 141.37L159.01 141.375L159.073 141.427C162.708 142.932 167.651 144.49 169.349 145.01L168.318 138.818L169.052 139.271C171.167 140.573 180.365 142.594 183.943 142.724C178.625 139.885 171.203 131.104 171.333 129.422L171.375 128.948L171.833 129.083C173.344 129.516 176.729 130.115 178.604 130.427C175.49 127.302 170.542 119.979 170.312 119.63L169.823 118.911L175.156 119.615C173.229 117.531 168.203 111.911 166.901 108.677L166.552 107.812L167.411 108.172C167.703 108.292 169.333 108.833 170.604 109.25C168.391 105.729 163.844 95.5313 162.469 92.4167C161.438 95.151 158.078 103.432 152.995 110.005C154.094 109.833 155.885 109.464 157.005 108.807L158.188 108.115L157.547 109.328C157.13 110.12 154.865 114.005 152.146 117.26L151.547 116.755C153.568 114.328 155.344 111.547 156.26 110.005C154.453 110.672 152.24 110.896 152.125 110.911L151.193 111L151.786 110.276C158.208 102.365 162.031 91.3542 162.068 91.2448L162.396 90.2969L162.792 91.2188C165.312 96.9844 170.453 108.276 171.906 109.719L173.062 110.875L171.505 110.37C171.391 110.328 169.286 109.646 168.016 109.214C170.12 113.193 176.406 119.802 176.474 119.875L177.24 120.672L171.453 119.911C172.995 122.151 177.76 128.927 180.094 130.719L181.323 131.656L179.797 131.411C179.573 131.375 174.771 130.615 172.271 130.005C173.443 132.438 180.849 140.948 185.542 142.583L186.417 142.891L185.589 143.302C183.781 144.203 172.823 141.75 169.365 140.286L170.333 146.115Z" fill="black"/>
<path d="M150.432 119.151L149.875 118.61C150.042 118.438 150.208 118.266 150.375 118.089L150.943 118.625C150.776 118.808 150.599 118.979 150.432 119.151Z" fill="black"/>
<path d="M152.76 122.344L152.12 121.901C152.63 121.156 153.057 120.5 153.385 120C152.687 120.255 151.963 120.484 151.213 120.688L151.01 119.932C152.146 119.625 153.229 119.255 154.224 118.833L155.854 118.141L154.667 119.453C154.646 119.484 154.552 119.63 154.401 119.865C154.057 120.391 153.5 121.271 152.76 122.344Z" fill="black"/>
<path d="M60.8387 141.25L60.6304 140.494C62.1043 140.088 63.3075 139.713 64.3179 139.364L64.5731 140.104C63.5522 140.458 62.3283 140.833 60.8387 141.25Z" fill="black"/>
<path d="M79.7915 142.099L81.7446 139.958L82.3175 140.484L80.3644 142.625L79.7915 142.099Z" fill="black"/>
<path d="M78.4948 143.089C77.8125 143.089 76.974 143.026 76.1875 142.781L76.4167 142.031C77.9531 142.505 79.776 142.219 79.7969 142.219L79.9219 142.995C79.875 142.995 79.2865 143.089 78.4948 143.089Z" fill="black"/>
<path d="M63.5835 126.745C63.2918 125.896 63.1772 125.344 63.4741 125.011C63.7606 124.698 64.2293 124.802 64.4533 124.86L64.2762 125.62C64.1876 125.599 64.1251 125.589 64.0835 125.584C64.0939 125.709 64.1408 125.959 64.3231 126.49L63.5835 126.745Z" fill="black"/>
<path d="M64.6512 125.718C64.5679 125.692 64.4845 125.677 64.4116 125.656L64.5991 124.896C64.6825 124.916 64.7658 124.942 64.8543 124.968L64.6512 125.718Z" fill="black"/>
<path d="M66.6354 119.276L66.0104 118.807C66.8229 117.718 67.5 116.692 67.9531 115.979C66.5885 116.333 65.1458 116.213 65.0729 116.213L64.3125 116.151L64.8073 115.567C65.7187 114.5 66.1979 113.802 66.9688 112.661L67.6146 113.099C66.9844 114.026 66.5521 114.672 65.9219 115.453C66.6875 115.437 67.8594 115.328 68.6875 114.869L69.8906 114.203L69.224 115.401C69.0469 115.713 68.0313 117.406 66.6354 119.276Z" fill="black"/>
<path d="M67.9531 112.604L67.2969 112.177C70.7552 106.907 72.7448 101.448 72.7656 101.396L73.0938 100.5L73.4896 101.365C73.5052 101.386 74.4635 103.464 75.6927 106.011C80.7656 99.0993 83.7448 90.6357 83.776 90.5524L84.099 89.6201L84.5 90.5264C84.5573 90.6566 90.3385 103.688 92.4896 106.782L91.8438 107.229C89.9635 104.511 85.526 94.7295 84.1771 91.7139C83.224 94.1774 80.3125 101.219 75.9323 106.995L75.5469 107.5L75.2708 106.927C74.3906 105.115 73.6146 103.464 73.1719 102.521C72.4531 104.292 70.6406 108.506 67.9531 112.604Z" fill="black"/>
<path d="M89.854 109.151C89.0519 108.015 88.5103 107.099 88.2082 106.349L87.854 105.474L88.7238 105.843C88.9842 105.953 90.5675 106.474 91.9946 106.932L91.755 107.677C91.5519 107.609 90.2655 107.198 89.3332 106.885C89.6248 107.416 90.0155 108.021 90.4946 108.703L89.854 109.151Z" fill="black"/>
<path d="M93.7759 114.021C92.88 113.006 91.5728 111.479 90.4321 109.943L91.0623 109.479C92.1873 110.99 93.479 112.5 94.3644 113.5L93.7759 114.021Z" fill="black"/>
<path d="M77.2085 110.854L76.9064 110.26C76.5262 109.5 76.1356 108.719 75.7606 107.958L75.5366 107.495L76.0418 107.401C76.9793 107.229 78.2762 106.911 79.1408 106.417L80.3231 105.734L79.6772 106.943C79.4533 107.359 78.646 108.734 77.5835 110.307L77.2085 110.854ZM76.6825 108.068C76.8908 108.479 77.0939 108.896 77.3022 109.307C77.7345 108.646 78.1043 108.062 78.3804 107.599C77.8231 107.797 77.2241 107.953 76.6825 108.068Z" fill="black"/>
<path d="M139.729 143.968L139.969 142.593L140.672 142.713C143.568 139.843 149.583 133.698 151.917 129.89C150.271 130.208 146.667 130.859 145.026 130.776L143.854 130.718L144.833 130.062C147.349 128.375 150.062 124.864 151.953 122.135C151.615 121.703 151.281 121.244 150.943 120.755C148.979 121.276 147.536 121.453 147.474 121.463L145.583 121.692L147.234 120.734C147.979 120.302 148.792 119.656 149.651 118.817C149.422 118.458 149.276 118.203 149.219 118.104L148.542 116.901L149.745 117.567C149.958 117.687 150.224 117.802 150.536 117.906C150.818 117.604 151.094 117.291 151.359 116.974C148.406 112.88 146.417 108.323 145.661 106.458C144.807 108.286 142.708 112.734 141.083 115.744L140.812 116.244L140.443 115.817C138.047 113.031 136.073 109.786 135.781 109.265L135.12 108.067L136.312 108.734C137.271 109.276 138.797 109.578 139.786 109.734C135.307 104.198 132.328 97.2913 131.37 94.8903C130.427 96.9111 127.948 102.166 125.958 105.927C127.214 107.448 128.083 108.437 128.094 108.448L128.786 109.244L127.266 109.021C126.724 110.14 125.672 111.63 124.135 113.468L123.531 112.963C125.125 111.062 126.214 109.5 126.677 108.437L126.792 108.166L126.823 108.172C126.417 107.692 125.849 107.021 125.193 106.218L125.026 106.021L125.151 105.786C127.651 101.099 131.01 93.807 131.047 93.734L131.448 92.8643L131.771 93.7601C131.807 93.8538 135.245 103.244 141.026 109.989L141.656 110.724L140.693 110.635C140.594 110.625 138.693 110.442 137.089 109.906C137.833 111.083 139.141 113.031 140.667 114.864C142.703 111.015 145.313 105.354 145.344 105.291L145.74 104.427L146.068 105.323C146.089 105.385 148.333 111.515 152.172 116.755L152.354 117L152.161 117.234C151.771 117.708 151.359 118.172 150.948 118.609L150.786 118.786L150.552 118.718C150.547 118.713 150.536 118.713 150.526 118.708L150.661 118.922L150.443 119.146C149.979 119.609 149.521 120.021 149.083 120.385C149.635 120.271 150.297 120.119 151.01 119.922L151.281 119.849L151.438 120.073C151.875 120.713 152.318 121.317 152.755 121.864L152.932 122.093L152.771 122.328C151.073 124.802 148.661 127.979 146.276 129.948C148.703 129.75 152.568 128.953 152.615 128.942L153.422 128.771L153.036 129.505C150.979 133.432 143.875 140.646 140.917 143.562L140.849 143.63L139.729 143.968Z" fill="black"/>
<path d="M140.745 142.709L139.979 142.573L140.443 139.912C139.401 140.313 137.828 140.714 136.849 140.948L136.672 140.188C138.677 139.709 140.203 139.235 140.755 138.907L141.484 138.479L140.745 142.709Z" fill="black"/>
<path d="M61.854 146.146L61.2446 145.927C60.6978 145.729 48.2134 141.213 45.4582 138.437C45.1248 138.656 44.7394 138.885 44.3071 139.119L44.2186 139.166C43.2863 139.661 42.1405 140.187 40.7915 140.724C39.1873 141.375 37.3228 142.047 35.2446 142.729C34.7394 142.896 34.2446 143.052 33.7707 143.203C31.5832 143.885 30.0103 144.307 29.3332 144.463L28.1665 144.734L28.953 143.828C28.9634 143.823 29.6613 143.01 30.729 141.718C32.2707 139.875 35.255 136.229 37.979 132.484C38.453 131.833 38.9009 131.192 39.328 130.578C39.8019 129.896 40.2446 129.234 40.6405 128.614C41.453 127.343 42.0728 126.276 42.5207 125.359C41.6405 125.562 40.1457 125.896 38.6821 126.151C37.0571 126.437 35.854 126.562 35.104 126.515L34.104 126.453L34.8853 125.823C35.5467 125.291 36.2655 124.573 37.0103 123.692C37.4009 123.244 37.8175 122.724 38.2915 122.088C38.5311 121.771 38.7707 121.437 39.0103 121.104C41.2394 117.953 43.1873 114.354 44.0884 112.656C40.8019 114.125 37.8488 114.567 37.7082 114.588L36.0728 114.828L37.4321 113.88C41.203 111.255 45.5467 103.13 47.1353 99.8486C45.1978 100.744 42.755 101.041 42.6353 101.057L41.7915 101.161L42.2655 100.453C49.078 90.3122 53.1353 76.1924 53.1717 76.0465L53.505 74.8799L53.9165 76.0205C53.9946 76.234 61.6509 97.4163 63.5832 99.7497L64.5467 100.916L63.1405 100.364C63.0103 100.312 60.6925 99.4007 59.3488 98.8486C61.2342 103.343 66.7863 110.64 67.9425 112.135L67.3488 112.593L67.2394 113.25L62.9686 112.567C63.3488 113.234 63.9738 114.328 64.729 115.619C65.3332 116.625 65.979 117.713 66.6665 118.817C69.1613 122.859 71.0936 125.562 72.255 126.635L73.2603 127.562L71.9217 127.307C71.8748 127.297 67.578 126.474 64.8019 125.739C64.755 125.729 64.703 125.718 64.6561 125.703C64.578 125.682 64.4998 125.661 64.4217 125.64L64.2759 125.599C64.1509 125.562 64.0259 125.526 63.9009 125.489C63.979 125.713 64.1092 126.021 64.3175 126.427C66.4686 130.724 73.5728 139.963 78.0259 141.838L78.7446 142.135L78.0728 142.536C77.7342 142.734 77.1561 142.817 76.2967 142.786C73.3436 142.672 67.9217 141.312 64.3228 140.088C63.203 139.708 61.8123 139.192 60.8332 138.677L61.854 146.146ZM45.5988 137.39L45.828 137.682C47.5936 139.932 58.229 143.979 60.9009 144.968L59.8123 137.057L60.5623 137.614C61.1821 138.073 62.604 138.692 64.5675 139.364C68.1665 140.583 73.5415 141.911 76.3175 142.015C76.4373 142.021 76.5415 142.015 76.6457 142.026C71.9217 139.218 65.604 130.771 63.6144 126.797C62.953 125.484 62.979 125.052 62.9842 124.911L63.0155 124.39L63.505 124.562C63.7811 124.661 64.1405 124.771 64.479 124.864L64.5936 124.896C64.6978 124.922 64.7707 124.942 64.8436 124.958L64.8905 124.979C64.9217 124.989 64.953 124.994 64.9842 125.005C66.8436 125.494 69.3905 126.026 70.8644 126.328C69.6613 124.916 68.0311 122.547 65.9946 119.25C65.3019 118.135 64.6509 117.052 64.0519 116.036C62.7863 113.885 61.8853 112.276 61.88 112.26L61.4894 111.562L67.1873 112.468C65.3019 110.015 59.703 102.531 58.2811 98.2653L57.979 97.3538L58.828 97.7913C59.1457 97.9528 60.9634 98.682 62.3175 99.2184C60.0363 94.9788 55.0467 81.432 53.578 77.4059C52.4894 80.8851 48.88 91.6924 43.4009 100.156C44.5363 99.9476 46.5415 99.4788 47.7759 98.6038L48.9165 97.7913L48.3592 99.0778C48.3123 99.182 43.7394 109.182 39.1144 113.515C40.505 113.182 42.6769 112.552 44.8228 111.453L46.4582 110.619L45.3019 112.047C45.2811 112.078 45.1405 112.349 44.9738 112.661C44.1821 114.156 42.078 118.119 39.6405 121.567C39.4009 121.906 39.1509 122.244 38.9113 122.567C38.4217 123.213 37.9946 123.75 37.5988 124.213C37.1144 124.776 36.6457 125.281 36.1873 125.718C36.8228 125.666 37.6144 125.557 38.5467 125.39C40.7811 125 43.0936 124.422 43.1196 124.416L43.8853 124.224L43.5675 124.948C43.0936 126.047 42.3488 127.385 41.2915 129.041C40.8853 129.666 40.4373 130.338 39.9634 131.026C39.5363 131.646 39.078 132.291 38.604 132.948C35.8696 136.708 32.8644 140.375 31.3228 142.218C30.9425 142.677 30.6144 143.073 30.3384 143.396C31.1665 143.172 32.2759 142.849 33.5311 142.453C34.005 142.307 34.4946 142.156 34.9946 141.989C37.0571 141.312 38.9113 140.64 40.4998 140C41.854 139.453 43.0103 138.927 43.9321 138.427L44.0207 138.38C44.5207 138.104 44.9478 137.843 45.2915 137.599L45.5988 137.39Z" fill="black"/>
<path d="M69.0312 113.552L67.2344 113.266L67.3333 112.656C67.3229 112.646 67.3177 112.641 67.3125 112.63L67.3385 112.609L67.3594 112.5L67.4688 112.516L67.9375 112.156C68.2344 112.547 68.4062 112.771 68.4062 112.771L69.0312 113.552Z" fill="black"/>
<path d="M119.63 147.11L119.026 146.912C118.318 146.677 102.031 141.36 98.6717 138.167C97.1092 139.11 94.6196 140.177 91.2603 141.344C91.0363 141.422 90.7967 141.506 90.5675 141.584L90.1769 141.714C85.0363 143.433 79.6196 144.839 77.854 145.209L76.6196 145.469L77.4946 144.552C77.4998 144.547 78.3071 143.698 79.5728 142.334C79.6457 142.25 79.7186 142.172 79.8019 142.084C80.3696 141.464 81.0311 140.74 81.7498 139.948L81.9946 139.677C85.3175 135.995 89.9165 130.672 92.9686 126.266C93.2082 125.912 93.4478 125.563 93.6717 125.229C94.2082 124.407 94.6665 123.651 95.0363 122.964C92.9894 123.407 87.6613 124.479 85.328 124.354L84.2394 124.292L85.1196 123.646C87.078 122.214 89.3123 119.776 91.7655 116.396C91.8853 116.229 92.005 116.073 92.1144 115.912L92.2394 115.745C92.7342 115.052 93.2394 114.308 93.7498 113.542C95.2238 111.313 96.4321 109.287 97.0988 108.151C94.703 109.136 92.4165 109.74 90.8332 110.089C89.5103 110.381 88.6769 110.49 88.6457 110.495L86.8748 110.724L88.3853 109.776C88.8853 109.464 89.4009 109.078 89.9269 108.625C90.479 108.157 91.0415 107.62 91.5988 107.026L91.7186 106.907C91.7707 106.849 91.828 106.787 91.8748 106.729C95.9321 102.344 99.6092 95.8441 100.989 93.2712C98.479 94.3857 95.1509 94.7555 94.9894 94.7712L94.0988 94.8649L94.63 94.1462C103.417 82.3493 108.63 65.9378 108.682 65.7764L109.01 64.7295L109.417 65.7451C109.515 65.9951 119.385 90.6201 121.875 93.3389L122.932 94.4951L121.453 93.9743C121.281 93.9066 118.01 92.7503 116.349 92.1253C118.172 96.1566 122.974 102.282 125.802 105.719L125.198 106.219C121.453 101.672 116.698 95.4326 115.265 91.5576L114.943 90.6722L115.802 91.068C116.229 91.266 118.682 92.1566 120.562 92.8285C117.62 88.0055 110.833 71.3389 109.088 67.0316C107.828 70.7295 103.088 83.766 95.8019 93.8701C97.229 93.641 100.021 93.0889 101.703 92.0107L102.87 91.266L102.265 92.5107C101.432 94.2295 97.0623 102.266 92.4425 107.261C92.3488 107.36 92.2498 107.464 92.1561 107.563L92.0363 107.688C91.4998 108.245 90.953 108.766 90.4269 109.219C90.3436 109.292 90.2603 109.36 90.1769 109.427C90.3332 109.396 90.4946 109.36 90.6561 109.323C92.4478 108.933 95.1613 108.203 97.8853 106.948L99.5415 106.188L98.3436 107.563C98.3175 107.604 98.1353 107.907 97.9321 108.261C97.3071 109.318 96.0207 111.526 94.3905 113.974C93.8384 114.808 93.2863 115.61 92.7498 116.365L92.6353 116.532C92.5571 116.641 92.4738 116.756 92.3905 116.865C90.2603 119.797 88.2811 122.042 86.4894 123.563C89.7446 123.36 95.604 122.042 95.6717 122.032L96.4582 121.849L96.104 122.578C95.6717 123.474 95.0728 124.511 94.3175 125.662C94.0884 126.006 93.8488 126.36 93.604 126.714C90.5259 131.151 85.9009 136.5 82.5675 140.203L82.3228 140.474C81.604 141.266 80.9425 141.995 80.3644 142.615C80.2863 142.703 80.2134 142.782 80.1457 142.86C79.6769 143.365 79.2707 143.802 78.9425 144.151C81.3488 143.568 85.7655 142.36 89.9842 140.948L90.3123 140.839C90.5415 140.761 90.7707 140.683 90.9998 140.599C94.505 139.386 97.0363 138.287 98.5155 137.334L98.7967 137.151L99.0207 137.407C101.349 140.078 115.547 144.922 118.661 145.964L117.276 136.844L118.01 137.339C119.437 138.297 124.088 139.802 129.312 141.006L129.578 141.063C129.885 141.136 130.193 141.203 130.5 141.266C135.484 142.349 139.281 142.756 140.182 142.302L140.536 143C138.979 143.792 132.88 142.589 130.333 142.032C130.026 141.964 129.719 141.896 129.411 141.823L129.146 141.766C125.167 140.849 120.531 139.506 118.307 138.396L119.63 147.11Z" fill="black"/>
<path d="M140.219 143.005C139.161 142.599 137.953 141.911 136.635 140.958L136.531 140.885C135.573 140.182 134.578 139.359 133.573 138.448C133.344 138.239 133.104 138.026 132.87 137.802C127.333 132.609 121.193 124.479 121.339 122.541L121.37 122.052L121.844 122.198C124.052 122.896 129.193 123.859 131.594 124.297C129.26 121.875 126 117.192 123.516 113.448C121.469 110.359 119.922 107.864 119.906 107.838L119.469 107.13L127.104 108.229L126.995 109.005L121.021 108.146C121.62 109.099 122.781 110.927 124.172 113.021C126.995 117.276 130.818 122.744 133.068 124.619L134.182 125.552L132.75 125.307C132.438 125.25 125.531 124.057 122.224 123.135C123.016 125.375 128.078 132.25 133.406 137.25C133.641 137.463 133.87 137.677 134.104 137.885C135.057 138.755 136.01 139.536 136.917 140.213L137 140.271C138.307 141.224 139.484 141.901 140.51 142.297L140.219 143.005Z" fill="black"/>
<path d="M139.849 143.334L140.073 142.073L141.287 142.646L139.849 143.334Z" fill="black"/>
<mask id="mask3_5516_27341" style="mask-type:luminance" maskUnits="userSpaceOnUse" x="74" y="19" width="123" height="126">
<path d="M74.6665 19.333H196.901V144.666H74.6665V19.333Z" fill="white"/>
</mask>
<g mask="url(#mask3_5516_27341)">
<path d="M189.828 144.025C187.906 144.025 186.385 143.864 185.24 143.296L185.588 142.598C187.203 143.395 189.812 143.291 193.432 143.14C194.036 143.114 194.672 143.088 195.338 143.062C194.115 141.619 191.057 137.822 188.463 133.01C184.057 124.817 182.979 117.406 185.349 111.567C186.922 107.697 187.792 102.176 183.495 97.2546C183.932 100.02 183.641 101.926 182.635 102.796C182.161 103.213 181.302 103.588 179.891 103.062C176.115 101.656 176.792 97.291 177.396 93.4421C177.802 90.8275 178.187 88.3587 177.12 87.3379C175.818 86.0983 175.417 83.7337 174.953 80.9941C174.422 77.8275 173.823 74.2858 171.63 72.1869C173.026 78.0566 171.474 83.0671 169.187 85.541C168.318 86.4837 167.427 86.9369 166.745 86.791C164.698 86.3535 165.432 81.9369 166.146 77.666C166.229 77.1764 166.307 76.7129 166.375 76.265C166.87 73.1087 163.948 68.8587 160.963 67.041C161.875 69.3379 161.844 71.8639 160.844 73.9837C160.01 75.7598 158.588 76.9681 156.953 77.2858C155.568 77.5566 154.823 76.9525 154.443 76.4004C153.266 74.6973 153.953 70.9994 154.99 69.3483C155.323 68.8119 157.979 64.2598 155.094 59.0827C154.677 61.1608 153.094 64.6869 151.25 66.4577L150.698 65.9056C152.266 64.3327 151.344 56.14 148.057 52.5566C145.828 50.1243 145.474 46.2337 146.969 40.0566C145.573 41.6764 143.208 44.765 142.578 47.7077C142.057 50.1087 142.641 52.1504 143.151 53.9473C143.562 55.3796 143.948 56.7285 143.724 58.0462C143.568 58.9785 143.146 59.3014 142.818 59.4108C142.323 59.5775 141.74 59.3691 141.182 58.8327C140.505 58.1869 139.943 57.1348 139.875 56.0827C139.172 56.7806 138.729 57.7337 138.547 58.9264C138.151 61.5983 139.224 64.5931 140.12 65.6452C141.255 66.9837 141.307 69.89 140.219 71.2962C139.755 71.89 138.693 72.7441 136.74 71.7962C135.781 71.3327 135.375 69.7754 134.865 67.8014C134.135 64.9889 133.25 61.5671 130.526 60.0306C131.635 62.3848 131.818 65.5462 130.859 67.5879C130.245 68.9056 129.213 69.6712 127.891 69.8014C126.448 69.9473 125.312 69.5931 124.521 68.7598C122.552 66.6869 123.224 62.2702 123.625 59.6296L123.677 59.2702C124.099 56.4577 122.771 54.1243 119.844 52.4889C120.266 54.2389 119.495 55.9681 118.51 57.1087C117.568 58.2025 116.484 58.7389 115.75 58.4837C114.469 58.0358 114.406 56.3379 114.338 54.3796C114.245 51.7858 114.13 48.6139 111.51 46.7233C112.463 49.8535 112.427 52.5306 111.396 54.3327C110.677 55.5879 109.51 56.3796 107.932 56.6712C106.599 56.916 105.844 56.3796 105.448 55.8744C103.734 53.7285 105.057 48.0723 105.875 46.1868C107.547 42.3275 106.125 37.7389 102.578 35.5046C100.495 34.1973 99.0156 32.2077 98.4166 29.9108C97.7864 27.5046 98.1614 24.8483 99.4947 22.166C96.5051 24.1816 94.2604 27.1712 93.3749 30.3952C92.7395 32.6973 92.8906 34.8848 93.7812 36.3952C95.7343 39.7077 97.3697 44.5358 96.5416 46.9473C96.3072 47.6296 95.8906 48.0931 95.3124 48.3275C94.0364 48.8379 92.9531 48.8379 92.1041 48.3275C91.302 47.8431 90.7604 46.9108 90.5104 45.6087C88.5833 47.2285 88.8437 50.1921 89.0677 52.8327C89.2864 55.2962 89.4687 57.4316 87.776 57.9785C87.2552 58.1452 86.7968 58.1244 86.401 57.9264C85.5885 57.5046 85.2343 56.3796 84.8229 55.0775C84.2708 53.3327 83.6041 51.2181 81.6718 50.1087C82.1249 51.7233 82.4062 53.4264 81.6927 54.6921C81.2552 55.4629 80.4947 55.9994 79.427 56.265C78.7135 56.4473 78.0572 56.2337 77.5312 55.6296C75.0364 52.8119 75.5416 41.1452 77.3072 36.5254V36.4368L77.4218 36.3223L77.6979 36.5931H78.0937L78.0885 36.5983V36.6712L78.0624 36.7389C76.4218 40.9368 75.8593 52.5619 78.1145 55.1087C78.4479 55.4889 78.8072 55.6139 79.2395 55.5046C80.0989 55.2858 80.6822 54.8952 81.0104 54.3066C81.6927 53.0879 81.1927 51.1868 80.677 49.4941L80.4427 48.7337L81.1874 49.0098C84.0677 50.0931 84.9322 52.8379 85.5624 54.8379C85.9218 55.9733 86.2343 56.9577 86.7552 57.2285C86.9531 57.3327 87.2083 57.3327 87.526 57.2285C88.6302 56.8691 88.4687 55.0306 88.2864 52.8952C88.0312 49.9733 87.7187 46.3379 90.5885 44.5827L91.1145 44.2598L91.1822 44.8743C91.3333 46.265 91.7864 47.2233 92.4947 47.6556C93.1302 48.0358 93.9739 48.015 95.0104 47.5983C95.3749 47.4577 95.6302 47.1608 95.7864 46.6973C96.4999 44.6087 94.9427 39.9316 93.0937 36.7962C92.0989 35.1035 91.9218 32.6921 92.6093 30.1868C93.6718 26.3327 96.5624 22.7962 100.349 20.7233L101.63 20.0254L100.87 21.2702C96.8906 27.8066 99.5156 32.6712 102.979 34.8483C106.854 37.2806 108.401 42.291 106.578 46.4993C105.635 48.6816 104.713 53.7181 106.042 55.3952C106.432 55.8848 107 56.0462 107.776 55.9056C109.12 55.6556 110.104 54.9993 110.703 53.9473C111.719 52.1764 111.615 49.2702 110.422 45.9681L110.083 45.0358L110.969 45.4889C114.859 47.4785 115.005 51.4525 115.109 54.3483C115.167 56.0306 115.224 57.4733 115.995 57.7441C116.338 57.8639 117.151 57.4733 117.906 56.5983C118.911 55.4421 119.661 53.5879 118.771 51.8691L118.24 50.8483L119.281 51.3275C123.12 53.1087 124.953 55.9733 124.443 59.3848L124.391 59.7441C124.036 62.0775 123.38 66.4264 125.083 68.2233C125.708 68.8796 126.604 69.14 127.807 69.0254C128.859 68.9212 129.646 68.3275 130.151 67.2598C131.135 65.1504 130.74 61.5566 129.281 59.4212L128.63 58.4681L129.724 58.8327C133.687 60.1452 134.802 64.4577 135.62 67.6087C136.042 69.2441 136.443 70.791 137.083 71.0983C138.187 71.6348 139.036 71.5462 139.599 70.8223C140.536 69.6087 140.349 67.1244 139.521 66.1556C138.505 64.9629 137.338 61.7494 137.771 58.8171C138.036 57.0619 138.849 55.7077 140.135 54.8848L141.005 54.3223L140.719 55.3171C140.437 56.2962 141.005 57.5931 141.713 58.2754C142.036 58.5827 142.37 58.7441 142.562 58.6816C142.74 58.6191 142.88 58.3483 142.948 57.9212C143.135 56.7806 142.792 55.5671 142.396 54.1712C141.859 52.2806 141.25 50.14 141.802 47.5514C142.76 43.0879 147.266 38.5514 147.453 38.3587L148.495 37.3223L148.104 38.7389C146.255 45.5306 146.417 49.6296 148.63 52.041C151.255 54.9108 152.568 60.6504 152.141 64.0931C153.698 61.6504 154.599 58.5306 154.401 58.0046L155.068 57.5983C158.25 62.1608 157.37 67.0046 155.641 69.7702C154.729 71.2233 154.115 74.5775 155.073 75.9681C155.437 76.4994 156 76.6816 156.792 76.5254C158.177 76.2546 159.396 75.2077 160.125 73.6556C161.172 71.4264 161.042 68.6973 159.771 66.3639L159.24 65.39L160.266 65.8171C163.49 67.1608 167.792 72.1973 167.13 76.39C167.062 76.8379 166.984 77.3066 166.901 77.7962C166.401 80.7702 165.573 85.7494 166.885 86.0306C167.187 86.0931 167.807 85.8639 168.594 85.015C172.219 81.0931 171.526 74.5254 170.552 71.2598L170.245 70.2389L171.141 70.8223C174.365 72.9316 175.078 77.1452 175.708 80.8639C176.125 83.3587 176.526 85.7129 177.641 86.7806C179 88.0827 178.588 90.7494 178.151 93.5671C177.573 97.2962 176.969 101.15 180.146 102.333C180.995 102.645 181.651 102.609 182.109 102.213C182.635 101.749 183.391 100.348 182.469 96.1087L182.193 94.8431L183.125 95.7494C187.573 100.062 188.588 105.635 186.057 111.864C180.531 125.484 196.281 142.994 196.443 143.171L197.016 143.796L196.161 143.822C195.198 143.854 194.292 143.89 193.443 143.926C192.115 143.973 190.906 144.025 189.828 144.025Z" fill="black"/>
</g>
<mask id="mask4_5516_27341" style="mask-type:luminance" maskUnits="userSpaceOnUse" x="0" y="35" width="79" height="109">
<path d="M0.900879 35.333H78.6665V143.333H0.900879V35.333Z" fill="white"/>
</mask>
<g mask="url(#mask4_5516_27341)">
<path d="M0.942383 142.646L2.38509 141.869C5.68197 140.078 5.67155 135.422 5.66634 130.031C5.65593 124.213 5.64551 117.619 10.2653 113.797L10.609 113.515C16.1872 108.896 25.5309 101.177 20.2132 90.8591L19.9424 90.3434L20.5257 90.2913C22.5778 90.1143 25.2549 92.1299 26.3591 93.0466C26.6455 91.307 26.1403 89.6143 25.6091 87.833C24.2913 83.4372 22.7965 78.4528 31.8226 70.4684L33.708 68.8018L32.4216 70.9632C30.7809 73.708 31.1976 77.8226 32.6247 79.9372C32.9424 80.4163 33.5934 81.1924 34.3747 81.0674C38.1038 80.4997 37.7861 76.8903 37.4684 73.4059C37.3434 71.9841 37.2236 70.6351 37.4059 69.5778C37.9945 66.1403 39.9163 63.4684 41.7705 60.8851C44.2913 57.3799 46.4684 54.359 45.057 50.0986L44.708 49.0413L45.6403 49.6455C50.7393 52.958 50.7028 58.958 50.6768 63.3382C50.6611 65.9528 50.6455 68.0153 51.7132 68.2966C52.7913 68.583 53.7757 68.2913 54.4736 67.4788C55.5622 66.208 56.0309 63.4684 54.6038 60.2028L54.3538 59.6247L54.9788 59.6507C57.9163 59.7913 58.7497 62.7184 59.4893 65.3018C59.958 66.9528 60.4007 68.5049 61.2913 68.9841C61.6611 69.1768 62.1038 69.1872 62.6559 69.0101C63.6924 68.6768 64.458 67.9684 64.9372 66.8955C65.8226 64.9163 65.4632 62.3018 64.7549 60.708L64.4216 59.9528L65.2184 60.1716C66.8955 60.6299 67.9216 62.1299 68.7445 63.333C69.2913 64.1403 69.807 64.8955 70.2705 64.9372C70.4841 64.958 70.7393 64.8226 71.0309 64.5309C71.984 63.5726 71.1663 61.2028 70.3018 58.6924C69.3695 56.0101 68.3174 52.9684 68.8903 50.4111C70.0309 45.359 77.3174 36.4372 77.3955 36.3486L77.9997 36.8486C77.9268 36.932 70.7549 45.708 69.6559 50.583C69.1299 52.9268 70.1455 55.8538 71.0413 58.4372C72.0309 61.3018 72.8903 63.7809 71.5882 65.083C71.1195 65.5518 70.6663 65.7601 70.208 65.7132C69.3799 65.6351 68.7861 64.7757 68.1038 63.7757C67.4736 62.8486 66.7705 61.8226 65.8018 61.2549C66.3382 62.9893 66.4893 65.3486 65.6611 67.208C65.0934 68.4684 64.1403 69.3486 62.9007 69.7445C62.1507 69.9893 61.4841 69.9632 60.932 69.6663C59.7445 69.0309 59.2601 67.3226 58.7445 65.5049C58.1091 63.2966 57.458 61.0153 55.583 60.5205C56.6768 63.4476 56.4893 66.3278 55.0674 67.9788C54.1663 69.0309 52.9007 69.4059 51.5205 69.0413C49.8643 68.6038 49.8799 66.2705 49.8955 63.3226C49.9163 59.4007 49.9476 54.1247 46.0934 50.9372C46.9476 55.0153 44.7393 58.0934 42.4059 61.333C40.5986 63.8434 38.7288 66.4424 38.1768 69.6976C38.0101 70.6611 38.1299 71.9528 38.2497 73.3226C38.5622 76.8122 38.9476 81.1455 34.4945 81.8278C33.5986 81.9684 32.7028 81.4476 31.9736 80.3643C30.6976 78.4632 30.1143 75.1455 30.9788 72.3018C23.8434 79.2236 25.1716 83.6611 26.3538 87.5986C26.9841 89.6976 27.5778 91.682 26.9684 93.8591L26.7966 94.4788L26.3278 94.0466C26.2965 94.0205 23.4059 91.3799 21.1872 91.0778C26.1455 101.661 16.3851 109.734 11.0986 114.104L10.7549 114.385C6.41634 117.974 6.43197 124.375 6.43717 130.015C6.44759 134.838 6.4528 139.422 3.82259 141.786C6.26009 141.75 10.0205 141.635 12.1663 140.208L12.5986 140.859C10.1559 142.484 5.97884 142.536 3.48405 142.567C3.14551 142.573 2.83822 142.578 2.57259 142.583L0.942383 142.646Z" fill="black"/>
</g>
<path d="M53.9321 40.4736L54.6144 39.432C56.8592 35.9788 56.8488 31.3591 54.5675 24.8851L54.1613 23.7236L55.1665 24.4372C59.0988 27.234 61.2238 30.7705 60.854 33.8903C60.6353 35.708 59.4582 38.2445 55.0832 40.0049L53.9321 40.4736ZM55.7134 25.833C57.4634 31.3278 57.5207 35.4997 55.8696 38.7965C58.3905 37.5413 59.8332 35.8278 60.078 33.8018C60.38 31.234 58.7603 28.3174 55.7134 25.833Z" fill="black"/>
<path d="M160.25 51.8232L160.927 50.7816C163.172 47.3285 163.161 42.7087 160.885 36.2347L160.474 35.0732L161.479 35.7868C165.411 38.5837 167.536 42.1201 167.172 45.2347C166.953 47.0524 165.776 49.5889 161.401 51.3545L160.25 51.8232ZM162.031 37.1878C163.781 42.6774 163.839 46.8545 162.188 50.1514C164.708 48.8962 166.156 47.1826 166.396 45.1514C166.698 42.5837 165.083 39.667 162.031 37.1878Z" fill="black"/>
<mask id="mask5_5516_27341" style="mask-type:luminance" maskUnits="userSpaceOnUse" x="93" y="0" width="7" height="13">
<path d="M93.3335 0.515625H100V12.6667H93.3335V0.515625Z" fill="white"/>
</mask>
<g mask="url(#mask5_5516_27341)">
<path d="M98.2811 12.5885L97.4634 12.1354C95.203 10.8802 93.8488 8.72917 93.9217 6.51562C94.0051 4.22396 95.5988 2.18229 98.3072 0.911458L99.1613 0.515625L98.8384 1.40104C98.3176 2.82813 97.2603 8.95833 98.0259 11.6875L98.2811 12.5885ZM97.8436 2.03646C95.8749 3.17187 94.7655 4.75 94.7082 6.54688C94.6561 8.20833 95.5467 9.84375 97.0884 10.974C96.703 8.23958 97.3436 4.06771 97.8436 2.03646Z" fill="black"/>
</g>
</svg>
