<svg width="204" height="145" viewBox="0 0 204 145" fill="none" xmlns="http://www.w3.org/2000/svg">
<path d="M188.859 103.786C184.568 102.588 180.505 101.458 178.646 99.1612C178.193 98.5987 178.015 98.0258 178.12 97.4112C178.536 94.9945 183.01 92.2341 187.75 89.3122C192.781 86.2081 197.979 82.9997 199.989 79.3747C200.87 77.7758 201.036 76.2706 200.479 74.9008C198.943 71.1091 192.146 69.0518 186.687 67.3956C183.312 66.3695 179.823 65.3122 179.594 64.3122C179.547 64.1195 179.672 63.8852 179.963 63.6195C180.896 62.755 183.448 61.8539 185.906 60.9893C189.698 59.656 192.969 58.5102 192.859 56.9216C192.797 56.0206 191.89 54.9268 185.614 53.6247C184.219 53.281 182.729 53.0727 181.182 52.9997C181.026 52.7289 180.833 52.406 180.599 52.031C179.125 49.6612 176.443 45.7706 174.953 43.9789C174.838 43.8435 174.729 43.7185 174.635 43.6091L174.573 43.5362L174.479 43.4997C173.812 43.2445 173.062 43.0154 172.26 42.8227C169.687 42.1977 166.323 41.8435 162.76 41.8175L149.812 23.5154L149.151 23.9841L161.771 41.8227C156.943 41.88 152.594 42.505 150.307 43.505L150.255 43.531L140.37 51.7914C139.911 51.8643 138.021 52.1716 135.599 52.5831L101.531 2.64037L100.864 3.09349L134.734 52.7341C128.349 53.8279 124.302 54.5727 122.406 55.0102L115.463 44.7602L114.797 45.2133L121.578 55.2237C121.474 55.2602 121.39 55.2862 121.328 55.3122C119.708 55.4164 118.359 55.4685 117.203 55.4685C115.755 55.4685 114.224 55.3904 112.417 55.2237V50.1091L113.344 50.6872L113.771 50.005L101.588 42.3383L89.4009 50.005L89.828 50.6872L90.7551 50.1091V52.7289L84.953 50.2654C87.5519 48.4529 89.4894 47.0414 90.7082 46.0675L91.0415 45.8018L90.9321 45.6872L92.0728 44.7497L91.5311 44.4685C89.4009 43.3643 86.9113 44.0414 84.9113 44.5831C84.8071 44.6143 84.703 44.6404 84.5988 44.6716L84.0571 44.1872C78.5884 39.2914 75.1821 36.4581 73.6665 35.5675C74.104 34.5779 74.4113 33.5154 74.5676 32.4425C74.8905 32.5414 75.2863 32.5987 75.7082 32.5987C75.7498 32.5987 75.7915 32.5935 75.828 32.5935L75.9269 32.7706C76.4478 33.7445 77.453 34.2966 78.4842 34.2966C78.9426 34.2966 79.4061 34.1872 79.8384 33.9581C80.7915 33.4581 81.3853 32.4737 81.3853 31.3956C81.3853 30.9268 81.2655 30.4529 81.0467 30.0414L80.4009 28.8122L79.6926 29.1925L80.3436 30.4164C80.5051 30.7237 80.5832 31.0518 80.5832 31.3956C80.5832 32.1716 80.1561 32.8852 79.4634 33.2497C78.4842 33.7706 77.2759 33.4216 76.7082 32.4841C76.9269 32.4372 77.1353 32.3695 77.3332 32.2862C78.1353 31.932 78.5988 31.2862 78.6353 30.4737C78.7082 28.9789 77.6248 27.7341 76.6769 27.1143C76.3176 26.88 75.9738 26.7341 75.6717 26.6768C75.9634 25.2393 75.5676 23.9112 74.5363 22.9633C73.6509 22.1508 72.5415 22.1091 71.5103 22.8175L69.9894 19.9945C72.4113 18.8175 74.7446 17.5727 76.9165 16.2914C80.0728 14.432 82.7238 12.5883 84.5884 10.9737C86.6509 9.18204 87.6978 7.72891 87.6978 6.64558C87.6978 6.38516 87.6353 6.14558 87.5207 5.94245C84.0623 -0.484631 72.6144 -1.48463 61.4582 3.67162L61.3384 3.7237C61.1925 3.7862 61.0467 3.85912 60.9061 3.92683C60.9061 3.92683 60.9061 3.92683 60.9009 3.92683C60.9009 3.92683 60.9009 3.92683 60.8957 3.92683H60.8905C60.8696 3.93204 60.8488 3.94766 60.8332 3.95808C53.6769 7.41641 48.3436 12.656 46.5571 17.9893C45.6561 20.682 45.7655 23.2393 46.854 25.3383C46.8696 25.38 46.8905 25.4164 46.9113 25.4581L47.2811 25.307L46.9269 25.4945C47.3071 26.1925 48.255 26.5466 49.755 26.5466C50.3488 26.5466 51.0259 26.4893 51.7915 26.38C51.9634 26.6768 52.1717 26.9477 52.4217 27.1768C50.7238 29.2289 47.5519 34.4685 48.3905 44.3331L48.3644 44.3643L48.4165 44.5779C48.479 44.8383 48.5467 45.0883 48.6092 45.3331L37.3332 39.6508L26.0936 45.3227L16.4009 31.1091L15.7342 31.5622L25.3696 45.6872L18.755 49.0206L19.1144 49.7393L22.2446 48.1612V54.1195C21.6873 54.1247 21.0988 54.1195 20.5207 54.1143C19.6196 54.1039 18.6821 54.0987 17.8853 54.1247C13.604 54.2862 5.74463 56.9112 2.4738 62.0466C0.697755 64.8383 0.499838 67.9164 1.89046 71.2029C3.58317 75.2081 10.2446 78.2029 16.6821 81.1091C22.6092 83.7758 28.2082 86.3018 28.2134 88.9685C28.2134 90.4893 26.2863 92.1352 22.479 93.8591C16.0988 96.7445 13.2238 101.026 14.38 105.916C15.4894 110.62 20.2967 115.218 27.5675 118.526C35.5571 122.161 45.9321 123.932 56.7811 123.5C71.0311 122.937 77.3436 127.302 84.6509 132.354C92.3696 137.692 101.12 143.739 121.396 144.385C122.328 144.411 123.265 144.427 124.208 144.427C153.812 144.427 189.693 130.239 200.193 120.13C202.13 118.265 203.114 116.604 203.125 115.187C203.172 107.765 195.568 105.651 188.859 103.786ZM62.2394 48.4945C62.2967 48.4581 62.3592 48.4216 62.4217 48.3852L62.4998 48.4945H62.2394ZM64.8228 35.3487C64.4113 35.4945 63.9738 35.656 63.5155 35.8383C63.6613 35.4737 63.7082 35.1404 63.7186 34.8747C64.0728 35.0414 64.453 35.2081 64.8228 35.3487ZM63.1092 47.9581C65.7446 46.2758 68.0884 44.406 68.8696 43.7654L73.8957 48.4893H63.4686L63.1092 47.9581ZM32.4894 54.6925L33.88 55.0935L33.5519 56.2393L32.4894 54.6925ZM69.3592 27.0987C68.5936 27.8435 68.1665 28.8591 67.9634 29.4893C67.5519 29.2133 66.8853 28.7758 66.0988 28.2758C66.4738 27.3227 66.2498 26.3904 66.0103 25.406C65.8019 24.5466 65.5623 23.5831 65.6978 22.4425L65.7551 22.0987C65.7655 22.0362 65.7759 21.9789 65.7863 21.9164C66.9634 21.406 68.1248 20.88 69.2498 20.3435L70.8748 23.3591C69.9217 24.3487 69.3228 25.8227 69.3592 27.0987Z" fill="black"/>
<path d="M30.75 14.9951L31.4115 14.542L40.3594 27.6514L39.6979 28.1045L30.75 14.9951Z" fill="black"/>
<path d="M91.5884 18.9482L92.2498 18.4951L102.114 32.9535L101.453 33.4066L91.5884 18.9482Z" fill="black"/>
<path d="M148.104 10.2031L148.771 9.75L159.63 25.6667L158.963 26.1198L148.104 10.2031Z" fill="black"/>
<path d="M124.448 13.7549L125.114 13.3018L139.364 34.1872L138.698 34.6403L124.448 13.7549Z" fill="black"/>
<path d="M167.375 17.7656L168.042 17.3125L188.969 47.9792L188.302 48.4323L167.375 17.7656Z" fill="black"/>
<path d="M171.156 54.3851C174.266 53.7913 177.604 53.2757 180.948 53.4007C182.474 53.4528 184.011 53.6507 185.521 54.0205C202.719 57.5934 182.953 60.3174 179.693 63.3278C174.922 67.7288 205.563 68.4632 199.641 79.1819C195.193 87.208 173.724 93.7288 178.333 99.4163C183.313 105.567 202.797 103.531 202.719 115.177C202.656 124.244 157.005 145.104 121.412 143.974C82.6095 142.744 86.7085 121.911 56.7657 123.093C21.7397 124.479 2.65637 103.27 22.6459 94.2236C42.6355 85.1767 6.3647 80.7496 2.26053 71.0465C-2.16134 60.583 11.2449 54.7705 17.9012 54.5205C19.3178 54.4684 21.1407 54.5361 22.6459 54.5101C23.6147 54.4892 24.4532 54.4319 24.9897 54.2809C24.5626 54.7549 24.1668 55.2549 23.797 55.7861L18.2866 63.6871L12.948 71.359C13.5626 72.4996 14.1512 73.4059 14.7293 74.1246C18.1668 78.3538 21.3282 75.9684 27.7709 77.5778V77.583C29.0366 77.9007 30.422 78.3642 31.9637 79.0726C35.5366 80.6976 39.0991 83.2288 43.2189 84.1194C44.8439 84.4736 46.5522 84.5726 48.3855 84.2601C48.797 84.1924 49.1876 84.1142 49.5678 84.0205C54.8439 82.8121 56.9689 80.1663 60.7814 80.5934C60.9949 80.6142 61.2137 80.6455 61.4272 80.6924C65.9532 81.5726 65.3803 84.7444 71.922 83.1559C75.646 82.2549 79.2501 79.984 83.0001 78.4059C85.823 77.2184 88.7345 76.4215 91.8387 76.9111C92.7189 77.0465 93.5314 77.2132 94.3022 77.3903C99.8439 78.6924 102.745 80.833 106.458 80.6038C108.245 80.4944 109.5 80.1976 110.349 79.9059C111.511 79.4944 111.917 79.0726 111.917 79.0726L103.417 67.6559L94.9116 56.2184C94.8282 56.0986 94.7397 55.984 94.6407 55.8746H94.646C95.448 55.6507 96.2293 55.4684 97.0001 55.333C99.1251 54.9371 101.141 54.8278 103.109 54.8642C106.12 54.9163 109.016 55.3174 112.011 55.5934C113.698 55.7549 115.417 55.8746 117.198 55.8746C118.443 55.8746 119.87 55.8121 121.412 55.7132C121.719 55.6924 122.026 55.6715 122.349 55.6507C126.74 55.333 131.891 54.7653 136.349 54.3903C139.958 54.0882 143.109 53.9059 145.021 54.0986C150.297 54.6246 156.818 56.4059 162.802 55.8694C165.229 55.6559 168.078 54.9788 171.156 54.3851ZM164.167 89.6819C165.802 89.1194 167.417 88.2965 169.271 88.5413V83.2601H177.776C179.422 83.2601 180.401 81.4215 179.495 80.0517L168.427 63.4111C167.609 62.1767 165.807 62.1767 164.99 63.4111L153.922 80.0517C153.011 81.4215 153.99 83.2601 155.636 83.2601H164.141V89.6038L164.167 89.6819ZM178.333 119.317C179.016 118.948 179.615 118.442 180.125 117.765L165.729 102.922C158.656 98.4371 139.386 94.8382 125.849 94.2288C118.708 94.9736 112.813 96.1924 108.042 97.5361C97.172 100.599 92.198 104.302 91.9428 104.474C91.9428 104.474 88.5262 106.547 84.8699 106.547C81.2137 106.547 78.1616 105.937 73.896 109.229C69.6251 112.526 64.1772 108.828 62.4324 110.937C60.4741 113.307 69.9897 113.864 72.9168 117.156C74.521 118.958 76.3126 119.885 78.7345 120.375C80.7397 120.781 83.1928 120.88 86.3335 120.937C93.2814 121.062 95.9637 119.838 99.9897 123.5C101.609 124.974 102.818 125.953 104.234 126.573C106.344 127.51 108.917 127.666 114.016 127.52C122.557 127.276 120.359 127.52 127.917 131.057C131.266 132.625 133.037 132.609 134.297 131.974C135.886 131.172 136.672 129.38 138.776 128.494C139.583 128.156 140.417 127.927 141.318 127.77C144.646 127.198 148.896 127.666 156.094 127.76C165.24 127.885 162.438 121.541 168.292 120.932C172.787 120.463 176.063 120.573 178.333 119.317Z" fill="#4A8BDF"/>
<path d="M180.948 53.401C177.599 53.276 174.266 53.7917 171.156 54.3854L169.594 52.1719H176.089L171.932 44.2396L172.177 43.2188C172.958 43.4115 173.688 43.6302 174.344 43.8802C174.438 43.9844 174.547 44.1042 174.651 44.2396H173.698L179.016 52.25H180.271C180.526 52.6771 180.76 53.0625 180.948 53.401Z" fill="#FF9F43"/>
<path d="M180.26 52.2497H179.005L173.688 44.2393H174.646C176.057 45.932 178.698 49.7393 180.26 52.2497Z" fill="#4A8BDF"/>
<path d="M165.729 102.922L180.125 117.766C179.614 118.443 179.015 118.948 178.333 119.318L164.64 103.74L129.63 113.302L141.318 127.771V127.776C140.417 127.927 139.583 128.161 138.781 128.5C136.677 129.38 135.896 131.172 134.302 131.979C132.26 127.042 125.609 114.469 125.609 114.469C123.495 112.719 120.213 111.219 116.536 109.974L108.042 97.5312C112.812 96.1823 118.708 94.9688 125.849 94.2188C139.385 94.8385 158.656 98.4375 165.729 102.922Z" fill="#5FB6BE"/>
<path d="M179.489 80.0518C180.396 81.4216 179.416 83.2601 177.771 83.2601H155.63C153.984 83.2601 153.005 81.4216 153.916 80.0518L164.984 63.4111C165.802 62.1768 167.604 62.1768 168.422 63.4111L179.489 80.0518ZM173.515 80.1455C174.515 80.1455 175.109 79.0361 174.562 78.2028L167.745 67.9476C167.25 67.2028 166.161 67.2028 165.661 67.9476L158.844 78.2028C158.297 79.0361 158.89 80.1455 159.89 80.1455H173.515Z" fill="#C41830"/>
<path d="M164.636 103.739L178.328 119.317C176.057 120.573 172.787 120.463 168.292 120.932C162.438 121.541 165.24 127.885 156.094 127.76C148.896 127.666 144.646 127.198 141.318 127.771V127.765L129.63 113.297L164.636 103.739Z" fill="#FF9F43"/>
<path d="M171.927 44.2393L176.083 52.1715H169.594L163.974 44.2393H171.927Z" fill="#4A8BDF"/>
<path d="M174.563 78.2035C175.11 79.0368 174.516 80.1462 173.516 80.1462H159.891C158.891 80.1462 158.297 79.0368 158.844 78.2035L165.662 67.9482C166.162 67.2035 167.25 67.2035 167.745 67.9482L174.563 78.2035Z" fill="#FF9F43"/>
<path d="M172.172 43.2184L171.927 44.2393H163.974L162.552 42.2236C165.958 42.234 169.412 42.5518 172.172 43.2184Z" fill="#FF9F43"/>
<path d="M161.302 52.1719H169.594L171.156 54.3854C168.078 54.9792 165.229 55.6563 162.807 55.875C156.823 56.4063 150.297 54.6302 145.021 54.1042C143.115 53.9115 139.964 54.0885 136.349 54.3958L135.422 53.0312C138.339 52.5312 140.552 52.1771 140.552 52.1771H161.302V52.1719Z" fill="#FF9F43"/>
<path d="M169.594 52.1715H161.302V44.2393H163.974L169.594 52.1715Z" fill="#4A8BDF"/>
<path d="M169.271 83.2607V88.542C167.417 88.2972 165.802 89.1149 164.167 89.6826L164.135 89.6045V83.2607H169.271Z" fill="#4A8BDF"/>
<path d="M162.552 42.2239L163.974 44.2396H150.047L150.479 43.8802C152.896 42.8125 157.667 42.2083 162.552 42.2239Z" fill="#FF9F43"/>
<path d="M161.302 44.2393V52.1715H144.693L151.776 44.2393H161.302Z" fill="#4A8BDF"/>
<path d="M151.776 44.2393L144.693 52.1715H140.547L150.047 44.2393H151.776Z" fill="#FF9F43"/>
<path d="M135.417 53.0264L136.349 54.391C131.891 54.766 126.74 55.3337 122.349 55.6514L122.224 55.4691C124.552 54.9014 130.86 53.8024 135.417 53.0264Z" fill="#FF9F43"/>
<path d="M116.531 109.979C120.208 111.224 123.49 112.718 125.604 114.474C125.604 114.474 132.255 127.041 134.297 131.984C133.036 132.619 131.266 132.63 127.917 131.067C120.359 127.526 122.552 127.286 114.016 127.526C108.917 127.672 106.344 127.515 104.234 126.583C104.234 126.583 107.651 107.567 107.573 107.552C110.552 108.198 113.667 109.01 116.531 109.979Z" fill="#FF9F43"/>
<path d="M108.042 97.5361L116.536 109.979C113.672 109.01 110.557 108.198 107.578 107.547C101.604 106.229 96.1353 105.567 94.1405 105.567C94.1405 105.567 79.2603 119.593 78.7342 120.369C76.3072 119.88 74.5207 118.953 72.9165 117.156C69.9895 113.859 60.4738 113.302 62.4322 110.932C64.177 108.823 69.6249 112.515 73.8957 109.224C78.1613 105.932 81.2134 106.541 84.8697 106.541C88.5311 106.541 91.9426 104.468 91.9426 104.468C92.1978 104.297 97.1665 100.593 108.042 97.5361Z" fill="#5FB6BE"/>
<path d="M112.016 49.3802V55.5938C109.021 55.3125 106.125 54.9167 103.11 54.8646V51.401H97.0054V55.3281C96.2397 55.4687 95.4533 55.651 94.6512 55.8698L94.646 55.875C93.7658 54.8073 92.646 53.9635 91.3647 53.4219L91.146 53.3281L91.1512 53.3125V49.375L101.583 42.8125L112.016 49.3802Z" fill="#FF9F43"/>
<path d="M103.417 67.6507L111.917 79.0726C111.917 79.0726 111.505 79.4945 110.349 79.9007L93.2292 56.8122C92.3906 55.6768 91.0365 55.0413 89.6302 55.1195L68.2917 56.2705L63.2656 48.9007H74.849L74.8802 48.8643L76.9219 50.7809L77.7812 50.0882C77.7812 50.0882 78.8646 52.6715 79.75 53.3226C79.75 53.3226 81.7396 51.9945 84.1146 50.3538H84.1198L91.1458 53.3382L91.3698 53.432C92.6458 53.9684 93.7708 54.8122 94.651 55.8799C94.7448 55.9893 94.8333 56.1038 94.9219 56.2184L103.417 67.6507Z" fill="#C41830"/>
<path d="M94.2969 77.3911C93.5313 77.214 92.7188 77.0473 91.8333 76.9067C88.7292 76.4171 85.8177 77.214 82.9948 78.4067L82.7135 77.4119L68.2812 56.2661L89.6198 55.115C91.0313 55.0421 92.3802 55.6775 93.224 56.813L110.339 79.8963C109.49 80.1932 108.24 80.4848 106.453 80.5942C102.745 80.8286 99.8438 78.688 94.2969 77.3911Z" fill="#5FB6BE"/>
<path d="M107.573 107.547C107.651 107.563 104.234 126.573 104.234 126.573C102.818 125.953 101.615 124.974 99.9896 123.5C95.9635 119.839 93.2813 121.058 86.3333 120.938C83.1875 120.881 80.7396 120.776 78.7344 120.375C79.2604 119.599 94.1406 105.573 94.1406 105.573C96.1354 105.568 101.599 106.23 107.573 107.547Z" fill="#FF9F43"/>
<path d="M103.109 54.8545C101.141 54.818 99.125 54.9378 97 55.3285V51.4014H103.109V54.8545Z" fill="#4A8BDF"/>
<path d="M91.3385 44.8226L90.3333 45.6455C88.9323 44.5465 83.3333 46.1611 81.4531 47.0986L82.6094 46.1559L83.651 45.3226C85.7083 44.8851 88.849 43.5361 91.3385 44.8226Z" fill="#5FB6BE"/>
<path d="M90.3332 45.6506C90.3748 45.6818 90.4165 45.7183 90.4478 45.7547C88.88 47.0099 86.328 48.8172 84.1144 50.3485H84.1092C81.7342 51.9891 79.7498 53.3172 79.7498 53.3172C78.8644 52.6714 77.7759 50.0829 77.7759 50.0829L81.4478 47.0985C83.3332 46.1662 88.9373 44.5516 90.3332 45.6506Z" fill="#5FB6BE"/>
<path d="M87.1561 6.13029C87.2446 6.28133 87.2811 6.45842 87.2811 6.64592C87.2811 7.61467 86.2082 9.02613 84.3175 10.6668L84.3123 10.6615C83.0571 9.26571 79.0988 7.073 77.2915 6.71883C78.5363 6.33863 79.703 6.03133 80.7707 5.79696C84.229 5.04175 86.604 5.08863 87.1561 6.13029Z" fill="#C41830"/>
<path d="M87.1564 6.13037C86.6043 5.0887 84.2293 5.04183 80.7658 5.79704C77.7606 2.00016 68.5002 1.00537 61.6147 4.03141C72.4689 -0.979007 83.8179 -0.0779651 87.1564 6.13037Z" fill="#C41830"/>
<path d="M84.3123 10.6615C82.4738 12.2604 79.8488 14.0885 76.703 15.9479C75.3228 14.5573 70.3905 10.5937 68.5884 9.97917C69.354 9.64583 70.104 9.33333 70.8488 9.02604H70.854C73.1509 8.09896 75.3228 7.32292 77.2915 6.71875C79.0988 7.07292 83.0571 9.27083 84.3123 10.6615Z" fill="#C41830"/>
<path d="M84.2082 44.8643L83.6509 45.3226L82.6092 46.1559C80.328 43.3538 76.0832 39.109 72.6196 36.7028C72.8123 36.3903 72.9894 36.0726 73.1405 35.7393L73.1717 35.7497C75.2603 36.7705 83.1561 43.932 84.2082 44.8643Z" fill="#4A8BDF"/>
<path d="M60.7813 80.5934C56.9688 80.1611 54.8438 82.8122 49.5678 84.0205L46.0573 62.2705C45.6459 59.7236 47.5365 57.3799 50.1146 57.2445L68.2865 56.2705L82.7136 77.4111L83.0001 78.4059C79.2501 79.984 75.6459 82.2549 71.9219 83.1559C65.3855 84.7445 65.9584 81.5778 61.4271 80.6924C61.2084 80.6455 60.9896 80.6143 60.7813 80.5934Z" fill="#5FB6BE"/>
<path d="M68.8906 43.2293C68.8906 43.2293 65.9271 45.7293 62.5417 47.8387L56.7812 39.3959C58.6667 38.4116 60.651 37.4637 62.4688 36.698C63.8281 36.1251 65.0938 35.6459 66.1667 35.3178H66.1719C67.3021 34.9741 68.224 34.8022 68.8021 34.8595C69.7813 34.9584 71.1302 35.6564 72.6146 36.698C76.0833 39.1095 80.3281 43.3439 82.6042 46.1564L81.4479 47.0939L77.776 50.0782L76.9167 50.7762L74.875 48.8543L68.8906 43.2293Z" fill="#4A8BDF"/>
<path d="M75.1405 27.0991C75.88 26.7241 78.3228 28.422 78.2238 30.4533C78.1248 32.4793 74.953 32.4064 74.2863 31.8647L74.2342 31.8595C74.3384 30.797 74.2759 29.7866 74.0571 28.9377C74.4842 28.521 74.9009 27.8543 75.1405 27.0991Z" fill="#FF9F43"/>
<path d="M80.771 5.79683C79.7033 6.03121 78.5366 6.3385 77.2918 6.71871C75.3231 7.31767 73.146 8.09892 70.8491 9.026H70.8439C68.4585 4.97392 64.2918 2.73433 61.0679 4.28642C61.2502 4.19787 61.4325 4.11454 61.6147 4.03121C68.5054 1.00516 77.7606 1.99996 80.771 5.79683Z" fill="#C41830"/>
<path d="M71.3696 23.4274C72.2342 22.6566 73.3175 22.4014 74.255 23.2607C75.4738 24.3805 75.5363 25.8649 75.1404 27.0993C74.8956 27.8545 74.4842 28.5211 74.0571 28.9378C73.7081 27.5941 72.9529 26.6618 71.7967 26.5836C70.9425 26.5211 70.2759 26.8232 69.7602 27.2659C69.6665 25.8857 70.38 24.318 71.3696 23.4274Z" fill="#FF9F43"/>
<path d="M63.1824 34.1618C63.2553 34.1982 63.6824 35.443 62.4689 36.6982C60.6512 37.4639 58.6668 38.4118 56.7814 39.3962C53.2345 41.2451 50.021 43.2347 48.8074 44.4847C48.0574 36.0993 50.2397 30.2087 53.0001 27.1201C54.3178 25.6514 55.7658 24.818 57.0939 24.6514C57.4116 24.6149 57.7137 24.6149 58.0158 24.6514C58.9533 24.766 60.4949 25.4795 62.0939 26.3545C63.3022 27.0107 64.547 27.766 65.5939 28.4222C67.0991 29.3701 68.2033 30.1305 68.2033 30.1305C68.2033 30.1305 68.5835 28.2972 69.7658 27.2607C70.2762 26.8128 70.948 26.5159 71.797 26.5784C72.9533 26.6618 73.7137 27.5889 74.0574 28.9326C74.2814 29.7764 74.3439 30.7868 74.2397 31.8493C74.1095 33.1305 73.7449 34.4847 73.146 35.7347C72.9897 36.068 72.8126 36.3857 72.6251 36.6982C71.1303 35.6566 69.7918 34.9587 68.8074 34.8597C68.2293 34.7972 67.3074 34.9743 66.1824 35.318H66.1772C65.4637 35.2139 64.3751 34.7712 63.1824 34.1618Z" fill="#5FB6BE"/>
<path d="M68.5884 9.97949C70.3905 10.5941 75.3228 14.5576 76.703 15.9482C74.5103 17.2399 72.0571 18.5472 69.4269 19.8128L65.0103 11.6097C66.2186 11.0316 67.4165 10.4899 68.5884 9.97949Z" fill="#C41830"/>
<path d="M70.8489 9.02614C70.1093 9.33343 69.3541 9.64593 68.5885 9.97927C67.4166 10.4845 66.2187 11.0314 65.0156 11.6095C63.0208 12.573 61.1249 13.5626 59.3697 14.547C57.3072 10.3386 57.8541 5.82822 61.0729 4.28135C64.2916 2.73447 68.4635 4.97406 70.8489 9.02614Z" fill="#C41830"/>
<path d="M65.0106 11.6094L69.4272 19.8125C68.0783 20.4635 66.745 21.0677 65.4481 21.625C65.5002 21.401 65.5731 21.1667 65.6616 20.9323C65.8752 20.3542 66.0054 19.2812 65.9168 18.2396C65.8543 17.5469 65.6981 16.8698 65.4168 16.3594C64.495 14.7344 60.995 13.8542 59.3804 14.7188L59.3022 14.5885C59.3231 14.5781 59.3491 14.5677 59.37 14.5521C61.12 13.5625 63.021 12.5729 65.0106 11.6094Z" fill="#C41830"/>
<path d="M63.2603 48.8955L68.2863 56.2653L50.1144 57.2393C47.5363 57.3747 45.6457 59.7236 46.0571 62.2705L49.5675 84.0205C49.1873 84.1091 48.7967 84.1872 48.3853 84.2601C46.5519 84.5674 44.8436 84.4736 43.2186 84.1143L43.2342 84.0205L41.6821 60.5257C41.5363 58.3174 40.0311 56.4424 37.9061 55.833L34.38 54.8174L31.5311 53.9945L29.3696 50.8226C31.6873 49.5726 34.3019 48.8955 37.0103 48.8955H50.6144C51.7342 50.3538 53.4061 51.0622 56.1144 50.6768C57.4738 50.484 59.104 49.7861 60.7394 48.8955H63.2603Z" fill="#C41830"/>
<path d="M65.9113 18.2393C65.9998 19.2809 65.8748 20.3538 65.6561 20.932C65.5675 21.1715 65.4946 21.4059 65.4425 21.6247C65.4009 21.7653 65.3748 21.9059 65.354 22.0361H65.3488L64.3071 21.8226C64.5363 20.609 64.4842 19.182 65.1144 18.2497L65.9113 18.2393Z" fill="black"/>
<path d="M65.9115 18.2391L65.1198 18.2495C63.9948 16.5255 61.1198 20.411 57.901 18.8589C57.8542 18.9422 57.8021 19.0828 57.7708 19.2547L56.625 18.9891C57.1198 16.8693 57.849 15.5308 59.3698 14.7183C60.9844 13.8537 64.4844 14.7287 65.4062 16.3537C65.6979 16.8693 65.8542 17.5464 65.9115 18.2391Z" fill="black"/>
<path d="M65.354 22.0368C64.8332 24.891 66.5936 26.6201 65.5884 28.4326C64.5415 27.7764 63.2967 27.0212 62.0884 26.3597L62.4686 24.0368V24.0316C63.7082 23.7607 64.1196 22.8701 64.3123 21.8232L65.354 22.0368Z" fill="black"/>
<path d="M57.901 18.8596C61.1198 20.4065 63.9948 16.5263 65.1198 18.2502C64.4896 19.1825 64.5416 20.6096 64.3125 21.8231C64.1198 22.87 63.7083 23.7606 62.4687 24.0315C62.276 24.0784 62.0573 24.1044 61.8177 24.1148C58.6823 24.2606 58.5104 20.4742 58.5104 20.4742C57.7396 20.3752 57.6875 19.719 57.776 19.2554C57.8073 19.0836 57.8593 18.9429 57.901 18.8596Z" fill="#FF9F43"/>
<path d="M56.7814 39.3955L62.5418 47.8434C61.9533 48.2132 61.3387 48.5674 60.7397 48.9007C59.1043 49.7913 57.4741 50.4893 56.1147 50.682C53.4064 51.0674 51.7345 50.3538 50.6147 48.9007C50.0418 48.1559 49.6095 47.2132 49.2554 46.1195C49.0887 45.609 48.9429 45.0622 48.8022 44.4945C50.0158 43.2393 53.2293 41.2497 56.7814 39.3955Z" fill="#4A8BDF"/>
<path d="M62.4688 24.0309L62.0885 26.359C60.4896 25.484 58.9531 24.7757 58.0104 24.6559C57.7083 24.6195 57.4063 24.6195 57.0938 24.6559L58.5104 20.4736C58.5104 20.4736 58.6823 24.2601 61.8177 24.1143C62.0573 24.1038 62.276 24.0778 62.4688 24.0309Z" fill="#FF9F43"/>
<path d="M59.2968 14.583L59.3749 14.7184C57.8541 15.5309 57.1197 16.8695 56.6249 18.9893C56.5989 19.109 56.5676 19.234 56.5416 19.3643C56.1093 21.3643 54.7603 21.682 53.651 22.2549C53.3853 21.4893 53.2239 19.2445 53.427 18.2393C55.1145 17.057 57.0989 15.8226 59.2968 14.583Z" fill="#C41830"/>
<path d="M59.3646 14.5469C59.3437 14.5625 59.3177 14.5729 59.2969 14.5833C57.0989 15.8229 55.1146 17.0573 53.4271 18.2344C52.4323 18.9219 51.5469 19.5938 50.7708 20.2292H50.7656C49.25 15.5677 54.1354 7.61979 61.0729 4.28125C57.8489 5.82812 57.3073 10.3438 59.3646 14.5469Z" fill="#C41830"/>
<path d="M58.5103 20.4736L57.0936 24.6559C55.7603 24.8226 54.3124 25.6559 52.9947 27.1299C52.5884 26.8538 52.2343 26.4424 52.0103 25.9476C51.5416 24.9372 51.6509 23.609 53.1197 22.5674C53.2863 22.4528 53.4634 22.3434 53.6457 22.2549C54.7603 21.682 56.1093 21.3643 56.5363 19.3643C56.5676 19.234 56.5936 19.109 56.6249 18.9893L57.7707 19.2549C57.6874 19.7132 57.7395 20.3747 58.5103 20.4736Z" fill="black"/>
<path d="M53.6511 22.2549C53.4636 22.3434 53.2865 22.4528 53.1199 22.5674C51.6563 23.609 51.547 24.9372 52.0157 25.9476H52.0105C49.4636 26.3486 47.7501 26.1663 47.2865 25.307C47.2657 25.2705 47.2449 25.234 47.2292 25.1924C46.8334 24.1351 48.1824 22.3538 50.7657 20.234H50.7709C51.547 19.5986 52.4324 18.9268 53.4272 18.2393C53.224 19.2445 53.3855 21.4893 53.6511 22.2549Z" fill="#C41830"/>
<path d="M50.6144 48.8962H37.005C34.2967 48.8962 31.6769 49.5732 29.3644 50.8232L25.9634 45.8337L37.3332 40.1045L49.255 46.1149C49.6092 47.2087 50.0363 48.1514 50.6144 48.8962Z" fill="#FF9F43"/>
<path d="M61.0677 4.28613C54.1302 7.61947 49.2448 15.5726 50.7604 20.2288C48.1771 22.3486 46.8281 24.1299 47.2292 25.1872C43.9584 18.8747 50.125 9.54655 61.0677 4.28613Z" fill="#C41830"/>
<path d="M33.6981 57.1715L34.3804 54.8174L37.9064 55.833C40.0262 56.4424 41.5366 58.3226 41.6825 60.5257L43.2345 84.0205L43.2137 84.1143C39.0991 83.2288 35.5366 80.6924 31.9637 79.0674C30.422 78.3643 29.0314 77.8955 27.771 77.5778L33.6981 57.1715Z" fill="#5FB6BE"/>
<path d="M33.6979 57.1722L27.776 77.5836L27.7708 77.5784L19.7656 65.8493L25.5625 56.3076C26.7969 54.2816 29.2187 53.3336 31.4948 53.9847L31.526 53.9951L33.6979 57.1722Z" fill="#5FB6BE"/>
<path d="M29.3644 50.8232L31.5259 53.9951L31.4946 53.9847C29.2186 53.3337 26.7967 54.2816 25.5623 56.3076L19.7655 65.8493L18.2915 63.693L23.8071 55.7868C24.1769 55.2607 24.5728 54.7555 24.9946 54.2868C26.2498 52.8753 27.729 51.7087 29.3644 50.8232Z" fill="#C41830"/>
<path d="M25.9637 45.833L29.3647 50.8226C27.7345 51.7028 26.2502 52.8747 24.9897 54.2861C24.4637 54.4372 23.62 54.4945 22.6512 54.5153L22.646 54.2861V47.5101L25.9637 45.833Z" fill="#FF9F43"/>
<path d="M19.7603 65.8438L27.7707 77.5729C21.328 75.9687 18.1665 78.349 14.729 74.1198L19.7603 65.8438Z" fill="#5FB6BE"/>
<path d="M19.7603 65.8434L14.729 74.1247C14.1509 73.4059 13.5623 72.4997 12.9478 71.359L18.2915 63.6924L19.7603 65.8434Z" fill="#C41830"/>
<path d="M48.4009 44.5264C47.453 33.9691 51.0884 28.6514 52.6978 26.8597C54.0363 25.3597 55.578 24.4378 57.0415 24.2607C57.3905 24.2191 57.729 24.2191 58.0572 24.2607C58.9478 24.3649 60.328 24.943 62.2811 26.0107C63.3124 26.5732 64.4999 27.2764 65.802 28.0889C66.7238 28.667 67.4999 29.1826 67.9634 29.4951C68.177 28.8285 68.6353 27.7191 69.4999 26.9691C70.1665 26.391 70.9478 26.1253 71.8228 26.1878C73.0936 26.2764 74.0259 27.2191 74.4426 28.8389C74.677 29.7295 74.7447 30.7816 74.6301 31.9014C74.4895 33.2816 74.0988 34.6722 73.4999 35.917C73.3488 36.2451 73.1613 36.5785 72.9582 36.917L72.2707 36.4951C72.4634 36.1826 72.6301 35.8753 72.7759 35.568C73.3384 34.4066 73.703 33.1097 73.8332 31.818C73.9322 30.7972 73.8749 29.8389 73.6665 29.042C73.479 28.3076 72.979 27.0732 71.7707 26.9847C71.1145 26.9378 70.5311 27.1357 70.0259 27.5732C68.9582 28.5055 68.5988 30.2035 68.5988 30.2191L68.4738 30.8128L67.9738 30.4691C67.9634 30.4587 66.8592 29.7035 65.3749 28.7712C64.0832 27.9639 62.9113 27.2712 61.8957 26.7139C59.6092 25.4639 58.4947 25.1253 57.9634 25.0524C57.703 25.0212 57.4217 25.0212 57.1457 25.0524C55.8801 25.2139 54.5103 26.042 53.302 27.391C51.7655 29.1097 48.2915 34.2139 49.2134 44.4482L48.4009 44.5264Z" fill="black"/>
<path d="M76.901 51.3181L68.8698 43.7712C68.0573 44.4379 65.5365 46.4483 62.7552 48.1826C62.1146 48.5785 61.5052 48.9379 60.9323 49.2504C59.0417 50.2868 57.4375 50.9014 56.1719 51.0785C53.5104 51.4535 51.5885 50.8181 50.2969 49.141C49.7292 48.4118 49.2656 47.4587 48.8698 46.2347C48.7083 45.7295 48.5573 45.1879 48.4115 44.5785L48.3594 44.3649L48.5104 44.2035C49.6875 43.0004 52.7031 41.0681 56.5885 39.0368C58.5625 38.0108 60.5417 37.0733 62.3073 36.3285C63.7135 35.7295 64.9688 35.2608 66.0469 34.9379L66.2812 35.7087C65.25 36.0212 63.9844 36.4899 62.6198 37.0681C60.875 37.8076 58.9167 38.7347 56.9635 39.7556C53.3698 41.6306 50.4583 43.4639 49.25 44.6149C49.375 45.1097 49.5 45.5629 49.6354 45.9951C50 47.1306 50.4219 48.0004 50.9323 48.6514C52.0417 50.1045 53.6719 50.6201 56.0521 50.2868C57.2292 50.1201 58.7344 49.5316 60.5417 48.5472C61.1042 48.2399 61.7031 47.891 62.3333 47.5056C65.6563 45.4326 68.599 42.9535 68.6302 42.9274L68.9062 42.6983L76.9427 50.2556L82.0417 46.1097C79.7344 43.3389 75.6823 39.3285 72.3958 37.042C70.8542 35.9691 69.599 35.3545 68.7656 35.2712C68.4167 35.2347 67.7031 35.2816 66.2917 35.7139L66.0573 34.9483C67.2969 34.5681 68.2344 34.4118 68.849 34.4743C69.8333 34.5733 71.1823 35.2191 72.8542 36.3858C76.3333 38.8024 80.6354 43.0993 82.9271 45.9222L83.1823 46.2295L76.901 51.3181Z" fill="black"/>
<path d="M68.5782 43.484C67.3178 41.9528 67.2813 39.432 67.6095 38.7861L68.3282 39.1455C68.1511 39.5049 68.1147 41.6663 69.198 42.9736L68.5782 43.484Z" fill="black"/>
<path d="M74.2916 29.26L73.7083 28.7079L73.7552 28.6663C74.1823 28.2496 74.5468 27.6246 74.7604 26.9736C75.0104 26.1923 75.2448 24.7079 73.9843 23.5517C73.0625 22.7079 72.1198 23.3017 71.6406 23.7288C70.7031 24.5725 70.0833 26.0465 70.1718 27.2392V27.2809L69.3646 27.2704C69.2604 25.859 69.9739 24.1454 71.1041 23.1298C72.25 22.109 73.5312 22.0465 74.526 22.9632C75.6875 24.0257 76.0521 25.5777 75.526 27.2236C75.276 28.01 74.8437 28.7392 74.3437 29.2288L74.2916 29.26Z" fill="black"/>
<path d="M61.646 24.5208C60.2814 24.5208 59.2397 23.828 58.6252 22.5155C58.3074 21.8437 58.1877 21.1666 58.1408 20.7916C57.8543 20.6926 57.6824 20.5208 57.5783 20.3853C57.3595 20.0833 57.2866 19.651 57.3804 19.177C57.4168 18.9843 57.4741 18.802 57.547 18.6666L57.7293 18.3333L58.0731 18.4947C59.6304 19.2447 61.1043 18.5833 62.4064 17.9947C63.5574 17.4791 64.7502 16.9426 65.4585 18.026L65.6043 18.2499L65.4533 18.4739C65.0627 19.052 64.9637 19.8853 64.8595 20.7655C64.8179 21.1405 64.771 21.526 64.7033 21.8958C64.521 22.8958 64.1095 24.0833 62.547 24.4218C62.3595 24.4739 62.1252 24.4999 61.8283 24.5155C61.771 24.5208 61.7085 24.5208 61.646 24.5208ZM58.1564 19.401C58.1199 19.6197 58.1512 19.8072 58.2293 19.9114C58.2502 19.9426 58.3231 20.0416 58.5574 20.0676L58.896 20.1145L58.9116 20.4478C58.9168 20.5885 59.0991 23.8228 61.797 23.7083C62.0366 23.6978 62.2189 23.6718 62.3699 23.6353C63.2606 23.4426 63.7033 22.8958 63.9168 21.7447C63.9793 21.4062 64.021 21.0468 64.0679 20.6718C64.1616 19.8437 64.2606 18.9947 64.6252 18.2968C64.3022 18.0676 63.7606 18.2655 62.7345 18.7291C61.521 19.2812 59.8908 20.0103 58.1564 19.401Z" fill="black"/>
<path d="M56.7085 24.5264L58.1252 20.3389L58.8908 20.5993L57.4741 24.7816L56.7085 24.5264Z" fill="black"/>
<path d="M62.4897 26.4271L62.0835 26.3802L61.6929 26.3021L62.0731 23.9688L62.8647 24.099L62.4897 26.4271Z" fill="black"/>
<path d="M65.9325 28.6456L65.5471 28.4425L65.1877 28.4321V28.3227L65.2346 28.2341C65.6773 27.4269 65.4794 26.6196 65.2241 25.5935C64.9741 24.5779 64.6877 23.4216 64.9533 21.9633L65.0262 21.6352C65.0314 21.5935 65.0419 21.5519 65.0575 21.5154C65.1044 21.3123 65.1773 21.0675 65.2762 20.7914C65.4533 20.3175 65.5991 19.3279 65.5106 18.2706C65.4481 17.5675 65.2919 16.9737 65.0575 16.5519C64.2658 15.1612 61.0314 14.2862 59.5627 15.0727C58.2346 15.781 57.521 16.906 57.0158 19.0779L56.9325 19.4477C56.521 21.3435 55.3544 21.8904 54.3179 22.3696C54.1512 22.4477 53.9898 22.5258 53.8283 22.6039C53.6564 22.6873 53.495 22.7862 53.3439 22.8904C51.7814 23.9998 52.1408 25.2706 52.3752 25.7706C52.5523 26.1664 52.8335 26.5154 53.1721 26.7498H53.1773L53.2502 26.8071L52.9741 27.2081L52.8648 27.4998L52.7762 27.4581C52.2919 27.1352 51.8908 26.656 51.646 26.1091C50.995 24.6977 51.4533 23.2498 52.8856 22.2341C53.0731 22.1091 53.271 21.9894 53.4741 21.8904C53.6408 21.8071 53.8075 21.7289 53.9846 21.6456C54.9325 21.2029 55.8283 20.7914 56.1512 19.2758L56.2346 18.9008C56.7971 16.4998 57.6512 15.1873 59.1877 14.3644C61.0627 13.3644 64.7502 14.3748 65.7658 16.1612C66.1304 16.8175 66.271 17.6352 66.3179 18.2081C66.4064 19.2341 66.2919 20.3852 66.0366 21.0727C65.9481 21.3123 65.8856 21.531 65.8387 21.7185C65.8023 21.8644 65.7762 21.9841 65.7606 22.0987L65.7033 22.4425C65.5679 23.5831 65.8023 24.5466 66.0158 25.406C66.2762 26.4737 66.5262 27.4841 65.995 28.531V28.5414L65.9325 28.6456Z" fill="black"/>
<path d="M84.3439 50.6825L83.8856 50.021C86.4689 48.2345 88.4325 46.8127 89.745 45.7918C88.1512 45.2866 83.5575 46.5054 81.6304 47.4637L81.271 46.745C83.021 45.8752 88.9325 44.0418 90.5835 45.3335C90.6408 45.3804 90.6981 45.4325 90.7502 45.4845L91.0314 45.8022L90.6981 46.0679C89.3908 47.1147 87.2502 48.6668 84.3439 50.6825Z" fill="black"/>
<path d="M79.7396 53.807L79.5156 53.6403C78.5625 52.9476 77.526 50.5153 77.4062 50.2393L78.151 49.9268C78.4115 50.5465 79.1667 52.1455 79.7865 52.807C80.401 52.3955 82.0365 51.3018 83.8854 50.0205L84.3385 50.682C81.9896 52.307 79.9948 53.6403 79.974 53.6507L79.7396 53.807Z" fill="black"/>
<path d="M66.1717 35.724L66.1092 35.7188C65.2186 35.5833 63.9217 34.9896 62.9998 34.5208C60.3592 33.1823 57.4321 31.2135 56.4634 30.1302L57.0675 29.5938C57.9582 30.599 60.8436 32.5313 63.3592 33.8073C64.5988 34.4323 65.6144 34.8333 66.229 34.9271L66.1665 35.3125L66.1717 35.724Z" fill="black"/>
<path d="M62.7603 36.9788L62.1821 36.4163C63.2134 35.3538 62.854 34.3903 62.8488 34.3747C62.8488 34.3747 62.8905 34.4632 62.9998 34.5205L63.3592 33.8018C63.4321 33.8382 63.5988 33.9215 63.6873 34.4111C63.755 34.8226 63.8019 35.8955 62.7603 36.9788Z" fill="black"/>
<path d="M82.8595 46.474L82.3543 45.849L83.5835 44.8542L83.5106 44.7865C77.7606 39.6354 74.2189 36.7187 72.9897 36.1146L73.3439 35.3906C74.6616 36.0365 78.1616 38.9115 84.047 44.1875L84.8231 44.8802L82.8595 46.474Z" fill="black"/>
<path d="M90.547 45.9943L90.0366 45.3745L90.5679 44.937C88.8335 44.3537 86.7918 44.9058 85.1147 45.3641C84.6252 45.4995 84.1564 45.6297 83.7345 45.7183L83.5679 44.9266C83.9741 44.8433 84.4272 44.7183 84.9064 44.5881C86.9064 44.0412 89.396 43.3641 91.5262 44.4735L92.0679 44.7547L90.547 45.9943Z" fill="black"/>
<path d="M124.208 144.422C123.265 144.422 122.333 144.406 121.396 144.38C101.12 143.734 92.3696 137.688 84.6509 132.354C77.3436 127.297 71.0311 122.932 56.7811 123.5C45.9321 123.932 35.5571 122.162 27.5675 118.521C20.3019 115.214 15.4946 110.62 14.38 105.912C13.2238 101.026 16.0988 96.7449 22.479 93.8543C26.2863 92.1355 28.2186 90.4897 28.2134 88.9636C28.2082 86.297 22.6144 83.7761 16.6821 81.1043C10.2446 78.2032 3.58317 75.2032 1.89046 71.198C0.499838 67.9116 0.697755 64.8282 2.4738 62.0418C5.74463 56.9063 13.604 54.2813 17.8853 54.1251C18.6821 54.0938 19.6144 54.1043 20.5207 54.1095C21.2342 54.1199 21.979 54.1251 22.6405 54.1095C23.3332 54.0938 24.3175 54.0574 24.88 53.8959L25.0988 54.6668C24.5988 54.8126 23.8436 54.8907 22.6561 54.9168C21.979 54.9272 21.2342 54.9168 20.5103 54.9168C19.6196 54.9063 18.6978 54.9011 17.9217 54.9272C13.8071 55.0782 6.27067 57.5834 3.15609 62.4741C1.53109 65.0261 1.35401 67.8543 2.63525 70.8907C4.20296 74.5991 11.0103 77.6616 17.0155 80.3751C23.453 83.2761 29.0155 85.7761 29.0155 88.9636C29.0155 90.8595 26.9894 92.698 22.8123 94.5938C16.8228 97.3022 14.104 101.261 15.1613 105.724C17.2603 114.594 33.755 123.594 56.7498 122.693C71.2655 122.115 77.9894 126.771 85.1092 131.688C101.38 142.938 112.026 143.276 121.422 143.573C151.333 144.521 188.896 129.88 199.63 119.547C201.375 117.865 202.307 116.354 202.312 115.177C202.359 108.375 195.385 106.438 188.64 104.563C184.219 103.333 180.042 102.167 178.021 99.672C177.417 98.9272 177.182 98.1199 177.328 97.2761C177.802 94.5001 182.219 91.7761 187.328 88.6303C192.042 85.7241 197.38 82.4324 199.286 78.9845C200.057 77.5938 200.203 76.3595 199.734 75.2084C198.338 71.7761 191.75 69.7761 186.453 68.172C181.786 66.7553 179.13 65.8855 178.807 64.5001C178.698 64.0053 178.901 63.5105 179.417 63.0313C180.474 62.0522 182.984 61.172 185.64 60.2345C188.375 59.2709 192.125 57.9532 192.057 56.9793C192.031 56.6147 191.338 55.6407 185.437 54.4168C184.01 54.0678 182.5 53.8595 180.927 53.8022C177.542 53.6772 174.125 54.2293 171.224 54.7813C170.458 54.9324 169.703 55.0834 168.969 55.2345C166.76 55.6824 164.677 56.1095 162.838 56.2709C158.719 56.6407 154.463 55.948 150.349 55.2709C148.453 54.9584 146.656 54.6668 144.979 54.5001C142.901 54.2918 139.292 54.547 136.38 54.7918C134.542 54.9428 132.536 55.1355 130.599 55.323C127.823 55.5886 124.953 55.8647 122.375 56.0522L121.432 56.1095C119.765 56.2188 118.38 56.2709 117.198 56.2709C115.63 56.2709 113.969 56.1824 111.974 55.9949C111.187 55.922 110.411 55.8386 109.64 55.7553C107.411 55.5209 105.312 55.297 103.104 55.2605C100.969 55.2188 98.9998 55.3699 97.078 55.7241C96.328 55.8595 95.5467 56.0418 94.7603 56.2553L94.5467 55.4793C95.354 55.2605 96.1561 55.073 96.9321 54.9324C98.9061 54.5678 100.932 54.4116 103.12 54.4584C105.359 54.5001 107.578 54.7293 109.724 54.9532C110.5 55.0366 111.271 55.1147 112.052 55.1876C114.021 55.3803 115.661 55.4636 117.198 55.4636C118.364 55.4636 119.734 55.4116 121.38 55.3022L122.318 55.2449C124.88 55.0626 127.75 54.7813 130.515 54.5209C132.458 54.3334 134.463 54.1407 136.307 53.9845C140.682 53.6199 143.38 53.5261 145.057 53.6928C146.76 53.8647 148.562 54.1563 150.474 54.4688C154.542 55.1355 158.745 55.823 162.765 55.4636C164.552 55.3022 166.62 54.8803 168.802 54.4376C169.542 54.2866 170.297 54.1355 171.068 53.9845C174.01 53.422 177.484 52.8595 180.953 52.9897C182.578 53.0522 184.146 53.2657 185.609 53.6251C191.885 54.9272 192.792 56.0209 192.854 56.922C192.958 58.5053 189.687 59.6563 185.906 60.9897C183.437 61.8595 180.89 62.7553 179.958 63.6199C179.672 63.8855 179.547 64.1199 179.588 64.3126C179.818 65.3178 183.307 66.3699 186.687 67.3959C192.14 69.047 198.937 71.1095 200.474 74.9011C201.031 76.2709 200.87 77.7761 199.984 79.3751C197.979 83.0053 192.776 86.2084 187.745 89.3126C183.005 92.2345 178.526 94.9897 178.12 97.4116C178.015 98.0261 178.187 98.5991 178.646 99.1616C180.505 101.458 184.557 102.589 188.854 103.787C195.562 105.651 203.167 107.766 203.12 115.182C203.109 116.599 202.125 118.266 200.187 120.125C189.693 130.234 153.812 144.422 124.208 144.422Z" fill="black"/>
<path d="M121.573 56.0785L121.25 55.3441C121.401 55.2764 121.661 55.1983 122.13 55.0785C123.948 54.641 128.276 53.8389 135.354 52.6358C137.896 52.2035 139.896 51.8754 140.38 51.7972L150.26 43.5368L150.318 43.516C152.724 42.4535 157.417 41.8181 162.557 41.8233C166.198 41.8389 169.646 42.1983 172.266 42.8337C173.073 43.0264 173.823 43.2504 174.49 43.5056L174.578 43.542L174.646 43.6149C174.745 43.7243 174.849 43.8493 174.958 43.9899C176.453 45.7764 179.135 49.6722 180.604 52.042C180.896 52.5108 181.12 52.891 181.302 53.2035L180.599 53.5993C180.427 53.292 180.203 52.9222 179.922 52.4639C178.281 49.8233 175.672 46.0993 174.344 44.4951C174.26 44.3962 174.182 44.3076 174.109 44.2243C173.495 43.9951 172.818 43.7868 172.083 43.6097C169.521 42.9899 166.135 42.641 162.562 42.6306C162.5 42.6306 162.438 42.6306 162.375 42.6306C157.526 42.6306 152.969 43.2504 150.698 44.2243L150.318 44.5472L140.734 52.5524L140.625 52.5681C140.625 52.5681 138.411 52.9326 135.5 53.4222C128.536 54.6097 124.104 55.4274 122.333 55.8597C121.932 55.9587 121.677 56.0316 121.573 56.0785Z" fill="black"/>
<path d="M176.75 52.5778H140.547V51.7705H175.417L171.688 44.6403H150.047V43.833H172.172L176.75 52.5778Z" fill="black"/>
<path d="M160.896 44.2393H161.698V52.2497H160.896V44.2393Z" fill="black"/>
<path d="M180.26 52.6559H178.792L172.938 43.833H174.646V44.6403H174.438L179.224 51.8434H180.26V52.6559Z" fill="black"/>
<path d="M113.339 50.6875L101.583 43.2917L89.8283 50.6875L89.396 50.0104L101.583 42.3438L113.766 50.0104L113.339 50.6875Z" fill="black"/>
<path d="M97.4061 55.3285H96.604V50.9951H103.51V54.8545H102.708V51.8024H97.4061V55.3285Z" fill="black"/>
<path d="M111.609 49.3799H112.411V55.5934H111.609V49.3799Z" fill="black"/>
<path d="M90.75 49.3799H91.5573V53.3174H90.75V49.3799Z" fill="black"/>
<path d="M19.1147 49.7399L18.7554 49.0212L37.3335 39.6514L49.4377 45.7555L49.0731 46.4743L37.3335 40.5524L19.1147 49.7399Z" fill="black"/>
<path d="M22.2446 47.5107H23.0519V54.2868H22.2446V47.5107Z" fill="black"/>
<path d="M60.7397 48.4951H74.8491V49.2972H60.7397V48.4951Z" fill="black"/>
<path d="M46.1772 84.8493C45.172 84.8493 44.1668 84.7347 43.1304 84.5107C40.2762 83.8962 37.7033 82.516 35.2137 81.1774C34.0418 80.5472 32.9325 79.9482 31.797 79.4326C30.3908 78.792 29.0418 78.3128 27.6772 77.9691L27.87 77.193C29.2866 77.542 30.6772 78.042 32.1304 78.7035C33.2814 79.2295 34.4064 79.8337 35.5939 80.4691C38.0314 81.7816 40.5522 83.1357 43.297 83.7295C45.0106 84.0993 46.6512 84.1514 48.3127 83.8649C48.6929 83.8024 49.0783 83.7243 49.4689 83.6357C51.6929 83.1253 53.3595 82.3493 54.8283 81.667C56.8179 80.7399 58.5366 79.9378 60.8231 80.1982C61.0418 80.2191 61.271 80.2555 61.5054 80.3024C63.2762 80.6462 64.3179 81.3337 65.2293 81.943C66.7241 82.9326 67.9012 83.7139 71.8179 82.766C74.2033 82.1878 76.5054 81.0576 78.9377 79.8597C80.2085 79.2347 81.521 78.5889 82.8387 78.0368C85.2137 77.0368 88.3908 75.9587 91.896 76.516C92.7137 76.641 93.5262 76.8024 94.3804 77.0003C96.6512 77.5316 98.4793 78.2035 100.094 78.792C102.438 79.6514 104.302 80.3337 106.422 80.2035C107.901 80.1149 109.177 79.8857 110.203 79.5264C110.755 79.3285 111.125 79.1357 111.344 78.9951L94.5835 56.4587C94.5002 56.3493 94.4168 56.2503 94.3335 56.1462C93.4897 55.1201 92.4116 54.3128 91.2033 53.8024L90.9845 53.7087L83.9533 50.7243L84.1043 50.3597V49.9482H84.1877L84.2658 49.9847L91.5158 53.0576C92.8491 53.6201 94.0314 54.5055 94.9481 55.6201C95.047 55.7295 95.1408 55.8545 95.2293 55.9795L112.432 79.1045L112.198 79.3493C112.146 79.3962 111.682 79.8493 110.469 80.2816C109.375 80.6618 108.026 80.9066 106.469 81.0055C104.177 81.141 102.151 80.4066 99.8127 79.5472C98.2189 78.9639 96.4168 78.3076 94.1981 77.7868C93.3595 77.5941 92.5627 77.4378 91.7658 77.3128C88.4637 76.792 85.422 77.8232 83.146 78.7816C81.8491 79.3285 80.547 79.9639 79.2918 80.5837C76.9272 81.7451 74.4793 82.9535 72.0054 83.5524C67.745 84.5837 66.3075 83.6253 64.7762 82.6149C63.8856 82.016 62.9585 81.4014 61.3439 81.0889C61.1356 81.0472 60.9325 81.016 60.7345 80.9951C58.6668 80.7607 57.12 81.4795 55.1616 82.391C53.6616 83.0889 51.9533 83.8857 49.6512 84.4118C49.245 84.5055 48.8387 84.5889 48.4377 84.6566C47.6929 84.7816 46.9377 84.8493 46.1772 84.8493Z" fill="black"/>
<path d="M27.672 77.9688C25.3179 77.3802 23.422 77.3385 21.7554 77.2969C18.9272 77.2292 16.6929 77.1771 14.4168 74.375C13.8127 73.6198 13.2137 72.6979 12.5939 71.5417L12.4741 71.3229L23.4689 55.5521C23.8439 55.0104 24.2554 54.4948 24.6877 54.0104C25.9741 52.5677 27.4793 51.375 29.172 50.4635C31.5679 49.1719 34.2762 48.4844 37.0054 48.4844H50.6095V49.2917H37.0054C34.4168 49.2917 31.8335 49.9427 29.5575 51.1719C27.9533 52.0365 26.5158 53.1719 25.2918 54.5417C24.8752 55.0052 24.4845 55.4948 24.1356 56.0052L13.422 71.375C13.9741 72.3802 14.5106 73.1979 15.047 73.8594C17.0887 76.375 18.9533 76.4167 21.771 76.4844C23.4897 76.526 25.4325 76.5677 27.87 77.1771L27.672 77.9688Z" fill="black"/>
<path d="M132.516 132.782C131.24 132.782 129.693 132.334 127.75 131.427C126.016 130.615 124.812 129.985 123.844 129.479C120.646 127.808 120.521 127.74 114.031 127.927C109.099 128.068 106.354 127.953 104.078 126.943C102.63 126.302 101.427 125.344 99.7291 123.797C96.7499 121.094 94.5468 121.162 90.552 121.287C89.3281 121.328 87.9479 121.37 86.3333 121.339C82.9791 121.276 80.6458 121.167 78.6666 120.766C76.0468 120.24 74.2395 119.24 72.6249 117.427C71.3281 115.969 68.6249 115.063 66.2343 114.256C63.8385 113.448 62.1093 112.865 61.8124 111.839C61.7031 111.453 61.8072 111.063 62.1301 110.677C63.0364 109.584 64.6406 109.787 66.5051 110.032C68.7916 110.328 71.3854 110.657 73.651 108.912C77.4479 105.979 80.3437 106.047 83.4114 106.12C83.8906 106.131 84.3749 106.141 84.8749 106.141C88.3749 106.141 91.7083 104.151 91.7395 104.131L91.776 104.099C93.1093 103.162 98.2239 99.8857 107.937 97.1514C113.38 95.6149 119.391 94.5003 125.812 93.8285L125.838 93.8232H125.87C139.526 94.443 158.891 98.1045 165.948 102.578L166.021 102.641L180.651 117.735L180.448 118.006C179.911 118.719 179.286 119.261 178.526 119.672C176.75 120.657 174.432 120.834 171.49 121.063C170.495 121.141 169.463 121.224 168.338 121.339C165.979 121.584 165.161 122.797 164.213 124.203C162.937 126.094 161.505 128.235 156.099 128.172C153.792 128.141 151.792 128.068 150.026 128.011C146.307 127.881 143.62 127.787 141.391 128.172C140.505 128.323 139.698 128.552 138.937 128.87C137.844 129.328 137.125 130.058 136.422 130.766C135.823 131.375 135.255 131.953 134.49 132.339C133.896 132.631 133.25 132.782 132.516 132.782ZM117.437 127.058C120.943 127.058 121.646 127.422 124.213 128.766C125.177 129.266 126.38 129.896 128.094 130.698C131.708 132.386 133.213 132.084 134.125 131.62C134.776 131.292 135.297 130.761 135.849 130.203C136.568 129.474 137.385 128.646 138.63 128.125C139.443 127.782 140.307 127.537 141.255 127.375C143.562 126.979 146.286 127.073 150.052 127.203C151.818 127.261 153.812 127.328 156.104 127.365C161.052 127.438 162.328 125.558 163.547 123.75C164.521 122.308 165.526 120.818 168.255 120.537C169.396 120.417 170.427 120.339 171.432 120.256C174.276 120.032 176.516 119.86 178.141 118.964C178.703 118.657 179.177 118.271 179.594 117.787L165.484 103.229C158.5 98.8389 139.391 95.2399 125.87 94.6253C119.505 95.292 113.552 96.4014 108.161 97.917C98.5729 100.62 93.552 103.834 92.2447 104.75L92.177 104.802C92.0156 104.896 88.6041 106.943 84.8801 106.943C84.3749 106.943 83.8854 106.933 83.3958 106.917C80.3541 106.844 77.7239 106.787 74.1458 109.542C71.6197 111.495 68.7291 111.125 66.401 110.823C64.7083 110.604 63.3749 110.438 62.7499 111.188C62.5416 111.443 62.5781 111.573 62.5885 111.61C62.7656 112.229 64.7447 112.896 66.4947 113.485C68.9791 114.323 71.7916 115.266 73.2239 116.886C74.7187 118.558 76.3906 119.485 78.8229 119.969C80.7395 120.354 83.0364 120.469 86.3437 120.532C87.9374 120.558 89.3124 120.516 90.5208 120.479C94.5937 120.354 97.0468 120.271 100.266 123.198C101.906 124.693 103.052 125.615 104.401 126.203C106.521 127.146 109.307 127.25 114.005 127.115C115.396 127.078 116.516 127.058 117.437 127.058Z" fill="black"/>
<path d="M133.927 132.136C131.995 127.464 125.828 115.761 125.286 114.735C123.396 113.183 120.406 111.719 116.406 110.365C113.776 109.479 110.776 108.662 107.49 107.943C101.484 106.625 96.2604 106.011 94.2969 105.974C88.3646 111.573 79.4896 120.006 79.0729 120.599L78.4062 120.146C78.9375 119.354 92.3385 106.714 93.8646 105.276L93.9844 105.167H94.1458C96.349 105.167 102.005 105.912 107.667 107.151C110.984 107.881 114.01 108.703 116.667 109.599C120.807 111 123.901 112.532 125.87 114.162L125.927 114.214L125.964 114.287C126.031 114.412 132.646 126.933 134.672 131.828L133.927 132.136Z" fill="black"/>
<path d="M141.005 128.026L128.927 113.073L164.771 103.281L178.63 119.052L178.047 119.609L164.5 104.193L130.328 113.526L141.63 127.516L141.005 128.026Z" fill="black"/>
<path d="M104.63 126.646L103.838 126.506C105.156 119.162 107.135 108.047 107.172 107.542L107.573 107.568L107.661 107.151C108.068 107.24 108.068 107.24 107.484 110.599C107.172 112.386 106.76 114.761 106.333 117.141C105.489 121.891 104.63 126.646 104.63 126.646Z" fill="black"/>
<path d="M52.1613 108.552C50.4061 108.552 48.9373 107.792 47.4217 107.005L47.354 106.974C45.9634 106.255 44.5155 105.51 42.729 105.234C40.3592 104.865 38.9373 105.787 37.4217 106.76C35.5936 107.943 33.6978 109.167 30.2134 107.927L30.4842 107.167C33.5936 108.271 35.2446 107.208 36.9842 106.083C38.5571 105.068 40.1821 104.021 42.854 104.438C44.7707 104.734 46.3436 105.542 47.729 106.26L47.7915 106.292C50.4061 107.641 52.6717 108.813 56.5884 106.063L57.0467 106.719C55.13 108.068 53.5571 108.552 52.1613 108.552Z" fill="black"/>
<path d="M102.13 93.37C101.063 93.37 100.417 92.7137 99.7866 92.0783C99.1095 91.3908 98.3387 90.6148 96.8752 90.3544C95.5262 90.1148 94.3647 90.8596 93.1356 91.646C91.5106 92.6929 89.6668 93.8752 87.146 92.7658L87.4689 92.0314C89.5887 92.9689 91.0991 92.0002 92.6981 90.9741C94.0054 90.1356 95.3543 89.2658 97.0158 89.5679C98.7345 89.8752 99.6304 90.7814 100.354 91.5158C101.141 92.3075 101.656 92.8387 102.917 92.4273C103.344 92.2919 103.776 92.0991 104.208 91.8596C104.771 91.5471 105.281 91.1825 105.781 90.8335C107.057 89.9325 108.261 89.0783 109.74 89.5262C110.464 89.745 111.156 90.1044 111.833 90.4533C113.25 91.1877 114.479 91.8231 115.625 91.0575L116.073 91.7294C114.531 92.7606 112.974 91.9533 111.464 91.1669C110.823 90.8335 110.162 90.4898 109.516 90.2971C108.412 89.9637 107.458 90.6356 106.25 91.4898C105.735 91.8544 105.203 92.2294 104.604 92.5627C104.125 92.8283 103.646 93.0419 103.162 93.1981C102.776 93.3127 102.438 93.37 102.13 93.37Z" fill="black"/>
<path d="M150.958 90.2241C150.797 90.2241 150.625 90.2189 150.448 90.2033C149.51 90.1095 148.229 89.6668 146.745 89.146C145.875 88.8439 144.969 88.5262 144.068 88.2606C143.604 88.1252 143.146 88.0054 142.713 87.9064C141.588 87.6668 140.896 88.0991 140.088 88.5991C139.099 89.2189 137.974 89.9168 136.057 89.1043L136.37 88.3647C137.906 89.0106 138.719 88.5054 139.661 87.9168C140.495 87.4012 141.448 86.8074 142.885 87.1199C143.338 87.2189 143.812 87.3439 144.297 87.4897C145.219 87.7606 146.125 88.0783 147.01 88.3856C148.385 88.8647 149.682 89.3179 150.521 89.396C152.031 89.5314 152.937 88.9324 153.729 88.3022L154.229 88.9324C153.437 89.5679 152.469 90.2241 150.958 90.2241Z" fill="black"/>
<path d="M127.677 79.5835C126.198 79.5835 124.99 79.0001 123.719 78.3856C121.047 77.0939 118.292 75.7554 112.12 79.4168L111.708 78.7241C118.25 74.8439 121.339 76.3439 124.068 77.6616C125.589 78.4012 126.901 79.0366 128.693 78.6772L128.849 79.4637C128.438 79.547 128.047 79.5835 127.677 79.5835Z" fill="black"/>
<path d="M116.948 69.0101C116.443 69.0101 115.854 68.9372 115.14 68.7601C113.911 68.4528 112.812 68.0726 111.844 67.7341C108.901 66.7132 106.776 65.9737 103.635 67.9841L103.198 67.307C106.667 65.083 109.068 65.9164 112.104 66.9684C113.109 67.3174 114.146 67.6768 115.333 67.9737C117.307 68.4684 118.14 68.0518 119.021 67.6143C120.292 66.9841 121.599 66.333 125.635 67.9893L125.328 68.7341C121.625 67.2132 120.531 67.7601 119.375 68.333C118.719 68.6716 118.031 69.0101 116.948 69.0101Z" fill="black"/>
<path d="M138.646 70.4013L138.177 69.7503C141.412 67.4221 143.427 68.1513 145.386 68.8492C146.88 69.3909 148.292 69.8961 150.339 69.0888L150.636 69.8388C148.313 70.7607 146.688 70.1721 145.115 69.6096C143.193 68.9221 141.537 68.3232 138.646 70.4013Z" fill="black"/>
<path d="M161.698 90.5888C161.068 90.5888 160.412 90.4742 159.724 90.1878L160.037 89.443C161.391 90.0107 162.62 89.7972 164.031 89.2972C164.328 89.1982 164.625 89.0836 164.917 88.9742C166.287 88.4638 167.708 87.9274 169.323 88.1409C169.5 88.1617 169.682 88.1982 169.849 88.2347C170.516 88.3857 171.208 88.5732 171.87 88.7503C174.906 89.568 178.037 90.4065 181.302 88.9742L181.625 89.7086C178.099 91.2607 174.828 90.3805 171.662 89.5263C170.969 89.3388 170.318 89.1669 169.667 89.0159C169.521 88.9847 169.375 88.9534 169.229 88.9378C167.797 88.7503 166.537 89.2242 165.198 89.7294C164.896 89.8388 164.594 89.9534 164.292 90.0576C163.479 90.3492 162.615 90.5888 161.698 90.5888Z" fill="black"/>
<path d="M49.1669 84.0836L45.6565 62.3336C45.4429 61.0054 45.8075 59.6409 46.6513 58.594C47.5002 57.5471 48.7502 56.9065 50.0888 56.8336L89.5992 54.7138C91.1513 54.6304 92.6252 55.3232 93.5523 56.5679L110.667 79.6513L110.021 80.1357L92.9013 57.0471C92.1409 56.0211 90.9273 55.4482 89.6461 55.5159L50.1356 57.6409C49.0211 57.6982 47.9794 58.2294 47.2815 59.0992C46.5784 59.969 46.2763 61.0992 46.4534 62.2034L49.969 84.0211H49.5523L49.1669 84.0836Z" fill="black"/>
<path d="M42.8387 84.0519L41.2866 60.5519C41.1512 58.5259 39.7502 56.7811 37.797 56.2186L31.422 54.38C29.2918 53.7759 27.0418 54.6509 25.9116 56.5155L15.0835 74.3332L14.396 73.9165L25.2241 56.0988C26.5418 53.9269 29.172 52.9009 31.6147 53.5988L38.0262 55.4478C40.3022 56.104 41.9377 58.1353 42.0939 60.505L43.646 83.9998L42.8387 84.0519Z" fill="black"/>
<path d="M27.3906 77.4688L33.9896 54.7031L34.7604 54.9271L28.1667 77.6927L27.3906 77.4688Z" fill="black"/>
<path d="M49.7554 26.5469C48.2554 26.5469 47.3075 26.1927 46.9272 25.4948L47.6356 25.1094C47.9793 25.75 49.5887 25.9115 51.9429 25.5417L52.0679 26.3385C51.1929 26.4792 50.422 26.5469 49.7554 26.5469Z" fill="black"/>
<path d="M46.8489 25.3283C46.3958 24.1043 47.625 22.2866 50.5104 19.922L50.625 19.8283C51.3906 19.2085 52.2552 18.5626 53.1979 17.9064C54.9218 16.7085 56.9062 15.4689 59.1041 14.2345L59.151 14.2137L59.2604 14.1251L59.2968 14.1303C61.0312 13.1616 62.8906 12.1876 64.8437 11.2501C66.0729 10.6616 67.2812 10.1095 68.4375 9.60951C69.2031 9.28139 69.9583 8.95847 70.7031 8.65639L70.7812 8.63034C73.0468 7.71368 75.1979 6.94284 77.1823 6.33868C78.4531 5.95326 79.6354 5.63555 80.6927 5.41159C84.5833 4.56263 86.8802 4.73972 87.5208 5.94284C87.6354 6.15118 87.6979 6.39076 87.6979 6.64597C87.6979 7.7293 86.651 9.18764 84.5885 10.9741C82.7239 12.5887 80.0729 14.4324 76.9166 16.2918C74.6302 17.6408 72.1718 18.9481 69.6146 20.1772C68.3229 20.797 66.9791 21.4116 65.6198 22.0001L65.2968 21.2606C66.651 20.6772 67.9843 20.0678 69.2604 19.4533C71.7968 18.2293 74.2396 16.9324 76.5052 15.5991C79.6146 13.7606 82.2291 11.9533 84.0625 10.3647C86.5208 8.2293 86.8906 7.11472 86.8906 6.64597C86.8906 6.51576 86.8646 6.41159 86.8177 6.32305C86.6562 6.02097 85.75 5.12514 80.8698 6.19284C79.8333 6.41159 78.6718 6.71888 77.4166 7.1043C75.4375 7.70847 73.2812 8.4793 71.0156 9.40118L70.9375 9.42722C70.2239 9.71889 69.5 10.0262 68.7604 10.3491C67.6146 10.8387 66.4166 11.3908 65.1979 11.9741C63.2187 12.9324 61.3281 13.9116 59.5729 14.9012H59.5677C59.5521 14.9168 59.5312 14.922 59.5156 14.9324L59.4791 14.9533C57.3073 16.1668 55.3593 17.3856 53.6614 18.5678C52.6875 19.2397 51.802 19.9064 51.0312 20.5366L50.9166 20.6303C47.4062 23.5314 47.5 24.7449 47.6145 25.047L46.8489 25.3283Z" fill="black"/>
<path d="M86.8071 6.31746C83.5988 0.369544 72.38 -0.49504 61.7915 4.39559L61.4478 3.66121C72.604 -1.48983 84.0519 -0.49504 87.5155 5.93725L86.8071 6.31746Z" fill="black"/>
<path d="M47.281 25.3024L46.9113 25.4535C46.8904 25.417 46.8696 25.3753 46.854 25.3337C45.7654 23.2347 45.656 20.6826 46.5571 17.9847C48.3488 12.6357 53.7081 7.38053 60.9008 3.91699L61.2498 4.64616C54.354 7.96387 49.0154 13.167 47.3227 18.2399C46.4946 20.7243 46.5831 23.0628 47.5883 25.0003C47.6092 25.0524 47.6196 25.0732 47.6248 25.0889L47.281 25.3024Z" fill="black"/>
<path d="M50.3803 20.3542C48.7658 15.3906 53.9689 7.25521 60.8856 3.92708C60.8908 3.92708 60.8908 3.92188 60.896 3.92188L61.2449 4.65104C60.146 5.17708 59.3387 6.10937 58.9116 7.34896C58.2293 9.3125 58.5366 11.9375 59.7241 14.375L59.0001 14.7292C57.6981 12.0625 57.3856 9.28125 58.1512 7.08854C58.2501 6.80729 58.3595 6.54167 58.4897 6.28646C53.3283 9.97917 49.8543 16.151 51.146 20.1042L50.3803 20.3542Z" fill="black"/>
<path d="M70.5002 9.22917C68.1408 5.21354 64.1564 3.24479 61.2502 4.65104L60.896 3.92708C61.0418 3.85417 61.1877 3.78646 61.3335 3.72396L61.4481 3.67187C68.37 0.625 77.9064 1.54687 81.0835 5.55729L80.4533 6.05729C77.8439 2.76042 70.547 1.73958 64.3231 3.5C66.8439 3.93229 69.4429 5.85937 71.1929 8.82812L70.5002 9.22917Z" fill="black"/>
<path d="M71.0262 23.6406L64.6616 11.8073L65.3647 11.4219L71.745 23.2812L71.0262 23.6406Z" fill="black"/>
<path d="M78.4845 34.2917C77.4481 34.2917 76.4429 33.7396 75.922 32.7656L75.7085 32.3698L76.4168 31.9896L76.6356 32.3906C77.1825 33.401 78.4481 33.7865 79.4585 33.25C80.146 32.8854 80.5783 32.1719 80.5783 31.3958C80.5783 31.0521 80.495 30.724 80.3335 30.4167L79.6825 29.1927L80.396 28.8125L81.0418 30.0417C81.2606 30.4531 81.3752 30.9271 81.3752 31.3958C81.3752 32.474 80.7814 33.4583 79.8283 33.9583C79.4064 34.1823 78.9377 34.2917 78.4845 34.2917Z" fill="black"/>
<path d="M75.7083 32.5939C75 32.5939 74.349 32.4324 74.0312 32.172L74.5417 31.547C74.8281 31.7814 76.0885 31.9481 76.9948 31.5418C77.526 31.3074 77.7969 30.9429 77.8177 30.4324C77.8698 29.3595 77.0625 28.3335 76.2396 27.797C75.7187 27.4533 75.3802 27.4324 75.3177 27.4585L74.9583 26.7397C75.3646 26.5366 75.9896 26.672 76.6667 27.1147C77.6146 27.7293 78.6979 28.9741 78.625 30.4741C78.5833 31.2866 78.1198 31.9272 77.3229 32.2814C76.8281 32.4949 76.25 32.5939 75.7083 32.5939Z" fill="black"/>
<path d="M177.771 83.6611H155.636C154.709 83.6611 153.896 83.1716 153.459 82.3591C153.026 81.5466 153.073 80.6038 153.584 79.833L164.646 63.1872C165.104 62.4945 165.875 62.083 166.703 62.083C167.531 62.083 168.297 62.4945 168.755 63.1872L179.818 79.833C180.328 80.5986 180.375 81.5466 179.938 82.3591C179.511 83.1716 178.698 83.6611 177.771 83.6611ZM166.703 62.8851C166.141 62.8851 165.636 63.1559 165.323 63.6299L154.255 80.2809C153.912 80.7965 153.88 81.432 154.172 81.9788C154.469 82.5309 155.016 82.8591 155.636 82.8591H177.771C178.391 82.8591 178.938 82.5309 179.235 81.9788C179.531 81.432 179.495 80.7965 179.151 80.2809L168.089 63.6351C167.776 63.1559 167.271 62.8851 166.703 62.8851Z" fill="black"/>
<path d="M173.516 80.5518H159.891C159.271 80.5518 158.724 80.2236 158.432 79.682C158.141 79.1351 158.172 78.4997 158.511 77.984L165.328 67.7288C165.636 67.2705 166.146 66.9893 166.703 66.9893C166.703 66.9893 166.703 66.9893 166.708 66.9893C167.266 66.9893 167.776 67.2705 168.083 67.7288L174.901 77.984C175.245 78.4997 175.271 79.1351 174.979 79.682C174.682 80.2236 174.141 80.5518 173.516 80.5518ZM159.182 78.4215C159.005 78.6924 158.99 79.0205 159.141 79.2965C159.292 79.5778 159.568 79.7393 159.891 79.7393H173.516C173.839 79.7393 174.115 79.5778 174.266 79.2965C174.417 79.0205 174.401 78.6924 174.224 78.4215L167.406 68.1715C167.25 67.9268 166.995 67.7913 166.703 67.7913C166.417 67.7913 166.162 67.9268 166 68.1715L159.182 78.4215Z" fill="black"/>
<path d="M163.734 83.2607H164.536V89.6045H163.734V83.2607Z" fill="black"/>
<path d="M168.87 83.2607H169.672V88.5941H168.87V83.2607Z" fill="black"/>
<path d="M84.0103 10.9326C82.8436 9.63053 78.9686 7.45866 77.2134 7.11491L77.3644 6.32324C79.3123 6.69824 83.3071 8.94303 84.6092 10.391L84.0103 10.9326Z" fill="black"/>
<path d="M76.4168 16.2288C74.9377 14.7393 70.12 10.9268 68.4585 10.359L68.7137 9.59863C70.6043 10.2445 75.6095 14.2809 76.9845 15.6611L76.4168 16.2288Z" fill="black"/>
<path d="M53.2708 22.3851C52.9896 21.5726 52.8177 19.2549 53.0313 18.1611L53.8229 18.3122C53.6406 19.2653 53.7917 21.4215 54.0365 22.1195L53.2708 22.3851Z" fill="black"/>
<path d="M61.375 22.0781L61.4844 21.2812L63.3594 21.5417L63.2448 22.3385L61.375 22.0781Z" fill="black"/>
<path d="M53.3179 70.3701L53.9845 69.917L73.1981 98.0785L72.5366 98.5316L53.3179 70.3701Z" fill="black"/>
<path d="M15.7397 31.5625L16.4012 31.1094L36.3595 60.3594L35.6929 60.8125L15.7397 31.5625Z" fill="black"/>
<path d="M53.3906 35.1514L54.0573 34.6982L83.0469 77.1826L82.3802 77.641L53.3906 35.1514Z" fill="black"/>
<path d="M114.787 45.208L115.453 44.7549L148.505 93.5257L147.839 93.9788L114.787 45.208Z" fill="black"/>
<path d="M84.6353 63.9375L85.3019 63.4844L123.463 119.422L122.797 119.875L84.6353 63.9375Z" fill="black"/>
<path d="M100.865 3.09375L101.526 2.64062L142.985 63.3958L142.318 63.849L100.865 3.09375Z" fill="black"/>
<path d="M30.75 14.9951L31.4115 14.542L40.3594 27.6514L39.6979 28.1045L30.75 14.9951Z" fill="black"/>
<path d="M91.5884 18.9482L92.2498 18.4951L102.114 32.9535L101.453 33.4066L91.5884 18.9482Z" fill="black"/>
<path d="M148.104 10.2031L148.771 9.75L159.63 25.6667L158.963 26.1198L148.104 10.2031Z" fill="black"/>
<path d="M124.448 13.7549L125.114 13.3018L139.364 34.1872L138.698 34.6403L124.448 13.7549Z" fill="black"/>
<path d="M149.162 23.984L149.818 23.5205L172.458 55.5309L171.802 55.9945L149.162 23.984Z" fill="black"/>
<path d="M14.9219 59.4736L15.5885 59.0205L53.7552 114.953L53.0885 115.406L14.9219 59.4736Z" fill="black"/>
<path d="M144.391 51.9063L151.474 43.9688L152.073 44.5052L144.99 52.4427L144.391 51.9063Z" fill="black"/>
<path d="M167.375 17.7656L168.042 17.3125L188.969 47.9792L188.302 48.4323L167.375 17.7656Z" fill="black"/>
</svg>
