<svg width="196" height="142" viewBox="0 0 196 142" fill="none" xmlns="http://www.w3.org/2000/svg">
<path d="M195.823 89.2816C195.339 86.8806 192.245 85.1827 189.172 85.6618C187.886 85.9743 186.224 86.2139 184.235 86.3858V76.1879L176.276 66.8129H155.474L154.792 67.6202L129.808 31.0108H156.49L166.854 46.1983L167.5 45.7556L157.438 31.0108H175.677C178.328 30.9118 179.933 28.6045 179.896 26.5212C179.849 24.0525 177.813 23.0368 175.88 22.8702C176.214 21.8077 176.068 20.7868 175.448 20.0577C174.771 19.2608 173.651 18.917 172.354 19.0941C173.193 16.74 172.422 14.2608 170.287 12.6097C167.542 10.49 162.797 10.0785 158.188 13.7816C157.927 12.8597 157.302 12.0785 156.464 11.667C155.61 11.24 154.183 11.0108 152.094 12.115C152.604 9.08891 151.625 6.25558 149.282 4.06287C145.938 0.937869 140.474 -0.192339 136 1.31287C131.995 2.65662 129.224 5.86495 128.104 10.4118C127.615 9.6462 126.792 8.97433 125.735 8.75037C124.391 8.46391 121.724 8.72433 118.542 13.417C118.016 12.1306 116.646 10.667 114.782 10.3389C113.157 10.0577 110.078 10.516 107.229 16.542C106.188 14.8285 103.422 12.9014 100.563 13.0681C95.9534 13.3441 94.4378 18.6358 93.9378 22.0785C91.5315 21.4379 89.4274 21.7608 87.6721 23.042L83.5628 17.0264L82.9169 17.4639L87.0628 23.542C85.0992 25.3181 84.3961 27.7816 84.3701 27.891L84.2294 28.3858H90.3649L100.834 43.7295L101.479 43.292L91.3128 28.3858H118.875C117.86 29.3077 117.532 30.4535 117.511 30.516L117.375 31.0108H128.86L154.266 68.2347L147.516 76.1879V86.24C147.172 86.2868 146.828 86.3389 146.474 86.391L139.854 76.6879L139.209 77.1306L145.61 86.5056C143.74 86.7712 141.427 87.1045 139.729 87.3858C139.214 85.3962 137.646 80.4535 134.328 77.5733L136.568 77.3858L133.755 72.2764C134.271 71.4952 134.558 70.5108 134.558 69.4795C134.558 69.141 134.589 68.8545 134.641 68.5941C135.005 68.0993 136.292 66.3389 136.49 65.8493C136.714 65.2816 135.75 63.1566 134.047 61.8233C134.183 58.4847 137.912 55.6722 141.276 55.1879L141.886 55.2347L141.62 54.6358C140.735 52.641 127.089 45.5785 113.089 49.3233C112.047 49.5993 110.979 49.9483 109.917 50.365C109.349 50.5889 108.766 50.8285 108.193 51.0837C88.5211 59.7035 85.6201 77.2816 85.594 77.4587L85.3336 79.167L86.219 77.8597C87.6617 77.4795 90.0419 77.115 92.2555 77.115C95.0576 77.115 97.0263 77.6775 97.9482 78.7347L98.2346 79.0629L98.5263 78.7452C102.115 74.8233 106.021 73.4743 110.479 74.6202L110.724 74.6827L110.88 74.4847C112.38 72.6045 114.688 70.9535 117.261 69.8962L118.433 72.391C112.146 74.7608 105.401 81.292 102.422 86.3754C102.11 86.9066 101.839 87.4222 101.615 87.917C100.328 88.0785 94.6305 87.8754 90.7034 87.365L87.5784 82.7868L86.9326 83.2243L89.6565 87.2139C89.0003 87.1097 88.4482 86.9952 88.0315 86.8806L87.9638 86.865L87.8909 86.8702C87.594 86.8962 80.9534 87.4743 78.1253 87.9379V79.0056L73.6044 74.8702C79.7399 77.0577 83.3805 77.4222 83.5471 77.4379L84.5732 77.5368L83.8649 76.7868C81.693 74.4795 77.3701 65.9222 76.094 63.3441L88.8076 66.3389L86.7399 65.0681C82.6669 62.5733 75.4899 53.5264 72.9794 50.2764L83.7867 54.9014L82.3805 53.4795C77.2242 48.2712 70.4013 38.4847 68.4013 35.5629L75.9586 37.4431L74.8232 36.4014C74.1774 35.8129 72.0003 33.2556 69.2503 29.5368C69.4846 29.5472 69.7138 29.5577 69.9378 29.5577C73.3701 29.5577 75.7086 28.2556 76.5732 26.8129C76.9951 26.1097 77.0315 25.4014 76.6669 24.865C76.4169 24.4952 75.7867 23.9483 74.2607 24.0316C74.6149 22.9431 74.5367 21.2764 73.5471 20.1097C72.8076 19.2347 71.0211 18.1045 67.1878 19.8441C67.5055 18.1045 66.5576 16.5681 65.3805 15.7868C64.1096 14.9327 62.219 14.7087 60.6721 15.9743C59.4117 13.4118 58.6357 11.2556 58.3753 9.55766L58.0836 7.67745L57.6096 9.5212C57.3701 10.4639 56.7034 11.8806 55.6305 13.7452C55.2919 13.1254 54.693 12.5525 53.943 12.1931C52.7086 11.5993 51.2919 11.6358 49.9586 12.2816C50.2138 10.0837 49.3076 8.0212 47.3544 6.40141C43.9534 3.57329 38.4534 2.91183 34.2711 4.81808C30.2607 6.65141 27.8649 10.5785 27.4534 15.9327C26.219 14.6879 23.8544 14.141 21.5992 14.7347C20.5419 15.0108 17.3649 16.1827 17.3909 20.2347C17.1201 20.0525 16.7971 19.917 16.4378 19.8285C15.2503 19.5316 13.4794 19.7764 12.4065 21.0004C11.8649 21.6306 11.3596 22.6879 11.8076 24.3285C10.0211 23.9014 7.50027 23.5629 6.41694 24.6722C5.88048 25.2243 5.7659 26.0316 6.0784 27.0733C6.25548 27.6618 6.67736 29.042 20.6774 29.5368L29.2451 42.0993L29.8961 41.6618L21.6617 29.5681C25.1669 29.6775 28.8753 29.7139 32.2971 29.7139C37.8857 29.7139 42.693 29.615 44.5628 29.5733C42.3076 32.4118 40.2815 34.7608 38.9378 36.0837L38.2138 36.7972L39.2346 36.7504C41.4794 36.6462 44.1149 35.8493 45.9638 35.0004C41.8805 39.4014 31.1149 50.0316 30.4117 50.4847L30.4221 50.5108L30.3024 50.5577L30.5732 50.8337L30.5784 51.2243C30.5888 51.2243 30.6044 51.2191 30.6357 51.2191H30.6565L30.693 51.2035C31.6669 51.0004 38.3753 49.2191 42.4534 46.8597C41.0576 49.0577 37.4794 53.9535 32.8753 59.9587L32.8596 59.9743L25.6565 66.5577L11.2555 45.4535L10.6096 45.891L25.0732 67.0837L12.0315 78.9952V85.3233C2.50027 87.3233 0.250275 91.2347 0.0523577 94.1775C-0.322642 99.7868 6.72944 106.396 16.8336 109.933L20.7867 115.521C19.4117 117.089 18.9065 118.552 19.2919 119.886C19.8805 121.943 22.5576 123.61 27.4742 124.969L32.9586 132.719L33.594 132.271L28.6461 125.271C32.8024 126.313 37.6357 127.016 41.9378 127.641C44.5784 128.021 46.8596 128.349 48.5524 128.698C58.9013 130.834 75.4638 130.089 87.8596 128.651C87.4221 129.407 87.3649 130.136 87.6878 130.818C89.3961 134.448 102.047 135.714 115.365 135.714C117.802 135.714 120.266 135.672 122.693 135.594L126.427 141.068L127.073 140.631L123.615 135.563C139.365 134.995 155.141 132.964 165.943 130.105C168.667 129.381 171.198 128.495 173.459 127.474C173.49 127.464 173.516 127.448 173.542 127.438L177.443 133.151L178.089 132.714L174.261 127.099C182.568 123.11 184.875 118.334 184.297 115.422C184.073 114.276 183 111.573 177.933 111.339C174.214 111.172 170.99 109.089 170.75 106.698C170.599 105.23 171.469 101.521 182.625 98.641L188.328 106.99L188.974 106.552L183.433 98.4275C187.964 97.2452 191.344 95.7868 193.459 94.0837C195.828 92.1722 196.052 90.417 195.823 89.2816ZM125.058 66.7295C124.709 67.5108 124.61 68.792 125.261 69.5108L125.235 69.6618L123.865 68.1254C124.037 67.7295 124.542 66.8389 124.959 66.1983C124.99 66.3754 125.021 66.5525 125.058 66.7295ZM123.724 67.9691L123.714 67.9587C123.719 67.9587 123.719 67.9639 123.724 67.9691ZM121.834 68.8233L121.328 71.615C120.646 71.7139 119.927 71.891 119.188 72.1358L118.005 69.615C119.36 69.1254 120.667 68.8545 121.834 68.8233ZM33.1461 60.2452L33.0992 60.2035L33.1096 60.2087L33.1461 60.2452ZM25.0628 111.98C23.5107 113.011 22.2659 114.006 21.3336 114.943L18.0836 110.355C20.3596 111.084 22.6982 111.625 25.0628 111.98Z" fill="black"/>
<path d="M79.7603 33.1566L80.4061 32.7139L90.4686 47.4639L89.8228 47.9014L79.7603 33.1566Z" fill="black"/>
<path d="M139.76 34.9424L140.406 34.5049L156.51 58.1143L155.864 58.5518L139.76 34.9424Z" fill="black"/>
<path d="M178.599 92.0621L175.203 87.0882C178.276 87.0882 181.255 87.01 183.854 86.8017C185.958 86.6402 187.807 86.3902 189.26 86.0413C195.401 85.0882 201.896 93.3902 182.854 98.1819C182.828 98.1923 182.807 98.1923 182.781 98.2027L178.599 92.0621Z" fill="#4A8BDF"/>
<path d="M160.261 76.3333H183.839V86.6562L183.854 86.8073C181.255 87.0156 178.276 87.0938 175.203 87.0938C164.125 87.0938 151.865 86.0417 151.865 86.0417C151.865 86.0417 150.151 86.276 147.912 86.5781V76.3281H160.261V76.3333Z" fill="#FF9F43"/>
<path d="M176.099 67.208L183.839 76.333H160.261L154.755 68.2653L155.656 67.208H176.099Z" fill="#C41830"/>
<path d="M178.599 92.0629L182.786 98.2035C163.828 102.995 170.203 111.386 177.917 111.735C186.797 112.146 186.406 121.021 173.682 126.948L149.792 91.9379L150.208 91.6514C159.724 93.1201 160.875 91.8129 166.448 90.9899C169.854 90.4951 174.536 91.5889 178.599 92.0629Z" fill="#4A8BDF"/>
<path d="M147.911 86.5785C150.151 86.2712 151.864 86.042 151.864 86.042C151.864 86.042 164.125 87.0941 175.203 87.0941L178.599 92.0628C174.536 91.5889 169.854 90.4951 166.448 90.9951C160.875 91.818 159.724 93.1305 150.208 91.6514L149.792 91.9378L146.292 86.8076C146.849 86.7295 147.396 86.6514 147.911 86.5785Z" fill="#4A8BDF"/>
<path d="M124.693 24.2036C124.328 25.2505 124.125 26.5005 124.125 27.9953C122.391 27.4432 121.11 27.5734 120.182 27.9953H90.5783L87.5835 23.6047C89.0627 22.3859 91.2137 21.6307 94.2606 22.5786C96.0679 8.30779 106.406 14.214 107.224 17.4901C112.146 6.17237 118.219 11.7505 118.386 14.3755C123.636 6.0057 127.896 9.44841 128.229 11.7505C131.182 -5.47346 154.807 0.427579 151.526 12.8963C155.625 10.2765 157.761 12.5161 157.922 14.5109C165.958 7.48487 174.656 13.7192 171.703 19.6255C174.656 18.8026 176.464 20.7765 175.307 23.2349C181.547 23.2349 180.115 30.4536 175.662 30.6151H129.068L124.693 24.2036Z" fill="#4A8BDF"/>
<path d="M105.713 110.031L100.448 102.312C103.031 102.552 105.255 102.125 107.01 101.51C109.854 100.521 111.484 99.0365 111.484 99.0365C119.687 103.797 125.265 100.844 129.37 99.0365L131.01 93.625C135.765 97.7292 138.552 95.5938 139.703 93.625C140.182 92.8073 140.094 90.5156 139.437 87.8333C141.177 87.5417 143.854 87.151 146.286 86.8125L149.781 91.9427L173.672 126.953C173.547 127.01 173.417 127.073 173.286 127.13C171.146 128.099 168.661 128.984 165.828 129.734C154.104 132.839 137.656 134.719 122.885 135.208L105.713 110.031Z" fill="#4A8BDF"/>
<path d="M154.755 68.2656L160.261 76.3333H147.912L154.755 68.2656Z" fill="#C41830"/>
<path d="M141.266 54.7971C138.953 54.6148 130.417 54.0055 128.495 59.943C126.75 55.6461 121.828 49.5471 113.193 49.7034C126.896 46.0367 140.427 52.9013 141.266 54.7971Z" fill="#C41830"/>
<path d="M131.302 73.4844L131.307 73.5156C130.323 77.4531 126.75 79.1823 126.75 79.1823C126.854 78.7708 127.739 75.4062 127.739 75.4062C127.739 75.4062 126.047 74.9115 125.599 74.5885C125.765 74.099 126.76 71.9635 126.76 71.9635L125.505 70.5521L125.672 69.3646C125.005 68.8229 125.078 67.5052 125.463 66.7656C125.765 66.1875 126.26 65.9635 126.75 66.7344V67.8594C126.75 67.8594 128.885 66.6354 129.375 65.2188C130.552 65.901 132.604 66.1979 134.953 65.4635C134.989 67.1615 134.5 67.4948 134.281 68.4323C134.213 68.7083 134.167 69.0417 134.167 69.4844C134.167 70.5 133.87 71.5052 133.302 72.2552C132.823 72.8958 132.146 73.3594 131.302 73.4844Z" fill="#FF9F43"/>
<path d="M124.88 88.7451C126.094 90.3753 131.016 93.6201 131.016 93.6201L129.38 99.0316C125.276 100.839 119.698 103.792 111.495 99.0316C111.495 99.0316 109.865 100.516 107.021 101.511L110.344 93.1253C112.932 91.7451 118.417 86.2139 119.198 84.3545C120.125 86.1201 121.448 86.6097 122.87 85.8701C123.167 85.9795 123.438 86.0368 123.698 86.042L124.88 88.7451Z" fill="#4CAF50"/>
<path d="M124.693 24.2031L129.068 30.6198H117.885C117.885 30.6198 118.39 28.7917 120.177 27.9948C121.104 27.5729 122.385 27.4427 124.12 27.9948C124.12 26.5 124.328 25.25 124.693 24.2031Z" fill="#4A8BDF"/>
<path d="M132.911 77.307L133.042 78.583L126.745 79.1872C126.745 79.1872 130.318 77.458 131.302 73.5205L131.297 73.484C132.146 73.359 132.818 72.9007 133.302 72.2549L135.932 77.0518L133.307 77.2653L132.911 77.307Z" fill="#4CAF50"/>
<path d="M126.041 81.766C126.588 82.8233 126.562 83.9899 126.041 84.6514C125.463 85.391 124.687 86.0681 123.693 86.042C123.427 86.042 123.156 85.9847 122.859 85.8754C121.437 86.6097 120.12 86.1202 119.193 84.3597C118.26 82.5993 119.75 81.3441 121.177 80.3962C121.213 80.3702 121.245 80.3493 121.281 80.3337C121.625 80.2556 121.937 80.1045 122.208 79.917C123.234 79.6358 124.281 79.891 125.099 80.5889C125.51 80.9379 125.828 81.3441 126.041 81.766Z" fill="#FF9F43"/>
<path d="M126.75 66.734C126.266 65.9632 125.766 66.1872 125.464 66.7653C125.339 66.2601 125.261 65.734 125.24 65.2184C125.172 63.0205 126.266 60.9684 130.552 60.958C131.787 60.958 132.828 61.3955 133.656 62.0049C135.422 63.3018 136.261 65.3747 136.13 65.708C135.932 66.1976 134.281 68.4268 134.281 68.4268C134.505 67.4945 134.99 67.1611 134.953 65.458C132.599 66.1976 130.552 65.9007 129.375 65.2184C128.886 66.6351 126.75 67.859 126.75 67.859V66.734Z" fill="black"/>
<path d="M119.734 74.2192C120.38 73.7296 121.12 73.391 121.885 73.4379C124.359 73.5942 125.573 77.5994 124.937 78.2817C124.297 78.964 123.13 78.9015 123.13 78.9015C122.932 79.2713 122.62 79.641 122.213 79.9171C121.901 80.0056 121.594 80.141 121.286 80.3338C121.135 80.3702 120.974 80.3858 120.807 80.3963C118.068 79.2192 117.26 77.1567 117.26 77.1567C117.26 77.1567 118.281 75.3129 119.734 74.2192Z" fill="#FF9F43"/>
<path d="M115.151 64.4481C114.984 64.9169 114.859 65.4065 114.766 65.9325C113.234 64.2398 109.729 52.3127 110.068 50.7294C111.104 50.3231 112.151 49.9794 113.193 49.7033C121.828 49.5419 126.75 55.646 128.495 59.9429C124.417 57.0679 117.151 58.6877 115.151 64.4481Z" fill="#C41830"/>
<path d="M125.24 65.2191C124.755 65.5837 123.344 68.1254 123.427 68.2191L122.526 67.2087L122.302 68.4327C120.833 68.3962 119.146 68.7452 117.469 69.391L115.146 64.4483C117.146 58.6879 124.417 57.0681 128.49 59.9431C130.412 54.0056 138.953 54.615 141.261 54.7972C137.594 55.3025 133.651 58.4014 133.651 62.0108C132.823 61.4014 131.781 60.9639 130.547 60.9639C126.266 60.9691 125.172 63.0212 125.24 65.2191Z" fill="#C41830"/>
<path d="M123.427 68.2184L125.505 70.557L126.76 71.9632C126.76 71.9632 125.766 74.0986 125.599 74.5882C126.047 74.9163 127.74 75.4111 127.74 75.4111C127.74 75.4111 126.854 78.7757 126.75 79.1872L133.047 78.583L132.917 77.307L133.318 77.2653C136.484 79.5049 138.531 84.0518 139.448 87.8278C140.099 90.5101 140.188 92.8018 139.714 93.6195C138.562 95.5882 135.781 97.7236 131.021 93.6195C131.021 93.6195 126.099 90.3747 124.885 88.7445L123.698 86.0413C124.698 86.0674 125.464 85.3955 126.047 84.6507C126.568 83.9893 126.599 82.8226 126.047 81.7653C125.828 81.3434 125.521 80.9372 125.109 80.5882C124.292 79.8903 123.245 79.6351 122.219 79.9163C122.62 79.6403 122.938 79.2705 123.135 78.9007C123.135 78.9007 124.302 78.9632 124.943 78.2809C125.573 77.5986 124.365 73.5934 121.891 73.4372C121.125 73.3903 120.391 73.734 119.74 74.2184L118.984 72.6143C119.901 72.2913 120.802 72.0726 121.667 71.9632L122.302 68.4372L122.526 67.208L123.427 68.2184Z" fill="#4CAF50"/>
<path d="M17.0834 109.614C0.531296 103.875 -8.06766 89.7861 12.4271 85.6455V93.4997H77.7553V88.4007C80.2396 87.9215 87.9532 87.2549 87.9532 87.2549C88.5886 87.432 89.474 87.5882 90.5 87.7288L100.453 102.312L105.724 110.031L122.896 135.203C101.589 135.911 83.7761 133.729 88.7032 128.161C75.75 129.724 58.8855 130.437 48.6355 128.317C43.948 127.354 34.5573 126.51 27.7136 124.635L21.2917 115.552C22.3594 114.401 23.948 113.135 26.1615 111.734C22.9688 111.338 19.9115 110.593 17.0834 109.614Z" fill="#4A8BDF"/>
<path d="M118.984 72.6094L119.734 74.2135C118.281 75.3073 117.26 77.151 117.26 77.151L115.864 76.3281C115.864 76.3281 107.833 82.2969 103.922 86.6562L102.776 86.5677C105.802 81.4063 112.786 74.7708 118.984 72.6094Z" fill="#4CAF50"/>
<path d="M115.151 64.4482L117.474 69.391C114.859 70.4014 112.271 72.141 110.594 74.2399C105.286 72.8805 101.307 75.1462 98.255 78.4847C95.9373 75.8285 88.703 76.7868 85.9946 77.5212C88.7603 73.4326 97.1353 69.6982 100.463 72.2503C100.578 66.443 109.786 62.9899 114.771 65.9326C114.859 65.4066 114.984 64.917 115.151 64.4482Z" fill="#C41830"/>
<path d="M114.766 65.9326C109.781 62.9899 100.573 66.4378 100.459 72.2503C98.4794 66.5003 101.021 55.5993 108.354 51.443C108.912 51.193 109.485 50.9535 110.068 50.7295C109.729 52.3128 113.235 64.2399 114.766 65.9326Z" fill="#C41830"/>
<path d="M110.338 93.1247L107.01 101.51C105.255 102.119 103.031 102.547 100.448 102.307L90.4946 87.7236C94.6248 88.2757 100.963 88.4997 101.896 88.2549C101.146 89.9893 100.984 91.4372 101.64 92.3122C104.599 96.2445 110.338 93.1247 110.338 93.1247Z" fill="#4A8BDF"/>
<path d="M101.901 88.2601C102.135 87.7236 102.427 87.1559 102.776 86.5726L103.922 86.6559C107.833 82.2965 115.864 76.333 115.864 76.333L117.26 77.1559C117.26 77.1559 118.067 79.2184 120.807 80.3955C120.974 80.3851 121.135 80.3695 121.286 80.333C121.25 80.3486 121.213 80.3695 121.182 80.3955C119.755 81.3434 118.265 82.5986 119.192 84.359C118.411 86.2184 112.927 91.7445 110.344 93.1299C110.344 93.1299 104.604 96.2497 101.651 92.3226C100.989 91.4424 101.151 89.9945 101.901 88.2601Z" fill="#4CAF50"/>
<path d="M108.354 51.4424C101.021 55.5986 98.4793 66.4997 100.459 72.2497C97.1304 69.6976 88.7606 73.432 85.9898 77.5205C85.9845 77.5153 88.6512 60.0674 108.354 51.4424Z" fill="#C41830"/>
<path d="M87.5833 23.6045L90.5781 27.9951H84.75C84.75 27.9951 85.4792 25.3337 87.5833 23.6045Z" fill="#4A8BDF"/>
<path d="M86.5519 65.4014L75.3957 62.7764C75.3957 62.7764 80.9738 74.2607 83.5988 77.0524C83.5988 77.0524 79.1873 76.6305 71.88 73.8128C71.8748 73.8128 71.8748 73.8076 71.8748 73.8076L45.0884 49.3337L33.1509 60.2451C33.4582 59.8389 43.3123 47.0368 43.4686 45.7399C39.4998 48.641 30.729 50.8389 30.5728 50.8389C30.578 50.8337 30.5832 50.8285 30.5884 50.8285C31.078 50.667 47.005 34.8857 47.828 33.4118C46.953 34.3493 42.7238 36.1982 39.2082 36.3649C40.703 34.891 42.953 32.2555 45.38 29.167C47.6821 26.2295 50.1509 22.8857 52.2967 19.7451C53.5155 17.9587 54.63 16.2399 55.5467 14.693C56.8071 12.5732 57.703 10.7868 57.9998 9.62012C58.3071 11.5993 59.2603 14.0264 60.5623 16.6045C62.6769 20.7764 65.7134 25.3441 68.4425 29.0837C71.2863 32.9847 73.8019 35.9847 74.5728 36.6878L67.5155 34.9326C67.5155 34.9326 75.9373 47.516 82.1144 53.7555L71.7811 49.3389C71.7863 49.3337 81.4634 62.2816 86.5519 65.4014Z" fill="#4CAF50"/>
<path d="M73.6252 24.4998C79.1043 23.6196 76.5835 29.9477 68.4429 29.0831C65.7137 25.3435 62.6772 20.7758 60.5679 16.604C63.4377 13.6352 68.12 17.005 66.5731 20.5831C74.1147 16.6665 74.797 22.9269 73.6252 24.4998Z" fill="#4A8BDF"/>
<path d="M65.396 78.2236V88.2236H64.9377L58.1147 78.2236H65.396Z" fill="#4A8BDF"/>
<path d="M68.5366 93.4997H37.797V83.0049H22.9168V93.4997H12.4272V79.1768L25.5939 67.1507L33.146 60.2497L33.1512 60.2445L45.0887 49.333L71.8752 73.807C71.8752 73.807 71.8752 73.8122 71.8804 73.8122L77.7502 79.1768V93.4997H68.5366ZM65.396 88.2236V78.2236H53.8439V88.2236H65.396Z" fill="#FF9F43"/>
<path d="M64.9377 88.2236H53.8491V78.2236H58.1147L64.9377 88.2236Z" fill="#4A8BDF"/>
<path d="M20.9064 29.1559C13.3491 28.8955 6.86991 28.2809 6.47408 26.9632C5.4897 23.7132 9.35949 24.0414 12.4272 24.8851C10.3855 19.7966 17.3022 18.9112 17.922 21.557C16.6512 13.7289 26.4949 13.557 27.8074 17.1455C28.2032 -2.03156 51.948 2.97886 49.4428 13.0414C52.573 10.9216 55.4272 13.0778 55.5522 14.6872C54.6355 16.2289 53.521 17.9528 52.297 19.7393C50.1564 22.8851 47.6876 26.2289 45.3855 29.1612C45.3855 29.1664 31.9845 29.5309 20.9064 29.1559Z" fill="#4A8BDF"/>
<path d="M22.9165 83.0049H37.7967V93.4997H22.9165V83.0049Z" fill="#4A8BDF"/>
<path d="M21.2866 115.552L27.7136 124.635C21.2241 122.864 17.0209 120.161 21.2866 115.552Z" fill="#4A8BDF"/>
<path d="M78.1408 93.8903H12.0366V79.0049L32.8804 59.958L33.4064 60.5413L12.8179 79.3486V93.1038H77.3595V79.3434L71.62 74.0986L72.1408 73.5257L78.1408 79.0049V93.8903Z" fill="black"/>
<path d="M71.6092 74.0986L45.0884 49.8643L33.4165 60.5309L32.8853 59.9528L45.0884 48.8018L72.1353 73.5205L71.6092 74.0986Z" fill="black"/>
<path d="M79.6615 118.245C75.4583 118.245 71.6354 117.396 67.6406 116.505L66.8229 116.328C59.1198 114.615 51.8385 113.37 40.724 115.443L40.5781 114.677C51.8385 112.578 59.2031 113.834 66.9896 115.568L67.8073 115.745C72.5885 116.808 77.1042 117.813 82.3021 117.349C87.9896 116.844 92.7813 114.792 97.4219 112.813C100.042 111.693 102.755 110.531 105.604 109.662C109.62 108.427 113.297 107.953 117.177 108.162C122.302 108.443 128.307 109.87 134.12 111.255C144.349 113.693 154.927 116.203 161.63 112.834L161.984 113.531C155.026 117.031 144.307 114.479 133.938 112.016C128.167 110.641 122.193 109.219 117.135 108.943C113.349 108.74 109.76 109.203 105.828 110.406C103.021 111.266 100.328 112.412 97.724 113.526C93.0312 115.531 88.1771 117.61 82.375 118.125C81.4479 118.209 80.5469 118.245 79.6615 118.245Z" fill="black"/>
<path d="M65.3594 105.203C63.099 104.968 60.8333 104.666 58.6302 104.291C53.8229 103.484 47.1458 101.994 42.4792 99.4684C36.9531 102.041 26.7187 106.015 18.9219 104.494L19.0729 103.729C26.7344 105.224 36.9271 101.208 42.3281 98.682L42.5052 98.5986L42.6771 98.6924C47.2604 101.213 53.9531 102.708 58.7604 103.521C60.9479 103.89 63.1927 104.192 65.4375 104.422L65.3594 105.203Z" fill="black"/>
<path d="M101.906 102.771C101.412 102.771 100.912 102.745 100.412 102.698C99.1147 102.578 97.8075 102.297 96.521 101.881L96.7658 101.141C97.995 101.542 99.245 101.808 100.485 101.922C102.667 102.125 104.823 101.86 106.886 101.146C109.615 100.198 111.214 98.7607 111.229 98.7451L111.438 98.5576L111.688 98.6982C119.287 103.104 124.646 100.714 128.563 98.9639L129.37 98.6045L129.526 98.6722C138.333 102.396 146.313 100.714 148.12 98.766L148.693 99.2972C146.386 101.782 137.948 103.026 129.38 99.4587L128.88 99.6826C124.854 101.479 119.354 103.938 111.537 99.5107C110.99 99.9482 109.469 101.073 107.146 101.881C105.448 102.474 103.693 102.771 101.906 102.771Z" fill="black"/>
<path d="M157.318 92.7085C155.526 92.7085 153.276 92.521 150.146 92.0366L150.266 91.2658C157.458 92.3752 159.776 91.9012 162.979 91.2345C163.953 91.0314 165.057 90.8023 166.391 90.6095C168.927 90.2345 172.136 90.7241 175.235 91.1929C176.37 91.3648 177.542 91.547 178.641 91.672C180.724 91.9168 183.318 92.0991 184.985 91.3023L185.323 92.0106C183.49 92.8856 180.87 92.7241 178.552 92.4533C177.443 92.3231 176.261 92.1408 175.12 91.9689C172.073 91.5106 168.927 91.0314 166.511 91.3804C165.198 91.5731 164.151 91.7918 163.141 92.0002C161.328 92.3752 159.729 92.7085 157.318 92.7085Z" fill="black"/>
<path d="M32.2968 29.7192C28.6249 29.7192 24.6197 29.6723 20.8958 29.5473C6.69784 29.0578 6.27597 27.6723 6.10409 27.0786C5.78638 26.0369 5.90097 25.2296 6.44263 24.6775C7.52597 23.5682 10.0468 23.9067 11.8281 24.3338C11.3853 22.6932 11.8853 21.6307 12.4322 21.0057C13.4999 19.7765 15.2708 19.5317 16.4635 19.8286C16.8281 19.9223 17.1458 20.0578 17.4114 20.24C17.3906 16.188 20.5572 15.0161 21.6197 14.74C23.8749 14.1463 26.2447 14.6932 27.4791 15.938C27.8853 10.5786 30.276 6.65671 34.2968 4.82338C38.4739 2.91713 43.9739 3.57859 47.3749 6.4015C49.3281 8.0265 50.2343 10.089 49.9791 12.2869C51.3176 11.6411 52.7291 11.5994 53.9635 12.1984C55.0728 12.7348 55.8697 13.7244 55.9426 14.6619L55.1614 14.7244C55.1093 14.063 54.4791 13.3078 53.6249 12.8963C52.9114 12.5525 51.4478 12.1567 49.6614 13.365L48.8228 13.938L49.0676 12.9536C49.6145 10.7453 48.8385 8.63067 46.8801 7.00046C43.6978 4.35983 38.5416 3.74525 34.6197 5.53171C30.5937 7.37025 28.3176 11.5005 28.2031 17.1567L28.1562 19.2296L27.4478 17.2869C26.8645 15.6984 24.2395 14.865 21.8228 15.4953C20.526 15.8338 17.5937 17.0942 18.3124 21.5005L17.5468 21.6515C17.3801 20.9588 16.6822 20.688 16.2812 20.589C15.2812 20.339 13.8437 20.5786 13.026 21.5213C12.3437 22.3025 12.2656 23.4171 12.7968 24.74L13.0885 25.4744L12.3281 25.2661C9.68222 24.5369 7.69263 24.5213 7.00513 25.2244C6.68222 25.5578 6.63013 26.1046 6.85409 26.8546C6.95305 27.1932 8.27076 28.3286 20.927 28.7713C31.8645 29.1463 45.2499 28.7817 45.3801 28.7765L45.4062 29.5578C45.3072 29.5578 39.4374 29.7192 32.2968 29.7192Z" fill="black"/>
<path d="M156.698 31.0103H117.375L117.516 30.5155C117.531 30.453 117.865 29.3072 118.88 28.3853H84.2344L84.3698 27.8905C84.401 27.7759 85.1615 25.0884 87.3385 23.3072C89.1563 21.8124 91.375 21.4009 93.9375 22.0832C94.4375 18.6405 95.9531 13.3489 100.562 13.0728C103.417 12.9062 106.188 14.8332 107.229 16.5416C110.078 10.5207 113.156 10.0572 114.781 10.3437C116.646 10.6718 118.016 12.1353 118.542 13.4218C121.719 8.72908 124.391 8.46866 125.734 8.75512C126.792 8.97908 127.615 9.65095 128.104 10.4114C129.229 5.8697 131.995 2.66137 136 1.31241C140.474 -0.187592 145.938 0.942616 149.281 4.06762C151.625 6.26032 152.604 9.08845 152.094 12.1197C154.182 11.0155 155.604 11.2447 156.464 11.6718C157.297 12.0885 157.922 12.8645 158.188 13.7864C162.797 10.0832 167.542 10.4895 170.286 12.6145C172.422 14.2655 173.193 16.7447 172.354 19.0989C173.651 18.9218 174.771 19.2603 175.448 20.0624C176.068 20.7916 176.214 21.8124 175.88 22.8749C177.818 23.0364 179.854 24.052 179.896 26.526C179.938 28.6093 178.333 30.9166 175.677 31.0155L156.698 31.0103ZM118.464 30.2291H175.656C177.823 30.151 179.141 28.2499 179.109 26.5364C179.099 25.8541 178.786 23.6301 175.307 23.6301H174.693L174.948 23.0728C175.406 22.0989 175.365 21.1874 174.839 20.5624C174.234 19.8489 173.099 19.6405 171.802 20.0051L170.953 20.2395L171.344 19.453C172.448 17.2499 171.839 14.8072 169.797 13.2291C167.203 11.2239 162.599 10.9322 158.167 14.8072L157.583 15.3176L157.521 14.5468C157.458 13.802 157.057 12.8384 156.104 12.3697C155.323 11.9791 153.932 11.8176 151.719 13.2239L150.88 13.7603L151.135 12.7968C151.943 9.73428 151.089 6.82803 148.734 4.63012C145.594 1.69262 140.453 0.630116 136.24 2.04678C132.156 3.42178 129.443 6.89053 128.599 11.8124L128.182 14.2603L127.828 11.802C127.698 10.8957 126.859 9.78116 125.557 9.50512C124.344 9.2447 121.844 9.56241 118.703 14.578L118.057 15.6041L117.984 14.3957C117.917 13.302 116.547 11.4374 114.635 11.1041C112.104 10.6562 109.599 12.9843 107.573 17.6457L107.115 18.6978L106.839 17.5832C106.438 15.9843 103.5 13.6718 100.599 13.8437C96.5677 14.0832 95.1302 18.7551 94.6406 22.6249L94.5833 23.0885L94.1406 22.953C91.6563 22.1822 89.5365 22.4999 87.8281 23.9062C86.375 25.0989 85.599 26.7812 85.2865 27.5989H120.094C121.13 27.1614 122.349 27.1197 123.74 27.4739C123.781 26.2134 123.979 25.0676 124.323 24.0728C125.099 21.8124 126.661 20.2447 128.734 19.6562C130.432 19.177 132.286 19.4114 133.656 20.2395C133.979 18.6509 135.146 17.8697 136.224 17.6718C137.818 17.3801 139.432 18.2082 140.062 19.651L139.349 19.9635C138.797 18.703 137.432 18.2447 136.365 18.4374C135.161 18.6614 134.411 19.6041 134.354 20.9582L134.318 21.7395L133.714 21.2395C132.536 20.2707 130.62 19.9374 128.943 20.4114C127.661 20.7759 125.938 21.7499 125.057 24.328C124.693 25.3749 124.51 26.6093 124.51 27.9947V28.526L124 28.3645C122.557 27.9114 121.323 27.9009 120.333 28.3489C119.302 28.8176 118.734 29.6822 118.464 30.2291Z" fill="black"/>
<path d="M168.281 26.9432L168.359 25.839C168.521 23.4484 166.807 20.8598 164.682 20.3078C162.573 19.7609 160.583 21.2088 159.094 24.3911L158.391 24.0578C159.167 22.4015 161.359 18.6411 164.88 19.5525C167.109 20.1307 168.896 22.4953 169.125 24.9744C170.151 24.1359 171.255 23.8025 172.141 24.1046C172.865 24.3494 173.323 24.9796 173.401 25.8338L172.625 25.9015C172.578 25.365 172.318 24.99 171.896 24.8442C171.307 24.6463 170.208 24.865 169.036 26.1307L168.281 26.9432Z" fill="black"/>
<path d="M84.5936 77.5368L83.5623 77.4378C83.38 77.4222 79.0311 76.9899 71.8071 74.2035H71.7186L71.604 74.0889L71.8748 73.8128V73.417L71.88 73.4222H71.953L72.0155 73.4482C77.2134 75.4587 80.9686 76.2451 82.6457 76.5212C79.8644 72.8493 75.2498 63.3805 75.0415 62.943L74.6821 62.2087L84.7498 64.5785C79.5155 60.292 71.828 50.0524 71.4738 49.568L70.604 48.4066L80.5363 52.6514C74.5832 46.1514 67.2759 35.266 67.1978 35.1514L66.6353 34.3128L73.3853 35.9899C72.1665 34.6045 70.1821 32.1253 68.13 29.3128C65.8019 26.1201 62.5363 21.3597 60.2238 16.7816C59.1144 14.5993 58.3436 12.6722 57.9113 11.0472C57.4738 12.0732 56.7967 13.3545 55.8853 14.891C54.9894 16.3962 53.8957 18.1045 52.6196 19.9639C50.5832 22.9587 48.1248 26.3076 45.6925 29.4066C43.5675 32.1097 41.6665 34.3649 40.229 35.8805C43.3853 35.4639 46.8332 33.9118 47.5415 33.1462L49.7082 30.8337L48.1717 33.6045C47.4946 34.8232 31.5103 50.943 30.7186 51.2035L30.6561 51.2243H30.5936V50.8597L30.3071 50.568L30.4269 50.516L30.4165 50.4951C31.1196 50.0368 41.8853 39.4118 45.9686 35.0107C44.1144 35.8597 41.479 36.6566 39.2342 36.7607L38.2186 36.8076L38.9425 36.0889C40.3853 34.667 42.6196 32.0576 45.078 28.9274C47.4998 25.8493 49.9478 22.5055 51.979 19.5264C53.2446 17.6826 54.3332 15.9899 55.2134 14.4951C56.5415 12.2607 57.354 10.5889 57.63 9.52637L58.104 7.68262L58.3957 9.56283C58.6665 11.3597 59.5207 13.6722 60.9217 16.4326C63.2134 20.9639 66.453 25.6878 68.7655 28.8597C71.7498 32.9482 74.1561 35.7816 74.8436 36.4066L75.979 37.443L68.4217 35.5628C70.4217 38.4899 77.2446 48.2764 82.4009 53.4847L83.8019 54.9014L72.9946 50.2816C75.505 53.5368 82.6873 62.5785 86.755 65.0732L88.828 66.3389L76.1092 63.3493C77.3905 65.9274 81.7134 74.4795 83.8853 76.7868L84.5936 77.5368Z" fill="black"/>
<path d="M33.4271 60.516L33.1146 60.2087L32.8438 60.0055L32.8802 59.9587C37.4896 53.9535 41.0625 49.0576 42.4531 46.8597C38.125 49.3701 30.8125 51.2243 30.5833 51.2243L30.5781 50.818L30.5312 50.4482C31.1198 50.3493 39.4792 48.1722 43.2448 45.4222L43.974 44.8857L43.8646 45.7816C43.7135 47.0212 36.5625 56.4378 33.5 60.4326L33.4271 60.516Z" fill="black"/>
<path d="M129.745 99.1455L129 98.9163L130.812 92.932L131.266 93.3226C133.255 95.0361 135.047 95.7809 136.578 95.5205C138.089 95.2705 138.974 94.0986 139.37 93.4216C139.729 92.8018 139.745 90.7132 139.062 87.9215C138.641 86.1872 136.964 80.3226 133.083 77.583L132.208 76.9632L135.302 76.708L132.906 72.3538V72.2497H133.302L133.635 72.0674L136.557 77.3903L134.323 77.5726C137.854 80.6507 139.401 86.0622 139.812 87.7393C140.49 90.5101 140.573 92.8955 140.036 93.8174C139.573 94.6143 138.521 95.9945 136.698 96.2966C135.052 96.5726 133.203 95.9007 131.208 94.3018L129.745 99.1455Z" fill="black"/>
<path d="M107.38 101.651L106.656 101.365L109.625 93.8805C107.818 94.5941 103.729 95.7295 101.338 92.5524C100.609 91.5889 100.682 90.0889 101.542 88.1097C101.781 87.5576 102.083 86.9743 102.443 86.3753C105.484 81.1826 112.458 74.4795 118.854 72.2451C119.713 71.943 120.542 71.7347 121.328 71.6201L122.286 66.3545L127.224 71.8962L127.115 72.1305C126.885 72.6149 126.338 73.8024 126.083 74.4118C126.531 74.6201 127.344 74.8857 127.849 75.0316L128.213 75.141L128.115 75.5055C128.104 75.5316 127.661 77.2295 127.365 78.3493C128.432 77.6097 130.281 76.0107 130.927 73.4222L131.682 73.6097C130.667 77.6774 127.068 79.4587 126.917 79.5316L126.167 79.8962L126.365 79.0889C126.448 78.7607 127.026 76.5576 127.266 75.6722C126.703 75.4951 125.734 75.1722 125.365 74.9066L125.13 74.7347L125.224 74.4639C125.359 74.0524 126.026 72.6045 126.292 72.0316L122.76 68.0628L121.99 72.3128L121.703 72.3493C120.885 72.4482 120.01 72.6618 119.104 72.9795C112.958 75.1253 106.016 81.8076 103.109 86.7712C102.771 87.3441 102.479 87.8962 102.255 88.4222C101.521 90.1045 101.417 91.3753 101.953 92.0889C104.672 95.7035 110.094 92.818 110.151 92.7868L111.094 92.2712L107.38 101.651Z" fill="black"/>
<path d="M120.74 80.7865L120.656 80.7501C117.797 79.5261 116.932 77.3855 116.896 77.2969L116.828 77.1251L116.917 76.9636C116.964 76.8855 118.005 75.0313 119.505 73.9063C120.323 73.2865 121.135 72.9949 121.911 73.0469C123.234 73.1303 124.432 74.1928 125.109 75.8959C125.464 76.7865 125.708 78.0209 125.224 78.5417C124.656 79.1511 123.776 79.2657 123.354 79.2865C123.12 79.6563 122.797 79.9896 122.432 80.2396C122.099 80.4688 121.74 80.6251 121.37 80.7136C121.208 80.7501 121.026 80.7761 120.828 80.7813L120.74 80.7865ZM117.698 77.1771C117.943 77.6563 118.828 79.0886 120.875 79.9949C120.99 79.9896 121.099 79.974 121.193 79.948C121.469 79.8855 121.734 79.7709 121.99 79.5938C122.318 79.3647 122.599 79.0521 122.781 78.7136L122.901 78.4896L123.146 78.5053C123.156 78.5053 124.141 78.5469 124.646 78.0053C124.766 77.8647 124.75 77.0313 124.312 76.0157C124.094 75.5209 123.281 73.9063 121.859 73.8178C121.271 73.7865 120.635 74.0209 119.964 74.5209C118.854 75.3699 117.984 76.7032 117.698 77.1771Z" fill="black"/>
<path d="M121.62 86.5939C120.531 86.5939 119.562 85.8908 118.849 84.5366C117.651 82.2658 119.974 80.7241 120.963 80.0679C121.01 80.0366 121.057 80.0054 121.099 79.9897C121.422 79.7866 121.765 79.6356 122.114 79.5418C123.25 79.2293 124.437 79.5002 125.359 80.2918C125.792 80.6668 126.141 81.0991 126.396 81.5887C127.005 82.7606 126.989 84.0887 126.354 84.896C125.542 85.9325 124.687 86.4377 123.755 86.4377C123.734 86.4377 123.708 86.4377 123.693 86.4377C123.437 86.4377 123.172 86.3908 122.896 86.3022C122.453 86.5002 122.026 86.5939 121.62 86.5939ZM121.443 80.6877C121.427 80.6929 121.411 80.7033 121.401 80.7137C119.458 82.0054 118.922 83.0054 119.536 84.172C120.104 85.2397 121.104 86.3439 122.682 85.521L122.838 85.4429L123 85.5054C123.25 85.5991 123.479 85.646 123.698 85.646C124.401 85.6668 125.068 85.2554 125.734 84.4064C126.177 83.8439 126.156 82.8335 125.698 81.9429C125.489 81.5418 125.203 81.1877 124.849 80.8804C124.12 80.2606 123.198 80.047 122.312 80.2918C122.031 80.37 121.75 80.4897 121.489 80.6564L121.443 80.6877Z" fill="black"/>
<path d="M136.25 86.8802C134.88 84.9062 128.068 81.927 126.089 82.1562L126 81.3802C128.24 81.1249 135.344 84.1979 136.891 86.4374L136.25 86.8802Z" fill="black"/>
<path d="M126.786 79.5726L126.713 78.7965L132.614 78.234L132.505 77.1507L133.281 77.0674L133.469 78.932L126.786 79.5726Z" fill="black"/>
<path d="M104.214 86.9163L103.63 86.3955C107.526 82.0622 115.552 76.0726 115.636 76.0153L115.844 75.8643L117.458 76.8174L117.063 77.4945L115.896 76.8018C114.61 77.7653 107.703 83.0257 104.214 86.9163Z" fill="black"/>
<path d="M110.521 93.4688L110.156 92.7812C112.714 91.4115 118.109 85.9115 118.828 84.2031L119.552 84.5052C118.688 86.5573 113.12 92.0833 110.521 93.4688Z" fill="black"/>
<path d="M123.094 94.0524C121.906 94.0524 120.833 93.3441 120.37 92.2451L119.62 90.4639L120.333 90.1618L121.088 91.9378C121.432 92.7451 122.219 93.2712 123.094 93.2712C123.427 93.2712 123.745 93.1982 124.047 93.0472C125.104 92.5368 125.562 91.2868 125.094 90.2087L123.333 86.1982L124.047 85.8857L125.807 89.8962C126.443 91.3597 125.823 93.0524 124.385 93.7503C123.979 93.9535 123.547 94.0524 123.094 94.0524Z" fill="black"/>
<path d="M119.396 74.4215L119.38 74.3799L114.797 64.6143L115.495 64.2705L115.5 64.2757L120.109 74.0986L119.396 74.4215Z" fill="black"/>
<path d="M130.802 93.9424C130.599 93.8122 125.813 90.6455 124.568 88.9736L125.193 88.5049C126.354 90.0674 131.182 93.2601 131.229 93.2913L130.802 93.9424Z" fill="black"/>
<path d="M130.818 73.9066C130.235 73.9066 129.62 73.7764 128.979 73.5107L129.281 72.7868C129.985 73.0837 130.646 73.1878 131.245 73.0993C131.943 72.9951 132.542 72.6253 132.995 72.0212C133.495 71.3493 133.781 70.4274 133.781 69.4795C133.781 69.0472 133.823 68.6774 133.901 68.3389C133.979 68.0107 134.089 67.7555 134.193 67.5055C134.36 67.0993 134.521 66.7087 134.563 65.9795C132.459 66.516 130.688 66.2555 129.568 65.7503C128.844 67.0993 127.031 68.1462 126.948 68.193L126.365 68.5316V66.8545C126.235 66.6722 126.13 66.6253 126.099 66.6305C126.052 66.6357 125.932 66.7191 125.813 66.9482C125.474 67.5941 125.448 68.6774 125.922 69.0628L126.094 69.2035L125.891 70.6097L125.12 70.5003L125.261 69.516C124.578 68.7555 124.724 67.3441 125.125 66.5941C125.36 66.1357 125.698 65.8753 126.068 65.8545C126.323 65.8441 126.719 65.9535 127.084 66.5316L127.141 66.6253V67.1462C127.771 66.6982 128.724 65.917 129.011 65.0941L129.167 64.6514L129.578 64.8857C130.584 65.4743 132.495 65.8337 134.844 65.0941L135.339 64.9378L135.354 65.4587C135.38 66.7035 135.13 67.2868 134.917 67.8128C134.823 68.042 134.735 68.2555 134.667 68.5264C134.599 68.8076 134.568 69.1201 134.568 69.4847C134.568 70.6149 134.229 71.6826 133.625 72.4951C133.047 73.2607 132.271 73.7451 131.37 73.8753C131.182 73.8962 131.005 73.9066 130.818 73.9066Z" fill="black"/>
<path d="M134.594 68.6618L133.969 68.2035C134.578 67.3805 135.573 65.9795 135.75 65.5993C135.734 65.2399 135.016 63.4899 133.427 62.3285C132.547 61.6826 131.578 61.3545 130.552 61.3545C128.656 61.3597 127.287 61.7764 126.49 62.5993C125.891 63.2295 125.599 64.1045 125.636 65.2139C125.651 65.6774 125.719 66.1774 125.844 66.6826L125.083 66.8649C124.948 66.3076 124.875 65.7607 124.854 65.2399C124.813 63.9066 125.177 62.8389 125.932 62.0576C126.88 61.0785 128.432 60.5785 130.552 60.5732C131.75 60.5732 132.875 60.9535 133.886 61.6982C135.698 63.0212 136.729 65.266 136.49 65.8597C136.287 66.3649 134.88 68.2868 134.594 68.6618Z" fill="black"/>
<path d="M77.8283 88.7865L77.6772 88.0156C80.1512 87.5417 87.5939 86.8958 87.9116 86.8646L87.9845 86.8594L88.0522 86.8802C88.6408 87.0417 89.5054 87.1979 90.547 87.3385C94.6877 87.8958 100.948 88.1042 101.802 87.8854L102 88.6406C100.974 88.9063 94.5939 88.6719 90.4429 88.1146C89.3856 87.974 88.5366 87.8177 87.9116 87.651C87.1356 87.7187 80.1356 88.3385 77.8283 88.7865Z" fill="black"/>
<path d="M115.364 135.724C102.047 135.724 89.3957 134.453 87.6874 130.828C87.3593 130.141 87.4218 129.411 87.8593 128.656C75.4634 130.099 58.9009 130.844 48.552 128.703C46.8593 128.354 44.578 128.026 41.9374 127.646C37.2707 126.974 31.9843 126.214 27.6093 125.016C22.6093 123.651 19.8853 121.974 19.2916 119.896C18.8957 118.495 19.4687 116.948 20.9999 115.297C21.9634 114.26 23.3228 113.151 25.0676 111.984C22.302 111.573 19.578 110.901 16.9582 109.99C6.79157 106.464 -0.317807 99.8177 0.0624008 94.1927C0.260317 91.2135 2.55719 87.25 12.3541 85.2656L12.5051 86.0312C5.23949 87.5 1.09365 90.4167 0.838443 94.2396C0.479068 99.526 7.36969 105.839 17.2134 109.25C20.1145 110.26 23.1405 110.969 26.2082 111.354L27.2864 111.495L26.3697 112.073C24.2551 113.406 22.6457 114.672 21.578 115.828C20.2395 117.271 19.7291 118.568 20.0468 119.682C20.552 121.453 23.1666 122.995 27.8176 124.266C32.1457 125.453 37.4114 126.214 42.052 126.88C44.703 127.26 46.9947 127.594 48.7134 127.943C59.2187 130.12 76.2343 129.286 88.6562 127.781L89.677 127.656L88.9947 128.422C88.302 129.203 88.1041 129.885 88.3957 130.495C89.9114 133.714 103.771 135.453 122.88 134.812C138.807 134.286 154.828 132.24 165.739 129.354C168.422 128.646 170.917 127.776 173.141 126.771C173.266 126.708 173.396 126.651 173.516 126.599C181.229 123.005 184.104 118.479 183.531 115.583C183.13 113.531 181.073 112.276 177.896 112.13C173.734 111.943 170.255 109.599 169.969 106.786C169.76 104.698 171.13 100.75 182.693 97.8281L182.844 98.1927L182.739 97.8177C189.203 96.1927 195.818 93.1406 195.062 89.4427C194.656 87.4323 191.979 86.0208 189.328 86.4323C187.948 86.7656 186.109 87.026 183.891 87.1979C181.5 87.3854 178.578 87.4844 175.208 87.4844C164.568 87.4844 152.687 86.5052 151.88 86.4375C151.599 86.474 150 86.6875 147.963 86.9688C147.453 87.0417 146.906 87.1198 146.349 87.1979C144.271 87.4896 141.401 87.901 139.51 88.2188L139.38 87.4479C141.276 87.1302 144.161 86.7188 146.239 86.4271C146.797 86.349 147.344 86.2708 147.859 86.1979C150.104 85.8906 151.818 85.6615 151.818 85.6615L151.864 85.6562L151.906 85.6615C152.026 85.6719 164.281 86.7083 175.213 86.7083C178.562 86.7083 181.463 86.6146 183.828 86.4271C186.005 86.2604 187.807 86.0052 189.182 85.6719C192.25 85.1927 195.344 86.8906 195.833 89.2917C196.062 90.4219 195.833 92.1771 193.458 94.099C191.266 95.8646 187.734 97.3698 182.958 98.5729L182.812 98.2083L182.917 98.5833C171.484 101.474 170.604 105.229 170.755 106.714C170.995 109.104 174.219 111.188 177.937 111.354C183.005 111.589 184.078 114.286 184.302 115.438C184.885 118.396 182.5 123.281 173.849 127.312C173.724 127.37 173.594 127.432 173.463 127.49C171.198 128.51 168.672 129.396 165.943 130.12C154.979 133.021 138.891 135.073 122.911 135.604C120.411 135.677 117.875 135.724 115.364 135.724Z" fill="black"/>
<path d="M167.839 127.823C160.474 127.823 149.458 126.739 146.349 124.276C144.156 124.75 125.865 128.682 122.365 127.146L122.682 126.432C125.412 127.63 139.37 125.021 146.37 123.468L146.568 123.427L146.714 123.562C150.078 126.552 167.63 127.677 173.235 126.739L173.365 127.505C172.13 127.718 170.162 127.823 167.839 127.823Z" fill="black"/>
<path d="M38.1821 93.4997H37.4009V83.3903H23.3071V93.4997H22.5259V82.6143H38.1821V93.4997Z" fill="black"/>
<path d="M65.7918 88.6143H53.4585V77.833H65.7918V88.6143ZM54.2397 87.833H65.0106V78.6143H54.2397V87.833Z" fill="black"/>
<path d="M184.235 86.6562H183.453V76.474L175.917 67.5938H155.833L148.302 76.474V86.6562H147.521V76.1875L155.474 66.8125H176.276L184.235 76.1875V86.6562Z" fill="black"/>
<path d="M147.912 75.9424H183.839V76.7184H147.912V75.9424Z" fill="black"/>
<path d="M85.3384 79.1672L85.604 77.4588C85.63 77.2817 88.5259 59.6984 108.198 51.0838C108.771 50.8338 109.354 50.589 109.927 50.3651C110.984 49.9484 112.052 49.5995 113.094 49.3234C127.088 45.5786 140.739 52.6411 141.625 54.6359L141.896 55.2349L141.239 55.188C134.359 54.6359 130.078 56.3234 128.87 60.0578L128.703 60.563L128.276 60.2609C126.338 58.8963 123.536 58.563 120.958 59.3911C118.354 60.2297 116.38 62.1203 115.526 64.5734C115.37 65.0161 115.25 65.4849 115.161 65.9953L115.068 66.5526L114.578 66.2661C112.01 64.7557 107.974 64.9484 104.76 66.7453C102.318 68.1099 100.896 70.1151 100.859 72.2609L100.844 73.0317L100.234 72.563C99.3175 71.8599 97.8853 71.6411 96.0988 71.9276C92.4269 72.5161 88.13 75.0734 86.3228 77.7349L85.3384 79.1672ZM110.208 51.089C109.646 51.313 109.073 51.5474 108.51 51.7974C98.4321 56.214 92.9478 62.9953 90.1196 67.9067C88.1717 71.3026 87.1873 74.2765 86.729 76.0057C88.9634 73.688 92.6978 71.6828 95.9634 71.1567C97.6405 70.8859 99.0623 71.0317 100.12 71.5734C100.411 69.4067 101.927 67.4224 104.37 66.0578C107.62 64.2401 111.687 63.9692 114.484 65.3338C114.568 64.9797 114.667 64.6411 114.781 64.313C115.713 61.6255 117.87 59.563 120.708 58.6463C123.328 57.7974 126.187 58.0682 128.292 59.339C129.359 56.6932 132.37 53.9224 140.375 54.339C137.64 52.0005 125.401 46.8286 113.286 50.0734C112.276 50.3495 111.239 50.688 110.208 51.089Z" fill="black"/>
<path d="M98.2446 79.0675L97.9582 78.7394C97.0363 77.6821 95.0675 77.1196 92.2707 77.1196H92.2655C89.979 77.1196 87.5155 77.5102 86.0936 77.8956L85.8853 77.1456C87.8175 76.6248 95.3436 75.2967 98.2446 77.9217C101.859 74.1248 105.958 72.7394 110.443 73.8019C112.099 71.8175 114.594 70.0831 117.328 69.0258C119.099 68.3436 120.823 67.9998 122.312 68.0415L122.292 68.8227C120.906 68.7811 119.286 69.104 117.614 69.755C114.911 70.7967 112.458 72.5154 110.896 74.479L110.739 74.6769L110.5 74.6144C106.042 73.4686 102.13 74.8227 98.5467 78.7394L98.2446 79.0675Z" fill="black"/>
<path d="M123.14 68.4844L123.042 68.1615C123.078 67.7865 124.469 65.3125 125.015 64.9062L125.479 65.5365C125.13 65.7917 123.917 67.901 123.812 68.2656C123.823 68.224 123.833 68.0781 123.724 67.9583L123.14 68.4844Z" fill="black"/>
<path d="M134.042 62.0049H133.266C133.266 58.8695 136.458 55.0622 141.214 54.4111L141.318 55.182C137.88 55.6611 134.042 58.5778 134.042 62.0049Z" fill="black"/>
<path d="M114.479 66.1924C112.834 64.3799 109.334 52.2809 109.682 50.6455L110.448 50.8122C110.151 52.2028 113.584 64.0518 115.057 65.6715L114.479 66.1924Z" fill="black"/>
<path d="M100.089 72.3747C98.1774 66.8122 100.417 55.4945 108.162 51.0986L108.37 51.4268L108.552 51.7757C101.141 55.9788 98.9951 66.807 100.823 72.1247L100.089 72.3747Z" fill="black"/>
<path d="M128.135 60.0831C126.224 55.38 121.161 49.9373 113.203 50.0988L113.172 49.7029V49.3123C121.552 49.1665 126.854 54.8592 128.859 59.7915L128.135 60.0831Z" fill="black"/>
<path d="M69.9533 29.5524C69.4585 29.5524 68.9429 29.5263 68.4064 29.4638L68.4897 28.693C72.4012 29.1097 75.0835 27.7972 75.922 26.4065C76.0783 26.1513 76.297 25.6722 76.0418 25.2972C75.7397 24.8493 74.8595 24.693 73.6877 24.8805L72.7345 25.0315L73.3127 24.2607C73.8231 23.5836 73.9064 21.7086 72.9689 20.6045C71.8595 19.3024 69.6564 19.417 66.7554 20.9222L65.7762 21.4274L66.2137 20.4222C66.9429 18.7243 66.1147 17.193 64.9637 16.4274C63.9272 15.7347 62.2293 15.4378 60.8439 16.8753L60.2866 16.3336C61.8908 14.667 64.0106 14.8545 65.396 15.7815C66.5731 16.5628 67.5262 18.0993 67.2033 19.8388C71.0366 18.1045 72.8231 19.2295 73.5627 20.1045C74.5522 21.2711 74.6304 22.943 74.2762 24.0315C75.8022 23.943 76.4325 24.4899 76.6825 24.8597C77.047 25.3961 77.0106 26.1045 76.5887 26.8128C75.7241 28.2555 73.3856 29.5524 69.9533 29.5524Z" fill="black"/>
<path d="M37.8074 21.7396C37.3855 19.802 38.1564 18.625 38.8855 17.9791C40.4064 16.6198 42.9376 16.4687 44.5418 17.0156C45.4116 17.3177 46.0418 17.802 46.3751 18.4114C48.5314 16.4635 50.4897 17.151 51.0678 17.4218C52.1355 17.9271 52.8022 18.901 52.6876 19.7968L51.9116 19.6927C51.9845 19.151 51.4741 18.4791 50.7345 18.125C49.4064 17.5 47.8282 17.9687 46.5001 19.3854L45.9741 19.9427L45.8334 19.1875C45.6772 18.3437 44.797 17.9323 44.2918 17.7604C42.8959 17.2812 40.7137 17.401 39.4116 18.5625C38.5834 19.3021 38.3022 20.3177 38.573 21.5781L37.8074 21.7396Z" fill="black"/>
<path d="M130.953 71.5465L131.042 70.7705L132.552 70.9476L132.464 71.7236L130.953 71.5465Z" fill="black"/>
<path d="M82.9219 17.4688L83.5625 17.0312L101.479 43.2917L100.839 43.7292L82.9219 17.4688Z" fill="black"/>
<path d="M54.2554 98.0882L54.896 97.6455L72.8127 123.911L72.172 124.354L54.2554 98.0882Z" fill="black"/>
<path d="M10.6147 45.8955L11.2554 45.458L29.172 71.7184L28.5314 72.1559L10.6147 45.8955Z" fill="black"/>
<path d="M44.1147 58.3799L44.7554 57.9424L77.521 105.963L76.8804 106.406L44.1147 58.3799Z" fill="black"/>
<path d="M139.219 77.1302L139.859 76.6875L178.083 132.719L177.443 133.156L139.219 77.1302Z" fill="black"/>
<path d="M86.9531 83.2288L87.5938 82.7861L127.068 140.64L126.427 141.078L86.9531 83.2288Z" fill="black"/>
<path d="M121.099 19.6357L121.745 19.1982L164.886 82.4222L164.24 82.8649L121.099 19.6357Z" fill="black"/>
<path d="M54.3647 30.9222L55.0106 30.4795L65.1252 45.3024L64.4793 45.7451L54.3647 30.9222Z" fill="black"/>
<path d="M19.1562 27.2812L19.8021 26.8438L29.9062 41.6667L29.2656 42.1042L19.1562 27.2812Z" fill="black"/>
<path d="M79.7603 33.1566L80.4061 32.7139L90.4686 47.4639L89.8228 47.9014L79.7603 33.1566Z" fill="black"/>
<path d="M152.073 24.5312L152.719 24.0938L167.5 45.7552L166.854 46.1927L152.073 24.5312Z" fill="black"/>
<path d="M172.213 83.4014L172.854 82.9639L188.963 106.568L188.318 107.006L172.213 83.4014Z" fill="black"/>
<path d="M139.766 34.9424L140.406 34.5049L156.516 58.1143L155.87 58.5518L139.766 34.9424Z" fill="black"/>
<path d="M12.8335 104.271L13.4689 103.817L33.5991 132.265L32.9637 132.718L12.8335 104.271Z" fill="black"/>
</svg>
