<svg width="188" height="139" viewBox="0 0 188 139" fill="none" xmlns="http://www.w3.org/2000/svg">
<mask id="mask0_5516_27226" style="mask-type:luminance" maskUnits="userSpaceOnUse" x="0" y="5" width="188" height="134">
<path d="M0.46875 5H188V138.333H0.46875V5Z" fill="white"/>
</mask>
<g mask="url(#mask0_5516_27226)">
<path d="M187.484 109.193C186.646 104.318 179.448 102.308 173.661 100.688C170.245 99.7347 167.01 98.8285 166.734 97.6982C166.651 97.3597 166.87 96.943 167.38 96.4587C169.588 94.391 172.547 93.7035 175.156 93.0941C177.76 92.4899 180.005 91.9691 180.901 90.2295C181.547 88.9743 181.385 87.2607 180.417 84.8701L181.068 84.042L179.87 84.4535C178.479 84.9378 176.88 85.1774 175.12 85.167C173.276 80.5837 171.062 75.6149 168.854 71.1357L177.646 64.5837L177.198 63.9847L168.521 70.4587C166.693 66.7868 164.969 63.6566 163.63 61.5628L164.099 61.2139L163.656 60.6149L163.219 60.9378C162.562 59.9639 162.021 59.2868 161.583 58.8962C162.161 58.0889 162.37 56.6253 162.068 55.1878C161.682 53.3024 160.542 51.9482 158.943 51.4795L157.875 51.167L158.536 52.0576C158.786 52.3962 159.078 53.0107 159.323 53.6774C156.948 51.0107 153.854 51.4847 151.297 52.2816L150.64 52.4899L151.172 52.9274C151.677 53.3441 152.719 53.7191 153.859 54.1149C152.661 54.2295 151.453 54.5993 150.396 55.0732L149.948 55.2764C149.932 55.2607 149.917 55.2399 149.901 55.2243C149.719 55.042 149.547 54.8805 149.39 54.7503C150.198 53.8076 150.609 52.1357 150.474 50.2503C150.297 47.6774 149.213 45.4587 147.557 44.2035L165.828 30.5785L165.385 29.9795L146.896 43.766C146.526 43.5576 146.13 43.391 145.713 43.2712L144.651 42.9639L145.312 43.8493C145.458 44.0472 145.609 44.3128 145.75 44.6253L144.239 45.7503C141.114 42.8076 136.562 41.8962 131.989 43.3285L131.333 43.5316L131.87 43.9691C132.739 44.6826 134.682 45.5628 136.932 46.5785C137.396 46.7868 137.859 46.9951 138.323 47.2087C135.64 46.818 132.745 47.141 130.453 48.1774L129.406 48.6514L130.526 48.8857C130.568 48.891 134.307 49.6826 137.703 50.6253L135.515 52.2555C135.114 52.4587 134.656 52.6982 134.073 53.0264L133.198 53.516L133.698 53.6201L132.682 54.3753C125.765 45.4482 117.687 41.4795 114.224 39.7764L114.198 39.766C119.297 35.417 116.781 27.0316 114.844 24.318L114.104 23.2868L114.167 24.5524C114.312 27.4066 113.708 32.7712 112.859 35.1566C113.156 30.016 112.677 23.7555 109.411 20.0628L123.849 9.29199L123.406 8.69303L108.896 19.5107C107.901 18.5472 106.708 17.8337 105.349 17.4118L104.114 17.0212L104.958 18.0055C105.479 18.6149 106.036 19.7035 106.604 21.2191L104.338 22.9118C100.203 17.6878 95.1717 14.641 90.8071 14.7243L89.6092 14.7503L90.6092 15.4118C93.4998 17.3128 98.4009 23.0107 100.62 25.6826L100.073 26.0889C94.453 21.2451 89.5936 19.1201 85.2394 19.6045L84.0676 19.7347L85.104 20.2972C87.5103 21.6149 92.7342 25.5472 96.6457 28.6462L94.0415 30.5889C92.0155 30.516 90.229 30.917 88.729 31.7868L87.7915 32.3232L88.8592 32.4743C89.3748 32.5524 90.0571 32.7087 90.8905 32.943L76.6092 43.5941L77.0571 44.1878L91.7759 33.2087C94.953 34.1878 99.0051 35.8232 101.333 36.8753C101.307 36.8753 101.281 36.8753 101.255 36.8753C97.4009 36.8753 94.4478 37.2607 91.354 41.4587L90.9061 42.0628L91.6561 42.0576C93.7915 42.0316 99.4009 41.1566 102.786 40.5993C100.812 41.7868 99.0519 43.568 98.7082 45.8285L98.578 46.7295L99.3019 46.1774C101.344 44.641 108.755 41.3441 111.5 41.4847C118.146 44.0576 124.422 49.2868 129.677 56.6149L116.583 66.3805H111.057C109.896 64.2764 105.208 60.2087 102.052 58.2868C102.203 56.5368 101.359 53.568 99.4061 51.1982C98.203 49.7399 96.1301 47.9691 93.0884 47.8389L91.578 47.7764L92.8853 48.5368C93.8332 49.0889 95.4582 50.943 96.8436 52.7555C92.3071 50.0576 83.4634 48.2868 80.0363 49.891L78.703 50.516L80.1717 50.5993C83.1769 50.7764 90.9686 52.9066 94.5571 55.0107C90.4321 54.4691 81.3748 54.7243 78.4738 56.9482L77.7759 57.4847L78.6457 57.6097C85.7655 58.6618 90.6978 59.318 95.3696 58.6982C92.979 59.818 88.7759 61.4274 86.9582 61.766L85.8696 61.9639L86.854 62.4587C91.0884 64.6045 97.9478 62.9014 101.015 60.042C103.151 61.1201 106.057 64.1826 107.698 66.3805H105.479V72.917H107.094V73.4587L99.7915 78.9118C91.8748 74.6097 89.7342 74.5368 88.8123 74.8597C88.1457 75.0993 87.7498 75.4587 87.6196 75.943C87.354 76.9743 88.4165 78.1878 89.5415 79.4743C90.4061 80.4535 91.3801 81.568 91.2342 82.1514C91.1926 82.3337 90.9998 82.4847 90.6717 82.6097C89.479 83.0524 84.7967 80.6097 82.7967 79.5524V71.2451H87.4634L78.078 58.417L78.354 58.0472H70.3696C69.2811 55.516 66.2186 53.1201 64.203 52.2972C65.4738 50.7243 65.979 47.4743 65.3488 44.4795C64.6821 41.292 62.8957 39.0628 60.4582 38.3649L59.3957 38.0576L60.0571 38.943C61.1405 40.3857 62.729 46.391 62.4582 48.7451C61.0207 44.7295 58.229 41.391 54.6717 39.4951C51.4217 37.7607 47.7915 37.3805 44.4425 38.4274L43.7863 38.6357L44.3175 39.0732C45.3332 39.9014 47.7238 40.9847 50.2498 42.1201C50.9217 42.4274 51.6092 42.7399 52.2967 43.0524C51.9165 42.9847 51.5259 42.9326 51.1353 42.891C48.1405 42.5837 45.0467 43.0212 42.6457 44.0993L41.5467 44.5941L42.729 44.8076C45.4373 45.2972 51.2863 46.4691 55.1978 47.6097C52.2967 47.5785 49.1769 48.4743 46.8905 49.7607L46.0363 50.2451L46.9946 50.4535C47.9946 50.667 52.7863 51.6305 57.6925 51.3024C55.755 52.2712 52.5988 53.6878 51.1665 54.3128L49.9582 54.8441L51.2707 55.0264C51.6196 55.0732 59.6873 56.1253 62.8644 53.3493C64.005 53.8545 66.0103 55.9222 67.1717 58.0472H47.4842C46.3228 55.0524 41.7446 47.443 36.953 41.8649L59.7603 24.8597L59.3175 24.2607L36.4634 41.3024C34.8019 39.4118 33.2707 37.9691 31.9165 37.0107C33.3592 35.4587 34.13 32.7816 33.9425 29.8649C33.7186 26.4587 32.2603 23.516 29.9165 21.7087L50.5623 6.31283L50.1196 5.71387L29.2655 21.2555C28.5519 20.792 27.7655 20.4222 26.9269 20.167L25.8905 19.8493L26.5103 20.7347C26.8019 21.1462 27.1457 21.7712 27.5207 22.5524L25.5728 24.0055C20.8332 18.068 13.604 15.0732 7.48421 16.5472L6.32275 16.8285L7.44255 17.2555C9.38005 18.0003 16.6248 22.766 21.1196 26.6045C15.8071 23.891 9.26025 24.516 6.2238 25.792L5.29671 26.1826L6.25505 26.4899C6.36963 26.5264 15.7394 29.5316 20.7342 32.0107C15.9894 31.0993 9.90609 32.3857 6.17692 34.641L5.39046 35.1149L6.2863 35.3232C7.604 35.6253 18.1769 37.0055 25.5623 36.318C23.0155 37.8128 17.6509 40.5993 14.6196 42.141L13.0832 42.9222L14.8071 42.8441C15.2759 42.8232 26.1248 42.2868 30.3592 38.2139C31.6353 39.0472 33.0675 40.5472 34.6353 42.6618L12.5155 59.1514L12.9582 59.7503L35.0728 43.2607C38.6509 48.292 41.7655 55.0368 42.5936 58.042H38.38L28.7238 71.2451H37.88V90.5993H0.635254V90.9743C0.635254 96.9743 5.354 97.641 9.52588 98.2295C13.255 98.7555 16.479 99.2087 16.6092 102.912C16.6717 104.657 16.0936 106.438 15.4842 108.328C14.5571 111.183 13.6144 114.131 14.8748 117.167L11.63 119.584L12.0728 120.183L15.1978 117.854C17.7811 122.719 26.1144 126.724 41.3228 130.433C41.3228 130.433 41.3332 130.438 41.3384 130.438L41.38 130.448C41.4894 130.474 41.5936 130.5 41.703 130.521L41.7394 130.563H41.8488C44.7707 131.266 47.6873 131.927 50.5363 132.537L45.9842 135.933L46.4269 136.532L51.5103 132.745C68.6978 136.354 82.4686 137.745 93.7603 137.745C116.208 137.745 128.859 132.261 139.01 127.854C144.651 125.407 149.521 123.292 154.864 122.662C157.667 122.328 160.88 121.938 164.172 121.427L156.948 126.813L157.39 127.412L165.75 121.177C177.276 119.287 184.073 116.688 186.526 113.256C187.411 112 187.734 110.636 187.484 109.193ZM29.9165 32.2503C29.0363 29.4274 27.729 26.8597 26.0311 24.5941L27.8436 23.2451C29.3488 26.5941 30.3644 30.443 29.9165 32.2503ZM166.937 72.568C169.213 77.2764 171.078 81.7295 172.125 84.9587C170.323 84.7191 168.349 84.2712 166.239 83.6357C165.911 82.8128 164.437 79.7764 162.432 75.9326L166.937 72.568ZM149.297 85.7243C150.036 86.1722 151.542 87.141 151.64 87.9066C151.651 88.0316 151.646 88.2347 151.385 88.4951C151.026 88.8545 149.833 89.0368 146.276 87.9795L149.297 85.7243ZM147.005 80.9795C146.672 81.0993 145.943 80.7712 145.354 80.5003C144.531 80.1201 143.755 79.766 143.172 80.0628C142.896 80.2035 142.708 80.4743 142.63 80.8597C142.396 81.9795 144.359 83.0316 146.844 84.3649C147.427 84.6774 148.026 84.9951 148.594 85.318L145.396 87.7035C143.807 87.1982 142.078 86.5628 140.417 85.9378V78.8753L142.172 77.5628C142.578 77.792 142.984 78.016 143.385 78.2347C144.812 79.016 147.203 80.318 147.187 80.7816C147.125 80.917 147.057 80.9587 147.005 80.9795ZM140.417 77.9482V76.542C140.729 76.7347 141.073 76.943 141.463 77.167L140.417 77.9482ZM161.776 62.9482C163.13 65.1357 164.864 68.3493 166.604 71.891L162.083 75.2607C160.5 72.2295 158.797 69.0889 157.229 66.3389L161.776 62.9482ZM159.906 77.818C160.838 79.6982 161.552 81.2347 161.922 82.1462C160.354 81.5472 158.703 80.8545 156.906 80.0576L159.906 77.818ZM36.7082 101.808C36.6561 101.943 36.5571 102 36.4894 102.037C36.4425 102.063 36.3853 102.084 36.3228 102.089L36.7082 101.808ZM159.917 60.3701C160.156 60.5941 160.604 61.1201 161.38 62.318L156.859 65.6878C155.75 63.7451 154.724 62.0316 153.802 60.568L154.646 60.7764C154.797 60.8128 158.224 61.6149 159.917 60.3701ZM154.792 68.1566C156.448 71.1097 158.161 74.3389 159.562 77.141L156.125 79.7035C153.51 78.5055 150.979 77.2607 148.739 76.1462C147.75 75.6566 146.812 75.193 145.927 74.7712L154.792 68.1566ZM152.844 58.6149C153.474 58.8024 154.745 59.167 156.354 59.1878C155.75 59.5003 155.073 59.8337 154.568 60.0732L153.734 60.4743C153.281 59.7607 152.854 59.1097 152.448 58.516L152.568 58.542C152.635 58.5524 152.729 58.5837 152.844 58.6149ZM146.87 49.4066C146.323 48.2295 145.62 47.1982 144.776 46.292L146.047 45.3389C146.432 46.4378 146.765 47.9326 146.87 49.4066ZM140.927 51.6357C139.542 51.4795 138.562 51.443 137.703 51.568L138.614 50.8857C139.573 51.1722 140.333 51.4222 140.927 51.6357ZM134.651 53.8441L134.76 53.8753C136.088 54.2868 138.922 55.1514 142.208 55.0785C140.901 55.6618 139.088 56.3962 137.76 56.9066L136.599 57.3545L137.818 57.6201C138.088 57.6774 144.375 59.0107 147.14 56.7035C148.432 57.6774 151.057 61.568 154.427 67.5107L145.177 74.4118C143.901 73.8024 142.765 73.2868 141.797 72.9014V66.391H139.635C137.89 62.2295 135.708 58.391 133.146 54.9743L134.651 53.8441ZM109.125 30.9274C107.937 28.2243 106.484 25.7399 104.797 23.5055L106.875 21.9535C107.859 24.7764 108.672 28.2868 109.125 30.9274ZM103.63 29.4118C102.693 28.4691 101.693 27.5212 100.656 26.5941L101.104 26.2607C102.026 27.3857 102.88 28.4482 103.63 29.4118ZM101.823 32.8805C99.5832 31.6878 97.3176 30.9378 95.1769 30.6826L97.2498 29.1357C98.9894 30.516 100.562 31.8076 101.823 32.8805ZM150.515 55.7816C150.547 55.7868 153.01 56.0785 155.229 56.6357C154.307 56.8805 153.375 57.3441 152.469 57.8545L152.13 58.0472C151.495 57.1253 150.917 56.3649 150.406 55.7712L150.515 55.7816ZM130.114 57.2243C132.099 60.0576 133.875 63.1357 135.411 66.3805H117.833L130.114 57.2243ZM107.099 83.1305C104.594 81.6253 102.432 80.3649 100.51 79.3024L107.099 74.391V83.1305Z" fill="black"/>
</g>
<mask id="mask1_5516_27226" style="mask-type:luminance" maskUnits="userSpaceOnUse" x="125" y="0" width="29" height="21">
<path d="M125.333 0.604492H153.333V21.0003H125.333V0.604492Z" fill="white"/>
</mask>
<g mask="url(#mask1_5516_27226)">
<path d="M126.297 19.7708L152.021 0.59375L152.464 1.1875L126.74 20.3698L126.297 19.7708Z" fill="black"/>
</g>
<path d="M154.047 26.1305L175.438 10.1826L175.88 10.7816L154.49 26.7295L154.047 26.1305Z" fill="black"/>
<path d="M13.9375 74.9163L35.0208 59.1924L35.4688 59.7861L14.3854 75.5101L13.9375 74.9163Z" fill="black"/>
<path d="M91.776 110.875C90.5989 110.307 89.5156 109.765 88.5624 109.276C87.0833 108.51 85.7604 107.958 84.5937 107.594C78.3697 105.62 76.6145 108.818 78.8072 111.906C79.2968 112.609 80.0052 113.312 80.9062 113.943C86.5052 117.864 92.677 119.713 92.2968 120.291C90.8281 122.5 77.9218 116.182 75.3072 118.422C72.6927 120.666 94.3645 130.583 105.177 126.823C109.469 125.328 100.51 122.156 102.38 120.666C104.245 119.172 128.245 127.922 129.818 122.786C130.547 120.416 123.318 121.38 115.177 119.526C107.177 117.713 98.0624 113.896 91.776 110.875ZM51.4218 132.338C48.3541 131.693 45.1822 130.974 41.8958 130.182C41.8906 130.182 41.8906 130.182 41.8854 130.177C41.6041 129.979 31.651 123.052 33.4947 120.291C35.3593 117.489 42.0833 122.531 44.6927 119.541C48.3489 115.364 35.177 109.463 39.4687 105.541C42.4947 102.781 55.151 110.396 59.8177 107.219C64.4843 104.047 57.7656 95.4634 55.8958 96.0207C54.0312 96.578 56.4531 99.5675 53.2864 100.312C51.4895 100.739 47.0104 98.4686 42.9427 96.6925L49.4374 91.8488C50.9635 92.7134 52.5989 93.3905 54.2135 93.7811C55.2604 92.9686 52.7708 91.6457 51.5468 90.2759L54.9166 87.7655C61.026 89.0884 72.8697 95.453 76.0572 93.7811C79.9791 91.729 71.3854 87.6144 74.9374 86.4061C78.4843 85.1977 90.2447 96.0102 93.6041 94.7082C96.9635 93.4061 90.802 89.3019 93.6041 88.9269C96.401 88.5519 103.125 93.7811 105.182 93.2186C107.234 92.6613 101.37 88.953 103.615 88.0155C105.854 87.0884 121 95.7394 123.099 92.2863C123.63 91.4217 121.974 92.5259 118.437 90.5623C117.703 90.1509 116.026 89.0936 113.812 87.7134C115.068 85.38 118.198 85.5467 120.422 86.8644C122.292 87.9738 129.682 92.2811 132.781 92.2602C133.396 93.1613 134.927 94.1248 136.682 94.6665C138.219 95.1352 139.927 95.2915 141.349 94.8123C144.354 93.7967 139.854 92.2707 142.453 90.4165C142.5 90.3852 142.542 90.354 142.588 90.3227C145.474 88.4321 162.854 95.5988 164.583 91.8905C166.318 88.1821 151.401 84.6405 152.307 83.1561C152.318 83.1405 152.328 83.1248 152.344 83.1144C153.677 81.8436 175.833 90.104 179.995 84.8019C184.182 94.8123 173.094 90.5884 167.13 96.1821C161.771 101.213 185.62 100.5 187.125 109.25C188.24 115.781 176.781 118.984 165.604 120.812C161.807 121.432 158.047 121.896 154.823 122.281C134.901 124.64 121.875 147.177 51.4218 132.338ZM174.443 107.656C176.885 104.354 166.385 106.791 162.083 104.677C157.792 102.562 153.229 98.8696 150.781 100.786C148.344 102.698 159.641 106.203 156.995 107.458C154.354 108.713 147.875 105.344 145.557 107.328C142.552 109.906 158.172 115.531 163.339 113.01C166.177 111.62 160.63 110.963 163.01 108.979C165.391 106.995 171.995 110.963 174.443 107.656ZM119.245 109.807C121.115 107.547 106.859 102.13 104.708 104.719C102.724 107.099 116.88 112.656 119.245 109.807Z" fill="#4A8BDF"/>
<path d="M174.807 85.3955L174.802 85.5413C174.099 85.5309 173.385 85.4788 172.651 85.4007V85.3955C171.515 81.7132 169.338 76.6455 167.073 71.9997L168.385 71.0205C170.562 75.4215 172.854 80.5101 174.807 85.3955Z" fill="#4A8BDF"/>
<path d="M162.083 104.677C166.38 106.792 176.885 104.355 174.442 107.657C172 110.964 165.39 107 163.01 108.98C160.635 110.969 166.182 111.625 163.338 113.016C158.177 115.537 142.557 109.907 145.562 107.334C147.88 105.349 154.354 108.719 157 107.464C159.64 106.209 148.343 102.703 150.786 100.792C153.229 98.8702 157.791 102.563 162.083 104.677Z" fill="#CADBEA"/>
<path d="M168.385 71.0264L167.073 72.0003C165.219 68.1982 163.312 64.6722 161.875 62.4066L163.13 61.4795C164.568 63.6774 166.427 67.068 168.385 71.0264Z" fill="#4A8BDF"/>
<path d="M165.917 83.8285L165.885 83.9222C164.771 83.5785 163.651 83.193 162.531 82.7764C162.37 82.1045 161.417 80.0003 160.042 77.2503L161.958 75.8232C164.062 79.8545 165.63 83.0732 165.917 83.8285Z" fill="#4A8BDF"/>
<path d="M163.13 61.4792L161.875 62.4062C161.005 61.026 160.307 60.1146 159.901 59.8958C158.458 61.3073 154.729 60.4115 154.729 60.4115C154.729 60.4115 157.479 59.0937 157.948 58.724C155.276 59.0937 153.125 58.2813 152.656 58.1823C154.385 57.2031 156.25 56.3646 157.875 57.1406C155.588 56.0052 150.557 55.4167 150.557 55.4167C152.828 54.3958 156.161 53.7656 158.083 55.6823C157.224 54.4687 152.568 53.5833 151.417 52.6406C155.083 51.4948 158.161 51.7187 160.239 55.6719C160.146 54.625 159.422 52.6198 158.844 51.8438C162.265 52.8542 162.375 57.8385 161.042 58.9479C161.531 59.25 162.25 60.1406 163.13 61.4792Z" fill="#4A8BDF"/>
<path d="M161.953 75.8229L160.042 77.25C158.635 74.4323 156.786 70.9375 154.906 67.6042L156.74 66.2344C158.573 69.4427 160.411 72.8542 161.953 75.8229Z" fill="#4A8BDF"/>
<path d="M156.745 66.2347L154.911 67.6097C151.802 62.1097 148.594 57.0524 147.099 56.2295C144.578 58.6982 137.89 57.2503 137.89 57.2503C137.89 57.2503 143.198 55.2087 144.021 54.5628C139.786 55.1462 135.875 53.8232 134.573 53.4326L135.713 52.5837C137.698 51.6462 138.948 51.7035 143.14 52.3128C142.495 51.7503 140.63 51.0889 138.536 50.4795L141.318 48.4014C142.463 48.8649 143.5 49.516 144.338 50.3545C143.89 49.7243 142.807 49.0264 141.443 48.3076L144.219 46.2347C145.552 47.5576 146.594 49.292 147.229 51.4222C147.437 49.2503 146.937 46.4743 146.219 44.7451L146.932 44.2139C150.63 46.5055 150.937 53.0472 148.833 54.7972C149.068 54.943 149.338 55.1774 149.64 55.4847C150.281 56.141 151.052 57.1357 151.906 58.3649C153.354 60.4743 155.047 63.266 156.745 66.2347Z" fill="#4A8BDF"/>
<path d="M156.172 80.1351L152.276 83.0361L149.271 85.2809C146.526 83.6559 142.755 82.0778 142.995 80.9372C143.406 78.958 146.786 82.583 147.526 80.9372C147.906 80.1038 144.885 78.6663 142.141 77.1247L145.214 74.833C148.276 76.307 152.094 78.2809 156.172 80.1351Z" fill="#CADBEA"/>
<path d="M172.656 85.4014C173.385 85.4795 174.099 85.5316 174.807 85.542C176.667 85.5785 178.417 85.3545 179.995 84.8076C175.833 90.1045 153.672 81.8493 152.344 83.1149L152.281 83.0368L156.177 80.1357C158.25 81.0732 160.385 81.9795 162.531 82.7764C163.656 83.193 164.776 83.5785 165.885 83.9222C168.203 84.6305 170.479 85.1566 172.656 85.4014Z" fill="#CADBEA"/>
<path d="M145.464 88.1144L142.427 90.3852L136.682 94.6665C134.922 94.1248 133.396 93.1613 132.776 92.2602C133.37 92.255 133.807 92.0988 134.016 91.729C135.333 89.4217 124.536 84.8904 126.766 82.6665C127.943 81.4894 134.109 83.979 140.047 86.2029C141.938 86.9061 143.797 87.5884 145.464 88.1144Z" fill="#CADBEA"/>
<path d="M145.214 74.8337L142.141 77.1253C141.396 76.7087 140.677 76.2868 140.047 75.8597C138.422 74.766 137.422 73.6826 138.297 72.7816C138.458 72.6201 138.698 72.542 139.026 72.542C140.193 72.542 142.38 73.4743 145.214 74.8337Z" fill="#CADBEA"/>
<path d="M144.219 46.2343L141.443 48.3072C138.234 46.6145 133.516 44.8385 132.109 43.6822C136.573 42.2916 141.156 43.177 144.219 46.2343Z" fill="#4A8BDF"/>
<path d="M142.427 90.3851L145.464 88.1143C148.485 89.0726 150.87 89.5309 151.646 88.7601C152.729 87.6768 151.271 86.4684 149.271 85.2757L152.281 83.0361L152.344 83.1143C152.328 83.1247 152.318 83.1403 152.307 83.1559C151.401 84.6403 166.318 88.182 164.583 91.8903C162.854 95.5986 145.469 88.432 142.589 90.3226C142.542 90.3538 142.5 90.3851 142.453 90.4163L142.427 90.3851Z" fill="#CADBEA"/>
<path d="M142.448 90.417C139.849 92.2712 144.349 93.7972 141.344 94.8128C139.927 95.292 138.213 95.141 136.682 94.667L142.427 90.3857L142.448 90.417Z" fill="#CADBEA"/>
<path d="M141.417 66.75V72.5417H108.948L116.713 66.75H141.417Z" fill="#C41830"/>
<path d="M141.318 48.4014L138.536 50.4796C134.922 49.4275 130.609 48.5212 130.609 48.5212C133.573 47.1879 137.922 46.9952 141.318 48.4014Z" fill="#4A8BDF"/>
<path d="M140.047 78.693V86.2035C134.109 83.9743 127.943 81.4899 126.766 82.667C124.536 84.891 135.333 89.4222 134.016 91.7295C133.807 92.0993 133.37 92.2555 132.776 92.2607C129.677 92.2816 122.286 87.9743 120.417 86.8649C118.193 85.5472 115.062 85.3857 113.812 87.7139C111.984 86.5628 109.786 85.1982 107.469 83.792V73.6462L108.948 72.542H139.026C138.698 72.542 138.458 72.6201 138.297 72.7816C137.422 73.6826 138.422 74.766 140.047 75.8597V78.693ZM134.031 80.9951V75.2087H128.245V80.9951H134.031ZM119.604 80.9951V75.2087H113.812V80.9951H119.604Z" fill="#CADBEA"/>
<path d="M139.385 66.75H136.005C134.354 63.1875 132.401 59.7969 130.203 56.6927L132.615 54.8906C135.099 58.1406 137.438 62.0469 139.385 66.75Z" fill="#4A8BDF"/>
<path d="M128.245 75.208H134.031V80.9945H128.245V75.208Z" fill="#FF9F43"/>
<path d="M132.62 54.8906L130.203 56.6927C125.125 49.5156 118.719 43.8594 111.589 41.1146C108.714 40.9219 101.156 44.3229 99.0887 45.8854C99.5575 42.7708 102.86 40.6615 105.422 39.776C105.422 39.776 94.745 41.651 91.6616 41.6823C95.0835 37.0417 98.1825 37.2188 102.995 37.2656C101.406 36.401 95.7189 34.0208 91.7137 32.8073L94.172 30.974C97.5679 31.1302 101.479 32.6719 105.172 35.4792C104.625 34.7135 101.198 31.8021 97.2606 28.6667L100.063 26.5729C102.787 28.9427 105.255 31.5885 107.281 33.8385C106.656 32.7135 104.146 29.3594 101.162 25.7552L104.276 23.4323C106.5 26.3021 108.448 29.8125 109.875 33.8333C109.745 31.5104 108.573 25.5 107.057 21.3542L108.87 20C112.188 23.4323 112.99 29.7344 112.38 36.6146C113.865 35.724 114.698 27.599 114.542 24.5312C116.521 27.2917 118.995 35.7865 113.511 39.8385C116.818 41.474 125.328 45.3281 132.62 54.8906Z" fill="#4A8BDF"/>
<path d="M91.776 110.875C98.0573 113.896 107.177 117.714 115.177 119.526C123.318 121.38 130.547 120.411 129.818 122.786C128.25 127.922 104.245 119.172 102.38 120.667C100.51 122.156 109.469 125.328 105.177 126.823C94.3646 130.583 72.6927 120.667 75.3073 118.422C77.9219 116.182 90.8229 122.5 92.2969 120.292C92.6771 119.714 86.5052 117.865 80.9062 113.943C80.0052 113.313 79.3021 112.609 78.8073 111.906L84.5937 107.594C85.7604 107.964 87.0781 108.51 88.5625 109.276C89.5208 109.766 90.5989 110.307 91.776 110.875Z" fill="#CADBEA"/>
<path d="M63.2137 81.5778C61.146 78.3747 56.1147 73.6403 55.4897 70.8643H65.396C65.396 70.8643 65.396 70.8643 65.4012 70.8643C70.7606 73.234 77.271 77.0413 82.422 79.7653C86.4637 81.9007 89.6616 83.3695 90.8022 82.9476C94.3491 81.6403 85.0158 76.5986 88.9377 75.2028C90.4793 74.6611 94.8647 76.6351 99.8231 79.3434C102.323 80.7184 104.969 82.2757 107.469 83.7861C109.792 85.1924 111.985 86.5622 113.813 87.708C116.021 89.0882 117.698 90.1507 118.432 90.557C121.969 92.5205 123.625 91.4215 123.099 92.2861C120.995 95.7288 105.849 87.083 103.61 88.0153C101.37 88.9476 107.229 92.6559 105.177 93.2132C103.12 93.7757 96.4012 88.5466 93.5991 88.9216C90.797 89.3018 96.9585 93.4007 93.5991 94.7028C90.2397 96.0049 78.4793 85.1924 74.9325 86.4007C71.3856 87.6091 79.9741 91.7236 76.0522 93.7809C72.8595 95.4476 61.0262 89.0882 54.9116 87.7601L59.5158 84.3278C61.1981 84.9111 62.6147 85.1403 63.547 84.6299C64.4689 84.1299 64.1356 83.0101 63.2137 81.5778Z" fill="#CADBEA"/>
<path d="M113.812 75.208H119.604V80.9945H113.812V75.208Z" fill="#FF9F43"/>
<path d="M104.709 104.724C106.865 102.131 121.115 107.553 119.245 109.813C116.88 112.657 102.724 107.099 104.709 104.724Z" fill="#CADBEA"/>
<path d="M116.714 66.75L108.948 72.5417H105.849V66.75H116.714Z" fill="#C41830"/>
<path d="M98.8387 54.8962C97.4897 52.8389 94.6043 49.0993 93.0783 48.2139C99.0679 48.4691 102.115 55.4951 101.662 58.4847C104.818 60.3545 109.906 64.7399 110.833 66.7503H108.432C106.87 64.4847 103.38 60.6826 100.948 59.5941C98.2189 62.3285 91.3908 64.3389 87.0314 62.1305C89.5002 61.6722 96.7241 58.7503 97.37 57.9639C92.0418 59.1357 86.5783 58.4066 78.7085 57.2399C82.0887 54.6514 94.3179 54.8441 96.2033 55.7555C93.7293 53.2191 83.521 50.4222 80.1981 50.2295C84.1825 48.3701 96.271 51.2555 98.8387 54.8962Z" fill="#4A8BDF"/>
<path d="M108.87 19.9997L107.057 21.3538C106.489 19.7965 105.875 18.5049 105.245 17.7705C106.693 18.2184 107.896 18.984 108.87 19.9997Z" fill="#4A8BDF"/>
<path d="M104.276 23.4327L101.162 25.7557C97.5939 21.4379 93.3439 16.7661 90.8179 15.1046C95.12 15.0109 100.151 18.0994 104.276 23.4327Z" fill="#4A8BDF"/>
<path d="M100.068 26.5678L97.2658 28.6616C92.797 25.1095 87.6616 21.2814 85.2866 19.9793C90.3179 19.4168 95.5366 22.6251 100.068 26.5678Z" fill="#4A8BDF"/>
<path d="M94.1717 30.9689L91.7134 32.8022C90.6144 32.4636 89.6457 32.2188 88.9165 32.1147C90.4113 31.2501 92.203 30.8803 94.1717 30.9689Z" fill="#4A8BDF"/>
<path d="M77.6248 58.4111L86.7342 70.8695H82.4269V79.7653C77.2811 77.0465 70.7655 73.2393 65.4009 70.8695H68.5103L77.6248 58.4111ZM80.5675 72.2601V68.0205H76.328V72.2601H80.5675Z" fill="#CADBEA"/>
<path d="M84.5992 107.594L78.8075 111.906C76.62 108.818 78.3752 105.62 84.5992 107.594Z" fill="#CADBEA"/>
<path d="M76.3281 68.0205H80.5677V72.2601H76.3281V68.0205Z" fill="#FF9F43"/>
<path d="M77.6248 58.4111L68.5103 70.8695H65.4009C61.8592 69.307 58.828 68.3643 57.0155 68.7653C55.6353 69.0726 55.255 69.833 55.4894 70.8695H29.4634L38.578 58.4111H77.6248Z" fill="#C41830"/>
<path d="M65.4009 70.8693H55.4895C55.2551 69.8329 55.6405 69.0725 57.0155 68.7652C58.828 68.3641 61.8592 69.3068 65.4009 70.8693Z" fill="#CADBEA"/>
<path d="M60.3647 38.7132C66.1147 40.3642 66.2658 50.1767 63.5366 52.4424L62.7866 52.9111C59.8335 55.8017 51.3283 54.6455 51.3283 54.6455C51.3283 54.6455 58.495 51.4997 59.4533 50.7444C53.995 51.4997 48.0418 50.2861 47.0783 50.083C50.62 48.0882 55.7814 47.208 59.0939 48.7913C57.0262 46.9997 42.8022 44.4372 42.8022 44.4372C47.4325 42.3538 54.9429 42.6611 58.8647 46.583C57.1095 44.109 46.9012 40.6924 44.5575 38.7757C52.0366 36.4372 59.995 41.5726 62.4272 49.8278C63.8335 48.458 61.5418 40.2965 60.3647 38.7132Z" fill="#4A8BDF"/>
<path d="M62.7812 52.917L63.5312 52.4482C65.5573 53.016 69.1198 55.766 70.1302 58.417H67.7812C66.625 55.9795 64.1198 53.3232 62.7812 52.917Z" fill="#4A8BDF"/>
<path d="M63.2137 81.5781C64.1356 83.0052 64.4689 84.125 63.5522 84.6302C62.62 85.1406 61.2085 84.9167 59.521 84.3281L63.2137 81.5781Z" fill="#CADBEA"/>
<path d="M63.2137 81.5785L59.521 84.3285C54.4533 82.568 46.9845 77.5785 43.1981 79.9639C39.5366 82.2764 42.8804 87.5472 48.0002 90.9691H38.2554V70.8701H55.4897C56.1147 73.641 61.146 78.3805 63.2137 81.5785Z" fill="#CADBEA"/>
<path d="M55.8958 96.021C57.7656 95.4637 64.4844 104.047 59.8177 107.219C55.151 110.396 42.4948 102.781 39.4688 105.542C35.1771 109.464 48.349 115.365 44.6927 119.542C42.0833 122.531 35.3594 117.49 33.4948 120.292C31.651 123.052 41.6042 129.985 41.8854 130.177C41.7344 130.146 41.5781 130.11 41.4271 130.073C32.5156 127.844 20.651 119.839 23.0417 115.615C25.4635 111.323 32.9323 116.365 33.6823 113.75C34.0365 112.521 30.9167 110.302 27.9792 107.849L35.4219 102.302C35.9219 102.49 36.3438 102.542 36.6719 102.365C37.1354 102.104 37.1979 101.656 37.0469 101.089L42.9479 96.6877C47.0104 98.4637 51.4948 100.735 53.2865 100.307C56.4531 99.5679 54.0313 96.5783 55.8958 96.021Z" fill="#CADBEA"/>
<path d="M48.0002 90.9692C42.8804 87.5473 39.5367 82.2713 43.1981 79.964C46.9846 77.5838 54.4533 82.5681 59.521 84.3286L54.9169 87.7608C53.5158 87.4588 52.4117 87.4171 51.7867 87.8025C50.5158 88.5786 50.7971 89.4379 51.5419 90.2713L49.4325 91.8494C48.9429 91.5786 48.4638 91.2765 48.0002 90.9692Z" fill="#CADBEA"/>
<path d="M54.9164 87.7653L51.5466 90.2757C50.7966 89.4372 50.5206 88.583 51.7914 87.807C52.4112 87.4215 53.5153 87.4632 54.9164 87.7653Z" fill="#4A8BDF"/>
<path d="M51.5415 90.2764C52.7707 91.6514 55.255 92.9691 54.2134 93.7816C52.5988 93.391 50.9582 92.7139 49.4321 91.8493L51.5415 90.2764Z" fill="#CADBEA"/>
<mask id="mask2_5516_27226" style="mask-type:luminance" maskUnits="userSpaceOnUse" x="0" y="90" width="51" height="29">
<path d="M0.46875 90.333H50.6667V118.333H0.46875V90.333Z" fill="white"/>
</mask>
<g mask="url(#mask2_5516_27226)">
<path d="M49.4377 91.849L42.9429 96.6927C39.8231 95.3281 36.9533 94.25 35.7345 94.901C33.5731 96.0521 36.521 99.1979 37.047 101.094L35.4272 102.302C32.7293 101.271 27.7554 96.1354 23.9793 99.7552C21.6043 102.031 24.6772 105.089 27.9845 107.854L15.3283 117.286C13.0418 112.333 17.146 107.484 16.9793 102.891C16.6772 94.3646 1.00537 101.703 1.00537 90.9688H48.0002C48.4637 91.276 48.9429 91.5781 49.4377 91.849Z" fill="#FF9F43"/>
</g>
<path d="M47.2292 58.4115H43.0781C42.4063 55.4115 38.9583 47.974 35.1562 42.7292L36.4062 41.7969C41.3385 47.4531 46.2188 55.5625 47.2292 58.4115Z" fill="#4A8BDF"/>
<path d="M42.9427 96.693L37.0417 101.094C36.5209 99.1982 33.573 96.0472 35.7344 94.9013C36.9532 94.2503 39.823 95.3336 42.9427 96.693Z" fill="#CADBEA"/>
<path d="M25.5103 24.5209C27.3853 26.9375 28.8905 29.8646 29.8228 33.25C31.3228 31.6667 29.578 26.0886 27.9894 22.6719L29.2863 21.7032C34.6717 25.3855 34.5936 34.1459 31.328 37.0573C32.9165 38.1042 34.6665 39.7969 36.4113 41.8021L35.1613 42.7344C33.5467 40.5053 31.8696 38.6667 30.3071 37.7396C26.2967 41.948 14.7915 42.4688 14.7915 42.4688C14.7915 42.4688 25.8175 36.8594 27.1196 35.7553C19.703 36.8594 7.67692 35.2553 6.36963 34.9532C11.1821 32.0469 19.0988 31.0469 23.6144 33.349C20.8071 30.7448 6.36963 26.1355 6.36963 26.1355C10.1821 24.5365 19.3696 24.0313 24.6978 29.7448C22.3123 26.1355 10.1821 17.9167 7.57275 16.9115C13.5519 15.4688 20.7238 18.3282 25.5103 24.5209Z" fill="#4A8BDF"/>
<path d="M35.4218 102.302L27.9791 107.854C24.677 105.088 21.5989 102.026 23.9739 99.7549C27.7499 96.1351 32.7239 101.271 35.4218 102.302Z" fill="#CADBEA"/>
<path d="M27.9792 107.854C30.9167 110.302 34.0365 112.526 33.6823 113.756C32.9375 116.37 25.4688 111.328 23.0417 115.62C20.6563 119.839 32.5156 127.849 41.4271 130.073C23.8073 125.782 17.276 121.495 15.3281 117.292L27.9792 107.854Z" fill="#FF9F43"/>
<path d="M29.2866 21.7028L27.9897 22.6715C27.5627 21.7601 27.1564 21.0049 26.8179 20.5205C27.745 20.8018 28.5627 21.208 29.2866 21.7028Z" fill="#4A8BDF"/>
<path d="M135.667 66.9114C134.021 63.3437 132.078 59.9791 129.896 56.9062C124.599 49.4219 118.24 44.0937 111.505 41.4844C108.766 41.3489 101.349 44.6406 99.3125 46.1823L98.5833 46.7344L98.7188 45.8333C99.0573 43.5677 100.823 41.7916 102.792 40.6041C99.4115 41.1666 93.8021 42.0364 91.6615 42.0573L90.9167 42.0677L91.3594 41.4635C94.4531 37.2708 97.4115 36.875 101.266 36.875C101.292 36.875 101.312 36.875 101.339 36.875C98.974 35.8073 94.8125 34.1302 91.6094 33.1562C90.4479 32.8021 89.526 32.5729 88.8698 32.4791L87.8021 32.3281L88.7396 31.7864C90.276 30.901 92.1094 30.5 94.1979 30.5937C96.625 30.7083 99.2448 31.5 101.833 32.8802C100.521 31.7604 98.8646 30.4062 97.0365 28.9531C93.0937 25.8125 87.6042 21.6666 85.1146 20.3073L84.0781 19.7448L85.25 19.6094C89.6667 19.1198 94.5938 21.3021 100.318 26.2916C101.479 27.3073 102.594 28.3698 103.635 29.4114C102.828 28.3698 101.901 27.2135 100.885 25.9896C98.8021 23.4687 93.6354 17.3906 90.625 15.4114L89.6146 14.7552L90.8125 14.7291C95.25 14.6458 100.391 17.8021 104.573 23.2031C106.359 25.5104 107.885 28.1041 109.125 30.9271C108.646 28.1406 107.766 24.3698 106.708 21.4791C106.099 19.8229 105.516 18.6562 104.964 18.0052L104.12 17.026L105.354 17.4114C106.823 17.875 108.094 18.6562 109.135 19.7448C112.661 23.3958 113.167 29.8698 112.859 35.1614C113.708 32.776 114.318 27.4114 114.172 24.5573L114.104 23.2916L114.844 24.3229C116.792 27.0312 119.302 35.4166 114.203 39.7708L114.224 39.7812C117.734 41.5 125.948 45.5312 132.917 54.6719C135.63 58.2291 137.922 62.2448 139.729 66.6198L139.042 66.9062C137.26 62.5937 135 58.6302 132.323 55.125C125.458 46.125 117.651 42.2916 113.901 40.4531L112.807 39.9062L113.297 39.5469C117.969 36.0937 116.604 29.2864 114.927 25.9166C114.844 29.4531 114.094 36.0364 112.578 36.9427L111.958 37.3177L112.021 36.5885C112.49 31.2396 112.286 24.0625 108.609 20.2656C107.922 19.5469 107.12 18.9739 106.224 18.5521C106.62 19.2396 107.016 20.1406 107.411 21.2291C108.953 25.4375 110.125 31.4948 110.255 33.8125L110.401 36.3958L109.531 33.9583C108.182 30.1614 106.266 26.6041 103.99 23.6666C100.339 18.9375 95.9531 15.9791 92.0365 15.5364C95.1563 18.0416 99.5677 23.2344 101.458 25.5208C104.292 28.9375 106.938 32.4427 107.62 33.6614L109.224 36.5469L107.016 34.0937C105.135 32 102.615 29.2812 99.8281 26.8541C94.7969 22.4687 90.4323 20.3125 86.5417 20.2864C89.3125 22.0312 93.8594 25.4791 97.5 28.375C101.026 31.1771 104.859 34.3906 105.479 35.2604L106.922 37.2708L104.953 35.776C101.401 33.0729 97.5677 31.5 94.1615 31.3437C92.651 31.2708 91.2865 31.4791 90.0833 31.9635C90.5937 32.0833 91.1771 32.2448 91.8333 32.4479C95.9479 33.6979 101.651 36.1041 103.177 36.9375L104.495 37.651L102.578 37.6302C98.1979 37.5885 95.4635 37.5521 92.4531 41.276C96.1979 41.0156 105.266 39.4323 105.365 39.4114L105.552 40.1302C103.292 40.9114 100.562 42.625 99.6927 45.0364C102.536 43.2969 108.922 40.5625 111.62 40.75L111.729 40.7708C118.62 43.4271 125.115 48.8541 130.516 56.4844C132.719 59.5885 134.682 62.9948 136.349 66.6042L135.667 66.9114Z" fill="black"/>
<path d="M41.672 130.485C41.6304 130.459 41.5262 130.381 41.3752 130.277L41.3387 130.433C34.37 128.693 24.7137 123.068 22.7189 118.417C22.2293 117.287 22.2293 116.287 22.7137 115.433C24.2241 112.766 27.4064 113.37 29.9637 113.855C31.9116 114.224 33.1095 114.396 33.3231 113.646C33.547 112.865 31.271 111.021 29.2658 109.386C28.7658 108.98 28.2502 108.558 27.745 108.131C25.1981 106.006 22.8335 103.75 22.7606 101.657C22.7345 100.844 23.0575 100.11 23.7137 99.4796C26.7554 96.563 30.495 98.9171 33.2189 100.636C34.0887 101.188 34.9116 101.704 35.5522 101.948C35.9845 102.115 36.2918 102.141 36.4897 102.032C36.62 101.959 36.8595 101.829 36.6825 101.188C36.5366 100.657 36.172 99.9953 35.7866 99.2921C35.0731 98.0057 34.3387 96.6724 34.6512 95.6099C34.7814 95.1671 35.0887 94.813 35.5575 94.563C36.8491 93.8755 39.4012 94.7349 43.0887 96.3442C43.7762 96.6463 44.4793 96.964 45.1825 97.2765C48.4481 98.7453 51.8283 100.266 53.1981 99.9432C54.7085 99.5838 54.7085 98.7244 54.7085 97.7296C54.7085 96.9484 54.7085 95.9796 55.7814 95.6567C57.1564 95.2453 59.6668 97.9744 60.9116 100.594C62.3543 103.625 62.0314 106.157 60.021 107.521C57.422 109.292 52.7606 107.974 48.2502 106.698C44.5158 105.641 40.995 104.646 39.7189 105.808C39.2345 106.245 38.9897 106.714 38.9689 107.245C38.9064 108.714 40.5835 110.532 42.2033 112.277C44.5575 114.829 46.995 117.464 44.9741 119.777C43.4845 121.48 40.8647 120.849 38.5522 120.297C36.5002 119.808 34.5679 119.344 33.8022 120.49C32.6043 122.287 38.1043 127.084 42.0991 129.865L41.672 130.485ZM26.6304 114.178C25.2762 114.178 24.0731 114.547 23.3647 115.803C23.0002 116.443 23.0158 117.224 23.4064 118.125C25.0106 121.86 32.9637 127.125 40.0679 129.303C39.0939 128.568 37.8283 127.558 36.6356 126.459C33.4168 123.511 32.2866 121.422 33.1877 120.084C34.2397 118.506 36.521 119.047 38.7293 119.579C40.9377 120.11 43.2241 120.662 44.4168 119.297C46.0002 117.485 43.896 115.209 41.6616 112.797C39.8595 110.849 38.1564 109.006 38.2345 107.219C38.2658 106.495 38.5939 105.839 39.2241 105.266C40.8075 103.823 44.3543 104.823 48.4637 105.985C52.6043 107.162 57.297 108.49 59.6095 106.912C61.9012 105.349 60.995 102.485 60.2502 100.917C58.9637 98.2088 56.6929 96.1671 56.0054 96.3755C55.5106 96.5265 55.4637 96.8703 55.4637 97.7401C55.4637 98.7713 55.4585 100.183 53.3752 100.672C51.7658 101.058 48.422 99.5526 44.8804 97.9588C44.1877 97.6463 43.4845 97.3338 42.797 97.0317C40.9689 96.2349 37.1512 94.563 35.9168 95.2244C35.6252 95.3807 35.4481 95.5786 35.3752 95.8286C35.146 96.589 35.8387 97.839 36.4429 98.938C36.8491 99.6776 37.2345 100.375 37.4012 100.99C37.6825 101.995 37.2554 102.469 36.8491 102.688C36.4481 102.907 35.9429 102.891 35.2918 102.646C34.5783 102.375 33.771 101.865 32.8283 101.271C30.1668 99.5942 26.8543 97.5057 24.2345 100.021C23.7293 100.506 23.4897 101.037 23.5106 101.636C23.5679 103.443 25.9272 105.641 28.2241 107.563C28.7345 107.985 29.2397 108.407 29.745 108.808C32.4481 111.011 34.4012 112.599 34.047 113.855C33.6252 115.313 31.7866 114.959 29.8335 114.584C28.771 114.391 27.6564 114.178 26.6304 114.178Z" fill="black"/>
<path d="M92.9637 95.182C90.9532 95.182 87.6459 93.1038 84.1616 90.9163C80.6512 88.708 76.6616 86.2028 75.0574 86.7549C74.8074 86.8382 74.5001 86.984 74.4376 87.1976C74.3178 87.6455 75.0626 88.5205 75.7189 89.3018C76.672 90.4216 77.6616 91.583 77.4428 92.7028C77.3387 93.2653 76.9272 93.7393 76.2241 94.1091C74.0835 95.2288 68.8595 93.1976 63.3334 91.0413C60.1251 89.7913 57.1043 88.6143 54.8334 88.1247C53.4272 87.8226 52.4689 87.8174 51.9793 88.1247C51.5574 88.3799 51.3282 88.6455 51.2866 88.9163C51.2397 89.208 51.4168 89.5778 51.8178 90.0309C52.1876 90.4424 52.6772 90.8538 53.1564 91.2497C54.0626 92.0101 54.8491 92.6663 54.8387 93.3486C54.8334 93.5413 54.7605 93.8226 54.4428 94.0726L54.3022 94.1768L54.1251 94.1403C52.5418 93.7549 50.8543 93.0778 49.2501 92.1716C48.7814 91.9111 48.2918 91.6091 47.7918 91.2757C43.8595 88.6455 41.2449 85.1559 41.2762 82.583C41.2918 81.359 41.8907 80.3434 42.9949 79.6455C45.922 77.8018 50.6043 79.958 55.1303 82.0413C56.7449 82.7913 58.2762 83.4997 59.6355 83.9684C61.448 84.5986 62.6303 84.7028 63.3647 84.2965C63.547 84.1976 63.6512 84.0726 63.6928 83.9111C63.8022 83.484 63.5314 82.7601 62.8959 81.7757C62.1251 80.5882 60.9584 79.1976 59.7137 77.7236C57.6616 75.2861 55.5314 72.7601 55.1251 70.9424L55.8491 70.7809C56.2189 72.4163 58.2814 74.8695 60.2866 77.2445C61.5418 78.734 62.7241 80.1403 63.5157 81.3643C64.297 82.5726 64.5782 83.432 64.4168 84.0882C64.323 84.458 64.0887 84.7445 63.7241 84.9476C62.7918 85.4632 61.4168 85.3747 59.3959 84.6715C58.0001 84.1872 56.4532 83.4736 54.8178 82.7184C50.6772 80.8122 45.9793 78.6455 43.3959 80.2705C42.5001 80.8382 42.0366 81.6195 42.0262 82.5882C41.9897 84.9163 44.4793 88.1559 48.2032 90.6507C48.6876 90.9736 49.1616 91.2653 49.6199 91.5153C51.0887 92.3486 52.6303 92.9841 54.0834 93.3591C54.0887 93.3434 54.0887 93.333 54.0887 93.333C54.0991 92.9997 53.2762 92.3122 52.6772 91.8122C52.1772 91.3955 51.6668 90.9684 51.2657 90.5153C50.7032 89.8903 50.4741 89.3278 50.5522 88.8018C50.6251 88.3018 50.9741 87.859 51.5939 87.4788C52.2657 87.0622 53.3491 87.0361 54.9949 87.3955C57.3178 87.9007 60.3751 89.0882 63.6095 90.3434C68.5001 92.2445 74.047 94.4059 75.8907 93.4424C76.3803 93.1872 76.6564 92.8955 76.7241 92.557C76.8751 91.7861 75.9637 90.7184 75.1616 89.7809C74.271 88.7288 73.5001 87.8226 73.7293 86.9945C73.8439 86.5726 74.2137 86.2497 74.8178 86.0413C76.7657 85.3799 80.5574 87.7601 84.5626 90.2809C88.0366 92.458 91.9689 94.932 93.4741 94.3486C93.8959 94.1872 94.1459 93.9788 94.2293 93.7184C94.4272 93.1195 93.8387 92.1924 93.3178 91.3695C92.7657 90.4893 92.2814 89.7341 92.5626 89.1299C92.7137 88.8122 93.047 88.6143 93.5574 88.5466C95.1199 88.3434 97.6199 89.6455 100.047 90.9059C102.099 91.9788 104.234 93.0882 105.089 92.8538C105.229 92.8122 105.255 92.7757 105.255 92.7757C105.349 92.5466 104.557 91.5986 104.172 91.1455C103.344 90.1507 102.563 89.2184 102.755 88.4216C102.839 88.083 103.078 87.833 103.474 87.6663C104.448 87.2601 106.776 88.1299 110.818 89.6976C115.266 91.4215 121.307 93.7653 122.672 92.2341C122.646 92.2288 122.615 92.2288 122.589 92.2288C121.87 92.1715 120.365 92.0466 118.25 90.8747C117.62 90.5205 116.339 89.7236 114.563 88.6143L113.615 88.0153C112.078 87.057 109.755 85.6038 107.276 84.0986C104.313 82.307 101.813 80.8538 99.6407 79.6663C92.4272 75.7236 89.9064 75.2549 89.0626 75.5518C88.6459 75.6976 88.4012 75.8903 88.3439 76.1195C88.1772 76.7705 89.198 77.932 90.1043 78.9684C91.1824 80.1976 92.2032 81.359 91.9584 82.3226C91.8491 82.7549 91.5001 83.0778 90.9324 83.2913C89.8178 83.7028 87.3803 82.8018 82.2501 80.0882C80.7293 79.2861 79.1043 78.3955 77.3907 77.458C73.2709 75.1976 69.0105 72.8643 65.2449 71.2028L65.547 70.5205C69.3387 72.1976 73.6147 74.5413 77.7449 76.807C79.4585 77.7445 81.0782 78.6299 82.5991 79.432C84.4689 80.4268 89.4376 83.057 90.672 82.5986C91.0001 82.4788 91.1928 82.3226 91.2345 82.1403C91.3855 81.557 90.4064 80.4424 89.5418 79.458C88.4168 78.1768 87.3543 76.9632 87.6199 75.932C87.7501 75.4476 88.1459 75.0882 88.8126 74.8486C89.7397 74.5205 91.9116 74.5934 100 79.0101C102.182 80.208 104.688 81.6611 107.667 83.458C110.146 84.9684 112.474 86.4215 114.011 87.3851L114.964 87.9788C116.662 89.0413 118 89.8851 118.615 90.2236C120.583 91.3174 121.927 91.4268 122.651 91.4841C123.089 91.5153 123.375 91.5413 123.516 91.8226C123.651 92.0882 123.484 92.3591 123.417 92.4684C122.089 94.6559 117.021 92.9007 110.542 90.3851C107.708 89.2861 104.5 88.0413 103.755 88.3486C103.505 88.4528 103.479 88.557 103.474 88.5934C103.37 89.0257 104.162 89.9684 104.734 90.6611C105.531 91.609 106.156 92.359 105.958 92.9945C105.901 93.1872 105.729 93.4476 105.281 93.5674C104.141 93.8799 102.083 92.8018 99.698 91.5622C97.4845 90.4111 94.9741 89.1038 93.6564 89.2809C93.3855 89.3174 93.2605 89.3903 93.2345 89.4424C93.1303 89.6716 93.6199 90.4476 93.948 90.9632C94.5574 91.9268 95.2449 93.0101 94.9376 93.9476C94.7814 94.4268 94.3751 94.7966 93.7397 95.0413C93.5105 95.1403 93.2501 95.182 92.9637 95.182Z" fill="black"/>
<path d="M65.2448 71.2085C61.3021 69.469 58.6407 68.7867 57.0938 69.1252C56.5209 69.2554 56.1355 69.469 55.9428 69.7658C55.7813 70.021 55.7553 70.3544 55.849 70.7867L55.125 70.9533C54.9844 70.3283 55.0469 69.7919 55.3178 69.37C55.6146 68.9012 56.1563 68.5731 56.9323 68.4012C58.6615 68.021 61.3959 68.6929 65.5469 70.5262L65.2448 71.2085Z" fill="black"/>
<path d="M99.5263 128.016C89.6044 128.016 76.5836 122.422 74.9274 119.536C74.4847 118.766 74.8805 118.302 75.0732 118.135C76.568 116.854 80.5107 117.938 84.6826 119.078C87.4794 119.844 90.9117 120.786 91.8336 120.234C91.4534 119.984 90.5055 119.542 89.5784 119.115C87.3284 118.078 83.9274 116.505 80.7034 114.245C79.8076 113.62 79.0524 112.885 78.5159 112.12C77.4117 110.568 77.2294 108.984 78.0367 107.891C79.0784 106.458 81.5159 106.224 84.719 107.24C85.9638 107.63 87.318 108.208 88.7451 108.948C89.7815 109.484 90.8649 110.016 91.9534 110.542C95.8961 112.438 106.063 117.078 115.271 119.167C118.516 119.901 121.63 120.188 124.136 120.427C127.328 120.719 129.443 120.917 130.068 121.849C130.271 122.151 130.308 122.5 130.188 122.891C129.104 126.453 119.63 124.281 111.271 122.365C107.479 121.5 103.177 120.51 102.625 120.953C102.505 121.047 102.505 121.115 102.505 121.141C102.511 121.568 103.589 122.406 104.38 123.016C105.672 124.016 106.891 124.958 106.729 125.938C106.646 126.469 106.183 126.87 105.318 127.172C103.61 127.76 101.636 128.016 99.5263 128.016ZM77.1669 118.297C76.4482 118.297 75.8909 118.417 75.5524 118.703C75.4899 118.755 75.3857 118.844 75.568 119.161C76.3597 120.542 81.1044 123.245 87.3909 125.203C94.5263 127.427 100.964 127.891 105.058 126.469C105.615 126.271 105.943 126.042 105.985 125.818C106.073 125.276 104.823 124.307 103.912 123.604C102.75 122.708 101.755 121.938 101.745 121.146C101.745 120.943 101.813 120.641 102.146 120.375C102.943 119.74 105.875 120.37 111.422 121.641C118.25 123.208 128.578 125.573 129.464 122.672C129.532 122.448 129.485 122.333 129.433 122.26C129.005 121.62 126.709 121.406 124.052 121.161C121.526 120.927 118.386 120.641 115.094 119.885C105.813 117.781 95.5836 113.115 91.6149 111.203C90.5211 110.682 89.4326 110.141 88.3909 109.599C87.0003 108.885 85.6826 108.323 84.4794 107.943C81.6409 107.047 79.4586 107.188 78.6201 108.323C78.0263 109.135 78.2138 110.427 79.1097 111.688C79.594 112.38 80.2919 113.052 81.1149 113.63C84.2867 115.844 87.6513 117.406 89.8805 118.432C91.943 119.385 92.5472 119.682 92.6617 120.094C92.6982 120.229 92.6774 120.37 92.5992 120.484C91.7815 121.714 88.9847 121.021 84.4742 119.786C81.8701 119.083 79.0107 118.297 77.1669 118.297Z" fill="black"/>
<path d="M116.698 110.974C115.968 110.974 115.208 110.886 114.531 110.766C110.458 110.068 104.948 107.641 104.229 105.683C104.067 105.245 104.13 104.828 104.416 104.485C106.354 102.156 115.901 105.386 118.75 107.75C120.13 108.901 119.833 109.683 119.531 110.047C118.948 110.745 117.859 110.974 116.698 110.974ZM106.922 104.412C106.005 104.412 105.307 104.578 104.995 104.959C104.88 105.099 104.859 105.235 104.932 105.427C105.479 106.922 110.573 109.334 114.661 110.031C116.838 110.406 118.406 110.24 118.963 109.568C119.255 109.219 118.661 108.636 118.276 108.323C115.927 106.375 110.088 104.412 106.922 104.412Z" fill="black"/>
<path d="M139.422 95.4792C138.526 95.4792 137.557 95.3281 136.573 95.026C134.854 94.4948 133.318 93.5677 132.589 92.6302C129.63 92.5052 123.604 89.1823 120.229 87.1875C118.859 86.375 117.229 86.0833 115.99 86.4271C115.161 86.6563 114.536 87.1458 114.141 87.8854L113.484 87.5365C113.974 86.625 114.776 85.9896 115.792 85.7083C117.219 85.3125 119.068 85.6354 120.609 86.5469C123.328 88.151 129.948 91.8854 132.755 91.8854C132.76 91.8854 132.766 91.8854 132.771 91.8854C133.25 91.8854 133.557 91.7656 133.688 91.5417C134.161 90.7188 131.911 89.0313 130.104 87.6719C128.083 86.1563 126.177 84.7187 126.089 83.4479C126.063 83.0521 126.198 82.7031 126.5 82.401C127.688 81.2188 131.885 82.7188 138.63 85.2708L140.177 85.8542C141.969 86.526 143.87 87.224 145.573 87.7656C149.677 89.0625 150.995 88.8802 151.38 88.5C151.641 88.2396 151.651 88.0365 151.635 87.9115C151.526 87.0573 149.682 85.9635 149.078 85.6042C148.375 85.1875 147.599 84.7708 146.844 84.3646C144.359 83.0365 142.396 81.9792 142.63 80.8594C142.708 80.474 142.891 80.2031 143.172 80.0625C143.755 79.7656 144.531 80.125 145.354 80.5C145.943 80.7708 146.672 81.1042 147.005 80.9792C147.057 80.9583 147.125 80.9167 147.188 80.7812C147.208 80.3177 144.818 79.0156 143.385 78.2344C142.917 77.974 142.432 77.7135 141.964 77.4479C141.073 76.9531 140.396 76.5417 139.839 76.1667C138.396 75.1927 137.688 74.3906 137.609 73.6406C137.568 73.2292 137.714 72.8542 138.036 72.5208C138.266 72.2865 138.589 72.1719 139.036 72.1719C140.276 72.1719 142.474 73.1042 145.38 74.5C146.422 75 147.547 75.5573 148.74 76.1458C151.036 77.2865 153.641 78.5729 156.333 79.7917C158.641 80.8385 160.714 81.7031 162.667 82.4271C163.797 82.849 164.917 83.2344 166 83.5677C168.422 84.3073 170.677 84.8021 172.698 85.0365C173.484 85.1198 174.177 85.1615 174.813 85.1667C176.703 85.2083 178.406 84.9687 179.875 84.4531L181.073 84.0417L180.292 85.0365C177.375 88.7552 166.823 86.3177 159.12 84.5365C156.448 83.9219 153.432 83.224 152.698 83.3646C153.078 83.8229 155.109 84.6979 156.76 85.4115C160.255 86.9167 164.219 88.625 164.969 90.6094C165.156 91.1042 165.141 91.5833 164.927 92.0521C163.828 94.401 158.172 93.1198 152.188 91.7604C148.13 90.8385 143.932 89.8906 142.792 90.6406L142.661 90.7292C141.641 91.4583 141.953 92.0052 142.385 92.7604C142.656 93.2292 142.938 93.7135 142.74 94.2344C142.589 94.6302 142.188 94.9323 141.474 95.1719C140.854 95.375 140.161 95.4792 139.422 95.4792ZM133.51 92.5365C134.234 93.224 135.464 93.901 136.792 94.3125C138.443 94.8177 140.016 94.8698 141.229 94.4635C141.849 94.2552 142.005 94.0573 142.042 93.9635C142.115 93.7813 141.927 93.4635 141.734 93.125C141.307 92.375 140.656 91.2396 142.234 90.1094L142.38 90.0156C143.786 89.0885 147.755 89.9896 152.349 91.0312C157.276 92.151 163.406 93.5365 164.25 91.7344C164.38 91.4531 164.385 91.1719 164.276 90.8698C163.63 89.1823 159.49 87.3958 156.464 86.0938C153.641 84.875 152.156 84.2031 151.932 83.5C151.87 83.3125 151.891 83.125 151.99 82.9635L152.01 82.9323C152.036 82.9063 152.052 82.875 152.078 82.8594C152.635 82.3333 154.292 82.6615 159.286 83.8125C165.359 85.2135 174.094 87.2344 178.115 85.6719C177.078 85.8594 175.974 85.9375 174.802 85.9115C174.141 85.9063 173.427 85.8594 172.615 85.776C170.547 85.5417 168.245 85.0365 165.776 84.2812C164.682 83.9427 163.547 83.5521 162.401 83.1302C160.438 82.401 158.349 81.5313 156.021 80.474C153.318 79.2448 150.714 77.9531 148.406 76.8177C147.214 76.224 146.089 75.6667 145.057 75.1719C142.734 74.0573 140.198 72.9167 139.031 72.9167C138.802 72.9167 138.646 72.9583 138.568 73.0417C138.349 73.2708 138.339 73.4479 138.349 73.5677C138.406 74.0677 139.042 74.7344 140.26 75.5521C140.797 75.9167 141.453 76.3177 142.328 76.8021C142.802 77.0677 143.281 77.3281 143.745 77.5833C146.5 79.0885 148.328 80.0833 147.87 81.0885C147.74 81.3802 147.536 81.5781 147.266 81.6823C146.646 81.9167 145.833 81.5417 145.047 81.1823C144.51 80.9375 143.776 80.599 143.516 80.7292C143.448 80.7656 143.396 80.8646 143.365 81.0156C143.245 81.5937 145.625 82.8698 147.203 83.7135C147.964 84.125 148.75 84.5417 149.464 84.9688C151.401 86.1198 152.271 86.974 152.38 87.8229C152.438 88.2604 152.276 88.6667 151.911 89.0312C151.099 89.8438 149.135 89.6771 145.354 88.4792C143.63 87.9323 141.724 87.2292 139.917 86.5521L138.37 85.9688C133.719 84.2135 127.932 82.0313 127.026 82.9323C126.88 83.0781 126.823 83.224 126.833 83.3958C126.901 84.3333 128.839 85.7917 130.552 87.0833C132.906 88.8542 135.13 90.526 134.339 91.9167C134.167 92.2188 133.885 92.4271 133.51 92.5365Z" fill="black"/>
<mask id="mask3_5516_27226" style="mask-type:luminance" maskUnits="userSpaceOnUse" x="0" y="83" width="188" height="56">
<path d="M0.46875 83.667H188V138.334H0.46875V83.667Z" fill="white"/>
</mask>
<g mask="url(#mask3_5516_27226)">
<path d="M93.7551 137.735C82.4269 137.735 68.604 136.339 51.3384 132.704C48.2394 132.053 45.0467 131.334 41.8488 130.558H41.7394L41.703 130.521C41.5936 130.495 41.4894 130.469 41.38 130.443L41.3384 130.433C25.703 126.626 17.328 122.495 14.9946 117.443C13.5467 114.313 14.5311 111.271 15.4842 108.324C16.0936 106.433 16.6717 104.652 16.6092 102.907C16.479 99.2038 13.255 98.7507 9.52588 98.2246C5.354 97.6361 0.635254 96.9746 0.635254 90.9694V90.5944H47.9998L48.005 91.3392H1.38525C1.56755 96.3496 5.48421 96.9017 9.62484 97.485C13.3488 98.0111 17.1978 98.5527 17.354 102.876C17.4217 104.751 16.7967 106.683 16.1925 108.548C15.2863 111.355 14.3488 114.261 15.6717 117.126C17.9009 121.959 26.1144 125.954 41.5155 129.704L41.5571 129.714C41.6925 129.751 41.828 129.782 41.9634 129.813L42.078 129.844C45.2446 130.605 48.4165 131.324 51.4946 131.969C102.734 142.766 123.526 133.745 138.708 127.157C144.406 124.688 149.323 122.558 154.776 121.912C157.995 121.527 161.75 121.063 165.542 120.443C176.911 118.584 183.578 116.084 185.917 112.808C186.698 111.719 186.969 110.579 186.75 109.313C185.995 104.907 179.047 102.964 173.463 101.402C169.515 100.303 166.396 99.4277 166.015 97.8704C165.859 97.2402 166.14 96.5996 166.875 95.9121C169.229 93.7038 172.292 92.9902 174.995 92.3652C177.417 91.8079 179.505 91.3184 180.239 89.8861C180.786 88.8184 180.588 87.2038 179.651 84.9486L180.338 84.6621C181.385 87.1673 181.562 88.9329 180.906 90.2246C180.01 91.9694 177.765 92.4902 175.161 93.0944C172.552 93.6986 169.594 94.3861 167.385 96.459C166.875 96.9382 166.651 97.3548 166.739 97.6934C167.015 98.8288 170.245 99.7298 173.661 100.683C179.453 102.303 186.651 104.313 187.489 109.188C187.734 110.636 187.417 112.001 186.526 113.24C184.068 116.688 177.245 119.287 165.661 121.178C161.854 121.803 158.094 122.261 154.864 122.646C149.521 123.277 144.646 125.396 139.01 127.839C128.854 132.251 116.208 137.735 93.7551 137.735Z" fill="black"/>
</g>
<path d="M119.974 81.3701H113.443V74.8389H119.974V81.3701ZM114.182 80.6253H119.235V75.5785H114.182V80.6253Z" fill="black"/>
<path d="M141.792 72.9163H105.479V66.3799H141.792V72.9163ZM106.224 72.1715H141.047V67.1247H106.224V72.1715Z" fill="black"/>
<path d="M134.406 81.3701H127.875V74.8389H134.406V81.3701ZM128.62 80.6253H133.661V75.5785H128.62V80.6253Z" fill="black"/>
<path d="M159.802 114.015C154.359 114.015 146.588 111.192 145.104 108.937C144.646 108.245 144.724 107.557 145.317 107.047C146.708 105.859 149.276 106.37 151.76 106.859C153.713 107.25 155.734 107.651 156.838 107.125C157.005 107.047 157.031 106.989 157.031 106.989C157.057 106.593 155.187 105.51 154.073 104.859C152.052 103.692 150.14 102.583 150.067 101.468C150.052 101.208 150.12 100.833 150.557 100.489C152.604 98.8852 155.76 100.698 159.109 102.62C160.146 103.213 161.213 103.828 162.255 104.343C164.062 105.229 167.067 105.281 169.719 105.328C172.557 105.375 174.604 105.411 175.088 106.38C175.291 106.802 175.182 107.291 174.75 107.88C173.255 109.896 170.406 109.458 167.896 109.067C165.989 108.771 164.182 108.489 163.26 109.265C163.041 109.448 162.781 109.718 162.781 109.963C162.786 110.286 163.234 110.64 163.625 110.953C164.109 111.338 164.609 111.739 164.547 112.291C164.495 112.812 163.932 113.146 163.51 113.349C162.547 113.812 161.26 114.015 159.802 114.015ZM145.807 107.614C145.583 107.807 145.411 108.052 145.729 108.526C147.427 111.109 158.942 114.745 163.177 112.677C163.771 112.385 163.797 112.213 163.797 112.208C163.812 112.067 163.396 111.734 163.151 111.536C162.63 111.125 162.036 110.646 162.026 109.974C162.026 109.536 162.265 109.114 162.771 108.692C163.958 107.708 165.922 108.01 168 108.328C170.416 108.703 172.916 109.093 174.14 107.432C174.38 107.109 174.479 106.843 174.411 106.713C174.13 106.146 171.776 106.104 169.698 106.073C166.969 106.026 163.88 105.974 161.922 105.01C160.859 104.489 159.776 103.864 158.734 103.265C155.614 101.479 152.661 99.781 151.015 101.078C150.797 101.245 150.807 101.37 150.807 101.411C150.859 102.135 152.932 103.338 154.448 104.213C156.594 105.458 157.807 106.203 157.776 107.015C157.76 107.245 157.651 107.562 157.161 107.791C155.833 108.422 153.786 108.015 151.62 107.588C149.307 107.13 146.916 106.661 145.807 107.614Z" fill="black"/>
<path d="M12.5103 59.1458L59.3123 24.25L59.7603 24.849L12.9582 59.7396L12.5103 59.1458Z" fill="black"/>
<path d="M45.9897 135.916L97.1043 97.8018L97.5522 98.4007L46.4325 136.51L45.9897 135.916Z" fill="black"/>
<path d="M126.912 101.474L177.208 63.9795L177.651 64.5732L127.36 102.073L126.912 101.474Z" fill="black"/>
<path d="M76.6147 43.583L123.417 8.69238L123.86 9.28613L77.0575 44.182L76.6147 43.583Z" fill="black"/>
<path d="M93.0938 83.9115L165.391 29.9688L165.833 30.5677L93.5365 84.5104L93.0938 83.9115Z" fill="black"/>
<path d="M11.6304 119.573L70.021 76.042L70.4689 76.6357L12.0783 120.172L11.6304 119.573Z" fill="black"/>
<path d="M24.3906 24.8802L50.1198 5.71875L50.5625 6.31771L24.8385 25.4792L24.3906 24.8802Z" fill="black"/>
<mask id="mask4_5516_27226" style="mask-type:luminance" maskUnits="userSpaceOnUse" x="125" y="0" width="29" height="21">
<path d="M125.333 0.604492H153.333V21.0003H125.333V0.604492Z" fill="white"/>
</mask>
<g mask="url(#mask4_5516_27226)">
<path d="M126.297 19.7708L152.021 0.59375L152.464 1.1875L126.74 20.3698L126.297 19.7708Z" fill="black"/>
</g>
<path d="M154.047 26.1305L175.438 10.1826L175.88 10.7816L154.49 26.7295L154.047 26.1305Z" fill="black"/>
<path d="M137.932 79.7868L163.661 60.6045L164.104 61.2035L138.38 80.3805L137.932 79.7868Z" fill="black"/>
<path d="M156.948 126.792L182.672 107.609L183.12 108.208L157.396 127.385L156.948 126.792Z" fill="black"/>
<path d="M89.4062 112.183L115.12 92.9951L115.568 93.5889L89.849 112.776L89.4062 112.183Z" fill="black"/>
<path d="M13.9321 74.9062L35.0207 59.1875L35.4634 59.7812L14.38 75.5052L13.9321 74.9062Z" fill="black"/>
<path d="M46.875 58.5364C45.8854 55.7447 41.099 47.7395 36.1302 42.0416C34.2604 39.8958 32.5781 38.3228 31.1198 37.3697L30.7135 37.1041L31.0781 36.7812C32.5469 35.4687 33.3802 32.776 33.1927 29.9114C32.9792 26.5364 31.474 23.6562 29.0729 22.0155C28.6406 21.7187 28.1771 21.4583 27.6875 21.2447C27.8906 21.6145 28.099 22.0416 28.3281 22.5155C29.7188 25.4999 31.8698 31.6353 30.0885 33.5103L29.6354 33.9843L29.4635 33.3489C28.5781 30.1405 27.1458 27.2447 25.2135 24.7499C20.9323 19.203 14.4427 16.2187 8.74479 17.0572C12.651 19.1614 22.8177 26.2239 25.0052 29.5364L24.4219 29.9947C19.625 24.8489 11.6458 24.8853 7.52604 26.1145C10.9271 27.2395 21.4479 30.828 23.8646 33.0728L25.8281 34.901L23.4427 33.6822C19.5 31.6666 12.4271 32.1978 7.46875 34.7655C10.8229 35.2603 20.7344 36.328 27.0677 35.3853L28.3594 35.1926L27.3594 36.0416C26.3385 36.901 19.776 40.3228 16.625 41.9478C20.0104 41.6041 27.1302 40.5312 30.0365 37.4843L30.2448 37.2708L30.5 37.4218C31.9792 38.3072 33.651 40.0155 35.4635 42.5208C39.4427 48.0051 42.7917 55.427 43.4427 58.3385L42.7188 58.4999C42.0938 55.7187 38.724 48.2812 34.8594 42.9583C33.2135 40.677 31.7031 39.0885 30.3646 38.2135C26.1302 42.2864 15.276 42.8228 14.8125 42.8437L13.0885 42.9218L14.625 42.1405C17.6563 40.5989 23.0156 37.8124 25.5677 36.3176C18.1771 37.0051 7.60937 35.6249 6.29167 35.3228L5.39062 35.1145L6.18229 34.6405C9.91146 32.3853 15.9896 31.0989 20.7396 32.0103C15.7396 29.526 6.375 26.526 6.26042 26.4843L5.29688 26.1822L6.22917 25.7864C9.26042 24.5103 15.8073 23.8905 21.1198 26.6041C16.625 22.7603 9.38021 17.9947 7.44271 17.2499L6.32812 16.8228L7.48958 16.5416C13.7083 15.0468 21.0729 18.1614 25.8073 24.2864C27.625 26.6249 29 29.2968 29.9219 32.2499C30.3906 30.3645 29.2604 26.2655 27.6562 22.8228C27.2292 21.9114 26.8385 21.1874 26.5156 20.7291L25.8958 19.8437L26.9323 20.1614C27.8594 20.4426 28.724 20.8593 29.5 21.3958C32.0885 23.1614 33.7083 26.2499 33.9427 29.8541C34.1302 32.7655 33.3594 35.4478 31.9167 36.9999C33.3333 37.9999 34.9375 39.5312 36.6927 41.552C41.7135 47.3124 46.5729 55.4374 47.5781 58.2864L46.875 58.5364Z" fill="black"/>
<path d="M67.4481 58.5728C66.3543 56.2707 64.1043 53.8905 62.87 53.3436C59.6877 56.1249 51.62 55.0676 51.2762 55.0207L49.9637 54.8384L51.172 54.3124C52.5991 53.6822 55.7658 52.2655 57.6981 51.3019C52.7866 51.6301 48.0002 50.6665 46.995 50.4478L46.0418 50.2394L46.8908 49.7551C49.1825 48.4686 52.3022 47.578 55.2033 47.604C51.2918 46.4634 45.4429 45.2915 42.7345 44.8019L41.5522 44.5884L42.6512 44.0936C45.047 43.0155 48.146 42.5728 51.1408 42.8905C51.5314 42.9269 51.9168 42.9842 52.297 43.0467C51.6147 42.7342 50.9272 42.4217 50.2554 42.1197C47.7241 40.9738 45.3387 39.8957 44.3231 39.0676L43.7866 38.6301L44.4481 38.4269C47.7918 37.3801 51.4272 37.7551 54.6772 39.4894C58.2293 41.3853 61.0262 44.7238 62.4637 48.7394C62.7345 46.3853 61.146 40.3853 60.0627 38.9426L59.4012 38.0519L60.4637 38.3592C62.9012 39.0624 64.6825 41.2863 65.3543 44.4738C65.9793 47.4738 65.4793 50.7186 64.2085 52.2915C66.2814 53.1457 69.4845 55.6665 70.4741 58.2863L69.7814 58.5519C68.8127 55.9947 65.3491 53.3697 63.4637 52.8176C64.9845 53.6717 67.0835 56.0832 68.12 58.2551L67.4481 58.5728ZM52.771 54.4165C55.2762 54.604 60.4377 54.6926 62.5262 52.6509L62.6825 52.4947L62.8387 52.5467L63.297 52.1665C64.6616 51.0259 65.2606 47.6457 64.6252 44.6249C64.3075 43.1092 63.4481 40.5832 61.1877 39.4374C62.4481 42.1769 64.12 48.6978 62.6929 50.0988L62.2502 50.5363L62.0731 49.9374C60.8179 45.6717 57.995 42.1092 54.3283 40.1457C51.5002 38.6353 48.3647 38.2134 45.422 38.9269C46.5731 39.6405 48.521 40.5207 50.5627 41.4426C54.2658 43.1144 58.0939 44.8436 59.1772 46.3697L58.6095 46.8488C55.172 43.4061 48.7033 42.828 44.1668 44.3124C47.7554 44.9947 57.5835 46.9842 59.3439 48.5155L61.422 50.3176L58.9377 49.1301C55.9012 47.6874 51.4481 48.4009 48.2033 49.9269C50.3595 50.3228 55.0262 50.9842 59.4012 50.3801L60.7606 50.1926L59.6825 51.0415C58.9481 51.6197 54.9012 53.4634 52.771 54.4165Z" fill="black"/>
<path d="M165.568 83.9588C165.286 83.2192 163.739 80.0369 161.625 75.9901C159.937 72.7401 158.088 69.3442 156.422 66.4224C154.542 63.1359 152.922 60.4953 151.599 58.5786C150.729 57.3182 149.984 56.3651 149.375 55.7453C149.083 55.4484 148.838 55.2401 148.635 55.1151L148.193 54.839L148.594 54.5109C149.422 53.8234 149.87 52.1672 149.739 50.2974C149.599 48.3234 148.739 45.7713 146.734 44.5317C146.646 44.4744 146.552 44.4224 146.458 44.3703C146.495 44.4432 146.526 44.5213 146.562 44.6047C147.375 46.5578 147.797 49.3755 147.599 51.464L147.411 53.3755L146.87 51.5317C146.276 49.5265 145.297 47.8338 143.953 46.5005C141.193 43.7453 137.13 42.7713 132.974 43.8286C133.963 44.4172 135.568 45.1463 137.245 45.9067C138.745 46.589 140.297 47.2869 141.614 47.9797C143.239 48.8338 144.203 49.5161 144.646 50.1359L144.073 50.6151C143.297 49.839 142.328 49.2088 141.177 48.7453C138.432 47.6151 134.797 47.5161 131.911 48.4276C133.458 48.7713 136.219 49.4172 138.635 50.1203C141.213 50.8703 142.765 51.4953 143.385 52.0265L144.338 52.8547L143.083 52.6724C138.922 52.0734 137.755 52.0213 135.87 52.9119C135.677 53.0057 135.463 53.1151 135.234 53.2401C136.885 53.7401 140.297 54.6932 143.969 54.188L145.323 54.0005L144.25 54.8494C143.64 55.3338 140.937 56.4432 139.286 57.0994C141.312 57.3703 145.146 57.6203 146.844 55.9588L147.042 55.7661L147.281 55.9015C149.021 56.8651 152.568 62.6984 155.234 67.4224C157.015 70.5734 158.885 74.0942 160.375 77.0838C161.052 78.438 162.656 81.6984 162.896 82.688L162.172 82.8651C162.015 82.2401 161.073 80.1463 159.708 77.4172C158.224 74.438 156.359 70.9276 154.583 67.7869C151.135 61.6776 148.448 57.688 147.135 56.6984C144.37 59.0005 138.083 57.6724 137.812 57.6099L136.594 57.3442L137.755 56.8963C139.083 56.3911 140.896 55.6567 142.208 55.0734C138.922 55.1463 136.088 54.2817 134.755 53.8703L134.427 53.7713C134.328 53.7453 134.25 53.7245 134.193 53.714L133.203 53.5161L134.078 53.0213C134.667 52.688 135.135 52.4432 135.547 52.2453C137.187 51.464 138.354 51.3442 140.922 51.6359C140.292 51.4015 139.479 51.1359 138.432 50.8286C134.875 49.7922 130.573 48.8911 130.531 48.8807L129.417 48.6463L130.458 48.1776C132.755 47.1411 135.646 46.813 138.333 47.2088C137.87 46.9953 137.401 46.7869 136.943 46.5734C134.693 45.5578 132.745 44.6776 131.875 43.964L131.344 43.5265L132 43.3234C136.687 41.8547 141.354 42.8442 144.484 45.964C145.463 46.938 146.26 48.089 146.864 49.4015C146.745 47.714 146.333 46.0005 145.87 44.8859C145.693 44.4536 145.505 44.0994 145.318 43.8494L144.656 42.964L145.719 43.2713C146.219 43.4119 146.693 43.6255 147.125 43.8963C149.031 45.0786 150.286 47.4536 150.479 50.2505C150.609 52.1359 150.203 53.8078 149.396 54.7505C149.552 54.8807 149.719 55.0422 149.906 55.2244C150.542 55.8755 151.312 56.8599 152.203 58.1567C153.536 60.089 155.172 62.7505 157.057 66.0526C158.729 68.9901 160.583 72.3963 162.276 75.6515C164.401 79.7192 165.963 82.9328 166.255 83.6984L165.568 83.9588Z" fill="black"/>
<path d="M174.464 85.5365C172.589 80.8438 170.307 75.75 168.052 71.1927C166.073 67.1927 164.214 63.8177 162.818 61.6823C161.719 60.0156 161.141 59.4479 160.844 59.2656L160.401 58.9948L160.802 58.6615C161.307 58.2448 161.656 56.8542 161.344 55.3385C161.219 54.7344 160.833 53.4479 159.724 52.6667C160.156 53.6198 160.542 54.8542 160.609 55.6354L160.781 57.5L159.911 55.8438C158.302 52.7813 156.021 51.8333 152.375 52.7604C152.938 53.0104 153.698 53.2708 154.443 53.526C156.188 54.125 157.839 54.6875 158.391 55.4635L157.823 55.9427C156.417 54.5365 154.104 54.6094 152.052 55.25C153.734 55.5104 156.479 56.0313 158.042 56.8073L157.719 57.4792C156.495 56.8958 155.073 57.349 153.651 58.0677C154.594 58.3125 156.125 58.6042 157.901 58.3542L159.255 58.1667L158.188 59.0156C157.88 59.2604 156.781 59.8229 155.932 60.2448C157.177 60.3906 158.875 60.3906 159.646 59.6302L159.844 59.4375L160.089 59.5729C160.375 59.7292 160.911 60.1771 162.198 62.2083C163.63 64.4635 165.531 67.974 167.417 71.8385C169.932 77 171.974 81.901 173.016 85.2865L172.307 85.5104C171.276 82.1615 169.25 77.2969 166.75 72.1667C164.875 68.3281 162.99 64.8438 161.573 62.6094C160.682 61.2031 160.188 60.6198 159.927 60.375C158.24 61.6198 154.807 60.8177 154.656 60.776L153.641 60.5312L154.583 60.0781C155.094 59.8385 155.771 59.5052 156.37 59.1927C154.76 59.1719 153.495 58.8021 152.865 58.6198C152.745 58.5885 152.651 58.5573 152.589 58.5469L151.641 58.3385L152.484 57.8594C153.391 57.3438 154.323 56.8802 155.245 56.6406C153.026 56.0885 150.563 55.7917 150.526 55.7865L149.188 55.6302L150.422 55.0781C151.479 54.6042 152.688 54.2344 153.885 54.1146C152.745 53.724 151.703 53.3437 151.198 52.9323L150.667 52.4948L151.323 52.2865C153.88 51.4896 156.974 51.0104 159.354 53.6771C159.104 53.0208 158.812 52.401 158.562 52.0625L157.901 51.1719L158.969 51.4844C160.568 51.9531 161.703 53.3021 162.094 55.1875C162.396 56.6302 162.188 58.0937 161.609 58.8958C162.094 59.3333 162.703 60.1146 163.464 61.2708C164.88 63.4323 166.755 66.8333 168.745 70.8594C171.01 75.4323 173.297 80.5469 175.177 85.2604L174.464 85.5365Z" fill="black"/>
<path d="M108.125 66.964C106.604 64.766 103.349 61.214 101.021 60.0421C97.953 62.9067 91.0884 64.6046 86.8592 62.4587L85.8748 61.964L86.9582 61.766C88.7863 61.4275 92.9842 59.8181 95.3696 58.6983C90.703 59.3181 85.7707 58.6671 78.6457 57.6098L77.7759 57.4848L78.4738 56.9483C81.38 54.7244 90.4373 54.4692 94.5623 55.0108C90.9738 52.9067 83.1821 50.7765 80.1717 50.5994L78.703 50.516L80.0415 49.891C84.2394 47.9275 96.5571 51.0212 99.1457 54.6827L98.5363 55.115C96.4321 52.1358 86.9946 49.4744 82.0936 50.1098C86.3436 50.8702 94.2186 53.1983 96.4634 55.5004L97.9373 57.016L96.0311 56.0942C94.2811 55.2452 83.8905 55.089 79.7863 57.0265C87.3071 58.1254 92.3071 58.6983 97.2811 57.6046L98.3384 57.3702L97.6457 58.2087C96.979 59.016 91.2134 61.3546 88.203 62.2192C92.2759 63.5733 98.104 61.9067 100.677 59.3337L100.859 59.1462L101.094 59.2556C103.557 60.3598 107.109 64.1931 108.729 66.5421L108.125 66.964Z" fill="black"/>
<path d="M110.495 66.9115C109.604 64.9844 104.578 60.6458 101.474 58.8073L101.255 58.6823L101.292 58.4323C101.531 56.8906 100.75 54 98.8387 51.6771C97.9116 50.5573 96.4429 49.2396 94.37 48.7604C96.0731 50.3646 98.245 53.3073 99.1512 54.6927L99.2502 54.849L98.6147 55.2396L98.521 55.0938C97.0991 52.9323 94.271 49.3437 92.8908 48.5365L91.5835 47.7812L93.0887 47.8438C96.1356 47.974 98.2033 49.7396 99.4116 51.2031C101.36 53.5729 102.203 56.5469 102.057 58.2917C105.318 60.2813 110.235 64.5729 111.167 66.599L110.495 66.9115Z" fill="black"/>
<path d="M68.6979 71.2451H65.401V70.4951H68.3229L76.8854 58.7868H38.7656L30.1979 70.4951H55.4896V71.2451H28.7344L38.3906 58.042H78.3542L68.6979 71.2451Z" fill="black"/>
<path d="M82.7967 79.7653H82.0519V70.4945H85.9998L77.3228 58.6299L77.9217 58.1924L87.4686 71.2445H82.7967V79.7653Z" fill="black"/>
<path d="M37.8853 70.8701H38.63V90.9743H37.8853V70.8701Z" fill="black"/>
<path d="M107.099 83.8285V72.542H107.844V83.792L107.099 83.8285Z" fill="black"/>
<path d="M139.677 75.8594H140.417V86.2031H139.677V75.8594Z" fill="black"/>
<path d="M80.9427 72.6351H75.9531V67.6455H80.9427V72.6351ZM76.7031 71.8903H80.1979V68.3955H76.7031V71.8903Z" fill="black"/>
</svg>
