<svg width="179" height="148" viewBox="0 0 179 148" fill="none" xmlns="http://www.w3.org/2000/svg">
<path d="M170.604 84.9375C170.12 84.776 169.599 84.6406 169.047 84.5313C169.005 82 169.036 61.6771 169.057 50.75V50.3802L146.62 51.2396V63.2656H144.88L137.807 58.0625V46.8385H131.094V26.8021H122.416L101.307 11.2656L100.89 11.8385L121.213 26.8021H102.5V41.7552C101.687 41.3177 100.521 40.8438 100.088 41.4427C99.4894 42.2552 101.177 43.8281 102.271 44.6354C102.349 44.6927 102.422 44.7448 102.5 44.7969V49.8125C101.995 49.6979 101.536 49.599 101.198 49.5417C101.047 48.8333 100.786 48.2396 100.453 47.8438C98.9268 46.0365 96.0571 45.0781 94.1404 45.1719C93.9112 44.8177 93.5727 44.5 93.1716 44.2917C91.8956 43.6094 89.7081 43.2708 88.4893 43.849C88.1873 43.9948 87.2966 44.0156 86.255 44.0417C84.2341 44.0885 81.1821 44.1563 78.4008 45.1875C77.4529 45.5365 76.4998 46.3021 75.4008 47.1875C74.5675 47.8594 73.7029 48.5417 72.7498 49.125V45.1667H67.1404L39.6143 24.9063L39.1925 25.474L65.9425 45.1615H49.1977V67.3333H40.9477V57.4375H36.5779V43.9063L37.0623 44.2552L37.4789 43.6875L36.5779 43.026V34.5313H25.031L0.94768 16.8021L0.525805 17.375L23.8331 34.526H12.9164V59.5938L7.49456 55.6042L7.07268 56.1719L12.9164 60.474V64.3021C4.49456 64.0938 4.31226 64.276 4.18206 64.4063L4.07268 64.5208V74.2708C2.9008 73.6823 1.01539 72.9271 0.369555 73.7917C-0.442945 74.8906 1.70289 77.2708 4.07268 79.0677V88.974C3.46851 89.349 2.87997 89.7448 2.3331 90.1771C1.03101 91.1875 0.520597 92.0833 0.775805 92.9063C1.46331 95.1771 7.85914 95.7969 17.5362 96.4948L18.8643 96.5886L26.5987 102.276C23.13 103.344 19.3956 104.583 18.9268 107C15.156 107.068 11.6664 107.677 8.26539 108.859L8.49976 109.531C11.8071 108.375 15.2133 107.776 18.8852 107.708C19.031 109.927 21.8123 117.135 50.6352 119.964L77.1196 139.458L77.5414 138.885L52.0102 120.094C58.9894 120.729 66.9581 121.047 75.7706 121.047C77.6508 121.047 79.5675 121.031 81.5206 121.005C91.1977 120.865 100.255 120.422 108.442 119.703L117.442 126.328L117.864 125.76L109.505 119.609C119.271 118.708 127.599 117.432 134.26 115.802L142.594 121.938L143.015 121.365L135.156 115.578C142.656 113.672 147.166 111.458 147.583 109.484C147.666 109.073 147.62 108.479 146.916 107.948C144.073 105.771 142.255 103.635 141.739 101.885C145.255 101.531 148.817 101.375 151.396 102.37L151.651 101.703C148.916 100.656 145.224 100.823 141.599 101.182C141.521 100.385 141.739 99.6771 142.26 99.0313C144.203 96.6302 150.109 95.2917 159.817 95.0677C171.932 94.7813 178.01 93.3906 178.39 90.8073C178.75 88.3021 173.453 85.875 170.604 84.9375ZM31.8852 98.8229C32.3279 99.3281 32.2446 99.6094 32.2185 99.7031C31.9633 100.609 29.4998 101.385 27.4425 102.021L20.1977 96.6875C24.9633 97.0417 30.7758 97.5573 31.8852 98.8229ZM143.682 63.2708H137.807V58.9479L143.682 63.2708Z" fill="black"/>
<path d="M46.4844 2.85905L46.9062 2.28613L81.9115 28.0466L81.4896 28.6195L46.4844 2.85905Z" fill="black"/>
<path d="M117.297 4.66634L117.714 4.09863L153.719 30.5986L153.297 31.1663L117.297 4.66634Z" fill="black"/>
<mask id="mask0_5546_11873" style="mask-type:luminance" maskUnits="userSpaceOnUse" x="79" y="128" width="28" height="20">
<path d="M79.667 128.333H106.334V147.422H79.667V128.333Z" fill="white"/>
</mask>
<g mask="url(#mask0_5546_11873)">
<path d="M80.3647 129.083L80.7866 128.51L105.141 146.437L104.719 147.01L80.3647 129.083Z" fill="black"/>
</g>
<path d="M17.7815 24.2761C19.9013 25.8438 22.0367 26.8334 23.2346 26.8334C23.3283 26.8334 23.4169 26.823 23.5002 26.8126C23.8075 26.7709 24.0367 26.6407 24.1825 26.4376C24.3335 26.2345 24.3856 25.9793 24.3388 25.672C24.1721 24.547 22.5106 22.6511 20.219 20.9636C16.8179 18.4584 14.4273 17.9845 13.8179 18.8074C13.6669 19.0105 13.6148 19.2709 13.6617 19.573C13.8283 20.698 15.4846 22.5938 17.7815 24.2761Z" fill="black"/>
<path d="M66.6615 29.1512C64.0886 27.2554 61.0626 25.9012 60.2553 26.9897C60.1094 27.1929 60.0521 27.4533 60.099 27.7554C60.2709 28.8804 61.9271 30.7762 64.2188 32.4585C66.3438 34.0262 68.474 35.0158 69.6719 35.0158C69.7709 35.0158 69.8594 35.0106 69.9428 35.0002C70.2448 34.9533 70.474 34.8231 70.6251 34.6199C70.7761 34.4168 70.8282 34.1564 70.7813 33.8543C70.6094 32.7293 68.9532 30.8335 66.6615 29.1512Z" fill="black"/>
<path d="M19.7085 13.3075C21.1928 14.4012 22.9428 15.3231 24.0158 15.3231C24.3751 15.3231 24.6564 15.219 24.8335 14.9846V14.9794C25.5158 14.0471 23.6928 12.0471 21.7085 10.5835C19.8647 9.22937 18.0835 8.44292 17.1668 8.58354C16.8439 8.63562 16.6668 8.79187 16.5783 8.91167C15.896 9.84396 17.7241 11.844 19.7085 13.3075Z" fill="black"/>
<path d="M131.63 124.89C129.339 123.198 127.036 122.182 125.917 122.354C125.609 122.395 125.38 122.526 125.229 122.729C124.844 123.25 125.094 124.073 125.958 125.182C126.714 126.145 127.859 127.218 129.193 128.203C131.318 129.765 133.448 130.755 134.646 130.755C134.745 130.755 134.833 130.75 134.917 130.739C135.224 130.692 135.448 130.562 135.599 130.359C135.75 130.156 135.802 129.901 135.755 129.593C135.583 128.468 133.927 126.573 131.63 124.89Z" fill="black"/>
<path d="M30.2346 128.27C26.8596 125.786 23.495 124.281 21.8648 124.531C21.4586 124.593 21.1565 124.76 20.9586 125.026C19.8492 126.531 23.1461 130.218 26.8127 132.922C29.6252 134.984 32.9169 136.672 34.8075 136.672C35.3804 136.672 35.8284 136.515 36.0888 136.161C36.2867 135.901 36.3544 135.557 36.2919 135.151C36.0419 133.52 33.6096 130.755 30.2346 128.27Z" fill="black"/>
<path d="M131.172 136.734C130.078 135.937 128.073 134.797 127.474 135.599C126.88 136.411 128.563 137.989 129.656 138.791C130.391 139.333 131.146 139.76 131.776 140C132.141 140.14 132.453 140.208 132.703 140.208C133 140.208 133.214 140.114 133.349 139.927C133.948 139.114 132.266 137.536 131.172 136.734Z" fill="black"/>
<path d="M137.703 10.4267C138.531 11.0361 139.885 11.8433 140.75 11.8433C141.026 11.8433 141.25 11.76 141.396 11.5673C141.469 11.4683 141.552 11.2913 141.51 11.0308C141.391 10.2288 140.203 9.09855 139.213 8.36939C138.229 7.64543 136.802 6.84334 135.995 6.96314C135.734 7.0048 135.594 7.13501 135.516 7.23397C134.927 8.04647 136.609 9.61939 137.703 10.4267Z" fill="black"/>
<path d="M97.9792 22.6254C99.474 23.7192 101.229 24.6463 102.313 24.6463C102.672 24.6463 102.953 24.5421 103.13 24.3077C103.219 24.1827 103.318 23.9692 103.271 23.6463C103.13 22.7296 101.844 21.2504 99.9948 19.8911C98.1459 18.5265 96.3542 17.7348 95.4323 17.8754C95.1094 17.9275 94.9323 18.0838 94.8438 18.2036C94.1459 19.1463 95.9844 21.1567 97.9792 22.6254Z" fill="black"/>
<path d="M149.552 11.8905C150.656 12.703 151.797 13.354 152.75 13.7134C153.286 13.9165 153.74 14.0207 154.099 14.0207C154.484 14.0207 154.766 13.9009 154.943 13.6613C155.661 12.6873 153.734 10.5832 151.641 9.0415C150.531 8.229 149.396 7.57796 148.443 7.21859C147.323 6.79671 146.583 6.81234 146.25 7.27067C145.531 8.24463 147.458 10.3488 149.552 11.8905Z" fill="black"/>
<path d="M138.672 39.5933C138.068 40.4162 139.234 42.562 142.641 45.0724C145.047 46.8432 146.953 47.5985 148.073 47.5985C148.536 47.5985 148.87 47.4683 149.042 47.2287C149.651 46.4005 148.479 44.2547 145.078 41.7495C141.672 39.2547 139.281 38.7755 138.672 39.5933Z" fill="black"/>
<mask id="mask1_5546_11873" style="mask-type:luminance" maskUnits="userSpaceOnUse" x="66" y="0" width="9" height="7">
<path d="M66.3335 0.421875H74.3335V7H66.3335V0.421875Z" fill="white"/>
</mask>
<g mask="url(#mask1_5546_11873)">
<path d="M69.9691 4.39091C71.3181 5.3857 72.6306 5.99507 73.4066 5.99507C73.4743 5.99507 73.5368 5.98987 73.5941 5.97945C73.8702 5.93778 74.0264 5.80237 74.1045 5.68778C74.1827 5.58362 74.266 5.39612 74.2243 5.11487C74.115 4.37528 73.0941 3.20341 71.6306 2.12528C70.167 1.04716 68.7452 0.422158 68.0056 0.54195C67.7295 0.583616 67.5733 0.724241 67.4952 0.8232C67.417 0.932574 67.3337 1.12008 67.3754 1.40132C67.49 2.14612 68.5056 3.31799 69.9691 4.39091Z" fill="black"/>
</g>
<path d="M105.005 93.8283L99.3438 89.6616C101.417 89.4689 103.406 89.1512 105.208 88.9377C109.688 88.4116 122.115 82.1356 128.276 82.4741C134.432 82.8127 144.958 87.396 149.552 86.6148C153.74 85.896 162.297 83.6044 168.703 84.8231C169.323 84.9377 169.922 85.0887 170.495 85.2762C176.984 87.396 187.708 94.0575 159.802 94.7085C144.208 95.0731 140.661 98.271 141.292 101.568C141.781 104.167 144.88 106.839 146.693 108.224C148.776 109.813 145.062 112.776 134.333 115.417L105.005 93.8283ZM138.802 95.3856C139.219 94.8231 137.917 93.1616 135.901 91.6773C133.885 90.1877 131.911 89.4429 131.495 90.0054C131.083 90.5731 132.38 92.2346 134.396 93.7189C136.411 95.2033 138.385 95.9481 138.802 95.3856Z" fill="#CADBEA"/>
<path d="M151.433 9.3277C153.672 10.9787 155.115 12.8225 154.651 13.4527C154.188 14.0777 152 13.2496 149.761 11.6037C147.516 9.9527 146.073 8.10374 146.537 7.47874C147 6.84854 149.188 7.67666 151.433 9.3277Z" fill="#CADBEA"/>
<path d="M144.865 42.042C147.573 44.0315 149.313 46.2607 148.755 47.0211C148.198 47.7763 145.552 46.7763 142.844 44.7868C140.141 42.792 138.396 40.568 138.958 39.8076C139.516 39.0524 142.162 40.0524 144.865 42.042Z" fill="#CADBEA"/>
<path d="M139.005 8.65627C140.474 9.72918 141.422 10.9427 141.114 11.3542C140.812 11.7604 139.375 11.2188 137.916 10.1406C136.453 9.06772 135.505 7.85939 135.807 7.44793C136.114 7.03647 137.541 7.57293 139.005 8.65627Z" fill="#CADBEA"/>
<path d="M135.901 91.677C137.917 93.1614 139.219 94.8228 138.802 95.3853C138.386 95.9478 136.412 95.2031 134.396 93.7187C132.381 92.2343 131.084 90.5728 131.495 90.0051C131.912 89.4478 133.886 90.1926 135.901 91.677Z" fill="#CADBEA"/>
<path d="M131.422 125.177C134.125 127.161 135.87 129.396 135.313 130.151C134.755 130.911 132.109 129.906 129.401 127.917C126.698 125.922 124.953 123.698 125.51 122.937C126.073 122.182 128.719 123.182 131.422 125.177Z" fill="#CADBEA"/>
<path d="M18.9894 96.2451C8.60919 95.4899 -3.13039 94.8805 2.54669 90.4586C3.14565 89.9899 3.77586 89.5576 4.42169 89.1722C13.5154 83.6514 26.5415 85.4066 30.5623 85.6097C33.6977 85.7659 42.1977 88.8076 52.3644 89.068C56.1873 89.1722 60.2498 88.8701 64.3488 87.8701C62.7342 92.8441 61.604 97.7399 61.4894 101.344C63.1092 101.917 65.5936 102.177 68.4529 102.24V102.256L67.4217 107.157V107.162C70.229 107.131 72.8227 107.782 74.7863 107.844L76.4321 102.032C78.7134 101.891 80.9686 101.693 83.0154 101.495L85.9842 106.922C87.104 106.808 88.2654 106.766 89.2602 106.891C90.6977 107.073 92.7342 107.12 94.6404 107.084L90.8071 100.584C91.2863 100.516 91.5519 100.479 91.5519 100.479C91.5519 100.479 90.4738 94.8805 89.9373 88.9378C92.9738 89.9639 96.2446 89.9482 99.3436 89.6618L105 93.8284L134.328 115.412C128.14 116.938 119.625 118.354 108.531 119.334C100.797 120.016 91.8175 120.49 81.505 120.646C69.0415 120.828 58.9217 120.417 50.7602 119.62L37.505 109.865L27.3696 102.407C30.8279 101.349 33.7342 100.396 32.1457 98.5889C30.9269 97.1982 25.1977 96.693 18.9894 96.2451ZM82.0988 118.349C82.6561 117.594 80.9165 115.365 78.2082 113.375C75.505 111.386 72.8592 110.381 72.3019 111.141C71.7394 111.896 73.4842 114.125 76.1873 116.115C78.8957 118.11 81.5415 119.11 82.0988 118.349ZM54.3592 107.417C54.7238 106.922 53.5936 105.474 51.8332 104.183C50.0779 102.891 48.354 102.235 47.9946 102.729C47.63 103.219 48.7602 104.667 50.5207 105.959C52.2811 107.256 53.9946 107.901 54.3592 107.417Z" fill="#CADBEA"/>
<path d="M130.964 137.021C132.427 138.099 133.37 139.308 133.068 139.719C132.766 140.125 131.333 139.584 129.87 138.511C128.401 137.427 127.458 136.219 127.76 135.813C128.063 135.401 129.495 135.948 130.964 137.021Z" fill="#CADBEA"/>
<path d="M113.698 70.25C114.255 69.4896 112.516 67.2656 109.812 65.2708C109.516 65.0521 109.219 64.8438 108.922 64.651C106.547 63.0833 104.401 62.3698 103.901 63.0365C103.344 63.7969 105.089 66.026 107.786 68.0104C108.13 68.2604 108.464 68.4948 108.802 68.7135C111.125 70.2292 113.208 70.9115 113.698 70.25ZM91.4167 66.8281C92.0833 67.151 93.9635 66.3958 94.7135 65.0885L95.5729 65.4635C95.5729 65.4635 95.1823 64.25 95.6615 63.7448C96.1354 63.25 97.1771 62.3906 96.9583 61.3438C97.651 61.125 98.2813 61.026 98.7917 61.0781L97.9115 59.1354C100.073 58.4583 102.073 58.1771 102.786 58.224C103.573 55.4375 107.984 52.4583 110.37 52.5365C107.74 51.5417 104.812 50.7292 102.854 50.2552V44.6094C104.182 45.5052 105.401 45.9271 105.677 45.5521C105.979 45.1458 105.036 43.9323 103.573 42.8594C103.328 42.6771 103.089 42.5156 102.854 42.3698V27.1562H130.734V47.2031H137.448V63.625H146.969V51.5833L168.698 50.75C168.698 50.75 168.63 84.8073 168.698 84.8229C162.292 83.6042 153.729 85.8958 149.547 86.6146C144.953 87.3958 134.427 82.8073 128.266 82.474C122.109 82.1354 109.677 88.4115 105.203 88.9375C103.406 89.151 101.406 89.4688 99.3385 89.6615L89.6406 82.526C89.6667 80.526 89.849 78.7344 90.2552 77.4167C96.1823 80.7552 99.6302 81.2917 100.922 78.6042C101.984 76.401 98.0104 71.6198 91.4167 66.8281Z" fill="#3B3A3A"/>
<path d="M109.808 65.271C112.516 67.2658 114.255 69.4897 113.693 70.2501C113.209 70.9116 111.125 70.2293 108.797 68.7137C108.464 68.4949 108.125 68.2606 107.787 68.0106C105.084 66.0262 103.339 63.797 103.901 63.0366C104.396 62.3699 106.542 63.0835 108.917 64.6512C109.214 64.8439 109.511 65.0522 109.808 65.271Z" fill="#CADBEA"/>
<path d="M74.9219 67.208C72.9896 66.6872 70.5052 66.5518 68.2604 66.7861C66.125 67.0101 64.2083 67.5622 63.1719 68.4216C63.1719 68.4216 65.375 63.6872 65.4792 63.5257C65.8542 63.6559 66.2969 63.6351 66.5573 63.6299C67.3177 63.6038 70.7031 61.8695 72.0885 61.484C73.4635 61.109 75.2031 62.3538 76.5573 62.4372C77.9115 62.5205 80.2135 61.0257 81.0573 60.2653C82.1927 59.2393 83.224 59.0257 85.2031 58.9424C85.2188 58.9424 85.2396 58.9424 85.2552 58.9372C87.2031 58.8226 88.599 56.7913 89.9375 56.0986C91.2917 55.3903 96.0365 56.6924 98.7917 55.2809C100.75 54.2809 101.214 51.7601 100.901 49.8903L100.969 49.8643C101.349 49.9268 102.016 50.0674 102.854 50.2653C104.812 50.7393 107.74 51.5518 110.37 52.5465C107.979 52.4684 103.573 55.4476 102.786 58.234C102.073 58.1872 100.073 58.4736 97.9115 59.1455C95.1979 59.9893 92.224 61.4424 91.2135 63.6299C90.4323 63.3538 88.6719 63.3486 86.6406 63.6559C83.0938 64.1872 78.724 65.6559 77.3177 68.2913C76.724 67.8278 75.8906 67.4684 74.9219 67.208Z" fill="#3B3A3A"/>
<path d="M103.573 42.8648C105.042 43.9429 105.985 45.1512 105.682 45.5575C105.406 45.9325 104.188 45.5106 102.854 44.6148C102.729 44.5262 102.604 44.4377 102.479 44.3492C101.016 43.271 100.073 42.0627 100.375 41.6512C100.63 41.3075 101.667 41.6304 102.854 42.37C103.089 42.521 103.334 42.6877 103.573 42.8648Z" fill="#CADBEA"/>
<path d="M99.7764 20.177C101.907 21.7447 103.282 23.4999 102.844 24.0936C102.401 24.6926 100.323 23.9009 98.1878 22.3384C96.0576 20.7707 94.6878 19.0155 95.1253 18.4166C95.5576 17.8176 97.6462 18.6041 99.7764 20.177Z" fill="#CADBEA"/>
<path d="M91.4118 66.8281C98.0107 71.6198 101.985 76.401 100.927 78.6042C99.6357 81.2969 96.1878 80.7604 90.2607 77.4167C89.8545 78.7396 89.6722 80.5312 89.641 82.5312L72.4951 69.9062C73.3753 68.6198 74.2035 67.6771 74.9222 67.2135C75.891 67.474 76.7191 67.8333 77.318 68.2865C78.7243 65.651 83.0941 64.1823 86.641 63.6562C87.7868 64.3542 88.891 65.0677 89.9378 65.7865C90.443 66.1354 90.9378 66.4792 91.4118 66.8281Z" fill="#4A8BDF"/>
<path d="M93.9585 45.5369C95.771 45.365 98.6981 46.313 100.188 48.0734C100.526 48.4692 100.776 49.1255 100.906 49.8807C101.219 51.7557 100.755 54.2765 98.797 55.2765C96.0418 56.688 91.2918 55.3859 89.9429 56.089C88.6043 56.7869 87.2085 58.8182 85.2606 58.9327L72.6147 49.6255C75.0002 48.2505 76.8647 46.1307 78.5314 45.5161C82.7814 43.9432 87.62 44.6515 88.6512 44.1671C89.6825 43.6827 91.745 43.9223 93.0158 44.5994C93.4272 44.8286 93.771 45.1723 93.9585 45.5369Z" fill="#CADBEA"/>
<path d="M89.646 82.5312L99.3439 89.6667C96.2502 89.9531 92.9793 89.9688 89.9377 88.9427C89.745 86.7604 89.62 84.5417 89.646 82.5312Z" fill="#3B3A3A"/>
<path d="M96.9587 61.349C95.2191 61.8854 93.0993 63.1198 91.5628 64.3073L91.2139 63.6302C92.2295 61.4427 95.1982 59.9844 97.9118 59.1406L98.792 61.0833C98.2816 61.0313 97.6514 61.1354 96.9587 61.349Z" fill="#4A8BDF"/>
<path d="M96.9583 61.3486C97.1771 62.3955 96.1354 63.2549 95.6615 63.7497C95.1823 64.2549 95.5729 65.4736 95.5729 65.4736L94.7135 65.0986C93.9635 66.4007 92.0833 67.1559 91.4167 66.833L91.4115 66.8382C90.9375 66.484 90.4427 66.1403 89.9375 65.7913C90.3073 65.3486 90.8802 64.833 91.5625 64.307C93.099 63.1195 95.224 61.8851 96.9583 61.3486Z" fill="#F3AE88"/>
<path d="M90.8125 100.583L94.6458 107.083C92.7344 107.119 90.7031 107.073 89.2604 106.89C88.2656 106.765 87.1042 106.807 85.9896 106.922L83.0156 101.494C86.5781 101.14 89.5052 100.76 90.8125 100.583Z" fill="#3B3A3A"/>
<path d="M91.2135 63.6247L91.5625 64.3018C90.8802 64.8279 90.3073 65.3435 89.9375 65.7862C88.8854 65.0675 87.7865 64.3539 86.6406 63.6508C88.6719 63.3435 90.4375 63.3487 91.2135 63.6247Z" fill="#4A8BDF"/>
<path d="M91.5522 100.479C91.5522 100.479 91.2918 100.516 90.8127 100.583C89.5054 100.76 86.5783 101.141 83.0158 101.495C80.9689 101.698 78.7137 101.891 76.4325 102.031C73.7033 102.203 70.9377 102.297 68.4533 102.24C65.5939 102.177 63.1095 101.917 61.4897 101.344C61.6043 97.7396 62.7345 92.8438 64.3491 87.8698C65.021 85.8021 65.7762 83.7188 66.5783 81.7083C68.4741 76.9635 70.6147 72.6406 72.495 69.9062L89.646 82.5312C89.62 84.5417 89.745 86.7656 89.9429 88.9427C90.4793 94.8802 91.5522 100.479 91.5522 100.479Z" fill="#4A8BDF"/>
<path d="M71.1095 52.7497C70.6304 52.1351 70.4845 50.8018 72.3908 49.7549C72.4689 49.7132 72.5366 49.6715 72.6095 49.6299L85.2554 58.9372C85.2398 58.9372 85.2189 58.9372 85.2033 58.9372C83.2241 59.0205 82.1929 59.2393 81.0575 60.2653C80.2137 61.0257 77.9116 62.5153 76.5575 62.4372C75.2033 62.3538 73.4637 61.1038 72.0887 61.484C70.7033 61.859 67.3179 63.5986 66.5575 63.6247C66.2918 63.6299 65.8543 63.6559 65.4793 63.5205C64.7814 63.2809 64.2866 62.5153 65.5054 60.208C66.6148 58.0934 68.146 55.7184 71.1095 52.7497Z" fill="#CADBEA"/>
<path d="M78.2085 113.375C80.9168 115.364 82.6564 117.594 82.0991 118.349C81.5418 119.109 78.896 118.109 76.1876 116.114C73.4845 114.125 71.7397 111.896 72.3022 111.14C72.8595 110.38 75.5053 111.38 78.2085 113.375Z" fill="#CADBEA"/>
<mask id="mask2_5546_11873" style="mask-type:luminance" maskUnits="userSpaceOnUse" x="67" y="0" width="8" height="6">
<path d="M67.667 0.421875H74.3337V5.66667H67.667V0.421875Z" fill="white"/>
</mask>
<g mask="url(#mask2_5546_11873)">
<path d="M71.4224 2.41648C73.0943 3.64044 74.162 5.01544 73.8234 5.48419C73.4797 5.94773 71.8495 5.33314 70.1828 4.10919C68.5109 2.88002 67.4432 1.50502 67.787 1.03627C68.1255 0.572728 69.7557 1.18731 71.4224 2.41648Z" fill="#CADBEA"/>
</g>
<path d="M74.9222 67.2083C74.2087 67.6719 73.3805 68.6146 72.4951 69.901L68.2607 66.7812C70.5055 66.5521 72.9847 66.6875 74.9222 67.2083Z" fill="#3B3A3A"/>
<path d="M72.391 45.5205V49.4684L67.0264 45.5205H72.391Z" fill="#3B3A3A"/>
<path d="M66.4534 29.4326C69.1565 31.4222 70.9013 33.6565 70.3388 34.4118C69.7815 35.167 67.1409 34.167 64.4325 32.1774C61.7242 30.1878 59.9846 27.9534 60.5419 27.1982C61.0992 26.443 63.7502 27.443 66.4534 29.4326Z" fill="#CADBEA"/>
<path d="M22.7606 57.6253C22.3856 57.1982 21.8647 56.7243 21.2554 56.2816C19.7918 55.1982 18.3543 54.6566 18.0522 55.068C17.7658 55.4587 18.6147 56.5837 19.9741 57.6253C20.0366 57.6722 20.0991 57.7139 20.1616 57.7607C21.6304 58.8441 23.0627 59.3857 23.3595 58.9743C23.5366 58.7347 23.2866 58.2243 22.7606 57.6253ZM28.5002 57.6253C28.9689 58.4951 30.1252 59.6878 31.6356 60.7972C33.9064 62.4743 36.1304 63.3128 36.5991 62.6774C37.0627 62.042 35.6043 60.167 33.3335 58.4951C31.0575 56.818 28.8335 55.9795 28.3647 56.6201C28.2033 56.8337 28.2658 57.1878 28.5002 57.6253ZM16.6564 62.792L13.271 60.3024V34.8857H24.9168L36.2241 43.2087V57.7972H40.5939V67.6982H49.5522V45.5212H67.0262L72.3908 49.4743V49.7555C70.4845 50.8076 70.6252 52.141 71.1043 52.7555C68.146 55.7191 66.6095 58.0993 65.5002 60.2139C64.2866 62.5264 64.7762 63.2868 65.4793 63.5264C65.37 63.6878 63.1668 68.4222 63.1668 68.4222C64.2033 67.5628 66.12 67.0107 68.2554 66.7868L72.495 69.9066C70.6147 72.641 68.4741 76.9639 66.5783 81.7087C65.7762 83.7191 65.0158 85.8024 64.3439 87.8701C60.245 88.8753 56.1877 89.1722 52.3595 89.068L30.7033 73.1253L23.6825 67.9587L16.6564 62.792Z" fill="#3B3A3A"/>
<path d="M67.4219 107.156L68.4583 102.255V102.234C70.9375 102.292 73.7031 102.198 76.4323 102.031L74.7865 107.839C72.8333 107.781 70.2344 107.13 67.4219 107.156Z" fill="#3B3A3A"/>
<path d="M51.8333 104.183C53.5885 105.474 54.7239 106.922 54.3593 107.417C53.9947 107.901 52.276 107.256 50.5156 105.959C48.7604 104.667 47.6249 103.219 47.9895 102.73C48.3541 102.235 50.0729 102.891 51.8333 104.183Z" fill="#CADBEA"/>
<path d="M37.5105 109.875L50.7605 119.625C25.6824 117.171 18.9793 111.072 19.2345 107.343C25.6616 107.27 31.6928 108.802 37.5105 109.875Z" fill="#CADBEA"/>
<path d="M27.375 102.411L37.5104 109.869C31.6927 108.802 25.6615 107.271 19.2344 107.343V107.338C19.4115 104.797 23.6979 103.541 27.375 102.411Z" fill="#CADBEA"/>
<path d="M28.5 57.625C28.2657 57.1875 28.2032 56.8333 28.3594 56.6198C28.8282 55.9791 31.0521 56.8229 33.3282 58.4948C35.6042 60.1666 37.0625 62.0416 36.5938 62.677C36.125 63.3125 33.9011 62.4687 31.6302 60.7968C30.1198 59.6875 28.9688 58.4948 28.5 57.625Z" fill="#CADBEA"/>
<path d="M36.2295 34.8857V43.2087L24.917 34.8857H36.2295Z" fill="#3B3A3A"/>
<path d="M30.021 128.557C34.0366 131.516 36.6303 134.828 35.797 135.948C34.9689 137.073 31.0418 135.589 27.021 132.63C23.0001 129.667 20.4116 126.359 21.2397 125.234C22.0731 124.109 26.0001 125.594 30.021 128.557Z" fill="#CADBEA"/>
<path d="M21.5002 10.87C23.62 12.4325 24.9845 14.1773 24.5522 14.771C24.1147 15.3648 22.0418 14.5783 19.922 13.0158C17.8022 11.4533 16.4377 9.70853 16.87 9.11999C17.3075 8.52624 19.3804 9.31269 21.5002 10.87Z" fill="#CADBEA"/>
<path d="M20.0053 21.2498C22.7137 23.2394 24.4533 25.4685 23.896 26.2289C23.3387 26.9842 20.6928 25.9842 17.9845 23.9894C15.2814 22.005 13.5366 19.7706 14.0991 19.0154C14.6564 18.255 17.3022 19.255 20.0053 21.2498Z" fill="#CADBEA"/>
<path d="M22.7604 57.6255C23.2865 58.2244 23.5365 58.7348 23.3594 58.9744C23.0573 59.3807 21.625 58.8442 20.1615 57.7609C20.099 57.714 20.0365 57.6723 19.974 57.6255C18.6146 56.5786 17.7657 55.4588 18.0521 55.0682C18.3594 54.6619 19.7917 55.1984 21.2552 56.2817C21.8646 56.7244 22.3802 57.1984 22.7604 57.6255Z" fill="#CADBEA"/>
<path d="M4.42212 74.8593C5.10442 75.2343 5.83358 75.703 6.56275 76.2395C9.26588 78.229 11.0107 80.4582 10.4482 81.2186C9.89087 81.9738 7.24504 80.9738 4.53671 78.979C4.51587 78.9634 4.48983 78.9426 4.46379 78.9218C1.80233 76.9478 0.0939996 74.7551 0.651292 74.0051C1.06275 73.453 2.58358 73.8384 4.42212 74.8593Z" fill="#CADBEA"/>
<path d="M4.54167 78.9844C7.24479 80.974 9.89062 81.9792 10.4531 81.224C11.0104 80.4635 9.26563 78.2344 6.56771 76.2448C5.83333 75.7031 5.10938 75.2396 4.42708 74.8646C4.42708 73.3594 4.42708 64.875 4.42708 64.6719C4.42708 64.4427 13.276 64.6719 13.276 64.6719V60.2969L16.6615 62.7865L23.6823 67.9583L30.7031 73.125L52.3646 89.0677C42.2031 88.8073 33.6979 85.7656 30.5677 85.6094C26.5417 85.4063 13.5208 83.651 4.42188 89.1719V78.9792L4.46875 78.9219C4.48958 78.9479 4.51563 78.9635 4.54167 78.9844Z" fill="#3B3A3A"/>
<path d="M75.7658 121.047C66.4065 121.047 58.0054 120.687 50.7242 119.979C19.7971 116.958 18.771 108.906 18.8752 107.323C19.0679 104.588 23.2867 103.297 27.0106 102.156L27.271 102.073C29.3596 101.432 31.9533 100.64 32.219 99.7029C32.245 99.6143 32.3283 99.3331 31.8856 98.8279C30.6773 97.4477 23.9117 96.9581 18.969 96.5987L19.021 95.8956C25.8179 96.3852 31.1252 96.88 32.4169 98.3591C32.8752 98.8904 33.0419 99.406 32.9013 99.9008C32.5575 101.114 30.5315 101.817 27.4794 102.755L27.219 102.833C23.7138 103.906 19.7398 105.125 19.5888 107.37C19.521 108.349 19.9742 110.916 25.6513 113.646C31.1408 116.291 39.6044 118.182 50.7919 119.276C59.5106 120.13 69.8388 120.474 81.5002 120.297C91.2138 120.156 100.297 119.713 108.5 118.989C118.719 118.083 127.38 116.765 134.245 115.073C143.141 112.885 146.61 110.614 146.875 109.333C146.917 109.14 146.917 108.844 146.479 108.505C144.214 106.776 141.422 104.182 140.938 101.635C140.719 100.5 140.979 99.4737 141.698 98.5831C143.776 96.0102 149.865 94.5883 159.792 94.3539C174.933 94.005 177.495 91.9164 177.672 90.6977C177.912 89.0883 174.151 86.8487 170.375 85.6143C169.839 85.4373 169.25 85.2862 168.63 85.1716C163.469 84.1925 156.766 85.5466 152.334 86.4373C151.287 86.6508 150.38 86.8331 149.604 86.9685C147 87.4112 142.719 86.2237 138.188 84.9737C134.646 83.9945 130.979 82.9789 128.25 82.8279C124.61 82.6352 118.703 84.7966 113.5 86.7081C110.047 87.9789 107.058 89.0779 105.245 89.2914C104.584 89.3695 103.901 89.4633 103.193 89.5518C101.964 89.7237 100.693 89.8904 99.3752 90.0154C96.6877 90.2654 93.1773 90.406 89.8231 89.2706L90.0471 88.6039C93.2763 89.6873 96.6929 89.5518 99.3075 89.307C100.61 89.1873 101.875 89.0154 103.099 88.8539C103.813 88.755 104.5 88.6612 105.167 88.5831C106.896 88.38 109.99 87.2445 113.261 86.0414C118.531 84.1039 124.511 81.906 128.297 82.1143C131.099 82.2706 134.802 83.2914 138.386 84.281C142.641 85.4633 147.042 86.6768 149.495 86.2602C150.261 86.13 151.156 85.9477 152.203 85.7393C156.693 84.8331 163.479 83.4581 168.771 84.4685C169.427 84.5935 170.042 84.7498 170.604 84.9373C173.459 85.8695 178.755 88.2966 178.386 90.7966C178.005 93.38 171.933 94.781 159.813 95.0623C150.104 95.2914 144.198 96.6195 142.255 99.0258C141.667 99.755 141.464 100.562 141.646 101.5C141.985 103.317 143.86 105.604 146.917 107.937C147.62 108.474 147.662 109.067 147.578 109.474C147.156 111.515 142.36 113.807 134.422 115.755C127.521 117.453 118.823 118.776 108.573 119.687C100.349 120.411 91.245 120.854 81.5158 121C79.5627 121.031 77.6408 121.047 75.7658 121.047Z" fill="black"/>
<path d="M18.9639 96.5985L17.5368 96.4943C7.8545 95.7964 1.46387 95.1766 0.776372 92.9058C0.526372 92.0829 1.03679 91.1871 2.33366 90.1766C2.93262 89.7079 3.57846 89.2652 4.24512 88.8641C12.417 83.9058 23.5628 84.7339 28.9222 85.1402C29.5785 85.1871 30.1357 85.2287 30.5837 85.2548C31.6878 85.3068 33.417 85.7027 35.6097 86.2131C39.8753 87.1923 45.7295 88.5464 52.3753 88.7131C56.5837 88.8225 60.5837 88.4266 64.266 87.5256L64.4326 88.2131C60.693 89.1246 56.6305 89.5308 52.3545 89.4214C45.6357 89.2496 39.7503 87.8954 35.4482 86.9006C33.292 86.4058 31.5889 86.01 30.5472 85.9631C30.0941 85.9423 29.5264 85.8954 28.8649 85.8485C23.5785 85.4527 12.5889 84.6298 4.6045 89.4735C3.96387 89.8589 3.34408 90.286 2.76596 90.7391C2.05762 91.286 1.25554 92.0725 1.44825 92.7027C2.0472 94.6766 10.6618 95.2912 17.5837 95.786L19.016 95.8902L18.9639 96.5985Z" fill="black"/>
<path d="M69.9741 102.609C69.4481 102.609 68.9377 102.604 68.4481 102.593C65.2814 102.526 62.9012 102.218 61.37 101.677L61.1304 101.588L61.1356 101.328C61.271 97.0205 62.7762 91.5726 64.0158 87.7653C64.6668 85.7445 65.422 83.6611 66.2502 81.5778C68.1929 76.7132 70.3647 72.3851 72.2033 69.708C73.146 68.3278 73.995 67.3903 74.7293 66.9163C74.7241 66.9163 74.7554 66.8955 74.8022 66.8695L75.12 67.5049L74.9585 67.1872L75.1564 67.4788L75.1304 67.4997C74.4585 67.9372 73.6772 68.807 72.7866 70.109C70.9741 72.7445 68.8335 77.0205 66.9064 81.8434C66.0783 83.9111 65.3335 85.9788 64.6825 87.9841C63.0002 93.1716 62.0002 97.807 61.8543 101.093C63.3179 101.562 65.5366 101.828 68.4637 101.89C70.7241 101.937 73.396 101.869 76.4064 101.682C78.4116 101.557 80.62 101.375 82.9741 101.146C86.4793 100.797 89.3543 100.427 90.7606 100.234C90.9064 100.218 91.0262 100.203 91.1356 100.187C90.8856 98.8434 90.0366 94.0049 89.5835 88.9788C89.3595 86.5413 89.2606 84.3695 89.2866 82.5309C89.3179 80.3278 89.5314 78.5778 89.922 77.3174L90.047 76.8955L90.4325 77.1143C94.5939 79.4632 97.4325 80.3486 99.0939 79.8278C99.771 79.6143 100.266 79.1663 100.604 78.458C101.552 76.4893 97.6825 71.8278 91.2033 67.1195C90.7137 66.7601 90.2085 66.4111 89.7345 66.083C88.6981 65.3695 87.5939 64.6611 86.4481 63.958L86.4116 63.9372L86.7554 63.3174L86.8231 63.359C87.9741 64.0622 89.0887 64.7809 90.1408 65.4997C90.62 65.833 91.1304 66.1872 91.62 66.5518C98.5991 71.6143 102.38 76.4111 101.25 78.7653C100.823 79.6455 100.172 80.2288 99.3127 80.4997C97.4793 81.0778 94.6668 80.2653 90.4845 77.9528C90.1929 79.109 90.0262 80.6455 90.0054 82.5413C89.9793 84.359 90.0731 86.5049 90.297 88.9111C90.8231 94.7653 91.8908 100.359 91.9012 100.416L91.9741 100.781L91.6095 100.833C91.6095 100.833 91.3439 100.875 90.8595 100.937C89.4533 101.13 86.5627 101.5 83.047 101.849C80.6877 102.083 78.4637 102.265 76.4585 102.39C74.0731 102.536 71.9064 102.609 69.9741 102.609Z" fill="black"/>
<path d="M91.8076 67.2552C91.5941 67.2552 91.4118 67.2187 91.2607 67.1458L91.568 66.5104C91.9899 66.7135 93.7087 66.1302 94.4066 64.9167L94.568 64.6406L95.0889 64.8698C95.042 64.4219 95.068 63.8594 95.4118 63.5052C95.4691 63.4427 95.5368 63.3802 95.6045 63.3073C96.0628 62.8542 96.7555 62.1667 96.6149 61.4427L96.6045 61.3854C96.6097 61.3958 96.6097 61.4115 96.6149 61.4219L96.6357 61.4167L97.2868 61.2031L97.3076 61.276C97.542 62.3854 96.641 63.276 96.0993 63.8125C96.0316 63.875 95.9743 63.9375 95.9222 63.9948C95.6722 64.2552 95.8076 65.026 95.9118 65.3594L96.1514 66.1042L94.8493 65.5365C94.1045 66.5729 92.7347 67.2552 91.8076 67.2552ZM97.2972 61.25L97.3076 61.2812C97.3024 61.2708 97.3024 61.2604 97.2972 61.25Z" fill="black"/>
<path d="M90.2139 66.016L89.667 65.5628C90.0368 65.1149 90.6149 64.5837 91.3441 64.0264C93.0732 62.693 95.2295 61.5107 96.8545 61.0107C97.3649 60.8545 97.8337 60.7555 98.2451 60.7295L97.5941 59.2868L98.2347 58.9951L99.3701 61.5003L98.7555 61.4378C98.318 61.391 97.7451 61.4743 97.0628 61.6878C95.516 62.167 93.4378 63.3024 91.7764 64.5889C91.0889 65.1149 90.5472 65.6097 90.2139 66.016Z" fill="black"/>
<path d="M62.1826 69.708L62.8493 68.2705C63.516 66.8382 65.0732 63.4945 65.1878 63.3278L65.7868 63.708C65.6982 63.8643 64.792 65.7861 64.0003 67.4893C65.0628 66.9736 66.5107 66.6143 68.2243 66.432C70.568 66.1872 73.1045 66.3538 75.016 66.8695C75.9014 67.1038 76.6357 67.4111 77.2087 67.7757C79.2347 64.6247 84.8597 63.5518 86.5837 63.2965C88.4326 63.0205 90.0837 62.9893 91.0316 63.2028C92.2607 60.9268 95.3701 59.557 97.8076 58.7965C99.6826 58.2132 101.568 57.8851 102.526 57.8695C103.37 55.4893 106.479 53.109 108.938 52.3955C106.318 51.4945 103.823 50.859 102.771 50.6038C102.006 50.4215 101.328 50.2757 100.912 50.208L101.026 49.5049C101.459 49.5778 102.157 49.7288 102.933 49.9163C104.177 50.2184 107.401 51.0413 110.495 52.208L112.485 52.9632L110.354 52.8955C108.104 52.8174 103.86 55.7184 103.125 58.3226L103.047 58.5934L102.761 58.5778C102.131 58.5361 100.193 58.7913 98.016 59.4684C96.0576 60.0778 92.5993 61.4528 91.5316 63.7653L91.3962 64.057L91.0889 63.9476C90.4743 63.734 88.8753 63.6559 86.6826 63.9945C83.1722 64.5153 78.9535 65.958 77.6253 68.4424L77.4274 68.8122L77.0993 68.557C76.5576 68.1455 75.7972 67.807 74.8232 67.5466C72.9899 67.0518 70.5524 66.8955 68.2868 67.1299C66.0837 67.3591 64.2972 67.9268 63.391 68.682L62.1826 69.708Z" fill="black"/>
<path d="M72.1092 53.5154C71.8384 53.5154 71.578 53.4737 71.3645 53.3904C71.1717 53.3123 70.9842 53.1664 70.8332 52.9737C70.5051 52.5518 70.3749 51.9789 70.4842 51.432C70.5936 50.8956 70.9842 50.1195 72.2238 49.4425C72.2967 49.406 72.3592 49.3643 72.427 49.3279C73.5103 48.6977 74.4686 47.9268 75.3957 47.182C76.4999 46.3018 77.4478 45.531 78.3957 45.182C81.177 44.156 84.2342 44.0831 86.2551 44.0362C87.2915 44.0102 88.1874 43.9893 88.4842 43.8487C89.703 43.2706 91.8905 43.6091 93.1665 44.2862C93.6457 44.5414 94.0467 44.9373 94.2655 45.3748C94.5155 45.8539 94.5363 46.3435 94.3176 46.7445C94.1353 47.0831 93.6978 47.5102 92.6561 47.6091L92.5884 46.906C93.1561 46.8487 93.5467 46.6716 93.6926 46.4112C93.8332 46.156 93.7134 45.8539 93.6301 45.7029C93.4686 45.3852 93.1822 45.1039 92.8332 44.9164C91.6145 44.2706 89.6874 44.0675 88.7863 44.4945C88.3436 44.6977 87.5207 44.7185 86.2655 44.7498C84.2915 44.7966 81.3124 44.8643 78.6405 45.8539C77.7967 46.1664 76.8905 46.8956 75.8332 47.7393C74.9322 48.4685 73.9061 49.2862 72.7759 49.9373C72.7082 49.9841 72.6301 50.0258 72.5467 50.0727C71.7655 50.4998 71.2863 51.0206 71.1717 51.5779C71.104 51.9216 71.1822 52.281 71.3801 52.5362C71.453 52.6352 71.5415 52.7029 71.6145 52.7341C72.1613 52.9529 73.3228 52.7029 73.9999 52.0466L74.4895 52.557C73.8801 53.1508 72.9165 53.5154 72.1092 53.5154Z" fill="black"/>
<path d="M66.2708 63.9896C66 63.9896 65.6719 63.9688 65.3698 63.8594C64.9635 63.724 64.6667 63.4532 64.5208 63.0834C64.25 62.4063 64.4688 61.4167 65.1875 60.0469C66.1563 58.2084 67.6771 55.6876 70.8594 52.5001L71.1302 52.7292L71.3802 52.9792C68.2448 56.1199 66.7604 58.5834 65.8177 60.3751C65.0573 61.8126 65.0521 62.5001 65.1771 62.8178C65.25 63.0001 65.3802 63.1146 65.599 63.1876C65.8906 63.2917 66.2604 63.2813 66.5052 63.2709H66.5521C66.8906 63.2605 68.1823 62.698 69.2188 62.2501C70.2604 61.7917 71.3385 61.3282 72 61.1459C72.9271 60.8907 73.9271 61.2605 74.8958 61.6146C75.5052 61.8386 76.0885 62.0521 76.5885 62.0834C77.776 62.1563 79.9792 60.7709 80.8229 60.0053C82.0573 58.9011 83.1667 58.6771 85.1927 58.5886L85.2188 58.5834H85.2448C86.3906 58.5157 87.349 57.7032 88.2708 56.9167C88.7917 56.4688 89.2813 56.0469 89.7917 55.7865C90.4323 55.448 91.5729 55.5001 93.0104 55.5678C94.8385 55.6511 97.1146 55.7501 98.6458 54.9688C100.391 54.0782 100.865 51.7396 100.568 49.948C100.448 49.2501 100.214 48.6511 99.9271 48.3074C98.5365 46.6615 95.7396 45.7292 94 45.8959L93.9323 45.1928C95.8438 45.0105 98.8854 45.974 100.469 47.849C100.844 48.2969 101.125 49.0001 101.266 49.8334C101.62 51.9376 101.042 54.5417 98.9688 55.599C97.2708 56.4688 94.8906 56.3594 92.974 56.2709C91.7448 56.2136 90.5885 56.1615 90.1146 56.4115C89.6771 56.6355 89.2188 57.0313 88.7292 57.448C87.7708 58.2709 86.6823 59.2032 85.3021 59.2917C85.276 59.2969 85.2396 59.2969 85.2135 59.2969C83.3385 59.3751 82.375 59.5626 81.3073 60.5261C80.4115 61.3334 78.026 62.8855 76.5521 62.7865C75.9479 62.7501 75.2917 62.5105 74.6563 62.2761C73.7917 61.9584 72.901 61.6303 72.1927 61.823C71.5781 61.9949 70.526 62.4532 69.5052 62.8959C67.9896 63.5574 67.0365 63.9636 66.5833 63.9844H66.5313C66.4479 63.9844 66.3646 63.9896 66.2708 63.9896Z" fill="black"/>
<path d="M76.328 58.8962C76.0155 58.8962 75.7238 58.8545 75.453 58.7764C74.6457 58.542 74.1665 58.0003 74.1769 57.3232L74.8853 57.3337C74.88 57.818 75.4165 58.0316 75.6509 58.0993C76.6144 58.3805 78.0311 58.042 78.755 56.8701L79.3592 57.2399C78.6561 58.3857 77.4165 58.891 76.328 58.8962Z" fill="black"/>
<path d="M88.771 52.7757C87.7033 52.7757 86.672 52.5778 86.0054 52.1351L86.4012 51.5465C87.6564 52.3851 90.6981 52.1403 91.9741 51.3486C92.1512 51.2393 92.4429 51.0257 92.4116 50.8018L93.1147 50.708C93.1564 51.0309 93.0575 51.5101 92.3491 51.9528C91.5106 52.4632 90.1095 52.7757 88.771 52.7757Z" fill="black"/>
<path d="M168.63 85.1716C168.339 85.1091 168.339 85.1091 168.328 83.3538C168.323 82.4216 168.323 81.0934 168.318 79.4945C168.313 76.3018 168.318 72.0413 168.323 67.7809C168.328 60.3122 168.344 52.8434 168.349 51.1195L147.328 51.9268V63.9841H137.104V47.5518H130.391V27.5153H103.214V42.3747H102.505V26.8018H131.099V46.8434H137.813V63.2705H146.62V51.2445L169.057 50.3903V50.7601C169.037 62.2549 169.005 84.1611 169.052 84.7809L168.703 84.8122L168.63 85.1716Z" fill="black"/>
<path d="M4.7762 75.0885H4.06787V64.5208L4.17725 64.4062C4.31266 64.276 4.48975 64.0938 12.9116 64.3021V34.5312H36.5783V57.4427H40.9481V67.3385H49.1929V45.1667H72.745V49.7552H72.0366V45.875H49.9012V68.0469H40.2345V58.151H35.87V35.2396H13.6252V65.0312L13.2658 65.0208C10.4168 64.9531 5.89079 64.875 4.78141 64.9583V75.0885H4.7762Z" fill="black"/>
<path d="M62.3595 108.547L62.0679 107.901C63.6616 107.182 65.4116 106.823 67.422 106.807C69.0939 106.792 70.6981 107.011 72.1095 107.203C73.0835 107.339 74.0054 107.464 74.8022 107.49C75.8231 107.526 76.521 107.38 77.0002 107.031L77.4168 107.61C76.797 108.047 75.9585 108.24 74.7814 108.198C73.9481 108.172 73.0106 108.047 72.0158 107.906C70.6304 107.714 69.0575 107.5 67.4325 107.516C65.521 107.526 63.8647 107.87 62.3595 108.547Z" fill="black"/>
<path d="M67.0781 107.093L68.1094 102.192L68.8021 102.338L67.7708 107.239L67.0781 107.093Z" fill="black"/>
<path d="M74.4429 107.75L76.0887 101.942L76.771 102.135L75.1252 107.942L74.4429 107.75Z" fill="black"/>
<path d="M82.6982 101.662L83.3232 101.323L86.4222 106.985L85.7972 107.323L82.6982 101.662Z" fill="black"/>
<path d="M94.3752 107.334L94.3335 107.256L90.5054 100.761L91.12 100.401L94.995 106.979L94.3752 107.334Z" fill="black"/>
<path d="M81.6304 108.172L81.3804 107.511C82.0783 107.245 83.9585 106.782 85.9481 106.568C87.245 106.433 88.3752 106.422 89.3022 106.537C90.5887 106.698 92.4793 106.766 94.6356 106.729C96.37 106.693 97.9793 106.599 98.9429 106.469L99.0366 107.167C98.047 107.302 96.4064 107.401 94.646 107.438C93.3804 107.459 90.995 107.464 89.2137 107.24C88.3387 107.131 87.2606 107.146 86.021 107.271C84.1147 107.479 82.2762 107.933 81.6304 108.172Z" fill="black"/>
<path d="M127.615 103.14C125.604 103.14 123.625 102.989 121.719 102.604L121.865 101.906C126.833 102.922 132.38 102.26 137.75 101.614C138.969 101.468 140.12 101.333 141.26 101.213C144.99 100.823 148.833 100.619 151.646 101.698L151.391 102.359C148.714 101.328 144.979 101.541 141.328 101.916C140.193 102.036 139.052 102.172 137.833 102.317C134.443 102.729 130.979 103.14 127.615 103.14Z" fill="black"/>
<path d="M46.625 111.24C43.5 111.24 40.401 110.771 37.4479 110.224C36.2969 110.011 35.1094 109.776 33.9635 109.552C29.2396 108.615 24.3594 107.641 19.2396 107.698C15.4323 107.74 11.9219 108.339 8.5 109.537L8.26562 108.865C11.7552 107.641 15.3437 107.031 19.2292 106.99C24.4167 106.932 29.3438 107.912 34.099 108.849C35.2448 109.078 36.4271 109.313 37.5729 109.526C41.7812 110.302 46.2865 110.927 50.7031 110.224L50.8125 110.922C49.4167 111.141 48.0156 111.24 46.625 111.24Z" fill="black"/>
<path d="M16.1304 41.7607H32.1512V42.4743H16.1304V41.7607Z" fill="black"/>
<path d="M16.1304 46.9326H32.1512V47.641H16.1304V46.9326Z" fill="black"/>
<path d="M16.1304 52.0986H32.1512V52.807H16.1304V52.0986Z" fill="black"/>
<path d="M28.5055 57.974H22.7607V57.2656H28.5003L28.5055 57.974Z" fill="black"/>
<path d="M16.1304 62.4375H32.1512V63.1458H16.1304V62.4375Z" fill="black"/>
<path d="M16.1304 67.6045H32.1512V68.3128H16.1304V67.6045Z" fill="black"/>
<path d="M16.1304 72.7705H32.1512V73.4788H16.1304V72.7705Z" fill="black"/>
<path d="M16.1304 77.9375H32.1512V78.6458H16.1304V77.9375Z" fill="black"/>
<path d="M108.568 52.792H109.276V64.6514H108.568V52.792Z" fill="black"/>
<path d="M108.568 35.8955H109.276V51.8955H108.568V35.8955Z" fill="black"/>
<path d="M113.886 35.8955H114.594V76.083H113.886V35.8955Z" fill="black"/>
<path d="M119.214 35.8955H119.922V76.083H119.214V35.8955Z" fill="black"/>
<path d="M124.542 35.8955H125.256V76.083H124.542V35.8955Z" fill="black"/>
<path d="M151.162 56.5732H151.87V61.7347H151.162V56.5732Z" fill="black"/>
<path d="M155.37 56.5732H156.078V61.7347H155.37V56.5732Z" fill="black"/>
<path d="M159.578 56.5732H160.286V61.7347H159.578V56.5732Z" fill="black"/>
<path d="M163.787 56.5732H164.495V61.7347H163.787V56.5732Z" fill="black"/>
<path d="M53.6045 51.9951H54.3128V57.1566H53.6045V51.9951Z" fill="black"/>
<path d="M57.8125 51.9951H58.5208V57.1566H57.8125V51.9951Z" fill="black"/>
<path d="M62.0156 51.9951H62.7292V57.1566H62.0156V51.9951Z" fill="black"/>
<path d="M66.2295 51.9951H66.9378V57.1566H66.2295V51.9951Z" fill="black"/>
<path d="M53.6045 61.0518H54.3128V66.2184H53.6045V61.0518Z" fill="black"/>
<path d="M57.8125 61.0518H58.5208V66.2184H57.8125V61.0518Z" fill="black"/>
<path d="M62.0156 61.0518H62.7292V66.2184H62.0156V61.0518Z" fill="black"/>
<path d="M53.6045 70.1094H54.3128V75.2708H53.6045V70.1094Z" fill="black"/>
<path d="M57.8125 70.1094H58.5208V75.2708H57.8125V70.1094Z" fill="black"/>
<path d="M62.0156 70.1094H62.7292V75.2708H62.0156V70.1094Z" fill="black"/>
<path d="M66.2295 70.1094H66.9378V75.2708H66.2295V70.1094Z" fill="black"/>
<path d="M53.6045 79.167H54.3128V84.3285H53.6045V79.167Z" fill="black"/>
<path d="M57.8125 79.167H58.5208V84.3285H57.8125V79.167Z" fill="black"/>
<path d="M62.0156 79.167H62.7292V84.3285H62.0156V79.167Z" fill="black"/>
<path d="M66.2295 79.167H66.9378V81.7035H66.2295V79.167Z" fill="black"/>
<path d="M151.162 65.3018H151.87V70.4684H151.162V65.3018Z" fill="black"/>
<path d="M155.37 65.3018H156.078V70.4684H155.37V65.3018Z" fill="black"/>
<path d="M159.578 65.3018H160.286V70.4684H159.578V65.3018Z" fill="black"/>
<path d="M163.787 65.3018H164.495V70.4684H163.787V65.3018Z" fill="black"/>
<path d="M151.162 74.042H151.87V79.2035H151.162V74.042Z" fill="black"/>
<path d="M155.37 74.042H156.078V79.2035H155.37V74.042Z" fill="black"/>
<path d="M159.578 74.042H160.286V79.2035H159.578V74.042Z" fill="black"/>
<path d="M163.787 74.042H164.495V79.2035H163.787V74.042Z" fill="black"/>
<path d="M133.438 68.3643H146.693V69.0726H133.438V68.3643Z" fill="black"/>
<path d="M133.438 72.8125H146.693V73.5208H133.438V72.8125Z" fill="black"/>
<path d="M133.438 77.2607H146.693V77.9691H133.438V77.2607Z" fill="black"/>
<path d="M98.3127 95.3337C97.5835 95.3337 96.8647 95.266 96.1616 95.0993L96.3283 94.4066C98.6981 94.9639 101.386 94.3285 103.979 93.7087C104.297 93.6305 104.615 93.5576 104.922 93.4847C108.068 92.7555 111.089 92.2399 113.5 94.0055L113.083 94.5785C110.912 92.9951 108.057 93.4847 105.083 94.1774C104.771 94.2503 104.458 94.3232 104.146 94.3962C102.208 94.8597 100.224 95.3337 98.3127 95.3337Z" fill="black"/>
<path d="M51.2243 94.8334C50.5264 94.8334 49.8441 94.797 49.1826 94.7084L49.2764 94.0053C51.9326 94.3543 55.0576 93.8543 57.818 93.4168C59.8857 93.0886 61.6722 92.8022 62.8076 92.9688L62.7087 93.672C61.6774 93.5261 59.943 93.8022 57.9274 94.1199C55.792 94.4584 53.4378 94.8334 51.2243 94.8334Z" fill="black"/>
<path d="M0.526367 17.3753L0.948242 16.8076L37.4847 43.693L37.0628 44.266L0.526367 17.3753Z" fill="black"/>
<path d="M39.1875 25.4743L39.6094 24.9014L88.3229 60.7503L87.9062 61.3232L39.1875 25.4743Z" fill="black"/>
<path d="M46.4844 2.85905L46.9062 2.28613L81.9115 28.0466L81.4896 28.6195L46.4844 2.85905Z" fill="black"/>
<path d="M117.297 4.66634L117.714 4.09863L153.719 30.5986L153.297 31.1663L117.297 4.66634Z" fill="black"/>
<path d="M117.083 43.6979L117.505 43.125L154.386 70.2656L153.964 70.8385L117.083 43.6979Z" fill="black"/>
<path d="M66.6045 66.0104L67.0264 65.4375L143.011 121.354L142.589 121.922L66.6045 66.0104Z" fill="black"/>
<path d="M12.5732 91.9583L12.9951 91.3906L77.5368 138.885L77.1149 139.453L12.5732 91.9583Z" fill="black"/>
<path d="M100.891 11.8434L101.312 11.2705L125.109 28.7861L124.688 29.3591L100.891 11.8434Z" fill="black"/>
<mask id="mask3_5546_11873" style="mask-type:luminance" maskUnits="userSpaceOnUse" x="79" y="128" width="28" height="20">
<path d="M79.667 128.333H106.334V147.422H79.667V128.333Z" fill="white"/>
</mask>
<g mask="url(#mask3_5546_11873)">
<path d="M80.3647 129.083L80.7866 128.51L105.141 146.437L104.719 147.01L80.3647 129.083Z" fill="black"/>
</g>
<path d="M100.781 114.073L101.203 113.5L117.854 125.755L117.432 126.328L100.781 114.073Z" fill="black"/>
<path d="M7.07324 56.1715L7.49512 55.5986L56.2087 91.4528L55.7868 92.0257L7.07324 56.1715Z" fill="black"/>
<path d="M23.2294 26.8334C22.0315 26.8334 19.9013 25.8438 17.7763 24.2761C15.4794 22.5938 13.8283 20.698 13.6513 19.573C13.6044 19.2709 13.6617 19.0105 13.8075 18.8074C14.4169 17.9845 16.8127 18.4584 20.2138 20.9636C22.5106 22.6511 24.1617 24.547 24.3335 25.672C24.3804 25.9741 24.3283 26.2345 24.1773 26.4376C24.0263 26.6407 23.7971 26.7709 23.495 26.8126C23.4117 26.823 23.3231 26.8334 23.2294 26.8334ZM14.7554 19.1147C14.5627 19.1147 14.4377 19.1511 14.3804 19.2293C14.3388 19.2813 14.344 19.3855 14.3596 19.4636C14.4794 20.2553 15.8388 21.9688 18.1981 23.7084C20.5627 25.448 22.5992 26.2345 23.3908 26.1147C23.469 26.1043 23.5679 26.073 23.6096 26.0157C23.6513 25.9584 23.6513 25.8543 23.6356 25.7761C23.5158 24.9845 22.1565 23.2761 19.7919 21.5366C17.4013 19.7709 15.5367 19.1147 14.7554 19.1147Z" fill="black"/>
<path d="M69.6719 35.0155C68.474 35.0155 66.349 34.0259 64.2188 32.4582C61.9271 30.7759 60.2709 28.8801 60.099 27.7551C60.0521 27.453 60.1094 27.1926 60.2553 26.9895C61.0626 25.9009 64.0886 27.2499 66.6615 29.1509C68.9584 30.8332 70.6094 32.7291 70.7813 33.8541C70.8282 34.1561 70.7761 34.4166 70.6251 34.6197C70.474 34.8228 70.2448 34.953 69.9428 34.9999C69.8594 35.0103 69.7709 35.0155 69.6719 35.0155ZM61.2032 27.302C61.0105 27.302 60.8803 27.3384 60.8282 27.4114C60.7865 27.4686 60.7865 27.5728 60.8021 27.6509C60.9219 28.4426 62.2813 30.1561 64.6459 31.8957C67.0053 33.6353 69.0469 34.4218 69.8334 34.302C69.9115 34.2864 70.0105 34.2603 70.0521 34.203C70.099 34.1457 70.0938 34.0416 70.0782 33.9634C69.9584 33.1718 68.599 31.4634 66.2396 29.7239C63.849 27.953 61.9844 27.302 61.2032 27.302Z" fill="black"/>
<path d="M24.0154 15.3225C22.9425 15.3225 21.1925 14.4006 19.7081 13.3068C17.7238 11.8433 15.8956 9.84331 16.5831 8.90581C16.6717 8.78601 16.8436 8.62976 17.1717 8.57768C18.0831 8.43706 19.8696 9.22352 21.7081 10.5777C23.6977 12.0464 25.5206 14.0464 24.8384 14.9787C24.6613 15.2183 24.3748 15.3225 24.0154 15.3225ZM17.4061 9.2756C17.3644 9.2756 17.3175 9.28081 17.2759 9.28602C17.1977 9.29643 17.1613 9.32247 17.1509 9.33289C16.9842 9.56206 17.8175 11.036 20.1248 12.7391C22.4634 14.4631 24.0779 14.8016 24.2602 14.5673C24.4321 14.3277 23.6248 12.885 21.2811 11.161C19.5727 9.89018 18.0884 9.2756 17.4061 9.2756Z" fill="black"/>
<path d="M36.0262 63.2443C34.8855 63.2443 33.0105 62.2548 31.4168 61.0829C29.9012 59.9631 28.6928 58.7339 28.1876 57.7912C27.8699 57.2027 27.8335 56.7391 28.0783 56.4058C28.1668 56.2808 28.3491 56.1193 28.6876 56.0673C29.6564 55.9162 31.5678 56.7548 33.5418 58.2079C35.6564 59.7704 37.6043 61.8954 36.8855 62.885C36.698 63.135 36.4012 63.2443 36.0262 63.2443ZM28.9376 56.76C28.8855 56.76 28.8387 56.7652 28.797 56.7704C28.7189 56.7808 28.6668 56.8016 28.646 56.8329C28.6199 56.8693 28.5939 57.0568 28.8126 57.4579C29.2605 58.3016 30.4272 59.4735 31.8387 60.5152C34.3647 62.3798 36.1147 62.7287 36.3074 62.4683C36.5001 62.2079 35.6408 60.6402 33.1199 58.7808C31.271 57.4214 29.672 56.76 28.9376 56.76Z" fill="black"/>
<path d="M9.77607 81.8174C8.46878 81.8174 6.27607 80.6976 4.33337 79.2654C4.30212 79.2445 4.27087 79.2237 4.23441 79.1872C1.80212 77.3851 -0.463509 74.9164 0.369824 73.7914C1.11982 72.7758 3.57816 73.9789 4.59378 74.5466C5.31774 74.9424 6.04691 75.4164 6.77087 75.9476C8.1042 76.932 9.25524 78.0049 10.0104 78.9685C10.875 80.0779 11.1198 80.906 10.7344 81.4268C10.5365 81.6976 10.2032 81.8174 9.77607 81.8174ZM1.32816 74.1091C1.11462 74.1091 0.984407 74.156 0.937533 74.2185C0.671907 74.5779 1.75003 76.4685 4.67712 78.6404C4.71357 78.6716 4.7292 78.682 4.74482 78.6924C7.73441 80.8956 9.89066 81.3799 10.1615 81.0101C10.25 80.8904 10.2188 80.3956 9.44795 79.4164C8.73441 78.4997 7.63545 77.4737 6.3542 76.531C5.65628 76.0154 4.94795 75.5622 4.25524 75.1768C2.76045 74.3435 1.81774 74.1091 1.32816 74.1091Z" fill="black"/>
<path d="M53.922 107.938C52.9064 107.938 51.297 106.974 50.3126 106.245C49.0262 105.297 47.0262 103.443 47.7085 102.516C47.7918 102.406 47.9481 102.266 48.2345 102.224C49.0054 102.104 50.5001 102.76 52.047 103.891C52.9168 104.536 53.6772 105.24 54.172 105.88C54.7762 106.646 54.9376 107.234 54.646 107.625V107.63C54.4845 107.844 54.2293 107.938 53.922 107.938ZM48.422 102.911C48.3491 102.911 48.297 102.922 48.271 102.943C48.2085 103.146 48.8283 104.276 50.7293 105.677C52.6095 107.063 53.8647 107.328 54.0731 107.203C54.1251 106.964 53.5001 105.849 51.6199 104.469C50.0054 103.276 48.8491 102.911 48.422 102.911Z" fill="black"/>
<path d="M81.4323 118.953C80.2344 118.953 78.1041 117.963 75.9791 116.401C72.5729 113.895 71.4114 111.755 72.0104 110.927C72.3906 110.406 73.2552 110.395 74.5729 110.89C75.7135 111.328 77.0781 112.104 78.4166 113.088C79.75 114.072 80.901 115.14 81.651 116.109C82.5208 117.213 82.7656 118.041 82.3802 118.557C82.2291 118.76 82 118.89 81.6927 118.937C81.6146 118.947 81.526 118.953 81.4323 118.953ZM72.9791 111.239C72.75 111.239 72.6302 111.291 72.5885 111.349C72.3177 111.718 73.4166 113.635 76.401 115.828C78.7656 117.567 80.8021 118.354 81.5937 118.234C81.6719 118.224 81.7708 118.197 81.8125 118.14C81.901 118.015 81.8646 117.531 81.0937 116.546C80.3802 115.63 79.276 114.609 77.9948 113.661C76.7135 112.718 75.4062 111.974 74.3229 111.557C73.6875 111.317 73.2552 111.239 72.9791 111.239Z" fill="black"/>
<path d="M134.646 130.755C133.448 130.755 131.323 129.765 129.193 128.203C127.859 127.218 126.708 126.145 125.958 125.182C125.094 124.073 124.844 123.25 125.229 122.729C125.38 122.526 125.615 122.395 125.917 122.354C127.036 122.182 129.339 123.198 131.63 124.89C133.927 126.573 135.583 128.468 135.755 129.593C135.802 129.895 135.75 130.156 135.599 130.359C135.448 130.562 135.219 130.692 134.917 130.739C134.828 130.75 134.74 130.755 134.646 130.755ZM126.198 123.041C126.135 123.041 126.078 123.041 126.021 123.052C125.943 123.062 125.844 123.088 125.802 123.145C125.714 123.265 125.75 123.755 126.516 124.744C127.234 125.661 128.333 126.682 129.62 127.625C131.984 129.364 134.021 130.156 134.807 130.031C134.885 130.02 134.984 129.994 135.031 129.937C135.073 129.88 135.068 129.776 135.052 129.698C134.932 128.906 133.573 127.198 131.214 125.458C129.01 123.833 127.083 123.041 126.198 123.041Z" fill="black"/>
<path d="M138.297 95.9216C137.271 95.9216 135.604 95.0518 134.182 94.0101C132.292 92.6143 130.552 90.7028 131.214 89.8018C131.526 89.3747 132.203 89.3539 133.224 89.7445C134.089 90.0674 135.109 90.656 136.115 91.3903C137.87 92.6872 139.089 94.0883 139.219 94.9581C139.266 95.2706 139.172 95.4789 139.083 95.5935C138.917 95.8226 138.641 95.9216 138.297 95.9216ZM132 90.1768C131.859 90.1768 131.792 90.2081 131.781 90.2185C131.625 90.4372 132.422 91.8278 134.604 93.4372C136.792 95.0466 138.354 95.3903 138.51 95.1768C138.516 95.1716 138.526 95.1403 138.516 95.0674C138.432 94.5153 137.411 93.2393 135.687 91.9685C134.734 91.2706 133.776 90.7185 132.969 90.4112C132.49 90.2237 132.182 90.1768 132 90.1768Z" fill="black"/>
<path d="M34.8021 136.672C32.9115 136.672 29.6198 134.984 26.8126 132.922C23.1407 130.218 19.8438 126.536 20.9532 125.026C21.1511 124.76 21.4532 124.593 21.8594 124.531C23.4948 124.281 26.8594 125.786 30.2292 128.27C33.6042 130.755 36.0365 133.52 36.2865 135.151C36.349 135.557 36.2813 135.895 36.0834 136.161C35.823 136.515 35.3803 136.672 34.8021 136.672ZM22.2396 125.213C22.1407 125.213 22.0469 125.218 21.9688 125.234C21.7553 125.265 21.6094 125.333 21.5261 125.442C20.9896 126.172 22.9011 129.151 27.2344 132.343C31.5678 135.526 34.974 136.468 35.5157 135.734C35.5938 135.63 35.6198 135.463 35.5834 135.25C35.4063 134.036 33.3594 131.448 29.8073 128.833C26.5053 126.406 23.599 125.213 22.2396 125.213Z" fill="black"/>
<path d="M113.026 70.8488C111.875 70.8488 110.078 69.9685 108.604 69.0102C108.266 68.7915 107.922 68.5467 107.578 68.2967C105.281 66.6092 103.625 64.7133 103.459 63.5935C103.412 63.2863 103.464 63.031 103.615 62.8279C104.391 61.7863 107.058 62.9998 109.115 64.354C109.401 64.5415 109.693 64.7498 110.021 64.9842C112.313 66.6769 113.974 68.5675 114.141 69.6925C114.188 69.9946 114.13 70.255 113.979 70.4581C113.781 70.7342 113.443 70.8488 113.026 70.8488ZM104.568 63.1352C104.365 63.1352 104.235 63.1821 104.188 63.2498C104.141 63.3071 104.146 63.4113 104.156 63.4842C104.276 64.2758 105.63 65.9842 107.995 67.7238C108.328 67.9685 108.667 68.2029 108.99 68.4165C111.636 70.1352 113.193 70.3227 113.406 70.031C113.453 69.9738 113.443 69.8696 113.433 69.7967C113.318 69.005 111.959 67.2967 109.594 65.5519C109.281 65.3227 108.995 65.1196 108.724 64.9425H108.719C106.646 63.5779 105.224 63.1352 104.568 63.1352Z" fill="black"/>
<path d="M105.312 46.052C104.437 46.052 103.125 45.2291 102.656 44.9114C102.526 44.8228 102.401 44.7343 102.271 44.6405C101.177 43.8332 99.4895 42.2603 100.088 41.4478C100.635 40.6926 102.333 41.6353 103.042 42.0728L103.047 42.078C103.328 42.2551 103.562 42.4166 103.781 42.578C104.766 43.302 105.958 44.4322 106.078 45.2395C106.115 45.4999 106.036 45.6718 105.963 45.7707C105.818 45.9739 105.583 46.052 105.312 46.052ZM100.672 41.8749C100.698 42.1249 101.25 43.0051 102.687 44.0676C102.807 44.1561 102.932 44.2395 103.057 44.3228C104.281 45.1509 105.151 45.3853 105.38 45.3436C105.354 45.0832 104.797 44.203 103.365 43.1509C103.161 42.9999 102.932 42.8436 102.667 42.677C101.542 41.9791 100.865 41.8332 100.672 41.8749Z" fill="black"/>
<path d="M132.703 140.208C132.453 140.208 132.146 140.14 131.781 140C131.146 139.76 130.396 139.333 129.656 138.791C128.568 137.989 126.88 136.411 127.479 135.599C128.073 134.797 130.083 135.937 131.177 136.734C132.266 137.536 133.953 139.114 133.359 139.927C133.219 140.114 133 140.208 132.703 140.208ZM128.057 136.031C128.089 136.286 128.641 137.166 130.073 138.224C131.51 139.276 132.516 139.547 132.771 139.5C132.745 139.244 132.187 138.364 130.75 137.307C129.318 136.255 128.312 135.984 128.057 136.031Z" fill="black"/>
<path d="M140.75 11.8382C139.886 11.8382 138.531 11.0309 137.703 10.4215C136.609 9.61941 134.927 8.0465 135.521 7.234C135.594 7.13504 135.74 6.99962 136 6.96316C136.802 6.83816 138.234 7.64024 139.219 8.3642C140.203 9.08816 141.396 10.2236 141.516 11.0257C141.557 11.2861 141.474 11.458 141.396 11.5621C141.25 11.76 141.026 11.8382 140.75 11.8382ZM136.104 7.66629C136.13 7.91629 136.688 8.7965 138.125 9.85379C139.557 10.9111 140.563 11.1819 140.813 11.1298C140.787 10.8746 140.234 9.99962 138.792 8.94233C137.359 7.87983 136.359 7.6142 136.104 7.66629Z" fill="black"/>
<path d="M22.9947 59.4634C22.1301 59.4634 20.7759 58.6561 19.9478 58.0467C19.8853 57.9998 19.8228 57.953 19.7551 57.9061C18.5103 56.9478 17.2395 55.5728 17.7655 54.8592C18.3697 54.0467 20.3749 55.1873 21.4634 55.9946C22.0728 56.4373 22.6093 56.9217 23.0207 57.3905C23.7239 58.1873 23.9322 58.7863 23.6457 59.1821C23.4999 59.38 23.2759 59.4634 22.9947 59.4634ZM18.3489 55.2863C18.3749 55.5415 18.9114 56.3592 20.1874 57.3436C20.2447 57.3853 20.3072 57.4321 20.3645 57.4738C21.7968 58.5259 22.802 58.8019 23.0572 58.755C23.0416 58.6405 22.9218 58.3488 22.4895 57.854C22.1145 57.4321 21.5989 56.9686 21.0416 56.5623C19.6093 55.505 18.6041 55.2394 18.3489 55.2863Z" fill="black"/>
<path d="M102.307 24.6458C101.229 24.6458 99.4741 23.7239 97.9741 22.6249C95.9793 21.1562 94.146 19.151 94.8387 18.2083C94.9272 18.0885 95.0991 17.9322 95.422 17.8854C96.3439 17.7395 98.1356 18.5312 99.9845 19.8958C101.839 21.2604 103.125 22.7291 103.261 23.651C103.313 23.9791 103.214 24.1926 103.125 24.3124C102.953 24.5468 102.672 24.6458 102.307 24.6458ZM95.6564 18.5729C95.6095 18.5729 95.5731 18.5729 95.5314 18.5781C95.4533 18.5885 95.4168 18.6145 95.4116 18.6249C95.2345 18.8645 96.0418 20.3176 98.396 22.052C100.755 23.7812 102.38 24.1197 102.552 23.8854C102.557 23.8749 102.573 23.8333 102.557 23.7551C102.469 23.1614 101.391 21.8072 99.5627 20.4635C97.8595 19.2031 96.3283 18.5729 95.6564 18.5729Z" fill="black"/>
<path d="M154.099 14.0158C153.74 14.0158 153.286 13.9116 152.75 13.7085C151.797 13.3491 150.661 12.7033 149.552 11.8856C147.458 10.3439 145.531 8.23975 146.25 7.26579C146.583 6.80745 147.323 6.79183 148.443 7.2137C149.391 7.57308 150.531 8.22412 151.641 9.04183C153.734 10.5783 155.656 12.6825 154.943 13.6616C154.766 13.896 154.484 14.0158 154.099 14.0158ZM147.089 7.61995C146.932 7.61995 146.849 7.65641 146.823 7.68766C146.635 7.94287 147.484 9.48454 149.969 11.3127C151.026 12.0939 152.104 12.7085 153 13.047C153.891 13.3856 154.307 13.3231 154.37 13.2397C154.552 12.9845 153.708 11.4429 151.219 9.60954C150.161 8.82829 149.089 8.21891 148.193 7.88037C147.667 7.68246 147.313 7.61995 147.089 7.61995Z" fill="black"/>
<path d="M148.073 47.5993C146.953 47.5993 145.047 46.8441 142.641 45.0732C139.234 42.568 138.068 40.4222 138.672 39.5993C139.276 38.7764 141.672 39.2555 145.078 41.7607C148.479 44.2659 149.646 46.4118 149.042 47.2347C148.865 47.4691 148.536 47.5993 148.073 47.5993ZM139.615 39.9066C139.422 39.9066 139.297 39.943 139.245 40.0159C138.974 40.3857 140.078 42.3024 143.057 44.5003C146.047 46.6982 148.198 47.1774 148.469 46.8076C148.74 46.4378 147.641 44.5264 144.656 42.3284C142.255 40.568 140.396 39.9066 139.615 39.9066Z" fill="black"/>
<mask id="mask4_5546_11873" style="mask-type:luminance" maskUnits="userSpaceOnUse" x="66" y="0" width="9" height="7">
<path d="M66.3335 0.421875H74.3335V7H66.3335V0.421875Z" fill="white"/>
</mask>
<g mask="url(#mask4_5546_11873)">
<path d="M73.4066 5.9949C72.6306 5.9949 71.3181 5.38552 69.9691 4.39073C68.5056 3.31781 67.4847 2.14594 67.3754 1.40115C67.3337 1.1199 67.417 0.937604 67.4952 0.828229C67.5733 0.724063 67.7243 0.588646 68.0056 0.541771C68.7452 0.427187 70.167 1.05219 71.6306 2.13031C73.0941 3.20844 74.115 4.38031 74.2243 5.1199C74.266 5.39594 74.1827 5.58865 74.1045 5.69281C74.0264 5.80219 73.8702 5.9376 73.5941 5.98448C73.5368 5.98969 73.4743 5.9949 73.4066 5.9949ZM68.2035 1.22927C68.141 1.22927 68.0889 1.23969 68.0629 1.26052C68.0212 1.44802 68.6254 2.52094 70.391 3.82302C72.016 5.01573 73.2764 5.39594 73.5316 5.27094C73.5629 5.03656 72.9483 3.97406 71.2191 2.70323C69.7816 1.64594 68.6306 1.22927 68.2035 1.22927ZM73.542 5.26052C73.542 5.26573 73.542 5.26573 73.542 5.26052V5.26052Z" fill="black"/>
</g>
<path d="M16.2139 57.2656H19.9743V57.974H16.2139V57.2656Z" fill="black"/>
<path d="M108.443 68.7139H109.151V76.0837H108.443V68.7139Z" fill="black"/>
<path d="M102.505 50.2757V44.6143H103.208V50.2653L102.505 50.2757Z" fill="black"/>
<path d="M4.06787 78.9844H4.7762V89.1719H4.06787V78.9844Z" fill="black"/>
</svg>
