<svg width="254" height="148" viewBox="0 0 254 148" fill="none" xmlns="http://www.w3.org/2000/svg">
<path d="M252.838 136.547C251.271 134.813 251.927 133.729 252.682 132.479C253.318 131.427 254.114 130.125 252.849 128.625L252.682 128.427L252.422 128.448C241.588 129.307 233.932 117.563 225.068 103.974C218.239 93.5106 210.5 81.6616 200.015 73.9429C199.995 72.7345 199.677 68.7866 199.312 66.6876C199.734 66.5731 200.062 66.4689 200.318 66.3543C200.849 66.3908 201.401 66.4116 201.953 66.4116C204.656 66.4116 207.5 66.021 209.583 65.6616C213.239 65.021 216.76 64.047 217.594 63.4481L217.885 63.2345L217.781 62.8908C217.437 61.7658 217.01 60.547 216.521 59.2658C215.427 56.422 213.526 52.0626 210.677 47.4897C206.786 41.2189 202.302 36.5262 197.703 33.9116C194.885 32.3074 191.979 31.4429 189.052 31.3335L188.703 31.3179L188.573 31.6199C185.213 30.4533 182.094 29.9272 179.281 30.0679L176.578 26.1251C176.495 25.2345 176.828 24.9533 177.474 24.4324C177.969 24.0314 178.573 23.5418 179.094 22.6408C179.156 22.6408 179.213 22.646 179.271 22.646C179.667 22.646 180.078 22.6147 180.51 22.5574L180.88 22.5054L180.937 22.1356C181.724 17.021 181.094 13.0679 179.068 10.3804C177.177 7.89077 174.531 7.08869 172.64 6.85431C168.364 6.33348 162.687 8.20327 160.677 15.2085C159.854 15.6356 158.193 16.4897 157.906 16.6199L156.281 17.3179L158.031 17.5835C158.031 17.5835 159.781 17.8491 161.989 18.172C161.682 19.2345 161.13 20.1564 160.672 20.9168C160.078 21.9064 159.562 22.7606 160.198 23.3387C160.568 23.6772 160.995 23.6981 161.307 23.7085C161.406 23.7137 161.552 23.7189 161.588 23.7397C161.588 23.7397 161.713 23.8699 161.672 24.5783C161.604 25.8491 161.427 29.2189 164.182 30.1095C164.687 30.2762 165.271 30.3647 165.906 30.3647C166.203 30.3647 166.505 30.3491 166.823 30.3126C167.151 30.2814 167.484 30.2241 167.823 30.1564L169.229 34.6356C166.708 37.4376 165.698 40.8231 165.823 42.9793C165.479 44.1043 165.12 45.5106 164.745 47.1668C164.474 48.3751 164.177 49.7658 163.849 51.4116C163.76 51.8439 163.682 52.271 163.594 52.6929C158.484 53.0366 145.005 56.8439 141.583 58.1095C140.568 57.2397 139.417 56.7554 138.135 56.6824C133.896 56.4533 132.094 59.5054 131.599 60.5574L115.114 61.3647V61.8179C111.036 58.771 106.021 55.9533 100.51 53.6304C102.224 47.6199 99.2707 37.9897 94.5623 34.5679L93.6873 33.9272L93.7655 35.0106C94.0363 38.6981 92.9946 42.3126 91.2915 43.6199C90.578 44.1668 89.8071 44.2762 88.9269 43.9689C87.2446 43.3751 84.3176 37.797 83.729 31.3074C83.4061 27.6981 83.6561 21.172 89.0103 18.1095L88.578 17.2033C76.9009 21.6616 71.4373 30.1616 70.2134 36.6304C69.4373 40.7397 66.2551 41.0418 65.3332 41.0366C63.4165 41.0262 61.7967 39.9949 61.5519 38.6408C60.9217 35.1147 63.1092 29.1408 65.3905 28.1616L65.078 27.2085C59.8801 28.4481 51.5884 35.4168 48.6873 42.547C47.9165 44.4429 46.6144 44.9012 45.6613 44.9585C43.8905 45.0574 41.9269 43.8439 40.9165 42.0001C40.2394 40.7658 39.4373 38.2345 41.6717 35.1408L43.6665 32.3751L40.9582 34.4429C34.0155 39.7501 27.8748 55.297 27.229 65.1408C27.0884 67.2814 26.3748 68.6876 25.2811 69.0001C24.3071 69.2762 23.0676 68.646 22.203 67.4272C20.854 65.5366 20.3228 62.2085 22.8748 58.5679L24.2498 56.6043L22.203 57.8491C15.2707 62.0574 11.2655 74.4533 13.9582 83.3647C16.1769 90.6772 17.8436 98.5366 13.3644 101.38C12.4009 101.985 11.4894 101.86 10.5676 100.985C7.96339 98.521 6.73943 91.5887 8.39047 88.6252L7.56235 88.0574C-0.666819 97.8752 -5.16682 118.146 10.5988 132.464L10.828 132.672L11.1196 132.557C22.6196 128.068 38.6821 128.339 58.8696 133.36L59.9165 133.625L55.5988 124.844C61.7342 126.339 93.0103 133.792 106.151 133.38L107.651 133.333L101.771 129.172C109.906 129.901 141.239 132.485 146.052 129.453L147.01 128.854L145.927 128.547C142.807 127.656 132.224 123.448 127.177 106.625C125.078 99.6356 125 92.8804 126.995 90.5574L128.406 88.922L126.417 89.771C119.094 92.896 110.568 97.8595 108.047 102.542C107.479 96.6929 108.635 92.0574 109.594 91.4116L112.094 89.7397L109.187 90.5106C104.703 91.6981 99.7655 94.8335 98.3228 97.8543C97.2134 93.4741 98.4009 84.4741 101.667 79.0574C102.844 77.1095 104.812 74.7866 107.552 74.8283L107.609 73.8231C103.161 73.396 95.7186 75.5002 92.3332 78.4272C93.0311 76.1147 94.7707 73.6252 96.1561 72.8127C96.2082 72.7814 96.2551 72.7554 96.3071 72.7293L96.0832 72.2762L96.3176 72.7189C102.193 69.547 108.526 67.9689 115.125 68.0262V69.0887L132.453 69.9429V68.5731H141.364C141.448 69.0939 141.677 69.5418 142.026 69.8647C142.292 70.0991 142.75 70.3647 143.437 70.3856C143.823 71.2814 144.568 71.7762 145.557 71.7762C145.599 71.7762 145.646 71.7658 145.693 71.7658C145.859 71.9845 146.14 72.1929 146.614 72.3231C146.943 72.4168 147.318 72.4533 147.734 72.4533C149.255 72.4533 151.26 71.8491 152.729 70.7033C152.818 70.8752 152.911 71.0418 153.01 71.1929L153.135 71.3908L153.37 71.422C156.172 71.7658 158.672 71.9377 160.87 71.9377C164.656 71.9377 167.531 71.422 169.479 70.4012C171.651 70.5366 173.745 70.7658 175.734 71.0783C169.745 75.0991 158.469 87.4845 155.859 97.3126C154.833 101.193 154.448 107.406 154.713 115.787C154.755 117.188 154.823 118.677 154.901 120.219C155.255 126.813 155.838 132.099 155.844 132.146L155.896 132.594H160.057C159.568 134.833 158.135 138.068 153.927 138.646C150.208 139.162 141.495 140.37 138.864 144.526C138.458 145.151 138.208 145.833 138.12 146.547L138.052 147.11H172.797L172.818 146.63C172.818 146.604 172.844 145.938 172.786 144.771C172.682 142.469 172.25 137.901 170.625 132.594H172.219L172.229 132.104C172.229 132.047 172.37 126.557 172.375 120.193C172.38 118.75 172.375 117.255 172.37 115.771C172.307 108.172 172.031 103.177 171.552 100.917C172.713 99.9949 177.739 95.9741 182.844 91.6668C181.771 102.125 183.536 107.208 186.922 112.302C187.995 113.922 190.958 117.031 195.729 121.547C196.64 122.412 197.573 123.276 198.489 124.136C203.64 128.886 208.583 133.208 208.63 133.255L209.005 133.578L211.401 130.979C211.958 133.099 210.297 138.552 208.818 140.016C203.687 140.146 200.906 142.448 200.422 144.693C200.239 145.526 200.385 146.313 200.838 146.912L200.989 147.115H213.823L227.885 130.833L227.479 130.511C227.474 130.505 226.818 129.979 225.818 129.229C223.953 127.818 220.568 125.349 217.901 123.948L219.026 122.729L218.682 122.391C218.646 122.349 214.406 118.089 209.37 113.281C208.515 112.469 207.635 111.641 206.745 110.813C203.338 107.63 200.463 105.063 198.193 103.182C198.719 97.6147 199.588 86.4064 199.797 81.9377C207.713 88.8127 212.943 97.8908 217.989 106.693C226.239 121.068 234.031 134.641 252.411 137.406L253.807 137.615L252.838 136.547Z" fill="black"/>
<mask id="mask0_5516_27668" style="mask-type:luminance" maskUnits="userSpaceOnUse" x="45" y="0" width="10" height="22">
<path d="M45.3335 0.515625H54.6668V22H45.3335V0.515625Z" fill="white"/>
</mask>
<g mask="url(#mask0_5516_27668)">
<path d="M53.8962 15.651C55.1201 12.3281 53.9535 7.85937 50.4326 2.375L49.2295 0.515625L49.5055 2.71354C50.3337 9.35417 48.6045 14.375 47.0732 18.8125C46.8857 19.3646 46.6982 19.901 46.5212 20.4271L46.2139 21.3542L47.141 21.0677C50.6982 19.9948 52.9639 18.1719 53.8962 15.651Z" fill="black"/>
</g>
<path d="M115.625 43.5212L117.234 43.9326L116.13 42.6982C112.984 39.193 112.927 33.792 113.333 28.4743L113.401 27.6045L112.615 27.9743C110.047 29.193 107.531 32.9066 107.88 36.5055C108.109 38.8649 109.641 42.0003 115.625 43.5212Z" fill="black"/>
<path d="M8.83852 62.6507L8.52602 60.9424C7.56768 55.7444 13.8594 49.8434 16.6302 49.1559L19.4479 48.4476L16.5521 48.1663C10.0312 47.5205 7.53123 50.4944 6.61977 52.3278C5.03643 55.5049 5.92185 59.4996 7.65623 61.3799L8.83852 62.6507Z" fill="black"/>
<path d="M177.131 70.792C174.703 70.3492 172.12 70.042 169.37 69.8701C169.886 69.5836 170.344 69.2555 170.719 68.8649C171.344 68.219 172.104 67.1722 172.933 65.8701C177.703 65.7295 182.068 66.318 186.084 67.4899C191.058 68.9274 195.49 71.2555 199.506 74.193C223.537 91.6826 232.662 130.521 252.464 128.959C254.729 131.631 249.125 133.188 252.464 136.886C222.646 132.401 220.854 98.7503 199.313 80.8545C193.604 76.1097 186.506 72.4742 177.131 70.792Z" fill="#4A8BDF"/>
<path d="M227.141 130.88L213.568 146.594H201.219C200.865 146.12 200.74 145.474 200.891 144.781H212.208L225.484 129.609C226.5 130.365 227.141 130.88 227.141 130.88Z" fill="#F9CA06"/>
<path d="M225.49 129.61L212.214 144.782H200.896C201.307 142.865 203.802 140.578 209 140.495C210.755 139.026 213.005 131.901 211.516 130.078L217.052 124.073C219.714 125.36 223.396 128.021 225.49 129.61Z" fill="black"/>
<path d="M216.052 59.4476C216.547 60.7497 216.969 61.958 217.297 63.0413C216.609 63.5413 213.339 64.4997 209.495 65.1663C207.344 62.6663 196.38 42.234 197.448 34.3486C202.589 37.2705 206.906 42.3747 210.245 47.7549L205.203 48.8695L211.531 60.4372L216.052 59.4476Z" fill="#C41830"/>
<path d="M216.052 59.4482L211.531 60.443L205.203 48.8753L210.245 47.7607C212.75 51.7607 214.703 55.9326 216.052 59.4482Z" fill="#C41830"/>
<path d="M208.995 113.62L198.818 123.74L198.813 123.745C197.896 122.885 196.974 122.021 196.058 121.161L206.37 111.156C207.261 111.984 208.146 112.818 208.995 113.62Z" fill="#F9CA06"/>
<path d="M183.469 90.443C177.297 95.693 170.974 100.703 170.974 100.703C171.578 103.099 171.797 109.417 171.849 115.761H155.203C154.99 109.094 155.141 101.922 156.328 97.4326C159.057 87.1462 171.526 73.818 177.13 70.792C186.505 72.4795 193.604 76.1149 199.312 80.8545C199.224 84.193 198.229 97.1982 197.641 103.381C200.255 105.537 203.365 108.344 206.375 111.157L196.062 121.162C192.146 117.448 188.552 113.839 187.328 112.006C184.213 107.323 182.052 102.256 183.469 90.443Z" fill="#C41830"/>
<path d="M209.5 65.167C206.427 65.7087 202.99 66.0628 200.229 65.8545C199.209 64.3701 198.136 62.5212 197.058 60.443C196.615 59.5889 196.172 58.6878 195.74 57.7712C192.209 50.3024 189.032 41.0107 188.667 35.4378C188.578 34.1618 188.641 33.0732 188.891 32.2503C188.927 32.0993 188.979 31.9639 189.037 31.8389C192.047 31.9482 194.854 32.8701 197.453 34.3493C196.386 42.2347 207.349 62.6618 209.5 65.167Z" fill="#C41830"/>
<path d="M208.948 132.854C208.948 132.854 204.021 128.547 198.812 123.745L198.818 123.74L208.995 113.62C214.089 118.479 218.297 122.719 218.297 122.719L217.052 124.068L211.516 130.073L208.948 132.854Z" fill="#C41830"/>
<path d="M200.229 65.8538C199.911 66.0101 199.391 66.1663 198.729 66.3174C195.573 67.0361 189.172 67.6403 186.089 67.4841V67.4893C182.073 66.3226 177.708 65.7288 172.938 65.8695C174.115 64.0205 175.422 61.6507 176.661 59.1611C181.24 62.6924 194.115 61.3382 197.062 60.432C198.135 62.5153 199.208 64.3695 200.229 65.8538Z" fill="#C41830"/>
<path d="M195.74 57.766C196.172 58.6878 196.615 59.5837 197.057 60.4378C194.109 61.3441 181.234 62.6982 176.656 59.167C177.026 58.417 177.391 57.6566 177.745 56.8857C182.021 59.1982 192.036 58.8232 195.74 57.766Z" fill="#F9CA06"/>
<path d="M180.365 50.4638C180.922 48.818 181.297 47.3805 181.406 46.3024C181.911 41.0472 177.5 38.2763 175.021 38.0524C172.76 37.8441 169.219 37.3597 167.312 40.5941C170.021 34.5524 182.104 32.6618 188.672 35.4326C189.036 41.0003 192.214 50.292 195.745 57.7659C192.042 58.8284 182.026 59.1982 177.75 56.8857C178.094 56.1409 178.427 55.3909 178.74 54.6566H178.745C179.365 53.1878 179.917 51.7607 180.365 50.4638Z" fill="#C41830"/>
<path d="M199.511 74.1924C195.495 71.2549 191.063 68.9268 186.089 67.4893V67.484C189.177 67.6403 195.578 67.0361 198.729 66.3174C199.151 68.307 199.558 73.4632 199.511 74.1924Z" fill="#C41830"/>
<path d="M162.615 17.7447C160.151 17.3854 158.109 17.0729 158.109 17.0729C158.505 16.901 161.109 15.5468 161.109 15.5468C162.865 9.10411 168.005 6.7864 172.583 7.35411C177.167 7.91661 182.083 11.4218 180.448 22.052C179.87 22.1354 179.328 22.1614 178.802 22.1249C175.589 21.9583 173.286 19.9427 171 19.1249C170.625 18.9895 170.245 18.8802 169.87 18.8281C169.714 18.802 169.542 18.776 169.365 18.7499C167.688 18.5052 164.958 18.0989 162.615 17.7447Z" fill="#F9CA06"/>
<path d="M165.245 47.2656C167.885 49.5833 178.854 50.8281 180.365 50.4688C179.922 51.7656 179.365 53.1927 178.74 54.6615H178.734C173.193 55.4896 166.365 53.0365 164.344 51.5C164.63 50.0885 164.927 48.6354 165.245 47.2656Z" fill="#F9CA06"/>
<path d="M168.172 29.5573L169.62 24.2188C170.25 25.375 171.896 25.1198 172.969 24.2552L173.016 24.3125C173.266 25.7865 175.016 26.2396 176.094 26.2969L179.026 30.5781V30.5833C174.854 30.8542 171.844 32.5781 169.807 34.75L168.172 29.5573Z" fill="#F3AE88"/>
<path d="M169.37 69.8698C165.432 72.0417 157.812 71.4479 153.416 70.9062C153.213 70.5938 153.047 70.25 152.896 69.8698C152.198 68.1198 152.036 65.8281 152.104 64.1458C152.13 63.6615 152.172 63.224 152.229 62.8698C153.984 62.6406 159.802 60.9531 162.802 59.9323C162.802 59.9323 163.302 56.8646 164.015 53.1615C164.12 52.6198 164.234 52.0625 164.344 51.5C166.364 53.0365 173.193 55.4844 178.734 54.6615C178.422 55.3958 178.088 56.1458 177.745 56.8906C177.39 57.6563 177.026 58.4219 176.656 59.1719C175.422 61.6563 174.114 64.026 172.932 65.8802C172.104 67.1823 171.344 68.2292 170.719 68.875C170.344 69.2552 169.885 69.5833 169.37 69.8698Z" fill="#C41830"/>
<path d="M172.271 144.781C172.328 145.937 172.302 146.594 172.302 146.594H138.604C138.683 145.932 138.917 145.333 139.266 144.781H172.271Z" fill="#F9CA06"/>
<path d="M172.271 144.781H139.266C141.776 140.823 150.406 139.625 153.979 139.135C158.047 138.573 160.083 135.516 160.651 132.078H169.927C171.698 137.578 172.156 142.318 172.271 144.781Z" fill="black"/>
<path d="M171 19.125C173.287 19.9427 175.589 21.9583 178.802 22.125V22.1406C177.62 24.4323 175.807 24.0885 176.094 26.2917C175.021 26.2344 173.266 25.7813 173.016 24.3073L172.969 24.25C173.344 23.9583 173.651 23.5885 173.828 23.1823C174.511 21.599 172.432 19.4635 170.427 21.2448L171 19.125Z" fill="black"/>
<path d="M171.849 115.755C171.859 117.239 171.865 118.734 171.859 120.172H155.391C155.312 118.75 155.245 117.265 155.203 115.755H171.849Z" fill="#F9CA06"/>
<path d="M155.391 120.172H171.859C171.849 126.609 171.714 132.073 171.714 132.073H156.333C156.328 132.073 155.745 126.828 155.391 120.172Z" fill="#C41830"/>
<path d="M170.427 21.2395C172.433 19.4635 174.511 21.5989 173.828 23.177C173.651 23.5833 173.349 23.9583 172.969 24.2447C171.896 25.1093 170.25 25.3645 169.62 24.2083L170.427 21.2395Z" fill="#F3AE88"/>
<path d="M169.359 18.7549L166.781 29.8018C165.912 29.8955 165.063 29.8643 164.344 29.6247C162.271 28.9476 162.068 26.6872 162.177 24.5934C162.297 22.4997 161.219 23.5726 160.542 22.9528C159.87 22.3434 162.063 20.4528 162.609 17.7393C164.958 18.0986 167.688 18.5049 169.359 18.7549Z" fill="#F3AE88"/>
<path d="M166.781 29.8018L169.359 18.7549C169.542 18.7809 169.714 18.807 169.865 18.833C170.24 18.8851 170.62 18.9945 170.995 19.1299L170.422 21.2445L170.417 21.2497L169.615 24.2184L168.167 29.557C167.714 29.6715 167.245 29.7549 166.781 29.8018Z" fill="#F9CA06"/>
<path d="M166.771 41.7243C166.927 41.3181 167.104 40.9535 167.292 40.6306C167.297 40.6202 167.302 40.6097 167.307 40.5993C169.214 37.365 172.761 37.8493 175.016 38.0577C177.5 38.2868 181.906 41.0577 181.401 46.3077C181.292 47.3858 180.922 48.8233 180.36 50.4691C178.849 50.8285 167.886 49.5837 165.24 47.266C165.594 45.6827 165.969 44.2139 166.323 43.0368V43.0316C166.479 42.5316 166.63 42.0941 166.771 41.7243Z" fill="#C41830"/>
<path d="M166.328 43.0316C166.193 40.9378 167.224 37.4951 169.802 34.7503C171.839 32.5784 174.849 30.8493 179.021 30.5836C181.781 30.3961 185.052 30.8597 188.885 32.2555C188.635 33.0784 188.573 34.1618 188.661 35.443C182.094 32.6722 170.01 34.5576 167.302 40.6045C167.297 40.6149 167.292 40.6253 167.286 40.6357C167.094 40.9639 166.922 41.3232 166.766 41.7295C166.63 42.0941 166.479 42.5316 166.328 43.0316Z" fill="#C41830"/>
<path d="M164.021 53.1562C163.307 56.8646 162.807 59.9271 162.807 59.9271C159.807 60.9479 153.984 62.6354 152.234 62.8646C152.177 63.2187 152.135 63.6563 152.109 64.1406C150.599 62.6094 147.344 60.5625 146.427 61.474C146.302 61.599 146.229 61.7656 146.208 61.9375H143.531C143.531 61.9375 142.953 60.0729 141.484 58.6719C144.448 57.4948 159.271 53.3177 164.021 53.1562Z" fill="#C41830"/>
<path d="M146.208 61.9424C146.078 63.0465 147.792 64.8955 147.792 64.8955C145.833 66.2601 142.761 68.1299 141.818 68.057H131.943V65.5622C132.537 65.4059 133.13 65.3018 133.401 64.9736C134.156 67.0361 135.625 65.8955 136.162 65.2757C137.354 66.9268 138.276 66.057 139.037 65.2184C139.792 64.3799 140.985 61.8955 142.12 61.9528H146.208V61.9424Z" fill="#4A8BDF"/>
<path d="M146.209 61.9429C146.229 61.7658 146.302 61.5991 146.427 61.4793C147.344 60.5679 150.599 62.6148 152.11 64.146C152.042 65.8283 152.203 68.12 152.901 69.87C150.584 72.1252 146.297 72.4689 145.969 71.2241C144.943 71.3804 144.12 71.0106 143.787 69.87V69.8648C142.459 69.9898 141.823 69.1564 141.823 68.0575C142.766 68.1356 145.834 66.2658 147.797 64.896C147.787 64.896 146.078 63.0523 146.209 61.9429Z" fill="#F3AE88"/>
<path d="M136.162 65.2653C135.625 65.8851 134.156 67.0309 133.401 64.9632C133.13 65.2965 132.537 65.3955 131.943 65.5517V61.0205C132.37 59.8955 134.11 56.9528 138.11 57.1663C139.552 57.2496 140.651 57.8851 141.479 58.6663C142.948 60.0674 143.526 61.9319 143.526 61.9319H142.115C140.985 61.8746 139.787 64.3642 139.031 65.1976C138.276 66.0465 137.354 66.9163 136.162 65.2653Z" fill="#F3AE88"/>
<path d="M131.943 68.0524V69.4014L115.62 68.5993V61.8285L131.943 61.0264V68.0524Z" fill="#F9CA06"/>
<path d="M115.62 67.5049C108.01 67.3486 101.547 69.2966 96.0728 72.2549C96.0103 72.2861 95.9478 72.3226 95.8905 72.3591C82.6405 79.5882 75.229 92.6872 71.4113 95.8226C66.0051 100.26 60.2134 95.6299 64.0676 88.4841C61.7551 91.3799 54.4217 100.453 49.0155 98.5205C43.6092 96.5934 56.1509 89.2549 55.1874 86.1664C54.2186 83.0726 40.7082 97.9372 33.6457 97.4216C26.578 96.9007 29.5155 87.1299 38.7759 78.8278C36.8696 79.0205 31.1717 74.1039 41.9217 67.7028C42.0363 67.6403 42.1457 67.5726 42.2603 67.5049C42.1405 67.5674 42.0311 67.6351 41.9217 67.7028C35.979 71.0414 28.4946 65.9007 36.8488 58.5934C54.1717 43.4476 80.5363 45.8434 99.8905 53.9007C105.989 56.432 111.401 59.5257 115.614 62.807V67.5049H115.62Z" fill="#4A8BDF"/>
<path d="M112.833 28.4326C112.422 33.7972 112.479 39.391 115.755 43.0316C104.068 40.0628 108.724 30.3753 112.833 28.4326Z" fill="#F9CA06"/>
<path d="M95.8907 72.3594C93.974 73.4844 91.6303 77.276 91.5105 80.0677C93.6407 76.6875 102.417 73.8073 107.547 74.3021C99.0313 74.1771 95.5209 94.2292 98.4011 99.4948C98.4011 97.1094 102.662 92.7292 109.307 90.9688C107.943 91.8854 106.682 97.849 107.818 104.729C107.734 105.464 107.865 106.172 108.24 106.854C108.073 106.135 107.932 105.427 107.818 104.729C108.344 99.7135 118.557 93.651 126.609 90.2083C121.771 95.8385 128.063 123.958 145.781 129C140.448 132.354 99.9428 128.469 99.9428 128.469L106.13 132.854C91.5053 133.312 54.6667 124.068 54.6667 124.068L58.9844 132.854C49.5261 130.5 27.3803 125.641 10.9324 132.073C-4.91659 117.682 0.13549 97.6771 7.94278 88.3646C5.44278 92.8698 9.04174 104.688 13.6303 101.786C18.2136 98.875 16.9428 91.474 14.4376 83.1979C11.9376 74.9271 15.4428 62.5208 22.4584 58.2552C16.3178 67.0313 27.0938 74.6771 27.7292 65.1458C28.349 55.625 34.3699 40.0885 41.2605 34.8229C35.7501 42.474 46.4011 49.4948 49.1563 42.724C51.9115 35.9583 59.9324 28.9375 65.1928 27.6875C62.5626 28.8125 60.4376 35.2031 61.0574 38.7135C61.6824 42.224 69.4532 43.3438 70.7032 36.7083C71.9584 30.0677 77.5938 21.9219 88.7553 17.6562C78.2292 23.6771 84.9949 43.099 88.7553 44.4271C92.5157 45.75 94.6459 40.0938 94.2657 34.9531C98.9011 38.3333 101.787 48.2292 99.8959 53.8906V53.8958C80.5365 45.8385 54.172 43.4479 36.8542 58.5885C28.5001 65.8958 35.9845 71.0365 41.9272 67.7031C31.1772 74.099 36.8751 79.0156 38.7813 78.8229C29.5157 87.125 26.5834 96.8958 33.6511 97.4167C40.7136 97.9323 54.224 83.0729 55.1928 86.1615C56.1563 89.25 43.6094 96.5833 49.0209 98.5156C54.4219 100.448 61.7605 91.375 64.073 88.4792C60.2136 95.625 66.0053 100.25 71.4167 95.8177C75.2292 92.6927 82.6407 79.5885 95.8907 72.3594Z" fill="#F9CA06"/>
<path d="M50.0106 2.65137C56.6408 12.9743 54.1147 18.4326 47.0054 20.5837C48.5731 15.8753 50.9585 10.2555 50.0106 2.65137Z" fill="#F9CA06"/>
<path d="M8.03114 61.0258C4.89052 57.6404 5.07281 47.5258 16.5051 48.656C13.7186 49.3591 6.98427 55.3695 8.03114 61.0258Z" fill="#F9CA06"/>
<path d="M143.521 70.3799C142.771 70.3799 142.292 70.0986 142.016 69.8486C141.558 69.432 141.308 68.7965 141.308 68.057V67.5049L141.854 67.5518C142.443 67.5986 144.693 66.3903 147.037 64.8018C146.479 64.1247 145.589 62.8643 145.703 61.8851C145.74 61.5934 145.86 61.3278 146.063 61.1247C146.313 60.8747 146.662 60.7601 147.084 60.7549C148.636 60.7601 151.203 62.5257 152.464 63.7913L152.578 63.9163L151.87 64.6247L151.745 64.4997C150.495 63.234 148.183 61.7601 147.078 61.7549C146.985 61.7549 146.844 61.7653 146.771 61.833C146.735 61.8747 146.709 61.9268 146.703 61.9945C146.631 62.6038 147.511 63.8538 148.151 64.5518L148.547 64.9736L148.073 65.307C147.354 65.8018 144.078 68.0465 142.36 68.484C142.417 68.7393 142.532 68.9476 142.688 69.0934C142.927 69.3122 143.276 69.4007 143.724 69.3538C144.302 69.2965 145.006 69.0309 145.823 68.5465L146.334 69.4163C145.386 69.9684 144.542 70.2809 143.818 70.3538C143.724 70.3747 143.62 70.3799 143.521 70.3799Z" fill="black"/>
<path d="M145.542 71.7607C144.427 71.7607 143.625 71.141 143.297 70.016L144.266 69.7295C144.505 70.542 145.016 70.8545 145.896 70.7243C146.375 70.6566 146.948 70.4326 147.542 70.0889L148.047 70.9639C147.333 71.3753 146.656 71.6305 146.047 71.7191C145.87 71.7451 145.703 71.7607 145.542 71.7607Z" fill="black"/>
<path d="M147.719 72.4427C147.302 72.4427 146.922 72.401 146.599 72.3125C145.823 72.0937 145.568 71.6719 145.479 71.3542L146.453 71.099C146.469 71.1719 146.604 71.2708 146.87 71.3438C148.073 71.6771 150.886 71.1354 152.547 69.5156L153.25 70.2396C151.761 71.6823 149.433 72.4427 147.719 72.4427Z" fill="black"/>
<path d="M160.854 71.9216C158.656 71.9216 156.156 71.7497 153.354 71.4059L153.12 71.3747L152.995 71.1768C152.781 70.8538 152.594 70.4684 152.432 70.057C151.526 67.8018 151.573 64.9424 151.604 64.1247C151.63 63.6038 151.677 63.1611 151.729 62.7913L151.786 62.4163L152.161 62.3695C153.849 62.1507 159.359 60.5518 162.354 59.5466C162.505 58.682 162.943 56.0726 163.521 53.0622C163.63 52.5153 163.74 51.9528 163.854 51.3955C164.182 49.7497 164.479 48.359 164.75 47.1507C165.13 45.458 165.5 44.0257 165.849 42.8799L166.813 43.1768C166.469 44.2913 166.109 45.7028 165.729 47.3747C165.458 48.5778 165.161 49.958 164.839 51.5934C164.724 52.1507 164.615 52.7132 164.51 53.2549C163.813 56.9059 163.302 59.984 163.302 60.0153L163.25 60.3122L162.964 60.4111C160.193 61.3486 154.828 62.9215 152.677 63.307C152.651 63.5622 152.63 63.8486 152.615 64.1663C152.526 66.2236 152.813 68.2913 153.37 69.682C153.474 69.958 153.599 70.2132 153.724 70.4372C161.016 71.3174 166.339 70.9684 169.13 69.432C169.615 69.1611 170.031 68.8538 170.365 68.5101C170.938 67.9163 171.677 66.9163 172.51 65.5986C173.651 63.807 174.964 61.4424 176.208 58.9372C176.578 58.1924 176.938 57.432 177.292 56.6663C177.641 55.9111 177.969 55.1663 178.276 54.4528L179.203 54.8486C178.891 55.5726 178.557 56.3278 178.208 57.0934C177.849 57.8643 177.484 58.6351 177.104 59.3903C175.849 61.9215 174.521 64.3226 173.354 66.1403C172.479 67.5257 171.714 68.5622 171.083 69.2132C170.682 69.6247 170.193 69.9945 169.615 70.307C167.661 71.3851 164.734 71.9216 160.854 71.9216Z" fill="black"/>
<path d="M166.813 43.1771L165.849 42.8802C166.011 42.3542 166.156 41.9167 166.292 41.5469C166.453 41.1302 166.641 40.7396 166.849 40.375L167.719 40.8854C167.531 41.2083 167.37 41.5417 167.235 41.9062C167.11 42.25 166.964 42.6771 166.813 43.1771Z" fill="black"/>
<path d="M179.203 54.8543L178.276 54.4584C178.907 52.9688 179.453 51.5678 179.881 50.3022C180.453 48.6147 180.797 47.2501 180.896 46.2501C181.084 44.3074 180.558 42.5209 179.375 41.0938C178.052 39.4949 176.209 38.6668 174.969 38.547L174.677 38.5261C172.453 38.3126 169.407 38.0261 167.74 40.8491L166.87 40.3334C168.865 36.9636 172.417 37.297 174.771 37.5209L175.063 37.547C176.506 37.6772 178.646 38.6251 180.151 40.448C181.511 42.0886 182.115 44.1303 181.901 46.3491C181.797 47.422 181.438 48.8647 180.844 50.6251C180.401 51.922 179.849 53.3386 179.203 54.8543Z" fill="black"/>
<path d="M179.469 51.0264C176.229 51.0264 167.401 49.8285 164.906 47.641L165.573 46.8857C168.052 49.0576 178.922 50.292 180.245 49.9743L180.359 49.9639L180.365 50.4795L180.479 50.9535C180.276 51.0003 179.932 51.0264 179.469 51.0264Z" fill="black"/>
<path d="M176.344 55.3278C171.219 55.3278 165.849 53.2705 164.042 51.9007L164.651 51.0986C166.573 52.557 173.266 54.9684 178.662 54.1559L178.735 54.1507V54.6768L178.808 55.1559C178.006 55.2757 177.177 55.3278 176.344 55.3278Z" fill="black"/>
<path d="M165.912 30.3545C165.276 30.3545 164.693 30.266 164.188 30.0993C161.432 29.2035 161.609 25.8337 161.677 24.568C161.719 23.8597 161.594 23.7295 161.594 23.7295C161.557 23.7087 161.406 23.7035 161.313 23.6982C161 23.6878 160.573 23.667 160.203 23.3285C159.568 22.7503 160.083 21.8962 160.677 20.9066C161.203 20.0212 161.865 18.9326 162.12 17.6514C162.12 17.6514 162.125 17.6201 162.13 17.5889L163.13 17.7087C163.125 17.7399 163.12 17.7712 163.115 17.8024C162.813 19.3024 162.078 20.5316 161.537 21.4222C161.292 21.8389 160.953 22.391 160.927 22.6097C161.021 22.6722 161.146 22.6826 161.349 22.6878C161.641 22.6982 162.042 22.7139 162.339 23.0472C162.62 23.3597 162.724 23.8389 162.682 24.6201C162.537 27.3285 163.083 28.6826 164.5 29.141C165.094 29.3389 165.865 29.391 166.724 29.292C167.162 29.2555 167.604 29.1722 168.042 29.0628C169.109 28.792 170.099 28.3649 170.698 27.917L171.307 28.7243C170.604 29.2555 169.479 29.7451 168.292 30.042C167.802 30.167 167.307 30.2555 166.828 30.2972C166.511 30.3389 166.208 30.3545 165.912 30.3545Z" fill="black"/>
<path d="M170.912 21.3753L169.943 21.1097L170.516 18.9951L170.99 19.1253L171.505 19.1201L171.49 19.2555L170.912 21.3753Z" fill="black"/>
<path d="M169.323 34.8955L167.641 29.5674L169.938 21.1143L170.911 21.3799L168.693 29.5465L170.281 34.5986L169.323 34.8955Z" fill="black"/>
<path d="M171.026 25.4999C170.86 25.4999 170.693 25.4843 170.537 25.453C169.938 25.3332 169.464 24.9843 169.183 24.4582L170.068 23.9739C170.209 24.2395 170.433 24.401 170.74 24.4635C171.292 24.5728 172.068 24.3332 172.662 23.8593C172.99 23.5989 173.235 23.302 173.37 22.9843C173.604 22.4478 173.365 21.7447 172.823 21.3489C172.537 21.1405 171.756 20.7499 170.771 21.6197L170.058 20.901C171.349 19.7551 172.625 19.9635 173.407 20.526C174.339 21.203 174.714 22.3957 174.292 23.3749C174.089 23.8489 173.74 24.2864 173.282 24.6405C172.599 25.1874 171.776 25.4999 171.026 25.4999Z" fill="black"/>
<path d="M179.271 22.6403C179.099 22.6403 178.932 22.6351 178.766 22.6247C176.531 22.5101 174.719 21.5413 173.115 20.6872C172.318 20.2601 171.568 19.859 170.828 19.6038C170.448 19.4632 170.109 19.3747 169.797 19.3278C169.63 19.3018 169.469 19.2757 169.292 19.2497C167.62 19.0049 164.885 18.5986 162.536 18.2445C160.078 17.8747 158.031 17.5726 158.031 17.5726L156.281 17.307L157.906 16.609C158.193 16.484 159.854 15.6299 160.677 15.1976C162.688 8.19759 168.365 6.32259 172.641 6.84342C174.531 7.0778 177.177 7.87988 179.068 10.3695C181.094 13.057 181.724 17.0101 180.938 22.1247L180.88 22.4945L180.51 22.5465C180.078 22.609 179.667 22.6403 179.271 22.6403ZM159.755 16.8122C160.547 16.9268 161.573 17.0778 162.688 17.2497C165.036 17.6038 167.766 18.0101 169.427 18.2549C169.609 18.2809 169.786 18.307 169.948 18.333C170.323 18.3903 170.724 18.4945 171.172 18.6507C171.974 18.9424 172.76 19.359 173.583 19.8018C175.167 20.6403 176.802 21.5153 178.823 21.6195C179.203 21.6455 179.589 21.6351 179.995 21.5986C180.651 16.9528 180.068 13.3799 178.26 10.9893C176.583 8.78092 174.208 8.06217 172.516 7.85384C168.594 7.37467 163.37 9.12988 161.583 15.6872L161.531 15.8955L161.333 15.9997C161.198 16.0726 160.474 16.4476 159.755 16.8122Z" fill="black"/>
<path d="M167.261 29.9479L166.271 29.7552L166.281 29.7031L168.865 18.6406L169.849 18.8646L167.261 29.9479Z" fill="black"/>
<path d="M176.667 26.8281L176.062 26.7969C174.531 26.7188 172.792 26.0469 172.516 24.3906L173.51 24.224C173.677 25.2396 174.839 25.599 175.557 25.724C175.609 24.6354 176.234 24.1354 176.839 23.6406C177.333 23.2396 177.891 22.7865 178.349 21.9062L179.245 22.3698C178.688 23.4375 178.016 23.9844 177.469 24.4219C176.792 24.9635 176.458 25.2396 176.583 26.224L176.667 26.8281Z" fill="black"/>
<path d="M170.74 24.0053C170.412 23.474 170.38 22.8751 170.646 22.4115C170.823 22.1094 171.292 21.599 172.469 21.6303L172.443 22.6355C171.974 22.6199 171.63 22.7292 171.521 22.9167C171.443 23.0522 171.474 23.2657 171.599 23.4792L170.74 24.0053Z" fill="black"/>
<path d="M167.771 40.8019L167.292 40.6248L166.844 40.4008L166.865 40.354C168.156 37.4737 171.651 35.2237 176.443 34.2133C180.818 33.2915 185.578 33.5831 188.865 34.9737L188.474 35.9008C185.365 34.5883 180.839 34.3227 176.651 35.1977C172.177 36.1456 168.943 38.1821 167.771 40.8019Z" fill="black"/>
<path d="M166.328 43.0361L165.828 43.0309C165.677 40.8173 166.74 37.2705 169.433 34.4059C171.865 31.8226 175.167 30.3226 178.99 30.0778C182.011 29.8746 185.396 30.4528 189.058 31.7809L188.714 32.7288C185.177 31.4476 181.927 30.8903 179.058 31.083C175.495 31.3121 172.417 32.6976 170.172 35.0934C167.698 37.7288 166.709 41.0361 166.839 42.9996L166.328 43.0361Z" fill="black"/>
<path d="M253.782 137.594L252.386 137.386C234.006 134.62 226.209 121.047 217.964 106.672C212.75 97.5838 207.354 88.188 198.985 81.2401C192.782 76.0838 185.599 72.8286 177.042 71.2869C174.625 70.8494 172.037 70.5422 169.339 70.3807L169.36 69.3755C172.141 69.5422 174.771 69.8547 177.224 70.2974C185.959 71.8703 193.287 75.1984 199.631 80.4692C208.136 87.5317 213.573 97.0109 218.839 106.172C226.776 120.006 234.287 133.094 251.334 136.193C250.339 134.407 251.183 133.021 251.818 131.959C252.459 130.907 252.787 130.282 252.229 129.48C251.917 129.5 251.604 129.511 251.297 129.511C240.521 129.511 232.943 117.902 224.219 104.537C217.391 94.0682 209.651 82.2036 199.203 74.5994C194.959 71.5005 190.62 69.3338 185.943 67.9797C181.839 66.7869 177.464 66.2453 172.943 66.3807L172.912 65.3755C177.537 65.2401 182.021 65.7922 186.219 67.0161C191.016 68.4067 195.453 70.6255 199.797 73.7974C210.396 81.5057 218.188 93.4536 225.063 103.99C233.927 117.579 241.584 129.323 252.417 128.464L252.677 128.443L252.844 128.641C254.11 130.136 253.318 131.443 252.677 132.495C251.917 133.74 251.261 134.823 252.834 136.563L253.782 137.594Z" fill="black"/>
<path d="M183.797 90.8226L183.146 90.057C187.38 86.4476 190.495 83.6195 192.412 81.6455L193.136 82.3434C191.198 84.3382 188.057 87.1976 183.797 90.8226Z" fill="black"/>
<path d="M172.203 132.578H155.88L155.828 132.135C155.823 132.083 155.24 126.802 154.885 120.203C154.807 118.661 154.74 117.172 154.698 115.776C154.438 107.396 154.823 101.182 155.844 97.2969C158.594 86.9531 170.953 73.7656 176.63 70.4948V70.2865L177.135 70.2812V70.7865L177.635 70.7917V71.0885L177.37 71.2344C171.953 74.1615 159.542 87.2865 156.813 97.5573C155.818 101.339 155.438 107.458 155.703 115.745C155.745 117.135 155.813 118.62 155.891 120.151C156.188 125.62 156.635 130.167 156.787 131.573H171.219C171.25 130.094 171.349 125.432 171.359 120.177C171.365 118.734 171.359 117.25 171.349 115.766C171.287 107.979 170.99 102.812 170.484 100.828L170.401 100.516L170.656 100.312C170.719 100.26 177.052 95.25 183.146 90.0677L183.797 90.8333C178.375 95.4479 172.771 99.9219 171.537 100.906C172.016 103.167 172.292 108.161 172.354 115.76C172.365 117.245 172.37 118.74 172.365 120.182C172.354 126.547 172.214 132.042 172.214 132.094L172.203 132.578Z" fill="black"/>
<path d="M208.99 133.558L208.62 133.235C208.568 133.188 203.625 128.865 198.474 124.115C197.557 123.261 196.625 122.391 195.714 121.526C190.943 117.011 187.979 113.896 186.906 112.282C183.386 106.99 181.615 101.709 182.969 90.3857L183.448 90.443H183.974L183.969 90.5107C182.511 102.672 184.922 107.49 187.74 111.729C188.776 113.282 191.688 116.339 196.406 120.802C197.318 121.662 198.24 122.526 199.162 123.386C203.49 127.381 207.667 131.068 208.912 132.157L217.604 122.74C216.505 121.636 212.854 118.006 208.646 113.995C207.802 113.183 206.917 112.354 206.037 111.526C202.537 108.261 199.609 105.651 197.328 103.771L197.12 103.599L197.146 103.339C197.708 97.3805 198.724 84.2764 198.807 80.8389L199.818 80.8649C199.734 84.266 198.745 97.0785 198.177 103.167C200.443 105.042 203.318 107.604 206.724 110.792C207.615 111.62 208.495 112.448 209.349 113.261C214.386 118.068 218.625 122.328 218.667 122.37L219.005 122.709L208.99 133.558Z" fill="black"/>
<path d="M155.391 119.672H171.859V120.682H155.391V119.672Z" fill="black"/>
<path d="M171.849 116.26H155.203L155.198 115.25H171.849V116.26Z" fill="black"/>
<path d="M198.469 123.369L208.641 113.255L209.349 113.974L199.177 124.088L198.469 123.369Z" fill="black"/>
<path d="M195.714 120.797L206.026 110.792L206.729 111.516L196.417 121.521L195.714 120.797Z" fill="black"/>
<path d="M172.781 147.099H138.037L138.104 146.532C138.193 145.818 138.443 145.136 138.849 144.511C141.479 140.354 150.193 139.146 153.912 138.636C158.5 138 159.792 134.198 160.151 131.99L161.146 132.151C160.458 136.375 157.87 139.099 154.047 139.625C150.776 140.078 142.078 141.282 139.693 145.047C139.479 145.381 139.323 145.729 139.219 146.089H171.797C171.797 145.787 171.787 145.349 171.766 144.802C171.651 142.453 171.203 137.703 169.443 132.224L170.401 131.917C172.198 137.5 172.656 142.36 172.766 144.75C172.823 145.922 172.797 146.584 172.797 146.61L172.781 147.099Z" fill="black"/>
<path d="M172.307 145.287H139.266V144.276H172.271L172.307 145.287Z" fill="black"/>
<path d="M213.797 147.099H200.963L200.812 146.896C200.359 146.292 200.213 145.506 200.396 144.672C200.88 142.427 203.661 140.125 208.792 139.995C210.432 138.37 212.297 131.834 211.12 130.391L211.901 129.756C213.578 131.808 211.271 139.235 209.312 140.875L209.177 140.995L209 141C203.63 141.078 201.687 143.479 201.38 144.891C201.286 145.334 201.328 145.756 201.495 146.094H213.333L226.401 130.953C226.12 130.729 225.698 130.401 225.177 130.011C223.198 128.511 219.479 125.808 216.823 124.526L217.26 123.62C219.995 124.938 223.776 127.688 225.781 129.209C226.781 129.964 227.437 130.485 227.443 130.49L227.849 130.813L213.797 147.099Z" fill="black"/>
<path d="M212.443 145.286H200.896V144.276H211.985L225.11 129.281L225.87 129.943L212.443 145.286Z" fill="black"/>
<path d="M201.959 66.4163C201.36 66.4163 200.766 66.3955 200.193 66.3538L199.953 66.333L199.813 66.1351C198.808 64.6716 197.729 62.833 196.61 60.6716C196.162 59.7966 195.714 58.8903 195.281 57.9788C192.026 51.083 188.552 41.4476 188.162 35.4684C188.068 34.0622 188.146 32.9632 188.406 32.1038C188.443 31.9632 188.5 31.8122 188.568 31.6403L188.709 31.3174L189.058 31.333C191.979 31.4424 194.891 32.307 197.709 33.9111C202.308 36.5257 206.792 41.2236 210.683 47.4893C213.537 52.0622 215.438 56.4215 216.526 59.2653C217.021 60.5465 217.443 61.7705 217.787 62.8903L217.891 63.2341L217.599 63.4476C216.766 64.0518 213.245 65.0205 209.589 65.6611C207.505 66.0257 204.656 66.4163 201.959 66.4163ZM200.511 65.3643C202.87 65.5153 206.021 65.2653 209.412 64.6716C212.964 64.0518 215.714 63.2445 216.698 62.7966C216.386 61.8018 216.011 60.7445 215.584 59.6247C214.505 56.8226 212.63 52.5309 209.823 48.0153C206.021 41.8903 201.656 37.3122 197.203 34.7861C194.651 33.3278 192.026 32.5101 189.386 32.3538C189.386 32.3643 189.38 32.3747 189.38 32.3799C189.156 33.1195 189.094 34.1351 189.177 35.3955C189.563 41.2445 192.985 50.7393 196.209 57.5466C196.625 58.4424 197.068 59.3434 197.521 60.208C198.558 62.2341 199.563 63.9632 200.511 65.3643Z" fill="black"/>
<path d="M209.114 65.4951C206.989 63.016 195.854 42.3493 196.953 34.2764L197.953 34.4118C196.917 42.0524 207.859 62.4847 209.88 64.8389L209.114 65.4951Z" fill="black"/>
<path d="M211.271 61.0104L204.443 48.526L210.25 47.25V47.7656L210.36 48.2448L205.969 49.2188L211.792 59.8646L215.943 58.9583L216.162 59.9427L211.271 61.0104Z" fill="black"/>
<path d="M187.292 61.9635C183.109 61.9635 178.724 61.3958 176.344 59.5625L176.958 58.7656C181.255 62.0781 193.734 60.9271 196.911 59.9583L197.203 60.9219C195.818 61.349 191.672 61.9635 187.292 61.9635Z" fill="black"/>
<path d="M187.787 59.0993C183.953 59.0993 179.886 58.6201 177.505 57.3337L177.985 56.4482C182.089 58.6618 192.005 58.3076 195.599 57.2816L195.87 58.2503C194.12 58.7503 191.037 59.0993 187.787 59.0993Z" fill="black"/>
<path d="M187.172 68.0101C186.766 68.0101 186.396 67.9997 186.058 67.984L186.11 66.9788C189.125 67.1299 195.433 66.5465 198.61 65.8226C199.422 65.6403 199.813 65.4945 200 65.3955L200.448 66.3018C200.104 66.4736 199.573 66.6351 198.834 66.8018C195.948 67.4684 190.506 68.0101 187.172 68.0101Z" fill="black"/>
<path d="M200.016 74.208L199.01 74.1559C199.047 73.484 198.646 68.3486 198.234 66.4163L199.219 66.208C199.656 68.2757 200.057 73.4372 200.016 74.208Z" fill="black"/>
<path d="M96.3127 72.7034L95.8335 71.818C102.005 68.4847 108.672 66.8649 115.63 67.0055L115.615 68.0159C108.828 67.8753 102.328 69.4534 96.3127 72.7034Z" fill="black"/>
<path d="M50.599 99.2972C49.9896 99.2972 49.4063 99.2035 48.849 99.0003C47.9219 98.667 47.3646 98.1462 47.2084 97.4535C46.8178 95.766 48.9271 93.6045 51.1667 91.3128C52.8907 89.5472 55.0365 87.3441 54.724 86.318C54.7084 86.2712 54.698 86.2555 54.698 86.2555C54.1094 85.917 50.6563 88.5055 48.3803 90.2139C43.6303 93.7816 37.7188 98.2295 33.625 97.9222C30.9271 97.7243 29.8959 96.3024 29.5 95.141C28.2136 91.3805 31.5782 84.8805 37.7292 79.1253C36.7761 78.7347 35.724 77.818 35.2761 76.4639C34.724 74.7868 34.8178 71.3545 41.6771 67.2764L42.1928 68.141C35.9428 71.8649 35.7761 74.7607 36.2344 76.1566C36.7188 77.6149 38.1303 78.3962 38.75 78.3389L40.2865 78.1826L39.1355 79.2139C32.0886 85.5264 29.4375 91.8441 30.4584 94.8285C30.8907 96.0941 31.9792 96.8024 33.7032 96.9274C37.4115 97.2035 43.1615 92.8857 47.7813 89.417C51.724 86.4535 53.8386 84.9274 55.0053 85.3024C55.2396 85.3805 55.5469 85.5628 55.6928 86.0264C56.1876 87.6201 54.198 89.6618 51.8959 92.0212C50.0365 93.9222 47.9323 96.0785 48.2032 97.2295C48.2344 97.3545 48.3178 97.7347 49.2084 98.0524C51.5521 98.8962 55.9688 97.8597 63.698 88.1826L64.5365 88.7347C62.5105 92.4795 63.3959 95.1201 64.7605 96.2503C66.3855 97.5941 68.8855 97.2712 71.1094 95.443C72.1928 94.5524 73.6094 92.7868 75.4011 90.5576C79.7136 85.193 86.2292 77.0785 95.6667 71.9274L96.1459 72.8128C86.8855 77.8649 80.448 85.8805 76.1876 91.1878C74.3594 93.4691 72.9115 95.266 71.7501 96.2243C69.1251 98.3753 66.1355 98.6878 64.1146 97.0316C62.8542 95.9951 61.9063 93.9535 62.5261 91.1618C57.8021 96.568 53.8126 99.2972 50.599 99.2972Z" fill="black"/>
<path d="M42.1719 68.1462L41.6562 67.2868C41.7708 67.2087 41.8958 67.1357 42.0156 67.0732L42.5312 67.9326C42.4167 68.0107 42.3021 68.0837 42.1719 68.1462Z" fill="black"/>
<path d="M38.0677 69.245C36.125 69.245 34.3542 68.5106 33.3698 67.12C31.6875 64.745 32.8646 61.4117 36.5261 58.219C44.5209 51.2242 55.2657 47.3648 67.599 47.0471C77.9948 46.7763 89.5417 49.0471 100.094 53.4377C106.146 55.9481 111.62 59.0523 115.932 62.4169L115.313 63.2138C111.073 59.9065 105.677 56.8492 99.7084 54.37C71.1042 42.4794 48.6563 48.9533 37.1927 58.9846C33.9636 61.8023 32.8438 64.6304 34.198 66.5471C35.3959 68.2502 38.599 69.0106 41.6823 67.2815L42.1719 68.1565C40.8646 68.8856 39.4219 69.245 38.0677 69.245Z" fill="black"/>
<path d="M132.443 69.9271L115.115 69.0781V61.3542L132.443 60.5V69.9271ZM116.125 68.1146L131.432 68.8698V61.5573L116.125 62.3073V68.1146Z" fill="black"/>
<path d="M131.943 67.5469H141.818V68.5573H131.943V67.5469Z" fill="black"/>
<path d="M137.511 66.7082C137.49 66.7082 137.459 66.7082 137.433 66.7082C136.974 66.6821 136.542 66.453 136.125 66.0102C135.714 66.3644 135.073 66.755 134.365 66.6248C133.891 66.5363 133.5 66.229 133.193 65.7134C132.927 65.828 132.62 65.9061 132.323 65.979L132.073 66.0415L131.818 65.0675L132.078 64.9998C132.459 64.9061 132.891 64.7967 133.021 64.6405L133.578 63.9634L133.881 64.7863C134.006 65.1405 134.229 65.5675 134.547 65.6248C134.927 65.6977 135.453 65.3123 135.787 64.9269L136.203 64.4477L136.573 64.9582C136.808 65.2811 137.151 65.6665 137.49 65.6873C137.844 65.7082 138.287 65.2707 138.667 64.8592C138.86 64.6457 139.104 64.2707 139.375 63.88C140.162 62.703 141.058 61.38 142.146 61.4269H142.792C142.506 60.8019 141.974 59.828 141.141 59.0311C140.25 58.1925 139.224 57.7342 138.089 57.6665C133.979 57.453 132.568 60.8123 132.417 61.203L131.479 60.8384C131.651 60.3852 133.323 56.3957 138.146 56.6665C139.526 56.7394 140.771 57.2915 141.834 58.3019C143.381 59.7811 143.995 61.703 144.016 61.7863L144.219 62.4373H142.125C141.594 62.4269 140.724 63.6873 140.214 64.4477C139.912 64.8957 139.662 65.2759 139.417 65.5415C139.011 65.9842 138.354 66.7082 137.511 66.7082Z" fill="black"/>
<path d="M136.667 65.2861L135.662 65.2549C135.719 63.3434 138.042 59.9476 139.141 59.4268L139.573 60.3434C138.844 60.6768 136.714 63.7497 136.667 65.2861Z" fill="black"/>
<path d="M133.906 64.9847L132.896 64.9535C132.953 62.9587 134.281 60.0576 135.292 59.1826L135.953 59.943C135.198 60.5993 133.953 63.1722 133.906 64.9847Z" fill="black"/>
<path d="M146.214 62.4427H143.526V61.4375H146.209L146.214 62.4427Z" fill="black"/>
<path d="M141.667 59.1458L141.297 58.2083C144.25 57.0365 159.094 52.8177 164.005 52.6562L164.042 53.6615C159.328 53.8177 144.5 58.0208 141.667 59.1458Z" fill="black"/>
<path d="M175.672 26.5726L176.505 26.0049L179.438 30.2861L178.604 30.859L175.672 26.5726Z" fill="black"/>
<path d="M107.328 104.807C106.448 99.5104 106.974 94.3229 108.084 91.8646C102.052 93.8698 98.9066 97.7917 98.9066 99.4948V101.464L97.9639 99.7396C95.8962 95.9583 96.9014 84.9896 100.802 78.5156C101.771 76.9063 102.86 75.6927 104.042 74.901C99.1566 75.5156 93.4743 77.9167 91.943 80.3385L90.9326 81.9427L91.0107 80.0469C91.1462 76.9792 93.6514 73.0938 95.641 71.9271C95.7191 71.8802 95.7868 71.8385 95.8545 71.8125L96.3076 72.7135C96.2555 72.7396 96.2087 72.7656 96.1566 72.7969C94.7712 73.6146 93.0316 76.099 92.3337 78.4115C95.7191 75.4844 103.162 73.3802 107.61 73.8125L107.552 74.8125C104.813 74.7708 102.839 77.0885 101.667 79.0417C98.4014 84.4583 97.2139 93.4531 98.3232 97.8438C99.766 94.8177 104.698 91.6823 109.188 90.4948L112.094 89.724L109.594 91.3958C108.526 92.1146 107.193 97.8385 108.328 104.651L107.328 104.807Z" fill="black"/>
<path d="M109.547 110.239L107.802 107.099C107.38 106.338 107.219 105.526 107.323 104.666L107.735 101.114L108.318 104.64C108.433 105.338 108.568 106.041 108.729 106.734L109.547 110.239Z" fill="black"/>
<path d="M59.9219 133.604L58.875 133.339C38.6823 128.318 22.6198 128.047 11.125 132.537L10.8333 132.651L10.6042 132.443C-5.16145 118.125 -0.661448 97.8545 7.56772 88.0368L8.39584 88.6045C6.7448 91.5732 7.96355 98.5003 10.5729 100.964C11.4948 101.834 12.4115 101.964 13.3698 101.36C17.849 98.516 16.1823 90.6566 13.9636 83.3441C11.2708 74.4378 15.2761 62.0368 22.2083 57.8285L24.2552 56.5837L22.8802 58.5472C20.3281 62.1878 20.8594 65.516 22.2083 67.4066C23.0729 68.6253 24.3073 69.2607 25.2865 68.9795C26.3802 68.6722 27.0938 67.2607 27.2344 65.1201C27.8802 55.2816 34.0208 39.7295 40.9636 34.4222L43.6719 32.3545L41.6771 35.1201C39.4427 38.2191 40.2396 40.7451 40.9219 41.9795C41.9323 43.8285 43.8958 45.042 45.6667 44.9378C46.625 44.8805 47.9271 44.4222 48.6927 42.5264C51.5938 35.3962 59.8906 28.4274 65.0833 27.1878L65.3958 28.141C63.1198 29.1149 60.9323 35.0941 61.5573 38.6201C61.8021 39.9743 63.4219 41.0055 65.3386 41.016C66.2604 41.0212 69.4427 40.7191 70.2188 36.6097C71.4427 30.1462 76.9063 21.6462 88.5833 17.1826L89.0156 18.0889C83.6615 21.1514 83.4063 27.6722 83.7344 31.2868C84.3229 37.7712 87.25 43.3545 88.9323 43.9482C89.8125 44.2555 90.5833 44.141 91.2969 43.5993C93 42.292 94.0469 38.6722 93.7708 34.9951L93.6927 33.9066L94.5677 34.5472C99.3906 38.0576 102.38 48.0837 100.385 54.0524L99.4323 53.7295C101.156 48.5732 98.7708 39.8285 94.8229 36.068C94.8438 39.6982 93.7083 43.0212 91.9063 44.4014C90.9271 45.1462 89.7865 45.318 88.5938 44.9014C86.125 44.0368 83.2813 37.4639 82.724 31.3857C82.2761 26.4014 83.3125 22.3285 85.6771 19.5576C76.6198 24.0785 72.2604 31.2347 71.2083 36.7972C70.4792 40.6566 67.7188 42.0264 65.3698 42.0264C65.3594 42.0264 65.349 42.0264 65.3386 42.0264C62.9063 42.0107 60.9011 40.6566 60.5729 38.7972C60.0729 36.0055 61.1823 31.5785 63.0052 29.016C58.1667 31.2972 52.0208 37.042 49.6302 42.9066C48.875 44.766 47.4844 45.8441 45.724 45.9482C43.5625 46.068 41.2292 44.641 40.0365 42.4691C39.1354 40.818 38.974 38.9691 39.5313 37.1514C34.4427 42.7816 28.9167 54.8701 28.2396 65.1826C28.0052 68.7347 26.4583 69.693 25.5625 69.9482C24.1563 70.3493 22.5156 69.5785 21.3854 67.9899C20.1146 66.2087 19.4636 63.3493 20.8438 60.1305C15.5417 65.0368 12.6563 75.542 14.9323 83.0576C17.375 91.1201 18.9427 99.0212 13.9115 102.209C12.5625 103.063 11.1302 102.881 9.87501 101.698C7.59897 99.5472 6.30209 94.5055 6.72918 90.8128C-0.109364 100.844 -2.90103 118.599 11.0469 131.49C22.5156 127.115 38.3281 127.323 58.0677 132.104L53.7448 123.313L54.7969 123.578C55.1511 123.667 89.2761 132.183 104.573 132.354L98.1094 127.782L99.9948 127.964C112.958 129.203 137.599 130.896 144.313 129.052C140.135 127.558 136.391 124.719 133.156 120.61C129.375 115.792 127.286 110.485 126.208 106.886C124.307 100.558 124.036 94.5316 125.385 91.2868C114.057 96.3493 108.646 101.657 108.323 104.771L107.318 104.667C107.87 99.4274 117.948 93.3493 126.406 89.7399L128.396 88.891L126.984 90.5316C124.99 92.8493 125.068 99.6045 127.167 106.594C132.214 123.417 142.797 127.62 145.917 128.516L147 128.823L146.042 129.422C141.229 132.448 109.896 129.865 101.76 129.141L107.641 133.308L106.141 133.349C93 133.761 61.724 126.313 55.5886 124.813L59.9219 133.604Z" fill="black"/>
<mask id="mask1_5516_27668" style="mask-type:luminance" maskUnits="userSpaceOnUse" x="45" y="0" width="10" height="22">
<path d="M45.3335 0.515625H54.6668V22H45.3335V0.515625Z" fill="white"/>
</mask>
<g mask="url(#mask1_5516_27668)">
<path d="M46.2241 21.349L46.5314 20.4219C46.7085 19.8958 46.8908 19.3594 47.0835 18.8073C48.6147 14.375 50.3439 9.35417 49.5158 2.70833L49.2293 0.515625L50.4272 2.38021C53.9481 7.86458 55.1147 12.3333 53.8908 15.6562C52.9637 18.1719 50.6929 19.9948 47.146 21.0677L46.2241 21.349ZM50.6929 4.76042C50.9689 10.6042 49.3543 15.2917 48.0314 19.1354C47.9533 19.3542 47.8804 19.5677 47.8075 19.7865C50.4897 18.7917 52.2137 17.2865 52.9481 15.3021C53.9272 12.6563 53.1616 9.11458 50.6929 4.76042Z" fill="black"/>
</g>
<path d="M117.234 43.9268L115.625 43.5153C109.641 41.9945 108.109 38.859 107.88 36.4997C107.531 32.9007 110.047 29.1872 112.615 27.9684L113.401 27.5986L113.333 28.4684C112.922 33.7861 112.979 39.182 116.13 42.6924L117.234 43.9268ZM112.26 29.3538C110.333 30.7288 108.615 33.6507 108.885 36.4059C109.13 38.9736 111.031 40.9268 114.406 42.1038C112.12 38.6247 111.958 33.9945 112.26 29.3538Z" fill="black"/>
<path d="M8.83852 62.651L7.65623 61.375C5.92185 59.4948 5.03643 55.5 6.61977 52.3229C7.53123 50.4896 10.0312 47.5156 16.5521 48.1614L19.4479 48.4427L16.6302 49.151C13.8594 49.8385 7.57289 55.7396 8.52602 60.9375L8.83852 62.651ZM14.4375 49.0781C10.25 49.1718 8.36977 51.0677 7.52081 52.7656C6.46873 54.8854 6.65102 57.3958 7.44789 59.1979C7.81768 55.0156 11.5469 50.9062 14.4375 49.0781Z" fill="black"/>
<path d="M53.2139 65.7607C50.7921 65.7607 49.1775 64.0055 48.8025 62.1097C48.3858 60.016 49.4535 57.5003 52.7816 56.6201L53.0421 57.5941C50.1566 58.3545 49.4848 60.3962 49.7921 61.9118C50.115 63.5316 51.5941 65.0107 53.7973 64.7139L53.9379 65.7139C53.6827 65.7399 53.4431 65.7607 53.2139 65.7607Z" fill="black"/>
<path d="M70.6459 81.9424C70.0261 81.9424 69.4584 81.859 68.9532 81.6768C68.198 81.3955 67.2969 80.7809 66.9219 79.4268C64.5886 80.9372 62.0834 80.8122 60.4375 80.1299C58.8594 79.484 57.823 78.2861 57.6667 76.9268C57.4948 75.4684 58.349 73.9893 60.0678 72.7549L60.6563 73.5726C59.25 74.583 58.5417 75.734 58.6719 76.807C58.7865 77.7965 59.5938 78.6976 60.8282 79.2028C62.3698 79.8382 64.7917 79.9007 66.9636 78.1559L67.6928 77.5726L67.7813 78.5049C67.8959 79.6611 68.3959 80.3851 69.3125 80.7236C71.9948 81.7132 77.3803 79.1924 80.4011 76.2757L81.1042 76.9997C78.375 79.6299 73.8594 81.9424 70.6459 81.9424Z" fill="black"/>
<path d="M85 62.6774C82.7448 62.6774 81.2239 61.3076 80.7187 59.8389C80.1042 58.0837 80.8594 56.3493 82.6354 55.417L83.1042 56.3076C81.5104 57.141 81.3177 58.5055 81.6667 59.5055C82.125 60.8076 83.6614 62.0107 85.9635 61.5732L86.1562 62.5628C85.75 62.641 85.3646 62.6774 85 62.6774Z" fill="black"/>
<path d="M103.401 68.2549C102.412 68.2549 101.448 67.6924 100.948 66.7913C100.333 65.6924 100.511 64.3747 101.432 63.1768L102.229 63.7913C101.573 64.6559 101.427 65.5726 101.828 66.307C102.182 66.932 102.875 67.307 103.557 67.2445L103.656 68.2497C103.573 68.2497 103.484 68.2549 103.401 68.2549Z" fill="black"/>
</svg>
