<svg width="216" height="144" viewBox="0 0 216 144" fill="none" xmlns="http://www.w3.org/2000/svg">
<path d="M111.906 26.5052C112.167 26.6354 112.844 26.974 122.599 27.2136L118.688 32.9531L119.396 33.4323L123.62 27.2396C126.958 27.3177 130.839 27.375 135.177 27.4063L122.651 45.7761L123.354 46.2552L136.214 27.4167C138.755 27.4375 141.417 27.4531 144.125 27.4531L136.38 38.7969L137.089 39.2761L145.156 27.4531C145.88 27.4531 146.609 27.4531 147.339 27.4531C153.781 27.4531 160.365 27.4063 166.203 27.3281L160.708 35.3802L161.417 35.8594L167.25 27.3125C173.953 27.2188 185.135 26.9948 186.615 26.5261C187.688 26.1875 188.188 25.4583 187.958 24.5781C187.438 22.6198 183.234 20.4115 178.438 21.0469C179.823 18.7969 179.323 17.599 178.599 16.974C177.448 15.9844 175.089 16.0833 173.594 16.8125C173.604 15.8646 173.219 15.0521 172.464 14.4583C171.443 13.6563 169.995 13.4375 168.88 13.6563C170.349 9.40626 170.172 6.07813 168.349 3.76563C164.995 -0.499992 157.172 0.161467 154.854 0.46355C150.979 0.973967 147.943 2.96355 146.74 5.78647C146.026 7.44793 145.995 9.27084 146.62 11.1094C143.458 8.42709 140.177 8.47397 138.052 9.53647C135.469 10.8333 134.167 13.5469 134.557 16.5625C131.672 14.1354 128.099 14.599 125.766 16.2448C123.698 17.6979 122.781 19.8281 123.318 21.6927C117.609 20.125 112.162 22.6302 111.26 24.7604C110.938 25.4948 111.182 26.1458 111.906 26.5052Z" fill="black"/>
<mask id="mask0_5546_11875" style="mask-type:luminance" maskUnits="userSpaceOnUse" x="0" y="2" width="216" height="142">
<path d="M0.286621 2.33301H215.667V143.666H0.286621V2.33301Z" fill="white"/>
</mask>
<g mask="url(#mask0_5546_11875)">
<path d="M214.766 115.036C213.708 110.927 205.948 109.27 199.099 107.807C195.12 106.958 190.609 105.994 190.453 104.843C190.422 104.619 190.583 103.968 192.766 102.812C194.068 102.13 195.714 101.489 197.453 100.823C200.26 99.734 203.432 98.51 206.312 96.6611C209.719 94.4632 211.474 92.135 211.531 89.7288C211.589 87.3382 210.005 84.9788 206.823 82.7028L206.651 82.5725L206.443 82.6403C197.635 85.5934 190.672 83.0725 188.896 82.3017C188.687 80.8434 187.958 77.9944 186.734 73.833C186.297 72.3434 185.844 70.8225 185.406 69.3955C184.594 66.7288 183.865 64.4215 183.469 63.1819L183.37 62.8642C182.583 60.3486 179.464 56.26 175.542 54.7444L186 39.4163L185.286 38.9371L174.693 54.4632C174.229 54.333 173.771 54.2444 173.323 54.1975C174.083 51.734 175.286 44.359 171.734 41.3798C169.344 39.3746 162.016 39.4007 159.073 42.0778L158.771 42.3538L159.036 42.6663C159.24 42.9059 159.479 43.2392 159.74 43.6246C159.078 44.5465 159.104 45.4319 159.135 46.1559C159.146 46.333 159.146 46.4996 159.146 46.6611C159.135 47.0205 158.828 47.4736 158.578 47.8382C158.286 48.2653 158.057 48.6038 158.115 48.9632C158.198 49.4996 158.714 49.7757 159.125 49.9892C159.219 50.0413 159.312 50.0882 159.401 50.1403C159.443 50.2705 159.458 50.6298 159.474 50.8955C159.516 51.7444 159.573 52.9059 160.333 53.4944C160.745 53.8069 161.323 53.9111 161.922 53.9111C162.656 53.9111 163.401 53.7548 163.885 53.6298C163.922 53.958 163.953 54.2653 163.958 54.5517C162.984 54.7236 161.906 55.135 160.745 55.7653C155.828 58.4632 150.516 64.6507 149.109 68.2548C148.302 68.109 146.24 67.7184 144.104 67.2861C143.234 67.109 142.354 66.9267 141.536 66.7548C139.995 66.4215 138.854 66.1507 138.24 65.9632L138.125 65.9319L138.005 65.958C137.589 66.0673 137.125 66.2653 136.651 66.5361C134.13 65.9528 131.573 66.2913 129.375 67.4944C129.26 66.3121 129.094 65.208 128.891 64.2184L144.964 40.6611L144.255 40.1819L128.625 63.0934C127.547 58.984 125.557 56.5621 122.693 55.8903C122.687 55.7965 122.687 55.708 122.687 55.6194C123.911 54.7288 124.208 53.1142 124.031 52.0465C124.609 51.484 124.833 50.7184 124.646 49.9007C124.365 48.6663 123.234 47.5778 121.969 47.2965C120.948 47.0725 119.995 47.4059 119.266 48.2236C118.344 48.0361 117.464 48.3486 116.901 49.0621C116.214 49.9475 116.182 51.2236 116.797 52.3694C116.719 52.6663 116.698 53.0986 116.885 53.484C117 53.7236 117.229 54.0153 117.693 54.1767C117.786 54.5205 117.974 54.8642 118.255 55.1871C118.276 55.2809 118.271 55.4007 118.229 55.5309C117.76 55.5934 116.828 55.7184 116.365 55.8642C115.573 55.7861 114.875 55.859 114.339 56.0778C114.245 55.9892 114.151 55.8955 114.036 55.8069L113.875 55.6663L110.453 56.4892C108.917 50.0413 106.24 47.8903 105.333 47.3225L105.557 46.1246L105.531 46.1142C105.896 45.9059 106.24 45.6194 106.526 45.2757C107.016 44.6871 107.297 43.9944 107.318 43.333L108.406 43.0048L107.786 42.4944C107.229 42.0309 107.12 41.458 107 40.7965C106.917 40.3382 106.823 39.8694 106.594 39.3955C106.557 38.9111 106.26 38.4267 105.75 38.0205C104.901 37.3486 103.396 36.833 101.937 37.1923C100.24 37.609 98.2708 39.1559 98.3125 42.1298C98.3177 42.2861 98.3229 42.4319 98.3385 42.5725C96.5625 43.635 95.6771 43.359 94.5625 42.9996C93.6771 42.7132 92.6719 42.3955 91.1302 42.6975C89.6666 42.9892 88.2083 44.2861 87.5833 45.8486C87.0625 47.1559 87.1771 48.4475 87.9166 49.484L88.2448 49.9475L88.5989 49.4996C90.2239 47.4423 92.0052 47.6611 93.7344 47.8746C94.6562 47.9892 95.5312 48.0882 96.3073 47.8225C96.4479 48.4996 96.7396 49.4423 97.3385 50.1663C93.8646 55.4892 92.9531 65.0882 92.7291 70.6767H78.2656L87.4375 57.2496L86.7291 56.7705L77.2396 70.6767H75.2135C73.6198 70.6767 72.0573 70.9475 70.5729 71.4788V69.7184H74.3698L69.2292 52.5205H67.5364L87.3385 23.4944C90.4948 23.359 91.1979 23.2184 91.4583 23.1038C92.0937 22.8173 92.1719 22.3538 92.1666 22.1038C92.1354 21.2288 91 20.4215 89.7969 19.8903L98.5364 7.07775L97.8333 6.59859L88.9739 19.5725C87.7239 19.1507 85.1562 18.5361 82.1146 19.26C82.4323 17.9944 81.8385 16.609 80.4583 15.5413C78.4114 13.9475 75.2604 13.5048 72.7239 15.3955C72.8594 13.3486 71.8229 11.4528 69.9114 10.4319C68.1667 9.49963 65.4844 9.31734 62.8489 11.2236C63.2448 9.99963 63.2187 8.78609 62.7656 7.6663C61.8333 5.37463 59.2604 3.77567 55.875 3.36942C53.8594 3.12984 47.0573 2.61942 44.4062 6.16109C43.1094 7.88504 43.0156 10.2653 44.1146 13.2444C43.125 13.1038 41.8802 13.333 41.0677 14.0153C40.5677 14.4423 40.2969 14.9892 40.2708 15.6142C38.9844 15.0986 36.9583 14.9996 36.0312 15.8798C35.5156 16.3642 35.1823 17.2496 36.1458 18.7861C32.1198 18.3538 28.7239 20.0725 28.3594 21.5934C28.2917 21.8538 28.1927 22.7444 29.5469 23.1298C30.4531 23.3903 44.7083 23.6767 50.7917 23.7809H50.7969C54.25 23.8121 58.0469 23.8278 61.9219 23.8278C62.5521 23.8278 63.1875 23.8278 63.8229 23.8278L61.5469 27.1663L62.2552 27.6455L64.8594 23.8225C67.0364 23.8225 69.2864 23.8173 71.5521 23.8017L57.3802 44.5725L58.0885 45.0517L72.5885 23.7913C78.3125 23.7444 83.0104 23.6559 86.276 23.5413L66.5 52.5205H34.2656L49.0312 31.6455L48.3333 31.1559L33.2135 52.5205H24.1614L19.0208 69.7236H22.4479V84.0257C21.0208 83.9319 19.651 83.4944 18.2917 82.6871L18.0729 82.5569L17.8594 82.6819C14.4583 84.6559 12.7344 86.8017 12.7448 89.0413C12.7552 93.0569 18.4219 96.2913 20.5521 97.51C20.7708 97.6298 20.8177 97.7184 20.8229 97.7184C20.6979 98.3069 17.2864 99.4475 14.7969 100.281C8.34894 102.437 0.32811 105.125 0.546859 109.635C1.21353 123.218 21.7656 124.895 43.8802 124.682C52.7239 124.578 56.1823 127.547 60.5469 131.281C65.4375 135.458 71.526 140.656 87.7344 142.718C90.875 143.114 93.8489 143.291 96.6823 143.291C108.005 143.291 117.036 140.489 125.198 137.953C134.734 134.989 143.75 132.187 154.766 134.192C174.401 137.755 205.469 127.541 213.078 119.364C214.531 117.791 215.104 116.338 214.766 115.036ZM112.365 62.583C112.172 62.5882 111.979 62.5934 111.797 62.609C112.01 62.4944 112.219 62.3798 112.411 62.2757C112.391 62.3798 112.375 62.484 112.365 62.583ZM158.599 72.1819C159.49 71.2861 160.234 70.4684 160.776 69.8434C160.917 70.4996 161.167 71.7236 161.589 74.0309L161.641 74.3069C160.729 73.4632 159.708 72.76 158.599 72.1819Z" fill="black"/>
</g>
<path d="M188.495 82.6038C188.516 82.7809 188.531 82.932 188.531 83.0518C188.328 83.1768 188 83.3122 187.557 83.4528C183.604 84.7028 170.917 86.3851 165.604 85.4424C164.932 85.3278 164.375 85.1611 163.974 84.9528C163.974 84.9528 163.406 81.6559 162.755 78.0465C166.261 77.2028 182.682 74.0934 186.323 73.958C187.386 77.5934 188.318 81.0674 188.495 82.6038Z" fill="#D14256"/>
<path d="M135.979 26.9946C131.354 26.9582 127.047 26.9009 123.396 26.8123C117.078 26.6613 112.724 26.4373 112.099 26.1248C109.479 24.8176 116.583 19.7707 124.057 22.3905C121.442 17.8957 130.073 11.7342 135.271 17.9061C132.958 10.3384 142.094 5.08838 148.541 13.8488C144.057 7.74464 147.797 1.83318 154.901 0.895677C162 -0.0314067 173.213 1.27589 168.166 14.354C169.849 13.4165 173.963 14.354 173.021 17.7186C174.703 16.0363 181.807 15.8488 177.51 21.6457C184.427 20.1561 190.031 25.0051 186.484 26.1248C185.328 26.4894 177.354 26.7551 167.015 26.9009C160.245 26.9946 152.463 27.0467 144.932 27.0311C141.875 27.0311 138.864 27.0207 135.979 26.9946Z" fill="#4A8BDF"/>
<path d="M178.578 93.443C178.213 93.516 177.849 93.5837 177.474 93.6357C172.578 94.3545 167.682 92.1878 164.057 90.7035C164.911 89.1045 165.458 87.3337 165.604 85.4378C170.917 86.3805 183.604 84.6982 187.557 83.4482C187.354 85.917 185.703 91.0368 185.64 91.2139C183.406 92.0055 181.14 92.9326 178.578 93.443Z" fill="#D14256"/>
<path d="M184.99 69.5205C185.427 70.9476 185.88 72.4684 186.318 73.958C182.682 74.0934 166.255 77.2028 162.75 78.0465C162.604 77.2393 162.453 76.4163 162.307 75.6038C162.203 75.0413 162.104 74.4893 162.005 73.958C164.083 73.1507 181.625 69.5986 184.99 69.5205Z" fill="#F9CA06"/>
<path d="M174.875 54.964C178.787 56.214 182.146 60.4067 182.953 62.9953C183.297 64.0734 184.099 66.5994 184.99 69.5161C181.625 69.5942 164.083 73.1515 162.011 73.9536C161.521 71.3078 161.104 69.1567 160.985 68.9328C165.495 63.7817 164.13 57.5682 160.953 56.1411C162.146 55.4901 163.313 55.0473 164.38 54.9171C164.412 54.3598 164.36 53.7401 164.25 53.089C163.714 49.9171 161.724 45.9171 160.276 43.6567C159.932 43.1255 159.625 42.6984 159.365 42.3963C162.182 39.8286 169.339 39.9223 171.464 41.7088C175.151 44.7973 173.401 53.0526 172.735 54.5994C173.453 54.6046 174.172 54.7401 174.875 54.964Z" fill="#D14256"/>
<path d="M103.438 91.9639C101.057 92.6774 98.6562 93.2868 96.2448 93.542C88.0729 94.4118 82.8542 89.1982 76.2448 89.1982C72.6458 89.1982 68.224 90.8441 64.0677 91.6722C63.9635 91.516 63.8594 91.3545 63.7656 91.1878L77.4688 71.1045H133.573C133.438 71.6253 133.37 72.1826 133.38 72.7816C133.797 73.068 135.589 73.6774 137.88 74.3701C138.703 74.6201 139.589 74.8805 140.505 75.1357C144.479 76.2555 148.891 77.3545 150.307 77.4587C152.031 77.5785 155.318 74.8441 157.885 72.3076C159.583 73.0941 161.094 74.2243 162.318 75.6097C162.464 76.417 162.609 77.2399 162.76 78.0524C163.406 81.6618 163.979 84.9587 163.979 84.9587C164.38 85.167 164.932 85.3285 165.609 85.4482C165.464 87.3389 164.922 89.1201 164.062 90.7087C162.797 90.1878 161.682 89.7555 160.781 89.5472C158.036 88.9378 148.385 91.7712 141.609 93.0524C139.786 93.3962 138.167 93.6253 136.948 93.6462C131.203 93.7451 127.734 88.5055 120.078 88.1566C114.677 87.9066 109.115 90.2451 103.438 91.9639ZM152.917 81.7347C152.917 80.1982 151.672 78.9535 150.135 78.9535C149.073 78.9535 148.156 79.542 147.682 80.417H134.255C133.781 79.5472 132.865 78.9535 131.807 78.9535C130.266 78.9535 129.021 80.1982 129.021 81.7347C129.021 83.2712 130.271 84.516 131.807 84.516C132.865 84.516 133.786 83.9222 134.26 83.0472H147.677C148.151 83.9222 149.073 84.516 150.135 84.516C151.672 84.5212 152.917 83.2712 152.917 81.7347ZM106.448 81.7347C106.448 80.1982 105.198 78.9535 103.661 78.9535C102.604 78.9535 101.682 79.542 101.214 80.417H87.7865C87.3125 79.5472 86.3906 78.9535 85.3333 78.9535C83.7917 78.9535 82.5521 80.1982 82.5521 81.7347C82.5521 83.2712 83.7969 84.516 85.3333 84.516C86.3958 84.516 87.3177 83.9222 87.7865 83.0472H101.208C101.682 83.9222 102.604 84.516 103.661 84.516C105.198 84.5212 106.448 83.2712 106.448 81.7347Z" fill="#F9CA06"/>
<path d="M164.25 53.0885C164.114 53.1302 161.583 53.9115 160.599 53.1562C159.594 52.375 160.114 50.0885 159.682 49.8073C159.25 49.5365 158.609 49.3281 158.536 48.8958C158.469 48.4583 159.547 47.5469 159.573 46.6771C159.594 45.8073 159.318 44.776 160.208 43.6979L160.271 43.6562C161.724 45.9167 163.708 49.9167 164.25 53.0885Z" fill="#C41830"/>
<path d="M160.953 56.1406C164.13 57.5677 165.495 63.7813 160.984 68.9323C160.37 69.7031 159.224 70.974 157.88 72.3021C155.318 74.8438 152.026 77.5781 150.302 77.4531C148.885 77.349 144.474 76.25 140.5 75.1302C141.156 72.6198 143.224 68.2552 144.021 67.7031C146.781 68.2552 149.391 68.7396 149.391 68.7396C150.526 65.3333 155.99 58.8646 160.953 56.1406Z" fill="#D14256"/>
<path d="M150.136 78.9531C151.677 78.9531 152.917 80.1979 152.917 81.7344C152.917 83.2708 151.672 84.5156 150.136 84.5156C149.073 84.5156 148.151 83.9219 147.677 83.0469H149.448C149.818 83.0469 150.141 82.901 150.38 82.6615C150.62 82.4219 150.766 82.0937 150.766 81.7292C150.766 81.0052 150.182 80.4115 149.448 80.4115H147.682C148.156 79.5417 149.073 78.9531 150.136 78.9531Z" fill="#D14256"/>
<path d="M149.453 80.417C150.182 80.417 150.766 81.0107 150.766 81.7399C150.766 82.1045 150.62 82.4274 150.38 82.667C150.146 82.9066 149.823 83.0524 149.453 83.0524H132.495C131.771 83.0524 131.177 82.4691 131.177 81.7399C131.177 81.3753 131.323 81.0472 131.563 80.8076C131.807 80.568 132.13 80.417 132.495 80.417H149.453Z" fill="#D14256"/>
<path d="M144.021 67.7035C143.229 68.2555 141.161 72.6201 140.5 75.1305C139.589 74.8701 138.703 74.6097 137.875 74.3649V74.3597C138.333 71.4482 140.854 67.667 141.448 67.167C142.266 67.3441 143.151 67.5316 144.021 67.7035Z" fill="#F9CA06"/>
<path d="M141.448 67.167C140.859 67.6722 138.333 71.4482 137.875 74.3597V74.3649C135.583 73.6774 133.792 73.0628 133.375 72.7764C133.365 72.1774 133.432 71.6149 133.568 71.0993C134.068 69.0941 135.479 67.7243 136.724 66.9795C137.25 66.667 137.734 66.4639 138.12 66.3701C138.797 66.5785 140.031 66.8649 141.448 67.167Z" fill="#D14256"/>
<path d="M136.724 66.9792C135.479 67.724 134.063 69.0938 133.568 71.099H126.141C126.271 70.875 126.427 70.6459 126.594 70.4219C127.193 69.6198 128.021 68.8334 129.021 68.1928C130.995 66.9375 133.667 66.224 136.724 66.9792Z" fill="#C41830"/>
<path d="M132.485 83.0518H134.255C133.781 83.9215 132.86 84.5205 131.802 84.5205C130.261 84.5205 129.021 83.2705 129.021 81.7393C129.021 80.1976 130.266 78.958 131.802 78.958C132.86 78.958 133.776 79.5465 134.25 80.4215H132.485C132.12 80.4215 131.797 80.5726 131.557 80.8122C131.318 81.0518 131.172 81.3799 131.172 81.7445C131.177 82.4632 131.761 83.0518 132.485 83.0518Z" fill="#D14256"/>
<path d="M128.443 64.1201C128.703 65.2972 128.901 66.6462 129.021 68.193C128.016 68.8337 127.193 69.6201 126.589 70.4222C126.547 69.2191 126.474 68.1149 126.396 67.1201L128.443 64.1201Z" fill="#4A8BDF"/>
<path d="M126.401 67.1201C126.479 68.1149 126.552 69.2191 126.594 70.4222C126.427 70.6514 126.271 70.8753 126.14 71.0993H123.802C123.786 71.068 123.765 71.0368 123.745 71.0055L126.401 67.1201Z" fill="#4A8BDF"/>
<path d="M119.432 48.6976C121.76 45.6716 125.989 49.9893 123.578 51.8903C122.755 52.4112 120.932 52.1976 119.838 51.2705C119.625 51.6507 117.958 52.6403 117.271 52.333C115.974 50.2028 117.474 48.0882 119.432 48.6976Z" fill="#D14256"/>
<path d="M123.578 51.8903C123.844 52.8903 123.563 54.5986 122.281 55.3799C121.901 55.6195 121.438 55.7653 120.865 55.7965C119.995 55.8434 119.141 55.5622 118.636 54.9736C118.271 54.5674 118.104 54.1872 118.073 53.8382C116.969 53.6247 117.13 52.609 117.271 52.333C117.953 52.6403 119.625 51.6507 119.839 51.2705C120.933 52.1976 122.755 52.4111 123.578 51.8903Z" fill="#C41830"/>
<path d="M122.313 56.2295C122.36 56.5785 122.432 56.8232 122.432 56.8232C122.432 56.8232 121.386 58.7087 118.333 56.3441C118.333 56.3441 118.458 56.167 118.563 55.917C118.677 55.641 118.771 55.2764 118.641 54.9639C119.146 55.5524 120 55.8337 120.87 55.7868C121.438 55.7607 121.901 55.6097 122.287 55.3753C122.25 55.6826 122.271 55.9795 122.313 56.2295Z" fill="#C41830"/>
<path d="M120.62 59.1514C120.739 59.6097 120.307 60.0055 119.917 59.8389C119.755 59.4326 118.437 57.792 117.667 57.5316L118.031 56.6826C119.265 57.1566 120.359 58.0003 120.62 59.1514Z" fill="#C41830"/>
<path d="M117.667 57.5361C118.432 57.7966 119.75 59.4372 119.911 59.8434C120.13 60.4059 119.479 60.7132 119.073 60.5726C119.193 61.3226 118.51 61.6091 118.172 61.3538C117.833 61.1091 116.99 59.9997 116.99 59.9997C116.573 60.3851 115.188 60.3747 115.062 60.2497C115.062 60.2497 115.641 58.2028 114.25 56.5986C114.76 56.2913 115.557 56.1976 116.427 56.2966H116.432C116.958 56.3591 117.505 56.4893 118.031 56.682L117.667 57.5361Z" fill="#C41830"/>
<path d="M116.99 64.0104C115.453 63.2396 114.031 63.0052 112.75 63C112.755 62.5313 113.021 61.4479 113.021 61.4479C114.25 60.7552 115.062 60.25 115.062 60.25C115.188 60.375 116.578 60.3906 116.99 60C116.99 60 117.833 61.1094 118.172 61.3542C118.51 61.6094 119.193 61.3229 119.073 60.5729C119.479 60.7135 120.13 60.4063 119.911 59.8438C120.307 60.0104 120.74 59.6094 120.615 59.151C120.354 58 119.266 57.1615 118.026 56.6875C117.495 56.4896 116.948 56.3646 116.422 56.2969C116.917 56.1094 118.552 55.9219 118.552 55.9219C118.448 56.1719 118.323 56.3438 118.323 56.3438C121.375 58.7135 122.422 56.8281 122.422 56.8281C122.422 56.8281 122.349 56.5781 122.302 56.2344C124.323 56.6094 127.135 58.0833 128.438 64.125L126.391 67.125L123.734 71.0104C121.385 67.1406 119.089 65.0677 116.99 64.0104Z" fill="#4A8BDF"/>
<path d="M97.8908 50.1254C97.1929 49.464 96.7918 48.2817 96.6564 47.2035C96.5366 46.2088 96.646 45.2973 96.9689 44.9588C97.2397 44.6723 98.5262 44.8129 99.995 45.0994C100 45.0994 100 45.0994 100 45.0994C100.172 45.1567 100.344 45.1879 100.521 45.1983C101.87 45.4796 103.287 45.8494 104.193 46.1046H104.198C104.662 46.24 104.985 46.3442 105.094 46.391L104.87 47.5525C104.87 47.5525 108.375 49.0785 110.151 57.0108L113.781 56.141C113.958 56.2921 114.12 56.4431 114.255 56.6098C115.651 58.2088 115.068 60.2608 115.068 60.2608C115.068 60.2608 114.25 60.766 113.026 61.4535C111.99 62.0421 110.651 62.766 109.281 63.4223C107.495 64.2765 105.641 65.0213 104.297 65.2088C103.974 65.2556 103.672 65.2608 103.391 65.2296V65.2348C103.391 65.2348 99.1043 68.7765 96.8179 71.1098H93.1616C93.4481 62.964 94.7814 54.6358 97.8908 50.1254Z" fill="#D14256"/>
<path d="M107.531 42.8333L106.891 43.026C107.052 44.4063 105.745 46 104.198 46.1042H104.193C103.292 45.849 101.87 45.4792 100.521 45.1979C101.708 45.2604 103.031 44.3021 103.526 43.1875C104.104 41.9063 105.037 39.8542 106.188 39.5C106.792 40.651 106.406 41.9063 107.531 42.8333Z" fill="#C41830"/>
<path d="M102.052 37.6095C103.943 37.1407 106.198 38.349 106.187 39.5001C105.031 39.8543 104.104 41.9063 103.526 43.1876C103.021 44.3022 101.708 45.2605 100.521 45.198C100.344 45.1615 100.167 45.1303 99.9947 45.099C99.9947 45.099 99.9947 45.099 99.9895 45.099C99.9166 45.0417 99.026 44.3959 98.802 42.8022C98.7708 42.5886 98.7552 42.3699 98.75 42.1303C98.7187 39.5001 100.354 38.0261 102.052 37.6095Z" fill="#F9CA06"/>
<path d="M103.656 78.9531C105.198 78.9531 106.443 80.1979 106.443 81.7344C106.443 83.2708 105.193 84.5156 103.656 84.5156C102.599 84.5156 101.677 83.9219 101.203 83.0469H102.974C103.339 83.0469 103.667 82.901 103.901 82.6615C104.141 82.4219 104.286 82.0937 104.286 81.7292C104.286 81.0052 103.703 80.4115 102.974 80.4115H101.208C101.682 79.5417 102.604 78.9531 103.656 78.9531Z" fill="#D14256"/>
<path d="M102.979 80.417C103.703 80.417 104.292 81.0107 104.292 81.7399C104.292 82.1045 104.146 82.4274 103.906 82.667C103.667 82.9066 103.344 83.0524 102.979 83.0524H86.0208C85.2969 83.0524 84.7031 82.4691 84.7031 81.7399C84.7031 81.3753 84.8542 81.0472 85.0938 80.8076C85.3333 80.568 85.6563 80.417 86.0208 80.417H102.979Z" fill="#D14256"/>
<path d="M103.38 65.2292C103.667 65.2553 103.963 65.2501 104.292 65.2032C105.635 65.0105 107.489 64.2709 109.271 63.4167C110.219 63.2553 111.396 62.9949 112.75 63.0001C114.031 63.0053 115.453 63.2397 116.989 64.0105C119.088 65.0678 121.385 67.1407 123.745 71.0053L123.682 71.099H96.8071C99.0936 68.7657 103.38 65.2292 103.38 65.2292Z" fill="#4A8BDF"/>
<path d="M103.437 91.9632L89.8644 111.849C77.2759 109.099 64.4582 105.192 61.1248 104.677C59.5519 104.432 56.9113 105.015 53.6978 105.948L63.3488 91.807C63.5884 91.7653 63.8332 91.7184 64.0675 91.6715C68.2186 90.8434 72.6457 89.1924 76.2446 89.1924C82.854 89.1924 88.0728 94.4111 96.2446 93.5361C98.6561 93.2861 101.057 92.6768 103.437 91.9632Z" fill="#4A8BDF"/>
<path d="M98.8018 42.8018C99.031 44.3955 99.9164 45.0413 99.9945 45.0986C98.5206 44.8122 97.2393 44.6715 96.9685 44.958C96.6456 45.2965 96.5362 46.208 96.656 47.2028C94.6508 48.5205 91.1612 45.5934 88.281 49.2393C86.6195 46.9007 88.8695 43.583 91.2237 43.1247C94.656 42.4424 95.1977 45.0986 98.8018 42.8018Z" fill="#F9CA06"/>
<path d="M89.1564 20.083C91.3439 20.9059 92.4272 22.1976 91.2866 22.7132C90.9637 22.859 89.4585 22.9788 87.1147 23.0778L89.1564 20.083Z" fill="#4A8BDF"/>
<path d="M72.3697 23.359C69.8905 23.3798 67.2863 23.3902 64.6405 23.3902C60.0155 23.4007 55.2655 23.3902 50.8124 23.3486C44.1874 23.2288 30.4842 22.9423 29.6769 22.7132C26.7394 21.8746 31.3801 18.234 37.104 19.3538C33.5467 15.0048 39.4269 15.1454 40.8228 16.4111C40.0519 13.885 43.4582 13.1871 44.8488 13.885C40.6613 4.07253 49.9582 3.09336 55.8384 3.79127C61.7186 4.48919 64.8176 8.92148 61.0988 13.5048C66.4426 6.9319 73.7134 11.2236 72.0936 16.5413C76.4009 11.9111 83.5467 16.5361 81.3801 19.9059C84.3176 18.9788 87.1822 19.3434 89.1561 20.0829L87.1144 23.0725C83.6561 23.2184 78.3644 23.3121 72.3697 23.359Z" fill="#4A8BDF"/>
<path d="M86.0158 83.0518H87.7866C87.3127 83.9215 86.3908 84.5205 85.3283 84.5205C83.7918 84.5205 82.5522 83.2705 82.5522 81.7393C82.5522 80.1976 83.7918 78.958 85.3283 78.958C86.3856 78.958 87.3075 79.5465 87.7814 80.4215H86.0158C85.6512 80.4215 85.3283 80.5726 85.0887 80.8122C84.8491 81.0518 84.6981 81.3799 84.6981 81.7445C84.6981 82.4632 85.2918 83.0518 86.0158 83.0518Z" fill="#D14256"/>
<path d="M61.9896 82.932C62.3333 79.8486 63.724 77.0726 65.8021 74.9945C67.0365 73.7601 68.5104 72.7705 70.151 72.0986C71.7135 71.4528 73.4219 71.0986 75.2135 71.0986H77.4688L63.7656 91.1872C62.5833 89.2028 61.9062 86.8799 61.9062 84.4059C61.9115 83.9111 61.9323 83.4163 61.9896 82.932Z" fill="#F9CA06"/>
<path d="M33.4481 52.9424H68.9168L73.8022 69.2913H19.5991L24.4845 52.9424H33.4481Z" fill="#D14256"/>
<path d="M41.1979 83.7288C41.0938 83.7028 40.9792 83.6715 40.875 83.6351V74.9945H28.5156V83.4476C26.6146 83.9788 24.7865 84.5049 22.875 84.4684V69.2861H70.1562V72.0934C68.5156 72.7653 67.0417 73.7549 65.8073 74.9893C63.7292 77.0726 62.3333 79.8382 61.9948 82.9268C57.4844 82.5205 53.5938 84.2861 50.2969 84.5361C45.7083 84.8903 43.3646 84.359 41.1979 83.7288Z" fill="#C41830"/>
<mask id="mask1_5546_11875" style="mask-type:luminance" maskUnits="userSpaceOnUse" x="0" y="82" width="216" height="62">
<path d="M0.286621 82.333H215.667V143.666H0.286621V82.333Z" fill="white"/>
</mask>
<g mask="url(#mask1_5546_11875)">
<path d="M41.1978 83.7293C43.3645 84.3543 45.7083 84.8907 50.2916 84.5418C53.5937 84.2865 57.4791 82.5209 61.9895 82.9324C61.9322 83.4168 61.9062 83.9115 61.9062 84.4115C61.9062 86.8855 62.5833 89.2032 63.7655 91.1876L63.3385 91.8074L53.6926 105.948C56.9114 105.016 59.552 104.432 61.1197 104.677C64.453 105.198 77.2708 109.099 89.8645 111.849L103.432 91.9636C109.115 90.2501 114.672 87.9063 120.068 88.1511C127.724 88.5001 131.203 93.7397 136.937 93.6407C138.156 93.6199 139.771 93.3907 141.599 93.047C148.375 91.7709 158.031 88.9324 160.771 89.5418C161.672 89.7501 162.786 90.1824 164.057 90.7032C167.682 92.198 172.573 94.3595 177.469 93.6407C177.844 93.5834 178.208 93.5209 178.573 93.448C181.135 92.9324 183.401 92.0053 185.635 91.2136C185.693 91.0365 187.344 85.9168 187.547 83.448C187.99 83.3074 188.323 83.172 188.521 83.0522C188.521 82.9272 188.51 82.7761 188.49 82.599C190.703 83.6095 197.812 85.9845 206.562 83.0522C211.495 86.5782 213.812 91.3074 206.073 96.297C201.422 99.2918 195.969 100.636 192.557 102.438C181.026 108.521 212.297 107.188 214.349 115.141C216.396 123.104 177.917 137.969 154.833 133.771C131.745 129.573 117.901 146.109 87.7812 142.292C57.6614 138.474 63.203 124.073 43.8697 124.261C19.5937 124.49 1.58326 122.13 0.968673 109.615C0.614508 102.412 24.9531 99.5418 20.7551 97.1459C16.5572 94.7501 7.56242 89.1511 18.0676 83.0522C19.7812 84.0678 21.3541 84.4532 22.8697 84.4793C24.7812 84.5157 26.6093 83.9845 28.5103 83.4584C30.6718 82.8647 32.9374 82.2709 35.552 82.5105C37.8072 82.7136 39.3176 83.1928 40.8697 83.6459C40.9791 83.6772 41.0937 83.7032 41.1978 83.7293Z" fill="#4A8BDF"/>
</g>
<path d="M40.875 75V83.6406C39.3229 83.1875 37.8073 82.7135 35.5573 82.5052C32.9375 82.2656 30.6771 82.8594 28.5156 83.4531V75H40.875Z" fill="#C41830"/>
<path d="M147.328 27.458C146.526 27.458 145.724 27.458 144.922 27.458C141.854 27.458 138.844 27.4476 135.979 27.4216C131.219 27.3851 126.979 27.3278 123.385 27.2393C112.875 26.9945 112.172 26.6403 111.906 26.5101C111.182 26.1508 110.937 25.4945 111.25 24.7705C112.146 22.6351 117.594 20.1351 123.307 21.7028C122.771 19.833 123.687 17.7028 125.755 16.2497C128.083 14.6091 131.661 14.1403 134.542 16.5674C134.156 13.557 135.458 10.8435 138.036 9.54659C140.167 8.47888 143.448 8.43721 146.604 11.1143C145.984 9.28097 146.016 7.45284 146.724 5.79138C147.932 2.97367 150.963 0.984089 154.838 0.473673C157.156 0.166381 164.984 -0.489869 168.338 3.77576C170.161 6.09346 170.333 9.41638 168.864 13.6612C169.984 13.4476 171.432 13.6664 172.453 14.4685C173.208 15.0622 173.594 15.8799 173.578 16.8226C175.078 16.0935 177.437 15.9945 178.588 16.9841C179.312 17.6039 179.807 18.807 178.422 21.057C183.219 20.4164 187.427 22.6351 187.943 24.5883C188.177 25.4685 187.672 26.1976 186.604 26.5362C185.104 27.0049 173.687 27.2341 167.016 27.3278C160.979 27.4112 154.073 27.458 147.328 27.458ZM119.703 22.0778C115.739 22.0778 112.547 23.8851 112.031 25.0987C111.901 25.4008 111.974 25.583 112.292 25.7393C112.531 25.8591 114.099 26.1664 123.406 26.3851C126.989 26.4685 131.224 26.531 135.984 26.5622C138.849 26.5883 141.854 26.6039 144.922 26.6039C152.411 26.6143 160.25 26.5674 167 26.4685C178.109 26.3174 185.344 26.031 186.344 25.7133C187.281 25.4216 187.161 24.958 187.12 24.8018C186.708 23.2497 182.406 21.0258 177.594 22.057L176.489 22.2966L177.161 21.3903C177.927 20.3591 179.047 18.5049 178.031 17.6247C177.01 16.7445 174.229 17.1091 173.323 18.0101L172.172 19.1612L172.609 17.5987C172.896 16.5466 172.667 15.7185 171.927 15.1299C170.906 14.333 169.208 14.2497 168.37 14.7185L167.338 15.2914L167.766 14.1924C169.443 9.83826 169.411 6.51013 167.667 4.29659C164.594 0.385131 157.161 1.02576 154.953 1.31221C151.375 1.78617 148.594 3.58305 147.51 6.12471C146.536 8.40076 147.021 11.0518 148.88 13.583C148.88 13.583 148.88 13.583 148.88 13.5883L148.193 14.0935C145.349 10.2393 141.516 8.74971 138.417 10.307C136.245 11.3955 134.562 14.1247 135.677 17.7705L136.286 19.7705L134.943 18.1716C132.26 14.9841 128.641 15.2549 126.239 16.9424C124.583 18.1091 123.307 20.2393 124.422 22.1612L125.005 23.1612L123.911 22.781C122.474 22.281 121.047 22.0778 119.703 22.0778Z" fill="black"/>
<path d="M61.932 23.8234C58.0622 23.8234 54.2602 23.8025 50.807 23.7765C44.7185 23.6619 30.4685 23.3807 29.557 23.1202C28.2081 22.7348 28.3122 21.8494 28.3695 21.5838C28.7341 20.0682 32.13 18.3546 36.1612 18.7765C35.1925 17.24 35.531 16.3598 36.0414 15.8702C36.9685 14.99 38.9945 15.0838 40.281 15.6046C40.307 14.9848 40.5779 14.4327 41.0779 14.0109C41.8956 13.3234 43.1352 13.0994 44.1248 13.2348C43.031 10.2609 43.1248 7.88066 44.4164 6.1515C47.0727 2.61504 53.8643 3.12024 55.8904 3.36504C59.2758 3.76608 61.8487 5.37545 62.7758 7.6567C63.2289 8.7817 63.255 9.99525 62.8643 11.214C65.4945 9.31295 68.1768 9.49004 69.9216 10.4223C71.8331 11.4432 72.8695 13.339 72.7341 15.3859C75.2654 13.5005 78.4216 13.9432 80.4737 15.5317C81.8539 16.6046 82.4425 17.99 82.1248 19.2505C85.4529 18.4588 88.2133 19.2661 89.307 19.6775C90.6664 20.1932 92.1404 21.0942 92.1664 22.0994C92.1768 22.3494 92.0935 22.8077 91.4633 23.0994C91.1977 23.2192 90.4789 23.3598 87.13 23.4952C83.8175 23.6307 78.7133 23.7296 72.3695 23.7765C69.7445 23.8025 67.1508 23.813 64.6352 23.813C63.7393 23.8234 62.8331 23.8234 61.932 23.8234ZM50.8175 22.9223C55.0675 22.9588 59.8487 22.9744 64.6352 22.964C67.1456 22.964 69.7445 22.9536 72.3591 22.9275C78.6925 22.8807 83.7914 22.7817 87.0935 22.6463C90.432 22.5057 91.0102 22.365 91.1039 22.3234C91.1977 22.2765 91.3175 22.2088 91.3123 22.1307C91.3018 21.813 90.557 21.0682 88.9945 20.4796C87.8956 20.063 84.9529 19.2192 81.4998 20.313L80.3748 20.6671L81.0102 19.6723C81.8435 18.3755 80.9529 16.9952 79.9373 16.2088C77.9268 14.6463 74.6925 14.3598 72.3956 16.8286L71.13 18.1827L71.6716 16.4171C72.3123 14.313 71.4477 12.2088 69.5154 11.1775C67.5883 10.1515 64.3175 10.214 61.4268 13.7661L60.7602 13.2244C62.2029 11.4536 62.63 9.58899 61.9789 7.97441C61.1716 5.97962 58.8487 4.57337 55.781 4.20358C53.88 3.97441 47.4737 3.48483 45.0935 6.6567C43.8852 8.27649 43.932 10.6515 45.2341 13.7036L45.6925 14.7765L44.6508 14.2557C43.9268 13.8911 42.4164 13.99 41.63 14.6515C41.1508 15.0525 41.0154 15.5942 41.2185 16.2713L41.6768 17.7557L40.5258 16.7088C39.7602 16.0161 37.38 15.7661 36.6248 16.4848C35.9841 17.0942 36.8539 18.3702 37.4268 19.0734L38.1768 19.99L37.0154 19.7609C32.8018 18.938 29.4268 20.7973 29.1977 21.7765C29.1456 21.99 29.3435 22.1671 29.7914 22.2973C30.4945 22.4848 40.8591 22.74 50.8175 22.9223Z" fill="black"/>
<path d="M164.438 90.9014L164.063 90.7035H163.63V90.5941L163.682 90.5003C164.537 88.9118 165.037 87.193 165.172 85.4014L166.026 85.4691C165.88 87.3805 165.344 89.2035 164.438 90.9014Z" fill="black"/>
<path d="M161.989 75.8857C160.792 74.5264 159.344 73.4535 157.698 72.693L158.052 71.917C159.807 72.7295 161.349 73.8753 162.63 75.3232L161.989 75.8857Z" fill="black"/>
<path d="M63.7083 91.9014C63.599 91.7399 63.4948 91.568 63.401 91.4014C62.1458 89.292 61.4844 86.8753 61.4844 84.4066C61.4844 83.8805 61.5104 83.3701 61.5677 82.8805C61.9115 79.8024 63.3073 76.891 65.5052 74.693C66.7969 73.4014 68.3073 72.3962 69.9896 71.6982C71.651 71.016 73.4063 70.667 75.2188 70.667H133.568V71.5212H75.2188C73.5208 71.5212 71.8698 71.8441 70.3177 72.4899C68.7344 73.141 67.3229 74.0837 66.1146 75.2972C64.0521 77.3597 62.7396 80.0837 62.4167 82.9743C62.3646 83.4326 62.3385 83.9118 62.3385 84.4066C62.3385 86.7191 62.9635 88.9847 64.1354 90.9691C64.2292 91.1253 64.3281 91.2868 64.4271 91.4326L63.7083 91.9014Z" fill="black"/>
<path d="M185.781 91.6094L185.495 90.8021C188.39 89.7813 191.526 88.8438 195.302 89.6407L195.125 90.474C191.568 89.7292 188.562 90.6303 185.781 91.6094Z" fill="black"/>
<path d="M175.5 94.2035C171.422 94.2035 167.453 92.5681 164.448 91.3181L163.896 91.0941C162.771 90.6306 161.594 90.1619 160.682 89.9535C158.927 89.5629 153.828 90.74 148.901 91.8806C146.437 92.4483 143.896 93.0369 141.682 93.4535C139.64 93.8389 138.094 94.0369 136.953 94.0577C134.083 94.0941 131.781 92.8858 129.338 91.5994C126.687 90.1983 123.943 88.7452 120.052 88.5681C115.859 88.3806 111.609 89.7608 107.109 91.2348C105.948 91.6098 104.75 92.0056 103.557 92.365C100.64 93.2452 98.3957 93.7348 96.2863 93.9587C91.6353 94.4587 87.9738 93.0421 84.4321 91.6775C81.6821 90.6202 79.0936 89.615 76.2394 89.615C73.9321 89.615 71.2967 90.3077 68.505 91.0369C67.0728 91.4066 65.5884 91.7973 64.1509 92.0837C63.9061 92.1358 63.6613 92.1827 63.4217 92.2244C59.3957 92.9327 56.6717 92.5316 54.5884 90.9223L55.1092 90.2452C56.9842 91.6983 59.4998 92.0473 63.2707 91.3806C63.505 91.3389 63.7446 91.2921 63.9842 91.2452C65.3957 90.9639 66.8644 90.5837 68.2915 90.2087C71.1353 89.4639 73.828 88.7608 76.2446 88.7608C79.255 88.7608 81.9217 89.7869 84.7446 90.8754C88.1926 92.2035 91.7551 93.5837 96.203 93.1046C98.2603 92.8858 100.453 92.4066 103.318 91.5421C104.5 91.1879 105.698 90.7973 106.854 90.4171C111.427 88.9275 115.76 87.516 120.099 87.7139C124.177 87.9014 127.135 89.4639 129.75 90.8441C132.193 92.1358 134.302 93.2452 136.943 93.2035C138.036 93.1879 139.536 92.99 141.531 92.615C143.729 92.1983 146.26 91.6098 148.713 91.0421C153.969 89.8285 158.932 88.6775 160.88 89.115C161.854 89.3389 163.068 89.8233 164.229 90.2973L164.781 90.5264C168.39 92.016 172.885 93.8754 177.422 93.2087C177.786 93.1514 178.151 93.0941 178.505 93.0212C180.542 92.6098 182.401 91.9327 184.208 91.2764C184.64 91.115 185.078 90.9587 185.51 90.8025L185.797 91.6098C185.37 91.766 184.932 91.9171 184.5 92.0785C182.672 92.7452 180.776 93.4379 178.677 93.8598C178.307 93.9327 177.927 94.0004 177.547 94.0577C176.859 94.1619 176.177 94.2035 175.5 94.2035Z" fill="black"/>
<path d="M85.3333 84.943C83.5677 84.943 82.125 83.5055 82.125 81.7347C82.125 79.9639 83.5677 78.5264 85.3333 78.5264C86.5156 78.5264 87.5937 79.1722 88.1562 80.2139L87.4062 80.6201C86.9948 79.8545 86.1979 79.3805 85.3333 79.3805C84.0313 79.3805 82.9792 80.4378 82.9792 81.7399C82.9792 83.0368 84.0313 84.0941 85.3333 84.0941C86.2031 84.0941 87 83.6201 87.4115 82.8545L88.1667 83.2555C87.599 84.2972 86.5156 84.943 85.3333 84.943Z" fill="black"/>
<path d="M103.656 84.9424C102.474 84.9424 101.391 84.2965 100.833 83.2497L101.589 82.8486C102 83.6143 102.792 84.0934 103.662 84.0934C104.964 84.0934 106.021 83.0309 106.021 81.734C106.021 80.4372 104.964 79.3747 103.662 79.3747C102.797 79.3747 102 79.8538 101.589 80.6143L100.839 80.208C101.401 79.1663 102.485 78.5205 103.662 78.5205C105.438 78.5205 106.875 79.958 106.875 81.7288C106.875 83.4997 105.432 84.9424 103.656 84.9424Z" fill="black"/>
<path d="M102.979 83.4788H86.0155C85.0519 83.4788 84.2759 82.6976 84.2759 81.7393C84.2759 81.2757 84.4582 80.8382 84.7863 80.5049C85.1196 80.1715 85.5571 79.9893 86.0207 79.9893H102.984C103.943 79.9893 104.719 80.7757 104.719 81.734C104.719 82.2028 104.542 82.6403 104.208 82.9684C103.885 83.2965 103.453 83.4788 102.979 83.4788ZM86.0155 80.8434C85.7811 80.8434 85.5571 80.9372 85.3853 81.1038C85.2186 81.2757 85.1248 81.4997 85.1248 81.734C85.1248 82.2236 85.5259 82.6195 86.0155 82.6195H102.979C103.219 82.6195 103.437 82.5309 103.599 82.3643C103.771 82.1924 103.864 81.9684 103.864 81.734C103.864 81.2393 103.463 80.8434 102.979 80.8434H86.0155Z" fill="black"/>
<path d="M131.807 84.943C130.036 84.943 128.594 83.5055 128.594 81.7347C128.594 79.9639 130.036 78.5264 131.807 78.5264C132.979 78.5264 134.063 79.1722 134.63 80.2139L133.88 80.6201C133.464 79.8545 132.667 79.3753 131.807 79.3753C130.505 79.3753 129.448 80.4378 129.448 81.7347C129.448 83.0316 130.505 84.0941 131.807 84.0941C132.672 84.0941 133.469 83.6149 133.885 82.8441L134.635 83.2503C134.068 84.2972 132.984 84.943 131.807 84.943Z" fill="black"/>
<path d="M150.136 84.943C148.953 84.943 147.87 84.2972 147.302 83.2503L148.052 82.8441C148.469 83.6097 149.266 84.0941 150.136 84.0941C151.432 84.0941 152.49 83.0316 152.49 81.7347C152.49 80.4378 151.432 79.3753 150.136 79.3753C149.266 79.3753 148.474 79.8545 148.057 80.6201L147.307 80.2139C147.875 79.1722 148.958 78.5264 150.136 78.5264C151.906 78.5264 153.344 79.9639 153.344 81.7347C153.344 83.5055 151.906 84.943 150.136 84.943Z" fill="black"/>
<path d="M149.453 83.4788H132.49C131.531 83.4788 130.75 82.6976 130.75 81.7393C130.75 81.2705 130.932 80.833 131.26 80.5049C131.589 80.1715 132.031 79.9893 132.495 79.9893H149.458C150.417 79.9893 151.198 80.7757 151.198 81.734C151.198 82.2028 151.016 82.6403 150.688 82.9684C150.359 83.2965 149.922 83.4788 149.453 83.4788ZM132.484 80.8434C132.25 80.8434 132.026 80.9372 131.854 81.109C131.688 81.2757 131.599 81.4997 131.599 81.7393C131.599 82.2288 132 82.6247 132.484 82.6247H149.448C149.688 82.6247 149.911 82.5361 150.073 82.3695C150.245 82.1976 150.333 81.9736 150.333 81.7393C150.333 81.2445 149.938 80.8486 149.448 80.8486H132.484V80.8434Z" fill="black"/>
<path d="M93.5832 71.1146L92.729 71.0885C92.9321 65.4792 93.8175 55.276 97.5415 49.8854C98.5571 48.4115 99.729 47.3802 101.036 46.8125L101.375 47.599C100.219 48.099 99.1665 49.0313 98.2446 50.3698C95.578 54.2292 93.9217 61.599 93.5832 71.1146Z" fill="black"/>
<path d="M103.719 65.667C103.583 65.667 103.458 65.6618 103.333 65.6462C100.135 65.3753 99.0519 61.3857 97.7759 55.3441L98.6092 55.167C99.8123 60.8389 100.792 64.5785 103.417 64.7972C103.667 64.8232 103.937 64.818 104.224 64.7764C105.359 64.6201 106.989 64.0316 109.088 63.0264C110.557 62.3232 111.922 61.5785 112.807 61.0732C113.708 60.5628 114.396 60.1566 114.682 59.9795C114.771 59.5107 114.937 58.042 113.927 56.8805C113.844 56.7816 113.76 56.693 113.661 56.6045L106.13 58.417L106.031 58.0003C106.015 57.9482 104.818 53.0003 103.911 51.3076L104.667 50.9014C105.474 52.4118 106.443 56.1305 106.76 57.3857L113.885 55.667L114.052 55.8076C114.25 55.9743 114.427 56.1462 114.578 56.3232C116.099 58.0732 115.5 60.2712 115.474 60.3649L115.427 60.5264L115.286 60.6097C115.276 60.6149 114.448 61.1253 113.229 61.818C112.333 62.3232 110.948 63.0837 109.458 63.7972C107.281 64.8337 105.562 65.4482 104.349 65.6201C104.13 65.6566 103.922 65.667 103.719 65.667Z" fill="black"/>
<path d="M109.729 57.0986C108.031 49.5309 104.724 47.958 104.693 47.9424L104.385 47.8018L104.599 46.6715C104.469 46.6351 104.297 46.583 104.078 46.5153L104.307 45.6924C104.651 45.7913 105.099 45.9215 105.26 45.9945L105.573 46.1299L105.344 47.3278C106.276 47.9007 109.047 50.1351 110.568 56.9163L109.729 57.0986Z" fill="black"/>
<path d="M104.073 46.5153C103.636 46.3903 102.073 45.958 100.432 45.6143C100.245 45.5778 100.083 45.5465 99.9272 45.5205L100.078 44.6768C100.24 44.708 100.406 44.7393 100.573 44.7705C102.281 45.1299 103.865 45.5674 104.307 45.6976L104.073 46.5153Z" fill="black"/>
<path d="M97.5937 50.4372C96.5989 49.4893 96.3072 47.8955 96.2343 47.2549C96.1822 46.807 96.052 45.3017 96.6562 44.6611C96.9218 44.3799 97.5208 44.182 100.073 44.6768L99.9114 45.5205C97.6926 45.0882 97.2812 45.2549 97.2447 45.2757C97.1145 45.4215 96.953 46.1195 97.078 47.1559C97.2187 48.3017 97.6301 49.2965 98.1822 49.8226L97.5937 50.4372Z" fill="black"/>
<path d="M104.224 46.5312L104.187 46.1042V45.6771C104.792 45.6354 105.417 45.2917 105.885 44.7292C106.307 44.2187 106.526 43.599 106.469 43.0677L106.427 42.7135L106.76 42.6146C106.38 42.0729 106.276 41.4844 106.177 40.9427C106.12 40.6458 106.068 40.3542 105.974 40.0729C105.13 40.6667 104.359 42.3802 103.922 43.3542C103.323 44.6979 101.818 45.6875 100.505 45.6198C100.281 45.6042 100.068 45.5677 99.8696 45.4948L100.151 44.6927C100.276 44.7344 100.401 44.7604 100.547 44.7656C101.51 44.8177 102.693 44.0104 103.146 43.0052C103.943 41.2344 104.833 39.4687 106.068 39.0885L106.406 38.9844L106.573 39.2969C106.838 39.8073 106.932 40.3125 107.021 40.7969C107.14 41.4583 107.25 42.0313 107.807 42.4948L108.427 43.0052L107.338 43.3333C107.318 43.9948 107.036 44.6875 106.552 45.276C105.927 46.0156 105.078 46.4687 104.224 46.5312Z" fill="black"/>
<path d="M100 45.5204H99.8646L99.7448 45.4423C99.5625 45.3069 98.625 44.5517 98.3854 42.859C98.349 42.6298 98.3333 42.3902 98.3281 42.1298C98.2917 39.1507 100.255 37.6038 101.953 37.1923C103.411 36.8277 104.917 37.3486 105.766 38.0152C106.318 38.4579 106.625 38.984 106.62 39.4996L105.766 39.4892C105.771 39.2496 105.578 38.9579 105.24 38.6923C104.578 38.1663 103.333 37.734 102.161 38.0204C100.703 38.3798 99.1511 39.6454 99.1875 42.1194C99.1875 42.3434 99.2031 42.5413 99.2344 42.7392C99.4323 44.1246 100.167 44.6923 100.255 44.7496L100.005 45.0934L100 45.5204Z" fill="black"/>
<path d="M88.2658 49.9528L87.9325 49.4893C87.1981 48.4476 87.0783 47.1611 87.5991 45.8538C88.2189 44.2861 89.6825 42.9945 91.1512 42.7028C92.6929 42.3955 93.6929 42.7184 94.5835 43.0049C95.7398 43.3799 96.646 43.6715 98.5783 42.4424L99.0366 43.1611C96.7658 44.6038 95.5835 44.2236 94.3231 43.8174C93.495 43.5518 92.6356 43.2757 91.3127 43.5361C90.1148 43.7757 88.9168 44.8538 88.3908 46.1663C88.1929 46.6715 87.9533 47.583 88.3543 48.4997C90.1773 46.5778 92.2033 46.8278 93.8596 47.0257C94.8908 47.1559 95.7866 47.2653 96.4273 46.8434L96.5314 46.7757H96.6616L96.6668 47.2028L96.896 47.5518C95.995 48.1507 94.9064 48.0153 93.7554 47.8695C92.0262 47.6559 90.245 47.4372 88.62 49.4945L88.2658 49.9528Z" fill="black"/>
<path d="M74.3752 69.7184H19.021L24.1616 52.5205H69.2345L74.3752 69.7184ZM20.172 68.8643H73.2293L68.5991 53.3643H24.8022L20.172 68.8643Z" fill="black"/>
<mask id="mask2_5546_11875" style="mask-type:luminance" maskUnits="userSpaceOnUse" x="0" y="81" width="216" height="63">
<path d="M0.286621 81H215.667V143.667H0.286621V81Z" fill="white"/>
</mask>
<g mask="url(#mask2_5546_11875)">
<path d="M96.6774 143.286C93.8441 143.286 90.8701 143.109 87.7295 142.713C71.5211 140.656 65.4326 135.453 60.542 131.276C56.1774 127.541 52.7243 124.578 43.8753 124.677C21.7607 124.895 1.20344 123.213 0.541977 109.63C0.323227 105.114 8.34406 102.432 14.792 100.276C17.2816 99.4423 20.693 98.3017 20.818 97.7131C20.8128 97.7131 20.7659 97.6298 20.5472 97.5048C18.417 96.2861 12.7503 93.0517 12.7399 89.0361C12.7295 86.7913 14.4534 84.6506 17.8545 82.6767L18.0732 82.5517L18.2868 82.6819C19.792 83.5725 21.292 84.0204 22.8753 84.0465C24.6566 84.0725 26.3753 83.6038 28.1878 83.0986L28.3909 83.0413C30.3649 82.4996 32.8128 81.8225 35.5889 82.0829C37.7295 82.2756 39.2191 82.7131 40.667 83.1402L40.9847 83.234C41.0784 83.2652 41.167 83.2861 41.2451 83.3121L41.3076 83.3277C43.443 83.9423 45.7295 84.4631 50.2503 84.1246C51.4534 84.0361 52.7503 83.7288 54.1253 83.4163C56.4691 82.8694 59.1201 82.2548 62.0211 82.5152C62.0784 82.5204 62.1045 82.5204 62.1305 82.5256L62.0159 83.3694L62.0732 82.9475L62.0211 83.3694C61.9743 83.3694 61.9482 83.3694 61.9274 83.3642C59.193 83.1194 56.6097 83.7183 54.3284 84.2444C52.917 84.5725 51.5836 84.885 50.3232 84.9788C45.6618 85.3277 43.292 84.7913 41.0784 84.1506L41.0264 84.135C40.9326 84.109 40.8336 84.0829 40.7399 84.0517L40.4326 83.9631C39.0264 83.5517 37.568 83.1246 35.5159 82.9371C32.8961 82.6975 30.6253 83.3225 28.6253 83.8746L28.417 83.9267C26.542 84.4527 24.7607 84.9371 22.8649 84.9058C21.2034 84.8746 19.6305 84.4319 18.0732 83.5517C15.0941 85.3277 13.5836 87.1715 13.5941 89.0465C13.6045 92.5673 18.9586 95.6194 20.9743 96.7756C21.4743 97.0621 21.7086 97.4111 21.6722 97.8069C21.5628 98.8746 19.4534 99.6246 15.068 101.093C9.21906 103.046 1.21385 105.729 1.40135 109.593C2.02635 122.448 22.1878 124.036 43.8701 123.828C53.0368 123.734 56.7764 126.932 61.0993 130.635C66.1566 134.948 71.8805 139.843 87.8336 141.869C103.36 143.838 114.323 140.432 124.933 137.135C134.578 134.14 143.693 131.312 154.912 133.349C174.313 136.88 204.959 126.833 212.443 118.781C213.698 117.437 214.198 116.25 213.943 115.25C213.016 111.651 205.198 109.984 198.917 108.645C193.12 107.406 189.828 106.625 189.604 104.968C189.474 104.046 190.354 103.125 192.365 102.062C193.714 101.354 195.375 100.708 197.141 100.026C199.907 98.9631 203.047 97.7496 205.849 95.9423C209 93.9111 210.625 91.8173 210.672 89.7131C210.719 87.6663 209.318 85.5881 206.5 83.5308C197.084 86.6038 189.709 83.6298 188.323 82.9996C188.188 82.9371 188.078 82.885 187.979 82.8329L188.375 82.0829C188.459 82.1246 188.558 82.1715 188.672 82.2236C190.026 82.8381 197.224 85.7392 206.438 82.6558L206.646 82.5881L206.823 82.7131C210 84.9892 211.589 87.3538 211.526 89.7392C211.474 92.1454 209.714 94.4788 206.313 96.6715C203.433 98.5256 200.256 99.7548 197.453 100.833C195.709 101.505 194.063 102.14 192.761 102.828C190.578 103.979 190.417 104.63 190.448 104.859C190.604 106.01 195.115 106.968 199.094 107.823C205.943 109.281 213.703 110.942 214.766 115.046C215.099 116.349 214.526 117.802 213.068 119.375C205.459 127.557 174.391 137.765 154.756 134.198C143.74 132.198 134.724 134.994 125.183 137.963C117.037 140.484 108.006 143.286 96.6774 143.286Z" fill="black"/>
</g>
<path d="M22.4478 84.4795V69.292H23.3019V84.4743L22.4478 84.4795Z" fill="black"/>
<path d="M69.7241 69.292H70.5783V72.0993H69.7241V69.292Z" fill="black"/>
<path d="M41.3019 83.641H40.4478V75.4274H28.9425V83.5524H28.0884V74.5732H41.3019V83.641Z" fill="black"/>
<path d="M97.1094 71.4007L96.5 70.8018C98.776 68.4788 103.063 64.9372 103.109 64.8955L103.651 65.557C103.609 65.5934 99.3594 69.109 97.1094 71.4007Z" fill="black"/>
<path d="M123.432 71.3128C123.422 71.2972 123.406 71.2764 123.396 71.2555C121.323 67.8597 119.104 65.5576 116.792 64.391C115.51 63.7451 114.193 63.4326 112.75 63.4274C111.656 63.417 110.682 63.5993 109.823 63.7555C109.656 63.7816 109.5 63.8128 109.349 63.8389L109.203 63.0003C109.354 62.9743 109.51 62.943 109.672 62.917C110.516 62.7607 111.562 62.5732 112.724 62.5732C112.74 62.5732 112.75 62.5732 112.76 62.5732C114.339 62.5785 115.786 62.9274 117.188 63.6305C119.646 64.8701 121.974 67.2764 124.12 70.7868C124.13 70.8024 124.161 70.8493 124.182 70.891L123.432 71.3128Z" fill="black"/>
<path d="M113.005 71.417C111.812 70.318 110.906 68.4274 110.87 68.3493L111.64 67.9795C111.651 67.9951 112.515 69.8024 113.588 70.7868L113.005 71.417Z" fill="black"/>
<path d="M118.458 61.8753C118.26 61.8753 118.073 61.818 117.917 61.7035C117.646 61.5055 117.167 60.9222 116.87 60.5524C116.172 60.8232 115.031 60.8337 114.76 60.5576L115.364 59.9535C115.302 59.891 115.245 59.8753 115.245 59.8753C115.495 59.9482 116.479 59.8857 116.693 59.6878L117.036 59.3649L117.328 59.7399C117.661 60.1826 118.224 60.8701 118.422 61.016C118.437 61.0212 118.489 61.0264 118.547 60.9951C118.64 60.9378 118.682 60.8076 118.656 60.6357L118.547 59.9326L119.213 60.167C119.302 60.193 119.448 60.1618 119.51 60.0993C119.531 60.0785 119.542 60.0628 119.515 59.9951L119.156 59.0576L120.083 59.443C120.109 59.4535 120.135 59.4482 120.161 59.4222C120.182 59.4066 120.234 59.3493 120.208 59.2607C120.01 58.3545 119.167 57.568 117.885 57.0837C117.417 56.9066 116.89 56.7816 116.38 56.7191L116.484 55.8701C117.062 55.9378 117.651 56.0837 118.182 56.2816C119.739 56.8753 120.776 57.8805 121.036 59.0524C121.135 59.4118 121.015 59.8076 120.724 60.0628C120.62 60.1566 120.495 60.2243 120.364 60.266C120.328 60.417 120.25 60.5628 120.13 60.6878C119.963 60.8597 119.734 60.9691 119.489 61.0107C119.427 61.3076 119.255 61.5576 118.995 61.7191C118.823 61.8232 118.635 61.8753 118.458 61.8753Z" fill="black"/>
<path d="M114.469 56.9691L114.026 56.2399C114.594 55.891 115.463 55.766 116.469 55.8753L116.375 56.7243C115.583 56.6357 114.87 56.7243 114.469 56.9691Z" fill="black"/>
<path d="M118.682 60.7445C118.386 60.057 117.292 59.1195 116.912 59.0518L117.063 58.208C117.787 58.3434 119.083 59.5309 119.464 60.4007L118.682 60.7445Z" fill="black"/>
<path d="M119.51 60.0003C119.39 59.6878 118.146 58.1514 117.526 57.943L117.797 57.1357C118.734 57.4482 120.125 59.2243 120.302 59.6878L119.51 60.0003Z" fill="black"/>
<path d="M161.927 53.9115C161.333 53.9115 160.745 53.8073 160.344 53.4948C159.578 52.9063 159.521 51.7448 159.484 50.8958C159.469 50.6302 159.453 50.2708 159.412 50.1406C159.323 50.0885 159.229 50.0417 159.135 49.9896C158.724 49.7708 158.208 49.5 158.125 48.9635C158.068 48.6042 158.297 48.2656 158.589 47.8385C158.833 47.474 159.141 47.0208 159.151 46.6615C159.156 46.5 159.146 46.3333 159.146 46.1562C159.115 45.3802 159.073 44.4167 159.896 43.4219L160.547 43.9688C159.938 44.7083 159.969 45.3958 159.995 46.125C160.005 46.3177 160.016 46.5052 160.01 46.6823C159.99 47.2917 159.604 47.8594 159.297 48.3125C159.172 48.4948 158.99 48.7656 158.974 48.8594C158.99 48.9375 159.333 49.1198 159.537 49.2292C159.672 49.2969 159.802 49.3698 159.922 49.4427C160.281 49.6719 160.307 50.1667 160.344 50.849C160.38 51.526 160.427 52.4635 160.875 52.8125C161.505 53.2969 163.339 52.9323 164.13 52.6771L164.26 52.6562V53.0885L164.391 53.4844C164.188 53.5573 163.037 53.9115 161.927 53.9115Z" fill="black"/>
<path d="M169.651 86.1404C168.057 86.1404 166.641 86.0571 165.526 85.8592C164.797 85.7342 164.203 85.5519 163.771 85.3279L163.583 85.2342L163.552 85.0206C163.552 85.0206 162.979 81.7238 162.333 78.1196C162.182 77.3123 162.031 76.4894 161.885 75.6769L161.588 74.0311C161.161 71.7238 160.917 70.4946 160.776 69.8436C160.151 70.5675 159.255 71.5415 158.177 72.604C156.12 74.6352 152.359 78.0415 150.266 77.8748C148.771 77.7706 144.229 76.6248 140.38 75.5415C139.463 75.2811 138.578 75.0206 137.75 74.7706C135.12 73.9738 133.568 73.4217 133.135 73.1248L132.948 73.005L132.943 72.7811C132.937 72.1561 133.005 71.5571 133.151 70.9894C133.781 68.4634 135.703 67.0831 136.505 66.6092C137.026 66.2967 137.547 66.0675 138.01 65.9529L138.125 65.9217L138.245 65.9581C138.859 66.1456 139.995 66.4165 141.542 66.7446C142.359 66.9217 143.24 67.104 144.109 67.2759C146.24 67.7081 148.307 68.0988 149.115 68.2498C150.521 64.6456 155.833 58.4529 160.745 55.7602C161.906 55.1248 162.99 54.7186 163.963 54.5415C163.958 54.1248 163.917 53.6561 163.828 53.1456C163.328 50.1769 161.443 46.2602 159.917 43.8748C159.588 43.3696 159.286 42.9529 159.042 42.6613L158.776 42.3488L159.078 42.0675C162.016 39.3956 169.349 39.3696 171.734 41.3696C175.292 44.354 174.083 51.7238 173.328 54.1873C173.88 54.2394 174.443 54.3592 175.005 54.5467C179.177 55.88 182.542 60.229 183.365 62.8592L183.463 63.1717C183.859 64.4113 184.588 66.7186 185.401 69.3852C185.838 70.8123 186.292 72.3331 186.729 73.8279C188.026 78.2342 188.76 81.1665 188.922 82.5415C188.948 82.7498 188.958 82.9061 188.958 83.0363V83.2759L188.76 83.4009C188.536 83.5363 188.182 83.6821 187.693 83.8436C184.542 84.8488 175.828 86.1404 169.651 86.1404ZM164.349 84.6561C164.687 84.8019 165.13 84.9217 165.672 85.0154C170.911 85.9425 183.635 84.2394 187.427 83.0363C187.734 82.9373 187.948 82.8592 188.088 82.7915C188.083 82.7446 188.078 82.6977 188.073 82.6456C187.917 81.3384 187.172 78.3748 185.906 74.0727C185.469 72.5884 185.016 71.0675 184.583 69.6404C183.771 66.979 183.042 64.6769 182.646 63.4373L182.547 63.1248C181.797 60.729 178.588 56.5936 174.74 55.3644C174.052 55.1404 173.375 55.0259 172.724 55.0154L172.078 55.0102L172.333 54.4217C172.948 52.9998 174.656 44.9425 171.177 42.0311C169.344 40.4894 162.854 40.2394 159.953 42.4477C160.161 42.7238 160.391 43.0519 160.625 43.4217C161.844 45.3175 164.057 49.4634 164.667 53.0154C164.786 53.729 164.833 54.38 164.802 54.9373L164.781 55.3019L164.422 55.3436C163.463 55.4581 162.365 55.854 161.151 56.5154C156.375 59.1352 150.911 65.4998 149.792 68.8748L149.677 69.2238L149.312 69.1561C149.286 69.1509 146.667 68.6717 143.932 68.1144C143.062 67.9425 142.177 67.755 141.354 67.5779C140.318 67.3592 138.937 67.0467 138.109 66.8071C137.755 66.9165 137.349 67.0988 136.943 67.3384C136.24 67.7602 134.531 68.9842 133.979 71.1977C133.87 71.6196 133.812 72.0623 133.797 72.5206C134.177 72.7029 135.203 73.1092 137.995 73.9529C138.818 74.2029 139.698 74.4581 140.615 74.7186C145.109 75.9842 149.104 76.9373 150.328 77.0206C151.604 77.1092 154.302 75.2342 157.573 71.9946C159 70.5884 160.094 69.3488 160.646 68.6613L161.062 68.1404L161.365 68.7394C161.422 68.8488 161.552 69.1092 162.427 73.8748L162.729 75.5259C162.875 76.3331 163.021 77.1613 163.172 77.9686C163.719 81.0311 164.213 83.8696 164.349 84.6561Z" fill="black"/>
<path d="M126.505 71.3182L125.771 70.8911C125.896 70.6671 126.057 70.438 126.245 70.1723C126.917 69.2765 127.797 68.4744 128.787 67.839C131.162 66.3286 134.016 65.8807 136.823 66.5682L136.62 67.3963C134.037 66.7557 131.417 67.1671 129.245 68.5525C128.339 69.1307 127.537 69.8703 126.927 70.6775C126.766 70.9119 126.625 71.1203 126.505 71.3182Z" fill="black"/>
<path d="M109.261 115.037C104.662 115.037 98.2293 114.12 89.771 112.266C82.6981 110.719 75.6929 108.844 70.0575 107.339C65.8335 106.214 62.495 105.318 61.0522 105.094C59.3804 104.834 56.3075 105.631 53.8127 106.349C52.1408 106.834 50.3179 107.412 48.3856 108.021C40.2554 110.594 31.0418 113.516 25.146 112.136L25.3387 111.303C31.0002 112.625 40.495 109.625 48.1304 107.209C50.0627 106.594 51.8908 106.016 53.5731 105.532C57.4533 104.412 59.7293 104.026 61.1825 104.25C62.672 104.485 66.0262 105.381 70.2762 106.516C75.9012 108.016 82.896 109.881 89.9533 111.428C101.214 113.891 108.823 114.688 113.208 113.86L113.37 114.704C112.219 114.922 110.849 115.037 109.261 115.037Z" fill="black"/>
<path d="M90.9167 130.042C87.2604 130.042 83.1615 129.708 78.4375 128.917C77.1302 128.698 75.7969 128.453 74.3594 128.156L74.5312 127.318C75.9583 127.615 77.2812 127.859 78.5729 128.068C95.9167 130.969 104.781 127.667 114.167 124.167C121.203 121.547 128.479 118.839 139.766 118.469C142.479 118.375 145.974 118.984 150.026 119.682C160.323 121.458 174.422 123.891 190.63 118.016L190.922 118.818C174.5 124.771 160.271 122.312 149.88 120.521C145.875 119.833 142.422 119.234 139.792 119.323C128.646 119.687 121.438 122.37 114.464 124.969C107.521 127.557 100.859 130.042 90.9167 130.042Z" fill="black"/>
<path d="M176.599 109.485C172.75 109.485 168.781 108.479 164.906 107.49C157.922 105.714 150.693 103.875 144.245 107.99L143.787 107.266C150.547 102.959 157.958 104.844 165.12 106.662C170.677 108.078 175.927 109.412 180.927 108.11L181.141 108.938C179.656 109.323 178.136 109.485 176.599 109.485Z" fill="black"/>
<path d="M122.651 45.7865L138.917 21.9375L139.62 22.4167L123.354 46.2656L122.651 45.7865Z" fill="black"/>
<path d="M129.391 110.198L145.661 86.3486L146.365 86.8278L130.099 110.677L129.391 110.198Z" fill="black"/>
<path d="M169.021 62.7972L185.292 38.9482L185.995 39.4274L169.729 63.2764L169.021 62.7972Z" fill="black"/>
<path d="M114.516 83.7913L144.266 40.1768L144.974 40.6559L115.224 84.2705L114.516 83.7913Z" fill="black"/>
<path d="M47.5625 114.198L86.7292 56.7764L87.4323 57.2555L48.2656 114.677L47.5625 114.198Z" fill="black"/>
<path d="M74.5571 133.542L113.724 76.125L114.427 76.6042L75.2655 134.021L74.5571 133.542Z" fill="black"/>
<path d="M58.6719 64.0153L97.8385 6.59863L98.5417 7.0778L59.375 64.4997L58.6719 64.0153Z" fill="black"/>
<path d="M137.083 39.2812L136.375 38.8021L145.562 25.3438L146.26 25.8229L145.271 27.2708L137.083 39.2812Z" fill="black"/>
<path d="M160.703 35.3958L169.885 21.9375L170.589 22.4167L161.411 35.875L160.703 35.3958Z" fill="black"/>
<path d="M118.693 32.958L124.146 24.958L124.854 25.4424L119.396 33.4424L118.693 32.958Z" fill="black"/>
<path d="M61.5571 27.1562L67.0155 19.1562L67.7238 19.6354L62.2655 27.6406L61.5571 27.1562Z" fill="black"/>
<path d="M28.9009 101.005L43.5207 79.5674L44.2238 80.0518L29.604 101.484L28.9009 101.005Z" fill="black"/>
<path d="M58.099 45.0413L57.3906 44.5622L73.6927 20.6611L74.3958 21.1403L72.724 23.5986L58.099 45.0413Z" fill="black"/>
<path d="M25.0991 64.0003L48.3439 31.1514L49.0418 31.6462L25.797 64.4951L25.0991 64.0003Z" fill="black"/>
<path d="M121.016 57.9688C120.162 57.9688 119.167 57.5365 118.068 56.6823L117.745 56.4375L117.979 56.1042C117.979 56.1042 118.078 55.9583 118.162 55.7656C118.261 55.5313 118.297 55.3281 118.261 55.1927C117.979 54.8646 117.787 54.526 117.698 54.1823C117.24 54.0208 117.005 53.7292 116.891 53.4896C116.641 52.9896 116.75 52.4167 116.886 52.151L117.068 51.7865L117.443 51.9531C117.854 52.1354 119.266 51.3594 119.459 51.0677L119.724 50.6719L120.11 50.9479C121.073 51.7604 122.698 51.9479 123.349 51.5312L123.839 51.2188L123.99 51.7812C124.276 52.875 124.011 54.8281 122.505 55.7448C122.047 56.0313 121.5 56.1927 120.891 56.224C120.214 56.2604 119.573 56.1198 119.047 55.8333C119.021 55.9115 118.99 56 118.953 56.0885C118.933 56.1406 118.912 56.1875 118.891 56.2292C120.084 57.0833 120.86 57.1667 121.313 57.0885C121.651 57.0208 121.86 56.8542 121.974 56.7292C121.948 56.6146 121.917 56.4635 121.891 56.2917L122.735 56.1771C122.776 56.4792 122.844 56.7031 122.844 56.7083L122.896 56.875L122.808 57.0312C122.662 57.2865 122.229 57.7708 121.505 57.9167C121.344 57.9479 121.183 57.9688 121.016 57.9688ZM119.005 54.7448C119.407 55.1771 120.094 55.4115 120.844 55.3698C121.313 55.3437 121.719 55.2292 122.058 55.0156C122.979 54.4531 123.282 53.3281 123.24 52.4948C122.255 52.7604 120.875 52.5 119.88 51.8385C119.354 52.276 118.36 52.8021 117.599 52.8125C117.599 52.9063 117.615 53.0156 117.662 53.1094C117.74 53.2708 117.901 53.3698 118.151 53.4167L118.464 53.4792L118.495 53.7969C118.526 54.0833 118.683 54.3854 118.953 54.6875L119.005 54.7448Z" fill="black"/>
<path d="M121.88 56.292C121.833 55.9482 121.828 55.6305 121.854 55.3389L122.703 55.4222C122.682 55.641 122.693 55.9014 122.724 56.1774L121.88 56.292Z" fill="black"/>
<path d="M116.906 52.557C116.182 51.3643 116.182 49.9945 116.911 49.0622C117.474 48.3487 118.354 48.0362 119.271 48.2237C120.005 47.406 120.958 47.0727 121.974 47.2966C123.245 47.5779 124.375 48.6664 124.656 49.9008C124.864 50.807 124.568 51.656 123.838 52.2289L123.312 51.557C123.906 51.0883 123.917 50.505 123.823 50.0987C123.62 49.2029 122.724 48.3331 121.797 48.1352C121.255 48.0154 120.463 48.0622 119.771 48.9633L119.588 49.2029L119.307 49.1091C118.635 48.8956 117.989 49.0779 117.588 49.5883C117.182 50.1039 116.989 51.0414 117.64 52.1143L116.906 52.557Z" fill="black"/>
<path d="M120.292 53.6768H121.583V54.5257H120.292V53.6768Z" fill="black"/>
<path d="M128.594 68.2295C128.474 66.7503 128.286 65.4014 128.031 64.2139C127.062 59.7295 125.115 57.1878 122.234 56.6514L122.312 56.2451V55.8076L122.391 55.8128C125.641 56.417 127.823 59.1826 128.865 64.0368C129.13 65.2555 129.328 66.6462 129.448 68.1618L128.594 68.2295Z" fill="black"/>
<path d="M116.505 56.7295H116.432L116.427 56.2972L116.276 55.9014C116.802 55.6982 118.338 55.5212 118.51 55.4951L118.609 56.3441C117.995 56.417 116.901 56.5732 116.578 56.6982L116.505 56.7295Z" fill="black"/>
<path d="M113.182 63.0049L112.328 62.9945C112.333 62.4945 112.578 61.4632 112.609 61.3486L113.443 61.5518C113.365 61.8382 113.182 62.6611 113.182 63.0049Z" fill="black"/>
<path d="M116.557 64.016C116.552 62.8493 116.354 62.1566 116.349 62.1462L117.167 61.9014C117.177 61.9326 117.401 62.7035 117.412 64.0055L116.557 64.016Z" fill="black"/>
<path d="M126.167 70.4378C126.125 69.4014 126.068 68.3597 125.969 67.1514C125.682 63.641 125.234 61.5524 125.229 61.5368L126.068 61.3545C126.083 61.443 126.526 63.516 126.823 67.0837C126.917 68.3076 126.984 69.3597 127.015 70.4066L126.167 70.4378Z" fill="black"/>
<path d="M161.307 69.2132L160.667 68.6507C162.906 66.0882 163.885 62.8851 163.271 60.0882C162.901 58.3955 161.969 57.0674 160.776 56.5361L161.13 55.7549C162.583 56.4111 163.672 57.9215 164.109 59.9059C164.771 62.9684 163.724 66.4476 161.307 69.2132Z" fill="black"/>
<path d="M162.167 74.3545L161.854 73.5576C163.833 72.7868 181.536 69.1722 184.979 69.0889L185 69.943C181.594 70.0264 164.114 73.5993 162.167 74.3545Z" fill="black"/>
<path d="M162.802 78.474L162.547 77.651C162.573 77.6458 162.599 77.6406 162.63 77.6354C165.901 76.8438 182.542 73.6667 186.307 73.5312L186.339 74.3854C182.786 74.5104 166.578 77.5625 162.854 78.4583L162.802 78.474Z" fill="black"/>
<path d="M138.297 74.4323L137.453 74.2969C137.922 71.3333 140.443 67.4583 141.177 66.8438L141.724 67.4948C141.203 67.9375 138.734 71.625 138.297 74.4323Z" fill="black"/>
<path d="M140.911 75.2399L140.088 75.0212C140.729 72.568 142.823 68.0212 143.771 67.3545L144.265 68.0524C143.614 68.5107 141.568 72.7399 140.911 75.2399Z" fill="black"/>
<path d="M178.979 93.583L178.177 93.307C178.188 93.2705 179.328 89.9736 179.724 88.5049L180.552 88.7288C180.141 90.2236 179.026 93.4476 178.979 93.583Z" fill="black"/>
<path d="M186.047 91.349L185.646 91.2135H185.213V91.1406L185.234 91.0677C185.443 90.4635 186.943 85.6615 187.13 83.4062L187.979 83.4792C187.771 86.0417 186.062 91.2969 186.047 91.349Z" fill="black"/>
</svg>
