<svg width="767" height="484" viewBox="0 0 767 484" fill="none" xmlns="http://www.w3.org/2000/svg">
<mask id="mask0_5759_12102" style="mask-type:luminance" maskUnits="userSpaceOnUse" x="127" y="0" width="640" height="482">
<path d="M127 0H767V481.666H127V0Z" fill="white"/>
</mask>
<g mask="url(#mask0_5759_12102)">
<path d="M742.556 357.759L758.861 314.072L722.541 282.843L730.405 236.162L708.227 228.308V193.331L692.469 186.914L683.955 135.167L683.176 134.928C677.837 133.336 633.234 119.989 625.369 118.552C625.211 117.936 625.081 117.32 624.936 116.704C625.658 115.643 626.74 113.384 627.418 108.901C628.587 101.2 619.612 69.0298 597.721 55.306C589.597 48.5297 581.459 47.1436 575.802 47.2121L572.988 42.3865L574.013 41.2742L574.114 40.8464C574.186 40.5726 575.514 34.2241 573.104 23.6147C573.32 23.3923 573.566 23.1698 573.753 22.9645L574.302 22.3655L574.128 21.5099C572.599 13.6727 568.097 7.01615 561.805 3.25153C556.336 -0.0168483 550.261 -0.632874 545.918 1.59167C541.632 3.83334 536.177 8.91558 533.739 16.5646C531.921 22.28 532.123 28.4574 534.316 34.4808L530.939 40.8806L532.916 41.1716C533.84 41.3084 534.821 41.3769 535.831 41.3769C537.476 41.3769 539.266 41.1544 541.141 40.8293C541.834 41.9587 542.195 43.6014 542.527 45.2271C542.844 46.7671 543.133 48.2388 543.739 49.4195C545.153 52.2258 547.924 54.4846 550.983 55.306C552.96 55.8365 554.835 55.7338 556.408 55.0151L557.216 57.6674C549.338 67.0106 536.322 82.822 530.074 90.471L523.234 80.1867L511.257 83.3353V58.9679L477.216 43.1565L426.726 85.0978L417.909 115.146L426.365 136.348L418.328 153.871L408.429 161.16L403.782 170.675C400.247 167.937 396.74 165.627 393.335 163.83V162.581C396.957 160.253 399.929 154.196 399.453 149.918C399.193 147.71 398.183 145.811 397.289 144.117C396.61 142.833 395.947 141.619 395.802 140.54C398.429 138.658 400.608 136.656 402.296 134.551L403.667 132.823L397.62 130.496C396.048 124.199 392.859 119.305 388.371 116.293C382.368 112.289 375.427 112.511 370.939 114.085C366.408 115.66 362.079 120.776 359.655 127.433C356.841 135.099 357 143.621 360.059 150.808L360.391 151.595L361.141 151.629C361.502 151.646 361.906 151.646 362.31 151.646C362.541 151.646 362.801 151.646 363.061 151.646C363.45 155.428 364.648 158.08 366.033 159.86C348.126 163.881 337.433 177.297 331.56 184.672C331.343 184.946 331.127 185.22 330.925 185.476L312.541 163.898L312.166 163.813C311.372 163.607 310.535 163.573 309.655 163.642C309.208 160.305 307.62 154.196 301.993 151.783C295.918 149.148 283.522 152.861 280.449 158.097L276.336 161.622L271.228 143.244L277.721 130.941L277.693 130.427C277.202 124.489 276.553 115.66 276.654 114.582L276.697 113.966L276.365 113.469C276.177 113.196 271.589 106.642 267.058 109.91L266.408 110.372L267.202 126.988L261.286 139.445L268.154 168.672L255.975 179.179L238.76 177.348L213.263 111.981L212.714 111.775C210.001 110.749 204.143 110.287 201.387 116.002L201.04 116.686L201.343 117.422C201.343 117.422 208.27 133.816 215.211 150.209C218.703 158.405 222.18 166.602 224.807 172.745C226.683 177.126 227.837 179.812 228.602 181.455L212.296 188.984L200.261 229.899L200.925 230.566C201.271 230.96 209.424 239.345 212.036 241.603C211.964 244.564 206.899 258.134 204.128 265.526C201.242 273.243 200.059 276.478 199.814 277.932C199.006 278.788 194.951 281.645 175.759 291.091C168.847 294.479 163.075 297.2 163.032 297.234L162.411 297.525L156.755 325.178L142.079 330.671L127 362.431L175.326 388.834L185.297 411.713L168.616 429.869V449.821L192.988 469.089L257.721 454.75L316.957 471.502L317.188 471.553L377.548 462.176L386.697 444.636L476.74 446.296L487.418 464.024L580.579 454.75L601.127 468.182L661.416 463.152L694.128 480.007L719.468 472.05L722.281 446.964L767.058 438.545V378.482L742.556 357.759Z" fill="black"/>
</g>
<path d="M533.32 361.747L696.566 327.711L728.514 349.7L740.968 358.29L765.773 379.27V437.262L721.126 445.664L712.425 431.153L686.869 429.425L683.305 435.551H678.457C678.457 435.551 674.561 402.935 674.243 401.789C673.926 400.642 586.869 407.538 586.869 407.538V421.365L513.724 424.821L496.884 461.595L488.009 462.485L477.389 444.842L470.924 430.948L454.113 394.841L466.653 375.642L533.32 361.747Z" fill="#3B3A3A"/>
<path d="M419.669 321.174L418.255 335C419.077 334.966 419.9 334.949 420.722 334.932C418.24 344.189 417.331 360.137 417.259 364.552L460.39 350.349L463.262 344.805C463.262 344.805 450.462 341.947 446.61 341.194C442.742 340.442 443.305 334.949 443.305 334.949C444.474 334.983 445.094 335 445.094 335C445.094 335 445.195 333.049 445.369 329.798L449.625 320.404L459.654 318.504L462.252 311.591L470.592 306.611L485.859 286.642H501.4L508.197 291.621L523.074 285.872V266.689L528.37 247.49L535.686 246.309L562.858 241.997L567.086 241.329L577.764 250.929L603.983 291.604L627.273 282.398L643.449 290.081L659.64 301.204L667.403 306.184L680.347 294.684L687.461 270.505C687.461 270.505 700.462 268.435 701.675 268.572C701.689 268.572 701.703 268.572 701.718 268.572L709.467 270.129L721.097 283.51L757.23 314.603L740.939 358.289L728.486 349.699L696.523 327.71L533.276 361.746L466.624 375.641L454.099 394.84L470.895 430.947L470.563 431.169L443.305 421.826L440.52 400.042L409.048 388.286L375.08 418.027L373.623 426.361H368.962L363.291 397.801L354.589 393.489C357.259 389.279 359.726 385.189 362.021 381.168C364.402 377.01 366.581 372.954 368.601 368.916C383.363 339.227 388.457 312.327 388.457 276.255L424.055 278.462L420.809 309.845L419.669 321.174Z" fill="#3B3A3A"/>
<path d="M624.387 119.92C627.922 119.92 682.872 136.399 682.872 136.399L691.371 188.077L706.955 194.426V229.454L728.932 237.24L721.126 283.51L709.509 270.129L701.746 268.572C701.732 268.572 701.732 268.572 701.717 268.572L684.589 265.132L681.558 271.806C679.452 268.161 671.457 259.673 662.67 250.827C659.524 247.644 656.248 244.427 653.117 241.347C643.304 231.713 634.747 223.704 634.747 223.704L631.212 201.664L625.036 163.06L631.818 157.139C631.818 157.139 630.563 149.284 628.297 138.008C627.648 134.842 626.941 131.42 626.147 127.809C625.599 125.259 624.993 122.607 624.387 119.92Z" fill="#3B3A3A"/>
<mask id="mask1_5759_12102" style="mask-type:luminance" maskUnits="userSpaceOnUse" x="659" y="429" width="64" height="53">
<path d="M659.277 429.305H722.077V481.667H659.277V429.305Z" fill="white"/>
</mask>
<g mask="url(#mask1_5759_12102)">
<path d="M712.424 431.153L721.125 445.664L718.282 470.853L694.199 478.433L661.616 461.629V444.808L670.995 435.534H683.29L686.854 429.408L712.424 431.153Z" fill="#3B3A3A"/>
</g>
<path d="M701.716 268.573C700.49 268.436 687.502 270.506 687.502 270.506L680.388 294.686L667.445 306.185L659.667 301.205L663.145 297.783L675.208 285.856L681.572 271.79L684.602 265.133L701.716 268.573Z" fill="#3B3A3A"/>
<path d="M681.558 271.806L675.208 285.872L663.13 297.799C654.602 291.724 646.291 284.092 638.585 275.604L638.801 275.313L662.669 250.826C671.457 259.673 679.451 268.161 681.558 271.806Z" fill="#C41830"/>
<path d="M678.441 435.533H670.996L661.616 444.807V461.628L601.385 466.659L580.851 453.209L496.897 461.56L513.737 424.786L586.883 421.33V407.52C586.883 407.52 673.939 400.607 674.257 401.754C674.56 402.934 678.441 435.533 678.441 435.533Z" fill="#3B3A3A"/>
<path d="M663.131 297.8L659.668 301.222L643.477 290.099L627.301 282.416L603.997 291.622L577.792 250.947L567.114 241.348L562.886 242.015L559.827 230.687L556.104 216.843C556.104 216.843 556.104 216.843 556.089 216.843L550.923 197.627C550.923 197.627 578.759 190.303 595.267 187.616C595.036 208.955 609.827 240.287 630.577 266.211C633.146 269.428 635.83 272.577 638.586 275.606C646.291 284.093 654.603 291.725 663.131 297.8Z" fill="#3B3A3A"/>
<path d="M662.669 250.825L638.802 275.312L638.585 275.603C635.829 272.575 633.145 269.426 630.577 266.209L630.865 265.901L653.116 241.345C656.262 244.425 659.523 247.643 662.669 250.825Z" fill="#F9CA06"/>
<path d="M653.118 241.345L630.867 265.901L630.578 266.209C609.828 240.284 595.037 208.952 595.268 187.614C578.746 190.3 550.925 197.624 550.925 197.624L556.091 216.841C555.384 216.995 529.15 223.258 528.4 223.788C523.623 207.669 518.731 187.665 521.473 180.752C522.195 178.955 523.017 177.261 523.984 175.687C529.568 166.463 539.54 160.526 556.105 154.639C569.366 166.155 593.32 174.609 625.037 163.075L631.213 201.663L634.749 223.703C634.749 223.686 643.306 231.711 653.118 241.345Z" fill="#C41830"/>
<path d="M631.832 157.122L625.05 163.042C593.333 174.559 569.379 166.123 556.118 154.606L564.198 136.399C583.621 148.857 616.06 145.965 628.325 137.991C630.577 149.284 631.832 157.122 631.832 157.122Z" fill="#C41830"/>
<path d="M626.164 127.81C626.957 131.421 627.664 134.843 628.314 138.009C616.048 145.966 583.61 148.875 564.201 136.417C564.201 136.417 563.61 132.67 562.715 127.827C578.444 133.491 617.578 136.297 626.164 127.81Z" fill="#F9CA06"/>
<path d="M558.052 108.644C540.39 129.024 521.371 141.02 508.138 147.608C503.997 144.528 496.291 135.493 495.772 125.328V125.311C503.261 120.982 511.385 115.66 514.921 111.228C517.33 108.216 523.146 101.063 529.971 92.73C539.827 80.7003 551.804 66.1894 558.701 58.0441C561.602 54.5875 563.622 52.2774 564.199 51.7469C565.397 50.6689 569.553 48.9577 575.151 48.7523C581.371 48.5128 589.379 50.1726 597.071 56.6067C599.553 58.6944 601.991 61.2783 604.343 64.444C612.063 74.8993 618.701 96.563 623.521 116.31C623.81 117.542 624.098 118.74 624.401 119.955C625.022 122.642 625.628 125.294 626.176 127.844C617.59 136.314 578.456 133.525 562.727 127.844C561.486 121.29 559.711 112.768 558.052 108.644Z" fill="#C41830"/>
<path d="M597.057 56.588C619.279 70.4658 627.1 102.448 626.162 108.642C625.224 114.82 623.507 116.292 623.507 116.292C618.687 96.5443 612.049 74.8807 604.329 64.4253C601.977 61.2596 599.539 58.6928 597.057 56.588Z" fill="#C41830"/>
<path d="M571.313 42.1627L575.151 48.7508C569.553 48.9561 565.397 50.6673 564.199 51.7454C563.622 52.2758 561.602 54.5859 558.701 58.0425L557.128 52.8747C553.492 55.7667 547.157 53.2512 544.834 48.631C543.607 46.2011 543.708 41.5467 541.703 39.2023C546.652 38.1756 551.934 36.0708 556.811 33.4869C560.043 35.8313 560.462 40.2119 557.734 42.7274C559.726 44.4728 568.831 44.8664 568.831 44.8664L571.313 42.1627Z" fill="#794426"/>
<path d="M571.66 23.085C574.301 34.0024 572.887 40.4536 572.887 40.4536L571.314 42.1476L568.818 44.8513C568.818 44.8513 559.712 44.4578 557.721 42.7123C560.463 40.1969 560.03 35.8162 556.797 33.4719C562.757 30.3233 568.168 26.4731 571.66 23.085Z" fill="black"/>
<path d="M559.828 230.668L562.887 241.996L535.716 246.308C535.629 246.12 534.157 241.979 532.151 235.818L559.828 230.668Z" fill="#C41830"/>
<path d="M556.103 216.826L559.826 230.67L532.149 235.821C531.456 233.716 530.735 231.372 529.956 228.907C529.451 227.265 528.931 225.536 528.412 223.774C529.148 223.243 555.396 216.998 556.103 216.826Z" fill="#F9CA06"/>
<path d="M571.66 23.0838C568.153 26.472 562.742 30.3222 556.797 33.4879C551.919 36.0718 546.638 38.1937 541.688 39.2033C538.644 39.8364 535.714 40.0418 533.074 39.6653L535.743 34.6002C529.813 19.4732 538.384 7.16976 546.421 2.99445C554.473 -1.16375 569.697 5.59546 572.886 21.8689C572.511 22.2625 572.107 22.6732 571.66 23.0838Z" fill="#F9CA06"/>
<path d="M528.414 223.772C528.947 225.534 529.467 227.263 529.958 228.905L509.943 227.194L495.225 252.845L484.965 254.402L473.969 278.444L462.887 273.619L454.59 279.386C454.59 279.386 448.385 274.834 447.317 274.543C447.331 272.353 447.317 270.333 447.288 268.588C447.187 264.139 446.004 260.426 444.027 257.328L451.256 233.252C451.256 233.252 463.233 231.387 464.2 230.702C465.167 229.983 478.111 214.121 478.111 214.121L479.958 196.769L481.66 180.752L514.907 170.348L523.998 175.67C523.031 177.244 522.209 178.939 521.487 180.735C518.731 187.666 523.623 207.652 528.414 223.772Z" fill="#3B3A3A"/>
<path d="M528.4 247.49L523.104 266.689V285.872L508.198 291.621L501.416 286.642L512.412 259.759L528.4 247.49Z" fill="#3B3A3A"/>
<path d="M488.127 152.604C484.375 149.695 478.444 143.843 479.584 136.399C479.728 135.458 479.988 134.5 480.378 133.49C480.378 133.49 483.754 131.882 488.458 129.366C487.506 138.333 494.721 148.823 499.57 151.509V151.526C494.245 153.734 491.07 154.607 491.07 154.607C491.07 154.607 489.815 153.905 488.127 152.604Z" fill="#C41830"/>
<path d="M495.758 125.311C496.292 135.475 503.983 144.51 508.124 147.607C504.892 149.216 501.991 150.516 499.567 151.526V151.509C494.704 148.822 487.504 138.333 488.442 129.366C490.664 128.202 493.175 126.816 495.758 125.311Z" fill="#F9CA06"/>
<path d="M477.793 196.051C476.653 193.57 473.897 192.988 464.214 195.863C464.705 195.606 472.916 191.174 471.906 188.95C471.227 187.461 468.168 186.948 462.872 188.898L460.376 180.736L437.966 167.645L447.273 145.006L437.966 133.49L427.793 86.0386L457.562 61.3119L477.389 44.8673L509.986 59.9943V85.2001L522.728 81.8462L529.957 92.7294C523.132 101.063 517.317 108.216 514.907 111.227C511.372 115.659 503.248 120.981 495.758 125.31C493.175 126.833 490.665 128.202 488.457 129.383C483.753 131.881 480.376 133.507 480.376 133.507C479.986 134.517 479.727 135.475 479.582 136.416C475.196 134.294 455.931 136.279 455.455 140.472C454.965 144.647 460.376 144.904 460.376 144.904C454.157 148.121 454.965 154.503 461.602 152.279C456.754 159.055 462.266 160.578 465.34 159.449C468.399 158.302 474.561 157.532 477.952 158.49C481.227 159.415 485.542 156.249 488.125 152.638C489.813 153.939 491.069 154.64 491.069 154.64C491.069 154.64 494.243 153.768 499.568 151.56C502.007 150.551 504.907 149.267 508.139 147.624C521.372 141.036 540.39 129.041 558.053 108.661C559.712 112.785 561.501 121.306 562.714 127.826C563.623 132.669 564.2 136.416 564.2 136.416L556.105 154.623C539.539 160.527 529.568 166.448 523.983 175.671L514.893 170.349L481.66 180.753L479.957 196.77L477.851 196.445C477.865 196.291 477.836 196.171 477.793 196.051Z" fill="#3B3A3A"/>
<path d="M461.604 152.244C454.966 154.469 454.172 148.086 460.377 144.869C460.377 144.869 454.966 144.63 455.457 140.437C455.933 136.245 475.197 134.26 479.584 136.382C478.429 143.825 484.374 149.678 488.126 152.587C485.543 156.214 481.229 159.363 477.953 158.439C474.548 157.464 468.4 158.234 465.341 159.397C462.268 160.544 456.755 159.038 461.604 152.244Z" fill="#794426"/>
<path d="M475.988 209.107C477.46 207.19 475.194 202.382 466.132 202.981C467.676 202.604 477.864 198.925 477.864 196.427L479.956 196.752L478.109 214.103C478.109 214.103 465.165 229.966 464.199 230.685C463.217 231.369 451.255 233.252 451.255 233.252L444.025 257.311C437.633 247.215 422.929 243.399 409.826 241.346C408.21 238.899 406.94 234.911 406.031 230.702C405.339 227.588 404.834 224.319 404.545 221.479C404.098 217.423 404.011 214.189 404.3 213.333C412.525 222.197 417.979 224.798 424.458 226.732C430.937 228.649 443.477 227.69 454.487 217.56C454.559 216.55 454.588 215.609 454.588 214.702C460.533 216.225 465.339 210.27 468.975 209.124C472.626 207.96 474.545 211.023 475.988 209.107Z" fill="#3B3A3A"/>
<path d="M464.216 195.862C473.898 192.987 476.654 193.569 477.794 196.05C477.838 196.17 477.867 196.29 477.867 196.427C477.867 198.925 467.693 202.604 466.135 202.981C475.197 202.382 477.463 207.19 475.991 209.107C474.548 211.023 472.614 207.96 468.963 209.107C465.327 210.27 460.522 216.208 454.577 214.685C454.577 199.917 445.284 199.832 445.096 199.832C444.288 193.364 447.361 187.272 450.276 187.357C453.191 187.426 452.051 194.715 452.051 194.715C456.323 191.841 459.944 189.993 462.874 188.915C468.17 186.964 471.229 187.477 471.907 188.966C472.917 191.19 464.706 195.605 464.216 195.862Z" fill="#794426"/>
<path d="M470.923 430.929L477.387 444.806L385.973 443.147L378.902 426.343H373.65L375.093 417.992L409.076 388.269L440.562 400.007L443.332 421.808L470.591 431.151L470.923 430.929Z" fill="#3B3A3A"/>
<path d="M463.249 344.807L460.377 350.351L417.26 364.554C417.318 360.139 418.227 344.191 420.709 334.933C430.579 334.711 439.598 334.865 443.306 334.95C443.306 334.95 442.744 340.443 446.611 341.196C450.449 341.949 463.249 344.807 463.249 344.807Z" fill="black"/>
<path d="M460.376 180.735L462.872 188.898C459.943 189.993 456.321 191.841 452.05 194.699C452.05 194.699 453.19 187.409 450.275 187.34C447.36 187.272 444.286 193.347 445.094 199.815C445.094 199.815 432.136 199.576 429.51 200.551C425.874 194.87 416.205 182.361 404.2 172.761L404.416 172.402L409.38 162.22L419.294 154.913L427.807 136.381L437.98 133.489L447.288 144.988L437.98 167.645L460.376 180.735Z" fill="#3B3A3A"/>
<path d="M348.326 212.341C335.584 219.271 334.834 217.354 326.796 218.792C318.773 220.246 294.689 178.476 294.689 178.476C294.891 177.792 295.166 177.09 295.512 176.423C297.936 171.443 303.564 166.395 308.513 165.334C309.697 165.06 310.822 165.026 311.89 165.283L330.923 187.631C336.767 180.444 348.095 164.188 368.917 160.799C370.433 160.56 372.02 160.389 373.65 160.269C377.388 160.047 381.154 160.628 384.891 161.809C387.301 162.579 389.711 163.589 392.063 164.804C396.262 166.96 400.346 169.715 404.184 172.778C416.19 182.378 425.873 194.886 429.509 200.568C432.121 199.592 445.079 199.832 445.079 199.832C445.281 199.832 454.56 199.917 454.56 214.685C454.56 215.592 454.545 216.533 454.459 217.543C443.448 227.673 430.909 228.631 424.43 226.715C417.936 224.798 412.496 222.18 404.271 213.316C403.997 214.189 404.069 217.423 404.516 221.461C397.114 227.604 355.122 240.473 347.215 240.558C347.215 239.497 347.215 238.453 347.229 237.392C347.301 228.973 347.734 220.246 348.326 212.341Z" fill="#C41830"/>
<path d="M449.625 320.405L445.368 329.799C445.484 327.506 445.628 324.563 445.787 321.192C445.945 317.77 446.133 313.902 446.292 309.847C446.797 298.023 447.273 284.384 447.316 274.545C448.398 274.853 454.589 279.388 454.589 279.388L462.886 273.621L473.968 278.446L484.964 254.404L495.224 252.847L509.942 227.196L529.957 228.907C530.736 231.372 531.458 233.699 532.15 235.821C534.156 241.981 535.628 246.122 535.714 246.31L528.398 247.491L512.41 259.76L501.414 286.643H485.873L470.606 306.596L462.266 311.575L459.668 318.488L449.625 320.405Z" fill="#3B3A3A"/>
<path d="M355.427 299.219C354.865 288.25 354.403 276.546 354.605 269.786C371.228 272.422 399.598 264.858 409.814 241.329C422.931 243.383 437.635 247.199 444.013 257.295C445.99 260.409 447.173 264.122 447.274 268.554C447.303 270.3 447.318 272.319 447.303 274.526C447.26 284.349 446.784 297.987 446.279 309.811H420.824L424.057 278.428L388.458 276.221C388.458 312.31 383.393 339.21 368.616 368.882L342.628 357.896L357.058 325.76C357.058 325.777 356.149 313.097 355.427 299.219Z" fill="#C41830"/>
<path d="M420.823 309.827H446.278C446.119 313.9 445.946 317.75 445.773 321.172H419.654L420.823 309.827Z" fill="#F9CA06"/>
<path d="M420.707 334.93C419.884 334.947 419.076 334.964 418.239 334.999L419.653 321.172H445.772C445.613 324.56 445.469 327.504 445.353 329.797C445.18 333.031 445.079 334.982 445.079 334.982C445.079 334.982 444.444 334.964 443.29 334.93C439.596 334.862 430.577 334.708 420.707 334.93Z" fill="#C41830"/>
<path d="M427.793 86.0386L437.981 133.49L427.793 136.399L419.294 115.06L427.793 86.0386Z" fill="#3B3A3A"/>
<path d="M354.603 269.804C352.785 269.513 351.111 269.102 349.625 268.572C348.528 263.951 347.865 258.065 347.533 251.511C369.943 252.247 397.908 238.574 406.032 230.703C406.941 234.912 408.196 238.882 409.827 241.347C399.596 264.858 371.227 272.439 354.603 269.804Z" fill="#C41830"/>
<path d="M404.532 221.479C404.835 224.319 405.34 227.588 406.018 230.702C397.894 238.591 369.929 252.246 347.519 251.51C347.317 248.019 347.23 244.34 347.216 240.558C355.123 240.49 397.129 227.605 404.532 221.479Z" fill="#F9CA06"/>
<path d="M394.474 139.7C394.229 143.037 397.721 146.135 398.183 150.122C398.644 154.092 395.383 160.029 392.064 161.621V164.787C389.712 163.572 387.302 162.562 384.893 161.792C395.109 157.497 391.112 147.64 392.064 141.275C392.887 140.761 393.695 140.231 394.474 139.7Z" fill="#794426"/>
<path d="M392.063 141.26C391.096 147.642 395.108 157.499 384.891 161.777C381.154 160.596 377.388 160.031 373.65 160.254C372.02 160.357 370.433 160.528 368.917 160.784C366.565 159.039 364.415 155.771 364.17 150.038C371.775 149.627 383.189 146.564 392.063 141.26Z" fill="black"/>
<path d="M319.38 391.881L328.933 388.407V388.39L337.793 385.156L354.618 393.472L363.319 397.767L368.99 426.344H378.904L385.975 443.148L376.783 460.774L317.259 470.031L257.735 453.227L213.103 463.101L190.722 444.808L186.84 427.114L201.054 401.635L186.84 378.209L196.076 338.988L196.09 338.954L274.734 331.921L310.881 355.741L319.38 391.881Z" fill="#3B3A3A"/>
<path d="M342.627 357.897L368.615 368.9C366.595 372.938 364.416 376.993 362.035 381.152L337.663 368.9L342.627 357.897Z" fill="#F9CA06"/>
<path d="M394.474 139.703C393.695 140.234 392.887 140.764 392.064 141.278C383.19 146.565 371.79 149.628 364.157 150.073C363.06 150.142 362.064 150.159 361.155 150.107C354.792 135.203 362.829 118.433 371.256 115.507C379.698 112.598 392.916 115.507 396.552 131.661L401.343 133.492C399.525 135.785 397.173 137.855 394.474 139.703Z" fill="#F9CA06"/>
<path d="M337.677 368.883L362.035 381.152C359.755 385.173 357.273 389.246 354.618 393.456L337.793 385.156L328.918 388.391L337.677 368.883Z" fill="#C41830"/>
<path d="M357.056 325.776L342.626 357.896L337.677 368.898L328.918 388.406V388.423L319.38 391.897L310.88 355.757L274.733 331.937L196.104 338.97L196.09 339.004C195.527 340.236 177.663 379.422 176.263 387.704L128.788 361.746L142.973 331.92L157.836 326.341L163.853 334.23L176.263 292.494C187.143 287.138 201.054 280.002 201.054 278.445C201.054 278.445 212.727 287.018 213.694 285.871C214.084 285.427 216.652 288.147 219.625 291.621C224.127 296.926 229.553 303.907 229.553 303.907L241.212 278.445C241.212 278.445 263.218 282.038 264.185 282.415C265.166 282.808 272.266 287.788 272.266 287.788L284.575 285.871L292.006 299.048L296.508 298.278L322.424 293.829L342.179 307.347L355.411 299.236C356.147 313.097 357.056 325.776 357.056 325.776Z" fill="#3B3A3A"/>
<path d="M347.534 251.511C347.866 258.065 348.544 263.951 349.626 268.572C351.113 269.102 352.786 269.513 354.605 269.804C354.403 276.563 354.864 288.267 355.427 299.236L342.195 307.347L322.44 293.829L296.509 298.278L298.169 283.185L288.125 235.973L298.818 238.283L321.459 245.197L331.82 233.68L347.216 237.428H347.231C347.216 238.489 347.216 239.533 347.216 240.594C347.245 244.358 347.332 248.037 347.534 251.511Z" fill="#3B3A3A"/>
<path d="M301.529 153.168C307.244 155.632 308.34 162.392 308.514 165.318C303.564 166.396 297.936 171.427 295.512 176.406L295.498 176.389C291.183 173.805 288.831 163.932 288.831 163.932C288.831 163.932 284.3 160.852 281.313 159.175C283.651 154.554 295.83 150.704 301.529 153.168Z" fill="#794426"/>
<path d="M288.124 235.955L298.168 283.167L296.508 298.277L292.006 299.03L284.574 285.87L272.266 287.787L276.147 265.918L274.214 249.799L288.124 235.955Z" fill="#3B3A3A"/>
<path d="M294.691 178.478C294.691 178.478 318.775 220.248 326.798 218.794C334.836 217.357 335.586 219.273 348.328 212.343C347.722 220.248 347.303 228.976 347.231 237.412H347.217L331.82 233.664L321.459 245.181L298.818 238.267L288.126 235.957L274.215 249.801L276.149 265.92L272.253 287.789C272.253 287.789 265.153 282.81 264.172 282.416C263.191 282.04 241.199 278.446 241.199 278.446L228.299 279.918L230.406 238.284L216.914 224.458L227.087 183.783L230.406 182.243L237.895 178.786L256.308 180.72L269.583 169.272L275.644 164.036L281.315 159.176C284.287 160.853 288.818 163.933 288.818 163.933C288.818 163.933 291.17 173.807 295.485 176.391L295.499 176.408C295.168 177.092 294.893 177.794 294.691 178.478Z" fill="#3B3A3A"/>
<path d="M276.38 130.562L269.785 143.037L275.644 164.033L269.583 169.27L262.628 139.632L268.472 127.328L267.693 111.175C271.329 108.574 275.341 114.409 275.341 114.409C275.211 116.12 276.38 130.562 276.38 130.562Z" fill="black"/>
<path d="M241.212 278.445L229.552 303.907C229.552 303.907 224.127 296.926 219.625 291.621L223.088 280.498L228.311 279.917L241.212 278.445Z" fill="#3B3A3A"/>
<path d="M212.337 113.197L237.893 178.787L230.404 182.243C230.173 182.329 202.481 116.739 202.481 116.739C205.468 110.596 212.337 113.197 212.337 113.197Z" fill="black"/>
<path d="M230.403 238.285L228.311 279.918L223.087 280.5L219.624 291.623C216.652 288.149 214.083 285.428 213.693 285.873C212.712 287.037 201.053 278.446 201.053 278.446C201.053 275.931 215.237 242.323 213.102 240.646L230.403 238.285Z" fill="#3B3A3A"/>
<path d="M230.406 238.285L213.104 240.646C210.983 238.969 201.762 229.455 201.762 229.455L216.914 224.475L230.406 238.285Z" fill="#3B3A3A"/>
<path d="M227.101 183.782L216.928 224.457L201.762 229.437L213.321 190.131L227.101 183.782Z" fill="#3B3A3A"/>
<path d="M213.103 463.099L193.247 467.497L169.871 449.016V430.535L186.884 412.054L176.263 387.687C177.648 379.422 195.527 340.218 196.09 338.986L186.84 378.224L201.054 401.65L186.84 427.13L190.722 444.824L213.103 463.099Z" fill="#3B3A3A"/>
<path d="M176.263 292.495L163.853 334.231L157.836 326.342L163.507 298.621C163.507 298.621 169.265 295.917 176.263 292.495Z" fill="#3B3A3A"/>
<path d="M405.498 173.156L403.304 171.668L408.427 161.144L418.326 153.854L426.363 136.349L417.907 115.13L426.724 85.0984L477.215 43.1571L511.255 58.9685V83.3188L523.232 80.1702L530.967 91.7892L528.961 93.6544L522.222 83.5241L508.701 87.0834V61.022L477.561 46.5624L428.86 86.9978L420.664 114.959L429.221 136.451L420.231 156.01L410.317 163.317L405.498 173.156Z" fill="black"/>
<mask id="mask2_5759_12102" style="mask-type:luminance" maskUnits="userSpaceOnUse" x="127" y="118" width="640" height="364">
<path d="M127 118.277H767V481.666H127V118.277Z" fill="white"/>
</mask>
<g mask="url(#mask2_5759_12102)">
<path d="M694.1 480.024L661.387 463.168L601.098 468.199L580.55 454.767L487.39 464.041L476.711 446.313L386.668 444.653L377.52 462.193L317.159 471.57L316.928 471.519L257.693 454.767L192.96 469.106L168.587 449.838V429.869L185.283 411.713L175.312 388.834L127 362.431L142.094 330.654L156.769 325.161L162.426 297.508L163.046 297.217C163.104 297.183 168.861 294.479 175.773 291.074C194.98 281.628 199.02 278.77 199.828 277.915C200.074 276.46 201.257 273.243 204.143 265.509C206.913 258.116 211.978 244.547 212.051 241.603C209.424 239.345 201.286 230.943 200.925 230.566L200.276 229.899L212.31 188.967L237.707 177.228L255.947 179.162L281.17 157.396L281.863 157.789C284.836 159.483 289.266 162.495 289.468 162.615L289.915 162.923L290.045 163.505C290.665 166.071 292.945 173.156 296.077 175.038L294.922 177.725C290.766 175.226 288.371 167.235 287.765 164.942C286.668 164.206 283.739 162.273 281.444 160.904L256.697 182.276L238.097 180.291L214.345 191.26L203.277 228.958C206.596 232.363 212.31 238.147 213.84 239.345C215.6 240.748 214.879 244.307 206.495 266.724C204.605 271.772 202.469 277.487 202.354 278.514C202.354 279.883 202.354 281.252 176.769 293.863C171.141 296.601 166.279 298.928 164.619 299.715L158.934 327.505L143.84 333.152L130.579 361.045L177.202 386.524L188.472 412.363L171.17 431.186V448.196L193.551 465.889L257.794 451.652L258.068 451.738L317.346 468.473L376.033 459.353L385.297 441.59L478.068 443.284L488.645 460.858L496.784 460.054L581.113 451.635L581.445 451.858L601.675 465.068L661.834 460.054L694.302 476.79L717.144 469.62L719.987 444.294L764.489 435.909V380.005L739.381 358.734L755.687 315.031L719.713 284.144L727.447 238.267L705.687 230.566V195.487L690.261 189.19L681.776 137.614C659.742 131.009 626.827 121.426 624.388 121.426V118.415C627.981 118.415 677.548 133.234 683.176 134.928L683.955 135.167L692.469 186.914L708.227 193.331V228.307L730.406 236.162L722.541 282.843L758.862 314.072L742.556 357.759L767.043 378.499V438.562L722.253 446.981L719.439 472.05L694.1 480.024Z" fill="black"/>
</g>
<path d="M384.833 443.816L378.109 427.85H367.979L362.222 398.863L337.734 386.765L329.292 389.828L328.542 386.936L337.864 383.565L364.415 396.673L369.985 424.839H379.682L387.113 442.464L384.833 443.816Z" fill="black"/>
<path d="M318.501 393.781L309.799 356.767L274.46 333.444L196.192 340.46L196.004 337.465L275.023 330.381L311.964 354.748L320.261 389.982L328.544 386.953L329.294 389.845L318.501 393.781Z" fill="black"/>
<path d="M177.518 387.978L175.022 387.379C176.465 378.754 194.791 338.678 194.979 338.267L197.215 339.705C192.107 350.828 178.658 381.167 177.518 387.978Z" fill="black"/>
<path d="M470.244 432.59L442.207 422.99L439.422 401.19L409.321 389.93L376.247 418.866L374.891 426.635L372.395 426.036L373.953 417.121L408.845 386.593L441.702 398.863L444.472 420.629L470.952 429.698L470.244 432.59Z" fill="black"/>
<path d="M476.277 445.544L452.611 394.688L465.959 374.256L466.45 374.153L696.796 326.12L741.616 356.973L740.331 359.591L696.32 329.286L467.373 377.011L455.642 394.961L478.499 444.09L476.277 445.544Z" fill="black"/>
<path d="M497.994 462.296L495.758 460.858L512.944 423.315L585.57 419.875V406.117L586.768 406.032C586.984 406.014 608.774 404.286 630.332 402.712C674.921 399.478 674.993 399.751 675.426 401.309C675.772 402.438 678.528 425.488 679.697 435.327L677.172 435.755C675.801 424.29 673.752 407.418 673.16 403.14C666.393 403.02 619.928 406.425 588.124 408.941V422.784L514.474 426.258L497.994 462.296Z" fill="black"/>
<path d="M662.887 461.627H660.348V444.104L670.535 434.025H682.628L686.206 427.848L713.104 429.679L722.151 444.772L720.088 446.534L711.733 432.605L687.491 430.962L683.97 437.054H671.459L662.887 445.525V461.627Z" fill="black"/>
<path d="M720.231 284.589L708.903 271.55L701.529 270.061L701.962 267.084L710.115 268.727L722.02 282.416L720.231 284.589Z" fill="black"/>
<path d="M446.221 331.117L443.97 329.662L448.804 319.036L458.775 317.136L461.272 310.48L469.814 305.38L485.312 285.137H500.608L511.416 258.716L527.938 246.036L535.543 244.821L567.477 239.773L578.804 250.023L604.461 289.86L627.361 280.808L644.129 288.782L659.54 299.391L674.201 284.897L683.898 263.473L701.921 267.084L701.503 270.061L685.283 266.81L676.221 286.848L659.8 303.053L642.931 291.451L627.26 284.025L603.552 293.402L576.885 252.025L566.77 242.939L528.848 248.928L513.407 260.804L502.21 288.149H486.438L471.387 307.827L463.234 312.687L460.536 319.857L450.464 321.774L446.221 331.117Z" fill="black"/>
<path d="M667.546 307.998L659.061 302.54L660.273 299.887L667.329 304.405L679.306 293.761L686.55 269.154L687.329 269.017C690.417 268.521 700.605 266.93 701.832 267.067L701.716 270.095C700.807 270.027 694.357 270.951 688.455 271.892L681.456 295.626L667.546 307.998Z" fill="black"/>
<path d="M594.733 338.612L589.148 321.705L610.909 305.757L602.972 292.495L605.036 290.75L614.574 306.647L592.309 322.937L597.099 337.517L594.733 338.612Z" fill="black"/>
<path d="M601.068 315.545L590.49 307.793L573.174 311.729L572.698 308.752L590.981 304.61L602.41 312.995L601.068 315.545Z" fill="black"/>
<path d="M508.038 293.282L500.736 287.926L502.078 285.36L508.37 289.98L521.819 284.761L521.891 266.211L527.187 247.012L529.611 247.953L524.373 266.93V286.968L508.038 293.282Z" fill="black"/>
<path d="M531.14 312.156L534.863 292.58L522.655 287.292L523.535 284.451L537.85 290.663L534.487 308.323L550.692 304.712L551.168 307.689L531.14 312.156Z" fill="black"/>
<path d="M479.149 105.136L477.72 99.4206L462.035 94.2357L468.182 70.4843L456.927 62.6129L458.211 60.0118L471.212 69.0812L465.224 92.1651L479.769 96.9565L481.588 104.297L479.149 105.136Z" fill="black"/>
<path d="M455.758 102.432H453.204V87.9037L454.084 87.5444C458.875 85.6279 464.488 83.0268 465.239 82.1884C465.239 82.1884 465.123 82.3253 465.066 82.5819L467.49 83.4717C467.302 84.1904 466.956 85.5081 455.773 90.0598V102.432H455.758Z" fill="black"/>
<path d="M283.278 216.005H276.827V201.905L260.68 204.865L255.096 181.148L257.549 180.327L262.513 201.46L279.381 198.38V212.976H283.278V216.005Z" fill="black"/>
<path d="M247.231 218.674L245.528 216.433L253.883 207.483L250.507 203.239L258.183 191.98L260.175 193.879L253.883 203.085L257.505 207.654L247.231 218.674Z" fill="black"/>
<path d="M342.151 309.075L322.18 295.386L291.401 300.656L283.955 287.463L272.007 289.328L271.617 289.072C268.226 286.693 264.359 284.075 263.753 283.818C262.83 283.544 250.492 281.474 241.892 280.071L229.814 306.474L228.602 304.917C228.558 304.849 223.147 297.918 218.717 292.682C215.557 289.003 214.287 287.822 213.796 287.446C212.599 287.634 209.641 286.505 200.376 279.729L201.718 277.162C206.206 280.447 211.675 284.024 213.19 284.417C214.2 283.75 215.672 284.879 220.521 290.543C223.71 294.308 227.418 298.962 229.28 301.324L240.506 276.802L241.387 276.939C246.567 277.778 263.58 280.567 264.576 280.961C265.557 281.354 270.521 284.777 272.541 286.214L285.196 284.229L292.642 297.388L322.7 292.254L342.223 305.619L355.138 297.696L356.322 300.383L342.151 309.075Z" fill="black"/>
<path d="M273.506 288.113L271.01 287.48L274.848 265.868L272.857 249.166L287.777 234.348L299.047 236.795L321.111 243.502L331.428 232.037L347.489 235.922L346.969 238.882L332.222 235.306L321.832 246.856L298.499 239.738L288.485 237.582L275.57 250.416L277.446 265.953L273.506 288.113Z" fill="black"/>
<path d="M325.554 279.009L323.188 277.879L330.619 256.181L320.663 246.342L322.279 244.015L333.678 255.274L325.554 279.009Z" fill="black"/>
<path d="M327.546 267.854L329.234 265.595L342.38 279.353L340.692 281.612L327.546 267.854Z" fill="black"/>
<path d="M297.764 298.465L295.253 298.072L296.869 283.27L286.884 236.349L289.366 235.596L299.452 283.099L297.764 298.465Z" fill="black"/>
<path d="M220.808 292.152L218.413 291.091L222.164 279.078L241.082 276.956L241.327 279.951L223.997 281.919L220.808 292.152Z" fill="black"/>
<path d="M164.343 337.123L156.897 327.369L158.787 325.333L163.362 331.339L175.064 291.982L176.248 292.478L177.532 292.461V292.718L177.46 292.992L164.343 337.123Z" fill="black"/>
<path d="M229.581 279.986L227.027 279.815L229.091 238.935L215.469 224.954L225.873 183.355L228.311 184.194L218.384 223.962L231.717 237.634L229.581 279.986Z" fill="black"/>
<path d="M212.974 239.138L230.261 236.777L230.564 239.771L213.262 242.133L212.974 239.138Z" fill="black"/>
<path d="M201.416 227.998L216.582 223.019L217.26 225.928L202.109 230.907L201.416 227.998Z" fill="black"/>
<path d="M428.095 137.872L427.489 134.929L436.421 132.396L426.551 86.4163L429.033 85.6633L439.524 134.603L428.095 137.872Z" fill="black"/>
<path d="M461.689 189.429L459.351 181.814L436.278 168.347L445.729 145.297L437.057 134.551L438.89 132.446L448.803 144.716L439.669 166.978L461.4 179.641L464.084 188.385L461.689 189.429Z" fill="black"/>
<path d="M662.484 299.082C654.129 293.127 645.803 285.598 637.722 276.7C634.98 273.705 632.282 270.523 629.67 267.271C608.386 240.662 594.562 210.374 594.028 189.361C579.757 191.808 558.184 197.301 552.571 198.738L557.318 216.38L554.894 217.304L549.295 196.513L550.666 196.154C550.94 196.069 578.732 188.779 595.11 186.127L596.568 185.887L596.553 187.649C596.337 207.944 610.06 238.369 631.517 265.184C634.086 268.401 636.77 271.532 639.454 274.51C647.405 283.271 655.586 290.663 663.783 296.516L662.484 299.082Z" fill="black"/>
<path d="M554.892 217.304L557.316 216.38L564.084 241.552L561.66 242.476L554.892 217.304Z" fill="black"/>
<path d="M680.522 272.66C679.31 270.59 675.096 265.319 661.849 251.972C659.108 249.217 656.005 246.12 652.311 242.526C642.614 232.995 634.043 224.952 633.971 224.884L633.596 224.525L623.653 162.408L630.435 156.488C630.046 154.075 628.877 147.264 627.088 138.349C626.438 135.218 625.731 131.795 624.938 128.185C624.375 125.652 623.783 123.017 623.163 120.33C622.86 119.132 622.571 117.917 622.282 116.685C616.063 91.2399 609.685 73.9739 603.365 65.4351C601.215 62.509 598.834 59.9593 596.308 57.8374C588.401 51.2151 580.435 50.0686 575.183 50.2568C569.815 50.4622 565.89 52.122 564.981 52.9605C564.735 53.183 563.74 54.1926 559.584 59.1208C551.359 68.8404 536.77 86.6025 530.868 93.7896C524.389 101.695 518.343 109.122 515.832 112.27C512.744 116.138 506.178 120.98 496.308 126.679C494.028 128.013 491.633 129.348 488.963 130.768C485.313 132.702 482.441 134.139 481.33 134.687C481.099 135.372 480.926 136.039 480.839 136.689C479.829 143.277 485.399 148.702 488.819 151.371C489.858 152.175 490.738 152.723 491.215 153.031C492.254 152.723 495.082 151.816 499.151 150.139C502.095 148.907 504.88 147.624 507.636 146.255C520.479 139.855 539.483 127.979 557.174 107.599L558.43 106.144L559.209 108.044C560.94 112.339 562.744 120.998 563.971 127.534C564.865 132.343 565.457 136.142 565.457 136.176L565.544 136.706L557.001 155.94L556.496 156.128C539.252 162.271 530.132 168.192 525.039 176.611C524.129 178.1 523.35 179.674 522.643 181.454C521.474 184.38 520.854 193.723 529.627 223.344C530.147 225.106 530.652 226.818 531.171 228.46C531.936 230.942 532.672 233.252 533.365 235.339C535.298 241.346 536.77 245.487 536.886 245.761L536.987 246.051V246.394H535.702L534.562 247.01C534.49 246.821 533.004 242.646 530.984 236.435C530.291 234.33 529.541 232.003 528.776 229.504C528.256 227.861 527.737 226.133 527.217 224.354C520.291 200.996 517.968 186.125 520.32 180.153C521.099 178.22 521.965 176.474 522.961 174.832C528.372 165.916 537.722 159.705 555.241 153.407L562.86 136.21C562.672 135.029 562.167 131.915 561.474 128.185C560.089 120.741 558.747 114.906 557.593 111.312C540.017 131.094 521.344 142.747 508.632 149.061C505.818 150.464 502.989 151.782 500.002 153.014C494.678 155.238 491.489 156.111 491.359 156.145L490.926 156.265L490.522 156.043C490.479 156.008 489.18 155.273 487.448 153.938C483.494 150.858 477.073 144.492 478.357 136.176C478.502 135.149 478.805 134.054 479.238 132.942L479.44 132.394L479.916 132.154C479.959 132.154 483.321 130.529 487.939 128.065C490.58 126.662 492.961 125.344 495.212 124.026C504.678 118.568 511.171 113.811 513.985 110.251C516.51 107.103 522.571 99.6418 529.05 91.7361C534.952 84.5491 549.555 66.7869 557.795 57.0331C562.499 51.4547 563.191 50.8215 563.422 50.6162C564.995 49.1788 569.642 47.5018 575.096 47.3136C580.782 47.1082 589.31 48.3403 597.78 55.4417C600.479 57.7005 602.989 60.4042 605.284 63.5015C611.849 72.3825 618.401 90.0249 624.75 115.932C625.024 117.182 625.313 118.379 625.616 119.577C626.236 122.298 626.842 124.933 627.405 127.483C628.199 131.111 628.92 134.55 629.57 137.699C631.821 148.907 633.09 156.83 633.105 156.898L633.249 157.839L626.467 163.76L635.948 222.916C637.694 224.576 645.385 231.831 653.971 240.25C657.665 243.878 660.796 246.975 663.523 249.748C674.331 260.631 680.767 267.784 682.643 271.035L680.522 272.66Z" fill="black"/>
<path d="M558.947 109.703L557.144 107.582C557.245 107.462 567.057 95.7059 569.856 89.0836L572.136 90.4355C569.164 97.4685 559.366 109.207 558.947 109.703Z" fill="black"/>
<path d="M597.778 146.357C585.83 146.357 573.161 143.859 563.594 137.733L564.806 135.081C583.868 147.316 615.614 144.526 627.706 136.689L628.947 139.342C622.439 143.534 610.52 146.357 597.778 146.357Z" fill="black"/>
<path d="M600.852 134.638C586.652 134.638 570.664 132.259 562.338 129.248L563.074 126.373C579.091 132.157 617.345 134.569 625.339 126.647L626.984 128.974C622.829 133.064 612.424 134.638 600.852 134.638Z" fill="black"/>
<path d="M595.672 170.11C574.749 170.11 561.257 160.938 555.355 155.821L556.87 153.391C564.879 160.356 587.563 175.072 624.677 161.588L625.427 164.48C614.229 168.553 604.316 170.11 595.672 170.11Z" fill="black"/>
<path d="M528.199 225.707L527.492 224.817L528.415 223.791H527.131L527.809 222.593L527.766 222.49C527.795 222.473 527.838 222.439 527.925 222.405L527.939 222.37L527.982 222.387C530.406 221.429 549.772 216.809 555.861 215.372L556.121 215.337L556.135 216.877L556.38 218.332C550.796 219.65 530.796 224.475 529.007 225.16L528.199 225.707Z" fill="black"/>
<path d="M531.962 234.313L559.624 229.163L560.028 232.14L532.352 237.308L531.962 234.313Z" fill="black"/>
<path d="M630 264.772L652.237 240.216L653.983 242.424L631.732 266.979L630 264.772Z" fill="black"/>
<path d="M637.979 274.149L661.846 249.662L663.506 251.955L639.653 276.442L637.979 274.149Z" fill="black"/>
<path d="M686.349 243.983L677.315 221.823H663.766L661.5 205.07L650.562 197.661L631.514 203.119L630.923 200.176L650.937 194.444L663.838 203.171L665.93 218.794H678.917L688.657 242.665L686.349 243.983Z" fill="black"/>
<path d="M445.223 257.81L442.828 256.783L450.317 231.851L451.082 231.731C456.478 230.875 462.51 229.78 463.549 229.352C464.646 228.291 472.135 219.222 476.897 213.387L480.519 179.522L515.064 168.725L524.574 174.303L523.448 177.007L514.79 171.942L482.842 181.918L479.336 214.773L479.047 215.132C475.108 219.941 465.887 231.218 464.877 231.936C463.924 232.621 457.633 233.75 452.207 234.606L445.223 257.81Z" fill="black"/>
<path d="M416.797 336.558L422.627 279.884L373.58 276.82L373.709 273.809L425.484 277.043L419.669 333.461C419.987 333.461 420.318 333.444 420.65 333.444C431.17 333.204 440.65 333.41 443.32 333.461L443.897 333.478L444.157 328.225C444.258 326.206 444.373 323.793 444.503 321.123C444.676 317.701 444.849 313.851 445.023 309.778C445.455 299.442 445.975 284.932 446.047 274.545C446.062 272.371 446.047 270.369 446.004 268.624C445.917 264.722 444.907 261.232 443.002 258.237C436.624 248.158 420.91 244.633 409.655 242.87L409.987 239.876C422.685 241.861 438.139 245.557 445.037 256.423C447.259 259.931 448.443 264.021 448.558 268.573C448.587 270.352 448.601 272.371 448.587 274.579C448.544 285.017 447.995 299.562 447.562 309.932C447.404 314.005 447.216 317.872 447.057 321.294C446.942 323.964 446.812 326.377 446.711 328.413L446.292 336.558L443.262 336.49C440.621 336.421 431.184 336.233 420.737 336.473C419.9 336.49 419.077 336.507 418.284 336.524L416.797 336.558Z" fill="black"/>
<path d="M355.628 394.363L353.593 392.549C356.248 388.356 358.73 384.249 360.981 380.297C363.29 376.292 365.469 372.185 367.504 368.113C381.472 340.049 387.186 313.423 387.186 276.222H389.726C389.726 314.022 383.925 341.093 369.712 369.636C367.648 373.777 365.426 377.935 363.088 381.973C360.823 385.995 358.312 390.153 355.628 394.363Z" fill="black"/>
<path d="M330.044 389.092L328.933 388.407H327.648V388.014L355.758 325.47C355.585 323.091 354.791 311.609 354.142 299.305C353.42 285.376 353.161 275.417 353.319 269.736L353.334 269.548L355.888 269.565C355.888 269.685 355.888 269.805 355.874 269.941C355.7 275.537 355.989 285.359 356.696 299.134C357.403 312.841 358.327 325.538 358.327 325.658L358.356 326.103L330.044 389.092Z" fill="black"/>
<path d="M417.216 366.127L416.826 365.973C405.138 361.061 391.92 355.774 390.391 355.705L390.405 352.677C392.714 352.677 412.411 360.907 417.317 362.978L459.568 349.049L467.606 333.528L493.681 326.239L494.272 329.182L469.222 336.181L461.228 351.65L417.216 366.127Z" fill="black"/>
<path d="M463.018 346.293C462.888 346.259 450.176 343.435 446.395 342.682C442.383 341.895 441.792 337.172 442.037 334.776L444.577 335.136C444.533 335.546 444.259 339.208 446.813 339.705C450.637 340.44 463.365 343.281 463.494 343.315L463.018 346.293Z" fill="black"/>
<path d="M418.528 364.571L415.989 364.519C416.046 359.745 417.013 343.745 419.495 334.488L419.596 334.18L421.212 335.138L420.736 334.864L421.963 335.275L421.92 335.412C419.524 344.327 418.601 359.916 418.528 364.571Z" fill="black"/>
<path d="M361.156 271.79C358.761 271.79 356.495 271.619 354.446 271.294C352.541 270.986 350.81 270.558 349.266 270.01L348.602 269.771L348.414 268.966C347.332 264.466 346.625 258.631 346.264 251.581C346.077 248.261 345.976 244.548 345.961 240.561C345.961 239.483 345.961 238.422 345.976 237.361C346.033 230.311 346.337 222.525 346.87 214.756C338.746 219 335.86 219.273 331.993 219.633C330.593 219.77 329.02 219.907 327.015 220.266C318.616 221.806 297.751 186.419 293.653 179.317L293.277 178.667L293.494 177.948C293.725 177.178 294.042 176.391 294.432 175.621C297.101 170.111 303.191 164.926 308.299 163.814C309.655 163.489 310.969 163.471 312.152 163.762L312.527 163.865L330.911 185.426C331.113 185.169 331.329 184.896 331.546 184.622C337.707 176.887 349.179 162.445 368.746 159.279C370.362 159.022 371.993 158.834 373.595 158.731C377.289 158.509 381.199 159.039 385.225 160.306C387.664 161.076 390.132 162.12 392.57 163.369C396.567 165.422 400.709 168.16 404.908 171.497C416.668 180.891 426.178 193.058 430.031 198.842C433.826 198.106 443.883 198.277 445.11 198.294C448.804 198.294 455.846 201.7 455.846 214.653C455.846 215.731 455.817 216.724 455.745 217.665L455.702 218.315L455.254 218.726C443.133 229.866 430.002 229.9 424.143 228.155C417.78 226.272 412.513 223.688 405.413 216.484C405.456 217.665 405.572 219.273 405.788 221.258C406.019 223.415 406.466 226.717 407.246 230.311C408.241 234.88 409.468 238.353 410.81 240.39L411.315 241.16L410.94 242.015C401.676 263.388 378.01 271.79 361.156 271.79ZM350.666 267.358C351.906 267.752 353.292 268.077 354.778 268.299C370.406 270.78 397.982 263.918 408.313 241.468C406.943 239.072 405.774 235.581 404.792 231.098C403.97 227.35 403.508 223.911 403.263 221.686C403.09 220.043 402.527 214.551 403.09 212.805L403.768 210.717L405.139 212.206C412.945 220.608 418.054 223.278 424.764 225.263C431.676 227.316 443.465 225.502 453.263 216.758C453.306 216.108 453.321 215.423 453.321 214.687C453.321 201.528 445.427 201.34 445.096 201.34C440.146 201.255 431.661 201.34 429.886 201.99L429.035 202.316L428.487 201.477C425.096 196.172 415.5 183.646 403.465 174.03C399.41 170.795 395.399 168.16 391.546 166.175C389.208 164.96 386.856 163.985 384.547 163.249C380.781 162.068 377.13 161.572 373.71 161.777C372.166 161.88 370.608 162.051 369.078 162.291C350.391 165.337 339.742 178.718 333.378 186.727C332.83 187.411 332.311 188.078 331.834 188.66L330.94 189.755L311.272 166.671C310.507 166.552 309.655 166.569 308.746 166.791C304.374 167.749 298.934 172.387 296.625 177.161C296.423 177.537 296.264 177.897 296.12 178.273C305.341 194.136 321.445 218.281 326.611 217.271C328.717 216.895 330.348 216.741 331.777 216.604C335.745 216.245 338.4 215.988 347.13 211.299C347.881 201.614 348.963 192.664 350.016 187.24L352.498 187.924C351.43 193.383 350.362 202.555 349.598 212.446C348.948 221.002 348.573 229.626 348.53 237.395C348.515 238.456 348.515 239.5 348.515 240.544C348.53 244.462 348.631 248.107 348.804 251.393C349.121 257.827 349.742 263.166 350.666 267.358Z" fill="black"/>
<path d="M403.29 214.259C402.829 213.558 391.847 196.959 390.794 187.548L393.319 187.154C394.272 195.744 405.166 212.223 405.282 212.394L403.29 214.259Z" fill="black"/>
<path d="M349.337 253.05C348.731 253.05 348.139 253.033 347.548 253.016C347.461 253.016 347.36 253.016 347.274 253.016L347.216 250.004H347.375L347.461 249.987L347.533 250.004C369.481 250.74 397.331 237.153 405.196 229.538L406.812 231.882C399.222 239.275 372.425 253.05 349.337 253.05Z" fill="black"/>
<path d="M347.245 242.082L347.216 239.054C354.662 238.968 396.667 226.134 403.796 220.23L405.253 222.712C397.779 228.923 355.311 241.997 347.245 242.082Z" fill="black"/>
<path d="M230.318 183.817C229.553 183.817 228.875 182.208 224.82 172.745C222.193 166.602 218.716 158.406 215.224 150.209C208.283 133.816 201.357 117.423 201.357 117.423L201.039 116.687L201.385 116.002C204.156 110.287 210.015 110.749 212.727 111.776L213.276 111.981L239.062 178.153L236.753 179.419L211.443 114.479C210.029 114.086 206.104 113.384 203.968 116.824C214.675 142.218 230.621 179.796 231.443 181.37L230.39 182.174L230.837 183.663C230.635 183.748 230.476 183.817 230.318 183.817Z" fill="black"/>
<path d="M268.369 169.682L261.27 139.445L267.186 126.987L266.392 110.372L267.042 109.91C271.573 106.658 276.161 113.195 276.349 113.469L276.681 113.965L276.637 114.581C276.551 115.642 277.186 124.489 277.676 130.427L277.705 130.94L271.212 143.244L276.883 163.59L274.459 164.531L268.398 142.833L275.079 130.204C274.834 127.227 274.098 117.969 274.069 115.009C273.275 113.999 271.053 111.501 269.018 112.151L269.754 127.706L263.997 139.856L270.808 168.894L268.369 169.682Z" fill="black"/>
<path d="M307.245 165.404C307.1 162.889 306.22 156.78 301.098 154.589C295.831 152.313 284.33 156.146 282.411 159.945L280.217 158.388C282.959 152.981 295.758 149.079 301.963 151.766C308.673 154.658 309.655 162.803 309.784 165.233L307.245 165.404Z" fill="black"/>
<path d="M362.282 151.646C361.878 151.646 361.474 151.629 361.113 151.612L360.363 151.578L360.031 150.791C356.972 143.604 356.828 135.082 359.627 127.416C362.051 120.759 366.38 115.643 370.911 114.068C375.428 112.511 382.354 112.272 388.343 116.276C392.831 119.27 396.02 124.182 397.593 130.479L403.653 132.806L402.268 134.534C400.45 136.827 398.04 139 395.111 141.02C394.317 141.567 393.48 142.098 392.629 142.611C383.292 148.19 371.633 151.133 364.202 151.578C363.523 151.629 362.874 151.646 362.282 151.646ZM361.979 148.617C362.614 148.617 363.336 148.6 364.101 148.566C371.243 148.155 382.484 145.315 391.489 139.925C392.297 139.428 393.09 138.915 393.841 138.402C395.818 137.05 397.52 135.629 398.92 134.158L395.486 132.84L395.313 132.053C393.971 126.098 391.2 121.666 387.088 118.928C381.777 115.369 375.601 115.591 371.604 116.96C367.838 118.278 364.043 122.864 361.936 128.614C360.536 132.498 358.689 140.198 361.979 148.617Z" fill="black"/>
<path d="M393.333 164.787H390.779V160.611L391.573 160.235C394.445 158.849 397.287 153.561 396.912 150.31C396.739 148.753 395.916 147.213 395.123 145.724C394.098 143.807 393.045 141.822 393.218 139.547L395.743 139.82C395.657 141.052 396.436 142.524 397.273 144.098C398.167 145.775 399.178 147.675 399.437 149.899C399.928 154.177 396.941 160.218 393.333 162.545V164.787Z" fill="black"/>
<path d="M368.241 162.084C365.961 160.39 363.176 156.933 362.888 150.157L364.158 150.054L365.442 150.071C365.673 155.496 367.823 158.217 369.598 159.517L368.241 162.084Z" fill="black"/>
<path d="M385.31 163.214L384.473 160.374C391.183 157.55 390.952 152.314 390.721 146.77C390.62 144.716 390.548 142.783 390.822 141.003L392.034 141.26H393.333L393.319 141.534C393.102 143.005 393.174 144.768 393.247 146.633C393.492 152.434 393.809 159.655 385.31 163.214Z" fill="black"/>
<path d="M535.831 41.3578C534.821 41.3578 533.839 41.2893 532.916 41.1524L530.939 40.8615L534.316 34.4617C532.122 28.4383 531.92 22.2609 533.738 16.5455C536.177 8.91356 541.632 3.81421 545.917 1.58966C550.261 -0.652006 556.336 -0.0188617 561.805 3.2324C568.096 6.99702 572.598 13.6536 574.128 21.4908L574.301 22.3464L573.753 22.9453C573.363 23.3731 572.93 23.818 572.44 24.263C568.731 27.8393 563.19 31.7066 557.303 34.8552C551.935 37.7129 546.61 39.715 541.891 40.6733C539.741 41.1182 537.707 41.3578 535.831 41.3578ZM535.282 38.329C537.158 38.3803 539.222 38.1749 541.458 37.7129C545.961 36.7889 551.083 34.8552 556.264 32.1173C561.877 29.1227 567.331 25.3068 570.852 21.9015C571.069 21.7133 571.256 21.5079 571.458 21.3368C569.424 12.3702 563.854 7.86973 560.65 5.9532C555.917 3.12973 550.535 2.5137 546.927 4.3789C543.118 6.34677 538.269 10.8643 536.105 17.6406C534.431 22.8769 534.705 28.3698 536.884 33.9654L537.187 34.7012L535.282 38.329Z" fill="black"/>
<path d="M557.503 58.556L556.407 54.9797C554.819 55.6984 552.958 55.801 550.981 55.2706C547.922 54.4492 545.151 52.1904 543.737 49.3841C543.131 48.2033 542.843 46.7488 542.525 45.1916C542.135 43.3093 541.731 41.3586 540.793 40.2634L542.583 38.1073C544.026 39.8014 544.545 42.2997 544.993 44.49C545.267 45.8077 545.512 47.0397 545.916 47.844C546.97 49.9659 549.12 51.6771 551.529 52.3102C553.434 52.8236 555.166 52.5669 556.392 51.6086L557.749 50.5306L559.899 57.5122L557.503 58.556Z" fill="black"/>
<path d="M545.065 402.661L543.204 400.608L554.3 386.354L531.299 361.593L533.016 359.385L534.17 360.617L557.922 386.166L545.065 402.661Z" fill="black"/>
<path d="M695.873 380.123L678.283 363.525L651.313 379.559L650.173 376.855L678.6 359.949L695.945 376.325L727.749 348.484L729.279 350.913L695.873 380.123Z" fill="black"/>
<path d="M261.934 388.8L243.493 374.477L271.083 363.423L273.478 331.783L276.003 332.057L273.464 365.665L249.265 375.35L263.334 386.267L261.934 388.8Z" fill="black"/>
<path d="M212.383 464.349L189.612 445.731L185.456 426.84L199.511 401.668L185.442 378.516L194.937 338.303L196.163 339.004L197.303 339.398L188.227 377.934L202.614 401.6L188.212 427.387L191.834 443.883L213.84 461.868L212.383 464.349Z" fill="black"/>
<path d="M320.866 426.89L311.559 420.952L318.153 391.502L320.606 392.255L314.531 419.429L322.078 424.238L320.866 426.89Z" fill="black"/>
<path d="M624.256 117.507L622.77 115.06C622.77 115.06 624.112 113.605 624.905 108.369C625.656 103.338 618.34 71.5953 596.464 57.9229L597.647 55.2534C619.595 68.9601 628.6 101.182 627.431 108.899C626.449 115.35 624.617 117.216 624.256 117.507Z" fill="black"/>
<path d="M569.293 46.3893L568.759 46.3722C567.172 46.3037 559.163 45.8759 556.955 43.9423L555.599 42.7444L556.941 41.5295C557.835 40.7081 558.311 39.5958 558.239 38.4322C558.182 37.029 557.402 35.7114 556.133 34.7874L557.46 32.2035C559.466 33.658 560.678 35.8654 560.793 38.2611C560.851 39.6472 560.534 40.9819 559.899 42.1455C561.962 42.7615 565.599 43.1722 568.34 43.3262L571.717 39.6643C571.948 38.1413 572.583 32.3062 570.433 23.4935L572.886 22.655C575.599 33.8462 574.184 40.5712 574.112 40.845L574.011 41.2728L569.293 46.3893Z" fill="black"/>
<path d="M570.26 43.002L572.353 41.2737L576.177 47.8618L574.084 49.573L570.26 43.002Z" fill="black"/>
<path d="M499.019 152.879C493.637 149.884 486.162 138.881 487.187 129.196L489.712 129.573C488.861 137.53 495.441 147.557 500.102 150.158L499.019 152.879Z" fill="black"/>
<path d="M507.461 148.892C502.743 145.384 495.037 135.921 494.489 125.431L497.043 125.243C497.548 134.963 505.196 143.656 508.818 146.342L507.461 148.892Z" fill="black"/>
<path d="M463.347 161.261C461.587 161.261 459.812 160.56 458.961 159.037C458.398 158.027 458.066 156.47 458.961 154.211C456.71 154.177 455.483 152.911 455.05 151.473C454.56 149.796 455.05 147.486 457.042 145.518C456.291 145.159 455.57 144.611 455.021 143.841C454.329 142.849 454.026 141.6 454.184 140.231C454.314 139.17 454.935 138.246 456.06 137.493C460.923 134.156 475.959 133.009 480.057 134.994L479.091 137.801C474.949 135.782 457.777 138.006 456.695 140.71C456.637 141.172 456.724 141.565 456.969 141.908C457.691 142.917 459.61 143.311 460.433 143.362L466.003 143.602L460.894 146.254C458.008 147.743 457.229 149.728 457.446 150.447C457.619 151.011 458.802 151.61 461.255 150.789L465.281 149.437L462.568 153.236C460.995 155.426 460.764 156.812 461.067 157.377C461.558 158.232 463.463 158.523 464.935 157.976C468.355 156.709 474.661 155.991 478.239 157C480.966 157.77 484.877 154.81 487.143 151.644L487.33 151.353L489.365 153.167L489.134 153.527C486.334 157.428 481.587 161.056 477.633 159.944C474.603 159.071 468.73 159.721 465.685 160.868C464.978 161.124 464.17 161.261 463.347 161.261Z" fill="black"/>
<path d="M462.18 153.597L461.026 150.91C465.326 148.326 472.83 148.6 473.147 148.617L473.046 151.646C472.974 151.629 465.874 151.372 462.18 153.597Z" fill="black"/>
<path d="M460.607 146.359L460.16 143.382C464.778 142.389 470.16 141.568 471.906 141.568V144.597C470.492 144.597 465.355 145.35 460.607 146.359Z" fill="black"/>
<path d="M456.551 216.449C455.815 216.449 455.079 216.346 454.329 216.158L454.863 213.197C458.384 214.104 461.573 211.931 464.387 210.014C465.888 209.005 467.287 208.047 468.644 207.619C470.808 206.934 472.468 207.499 473.665 207.91C474.82 208.303 474.921 208.252 475.065 208.064C475.224 207.841 475.094 207.465 475.051 207.311C474.546 206.079 472.107 204.059 466.234 204.436L465.902 201.441C468.254 200.86 475.209 197.968 476.479 196.376C475.7 195.213 473.434 194.665 464.849 197.18L464.719 197.317L464.199 197.334V195.812L463.362 194.682L463.593 194.425L463.896 194.34C473.608 191.448 477.258 191.688 478.903 195.281C479.048 195.658 479.134 196.017 479.134 196.376C479.134 198.567 475.859 200.586 472.626 202.057C475.873 203.153 477.013 205.172 477.331 205.993C477.908 207.431 477.749 208.988 476.941 210.049C475.686 211.709 474.17 211.195 472.944 210.784C471.89 210.408 470.779 210.032 469.293 210.511C468.254 210.819 466.984 211.691 465.642 212.598C463.103 214.378 460.058 216.449 456.551 216.449Z" fill="black"/>
<path d="M443.838 200.056C443.304 195.709 444.329 191.038 446.465 188.18C447.604 186.64 448.975 185.87 450.303 185.836C451.183 185.87 451.948 186.315 452.525 187.119C453.376 188.351 453.564 190.336 453.55 192.013C456.768 190.011 459.783 188.488 462.496 187.461C467.936 185.442 471.89 185.733 473.03 188.231C473.218 188.659 473.391 189.344 473.146 190.233C472.352 192.954 467.013 196.034 464.747 197.232L463.708 194.477C466.883 192.783 469.899 190.593 470.606 189.515C470 189.155 467.922 188.625 463.275 190.353C460.115 191.517 456.566 193.433 452.684 196.017L450.317 197.626L450.808 194.443C451.053 192.783 451.154 189.925 450.548 189.019C450.476 188.916 450.418 188.882 450.26 188.882C449.682 188.83 449.019 189.327 448.384 190.182C447.027 191.996 445.873 195.624 446.364 199.628L443.838 200.056Z" fill="black"/>
<path d="M454.561 281.15L453.911 280.688C451.083 278.617 447.649 276.239 446.999 276.016L446.696 275.896L446.408 275.606L447.274 274.596V273.039L447.577 273.193L447.605 273.09C448.644 273.381 452.439 276.085 454.59 277.642L462.742 271.978L473.363 276.598L484.142 253.018L494.474 251.461L509.294 225.656L530.059 227.453L529.871 230.464L510.578 228.822L495.946 254.318L485.773 255.858L474.561 280.38L463.017 275.349L454.561 281.15Z" fill="black"/>
<path d="M651.342 166.808L650.188 164.122L671.659 151.117L670.721 133.269L673.276 133.098L674.3 152.913L651.342 166.808Z" fill="black"/>
<path d="M660.607 158.97L663.118 158.525L666.105 181.763L663.58 182.225L660.607 158.97Z" fill="black"/>
<path d="M445.802 322.68H419.669L419.641 319.668H445.788L445.802 322.68Z" fill="black"/>
<path d="M420.822 308.307H446.291V311.352H420.822V308.307Z" fill="black"/>
<path d="M337.187 370.302L338.182 367.513L362.54 379.782L361.544 382.571L337.187 370.302Z" fill="black"/>
<path d="M342.208 359.316L343.059 356.476L369.048 367.461L368.196 370.302L342.208 359.316Z" fill="black"/>
<path d="M164.419 476.061L199.86 460.9L211.986 455.711L233.504 446.502L233.519 446.503L238.729 434.558L203.133 419.653L184.911 370.377L205.685 269.55L205.718 269.537C207.076 268.944 250.365 250.114 259.091 249.209L240.642 185.051L207.601 200.134L199.321 218.743L206.384 227.377L161.423 238.864C154.048 252.337 144.332 269.541 142.742 269.373C142.742 269.373 149.515 285.386 148.181 286.503C147.646 286.951 150.008 290.571 153.062 294.785C157.72 301.18 163.948 308.951 163.948 308.951L135.823 321.251C135.823 321.251 135.711 350.069 135.932 351.351C136.168 352.667 140.049 362.389 140.049 362.389L135.969 378.073L148.205 389.112L146.639 394.832L137.607 427.842L148.078 454.827L137.466 471.045C151.558 473.496 164.419 476.061 164.419 476.061Z" fill="#3B3A3A"/>
<path d="M91.8662 453.673C98.5342 454.817 104.459 456.331 109.006 458.237C109.295 460.213 109.428 462.427 109.409 464.803C116.39 465.276 128.316 467.143 139.463 469.061L150.074 452.844L139.604 425.859L148.636 392.848L136.265 362.425L104.485 359.058L87.388 377.338L89.878 419.317L76.2893 431.445L77.4648 451.742L77.4626 451.759C78.5557 451.858 79.6312 451.972 80.7221 452.088C84.5771 452.529 88.3329 453.049 91.8662 453.673Z" fill="#3B3A3A"/>
<path d="M29.0516 378.47C29.0516 378.47 67.7553 414.132 64.8745 424.345C62.015 434.556 63.8613 435.738 54.5493 451.444C62.7685 451.522 71.7951 451.924 80.4459 452.757L80.4481 452.741L79.2726 432.443L92.8613 420.316L89.6778 390.306L89.1525 376.246L105.737 359.775L121.942 364.024L145.049 361.373C145.049 361.373 141.168 351.651 140.932 350.335C140.713 349.037 140.823 320.235 140.823 320.235L166.998 307.5L146.998 271.5L165 246L46.134 291.706L43.9879 295.823L39.1473 305.12L37.9697 329.131L23.9398 345.036L17.5217 352.309L11.5455 359.086C12.7607 363.122 15.144 369.315 15.144 369.315C15.144 369.315 24.8621 373.415 26.7776 379.282L26.7908 379.3C27.5475 378.948 28.3116 378.657 29.0516 378.47Z" fill="#3B3A3A"/>
<path d="M149.842 454.981L139.255 427.695L149.96 388.511L137.71 377.454L141.685 362.207L141.489 361.682C139.629 357.046 137.614 351.767 137.456 350.958C137.316 349.735 137.327 333.57 137.373 322.307L166.538 309.563L165.156 307.837C165.087 307.763 158.903 300.014 154.31 293.725C151.07 289.259 150.071 287.474 149.769 286.804C150.174 285.29 149.533 281.331 144.171 268.637L141.305 270.091C143.914 276.236 146.63 283.69 146.775 285.7C145.911 286.933 146.81 288.957 151.786 295.824C155.099 300.365 159.242 305.653 161.349 308.326L134.246 320.164L134.24 321.305C134.217 328.091 134.136 350.373 134.371 351.706C134.604 353.005 137.269 359.794 138.387 362.562L134.178 378.703L146.398 389.746L135.938 428.031L146.293 454.705L135.942 470.534L138.493 472.345L149.842 454.981Z" fill="black"/>
<path d="M140.164 363.025L139.955 359.733L117.12 362.346L100.334 357.952L82.5632 375.611L83.1261 390.446L86.211 419.669L72.6575 431.767L73.8796 452.929L77.0038 452.589L75.8881 433.135L89.5282 420.974L86.2415 390.055L85.7591 376.886L101.142 361.596L116.768 365.695L140.164 363.025Z" fill="black"/>
<path d="M121.866 430.282L121.106 427.098L97.5761 434.332L89.2009 420.398L86.5385 422.245L96.1119 438.189L121.866 430.282Z" fill="black"/>
<path d="M110.08 431.638L107.468 433.573L119.318 452.053L121.934 450.124L110.08 431.638Z" fill="black"/>
<path d="M234.025 447.032L233.501 445.519L233.722 443.863L233.32 443.82L164.318 473.344C161.914 472.868 150.268 470.581 137.761 468.419C123.589 465.976 113.422 464.544 107.567 464.146L107.365 464.141L106.941 467.433C107.065 467.446 107.188 467.459 107.334 467.458C113.106 467.853 123.133 469.281 137.152 471.691C151.077 474.103 163.952 476.675 164.076 476.688L164.524 476.769L234.025 447.032Z" fill="black"/>
</svg>
