<svg width="238" height="147" viewBox="0 0 238 147" fill="none" xmlns="http://www.w3.org/2000/svg">
<path d="M178.042 6.09873L178.359 6.67165L178.802 6.18727C180.12 4.73936 182.969 3.8279 186.667 6.00498L189.443 7.63519L187.25 5.27061L187.12 5.12998C186.224 4.1404 183.859 1.54665 178.984 3.48415C177.974 2.34873 175.641 -0.203353 170.422 1.86956L167.703 2.94769L170.62 2.77581C175.646 2.48415 176.781 3.83311 178.042 6.09873Z" fill="black"/>
<mask id="mask0_5558_5495" style="mask-type:luminance" maskUnits="userSpaceOnUse" x="0" y="0" width="238" height="147">
<path d="M0.239746 0.333008H237.333V146.692H0.239746V0.333008Z" fill="white"/>
</mask>
<g mask="url(#mask0_5558_5495)">
<path d="M228.917 56.1663L227.172 54.9216L228.235 56.7861C230.719 61.1351 230.573 65.6351 227.823 69.432C224.021 74.682 216.021 77.6038 209.167 76.2653C207.932 74.8486 205.865 73.5361 203.167 72.4476C203.167 72.4007 203.167 72.3538 203.167 72.3018C203.167 63.0413 201.182 54.1455 197.276 45.833H218.318V44.8903H196.823C196.063 43.333 195.219 41.7757 194.292 40.2445H206.432V39.3018H193.719C182.245 20.9528 162.511 10.0101 140.88 10.0101C137.557 10.0101 134.24 10.2705 131.016 10.7861C130.401 10.7445 129.745 10.734 129.052 10.7653C129.037 10.734 129.026 10.7028 129.016 10.6715C128.182 8.59342 126.25 3.72363 117.755 3.98926L114.828 4.08301L117.641 4.91113C123.714 6.7028 125.485 8.71842 126.328 11.7288C113.896 14.7028 102.818 21.3486 94.271 30.9788L90.8231 32.2861L92.1512 31.1299L89.4585 32.6091L92.3856 25.4163L101.703 17.2393L101.083 16.5309L91.5939 24.8486L88.146 33.3278L78.9064 38.4111L70.1252 39.7132L59.0262 47.2445L60.7189 44.0466L69.1616 33.708L69.7397 28.3851L78.2397 19.8799L88.2866 15.1403L87.8856 14.2861L79.0418 18.458L83.3647 10.3018L95.37 4.87988L94.9793 4.02051L82.6772 9.5778L77.5991 19.1768L68.6043 25.7913V17.5882L73.3179 8.72363L72.4845 8.28092L67.6616 17.3538V26.4997L66.547 27.3226L66.5106 27.4893C65.8439 30.333 64.8283 34.6091 64.6564 35.208C64.2137 35.7393 60.5054 38.7966 57.8647 40.9216L55.8075 31.4632L53.297 30.307L51.5522 19.0049L55.9637 10.3174L57.4585 1.35905L56.5314 1.20801L55.0939 9.95801L50.5731 18.8486L52.271 29.8382L46.6877 27.2601L43.6772 16.5049L37.5158 10.1976L36.8439 10.859L42.8335 16.9893L45.5627 26.7393L42.87 25.4945L52.6512 33.1976L53.7606 40.9788L50.2866 49.4007L37.9012 39.9424L37.8127 39.8747L35.7502 39.4528L33.7606 35.0361L34.8335 25.9216L30.521 16.6872L29.6668 17.083L33.8647 26.0778L32.7918 35.182L34.6095 39.2132L32.2033 38.7184L23.172 30.0934L24.1356 31.6663L21.5054 30.208L21.37 30.1611C15.9741 29.0518 7.771 27.3382 7.271 27.1663L7.09912 27.557V27.1195L6.65641 27.1247L6.61475 27.5466C6.56787 28.0049 6.56787 28.0049 9.19287 28.5778C10.5262 28.8643 12.3022 29.2393 14.0783 29.6091C17.3335 30.2913 20.5939 30.9632 21.1095 31.0674L25.1356 33.2966L28.9793 39.5674L23.422 40.9893C19.9845 40.4476 16.2085 39.7445 15.7658 39.4841L15.4897 39.8643L15.2033 40.2393C15.8127 40.7132 21.12 41.583 23.37 41.9372L23.4689 41.9528L29.5002 40.4111L30.6668 42.3226L30.8647 42.3643C33.0002 42.8434 36.1772 43.5934 36.5106 43.7549C37.0679 44.1507 42.9064 50.5778 46.6616 54.7601L41.7866 59.7705L40.771 71.8226L33.6043 82.8799L33.7866 82.9997H1.91162L3.89079 88.4007L7.5262 88.9945L6.04183 95.9528L14.896 98.182L6.35433 102.302L12.6772 105.182L1.57829 112.109L10.0106 115.771L6.62516 118.427L0.239746 125.057L11.0002 128.703L13.2554 132.239H26.1981L31.3022 137.656L42.1825 138.057L42.2762 138.062L46.2762 136.567L53.3856 137.041L61.6043 132.505L70.9325 134.823L71.0522 134.849L76.7918 133.317L80.1877 137.015L85.87 137.411L91.5627 146.172L113.307 144.406L117.443 140.505L125.297 141.062L128.224 136.521L130.578 137.521L146.005 134.833L163.615 134.521L176.24 136.328L199.073 131.468L195.688 128.791L209.958 125.651L203.261 120.062L211.099 118.208L220.833 110.291L216.021 107.547L212.307 107.864L207.865 105.817C212.49 102.218 216.875 95.5778 216.474 89.5882C225.958 88.2705 234.875 81.1976 236.891 73.3174C238.479 67.0622 235.651 60.9684 228.917 56.1663ZM77.0002 49.3851L80.4012 47.7236L83.7554 47.4268C83.0887 48.958 82.4689 50.5413 81.922 52.1455L77.0002 49.3851ZM75.9689 49.8851L81.6252 53.057C79.6147 59.2549 78.5887 65.7288 78.5887 72.3018C78.5887 75.8851 78.9012 79.4788 79.5054 83.0049H50.7293L50.896 82.9111L47.7866 77.3799L49.2033 62.6455L57.3439 53.7913L68.5314 53.5101L75.9689 49.8851ZM86.1147 46.2653L85.2814 46.3434C85.3022 46.3018 85.3231 46.2601 85.3439 46.2132L86.1147 46.2653ZM92.9897 32.4736C89.7293 36.3851 86.9741 40.6611 84.771 45.2236L80.3491 44.9059L73.0939 47.6611L66.4637 47.9007L71.7918 43.5153L79.2606 42.3538L88.7606 34.0778L92.9897 32.4736Z" fill="black"/>
</g>
<path d="M228.64 56.5518C246.797 69.4945 231.333 87.3434 215.958 89.1768C215.01 89.2966 214.062 89.3486 213.13 89.3382C211.974 89.3955 210.901 89.2497 209.916 88.9528C203.547 87.0309 201.245 78.6247 208.922 76.708C220.885 79.1455 235.729 68.958 228.64 56.5518Z" fill="#87AAD2"/>
<path d="M188.724 111.38L186.526 108.041C192.338 108.286 199.193 108.109 202.443 107.875C203.739 107.781 205.328 107.067 206.943 105.911L212.224 108.343L215.917 108.026L220.005 110.354L210.885 117.771L202.239 119.817L185.224 121.776L181.651 118.771L190.208 113.625L188.724 111.38Z" fill="#9C7C6A"/>
<path d="M215.969 89.276C216.594 95.5625 211.62 102.573 206.943 105.911C205.328 107.068 203.745 107.781 202.443 107.875C199.193 108.109 192.339 108.286 186.526 108.042C183.255 107.906 180.313 107.63 178.526 107.151C176.083 106.495 171.198 107.161 166.339 108.068C161.354 108.99 156.391 110.172 154.125 110.411C150.063 110.849 147.995 109.594 146.563 107.724C146.422 107.536 146.281 107.344 146.151 107.151C144.703 104.979 147 102.802 148.688 102.562C150.38 102.312 152.792 105.214 152.792 105.214C152.792 105.214 153.886 103.161 155.328 102.312C156.781 101.469 159.802 105.094 159.802 105.094C159.802 105.094 160.771 103.161 162.578 102.312C164.391 101.469 167.531 105.333 167.531 105.333C167.531 105.333 169.099 102.672 171.276 101.828C173.453 100.984 175.505 104.609 175.505 104.609C175.505 104.609 175.63 102.917 175.87 102.073C176.115 101.229 178.886 102.917 181.188 104.005C183.479 105.094 184.089 103.406 185.776 100.745C186.74 99.2344 186.964 97.9167 186.458 97.0417L186.865 97.0104C190.37 98.2083 192.417 93.8698 195.797 92.2344C199.188 90.6042 201.99 90.0052 204.089 92.2344C206.188 94.4635 209.787 90.4427 209.922 88.9531C210.906 89.25 211.984 89.3906 213.136 89.3385C214.068 89.349 215.016 89.2969 215.958 89.1771L215.969 89.276Z" fill="#87AAD2"/>
<path d="M208.927 76.7085C201.25 78.6304 203.547 87.0366 209.922 88.9533C209.787 90.4429 206.182 94.4637 204.089 92.2345C201.985 90.0054 199.188 90.6043 195.802 92.2345C192.417 93.87 190.365 98.2085 186.865 97.0106L186.458 97.0418C186.078 96.3752 185.281 95.9637 184.089 95.9116C181.302 95.7918 179.255 99.6564 176.479 100.261C173.698 100.865 173.698 97.7241 173.698 97.7241C173.698 97.7241 171.162 100.5 168.745 101.104C166.328 101.708 166.573 98.6929 166.573 98.6929C166.573 98.6929 163.313 100.985 161.255 101.229C159.203 101.469 158.479 99.0575 158.479 99.0575C158.479 99.0575 156.063 100.745 153.406 101.349C150.75 101.948 149.781 98.0887 149.781 98.0887C149.781 98.0887 144.912 100.63 144.25 99.745C144.037 99.4585 144.182 98.5314 144.61 97.3127C144.875 96.5418 145.25 95.6564 145.714 94.745C146.818 92.5783 148.427 90.2814 150.235 89.1147C152 87.9637 153.948 87.87 156.214 87.7397C158.787 87.5835 161.771 87.3752 165.37 85.5314C166.578 84.9116 167.552 84.2398 168.37 83.5158C169.568 82.4689 170.427 81.3491 171.156 80.1981C172.172 78.6147 172.948 76.995 174.068 75.5106C175.287 73.8856 177.047 72.6772 179.146 71.8387C185.807 69.1564 195.88 70.0991 202.698 72.7658C205.448 73.8387 207.672 75.1981 208.927 76.7085ZM192.781 83.9637C193.146 80.0991 189.766 78.8908 184.443 79.495C179.88 80.0106 177.682 82.1512 177.682 85.1668C177.682 88.1825 180.094 90.0002 185.052 89.6408C190 89.2762 192.412 87.8231 192.781 83.9637ZM159.807 92.5314C160.406 90.2397 157.511 90.2398 156.063 90.3595C154.61 90.4845 152.198 92.0522 152.557 92.896C153.219 94.4377 159.203 94.8335 159.807 92.5314Z" fill="#87AAD2"/>
<path d="M208.917 125.401L194.61 128.547L197.99 131.224L176.224 135.854L163.641 134.047L160.615 128.506L169.912 121.782H185.219L202.235 119.823L208.917 125.401Z" fill="#9C7C6A"/>
<path d="M184.443 79.4944C189.765 78.8902 193.146 80.0933 192.781 83.9631C192.411 87.8225 190 89.2808 185.052 89.6402C180.094 90.0048 177.682 88.1871 177.682 85.1662C177.682 82.1454 179.88 80.01 184.443 79.4944Z" fill="black"/>
<path d="M188.724 111.38L190.203 113.625L181.646 118.771L185.219 121.781H169.912L163.188 117.776L160.755 114.578L168.766 112.192L188.724 111.38Z" fill="#9C7C6A"/>
<path d="M186.521 108.041L188.719 111.38L168.765 112.192L166.338 108.072V108.067C171.198 107.161 176.078 106.494 178.526 107.151C180.312 107.635 183.25 107.906 186.521 108.041Z" fill="#9C7C6A"/>
<path d="M186.453 97.0469C186.953 97.9219 186.735 99.2344 185.771 100.75C184.083 103.411 183.479 105.099 181.182 104.01C178.886 102.922 176.11 101.234 175.865 102.078C175.625 102.922 175.5 104.615 175.5 104.615C175.5 104.615 173.443 100.99 171.271 101.833C169.099 102.677 167.526 105.339 167.526 105.339C167.526 105.339 164.386 101.474 162.573 102.318C160.766 103.167 159.797 105.099 159.797 105.099C159.797 105.099 156.781 101.474 155.323 102.318C153.88 103.167 152.787 105.219 152.787 105.219C152.787 105.219 150.375 102.318 148.682 102.563C146.995 102.807 144.698 104.979 146.146 107.156C146.276 107.354 146.417 107.547 146.557 107.729L138.583 106.901L124.115 101.323L131.698 97.3229H144.594C144.172 98.5417 144.026 99.4688 144.235 99.7552C144.901 100.641 149.766 98.099 149.766 98.099C149.766 98.099 150.735 101.958 153.391 101.354C156.052 100.755 158.464 99.0677 158.464 99.0677C158.464 99.0677 159.188 101.479 161.245 101.24C163.302 100.995 166.557 98.7032 166.557 98.7032C166.557 98.7032 166.318 101.719 168.729 101.115C171.146 100.51 173.682 97.7344 173.682 97.7344C173.682 97.7344 173.682 100.87 176.464 100.271C179.24 99.6667 181.292 95.7969 184.073 95.9219C185.281 95.9688 186.078 96.3802 186.453 97.0469Z" fill="#9C7C6A"/>
<path d="M178.859 4.04714C183.875 1.8961 186.042 4.66172 186.906 5.58881C182.995 3.29193 179.927 4.24505 178.448 5.86485C177.021 3.30755 175.615 2.01589 170.594 2.30755C175.922 0.192971 178 3.12006 178.859 4.04714Z" fill="black"/>
<path d="M179.136 71.8337C177.037 72.6774 175.276 73.8857 174.057 75.5107C172.943 76.9951 172.162 78.6149 171.146 80.1982C165.052 75.7191 163.662 54.1982 185.323 52.1514C174.906 54.3441 171.25 69.0368 179.136 71.8337Z" fill="#87AAD2"/>
<path d="M169.911 121.782L160.615 128.506L163.641 134.047L145.958 134.365L147.161 131.771L140.438 130.365L144.734 120.209L163.188 117.776L169.911 121.782Z" fill="#9C7C6A"/>
<path d="M166.339 108.073L168.766 112.193L160.755 114.578L163.188 117.771L144.735 120.203L138.594 116.912L140.297 113.625L131.708 112.193L138.594 106.901L146.568 107.724C148 109.594 150.068 110.849 154.13 110.412C156.391 110.167 161.354 108.99 166.344 108.068V108.073H166.339Z" fill="#9C7C6A"/>
<path d="M168.328 83.4795L168.365 83.516C167.547 84.2347 166.568 84.9066 165.365 85.5316C161.766 87.3805 158.781 87.5889 156.208 87.7399L149.406 86.0055L153.635 83.4795H168.328Z" fill="#9C7C6A"/>
<path d="M166.526 24.3961C160.604 24.3544 157.766 27.4326 157.167 30.2294C153.88 28.2815 151.453 27.7347 145.974 31.3544C150.599 25.4899 154.849 27.4326 156.432 27.9169C160.688 22.2034 164.948 23.9065 166.526 24.3961Z" fill="black"/>
<path d="M156.063 90.3598C157.511 90.24 160.412 90.24 159.813 92.5316C159.208 94.8285 153.224 94.4379 152.568 92.8962C152.198 92.0525 154.61 90.4848 156.063 90.3598Z" fill="black"/>
<path d="M149.401 86.0055L156.203 87.7399C153.938 87.8753 151.99 87.9691 150.224 89.1149L139.865 89.2347L135.438 88.5732L131.703 83.4795H153.63L149.401 86.0055Z" fill="#9C7C6A"/>
<path d="M139.87 89.234L150.229 89.1143C148.422 90.2861 146.812 92.5778 145.708 94.7445L135.859 92.6559L139.87 89.234Z" fill="#9C7C6A"/>
<path d="M147.162 131.771L145.958 134.365L130.63 137.037L128.037 135.938L122.552 130.078L112.537 128.506L122.839 118.063L138.594 116.917L144.735 120.209L140.438 130.365L147.162 131.771Z" fill="#9C7C6A"/>
<path d="M135.443 88.5729L139.87 89.2344L135.859 92.6615L145.708 94.75C145.25 95.6615 144.87 96.5469 144.604 97.3177H131.708L117.969 93.401L113.963 89.8281L117.245 89.4948L131.708 88.0156L135.443 88.5729Z" fill="#9C7C6A"/>
<path d="M140.297 113.625L138.594 116.916L122.838 118.062L119.687 116.057L102.885 116.916L110.542 107.812H110.547L113.963 103.75L122.125 103.036L124.125 101.317L138.594 106.901L131.708 112.192L140.297 113.625Z" fill="#9C7C6A"/>
<path d="M131.037 11.2657C137.401 11.7396 138.839 16.0365 139.516 17.6459C135.083 12.3021 130.188 12.0886 127.224 13.6563C127.125 13.1042 127.026 12.573 126.906 12.0782C126.057 8.59381 124.219 6.37506 117.771 4.46881C126.521 4.18756 127.985 9.47402 128.74 11.2553C129.568 11.2084 130.333 11.2136 131.037 11.2657Z" fill="black"/>
<path d="M131.708 83.4795L135.443 88.5732L131.708 88.016L117.245 89.4951C117.432 89.4743 122.12 83.4795 122.12 83.4795H131.708Z" fill="#9C7C6A"/>
<path d="M131.708 97.3174L124.125 101.317L122.125 103.036L113.964 103.75L112.537 101.427L116.401 98.7445L112.537 97.3174L117.974 93.3955L131.708 97.3174Z" fill="#9C7C6A"/>
<mask id="mask1_5558_5495" style="mask-type:luminance" maskUnits="userSpaceOnUse" x="85" y="128" width="45" height="19">
<path d="M85.3335 128.333H129.333V146.692H85.3335V128.333Z" fill="white"/>
</mask>
<g mask="url(#mask1_5558_5495)">
<path d="M122.552 130.078L128.036 135.937L125.052 140.578L117.271 140.026L113.099 143.953L91.8021 145.687L86.1406 136.958C86.1406 136.958 98.6563 128.505 99.2344 128.505C99.8021 128.505 112.536 128.505 112.536 128.505L122.552 130.078Z" fill="#9C7C6A"/>
</g>
<path d="M122.839 118.062L112.536 128.505C112.536 128.505 99.8021 128.505 99.2344 128.505L93.1823 127.5L90.25 124.208H80.625L77.625 119.494L83.9219 113.771L93.1823 114.583L97.0104 116.916H102.88L119.682 116.057L122.839 118.062Z" fill="#9C7C6A"/>
<path d="M96.3696 83.4795H122.12C122.12 83.4795 117.432 89.4743 117.245 89.4951L113.963 89.8285L99.6613 90.9639V86.542H93.1821L96.3696 83.4795Z" fill="#9C7C6A"/>
<path d="M117.974 93.3958L112.536 97.3177L92.3594 98.7448L87.7812 94.9531L93.9375 90.7604L99.6615 90.9583L113.964 89.8281L117.974 93.3958Z" fill="#9C7C6A"/>
<path d="M116.401 98.7445L112.536 101.427L113.964 103.75L110.547 107.812H110.542L102.234 108.901L100.089 105.896H96.3698L87.7812 102.104L92.3594 98.7445L112.536 97.3174L116.401 98.7445Z" fill="#9C7C6A"/>
<path d="M110.542 107.812L102.885 116.916H97.0156L93.1823 114.578L83.9219 113.765L77.1875 112.244L80.6302 108.901H89.7083L96.3698 105.896H100.089L102.234 108.901L110.542 107.812Z" fill="#9C7C6A"/>
<path d="M99.6613 86.542V90.9587L93.9373 90.7607L87.7811 94.9535H74.3332L72.7603 91.5941L80.4894 90.9587L83.9217 88.7503L91.6509 88.016L93.1821 86.542H99.6613Z" fill="#9C7C6A"/>
<path d="M93.1821 127.5L99.2342 128.505C98.6561 128.505 86.1405 136.958 86.1405 136.958L80.4061 136.562L76.9478 132.786L85.3592 128.5L88.3592 124.203H90.255L93.1821 127.5Z" fill="#9C7C6A"/>
<path d="M96.3698 83.4795L93.1823 86.542L91.651 88.016L83.9219 88.7503L80.4896 90.9587L72.7604 91.5941L62.8906 87.7087L68.1823 83.4795H96.3698Z" fill="#9C7C6A"/>
<path d="M96.37 105.896L89.7085 108.901H80.6304L76.1929 106.323C76.1929 106.323 73.7606 106.323 73.547 106.323C73.3283 106.323 69.7554 104.318 69.7554 104.318L76.1877 102.104H87.7762L96.37 105.896Z" fill="#9C7C6A"/>
<path d="M92.3592 98.7448L87.7811 102.104H76.1925L68.9009 98.7448L74.3332 94.9531H87.7811L92.3592 98.7448Z" fill="#9C7C6A"/>
<path d="M88.3592 124.209L85.354 128.506L76.9425 132.792L71.0467 134.365L61.5415 132.006L66.0363 127.219L61.8853 122.922L69.7603 120.344L77.63 119.495L80.63 124.209H88.3592Z" fill="#9C7C6A"/>
<path d="M94.5366 31.3851C102.912 21.9059 114.156 15.0153 126.906 12.0778C127.026 12.5726 127.125 13.1038 127.224 13.6559C130.188 12.0882 135.089 12.307 139.516 17.6455C138.839 16.0361 137.406 11.7393 131.037 11.2653C134.235 10.7549 137.526 10.4893 140.875 10.4893C163.083 10.4893 182.557 22.1976 193.453 39.7809C193.458 39.7809 193.458 39.7861 193.458 39.7861C194.578 41.5882 195.599 43.4476 196.526 45.3643L196.531 45.3695C200.474 53.5101 202.693 62.6507 202.693 72.3018C202.693 72.458 202.693 72.6143 202.688 72.7601C195.87 70.0934 185.802 69.1507 179.136 71.833V71.8278C171.245 69.0309 174.906 54.3382 185.323 52.1455C163.667 54.1924 165.057 75.7132 171.151 80.1924C170.422 81.3434 169.563 82.4632 168.365 83.5153L168.328 83.4736H80.0627C79.4012 79.8486 79.0522 76.1143 79.0522 72.3018C79.0522 65.4945 80.1512 58.9528 82.1825 52.8278C82.8543 50.7913 83.6304 48.807 84.5002 46.8799V46.8747L85.1929 46.8122L91.9845 46.2132L85.047 45.7132C87.547 40.4945 90.745 35.682 94.5366 31.3851ZM157.167 30.2288C157.766 27.432 160.604 24.3538 166.526 24.3955C164.948 23.9059 160.688 22.2028 156.432 27.9163C154.854 27.432 150.599 25.4893 145.974 31.3538C151.453 27.734 153.88 28.2861 157.167 30.2288Z" fill="#F9CA06"/>
<path d="M83.922 113.766L77.6304 119.495L69.7606 120.344L61.8856 122.922L52.5835 119.495L61.5418 114.578L75.6252 113.766L77.1877 112.245L83.922 113.766Z" fill="#9C7C6A"/>
<path d="M77.1874 112.244L75.6249 113.765L61.5415 114.578L59.3176 112.979L52.5884 112.192C52.5884 112.192 47.0155 109.187 47.4373 108.901C47.8644 108.614 53.5936 104.317 53.5936 104.317H69.7655C69.7655 104.317 73.3384 106.323 73.5571 106.323C73.7707 106.323 76.203 106.323 76.203 106.323L80.6405 108.901L77.1874 112.244Z" fill="#9C7C6A"/>
<path d="M76.1925 102.104L69.7603 104.318H53.5884L50.8696 102.104L57.7394 98.5264L68.9009 98.7451L76.1925 102.104Z" fill="#9C7C6A"/>
<path d="M72.7603 91.5934L74.3332 94.9528L68.9009 98.7445L57.7394 98.5257L55.0155 95.5934H45.5728L50.1509 90.7601H59.1665L62.8905 87.708L72.7603 91.5934Z" fill="#9C7C6A"/>
<path d="M68.1821 83.4795L62.8905 87.7087L59.1665 90.7607H50.1509L45.5728 88.016H37.854L42.7186 83.4795H68.1821Z" fill="#9C7C6A"/>
<path d="M61.8853 122.922L66.0363 127.219L61.5415 132.006L53.2811 136.563L46.2134 136.094L42.203 137.589L31.5103 137.198L26.4009 131.771L29.5519 129.506L28.9738 127.36L35.6978 122.375L40.7134 122.922L52.5832 119.495L61.8853 122.922Z" fill="#9C7C6A"/>
<path d="M61.5417 114.578L52.5885 119.49L40.7188 122.922L35.7031 122.375L31.5625 121.927L25.1198 115.656H20.25L23.1875 110.906H29.5573L31.5625 109.453L47.4375 108.906C47.0156 109.193 52.5885 112.193 52.5885 112.193L59.3177 112.984L61.5417 114.578Z" fill="#9C7C6A"/>
<path d="M55.0158 95.5938L57.7397 98.526L50.87 102.104H44.8595L43.2866 98.526L45.5731 95.5938H55.0158Z" fill="#9C7C6A"/>
<path d="M50.87 102.104L53.5887 104.318C53.5887 104.318 47.8647 108.615 47.4377 108.901L31.5575 109.448L25.1147 105.506L28.8387 102.104L35.7085 101.427L39.0002 98.5264H43.2918L44.8647 102.104H50.87Z" fill="#9C7C6A"/>
<path d="M52.8698 30.6198L55.401 31.7917L57.5677 41.7708C57.5677 41.7708 64.9479 35.8385 65.0885 35.4062C65.2344 34.974 66.9688 27.5938 66.9688 27.5938L68.1354 26.7396L77.9635 19.5L69.2865 28.1771L68.7083 33.5312L60.3177 43.7969L57.7135 48.7135L70.2969 40.1823L79.0573 38.8802L88.5208 33.6771L79.0573 41.9167L71.599 43.0781L65.0938 48.4323L73.1927 48.1354L80.4167 45.3906L85.0573 45.7292C84.8646 46.1146 84.6875 46.5 84.5104 46.8958L80.2812 47.2708L75.9844 49.3698L68.4219 53.0625L57.1354 53.3542L48.7552 62.4635L47.3073 77.5L50.4896 83.1615V83.5H34V83.1615L41.2292 72.0052L42.2396 60L47.3021 54.7917C47.3021 54.7917 37.3281 43.6615 36.75 43.3698C36.1667 43.0833 30.9635 41.9271 30.9635 41.9271L29.7135 39.8854L25.4688 32.9583L31.974 39.1771L35.4167 39.8802V39.8854L37.6094 40.3333L50.4844 50.1667L54.2448 41.0521L53.0885 32.9583L46.2917 27.5885L52.8698 30.6198Z" fill="black"/>
<path d="M50.1512 90.7604L45.5731 95.5938L43.2866 98.526H36.2762L34.1304 94.75H25.8335L19.396 91.5938L22.5418 88.75L37.8543 88.0156H45.5731L50.1512 90.7604Z" fill="#9C7C6A"/>
<path d="M42.7189 83.4795L37.8543 88.016L22.5418 88.7503L16.0991 83.4795H42.7189Z" fill="#9C7C6A"/>
<path d="M38.9946 98.526L35.703 101.427L28.8332 102.104L25.8332 98.526H24.4009L21.6821 97.3177L25.8332 94.75H34.13L36.2759 98.526H38.9946Z" fill="#9C7C6A"/>
<mask id="mask2_5558_5495" style="mask-type:luminance" maskUnits="userSpaceOnUse" x="0" y="115" width="36" height="18">
<path d="M0.239746 115H36.0002V132.333H0.239746V115Z" fill="white"/>
</mask>
<g mask="url(#mask2_5558_5495)">
<path d="M35.6982 122.375L28.9743 127.359L29.5524 129.505L26.4014 131.771H13.516L11.3076 128.312L1.08887 124.849L6.91178 118.802L10.9222 115.656H25.1149L31.5576 121.927L35.6982 122.375Z" fill="#9C7C6A"/>
</g>
<path d="M31.5575 109.448L29.5522 110.906H23.1825L20.2502 115.656H10.922L2.5835 112.036L13.6668 105.125L19.396 104.317L25.1147 105.505L31.5575 109.448Z" fill="#9C7C6A"/>
<path d="M25.8332 98.5257L28.8332 102.104L25.1144 105.505L19.3957 104.317L13.6665 105.125L7.46338 102.297L16.2655 98.0518L21.6821 97.3174L24.4009 98.5257H25.8332Z" fill="#9C7C6A"/>
<path d="M25.8333 94.75L21.6823 97.3177L16.2656 98.0521L6.59375 95.6146L7.45312 91.5938H19.3958L25.8333 94.75Z" fill="#9C7C6A"/>
<path d="M22.5418 88.7503L19.396 91.5941H7.45329L8.0887 88.6149L4.23975 87.9899L2.5835 83.4795H16.0991L22.5418 88.7503Z" fill="#9C7C6A"/>
<path d="M170.875 80.5785C167.766 78.2972 165.578 71.6253 167.453 64.8389C168.672 60.4378 172.604 52.8805 185.281 51.6826L185.427 52.6149C179.323 53.891 175.693 59.6357 175.375 64.3857C175.151 67.818 176.615 70.4378 179.297 71.3857L178.984 72.2712C175.88 71.1722 174.177 68.1982 174.438 64.318C174.698 60.3962 177.068 55.8441 181.136 53.3285C172.349 55.5316 169.375 61.4482 168.37 65.0837C166.651 71.2868 168.568 77.7087 171.438 79.8128L170.875 80.5785Z" fill="black"/>
<path d="M149.469 44.8906H218.312V45.8385H149.469V44.8906Z" fill="black"/>
<path d="M165.073 39.3125H206.432V40.2552H165.073V39.3125Z" fill="black"/>
<path d="M50.078 83.3753L46.8175 77.5889L48.2915 62.2451L56.9165 52.8701L68.2967 52.5785L80.1405 46.7972L86.104 46.266L80.479 45.8597L73.2759 48.5941L63.703 48.943L71.3853 42.6201L78.8384 41.4639L84.8853 36.2035L79.1978 39.3285L70.4582 40.6253L56.4009 50.1618L59.9425 43.4899L68.2394 33.3337L68.8228 27.9587L73.1978 23.5837L67.38 27.8701C67.078 29.1462 65.6665 35.1357 65.5259 35.5524C65.479 35.7035 65.3384 36.1149 57.854 42.1357L57.2603 42.6149L54.979 32.1201L49.703 29.6878L53.5207 32.6878L54.7186 41.0993L50.6769 50.9014L37.4165 40.7607L35.3228 40.3337L35.5155 39.4066L37.8175 39.8753L37.9061 39.943L50.2915 49.4066L53.7655 40.9795L52.6561 33.1982L42.8696 25.5003L55.8123 31.4587L57.8696 40.9222C60.5103 38.792 64.2134 35.7399 64.6613 35.2035C64.8332 34.5993 65.8488 30.3285 66.5155 27.4847L66.5519 27.318L77.6821 19.1201L78.2915 19.8285L69.7342 28.3857L69.1561 33.7139L60.7134 44.0472L59.0207 47.2503L70.1196 39.7191L78.9009 38.417L92.1457 31.1357L79.2603 42.3545L71.7915 43.516L66.4634 47.9014L73.0936 47.6618L80.3488 44.9066L92.0207 45.7503L92.0311 46.693L80.4009 47.7243L68.5311 53.516L57.3436 53.8024L49.203 62.6566L47.7863 77.3857L50.8957 82.9222L50.078 83.3753Z" fill="black"/>
<path d="M34.3958 83.4062L33.6042 82.8906L40.7708 71.8333L41.7865 59.7812L46.6615 54.7708C42.901 50.5833 37.0625 44.151 36.5052 43.7604C36.1719 43.599 32.9948 42.8437 30.8594 42.3698L30.6667 42.3281L23.1719 30.0938L32.2031 38.7292L35.5156 39.401L35.3229 40.3281L31.75 39.599L27.7656 35.7917L31.2604 41.4948C32.4635 41.7656 36.3906 42.6563 36.9635 42.9323C37.5573 43.2396 44.6406 51.099 47.6562 54.4688L47.9531 54.7917L42.6979 60.1927L41.6927 72.1458L34.3958 83.4062Z" fill="black"/>
<path d="M76.8804 20.5264L82.6772 9.58887L94.9793 4.02637L95.37 4.88574L83.3647 10.3128L79.0418 18.4691L87.8856 14.2972L88.2866 15.1514L76.8804 20.5264Z" fill="black"/>
<path d="M68.6043 26.7344H67.6616V17.3542L72.4845 8.28125L73.3179 8.72917L68.6043 17.5885V26.7344Z" fill="black"/>
<path d="M52.4061 30.693L50.5728 18.8389L55.0936 9.94824L56.5311 1.19824L57.4582 1.34928L55.9634 10.3076L51.5519 18.9951L53.3332 30.5524L52.4061 30.693Z" fill="black"/>
<path d="M45.8385 27.7191L42.8333 16.9951L36.8438 10.8597L37.5208 10.1982L43.6771 16.5055L46.7448 27.4691L45.8385 27.7191Z" fill="black"/>
<path d="M34.9894 40.0622L32.7915 35.1872L33.8644 26.083L29.6665 17.0882L30.5207 16.6924L34.8332 25.9268L33.7603 35.0413L35.8905 39.7653V39.8643H35.4113L34.9894 40.0622Z" fill="black"/>
<path d="M25.2397 33.3597L21.1043 31.068C20.5887 30.9639 17.3335 30.2868 14.0731 29.6097C12.297 29.2399 10.521 28.8649 9.18765 28.5785C6.56265 28.0107 6.56265 28.0107 6.60952 27.5472L6.65119 27.1253L7.0939 27.1201V27.5576L7.27098 27.167C7.77098 27.3389 15.9741 29.0524 21.3699 30.1566L21.5054 30.2035L25.6981 32.5264L25.2397 33.3597Z" fill="black"/>
<path d="M23.4688 41.9535L23.3698 41.9378C21.1198 41.5889 15.8125 40.7139 15.2031 40.2399L15.7812 39.4951L15.4896 39.8701L15.7656 39.4899C16.2083 39.7503 19.9844 40.4535 23.4219 40.9951L29.6042 39.417L29.8333 40.3337L23.4688 41.9535Z" fill="black"/>
<path d="M87.6719 34.4896L91.5938 24.8542L101.083 16.5312L101.703 17.2448L92.3854 25.4219L89.3646 32.8385L97.3229 29.8229L97.651 30.7083L87.6719 34.4896Z" fill="black"/>
<path d="M92.2342 46.6247L91.7446 45.8122L95.6613 43.4632L97.8123 38.0101L106.297 30.9893L106.901 31.7184L98.604 38.583L96.4217 44.109L92.2342 46.6247Z" fill="black"/>
<path d="M96.7085 41.2601L109.427 36.8486L109.735 37.7393L97.0158 42.1507L96.7085 41.2601Z" fill="black"/>
<path d="M96.729 49.5107L88.9842 49.2607L86.9373 48.2347C84.6873 47.1045 84.6873 47.1045 84.7342 46.7607L85.6665 46.9014L85.203 46.8232L85.4426 46.4222C85.5936 46.5055 87.7551 47.5889 89.2238 48.3285L96.6144 48.5628L105.781 45.9326L113.297 48.2764L113.015 49.1774L105.771 46.917L96.729 49.5107Z" fill="black"/>
<path d="M98.9792 58.8903L95.3958 55.7601H86.4427L75.75 49.7601L76.2135 48.9424L86.6927 54.8174H95.7448L99.6042 58.1768L98.9792 58.8903Z" fill="black"/>
<path d="M143.792 33.3643L145.604 31.0674C150.12 25.3331 154.401 26.7497 156.229 27.3591C156.239 27.3643 156.25 27.3643 156.265 27.3695C160.453 21.9581 164.635 23.3018 166.437 23.8747L169.713 24.8904L166.526 24.8643C166.489 24.8643 166.448 24.8643 166.411 24.8643C160.802 24.8643 158.177 27.8018 157.63 30.3279L157.495 30.9685L156.927 30.6352C153.578 28.6508 151.349 28.3695 146.239 31.7497L143.792 33.3643ZM152.635 28.2341C154.104 28.2341 155.427 28.7133 156.87 29.5154C157.578 27.3383 159.599 25.0518 163.333 24.2393C163.328 24.2393 163.328 24.2393 163.323 24.2393C161.484 24.2393 159.182 25.0206 156.812 28.2029L156.614 28.4685L156.297 28.3695C156.187 28.3331 156.068 28.2914 155.937 28.2497C154.521 27.781 151.885 26.9008 148.792 29.2029C150.245 28.5362 151.484 28.2341 152.635 28.2341Z" fill="black"/>
<path d="M141.188 20.3959L139.151 17.948C136.474 14.7188 131.797 11.7709 127.438 14.0677L126.865 14.3698L126.755 13.7292C126.682 13.2917 126.583 12.724 126.448 12.1875C125.651 8.92192 124.01 6.79691 117.641 4.91671L114.828 4.08858L117.755 3.99483C126.25 3.72921 128.188 8.59379 129.016 10.6771C129.026 10.7084 129.036 10.7396 129.052 10.7657C129.766 10.7396 130.443 10.75 131.073 10.7969C137.411 11.2709 139.12 15.4323 139.849 17.2084L141.188 20.3959ZM130.74 12.349C132.859 12.349 135.302 13.1146 137.703 15.1407C136.594 13.5782 134.656 12.0105 130.995 11.7344C130.302 11.6823 129.557 11.6823 128.76 11.724L128.432 11.7448L128.302 11.4427C128.25 11.3177 128.193 11.1823 128.135 11.0313C127.448 9.30212 126.141 6.00525 121.104 5.14066C125.307 6.92191 126.656 9.07817 127.365 11.9636C127.443 12.2969 127.516 12.6459 127.578 12.9636C128.5 12.5782 129.568 12.349 130.74 12.349Z" fill="black"/>
<path d="M189.448 7.62985L186.672 5.99964C182.969 3.82256 180.12 4.73402 178.807 6.18193L178.365 6.66631L178.047 6.09339C176.787 3.83298 175.651 2.48402 170.63 2.77568L167.708 2.94756L170.432 1.86943C175.646 -0.203484 177.985 2.34339 178.995 3.48402C183.87 1.54131 186.229 4.14027 187.13 5.12985L187.261 5.27048L189.448 7.62985ZM174.583 2.05173C176.516 2.49964 177.594 3.52048 178.563 5.10902C179.646 4.19235 181.292 3.56735 183.328 3.81214C182.245 3.60381 180.854 3.71318 179.052 4.48402L178.75 4.61943L178.521 4.37464C178.458 4.30693 178.391 4.23402 178.323 4.15068C177.688 3.44756 176.61 2.23402 174.583 2.05173Z" fill="black"/>
<path d="M212.604 89.8226C211.656 89.8226 210.703 89.6872 209.781 89.4059C206.187 88.3278 203.536 85.057 203.614 81.8122C203.682 79.0882 205.573 77.0622 208.818 76.2549L208.922 76.2236L209.026 76.2497C215.911 77.6507 224 74.7288 227.823 69.4372C230.573 65.6351 230.719 61.1403 228.234 56.7913L227.172 54.9268L228.917 56.1715C235.651 60.9736 238.479 67.0622 236.88 73.3226C234.838 81.3278 225.672 88.4997 216.01 89.6559C215.057 89.7705 214.083 89.8226 213.125 89.8122C212.953 89.8174 212.781 89.8226 212.604 89.8226ZM208.937 77.1924C206.203 77.9059 204.609 79.5934 204.552 81.833C204.484 84.6716 206.849 87.5361 210.052 88.5049C211.036 88.8018 212.062 88.9216 213.104 88.8643C214.052 88.8799 214.984 88.8278 215.901 88.7132C225.198 87.6038 234.01 80.7393 235.963 73.0882C236.953 69.2288 236.62 63.6143 229.948 58.1403C231.646 62.2497 231.187 66.4007 228.588 69.984C224.578 75.5257 216.151 78.6143 208.937 77.1924Z" fill="black"/>
<path d="M152.568 110.979C149.745 110.979 147.745 110.031 146.193 108.016C146.047 107.823 145.906 107.625 145.766 107.417C145.162 106.505 145.063 105.469 145.5 104.495C146.115 103.125 147.542 102.25 148.63 102.099C150.12 101.886 151.901 103.547 152.729 104.427C153.177 103.724 154.042 102.537 155.104 101.917C156.537 101.083 158.74 103.198 159.74 104.302C160.193 103.62 161.083 102.511 162.391 101.896C164.11 101.094 166.505 103.464 167.495 104.563C168.094 103.703 169.417 102.057 171.115 101.401C172.781 100.75 174.313 102.193 175.177 103.292C175.24 102.823 175.323 102.313 175.427 101.948C175.485 101.724 175.641 101.552 175.854 101.453C176.537 101.162 177.75 101.745 179.839 102.813C180.36 103.078 180.886 103.349 181.396 103.583C182.948 104.318 183.417 103.703 184.787 101.458C184.969 101.156 185.167 100.833 185.38 100.495C186.224 99.1772 186.469 98.0053 186.057 97.2762C185.667 96.5939 184.766 96.422 184.073 96.3855C182.74 96.3282 181.552 97.3543 180.281 98.4376C179.141 99.4116 177.969 100.422 176.583 100.719C175.662 100.922 174.901 100.781 174.318 100.307C173.781 99.8751 173.511 99.2501 173.375 98.7189C172.432 99.6095 170.641 101.115 168.87 101.557C168.078 101.755 167.432 101.646 166.943 101.234C166.422 100.792 166.219 100.104 166.141 99.547C165.042 100.255 162.891 101.511 161.318 101.698C159.729 101.88 158.729 100.719 158.261 99.7605C157.401 100.297 155.542 101.349 153.516 101.807C151.344 102.297 150.031 100.276 149.505 98.7657C147.219 99.9168 144.573 100.958 143.88 100.026C143.761 99.8647 143.396 99.3855 144.167 97.1616C144.448 96.3439 144.839 95.4376 145.297 94.5366C146.089 92.9897 147.745 90.1668 149.979 88.7189C151.813 87.5314 153.771 87.4116 156.042 87.2762L156.182 87.2709C158.589 87.1199 161.583 86.9428 165.156 85.1095C166.276 84.5314 167.229 83.8907 168.063 83.1616C169.073 82.2814 169.906 81.2866 170.766 79.9428C171.146 79.3491 171.5 78.7397 171.839 78.1459C172.406 77.172 172.985 76.1616 173.693 75.2241C174.906 73.6043 176.688 72.3178 178.974 71.4012C185.932 68.5991 196.266 69.7449 202.87 72.3282C205.813 73.4741 208.031 74.8907 209.297 76.4168L208.573 77.0157C207.412 75.6147 205.323 74.3022 202.526 73.2084C196.094 70.698 186.063 69.573 179.323 72.2866C177.198 73.1355 175.557 74.3178 174.448 75.797C173.776 76.6928 173.229 77.6355 172.656 78.6251C172.307 79.2293 171.948 79.8491 171.557 80.4584C170.662 81.8647 169.75 82.948 168.682 83.8803C167.792 84.6616 166.781 85.3387 165.589 85.9532C161.839 87.8751 158.735 88.0626 156.24 88.2137L156.099 88.2241C153.958 88.3491 152.115 88.4584 150.49 89.5157C148.99 90.4845 147.406 92.4741 146.136 94.9689C145.693 95.8334 145.323 96.698 145.057 97.4741C144.636 98.698 144.61 99.2866 144.636 99.4584C145.136 99.6303 147.396 98.8178 149.573 97.6824L150.104 97.4064L150.25 97.9845C150.261 98.0157 151.141 101.401 153.313 100.896C155.844 100.323 158.193 98.698 158.219 98.6772L158.755 98.3022L158.943 98.922C158.969 99.0053 159.583 100.958 161.214 100.766C163.125 100.542 166.276 98.3334 166.313 98.3074L167.13 97.7293L167.052 98.7293C167.021 99.0834 167.063 100.099 167.552 100.516C167.802 100.724 168.156 100.766 168.641 100.651C170.891 100.089 173.339 97.4324 173.365 97.4064L174.182 96.5105V97.7241C174.182 97.7345 174.198 99.0001 174.917 99.5782C175.271 99.8647 175.755 99.9376 176.386 99.8022C177.542 99.547 178.625 98.6199 179.672 97.7241C181.026 96.5678 182.427 95.3699 184.12 95.4428C185.802 95.5157 186.552 96.2241 186.88 96.8074C187.485 97.8595 187.235 99.3491 186.182 100.995C185.969 101.328 185.776 101.646 185.594 101.948C184.318 104.047 183.391 105.563 180.995 104.432C180.479 104.193 179.943 103.917 179.417 103.646C178.37 103.109 176.813 102.323 176.313 102.313C176.11 103.136 175.995 104.63 175.995 104.646L175.88 106.193L175.115 104.844C175.094 104.813 173.203 101.599 171.464 102.276C169.469 103.047 167.969 105.552 167.953 105.578L167.604 106.162L167.177 105.636C166.057 104.255 163.865 102.245 162.792 102.745C161.156 103.511 160.245 105.292 160.24 105.307L159.917 105.948L159.453 105.396C158.339 104.057 156.339 102.287 155.589 102.724C154.271 103.49 153.24 105.417 153.229 105.432L152.896 106.052L152.448 105.511C151.578 104.469 149.807 102.875 148.771 103.021C147.948 103.141 146.823 103.859 146.375 104.87C146.063 105.557 146.13 106.229 146.563 106.88C146.693 107.068 146.818 107.255 146.958 107.432C148.104 108.922 149.854 110.396 154.099 109.932C155.412 109.792 157.698 109.318 160.344 108.771C162.162 108.396 164.229 107.969 166.276 107.589C172.625 106.406 176.563 106.12 178.662 106.688C180.255 107.115 182.912 107.412 186.557 107.563C192.761 107.823 199.578 107.599 202.422 107.396C203.599 107.313 205.115 106.646 206.682 105.526C213.021 101.005 215.964 93.797 215.516 89.3126L216.453 89.2189C217.089 95.5782 212.177 102.761 207.229 106.287C205.495 107.531 203.854 108.234 202.49 108.333C198.901 108.594 192.083 108.74 186.521 108.5C182.802 108.344 180.083 108.042 178.422 107.594C176.485 107.073 172.568 107.38 166.448 108.521C164.417 108.901 162.354 109.323 160.537 109.698C157.865 110.245 155.563 110.724 154.203 110.87C153.615 110.943 153.078 110.979 152.568 110.979Z" fill="black"/>
<path d="M183.828 90.1567C181.495 90.1567 179.735 89.6202 178.594 88.5577C177.672 87.7036 177.208 86.5681 177.208 85.1671C177.208 81.7296 179.761 79.5473 184.386 79.0213C188.13 78.5942 190.729 79.0734 192.125 80.4431C193.005 81.3077 193.386 82.5109 193.245 84.0056C192.875 87.9431 190.511 89.7088 185.078 90.1098C184.646 90.1411 184.229 90.1567 183.828 90.1567ZM184.495 79.964C180.401 80.4275 178.151 82.2765 178.151 85.1723C178.151 86.2973 178.516 87.2036 179.235 87.8702C180.354 88.9171 182.36 89.3702 185.011 89.1775C190.005 88.8077 191.979 87.3859 192.307 83.9275C192.417 82.7088 192.146 81.7921 191.464 81.1254C190.302 79.9744 187.896 79.5786 184.495 79.964Z" fill="black"/>
<path d="M156.224 94.6305C154.443 94.6305 152.563 94.0992 152.13 93.0836C152.037 92.8648 151.984 92.5107 152.255 92.0523C152.839 91.0888 154.74 90.0002 156.026 89.8909C158 89.7294 159.323 90.0315 159.958 90.7867C160.359 91.2711 160.464 91.8961 160.266 92.6513C159.979 93.7502 158.74 94.4638 156.865 94.5992C156.651 94.62 156.438 94.6305 156.224 94.6305ZM152.995 92.7138C153.234 93.2607 154.943 93.7971 156.792 93.6617C158.214 93.5575 159.172 93.0888 159.349 92.4117C159.469 91.969 159.432 91.6304 159.229 91.3961C158.818 90.9065 157.677 90.7034 156.099 90.8284C155.198 90.9065 153.745 91.6721 153.172 92.3805C153.021 92.568 152.995 92.6825 152.995 92.7138Z" fill="black"/>
<mask id="mask3_5558_5495" style="mask-type:luminance" maskUnits="userSpaceOnUse" x="0" y="83" width="222" height="64">
<path d="M0.239746 83H221.333V146.693H0.239746V83Z" fill="white"/>
</mask>
<g mask="url(#mask3_5558_5495)">
<path d="M91.5627 146.172L85.87 137.417L80.1877 137.021L76.7918 133.318L71.0522 134.854L70.9325 134.823L61.6043 132.511L53.3908 137.042L46.2762 136.568L42.2814 138.063L42.1877 138.058L31.3022 137.657L26.1981 132.24H13.2554L11.0002 128.703L0.239746 125.058L6.61995 118.433L10.0054 115.776L1.57308 112.115L12.6772 105.188L6.34912 102.302L14.8908 98.1878L6.03662 95.9587L7.5262 89.0003L3.89079 88.4118L1.91162 83.0107H168.328V83.9535H3.26058L4.5835 87.568L8.65641 88.2295L7.1512 95.266L17.6408 97.9066L8.57308 102.282L14.6616 105.058L3.59912 111.964L11.8283 115.537L7.22933 119.151L1.94287 124.641L11.62 127.917L13.771 131.297H26.6043L31.7241 136.735L42.1252 137.115L46.1408 135.615L53.1772 136.084L61.4741 131.506L71.0418 133.881L77.0991 132.261L80.6252 136.11L86.4064 136.506L92.0418 145.193L112.896 143.495L117.094 139.542L124.802 140.084L127.854 135.349L130.688 136.547L145.948 133.891L163.672 133.578L163.708 133.584L176.203 135.375L196.912 130.969L193.537 128.302L207.875 125.151L201.208 119.584L210.667 117.344L219.167 110.433L215.802 108.516L212.136 108.828L206.745 106.344L207.136 105.485L212.307 107.865L216.016 107.547L220.828 110.292L211.094 118.214L203.261 120.068L209.953 125.657L195.682 128.797L199.068 131.474L176.235 136.334L163.61 134.521L146 134.839L130.573 137.526L128.219 136.526L125.292 141.068L117.438 140.506L113.302 144.412L91.5627 146.172Z" fill="black"/>
</g>
<path d="M86.401 137.349L85.875 136.568C98.5104 128.031 99.0573 128.031 99.2344 128.031L112.615 128.036L122.786 129.635L128.385 135.609L127.698 136.255L122.323 130.516L112.505 128.969H99.2969C98.3958 129.339 90.9531 134.276 86.401 137.349Z" fill="black"/>
<path d="M163.224 134.276L160 128.37L169.052 121.823L163.089 118.266L144.641 120.693L138.495 117.396L123.047 118.521L112.875 128.839L112.203 128.172L122.625 117.604L138.698 116.433L144.823 119.719L163.286 117.282L170.771 121.745L161.224 128.646L164.052 133.828L163.224 134.276Z" fill="black"/>
<path d="M185.25 122.25H169.912V121.308H185.193L202.177 119.354L202.287 120.292L185.25 122.25Z" fill="black"/>
<path d="M184.917 122.141L180.838 118.708L189.542 113.474L186.125 108.302L186.911 107.781L190.87 113.776L182.458 118.839L185.526 121.422L184.917 122.141Z" fill="black"/>
<path d="M168.505 112.672L165.938 108.318L166.75 107.839L169.031 111.709L188.708 110.912L188.729 111.381V111.854L168.505 112.672Z" fill="black"/>
<path d="M162.812 118.062L159.969 114.323L168.635 111.739L168.906 112.64L161.542 114.838L163.562 117.484L162.812 118.062Z" fill="black"/>
<path d="M139.016 117.13L138.177 116.698L139.578 113.984L130.562 112.479L138.453 106.411L146.615 107.26L146.521 108.192L138.729 107.39L132.854 111.906L141.01 113.265L139.016 117.13Z" fill="black"/>
<path d="M138.422 107.339L122.995 101.385L131.594 96.8438H144.604V97.7865H131.828L125.265 101.25L138.76 106.464L138.422 107.339Z" fill="black"/>
<path d="M131.578 97.7653L117.745 93.8226L112.854 89.4684L131.724 87.5361L140.958 88.9215L136.89 92.4007L145.802 94.2913L145.609 95.208L134.823 92.9268L138.771 89.5465L131.698 88.4893L115.078 90.1872L118.208 92.9736L131.838 96.859L131.578 97.7653Z" fill="black"/>
<path d="M139.859 88.7705L150.219 88.6455L150.229 89.5882L139.87 89.7132L139.859 88.7705Z" fill="black"/>
<path d="M156.089 88.1927L148.188 86.1875L153.391 83.0781L153.875 83.8854L150.62 85.8333L156.323 87.2812L156.089 88.1927Z" fill="black"/>
<path d="M131.328 83.7497L132.089 83.1924L135.953 88.458L135.188 89.0153L131.328 83.7497Z" fill="black"/>
<path d="M72.6877 92.0729L61.9585 87.8542L67.8908 83.1094L68.4793 83.849L63.8179 87.5729L72.8335 91.1146L80.3335 90.5L83.7658 88.2865L91.4429 87.5573L96.0418 83.1406L96.6981 83.8229L91.8595 88.4688L84.0835 89.2083L80.646 91.4167L72.6877 92.0729Z" fill="black"/>
<path d="M99.1873 91.4684V87.0101H93.1821V86.0674H100.135V90.4476L113.932 89.359L114 90.2965L99.1873 91.4684Z" fill="black"/>
<path d="M117.292 89.9632L117.198 89.0205L117.245 89.4945L116.969 89.1143C117.297 88.8226 120.078 85.3278 121.745 83.1924L122.49 83.7757C117.677 89.9215 117.547 89.9372 117.292 89.9632Z" fill="black"/>
<path d="M92.2031 99.2292L87 94.9167L93.7969 90.2812L99.6771 90.4896L99.6458 91.4323L94.0729 91.2344L88.5677 94.9896L92.5208 98.2604L112.37 96.8542L117.703 93.0156L118.25 93.7812L112.703 97.776L112.573 97.7865L92.2031 99.2292Z" fill="black"/>
<path d="M87.9377 102.578H76.0887L67.9585 98.8285L74.1877 94.4795H87.7814V95.4222H74.4845L69.8439 98.6566L76.297 101.636H87.6304L92.0835 98.3649L92.6408 99.1253L87.9377 102.578Z" fill="black"/>
<path d="M72.3384 91.7917L73.1925 91.3906L74.7655 94.7552L73.9113 95.1562L72.3384 91.7917Z" fill="black"/>
<path d="M68.8908 99.2188L57.5314 98.9948L54.8127 96.0625H44.4741L49.9481 90.2865H59.0002L62.5887 87.3438L63.1877 88.0729L59.3387 91.2292H50.3543L46.672 95.1198H55.2241L57.9481 98.0625L68.9116 98.276L68.8908 99.2188Z" fill="black"/>
<path d="M49.9113 91.1618L45.4425 88.4847H36.6509L42.3957 83.1357L43.0415 83.8285L39.0467 87.5368H45.703L50.3957 90.3493L49.9113 91.1618Z" fill="black"/>
<path d="M22.3802 89.2288L15.7969 83.8434L16.3958 83.1143L22.6979 88.2705L37.8281 87.5361L37.8698 88.484L22.3802 89.2288Z" fill="black"/>
<path d="M43.5207 98.9997H36.005L33.854 95.2184H25.7238L18.5571 91.708L22.2238 88.3955L22.854 89.0986L20.2238 91.4736L25.9425 94.2757H34.4061L36.5467 98.057H43.0571L45.203 95.307L45.9478 95.8851L43.5207 98.9997Z" fill="black"/>
<path d="M69.8333 104.792H53.4219L50.0156 102.021L57.5208 98.1094L57.9583 98.9479L51.724 102.193L53.7552 103.849H69.6771L76.0417 101.661L76.349 102.552L69.8333 104.792Z" fill="black"/>
<path d="M89.8125 109.369H80.5104L76.0677 106.797H73.5521C73.4115 106.797 73.2083 106.797 69.5312 104.734L69.9896 103.911C71.526 104.776 73.2604 105.708 73.6198 105.854H76.3229L80.7604 108.432H89.6094L95.2135 105.901L87.5938 102.541L87.9688 101.677L97.526 105.896L89.8125 109.369Z" fill="black"/>
<path d="M113.719 104.25L111.901 101.297L115.385 98.8698L112.375 97.7552L112.703 96.875L117.411 98.6146L113.172 101.557L114.213 103.255L121.932 102.578L123.823 100.958L124.432 101.677L122.312 103.49L113.719 104.25Z" fill="black"/>
<path d="M122.588 118.459L119.557 116.537L101.823 117.443L110.182 107.511L110.906 108.12L103.943 116.391L119.812 115.578L123.094 117.662L122.588 118.459Z" fill="black"/>
<path d="M110.188 107.511L113.609 103.448L114.328 104.058L110.911 108.12L110.188 107.511Z" fill="black"/>
<path d="M102.015 109.401L99.8488 106.37H96.3696V105.422H100.333L102.458 108.396L110.542 107.344L110.547 107.833L110.604 108.281L102.015 109.401Z" fill="black"/>
<path d="M99.1562 128.969L92.9427 127.938L90.0417 124.683H80.3698L77.0156 119.407L83.7552 113.276L93.3333 114.12L97.1406 116.443H102.885V117.386H96.8802L93.0312 115.042L84.0885 114.256L78.2344 119.573L80.8906 123.74H90.4635L93.4219 127.063L99.3073 128.042L99.1562 128.969Z" fill="black"/>
<path d="M77.1561 133.208L76.729 132.369L85.0363 128.135L87.9686 123.942L88.7446 124.479L85.6769 128.869L77.1561 133.208Z" fill="black"/>
<path d="M61.8853 132.328L61.1978 131.682L65.3853 127.218L61.0259 122.708L69.7082 119.88L77.578 119.021L77.6769 119.958L69.8592 120.812L62.7498 123.14L66.6925 127.213L61.8853 132.328Z" fill="black"/>
<path d="M61.724 123.365L51.4531 119.573L61.4062 114.115L75.4219 113.307L80.3021 108.562L80.9583 109.234L75.8281 114.224L61.6719 115.047L53.7188 119.406L62.0521 122.479L61.724 123.365Z" fill="black"/>
<path d="M83.8175 114.224L76.8384 112.651L77.0519 111.729L77.2915 111.787L84.0259 113.308L83.8175 114.224Z" fill="black"/>
<path d="M61.2605 114.963L59.1355 113.432L52.4428 112.651L52.3594 112.609C46.9792 109.708 46.9584 109.244 46.9428 108.968C46.9324 108.786 47.0157 108.614 47.1719 108.51C47.5209 108.281 51.7188 105.14 53.3073 103.942L53.8698 104.698C53.6667 104.849 49.4949 107.979 48.1094 108.994C48.8646 109.552 50.9011 110.75 52.7292 111.729L59.4896 112.521L61.8126 114.198L61.2605 114.963Z" fill="black"/>
<path d="M50.8696 102.578H44.5519L42.854 98.7132L43.7186 98.333L45.1665 101.635H50.8696V102.578Z" fill="black"/>
<path d="M7.45312 91.1201H19.3958V92.0628H7.45312V91.1201Z" fill="black"/>
<path d="M16.3281 98.5153L16.2031 97.583L21.5156 96.859L25.5885 94.3486L26.0781 95.1507L21.8438 97.7653L16.3281 98.5153Z" fill="black"/>
<path d="M28.6356 102.599L25.6147 99.0003H24.297L21.4897 97.7503L21.8752 96.8857L24.5002 98.0576H26.0522L29.0366 101.61L35.5106 100.974L38.6877 98.1722L39.3075 98.8805L35.9064 101.881L28.6356 102.599Z" fill="black"/>
<path d="M31.4325 109.927L24.3335 105.578L28.5158 101.761L29.1512 102.453L25.896 105.427L31.6825 108.974L47.422 108.433L47.4533 109.37L31.4325 109.927Z" fill="black"/>
<path d="M25.0207 105.969L19.3748 104.797L13.7342 105.589L13.604 104.656L19.4061 103.844L25.2134 105.047L25.0207 105.969Z" fill="black"/>
<path d="M20.5104 116.125H10.9219V115.188H19.9844L22.9219 110.433H29.3958L31.2812 109.073L31.8281 109.834L29.7083 111.375H23.4479L20.5104 116.125Z" fill="black"/>
<path d="M40.7552 123.401L31.3438 122.375L24.9219 116.125H20.25V115.188H25.3073L31.7708 121.469L40.6719 122.443L52.4583 119.036L52.7188 119.943L40.7552 123.401Z" fill="black"/>
<path d="M26.6771 132.151L26.125 131.386L29.0156 129.313L28.4427 127.172L35.4219 121.995L35.9792 122.756L29.5156 127.547L30.0885 129.698L26.6771 132.151Z" fill="black"/>
<path d="M146.38 134.568L145.526 134.167L146.484 132.11L139.776 130.709L144.297 120.026L145.167 120.391L141.094 130.021L147.838 131.427L146.38 134.568Z" fill="black"/>
<path d="M188.047 97.6924C187.62 97.6924 187.177 97.6195 186.708 97.458L187.016 96.5674C188.979 97.2393 190.469 95.8955 192.193 94.3434C193.229 93.4059 194.302 92.4372 195.589 91.8122C198.563 90.3799 201.938 89.2705 204.427 91.9111C204.912 92.4268 205.511 92.5518 206.261 92.2965C207.865 91.7393 209.386 89.6872 209.448 88.9111L210.391 88.9945C210.276 90.2861 208.401 92.5518 206.568 93.1872C205.464 93.5674 204.485 93.3538 203.745 92.5622C202.078 90.7861 199.833 90.8174 196.005 92.6611C194.839 93.2236 193.813 94.1507 192.828 95.0413C191.375 96.3486 189.891 97.6924 188.047 97.6924Z" fill="black"/>
<path d="M79.604 83.568C78.9269 79.8649 78.5884 76.0732 78.5884 72.3076C78.5884 65.5993 79.6509 58.9951 81.7394 52.6878C82.4113 50.6722 83.1821 48.6878 84.0363 46.792L84.078 46.693C84.2603 46.2972 84.4373 45.9014 84.63 45.516C87.1144 40.2972 90.328 35.4378 94.1821 31.0837C102.849 21.2712 114.125 14.5472 126.802 11.6201L127.015 12.542C114.531 15.4222 103.427 22.0472 94.9009 31.7035C91.0988 36.0055 87.9321 40.7868 85.479 45.9274C85.3071 46.2868 85.1405 46.6462 84.9738 47.0107L84.9425 47.0889C84.0832 48.9847 83.3123 50.9691 82.6353 52.9899C80.5728 59.1982 79.5311 65.7035 79.5311 72.3128C79.5311 76.0212 79.8696 79.7555 80.5311 83.4066L79.604 83.568Z" fill="black"/>
<path d="M202.219 72.792C202.224 72.6045 202.224 72.4535 202.224 72.3076C202.224 62.9743 200.177 54.0003 196.146 45.6462L196.109 45.5732C195.25 43.7868 194.271 42.0003 193.198 40.2555L193.057 40.0316C181.776 21.8285 162.271 10.9639 140.88 10.9639C137.599 10.9639 134.312 11.2243 131.115 11.7347L130.969 10.8076C134.208 10.2868 137.547 10.0264 140.88 10.0264C162.516 10.0264 182.25 20.9691 193.724 39.318H193.932L193.938 39.6566C195.042 41.4482 196.047 43.2764 196.927 45.1045L196.964 45.1722C201.089 53.6774 203.177 62.8076 203.177 72.3128C203.177 72.4691 203.177 72.6305 203.172 72.7868L202.219 72.792Z" fill="black"/>
</svg>
