<svg width="193" height="148" viewBox="0 0 193 148" fill="none" xmlns="http://www.w3.org/2000/svg">
<mask id="mask0_5558_5496" style="mask-type:luminance" maskUnits="userSpaceOnUse" x="0" y="0" width="193" height="148">
<path d="M0.822754 0.692383H192.823V147.692H0.822754V0.692383Z" fill="white"/>
</mask>
<g mask="url(#mask0_5558_5496)">
<path d="M190.927 108.041L183.422 107.146L178.401 102.677C178.844 102.458 179.5 102.067 180.536 101.422C181.24 100.984 182.198 100.39 182.385 100.343C182.693 100.333 185.401 100.703 187.786 101.067L188.833 101.229L183.703 95.4684L187.391 94.8955L182.245 90.7132H175.828L172.99 76.0778L167.927 56.7809L169.594 53.8174L175.693 50.4059L179.609 48.3278L179.255 47.6507L175.328 49.7341L170.312 52.5361L174.688 44.7549L174.021 44.3851L170.182 51.208L171.312 45.7861L171.318 40.0413H170.557V45.6716L168.953 53.3955L167.688 55.6403L164.589 40.1351V30.6872L164.74 29.4424L171.917 22.9945L171.406 22.4268L164.88 28.2861L165.932 19.7549L165.938 19.7028L164.589 9.91634L163.833 10.0205L165.172 19.708L164.172 27.8278C162.599 24.2913 159.979 18.458 159.609 18.0882L159.057 18.6143C159.406 19.0622 162.25 25.3643 163.995 29.3018L163.833 30.5986L162.042 40.5674L156.172 39.6976C155.526 38.5309 151.573 31.4268 151.068 31.2601L150.828 31.9841C150.755 31.9632 150.719 31.9268 150.714 31.9216C151.104 32.3174 154.12 37.6038 155.219 39.557L153.047 39.2341L149.484 37.0934L143.849 34.6872L143.547 35.3903L149.12 37.7653L152.786 39.9684L155.688 40.3955L155.839 40.6768L156.062 40.4528L162.031 41.3434C162.87 45.5726 164.078 51.7757 164.109 52.1716V56.9163L159.656 53.9216C159.557 53.6455 159.292 52.932 158.964 52.0466C158.214 50.0101 157.073 46.932 157.005 46.7288L156.286 46.9736C156.359 47.182 157.448 50.1455 158.245 52.307C158.365 52.6299 158.474 52.9268 158.573 53.1924L154.312 50.3278L154.24 50.3122C147.719 48.9476 147.417 49.0413 147.307 49.0778L147.542 49.807C147.5 49.8174 147.479 49.8174 147.474 49.8174C147.833 49.8018 151.099 50.432 154.01 51.0466L158.208 53.8643L149.885 54.4476L149.938 55.208L159.234 54.557L164.109 57.833V59.4841L167.693 79.3747V90.7132H164.286L164.266 88.458C164.271 88.3955 164.271 88.3278 164.255 88.2653C164.161 87.7966 163.656 87.1924 160.516 87.2341C159.875 85.1143 157.438 80.6299 154.406 80.2497C154.042 78.833 153.219 77.3903 152.198 76.4007C151.792 66.7497 149.094 57.208 144.401 48.807C139.833 40.6351 133.359 33.4841 125.677 28.1143L125.615 27.9841H125.609C124.729 26.2236 123.271 25.1299 121.375 24.8278C120.979 24.7601 120.599 24.7288 120.24 24.7184C111.083 19.6351 100.677 16.9476 90.1354 16.9476C55.875 16.9476 28.0052 44.8174 28.0052 79.0726C28.0052 82.9059 28.3594 86.7549 29.0625 90.5153H18.4167L18.8177 68.3382L21.8438 44.8122L22.0365 44.2445L27.3073 39.4476L35.7396 37.8747L41.1562 35.5518L40.8542 34.8538L35.5573 37.1351L28.3854 38.4736L34.0833 33.2913L48.4688 22.9476L48.0208 22.3278L34.599 31.9788C36.651 28.4163 40.4167 21.2288 41.3385 19.4632L40.6615 19.1091C37.9219 24.3538 33.375 32.8747 32.8229 33.4007L22.5312 42.7653L28.7344 24.3226L31.6198 17.1299L42.9323 8.85384L42.4844 8.23926L32.1562 15.7913L32.7135 14.4111L35.5521 9.10905L37.3385 0.859049L36.5885 0.692383L34.8542 8.79134L32.0365 14.0518L28.7031 19.0153L28.0521 6.08301L27.2917 6.12467L27.9948 20.1091C27.2188 21.9684 21.6563 35.2549 21.5156 35.807C21.474 35.9632 21.0938 37.1247 20.3854 39.2549L17.3854 28.8747L17.0156 28.9788L17.0208 28.9736L17.3854 28.8695L16.7969 26.833L21.4531 11.6715L20.7188 11.4424L16.5208 25.1247L15.026 15.3695V6.10384H14.2604V15.3955L15.9948 26.7393L12.1719 20.9528L6.58333 16.5882L6.11458 17.1872L11.6042 21.4788L16.6667 29.1455L19.9583 40.5257C19.5052 41.8799 19.026 43.3018 18.625 44.4997L18.1875 45.807L12.8281 40.3174L9.45312 33.2393C9.34375 31.7705 9.19271 29.6038 9.1875 29.4528L8.80729 29.458H8.42708C8.42708 29.6299 8.65625 32.7445 8.69792 33.3695L8.70312 33.4424L11.6771 39.6768L5.60417 36.3955L5.24479 37.0622L12.276 40.8434L13.2656 41.8538L11.7708 42.5674L5.36458 43.6559L5.48958 44.4059L11.9531 43.3122L13.8281 42.4372L17.9115 46.6247C17.7552 47.0934 17.6615 47.3695 17.6562 47.3903L12.6927 66.4216L10.2448 90.5153H1.11458L2.90625 95.4163L6.30208 95.9684L4.92708 102.411L13.2135 104.505L5.27604 108.328L11.125 110.989L0.84375 117.396L9.22396 121.031L9.375 120.682V121.062H22.3594L27.8333 126.385L21.276 129.823L21.8177 131.849L18.7969 134.026L22.3177 138.557L34.3594 139.609L38.0469 138.239L48.6562 140.437L56.2865 136.224L65.0417 138.39L70.3698 136.968L73.5156 140.406L78.8333 140.771L84.0729 146.422L104.115 147.265L107.964 143.63L115.224 144.146L117.943 139.932L120.146 140.869L134.422 138.38L150.734 138.088L162.344 139.755L162.422 139.771L176.219 135.89L177.156 133.385L183.677 130.583L176.88 124.906L170.849 125.942L168.078 123.614L175.885 118.922L174.24 116.422L183.875 114.505L187.875 115.859L192.776 113.604L190.927 108.041ZM159.714 87.2549C157.521 87.3486 154.766 87.7028 151.849 88.2653L151.938 85.5778C153.12 85.1038 153.984 84.3018 154.37 83.2861C154.615 82.6455 154.682 81.8799 154.562 81.0518C156.917 81.5882 159.047 85.2445 159.714 87.2549Z" fill="black"/>
</g>
<path d="M190.64 108.391L192.302 113.401L187.849 115.448L183.901 114.115L173.609 116.162L172.5 114.479C172.5 114.479 171.932 109.709 172.5 109.662C173.062 109.615 183.26 107.511 183.26 107.511L190.64 108.391Z" fill="#9C7C6A"/>
<path d="M182.953 95.1982L187.844 100.688C187.844 100.688 182.87 99.9222 182.359 99.9587C181.854 100 178.026 102.729 177.646 102.516C177.26 102.302 169.995 102.516 169.995 102.516L171.521 96.9639L182.953 95.1982Z" fill="#9C7C6A"/>
<path d="M182.953 95.1976L171.521 96.9632C171.521 96.9632 166.047 95.359 166.427 94.9632C166.807 94.5674 163.932 94.0257 163.932 94.0257L163.906 91.083H182.115L186.49 94.6403L182.953 95.1976Z" fill="#9C7C6A"/>
<path d="M177.651 102.516L183.255 107.511C183.255 107.511 173.057 109.615 172.495 109.662C171.932 109.714 172.495 114.479 172.495 114.479L160.312 114.115C158.74 112.932 157.094 112.318 156.344 111.922C156.714 111.485 157.073 111.011 157.401 110.5L157.375 110.375C161.365 109.406 164.255 107.969 164.057 106.979L164.026 103.698H164.031L170 102.516C169.995 102.516 177.26 102.302 177.651 102.516Z" fill="#9C7C6A"/>
<path d="M182.953 130.484L176.854 133.104L175.932 135.578L162.401 139.38L150.755 137.708L147.953 132.578L156.562 126.354H170.734L176.771 125.312L182.953 130.484Z" fill="#9C7C6A"/>
<path d="M172.62 76.1719L175.51 91.0938H168.062V79.3438L164.479 59.4844C164.479 59.4844 164.479 58.6927 164.479 57.6302C164.479 55.5521 164.479 52.4479 164.479 52.1719C164.479 51.7604 162.344 41.0052 162.344 41.0052L164.208 30.6562V40.1719L167.521 56.724L172.62 76.1719Z" fill="black"/>
<path d="M173.609 116.162L175.349 118.797L167.422 123.568L170.734 126.349H156.562L146.286 127.412L139.823 126.162C139.963 126.162 143.953 119.688 143.953 119.688L151.807 118.209H151.812C151.338 119.662 150.375 121.089 149.594 121.209C148.281 121.417 145.588 122.657 145.312 124.11C152.495 125.698 158.651 122.245 162.344 116.167C161.745 115.339 161.031 114.667 160.312 114.12L172.495 114.479L173.609 116.162Z" fill="#9C7C6A"/>
<path d="M171.521 96.9635L169.995 102.521L164.026 103.703H164.021L163.932 94.0312C163.932 94.0312 166.812 94.5677 166.427 94.9688C166.047 95.3646 171.521 96.9635 171.521 96.9635Z" fill="#9C7C6A"/>
<path d="M143.078 93.8695C145.37 93.8538 148.651 93.4632 152.25 92.7497C158.667 91.4684 163.74 89.583 163.875 88.458L163.896 91.0934L163.922 94.0309L164.016 103.703L164.047 106.984C164.245 107.974 161.354 109.406 157.365 110.38C156.87 110.5 156.359 110.609 155.833 110.718C151.068 111.672 147.031 111.541 146.812 110.427L139.859 93.2445C140.099 93.6768 141.286 93.8851 143.078 93.8695Z" fill="#87AAD2"/>
<path d="M160.224 87.6198C162.385 87.5625 163.771 87.7968 163.875 88.3385V88.4583C163.745 89.5885 158.667 91.4739 152.255 92.75C148.651 93.4687 145.37 93.8541 143.083 93.8698C143.005 92.8489 143.01 91.8958 143.094 91C143.583 90.8125 144.115 90.6302 144.693 90.4427C146.583 89.8333 148.917 89.2291 151.453 88.7239C154.844 88.052 157.958 87.677 160.224 87.6198Z" fill="#87AAD2"/>
<path d="M160.312 114.115C161.031 114.667 161.745 115.339 162.344 116.162C158.651 122.24 152.495 125.693 145.312 124.104C145.589 122.651 148.281 121.412 149.594 121.209C150.375 121.084 151.339 119.657 151.812 118.203C152.141 117.193 152.229 116.167 151.854 115.542C153.031 114.901 154.812 113.74 156.349 111.917C157.089 112.318 158.74 112.933 160.312 114.115Z" fill="black"/>
<path d="M156.562 126.354L147.953 132.578L150.755 137.708L134.38 138L135.5 135.599L129.276 134.297L133.25 124.896L139.823 126.161L146.281 127.406L156.562 126.354Z" fill="#9C7C6A"/>
<path d="M146.901 83.2555C146.489 83.4795 146.026 83.8805 145.562 84.4378C145.297 84.2764 145.047 84.016 144.828 83.6357C143.604 81.417 144.901 78.9378 145.588 77.9743C145.896 77.542 145.292 75.4847 144.521 73.318C143.557 70.5889 142.323 67.6878 142.323 67.6878C145.161 66.8962 148.349 65.0889 148.349 65.0889L150.489 75.6878C150.943 75.8597 151.396 76.1566 151.818 76.5576C152.875 77.542 153.771 79.0837 154.099 80.6045C154.297 81.5003 154.297 82.3962 154.01 83.1462C153.614 84.2035 152.656 84.9378 151.557 85.3128C149.979 85.8493 148.109 85.6618 147.167 84.5993H147.172L146.901 83.2555Z" fill="#9C7C6A"/>
<path d="M151.849 115.547C152.229 116.172 152.14 117.193 151.807 118.209L143.948 119.688C143.948 119.688 139.958 126.162 139.823 126.162L133.245 124.896L127.562 123.511L129.14 118.802L123.588 117.479L126.026 114.479L127.562 112.578L132.297 113.011L144.203 111.542C147.625 114.099 150.562 116.172 150.562 116.172C150.562 116.172 151.073 115.969 151.849 115.547Z" fill="#9C7C6A"/>
<path d="M151.562 85.3122L151.448 88.7288C148.911 89.234 146.578 89.833 144.688 90.4476L147.172 84.5986C148.115 85.6611 149.979 85.8486 151.562 85.3122Z" fill="#F9CA06"/>
<path d="M151.823 76.557C151.396 76.1559 150.943 75.8591 150.49 75.6872L148.354 65.0882C148.354 65.0882 147.422 60.2705 146.438 58.3018C145.453 56.3278 130.328 44.7288 126.287 43.9736C125.427 42.8747 124.625 42.1872 123.974 40.7705C124.604 39.9945 125.011 38.5986 125.151 37.3278C128.62 38.0257 133.125 38.9736 133.432 37.5778C133.63 36.6976 130.031 34.9945 126.063 33.4476C126.25 32.6455 126.281 30.3434 125.37 28.3643C140.745 39.0726 151.026 56.5986 151.823 76.557Z" fill="#F9CA06"/>
<path d="M146.901 83.2549L147.177 84.5986V84.6038C147.177 84.6038 146.333 84.9111 145.562 84.4424C146.026 83.8747 146.49 83.4788 146.901 83.2549Z" fill="#9C7C6A"/>
<path d="M147.177 84.5986L144.693 90.4476C144.115 90.6299 143.583 90.8174 143.094 91.0049C143.37 88.0049 144.458 85.7705 145.562 84.4424C146.333 84.9111 147.177 84.5986 147.177 84.5986Z" fill="#87AAD2"/>
<path d="M144.203 111.542L132.302 113.005L127.568 112.578C127.807 111.776 129.651 108.141 129.651 108.141L121.547 106.12L121.422 106.115C121.464 104.536 121.505 102.943 121.547 101.516L130.88 103.703L133.359 101.328C133.516 101.854 133.651 102.271 133.781 102.557C134.406 104.01 139.719 108.188 144.203 111.542Z" fill="#9C7C6A"/>
<path d="M143.078 93.8695C141.281 93.8851 140.099 93.6768 139.865 93.2393L139.823 93.1403C139.709 92.5778 140.969 91.807 143.094 91.0049C143.005 91.8955 143 92.8486 143.078 93.8695Z" fill="#87AAD2"/>
<path d="M113.578 91.0934C116.521 85.7393 124.193 75.7393 123.922 73.7653C128.276 74.3903 142.287 74.2236 144.526 73.3174C145.297 75.484 145.896 77.5413 145.589 77.9736C144.901 78.9372 143.61 81.4163 144.834 83.6351C145.047 84.0153 145.302 84.2757 145.568 84.4372C144.464 85.7653 143.375 87.9997 143.099 90.9997C140.974 91.8018 139.719 92.5778 139.828 93.1351C139.839 93.1716 139.849 93.208 139.875 93.2393L146.828 110.422C147.047 111.531 151.089 111.661 155.849 110.713C156.375 110.609 156.886 110.494 157.38 110.375L157.406 110.494C157.073 111.005 156.724 111.484 156.349 111.916C154.813 113.739 153.031 114.901 151.854 115.541C151.073 115.968 150.563 116.156 150.563 116.156C150.563 116.156 147.63 114.083 144.203 111.531C139.719 108.187 134.406 104 133.776 102.552C133.651 102.26 133.511 101.843 133.36 101.323C132.979 99.9893 132.537 97.9788 132.141 95.7653C131.87 94.2497 131.625 92.6455 131.443 91.083C131.068 87.9215 130.938 84.9788 131.36 83.484C131.24 83.5205 128.292 87.5205 125.682 91.083C125.13 91.8278 124.599 92.5518 124.115 93.2132C122.719 95.1195 121.688 96.5413 121.688 96.5413C121.688 96.5413 121.62 98.6872 121.542 101.5C121.5 102.932 121.464 104.526 121.417 106.099C121.36 108.541 121.307 110.932 121.302 112.562C121.287 113.734 121.302 114.51 121.344 114.635C121.011 114.718 120.688 114.797 120.38 114.864C117.417 115.526 115.297 115.442 114.24 115.312C113.729 115.25 113.464 115.182 113.464 115.182C113.464 115.182 113.245 113.083 112.99 110.166C112.729 107.119 112.427 103.187 112.313 99.833C112.209 97.0309 112.235 94.6299 112.5 93.4997C112.646 92.9215 113.026 92.083 113.578 91.0934Z" fill="#87AAD2"/>
<path d="M135.5 135.599L134.38 138L120.193 140.474L117.797 139.453L112.719 134.037L103.448 132.578L108.479 125.761L127.562 123.511L133.25 124.896L129.276 134.297L135.5 135.599Z" fill="#9C7C6A"/>
<path d="M126.062 33.4479C130.031 34.9948 133.625 36.6979 133.432 37.5781C133.125 38.9687 128.62 38.026 125.151 37.3281C125.214 36.7917 125.229 36.276 125.198 35.8385C124.469 34.5052 121.578 33.5469 118.786 33.0052C116.62 32.5833 114.51 32.4167 113.495 32.5052C113.141 32.9531 112.839 33.3698 112.599 33.7708L110.734 32.6406C110.818 32.526 110.896 32.4115 110.979 32.2917C111.635 31.3333 112.214 30.2969 112.557 29.25C112.604 29.2552 112.974 29.3125 113.729 29.4896C114.833 29.7448 116.771 30.2448 119.745 31.2031C121.578 31.7969 123.875 32.599 126.062 33.4479Z" fill="#87AAD2"/>
<path d="M133.359 101.328L130.875 103.703L121.542 101.516C121.62 98.6982 121.687 96.5576 121.687 96.5576C121.687 96.5576 122.719 95.1357 124.114 93.2295L127.448 94.0316L128.557 95.7764H132.135C132.536 97.9847 132.979 99.9951 133.359 101.328Z" fill="#9C7C6A"/>
<path d="M132.146 95.7708H128.568L127.458 94.0312L124.12 93.2292C124.609 92.5625 125.14 91.8385 125.687 91.0938H131.448C131.625 92.651 131.875 94.2604 132.146 95.7708Z" fill="#9C7C6A"/>
<path d="M131.443 91.0941H125.682C128.292 87.5368 131.25 83.5368 131.359 83.4951C130.943 84.9899 131.073 87.9326 131.443 91.0941Z" fill="#F9CA06"/>
<path d="M121.542 106.119L129.651 108.14C129.651 108.14 127.807 111.776 127.563 112.578L126.026 114.479L121.302 112.578C121.313 110.948 121.36 108.557 121.422 106.114L121.542 106.119Z" fill="#9C7C6A"/>
<path d="M125.37 28.3646C126.281 30.3438 126.245 32.6459 126.063 33.4479C123.875 32.599 121.578 31.7969 119.74 31.2084C116.766 30.25 114.833 29.75 113.724 29.4896C114.13 28.5 115.865 25 120.13 25.0886C120.5 25.0938 120.896 25.1302 121.307 25.1979C123.438 25.5469 124.672 26.8646 125.365 28.3646H125.37Z" fill="#87AAD2"/>
<path d="M125.198 35.8382C125.229 36.2757 125.214 36.7861 125.146 37.3278C125.005 38.6038 124.599 39.9997 123.969 40.7705C123.708 40.2184 123.479 39.5622 123.281 38.7236C124.885 38.5674 124.318 35.8382 124.318 35.8382C122.813 36.6455 122.052 38.0257 122.052 38.0257C120.536 36.7497 118.672 34.0049 118.672 33.5934L118.781 33.0049C121.578 33.5465 124.469 34.5049 125.198 35.8382Z" fill="black"/>
<path d="M113.234 37.375C113.302 36.8333 113.391 36.349 113.386 35.8385C115.943 35.75 116.495 35.1979 118.672 33.5938C118.672 34.0052 120.537 36.7552 122.052 38.026C122.052 38.026 122.818 36.6458 124.318 35.8385C124.318 35.8385 124.886 38.5677 123.281 38.724C123.484 39.5625 123.714 40.224 123.969 40.7708C124.62 42.1927 125.422 42.875 126.281 43.974C125.349 44.9792 119.755 50.7396 118.672 46.2865V43.974L118.651 43.8802C115.948 44.4375 113.886 42.349 113.438 40.6354C113.063 39.1927 113.125 38.2135 113.234 37.375Z" fill="#9C7C6A"/>
<path d="M120.38 114.88C120.943 117.396 121.479 121.692 121.479 121.692C121.479 121.692 107.74 123.073 102.208 121.416C102.828 120.026 105.906 118.885 108.807 117.864C111.375 116.963 113.813 116.14 114.24 115.328C115.297 115.453 117.417 115.541 120.38 114.88Z" fill="black"/>
<path d="M118.776 33.0055L118.667 33.594C116.49 35.1982 115.938 35.7503 113.38 35.8388C113.391 36.3492 113.302 36.8336 113.229 37.3753C111.802 36.0628 111.865 35.0003 112.589 33.7711C112.823 33.37 113.135 32.9534 113.479 32.5055C114.5 32.4169 116.615 32.5836 118.776 33.0055Z" fill="black"/>
<mask id="mask1_5558_5496" style="mask-type:luminance" maskUnits="userSpaceOnUse" x="78" y="132" width="40" height="16">
<path d="M78 132H118V147.693H78V132Z" fill="white"/>
</mask>
<g mask="url(#mask1_5558_5496)">
<path d="M112.719 134.036L117.797 139.458L115.026 143.755L107.828 143.245L103.974 146.88L84.25 146.052L79.0156 140.406C79.0156 140.406 90.6042 132.578 91.1354 132.578C91.3646 132.578 93.7708 132.578 96.401 132.578C99.7448 132.578 103.453 132.578 103.453 132.578L112.719 134.036Z" fill="#9C7C6A"/>
</g>
<path d="M112.078 91.0938H113.578C113.026 92.0885 112.646 92.9219 112.505 93.5104C112.24 94.6458 112.214 97.0469 112.313 99.8438H112.255L108.479 100.073L104.771 96.7708C104.922 96.7604 110.792 92.1094 112.078 91.0938Z" fill="#9C7C6A"/>
<path d="M113.469 115.198C113.469 115.198 113.735 115.265 114.24 115.328C113.813 116.14 111.386 116.963 108.807 117.864L98.9272 116.604L101.604 113.427L104.776 109.661L112.88 110.192L113 110.182C113.25 113.099 113.469 115.198 113.469 115.198Z" fill="#9C7C6A"/>
<path d="M112.995 110.182L112.88 110.192L104.771 109.661L103.448 107.51L107.021 105.026L103.448 103.703L108.479 100.078L112.255 99.8486H112.312C112.437 103.203 112.734 107.135 112.995 110.182Z" fill="#9C7C6A"/>
<path d="M112.787 26.4375C112.985 27.3542 112.865 28.3073 112.557 29.2552H112.552C112.208 30.3021 111.63 31.3438 110.974 32.2969C111.162 30.9167 111.365 29.8542 110.458 28.9792C111.568 28.3073 112.094 26.5833 112.094 26.5833L112.787 26.4375Z" fill="#9C7C6A"/>
<path d="M112.765 26.3385C112.771 26.3698 112.776 26.4062 112.781 26.4375L112.083 26.5833C112.083 26.5833 111.568 28.3073 110.448 28.9791C110.208 28.7448 109.875 28.5208 109.443 28.3073C109.099 28.1458 108.781 28.0312 108.484 27.9687C108.469 27.375 108.661 26.2343 109.911 25.1979C111.469 24.5781 112.453 25.0416 112.765 26.3385Z" fill="#9C7C6A"/>
<path d="M88.2759 91.0938H112.078C110.792 92.1094 104.922 96.7604 104.771 96.776L91.5259 97.8177V93.7292H85.5259L88.2759 91.0938Z" fill="#9C7C6A"/>
<path d="M110.724 32.6458C110.078 33.5469 109.375 34.3698 108.771 35.0417C107.281 36.6927 103.016 43.401 101.182 46.3177C100.651 47.1563 100.328 47.6823 100.328 47.6823C100.328 47.6823 95.4585 49.9063 92.3491 45.3542C92.5627 44.9323 93.0002 44.3385 93.5731 43.625C96.5939 39.8854 103.537 33.0208 103.537 33.0208C102.037 30.1771 102.708 28.6719 103.641 27.5312C104.417 28.3542 104.865 28.099 105.521 27.9688C105.573 28.4635 105.886 28.8437 106.599 28.9792C106.469 28.25 107.25 27.6979 108.485 27.9688C108.781 28.0313 109.099 28.1406 109.443 28.3073C109.875 28.5208 110.208 28.7448 110.448 28.9792C111.36 29.849 111.156 30.9115 110.969 32.2917C110.896 32.4115 110.813 32.5313 110.724 32.6458Z" fill="#9C7C6A"/>
<path d="M109.917 25.2032C108.672 26.2345 108.474 27.3751 108.49 27.9741C107.255 27.7032 106.474 28.2501 106.604 28.9793C105.891 28.8491 105.578 28.4689 105.526 27.9741C105.401 26.9324 106.412 25.3699 107.115 24.5262C108.412 24.0626 109.552 24.4272 109.917 25.2032Z" fill="#9C7C6A"/>
<path d="M108.479 100.078L103.448 103.698L84.7708 105.026L80.5312 101.516L86.2292 97.6357L91.526 97.818L104.771 96.7764L108.479 100.078Z" fill="#9C7C6A"/>
<path d="M107.021 105.026L103.448 107.511L104.771 109.662L101.604 113.427L93.9115 114.427L91.9219 111.646H88.4792L80.5312 108.141L84.7708 105.026L103.448 103.698L107.021 105.026Z" fill="#9C7C6A"/>
<path d="M103.646 27.5367C102.562 25.8752 105.823 23.2867 107.114 24.5262C106.416 25.3752 105.406 26.9325 105.526 27.9742C104.87 28.0992 104.422 28.3596 103.646 27.5367Z" fill="#9C7C6A"/>
<path d="M101.604 113.427L98.9271 116.599L94.5052 121.849H89.0729L85.526 119.687L76.9583 118.932L70.7188 117.526L73.9115 114.427H82.3125L88.4792 111.646H91.9219L93.9115 114.427L101.604 113.427Z" fill="#9C7C6A"/>
<path d="M118.672 45.3024C110.484 46.0264 101.188 47.9587 101.188 47.9587V46.318C103.016 43.4014 107.286 36.693 108.776 35.0472C109.38 34.3753 110.083 33.5472 110.729 32.6514L112.594 33.7816C111.875 35.0055 111.807 36.0732 113.24 37.3857C113.13 38.2191 113.068 39.1982 113.443 40.641C113.885 42.3597 115.953 44.4378 118.656 43.8857L118.672 43.9847V45.3024Z" fill="#F9CA06"/>
<path d="M101.187 46.3174V47.958C101.187 47.958 110.484 46.0257 118.672 45.3018V46.2861C119.755 50.7393 125.349 44.984 126.281 43.9788C130.323 44.7288 145.448 56.333 146.432 58.3018C147.422 60.2705 148.349 65.0882 148.349 65.0882C148.349 65.0882 145.161 66.9007 142.323 67.6872C142.323 67.6872 143.557 70.5882 144.521 73.3226C142.281 74.2236 128.271 74.3955 123.916 73.7705C123.541 73.7132 123.239 73.6507 123.021 73.583L116.531 56.6038C112.041 57.1663 94.1665 57.7861 90.1248 55.1976C86.0831 52.609 90.1977 43.7757 93.5831 43.6299C93.005 44.3486 92.5727 44.9424 92.3592 45.359C95.4686 49.9163 100.333 47.6924 100.333 47.6924C100.333 47.6924 100.656 47.1559 101.187 46.3174Z" fill="#C41830"/>
<path d="M100.214 126.901L96.3906 132.573V132.578C93.7656 132.578 91.3594 132.578 91.125 132.578L85.526 131.646L82.8125 128.599H73.9062L71.125 124.229L76.9531 118.933L85.526 119.688L89.0677 121.849H94.5052L100.214 126.901Z" fill="#9C7C6A"/>
<path d="M96.396 132.573L100.214 126.901L94.5054 121.849L98.9272 116.599L108.807 117.865C105.912 118.886 102.833 120.026 102.208 121.412C107.74 123.073 121.485 121.688 121.485 121.688C121.485 121.688 120.948 117.391 120.386 114.875C120.693 114.813 121.021 114.729 121.344 114.646C121.302 114.521 121.292 113.75 121.302 112.573L126.026 114.474L123.589 117.469L129.141 118.797L127.563 123.506L108.479 125.75L103.448 132.573C103.448 132.573 99.745 132.573 96.396 132.573Z" fill="#9C7C6A"/>
<path d="M91.5262 93.7295V97.818L86.2293 97.6357L80.5314 101.516H68.0835L66.6304 98.4014L73.7762 97.818L76.9585 95.7712L84.1147 95.0941L85.5262 93.7295H91.5262Z" fill="#9C7C6A"/>
<path d="M85.5259 131.651L91.13 132.578C90.5988 132.578 79.0103 140.407 79.0103 140.407L73.6978 140.042L70.4946 136.547L78.2811 132.578L81.0623 128.604H82.8123L85.5259 131.651Z" fill="#9C7C6A"/>
<path d="M88.479 111.646L82.3123 114.427H73.9113L69.8019 112.042C69.8019 112.042 67.5519 112.042 67.3488 112.042C67.1509 112.042 63.8384 110.188 63.8384 110.188L69.8019 108.136H80.5311L88.479 111.646Z" fill="#9C7C6A"/>
<path d="M88.2762 91.0938L85.5262 93.7292L84.1147 95.0938L76.9585 95.7708L73.7762 97.8177L66.6304 98.401L57.4897 94.8125L62.146 91.0938H88.2762Z" fill="#9C7C6A"/>
<path d="M84.7708 105.026L80.5312 108.141H69.8021L63.0469 105.026L68.0833 101.516H80.5312L84.7708 105.026Z" fill="#9C7C6A"/>
<path d="M81.0625 128.604L78.2812 132.578L70.4948 136.547L65.0417 138L56.2344 135.818L60.401 131.385L56.5573 127.406L63.8385 125.026L71.1302 124.234L73.9115 128.604H81.0625Z" fill="#9C7C6A"/>
<path d="M76.9582 118.933L71.13 124.235L63.8384 125.026L56.5571 127.407L47.9478 124.235L56.2342 119.688L69.2707 118.933L70.7186 117.526L76.9582 118.933Z" fill="#9C7C6A"/>
<path d="M70.7186 117.526L69.2707 118.933L56.2342 119.688L54.1769 118.209L47.9477 117.479C47.9477 117.479 42.7811 114.698 43.1769 114.433C43.5727 114.167 48.88 110.198 48.88 110.198H63.8384C63.8384 110.198 67.1509 112.052 67.3488 112.052C67.5519 112.052 69.8019 112.052 69.8019 112.052L73.9113 114.433L70.7186 117.526Z" fill="#9C7C6A"/>
<path d="M69.8021 108.141L63.8385 110.193H48.8802L46.3594 108.141L52.7188 104.828L63.0469 105.026L69.8021 108.141Z" fill="#9C7C6A"/>
<path d="M66.6304 98.401L68.0835 101.516L63.047 105.026L52.7189 104.828L50.1981 102.115H41.4585L45.6981 97.6354H54.0418L57.4897 94.8125L66.6304 98.401Z" fill="#9C7C6A"/>
<path d="M62.1457 91.0938L57.4894 94.8125L54.0415 97.6354H45.6978L41.4582 95.0938H34.3071L38.5988 91.0938H62.1457Z" fill="#9C7C6A"/>
<path d="M56.5571 127.406L60.4009 131.385L56.2342 135.818L48.5936 140.036L38.0155 137.844L34.3071 139.229L22.5207 138.193L19.3384 134.109L22.255 132.01L21.7238 130.021L28.479 126.484L36.9582 127.406L47.9478 124.234L56.5571 127.406Z" fill="#9C7C6A"/>
<path d="M56.2342 119.687L47.9478 124.234L36.953 127.411L28.479 126.484L22.5207 120.682H18.0103L20.7238 116.286H26.6196L28.4738 114.937L43.1769 114.427C42.7811 114.698 47.9478 117.474 47.9478 117.474L54.1769 118.203L56.2342 119.687Z" fill="#9C7C6A"/>
<path d="M50.1978 102.114L52.7186 104.828L46.3592 108.14H40.7967L39.3384 104.828L41.4582 102.114H50.1978Z" fill="#9C7C6A"/>
<path d="M51.9425 47.7607L50.4269 60.8649L48.9113 64.7243L49.328 71.8962L47.3488 90.8962H42.729C43.0415 88.7972 46.4269 71.4639 46.4269 71.0732C46.4269 70.6566 46.4269 64.4535 46.4269 64.4535L48.5936 59.6305L49.4634 57.693L51.9425 47.7607Z" fill="black"/>
<path d="M50.4271 60.8649L51.9427 47.7607L49.4635 57.6878L48.5938 59.6305L46.4271 64.4482C46.4271 64.4482 46.4271 70.6566 46.4271 71.068C46.4271 71.4587 43.0417 88.792 42.7292 90.891H29.5104C28.7708 87.068 28.375 83.1149 28.375 79.068C28.375 44.9691 56.0208 17.3232 90.125 17.3232C101.016 17.3232 111.245 20.141 120.13 25.0889C115.865 25.0003 114.125 28.5003 113.724 29.4899C112.969 29.318 112.599 29.2607 112.557 29.2555C112.865 28.3024 112.984 27.3493 112.786 26.4378C112.781 26.4066 112.776 26.3701 112.766 26.3389C112.458 25.042 111.469 24.5785 109.917 25.1982C109.552 24.4222 108.411 24.0576 107.115 24.5264C105.823 23.2868 102.562 25.8753 103.646 27.5316C102.714 28.6722 102.042 30.1722 103.542 33.0212C103.542 33.0212 96.599 39.891 93.5833 43.6253C90.1979 43.766 86.0885 52.6045 90.125 55.193C94.1667 57.7816 112.042 57.1618 116.531 56.5941L123.021 73.5785C123.24 73.641 123.542 73.7035 123.917 73.7607C124.193 75.7347 116.516 85.7347 113.573 91.0889H112.073C112.229 90.9639 112.318 90.891 112.318 90.891H47.3385L49.3177 71.891L48.9062 64.7243L50.4271 60.8649Z" fill="#F9CA06"/>
<path d="M46.3595 108.141L48.8804 110.193C48.8804 110.193 43.5783 114.167 43.1772 114.427L28.4793 114.938L22.521 111.281L25.9637 108.141L32.3179 107.51L35.3647 104.828H39.3439L40.797 108.141H46.3595Z" fill="#9C7C6A"/>
<path d="M45.6981 97.6354L41.4585 102.115L39.3387 104.828H32.8491L30.8647 101.328H23.1772L17.2241 98.401L20.1356 95.7708L34.3075 95.0938H41.4585L45.6981 97.6354Z" fill="#9C7C6A"/>
<path d="M38.5991 91.0938L34.3075 95.0938L20.1356 95.7708L14.4116 91.0938H38.5991Z" fill="#9C7C6A"/>
<path d="M35.3644 104.828L32.3175 107.51L25.9634 108.141L23.1769 104.828H21.854L19.3384 103.698L23.1769 101.328H30.8644L32.8488 104.828H35.3644Z" fill="#9C7C6A"/>
<path d="M32.3594 14.2549L31.3021 16.8851L28.375 24.182L21.7031 44.0309L21.4688 44.7288L18.4323 68.3122L18.026 90.8955H10.5938L13.0573 66.5153L18.0208 47.4841C18.0208 47.4841 18.1406 47.1195 18.3438 46.5205C18.7865 45.208 19.6094 42.7549 20.3542 40.5413V40.5361C21.1354 38.2132 21.8229 36.1351 21.8802 35.9059C22.0156 35.3538 28.375 20.182 28.375 20.182L32.3594 14.2549Z" fill="black"/>
<mask id="mask2_5558_5496" style="mask-type:luminance" maskUnits="userSpaceOnUse" x="0" y="109" width="29" height="13">
<path d="M0.822754 109.333H28.6665V121.333H0.822754V109.333Z" fill="white"/>
</mask>
<g mask="url(#mask2_5558_5496)">
<path d="M28.4788 114.937L26.6247 116.286H20.7288L18.0101 120.682H9.36947L1.66113 117.333L11.9268 110.932L17.2236 110.192L22.5205 111.281L28.4788 114.937Z" fill="#9C7C6A"/>
</g>
<path d="M23.1771 104.828L25.9635 108.141L22.5208 111.282L17.224 110.193L11.9271 110.933L6.17188 108.313L14.3229 104.386L19.3385 103.698L21.8542 104.828H23.1771Z" fill="#9C7C6A"/>
<path d="M23.1769 101.328L19.3384 103.698L14.3228 104.386L5.36963 102.131L6.1665 98.4014H17.2238L23.1769 101.328Z" fill="#9C7C6A"/>
<mask id="mask3_5558_5496" style="mask-type:luminance" maskUnits="userSpaceOnUse" x="0" y="90" width="21" height="9">
<path d="M0.822754 90.667H20.6665V98.667H0.822754V90.667Z" fill="white"/>
</mask>
<g mask="url(#mask3_5558_5496)">
<path d="M1.66113 90.8965H10.5934L10.5726 91.0944H14.4111L20.1351 95.7715L17.2236 98.4017H6.16634L6.75488 95.6517L3.18717 95.0736L1.66113 90.8965Z" fill="#9C7C6A"/>
</g>
<path d="M151.443 76.5726C151.057 66.8538 148.464 57.6403 143.734 49.1768C139.203 41.0726 132.781 33.984 125.156 28.6768L125.589 28.0518C133.307 33.4268 139.812 40.6038 144.396 48.8018C149.12 57.2497 151.818 66.8382 152.203 76.5466L151.443 76.5726Z" fill="black"/>
<path d="M29.1771 91.1615L29.1406 90.9688C28.3854 87.0677 28 83.0677 28 79.0781C28 44.8177 55.8698 16.9531 90.1302 16.9531C100.708 16.9531 111.141 19.651 120.318 24.7656L119.943 25.4323C110.885 20.3854 100.578 17.7188 90.1302 17.7188C56.2917 17.7188 28.7604 45.25 28.7604 79.0833C28.7604 83.026 29.1406 86.9792 29.8906 90.8333L29.9271 91.0312L29.1771 91.1615Z" fill="black"/>
<path d="M113.609 91.4736H3.51562V90.708H113.578L113.609 91.4736Z" fill="black"/>
<path d="M171.495 97.3538L171.417 97.3278C166.224 95.8122 166.099 95.3278 166.042 95.1247C166.031 95.0778 166.026 95.0361 166.026 94.9893C165.672 94.8122 164.693 94.557 163.859 94.4059L164 93.6559C166.625 94.1455 166.76 94.5674 166.818 94.7445C166.839 94.8018 166.844 94.859 166.839 94.9163C167.406 95.2549 169.609 96.0049 171.547 96.5726L185.578 94.4059L181.969 91.4736H164.036V90.708H182.234L187.385 94.8903L171.495 97.3538Z" fill="black"/>
<path d="M18.4062 91.0993L17.6406 91.0837L17.6458 90.891L18.0573 68.2607L21.0885 44.641L21.3385 43.9118L28.0104 24.0576L30.6562 17.4639L28.7135 20.3597C26.1823 26.3962 22.3854 35.516 22.25 35.9951C22.2135 36.1305 22.0104 36.7868 20.7188 40.6514L19.9948 40.4066C20.9583 37.5368 21.4687 35.9847 21.5156 35.8076C21.6563 35.2399 27.3802 21.5837 28.026 20.0316L28.0625 19.9639L34.0677 11.0264L28.7344 24.3232L21.8385 44.8128L18.8125 68.3389L18.4062 91.0993Z" fill="black"/>
<path d="M10.9533 91.1305L10.1929 91.0524L10.2137 90.8545L12.6877 66.417L17.6512 47.3857C17.6616 47.3649 17.7814 46.9951 17.9845 46.3962L18.62 44.5003C19.0314 43.266 19.5314 41.7972 19.995 40.417L20.7137 40.6566C20.2554 42.042 19.7554 43.516 19.3387 44.7451L18.7033 46.641C18.5002 47.2399 18.3804 47.6045 18.3804 47.6045L13.4272 66.5889L10.9533 91.1305Z" fill="black"/>
<path d="M47.7031 91.1305L46.9427 91.0524L48.9427 71.8857L48.5312 64.6618L50.0573 60.766L50.8958 53.5524L49.8125 57.8493L46.8125 64.5316V71.0732C46.8125 71.266 46.4427 73.2243 45.1823 79.8493C44.2865 84.542 43.2708 89.8701 43.1094 90.9535C43.099 91.0264 43.0885 91.0732 43.0885 91.0993L42.3281 91.0941C42.3281 91.0524 42.3333 90.9691 42.3542 90.8389C42.5156 89.7451 43.4948 84.6462 44.4323 79.7087C45.2187 75.6045 46.026 71.3597 46.0521 71.0524V64.3701L49.1094 57.5628L51.5781 47.667L52.3281 47.8024L50.8073 60.9535L49.3021 64.7816L49.7135 71.9014L47.7031 91.1305Z" fill="black"/>
<path d="M175.141 91.167L172.245 76.2451L167.146 56.8232L163.823 40.1774V34.9326L162.734 41.0003C163.25 43.6149 164.865 51.7607 164.865 52.1722V59.4535L168.448 79.3441V91.0941H167.682V79.3753L164.099 59.4847V52.1722C164.073 51.7607 162.813 45.3128 161.969 41.0785L161.953 41.0055L161.964 40.9326L163.828 30.5889L164.583 30.6566V40.1357L167.891 56.6462L172.984 76.068L175.885 91.0107L175.141 91.167Z" fill="black"/>
<path d="M18.0728 46.7861L12.2759 40.8434L5.24463 37.0622L5.604 36.3955L12.7863 40.2705L18.6196 46.2549L18.0728 46.7861Z" fill="black"/>
<path d="M16.6457 29.0837L16.0155 26.8857L14.2603 15.3962V6.10449H15.0207V15.3701L16.7655 26.7451L17.38 28.8701L16.6457 29.0837Z" fill="black"/>
<path d="M19.9894 40.6406L16.6509 29.0833L17.3853 28.875L20.7394 40.4792V40.5365H20.3488L19.9894 40.6406Z" fill="black"/>
<path d="M27.2915 6.12533L28.0519 6.08887L28.7603 20.1618L27.9998 20.2035L27.2915 6.12533Z" fill="black"/>
<mask id="mask4_5558_5496" style="mask-type:luminance" maskUnits="userSpaceOnUse" x="31" y="0" width="7" height="15">
<path d="M31.3335 0.692383H38.0002V14.6663H31.3335V0.692383Z" fill="white"/>
</mask>
<g mask="url(#mask4_5558_5496)">
<path d="M32.6982 14.4268L32.0264 14.0726L34.8493 8.79134L36.5889 0.692383L37.3337 0.853841L35.5472 9.10384L32.6982 14.4268Z" fill="black"/>
</g>
<path d="M31.0781 16.5778L42.4792 8.23926L42.9323 8.85384L31.5312 17.1924L31.0781 16.5778Z" fill="black"/>
<path d="M21.9585 44.318L21.4429 43.7503L33.6147 32.6878L48.0158 22.3232L48.4585 22.9482L34.0783 33.292L21.9585 44.318Z" fill="black"/>
<path d="M33.3384 33.9688L32.8228 33.401C33.3696 32.875 37.9165 24.3542 40.6613 19.1094L41.3332 19.4635C40.1353 21.7604 34.104 33.2708 33.3384 33.9688Z" fill="black"/>
<path d="M27.2031 39.4743L27.0625 38.7191L35.5573 37.1357L40.849 34.8545L41.151 35.5576L35.7344 37.8805L27.2031 39.4743Z" fill="black"/>
<path d="M16.0259 26.7132L20.7134 11.4424L21.4478 11.6663L16.7603 26.9372L16.0259 26.7132Z" fill="black"/>
<path d="M16.7502 29.2503L16.6981 29.1826L11.6043 21.4795L6.11475 17.1878L6.5835 16.5889L12.172 20.9535L17.3335 28.766L17.0262 28.9691L16.7502 29.2503Z" fill="black"/>
<path d="M12.1668 40.7035L8.70329 33.4378L8.69808 33.3649C8.65641 32.7451 8.42725 29.6253 8.42725 29.4535H9.19287H8.81266L9.19287 29.4482C9.19808 29.6045 9.34912 31.7712 9.4585 33.2347L12.8595 40.3701L12.1668 40.7035Z" fill="black"/>
<path d="M5.48958 44.4059L5.35938 43.6559L11.7708 42.5674L13.75 41.6299L14.0729 42.3174L11.9531 43.3122L5.48958 44.4059Z" fill="black"/>
<mask id="mask5_5558_5496" style="mask-type:luminance" maskUnits="userSpaceOnUse" x="0" y="89" width="114" height="33">
<path d="M0.822754 89.333H114V121.333H0.822754V89.333Z" fill="white"/>
</mask>
<g mask="url(#mask5_5558_5496)">
<path d="M9.22396 121.031L0.84375 117.396L11.1198 110.99L5.27083 108.323L13.2083 104.495L4.92188 102.406L6.29688 95.9635L2.90625 95.4115L1.11458 90.5156H113.609V91.276H2.20312L3.46875 94.7292L7.21354 95.3385L5.82292 101.849L15.4323 104.276L7.06771 108.302L12.7292 110.885L2.47917 117.276L9.52604 120.328L9.22396 121.031Z" fill="black"/>
</g>
<path d="M79.2241 140.719L78.8022 140.089C86.5522 134.854 90.7033 132.198 91.1356 132.198H103.511L112.912 133.672L118.078 139.193L117.521 139.714L112.531 134.386L103.422 132.953H91.1772C90.396 133.261 83.4637 137.86 79.2241 140.719Z" fill="black"/>
<path d="M150.422 137.891L147.458 132.464L155.182 126.88L146.266 127.797L139.75 126.536L133.177 125.266L127.542 123.896L108.693 126.115L103.755 132.802L103.141 132.354L108.271 125.396L127.594 123.125L133.339 124.521L146.302 127.026L157.938 125.828L148.448 132.693L151.089 137.526L150.422 137.891Z" fill="black"/>
<path d="M170.49 126.646L166.771 123.516L174.807 118.682L172.281 114.854L160.302 114.495V113.734L172.703 114.099L175.886 118.927L168.078 123.62L170.979 126.062L170.49 126.646Z" fill="black"/>
<path d="M127.927 123.63L127.203 123.39L128.651 119.073L122.912 117.703L127.401 112.177L132.292 112.625L144.156 111.161L144.25 111.916L132.307 113.39L127.735 112.974L124.266 117.244L129.636 118.526L127.927 123.63Z" fill="black"/>
<path d="M130.995 104.115L121.458 101.886L121.63 101.146L130.761 103.282L133.203 100.948H133.36V101.328L133.62 101.604L130.995 104.115Z" fill="black"/>
<path d="M66.5677 98.7861L56.7344 94.9268L62.1458 90.5986L62.625 91.1924L58.2396 94.6976L66.6823 98.0153L73.6458 97.4424L76.8281 95.4007L83.9427 94.7236L88.2135 90.6195L88.7448 91.1715L84.276 95.458L77.0833 96.1455L73.901 98.1872L66.5677 98.7861Z" fill="black"/>
<path d="M91.1457 98.2347V94.1097H85.5259V93.3441H91.9061V97.4014L104.656 96.3962C105.276 95.9795 109.708 92.4847 111.838 90.792C112 90.6618 112.088 90.5889 112.088 90.5889L112.557 91.193C112.557 91.193 112.469 91.2607 112.312 91.3857C105.099 97.1149 104.948 97.1357 104.812 97.1462L91.1457 98.2347Z" fill="black"/>
<path d="M84.646 105.417L79.896 101.49L86.1147 97.2451L91.5418 97.4378L91.5106 98.2035L86.3387 98.016L81.1668 101.547L84.896 104.636L103.313 103.328L108.349 99.7035L112.235 99.4639L112.281 100.229L108.615 100.453L103.583 104.073L103.474 104.078L84.646 105.417Z" fill="black"/>
<path d="M80.6562 108.521H69.724L62.2812 105.094L67.9583 101.136H80.5312V101.896H68.2031L63.8125 104.959L69.8854 107.756H80.4062L84.5469 104.719L84.9948 105.334L80.6562 108.521Z" fill="black"/>
<path d="M66.2812 98.5674L66.974 98.2393L68.4271 101.354L67.7344 101.677L66.2812 98.5674Z" fill="black"/>
<path d="M63.0363 105.406L52.5467 105.208L50.0311 102.495H40.5728L45.5311 97.25H53.9061L57.2446 94.5156L57.7238 95.1094L54.1769 98.0156H45.8592L42.3436 101.729H50.3644L52.8853 104.453L63.0519 104.641L63.0363 105.406Z" fill="black"/>
<path d="M45.4998 97.958L41.3488 95.4736H33.3384L38.5519 90.6143L39.0728 91.1768L38.8592 91.3747L35.2759 94.708H41.5623L45.8905 97.307L45.4998 97.958Z" fill="black"/>
<path d="M20.005 96.1611L13.9321 91.1924L14.4113 90.5986L20.2603 95.3851L34.2863 94.7132L34.328 95.4736L20.005 96.1611Z" fill="black"/>
<path d="M39.526 105.208H32.625L30.6406 101.708H23.0885L16.5469 98.4945L19.8802 95.4893L20.3906 96.057L17.8958 98.307L23.2656 100.948H31.0833L33.0729 104.448H39.1562L41.1562 101.88L41.7552 102.349L39.526 105.208Z" fill="black"/>
<path d="M63.9062 110.573H48.7396L45.6719 108.067L52.5417 104.489L52.8958 105.166L47.0521 108.208L49.0104 109.812H63.7812L69.6771 107.776L69.9271 108.5L63.9062 110.573Z" fill="black"/>
<path d="M82.3905 114.813H73.8071L69.6978 112.427H67.3488C67.2394 112.427 67.0519 112.427 63.6509 110.526L64.0259 109.865C65.4686 110.667 67.0832 111.542 67.4009 111.667H69.9009L74.0103 114.052H82.229L87.5415 111.657L80.3748 108.495L80.6821 107.792L89.4113 111.646L82.3905 114.813Z" fill="black"/>
<path d="M112.854 110.573L104.552 110.026L102.932 107.401L106.203 105.13L103.318 104.057L103.583 103.344L107.838 104.922L103.963 107.62L104.995 109.297L112.901 109.812L112.854 110.573Z" fill="black"/>
<path d="M93.729 114.839L91.729 112.026H88.479V111.266H92.1196L94.0884 114.021L101.552 113.047L101.656 113.802L93.729 114.839Z" fill="black"/>
<path d="M91.0675 132.953L85.3332 132.006L82.6457 128.985H73.6978L70.6353 124.167L76.8228 118.542L85.6509 119.318L89.1769 121.469H94.328L98.6353 116.354L99.2186 116.844L94.6821 122.229H88.9634L85.4061 120.063L77.0936 119.328L71.6196 124.302L74.1144 128.219H82.9894L85.7238 131.292L91.1925 132.203L91.0675 132.953Z" fill="black"/>
<path d="M98.6353 116.354L104.474 109.411L105.062 109.906L99.2186 116.843L98.6353 116.354Z" fill="black"/>
<path d="M70.6717 136.886L70.3228 136.209L78.0259 132.282L80.7498 128.386L81.3748 128.823L78.5363 132.875L70.6717 136.886Z" fill="black"/>
<path d="M56.5156 136.078L55.9583 135.558L59.875 131.391L55.8594 127.235L63.7969 124.651L71.0885 123.854L71.1667 124.61L63.9219 125.401L57.2552 127.584L60.9271 131.381L56.5156 136.078Z" fill="black"/>
<path d="M56.4271 127.771L47.0312 124.302L56.125 119.312L56.2135 119.307L69.1094 118.562L73.6458 114.156L74.1719 114.703L69.4375 119.307L56.3385 120.068L48.8646 124.167L56.6875 127.052L56.4271 127.771Z" fill="black"/>
<path d="M76.875 119.308L70.4062 117.849L70.5833 117.104L70.8073 117.162L77.0417 118.563L76.875 119.308Z" fill="black"/>
<path d="M56.0103 119.994L54.0311 118.573L47.8332 117.849L47.7707 117.812C42.8071 115.146 42.7863 114.718 42.7759 114.489C42.7655 114.343 42.8384 114.198 42.9634 114.114C43.2759 113.911 46.8176 111.265 48.6457 109.896L49.0988 110.505C48.9113 110.646 44.9165 113.64 43.703 114.521C44.354 115.026 46.2759 116.151 48.0623 117.114L54.3123 117.849L56.453 119.385L56.0103 119.994Z" fill="black"/>
<path d="M46.3595 108.521H40.547L38.9897 104.979L39.6877 104.672L41.0418 107.755H46.3595V108.521Z" fill="black"/>
<path d="M6.1665 98.0205H17.2186V98.7861H6.1665V98.0205Z" fill="black"/>
<path d="M14.3752 104.76L14.271 104.005L19.2085 103.333L22.9741 101.005L23.3804 101.651L19.4689 104.067L14.3752 104.76Z" fill="black"/>
<path d="M25.8019 108.537L22.9998 105.209H21.7759L19.1821 104.047L19.4946 103.354L21.9373 104.448H23.354L26.1248 107.74L32.1561 107.141L35.1144 104.537L35.6144 105.115L32.4738 107.881L25.8019 108.537Z" fill="black"/>
<path d="M28.3748 115.323L21.8853 111.344L25.703 107.854L26.2186 108.422L23.1509 111.224L28.578 114.552L43.1665 114.047L43.1925 114.813L28.3748 115.323Z" fill="black"/>
<path d="M22.4425 111.657L17.2082 110.578L11.9738 111.313L11.8696 110.558L17.2342 109.808L22.5936 110.912L22.4425 111.657Z" fill="black"/>
<path d="M18.229 121.062H9.36963V120.302H17.8019L20.5207 115.906H26.4998L28.255 114.63L28.703 115.25L26.7446 116.666H20.9425L18.229 121.062Z" fill="black"/>
<path d="M36.9842 127.797L28.3071 126.849L22.3592 121.062H18.0103V120.302H22.6717L28.6509 126.114L36.9217 127.021L47.8436 123.864L48.0571 124.599L36.9842 127.797Z" fill="black"/>
<mask id="mask6_5558_5496" style="mask-type:luminance" maskUnits="userSpaceOnUse" x="18" y="124" width="167" height="24">
<path d="M18 124H184.667V147.693H18V124Z" fill="white"/>
</mask>
<g mask="url(#mask6_5558_5496)">
<path d="M104.115 147.271L84.0729 146.427L78.8333 140.776L73.5208 140.411L70.3698 136.974L65.0469 138.396L56.2865 136.224L48.6562 140.442L38.0469 138.239L34.3594 139.614L22.3177 138.557L18.7969 134.031L21.8177 131.854L21.276 129.828L28.3021 126.146L28.6562 126.817L22.1719 130.218L22.6927 132.166L19.8802 134.187L22.7135 137.828L34.2552 138.838L37.9844 137.448L48.5312 139.64L56.1771 135.411L65.0365 137.609L70.6198 136.119L73.875 139.666L79.1875 140.031L84.4219 145.677L103.828 146.494L107.682 142.849L114.828 143.354L117.651 138.979L120.24 140.078L134.38 137.619L150.781 137.328L150.812 137.333L162.37 138.994L175.641 135.26L176.557 132.817L182.234 130.375L176.661 125.718L170.734 126.734H156.562V125.968H170.703L176.88 124.911L183.677 130.588L177.156 133.39L176.219 135.89L162.422 139.771L162.344 139.76L150.734 138.093L134.422 138.38L120.146 140.869L117.943 139.932L115.224 144.151L107.964 143.635L104.115 147.271Z" fill="black"/>
</g>
<path d="M134.729 138.162L134.036 137.839L134.953 135.875L128.745 134.578L132.896 124.745L133.599 125.042L129.812 134.021L136.052 135.328L134.729 138.162Z" fill="black"/>
<path d="M49.4481 72.2555L49.2085 71.5368L55.4481 69.4795L59.8335 67.2607L60.1772 67.943L55.7085 70.1982L49.4481 72.2555Z" fill="black"/>
<path d="M62.4012 73.4378C62.2345 73.3753 55.3179 70.7868 54.5314 70.4951L54.146 70.3493L58.2502 61.6201L58.9429 61.9482L55.1877 69.9274C57.9116 70.943 62.5002 72.6618 62.6512 72.7191L62.4012 73.4378Z" fill="black"/>
<path d="M49.2188 64.9583L48.6094 64.5L54.0885 57.2083L61.7396 51.6406L62.1927 52.2552L54.6302 57.7552L49.2188 64.9583Z" fill="black"/>
<path d="M54.0366 57.2816L58.271 50.4639L58.922 50.8649L54.6877 57.6826L54.0366 57.2816Z" fill="black"/>
<path d="M48.224 59.7243L47.2552 55.9326L42.9531 50.9118L43.5312 50.417L47.9479 55.568L48.9635 59.5316L48.224 59.7243Z" fill="black"/>
<path d="M46.1562 71.3333L40.7969 65.8125L33.9531 63.7135L34.1771 62.9844L41.2031 65.1406L46.7031 70.8073L46.1562 71.3333Z" fill="black"/>
<path d="M32.7342 70.1143L32.5103 69.3799L36.4217 68.1976L40.5467 65.3226L38.9686 60.5101L39.6925 60.2705L41.453 65.6247L36.6978 68.9111L32.7342 70.1143Z" fill="black"/>
<path d="M164.583 30.7087L163.828 30.6149L165.167 19.7139L163.828 10.0212L164.583 9.91699L165.932 19.7087V19.7555L164.583 30.7087Z" fill="black"/>
<path d="M164.24 29.8854L164.031 29.4062C162.292 25.474 159.401 19.0729 159.052 18.6198L159.604 18.0938C160.005 18.4948 163.021 25.2396 164.516 28.6146L171.412 22.4271L171.922 22.9948L164.24 29.8854Z" fill="black"/>
<path d="M162.286 41.3851L152.781 39.9684L149.109 37.7653L143.542 35.3955L143.838 34.6924L149.479 37.0986L153.042 39.2393L162.401 40.6247L162.286 41.3851Z" fill="black"/>
<path d="M155.833 40.6771L155.583 40.2344C155.24 39.599 151.162 32.3906 150.708 31.9271C150.708 31.9271 150.75 31.9687 150.823 31.9896L151.063 31.2656C151.573 31.4323 155.615 38.7031 156.188 39.7448L156.307 39.7917V40.0521H155.927L156.193 40.3177L155.833 40.6771Z" fill="black"/>
<path d="M159.125 54.4899L159.552 53.8545L164.698 57.318L164.271 57.9535L159.125 54.4899Z" fill="black"/>
<path d="M159.12 54.4792L154.005 51.0469C151.099 50.4375 147.833 49.8021 147.469 49.8177C147.469 49.8177 147.5 49.8177 147.537 49.8073L147.302 49.0781C147.412 49.0469 147.714 48.9479 154.235 50.3125L154.307 50.3281L159.542 53.849L159.12 54.4792Z" fill="black"/>
<path d="M149.932 55.2083L149.88 54.4479L158.797 53.8229C158.662 53.4635 158.464 52.9271 158.24 52.3125C157.438 50.1458 156.344 47.1875 156.276 46.9792L157 46.7344C157.068 46.9323 158.203 50.0104 158.958 52.0521C159.292 52.9688 159.568 53.7031 159.656 53.9531L160.219 54.4896L159.365 54.5521L149.932 55.2083Z" fill="black"/>
<path d="M168.979 53.3441L174.015 44.3857L174.682 44.7607L169.646 53.7191L168.979 53.3441Z" fill="black"/>
<path d="M167.182 56.5365L168.974 53.3438L169.64 53.7188L167.844 56.9115L167.182 56.5365Z" fill="black"/>
<path d="M169.417 53.9115H168.849L168.938 53.4531L170.557 45.6771V40.0469H171.318L171.313 45.7917L169.854 52.7969L175.328 49.7344L179.255 47.6562L179.61 48.3281L175.693 50.4062L169.417 53.9115Z" fill="black"/>
<path d="M120.37 48.3333C120.188 48.3333 120.016 48.3177 119.849 48.2708C119.078 48.0677 118.557 47.4323 118.297 46.375L118.287 46.2812V44.3177C115.568 44.625 113.526 42.4948 113.068 40.7292C112.682 39.2552 112.735 38.2187 112.854 37.3229C112.87 37.2031 112.886 37.0833 112.901 36.9688C112.953 36.5781 113.005 36.2031 113 35.8385L112.995 35.4583L113.37 35.4479C115.62 35.375 116.214 34.9323 117.979 33.6198L119.047 32.8281V33.5833C119.125 33.9219 120.573 36.1302 121.969 37.4375C122.323 36.9375 123.042 36.0833 124.13 35.4948L124.578 35.2552L124.682 35.75C124.719 35.9375 125.037 37.5885 124.365 38.5104C124.198 38.7292 123.985 38.8958 123.74 38.9948C123.901 39.6042 124.089 40.1354 124.307 40.6094C124.761 41.5885 125.271 42.1875 125.87 42.8802C126.099 43.151 126.339 43.4271 126.578 43.7344L126.776 43.9948L126.557 44.2292C125.62 45.2448 122.573 48.3333 120.37 48.3333ZM119.052 46.2396C119.245 46.9896 119.563 47.4115 120.042 47.5312C121.505 47.9167 124.235 45.5677 125.776 43.9531C125.61 43.7552 125.448 43.5677 125.292 43.3854C124.688 42.6771 124.115 42.0104 123.62 40.9323C123.333 40.3229 123.104 39.6354 122.906 38.8177L122.802 38.3906L123.24 38.349C123.464 38.3229 123.625 38.2344 123.755 38.0677C124.031 37.6875 124.057 36.9948 124.016 36.474C122.948 37.2187 122.386 38.2031 122.38 38.2188L122.162 38.6198L121.807 38.3229C120.641 37.3437 119.073 35.2865 118.505 34.1927L118.438 34.2448C116.719 35.5156 115.958 36.0833 113.755 36.2083C113.74 36.5 113.698 36.7865 113.656 37.0885C113.641 37.1979 113.625 37.3125 113.61 37.4323C113.511 38.1979 113.432 39.1354 113.802 40.5469C114.208 42.1146 116.099 44.0208 118.573 43.5156C119.646 43.2969 120.724 42.6563 121.781 41.6042L122.318 42.1406C121.255 43.1979 120.162 43.8802 119.052 44.1823V46.2396Z" fill="black"/>
<path d="M124.266 41.0153L123.672 40.5361C124.198 39.8903 124.615 38.6455 124.771 37.2861C124.828 36.807 124.849 36.3486 124.823 35.9528C124.208 34.9632 121.932 34.0049 118.708 33.3851C116.531 32.958 114.63 32.8278 113.682 32.8747C113.422 33.2184 113.136 33.6039 112.917 33.9684C112.292 35.0361 112.177 35.8903 113.495 37.0934C113.521 37.1247 113.542 37.1403 113.568 37.1611L113.609 37.2028L113.099 37.7705L113.063 37.7393C113.026 37.708 112.995 37.6768 112.964 37.6507C111.557 36.3591 111.344 35.1403 112.261 33.583C112.531 33.1351 112.88 32.6716 113.182 32.2757L113.287 32.1455L113.448 32.1299C114.578 32.0309 116.802 32.2393 118.849 32.6351C120.948 33.0361 124.604 33.9684 125.531 35.6559L125.568 35.7289L125.578 35.807C125.609 36.2757 125.594 36.8174 125.526 37.3747C125.359 38.8903 124.886 40.2497 124.266 41.0153Z" fill="black"/>
<path d="M131.589 38.6715C130.083 38.6715 127.911 38.2757 125.333 37.7549L125.068 37.7028L125.219 36.9528L125.484 37.0049C127.87 37.4893 132.839 38.484 133.057 37.4997C133.052 37.4736 132.87 36.5205 125.922 33.807C123.917 33.0257 121.625 32.2132 119.625 31.5726C116.661 30.6195 114.734 30.1195 113.641 29.8695C113.198 29.7653 112.818 29.6872 112.516 29.6351L112.552 29.2549L112.62 28.8799C112.958 28.9372 113.354 29.0205 113.812 29.1247C114.922 29.3799 116.87 29.8851 119.854 30.8486C121.87 31.4893 124.182 32.3122 126.203 33.0934C134.13 36.1924 133.901 37.2236 133.807 37.6611C133.641 38.3903 132.849 38.6715 131.589 38.6715Z" fill="black"/>
<path d="M97.5627 48.5937C95.8491 48.5937 93.6981 47.9947 92.0366 45.5676L91.9116 45.3801L92.0158 45.177C92.2293 44.7603 92.6408 44.177 93.2814 43.3853C95.995 40.026 101.917 34.0989 103.073 32.9478C101.714 30.1978 102.318 28.6353 103.188 27.4895C102.75 26.4999 103.37 25.3697 104.245 24.6458C105.099 23.9374 106.344 23.4999 107.193 24.0937C108.386 23.7395 109.521 23.9947 110.078 24.7343C110.865 24.4687 111.542 24.4791 112.078 24.7551C112.599 25.026 112.964 25.5364 113.13 26.2499C113.141 26.2916 113.156 26.3385 113.156 26.3853C113.349 27.2603 113.271 28.276 112.912 29.3697L112.818 29.6301C112.49 30.526 111.974 31.4947 111.281 32.5051C111.198 32.6249 111.115 32.7447 111.026 32.8645C110.479 33.6353 109.828 34.427 109.047 35.2916C107.516 36.9895 102.88 44.3124 101.5 46.5156C100.969 47.3541 100.651 47.8801 100.651 47.8801L100.589 47.9791L100.485 48.026C100.464 48.0416 99.2137 48.5937 97.5627 48.5937ZM92.8022 45.3281C95.4793 49.0208 99.37 47.6614 100.068 47.3801C100.188 47.1874 100.469 46.7343 100.865 46.1145C102.646 43.2708 106.958 36.4843 108.49 34.7864C109.255 33.9426 109.886 33.1666 110.417 32.4218C110.5 32.3072 110.583 32.1926 110.662 32.0781C111.38 31.0312 111.896 30.0416 112.188 29.1406L112.266 28.9062C112.516 28.0312 112.568 27.2291 112.412 26.5208C112.406 26.4687 112.401 26.4531 112.396 26.4374C112.281 25.9374 112.057 25.6041 111.735 25.4374C111.339 25.2343 110.761 25.2708 110.063 25.5572L109.729 25.6926L109.573 25.3645C109.318 24.8176 108.417 24.4687 107.245 24.8853L107.026 24.9635L106.854 24.802C106.37 24.3333 105.422 24.6666 104.735 25.2343C104.047 25.8072 103.542 26.6718 103.969 27.3228L104.125 27.5572L103.948 27.7708C103.083 28.8281 102.474 30.1718 103.886 32.8489L104.016 33.0937L103.818 33.2968C103.745 33.3645 96.8543 40.1874 93.8804 43.8645C93.3804 44.4843 93.0158 44.9739 92.8022 45.3281Z" fill="black"/>
<path d="M111.349 32.3486L110.594 32.2445L110.625 32.0309C110.797 30.7757 110.912 29.9476 110.193 29.2549C109.969 29.0362 109.667 28.8382 109.287 28.6507C108.99 28.5049 108.698 28.4007 108.412 28.3382C107.74 28.1924 107.297 28.3382 107.11 28.5205C107 28.6299 106.953 28.7601 106.985 28.9111C107.026 29.1872 107.297 29.5049 107.714 29.7809C108.037 29.9893 108.427 30.1768 108.88 30.3278L108.641 31.0518C108.12 30.8747 107.667 30.6612 107.292 30.4164C106.521 29.9112 106.287 29.3851 106.229 29.0414C106.156 28.6403 106.281 28.2549 106.573 27.9736C107.011 27.5518 107.74 27.4164 108.573 27.5934C108.917 27.6716 109.271 27.7966 109.62 27.9684C110.078 28.1924 110.443 28.432 110.719 28.7028C111.719 29.6664 111.563 30.807 111.38 32.1299L111.349 32.3486Z" fill="black"/>
<path d="M106.328 31.9691L105.62 31.693C105.995 30.7347 106.75 30.068 107.323 29.7607L107.682 30.4378C107.526 30.5212 106.719 30.9847 106.328 31.9691Z" fill="black"/>
<path d="M108.11 27.9844C108.094 27.4635 108.209 26.1198 109.667 24.9062L110.156 25.4948C108.953 26.4948 108.86 27.5469 108.87 27.9583L108.11 27.9844Z" fill="black"/>
<path d="M106.531 29.3542C105.427 29.1458 105.187 28.4271 105.146 28.0104C104.974 26.5469 106.635 24.5104 106.823 24.2812L107.406 24.7656C106.62 25.7187 105.812 27.1094 105.901 27.9219C105.932 28.1771 106.042 28.4844 106.677 28.599L106.531 29.3542Z" fill="black"/>
<path d="M104.719 28.4945C104.328 28.4945 103.89 28.3486 103.37 27.7965L103.927 27.2705C104.448 27.8278 104.698 27.7705 105.187 27.6559C105.276 27.6351 105.364 27.6143 105.453 27.5986L105.599 28.3486C105.515 28.3643 105.437 28.3799 105.364 28.4007C105.161 28.4424 104.948 28.4945 104.719 28.4945Z" fill="black"/>
<path d="M110.651 29.307L110.255 28.6559C111.229 28.0674 111.719 26.4893 111.724 26.4736L112.453 26.6924C112.427 26.7705 111.875 28.5674 110.651 29.307Z" fill="black"/>
<path d="M112.396 34.1042L110.255 32.8073L110.656 32.1562L112.787 33.4479L112.396 34.1042Z" fill="black"/>
<path d="M126.396 33.6979L125.661 33.4844C125.672 33.4479 125.682 33.4063 125.693 33.3594C125.849 32.6719 125.906 30.5521 125.083 28.6667L125.016 28.5261C124.25 26.849 122.979 25.8542 121.245 25.5781C120.849 25.5104 120.474 25.474 120.125 25.474C116.12 25.3958 114.484 28.6406 114.078 29.6354L113.375 29.3542C113.693 28.5625 115.536 24.6198 120.135 24.7136C120.526 24.7188 120.938 24.7552 121.37 24.8281C123.26 25.1354 124.724 26.224 125.604 27.9844H125.609L125.714 28.2084C126.688 30.3229 126.62 32.7136 126.432 33.5365C126.422 33.599 126.406 33.6511 126.396 33.6979Z" fill="black"/>
<path d="M100.807 48.4222V46.318H101.568V47.4847C103.547 47.0941 111.552 45.5472 118.64 44.917L118.703 45.6774C110.635 46.391 101.359 48.3076 101.265 48.3285L100.807 48.4222Z" fill="black"/>
<path d="M141.245 68.3285L141.151 67.9899C140.359 65.2503 139.458 63.9274 137.698 62.9326C137.344 62.7347 134.193 60.9014 131.625 58.2712C128.713 55.2816 127.786 52.443 128.948 50.0524L129.635 50.391C126.974 55.8649 137.963 62.2087 138.073 62.2712C139.927 63.3232 140.948 64.7399 141.776 67.4378C141.917 67.4014 142.062 67.3649 142.224 67.3232C144.542 66.6774 147.135 65.3232 147.922 64.891C147.713 63.8545 146.917 60.1097 146.094 58.4743C145.13 56.5472 130.094 45.0785 126.213 44.3545L126.349 43.6045C130.406 44.3649 145.687 55.9743 146.771 58.141C147.771 60.1305 148.682 64.8232 148.724 65.0212L148.776 65.292L148.536 65.4222C148.406 65.4951 145.276 67.266 142.422 68.0576C142.109 68.1462 141.833 68.2139 141.588 68.2607L141.245 68.3285Z" fill="black"/>
<path d="M132.344 74.5205C128.906 74.5205 125.64 74.4007 123.864 74.1403C123.458 74.0778 123.146 74.0153 122.906 73.9476L122.729 73.8903L122.661 73.7132L114.995 53.6663L115.713 53.3955L123.302 73.2601C123.479 73.3018 123.708 73.3486 123.974 73.3851C128.239 73.9945 142.213 73.8382 144.38 72.9632L144.667 73.6716C143.281 74.2288 137.604 74.5205 132.344 74.5205Z" fill="black"/>
<path d="M105.292 57.4743C99.0731 57.4743 92.2971 57.0368 89.9169 55.516C88.1877 54.4066 87.6304 52.1566 88.3908 49.3389C89.1616 46.4795 91.3596 43.3389 93.5575 43.2451L93.5887 44.0055C91.9637 44.0732 89.9221 46.6045 89.1304 49.5316C88.8127 50.7035 88.2971 53.568 90.3283 54.8701C94.1616 57.3232 111.625 56.8285 116.474 56.2139L116.573 56.9743C114.792 57.2035 110.219 57.4743 105.292 57.4743Z" fill="black"/>
<path d="M99.5575 53.1771L98.9272 52.75C99.5418 51.8542 100.625 49.8333 100.807 47.9219L101.568 47.9896C101.37 50.0573 100.214 52.2292 99.5575 53.1771Z" fill="black"/>
<path d="M150.505 116.594L150.344 116.479C150.313 116.458 147.365 114.375 143.974 111.849C137.505 107.021 133.953 103.943 133.422 102.714C133.297 102.432 133.162 102.026 132.99 101.443C132.599 100.078 132.151 98.0417 131.766 95.8438C131.469 94.1771 131.235 92.599 131.068 91.1406C130.834 89.1771 130.63 86.7031 130.761 84.8698C130.011 85.8698 128.599 87.7552 125.985 91.3229L124.422 93.4583C123.24 95.0729 122.318 96.3333 122.063 96.6875C122.047 97.1667 121.99 99.099 121.922 101.531C121.886 102.802 121.849 104.214 121.813 105.62L121.802 106.13C121.735 108.974 121.693 111.146 121.683 112.578C121.667 114.24 121.703 114.51 121.709 114.552L121.844 114.938L121.438 115.016C121.104 115.104 120.776 115.188 120.459 115.25C117.417 115.938 115.224 115.833 114.193 115.708C113.667 115.646 113.38 115.573 113.37 115.573L113.115 115.505L113.084 115.245C113.084 115.224 112.865 113.109 112.61 110.219C112.255 106.068 112.026 102.583 111.927 99.8698C111.813 96.6563 111.875 94.4896 112.125 93.4323C112.271 92.8281 112.63 92 113.229 90.9167C114.375 88.8333 116.24 86.0365 118.047 83.3333C120.688 79.375 123.683 74.8958 123.531 73.8281L124.287 73.7188C124.464 74.9844 122.287 78.3542 118.677 83.7552C116.88 86.4479 115.026 89.2292 113.901 91.2812C113.339 92.2917 112.995 93.0781 112.865 93.6042C112.636 94.5833 112.573 96.7396 112.688 99.8385C112.787 102.547 113.011 106.016 113.365 110.156C113.568 112.432 113.74 114.229 113.813 114.891C113.927 114.911 114.084 114.938 114.276 114.958C115.261 115.078 117.354 115.177 120.292 114.521C120.5 114.479 120.709 114.427 120.922 114.37C120.912 114.073 120.906 113.547 120.912 112.583C120.922 111.146 120.959 108.969 121.031 106.115L121.042 105.604C121.084 104.198 121.115 102.786 121.151 101.516C121.229 98.6979 121.297 96.5469 121.297 96.5469L121.302 96.4271L121.37 96.3333C121.37 96.3333 122.401 94.9115 123.797 93.0104L125.365 90.875C130.979 83.224 131.063 83.1979 131.235 83.1406L131.912 82.9219L131.719 83.6094C131.36 84.875 131.396 87.5208 131.813 91.0521C131.985 92.4948 132.219 94.0625 132.511 95.7135C132.896 97.8854 133.334 99.8958 133.719 101.234C133.88 101.786 134.011 102.161 134.115 102.411C134.386 103.036 136.089 105.01 144.422 111.24C147.339 113.411 149.927 115.26 150.604 115.74C150.813 115.651 151.188 115.479 151.662 115.224C152.844 114.578 154.563 113.443 156.047 111.682C156.422 111.24 156.766 110.776 157.073 110.302L157.714 110.714C157.391 111.219 157.026 111.708 156.63 112.172C155.073 114.021 153.266 115.214 152.026 115.891C151.235 116.318 150.714 116.521 150.693 116.526L150.505 116.594Z" fill="black"/>
<path d="M149.823 85.9896C148.724 85.9896 147.719 85.651 147.057 85.026C146.698 85.099 146.016 85.1615 145.365 84.7604C145.021 84.5521 144.724 84.2344 144.495 83.8229C143.021 81.151 144.886 78.2969 145.276 77.7552C145.307 77.6771 145.438 77.0417 144.167 73.4531C143.214 70.7656 141.985 67.8698 141.974 67.8385L142.677 67.5417C142.688 67.5677 143.922 70.4844 144.886 73.1927C146.219 76.9688 146.162 77.8281 145.896 78.1927C145.688 78.4844 143.886 81.1302 145.167 83.4479C145.328 83.7448 145.531 83.9688 145.761 84.1094C146.36 84.4792 147.042 84.2448 147.047 84.2448L147.287 84.1615L147.458 84.3542C148.235 85.224 149.906 85.4792 151.443 84.9531C152.537 84.5781 153.323 83.8854 153.656 83.0156C153.896 82.375 153.922 81.5729 153.729 80.6875C153.422 79.276 152.594 77.8021 151.563 76.8438C151.172 76.474 150.755 76.1979 150.354 76.0469L150.156 75.974L147.974 65.1667L148.724 65.0156L150.823 75.4219C151.25 75.6094 151.672 75.901 152.083 76.2865C153.219 77.3437 154.141 78.9687 154.474 80.5312C154.698 81.5521 154.667 82.5104 154.37 83.2865C153.958 84.3698 153.005 85.2188 151.688 85.6719C151.068 85.8854 150.432 85.9896 149.823 85.9896Z" fill="black"/>
<path d="M145.042 90.599L144.338 90.2969L146.781 84.5573L146.39 82.6771L147.135 82.5156L147.594 84.724L147.5 84.8177L145.042 90.599Z" fill="black"/>
<path d="M143.213 97.0524C142.958 95.9847 142.786 94.9274 142.703 93.9014C142.625 92.8857 142.625 91.9014 142.713 90.9639C142.958 88.3232 143.89 85.8545 145.271 84.193C145.739 83.6253 146.245 83.1826 146.718 82.917L147.088 83.5837C146.698 83.7972 146.26 84.1878 145.859 84.6774C144.573 86.2191 143.703 88.542 143.474 91.0368C143.39 91.9222 143.385 92.8649 143.463 93.8389C143.541 94.8232 143.708 95.8441 143.953 96.8753L143.213 97.0524Z" fill="black"/>
<path d="M159.922 88.0361C159.906 87.9424 159.885 87.833 159.849 87.7184C159.364 85.7497 156.818 81.0986 154.088 80.984L154.12 80.2236C157.427 80.3538 160.088 85.4997 160.594 87.5257C160.63 87.6663 160.656 87.8018 160.677 87.9268L159.922 88.0361Z" fill="black"/>
<path d="M142.88 94.2552C140.333 94.2552 139.75 93.8021 139.547 93.4479C139.5 93.3802 139.474 93.3021 139.453 93.2187C139.354 92.7187 139.615 91.9115 142.958 90.6458C143.458 90.4531 144.005 90.2656 144.578 90.0885C146.537 89.4531 148.891 88.8542 151.38 88.3594C154.693 87.6979 157.833 87.3021 160.214 87.2448C163.63 87.1562 164.156 87.7812 164.255 88.2656C164.271 88.3542 164.271 88.4479 164.255 88.5417C164.042 90.3229 156.359 92.3229 152.328 93.1302C148.828 93.8281 145.464 94.2396 143.089 94.2604C143.016 94.2552 142.948 94.2552 142.88 94.2552ZM140.203 93.0573V93.0625C140.276 93.1875 140.922 93.5156 143.078 93.4896C145.412 93.4687 148.724 93.0625 152.182 92.3698C159.583 90.8906 163.427 89.0365 163.5 88.4062C163.448 88.3437 162.974 87.9219 160.234 87.9948C157.891 88.0521 154.802 88.4427 151.526 89.099C149.073 89.5885 146.745 90.1771 144.813 90.8021C144.25 90.9792 143.719 91.1667 143.234 91.3542C140.521 92.3802 140.229 92.9687 140.203 93.0573Z" fill="black"/>
<path d="M150.13 111.739C148.141 111.739 146.667 111.396 146.453 110.536L139.474 93.2861L140.172 92.9893L140.219 93.0934L147.193 110.349C147.307 110.901 150.432 111.406 155.771 110.338C156.261 110.239 156.755 110.13 157.292 110.005C161.729 108.922 163.787 107.531 163.688 107.052L163.682 106.979L163.505 88.333H164.271V88.4528L164.443 106.942C164.745 108.869 158.693 110.448 157.469 110.739C156.927 110.875 156.422 110.984 155.922 111.083C153.927 111.484 151.839 111.739 150.13 111.739Z" fill="black"/>
<path d="M110.766 122.619C107.505 122.619 104.229 122.416 102.104 121.781L101.688 121.656L101.865 121.265C102.526 119.781 105.344 118.687 108.688 117.51L109.057 117.38C111.172 116.635 113.568 115.797 113.906 115.156L114.583 115.51C114.13 116.375 112.281 117.057 109.307 118.099L108.938 118.229C106.865 118.963 103.828 120.031 102.818 121.192C107.943 122.458 118.854 121.557 121.057 121.354C120.911 120.244 120.469 116.994 120.016 114.968L120.76 114.802C121.318 117.307 121.859 121.609 121.87 121.651L121.917 122.036L121.531 122.078C121.172 122.104 115.99 122.619 110.766 122.619Z" fill="black"/>
<path d="M148.719 124.87C147.573 124.87 146.406 124.74 145.229 124.479L144.87 124.401L144.937 124.037C145.26 122.36 148.104 121.058 149.536 120.834C150.042 120.756 150.958 119.61 151.448 118.089C151.776 117.078 151.807 116.203 151.526 115.745L152.177 115.354C152.724 116.25 152.406 117.599 152.172 118.328C151.682 119.828 150.661 121.433 149.651 121.589C148.521 121.766 146.396 122.761 145.818 123.828C152.156 125.058 158.12 122.224 161.885 116.188C161.396 115.558 160.802 114.974 160.078 114.422C158.943 113.568 157.776 113.021 156.922 112.625C156.62 112.485 156.364 112.36 156.167 112.261L156.531 111.589C156.713 111.688 156.958 111.797 157.245 111.933C158.083 112.318 159.338 112.912 160.542 113.813C161.401 114.469 162.094 115.167 162.656 115.938L162.807 116.141L162.677 116.36C159.338 121.844 154.286 124.87 148.719 124.87Z" fill="black"/>
<path d="M125.682 90.708H131.443V91.4736H125.682V90.708Z" fill="black"/>
<path d="M116.797 41.5626L116.26 41.0262C117.286 40.0001 118.833 40.0887 119.338 40.4741L118.875 41.0782C118.698 40.948 117.573 40.7866 116.797 41.5626Z" fill="black"/>
<path d="M104.516 97.0472L105.026 96.4795L108.734 99.7816L108.229 100.354L104.516 97.0472Z" fill="black"/>
<path d="M139.823 126.541V126.161L139.568 125.88C139.833 125.588 142.198 121.802 143.62 119.489L143.708 119.349L151.735 117.833L151.875 118.578L144.182 120.031C140.172 126.541 140.099 126.541 139.823 126.541Z" fill="black"/>
<path d="M169.495 102.912L171.151 96.8597L171.89 97.068L170.5 102.12C174.682 102 177.104 102.011 177.713 102.146C178.042 102.073 179.302 101.292 180.135 100.771C181.505 99.9274 182.047 99.6045 182.338 99.5785C182.745 99.5524 185.307 99.9222 186.859 100.157L182.463 95.2243L183.031 94.7139L188.833 101.224L187.786 101.063C185.401 100.698 182.693 100.323 182.385 100.339C182.193 100.386 181.234 100.985 180.536 101.417C178.338 102.787 177.838 103.026 177.495 102.865C177.026 102.756 173.302 102.802 170.005 102.896L169.495 102.912ZM177.734 102.151C177.776 102.162 177.812 102.172 177.828 102.188C177.797 102.162 177.76 102.151 177.734 102.151Z" fill="black"/>
<path d="M163.948 103.328L169.917 102.146L170.068 102.896L164.094 104.078L163.948 103.328Z" fill="black"/>
<path d="M172.115 114.521C171.917 112.875 171.662 110.026 172.115 109.474C172.203 109.359 172.328 109.297 172.458 109.281C172.833 109.25 178.375 108.13 182.438 107.292L177.396 102.802L177.901 102.234L184.078 107.729L183.333 107.88C182.344 108.083 174.042 109.797 172.688 110.016C172.542 110.552 172.662 112.651 172.875 114.432L172.115 114.521Z" fill="black"/>
<mask id="mask7_5558_5496" style="mask-type:luminance" maskUnits="userSpaceOnUse" x="172" y="106" width="21" height="12">
<path d="M172.667 106.667H192.823V117.334H172.667V106.667Z" fill="white"/>
</mask>
<g mask="url(#mask7_5558_5496)">
<path d="M173.682 116.537L173.536 115.792L183.916 113.719L187.828 115.042L191.833 113.199L190.354 108.74L183.213 107.891L183.302 107.131L190.927 108.042L192.771 113.605L187.869 115.86L183.869 114.511L173.682 116.537Z" fill="black"/>
</g>
<path d="M96.7085 132.786L96.0783 132.359L99.7085 126.969L94.2554 122.135L94.7606 121.562L100.714 126.839L96.7085 132.786Z" fill="black"/>
<path d="M108.761 118.245L98.8804 116.979L98.9272 116.615V116.219L98.9741 116.224L108.86 117.484L108.761 118.245Z" fill="black"/>
<path d="M127.932 112.682L127.203 112.464C127.401 111.807 128.599 109.385 129.094 108.391L121.453 106.49L121.635 105.75L130.208 107.88L129.995 108.307C129.479 109.312 128.12 112.057 127.932 112.682Z" fill="black"/>
<path d="M125.886 114.828L121.162 112.933L121.302 112.578V112.198H121.375L121.448 112.224L126.167 114.125L125.886 114.828Z" fill="black"/>
<path d="M132.146 96.1562H128.354L127.214 94.3646L124.031 93.599L124.208 92.8594L127.693 93.6927L128.776 95.3906H132.146V96.1562Z" fill="black"/>
<path d="M151.073 88.7243L151.182 85.3076L151.948 85.3337L151.833 88.7503L151.073 88.7243Z" fill="black"/>
</svg>
