<svg width="215" height="146" viewBox="0 0 215 146" fill="none" xmlns="http://www.w3.org/2000/svg">
<path d="M53.7508 5.0167L53.4627 5.58962L53.0613 5.10524C51.8664 3.65733 49.2829 2.74587 45.9296 4.92295L43.4122 6.55316L45.4006 4.18857L45.5187 4.04795C46.331 3.05837 48.4753 0.464616 52.896 2.40212C53.8122 1.2667 55.9281 -1.28538 60.6606 0.787533L63.126 1.86566L60.4811 1.69378C55.9234 1.40212 54.8938 2.75107 53.7508 5.0167Z" fill="black"/>
<path d="M7.86751 55.4697C-8.59684 68.4124 5.42572 86.2614 19.368 88.0947C20.2276 88.2145 21.0872 88.2666 21.9326 88.2562C22.9811 88.3135 23.954 88.1676 24.8467 87.8708C30.6229 85.9489 32.7104 77.5426 25.7488 75.626C14.9 78.0635 1.43952 67.876 7.86751 55.4697Z" fill="#87AAD2"/>
<path d="M44.0642 110.298L46.0573 106.959C40.7864 107.204 34.571 107.027 31.6238 106.793C30.4478 106.699 29.0073 105.985 27.5432 104.829L22.7541 107.261L19.4055 106.944L15.6979 109.272L23.9679 116.688L31.808 118.735L47.2381 120.694L50.478 117.688L42.7182 112.543L44.0642 110.298Z" fill="#9C7C6A"/>
<path d="M19.3582 88.194C18.7914 94.4805 23.3019 101.491 27.5431 104.829C29.0073 105.986 30.443 106.699 31.6238 106.793C34.5709 107.027 40.7864 107.204 46.0573 106.96C49.0233 106.824 51.6918 106.548 53.3118 106.069C55.5268 105.413 59.957 106.079 64.3636 106.986C68.8835 107.908 73.3845 109.09 75.439 109.329C79.1229 109.767 80.9979 108.512 82.2968 106.642C82.4243 106.454 82.5518 106.262 82.6699 106.069C83.9829 103.897 81.9 101.72 80.3698 101.48C78.8348 101.23 76.6481 104.132 76.6481 104.132C76.6481 104.132 75.6562 102.079 74.348 101.23C73.0303 100.387 70.2909 104.012 70.2909 104.012C70.2909 104.012 69.4124 102.079 67.7736 101.23C66.13 100.387 63.282 104.251 63.282 104.251C63.282 104.251 61.8604 101.59 59.8862 100.746C57.912 99.9023 56.0511 103.527 56.0511 103.527C56.0511 103.527 55.9377 101.835 55.7205 100.991C55.4985 100.147 52.9859 101.835 50.8983 102.923C48.8202 104.012 48.2676 102.324 46.7374 99.6628C45.8636 98.1523 45.6605 96.8346 46.1186 95.9596L45.7503 95.9284C42.5717 97.1263 40.7155 92.7878 37.6503 91.1523C34.5757 89.5221 32.0347 88.9232 30.1313 91.1523C28.228 93.3815 24.9644 89.3607 24.8416 87.8711C23.9489 88.168 22.9713 88.3086 21.9275 88.2565C21.0821 88.2669 20.2225 88.2148 19.3676 88.0951L19.3582 88.194Z" fill="#87AAD2"/>
<path d="M25.7441 75.6265C32.7058 77.5483 30.6229 85.9546 24.842 87.8713C24.9648 89.3608 28.2331 93.3817 30.1317 91.1525C32.0398 88.9233 34.5761 89.5223 37.646 91.1525C40.7159 92.7879 42.5768 97.1265 45.7507 95.9286L46.119 95.9598C46.4638 95.2931 47.1864 94.8817 48.268 94.8296C50.7948 94.7098 52.6509 98.5744 55.1683 99.1786C57.6904 99.7827 57.6904 96.6421 57.6904 96.6421C57.6904 96.6421 59.9905 99.4181 62.1819 100.022C64.3734 100.626 64.1514 97.6108 64.1514 97.6108C64.1514 97.6108 67.108 99.9025 68.9736 100.147C70.8345 100.387 71.491 97.9754 71.491 97.9754C71.491 97.9754 73.6824 99.6629 76.0912 100.267C78.4999 100.866 79.3784 97.0067 79.3784 97.0067C79.3784 97.0067 83.7944 99.5483 84.3942 98.6629C84.5878 98.3765 84.4556 97.4494 84.0683 96.2306C83.8274 95.4598 83.4874 94.5744 83.067 93.6629C82.0657 91.4963 80.6063 89.1994 78.9675 88.0327C77.3664 86.8817 75.6 86.7879 73.5455 86.6577C71.2123 86.5015 68.506 86.2931 65.2424 84.4494C64.1467 83.8296 63.2635 83.1577 62.522 82.4338C61.4357 81.3869 60.6564 80.2671 59.9952 79.1161C59.0742 77.5327 58.3705 75.9129 57.355 74.4286C56.2499 72.8036 54.6535 71.5952 52.7501 70.7567C46.7094 68.0744 37.5752 69.0171 31.3928 71.6838C28.899 72.7567 26.8823 74.1161 25.7441 75.6265ZM40.3853 82.8817C40.0547 79.0171 43.1199 77.8088 47.9468 78.4129C52.0842 78.9286 54.0773 81.0692 54.0773 84.0848C54.0773 87.1004 51.8905 88.9181 47.3943 88.5588C42.9074 88.1942 40.7207 86.7411 40.3853 82.8817ZM70.2866 91.4494C69.7435 89.1577 72.3694 89.1577 73.6824 89.2775C75.0001 89.4025 77.1869 90.9702 76.861 91.814C76.2612 93.3556 70.8345 93.7515 70.2866 91.4494Z" fill="#87AAD2"/>
<path d="M25.7532 124.319L38.7272 127.465L35.662 130.142L55.3994 134.772L66.8101 132.965L69.5542 127.424L61.1237 120.7H47.2428L31.8128 118.741L25.7532 124.319Z" fill="#9C7C6A"/>
<path d="M47.9467 78.4123C43.1198 77.8082 40.0546 79.0113 40.3852 82.8811C40.7205 86.7405 42.9073 88.1988 47.3941 88.5582C51.8904 88.9228 54.0771 87.105 54.0771 84.0842C54.0771 81.0634 52.084 78.928 47.9467 78.4123Z" fill="black"/>
<path d="M44.0643 110.298L42.723 112.543L50.4828 117.688L47.2429 120.699H61.1237L67.2211 116.694L69.4268 113.496L62.1628 111.11L44.0643 110.298Z" fill="#9C7C6A"/>
<path d="M46.0617 106.959L44.0686 110.298L62.1624 111.11L64.3633 106.99V106.985C59.9567 106.079 55.5313 105.412 53.3115 106.069C51.6915 106.553 49.0277 106.824 46.0617 106.959Z" fill="#9C7C6A"/>
<path d="M46.1234 95.9649C45.6699 96.8399 45.8683 98.1524 46.7421 99.668C48.2723 102.329 48.8202 104.017 50.903 102.928C52.9859 101.84 55.5032 100.152 55.7252 100.996C55.9425 101.84 56.0558 103.533 56.0558 103.533C56.0558 103.533 57.9214 99.9076 59.8909 100.751C61.8604 101.595 63.2867 104.257 63.2867 104.257C63.2867 104.257 66.1347 100.392 67.7783 101.236C69.4171 102.085 70.2956 104.017 70.2956 104.017C70.2956 104.017 73.0302 100.392 74.3527 101.236C75.6609 102.085 76.6528 104.137 76.6528 104.137C76.6528 104.137 78.8395 101.236 80.3745 101.481C81.9047 101.725 83.9876 103.897 82.6746 106.074C82.5565 106.272 82.429 106.465 82.3015 106.647L89.5324 105.819L102.653 100.241L95.7762 96.2409H84.082C84.4646 97.4597 84.5968 98.3868 84.4079 98.6732C83.8034 99.5586 79.3921 97.017 79.3921 97.017C79.3921 97.017 78.5136 100.876 76.1049 100.272C73.6915 99.6732 71.5047 97.9857 71.5047 97.9857C71.5047 97.9857 70.8482 100.397 68.9826 100.158C67.117 99.9128 64.1652 97.6211 64.1652 97.6211C64.1652 97.6211 64.3824 100.637 62.1957 100.033C60.0042 99.4284 57.7041 96.6524 57.7041 96.6524C57.7041 96.6524 57.7041 99.7878 55.182 99.1888C52.6647 98.5847 50.8038 94.7149 48.2818 94.8399C47.186 94.8868 46.4634 95.2982 46.1234 95.9649Z" fill="#9C7C6A"/>
<path d="M53.0095 2.96511C48.4613 0.814065 46.4965 3.57969 45.7125 4.50677C49.2594 2.2099 52.0413 3.16302 53.3826 4.78282C54.6767 2.22552 55.9519 0.933857 60.5049 1.22552C55.6733 -0.88906 53.7888 2.03802 53.0095 2.96511Z" fill="black"/>
<path d="M52.7589 70.7516C54.6623 71.5954 56.2587 72.8037 57.3638 74.4287C58.3746 75.9131 59.083 77.5329 60.004 79.1162C65.5299 74.637 66.7909 53.1162 47.148 51.0693C56.594 53.262 59.9095 67.9548 52.7589 70.7516Z" fill="#87AAD2"/>
<path d="M61.1237 120.7L69.5542 127.424L66.8101 132.965L82.8447 133.283L81.7537 130.689L87.8511 129.283L83.9546 119.127L67.221 116.694L61.1237 120.7Z" fill="#9C7C6A"/>
<path d="M64.3634 106.991L62.1625 111.111L69.4265 113.496L67.2208 116.689L83.9544 119.121L89.5228 115.83L87.9784 112.543L95.7666 111.111L89.5228 105.819L82.2919 106.642C80.9931 108.512 79.1181 109.767 75.4341 109.33C73.3843 109.085 68.8833 107.908 64.3587 106.986V106.991H64.3634Z" fill="#9C7C6A"/>
<path d="M62.5591 82.3975L62.5261 82.4339C63.2676 83.1527 64.1555 83.8245 65.2465 84.4495C68.5101 86.2985 71.2164 86.5068 73.5495 86.6579L79.7178 84.9235L75.8827 82.3975H62.5591Z" fill="#9C7C6A"/>
<path d="M64.1936 23.3141C69.5637 23.2724 72.1377 26.3505 72.6809 29.1474C75.6611 27.1995 77.862 26.6526 82.8306 30.2724C78.6366 24.4078 74.7826 26.3505 73.3468 26.8349C69.4881 21.1214 65.6247 22.8245 64.1936 23.3141Z" fill="black"/>
<path d="M73.6816 89.2777C72.3686 89.1579 69.7379 89.1579 70.2811 91.4496C70.8289 93.7465 76.2556 93.3559 76.8507 91.8142C77.1861 90.9704 74.9993 89.4027 73.6816 89.2777Z" fill="black"/>
<path d="M79.7232 84.9235L73.555 86.6579C75.6095 86.7933 77.3759 86.887 78.977 88.0329L88.371 88.1527L92.3856 87.4912L95.772 82.3975H75.8882L79.7232 84.9235Z" fill="#9C7C6A"/>
<path d="M88.3657 88.152L78.9717 88.0322C80.6106 89.2041 82.07 91.4958 83.0713 93.6624L92.0024 91.5739L88.3657 88.152Z" fill="#9C7C6A"/>
<path d="M81.7534 130.689L82.8444 133.283L96.7442 135.955L99.0962 134.856L104.07 128.996L113.152 127.424L103.81 116.981L89.5227 115.835L83.9543 119.127L87.8508 129.283L81.7534 130.689Z" fill="#9C7C6A"/>
<path d="M92.3803 87.4909L88.3658 88.1523L92.0025 91.5794L83.0713 93.668C83.4869 94.5794 83.8317 95.4648 84.0726 96.2357H95.7667L108.226 92.319L111.858 88.7461L108.882 88.4128L95.7667 86.9336L92.3803 87.4909Z" fill="#9C7C6A"/>
<path d="M87.979 112.543L89.5235 115.834L103.811 116.98L106.668 114.975L121.904 115.834L114.961 106.73H114.957L111.858 102.668L104.458 101.954L102.644 100.235L89.5235 105.819L95.7673 111.11L87.979 112.543Z" fill="#9C7C6A"/>
<path d="M96.3763 10.1837C90.6048 10.6576 89.3013 14.9545 88.6873 16.5639C92.7065 11.2201 97.1462 11.0066 99.8335 12.5743C99.9233 12.0222 100.013 11.491 100.122 10.9962C100.891 7.51178 102.559 5.29303 108.406 3.38678C100.471 3.10553 99.144 8.39199 98.4591 10.1732C97.7082 10.1264 97.0139 10.1316 96.3763 10.1837Z" fill="black"/>
<path d="M95.7671 82.3975L92.3807 87.4912L95.7671 86.9339L108.883 88.4131C108.713 88.3923 104.462 82.3975 104.462 82.3975H95.7671Z" fill="#9C7C6A"/>
<path d="M95.7665 96.2354L102.643 100.235L104.457 101.954L111.858 102.668L113.152 100.345L109.647 97.6624L113.152 96.2354L108.221 92.3135L95.7665 96.2354Z" fill="#9C7C6A"/>
<mask id="mask0_6068_9609" style="mask-type:luminance" maskUnits="userSpaceOnUse" x="97" y="127" width="41" height="19">
<path d="M137.82 127.251H97.92V145.61H137.82V127.251Z" fill="white"/>
</mask>
<g mask="url(#mask0_6068_9609)">
<path d="M104.07 128.996L99.0966 134.855L101.803 139.496L108.859 138.944L112.642 142.871L131.954 144.605L137.088 135.876C137.088 135.876 125.739 127.423 125.215 127.423C124.7 127.423 113.152 127.423 113.152 127.423L104.07 128.996Z" fill="#9C7C6A"/>
</g>
<path d="M103.81 116.98L113.152 127.423C113.152 127.423 124.7 127.423 125.215 127.423L130.703 126.418L133.362 123.126H142.09L144.811 118.412L139.1 112.688L130.703 113.501L127.232 115.834H121.909L106.672 114.975L103.81 116.98Z" fill="#9C7C6A"/>
<path d="M127.812 82.3975H104.462C104.462 82.3975 108.712 88.3923 108.882 88.4131L111.858 88.7464L124.827 89.8818V85.46H130.703L127.812 82.3975Z" fill="#9C7C6A"/>
<path d="M108.221 92.3138L113.152 96.2357L131.449 97.6628L135.601 93.8711L130.018 89.6784L124.827 89.8763L111.858 88.7461L108.221 92.3138Z" fill="#9C7C6A"/>
<path d="M109.648 97.6624L113.152 100.345L111.858 102.668L114.956 106.73H114.961L122.494 107.819L124.44 104.813H127.812L135.601 101.022L131.449 97.6624L113.152 96.2354L109.648 97.6624Z" fill="#9C7C6A"/>
<path d="M114.961 106.73L121.904 115.834H127.227L130.703 113.496L139.101 112.683L145.208 111.162L142.086 107.819H133.853L127.813 104.813H124.441L122.495 107.819L114.961 106.73Z" fill="#9C7C6A"/>
<path d="M124.827 85.46V89.8766L130.018 89.6787L135.6 93.8714H147.795L149.221 90.512L142.212 89.8766L139.1 87.6683L132.091 86.9339L130.702 85.46H124.827Z" fill="#9C7C6A"/>
<path d="M130.703 126.418L125.215 127.423C125.739 127.423 137.088 135.876 137.088 135.876L142.288 135.48L145.424 131.704L137.797 127.418L135.076 123.121H133.357L130.703 126.418Z" fill="#9C7C6A"/>
<path d="M127.812 82.3975L130.702 85.46L132.091 86.9339L139.1 87.6683L142.212 89.8766L149.221 90.512L158.171 86.6266L153.373 82.3975H127.812Z" fill="#9C7C6A"/>
<path d="M127.812 104.814L133.853 107.819H142.085L146.109 105.241C146.109 105.241 148.314 105.241 148.508 105.241C148.706 105.241 151.946 103.236 151.946 103.236L146.113 101.022H135.605L127.812 104.814Z" fill="#9C7C6A"/>
<path d="M131.449 97.6628L135.6 101.022H146.109L152.721 97.6628L147.795 93.8711H135.6L131.449 97.6628Z" fill="#9C7C6A"/>
<path d="M135.076 123.127L137.802 127.424L145.429 131.71L150.776 133.283L159.395 130.924L155.319 126.137L159.083 121.84L151.942 119.262L144.806 118.413L142.085 123.127H135.076Z" fill="#9C7C6A"/>
<path d="M129.475 30.3031C121.88 20.8239 111.683 13.9333 100.121 10.9958C100.013 11.4906 99.9229 12.0218 99.8332 12.5739C97.1458 11.0062 92.7015 11.2249 88.6869 16.5635C89.3009 14.9541 90.5997 10.6572 96.3759 10.1833C93.476 9.67285 90.4911 9.40723 87.4542 9.40723C67.3154 9.40723 49.6561 21.1156 39.7756 38.6989C39.7709 38.6989 39.7709 38.7041 39.7709 38.7041C38.7555 40.5062 37.8297 42.3656 36.9891 44.2822L36.9843 44.2874C33.409 52.4281 31.397 61.5687 31.397 71.2197C31.397 71.376 31.397 71.5322 31.4018 71.6781C37.5841 69.0114 46.7137 68.0687 52.7591 70.751V70.7458C59.9145 67.9489 56.5942 53.2562 47.1482 51.0635C66.7864 53.1104 65.5254 74.6312 59.9995 79.1104C60.6607 80.2614 61.44 81.3812 62.5263 82.4333L62.5593 82.3916H142.6C143.2 78.7666 143.516 75.0322 143.516 71.2197C143.516 64.4124 142.52 57.8708 140.678 51.7458C140.068 49.7093 139.365 47.7249 138.576 45.7979V45.7926L137.948 45.7301L138.576 45.251L138.08 44.6312C135.813 39.4124 132.913 34.5999 129.475 30.3031ZM72.6807 29.1468C72.1376 26.3499 69.5635 23.2718 64.1935 23.3135C65.6246 22.8239 69.488 21.1208 73.3466 26.8343C74.7777 26.3499 78.6364 24.4072 82.8304 30.2718C77.8618 26.652 75.6609 27.2041 72.6807 29.1468Z" fill="#F9CA06"/>
<path d="M139.1 112.684L144.806 118.413L151.942 119.262L159.083 121.84L167.519 118.413L159.395 113.496L146.624 112.684L145.207 111.163L139.1 112.684Z" fill="#9C7C6A"/>
<path d="M145.207 111.162L146.624 112.683L159.395 113.496L161.412 111.897L167.514 111.11C167.514 111.11 172.567 108.105 172.185 107.819C171.798 107.532 166.602 103.235 166.602 103.235H151.937C151.937 103.235 148.697 105.241 148.499 105.241C148.305 105.241 146.1 105.241 146.1 105.241L142.076 107.819L145.207 111.162Z" fill="#9C7C6A"/>
<path d="M146.109 101.022L151.942 103.236H166.607L169.072 101.022L162.843 97.4443L152.721 97.6631L146.109 101.022Z" fill="#9C7C6A"/>
<path d="M149.222 90.5114L147.796 93.8708L152.722 97.6624L162.843 97.4437L165.313 94.5114H173.876L169.724 89.6781H161.549L158.172 86.626L149.222 90.5114Z" fill="#9C7C6A"/>
<path d="M153.374 82.3975L158.172 86.6266L161.549 89.6787H169.725L173.876 86.9339H180.875L176.464 82.3975H153.374Z" fill="#9C7C6A"/>
<path d="M159.083 121.84L155.319 126.137L159.395 130.924L166.886 135.481L173.295 135.012L176.932 136.507L186.628 136.116L191.261 130.689L188.404 128.424L188.928 126.278L182.831 121.293L178.282 121.84L167.519 118.413L159.083 121.84Z" fill="#9C7C6A"/>
<path d="M159.395 113.496L167.514 118.408L178.278 121.84L182.826 121.293L186.581 120.845L192.423 114.574H196.839L194.175 109.824H188.399L186.581 108.371L172.185 107.824C172.567 108.111 167.514 111.111 167.514 111.111L161.412 111.902L159.395 113.496Z" fill="#9C7C6A"/>
<path d="M165.313 94.5117L162.842 97.444L169.072 101.022H174.522L175.949 97.444L173.875 94.5117H165.313Z" fill="#9C7C6A"/>
<path d="M169.073 101.022L166.607 103.236C166.607 103.236 171.798 107.533 172.185 107.819L186.585 108.366L192.428 104.424L189.051 101.022L182.821 100.345L179.836 97.4443H175.944L174.518 101.022H169.073Z" fill="#9C7C6A"/>
<path d="M169.724 89.6784L173.875 94.5117L175.948 97.444H182.306L184.251 93.668H191.775L197.613 90.5117L194.76 87.668L180.875 86.9336H173.875L169.724 89.6784Z" fill="#9C7C6A"/>
<path d="M176.463 82.3975L180.875 86.9339L194.76 87.6683L200.603 82.3975H176.463Z" fill="#9C7C6A"/>
<path d="M179.841 97.444L182.826 100.345L189.055 101.022L191.776 97.444H193.075L195.54 96.2357L191.776 93.668H184.252L182.306 97.444H179.841Z" fill="#9C7C6A"/>
<mask id="mask1_6068_9609" style="mask-type:luminance" maskUnits="userSpaceOnUse" x="182" y="113" width="33" height="19">
<path d="M214.984 113.918H182.556V131.251H214.984V113.918Z" fill="white"/>
</mask>
<g mask="url(#mask1_6068_9609)">
<path d="M182.83 121.293L188.927 126.277L188.403 128.423L191.261 130.689H202.945L204.948 127.23L214.214 123.767L208.934 117.72L205.297 114.574H192.427L186.585 120.845L182.83 121.293Z" fill="#9C7C6A"/>
</g>
<path d="M186.585 108.366L188.404 109.824H194.18L196.839 114.574H205.298L212.859 110.954L202.809 104.043L197.614 103.235L192.428 104.423L186.585 108.366Z" fill="#9C7C6A"/>
<path d="M191.776 97.4437L189.055 101.022L192.427 104.423L197.613 103.235L202.809 104.043L208.434 101.215L200.452 96.9697L195.54 96.2354L193.074 97.4437H191.776Z" fill="#9C7C6A"/>
<path d="M191.776 93.668L195.54 96.2357L200.452 96.9701L209.223 94.5326L208.443 90.5117H197.614L191.776 93.668Z" fill="#9C7C6A"/>
<path d="M194.761 87.6683L197.614 90.512H208.443L207.867 87.5329L211.357 86.9079L212.859 82.3975H200.603L194.761 87.6683Z" fill="#9C7C6A"/>
<path d="M60.2501 79.4964C63.0697 77.2152 65.0534 70.5433 63.3531 63.7568C62.2479 59.3558 58.6821 51.7985 47.1863 50.6006L47.0541 51.5329C52.5894 52.8089 55.8813 58.5537 56.1694 63.3037C56.3725 66.736 55.0454 69.3558 52.613 70.3037L52.8964 71.1891C55.7113 70.0902 57.2557 67.1162 57.0196 63.236C56.7834 59.3141 54.6345 54.762 50.9458 52.2464C58.9135 54.4495 61.6103 60.3662 62.5219 64.0016C64.0805 70.2048 62.3424 76.6266 59.74 78.7308L60.2501 79.4964Z" fill="black"/>
<path d="M79.6611 43.8086H17.2326V44.7565H79.6611V43.8086Z" fill="black"/>
<path d="M65.5112 38.2305H28.006V39.1732H65.5112V38.2305Z" fill="black"/>
<path d="M84.8101 32.2823L83.1665 29.9854C79.0716 24.251 75.1893 25.6677 73.5316 26.2771C73.5221 26.2823 73.5127 26.2823 73.4985 26.2875C69.7012 20.876 65.9086 22.2198 64.2745 22.7927L61.3037 23.8083L64.1942 23.7823C64.2273 23.7823 64.265 23.7823 64.2981 23.7823C69.3848 23.7823 71.7652 26.7198 72.2611 29.2458L72.3839 29.8865L72.8987 29.5531C75.9356 27.5687 77.957 27.2875 82.5903 30.6677L84.8101 32.2823ZM76.7904 27.1521C75.4585 27.1521 74.2589 27.6312 72.9506 28.4333C72.3083 26.2562 70.4758 23.9698 67.0894 23.1573C67.0941 23.1573 67.0941 23.1573 67.0988 23.1573C68.7661 23.1573 70.8536 23.9385 73.0026 27.1208L73.1821 27.3865L73.4702 27.2875C73.5693 27.251 73.678 27.2094 73.796 27.1677C75.0807 26.699 77.4705 25.8187 80.276 28.1208C78.9583 27.4542 77.8342 27.1521 76.7904 27.1521Z" fill="black"/>
<path d="M87.1712 19.3138L89.0178 16.8659C91.4455 13.6368 95.6867 10.6888 99.6399 12.9857L100.159 13.2878L100.259 12.6472C100.325 12.2097 100.414 11.642 100.537 11.1055C101.26 7.83988 102.748 5.71488 108.524 3.83468L111.074 3.00655L108.42 2.9128C100.717 2.64717 98.9597 7.51176 98.2088 9.59509C98.1993 9.62634 98.1899 9.65759 98.1757 9.68363C97.5287 9.65759 96.9147 9.66801 96.3432 9.71488C90.5953 10.1888 89.0462 14.3503 88.385 16.1263L87.1712 19.3138ZM96.6455 11.267C94.7232 11.267 92.5081 12.0326 90.3308 14.0586C91.3368 12.4961 93.0938 10.9284 96.4141 10.6524C97.0422 10.6003 97.7176 10.6003 98.4402 10.642L98.7378 10.6628L98.8558 10.3607C98.9031 10.2357 98.955 10.1003 99.007 9.94926C99.6304 8.22009 100.816 4.92322 105.383 4.05863C101.572 5.83988 100.348 7.99614 99.706 10.8816C99.6351 11.2149 99.569 11.5638 99.5123 11.8816C98.6764 11.4961 97.7082 11.267 96.6455 11.267Z" fill="black"/>
<path d="M43.4078 6.54782L45.9252 4.91761C49.2832 2.74053 51.8667 3.65198 53.0569 5.0999L53.4583 5.58428L53.7464 5.01136C54.8894 2.75094 55.919 1.40199 60.472 1.69365L63.1216 1.86553L60.6515 0.787402C55.9237 -1.28552 53.8031 1.26136 52.8869 2.40199C48.4661 0.459277 46.3266 3.05824 45.5095 4.04782L45.3915 4.18844L43.4078 6.54782ZM56.8872 0.969694C55.135 1.41761 54.1573 2.43844 53.2789 4.02699C52.2965 3.11032 50.804 2.48532 48.9573 2.73011C49.9397 2.52178 51.2008 2.63115 52.8349 3.40199L53.1088 3.5374L53.3167 3.29261C53.3733 3.2249 53.4347 3.15199 53.4961 3.06865C54.0723 2.36553 55.05 1.15199 56.8872 0.969694Z" fill="black"/>
<path d="M22.4096 88.7406C23.2692 88.7406 24.1335 88.6051 24.9694 88.3239C28.2283 87.2458 30.6323 83.9749 30.5615 80.7301C30.5001 78.0062 28.7856 75.9801 25.8432 75.1729L25.7487 75.1416L25.6543 75.1676C19.4105 76.5687 12.0757 73.6468 8.609 68.3551C6.11526 64.5531 5.98301 60.0583 8.23588 55.7093L9.19937 53.8447L7.61717 55.0895C1.51034 59.8916 -1.05424 65.9801 0.395715 72.2406C2.24713 80.2458 10.5596 87.4176 19.3207 88.5739C20.185 88.6885 21.0682 88.7406 21.9373 88.7301C22.0931 88.7354 22.249 88.7406 22.4096 88.7406ZM25.7346 76.1104C28.2141 76.8239 29.6594 78.5114 29.7113 80.751C29.7727 83.5895 27.6285 86.4541 24.7238 87.4229C23.8312 87.7197 22.9008 87.8395 21.9562 87.7822C21.0966 87.7979 20.2512 87.7458 19.4199 87.6312C10.9894 86.5218 2.99808 79.6572 1.22696 72.0062C0.329592 68.1468 0.631865 62.5322 6.68202 57.0583C5.14232 61.1676 5.55794 65.3187 7.91472 68.902C11.5514 74.4437 19.1932 77.5322 25.7346 76.1104Z" fill="black"/>
<path d="M76.8513 109.897C79.4112 109.897 81.2248 108.949 82.6323 106.934C82.7645 106.741 82.892 106.543 83.0196 106.335C83.5674 105.423 83.6572 104.387 83.2604 103.413C82.7031 102.043 81.409 101.168 80.4219 101.017C79.0711 100.803 77.4559 102.465 76.7049 103.345C76.2987 102.642 75.5147 101.455 74.5512 100.835C73.2524 100.001 71.2546 102.116 70.3478 103.22C69.9369 102.538 69.1292 101.428 67.9438 100.814C66.3852 100.012 64.2126 102.382 63.3152 103.481C62.7721 102.621 61.5725 100.975 60.0328 100.319C58.5214 99.6681 57.1328 101.111 56.3488 102.21C56.2922 101.741 56.2166 101.231 56.1221 100.866C56.0702 100.642 55.9285 100.47 55.7348 100.371C55.1161 100.08 54.0157 100.663 52.1218 101.731C51.6495 101.996 51.1724 102.267 50.7096 102.501C49.3021 103.236 48.8771 102.621 47.6349 100.376C47.4696 100.074 47.2901 99.7514 47.0965 99.4129C46.3314 98.0952 46.1094 96.9233 46.4825 96.1941C46.8367 95.5118 47.6538 95.34 48.282 95.3035C49.491 95.2462 50.5679 96.2722 51.7203 97.3556C52.7546 98.3295 53.8173 99.34 55.0736 99.6368C55.9096 99.84 56.5991 99.6993 57.1281 99.2254C57.6146 98.7931 57.8602 98.1681 57.983 97.6368C58.8378 98.5275 60.4626 100.033 62.0684 100.475C62.7863 100.673 63.3719 100.564 63.8159 100.152C64.2882 99.7097 64.4724 99.0222 64.5432 98.465C65.5398 99.1733 67.4904 100.428 68.9167 100.616C70.3572 100.798 71.264 99.6368 71.6891 98.6785C72.4684 99.215 74.1545 100.267 75.9917 100.725C77.9612 101.215 79.1514 99.1941 79.6285 97.6837C81.7018 98.8347 84.1011 99.8764 84.7293 98.9441C84.8379 98.7827 85.1685 98.3035 84.4695 96.0795C84.2145 95.2618 83.8603 94.3556 83.4446 93.4545C82.7267 91.9077 81.2248 89.0847 79.1987 87.6368C77.5362 86.4493 75.7603 86.3295 73.7011 86.1941L73.5736 86.1889C71.3916 86.0379 68.6758 85.8608 65.4359 84.0275C64.4204 83.4493 63.5561 82.8087 62.8004 82.0795C61.8842 81.1993 61.1285 80.2045 60.3492 78.8608C60.0044 78.267 59.6833 77.6577 59.3763 77.0639C58.8615 76.09 58.3372 75.0795 57.6949 74.142C56.5944 72.5222 54.9792 71.2358 52.9058 70.3191C46.5959 67.517 37.2254 68.6629 31.2367 71.2462C28.5682 72.392 26.5562 73.8087 25.4085 75.3347L26.065 75.9337C27.1182 74.5327 29.0122 73.2202 31.5484 72.1264C37.3813 69.616 46.4778 68.491 52.5893 71.2045C54.5163 72.0535 56.0041 73.2358 57.01 74.715C57.6193 75.6108 58.1152 76.5535 58.6348 77.5431C58.9512 78.1472 59.2771 78.767 59.6313 79.3764C60.4437 80.7827 61.2702 81.866 62.2384 82.7983C63.046 83.5795 63.9623 84.2566 65.0439 84.8712C68.4444 86.7931 71.2593 86.9806 73.5216 87.1316L73.6491 87.142C75.5903 87.267 77.2622 87.3764 78.7358 88.4337C80.096 89.4025 81.5318 91.392 82.6842 93.8868C83.0857 94.7514 83.421 95.616 83.6619 96.392C84.0444 97.616 84.0681 98.2045 84.0444 98.3764C83.591 98.5483 81.5413 97.7358 79.5671 96.6004L79.0853 96.3243L78.9531 96.9025C78.9436 96.9337 78.1454 100.319 76.1759 99.8139C73.8806 99.241 71.7505 97.616 71.7269 97.5952L71.2404 97.2202L71.0704 97.84C71.0468 97.9233 70.4895 99.8764 69.0112 99.6837C67.2778 99.4597 64.4204 97.2514 64.3874 97.2254L63.6459 96.6472L63.7167 97.6472C63.745 98.0014 63.7072 99.017 63.2633 99.4337C63.0366 99.642 62.7154 99.6837 62.2762 99.5691C60.2359 99.0066 58.016 96.3504 57.9924 96.3243L57.2509 95.4285V96.642C57.2509 96.6525 57.2368 97.9181 56.585 98.4962C56.2638 98.7827 55.8246 98.8556 55.2531 98.7202C54.2046 98.465 53.2222 97.5379 52.2729 96.642C51.0449 95.4858 49.7744 94.2879 48.2395 94.3608C46.7139 94.4337 46.0338 95.142 45.7363 95.7254C45.1884 96.7775 45.4151 98.267 46.3691 99.9129C46.5628 100.246 46.7375 100.564 46.9028 100.866C48.06 102.965 48.9007 104.481 51.0732 103.35C51.5408 103.111 52.0273 102.835 52.5043 102.564C53.4536 102.027 54.8658 101.241 55.3192 101.231C55.5034 102.053 55.6073 103.548 55.6073 103.564L55.7112 105.111L56.4055 103.762C56.4244 103.731 58.1388 100.517 59.7163 101.194C61.5252 101.965 62.8855 104.47 62.8996 104.496L63.2161 105.08L63.6033 104.553C64.6188 103.173 66.6072 101.163 67.5801 101.663C69.0631 102.428 69.8896 104.21 69.8944 104.225L70.1872 104.866L70.6075 104.314C71.6183 102.975 73.4319 101.205 74.112 101.642C75.3069 102.408 76.2421 104.335 76.2515 104.35L76.5538 104.97L76.96 104.428C77.7487 103.387 79.3545 101.793 80.2944 101.939C81.0406 102.059 82.0608 102.777 82.467 103.788C82.7503 104.475 82.689 105.147 82.2969 105.798C82.1789 105.986 82.0655 106.173 81.938 106.35C80.8989 107.84 79.312 109.314 75.4628 108.85C74.2726 108.71 72.1992 108.236 69.7999 107.689C68.1516 107.314 66.2766 106.887 64.4204 106.507C58.6631 105.324 55.0925 105.038 53.1891 105.606C51.7439 106.033 49.3352 106.33 46.0291 106.481C40.404 106.741 34.2216 106.517 31.6429 106.314C30.5755 106.231 29.2011 105.564 27.7795 104.444C22.0316 99.9233 19.3631 92.715 19.7693 88.2306L18.9191 88.1368C18.3429 94.4962 22.7967 101.678 27.2835 105.205C28.8563 106.449 30.344 107.152 31.5815 107.251C34.8356 107.512 41.018 107.658 46.0622 107.418C49.4344 107.262 51.8998 106.96 53.4064 106.512C55.1634 105.991 58.715 106.298 64.2646 107.439C66.1065 107.819 67.9768 108.241 69.6252 108.616C72.0481 109.163 74.1356 109.642 75.3683 109.788C75.902 109.861 76.3885 109.897 76.8513 109.897Z" fill="black"/>
<path d="M48.5039 89.0747C50.6198 89.0747 52.2162 88.5382 53.2505 87.4757C54.0865 86.6215 54.5068 85.4861 54.5068 84.0851C54.5068 80.6476 52.1926 78.4653 47.9986 77.9392C44.6027 77.5122 42.246 77.9913 40.9802 79.3611C40.182 80.2257 39.8372 81.4288 39.9647 82.9236C40.3001 86.8611 42.4443 88.6267 47.3704 89.0278C47.7624 89.059 48.1402 89.0747 48.5039 89.0747ZM47.8994 78.882C51.6116 79.3455 53.652 81.1945 53.652 84.0903C53.652 85.2153 53.3214 86.1215 52.6696 86.7882C51.6541 87.8351 49.8358 88.2882 47.4318 88.0955C42.9024 87.7257 41.1124 86.3038 40.8149 82.8455C40.7157 81.6267 40.9613 80.7101 41.58 80.0434C42.6332 78.8924 44.8153 78.4965 47.8994 78.882Z" fill="black"/>
<path d="M73.5356 93.5484C75.1508 93.5484 76.8558 93.0172 77.2478 92.0015C77.3328 91.7828 77.3801 91.4286 77.1345 90.9703C76.6055 90.0068 74.8816 88.9182 73.715 88.8088C71.925 88.6474 70.7254 88.9495 70.1492 89.7047C69.7855 90.189 69.691 90.814 69.8705 91.5693C70.1303 92.6682 71.2544 93.3818 72.9546 93.5172C73.1483 93.538 73.3419 93.5484 73.5356 93.5484ZM76.4638 91.6318C76.2466 92.1786 74.6974 92.7151 73.0208 92.5797C71.7314 92.4755 70.8623 92.0068 70.7018 91.3297C70.5931 90.887 70.6262 90.5484 70.8104 90.314C71.1835 89.8245 72.2178 89.6213 73.6489 89.7463C74.466 89.8245 75.7837 90.5901 76.3032 91.2984C76.4402 91.4859 76.4638 91.6005 76.4638 91.6318Z" fill="black"/>
<mask id="mask2_6068_9609" style="mask-type:luminance" maskUnits="userSpaceOnUse" x="14" y="81" width="201" height="65">
<path d="M214.984 81.918H14.4934V145.611H214.984V81.918Z" fill="white"/>
</mask>
<g mask="url(#mask2_6068_9609)">
<path d="M132.171 145.09L137.334 136.335L142.486 135.939L145.566 132.236L150.771 133.772L150.879 133.741L159.338 131.429L166.786 135.96L173.238 135.486L176.86 136.981L176.945 136.976L186.816 136.575L191.445 131.158H203.182L205.227 127.621L214.984 123.976L209.199 117.351L206.129 114.694L213.775 111.033L203.706 104.106L209.444 101.22L201.699 97.1058L209.728 94.8766L208.377 87.9183L211.674 87.3298L213.468 81.9287H62.5593V82.8714H212.245L211.045 86.486L207.352 87.1475L208.717 94.1839L199.205 96.8245L207.428 101.2L201.906 103.976L211.938 110.882L204.476 114.455L208.646 118.069L213.44 123.559L204.665 126.835L202.714 130.215H191.077L186.434 135.653L177.002 136.033L173.361 134.533L166.98 135.002L159.456 130.424L150.78 132.799L145.287 131.179L142.09 135.028L136.847 135.424L131.737 144.111L112.826 142.413L109.019 138.46L102.029 139.002L99.2616 134.267L96.6923 135.465L82.854 132.809L66.7816 132.496L66.7486 132.502L55.4181 134.293L36.6395 129.887L39.7 127.22L26.6976 124.069L32.743 118.502L24.1661 116.262L16.4582 109.351L19.5092 107.434L22.8342 107.746L27.7225 105.262L27.3683 104.403L22.6783 106.783L19.3156 106.465L14.9515 109.21L23.7788 117.132L30.8822 118.986L24.8131 124.575L37.7541 127.715L34.6842 130.392L55.3898 135.252L66.8383 133.439L82.8067 133.757L96.7962 136.444L98.931 135.444L101.585 139.986L108.708 139.424L112.458 143.33L132.171 145.09Z" fill="black"/>
</g>
<path d="M136.853 136.267L137.33 135.486C125.872 126.949 125.376 126.949 125.215 126.949L113.082 126.954L103.858 128.553L98.7805 134.527L99.404 135.173L104.278 129.434L113.181 127.887H125.158C125.976 128.257 132.725 133.194 136.853 136.267Z" fill="black"/>
<path d="M67.1877 133.194L70.1112 127.288L61.9027 120.741L67.3105 117.184L84.0393 119.611L89.6124 116.314L103.621 117.439L112.845 127.757L113.454 127.09L104.003 116.522L89.4282 115.351L83.874 118.637L67.131 116.2L60.3441 120.663L69.0013 127.564L66.4367 132.746L67.1877 133.194Z" fill="black"/>
<path d="M47.2143 121.168H61.1235V120.226H47.2663L31.8646 118.272L31.7654 119.21L47.2143 121.168Z" fill="black"/>
<path d="M47.5167 121.059L51.2148 117.626L43.3227 112.392L46.421 107.22L45.7078 106.699L42.1184 112.694L49.746 117.757L46.9642 120.34L47.5167 121.059Z" fill="black"/>
<path d="M62.3991 111.59L64.7275 107.236L63.9908 106.757L61.9221 110.627L44.0786 109.83L44.0597 110.299V110.772L62.3991 111.59Z" fill="black"/>
<path d="M67.5614 116.98L70.1401 113.241L62.2811 110.657L62.0355 111.558L68.7138 113.756L66.8813 116.402L67.5614 116.98Z" fill="black"/>
<path d="M89.1402 116.048L89.9007 115.616L88.6302 112.902L96.8057 111.397L89.6503 105.329L82.2494 106.178L82.3344 107.11L89.4 106.308L94.7275 110.824L87.3313 112.183L89.1402 116.048Z" fill="black"/>
<path d="M89.6785 106.257L103.668 100.303L95.8703 95.7617H84.0723V96.7044H95.6578L101.609 100.168L89.3715 105.382L89.6785 106.257Z" fill="black"/>
<path d="M95.8851 96.6833L108.429 92.7406L112.864 88.3864L95.7529 86.4541L87.379 87.8395L91.0677 91.3187L82.9866 93.2093L83.1614 94.126L92.9427 91.8447L89.3627 88.4645L95.7765 87.4072L110.848 89.1051L108.009 91.8916L95.649 95.777L95.8851 96.6833Z" fill="black"/>
<path d="M88.3755 87.6885L78.9815 87.5635L78.972 88.5062L88.366 88.6312L88.3755 87.6885Z" fill="black"/>
<path d="M73.6585 87.1107L80.8232 85.1055L76.105 81.9961L75.6657 82.8034L78.6176 84.7513L73.4459 86.1992L73.6585 87.1107Z" fill="black"/>
<path d="M96.1113 82.6676L95.4218 82.1104L91.9173 87.376L92.6116 87.9333L96.1113 82.6676Z" fill="black"/>
<path d="M149.288 90.9909L159.017 86.7721L153.638 82.0273L153.104 82.7669L157.331 86.4909L149.155 90.0326L142.354 89.418L139.242 87.2044L132.28 86.4753L128.11 82.0586L127.515 82.7409L131.902 87.3867L138.954 88.1263L142.071 90.3346L149.288 90.9909Z" fill="black"/>
<path d="M125.257 90.3864V85.9281H130.703V84.9854H124.397V89.3656L111.886 88.277L111.825 89.2145L125.257 90.3864Z" fill="black"/>
<path d="M108.84 88.8812L108.925 87.9385L108.882 88.4124L109.133 88.0322C108.835 87.7406 106.313 84.2458 104.802 82.1104L104.126 82.6937C108.49 88.8395 108.609 88.8551 108.84 88.8812Z" fill="black"/>
<path d="M131.59 98.1471L136.309 93.8346L130.145 89.1992L124.813 89.4076L124.841 90.3503L129.895 90.1523L134.887 93.9076L131.302 97.1784L113.303 95.7721L108.467 91.9336L107.971 92.6992L113.001 96.694L113.119 96.7044L131.59 98.1471Z" fill="black"/>
<path d="M135.458 101.496H146.203L153.576 97.7464L147.927 93.3975H135.6V94.3402H147.658L151.866 97.5745L146.014 100.554H135.737L131.699 97.2829L131.193 98.0433L135.458 101.496Z" fill="black"/>
<path d="M149.604 90.7096L148.83 90.3086L147.404 93.6732L148.178 94.0742L149.604 90.7096Z" fill="black"/>
<path d="M152.731 98.1367L163.032 97.9128L165.497 94.9805H174.872L169.908 89.2044H161.7L158.446 86.2617L157.902 86.9909L161.393 90.1471H169.54L172.879 94.0378H165.124L162.654 96.9805L152.712 97.194L152.731 98.1367Z" fill="black"/>
<path d="M169.942 90.0798L173.994 87.4027H181.966L176.757 82.0537L176.171 82.7464L179.794 86.4548H173.758L169.502 89.2673L169.942 90.0798Z" fill="black"/>
<path d="M194.907 88.1468L200.877 82.7614L200.334 82.0322L194.619 87.1885L180.899 86.4541L180.861 87.402L194.907 88.1468Z" fill="black"/>
<path d="M175.737 97.9176H182.552L184.503 94.1364H191.875L198.374 90.626L195.049 87.3135L194.478 88.0166L196.863 90.3916L191.677 93.1937H184.002L182.061 96.9749H176.157L174.211 94.2249L173.536 94.8031L175.737 97.9176Z" fill="black"/>
<path d="M151.876 103.71H166.758L169.847 100.939L163.041 97.0273L162.644 97.8659L168.298 101.111L166.456 102.767H152.017L146.246 100.579L145.967 101.47L151.876 103.71Z" fill="black"/>
<path d="M133.759 108.287H142.194L146.223 105.715H148.504C148.631 105.715 148.815 105.715 152.15 103.652L151.734 102.829C150.341 103.694 148.768 104.626 148.442 104.772H145.991L141.967 107.35H133.943L128.861 104.819L135.771 101.459L135.431 100.595L126.764 104.813L133.759 108.287Z" fill="black"/>
<path d="M112.08 103.168L113.729 100.215L110.569 97.7878L113.299 96.6732L113.001 95.793L108.732 97.5326L112.576 100.475L111.632 102.173L104.632 101.496L102.918 99.8763L102.365 100.595L104.287 102.408L112.08 103.168Z" fill="black"/>
<path d="M104.037 117.377L106.786 115.455L122.868 116.361L115.287 106.429L114.631 107.038L120.945 115.309L106.554 114.496L103.579 116.58L104.037 117.377Z" fill="black"/>
<path d="M115.282 106.429L112.179 102.366L111.527 102.976L114.626 107.038L115.282 106.429Z" fill="black"/>
<path d="M122.693 108.319L124.658 105.288H127.812V104.34H124.218L122.291 107.314L114.961 106.262L114.957 106.751L114.905 107.199L122.693 108.319Z" fill="black"/>
<path d="M125.285 127.887L130.92 126.856L133.551 123.601H142.321L145.363 118.325L139.251 112.194L130.566 113.038L127.113 115.361H121.904V116.304H127.349L130.84 113.96L138.949 113.174L144.258 118.491L141.849 122.658H133.168L130.485 125.981L125.148 126.96L125.285 127.887Z" fill="black"/>
<path d="M145.236 132.126L145.623 131.287L138.09 127.053L135.431 122.86L134.727 123.397L137.509 127.787L145.236 132.126Z" fill="black"/>
<path d="M159.083 131.246L159.707 130.6L155.91 126.136L159.863 121.626L151.99 118.798L144.853 117.938L144.763 118.876L151.853 119.73L158.299 122.058L154.724 126.131L159.083 131.246Z" fill="black"/>
<path d="M159.23 122.283L168.543 118.491L159.518 113.033L146.808 112.225L142.383 107.48L141.788 108.152L146.44 113.142L159.277 113.965L166.489 118.324L158.932 121.397L159.23 122.283Z" fill="black"/>
<path d="M139.195 113.142L145.523 111.569L145.33 110.647L145.113 110.705L139.006 112.226L139.195 113.142Z" fill="black"/>
<path d="M159.649 113.881L161.576 112.35L167.646 111.569L167.721 111.527C172.6 108.626 172.619 108.162 172.633 107.886C172.642 107.704 172.567 107.532 172.425 107.428C172.109 107.199 168.302 104.058 166.862 102.86L166.351 103.616C166.536 103.767 170.319 106.897 171.575 107.912C170.89 108.47 169.044 109.668 167.386 110.647L161.255 111.438L159.149 113.116L159.649 113.881Z" fill="black"/>
<path d="M169.073 101.496H174.802L176.341 97.6312L175.557 97.251L174.244 100.553H169.073V101.496Z" fill="black"/>
<path d="M208.443 90.0381H197.614V90.9808H208.443V90.0381Z" fill="black"/>
<path d="M200.395 97.4333L200.508 96.501L195.691 95.777L191.997 93.2666L191.554 94.0687L195.393 96.6833L200.395 97.4333Z" fill="black"/>
<path d="M189.234 101.517L191.974 97.9183H193.169L195.714 96.6683L195.365 95.8037L192.984 96.9756H191.577L188.871 100.528L183 99.8923L180.119 97.0902L179.557 97.7985L182.641 100.799L189.234 101.517Z" fill="black"/>
<path d="M186.698 108.845L193.136 104.496L189.343 100.679L188.767 101.371L191.719 104.345L186.472 107.892L172.199 107.351L172.17 108.288L186.698 108.845Z" fill="black"/>
<path d="M192.512 104.887L197.632 103.715L202.747 104.507L202.865 103.574L197.604 102.762L192.338 103.965L192.512 104.887Z" fill="black"/>
<path d="M196.602 115.043H205.297V114.106H197.079L194.416 109.351H188.545L186.835 107.991L186.339 108.752L188.262 110.293H193.939L196.602 115.043Z" fill="black"/>
<path d="M178.244 122.319L186.779 121.293L192.602 115.043H196.839V114.105H192.253L186.392 120.387L178.32 121.361L167.632 117.954L167.396 118.861L178.244 122.319Z" fill="black"/>
<path d="M191.011 131.069L191.511 130.304L188.89 128.231L189.409 126.09L183.081 120.913L182.575 121.674L188.437 126.465L187.917 128.616L191.011 131.069Z" fill="black"/>
<path d="M82.4624 133.486L83.237 133.085L82.368 131.028L88.4512 129.627L84.3516 118.944L83.5629 119.309L87.2563 128.939L81.14 130.345L82.4624 133.486Z" fill="black"/>
<path d="M44.6783 96.6104C45.0656 96.6104 45.467 96.5374 45.8921 96.376L45.6134 95.4854C43.8329 96.1572 42.4821 94.8135 40.9188 93.2614C39.9789 92.3239 39.006 91.3551 37.8394 90.7301C35.1426 89.2979 32.0821 88.1885 29.8245 90.8291C29.3852 91.3447 28.8421 91.4697 28.162 91.2145C26.7073 90.6572 25.3282 88.6051 25.2715 87.8291L24.4166 87.9124C24.5206 89.2041 26.2208 91.4697 27.8833 92.1051C28.8846 92.4854 29.7725 92.2718 30.4432 91.4801C31.9545 89.7041 33.9902 89.7354 37.4616 91.5791C38.5195 92.1416 39.4499 93.0687 40.3426 93.9593C41.6603 95.2666 43.0063 96.6104 44.6783 96.6104Z" fill="black"/>
<path d="M143.016 82.486C143.63 78.7829 143.937 74.9912 143.937 71.2256C143.937 64.5173 142.974 57.9131 141.08 51.6058C140.47 49.5902 139.771 47.6058 138.997 45.71L138.959 45.611C138.794 45.2152 138.633 44.8193 138.458 44.4339C136.205 39.2152 133.291 34.3558 129.796 30.0016C121.937 20.1891 111.712 13.4652 100.216 10.5381L100.023 11.46C111.344 14.3402 121.413 20.9652 129.145 30.6214C132.592 34.9235 135.464 39.7048 137.688 44.8454C137.844 45.2048 137.995 45.5641 138.147 45.9287L138.175 46.0068C138.954 47.9027 139.653 49.887 140.267 51.9079C142.138 58.1162 143.082 64.6214 143.082 71.2308C143.082 74.9391 142.775 78.6735 142.175 82.3245L143.016 82.486Z" fill="black"/>
<path d="M31.8265 71.71C31.8218 71.5225 31.8218 71.3714 31.8218 71.2256C31.8218 61.8923 33.6779 52.9183 37.3335 44.5641L37.3666 44.4912C38.1459 42.7048 39.0338 40.9183 40.0067 39.1735L40.1342 38.9495C50.3642 20.7464 68.0518 9.88184 87.4492 9.88184C90.4246 9.88184 93.4049 10.1423 96.3048 10.6527L96.437 9.72559C93.4993 9.20475 90.4719 8.94434 87.4492 8.94434C67.8299 8.94434 49.9344 19.887 39.5297 38.236H39.3408L39.3361 38.5745C38.3348 40.3662 37.4232 42.1943 36.6251 44.0225L36.592 44.0902C32.8514 52.5954 30.9575 61.7256 30.9575 71.2308C30.9575 71.387 30.9575 71.5485 30.9622 71.7048L31.8265 71.71Z" fill="black"/>
</svg>
