<svg width="183" height="146" viewBox="0 0 183 146" fill="none" xmlns="http://www.w3.org/2000/svg">
<path d="M143.578 104.651L145.25 102.089L129.302 97.9795L127.635 100.542L143.578 104.651Z" fill="black"/>
<path d="M155.771 92.5938L152.146 94.6823L153.521 99.2708L158.432 97.1979L155.771 92.5938Z" fill="black"/>
<path d="M31.2446 112.141L32.8644 115.032L40.7863 112.693L38.7759 109.058L31.2446 112.141Z" fill="black"/>
<path d="M14.8542 94.2708L15.1094 94.375L15.276 94.151C15.4531 93.9167 16.1979 92.901 16.5208 92.2292L16.7708 92.3125L16.9219 92.1927C17.099 92.0573 21.0625 88.9583 23.151 86.7135C23.6927 87.1094 24.7813 87.7135 25.9688 87.875C25.7865 91.5677 23.8542 94.8854 23.6094 95.2865C23.3177 95.5469 22 96.7604 21.7708 97.849L21.6875 98.2448L22.0938 98.276C22.875 98.349 25.7708 98.4115 25.8906 98.4167L26.1198 98.4219L26.2188 98.2188C26.3021 98.0625 26.901 96.849 26.8646 95.8802H27.3542L27.3958 95.5677C27.599 93.9635 29.526 88.4531 31.2344 88.0781C31.9792 87.9115 33.2969 88.0677 34.6875 88.224C35.6615 88.3333 36.7552 88.4531 37.8073 88.4896C38.0729 90.6094 40.0104 92.9167 43.0417 93.4688L42.3021 97.1771C41.6927 97.7396 41.0365 99.1354 40.8854 99.6302L40.7604 100.052L41.1979 100.094C41.5365 100.125 42.0469 100.135 42.5833 100.135C43.599 100.135 44.6927 100.099 44.7604 100.094L45.0625 100.083L45.1042 99.7865C45.1562 99.4271 45.2865 98.4219 45.2344 97.7292H45.5104L47.1146 92.1302L47.2031 91.8281L46.9115 91.6979C46.8698 91.6823 45.9583 91.276 45.8073 90.4062C47.9792 90.6719 49.8333 90.0208 50.5885 89.6979L51.9062 93.026C51.8802 93.3906 51.8021 94.7344 52.2448 95.6667L52.4219 96.0365L52.7656 95.8229C53.4635 95.3854 55.099 93.6875 55.1667 93.6146L55.3021 93.474L55.2604 93.2812C55.25 93.2396 55.0417 92.3958 54.2552 91.8802L54.7292 91.5104L52.3125 85.4271L51.9896 85.5365C51.5104 85.6979 50.2656 86.0313 49.3698 86.0104C50.2396 83.6563 49.9427 81.5885 49.5 80.1979C50.5521 78.4687 50.8281 76.0625 50.2344 73.724C49.6771 71.526 48.4427 69.7708 46.8385 68.9062C46.8125 68.8906 46.7917 68.8802 46.7656 68.8646C46.4167 67.2448 45.224 66.9219 44.1667 66.6406C43.4479 66.4479 42.776 66.2708 42.2865 65.7396L41.2917 64.6562L41.6719 66.0781C42.5 69.1406 43.5729 70.125 46.026 70.0521C47.7031 71.0677 48.2188 73.0521 48.3802 74.1562C48.5885 75.6198 48.4115 76.875 48.1458 77.5365C48.0104 77.3594 47.8698 77.1771 47.7292 77.0208L47.7188 77L47.7135 76.9948L47.7083 76.9896C46.9375 76.1094 46.0781 75.5156 45.349 75.3646C44.6875 75.224 43.8958 75.224 42.8646 75.375C42.25 75.4583 41.6042 75.5833 40.9323 75.7135C39.7031 75.9479 38.4375 76.1927 37.151 76.2292C37.1198 76.224 37.0833 76.2188 37.0469 76.2188V76.2292C35.4635 76.2552 34.1771 75.6667 33.0365 75.1406C32.0625 74.6927 31.1406 74.2656 30.1927 74.3073C29.2604 74.349 28.6875 74.8177 28.2188 75.2448C28.1094 75.3437 28 75.4531 27.8802 75.5677C27.3646 76.0729 26.8229 76.5885 25.9427 76.9479C26.0729 76.7917 26.1875 76.6302 26.2865 76.4531C26.8281 75.4635 26.8646 74.1719 26.3854 72.8177L25.75 71.0104L25.6823 72.9219C25.651 73.7292 25.2344 74.4948 24.5365 75.0104C23.5937 75.7031 22.2604 75.8854 20.875 75.5C19.3125 75.0729 18.3542 74.4687 18.0417 73.7031C17.7969 73.1146 17.9271 72.375 18.4219 71.5156L18.9427 70.6094L17.974 71.0052C17.4375 71.224 15.6823 72.0417 15.5469 73.5104C15.4792 74.2708 15.8698 75.0208 16.7135 75.7552C15.8229 75.7865 14.776 75.8854 14.3802 75.9479L13.9479 76.0208L14.1042 76.4323C14.3958 77.2031 15.4896 78.1823 16.5 78.2812C16.3698 78.7865 15.974 79.4896 15.4948 80.0521C14.8542 80.2917 14.3802 80.7604 14.1979 81.3542C14.0469 81.849 14.1042 82.3906 14.3646 82.8854C14.7031 83.5156 15.3281 84.0208 16.0938 84.25C16.401 84.3438 16.7135 84.3906 17.0156 84.3906C17.375 84.3906 17.724 84.3281 18.0469 84.1979C18.6667 83.9531 19.1042 83.5 19.2812 82.9167C19.4323 82.4375 19.75 82.3438 20.349 82.2031C20.4271 82.1875 20.5104 82.1615 20.5885 82.1406C20.7396 82.375 20.9219 82.9271 20.6562 84.1146C20.2656 85.8177 15.7135 89.4844 13.9948 90.7552L13.9479 90.7865C13.1146 90.9688 11.8958 91.599 11.4896 91.8906L11.1094 92.1771L11.4844 92.4688C12.5781 93.3438 14.7604 94.2344 14.8542 94.2708Z" fill="black"/>
<path d="M154.182 19.2396L156.287 14.9896L152.63 13.7188L149.896 15.2656L150.833 20.5781L154.182 19.2396Z" fill="black"/>
<path d="M165.995 22.6826L164.427 17.7295H162.375L163.484 22.6826H165.995Z" fill="black"/>
<path d="M177.365 44.141C178.5 43.4274 179.453 42.0316 179.927 40.6983C180.469 39.1774 180.375 37.9014 179.672 37.2035C179.146 36.6826 178.349 36.5264 177.302 36.7347C179.849 33.2295 180.646 30.641 179.479 29.5628C178.359 28.5264 175.828 29.3545 173.24 31.5785C172.833 30.9222 171.906 30.1983 170.719 30.0472C169.396 29.8806 166.927 30.3701 164.844 35.3285C164.245 34.6618 163.125 34.2139 162.115 34.3285C161.521 34.4014 160.266 34.7712 159.943 36.6566C159.219 35.9326 158.125 35.6097 157.078 35.891C155.995 36.1774 154.932 37.1358 154.833 38.9847C151.667 35.6253 148.818 35.8545 147.682 36.1306C145.938 36.5576 144.62 37.9118 144.25 39.667C144.016 40.7816 143.875 43.5785 147.224 46.5524C145.578 46.766 143.609 47.9222 143.073 49.4222C142.688 50.4951 142.844 52.1045 145.609 53.7764C144.635 54.7243 144.333 55.917 144.786 57.1097C145.49 58.9639 148.068 60.7608 151.323 60.8545L142.099 70.2712L133.391 69.1358L140.354 72.4899L133.391 77.9743L142.917 74.8181V78.6774L144.578 76.3389L148.443 83.7868L146.234 74.8076L154.844 64.6879C154.885 65.7556 155.375 66.6983 156.219 67.2295C157.323 67.9326 158.786 67.7764 160.224 66.8285C160.547 68.2295 161.818 69.3701 163.51 69.7139C163.802 69.7712 164.104 69.8024 164.417 69.8024C165.682 69.8024 167.047 69.2712 167.859 67.7816C169.193 68.4326 171.047 68.1358 172.531 67.0056C174.094 65.8129 174.74 64.0576 174.307 62.2347C175.828 61.9535 176.906 60.1878 177.182 58.4951C177.427 57.0003 177.115 55.1149 175.63 54.016C180.25 53.6306 182.047 51.5056 182.167 49.5108C182.286 47.4014 180.542 44.9951 177.365 44.141Z" fill="black"/>
<mask id="mask0_5546_11854" style="mask-type:luminance" maskUnits="userSpaceOnUse" x="9" y="0" width="161" height="146">
<path d="M9.6665 0.515625H169.667V146H9.6665V0.515625Z" fill="white"/>
</mask>
<g mask="url(#mask0_5546_11854)">
<path d="M145.229 136.156C144.901 135.516 143.844 134.068 140.964 134.141C140.099 131.484 138.38 130.63 137.068 130.38C134.896 129.974 132.557 130.943 131.167 132.031C131.521 129.797 131.182 128.068 130.151 126.87C128.839 125.359 126.505 124.724 123.031 124.964C126.151 120.229 125.74 116.859 124.807 114.839C123.094 111.104 118.635 109.422 115.339 109.12C114.073 109 112.812 109 111.583 109.099C118.312 95.3542 121.068 84.401 120.005 75.6458C123.099 73.6615 125.839 70.6615 125.188 68.6354C124.901 67.7448 123.849 66.7344 120.474 66.9583L120.521 67.6771C122.797 67.526 124.208 67.9479 124.5 68.8594C124.953 70.25 122.953 72.8281 119.896 74.8542C119.495 72.1615 118.745 69.6458 117.547 67.0156C120.88 64.8542 122.651 62.5 122.057 60.9792C121.797 60.3073 120.854 59.2708 117.474 59.8854L117.609 60.599C119.672 60.224 121.083 60.4635 121.385 61.2396C121.755 62.1823 120.594 64.1615 117.234 66.3594C116.432 64.6875 115.568 63.1719 114.724 61.7083C113.964 60.3906 113.245 59.1354 112.641 57.875C121.458 54.1406 131.073 47.6875 130.943 44.4792C130.922 43.9948 130.677 43.3385 129.615 42.9948L129.396 43.6823C130.115 43.9167 130.214 44.2656 130.224 44.5104C130.318 46.8333 122.391 52.974 112.344 57.2188C111.474 55.0781 111.443 52.4635 112.25 49.2552C127.125 42.9531 139.802 33.875 140.547 28.974C140.75 27.6406 140.484 26.5521 139.75 25.75C137.891 23.6979 133.432 23.9375 130.484 24.0938C129.724 24.1354 129.062 24.1719 128.573 24.1615L128.557 24.8854C129.073 24.8958 129.745 24.8594 130.526 24.8125C133.333 24.6615 137.583 24.4375 139.214 26.2292C139.802 26.8802 140.005 27.7396 139.833 28.8646C139.073 33.8698 125.224 42.8854 112.495 48.3594C115.224 39 124.396 26.4583 133.276 14.3177L133.38 14.1771C133.458 14.0781 133.531 13.9792 133.594 13.8802L133.609 13.8594C133.609 13.8594 133.615 13.8594 133.615 13.8542C134.37 12.7448 134.646 11.7031 134.422 10.7552C133.63 7.375 126.5 5.79687 114.844 6.41146L111.693 0.515625H108.286L111.75 6.61458C104.057 7.22396 95.2708 8.65104 86.2708 10.7552C81.0625 11.974 76.0312 13.3594 71.3073 14.8802L72.3385 11.3958L68.9531 9.19792L65.7031 16.7865C50.6667 22.224 42.2396 27.9271 43.1146 32.0573C43.2188 39.276 44.0208 45.8073 45.4948 51.5C24.0573 55.2969 21.7708 53.0573 21.5781 52.276C21.1354 50.4167 28.4063 45.9792 39.5625 42.599L39.349 41.9115C34.2604 43.4531 29.5417 45.3594 26.0677 47.2708C23.474 48.6927 20.474 50.75 20.8802 52.4479C21.1875 53.7344 23.3073 54.375 27.2188 54.375C31.3698 54.375 37.5365 53.651 45.6771 52.2031C46.4792 55.1667 47.4844 57.9583 48.6615 60.5104C38.4375 61.8802 38.026 60.5208 38.0208 60.5104C37.9323 60.0573 39.9271 58.5781 44.9479 57.2135L44.7604 56.5208C43.4479 56.875 36.9271 58.75 37.3125 60.6562C37.3854 61.0104 37.5573 61.8542 41.2917 61.8542C43 61.8542 45.4583 61.6771 48.9844 61.1979C53.8125 71.2083 61.5885 78.1875 72.7448 82.5104C74.7135 83.276 76.7448 84.0052 78.7135 84.7135C80.9427 85.5156 83.2292 86.3438 85.3854 87.1979C73.8698 89.875 67.9063 89.4948 67.224 87.9583C67.0417 87.5365 67.0417 86.2708 71.0208 83.5885L70.6146 82.9896C67.3542 85.1875 65.9948 86.9531 66.5625 88.25C67.0781 89.4115 69.0469 89.875 71.8125 89.875C75.7656 89.875 81.3229 88.9219 86.5365 87.6615C90.5156 89.3021 95.3333 91.625 98.0573 95.1146C73.5312 102.703 63.4115 101.885 62.6042 99.4635C62.1875 98.2292 64.3698 96.0469 69.3438 94.276L69.099 93.599C64.0938 95.3802 61.276 97.776 61.9167 99.6927C62.3958 101.13 64.7396 101.885 68.6094 101.885C69.4844 101.885 70.4271 101.849 71.4479 101.771C78.0156 101.276 87.375 99.1823 98.5052 95.724C99.4583 97.1094 100.042 98.5781 100.276 100.208C94.9427 101.823 89.5521 102.375 85.7969 101.693L85.6667 102.401C86.7656 102.604 88 102.703 89.3281 102.703C92.625 102.703 96.5104 102.089 100.359 100.938C100.797 106.271 97.6667 113.089 90.7969 121.755C89.4375 121.589 88.1771 122.047 87.0365 123.135C87.9479 120.146 87.5885 117.5 85.9479 115.516C83.7969 112.917 79.8125 111.979 75.7969 113.125C72.401 114.089 70 116.24 68.8542 119.339C67.9635 121.75 67.8646 124.641 68.5677 127.542C65.8646 126.677 63.7552 127.578 62.6302 128.786C61.8646 129.62 61.5052 130.625 61.6302 131.526C60.3906 131.109 59.4844 131.109 58.8802 131.526C58.4063 131.844 58.2344 132.344 58.1667 132.776C54.8698 130.193 51.5052 130.318 49.5469 131.266C48.2552 131.896 47.4219 132.917 47.1979 134.094C44.8542 131.974 41.5833 131.943 39.1771 132.682C36.3646 133.547 34.3906 135.448 34.1406 137.521C34.0938 137.911 34.125 138.281 34.224 138.63H10.7656V139.354H34.5469C36.2188 141.958 42.6198 142.323 48.8333 140.135C53.5781 143.859 63.7344 142.307 66.6771 139.844C67.5052 141.526 69.2448 142.37 71.4271 142.115C73.0573 141.927 74.4115 141.172 74.8906 140.255C79.5833 143.672 86.8177 145.208 93.4479 145.208C96.6615 145.208 99.7344 144.844 102.307 144.161C105.672 143.266 107.917 141.906 108.844 140.203C112.99 143.047 115.865 141.828 117.609 140.167C125.286 144.083 131.484 140.766 133.281 139.255C134.823 140.906 137.859 141.161 139.188 140.401C139.62 140.156 139.87 139.818 139.943 139.422C142.281 140.708 143.958 140.281 144.833 139.354H168.615V138.63H145.307C145.646 137.854 145.635 136.948 145.229 136.156Z" fill="black"/>
</g>
<path d="M17.8019 21.3174C17.8592 21.3174 17.9113 21.3122 17.9686 21.3122L19.1196 31.682C17.4946 31.7861 16.1978 33.1403 16.1978 34.7966C16.1978 36.5153 17.5988 37.9163 19.3228 37.9163C19.4842 37.9163 19.6457 37.9007 19.8019 37.8747L20.2394 41.833L20.5728 41.8278C20.6925 41.8226 23.604 41.7497 27.3071 40.833C28.7863 40.4632 30.1769 40.0205 31.4425 39.4997L31.6665 39.4059V39.1663C31.6665 39.1663 31.6821 38.0466 31.6821 36.3174C31.6769 33.2288 31.6196 30.4111 31.5259 27.9372C31.4061 24.8851 31.2238 22.432 30.9842 20.6559C30.9165 20.1663 30.8384 19.6924 30.7446 19.2445L30.7186 19.0986L24.9425 15.2861L27.4009 8.35905L26.1405 6.86426L25.5884 7.3278L26.5832 8.50488L24.5571 14.2132L22.7915 7.68717L18.4165 7.29655L16.4686 7.74447L17.2863 15.1195C15.8019 15.3643 14.6821 16.6455 14.6821 18.1924C14.6821 19.9163 16.078 21.3174 17.8019 21.3174Z" fill="black"/>
<mask id="mask1_5546_11854" style="mask-type:luminance" maskUnits="userSpaceOnUse" x="0" y="26" width="7" height="7">
<path d="M0.5625 26H7V32.6667H0.5625V26Z" fill="white"/>
</mask>
<g mask="url(#mask1_5546_11854)">
<path d="M0.65625 26.0361L4.59375 32.1403L6.75521 29.9684L4.88021 26.0361H0.65625Z" fill="black"/>
</g>
<path d="M176.37 37.3799C182.567 35.1143 179.437 43.9112 176.036 44.2445C183.104 45.1091 184.974 53.6456 174.234 53.7081C178.708 55.1091 176.838 61.9737 173.838 61.9112C175.239 66.1039 170.172 68.9164 167.708 67.281C166.041 71.0414 160.578 69.3747 160.505 66.1768C157.239 68.7758 154.64 66.4476 155.307 63.6456L155.281 63.6195L158.776 59.5101L166.172 58.3747L166.041 56.7758L159.437 57.3122C159.437 57.3122 163.036 52.8383 163.234 52.6403C163.442 52.4424 171.505 48.4424 171.505 48.4424L171.172 47.3122L162.552 50.9112L163.635 46.1039H162.552L160.838 51.7758L156.573 56.307L155.375 50.1091L154.307 50.8383L154.974 57.6403L152.203 60.4737C147 60.8122 142.708 56.4424 146.239 53.7081C139.703 50.1091 145.708 46.4424 148.239 46.9112C139.437 40.1143 148.041 31.2445 155.239 39.9789C154.703 35.5778 159.172 35.1768 160.239 37.7133C160.172 33.1768 164.573 34.6508 164.906 36.1508C168.307 27.2445 172.968 30.9789 173.104 32.1768C178.302 27.4476 183.036 28.781 176.37 37.3799Z" fill="#4CAF50"/>
<path d="M171.167 47.3174L171.5 48.4424C171.5 48.4424 163.438 52.4476 163.235 52.6455C163.031 52.8434 159.438 57.3122 159.438 57.3122L166.037 56.7809L166.172 58.3799L158.771 59.5153L155.276 63.6247L145.839 74.7184L147.37 80.9163L144.641 75.6455L143.287 77.5466V74.3122L135.24 76.9841L141.042 72.4163L135.573 69.7809L142.245 70.6455L152.203 60.4788L154.974 57.6455L154.307 50.8486L155.375 50.1143L156.573 56.3174L160.839 51.7861L162.552 46.1143H163.636L162.552 50.9163L171.167 47.3174Z" fill="#794426"/>
<path d="M164.161 18.0938L165.5 22.3229H163.776L162.823 18.0938C162.823 18.0938 163.989 18.0938 164.161 18.0938Z" fill="#794426"/>
<path d="M155.64 93.083L157.917 97.0205L153.745 98.7861L152.573 94.8538L155.64 93.083Z" fill="#4A8BDF"/>
<path d="M155.781 15.1924L153.922 18.9528L151.115 20.0778L150.297 15.4528L152.667 14.1143L155.781 15.1924Z" fill="#C41830"/>
<path d="M144.672 102.317L143.417 104.239L128.213 100.317L129.463 98.3955L144.672 102.317Z" fill="#794426"/>
<path d="M133.099 13.9528C133.172 13.8486 133.245 13.7497 133.318 13.6455C133.25 13.7497 133.177 13.8486 133.099 13.9528Z" fill="#4A8BDF"/>
<path d="M34.7498 138.984C34.5311 138.562 34.4373 138.083 34.505 137.552C35.0207 133.271 43.4998 130.312 47.5103 134.911C47.3019 131.25 53.3905 128.99 58.505 133.51C58.505 132.911 58.3019 130.51 62.1925 132.109C61.0832 129.911 64.3228 126.125 69.104 128.109C67.4998 122.51 68.703 115.51 75.9009 113.458C83.0988 111.411 90.3019 116.312 85.7342 125.38C87.5415 122.401 89.38 121.854 90.9634 122.125V122.13C92.2186 122.344 93.3071 123.068 94.0988 123.51C94.0988 119.911 97.8488 118.245 100.969 120.302C100.531 113.047 105.588 110.125 110.979 109.505C112.432 109.344 113.906 109.344 115.307 109.474C121.906 110.083 129.297 115.51 122.302 125.38C127.713 124.854 132.297 126.109 130.573 133.109C132.25 130.906 138.901 128.307 140.698 134.51C144.937 134.266 145.948 137.401 144.661 138.979C143.828 140 142.021 140.375 139.5 138.719C140.396 140.88 135.12 141.141 133.312 138.719C131.922 140.135 125.5 143.906 117.536 139.708C115.776 141.505 112.896 142.708 108.703 139.641C106.099 145.974 84.3019 147.109 74.6978 139.641C74.4738 141.698 68.2707 143.37 66.8019 139.198C64.6978 141.693 53.6978 143.708 48.9009 139.708C42.6978 141.953 36.1405 141.609 34.7498 138.984Z" fill="#4A8BDF"/>
<path d="M45.9377 51.7917C44.4168 46.0729 43.5835 39.5208 43.4741 32.0365C44.8127 37.7396 66.1772 37.6198 91.1877 31.7656C91.8595 31.6042 92.5262 31.4427 93.1877 31.2865L97.0054 33.6146L109.406 41.1875L116.328 29.8542L118.823 31.3802L116.943 23.7344C124.995 20.4167 130.797 16.9635 133.073 13.9844C123.745 26.7344 114.422 39.4583 111.948 48.9844C111.078 52.3229 111.047 55.2708 112.156 57.6823C112.162 57.6979 112.167 57.7083 112.172 57.724C113.5 60.599 115.479 63.3958 117.094 66.8802C118.229 69.3177 119.193 72.0938 119.63 75.4583C120.594 82.9375 118.985 93.3438 110.985 109.51C105.589 110.13 100.531 113.052 100.974 120.302C97.8491 118.25 94.1043 119.917 94.1043 123.516C93.3127 123.073 92.2189 122.349 90.9689 122.135V122.13C98.672 112.443 101.297 105.583 100.688 100.464C100.453 98.5052 99.745 96.8073 98.6616 95.3021C96.1877 91.8333 91.7397 89.4062 86.5731 87.2812C82.271 85.5052 77.4637 83.9479 72.8804 82.1719C62.2502 78.0521 54.172 71.2813 49.1981 60.7969C47.8908 58.0573 46.8022 55.0625 45.9377 51.7917ZM98.9168 46.1146L98.3022 42.2552L95.7033 44.3646L98.9168 46.1146ZM81.3491 61.5833L87.0679 55.6094H84.1043L79.4377 58.5208L81.3491 61.5833ZM59.6564 47.776V45.6667L50.1772 43.125L48.9741 45.125L59.6564 47.776Z" fill="#4A8BDF"/>
<path d="M116.943 23.7347L118.823 31.3805L116.328 29.8545L110.38 26.2243L107.734 24.6045L104.125 9.94824L115.219 16.7243L116.943 23.7347Z" fill="#C41830"/>
<path d="M114.635 6.78125L116.328 9.94792H114.062L112.349 6.92708L108.906 0.875C109.229 0.875 111.479 0.875 111.479 0.875L114.635 6.78125Z" fill="#C41830"/>
<path d="M108.135 26.9951L112.151 29.443L109.693 33.4691L105.667 31.0107L108.114 27.0003C108.125 26.9951 108.13 26.9951 108.135 26.9951Z" fill="#794426"/>
<path d="M103.688 22.6722L99.4271 29.6514H99.4219L97.0052 33.6149L93.1875 31.2868L91.6875 30.3701L98.375 19.4326L103.688 22.6722Z" fill="#794426"/>
<path d="M99.4272 29.6514L103.682 22.6722L98.37 19.4326L91.6877 30.3701L85.6616 26.6878L92.5835 15.3545L89.4429 13.4326L104.125 9.94824L107.735 24.6045L110.38 26.2191L116.328 29.8493L109.406 41.1826L97.0054 33.6149L99.4272 29.6514ZM108.125 26.9847L108.115 27.0003L105.667 31.0107L109.693 33.4639L112.151 29.4378L108.136 26.9899L108.125 26.9847Z" fill="#794426"/>
<path d="M98.3021 42.2549L98.9167 46.1143L95.7031 44.3643L98.3021 42.2549Z" fill="#4CAF50"/>
<path d="M91.6873 30.3694L93.1873 31.2861C92.5258 31.4475 91.8591 31.6038 91.1873 31.7652C66.1716 37.6194 44.8071 37.7392 43.4737 32.0361C42.5362 28.0256 51.7393 22.2079 65.9737 17.0725L64.7185 20.01L69.3331 20.2808L70.7654 15.4319C75.5727 13.8694 80.8227 12.4058 86.3591 11.109C95.8487 8.89022 104.807 7.49439 112.349 6.93189L114.062 9.95272H116.328L114.635 6.78085C125.745 6.17147 133.297 7.52043 134.073 10.8381C134.276 11.7027 134.005 12.6506 133.317 13.6558C133.245 13.7548 133.172 13.859 133.099 13.9579C133.088 13.9683 133.078 13.9788 133.073 13.9944C130.802 16.9631 125 20.4215 116.942 23.7392L115.219 16.7288L104.125 9.95793L89.4425 13.4423L92.5831 15.3642L85.6612 26.6871L91.6873 30.3694ZM73.9893 20.734L76.1612 18.734L73.9893 17.4579L72.5987 19.734L73.9893 20.734Z" fill="#4A8BDF"/>
<path d="M87.0677 55.6094L81.349 61.5833L79.4375 58.5208L84.1042 55.6094H87.0677Z" fill="#C41830"/>
<path d="M76.1616 18.7393L73.9897 20.734L72.5991 19.734L73.9897 17.458L76.1616 18.7393Z" fill="#C41830"/>
<path d="M71.9115 11.557L70.7656 15.432L69.3281 20.2809L64.7188 20.0153L65.974 17.0726L69.1146 9.73926L71.9115 11.557Z" fill="#794426"/>
<path d="M59.6564 45.6667V47.776L48.9741 45.125L50.1772 43.125L59.6564 45.6667Z" fill="#4CAF50"/>
<path d="M53.5731 91.9736C54.6512 92.3122 54.9012 93.3799 54.9012 93.3799C54.9012 93.3799 53.2398 95.1143 52.5731 95.5309C52.1096 94.5465 52.2762 92.9893 52.2762 92.9893L53.5731 91.9736Z" fill="black"/>
<path d="M46.6668 69.2344C50.0627 71.0781 51.2502 76.8698 49.1043 80.1719C48.8595 79.4479 48.5314 78.7917 48.1616 78.2188C49.1616 77.1719 49.4168 71.5833 46.1147 69.6979L46.6668 69.2344Z" fill="#794426"/>
<path d="M45.4375 90C44.0625 89.7604 42.5885 89.1094 41.2396 87.7344C40.349 88.0677 39.2708 88.1719 38.1458 88.151C35.5052 88.1094 32.5781 87.4219 31.1667 87.7344C29.151 88.1719 27.224 94.1302 27.0469 95.5312H23.8906C23.8906 95.5312 26.2552 91.7656 26.3438 87.5573C24.849 87.4687 23.4375 86.5469 23.1146 86.224C21.099 88.4792 16.7031 91.9115 16.7031 91.9115L16.3125 91.776L14.3542 91.1094L14.2031 91.0573C14.2031 91.0573 20.5 86.4115 21.0052 84.2083C21.3698 82.5833 20.9531 81.9635 20.7083 81.7552C21.4115 81.5365 22.0833 81.0938 22.2604 79.401C23.25 80.4844 24.8698 80.5781 26.7031 79.9115C26.7031 79.9115 24.8333 78.1146 23.5312 77.6823C23.7708 77.6771 24 77.6458 24.2135 77.599C24.2135 77.599 24.7813 77.6667 25.2917 77.5417C26.974 77.1354 27.7083 76.2083 28.4531 75.5156C28.6719 75.5313 28.8333 75.75 28.8958 75.9635C28.9583 76.1979 28.9583 76.4479 29.0573 76.6719C29.2344 77.0521 29.6719 77.2292 30.0469 77.4271C30.4167 77.6198 30.8073 77.9583 30.75 78.3802C30.7188 78.6146 30.5521 78.8021 30.401 78.9844C30.1823 79.2604 29.9896 79.5469 29.8177 79.8542C29.6615 80.1354 29.526 80.4479 29.5729 80.7656C29.6146 81.026 29.7708 81.2396 29.9323 81.4427C30.3021 81.8958 30.7396 82.3021 31.224 82.6302C31.776 83.0104 32.4167 83.3125 33.0833 83.2812C33.7552 83.25 34.4375 82.8281 34.5938 82.1719C34.7083 81.6875 34.5312 81.1302 34.7865 80.6927C34.9635 80.3802 35.3229 80.224 35.6719 80.1406C36.0208 80.0625 36.3906 80.0417 36.724 79.9167C37.0573 79.7917 37.375 79.526 37.4271 79.1667C37.4792 78.7708 37.1823 78.3906 37.2031 77.9896C37.2135 77.7187 37.3646 77.4687 37.4062 77.2031C37.4479 76.9635 37.3385 76.6719 37.1198 76.6042C39.1667 76.5469 41.1719 75.9792 42.901 75.7448C42.7656 76.5313 43.2448 76.5521 43.1979 76.8125C43.1458 77.0833 42.8125 77.1406 42.5833 77.2865C42.2188 77.526 42.125 78.0469 42.2604 78.4583C42.401 78.8646 42.7135 79.1979 43.026 79.4948C43.4427 79.8854 43.9896 80.2917 44.5365 80.1198C44.9219 80 45.1719 79.625 45.526 79.4531C45.8438 79.2969 46.2135 79.3125 46.5365 79.1875C47.1979 78.9323 47.5417 78.1562 47.5 77.4479C47.5 77.3802 47.4844 77.3073 47.4427 77.2552C47.6927 77.5417 47.9271 77.8594 48.1562 78.2083C48.526 78.7813 48.8542 79.4427 49.099 80.1615C49.7031 81.9323 49.8125 84.0833 48.8542 86.3229C49.9896 86.5885 52.0938 85.8906 52.0938 85.8906L54.2865 91.401L53.5729 91.9635L52.2708 92.9792L50.7812 89.2135C50.7812 89.2188 48.3281 90.5104 45.4375 90ZM44.099 84.0885C44.5938 83.8021 44.6146 83.0729 44.3646 82.5573C44.2604 82.3437 44.1042 82.1354 43.8802 82.0885C43.5833 82.0208 43.276 82.2396 42.9896 82.1406C42.849 82.0937 42.7396 81.9844 42.6354 81.8802C42.2188 81.4896 41.3646 81.0625 40.776 81.2656C40.1146 81.4844 39.75 82.2969 39.1719 82.6667C38.8333 82.8802 38.401 83 38.2188 83.3594C38.0521 83.6823 38.1719 84.1042 38.4219 84.3698C38.6667 84.6406 39.0156 84.7917 39.3594 84.9167C39.7188 85.0521 40.0938 85.1667 40.4688 85.25C41.0052 85.3802 41.651 85.4323 42.0312 85.0312C42.2031 84.849 42.2917 84.599 42.4792 84.4375C42.9115 84.0885 43.6094 84.375 44.099 84.0885Z" fill="#794426"/>
<path d="M47.4375 77.2503C47.4427 77.2555 47.4427 77.2607 47.4479 77.2607C47.4844 77.3128 47.5 77.3909 47.5052 77.4534C47.5469 78.1617 47.1979 78.943 46.5417 79.193C46.2136 79.318 45.8438 79.3076 45.5313 79.4586C45.1719 79.6357 44.9219 80.0055 44.5417 80.1253C44 80.3024 43.4479 79.8961 43.0313 79.5003C42.7188 79.2034 42.4063 78.8753 42.2656 78.4638C42.1302 78.0524 42.224 77.5263 42.5834 77.2972C42.8125 77.1513 43.1511 77.0836 43.2031 76.818C43.25 76.5576 42.7709 76.5315 42.9063 75.7503C43.7709 75.6305 44.5625 75.5888 45.2656 75.7399C45.9115 75.8649 46.7084 76.4117 47.4375 77.2503Z" fill="black"/>
<path d="M46.7708 92.0469L45.2396 97.3802H42.6354L43.474 93.1823C40.3802 92.7813 38.2344 90.3802 38.1406 88.151C39.2656 88.1771 40.349 88.0729 41.2344 87.7344C42.5885 89.1198 44.0625 89.7656 45.4323 90.0052C45.3021 91.4219 46.7708 92.0469 46.7708 92.0469Z" fill="#794426"/>
<path d="M46.6668 69.2347L46.12 69.6982C43.8908 69.792 42.8595 69.0941 42.021 65.9951C43.4116 67.5055 46.0106 66.5212 46.4429 69.1253C46.521 69.1618 46.5939 69.1982 46.6668 69.2347Z" fill="#794426"/>
<path d="M44.7969 97.3799C45.026 97.8538 44.75 99.7445 44.75 99.7445C44.75 99.7445 42.2031 99.833 41.2344 99.7445C41.4063 99.182 42.125 97.7601 42.6354 97.3799H44.7969Z" fill="black"/>
<path d="M44.3593 82.5624C44.6145 83.0728 44.5937 83.8072 44.0937 84.0937C43.6093 84.3801 42.9062 84.0885 42.4791 84.4478C42.2864 84.6041 42.1979 84.8593 42.026 85.0364C41.651 85.4374 41.0051 85.3853 40.4635 85.2551C40.0937 85.1718 39.7187 85.0572 39.3593 84.927C39.0156 84.7968 38.6666 84.6458 38.4166 84.3801C38.1666 84.1041 38.052 83.6874 38.2135 83.3645C38.401 83.0103 38.8281 82.8853 39.1718 82.6718C39.7447 82.3072 40.1093 81.4895 40.7708 81.2708C41.3593 81.0728 42.2135 81.4999 42.6301 81.8853C42.7395 81.9895 42.8489 82.1041 42.9843 82.151C43.2708 82.2447 43.5781 82.0312 43.8749 82.0937C44.1041 82.1406 44.2604 82.3489 44.3593 82.5624Z" fill="black"/>
<path d="M38.6144 109.516L40.255 112.479L33.0415 114.604L31.7603 112.323L38.6144 109.516Z" fill="#C41830"/>
<path d="M37.2033 77.99C37.1877 78.3911 37.4845 78.7713 37.4325 79.1671C37.3804 79.5265 37.0627 79.7921 36.7241 79.9171C36.3908 80.0421 36.0262 80.063 35.6772 80.1411C35.3335 80.2244 34.9689 80.3859 34.7866 80.6932C34.5314 81.1255 34.7137 81.6828 34.5939 82.1723C34.4377 82.8286 33.7554 83.2505 33.0887 83.2817C32.422 83.313 31.7762 83.0109 31.2241 82.6307C30.745 82.3025 30.3075 81.8963 29.9377 81.4432C29.771 81.24 29.62 81.0213 29.5783 80.7661C29.5262 80.4484 29.6668 80.1359 29.8231 79.8546C29.9897 79.5473 30.1825 79.2609 30.4064 78.9848C30.5575 78.8025 30.7241 78.615 30.7554 78.3807C30.8127 77.964 30.422 77.6203 30.0522 77.4275C29.6772 77.2296 29.2345 77.0578 29.0627 76.6723C28.9585 76.4484 28.9637 76.1984 28.9012 75.964C28.8387 75.7453 28.672 75.5317 28.4585 75.5161C28.9481 75.063 29.4325 74.7088 30.1981 74.6723C32.1252 74.589 34.0522 76.6932 37.12 76.6046H37.1252C37.3439 76.6671 37.4481 76.964 37.4116 77.1984C37.37 77.4692 37.2189 77.7192 37.2033 77.99Z" fill="black"/>
<path d="M31.3228 36.3174L27.0259 37.708C26.7863 35.2028 26.3748 31.4163 25.9478 27.6768L31.1717 27.9528C31.2863 31.0361 31.3175 34.1559 31.3228 36.3174Z" fill="#4A8BDF"/>
<path d="M31.1668 27.9531L25.9429 27.6771C25.4741 23.5677 24.995 19.5052 24.7241 17.25H24.7293C24.7293 17.2708 30.6252 20.7083 30.6252 20.7083C30.8908 22.6771 31.0627 25.3021 31.1668 27.9531Z" fill="#4A8BDF"/>
<path d="M30.396 19.3174C30.4793 19.7288 30.5575 20.1976 30.6252 20.708C30.6252 20.708 24.7293 17.2705 24.7293 17.2497H24.7241C24.5887 16.1143 24.5054 15.432 24.5054 15.432L24.5106 15.4268V15.432L30.396 19.3174Z" fill="#4A8BDF"/>
<path d="M27.021 37.708L31.3127 36.3174H31.3179C31.3231 38.0413 31.3075 39.1663 31.3075 39.1663C29.9168 39.734 28.5158 40.1611 27.2189 40.484C27.2293 40.0934 27.1512 39.0986 27.021 37.708Z" fill="#4A8BDF"/>
<path d="M27.2238 40.484C23.5207 41.4059 20.5623 41.4684 20.5623 41.4684L20.1196 37.4372C21.0155 37.1663 21.7186 36.458 21.9738 35.5518L22.0832 35.583L27.0207 37.708C27.1509 39.0986 27.229 40.0934 27.2238 40.484Z" fill="#C41830"/>
<path d="M26.4481 95.5312C26.7658 96.3958 25.9064 98.0625 25.9064 98.0625C25.9064 98.0625 22.9116 97.9948 22.1304 97.9271C22.3491 96.8594 23.8908 95.5312 23.8908 95.5312H26.4481Z" fill="black"/>
<path d="M20.7135 81.7552C19.974 81.9792 19.2083 81.9479 18.9323 82.8229C19.2396 81.849 18.5 80.7552 17.2865 80.3802C16.7344 80.2083 16.1771 80.2187 15.7083 80.3698C16.3698 79.6094 16.9375 78.5469 16.9062 77.9115C16 78.1146 14.724 77.0833 14.4375 76.3125C15.0365 76.2083 17.1354 76.0417 17.8385 76.1458C14.1719 73.8125 16.5365 71.9792 18.1042 71.3438C16.8385 73.5469 17.776 75.0365 20.776 75.8594C23.7708 76.6771 25.974 74.974 26.0417 72.9427C26.875 75.2917 25.9844 77.1875 24.224 77.599C24.0052 77.6458 23.7813 77.6771 23.5417 77.6823C24.8385 78.1094 26.7083 79.9115 26.7083 79.9115C24.875 80.5781 23.2552 80.4844 22.2708 79.401C22.0833 81.0938 21.4115 81.5365 20.7135 81.7552Z" fill="#794426"/>
<path d="M21.6615 7.94759L22.0833 11.0622L20.5625 10.8174L19.7812 7.78613L21.6615 7.94759Z" fill="#4A8BDF"/>
<path d="M21.9738 35.5524C22.0467 35.3128 22.0832 35.0576 22.0832 34.792C22.0832 33.3337 20.953 32.1357 19.5207 32.0368L18.9946 27.3076L25.9425 27.6722C26.3696 31.4118 26.7863 35.193 27.0207 37.7035L22.0832 35.5732L21.9738 35.5524Z" fill="#C41830"/>
<path d="M17.8021 34.792C17.8021 35.6357 18.4844 36.318 19.3281 36.318C19.5625 36.318 19.7813 36.2607 19.9792 36.167C20.4948 35.9222 20.849 35.3962 20.849 34.792C20.849 34.068 20.349 33.4639 19.6667 33.3076C19.5573 33.2868 19.4479 33.2712 19.3281 33.2712C18.4844 33.2712 17.8021 33.9587 17.8021 34.792ZM16.5625 34.792C16.5625 33.266 17.7969 32.0264 19.3281 32.0264C19.3958 32.0264 19.4583 32.0316 19.526 32.0368C20.9583 32.1357 22.0885 33.3337 22.0885 34.792C22.0885 35.0576 22.0521 35.3128 21.9792 35.5524C21.724 36.4587 21.0156 37.167 20.1198 37.4378C19.8646 37.516 19.6042 37.5524 19.3281 37.5524C17.7969 37.5524 16.5625 36.318 16.5625 34.792Z" fill="black"/>
<path d="M20.5625 18.193C20.5625 16.667 19.3281 15.4326 17.7969 15.4326C17.7604 15.4326 17.7188 15.4326 17.6771 15.4326L16.8594 8.02637L18.4375 7.66699L19.776 7.78678L20.5625 10.818L22.0833 11.0628L21.6615 7.95345L22.5104 8.02637L24.5156 15.4274L24.5052 15.4326C24.5052 15.4326 24.5885 16.1149 24.724 17.2503C24.9948 19.5055 25.474 23.568 25.9427 27.6774L18.9948 27.318L18.2865 20.917C19.5781 20.6774 20.5625 19.5524 20.5625 18.193Z" fill="#C41830"/>
<path d="M17.8019 19.7139C17.9269 19.7139 18.0415 19.6982 18.1509 19.6722C18.8228 19.516 19.3228 18.917 19.3228 18.193C19.3228 17.3597 18.6509 16.6774 17.8175 16.667H17.7967C16.953 16.667 16.2707 17.3493 16.2707 18.193C16.2759 19.0316 16.9582 19.7139 17.8019 19.7139ZM17.8019 20.9535C16.2759 20.9535 15.0415 19.7191 15.0415 18.193C15.0415 16.7035 16.2134 15.4951 17.6821 15.4326C17.7186 15.4326 17.7655 15.4326 17.8019 15.4326C19.328 15.4326 20.5675 16.667 20.5675 18.193C20.5675 19.5524 19.5832 20.6774 18.2915 20.9118C18.13 20.943 17.9686 20.9535 17.8019 20.9535Z" fill="black"/>
<path d="M19.3229 36.3174C18.4792 36.3174 17.7969 35.6351 17.7969 34.7913C17.7969 33.9528 18.4792 33.2705 19.3229 33.2705C19.4427 33.2705 19.5521 33.2861 19.6615 33.307C20.3437 33.4632 20.8438 34.0674 20.8438 34.7913C20.8438 35.3955 20.4896 35.9215 19.974 36.1663C19.7813 36.2601 19.5573 36.3174 19.3229 36.3174Z" fill="#4A8BDF"/>
<path d="M15.7081 80.3698C16.1768 80.2187 16.7289 80.2083 17.2862 80.3802C18.4998 80.7552 19.2393 81.849 18.932 82.8229C18.63 83.8021 17.406 84.2917 16.1925 83.9167C14.9789 83.5417 14.2341 82.4479 14.5414 81.4688C14.7029 80.9375 15.1456 80.5521 15.7081 80.3698Z" fill="#794426"/>
<path d="M18.1509 19.6722C18.0363 19.6982 17.9217 19.7139 17.8019 19.7139C16.9582 19.7139 16.2759 19.0316 16.2759 18.193C16.2759 17.3493 16.9582 16.667 17.8019 16.667H17.8175C18.6561 16.6774 19.328 17.3597 19.328 18.193C19.3228 18.917 18.8228 19.516 18.1509 19.6722Z" fill="#4A8BDF"/>
<path d="M14.3542 91.1144L16.3125 91.781C16.2083 92.2967 14.9896 93.9425 14.9896 93.9425C14.9896 93.9425 12.7708 93.0362 11.7031 92.2029C12.1771 91.8539 13.7135 91.1039 14.3542 91.1144Z" fill="black"/>
<mask id="mask2_5546_11854" style="mask-type:luminance" maskUnits="userSpaceOnUse" x="0" y="26" width="7" height="7">
<path d="M0.5625 26H7V32.6667H0.5625V26Z" fill="white"/>
</mask>
<g mask="url(#mask2_5546_11854)">
<path d="M4.6512 26.4014L6.31787 29.8962L4.6512 31.5732L1.31787 26.4014C1.31787 26.4014 4.3387 26.4014 4.6512 26.4014Z" fill="#794426"/>
</g>
<path d="M108.24 27.3389L108.146 27.0576L107.953 26.6774L108.01 26.6514L108.104 26.9326L108.297 27.318L108.24 27.3389Z" fill="black"/>
<path d="M117.078 24.0677L116.802 23.401C124.917 20.0573 130.589 16.6406 132.787 13.7656L133.36 14.2083C131.089 17.1771 125.307 20.6771 117.078 24.0677Z" fill="black"/>
<path d="M133.38 14.1716L132.813 13.7289C132.886 13.6351 132.953 13.5362 133.016 13.4424C133.656 12.5049 133.891 11.6559 133.719 10.9111C133.021 7.93198 125.896 6.52052 114.656 7.14032L114.615 6.41636C126.406 5.76532 133.63 7.34344 134.422 10.7445C134.646 11.6924 134.37 12.7393 133.615 13.8486C133.542 13.958 133.464 14.0674 133.38 14.1716Z" fill="black"/>
<path d="M70.8748 15.7757L70.6509 15.0882C75.5675 13.4893 80.8228 12.0309 86.2707 10.7601C95.4894 8.59863 104.489 7.15072 112.318 6.56738L112.37 7.28613C104.583 7.86947 95.6196 9.31217 86.4425 11.458C81.005 12.734 75.7707 14.1872 70.8748 15.7757Z" fill="black"/>
<path d="M58.1248 36.6094C49.4633 36.6094 43.8279 35.1146 43.1248 32.1198C42.1508 27.9687 50.6508 22.2187 65.854 16.7344L66.0935 17.4115C51.7133 22.599 42.9738 28.3073 43.8227 31.9531C45.0883 37.3646 66.7394 37.1198 91.104 31.4167C91.7706 31.2552 92.4373 31.099 93.0988 30.9375L93.2706 31.6354C92.6092 31.7969 91.9425 31.9583 91.2706 32.1146C78.4738 35.1094 66.7863 36.6094 58.1248 36.6094Z" fill="black"/>
<path d="M91.245 122.354L90.6825 121.906C97.8179 112.932 100.974 105.932 100.323 100.505C100.104 98.6716 99.4637 97.0361 98.3647 95.5101C95.6877 91.7601 90.5835 89.3174 86.4325 87.6091C83.9793 86.5934 81.3022 85.6351 78.7137 84.7028C76.745 83.9945 74.7137 83.2653 72.745 82.4945C61.495 78.1351 53.6825 71.0882 48.8647 60.9424C47.5522 58.182 46.4481 55.1299 45.5887 51.8747C44.0522 46.0934 43.2189 39.4163 43.1147 32.0309L43.8335 32.0205C43.9377 39.3486 44.7658 45.9632 46.2866 51.6924C47.1408 54.9007 48.2293 57.9111 49.521 60.6351C54.2554 70.6038 61.9429 77.5361 73.0106 81.8278C74.9741 82.583 77.0002 83.3122 78.9637 84.0205C81.5575 84.9528 84.245 85.9216 86.7085 86.9424C90.9481 88.682 96.172 91.1872 98.9533 95.0882C100.115 96.6976 100.813 98.4893 101.042 100.416C101.719 106.047 98.5106 113.218 91.245 122.354Z" fill="black"/>
<path d="M111.307 109.672L110.99 109.51H110.625V109.427L110.661 109.349C117.589 95.3486 120.406 84.2809 119.271 75.4997C118.891 72.5726 118.094 69.8799 116.771 67.0309C115.932 65.2288 115 63.6247 114.104 62.0674C113.271 60.6299 112.49 59.2653 111.844 57.8747L111.828 57.8382C110.729 55.4424 110.656 52.5153 111.599 48.8955C114.083 39.3278 123.547 26.3955 132.693 13.8903L132.781 13.7705C132.786 13.7653 132.797 13.7445 132.818 13.7236L133.026 13.4424L133.615 13.859L133.281 14.3174C124.172 26.7705 114.75 39.6455 112.297 49.0778C111.401 52.5309 111.458 55.2966 112.484 57.5361L112.5 57.5726C113.13 58.9372 113.906 60.2809 114.729 61.708C115.635 63.2757 116.573 64.9007 117.422 66.7288C118.781 69.6507 119.594 72.4059 119.984 75.4163C121.141 84.333 118.302 95.5413 111.307 109.672ZM133.375 14.182L133.365 14.1872C133.375 14.1872 133.375 14.182 133.375 14.182Z" fill="black"/>
<path d="M69.5939 20.6566L64.1772 20.3441L68.9481 9.19824L72.3335 11.4014L69.5939 20.6566ZM65.2502 19.6826L69.0679 19.9014L71.495 11.7087L69.2814 10.2712L65.2502 19.6826Z" fill="black"/>
<path d="M60.0208 48.2393L48.4062 45.359L50.0052 42.708L60.0156 45.3903V48.2393H60.0208ZM49.5365 44.8955L59.2969 47.3174V45.9476L50.349 43.5465L49.5365 44.8955Z" fill="black"/>
<path d="M81.2865 62.1667L78.9375 58.4115L84 55.25H87.9167L81.2865 62.1667ZM79.9323 58.6406L81.4062 60.9948L86.224 55.9688H84.2083L79.9323 58.6406Z" fill="black"/>
<path d="M143.578 104.651L127.635 100.542L129.302 97.9795L145.25 102.089L143.578 104.651ZM128.786 100.094L143.255 103.823L144.094 102.537L129.625 98.8076L128.786 100.094Z" fill="black"/>
<path d="M153.521 99.2712L152.141 94.6826L155.771 92.5889L158.427 97.193L153.521 99.2712ZM153 95.0264L153.979 98.2972L157.401 96.8545L155.51 93.5837L153 95.0264Z" fill="black"/>
<path d="M32.8644 115.031L31.2446 112.146L38.7759 109.062L40.7863 112.698L32.8644 115.031ZM32.2759 112.5L33.2134 114.177L39.7186 112.26L38.453 109.969L32.2759 112.5Z" fill="black"/>
<path d="M91.3281 30.3753V30.3701H92.0521L91.3281 30.3753Z" fill="black"/>
<path d="M119.38 32.1458L116.141 30.1615L116.516 29.5469L118.266 30.6146L114.901 16.9531L103.938 10.2552L104.318 9.64062L115.531 16.4896L119.38 32.1458Z" fill="black"/>
<path d="M109.526 41.6875L96.8175 33.9219L97.1925 33.3073L109.286 40.6927L115.833 29.974L107.417 24.8385L107.385 24.6927L103.864 10.3854L90.38 13.5833L93.078 15.2344L86.1561 26.5677L91.88 30.0625L91.505 30.6771L85.1665 26.8073L92.0832 15.474L88.505 13.2865L104.39 9.51562L108.047 24.375L116.828 29.7344L109.526 41.6875Z" fill="black"/>
<path d="M97.1248 34.1149L91.1978 30.4899L98.255 18.9326L104.182 22.5524L97.1248 34.1149ZM93.2863 30.9222L93.38 30.9743L96.8853 33.1201L103.193 22.792L98.4946 19.9274L92.1873 30.2503L93.2863 30.9222Z" fill="black"/>
<path d="M109.807 33.9635L105.172 31.1302L107.818 26.7917L107.974 26.4688L108.323 26.6823L108.135 26.9948L108.323 26.6875L112.646 29.3281L109.807 33.9635ZM106.161 30.8906L109.568 32.974L111.651 29.5625L108.245 27.4792L106.161 30.8906Z" fill="black"/>
<path d="M24.6094 77.9794C24.3594 77.9794 24.1875 77.9585 24.1719 77.9585L24.2656 77.245C24.2656 77.245 24.7708 77.3075 25.2083 77.1981C26.5521 76.87 27.224 76.2138 27.875 75.5835C27.9896 75.469 28.099 75.3648 28.2135 75.2606C28.6771 74.8283 29.25 74.3648 30.1823 74.3231C31.1302 74.2815 32.0521 74.7085 33.0312 75.1565C34.1875 75.6929 35.4948 76.2971 37.1094 76.2502L37.1302 76.9742C35.3438 77.0158 33.9583 76.3804 32.7292 75.8127C31.7969 75.3804 30.9844 75.0106 30.2188 75.0419C29.5938 75.0731 29.1875 75.3388 28.7031 75.7867C28.599 75.8856 28.4896 75.9898 28.3802 76.0992C27.724 76.7346 26.9115 77.5263 25.3802 77.896C25.1094 77.9638 24.8281 77.9794 24.6094 77.9794Z" fill="black"/>
<path d="M47.1717 77.4896C46.5103 76.7292 45.7707 76.2032 45.1978 76.0834C44.6196 75.9584 43.9061 75.9688 42.9582 76.099C42.3592 76.1823 41.729 76.3021 41.0623 76.4323C39.7967 76.6719 38.4946 76.9271 37.1405 76.9636L37.1196 76.2396C38.4165 76.2032 39.6873 75.9532 40.9217 75.7188C41.604 75.5886 42.2394 75.4636 42.8592 75.3802C43.8905 75.2344 44.6821 75.2344 45.3384 75.3698C46.0728 75.5261 46.9373 76.1198 47.7134 77.0105L47.1717 77.4896Z" fill="black"/>
<path d="M27.3647 95.8906H23.2345L23.5835 95.3385C23.6043 95.3021 25.7762 91.8073 25.9741 87.8854C24.7866 87.7188 23.6981 87.1146 23.1564 86.724C21.0627 88.9687 17.0991 92.0625 16.9272 92.2031L16.7762 92.3229L13.4429 91.1823L13.995 90.7708C15.7189 89.5 20.271 85.8281 20.6564 84.1354C21.0002 82.6198 20.6095 82.1406 20.4793 82.0312C20.4481 82 20.422 81.9896 20.422 81.9844L20.7085 81.3229C20.7345 81.3333 20.8335 81.3802 20.9533 81.4844C21.2814 81.7656 21.7658 82.5104 21.3595 84.2969C20.9168 86.2448 16.5887 89.7031 14.9637 90.9427L16.6304 91.5104C17.422 90.8854 21.0887 87.9635 22.8491 85.9896L23.0991 85.7083L23.37 85.974C23.62 86.224 24.9481 87.1198 26.3647 87.2031L26.7085 87.224L26.7033 87.5729C26.6356 90.9271 25.172 93.9635 24.5158 95.1771H26.7397C27.1043 93.3385 28.9116 87.8594 31.0835 87.3854C31.9481 87.1979 33.2606 87.349 34.771 87.5208C35.8856 87.651 37.0314 87.7813 38.146 87.7969C39.3752 87.8177 40.3439 87.6927 41.1043 87.401L41.3283 87.3177L41.495 87.4896C42.6408 88.6615 43.9845 89.3906 45.495 89.6562C48.2293 90.1354 50.5939 88.9219 50.6147 88.9115L50.9741 88.7292L52.4325 92.4167L53.8543 91.3021L51.8856 86.3438C51.2293 86.5365 49.7293 86.9115 48.7814 86.6927L48.3595 86.5938L48.5262 86.1979C49.5575 83.776 49.2241 81.651 48.7606 80.2917C48.5418 79.6406 48.2397 79.0104 47.8595 78.4219C47.6408 78.0885 47.4116 77.7813 47.1772 77.5104L47.7241 77.0312C47.9793 77.3333 48.2293 77.6667 48.4689 78.026C48.8752 78.6719 49.2085 79.3542 49.4429 80.0625C49.9168 81.4531 50.2658 83.5937 49.3647 86.0365C50.2606 86.0573 51.5106 85.7188 51.9845 85.5625L52.3075 85.4531L54.7241 91.5365L52.12 93.5781L50.5887 89.7188C49.7814 90.0625 47.7293 90.776 45.3752 90.3646C43.7866 90.0833 42.3647 89.3385 41.146 88.151C40.3387 88.4219 39.3491 88.5365 38.1408 88.5156C36.9897 88.5 35.771 88.3594 34.6981 88.2344C33.3075 88.0781 31.995 87.9271 31.245 88.0938C29.5366 88.4635 27.6095 93.9792 27.4064 95.5833L27.3647 95.8906Z" fill="black"/>
<path d="M17.0157 84.406C16.7084 84.406 16.3907 84.3591 16.0886 84.2654C15.323 84.031 14.698 83.531 14.3646 82.9008C14.1042 82.406 14.0417 81.8643 14.198 81.3695C14.3907 80.7445 14.8959 80.2549 15.599 80.031C16.1511 79.8487 16.7865 79.8539 17.3907 80.0414C18.1511 80.2758 18.7813 80.7706 19.1146 81.406C19.375 81.9008 19.4323 82.4424 19.2813 82.9372C19.1042 83.5154 18.6667 83.9685 18.0469 84.2185C17.7188 84.3435 17.375 84.406 17.0157 84.406ZM16.4584 80.6143C16.2344 80.6143 16.0209 80.6508 15.8178 80.7133C15.3438 80.8695 15.0053 81.1768 14.8803 81.5779C14.7865 81.8956 14.823 82.2341 15 82.5622C15.2448 83.0258 15.7188 83.3956 16.2969 83.5779C16.8073 83.7289 17.3282 83.7185 17.7709 83.5466C18.1875 83.3852 18.474 83.0883 18.5886 82.7237C18.6875 82.4112 18.6459 82.0727 18.474 81.7445C18.2292 81.281 17.7553 80.9112 17.1771 80.7289C16.9428 80.6508 16.698 80.6143 16.4584 80.6143Z" fill="black"/>
<path d="M19.2811 82.932L18.5884 82.7184C18.8696 81.8226 19.5675 81.6559 20.1821 81.5153C20.3228 81.484 20.4634 81.4528 20.6092 81.4059C21.1457 81.2393 21.7394 80.932 21.9061 79.359L21.9894 78.5622L22.5311 79.1559C23.2707 79.9684 24.4894 80.1768 25.9998 79.7601C25.38 79.2184 24.255 78.3018 23.4217 78.0257L21.4061 77.3538L23.5311 77.3226C23.7342 77.3174 23.9373 77.2913 24.1353 77.2497C24.8019 77.0934 25.3228 76.7028 25.6457 76.1143C25.9061 75.6403 26.0207 75.0674 25.9894 74.4424C25.7394 74.8851 25.3957 75.2809 24.9582 75.6038C23.8436 76.4268 22.2811 76.6507 20.6769 76.2132C18.8592 75.7132 17.7811 74.9893 17.3696 73.9945C17.1457 73.4424 17.1353 72.8278 17.3488 72.1559C16.7863 72.5257 16.3123 73.0309 16.2603 73.5882C16.1978 74.2913 16.8123 75.0674 18.0311 75.8486L19.4478 76.7497L17.7863 76.5101C17.2707 76.4372 15.8748 76.5205 15.0259 76.609C15.4582 77.1507 16.2655 77.6924 16.828 77.5674L17.2446 77.4736L17.2655 77.9007C17.3071 78.7028 16.63 79.8747 15.9842 80.6143L15.9582 80.6455L15.4582 80.1247L15.4634 80.1195C15.9582 79.5518 16.3644 78.8226 16.505 78.3018C15.4946 78.1976 14.4009 77.2236 14.104 76.4528L13.9478 76.0413L14.38 75.9684C14.7759 75.9059 15.8228 75.807 16.7134 75.7757C15.8696 75.0413 15.479 74.2913 15.5519 73.5309C15.6821 72.0622 17.4425 71.2445 17.9738 71.0257L18.9478 70.6299L18.4269 71.5361C17.9269 72.4007 17.8019 73.1403 18.0467 73.7236C18.3592 74.4945 19.3123 75.0986 20.8748 75.5257C22.2655 75.9059 23.604 75.7236 24.5415 75.0309C25.2394 74.5153 25.6561 73.7497 25.6873 72.9424L25.7498 71.0309L26.3853 72.8382C26.8644 74.1924 26.828 75.484 26.2863 76.4736C25.9321 77.1247 25.3644 77.6038 24.6769 77.8538C25.8019 78.5518 26.9061 79.609 26.9686 79.6663L27.3853 80.0674L26.8384 80.2705C25.0832 80.9059 23.578 80.8486 22.5311 80.1143C22.229 81.4893 21.5103 81.9059 20.8332 82.1143C20.6717 82.1611 20.5155 82.1976 20.3592 82.234C19.7446 82.359 19.4269 82.4528 19.2811 82.932Z" fill="black"/>
<path d="M33.005 83.6462C32.3853 83.6462 31.7186 83.4066 31.0259 82.9274C30.5207 82.5837 30.0571 82.1566 29.6613 81.6722C29.4738 81.443 29.2759 81.167 29.2238 80.818C29.1509 80.3857 29.3384 79.9795 29.505 79.6826C29.6821 79.3597 29.8957 79.0472 30.1248 78.7607L30.1613 78.7243C30.2759 78.5837 30.3853 78.4535 30.4009 78.3337C30.4269 78.1149 30.1405 77.8857 29.8853 77.7503L29.7394 77.6774C29.3644 77.4899 28.9373 77.2712 28.7342 76.8232C28.6509 76.641 28.6248 76.4639 28.5988 76.3024C28.5884 76.2243 28.5728 76.141 28.5519 76.0628C28.5207 75.9535 28.453 75.8857 28.4269 75.8753L28.3853 75.8701L28.3957 75.1514C28.4321 75.1514 28.4634 75.1514 28.4946 75.1566C28.8853 75.193 29.1509 75.5368 29.2446 75.8649C29.2707 75.9743 29.2915 76.0837 29.3071 76.193C29.328 76.3128 29.3436 76.4326 29.3905 76.5212C29.4894 76.7399 29.7707 76.8805 30.0675 77.0316L30.2186 77.1045C30.854 77.443 31.1821 77.9222 31.1144 78.4274C31.0675 78.7451 30.8696 78.9847 30.7134 79.1774L30.6873 79.2139C30.4842 79.4639 30.2967 79.7399 30.1353 80.0316C30.0259 80.2347 29.9009 80.4899 29.9373 80.7087C29.9634 80.8805 30.0884 81.0524 30.2186 81.2139C30.5728 81.6462 30.9842 82.0212 31.4321 82.3285C32.0311 82.7399 32.5936 82.9378 33.078 82.917C33.5519 82.8962 34.1248 82.5993 34.2446 82.0889C34.2811 81.9326 34.2811 81.7503 34.2811 81.5576C34.2811 81.2295 34.2811 80.8493 34.479 80.5107C34.6821 80.1618 35.0571 79.917 35.5936 79.7868C35.729 79.7555 35.8644 79.7295 36.005 79.7087C36.2186 79.6722 36.4269 79.641 36.604 79.5732C36.8019 79.5003 37.0467 79.3337 37.078 79.1201C37.0988 78.9951 37.0467 78.8441 36.9842 78.6618C36.9165 78.4587 36.8384 78.2295 36.8488 77.9691C36.8592 77.766 36.9217 77.5837 36.979 77.4222C37.0103 77.3232 37.0467 77.2243 37.0623 77.141C37.0728 77.0576 37.0363 76.9639 37.0103 76.943L37.0259 76.9014L37.0415 76.2295C37.0832 76.2295 37.1248 76.2347 37.1665 76.2451L37.2394 76.2555C37.6613 76.3857 37.8384 76.8649 37.7759 77.2607C37.755 77.4066 37.703 77.5368 37.6613 77.6566C37.6196 77.7816 37.578 77.8962 37.578 78.0003C37.5675 78.1253 37.6196 78.2764 37.6717 78.4326C37.7498 78.6618 37.8384 78.917 37.7967 79.2139C37.7342 79.6566 37.3748 80.0524 36.8644 80.2503C36.6144 80.3389 36.3644 80.3805 36.1248 80.4222C36.005 80.443 35.8853 80.4587 35.7655 80.4847C35.5363 80.542 35.2342 80.6514 35.1092 80.8701C35.005 81.042 35.0103 81.2764 35.0103 81.5524C35.0103 81.7764 35.0103 82.0107 34.953 82.2503C34.7498 83.1201 33.8748 83.6045 33.1144 83.6357C33.0728 83.641 33.0363 83.6462 33.005 83.6462Z" fill="black"/>
<path d="M41.1717 85.708C40.9322 85.708 40.6665 85.6715 40.3801 85.6038C39.9999 85.5152 39.6144 85.4007 39.2342 85.26C38.8488 85.1194 38.453 84.9423 38.1509 84.6142C37.7811 84.208 37.6769 83.6246 37.8957 83.1923C38.0832 82.833 38.4165 82.6559 38.7134 82.5048C38.8019 82.458 38.8957 82.4111 38.979 82.359C39.1769 82.234 39.3592 82.0205 39.5519 81.8017C39.8488 81.4632 40.1822 81.083 40.6561 80.9215C41.4426 80.6507 42.4374 81.2027 42.8749 81.6194L42.9217 81.6559C42.9842 81.7184 43.0519 81.7809 43.0988 81.8017C43.1509 81.8173 43.2603 81.7913 43.3697 81.7705C43.5311 81.734 43.7342 81.6871 43.953 81.7392C44.2551 81.8069 44.5103 82.0361 44.6822 82.4111C45.0155 83.083 44.953 84.0152 44.2759 84.4059C43.9634 84.583 43.6249 84.5934 43.328 84.6038C43.0624 84.609 42.8384 84.6194 42.703 84.7236C42.6405 84.7757 42.5832 84.8642 42.5259 84.9632C42.4582 85.0621 42.3853 85.1819 42.2811 85.2913C42.0207 85.5673 41.6457 85.708 41.1717 85.708ZM41.0988 81.5725C41.0207 81.5725 40.9478 81.5882 40.8853 81.609C40.5936 81.7027 40.354 81.984 40.0988 82.2757C39.8749 82.5309 39.6509 82.7861 39.3592 82.9736C39.2603 83.0361 39.1509 83.0934 39.0467 83.1507C38.8176 83.2705 38.6197 83.3694 38.5363 83.5257C38.453 83.6871 38.5207 83.9475 38.6874 84.1298C38.8697 84.3277 39.1353 84.458 39.4842 84.583C39.8384 84.7132 40.1926 84.8225 40.5467 84.9059C41.1457 85.0517 41.5572 85.0152 41.7655 84.7913C41.8176 84.7392 41.8644 84.6559 41.9217 84.5777C42.0051 84.4423 42.0988 84.2965 42.2499 84.1715C42.578 83.9007 42.9686 83.8902 43.3176 83.8798C43.5572 83.8746 43.7759 83.8694 43.9269 83.7809C44.2186 83.609 44.2238 83.0882 44.0467 82.7236C43.9686 82.5621 43.8801 82.458 43.8019 82.4423C43.7447 82.4267 43.6405 82.4527 43.5363 82.4736C43.354 82.5205 43.1249 82.5673 42.8749 82.484C42.6822 82.4215 42.5415 82.2913 42.4269 82.1871L42.3905 82.1507C42.0572 81.8434 41.5051 81.5725 41.0988 81.5725Z" fill="black"/>
<path d="M44.2758 80.526C43.5883 80.526 42.9945 79.9688 42.781 79.7604C42.4529 79.4427 42.0883 79.0677 41.9216 78.5729C41.7445 78.0469 41.8539 77.3333 42.3904 76.9844C42.4633 76.9375 42.5518 76.8958 42.6404 76.8542C42.682 76.8333 42.7497 76.8073 42.7966 76.776C42.656 76.6094 42.4425 76.3073 42.5466 75.6823L42.5518 75.6562C42.557 75.6302 42.5622 75.6094 42.5727 75.5938L42.9112 75.7135L43.2654 75.7812L43.255 75.8125C43.1977 76.1406 43.2758 76.2292 43.3695 76.3438C43.4581 76.4479 43.5987 76.6198 43.5518 76.8802C43.4789 77.2604 43.156 77.4115 42.9425 77.5104C42.8852 77.5365 42.8227 77.5625 42.7706 77.599C42.557 77.7344 42.5102 78.0937 42.5987 78.349C42.7081 78.6875 43.005 78.9844 43.2654 79.2396C43.7497 79.6979 44.1247 79.875 44.4164 79.7812C44.5622 79.7396 44.7029 79.6198 44.8487 79.4896C44.9945 79.3698 45.1612 79.2292 45.3591 79.1302C45.5779 79.026 45.807 78.9844 46.005 78.9479C46.1508 78.9271 46.2862 78.901 46.406 78.8542C46.9216 78.6563 47.1612 78.0104 47.1352 77.4792C47.1352 77.474 47.1352 77.4687 47.1352 77.4635L47.1091 77.4167L47.3383 77.3073L47.3018 76.8438C47.4529 76.8333 47.5935 76.8906 47.6977 77.0104L47.7445 77.0677C47.807 77.1667 47.8487 77.2865 47.8591 77.4323C47.9008 78.2083 47.5466 79.1927 46.6612 79.526C46.4789 79.599 46.307 79.625 46.1352 79.6562C45.9633 79.6927 45.8018 79.7187 45.6768 79.7812C45.557 79.8385 45.4425 79.9375 45.3175 80.0417C45.13 80.1979 44.9216 80.3802 44.6352 80.4688C44.5206 80.5104 44.3956 80.526 44.2758 80.526ZM47.2029 77.5208C47.2497 77.5521 47.307 77.5677 47.3643 77.5677L47.3487 77.3646L47.2029 77.5208Z" fill="black"/>
<path d="M49.401 80.3646L48.7969 79.974C49.8229 78.401 50.0937 76.1354 49.5312 73.9167C49.0781 72.1302 48.1458 70.6719 46.9323 69.8281C48.4323 71.0469 48.9271 72.9583 49.0885 74.0729C49.3542 75.9062 49.0677 77.7969 48.4219 78.4688L47.901 77.9688C48.276 77.5781 48.6458 76.0417 48.3698 74.1719C48.2135 73.0677 47.6927 71.0781 46.0208 70.0677C43.5677 70.1458 42.4948 69.1563 41.6667 66.0938L41.2812 64.6719L42.2812 65.7552C42.7708 66.2865 43.4479 66.4635 44.1562 66.6562C45.2187 66.9375 46.4115 67.2552 46.7604 68.8802C46.7865 68.8958 46.8073 68.9063 46.8333 68.9219C48.4323 69.7865 49.6667 71.5469 50.2292 73.7396C50.8438 76.1458 50.5365 78.625 49.401 80.3646ZM42.6823 66.9115C43.4427 69.0625 44.3854 69.4115 46.1042 69.3385H46.1198L46.0938 69.1823C45.8698 67.8594 45.0365 67.6406 43.9792 67.3542C43.5573 67.2396 43.1042 67.1198 42.6823 66.9115Z" fill="black"/>
<path d="M45.5104 97.7399H42.1979L43.0469 93.4743C39.8594 92.8962 37.875 90.3701 37.7812 88.167L38.5052 88.1357C38.6094 90.641 41.1927 92.5212 43.5208 92.8232L43.9062 92.8753L43.0781 97.0212H44.9688L46.349 92.2295C45.8646 91.9378 44.9583 91.2243 45.0781 89.9743L45.7969 90.0212V90.042C45.6927 91.1722 46.8646 91.6982 46.9167 91.7191L47.2083 91.8441L47.1198 92.1514L45.5104 97.7399Z" fill="black"/>
<path d="M52.4165 96.0465L52.2446 95.682C51.7394 94.6195 51.9061 93.0153 51.9113 92.9476L52.63 93.0257C52.63 93.0361 52.5207 94.0882 52.7446 94.9476C53.2811 94.4997 54.0623 93.7236 54.4894 93.2861C54.3748 93.0153 54.0936 92.5153 53.4634 92.3174L53.6821 91.6299C54.9425 92.0205 55.2446 93.2445 55.255 93.2965L55.2967 93.4893L55.1665 93.6299C55.0936 93.7028 53.4634 95.4007 52.7602 95.833L52.4165 96.0465Z" fill="black"/>
<path d="M42.5833 100.146C42.0521 100.146 41.5417 100.135 41.2031 100.109L40.7656 100.068L40.8906 99.6458C41.0521 99.1146 41.7813 97.5677 42.4219 97.0938L42.849 97.6771C42.5365 97.9115 42.0313 98.7813 41.7448 99.4167C42.5885 99.4479 43.8542 99.4167 44.4323 99.401C44.526 98.6042 44.5625 97.7396 44.4688 97.5417L45.1198 97.2292C45.375 97.7604 45.1719 99.3333 45.1042 99.8021L45.0625 100.099L44.7604 100.109C44.6927 100.109 43.6042 100.146 42.5833 100.146Z" fill="black"/>
<path d="M26.1248 98.4268L25.9009 98.4215C25.7759 98.4215 22.8853 98.3538 22.0988 98.2861L21.6978 98.2497L21.7811 97.8538C22.0207 96.6976 23.4946 95.4007 23.6613 95.2549L24.13 95.8018C23.7967 96.0934 22.9842 96.8903 22.6353 97.5934C23.5311 97.6403 25.104 97.682 25.6925 97.6976C25.979 97.0778 26.2863 96.1195 26.1196 95.6559L26.7967 95.4059C27.1561 96.3903 26.3332 98.0413 26.2394 98.2288L26.1248 98.4268Z" fill="black"/>
<path d="M15.1094 94.375L14.8542 94.2708C14.7604 94.2344 12.5781 93.3437 11.4844 92.4844L11.1094 92.1927L11.4896 91.9062C11.9635 91.5573 13.5677 90.75 14.3438 90.75C14.349 90.75 14.3542 90.75 14.3542 90.75L14.349 91.474C14.3437 91.474 14.3438 91.474 14.3438 91.474C13.9479 91.474 12.9948 91.8698 12.3594 92.2188C13.1979 92.7552 14.3542 93.2708 14.8646 93.4948C15.3802 92.776 15.9115 91.9531 15.9583 91.7083L16.6667 91.8542C16.5469 92.4167 15.4896 93.8698 15.276 94.1562L15.1094 94.375Z" fill="black"/>
<path d="M150.833 20.5781L149.896 15.2656L152.636 13.7188L156.287 14.9896L154.188 19.2396L150.833 20.5781ZM150.693 15.6458L151.391 19.5781L153.662 18.6719L155.276 15.401L152.703 14.5104L150.693 15.6458Z" fill="black"/>
<path d="M165.995 22.6826H163.484L162.375 17.7295H164.427L165.995 22.6826ZM164.062 21.9639H165.01L163.896 18.4535H163.271L164.062 21.9639Z" fill="black"/>
<path d="M98.4012 54.0621L98.2085 53.3642C102.667 52.161 107.24 50.5777 111.807 48.6558C124.719 43.2131 139.063 33.9579 139.833 28.859C140.005 27.7392 139.802 26.8746 139.214 26.2288C137.583 24.4319 133.333 24.6558 130.526 24.8121C129.745 24.8485 129.073 24.885 128.557 24.8798L128.573 24.1558C129.063 24.1663 129.724 24.1298 130.485 24.0933C133.432 23.9371 137.891 23.6975 139.75 25.7444C140.479 26.5517 140.75 27.635 140.547 28.9683C139.797 33.8902 127.031 43.0204 112.083 49.3173C107.49 51.2548 102.88 52.8538 98.4012 54.0621Z" fill="black"/>
<path d="M104.583 60.5885L104.417 59.8854C106.786 59.3229 109.338 58.4687 112.01 57.349C122.213 53.1042 130.318 46.849 130.224 44.5C130.213 44.2552 130.114 43.9063 129.396 43.6719L129.614 42.9844C130.677 43.3281 130.922 43.9844 130.943 44.4688C131.073 47.724 121.203 54.3021 112.286 58.0156C109.578 59.1562 106.989 60.0156 104.583 60.5885Z" fill="black"/>
<path d="M106.396 71.693L106.213 70.9951C110.39 69.8805 114.083 68.3492 116.901 66.5732C120.526 64.2919 121.765 62.2086 121.39 61.2346C121.083 60.4586 119.672 60.219 117.609 60.594L117.479 59.8805C120.859 59.2659 121.802 60.2971 122.062 60.969C122.672 62.5367 120.797 64.969 117.286 67.1826C114.406 69.0003 110.646 70.5628 106.396 71.693Z" fill="black"/>
<path d="M115.208 77.8903L115 77.2028C116.495 76.7444 118.026 76.0361 119.438 75.1507C122.75 73.0882 124.974 70.3225 124.505 68.859C124.208 67.9475 122.797 67.5257 120.526 67.6767L120.479 66.958C123.849 66.7392 124.906 67.7496 125.193 68.635C125.854 70.7028 122.99 73.7861 119.818 75.7653C118.359 76.6819 116.766 77.4163 115.208 77.8903Z" fill="black"/>
<path d="M71.8176 89.8701C69.052 89.8701 67.078 89.4014 66.5676 88.2451C65.9999 86.9535 67.3645 85.1826 70.6197 82.9899L71.0207 83.5889C67.0416 86.2712 67.0416 87.5316 67.2291 87.9535C67.927 89.5368 74.2499 89.891 86.4895 86.9326C90.7551 85.9014 95.3332 84.5576 100.088 82.9482L100.323 83.6305C95.5468 85.2503 90.9478 86.5941 86.6562 87.6357C81.4062 88.9014 75.7968 89.8701 71.8176 89.8701Z" fill="black"/>
<path d="M68.6145 101.885C64.7447 101.885 62.401 101.13 61.9218 99.6927C61.276 97.7708 64.0989 95.3802 69.1041 93.5938L69.3437 94.276C64.3749 96.0469 62.1926 98.224 62.6093 99.4635C63.4218 101.896 73.6666 102.714 98.5572 94.9531C102.484 93.7292 106.734 92.3073 111.182 90.7188L111.427 91.3958C106.969 92.9896 102.708 94.4167 98.7708 95.6406C87.5208 99.1458 78.0729 101.266 71.4531 101.766C70.4322 101.849 69.4843 101.885 68.6145 101.885Z" fill="black"/>
<path d="M89.3333 102.698C88.0052 102.698 86.7708 102.599 85.6719 102.396L85.8073 101.683C89.6302 102.381 95.151 101.797 100.578 100.115C102.964 99.3753 104.979 98.516 106.104 97.7607L106.505 98.3597C105.323 99.1514 103.245 100.042 100.792 100.808C96.8073 102.042 92.7552 102.698 89.3333 102.698Z" fill="black"/>
<path d="M164.417 69.8021C164.104 69.8021 163.802 69.7709 163.51 69.7136C161.818 69.375 160.547 68.2292 160.224 66.8282C158.786 67.7761 157.323 67.9323 156.219 67.2292C155.089 66.5104 154.599 65.0729 154.958 63.5625L155.656 63.7292C155.37 64.9375 155.74 66.0729 156.609 66.6198C157.578 67.2448 158.922 66.9792 160.281 65.8959L160.854 65.4427L160.865 66.1719C160.901 67.6719 162.292 68.7292 163.651 69.0052C164.937 69.2604 166.594 68.9063 167.375 67.1354L167.552 66.7396L167.906 66.9792C168.979 67.6927 170.74 67.4584 172.094 66.4271C173.526 65.3334 174.047 63.6875 173.495 62.0261L173.338 61.5417L173.849 61.5521C173.859 61.5521 173.87 61.5521 173.88 61.5521C175.062 61.5521 176.172 60.1979 176.469 58.375C176.74 56.724 176.266 54.724 174.13 54.0521L171.922 53.3646L174.234 53.349C179.391 53.3177 181.338 51.3229 181.448 49.4636C181.568 47.4167 179.557 45.0417 175.995 44.6042L172.74 44.2032L176.005 43.8854C177.37 43.75 178.698 42.0157 179.255 40.4532C179.687 39.2396 179.651 38.1927 179.172 37.7136C178.703 37.25 177.776 37.25 176.5 37.7188L175.323 38.1511L176.094 37.1563C179.344 32.9636 179.693 30.7292 179 30.0886C178.255 29.4011 175.937 30.0938 173.349 32.4479L172.828 32.9219L172.75 32.2188C172.713 31.9063 171.937 30.9271 170.635 30.7552C169.469 30.6094 167.213 31.1302 165.245 36.2761L164.818 37.4011L164.552 36.224C164.422 35.6198 163.234 34.9219 162.208 35.0417C161.151 35.1667 160.578 36.1146 160.599 37.7084L160.625 39.5625L159.906 37.849C159.427 36.6979 158.187 36.3386 157.271 36.5834C156.01 36.9167 155.385 38.1719 155.599 39.9375L155.75 41.1615L154.964 40.2084C151.792 36.3646 148.943 36.5625 147.865 36.8282C146.365 37.1927 145.286 38.3125 144.963 39.8177C144.74 40.8802 144.63 43.6667 148.463 46.6302L149.641 47.5417L148.177 47.2709C146.771 47.0104 144.292 48.1667 143.76 49.6615C143.203 51.2292 144.891 52.5573 146.411 53.3907L146.896 53.6563L146.463 53.9948C145.411 54.8073 145.073 55.7917 145.469 56.849C146.13 58.5886 148.88 60.3334 152.177 60.1146L152.224 60.8334C148.552 61.0782 145.562 59.1302 144.797 57.1042C144.338 55.9063 144.646 54.7188 145.62 53.7657C142.849 52.099 142.698 50.4896 143.083 49.4115C143.62 47.9167 145.588 46.7552 147.229 46.5417C143.885 43.5677 144.021 40.7761 144.255 39.6615C144.63 37.9063 145.948 36.5469 147.693 36.125C148.823 35.849 151.672 35.6198 154.839 38.9792C154.937 37.1302 156 36.1719 157.083 35.8854C158.13 35.6094 159.224 35.9271 159.953 36.6511C160.271 34.7657 161.531 34.3906 162.12 34.3229C163.13 34.2031 164.245 34.6511 164.849 35.3229C166.937 30.3594 169.406 29.8698 170.724 30.0365C171.911 30.1927 172.838 30.9115 173.245 31.5729C175.833 29.349 178.365 28.5157 179.484 29.5573C180.656 30.6354 179.854 33.224 177.307 36.7292C178.359 36.5209 179.151 36.6771 179.677 37.1979C180.385 37.8959 180.479 39.1667 179.937 40.6927C179.458 42.0261 178.505 43.4219 177.37 44.1302C180.547 44.9896 182.297 47.3907 182.172 49.5052C182.057 51.5 180.255 53.6302 175.641 54.0104C177.12 55.1094 177.432 57 177.187 58.4948C176.911 60.1823 175.828 61.9479 174.312 62.2344C174.745 64.0469 174.104 65.8073 172.536 67.0052C171.062 68.1302 169.203 68.4271 167.865 67.7813C167.047 69.2709 165.682 69.8021 164.417 69.8021Z" fill="black"/>
<path d="M148.453 83.7809L144.594 76.3382L142.927 78.6768V74.8122L133.401 77.9684L140.364 72.4893L133.401 69.1351L142.109 70.2653L154.599 57.5153L153.932 50.6715L155.625 49.5049L156.797 55.557L160.521 51.5986L162.292 45.7549H164.099L163.068 50.3122L171.411 46.8278L171.943 48.6351L171.672 48.7705C168.594 50.3018 163.917 52.6455 163.484 52.9215C163.271 53.1559 161.604 55.2184 160.255 56.8903L166.375 56.3955L166.568 58.6872L158.969 59.8538L146.234 74.807L148.453 83.7809ZM144.687 74.9528L146.286 78.0413L145.443 74.6247L158.583 59.1768L165.781 58.0778L165.703 57.1715L158.63 57.7445L159.156 57.0934C159.76 56.3434 162.781 52.5986 162.979 52.3955C163.177 52.1976 167.422 50.0726 171.068 48.2601L170.932 47.807L162.036 51.5205L163.177 46.4788H162.812L161.151 51.9736L156.338 57.0778L155.114 50.7236L154.677 51.0205L155.338 57.7757L152.448 60.7288L142.364 71.0309L137.739 70.4268L141.713 72.3382L137.078 75.9893L143.646 73.8122V76.4111L144.687 74.9528Z" fill="black"/>
<path d="M93.4478 145.198C86.8175 145.198 79.5832 143.661 74.8905 140.239C74.4113 141.156 73.0571 141.917 71.4269 142.104C69.2394 142.359 67.505 141.516 66.6769 139.833C63.7342 142.297 53.578 143.849 48.8332 140.12C42.4686 142.364 35.9061 141.932 34.4321 139.151C34.1717 138.651 34.078 138.099 34.1509 137.51C34.4009 135.437 36.3748 133.536 39.1821 132.672C41.5884 131.932 44.8592 131.963 47.203 134.083C47.4269 132.906 48.2655 131.885 49.5571 131.255C51.5103 130.307 54.88 130.182 58.1717 132.766C58.2342 132.333 58.4113 131.838 58.8853 131.516C59.4894 131.104 60.3957 131.104 61.6353 131.516C61.5155 130.62 61.8696 129.609 62.6405 128.776C63.7603 127.568 65.88 126.667 68.5728 127.526C67.8696 124.63 67.9686 121.739 68.8644 119.328C70.0103 116.229 72.4113 114.078 75.8019 113.114C79.8228 111.969 83.8019 112.906 85.953 115.505C87.5884 117.484 87.953 120.135 87.0415 123.125C88.2498 121.979 89.5832 121.526 91.0259 121.771L91.328 121.833C92.2655 122.052 93.0884 122.51 93.7759 122.906C93.9425 121.448 94.7238 120.255 95.9686 119.583C97.3384 118.838 99.0571 118.885 100.588 119.661C100.505 113.734 104.245 109.917 110.943 109.151C112.375 108.989 113.854 108.979 115.344 109.12C118.64 109.422 123.099 111.104 124.818 114.838C125.745 116.859 126.161 120.229 123.036 124.963C126.51 124.729 128.844 125.359 130.156 126.87C131.193 128.068 131.531 129.797 131.172 132.031C132.562 130.943 134.906 129.974 137.073 130.38C138.385 130.63 140.104 131.479 140.974 134.141C143.849 134.068 144.906 135.516 145.234 136.156C145.755 137.167 145.646 138.37 144.958 139.208C144.13 140.229 142.401 140.766 139.953 139.417C139.885 139.807 139.63 140.151 139.198 140.396C137.87 141.151 134.833 140.901 133.292 139.245C131.489 140.755 125.302 144.073 117.62 140.156C115.88 141.818 113.005 143.042 108.854 140.193C107.927 141.896 105.677 143.26 102.318 144.156C99.7342 144.838 96.6613 145.198 93.4478 145.198ZM74.4113 138.969L74.9269 139.364C81.63 144.578 94.2603 145.547 102.12 143.453C105.469 142.562 107.693 141.161 108.37 139.51L108.547 139.088L108.917 139.359C112.193 141.75 115.005 141.786 117.281 139.463L117.474 139.271L117.713 139.401C125.604 143.562 131.828 139.729 133.062 138.479L133.354 138.177L133.604 138.516C134.786 140.099 137.703 140.417 138.833 139.771C139.344 139.479 139.281 139.135 139.172 138.87L138.719 137.786L139.703 138.432C142.088 139.989 143.687 139.625 144.385 138.76C144.89 138.141 144.969 137.245 144.578 136.489C144.005 135.359 142.599 134.776 140.719 134.88L140.432 134.896L140.349 134.62C139.76 132.599 138.614 131.411 136.932 131.099C134.568 130.661 131.807 132.109 130.859 133.338L129.807 134.719L130.224 133.036C130.854 130.474 130.646 128.557 129.604 127.354C128.38 125.943 125.937 125.401 122.338 125.755L121.547 125.828L122.005 125.182C124.687 121.396 125.432 117.927 124.151 115.146C122.562 111.693 118.375 110.13 115.271 109.844C113.828 109.708 112.401 109.724 111.015 109.875C107.193 110.318 100.838 112.25 101.323 120.292L101.37 121.01L100.765 120.614C99.328 119.667 97.6196 119.516 96.3019 120.229C95.13 120.859 94.4582 122.062 94.4582 123.521V124.135L93.9165 123.838C93.7967 123.766 93.6665 123.693 93.5259 123.609C92.7967 123.187 91.8905 122.667 90.8957 122.495L90.729 122.469C88.979 122.245 87.4425 123.26 86.0415 125.573L85.4113 125.229C87.2707 121.526 87.2655 118.239 85.3905 115.974C83.4269 113.599 79.7394 112.755 75.9946 113.818C72.828 114.719 70.5988 116.719 69.5311 119.594C68.6248 122.052 68.5936 125.047 69.4425 128.021L69.6509 128.739L68.9582 128.453C66.2863 127.344 64.2134 128.151 63.1665 129.281C62.38 130.13 62.1196 131.182 62.5103 131.958L62.953 132.823L62.0571 132.453C60.38 131.76 59.6248 131.891 59.2915 132.12C58.854 132.417 58.8592 133.073 58.8644 133.427V134.318L58.2655 133.786C55.0571 130.953 51.7394 131.005 49.8696 131.911C48.5519 132.557 47.7967 133.672 47.8696 134.896L47.9269 135.953L47.2342 135.156C45.104 132.713 41.7863 132.63 39.3905 133.37C36.8905 134.141 35.0728 135.838 34.8592 137.604C34.8071 138.047 34.8748 138.453 35.0675 138.823C36.3696 141.286 42.7759 141.547 48.7759 139.385L48.9738 139.318L49.13 139.448C53.9269 143.448 64.6717 141.187 66.5259 138.984L66.9321 138.505L67.1405 139.099C68.0155 141.583 70.578 141.489 71.3436 141.401C72.8853 141.224 74.255 140.406 74.3384 139.625L74.4113 138.969Z" fill="black"/>
<path d="M123.995 128.62L123.276 128.537C123.396 127.495 122.786 126.407 121.693 125.704C120.578 124.985 119.271 124.87 118.349 125.422L117.979 124.802C119.151 124.105 120.724 124.219 122.088 125.094C123.417 125.954 124.146 127.302 123.995 128.62Z" fill="black"/>
<path d="M88.297 128.042C87.9116 126.995 86.8908 126.11 85.6356 125.729C84.7658 125.469 83.047 125.24 81.2554 126.604L80.8179 126.032C82.3335 124.875 84.1147 124.521 85.8387 125.037C87.3022 125.479 88.5054 126.537 88.9689 127.792L88.297 128.042Z" fill="black"/>
<path d="M71.4635 131.38L71.4792 130.719C71.4948 130.24 70.349 129.005 68.9688 128.448L69.2396 127.781C70.3958 128.245 71.6979 129.307 72.0833 130.214C72.9375 129.891 73.8854 130.026 74.5156 130.344C74.9635 130.573 75.2292 130.87 75.2604 131.182L74.5417 131.255C74.5208 131.208 74.3437 131.031 73.9583 130.896C73.7135 130.807 72.8385 130.557 72.026 131.042L71.4635 131.38Z" fill="black"/>
<path d="M74.0207 21.2035L72.1196 19.8337L73.8696 16.9639L76.7603 18.6722L74.0207 21.2035ZM73.0832 19.6357L73.9634 20.2712L75.5571 18.7972L74.1144 17.9482L73.0832 19.6357Z" fill="black"/>
<path d="M99.3905 46.7812L95.0571 44.4219L98.5623 41.5781L99.3905 46.7812ZM96.3488 44.3021L98.4478 45.4427L98.0467 42.9271L96.3488 44.3021Z" fill="black"/>
<path d="M27.2185 54.3747C23.307 54.3747 21.1873 53.7288 20.88 52.4476C20.4737 50.7497 23.4737 48.6924 26.0675 47.2705C29.5414 45.3538 34.2602 43.4528 39.3487 41.9111L39.5623 42.5986C28.4112 45.984 21.1352 50.4163 21.5779 52.2757C21.7706 53.0674 24.0779 55.3278 45.8748 51.4372C51.4893 50.4372 58.0258 49.0882 65.307 47.4268L65.4685 48.1299C58.1716 49.7965 51.6195 51.1455 45.9998 52.1455C37.6977 53.6299 31.4216 54.3747 27.2185 54.3747Z" fill="black"/>
<path d="M41.2968 61.8493C37.5624 61.8493 37.3905 61.0055 37.3176 60.6514C36.927 58.7451 43.453 56.8701 44.7655 56.5107L44.953 57.2087C39.927 58.5732 37.9322 60.0524 38.0259 60.5055C38.0312 60.5212 38.4426 61.9222 49.1509 60.4378C52.1353 60.0316 55.6509 59.4274 59.5884 58.6514L59.7291 59.3597C55.7759 60.1357 52.2499 60.7399 49.2447 61.1566C45.578 61.6618 43.0416 61.8493 41.2968 61.8493Z" fill="black"/>
<path d="M17.8019 21.3177C16.078 21.3177 14.6821 19.9167 14.6821 18.1979C14.6821 16.5208 15.9946 15.1458 17.6665 15.0781L17.6978 15.8021C16.4113 15.8542 15.4009 16.9062 15.4009 18.1979C15.4009 19.5208 16.4738 20.5938 17.7967 20.5938C17.9425 20.5938 18.078 20.5833 18.2186 20.5573L18.3488 21.2708C18.1717 21.3021 17.9894 21.3177 17.8019 21.3177Z" fill="black"/>
<path d="M17.8019 20.0732C16.7603 20.0732 15.9165 19.2295 15.9165 18.193C15.9165 17.1566 16.7603 16.3076 17.8019 16.3076C18.8488 16.3232 19.6873 17.167 19.6873 18.193C19.6873 19.0732 19.0884 19.8285 18.2342 20.0212C18.0936 20.0576 17.9478 20.0732 17.8019 20.0732ZM17.8123 17.0316C17.1561 17.0316 16.6353 17.5524 16.6353 18.193C16.6353 18.8337 17.1561 19.3493 17.7967 19.3493C17.8905 19.3493 17.9738 19.3389 18.0571 19.318L18.0675 19.3128C18.5936 19.1982 18.9634 18.7347 18.9634 18.1878C18.9634 17.5628 18.4478 17.0368 17.8123 17.0316Z" fill="black"/>
<path d="M19.3228 37.9167C17.5988 37.9167 16.1978 36.5156 16.1978 34.7969C16.1978 33.0729 17.5988 31.6719 19.3228 31.6719C19.3957 31.6719 19.4634 31.6771 19.5311 31.6771L19.4998 32.401H19.4946C19.4373 32.401 19.38 32.3958 19.3228 32.3958C17.9946 32.3958 16.9217 33.474 16.9217 34.7969C16.9217 36.1146 17.9998 37.1927 19.3228 37.1927C19.5571 37.1927 19.7915 37.1615 20.0103 37.0938L20.2186 37.7812C19.9321 37.8698 19.63 37.9167 19.3228 37.9167Z" fill="black"/>
<path d="M19.3229 36.6768C18.2865 36.6768 17.4375 35.833 17.4375 34.7965C17.4375 33.7549 18.2865 32.9111 19.3229 32.9111C19.4531 32.9111 19.5885 32.9268 19.7344 32.958C20.6042 33.1559 21.2083 33.9111 21.2083 34.7965C21.2083 35.5153 20.7865 36.1872 20.1302 36.4945C19.875 36.6143 19.6042 36.6768 19.3229 36.6768ZM19.3229 33.6299C18.6823 33.6299 18.1615 34.1507 18.1615 34.7913C18.1615 35.432 18.6823 35.9528 19.3229 35.9528C19.4948 35.9528 19.6615 35.9163 19.8177 35.8382C20.2292 35.6455 20.4844 35.2445 20.4844 34.7913C20.4844 34.2445 20.1146 33.7809 19.5781 33.6559C19.4948 33.6455 19.4115 33.6299 19.3229 33.6299Z" fill="black"/>
<path d="M20.2448 41.8333L19.724 37.1771L20.0156 37.0938C20.7865 36.8646 21.4115 36.2344 21.6302 35.4531C21.6927 35.2396 21.724 35.0208 21.724 34.7917C21.724 33.5365 20.7448 32.4844 19.4948 32.3958L19.1927 32.375L17.8906 20.6146L18.224 20.5573C19.375 20.349 20.2031 19.3594 20.2031 18.1927C20.2031 16.8698 19.125 15.7917 17.8021 15.7917C17.776 15.7917 17.7448 15.7917 17.7135 15.7969L17.3594 15.8281L16.4688 7.74479L18.4167 7.29688L22.7917 7.6875L24.8281 15.2031L30.7188 19.099L30.7448 19.2448C30.8385 19.6979 30.9167 20.1719 30.9844 20.6562C31.224 22.4323 31.4063 24.8854 31.526 27.9375C31.6198 30.4115 31.6719 33.2292 31.6823 36.3177C31.6823 38.0469 31.6667 39.1667 31.6667 39.1667V39.4062L31.4427 39.5C30.1771 40.0208 28.7865 40.4688 27.3073 40.8333C23.6042 41.75 20.6927 41.8281 20.5729 41.8281L20.2448 41.8333ZM20.5104 37.6823L20.8854 41.0938C21.75 41.0469 24.2188 40.8594 27.1354 40.1302C28.4948 39.7917 29.776 39.3854 30.9479 38.9167C30.9531 38.5 30.9635 37.5677 30.9583 36.3177C30.9531 33.2396 30.901 30.4271 30.8073 27.9635C30.6875 24.9323 30.5052 22.5104 30.2656 20.7552C30.2083 20.3333 30.1458 19.9271 30.0677 19.5365L24.151 15.625V15.474L22.2292 8.35938L18.4635 8.02604L17.2552 8.30208L18.0052 15.0781C19.6354 15.1823 20.9271 16.5417 20.9271 18.1927C20.9271 19.5938 20 20.8021 18.6823 21.1875L19.8542 31.7135C21.3281 31.9635 22.4479 33.2604 22.4479 34.7917C22.4479 35.0938 22.4062 35.3802 22.3229 35.6562C22.0573 36.5833 21.3906 37.3229 20.5104 37.6823Z" fill="black"/>
<path d="M22.5106 11.4945L20.2762 11.1403L19.4272 7.87467L20.1304 7.69238L20.8543 10.4997L21.6616 10.6247L21.3022 7.99967L22.0158 7.90072L22.5106 11.4945Z" fill="black"/>
<path d="M27.5835 40.4841L26.8595 40.4736C26.8647 40.1247 26.8022 39.2028 26.6616 37.7393C26.4585 35.5518 26.0835 32.0882 25.5835 27.7132C25.1408 23.7861 24.6616 19.7549 24.3647 17.2913C24.2293 16.1559 24.146 15.4788 24.146 15.4788L24.1304 15.3695L24.1772 15.2861L26.5783 8.51009L25.5835 7.33301L26.1356 6.86426L27.396 8.35905L24.8752 15.4788C24.9012 15.6924 24.9741 16.307 25.0783 17.208C25.3752 19.6715 25.8491 23.708 26.3022 27.6403C26.797 32.0153 27.172 35.4841 27.3804 37.6768C27.521 39.1872 27.5887 40.1038 27.5835 40.4841Z" fill="black"/>
<path d="M31.2967 28.3177L31.1509 28.3125L18.979 27.6719L19.0155 26.9531L31.3332 27.599L31.2967 28.3177Z" fill="black"/>
<path d="M30.4481 21.0156C30.4481 21.0156 28.9741 20.1563 27.495 19.2969C24.3647 17.4687 24.3647 17.4687 24.3647 17.25H25.0887H24.7293L24.9325 16.9531C25.1147 17.0729 28.5418 19.0781 30.8075 20.3958L30.4481 21.0156Z" fill="black"/>
<path d="M27.0054 38.0938L21.9429 35.9167L22.2293 35.25L27.0418 37.3229L31.2033 35.9688L31.4272 36.6615L27.0054 38.0938Z" fill="black"/>
<mask id="mask3_5546_11854" style="mask-type:luminance" maskUnits="userSpaceOnUse" x="0" y="26" width="7" height="7">
<path d="M0.5625 26H7V32.6667H0.5625V26Z" fill="white"/>
</mask>
<g mask="url(#mask3_5546_11854)">
<path d="M4.59375 32.1403L0.65625 26.0361H4.88021L6.75521 29.9632L4.59375 32.1403ZM1.97917 26.7601L4.71354 30.9945L5.88542 29.8226L4.42708 26.7601H1.97917Z" fill="black"/>
</g>
<mask id="mask4_5546_11854" style="mask-type:luminance" maskUnits="userSpaceOnUse" x="107" y="0" width="11" height="12">
<path d="M107 0.515625H117.667V11.3333H107V0.515625Z" fill="white"/>
</mask>
<g mask="url(#mask4_5546_11854)">
<path d="M116.932 10.3125H113.849L108.287 0.515625H111.693L116.932 10.3125ZM114.266 9.58854H115.724L111.261 1.23438H109.526L114.266 9.58854Z" fill="black"/>
</g>
<path d="M144.672 138.62H168.615V139.344H144.672V138.62Z" fill="black"/>
<path d="M34.7552 139.344H10.7656V138.62H34.75L34.7552 139.344Z" fill="black"/>
</svg>
