<svg width="345" height="312" viewBox="0 0 345 312" fill="none" xmlns="http://www.w3.org/2000/svg">
<mask id="mask0_5642_6812" style="mask-type:luminance" maskUnits="userSpaceOnUse" x="-78" y="0" width="423" height="312">
<path d="M-78 0H344.172V311.996H-78V0Z" fill="white"/>
</mask>
<g mask="url(#mask0_5642_6812)">
<path d="M310.864 174.743L310.722 174.595L293.355 168.829L307.047 156.26L289.782 143.896V83.3774H282.819C287.655 77.3038 291.329 61.7724 288.143 54.377C286.973 51.6536 284.489 48.8846 279.195 50.0127C281.302 46.4802 282.707 41.7285 283.114 36.5552C283.603 30.5044 282.585 25.2285 280.468 22.79C279.419 21.5935 277.292 20.1577 274.004 22.4367C275.103 13.1953 272.344 6.18739 268.883 3.16771C266.807 1.3559 264.445 0.957071 262.378 2.06239C260.271 3.20189 256.79 6.88249 256.322 18.7789C254.784 17.8901 252.575 17.9243 250.672 19.0638C247.73 20.8186 245.765 25.1259 248.463 32.0883C246.793 31.8604 245.215 32.4188 243.984 33.6494C241.907 35.7347 241.144 39.3697 241.815 43.5859L234.435 40.6346L197.849 55.2772V58.445C196.648 57.8297 195.162 57.4309 193.452 57.2941C191.192 57.1232 189.258 57.8981 187.833 59.539C186.916 57.3739 184.646 54.9809 180.931 54.2858C179.516 54.0352 178.111 54.1149 176.726 54.2061C175.434 54.2858 174.192 54.3428 173.011 54.1377C173.052 48.6111 173.184 23.7927 173.001 22.2316L172.95 21.6846L139.204 6.38111L105.367 21.7074V41.9906L63.1109 58.3083V92.5618H54.9264C54.6923 89.4623 54.336 88.0266 54.0612 87.3201C55.7103 84.8359 56.7791 81.7137 56.9318 78.8421C57.0438 76.5404 56.5552 74.683 55.5576 73.5776C54.9977 72.9623 54.2953 72.5977 53.5013 72.5179C52.8498 70.5694 51.73 69.7489 50.8647 69.3957C49.2971 68.7575 47.3528 69.1906 45.4797 70.558C43.3114 70.0452 42.1407 70.2389 40.4407 73.1332C39.0359 73.3725 37.9467 74.2955 37.2748 75.7541C37.4581 73.0079 37.1527 67.9143 29.3449 66.1025C31.9611 62.5131 33.2641 55.8014 31.1569 51.7448C30.088 49.6823 27.3089 46.7879 20.4987 49.4202C22.4329 40.4181 20.8041 32.1909 16.0298 27.1315C12.5382 23.4395 7.93697 22.243 3.72258 23.9409C-2.06966 26.2541 -6.19244 33.5355 -7.74993 44.0531C-9.37868 42.5262 -11.8116 41.7627 -14.5907 41.9792C-18.459 42.2641 -23.1518 44.6342 -24.9231 49.2492C-25.9919 52.0638 -26.3279 56.6104 -22.2662 62.7751C-25.1674 63.2423 -27.3051 65.5441 -28.1399 69.2247C-29.4327 74.8881 -27.356 82.7393 -21.8488 86.2261L-31.6519 100.96V143.19L-78 168.635V184.269L-34.8992 214.363L-61.9873 242.828L19.2568 288.26H58.2654L117.155 311.13L277.383 263.191V249.073L344.467 208.677L310.864 174.743Z" fill="black"/>
</g>
<mask id="mask1_5642_6812" style="mask-type:luminance" maskUnits="userSpaceOnUse" x="-78" y="142" width="423" height="170">
<path d="M-77.6528 142.939H344.173V311.995H-77.6528V142.939Z" fill="white"/>
</mask>
<g mask="url(#mask1_5642_6812)">
<path d="M47.0796 242.576C47.0999 242.576 47.1305 242.576 47.1407 242.588C47.1712 242.588 47.1407 242.576 47.0796 242.576ZM204.397 183.937C203.022 177.59 198.258 177.408 195.489 179.756C195.062 180.132 194.512 180.827 193.891 181.784L193.718 181.636C193.148 180.701 192.293 176.337 191.692 173.044C191.692 173.044 191.692 173.044 191.692 173.032C191.764 172.884 192.486 171.278 192.395 169.42C192.395 167.46 189.992 155.883 186.684 145.103C186.806 144.921 186.938 144.682 187.071 144.419H288.959L305.623 156.35L291.606 169.226L310.306 175.425L343.024 208.471L276.54 248.502V262.461L117.177 310.138L58.3994 287.313H19.4519L-60.53 242.588L-33.5232 214.203L-77.1636 183.744V169.226L-30.8154 143.759H-6.59795L-24.4226 169.226L6.29973 178.4L-6.57758 183.356L-4.74524 186.011L-18.1824 191.72L3.93804 188.211L1.81049 185.077L14.2908 180.77L25.4681 184.097L-19.0681 211.912L23.086 224.663L8.70213 237.882L46.9676 242.531L22.4345 233.084L35.2101 222.419L-3.87997 209.918L20.5004 196.689L31.9933 200.278L25.1729 207.354L51.5892 209.804L34.6502 203.058L40.6969 196.563L26.3232 191.321C37.4496 185.157 43.7305 181.636 43.7305 181.636L-11.9525 165.876L11.359 143.759H63.4282C62.9497 148.978 62.797 152.897 62.797 152.897C63.1024 153.091 63.4383 153.273 63.7845 153.444C52.1592 174.343 50.9682 198.683 60.8629 200.016C70.7575 201.349 78.148 168.987 78.148 168.987C78.148 168.987 84.775 196.734 84.5612 206.693C84.3372 216.675 84.5612 242.588 84.5612 242.588H87.381C87.269 245.277 87.8391 248.012 89.3558 250.61L89.702 250.393C90.2109 251.601 91.3103 252.433 93.1427 252.684C103.648 254.12 118.113 234.007 115.681 227.011C115.681 226.999 115.67 226.999 115.67 226.999C115.507 226.544 115.284 226.145 114.978 225.826C112.301 221.769 107.588 220.219 102.651 221.564V221.553C103.017 214.077 102.589 174.947 97.7236 155.165C98.4361 154.823 99.0775 154.447 99.6272 154.026L102.07 143.759H114.449V143.747C114.917 144.032 115.406 144.249 115.935 144.431C114.917 147.04 109.542 151.359 109.542 155.176C109.542 158.276 110.967 158.356 112.718 158.002C111.293 162.526 115.121 162.64 116.403 162.526C117.676 162.401 125.575 162.059 124.73 144.647C125.931 144.397 126.919 144.055 127.479 143.759H158.048C155.85 145.456 154.139 152.111 154.068 159.94C153.977 168.19 154.709 175.289 160.329 174.582C165.948 173.876 165.398 161.569 165.195 158.059C165.877 158.31 166.742 158.743 167.841 159.415L167.963 159.393C168.065 160.224 168.238 161.033 168.493 161.808L175.965 165.899H175.975C177.634 174.252 179.222 183.767 179.222 183.767C179.222 183.767 180.79 184.598 183.345 183.767L183.538 183.675C184.852 187.538 186.368 192.826 187.244 198.295H187.264C186.969 203.275 189.483 208.038 190.868 208.505C191.244 208.813 191.743 208.984 192.405 209.018C196.131 209.155 198.319 203.799 201.292 197.008C203.47 192.005 205.089 186.479 204.397 183.937ZM250.541 230.931L284.134 222.943L261.708 223.216L266.33 216.094C266.33 216.094 252.709 214.294 242.489 213.986L277.639 193.065L250.846 183.071L273.7 175.881L264.813 170.161L279.116 162.538L254.47 168.793L261.881 173.762L242.234 178.536L230.375 170.024L262.075 152.02L209.324 170.343L233.449 181.613L220.847 186.273L252.638 193.11L191.031 226.863L168.625 230.612L177.095 218.715L135.867 224.652C135.867 224.652 164.96 226.054 165.327 225.837C165.693 225.632 151.991 241.403 151.991 241.403L174.774 235.842L186.826 241.608L119.946 287.313L204.559 245.744L232.798 245.756L213.151 231.443L233.215 219.501L257.209 221.587L250.541 230.931Z" fill="#3B3A3A"/>
</g>
<path d="M288.946 84.3224V144.42H187.067C189.083 140.557 192.737 129.219 192.391 123.704C193.084 123.59 193.725 123.442 194.336 123.271C193.694 118.918 191.893 115.693 193.175 113.311C194.081 111.602 198.845 108.172 200.82 102.144C204.027 105.198 215.733 110.052 220.314 107.033C224.895 104.013 227.43 77.4056 227.43 77.4056L226.483 75.8217C227.766 74.0099 229.038 71.3206 229.476 67.7996C229.608 66.7968 229.619 65.8396 229.537 64.9736C229.293 62.0793 227.98 60.0737 226.035 60.0737C226.127 58.6494 224.386 57.0427 222.238 58.2163C218.187 55.4701 216.996 60.7688 216.996 60.7688C216.996 60.7688 215.316 60.1991 214.156 62.4895C213.647 63.4695 213.687 64.6887 214.054 65.965C214.603 67.9249 215.896 70.09 217.189 71.9018C217.036 72.3462 214.583 83.1259 212.221 90.6238C210.389 89.6439 203.67 85.6898 199.405 83.1259C198.204 82.3966 197.196 81.7927 196.565 81.3825C194.539 80.1062 195.578 77.7702 195.578 77.7702L195.567 77.6791C197.644 77.2233 199.273 75.8673 200.057 73.6452C201.034 70.8762 198.825 69.4177 200.057 64.3697C200.505 62.7402 200.036 61.2018 198.703 60.0737V55.9259L234.454 41.6138L242.984 45.0323L270.215 55.9259V84.311H280.619L288.946 84.3224ZM262.143 103.42V87.2851H247.738V103.42H262.143Z" fill="#FF9F43"/>
<path d="M174.771 235.854L151.989 241.415C151.989 241.415 165.69 225.655 165.324 225.86C164.957 226.065 135.864 224.664 135.864 224.664L177.092 218.727L168.622 230.623L191.028 226.874L252.635 193.122L220.844 186.274L233.446 181.625L209.321 170.355L262.072 152.032L230.372 170.036L242.232 178.548L261.878 173.774L254.468 168.794L279.113 162.549L264.81 170.173L273.697 175.893L250.844 183.083L277.637 193.077L242.486 213.998C252.696 214.306 266.327 216.106 266.327 216.106L261.705 223.217L284.131 222.955L250.538 230.942L257.206 221.599L233.212 219.513L213.148 231.455L232.795 245.767L204.556 245.756L119.943 287.314L186.823 241.62L174.771 235.854Z" fill="black"/>
<path d="M276.995 51.6653C295.532 44.6004 287.877 79.1274 280.629 84.3235H270.225V55.9385L242.984 45.0448C240.887 36.4871 245.03 31.291 250.018 33.4788C243.432 19.6681 255.118 16.6598 257.124 20.8531C257.399 -9.63998 276.984 1.92599 272.831 24.6249C283.581 13.9478 285.729 41.1477 276.995 51.6653Z" fill="#4CAF50"/>
<path d="M247.742 87.2854H262.146V103.421H247.742V87.2854Z" fill="#4A8BDF"/>
<path d="M229.537 64.9753C229.619 65.8528 229.608 66.7985 229.476 67.8013C229.038 71.3224 227.766 74.0116 226.483 75.8234C226.178 76.2678 225.862 76.6439 225.577 76.9629C222.208 76.4387 220.07 75.7209 218.594 73.7609C218.156 73.2026 217.688 72.5758 217.199 71.8807C215.906 70.0689 214.614 67.9153 214.064 65.9553L215.713 65.8869C216.639 66.9353 218.38 68.1318 220.131 66.6504C220.314 66.5023 220.447 66.3541 220.548 66.1832C220.772 67.0378 222.167 67.4822 222.768 67.0037H222.798C222.819 67.243 222.859 67.4595 222.93 67.6532C223.572 69.6131 227.186 69.6131 228.031 65.1349L229.537 64.9753Z" fill="#794426"/>
<path d="M229.539 64.9735L228.032 65.133C227.187 69.6113 223.573 69.6113 222.932 67.6627C222.861 67.469 222.82 67.2525 222.8 67.0132C222.556 65.0191 223.706 62.0677 226.037 60.0736C227.981 60.0736 229.294 62.0791 229.539 64.9735Z" fill="#794426"/>
<path d="M212.233 90.6133C214.585 83.104 217.048 72.3356 217.201 71.8912C217.689 72.5863 218.158 73.2017 218.595 73.7714C220.071 75.7314 222.209 76.4492 225.579 76.9734C225.874 76.643 226.189 76.2669 226.485 75.8339L227.431 77.4178C227.431 77.4178 224.897 104.025 220.316 107.045C215.735 110.065 204.018 105.21 200.822 102.156C198.847 108.184 194.083 111.603 193.177 113.324C191.894 115.717 193.706 118.93 194.337 123.283C193.726 123.454 193.085 123.602 192.393 123.716C184.901 124.958 173.367 122.713 167.565 119.978C166.506 119.466 165.641 118.964 165.02 118.44C165.02 118.44 169.967 112.959 170.619 110.589C171.27 108.207 171.453 95.9234 170.619 90.6361C167.015 89.337 162.882 88.4482 160.805 89.1433C157.192 90.3398 154.85 106.646 154.85 106.646C154.85 106.646 154.311 106.817 153.496 106.942C151.705 107.204 148.529 107.216 146.411 104.641C146.065 104.23 145.76 103.752 145.485 103.193C145.485 103.193 147.083 84.9613 152.936 79.3664C158.362 74.1816 173.723 74.9223 182.549 77.2355C180.025 85.6223 186.662 88.4254 188.698 89.0408C190.734 89.6561 198.358 90.0093 199.427 83.1267C203.672 85.6792 210.401 89.6333 212.233 90.6133Z" fill="black"/>
<path d="M222.24 58.2169C224.388 57.0432 226.119 58.6499 226.037 60.0743C223.706 62.0684 222.556 65.0197 222.8 67.0138H222.759C222.159 67.5038 220.774 67.048 220.54 66.1934C221.11 65.2932 220.652 64.1195 219.624 62.9572C219.573 61.7152 220.469 59.2424 222.24 58.2169Z" fill="#794426"/>
<path d="M219.624 62.9576C220.652 64.1199 221.11 65.2935 220.54 66.1938C220.438 66.3647 220.306 66.5128 220.123 66.661C218.382 68.1423 216.641 66.9572 215.705 65.8975L214.056 65.9659C213.689 64.6782 213.648 63.4589 214.157 62.479C215.318 60.1886 216.998 60.7583 216.998 60.7583C218.036 61.442 218.962 62.1941 219.624 62.9576Z" fill="#794426"/>
<path d="M217.008 60.7585C217.008 60.7585 218.189 55.4598 222.25 58.206C220.469 59.243 219.583 61.7043 219.624 62.9463C218.962 62.1943 218.036 61.4422 217.008 60.7585Z" fill="#794426"/>
<path d="M204.386 183.939C205.099 186.491 203.47 192.006 201.302 196.975C198.329 203.778 196.13 209.133 192.415 208.985C191.753 208.962 191.254 208.791 190.878 208.472C189.107 207.082 190.104 202.866 191.489 197.989C193.168 192.052 196.914 182.731 202.605 182.503C203.562 182.469 204.132 183.004 204.386 183.939Z" fill="#87AAD2"/>
<path d="M204.394 183.938C204.129 183.015 203.569 182.48 202.592 182.514C196.912 182.742 193.155 192.063 191.476 198C190.091 202.877 189.104 207.082 190.865 208.483C189.48 208.027 186.976 203.253 187.261 198.285C187.302 197.749 187.363 197.225 187.465 196.689C188.269 192.348 191.537 185.385 193.878 181.796C194.499 180.85 195.049 180.144 195.476 179.768C198.255 177.397 203.019 177.591 204.394 183.938Z" fill="#87AAD2"/>
<path d="M200.067 64.3706C198.835 69.4186 201.044 70.8658 200.067 73.6462C199.283 75.8682 197.655 77.2242 195.568 77.68C194.54 77.9193 193.379 77.9307 192.158 77.6914C189.887 77.2584 188.401 75.9821 187.495 74.3185C186.65 72.8029 186.304 70.9114 186.304 69.0654C188.635 69.0654 188.91 65.8406 191.425 65.9431C193.929 66.0343 197.828 66.8775 200.067 64.3706ZM196.616 73.3157C196.85 72.4611 196.586 71.6292 196.046 71.4469C195.496 71.2646 194.875 71.823 194.662 72.6662C194.428 73.5322 194.692 74.3641 195.232 74.535C195.771 74.7173 196.392 74.1703 196.616 73.3157Z" fill="#794426"/>
<path d="M186.295 66.194C186.427 64.462 186.834 62.8895 187.496 61.6132V61.6018C188.657 59.3456 190.642 58.0124 193.411 58.2403C195.782 58.4226 197.554 59.1063 198.704 60.0749C200.037 61.203 200.516 62.7413 200.068 64.3822C197.829 66.8891 193.93 66.0459 191.425 65.9433C188.911 65.8408 188.636 69.0656 186.305 69.0656C186.224 68.0742 186.224 67.117 186.295 66.194Z" fill="#3B3A3A"/>
<path d="M196.565 81.3826C197.207 81.7928 198.214 82.3968 199.416 83.1261C198.347 90.0087 190.722 89.644 188.686 89.0401C186.65 88.4134 180.013 85.6216 182.548 77.2348C183.261 77.4172 183.922 77.6109 184.543 77.8274C186.742 77.8844 187.495 74.3291 187.495 74.3291C188.401 75.9928 189.887 77.269 192.158 77.702C193.379 77.9299 194.529 77.9299 195.568 77.6906L195.588 77.7818C195.588 77.7704 194.55 80.095 196.565 81.3826Z" fill="#794426"/>
<path d="M196.046 71.447C196.586 71.6294 196.84 72.4612 196.616 73.3158C196.392 74.1705 195.782 74.7174 195.232 74.5351C194.692 74.3642 194.438 73.5323 194.662 72.6663C194.876 71.8231 195.507 71.2647 196.046 71.447Z" fill="#FF9F43"/>
<path d="M193.716 181.637L193.889 181.785C191.558 185.375 188.29 192.337 187.466 196.679C187.364 197.214 187.313 197.738 187.272 198.274H187.252C186.376 192.793 184.87 187.506 183.547 183.654C182.702 181.147 181.938 179.256 181.49 178.287C185.043 170.937 188.504 169.194 191.029 169.217C191.029 169.217 191.293 170.892 191.69 173.023C191.69 173.034 191.69 173.034 191.69 173.034C192.291 176.339 193.146 180.703 193.716 181.637Z" fill="#794426"/>
<path d="M186.672 145.105C189.98 155.885 192.382 167.462 192.382 169.422C191.975 169.308 191.527 169.24 191.028 169.228C188.514 169.194 185.043 170.949 181.49 178.299C180.727 179.848 179.973 181.649 179.22 183.745C179.22 183.745 177.632 174.242 175.973 165.878C175.087 161.468 174.181 157.377 173.479 155.167C172.99 153.651 172.135 151.372 171.168 148.672C170.618 147.156 170.048 145.481 169.488 143.738C166.903 135.67 164.653 125.87 167.544 119.979C173.346 122.702 184.88 124.959 192.382 123.716C192.728 129.232 189.064 140.57 187.058 144.433H187.048C186.926 144.683 186.794 144.923 186.672 145.105Z" fill="#5FB6BE"/>
<path d="M187.498 61.6011C186.826 62.8888 186.429 64.4613 186.296 66.1933C182.296 64.3815 178.682 68.1191 172.829 66.6605C166.965 65.202 165.764 57.9205 167.433 50.9468C168.889 53.3853 170.508 54.4678 172.197 54.9236C174.987 55.6757 177.969 54.6957 180.809 55.2199C185.36 56.0518 187.467 59.5728 187.498 61.6011Z" fill="#3B3A3A"/>
<path d="M182.55 77.2252C173.714 74.9007 158.353 74.1714 152.927 79.3561C147.074 84.9625 145.475 103.195 145.475 103.195C145.76 103.753 146.066 104.22 146.412 104.642C141.332 118.293 147.491 121.267 148.489 121.768C149.476 122.281 152.581 123.398 152.591 119.307C153.914 120.162 155.065 120.526 155.859 118.054C156.836 114.988 153.65 109.348 153.497 106.921C154.311 106.807 154.851 106.636 154.851 106.636C154.851 106.636 157.192 90.3181 160.806 89.1217C162.883 88.438 167.016 89.3154 170.619 90.6258C171.454 95.9131 171.271 108.186 170.619 110.567C169.968 112.949 165.02 118.43 165.02 118.43C165.641 118.942 166.507 119.444 167.565 119.957C164.664 125.859 166.914 135.648 169.51 143.715L169.459 143.738H162.506C161.315 142.997 159.798 142.815 158.434 143.499C158.312 143.567 158.19 143.647 158.068 143.749L158.058 143.738H127.498C127.671 143.647 127.803 143.544 127.895 143.465C130.756 131.978 134.461 115.034 130.929 110.134C127.386 105.246 107.149 102.123 94.7093 101.93H94.6584L94.5261 100.255C97.4069 98.5112 98.5369 94.6596 98.9033 90.9107H98.9237C100.512 90.6942 102.802 86.2159 101.092 81.544C99.3716 76.8834 92.0626 72.0975 88.0518 74.7297C83.5116 74.3879 78.6559 78.7864 79.0122 85.612C79.3787 92.4376 81.1398 94.8648 83.4302 95.9587L83.4506 95.9473C83.644 96.3803 83.8679 96.8019 84.1224 97.1779L84.0613 97.2235L83.6338 101.508C65.0253 103.4 56.1283 109.257 53.6953 112.083C54.2654 106.636 54.469 98.9328 54.1534 93.4746H63.9463V58.9818L106.202 42.6641V22.3467L139.205 7.40784L172.197 22.3467C172.38 23.999 172.197 54.9251 172.197 54.9251C170.507 54.4693 168.889 53.3868 167.433 50.9483C165.753 57.922 166.955 65.2035 172.828 66.662C178.682 68.1206 182.295 64.383 186.296 66.1948C186.225 67.1064 186.225 68.075 186.306 69.055C186.306 70.901 186.652 72.7926 187.497 74.3195C187.497 74.3195 186.734 77.8747 184.545 77.8064C183.924 77.6013 183.262 77.4076 182.55 77.2252ZM157.274 49.6948V33.5595H142.869V49.6948H157.274ZM119.945 74.7639V58.6399H105.53V74.7753H119.945V74.7639Z" fill="#FF9F43"/>
<path d="M183.547 183.654L183.343 183.746C180.798 184.577 179.23 183.746 179.23 183.746C179.984 181.649 180.737 179.849 181.501 178.299C181.938 179.256 182.702 181.148 183.547 183.654Z" fill="#5FB6BE"/>
<path d="M175.983 165.878L168.501 161.787C168.247 161.012 168.074 160.215 167.972 159.383C167.544 156.113 168.277 152.534 170.079 149.959C170.415 149.492 170.781 149.059 171.178 148.66C172.135 151.361 173.001 153.64 173.489 155.167C174.192 157.377 175.098 161.457 175.983 165.878Z" fill="#5FB6BE"/>
<path d="M171.18 148.672C170.773 149.071 170.416 149.504 170.081 149.971C170.081 149.971 165.571 148.843 164.543 146.438C164.217 145.31 163.464 144.353 162.507 143.76H169.46L169.51 143.738C170.06 145.481 170.64 147.156 171.18 148.672Z" fill="#3B3A3A"/>
<path d="M167.972 159.394L167.85 159.405C166.751 158.733 165.875 158.3 165.204 158.049C163.392 157.331 162.944 157.81 162.944 157.81C158.984 155.405 159.533 147.782 164.532 146.449C165.56 148.853 170.069 149.981 170.069 149.981C168.278 152.545 167.555 156.112 167.972 159.394Z" fill="#794426"/>
<path d="M165.203 158.037C165.406 161.558 165.966 173.865 160.327 174.571C154.708 175.278 153.985 168.19 154.066 159.917C154.148 152.1 155.868 145.434 158.057 143.747C158.179 143.645 158.301 143.565 158.433 143.497C159.787 142.813 161.304 142.995 162.495 143.736C163.452 144.34 164.205 145.286 164.531 146.425C159.533 147.758 158.983 155.393 162.943 157.786C162.953 157.809 163.391 157.33 165.203 158.037Z" fill="#87AAD2"/>
<path d="M142.877 33.559H157.282V49.6943H142.877V33.559Z" fill="#4A8BDF"/>
<path d="M152.589 119.317C152.579 123.397 149.474 122.28 148.486 121.779C147.499 121.277 141.33 118.303 146.41 104.64C148.527 107.216 151.703 107.204 153.485 106.942C153.647 109.369 156.834 114.987 155.846 118.064C155.073 120.536 153.912 120.16 152.589 119.317Z" fill="#794426"/>
<path d="M54.1532 93.4957C54.4789 98.9539 54.2651 106.646 53.6951 112.104C56.1178 109.266 65.0251 103.421 83.6335 101.529L83.3282 104.583C84.7737 108.993 92.5306 110.634 94.9025 104.765L94.6582 101.951H94.7091C107.149 102.133 127.386 105.255 130.928 110.155C134.461 115.044 130.755 131.988 127.895 143.486C127.803 143.566 127.671 143.657 127.498 143.759C126.928 144.067 125.951 144.409 124.739 144.648C122.245 145.195 118.764 145.4 115.954 144.42C115.435 144.238 114.946 144.021 114.478 143.736C114.325 143.657 114.173 143.566 114.03 143.474C114.295 141.97 120.331 120.069 120.331 120.069C117.308 119.271 107.739 120.069 107.739 120.069L102.1 143.736L99.6462 154.003C99.0965 154.436 98.4654 154.812 97.7426 155.143C89.6497 159.006 71.9473 157.524 63.8035 153.411C63.4472 153.24 63.1215 153.058 62.8161 152.875C62.8161 152.875 62.979 148.944 63.4472 143.725C64.058 137.105 65.137 128.399 67.0203 122.929C64.17 124.433 49.5316 133.47 42.4669 130.655C35.4123 127.84 37.2549 90.3621 39.7693 89.12C40.1357 89.8151 40.5327 90.4874 40.9603 91.1255C44.004 91.9916 49.1447 90.7267 51.7202 88.8579C52.2292 88.3451 52.6873 87.7982 53.0945 87.217L53.1046 87.2284C53.6136 88.1172 53.9597 90.4532 54.1532 93.4957Z" fill="#5FB6BE"/>
<path d="M112.735 157.993C110.974 158.346 109.559 158.266 109.559 155.167C109.559 151.35 114.934 147.042 115.942 144.422C118.751 145.39 122.233 145.196 124.737 144.649C125.582 162.061 117.693 162.403 116.41 162.528C115.138 162.642 111.31 162.528 112.735 157.993Z" fill="#794426"/>
<path d="M105.54 58.6383H119.954V74.7737H105.54V58.6383Z" fill="#4A8BDF"/>
<path d="M120.321 120.08C120.321 120.08 114.294 141.97 114.019 143.486C114.162 143.577 114.315 143.668 114.467 143.748V143.759H102.089L107.728 120.092C107.728 120.08 117.297 119.294 120.321 120.08Z" fill="#87AAD2"/>
<path d="M115.689 227.011C118.112 234.008 103.657 254.12 93.1517 252.684C91.3193 252.433 90.2199 251.613 89.7109 250.394C86.7792 243.431 103.443 223.547 112.605 224.709C113.654 224.835 114.448 225.222 114.987 225.815C115.242 226.179 115.466 226.578 115.679 226.988C115.679 227 115.689 227 115.689 227.011Z" fill="#87AAD2"/>
<path d="M114.986 225.816C114.446 225.224 113.662 224.836 112.604 224.711C103.452 223.56 86.7878 243.433 89.7196 250.395L89.3735 250.612C87.8465 248.002 87.2866 245.279 87.3986 242.59C87.704 233.713 95.1861 225.247 98.922 223.116C100.164 222.409 101.416 221.896 102.668 221.566C107.585 220.221 112.308 221.771 114.986 225.816Z" fill="#5FB6BE"/>
<path d="M97.7421 155.167C102.608 174.949 103.035 214.079 102.659 221.554V221.566C101.417 221.896 100.165 222.42 98.9127 223.116C95.1768 225.246 87.7049 233.713 87.3893 242.59H84.5695C84.5695 242.59 84.3456 216.677 84.5695 206.695C84.7731 196.736 78.1563 168.989 78.1563 168.989C78.1563 168.989 70.7557 201.351 60.861 200.018C50.9664 198.685 52.1778 174.345 63.7928 153.446C71.9365 157.549 89.639 159.03 97.7421 155.167Z" fill="#87AAD2"/>
<path d="M101.091 81.5652C102.811 86.2258 100.511 90.7268 98.9226 90.9433H98.9022C99.1058 88.8124 99.0651 86.7158 98.9429 85.0521C94.1076 85.9067 90.2393 82.0552 88.1016 79.0925C84.1111 89.1315 81.7698 87.3425 79.9985 87.2855C80.08 88.539 80.7315 91.3991 82.462 90.761C82.3602 92.5842 82.7267 94.3846 83.4393 95.9571L83.4189 95.9799C81.1285 94.886 79.3674 92.4589 79.0009 85.6218C78.6446 78.8076 83.5003 74.4091 88.0405 74.751C92.0513 72.1187 99.3705 76.8932 101.091 81.5652Z" fill="black"/>
<path d="M98.942 85.042C99.0641 86.7056 99.1048 88.8023 98.9013 90.9332C98.5348 94.6822 97.4048 98.5223 94.524 100.277C93.4958 100.904 92.2437 101.257 90.727 101.246C87.9683 101.246 85.5862 99.5934 84.1102 97.1891C83.8557 96.8016 83.6317 96.3914 83.4383 95.9584C82.7257 94.3859 82.3592 92.5855 82.461 90.7623C80.7203 91.4004 80.079 88.5402 79.9976 87.2868C81.7688 87.3438 84.1 89.1328 88.1006 79.0938C90.2383 82.0451 94.1066 85.8966 98.942 85.042ZM92.9054 96.1179C93.2006 95.0126 92.8647 93.9187 92.1623 93.6908C91.4497 93.4629 90.6557 94.1808 90.3707 95.2861C90.0755 96.38 90.4114 97.4625 91.1138 97.7018C91.8162 97.9297 92.6204 97.2119 92.9054 96.1179Z" fill="#794426"/>
<path d="M94.6567 101.952L94.901 104.766C92.5393 110.635 84.7824 109.005 83.3267 104.584L83.6321 101.53L84.0596 97.2455L84.1207 97.1885C85.5967 99.5928 87.9788 101.245 90.7375 101.245C92.2542 101.257 93.4962 100.892 94.5345 100.277L94.6567 101.952Z" fill="#794426"/>
<path d="M92.1646 93.7007C92.867 93.9286 93.1927 95.0111 92.9077 96.1278C92.6227 97.2218 91.8185 97.9396 91.1161 97.7117C90.4137 97.4724 90.0879 96.4013 90.373 95.296C90.658 94.1793 91.4622 93.4614 92.1646 93.7007Z" fill="black"/>
<path d="M67.011 122.952C65.1278 128.433 64.0385 137.139 63.4379 143.759H-30.8057V101.244L-20.5853 85.8951L-14.8134 77.2121L36.3192 77.0981H37.6833C37.5815 77.4286 37.5103 77.7818 37.4492 78.1465C37.0013 81.2231 37.8767 85.5191 39.7396 89.1313C37.2456 90.3848 35.3929 127.852 42.4474 130.678C49.5223 133.504 64.1403 124.456 67.011 122.952ZM1.43342 122.177V102.908H-15.7906V122.177H1.43342Z" fill="#FF9F43"/>
<path d="M52.8799 73.4415C55.1907 73.2592 56.2494 75.6522 56.0865 78.7858L53.6943 78.7174C53.6943 78.7174 50.9152 82.1245 48.5535 80.1418C47.0469 78.877 47.6882 76.9284 49.3272 75.4243C50.2535 74.5582 51.5158 73.829 52.8799 73.4415Z" fill="#794426"/>
<path d="M53.6845 78.7167L56.0869 78.7851C55.9444 81.4401 54.9468 84.6421 53.0636 87.2288C52.6564 87.8214 52.2085 88.3683 51.6995 88.8811C49.124 90.7385 43.9731 92.0033 40.9294 91.1373C40.5018 90.5106 40.1048 89.8383 39.7383 89.1318C37.8754 85.5196 37 81.235 37.4479 78.147L39.1479 78.3407C39.1479 78.3407 39.5653 80.8248 42.0695 82.6822C44.2072 84.2433 45.7647 81.9415 45.7952 80.4146C46.9456 80.9729 48.5438 80.1411 48.5438 80.1411C50.9055 82.1238 53.6845 78.7167 53.6845 78.7167Z" fill="#794426"/>
<path d="M51.5894 209.805L25.1731 207.355L31.9935 200.29L20.5006 196.7L-3.87974 209.93L35.2103 222.43L22.4348 233.096L46.9678 242.543L8.70236 237.894L23.0863 224.664L-19.0678 211.913L25.4683 184.098L14.291 180.77L1.81071 185.078L3.93826 188.211L-18.1822 191.721L-4.74502 186.012L-6.57736 183.357L6.29995 178.4L-24.4224 169.227L-6.59772 143.759H11.3593L-11.9522 165.877L43.7307 181.636C43.7307 181.636 37.4498 185.157 26.3234 191.322L40.6971 196.564L34.6504 203.059L51.5894 209.805Z" fill="black"/>
<path d="M45.6528 71.5499C48.5031 69.2937 51.8624 69.2937 52.8702 73.4415C51.5062 73.8289 50.2541 74.5468 49.3175 75.4242C48.7271 74.2961 47.475 71.7892 45.6528 71.5499Z" fill="#794426"/>
<path d="M45.6536 71.5488C47.4757 71.7881 48.7278 74.2836 49.3284 75.4231C47.6895 76.9273 47.038 78.8758 48.5446 80.1407C48.5446 80.1407 46.9464 80.9725 45.7961 80.4141C45.7961 80.1293 45.7452 79.8786 45.6536 79.6735C44.9613 78.3744 42.6913 74.1355 40.9302 73.9987C42.62 70.9904 43.4649 70.9904 45.6536 71.5488Z" fill="#794426"/>
<path d="M45.6536 79.6848C45.7452 79.8785 45.7961 80.1406 45.7961 80.4255C45.7655 81.941 44.208 84.2542 42.0703 82.6931C39.5661 80.8357 39.1487 78.3516 39.1487 78.3516L37.4487 78.1579C37.5098 77.7818 37.5811 77.4286 37.6829 77.1095C38.1715 75.3319 39.2302 74.1468 40.9302 74.0215C42.6913 74.1468 44.9715 78.3744 45.6536 79.6848Z" fill="#794426"/>
<path d="M27.9029 66.7679C38.4491 68.386 36.688 75.3142 36.6167 77.1488L-14.5159 77.2627L-20.2877 85.9457C-29.6429 81.1712 -29.8159 62.9164 -20.2877 63.6798C-33.5926 45.7668 -11.3703 37.9043 -6.89127 46.2682C-2.84992 10.3625 27.0173 22.7945 19.5556 50.9972C34.9269 43.7955 33.176 62.2099 27.9029 66.7679Z" fill="#4CAF50"/>
<path d="M-15.792 102.908H1.43205V122.177H-15.792V102.908Z" fill="#4A8BDF"/>
<path d="M43.2489 92.3686C42.3531 92.3686 41.4879 92.2774 40.7244 92.0609L40.4393 91.9698L40.2663 91.7077C39.8184 91.0468 39.3908 90.3403 39.0142 89.611C37.0801 85.862 36.1435 81.304 36.622 77.988C36.6729 77.6576 36.7543 77.2132 36.8866 76.7916C37.4567 74.7063 38.7088 73.4186 40.4393 73.111C42.1394 70.2166 43.31 70.0229 45.4783 70.5357C47.3412 69.1797 49.2957 68.7581 50.8634 69.3734C51.7286 69.7266 52.8484 70.5471 53.4999 72.4956C54.2939 72.5868 54.9963 72.94 55.5562 73.5554C56.5538 74.6607 57.0424 76.5295 56.9305 78.8199C56.7778 81.8851 55.5766 85.2467 53.7239 87.8106C53.3065 88.4259 52.8077 89.0184 52.258 89.5654L52.1562 89.6566C50.0999 91.1607 46.3945 92.3686 43.2489 92.3686ZM41.4268 90.2947C44.3076 90.9556 48.9292 89.7249 51.1891 88.1296C51.637 87.6738 52.0544 87.1724 52.4107 86.6597C54.0496 84.3807 55.1083 81.418 55.2406 78.7287C55.3322 77.0081 55.0167 75.6179 54.3754 74.9114C53.9987 74.5012 53.5304 74.3302 52.94 74.3758L52.2478 74.4328L52.0544 73.6921C51.7388 72.3589 51.1382 71.4929 50.2831 71.151C49.1735 70.7066 47.6262 71.151 46.1298 72.3133L45.8244 72.564L45.4579 72.4728C43.5645 71.9829 43.1166 71.8689 41.6507 74.5012L41.4268 74.9114L40.9891 74.9342C39.7471 75.0253 38.9022 75.8458 38.4848 77.3727C38.4034 77.6348 38.3423 77.9083 38.2914 78.3071C37.8639 81.1901 38.719 85.2581 40.4801 88.6538C40.7651 89.2349 41.0807 89.7819 41.4268 90.2947Z" fill="black"/>
<path d="M84.5701 158.356C76.7826 158.356 68.364 156.772 63.4472 154.288C63.091 154.117 62.7448 153.935 62.3987 153.718L61.9406 153.445L61.961 152.841C61.961 152.807 62.1341 148.83 62.6023 143.645C63.3353 135.589 64.3227 129.265 65.5443 124.809C60.4748 127.646 48.5849 134.119 42.1717 131.566C38.1711 129.96 37.0004 120.092 36.7357 112.092C36.4812 104.628 37.0106 89.4731 39.4028 88.2766L40.0848 89.9973C40.1459 89.9631 40.1765 89.9289 40.1765 89.9289C38.792 91.5128 37.1531 111.488 39.5759 123.214C40.3393 126.951 41.4693 129.287 42.7417 129.789C48.707 132.17 61.2077 125.14 65.3305 122.838C65.8904 122.507 66.3485 122.257 66.664 122.097L68.5574 121.106L67.8041 123.282C66.3383 127.544 65.1269 134.643 64.282 143.839C63.9257 147.804 63.7424 151.04 63.6814 152.328C63.8239 152.396 63.9766 152.488 64.1395 152.545C71.9778 156.51 89.5174 158.06 97.4169 154.277C97.9869 154.015 98.4857 153.718 98.9133 153.422L108.757 112.149L110.376 112.639L100.379 154.573L100.125 154.778C99.5444 155.222 98.8624 155.633 98.0684 155.997C94.6684 157.65 89.7618 158.356 84.5701 158.356Z" fill="black"/>
<path d="M120.462 146.039C118.955 146.039 117.266 145.868 115.688 145.321C115.077 145.104 114.537 144.865 114.059 144.569C113.947 144.512 113.764 144.398 113.601 144.295L113.082 143.953L113.204 143.304C113.448 141.925 117.948 125.516 119.24 120.833C115.688 120.389 107.88 121.015 107.788 121.027L107.666 119.158C108.063 119.112 117.398 118.36 120.513 119.169L121.399 119.397L121.134 120.366C119.617 125.892 115.83 139.658 115.006 142.996C115.382 143.201 115.759 143.372 116.197 143.532C119.515 144.683 123.455 143.988 124.585 143.737C125.643 143.509 126.59 143.201 127.12 142.917C127.14 142.905 127.15 142.894 127.17 142.882C131.639 124.901 132.678 114.087 130.265 110.748C127.262 106.589 108.674 103.102 94.687 102.897L94.7074 101.017C105.192 101.176 127.496 103.923 131.578 109.563C134.439 113.54 133.533 124.4 128.697 143.737L128.626 144.022L128.423 144.204C128.28 144.341 128.097 144.478 127.873 144.592C127.201 144.968 126.122 145.321 124.9 145.583C124.188 145.731 122.488 146.039 120.462 146.039Z" fill="black"/>
<path d="M53.9002 116.491L52.2612 116.047C52.4648 115.044 52.6684 113.677 52.8618 111.979C53.4421 106.418 53.6253 98.8405 53.3097 93.5418C53.0349 89.1319 52.5361 88.0038 52.3834 87.7645L53.7678 86.6934C53.9918 87.058 54.6636 88.1519 54.9894 93.405C55.305 98.8063 55.1217 106.532 54.5313 112.195C54.3379 114.007 54.1343 115.409 53.9002 116.491Z" fill="black"/>
<path d="M54.2953 112.755L53.0737 111.467L53.0839 111.456C53.8372 110.59 61.0343 102.887 83.5619 100.596L83.7146 102.476C65.9103 104.266 56.8402 109.781 54.2953 112.755Z" fill="black"/>
<path d="M87.3901 243.524H83.7254V242.601C83.7254 242.35 83.5015 216.552 83.7254 206.672C83.8781 199.003 79.847 180.27 78.1062 172.59C75.9176 180.817 69.6978 200.986 61.4421 200.986C61.2079 200.986 60.984 200.963 60.76 200.941C58.1947 200.587 56.169 198.844 54.8965 195.881C51.0079 186.788 54.5097 168.328 63.0606 152.933L64.4858 153.925C57.36 166.756 52.3821 185.66 56.4133 195.061C57.4313 197.454 58.9684 198.798 60.9534 199.072C68.4661 200.12 75.317 177.524 77.3224 168.738L78.1164 165.263L78.9511 168.738C79.2158 169.866 85.5985 196.724 85.3847 206.707C85.1913 215.492 85.344 236.915 85.3745 241.644H87.3697V243.524H87.3901Z" fill="black"/>
<path d="M94.2698 253.7C93.8626 253.7 93.4554 253.666 93.0482 253.609C90.9818 253.324 89.6075 252.378 88.9458 250.794C87.4494 247.239 90.2895 241.918 92.1117 239.058C97.1914 231.104 106.506 223.013 112.695 223.777C113.896 223.925 114.873 224.392 115.576 225.144C115.953 225.554 116.248 226.056 116.462 226.648L114.894 227.332C114.782 227.002 114.619 226.728 114.405 226.5C113.988 226.033 113.347 225.748 112.512 225.646C107.106 224.962 98.3111 232.597 93.4758 240.151C90.7782 244.379 89.6584 248.06 90.4728 249.997C90.8698 250.965 91.8063 251.547 93.2518 251.752C98.9423 252.538 105.987 246.396 110.445 239.969C113.968 234.898 115.759 229.828 114.904 227.343L116.472 226.671C117.785 230.454 114.904 236.619 111.769 241.131C107.636 247.091 100.714 253.7 94.2698 253.7Z" fill="black"/>
<path d="M88.6618 251.136C87.1349 248.526 86.4223 245.632 86.5546 242.555C86.8702 233.428 94.4032 224.642 98.5361 222.283C99.8289 221.554 101.142 221.007 102.465 220.654C107.769 219.207 112.828 220.984 115.669 225.269C115.903 225.611 116.137 225.998 116.361 226.443L116.534 226.625V227.024H115.648H115.689L115.088 227.673L114.987 227.434L114.946 227.457C114.742 227.058 114.528 226.705 114.315 226.386C111.882 222.705 107.484 221.212 102.852 222.477C101.651 222.796 100.45 223.286 99.2792 223.947C95.5738 226.055 88.5091 234.339 88.2241 242.624C88.1121 245.313 88.7331 247.808 90.0666 250.099L88.6618 251.136Z" fill="black"/>
<path d="M103.504 221.6L101.814 221.497C102.14 214.979 101.865 175.518 96.9282 155.418L98.5468 154.916C103.545 175.245 103.82 215.036 103.504 221.6Z" fill="black"/>
<path d="M115.853 163.496C114.774 163.496 113.104 163.245 112.198 161.912C111.679 161.171 111.496 160.214 111.638 159.086C110.946 159.086 110.295 158.949 109.745 158.448C109.063 157.798 108.727 156.727 108.727 155.178C108.727 152.431 110.926 149.708 112.87 147.326C113.898 146.073 114.855 144.888 115.191 144.056L116.728 144.808C116.28 145.925 115.283 147.155 114.112 148.603C112.453 150.631 110.407 153.161 110.407 155.178C110.407 156.112 110.549 156.75 110.814 157.001C111.16 157.32 111.944 157.206 112.595 157.069L114.02 156.784L113.542 158.311C113.186 159.439 113.186 160.26 113.532 160.773C114.051 161.513 115.374 161.673 116.362 161.593L116.443 161.582C121.767 161.103 124.414 155.109 123.905 144.706L125.585 144.603C126.348 160.237 120.271 163.12 116.586 163.462H116.494C116.311 163.485 116.097 163.496 115.853 163.496Z" fill="black"/>
<path d="M113.003 158.892L112.483 157.103C114.489 156.385 115.782 155.359 116.433 153.981L117.93 154.869C117.044 156.693 115.436 158.003 113.003 158.892Z" fill="black"/>
<path d="M150.464 123.238C149.446 123.238 148.499 122.816 148.132 122.622C145.761 121.437 140.793 117.278 145.628 104.276L145.659 104.185L147.176 105.006L146.422 104.584L147.216 104.903L147.165 105.051C144.142 113.199 144.722 118.839 148.804 120.902C149.629 121.323 150.657 121.563 151.186 121.164C151.655 120.833 151.756 119.979 151.756 119.318V117.7L153.019 118.497C153.436 118.771 154.026 119.113 154.352 118.999C154.586 118.885 154.861 118.44 155.075 117.745C155.594 116.139 154.576 113.267 153.762 110.965C153.202 109.393 152.724 108.037 152.662 107.011L154.332 106.875C154.383 107.615 154.841 108.903 155.319 110.27C156.286 113.005 157.386 116.105 156.653 118.372C156.246 119.671 155.676 120.446 154.922 120.754C154.373 120.982 153.823 120.913 153.294 120.72C153.1 121.643 152.693 122.326 152.082 122.759C151.583 123.112 151.023 123.238 150.464 123.238Z" fill="black"/>
<path d="M152.08 120.059C150.329 118.555 149.352 116.948 149.108 115.171L150.777 114.886C150.95 116.162 151.714 117.381 153.119 118.578L152.08 120.059Z" fill="black"/>
<path d="M187.61 125.003C180.545 125.003 172.117 123.123 167.241 120.832C166.049 120.274 165.164 119.727 164.512 119.191L163.729 118.542L164.421 117.778C166.284 115.716 169.378 111.876 169.806 110.303C170.406 108.138 170.61 96.0023 169.775 90.7948L171.435 90.4644C172.279 95.7744 172.147 108.206 171.414 110.85C170.864 112.878 167.8 116.57 166.345 118.268C166.772 118.542 167.291 118.815 167.882 119.1C173.633 121.789 185.065 123.966 192.262 122.769C192.629 122.712 192.985 122.633 193.351 122.553C193.148 121.47 192.883 120.467 192.639 119.499C191.977 116.946 191.397 114.759 192.435 112.821C192.771 112.206 193.392 111.522 194.268 110.588C196.029 108.696 198.706 105.825 200.009 101.825C200.833 99.3639 201.037 96.7088 200.63 93.9171L202.279 93.6094C202.747 96.7202 202.513 99.6943 201.587 102.475C200.141 106.873 197.311 109.927 195.428 111.933C194.716 112.707 194.095 113.38 193.881 113.779C193.219 115.009 193.677 116.753 194.247 118.963C194.573 120.194 194.929 121.584 195.153 123.111L195.275 123.966L194.522 124.171C193.85 124.365 193.178 124.513 192.507 124.627C191.01 124.889 189.351 125.003 187.61 125.003Z" fill="black"/>
<path d="M216.375 108.925C213.993 108.925 211.488 108.309 209.819 107.785C205.961 106.589 202.042 104.56 200.26 102.862L201.349 101.427C204.312 104.253 215.703 108.981 219.877 106.224C222.91 104.218 225.557 87.7867 226.554 77.6451L225.771 76.3461L227.165 75.2864L228.295 77.1552L228.265 77.4856C228 80.266 225.536 104.651 220.721 107.831C219.53 108.651 217.983 108.925 216.375 108.925Z" fill="black"/>
<path d="M210.585 97.2564L209.17 96.2422C209.771 95.1939 210.555 93.1428 211.43 90.294C213.252 84.5054 215.156 76.6884 215.96 73.3496C216.296 71.9708 216.367 71.6859 216.408 71.5492L217.986 72.2215L217.192 71.8797L217.986 72.1987C217.945 72.3468 217.803 72.928 217.589 73.8282C216.764 77.1897 214.861 85.0637 213.018 90.9094C212.092 93.9404 211.267 96.0713 210.585 97.2564Z" fill="black"/>
<path d="M212.264 91.5711L211.898 91.4002L211.877 91.4572C210.035 90.4772 203.337 86.5573 199.02 83.9478C197.809 83.2185 196.801 82.6032 196.16 82.2044C194.012 80.8256 194.358 78.4326 194.837 77.3501L196.343 78.1933C196.231 78.444 195.753 79.7658 196.995 80.5635C197.626 80.9623 198.634 81.5777 199.825 82.2955C204.12 84.8822 210.778 88.7907 212.6 89.7593L212.722 89.8277L212.824 89.9416L212.254 90.5797V91.5711H212.264Z" fill="black"/>
<path d="M181.156 185.044C179.761 185.044 178.927 184.622 178.876 184.6L178.489 184.383L178.418 183.916C178.397 183.825 176.809 174.333 175.17 166.083C174.142 160.966 173.318 157.4 172.707 155.497C172.391 154.517 171.913 153.206 171.363 151.668C171.068 150.847 170.752 149.959 170.416 149.013C169.979 147.816 169.337 145.982 168.727 144.033C165.021 132.49 164.4 124.457 166.833 119.511L167.566 119.956H168.411V120.218L168.309 120.423C166.121 124.878 166.772 132.399 170.304 143.418C170.915 145.332 171.546 147.133 171.974 148.318C172.31 149.264 172.625 150.152 172.921 150.973C173.48 152.511 173.959 153.844 174.285 154.859C174.916 156.841 175.771 160.488 176.809 165.684C178.224 172.828 179.609 180.885 179.975 183.038C180.515 183.187 181.604 183.335 183.131 182.845L183.589 184.657C182.652 184.941 181.848 185.044 181.156 185.044Z" fill="black"/>
<path d="M180.016 184.098L178.448 183.391C179.181 181.329 179.965 179.471 180.759 177.853C184.597 169.899 188.445 168.293 191.041 168.293C191.173 168.293 191.305 168.293 191.448 168.304C190.939 164.703 188.709 154.607 185.879 145.423C183.66 138.176 181.451 132.683 179.466 129.515L180.851 128.444C183.457 132.603 185.89 139.646 187.467 144.819C190.654 155.177 193.229 167.13 193.229 169.432V170.64L192.191 170.355C191.804 170.241 191.417 170.184 191.02 170.184C191 170.184 190.99 170.184 190.969 170.184C187.966 170.184 184.953 173.136 182.235 178.753C181.472 180.303 180.728 182.092 180.016 184.098Z" fill="black"/>
<path d="M187.366 145.651L185.992 144.569C186.093 144.398 186.226 144.193 186.338 143.953L187.804 144.888C187.651 145.173 187.498 145.435 187.366 145.651Z" fill="black"/>
<path d="M187.802 144.888L186.346 143.943C188.321 140.148 191.884 129.015 191.548 123.773L193.228 123.637C193.584 129.323 189.919 140.82 187.802 144.888Z" fill="black"/>
<path d="M175.607 166.721L167.829 162.47L167.717 162.117C167.442 161.285 167.249 160.408 167.137 159.508C166.679 155.873 167.534 152.078 169.417 149.378C169.814 148.831 170.211 148.375 170.629 147.953L171.738 149.378C171.392 149.708 171.066 150.107 170.741 150.551C169.122 152.842 168.399 156.101 168.807 159.246C168.878 159.895 169.01 160.51 169.183 161.114L176.339 165.034L175.607 166.721Z" fill="black"/>
<path d="M167.441 160.226C166.474 159.634 165.629 159.201 164.937 158.939C164.001 158.563 163.553 158.585 163.41 158.608L163.074 158.95L162.545 158.631C160.377 157.321 159.206 154.552 159.552 151.566C159.909 148.535 161.741 146.222 164.337 145.527L164.998 145.344L165.294 146.028C165.915 147.475 168.673 148.649 170.261 149.048L169.905 150.882C169.447 150.768 165.721 149.766 164.174 147.544C162.555 148.216 161.466 149.766 161.222 151.805C160.988 153.845 161.69 155.748 163.034 156.762C163.522 156.648 164.296 156.682 165.487 157.15C166.261 157.446 167.197 157.924 168.266 158.574L167.441 160.226Z" fill="black"/>
<path d="M159.582 175.563C158.188 175.563 156.997 175.084 156.05 174.127C153.464 171.506 153.169 165.74 153.22 159.906C153.301 151.861 155.093 144.899 157.577 142.984C157.729 142.848 157.923 142.734 158.065 142.654C159.582 141.891 161.384 141.993 162.901 142.927C164.102 143.668 164.947 144.819 165.334 146.152L163.725 146.722C163.481 145.867 162.88 145.081 162.086 144.568C161.048 143.93 159.806 143.85 158.778 144.375C158.686 144.42 158.625 144.454 158.585 144.489C156.844 145.833 154.991 151.679 154.91 159.94C154.859 165.068 155.093 170.606 157.19 172.737C157.943 173.512 158.941 173.808 160.234 173.637C163.41 173.25 164.906 167.575 164.367 158.106L166.046 157.98C166.84 171.791 163.43 175.141 160.427 175.517C160.132 175.551 159.857 175.563 159.582 175.563Z" fill="black"/>
<path d="M193.899 78.7969C193.289 78.7969 192.657 78.7285 192.016 78.6031C189.675 78.1587 187.914 76.8825 186.774 74.8086C185.684 72.86 185.46 70.5924 185.46 69.0541V68.1197H186.295C187.028 68.1197 187.445 67.6753 188.117 66.8777C188.86 66.0116 189.797 64.9405 191.446 64.9975C191.853 65.0203 192.311 65.0544 192.78 65.0886C195.05 65.271 197.859 65.5102 199.458 63.7098L201.707 61.1915L200.873 64.6214C200.252 67.1397 200.577 68.6781 200.862 70.0227C201.117 71.2192 201.381 72.4612 200.832 73.9882C199.967 76.4267 198.155 78.0676 195.722 78.6031C195.141 78.7285 194.531 78.7969 193.899 78.7969ZM187.171 69.8745C187.242 71.0824 187.496 72.541 188.209 73.8172C189.074 75.4239 190.448 76.4039 192.291 76.7685C193.401 76.9851 194.449 76.9737 195.396 76.7685C197.279 76.3583 198.613 75.1505 199.284 73.3045C199.631 72.3245 199.468 71.5952 199.234 70.4671C198.999 69.3846 198.735 68.1311 198.877 66.3763C196.902 67.3107 194.52 67.1283 192.668 66.9688C192.21 66.9346 191.782 66.9004 191.385 66.889C190.53 66.8549 190.062 67.3335 189.339 68.1881C188.799 68.8148 188.148 69.5897 187.171 69.8745Z" fill="black"/>
<path d="M185.47 69.1444C185.388 68.1188 185.378 67.1047 185.46 66.1247C185.612 64.1989 186.05 62.5239 186.773 61.1337L188.218 62.0795C187.628 63.219 187.261 64.6661 187.129 66.2842C187.068 67.1502 187.068 68.0618 187.139 68.9735L185.47 69.1444Z" fill="black"/>
<path d="M200.872 64.6557L199.264 64.1087C199.702 62.5248 198.928 61.4537 198.205 60.8384C197.126 59.9154 195.457 59.3456 193.35 59.1861C191.069 58.9924 189.308 59.9951 188.219 62.0804L186.773 61.1346C188.178 58.434 190.57 57.0666 193.472 57.3059C195.894 57.4996 197.879 58.2061 199.213 59.3456C200.821 60.6902 201.422 62.6274 200.872 64.6557Z" fill="black"/>
<path d="M175.638 67.9488C174.691 67.9488 173.704 67.8463 172.635 67.5842C170.345 67.0144 168.584 65.6242 167.423 63.4592C165.713 60.3027 165.428 55.665 166.609 50.7081L167.087 48.714L168.125 50.4232C169.327 52.406 170.67 53.5455 172.391 54.0127C173.765 54.3773 175.221 54.2862 176.758 54.195C178.122 54.1152 179.547 54.0241 180.952 54.2862C185.94 55.1978 188.312 59.186 188.342 61.579L186.663 61.6018C186.642 60.0748 184.871 56.907 180.687 56.1322C179.466 55.9043 178.193 55.9954 176.849 56.0638C175.261 56.1663 173.612 56.2689 172.004 55.8359C170.416 55.4029 169.052 54.5027 167.871 53.0783C167.27 56.8045 167.616 60.166 168.869 62.4792C169.785 64.1884 171.179 65.2824 173.002 65.7382C175.781 66.4219 177.99 65.8749 180.127 65.3621C182.316 64.8152 184.382 64.3138 186.612 65.3166L186.296 66.1826V67.1398H186.123L185.97 67.0714C184.24 66.2737 182.499 66.7068 180.494 67.1967C179.028 67.5614 177.45 67.9488 175.638 67.9488Z" fill="black"/>
<path d="M225.874 77.965L225.456 77.8967C222.066 77.3725 219.633 76.5976 217.954 74.3756C217.536 73.84 217.038 73.1905 216.549 72.4612C214.869 70.1139 213.76 68.0172 213.261 66.2395C212.783 64.5759 212.844 63.1401 213.434 62.012C214.31 60.3027 215.531 59.79 216.437 59.7558C216.763 58.8442 217.486 57.3742 218.809 56.7589C219.857 56.2803 221.028 56.4056 222.301 57.1577C223.461 56.6791 224.683 56.7931 225.619 57.4996C226.189 57.9326 226.596 58.5479 226.78 59.2088C228.734 59.6304 230.119 61.7727 230.383 64.8835C230.475 65.8293 230.455 66.8663 230.312 67.9146C229.813 71.9257 228.317 74.7516 227.146 76.4039C226.861 76.8141 226.545 77.213 226.179 77.6232L225.874 77.965ZM216.529 61.6359C216.162 61.6359 215.47 61.8069 214.89 62.9578C214.544 63.6187 214.544 64.5303 214.859 65.6812C215.297 67.2195 216.325 69.1567 217.852 71.3103C218.341 72.0054 218.819 72.6322 219.226 73.1563C220.377 74.6833 221.965 75.4353 225.263 75.9823C225.466 75.7316 225.65 75.4923 225.813 75.2644C226.861 73.7831 228.195 71.2761 228.643 67.6867C228.765 66.7637 228.775 65.8977 228.704 65.0886C228.531 63.1287 227.747 61.032 226.037 61.032H225.131L225.192 60.0179C225.212 59.7102 225.008 59.3342 224.672 59.0721C224.408 58.8784 223.685 58.4795 222.606 59.0721L222.199 59.2886L221.802 59.0265C220.865 58.3998 220.071 58.2288 219.44 58.5137C218.473 58.9581 217.933 60.4623 217.811 61.0092L217.587 61.955L216.753 61.6815C216.742 61.6587 216.651 61.6359 216.529 61.6359Z" fill="black"/>
<path d="M218.412 68.2911C217.15 68.2911 215.969 67.5277 215.114 66.5591L216.305 65.2372C216.966 65.9779 218.28 67.0491 219.623 65.9096C219.725 65.8184 219.796 65.75 219.847 65.6703C220.224 65.0549 219.318 63.9496 219.033 63.6192C218.432 62.9355 217.587 62.2404 216.59 61.5794L217.435 59.95C218.575 60.6906 219.532 61.4997 220.224 62.2973C222.148 64.4738 221.68 66.0007 221.232 66.7186C221.089 66.9579 220.896 67.1858 220.641 67.4023C219.908 68.029 219.145 68.2911 218.412 68.2911Z" fill="black"/>
<path d="M218.779 62.9926C218.728 61.4201 219.776 58.6055 221.863 57.3862L222.637 59.0499C221.161 59.9045 220.438 62.024 220.468 62.9128L218.779 62.9926Z" fill="black"/>
<path d="M224.743 69.8522C223.552 69.8522 222.514 69.1229 222.148 67.9834C222.066 67.7327 222.005 67.4479 221.964 67.1288C221.659 64.5991 223.125 61.3971 225.527 59.3346L226.545 60.8273C224.397 62.6619 223.451 65.317 223.634 66.8895C223.654 67.0832 223.685 67.22 223.715 67.3339C223.858 67.7555 224.316 68.0176 224.866 67.972C225.741 67.9037 226.81 67.0718 227.207 64.9523L228.856 65.3398C228.255 68.4734 226.464 69.7269 224.988 69.8408C224.896 69.8522 224.825 69.8522 224.743 69.8522Z" fill="black"/>
<path d="M222.108 68.153C221.823 68.153 221.518 68.096 221.212 67.9821C220.459 67.6972 219.93 67.1388 219.736 66.4665L221.355 65.9196C221.365 65.9651 221.487 66.1019 221.721 66.193C222.017 66.307 222.23 66.2842 222.281 66.25L223.259 67.7769C222.953 68.0276 222.546 68.153 222.108 68.153Z" fill="black"/>
<path d="M151.968 107.979C150.064 107.979 147.601 107.477 145.789 105.267C145.402 104.811 145.046 104.253 144.74 103.637L144.618 103.387L144.639 103.09C144.71 102.338 146.339 84.4253 152.375 78.6366C158.147 73.1214 173.895 73.9874 182.731 76.312C183.372 76.4715 184.003 76.6539 184.655 76.8704C186.05 76.7906 186.67 74.1241 186.67 74.09L188.299 74.5344C188.259 74.7053 187.322 78.8417 184.512 78.7391L184.288 78.705C183.637 78.4884 182.996 78.2947 182.344 78.1352C173.508 75.8106 158.554 75.1839 153.464 80.0496C148.324 84.9722 146.562 100.606 146.328 102.976C146.532 103.352 146.766 103.694 147.01 103.979C148.894 106.258 151.805 106.224 153.373 105.985C153.658 105.95 153.912 105.894 154.106 105.859C154.686 102.008 156.875 89.4505 160.56 88.2312C163.552 87.2284 169.202 89.12 170.861 89.7354C173.783 90.7837 176.155 92.0258 177.214 93.0627L176.114 94.4757C175.239 93.6211 172.979 92.4702 170.342 91.513C166.342 90.0658 162.687 89.4733 161.028 90.0316C158.89 90.7381 156.6 100.253 155.663 106.782L155.582 107.363L155.063 107.534C155.042 107.534 154.462 107.717 153.586 107.853C153.139 107.933 152.589 107.979 151.968 107.979Z" fill="black"/>
<path d="M191.201 90.271C190.051 90.271 189.064 90.1228 188.463 89.9405C187.068 89.5075 183.628 88.1401 181.999 84.7216C180.94 82.4995 180.859 79.8787 181.745 76.9274L182.539 77.2122H183.394V77.3718L183.343 77.5085C182.61 79.9584 182.651 82.0779 183.485 83.81C184.839 86.6701 187.985 87.821 188.911 88.1059C190.183 88.4819 193.797 88.7326 196.261 86.9778C197.543 86.0548 198.327 84.7102 198.602 82.9439L200.251 83.2744C199.895 85.5648 198.846 87.3538 197.157 88.5617C195.334 89.8835 193.054 90.271 191.201 90.271Z" fill="black"/>
<path d="M64.7905 94.4315H54.1528L54.1426 92.5513H63.1109V58.3093L105.367 41.9916V21.7084L139.204 6.38208L172.96 21.6742L173.021 22.2212C173.204 23.8849 173.052 51.7571 173.031 54.9249L171.352 54.9135C171.413 43.4159 171.474 26.3576 171.382 22.9846L139.204 8.4104L107.046 22.9619V43.3248L64.7905 59.6425V94.4315Z" fill="black"/>
<path d="M289.791 145.367H187.067V143.487H288.111V85.2586H269.38V56.6001L234.464 42.6298L199.548 56.6001V60.0756H197.858V55.2782L234.464 40.6356L271.06 55.2782V83.3784H289.791V145.367Z" fill="black"/>
<path d="M174.984 236.788H174.79V235.877L174.18 235.181L174.444 235.068L174.79 234.897V235.785L174.862 235.934L175.361 236.515L174.892 235.979L175.208 236.663L174.984 236.788Z" fill="black"/>
<path d="M120.281 288.18L119.508 286.517L184.994 241.768L174.692 236.846L149.436 242.999L151.38 240.754C155.371 236.173 160.99 229.667 163.443 226.784C160.43 226.727 153.264 226.442 135.826 225.599L135.765 223.719L179.049 217.497L170.62 229.336L190.776 225.963L250.011 193.522L217.518 186.525L231.057 181.523L206.86 170.23L261.83 151.132L262.451 152.876L232.065 170.139L242.397 177.546L259.641 173.364L252.251 168.407L286.322 159.758L266.635 170.242L275.868 176.19L253.727 183.152L279.777 192.872L245.644 213.178C255.254 213.691 266.309 215.15 266.442 215.161L267.867 215.355L263.388 222.249L284.144 221.998L284.327 223.867L248.434 232.402L255.58 222.385L233.419 220.471L214.82 231.524L235.648 246.702L204.763 246.691L120.281 288.18ZM174.855 234.874L188.658 241.472L131.041 280.853L204.386 244.811L229.968 244.834L211.492 231.376L233.032 218.557L258.847 220.801L252.658 229.473L275.715 223.992L260.049 224.174L264.813 216.859C261.046 216.392 250.612 215.172 242.479 214.933L239.282 214.842L275.522 193.282L247.996 183.004L271.562 175.597L263.021 170.105L271.928 165.353L256.71 169.228L264.141 174.219L242.082 179.586L228.695 169.968L252.831 156.26L211.787 170.527L235.872 181.762L224.196 186.081L255.274 192.781L191.152 227.832L166.64 231.946L175.14 219.992L145.771 224.209C154.801 224.619 163.81 224.995 165.092 224.949L165.581 224.664L166.009 225.314C166.457 225.986 166.457 225.986 163.891 229.006C162.639 230.464 160.97 232.402 159.29 234.35C157.549 236.356 155.798 238.373 154.536 239.843L174.855 234.874Z" fill="black"/>
<path d="M192.555 209.931C192.494 209.931 192.433 209.931 192.382 209.931C191.547 209.897 190.895 209.669 190.376 209.248C188.127 207.47 189.185 202.969 190.682 197.716C192.036 192.953 195.884 181.843 202.572 181.58C203.864 181.512 204.811 182.287 205.188 183.666C206.216 187.381 203.05 195.118 202.052 197.397L201.727 198.126C198.856 204.712 196.576 209.931 192.555 209.931ZM202.694 183.449C202.673 183.449 202.643 183.449 202.622 183.449C196.851 183.677 193.237 194.856 192.27 198.286C191.394 201.385 189.908 206.581 191.343 207.721C191.598 207.926 191.954 208.028 192.433 208.063C192.473 208.063 192.504 208.063 192.545 208.063C195.527 208.063 197.604 203.299 200.22 197.306L200.536 196.565C202.907 191.152 204.119 186.184 203.569 184.224V184.213C203.427 183.654 203.182 183.449 202.694 183.449Z" fill="black"/>
<path d="M190.632 209.384C188.749 208.757 186.123 203.504 186.428 198.217C186.469 197.579 186.54 197.02 186.642 196.496C187.467 192.132 190.694 185.09 193.208 181.238C193.88 180.19 194.47 179.449 194.969 179.028C196.761 177.501 199.082 177.033 201.036 177.808C202.482 178.389 204.375 179.882 205.21 183.734C205.22 183.768 205.25 183.882 205.261 183.973L203.612 184.269L204.436 184.121L203.612 184.304L203.571 184.167C203.062 181.762 201.983 180.19 200.466 179.586C199.041 179.016 197.331 179.369 195.987 180.52C195.783 180.703 195.315 181.158 194.562 182.344C192.2 185.967 189.044 192.827 188.281 196.895C188.199 197.339 188.138 197.818 188.108 198.354C187.823 203.083 190.256 207.31 191.101 207.595L190.632 209.384Z" fill="black"/>
<path d="M186.416 198.445C185.5 192.679 183.932 187.403 182.762 183.984C181.917 181.489 181.163 179.632 180.746 178.731L182.232 177.865C182.67 178.811 183.454 180.748 184.329 183.324C185.51 186.822 187.119 192.223 188.065 198.114L186.416 198.445Z" fill="black"/>
<path d="M193.013 182.162C192.799 181.82 192.249 180.897 190.854 173.24L192.504 172.864C193.725 179.632 194.275 180.886 194.407 181.102L193.013 182.162Z" fill="black"/>
<path d="M190.868 173.228C190.481 171.086 190.206 169.399 190.206 169.399L191.865 169.069C191.865 169.069 192.14 170.733 192.517 172.863L190.868 173.228Z" fill="black"/>
<path d="M192.425 173.501L191.692 173.045L190.847 173.057V172.806L190.959 172.578C190.969 172.578 191.641 171.131 191.559 169.49L193.239 169.376C193.351 171.621 192.435 173.478 192.425 173.501Z" fill="black"/>
<path d="M63.4454 144.694H-31.6533V100.937L-15.2437 76.2781L37.6704 76.1642V78.0444H36.3165L-14.3987 78.1583L-29.9737 101.564V142.814H63.4352L63.4454 144.694Z" fill="black"/>
<path d="M114.469 144.695H102.091L102.07 142.815H114.469V144.695Z" fill="black"/>
<path d="M127.498 142.815H158.057V144.695H127.498V142.815Z" fill="black"/>
<path d="M46.8846 243.477L46.6606 243.42L47.2714 241.665L46.966 242.543L47.1696 241.631L47.2816 241.654L46.8846 243.477Z" fill="black"/>
<path d="M47.1408 243.523H46.8048L46.6929 243.42L39.1904 240.435L47.9755 241.745L47.9857 242.645L47.9348 243.523H47.1408Z" fill="black"/>
<path d="M54.3448 244.389L6.62241 238.577L21.2913 225.097L-21.2903 212.221L23.2357 184.428L14.3081 181.762L3.19185 185.59L5.46193 188.929L-25.5556 193.863L-6.10221 185.602L-7.95491 182.912L3.41581 178.537L-25.8813 169.797L-7.28305 143.201L-5.94951 144.363L-22.9903 168.714L9.16734 178.309L-5.20639 183.847L-3.39441 186.479L-10.8256 189.636L2.38766 187.539L0.402618 184.599L14.2674 179.824L27.674 183.824L-16.8621 211.605L24.8746 224.22L10.7757 237.187L39.5944 240.697L20.65 233.404L33.3339 222.818L-6.23454 210.169L20.4057 195.709L33.6597 199.846L27.1345 206.603L45.2136 208.278L33.0693 203.446L39.0854 196.974L24.0908 191.504L25.9333 190.49C33.3645 186.365 38.6274 183.437 41.3148 181.933L-13.7573 166.344L10.8063 143.041L11.8955 144.477L-10.1741 165.41L46.1094 181.34L44.0837 182.479C44.0837 182.479 38.4848 185.602 28.5189 191.14L42.2717 196.154L36.1842 202.683L57.9179 211.343L23.1746 208.13L30.2902 200.746L20.5482 197.715L-1.53152 209.702L37.0699 222.043L24.2129 232.789L54.3448 244.389Z" fill="black"/>
<path d="M120.791 75.7089H104.697V57.6934H120.791V75.7089ZM106.376 73.8287H119.111V59.5735H106.376V73.8287Z" fill="black"/>
<path d="M158.119 50.6274H142.035V32.6233H158.119V50.6274ZM143.714 48.7473H156.439V34.5035H143.714V48.7473Z" fill="black"/>
<path d="M262.978 104.367H246.894V86.3514H262.978V104.367ZM248.574 102.475H261.298V88.2316H248.574V102.475Z" fill="black"/>
<path d="M90.7795 102.191C90.7694 102.191 90.7388 102.191 90.7286 102.191C87.8274 102.191 85.1705 100.561 83.4298 97.7354C83.1753 97.348 82.931 96.9036 82.6969 96.3908C82.0352 94.9208 81.6687 93.3483 81.6178 91.7644C81.3328 91.7074 81.0579 91.5821 80.8136 91.3998C79.3987 90.34 79.1849 87.6622 79.1543 87.3545L79.0933 86.3176L80.0298 86.3518C80.2639 86.3632 80.5082 86.3974 80.7729 86.4429C82.1675 86.648 84.0711 86.9215 87.3388 78.7171L87.8987 77.3269L88.7538 78.512C90.5352 80.9619 94.1897 84.9502 98.8215 84.1297L99.7173 83.9702L99.7784 84.9844C99.8802 86.4429 99.9616 88.6764 99.7377 91.0465C99.2491 96.0831 97.6407 99.4675 94.9227 101.12C93.7215 101.826 92.3269 102.191 90.7795 102.191ZM83.3789 89.4398L83.3077 90.8186C83.2262 92.4139 83.5214 94.0434 84.2035 95.5362C84.3867 95.9578 84.5801 96.311 84.7939 96.6301C86.2292 98.9661 88.3975 100.299 90.7388 100.299C92.0215 100.299 93.1514 100.026 94.1287 99.4333C96.3173 98.1001 97.6407 95.2057 98.0682 90.8186C98.2413 89.0638 98.2209 87.3887 98.1598 86.0669C93.8131 86.3746 90.3825 83.3207 88.3059 80.791C85.3334 87.742 83.1346 88.5282 81.007 88.3345C81.1801 88.984 81.4346 89.588 81.74 89.8159C81.8316 89.8956 81.9538 89.9526 82.1879 89.85L83.3789 89.4398Z" fill="black"/>
<path d="M89.4051 109.507C89.3033 109.507 89.2015 109.507 89.0997 109.496C86.0865 109.37 83.3889 107.49 82.544 104.926L82.4829 104.71L83.226 97.1433L84.8955 97.3598L84.1931 104.47C84.8751 106.214 86.9314 107.536 89.1608 107.627C90.2195 107.661 92.7746 107.456 94.047 104.607L93.7009 100.357L95.3704 100.197L95.7572 104.926L95.6656 105.154C94.5662 107.9 92.2249 109.507 89.4051 109.507Z" fill="black"/>
<path d="M83.0934 96.8577C80.0293 95.3763 78.5024 91.935 78.1766 85.6906C78.0036 82.2834 79.0216 79.1612 81.0677 76.8822C82.9 74.8539 85.4144 73.7144 87.8473 73.8169C89.4659 72.8711 91.6037 72.8256 93.9246 73.703C97.4061 75.0134 100.745 78.1698 101.865 81.2123C103.086 84.5283 102.455 87.7417 101.458 89.6446C100.776 90.9437 99.8899 91.7527 99.0246 91.8781L98.8211 90.0093C99.0348 89.9865 99.5336 89.6105 100.002 88.6989C100.796 87.1833 101.295 84.608 100.317 81.9416C99.3809 79.3891 96.3983 76.6201 93.3851 75.4806C91.4306 74.7513 89.6899 74.7741 88.4683 75.5718L88.2444 75.7085L87.9899 75.6971C85.9539 75.549 83.806 76.4834 82.2485 78.2154C80.5485 80.0956 79.6934 82.7165 79.8461 85.5652C80.2126 92.5048 82.0347 94.2938 83.7551 95.1257L83.0934 96.8577Z" fill="black"/>
<path d="M91.3796 98.6919C91.2167 98.6919 91.0437 98.6577 90.8808 98.6007C89.6999 98.2019 89.1401 96.6294 89.5676 95.0113C89.7916 94.1225 90.2904 93.3704 90.9317 92.983C91.4 92.6867 91.9293 92.6183 92.3976 92.7892C92.8658 92.9374 93.273 93.3134 93.5275 93.849C93.8736 94.5555 93.9449 95.4785 93.7107 96.3673C93.3443 97.7689 92.3874 98.6919 91.3796 98.6919ZM91.8886 94.5897C91.8275 94.5897 91.7766 94.6238 91.7359 94.6466C91.5527 94.7606 91.3083 95.0569 91.176 95.5468C91.0029 96.2191 91.1964 96.7433 91.3592 96.8003C91.5119 96.8573 91.9293 96.5154 92.1024 95.8545V95.8431C92.2245 95.3531 92.1736 94.9543 92.0718 94.7378C92.0515 94.7036 92.0006 94.6124 91.9293 94.5897C91.9191 94.601 91.8988 94.5897 91.8886 94.5897Z" fill="black"/>
<path d="M50.1508 81.7021C49.4484 81.7021 48.7256 81.4742 48.0436 80.8931C47.0867 80.0954 46.8729 79.1383 46.8627 78.4773C46.8424 77.2125 47.5244 75.8679 48.7867 74.7056C49.8556 73.7028 51.2298 72.9394 52.6754 72.5405L53.0927 74.3637C51.8915 74.7056 50.7412 75.3323 49.8658 76.1528C49.031 76.9276 48.5322 77.7708 48.5424 78.4318C48.5526 78.7964 48.7256 79.1041 49.0616 79.3889C50.7717 80.8247 53.052 78.1013 53.0724 78.0785L54.3143 79.3434C53.4999 80.3347 51.861 81.7021 50.1508 81.7021Z" fill="black"/>
<path d="M48.593 75.8915L48.5523 75.8117C48.023 74.7862 46.9134 72.6553 45.5493 72.4844L45.7427 70.6156C47.9415 70.9005 49.3362 73.5783 50.008 74.8659L50.0487 74.9457L48.593 75.8915Z" fill="black"/>
<path d="M43.4752 84.141C42.8644 84.141 42.2231 83.9131 41.6225 83.4686C38.8435 81.4175 38.3447 78.6371 38.3345 78.5232L39.9836 78.1813C40.0039 78.2611 40.3908 80.3236 42.5489 81.9075C43.0986 82.3177 43.577 82.3861 44.0046 82.124C44.5848 81.7822 44.9513 80.9731 44.9513 80.4148C44.9513 80.2666 44.9411 80.1869 44.9207 80.1641C42.9561 76.4037 41.5105 75.0135 40.8794 74.9679L40.9914 73.0878C42.5081 73.2017 44.2692 75.2072 46.3764 79.2297C46.5597 79.5943 46.6411 80.016 46.6411 80.4718C46.6207 81.5885 45.9794 83.104 44.7986 83.7991C44.371 84.0156 43.9333 84.141 43.4752 84.141Z" fill="black"/>
<path d="M46.7203 81.5536C46.3029 81.5536 45.8652 81.4739 45.458 81.2801L46.1299 79.5481C46.7814 79.8672 47.8706 79.4569 48.1963 79.286L48.8987 80.9953C48.7562 81.0636 47.7892 81.5536 46.7203 81.5536Z" fill="black"/>
<path d="M195.446 75.5266C195.294 75.5266 195.151 75.5038 194.998 75.4468C193.991 75.1164 193.492 73.7717 193.858 72.4043C194.042 71.6637 194.469 71.0483 194.998 70.7179C195.416 70.4672 195.864 70.3988 196.281 70.5355C197.289 70.866 197.788 72.2106 197.421 73.5894C197.106 74.7631 196.291 75.5266 195.446 75.5266ZM195.772 72.336C195.772 72.3702 195.569 72.5525 195.467 72.9285C195.365 73.3159 195.446 73.6008 195.497 73.6578C195.497 73.6236 195.711 73.4299 195.813 73.0539C195.915 72.6664 195.833 72.3815 195.772 72.336Z" fill="black"/>
<path d="M2.26794 123.123H-16.6357V101.974H2.26794V123.123ZM-14.9561 121.243H0.588295V103.854H-14.9561V121.243Z" fill="black"/>
<path d="M162.507 142.815H169.449V144.695H162.507V142.815Z" fill="black"/>
<path d="M-20.9323 86.7509C-27.1216 83.5945 -29.5036 75.1964 -28.1396 69.214C-27.3048 65.5334 -25.1671 63.2316 -22.2659 62.7644C-26.3276 56.5997 -25.9916 52.0417 -24.9228 49.2385C-23.1515 44.6235 -18.4587 42.2647 -14.5904 41.9684C-11.8012 41.7633 -9.37838 42.5154 -7.74963 44.0537C-6.19214 33.5361 -2.06936 26.2433 3.72288 23.9301C7.93727 22.2322 12.5385 23.4401 16.0301 27.1321C20.8044 32.1801 22.4332 40.4187 20.499 49.4094C27.3092 46.7771 30.0883 49.6715 31.1572 51.734C33.2745 55.7906 31.9613 62.5023 29.3452 66.0917C38.0284 68.1087 37.438 74.1936 37.2039 76.5638C37.1835 76.7917 37.1632 76.9854 37.153 77.1335L35.4733 77.0538C35.4835 76.8714 35.5039 76.6321 35.5344 76.3587C35.7584 73.9657 36.2572 68.9747 27.4925 67.6415L25.5074 67.3338L27.0955 65.9664C29.8949 63.5278 31.7069 56.5085 29.7015 52.6684C27.7571 48.9422 23.1356 50.1501 19.593 51.8024L17.9643 52.5658L18.4631 50.6742C20.8451 41.6608 19.5014 33.3652 14.8798 28.4767C11.8565 25.2861 7.90673 24.2378 4.29294 25.6849C-1.23463 27.907 -5.11309 35.4277 -6.34484 46.3099L-6.64005 49.0106L-7.89215 46.6746C-8.98138 44.6577 -11.4347 43.5979 -14.4682 43.8258C-17.8275 44.0765 -21.879 46.0707 -23.3653 49.9564C-24.7599 53.6028 -23.5791 58.1266 -19.9347 63.0265L-18.6724 64.7129L-20.6473 64.5534C-24.6683 64.2229 -26.0425 67.6187 -26.5108 69.6584C-27.712 74.9229 -25.4725 82.3525 -20.2299 85.0189L-20.9323 86.7509Z" fill="black"/>
<path d="M281.08 85.11L280.174 83.526C282.413 81.9307 284.907 76.8827 286.404 70.9915C288.033 64.5533 288.124 58.6507 286.638 55.198C285.111 51.6541 281.965 50.7653 277.273 52.5543L274.117 53.7508L276.387 51.016C282.22 43.9853 283.116 28.5222 279.278 24.1123C277.832 22.46 275.858 22.8703 273.404 25.3088L271.511 27.189L272.02 24.4086C273.771 14.8368 271.093 7.45277 267.867 4.64959C266.289 3.27079 264.609 2.95173 263.123 3.74938C261.616 4.55843 258.094 7.86299 257.972 20.8419L257.941 24.5225L256.394 21.2863C255.722 19.8848 253.33 19.5999 251.487 20.7052C248.271 22.631 248.016 27.2232 250.765 33.0232L251.844 35.2681L249.716 34.3451C247.965 33.5816 246.326 33.8209 245.125 35.0402C243.252 36.9203 242.763 40.5668 243.802 44.7829L242.183 45.2843C240.972 40.3616 241.644 36.0087 243.995 33.6386C245.227 32.3965 246.815 31.8609 248.484 32.0774C245.777 25.1151 247.751 20.8078 250.693 19.0529C252.587 17.9134 254.796 17.8906 256.343 18.768C256.811 6.88302 260.293 3.19103 262.4 2.05152C264.456 0.946206 266.828 1.34503 268.905 3.15684C272.366 6.17653 275.125 13.1845 274.025 22.4259C277.293 20.1468 279.431 21.5826 280.479 22.7905C282.607 25.2176 283.625 30.4935 283.136 36.5443C282.719 41.729 281.314 46.4808 279.217 50.0018C284.5 48.8851 286.984 51.6313 288.165 54.3661C291.718 62.6503 286.699 81.0875 281.08 85.11Z" fill="black"/>
</svg>
