<svg width="233" height="250" viewBox="0 0 233 250" fill="none" xmlns="http://www.w3.org/2000/svg">
<mask id="mask0_5642_6628" style="mask-type:luminance" maskUnits="userSpaceOnUse" x="-89" y="0" width="322" height="250">
<path d="M-79.3091 0.0820312L232.467 12.0941L223.316 249.607L-88.4599 237.595L-79.3091 0.0820312Z" fill="white"/>
</mask>
<g mask="url(#mask0_5642_6628)">
<path d="M230.016 80.3911L207.67 14.552L207.527 14.142L175.677 11.4822L175.565 11.0733L158.998 22.689L146.806 23.357L146.788 23.2299L110.873 33.2573L112.194 48.0231L85.9041 47.0102L85.1357 66.9544L66.7924 66.2477L66.2305 80.8314L50.4508 80.2234L51.3271 57.4769L29.3077 56.6286L33.165 41.3207L2.75132 29.1254L2.83882 28.8085L-11.3529 29.7787L-12.7051 6.83679L-9.96399 6.04063L-46.6751 1.35625L-46.8023 1.33449L-79.1811 11.81L-76.9839 12.2318L-72.2358 67.2121L-72.2302 67.2629L-71.6105 67.2025L-72.2308 67.2797L-70.0274 92.749L-83.2034 102.532L-86.0365 176.064L-85.7609 176.142L-63.6754 208.496L-63.5044 208.747L-9.70548 212.919L43.3468 241.94L43.4648 242.003L122.649 245.054L157.983 229.804C158.979 229.725 167.587 229.079 176.239 228.477C187.465 227.679 194.06 227.292 195.323 227.341C198.556 227.466 221.325 211.791 224.604 209.524L225.04 209.54L230.016 80.3911Z" fill="black"/>
</g>
<mask id="mask1_5642_6628" style="mask-type:luminance" maskUnits="userSpaceOnUse" x="188" y="73" width="43" height="138">
<path d="M194.213 73.8286L230.035 75.2088L224.806 210.93L188.984 209.55L194.213 73.8286Z" fill="white"/>
</mask>
<g mask="url(#mask1_5642_6628)">
<path d="M225.291 186.803L224.443 208.801L189.674 207.461L194.682 84.3052L211.15 75.8545C211.15 75.8545 212.395 88.0975 213.717 87.1961C215.031 86.2944 229.386 80.5098 229.386 80.5098L225.291 186.803Z" fill="#FF9F43"/>
</g>
<mask id="mask2_5642_6628" style="mask-type:luminance" maskUnits="userSpaceOnUse" x="170" y="10" width="63" height="79">
<path d="M173.525 10.4631L232.442 12.7331L229.537 88.1339L170.62 85.864L173.525 10.4631Z" fill="white"/>
</mask>
<g mask="url(#mask2_5642_6628)">
<path d="M207.08 14.7984L229.386 80.5095C229.386 80.5095 215.032 86.2941 213.717 87.1958C212.395 88.0972 211.15 75.8543 211.15 75.8543L194.682 84.3049L175.207 12.1461L207.08 14.7984Z" fill="#FF9F43"/>
</g>
<mask id="mask3_5642_6628" style="mask-type:luminance" maskUnits="userSpaceOnUse" x="99" y="122" width="130" height="109">
<path d="M103.693 122.121L228.044 126.912L224.06 230.319L99.7088 225.528L103.693 122.121Z" fill="white"/>
</mask>
<g mask="url(#mask3_5642_6628)">
<path d="M189.683 207.47L224.445 208.809C224.445 208.809 198.539 226.757 195.344 226.634C193.795 226.574 184.927 227.151 176.199 227.775L176.2 227.767L104.934 128.405C103.354 126.246 104.804 122.998 107.307 123.095L119.606 123.569L120.485 133.387L132.154 140.444L129.893 154.785L145.117 170.786L155.462 168.817L189.683 207.47Z" fill="#3B3A3A"/>
</g>
<path d="M162.571 106.792L150.267 62.4849L142.638 34.9777L147.281 31.7181L159.182 23.378L175.207 12.146L194.69 84.3051L189.681 207.469L155.468 168.825L157.92 105.171L162.571 106.792Z" fill="#4A8BDF"/>
<mask id="mask4_5642_6628" style="mask-type:luminance" maskUnits="userSpaceOnUse" x="-42" y="105" width="224" height="143">
<path d="M-36.3843 105.936L181.089 114.315L175.947 247.781L-41.5265 239.403L-36.3843 105.936Z" fill="white"/>
</mask>
<g mask="url(#mask4_5642_6628)">
<path d="M-15.5741 181.543L32.2476 126.094C34.407 123.589 33.2035 120.239 30.7001 120.143L18.4913 119.673L18.8894 109.339L117.8 113.149L118.663 113.039L119.605 123.568L107.306 123.094C104.81 122.998 103.352 126.246 104.933 128.405L176.205 227.767L176.205 227.775C166.95 228.422 157.859 229.108 157.859 229.108L122.556 244.351L43.6193 241.309L85.8501 223.3L112.225 229.718L139.84 189.68L117.4 181.964L126.777 174.833L117.965 171.99L122.517 165.44L111.907 173.105L118.148 176.026L111.987 180.019L98.6241 174.902L109.475 156.299L91.1882 149.821L97.2332 139.874L72.8038 132.595L76.2188 128.571L63.8376 124.563L55.8393 118.769L61.2225 125.609L69.6594 129.397L65.2488 132.489L85.8156 142.316L73.3962 152.979L94.7135 160.913L78.6517 177.007L92.8218 187.346L98.648 187.57L102.369 190.065L82.4813 193.1L83.2744 199.089L69.6259 192.604L55.9121 201.102L69.7102 194.715L86.483 204.918L86.6008 195.804L108.101 193.918L115.374 198.783L101.186 216.668L84.2861 216.017L43.6121 241.301L-9.54351 212.225L-40.0123 209.863L-15.5741 181.543ZM52.0368 198.509C53.6429 193.169 54.237 185.37 53.6921 177.04C54.0698 172.318 54.4002 166.869 54.6732 159.978C54.4671 157.121 54.212 154.751 53.9326 152.819C52.9651 146.276 51.7215 144.551 51.7215 144.551C51.7215 144.551 41.0254 143.119 33.5026 143.351C27.4565 143.557 24.6152 143.826 23.7289 143.969C21.2793 145.796 19.281 148.029 17.704 150.463C15.0375 154.599 13.5675 159.338 13.044 163.742C8.8307 167.575 5.3658 173.088 3.34081 178.943C2.68083 180.83 2.18494 182.758 1.85541 184.667C1.51772 186.592 1.36111 188.508 1.39502 190.363C2.20441 190.656 3.47237 190.966 5.07928 191.272L5.07831 191.297C5.24287 193.866 6.19006 195.858 6.97545 196.773L11.1403 196.933C12.1997 196.013 12.7885 194.409 13.0817 192.465L13.0833 192.423C22.6415 193.491 35.6636 194.153 45.0287 193.393C44.9639 195.076 45.5902 197.384 46.3684 198.29L52.0368 198.509Z" fill="#3B3A3A"/>
</g>
<path d="M150.268 62.485L162.572 106.792L157.921 105.172L156.781 134.785L150.789 134.554L148.057 138.823L143.098 136.213L132.153 140.452L120.485 133.387L119.606 123.568L118.656 113.039L112.882 48.7316L111.546 33.7799L146.274 24.0775L147.282 31.7182L142.639 34.9778L150.268 62.485Z" fill="#9C7C6A"/>
<path d="M156.781 134.786L155.469 168.826L145.116 170.795L150.789 134.555L156.781 134.786Z" fill="#3B3A3A"/>
<path d="M159.183 23.3788L147.282 31.7188L146.274 24.0781L159.183 23.3788Z" fill="#3B3A3A"/>
<path d="M150.788 134.555L145.115 170.795L129.891 154.786L132.153 140.453L143.097 136.214L148.056 138.824L150.788 134.555Z" fill="#9C7C6A"/>
<path d="M86.0021 60.7088L86.5024 47.724L112.83 48.7384L112.882 48.732L118.657 113.039L117.794 113.149L18.8831 109.338L19.5192 92.8276L28.4924 57.2963L50.6772 58.1511L49.8015 80.8807L66.8217 81.5365L67.3835 66.9528L85.7343 67.6598L86.0021 60.7088Z" fill="#707070"/>
<mask id="mask5_5642_6628" style="mask-type:luminance" maskUnits="userSpaceOnUse" x="43" y="117" width="102" height="130">
<path d="M47.9634 117.816L144.19 121.523L139.38 246.372L43.1532 242.665L47.9634 117.816Z" fill="white"/>
</mask>
<g mask="url(#mask5_5642_6628)">
<path d="M69.6263 192.595L83.2748 199.079L82.4817 193.09L102.369 190.064L98.6481 187.57L92.8218 187.345L78.6443 177.006L94.7064 160.904L73.3812 152.978L85.8082 142.315L65.2489 132.488L69.6595 129.397L61.2225 125.608L55.8397 118.759L63.8305 124.554L76.2117 128.562L72.7967 132.585L97.2336 139.864L91.1886 149.812L109.475 156.29L98.6245 174.893L111.987 180.018L118.149 176.025L111.907 173.104L122.524 165.431L117.966 171.981L126.778 174.823L117.408 181.955L139.848 189.671L112.225 229.709L85.858 223.291L43.6197 241.3L84.2937 216.016L101.194 216.668L115.382 198.783L108.108 193.918L86.6084 195.803L86.4906 204.917L69.7178 194.714L55.9122 201.101L69.6263 192.595Z" fill="black"/>
</g>
<path d="M53.6935 177.04C54.2312 185.362 53.6443 193.169 52.0382 198.509L46.3547 198.29C45.5765 197.384 44.9577 195.076 45.0226 193.393C47.7946 193.162 50.2622 192.819 52.2085 192.33C52.741 187.496 53.2521 182.83 53.6935 177.04Z" fill="#9C7C6A"/>
<path d="M54.6725 159.978C54.3995 166.87 54.0691 172.318 53.6914 177.04C53.2425 182.83 52.7314 187.496 52.2067 192.321C50.2526 192.819 47.7928 193.154 45.0208 193.385C35.6485 194.136 22.634 193.474 13.0679 192.415C9.9568 192.067 7.20881 191.675 5.07138 191.264C3.46447 190.958 2.19618 190.656 1.38712 190.355C1.34568 188.499 1.5023 186.584 1.83999 184.658L13.7147 185.984L12.372 180.774L3.33259 178.943C5.35758 173.088 8.81495 167.574 13.0282 163.742C17.9022 167.773 42.9502 169.159 50.8884 165.959C50.8884 165.959 52.906 160.491 53.9169 152.819L53.9244 152.819C54.2189 154.752 54.4667 157.113 54.6725 159.978ZM49.0557 186.562L49.281 180.713L37.9009 181.598C37.2064 182.035 35.4786 186.823 35.4786 186.823L49.0557 186.562ZM32.6028 186.425L33.2686 182.431L16.0756 181.768L16.4321 185.802L32.6028 186.425Z" fill="#C41830"/>
<path d="M53.9333 152.82C52.907 160.5 50.8973 165.959 50.8973 165.959L49.7077 151.696C49.7077 151.696 50.8335 147.879 51.7224 144.543C51.7221 144.551 52.9657 146.276 53.9333 152.82Z" fill="#5FB6BE"/>
<path d="M49.708 151.696L50.8976 165.959C42.9518 169.159 17.9114 167.773 13.0374 163.742C13.5685 159.338 15.0313 154.59 17.6975 150.462C18.8955 150.829 38.3167 153.457 49.708 151.696Z" fill="#5FB6BE"/>
<path d="M51.7221 144.551C50.8335 147.879 49.7073 151.704 49.7073 151.704C38.316 153.465 18.9024 150.837 17.7043 150.471C19.2816 148.029 21.2796 145.805 23.7292 143.978C24.6083 143.826 27.4571 143.557 33.5029 143.36C41.0188 143.11 51.7221 144.551 51.7221 144.551Z" fill="#C41830"/>
<path d="M49.2816 180.72L49.0563 186.569L35.4864 186.839C35.4864 186.839 37.2143 182.051 37.909 181.605L49.2816 180.72Z" fill="#5FB6BE"/>
<path d="M33.2627 182.43L32.6044 186.424L16.4337 185.801L16.0771 181.767L33.2627 182.43Z" fill="#5FB6BE"/>
<path d="M30.7006 120.143C33.204 120.24 34.4076 123.59 32.2482 126.094L-15.5735 181.543L-22.1999 177.268L-10.3793 161.239C-10.3793 161.239 -16.3265 155.751 -16.5588 155.919L-12.347 152.71L18.211 126.766L18.4843 119.672L30.7006 120.143Z" fill="#3B3A3A"/>
<path d="M18.4849 119.673L18.2116 126.767L-12.3464 152.71L-9.9961 91.7078C-9.9961 91.7078 -12.0773 91.4001 -12.6453 91.4878C-11.9163 90.7405 -8.69838 85.7741 -8.69838 85.7741L-9.11307 78.7547L-9.47813 72.5967L-9.4778 72.5883L1.98263 29.5595L32.4114 41.7553L28.4923 57.2968L19.5267 92.8284L18.4924 119.673L18.4849 119.673Z" fill="#4A8BDF"/>
<path d="M12.3799 180.783L13.7151 185.992L1.8479 184.667C2.17742 182.758 2.68083 180.83 3.34081 178.943L12.3799 180.783Z" fill="#5FB6BE"/>
<path d="M13.0688 192.414L13.0672 192.456C12.7736 194.409 12.1926 196.005 11.1257 196.924L6.96092 196.764C6.18272 195.857 5.22833 193.857 5.07129 191.289L5.07227 191.264C7.20969 191.675 9.95768 192.067 13.0688 192.414Z" fill="#9C7C6A"/>
<path d="M1.98234 29.5595L-9.47058 72.5887L-11.9374 30.5065L1.98234 29.5595Z" fill="#5FB6BE"/>
<path d="M-8.87674 72.7883L-9.46416 72.5971L-10.0956 72.5728L-10.0666 72.4054L1.1395 30.3106L-11.905 31.207L-11.9718 29.8139L2.83116 28.8082L-8.87674 72.7883Z" fill="black"/>
<path d="M-11.9691 153.263L-12.7169 152.156L17.6074 126.414L18.9236 92.6441L31.6561 42.1972L1.76871 30.216L2.20334 28.9012L33.1656 41.3199L20.1396 92.9353L18.8226 127.118L-11.9691 153.263Z" fill="black"/>
<path d="M67.4192 82.251L49.1586 81.5474L50.034 58.8262L28.4656 57.9952L28.5194 56.5983L51.3282 57.4771L50.4525 80.2067L66.2322 80.8147L66.7938 66.2394L85.1371 66.9461L85.9055 47.0019L112.857 48.0403L112.803 49.4288L87.0924 48.4382L86.324 68.3825L67.9807 67.6757L67.4192 82.251Z" fill="black"/>
<path d="M131.859 141.056L119.904 133.82L110.874 33.2487L146.789 23.2296L147.896 31.6158L146.668 31.8297L145.759 24.9429L112.219 34.3034L121.074 132.946L132.456 139.832L131.859 141.056Z" fill="black"/>
<path d="M190.237 209.083L154.833 169.095L157.332 104.238L161.626 105.727L141.905 34.6712L175.565 11.0724L195.311 84.2193L195.306 84.3371L190.237 209.083ZM156.096 168.545L189.127 205.847L194.062 84.3987L174.842 13.219L143.372 35.2756L163.509 107.848L158.502 106.112L156.096 168.545Z" fill="black"/>
<mask id="mask6_5642_6628" style="mask-type:luminance" maskUnits="userSpaceOnUse" x="43" y="113" width="102" height="134">
<path d="M48.1294 113.508L144.356 117.215L139.38 246.373L43.1532 242.666L48.1294 113.508Z" fill="white"/>
</mask>
<g mask="url(#mask6_5642_6628)">
<path d="M43.8355 241.959L43.3193 240.7L84.1476 215.321L100.927 215.967L114.427 198.958L107.961 194.63L87.2233 196.46L87.1008 206.088L69.6804 195.498L56.1584 201.753L55.6193 200.501L69.6031 191.837L82.5049 197.964L81.7737 192.517L100.526 189.649L98.4707 188.272L92.6294 188.047L77.6244 177.103L93.4905 161.204L72.0764 153.24L84.5817 142.497L63.9038 132.623L68.2912 129.547L60.846 126.201L52.3693 115.433L64.0956 123.933L77.3616 128.228L73.9626 132.227L98.2283 139.457L92.1591 149.446L110.438 155.915L99.5797 174.535L111.925 179.275L116.751 176.141L110.584 173.248L125.259 162.655L119.019 171.618L128.218 174.577L118.825 181.732L140.886 189.325L112.473 230.512L85.897 224.044L43.8355 241.959ZM84.4399 216.723L51.487 237.214L85.8106 222.574L111.977 228.942L138.81 190.045L115.991 182.196L125.338 175.081L116.912 172.363L119.789 168.235L113.238 172.954L119.546 175.92L112.056 180.772L97.6773 175.254L108.512 156.667L90.2103 150.197L96.2314 140.282L71.6311 132.946L75.0693 128.907L63.5073 125.132L59.3105 122.088L61.6072 125.009L71.036 129.24L66.5944 132.356L87.0432 142.119L74.709 152.718L95.9299 160.615L79.6727 176.895L93.0375 186.638L98.8563 186.862L104.221 190.466L83.1972 193.676L84.0677 200.198L69.6647 193.365L65.7311 195.801L69.7707 193.934L85.8887 203.741L86.0011 195.157L108.272 193.192L116.353 198.602L101.468 217.37L84.4402 216.714L84.4399 216.723Z" fill="black"/>
</g>
<path d="M31.6596 98.1742L30.5217 97.6163C31.3297 95.5994 32.2311 93.3081 32.3767 92.8502L32.3848 92.6398L32.5887 92.4285C32.8472 92.1688 32.9308 92.1468 35.7458 92.3648C36.609 92.4317 37.8253 92.5207 38.4198 92.5268C38.5545 91.3774 38.6151 87.8485 38.5939 84.6872L38.5911 84.173L49.6232 80.2072L49.9936 81.5362L39.84 85.1735C39.8831 93.4344 39.5527 93.6071 39.1383 93.8102C38.8462 93.9675 38.3274 93.9475 35.6472 93.7515C34.8967 93.6889 33.9432 93.6185 33.4392 93.6075C33.2198 94.2227 32.7423 95.4769 31.6596 98.1742ZM33.612 93.0326C33.6107 93.0663 33.5934 93.1246 33.5748 93.2166C33.5921 93.1583 33.6018 93.0997 33.612 93.0326Z" fill="black"/>
<path d="M87.4963 102.046L82.6414 93.0262L79.1969 94.8825L76.3966 84.9057L70.6731 89.4384L66.3024 81.921L67.3484 81.1523L71.02 87.4713L77.0702 82.6646L79.9575 92.9228L83.1252 91.2161L88.5708 101.32L87.4963 102.046Z" fill="black"/>
<path d="M78.1582 87.2313L77.0689 86.5825L80.9991 78.3736L84.3444 83.5844L88.4496 78.0623L89.402 78.9418L84.2719 85.8571L81.1463 81.0003L78.1582 87.2313Z" fill="black"/>
<path d="M98.5193 75.6355L97.431 69.6858L93.3676 70.8018L91.079 60.634L86.0804 61.4022L85.9227 60.0224L92.012 59.0855L94.2757 69.1175L98.3921 67.9951L99.7351 75.3453L98.5193 75.6355Z" fill="black"/>
<path d="M175.722 228.203L104.442 128.841C103.563 127.636 103.407 126.003 104.034 124.595C104.66 123.186 105.928 122.342 107.333 122.396L119.632 122.87L119.579 124.258L107.28 123.784C106.37 123.749 105.559 124.291 105.147 125.202C104.735 126.122 104.838 127.171 105.417 127.96L176.697 227.331L175.722 228.203Z" fill="black"/>
<path d="M-39.5552 210.343L-40.4517 209.382L31.8007 125.612C32.6679 124.601 32.9642 123.357 32.5835 122.297C32.2714 121.408 31.5544 120.867 30.6748 120.833L18.3758 120.359L18.4293 118.97L30.7283 119.444C32.0965 119.497 33.2519 120.384 33.7404 121.777C34.2975 123.34 33.8954 125.179 32.6972 126.574L-39.5552 210.343Z" fill="black"/>
<path d="M18.9102 108.64L117.821 112.451L117.768 113.839L18.8567 110.029L18.9102 108.64Z" fill="black"/>
<path d="M28.7038 194.264C22.9302 194.042 17.331 193.59 13.0053 193.112C9.87163 192.763 7.08638 192.361 4.96366 191.959C3.27438 191.641 2.00674 191.323 1.18984 191.03L0.781553 190.879L0.770287 190.39C0.729498 188.518 0.888062 186.552 1.23651 184.542C1.56669 182.617 2.07923 180.647 2.75652 178.701C4.80731 172.763 8.34213 167.194 12.4564 163.391C12.891 159.927 14.0785 154.899 17.1932 150.072C18.8986 147.433 20.9727 145.186 23.3831 143.4L23.4994 143.312L23.6357 143.292C24.6744 143.104 27.8088 142.846 33.4852 142.66C40.9705 142.426 51.6973 143.842 51.8019 143.863L52.049 143.898L52.2066 144.106C52.3423 144.297 53.5728 146.164 54.5407 152.699C54.8447 154.776 55.105 157.205 55.2941 159.917L55.2984 160.002C55.0441 166.406 54.7233 171.998 54.316 177.098C53.8651 182.938 53.3335 187.746 52.8231 192.396L52.7667 192.882L52.3409 192.992C50.4557 193.459 48.0097 193.828 45.0563 194.077C40.1245 194.477 34.3346 194.481 28.7038 194.264ZM2.00366 189.839C2.76237 190.079 3.82211 190.322 5.18223 190.585C7.28272 190.978 10.0307 191.37 13.1415 191.726C21.6351 192.677 35.073 193.49 44.9813 192.7C47.6474 192.483 49.8882 192.164 51.6433 191.752C52.1322 187.27 52.6357 182.604 53.0778 176.991C53.4838 171.925 53.8034 166.366 54.0563 159.996C53.8646 157.351 53.6178 154.965 53.3194 152.939C52.5781 147.946 51.6806 145.839 51.3584 145.211C49.6051 144.992 40.2231 143.847 33.5144 144.052C26.8954 144.277 24.5735 144.55 23.9525 144.644C21.7268 146.328 19.7866 148.419 18.2087 150.878C15.1658 155.599 14.0499 160.528 13.659 163.833L13.6257 164.11L13.4307 164.288C9.39713 167.951 5.92796 173.379 3.91962 179.193C3.26029 181.064 2.78106 182.95 2.45412 184.791C2.15364 186.533 2.00545 188.23 2.00366 189.839Z" fill="black"/>
<path d="M32.8038 168.372C24.0982 168.037 15.3917 166.555 12.6699 164.31L13.4135 163.184C18.0103 166.985 41.9198 168.412 50.2317 165.479L49.1438 152.484C37.6394 154.055 18.7127 151.488 17.5366 151.139L17.867 149.795C19.0506 150.144 38.3522 152.75 49.6297 151.011L50.2661 150.909L51.5653 166.432L51.1064 166.617C47.3285 168.14 40.0734 168.653 32.8038 168.372Z" fill="black"/>
<path d="M14.5659 186.784L1.77633 185.364L1.91252 183.978L12.8655 185.193L11.8902 181.388L3.21695 179.629L3.45055 178.256L12.8708 180.17L14.5659 186.784Z" fill="black"/>
<path d="M34.5644 187.545L34.9106 186.572C35.5928 184.694 36.8384 181.48 37.6024 180.995L37.726 180.916L49.9294 179.962L49.6486 187.249L34.5644 187.545ZM38.1552 182.281C37.806 182.748 37.0786 184.431 36.4264 186.116L48.4666 185.881L48.6369 181.463L38.1552 182.281Z" fill="black"/>
<path d="M11.3326 197.632L6.68666 197.453L6.51369 197.252C5.67075 196.268 4.63134 194.129 4.45234 191.349L5.69892 191.237C5.82869 193.341 6.55029 195.13 7.25888 196.084L10.9275 196.226C11.6872 195.463 12.1882 194.184 12.4622 192.349L13.6883 192.573C13.3347 194.911 12.6256 196.51 11.5117 197.479L11.3326 197.632Z" fill="black"/>
<path d="M52.4768 199.217L46.0717 198.971L45.8987 198.77C45.0051 197.733 44.3251 195.254 44.3981 193.361L45.6385 193.408C45.5853 194.789 46.0612 196.703 46.6514 197.602L51.5906 197.793C53.0562 192.582 53.5935 185.085 53.0733 177.092L54.3199 176.98C54.8608 185.412 54.2397 193.327 52.6237 198.726L52.4768 199.217Z" fill="black"/>
<path d="M50.2938 151.92L49.1131 151.495C49.1297 151.454 50.2477 147.645 51.1272 144.359L52.3168 144.75C51.4369 148.045 50.303 151.878 50.2938 151.92Z" fill="black"/>
<path d="M51.4671 166.226L50.3204 165.701C50.3452 165.643 52.3236 160.216 53.3126 152.72L54.54 152.91C53.5288 160.591 51.5511 166.001 51.4671 166.226Z" fill="black"/>
<path d="M33.118 187.144L15.8573 186.479L15.3813 181.05L33.9953 181.767L33.118 187.144ZM17.0009 185.132L32.0965 185.714L32.5281 183.11L16.7709 182.502L17.0009 185.132Z" fill="black"/>
<path d="M144.914 171.537L129.219 155.046L131.609 139.926L143.142 135.465L147.864 137.948L150.485 133.843L156.807 134.087L156.753 135.484L151.1 135.266L148.256 139.699L143.061 136.971L132.706 140.962L130.564 154.533L145.318 170.044L155.367 168.13L155.57 169.512L144.914 171.537Z" fill="black"/>
<path d="M146.24 23.3931L159.157 22.6856L159.208 24.0781L146.292 24.7772L146.24 23.3931Z" fill="black"/>
<mask id="mask7_5642_6628" style="mask-type:luminance" maskUnits="userSpaceOnUse" x="165" y="10" width="68" height="201">
<path d="M173.525 10.4631L232.442 12.7331L224.806 210.93L165.889 208.66L173.525 10.4631Z" fill="white"/>
</mask>
<g mask="url(#mask7_5642_6628)">
<path d="M225.042 209.523L189.656 208.16L189.709 206.771L223.855 208.087L228.766 80.6204L206.642 15.4642L175.152 12.8351L175.258 11.4486L207.528 14.1415L207.671 14.5515L230.017 80.3905L225.042 209.523Z" fill="black"/>
</g>
<mask id="mask8_5642_6628" style="mask-type:luminance" maskUnits="userSpaceOnUse" x="193" y="73" width="38" height="18">
<path d="M194.213 73.8286L230.035 75.2088L229.454 90.2889L193.632 88.9088L194.213 73.8286Z" fill="white"/>
</mask>
<g mask="url(#mask8_5642_6628)">
<path d="M213.545 87.9396C213.425 87.9349 213.298 87.9048 213.18 87.8412C211.956 87.1704 211.092 81.0691 210.636 76.8882L194.944 84.9474L194.443 83.6808L211.686 74.8302L211.778 75.7776C212.231 80.2281 213.058 85.3503 213.663 86.4524C215.924 85.2163 227.779 80.4226 229.186 79.8531L229.594 81.1667C223.851 83.4822 214.969 87.1516 214.041 87.7901C213.878 87.8934 213.711 87.9459 213.545 87.9396Z" fill="black"/>
</g>
<path d="M163.116 107.125L162.019 106.459L172.39 85.4692L175.751 94.3636L181.173 84.1726L182.245 84.8797L175.558 97.4322L172.237 88.649L163.116 107.125Z" fill="black"/>
<path d="M-1.35824 93.018L1.55644 84.003L-9.71171 79.2454L-9.25517 77.9483L-8.88512 78.1142L3.14666 83.1793L0.50594 91.3368L8.22915 90.2016L8.38713 91.573L-1.35824 93.018Z" fill="black"/>
<path d="M137.717 68.7268L124.349 67.6556L124.456 66.2691L137.081 67.2696L141.361 59.9422L150.392 61.7987L150.158 63.1719L141.934 61.4813L137.717 68.7268Z" fill="black"/>
<path d="M121.565 44.7687L122.806 44.6059L124.351 61.1585L123.111 61.313L121.565 44.7687Z" fill="black"/>
<path d="M128.613 42.7814L129.854 42.627L131.392 59.1794L130.159 59.3341L128.613 42.7814Z" fill="black"/>
<path d="M135.646 40.8278L136.879 40.6731L138.425 57.2173L137.191 57.3805L135.646 40.8278Z" fill="black"/>
<path d="M124.27 75.7938L125.503 75.639L127.041 92.1914L125.808 92.3462L124.27 75.7938Z" fill="black"/>
<path d="M131.31 73.8148L132.543 73.66L134.081 90.2124L132.848 90.3672L131.31 73.8148Z" fill="black"/>
<path d="M138.343 71.8436L139.583 71.6891L141.122 88.2415L139.881 88.396L138.343 71.8436Z" fill="black"/>
<path d="M126.967 106.811L128.208 106.657L129.746 123.209L128.513 123.364L126.967 106.811Z" fill="black"/>
<path d="M133.999 104.84L135.24 104.686L136.785 121.238L135.545 121.393L133.999 104.84Z" fill="black"/>
<path d="M141.048 102.853L142.281 102.699L143.827 119.251L142.594 119.406L141.048 102.853Z" fill="black"/>
<path d="M3.68787 43.1175L4.12217 41.811L25.4678 50.3786L25.0407 51.6937L3.68787 43.1175Z" fill="black"/>
<path d="M1.37048 51.8946L1.79727 50.5878L23.1573 59.1728L22.723 60.4792L1.37048 51.8946Z" fill="black"/>
<path d="M-0.940876 60.6709L-0.513761 59.3558L20.8312 67.9401L20.4044 69.2469L-0.940876 60.6709Z" fill="black"/>
<path d="M-3.24475 69.4483L-2.81796 68.1416L18.527 76.7259L18.1002 78.0326L-3.24475 69.4483Z" fill="black"/>
<path d="M-4.85047 107.632L14.1652 95.9677L14.7507 97.187L-4.26502 108.852L-4.85047 107.632Z" fill="black"/>
<path d="M-5.26905 117.905L13.7966 104.944L14.4359 106.132L-4.62968 119.093L-5.26905 117.905Z" fill="black"/>
<path d="M-5.68844 128.188L13.4199 113.923L14.1057 115.079L-5.00267 129.344L-5.68844 128.188Z" fill="black"/>
<path d="M151.469 41.0827L152.654 40.6311L166.014 85.6613L164.83 86.1045L151.469 41.0827Z" fill="black"/>
<path d="M160.106 33.2064L161.296 32.8056L173.379 78.7473L172.189 79.1482L160.106 33.2064Z" fill="black"/>
<path d="M169.28 28.217L170.47 27.8162L182.678 74.614L181.481 75.0145L169.28 28.217Z" fill="black"/>
<path d="M163.87 114.132L165.118 114.18L163.372 159.48L162.124 159.432L163.87 114.132Z" fill="black"/>
<path d="M173.209 107.202L174.45 107.25L172.188 165.955L170.948 165.907L173.209 107.202Z" fill="black"/>
<path d="M182.791 109.821L184.039 109.869L181.48 176.283L180.232 176.235L182.791 109.821Z" fill="black"/>
<mask id="mask9_5642_6628" style="mask-type:luminance" maskUnits="userSpaceOnUse" x="-89" y="173" width="315" height="77">
<path d="M-85.9736 173.066L225.802 185.078L223.316 249.607L-88.4598 237.595L-85.9736 173.066Z" fill="white"/>
</mask>
<g mask="url(#mask9_5642_6628)">
<path d="M122.65 245.046L43.4579 241.995L43.3399 241.931L-9.7124 212.91L-63.5116 208.747L-63.6827 208.496L-85.8889 175.952L-84.8997 175.097L-62.8574 207.399L-9.37322 211.533L-9.26273 211.596L43.7745 240.617L122.448 243.648L157.72 228.421L157.818 228.408C157.901 228.411 167.015 227.717 176.172 227.075C187.587 226.268 194.054 225.885 195.37 225.936C197.558 226.02 214.165 215.114 224.113 208.215L224.76 209.395C222.091 211.247 198.602 227.451 195.316 227.324C194.053 227.275 187.458 227.67 176.24 228.46C167.588 229.071 158.98 229.717 157.984 229.788L122.65 245.046Z" fill="black"/>
</g>
<mask id="mask10_5642_6628" style="mask-type:luminance" maskUnits="userSpaceOnUse" x="203" y="141" width="25" height="49">
<path d="M205.112 141.131L227.462 141.992L225.636 189.387L203.286 188.525L205.112 141.131Z" fill="white"/>
</mask>
<g mask="url(#mask10_5642_6628)">
<path d="M224.923 187.362L207.788 173.487L213.898 155.384C212.028 152.935 205.399 144.235 205.076 143.633L206.135 142.898C206.454 143.433 211.655 150.292 215.081 154.781L215.325 155.094L209.283 172.972L225.66 186.228L224.923 187.362Z" fill="black"/>
</g>
<path d="M144.51 170.686L150.168 134.445L151.394 134.669L145.729 170.91L144.51 170.686Z" fill="black"/>
</svg>
