<svg width="231" height="148" viewBox="0 0 231 148" fill="none" xmlns="http://www.w3.org/2000/svg">
<mask id="mask0_5516_27864" style="mask-type:luminance" maskUnits="userSpaceOnUse" x="0" y="10" width="225" height="138">
<path d="M0.880371 10.333H224.667V147.604H0.880371V10.333Z" fill="white"/>
</mask>
<g mask="url(#mask0_5516_27864)">
<path d="M156.011 77.1035H162.938V69.8848H165.766V64.9212H121.802L122.339 62.8327L120.276 62.3535L116.146 59.666L112.537 61.39V64.9212H109.547C108.964 61.6087 108.906 61.0827 108.906 61.0046C108.906 60.7441 108.906 60.5827 106.651 58.9056C105.026 57.6869 103 56.2754 102.985 56.2598L102.766 56.1087L102.526 56.2181C102.37 56.291 98.8595 57.8848 98.2345 58.1816C97.8127 58.1504 95.9429 57.7285 94.3022 57.3119L94.0991 57.2598L93.9272 57.3796C93.8856 57.4108 89.6252 60.3691 89.271 60.6139C89.0887 60.7285 88.7293 60.9837 88.4689 64.9212H75.6252L90.0835 28.0046L47.5575 11.3535L1.04704 130.109L0.880371 130.536L39.5835 145.692H12.3387V146.604H41.9168L43.4168 147.192L43.646 146.604H224.583V145.692H156.011V77.1035ZM100.896 93.6452C101.037 94.6348 101.271 95.6764 101.896 96.6244C100.568 96.8014 99.1408 97.3639 97.9012 98.1608C98.8231 96.6035 99.87 94.9681 100.896 93.6452ZM73.797 77.1035H145.235V125.338C141.662 126.442 136.979 128.9 134.5 130.275C141.162 120.135 140.177 115.046 137.922 112.531C138.083 112.275 138.245 112.01 138.406 111.734L138.578 111.442L130.333 102.234L130.083 102.463C128.563 98.0827 124.839 92.7337 119.323 86.9941C118.995 83.1452 117.495 81.3639 116.287 80.5566C115.016 79.7025 113.438 79.4994 111.828 79.9681C110.792 79.4785 108.542 79.4316 106.833 80.4525C104.235 80.3431 103.323 81.2181 103.005 81.7754C98.3491 82.2285 95.3543 84.4264 94.0939 88.2962L91.7085 87.6452L91.5262 87.9056C90.8491 88.8744 75.0262 111.593 81.396 117.02C87.3022 122.057 101.813 108.463 104.453 105.895C105.917 108.057 112.047 117.005 114.667 119.484C99.5002 134.286 99.6408 142.39 100.828 145.692H73.797V77.1035ZM145.24 140.01V145.692H135.063C138.349 144.104 142.693 141.874 145.24 140.01ZM63.0262 97.1296V145.692H44.0054L63.0262 97.1296Z" fill="black"/>
</g>
<mask id="mask1_5516_27864" style="mask-type:luminance" maskUnits="userSpaceOnUse" x="219" y="23" width="12" height="53">
<path d="M219.333 23.667H230.88V75.667H219.333V23.667Z" fill="white"/>
</mask>
<g mask="url(#mask1_5516_27864)">
<path d="M230.578 67.5993L230.203 67.4482C229.844 67.3024 226.714 66.0524 226.458 65.9743L226.391 65.9482H225.703V24.8857H224.786V65.9482H223.344L223.208 66.1305C219.641 70.9482 219.641 71.1201 219.641 71.3076C219.641 71.5889 219.641 71.6826 221.932 73.2816C222.958 73.9951 224.068 74.7451 224.182 74.8128C224.245 74.8493 224.292 74.8701 224.411 74.8701C224.667 74.8701 225.271 74.7451 227.109 74.3076C228.328 74.016 229.516 73.7191 229.516 73.7191L229.953 73.6097L229.479 71.6462L230.578 67.5993Z" fill="black"/>
</g>
<path d="M212.474 22.2236L212.635 21.7913L166.12 4.42676L151.213 44.3591L197.724 61.7288L212.474 22.2236Z" fill="black"/>
<path d="M211.49 94.9481C208.083 95.6147 204.958 97.8439 202.76 101.073C202.812 100.802 202.87 100.537 202.927 100.266C204.432 93.1199 205.99 85.7397 203.5 82.047C202.677 80.8231 201.443 80.0574 199.844 79.771C198.453 79.5262 197.031 80.1095 195.719 81.4741C193.286 83.9949 191.292 89.3126 191.448 96.146C190.979 94.2241 190.531 92.297 190.088 90.396C187.917 81.0522 186.198 73.672 183.588 72.6199C182.984 72.3751 182.37 72.4585 181.76 72.8595C178.161 75.2033 176.792 81.8335 178.208 89.6304C176.609 88.3543 173.87 86.9741 171.635 87.1147C170.323 87.1929 169.344 87.797 168.786 88.8699C167.37 91.6095 170.734 96.1043 174.005 99.3022C170.682 97.7189 168.219 97.3335 166.661 98.1824C165.5 98.8074 164.896 100.073 164.859 101.943C164.729 108.37 170.01 111.229 176.094 113.182C172.495 114.396 171.255 116.235 170.828 117.297C170.359 118.49 170.453 119.781 171.094 120.761C172.156 122.391 173.536 122.953 175.068 122.953C176.797 122.953 178.719 122.235 180.609 121.526C183.708 120.37 186.896 119.182 189.562 120.724L183.682 122.896L197.057 144.745L218.495 136.807L214.427 111.516L207.484 114.083C207.208 113.547 207.161 112.88 207.359 112.167C207.906 110.156 210.187 108.198 213.604 106.797C216.552 105.589 218.406 103.656 218.818 101.36C219.177 99.3751 218.401 97.3856 216.635 95.7554C215.625 94.8283 213.656 94.521 211.49 94.9481Z" fill="black"/>
<mask id="mask2_5516_27864" style="mask-type:luminance" maskUnits="userSpaceOnUse" x="102" y="0" width="46" height="37">
<path d="M102 0.604492H147.333V37.0003H102V0.604492Z" fill="white"/>
</mask>
<g mask="url(#mask2_5516_27864)">
<path d="M115.406 12.9795L117.255 16.8545L102.255 36.2451L121.188 27.2087C121.969 28.0003 123.016 28.4274 124.094 28.4274C124.688 28.4274 125.297 28.292 125.865 28.0212C127.448 27.266 128.36 25.5993 128.172 23.8753L147.099 14.8441L122.589 14.3128L120.74 10.4482L118.485 11.5264L113.276 0.604492L112.448 1.00033L117.656 11.9118L115.406 12.9795Z" fill="black"/>
</g>
<path d="M131.411 53.2396C131.411 53.2396 132.911 53.6823 134.458 54.1094C136.807 54.7656 137.568 54.9479 137.88 54.9479C138.026 54.9479 138.078 54.9115 138.146 54.8698C138.271 54.7865 139.693 53.6667 140.995 52.6094C143.828 50.2917 143.828 50.1458 143.828 49.8802C143.828 49.6927 143.828 49.4635 139.786 43.0573V29.4531H138.87V42.1354H135.37L135.286 42.1719C134.969 42.2969 130.719 44.276 130.536 44.3594L130.203 44.5156L131.573 50.3802L131.005 53.1198L131.411 53.2396Z" fill="black"/>
<path d="M24.0781 49.7396L34.401 25.6094L35.2448 25.9688L24.9219 50.099L24.0781 49.7396Z" fill="black"/>
<path d="M15.0415 53.4893L25.3592 29.3486L26.203 29.708L15.88 53.8486L15.0415 53.4893Z" fill="black"/>
<path d="M209.037 74.9683C206.344 72.385 203.391 71.0777 200.943 71.385L201.057 72.286C203.235 72.0152 205.912 73.2287 208.406 75.6246C211.36 78.4527 213.276 82.2287 213.063 84.8069L213.974 84.8798C214.208 82.0048 212.229 78.0204 209.037 74.9683Z" fill="black"/>
<path d="M109.625 18.693L110.021 17.8753C108.109 16.9482 98.5207 10.2712 96.6405 3.54199L95.7603 3.79199C97.729 10.8128 107.646 17.7451 109.625 18.693Z" fill="black"/>
<mask id="mask3_5516_27864" style="mask-type:luminance" maskUnits="userSpaceOnUse" x="222" y="66" width="9" height="9">
<path d="M222 66.333H230.88V74.333H222V66.333Z" fill="white"/>
</mask>
<g mask="url(#mask3_5516_27864)">
<path d="M225.239 66.4479V66.4062H226.312C226.562 66.4896 230.031 67.875 230.031 67.875L229.005 71.6458L229.401 73.2812C229.401 73.2812 228.219 73.5781 227.005 73.8646V73.8542C226.37 73.7865 225.791 73.4167 225.531 72.9271C225.474 72.8281 225.432 72.7187 225.349 72.6406C225 72.3333 224.26 72.6771 223.953 72.349C223.64 72.0156 224.182 71.5521 224.099 71.1302C224.01 70.6719 223.193 70.4323 223.286 69.9688C223.318 69.8177 223.453 69.6927 223.604 69.5938C224.198 69.2083 225.099 69.1354 225.469 68.5729C225.87 67.9479 225.312 67.1771 225.239 66.4479Z" fill="#87AAD2"/>
</g>
<path d="M225.24 66.4062V66.4479C225.312 67.1771 225.87 67.9479 225.458 68.5833C225.089 69.1458 224.188 69.224 223.594 69.6094C223.448 69.7083 223.307 69.8281 223.276 69.9844C223.182 70.4427 224 70.6875 224.089 71.1458C224.172 71.5677 223.63 72.0313 223.943 72.3594C224.255 72.6927 224.995 72.349 225.339 72.6562C225.427 72.7344 225.469 72.8385 225.521 72.9427C225.786 73.4323 226.365 73.8021 226.995 73.8698V73.8802C225.745 74.1771 224.469 74.4635 224.396 74.4271C224.25 74.3385 220.094 71.5313 220.094 71.3177C220.094 71.1094 223.562 66.4115 223.562 66.4115H225.24V66.4062Z" fill="#87AAD2"/>
<path d="M214.891 117.312L217.979 136.505L197.245 144.182L187.094 127.599L214.891 117.312Z" fill="#FF9F43"/>
<path d="M216.323 96.0885C219.891 99.3853 218.974 104.099 213.427 106.375C207.042 108.995 205.922 112.828 207.292 114.646L201.833 116.667C200.031 114.219 200.656 109.281 201.734 103.802C205.745 95.1614 214.104 94.0468 216.323 96.0885Z" fill="#4CAF50"/>
<path d="M199.219 117.63L201.833 116.667L207.286 114.646L214.062 112.141L214.89 117.312L187.094 127.599L184.354 123.13L190.552 120.839L194.021 119.557L196.458 118.651L199.219 117.63Z" fill="#FF9F43"/>
<path d="M212.047 22.0625L197.458 61.1458L151.802 44.099L166.391 5.01562L212.047 22.0625ZM194.662 55.0104L205.922 24.8594L169.188 11.1458L157.932 41.2969L194.662 55.0104Z" fill="#C41830"/>
<path d="M205.922 24.859L194.661 55.0101L157.932 41.2966L169.187 11.1455L205.922 24.859Z" fill="#FF9F43"/>
<path d="M199.76 80.2238C207.318 81.578 203.739 93.6197 201.734 103.802C200.656 109.281 200.031 114.219 201.833 116.667L199.224 117.63C196.516 114.489 194.448 108.948 192.713 102.818C189.812 89.4947 195.146 79.3905 199.76 80.2238Z" fill="#4CAF50"/>
<path d="M199.219 117.63L196.459 118.651C195.735 117.093 192.959 114.052 189.344 110.791L189.339 110.786C183.662 104.453 180.37 97.3643 178.948 91.0154C177.073 82.6143 178.49 75.531 182.005 73.2393C186.349 70.4112 188.594 88.2862 192.709 102.817C194.443 108.948 196.511 114.489 199.219 117.63Z" fill="#4CAF50"/>
<path d="M196.459 118.651L194.021 119.557C190.938 116.255 183.985 115.047 177.688 113.193C171.063 111.234 165.182 108.557 165.313 101.948C165.427 96.1197 171.287 97.8384 177.896 101.995C177.948 102.026 178 102.062 178.052 102.094C178.151 102.161 178.255 102.229 178.349 102.286C178.401 102.318 178.448 102.349 178.495 102.375C182.203 104.765 186.11 107.87 189.339 110.786L189.344 110.792C192.959 114.052 195.735 117.094 196.459 118.651Z" fill="#4CAF50"/>
<path d="M194.021 119.557L190.552 120.843C184.448 115.942 175.542 126.734 171.474 120.505C170.255 118.635 170.985 114.823 177.688 113.192C183.985 115.047 190.938 116.25 194.021 119.557Z" fill="#4CAF50"/>
<path d="M178.948 91.0152C180.365 97.3589 183.661 104.447 189.339 110.786C186.109 107.869 182.203 104.765 178.495 102.375C178.448 102.349 178.401 102.317 178.349 102.286C178.25 102.218 178.151 102.156 178.052 102.093C178 102.062 177.948 102.026 177.896 101.994C174.333 99.5621 167.422 92.4892 169.187 89.0725C171.057 85.4631 177.719 89.2027 178.948 91.0152Z" fill="#4CAF50"/>
<path d="M109.172 65.3857H165.307V69.4274H53.5781V65.3857H109.172Z" fill="#C41830"/>
<path d="M56.4062 69.4268H162.484V76.6455H56.4062V69.4268Z" fill="#C41830"/>
<path d="M145.693 76.6455H155.557V146.146H145.693V76.6455Z" fill="#C41830"/>
<path d="M145.167 15.2555L121.292 26.6514L103.792 35.0055L117.786 16.9066L117.849 17.0316L122.354 14.8857L122.297 14.7607L145.167 15.2555Z" fill="#4CAF50"/>
<path d="M139.323 43.1928C140.396 44.8855 143.37 49.6199 143.37 49.8803C143.37 50.1928 138.078 54.3647 137.891 54.4845C137.797 54.5522 136.167 54.1147 134.583 53.672L134.589 53.6668C135.391 53.5574 136.13 53.0209 136.469 52.2813C136.531 52.1355 136.589 51.9793 136.698 51.8647C137.141 51.4063 138.078 51.9168 138.479 51.422C138.875 50.9428 138.182 50.2397 138.287 49.6199C138.401 48.9376 139.443 48.5782 139.323 47.9011C139.281 47.6668 139.11 47.4845 138.922 47.3543C138.156 46.7813 137.021 46.6615 136.557 45.8334C136.021 44.8855 136.74 43.7397 136.828 42.6563V42.5938H138.953C138.948 42.5886 139.089 42.8178 139.323 43.1928Z" fill="#87AAD2"/>
<path d="M110.177 146.146H101.515C99.2029 141.39 102.005 132.364 115.333 119.468C117.823 121.448 130.125 123.583 137.344 112.583C140.51 115.739 139.87 121.869 133.036 131.63C133.271 131.489 140.771 127.109 145.693 125.677V139.078C142.76 141.515 135.635 144.922 133.031 146.135H110.177V146.146Z" fill="#87AAD2"/>
<path d="M136.828 42.6514C136.734 43.7347 136.016 44.8805 136.552 45.8285C137.016 46.6566 138.156 46.7764 138.917 47.3493C139.104 47.4847 139.276 47.667 139.318 47.8962C139.438 48.5732 138.396 48.9326 138.281 49.6149C138.177 50.2399 138.865 50.9378 138.474 51.417C138.073 51.9118 137.135 51.4066 136.693 51.8597C136.583 51.9743 136.526 52.1305 136.464 52.2764C136.125 53.016 135.391 53.5576 134.583 53.6618L134.578 53.667C133.036 53.2399 131.531 52.8024 131.531 52.8024L132.031 50.3753L130.719 44.7712C130.719 44.7712 135.141 42.7191 135.453 42.5889H136.823V42.6514H136.828Z" fill="#87AAD2"/>
<path d="M129.672 102.656C131.104 106.828 130.276 109.609 127.511 110.474C121.865 112.224 117.849 104.609 114.974 97.286C114.516 96.1246 114.094 94.984 113.698 93.8798C113.136 92.3329 112.62 90.8694 112.162 89.609C115.188 87.1194 117.302 86.8902 118.891 87.1975C124.797 93.3121 128.287 98.635 129.672 102.656Z" fill="#4CAF50"/>
<path d="M127.667 23.6094C127.984 25.2083 127.203 26.8698 125.661 27.6094C124.13 28.3438 122.333 27.9115 121.292 26.651L127.667 23.6094Z" fill="#FF9F43"/>
<path d="M122.297 14.7601L122.354 14.8851L117.849 17.0309L117.786 16.9059L116.016 13.1976L118.266 12.1247L120.521 11.0518L122.297 14.7601Z" fill="#4CAF50"/>
<path d="M121.781 63.1719L121.219 65.3802V65.3854H113V61.6823L116.109 60.1875L120.099 62.7865L121.781 63.1719Z" fill="#87AAD2"/>
<path d="M110.656 87.3801C110.156 86.1614 109.953 84.9739 109.443 84.4686C108.771 83.802 106.646 83.6666 105.094 83.4843C105.094 83.4843 105.094 83.4843 105.088 83.4843C104.703 83.4426 104.354 83.3905 104.073 83.3332C103.463 83.203 103.156 82.7186 103.307 82.2082C103.521 81.5103 104.594 80.7811 106.953 80.9061C108.604 79.8489 110.953 79.9218 111.786 80.453C115.031 79.3957 118.437 81.2186 118.885 87.1874C117.302 86.8853 115.182 87.1093 112.156 89.5989C111.422 88.9739 110.974 88.1718 110.656 87.3801Z" fill="#FF9F43"/>
<path d="M113.698 93.8799C114.094 94.984 114.515 96.1299 114.974 97.2861C114.458 100.198 109.521 102.234 108.01 98.5413C108.979 98.4528 109.864 98.2132 110.5 97.9268C113.021 96.7809 113.693 93.8799 113.698 93.8799Z" fill="#FF9F43"/>
<path d="M112.161 89.6045C112.62 90.8701 113.135 92.3285 113.698 93.8753H113.693C113.693 93.8753 113.021 96.7764 110.495 97.9222C109.859 98.2139 108.974 98.4482 108.005 98.5368C106.208 98.7087 104.114 98.3857 102.786 97.016C101.51 95.693 101.406 93.9795 101.213 92.5368C101.193 92.3649 101.167 92.193 101.14 92.0316C101.031 91.3649 100.859 90.7712 100.495 90.3389V90.3337C101.807 89.8753 103.094 89.1462 103.396 88.8545C102.031 91.5732 105.359 90.4378 106.495 89.2347C106.495 91.4899 109.995 88.9951 110.656 87.3857C110.974 88.1722 111.422 88.9743 112.161 89.6045Z" fill="#FF9F43"/>
<path d="M109.448 84.4691C109.953 84.9691 110.156 86.1618 110.656 87.3805C109.995 88.9899 106.495 91.4847 106.495 89.2295C105.359 90.4378 102.036 91.568 103.396 88.8493C103.094 89.1462 101.807 89.8753 100.495 90.3285C99.828 90.5732 99.1405 90.7399 98.5884 90.7399C98.8905 87.391 101.427 84.3337 102.015 83.9274C103.271 84.2972 104.422 84.1097 105.094 83.4795C105.099 83.4795 105.099 83.4795 105.099 83.4795C106.651 83.667 108.771 83.8024 109.448 84.4691Z" fill="black"/>
<path d="M106.385 59.276C107.51 60.1094 108.458 60.8594 108.458 61.0052C108.458 61.3229 109.026 64.5729 109.172 65.3802H88.9062C88.9062 65.3802 89.1563 61.2448 89.526 61C89.901 60.75 94.1927 57.7604 94.1927 57.7604C94.1927 57.7604 98.1198 58.7604 98.3646 58.6354C98.6146 58.5104 102.719 56.6406 102.719 56.6406C102.719 56.6406 104.745 58.0521 106.385 59.276Z" fill="#87AAD2"/>
<path d="M94.396 88.8493C95.3804 85.3701 97.9064 82.6514 103.271 82.1982L103.307 82.2087C103.156 82.7139 103.464 83.2035 104.073 83.3337C104.354 83.391 104.703 83.443 105.089 83.4847C104.422 84.1097 103.266 84.2972 102.011 83.9274C101.427 84.3389 98.8804 87.391 98.5835 90.7451C99.1356 90.7451 99.8231 90.5785 100.495 90.3337V90.3389C100.86 90.7764 101.026 91.3649 101.136 92.0316C101.141 92.0316 97.3022 93.1305 94.396 88.8493Z" fill="#FF9F43"/>
<path d="M96.2083 100.203C97.8645 98.2656 100.651 97.0156 102.786 97.0156C104.115 98.3906 106.208 98.7083 108.005 98.5365C109.516 102.229 114.453 100.193 114.969 97.2812C117.849 104.604 121.865 112.219 127.505 110.469C130.271 109.609 131.104 106.828 129.667 102.651L130 102.531L138.016 111.495C137.797 111.87 137.568 112.229 137.344 112.578C130.125 123.573 117.823 121.438 115.333 119.464C112.766 117.422 104.526 105.177 104.526 105.177C104.526 105.177 87.8177 121.891 81.6927 116.672C75.5677 111.458 91.901 88.1719 91.901 88.1719L94.3958 88.849C97.302 93.125 101.141 92.0312 101.141 92.0312C101.167 92.1979 101.193 92.3698 101.214 92.5365C99.625 94.3802 97.8177 97.2813 96.2083 100.203Z" fill="#4CAF50"/>
<path d="M82.8853 31.9215L73.703 55.3695L41.0103 42.5622L50.1873 19.1143L82.8853 31.9215ZM65.9998 40.8018L67.3488 37.3747L57.8957 33.6768L56.5519 37.1038L65.9998 40.8018Z" fill="#FF9F43"/>
<path d="M63.4844 76.6455H73.3438V146.146H63.4844V76.6455Z" fill="#C41830"/>
<path d="M56.5522 37.1038L57.896 33.6768L67.3439 37.3747L66.0002 40.807L56.5522 37.1038Z" fill="#C41830"/>
<mask id="mask4_5516_27864" style="mask-type:luminance" maskUnits="userSpaceOnUse" x="0" y="11" width="90" height="136">
<path d="M0.880371 11.667H90.0002V146.334H0.880371V11.667Z" fill="white"/>
</mask>
<g mask="url(#mask4_5516_27864)">
<path d="M63.4845 81.4691V94.7087L43.3335 146.146H41.995L1.47412 130.276L47.8179 11.9482L89.5054 28.2712L74.9689 65.3857H69.7866L71.8022 60.2451L39.1095 47.4378L29.9168 70.8805L62.6095 83.6878L63.4845 81.4691ZM73.7033 55.3701L82.8856 31.9222L50.1877 19.1149L41.0106 42.5628L73.7033 55.3701ZM51.5262 112.006L60.7085 88.5576L28.0158 75.7503L18.8283 99.1982L51.5262 112.006ZM40.5314 140.084L49.7085 116.636L17.0106 103.828L7.8335 127.276L40.5314 140.084Z" fill="#FF9F43"/>
</g>
<path d="M60.7083 88.5622L51.526 112.01L18.8281 99.2028L28.0156 75.7549L60.7083 88.5622ZM43.8177 97.4424L45.1615 94.0153L35.7188 90.3174L34.3698 93.7445L43.8177 97.4424Z" fill="#FF9F43"/>
<path d="M46.8071 61.9951L55.453 65.3857H53.578V68.5993L45.4634 65.4274L46.8071 61.9951Z" fill="#C41830"/>
<path d="M53.578 68.599V69.4271H56.4061V76.6458H63.4842V81.4688L62.6144 83.6875L29.9165 70.8802L39.0988 47.4375L71.7967 60.2396L69.7811 65.3854H55.453L46.8071 61.9948L45.4634 65.4271L53.578 68.599Z" fill="#FF9F43"/>
<path d="M49.7082 116.635L40.5311 140.083L7.83838 127.276L17.0155 103.828L49.7082 116.635ZM32.729 125.76L34.0728 122.333L24.6248 118.63L23.2759 122.057L32.729 125.76Z" fill="#FF9F43"/>
<path d="M45.1561 94.0153L43.8175 97.4424L34.3696 93.7445L35.7186 90.3174L45.1561 94.0153Z" fill="#C41830"/>
<path d="M23.2759 122.068L24.6196 118.636L34.0675 122.339L32.7238 125.771L23.2759 122.068Z" fill="#C41830"/>
<path d="M145.24 76.8545H146.151V146.146H145.24V76.8545Z" fill="black"/>
<path d="M155.094 76.8545H156.01V146.146H155.094V76.8545Z" fill="black"/>
<path d="M63.0259 76.8545H63.9373V81.4691H63.0259V76.8545Z" fill="black"/>
<path d="M72.8804 76.8545H73.797V146.146H72.8804V76.8545Z" fill="black"/>
<path d="M63.0259 94.708H63.9373V146.146H63.0259V94.708Z" fill="black"/>
<mask id="mask5_5516_27864" style="mask-type:luminance" maskUnits="userSpaceOnUse" x="11" y="145" width="214" height="3">
<path d="M11.3335 145H224.667V147.604H11.3335V145Z" fill="white"/>
</mask>
<g mask="url(#mask5_5516_27864)">
<path d="M12.3389 145.692H224.578V146.604H12.3389V145.692Z" fill="black"/>
</g>
<mask id="mask6_5516_27864" style="mask-type:luminance" maskUnits="userSpaceOnUse" x="0" y="10" width="92" height="138">
<path d="M0.880371 10.333H91.3335V147.604H0.880371V10.333Z" fill="white"/>
</mask>
<g mask="url(#mask6_5516_27864)">
<path d="M43.4168 147.187L41.8387 146.572L0.880371 130.536L1.04704 130.109L47.5575 11.3535L90.0939 28.0098L75.3908 65.5462L74.5366 65.2129L88.9064 28.5254L48.0731 12.541L2.06787 130.015L42.896 146.01L42.9116 145.979L63.0262 94.6191V81.4681H63.9377V94.791L43.4168 147.187Z" fill="black"/>
</g>
<path d="M73.9686 55.9632L40.4165 42.8174L49.9321 18.5205L83.479 31.6611L73.9686 55.9632ZM41.604 42.2966L73.4478 54.7757L82.2915 32.182L50.4478 19.708L41.604 42.2966Z" fill="black"/>
<path d="M162.943 77.1038H65.3696V76.1872H162.026V69.4268H162.943V77.1038Z" fill="black"/>
<path d="M165.766 69.8854H56.4062V68.974H164.849V65.8385H69.7812V64.9219H165.766V69.8854Z" fill="black"/>
<path d="M62.8696 84.2812L29.3228 71.1354L38.8436 46.8438L72.3853 59.9792L70.0936 65.8385H55.453V64.9219H69.4686L71.203 60.5L39.354 48.026L30.505 70.6146L62.354 83.0938L63.0571 81.3021L63.9061 81.6354L62.8696 84.2812Z" fill="black"/>
<path d="M65.3698 77.1038H55.9479V69.8851H53.125V68.5986H54.0365V68.9736H56.8646V76.1872H65.3698V77.1038Z" fill="black"/>
<path d="M51.7812 112.593L18.2344 99.458L27.75 75.1611L61.3021 88.2965L51.7812 112.593ZM19.4167 98.9424L51.2656 111.411L60.1094 88.8174L28.2656 76.3486L19.4167 98.9424Z" fill="black"/>
<path d="M40.7866 140.672L7.23975 127.531L16.7554 103.239L50.3022 116.375L40.7866 140.672ZM8.42204 127.01L40.271 139.484L49.12 116.89L17.271 104.422L8.42204 127.01Z" fill="black"/>
<path d="M66.2606 41.3958L55.9585 37.3594L57.6356 33.0781L67.9325 37.1146L66.2606 41.3958ZM57.146 36.8438L65.7397 40.2083L66.7502 37.6302L58.1564 34.2708L57.146 36.8438Z" fill="black"/>
<path d="M54.0363 69.2712L44.8696 65.6826L46.5467 61.4014L57.8748 65.8389H54.0363V69.2712ZM46.0519 65.1618L53.1248 67.9274V64.9587L47.0623 62.5837L46.0519 65.1618Z" fill="black"/>
<path d="M44.0728 98.0365L33.7759 94L35.453 89.7188L45.7498 93.75L44.0728 98.0365ZM34.9634 93.4844L43.5519 96.8542L44.5675 94.2708L35.9738 90.9063L34.9634 93.4844Z" fill="black"/>
<path d="M32.9842 126.354L22.6821 122.317L24.3592 118.036L34.6613 122.073L32.9842 126.354ZM23.8696 121.802L32.4634 125.172L33.4738 122.593L24.88 119.224L23.8696 121.802Z" fill="black"/>
<mask id="mask7_5516_27864" style="mask-type:luminance" maskUnits="userSpaceOnUse" x="219" y="65" width="12" height="11">
<path d="M219.333 65H230.88V75.6667H219.333V65Z" fill="white"/>
</mask>
<g mask="url(#mask7_5516_27864)">
<path d="M224.407 74.875C224.287 74.875 224.24 74.849 224.177 74.8125C224.068 74.75 222.953 74 221.927 73.2865C219.636 71.6823 219.636 71.5885 219.636 71.3125C219.636 71.1302 219.636 70.9531 223.203 66.1354L223.339 65.9531H226.386L226.453 65.974C226.709 66.0573 229.844 67.3073 230.198 67.4531L230.573 67.6042L229.474 71.6562L229.948 73.6146L229.511 73.724C229.511 73.724 228.328 74.026 227.11 74.3125C225.266 74.75 224.662 74.875 224.407 74.875ZM220.662 71.2292C221.417 71.8385 223.912 73.5469 224.521 73.9479C224.74 73.9115 225.328 73.7917 226.896 73.4167C227.651 73.2396 228.391 73.0573 228.849 72.9479L228.537 71.6354L229.485 68.1458C228.224 67.6406 226.599 66.9948 226.235 66.8646H223.802C222.5 68.6198 221.11 70.5417 220.662 71.2292Z" fill="black"/>
</g>
<path d="M226.953 74.3076C226.162 74.2295 225.464 73.7764 225.12 73.141L225.083 73.068C225.068 73.0368 225.042 72.9899 225.037 72.9795C224.99 72.9482 224.781 72.9587 224.656 72.9587C224.344 72.9691 223.912 72.9795 223.609 72.6618C223.229 72.2555 223.438 71.7712 223.547 71.5055C223.583 71.417 223.646 71.266 223.641 71.2191C223.625 71.1566 223.469 71.0264 223.375 70.9482C223.12 70.7243 222.729 70.3962 222.828 69.8805C222.886 69.6253 223.052 69.4066 223.344 69.2191C223.615 69.0472 223.912 68.9326 224.198 68.8232C224.578 68.6826 224.927 68.5472 225.078 68.3285C225.224 68.0993 225.141 67.8024 224.99 67.3285C224.901 67.0628 224.813 66.7868 224.787 66.4899L225.698 66.4014C225.714 66.5993 225.787 66.818 225.859 67.0472C226.031 67.5732 226.24 68.2243 225.844 68.8285C225.537 69.3024 225 69.5055 224.526 69.6826C224.271 69.7816 224.031 69.8701 223.844 69.9847C223.802 70.016 223.776 70.0368 223.761 70.0524C223.807 70.1097 223.912 70.193 223.974 70.2503C224.198 70.443 224.479 70.6774 224.547 71.042C224.609 71.3597 224.495 71.641 224.396 71.8597C224.375 71.9118 224.344 71.9847 224.328 72.042C224.406 72.0524 224.547 72.0472 224.641 72.0472C224.953 72.0368 225.349 72.0264 225.651 72.2972C225.781 72.417 225.854 72.5576 225.901 72.6514L225.932 72.7087C226.125 73.068 226.578 73.3441 227.057 73.4014L226.953 74.3076Z" fill="black"/>
<path d="M108.755 65.6618C108.755 65.6618 108.745 65.5837 108.719 65.4587C108.177 62.3649 108.047 61.4587 108.01 61.1618C107.891 61.0368 107.484 60.667 106.115 59.6462C104.807 58.667 103.24 57.5628 102.677 57.167C101.406 57.7451 98.7604 58.9535 98.5781 59.042C98.4115 59.1253 98.1875 59.2399 94.2917 58.2607C93.5156 58.8024 90.4219 60.9482 89.8542 61.3389C89.6771 61.766 89.4687 63.7451 89.3646 65.4118L88.4531 65.3545C88.7135 60.9951 89.0937 60.7451 89.276 60.6253C89.6354 60.3805 93.8906 57.4222 93.9375 57.391L94.1042 57.2712L94.3073 57.3232C95.9531 57.7399 97.8229 58.167 98.2448 58.1878C98.8646 57.8962 102.38 56.3024 102.536 56.2295L102.776 56.1201L102.99 56.2712C103.01 56.2816 105.036 57.6982 106.661 58.917C108.917 60.5941 108.917 60.7555 108.917 61.016C108.922 61.0941 108.979 61.6462 109.625 65.3128C109.641 65.4118 109.651 65.4691 109.651 65.4691L108.755 65.6618ZM89.7917 61.3753C89.7865 61.3753 89.7865 61.3805 89.7812 61.3805C89.7865 61.3753 89.7865 61.3753 89.7917 61.3753Z" fill="black"/>
<path d="M121.661 65.4899L120.776 65.266L121.224 63.516L119.922 63.2139L116.078 60.7139L113.458 61.9639V65.3805H112.542V61.391L116.151 59.667L120.281 62.3597L122.344 62.8337L121.661 65.4899Z" fill="black"/>
<path d="M197.724 61.7288L151.208 44.3591L166.12 4.42676L212.636 21.7913L212.474 22.2184L197.724 61.7288ZM152.391 43.8226L197.193 60.5518L211.458 22.3278L166.656 5.60384L152.391 43.8226Z" fill="black"/>
<path d="M194.932 55.5986L157.344 41.5622L168.917 10.5518L206.505 24.5882L206.349 25.0153L194.932 55.5986ZM158.521 41.0257L194.391 54.4163L205.333 25.1195L169.453 11.7288L158.521 41.0257Z" fill="black"/>
<path d="M197.052 144.744L183.677 122.896L214.422 111.521L218.49 136.812L197.052 144.744ZM185.037 123.364L197.438 143.625L217.464 136.208L213.693 112.76L185.037 123.364Z" fill="black"/>
<path d="M187.255 128.026L186.938 127.172L214.781 116.875L215.021 117.755L187.255 128.026Z" fill="black"/>
<path d="M196.047 118.844C195.36 117.365 192.672 114.407 189.037 111.125L189.646 110.448C193.422 113.854 196.125 116.849 196.875 118.453L196.047 118.844Z" fill="black"/>
<path d="M189.031 111.119C185.495 107.927 181.661 104.958 178.245 102.755L178.739 101.989C182.203 104.218 186.073 107.218 189.646 110.448L189.031 111.119Z" fill="black"/>
<path d="M178.094 102.661C178 102.599 177.917 102.547 177.823 102.49L178.286 101.703C178.396 101.766 178.5 101.839 178.609 101.911L178.094 102.661Z" fill="black"/>
<path d="M193.687 119.87C191.338 117.349 186.594 116.084 181.567 114.74C180.25 114.386 178.88 114.026 177.557 113.636C170.875 111.662 164.713 108.88 164.854 101.943C164.89 100.073 165.495 98.8075 166.656 98.1825C168.802 97.0159 172.661 98.1773 178.135 101.61L177.646 102.386C172.62 99.2294 168.87 98.0211 167.088 98.9846C166.234 99.443 165.791 100.443 165.765 101.959C165.646 107.933 170.489 110.599 177.807 112.755C179.12 113.141 180.479 113.505 181.797 113.86C186.953 115.24 191.823 116.537 194.349 119.25L193.687 119.87Z" fill="black"/>
<path d="M198.87 117.928C196.474 115.152 194.38 110.386 192.271 102.943C191.13 98.9119 190.146 94.688 189.198 90.6046C187.25 82.24 185.412 74.3442 183.245 73.4692C183.047 73.3911 182.724 73.3182 182.25 73.6255C178.797 75.8755 177.625 82.9848 179.396 90.9171C180.49 95.8338 183.167 103.214 189.682 110.485L189.365 110.766L189.037 111.131L189 111.094C182.36 103.678 179.625 96.1411 178.505 91.1203C176.625 82.6932 177.927 75.3598 181.75 72.865C182.365 72.464 182.979 72.3859 183.578 72.6255C186.188 73.6775 187.906 81.0525 190.078 90.4015C191.026 94.4796 192.011 98.688 193.146 102.698C195.214 110.011 197.255 114.662 199.563 117.339L199.672 117.464V117.636H199.214L198.87 117.928Z" fill="black"/>
<path d="M201.464 116.937C199.641 114.463 200.073 109.864 201.287 103.713C201.521 102.521 201.776 101.302 202.031 100.078C203.5 93.1196 205.011 85.9269 202.735 82.5571C202.047 81.531 201.047 80.9164 199.677 80.6664C198.599 80.4737 197.464 80.9685 196.37 82.0987C193.344 85.2394 191.047 93.0258 193.151 102.719L192.255 102.911C190.078 92.8904 192.521 84.7706 195.709 81.4633C197.016 80.1039 198.443 79.5154 199.834 79.7602C201.438 80.0466 202.667 80.8123 203.49 82.0362C205.979 85.7289 204.427 93.1196 202.922 100.255C202.662 101.479 202.406 102.692 202.172 103.88C201.167 108.995 200.469 114.047 202.188 116.385L201.464 116.937Z" fill="black"/>
<path d="M206.927 114.922C206.323 114.114 206.156 113.052 206.469 111.927C206.839 110.583 208.214 108.021 213.25 105.953C215.901 104.864 217.563 103.177 217.917 101.198C218.214 99.5363 217.537 97.8383 216.011 96.4321C215.229 95.7081 213.521 95.4738 211.667 95.8436C207.714 96.6248 204.156 99.6717 202.146 104L201.318 103.614C203.448 99.0258 207.25 95.7863 211.49 94.9477C213.656 94.5206 215.625 94.8331 216.63 95.7654C218.396 97.3956 219.172 99.3852 218.813 101.37C218.401 103.666 216.552 105.599 213.599 106.807C210.182 108.208 207.906 110.166 207.354 112.172C207.12 113.021 207.229 113.802 207.656 114.38L206.927 114.922Z" fill="black"/>
<path d="M178.26 102.766C178.208 102.739 178.156 102.703 178.104 102.667C178.005 102.609 177.901 102.542 177.797 102.469L177.651 102.38C174.307 100.094 166.781 92.7343 168.781 88.8645C169.333 87.7916 170.318 87.1874 171.63 87.1093C174.573 86.927 178.385 89.3697 179.328 90.7551L178.573 91.2707C177.776 90.0988 174.245 87.8749 171.687 88.0207C170.687 88.0832 170.005 88.4947 169.594 89.2863C168.083 92.2134 174.364 99.0311 178.151 101.614L178.297 101.708C178.401 101.781 178.5 101.844 178.588 101.896C178.641 101.927 178.682 101.953 178.724 101.979L178.26 102.766Z" fill="black"/>
<path d="M175.062 122.953C173.531 122.953 172.156 122.385 171.088 120.755C170.453 119.776 170.354 118.479 170.828 117.292C171.302 116.094 172.812 113.911 177.578 112.75L177.797 113.635C173.432 114.698 172.088 116.594 171.677 117.625C171.312 118.547 171.375 119.526 171.849 120.255C173.724 123.12 176.76 121.979 180.286 120.661C183.729 119.37 187.635 117.911 190.838 120.479L190.265 121.193C187.469 118.948 183.979 120.255 180.604 121.516C178.719 122.229 176.791 122.953 175.062 122.953Z" fill="black"/>
<path d="M99.9998 92.6149C99.6405 92.6149 99.2238 92.5837 98.7707 92.4951C97.479 92.2451 95.6092 91.4482 94.0207 89.1097L93.9009 88.9378L93.9582 88.7295C95.1509 84.516 98.2707 82.167 103.239 81.7451L103.318 82.6566C98.854 83.0316 96.0207 85.0941 94.9009 88.7712C97.5571 92.5055 100.88 91.6357 101.021 91.5941L101.271 92.4743C101.234 92.4795 100.75 92.6149 99.9998 92.6149Z" fill="black"/>
<path d="M122.031 121.526C118.719 121.526 116.088 120.651 115.057 119.828C112.719 117.969 106 108.167 104.458 105.891C101.812 108.458 87.302 122.052 81.4009 117.016C75.0312 111.594 90.8541 88.8698 91.5312 87.901L91.7134 87.6406L94.5207 88.4062L94.2812 89.2917L92.0989 88.6927C91.2707 89.901 87.7812 95.0729 84.9114 100.677C80.677 108.932 79.6718 114.344 81.9947 116.323C87.7291 121.208 104.047 105.021 104.208 104.854L104.599 104.458L104.906 104.922C104.989 105.042 113.141 117.135 115.625 119.104C116.792 120.031 120.542 121.078 124.891 120.38C128.354 119.823 133.26 117.974 136.969 112.328C137.135 112.083 137.297 111.818 137.458 111.552L129.661 102.839L130.344 102.229L138.583 111.438L138.417 111.729C138.193 112.109 137.958 112.479 137.729 112.828C133.838 118.755 128.682 120.693 125.031 121.276C123.989 121.453 122.979 121.526 122.031 121.526Z" fill="black"/>
<path d="M125.891 111.188C120.604 111.188 116.927 103.511 114.547 97.4535C114.146 96.4327 113.729 95.3129 113.266 94.0368C112.99 93.2764 112.724 92.542 112.474 91.8389C112.214 91.1045 111.964 90.4066 111.724 89.7608L111.615 89.4587L111.865 89.2504C114.464 87.1097 116.719 86.3077 118.964 86.7399L119.11 86.7712L119.208 86.8754C124.807 92.6827 128.573 98.0889 130.094 102.506C130.985 105.084 131.042 107.25 130.276 108.771C129.745 109.813 128.86 110.532 127.641 110.912C127.042 111.094 126.458 111.188 125.891 111.188ZM112.698 89.7556C112.901 90.3181 113.115 90.9118 113.339 91.5316C113.589 92.2295 113.854 92.9639 114.125 93.7243C114.583 94.9899 114.995 96.1045 115.396 97.1202C117.901 103.48 121.86 111.745 127.37 110.037C128.349 109.735 129.052 109.167 129.464 108.355C130.12 107.063 130.042 105.146 129.235 102.808C128.214 99.8285 125.542 94.7816 118.656 87.6202C117.453 87.4118 115.563 87.4795 112.698 89.7556Z" fill="black"/>
<path d="M107.13 99.042C105.198 99.042 103.526 98.4378 102.453 97.3285C101.193 96.0264 100.995 94.4222 100.807 93.0055L100.755 92.5993C100.734 92.417 100.708 92.2607 100.688 92.1097C100.573 91.3962 100.401 90.9378 100.141 90.6305L100.844 90.042C101.318 90.6097 101.49 91.3649 101.583 91.9587C101.615 92.1305 101.641 92.3076 101.661 92.4951L101.714 92.8962C101.885 94.2347 102.062 95.6149 103.104 96.7035C104.583 98.2243 106.99 98.1826 107.953 98.0889C108.812 98.0055 109.667 97.7972 110.302 97.5107C112.578 96.4691 113.229 93.8024 113.24 93.7764L114.13 93.9795C114.104 94.1097 113.38 97.1149 110.682 98.3389C109.948 98.6722 109.016 98.9066 108.047 99.0003C107.74 99.0264 107.427 99.042 107.13 99.042Z" fill="black"/>
<path d="M98.5835 91.1982H98.0835L98.1304 90.7035C98.4377 87.2399 100.99 84.0837 101.755 83.5524L101.932 83.4274L102.146 83.4951C103.214 83.8076 104.219 83.6774 104.781 83.1514L105.406 83.8232C104.646 84.5368 103.432 84.7555 102.13 84.4326C101.495 85.0524 99.5679 87.4639 99.1147 90.2399C99.4793 90.1774 99.8908 90.068 100.339 89.9014C101.625 89.4535 102.839 88.7555 103.073 88.5264L105.037 86.5941L103.802 89.0576C103.453 89.7503 103.526 90.0003 103.563 90.0264C103.88 90.2451 105.401 89.7295 106.162 88.917L106.953 88.0785V89.2295C106.953 89.6357 107.078 89.6566 107.12 89.667C107.781 89.8024 109.761 88.3493 110.235 87.2035C110.261 87.1514 110.276 87.1045 110.292 87.0576L111.167 87.3232C111.141 87.3962 111.115 87.4795 111.078 87.5576C110.552 88.8232 108.261 90.8232 106.943 90.5628C106.766 90.5264 106.438 90.417 106.229 90.0576C105.245 90.766 103.776 91.2868 103.037 90.7764C102.813 90.6201 102.61 90.3545 102.62 89.891C102.047 90.1982 101.333 90.5264 100.651 90.766C100.104 90.9587 99.297 91.1982 98.5835 91.1982Z" fill="black"/>
<path d="M111.864 89.9532C111.172 89.3595 110.656 88.599 110.229 87.5522C110.052 87.1095 109.906 86.6668 109.781 86.2813C109.573 85.6407 109.375 85.0418 109.125 84.7918C108.661 84.3282 106.958 84.1511 105.724 84.0157C105.5 83.9949 105.281 83.9688 105.067 83.9428H105.052C104.625 83.8959 104.271 83.849 103.984 83.7865C103.547 83.6928 103.198 83.4584 102.995 83.1199C102.812 82.8126 102.765 82.448 102.875 82.0886C103.005 81.6668 103.656 80.323 106.838 80.4584C108.547 79.4376 110.802 79.4845 111.833 79.974C113.442 79.5053 115.021 79.7136 116.291 80.5626C117.515 81.3855 119.041 83.198 119.344 87.1615L118.437 87.2345C118.219 84.3803 117.302 82.3334 115.786 81.3178C114.703 80.5938 113.333 80.4428 111.932 80.9011L111.724 80.9688L111.541 80.849C110.901 80.4428 108.765 80.3074 107.198 81.3074L107.073 81.3855L106.927 81.3751C104.687 81.2501 103.875 81.9324 103.75 82.349C103.719 82.4584 103.724 82.5626 103.781 82.6511C103.849 82.7657 103.989 82.8543 104.172 82.8907C104.422 82.9428 104.739 82.9949 105.125 83.0313L105.156 83.0365C105.37 83.0626 105.594 83.0886 105.823 83.1095C107.422 83.2813 109.078 83.4584 109.765 84.1511C110.177 84.5522 110.396 85.224 110.651 86.0001C110.776 86.3959 110.911 86.8022 111.083 87.2136C111.448 88.1251 111.885 88.7709 112.458 89.2657L111.864 89.9532Z" fill="black"/>
<path d="M92.2603 109.631L91.3853 109.354C91.8853 107.797 93.5988 103.985 95.8071 99.9795C97.1144 97.6097 99.0571 94.3441 100.864 92.2451L101.213 92.5368L101.536 92.8597L101.531 92.8649C99.7967 94.8805 97.8905 98.0889 96.5988 100.422C94.4269 104.375 92.7446 108.115 92.2603 109.631Z" fill="black"/>
<path d="M96.5573 100.5L95.8594 99.9014C97.526 97.9639 100.438 96.5576 102.786 96.5576V97.4743C100.682 97.4743 98.0573 98.7451 96.5573 100.5Z" fill="black"/>
<path d="M110.812 100.989C109.344 100.989 108.182 100.177 107.583 98.7132L107.547 98.6299V98.5361H108.01L108.432 98.3695C109.109 100.021 110.438 100.135 111.167 100.057C112.771 99.8903 114.276 98.609 114.526 97.208L115.427 97.3643C115.104 99.1715 113.281 100.755 111.271 100.968C111.109 100.984 110.964 100.989 110.812 100.989Z" fill="black"/>
<mask id="mask8_5516_27864" style="mask-type:luminance" maskUnits="userSpaceOnUse" x="99" y="118" width="18" height="30">
<path d="M99.3335 118.333H116.667V147.604H99.3335V118.333Z" fill="white"/>
</mask>
<g mask="url(#mask8_5516_27864)">
<path d="M101.109 146.349C99.7396 143.542 98.3489 135.26 115.021 119.141L115.651 119.797C104.385 130.698 99.2552 140.474 101.927 145.948L101.109 146.349Z" fill="black"/>
</g>
<path d="M127.234 139.74L126.542 139.141C128.901 136.407 130.958 133.792 132.656 131.37L133.401 131.896C131.693 134.344 129.62 136.979 127.234 139.74Z" fill="black"/>
<path d="M133.412 131.896L132.662 131.37C138.818 122.584 140.328 116.198 137.026 112.907L137.677 112.261C140.219 114.802 141.547 120.271 133.412 131.896Z" fill="black"/>
<mask id="mask9_5516_27864" style="mask-type:luminance" maskUnits="userSpaceOnUse" x="132" y="138" width="14" height="10">
<path d="M132.667 138.333H146V147.604H132.667V138.333Z" fill="white"/>
</mask>
<g mask="url(#mask9_5516_27864)">
<path d="M133.224 146.557L132.838 145.734C136.37 144.083 142.703 140.984 145.401 138.729L145.984 139.432C143.208 141.749 136.797 144.89 133.224 146.557Z" fill="black"/>
</g>
<path d="M133.271 132.026L133.047 131.641L132.708 131.313L132.807 131.24C132.886 131.193 140.505 126.714 145.568 125.245L145.828 126.12C140.948 127.537 133.344 131.985 133.271 132.026Z" fill="black"/>
<path d="M109.729 146.239C108.318 139.682 117.182 128.25 120.38 125.661L120.953 126.375C117.375 129.276 109.375 140.271 110.62 146.052L109.729 146.239Z" fill="black"/>
<path d="M117.375 17.1042L115.406 12.9792L120.734 10.4375L122.703 14.5625L121.88 14.9531L120.307 11.6562L116.62 13.4115L118.198 16.7083L117.375 17.1042Z" fill="black"/>
<path d="M102.25 36.2445L117.875 16.0465L118.057 16.4268L121.75 14.6663L121.568 14.2861L147.094 14.8382L102.25 36.2445ZM117.896 17.5153L105.323 33.7601L143.229 15.6663L122.703 15.2236L117.896 17.5153Z" fill="black"/>
<path d="M124.088 28.4274C122.896 28.4274 121.734 27.9066 120.937 26.9482L120.557 26.4951L127.995 22.9482L128.109 23.5264C128.474 25.3701 127.547 27.2243 125.854 28.0264C125.292 28.292 124.682 28.4274 124.088 28.4274ZM122.068 26.7868C123.005 27.5576 124.328 27.7347 125.463 27.193C126.594 26.6566 127.286 25.5212 127.276 24.3024L122.068 26.7868Z" fill="black"/>
<mask id="mask10_5516_27864" style="mask-type:luminance" maskUnits="userSpaceOnUse" x="111" y="0" width="9" height="13">
<path d="M111.333 0.604492H119.333V13.0003H111.333V0.604492Z" fill="white"/>
</mask>
<g mask="url(#mask10_5516_27864)">
<path d="M112.453 0.995443L113.276 0.599609L118.682 11.9225L117.854 12.3184L112.453 0.995443Z" fill="black"/>
</g>
<path d="M224.776 66.4482V24.8857H225.693V66.4066L224.776 66.4482Z" fill="black"/>
<path d="M137.88 54.9482C137.568 54.9482 136.807 54.766 134.458 54.1097C132.911 53.6774 131.411 53.2399 131.411 53.2399L131.005 53.1201L131.573 50.3805L130.203 44.516L130.536 44.3597C130.714 44.2764 134.969 42.2972 135.286 42.1722L135.37 42.1357H139.203L139.333 42.3493C139.333 42.3493 139.479 42.5785 139.714 42.943C143.823 49.4587 143.823 49.693 143.823 49.8805C143.823 50.1462 143.823 50.292 140.99 52.6097C139.693 53.667 138.266 54.792 138.141 54.8701C138.078 54.9118 138.021 54.9482 137.88 54.9482ZM132.073 52.4795C132.62 52.641 133.651 52.9326 134.703 53.2295C136.786 53.8128 137.5 53.9743 137.75 54.016C138.516 53.4326 142.089 50.5785 142.839 49.8128C142.464 49.0993 140.964 46.6462 138.932 43.4274C138.833 43.2712 138.75 43.1462 138.693 43.042H135.547C135.036 43.2712 132.552 44.4222 131.255 45.0212L132.5 50.3597L132.073 52.4795Z" fill="black"/>
<path d="M134.646 54.1143L134.526 53.208C135.177 53.1195 135.776 52.6872 136.047 52.0882L136.068 52.0309C136.13 51.8799 136.208 51.7028 136.359 51.5465C136.713 51.1768 137.198 51.1924 137.583 51.2028C137.802 51.208 138.052 51.2132 138.114 51.1351C138.177 51.0622 138.083 50.8226 138.005 50.609C137.89 50.2965 137.765 49.9372 137.828 49.5465C137.906 49.0882 138.234 48.7601 138.495 48.4997C138.729 48.2653 138.885 48.1038 138.859 47.9788C138.849 47.9059 138.771 47.8122 138.646 47.7184C138.39 47.5309 138.083 47.3955 137.76 47.2497C137.177 46.9945 136.515 46.7028 136.151 46.0518C135.703 45.2601 135.937 44.4007 136.151 43.6403C136.245 43.2809 136.344 42.9424 136.37 42.6143L137.281 42.6924C137.25 43.1038 137.14 43.4997 137.031 43.8851C136.849 44.557 136.687 45.1403 136.948 45.6038C137.167 45.9893 137.609 46.1872 138.13 46.4111C138.489 46.5726 138.859 46.734 139.198 46.9788C139.515 47.2132 139.713 47.4997 139.771 47.8174C139.88 48.4215 139.458 48.8382 139.151 49.1507C138.963 49.3382 138.771 49.5309 138.739 49.6924C138.713 49.8486 138.797 50.0726 138.88 50.2861C139.026 50.6872 139.224 51.2288 138.838 51.708C138.489 52.1351 137.963 52.1195 137.573 52.109C137.354 52.109 137.104 52.0986 137.026 52.182C136.995 52.2132 136.958 52.3018 136.922 52.3851L136.89 52.458C136.479 53.3434 135.604 53.9893 134.646 54.1143Z" fill="black"/>
<path d="M138.87 29.4531H139.786V45.0938H138.87V29.4531Z" fill="black"/>
<path d="M109.172 96.0677C108.865 95.8646 106.62 95.3385 105.766 96.0469L105.177 95.3438C106.49 94.25 109.229 94.974 109.714 95.3281L109.172 96.0677Z" fill="black"/>
<path d="M99.0365 63.9945L95.3542 61.557C94.875 61.557 93.2812 61.5622 92.7812 61.557L92.7917 60.6403C93.375 60.6455 95.4896 60.6403 95.4896 60.6403H95.625L99.0729 62.9215L106.161 58.8799L106.615 59.6715L99.0365 63.9945Z" fill="black"/>
<path d="M24.0835 49.7396L34.4012 25.6094L35.2397 25.9688L24.922 50.099L24.0835 49.7396Z" fill="black"/>
<path d="M15.0415 53.4893L25.3592 29.3486L26.203 29.708L15.88 53.8486L15.0415 53.4893Z" fill="black"/>
<path d="M213.974 84.885L213.063 84.8121C213.276 82.2339 211.36 78.4579 208.406 75.6298C205.912 73.2339 203.235 72.0204 201.057 72.2912L200.943 71.385C203.391 71.0777 206.344 72.385 209.037 74.9683C212.229 78.0204 214.208 82.0048 213.974 84.885Z" fill="black"/>
<path d="M109.625 18.693C107.646 17.7399 97.7292 10.8128 95.7656 3.78678L96.6458 3.54199C98.526 10.2712 108.109 16.943 110.026 17.8701L109.625 18.693Z" fill="black"/>
</svg>
