<svg width="213" height="148" viewBox="0 0 213 148" fill="none" xmlns="http://www.w3.org/2000/svg">
<mask id="mask0_5546_11427" style="mask-type:luminance" maskUnits="userSpaceOnUse" x="0" y="0" width="213" height="147">
<path d="M0.333496 0.421875H212.333V147H0.333496V0.421875Z" fill="white"/>
</mask>
<g mask="url(#mask0_5546_11427)">
<path d="M202.422 93.0003C187.344 86.1566 186.584 66.9847 185.953 51.568C185.781 47.2607 185.615 43.2035 185.151 39.7399C184.771 36.8701 184.219 34.6722 183.5 32.9847C178.729 22.0472 167.495 18.9639 164.328 18.3285L165.214 14.9066L177.084 17.8232L178.141 14.443L166.099 11.4899L168.38 2.44824L165.172 1.18262L162.766 10.5993L151.11 7.72949L149.844 11.1097L161.88 14.0628L160.823 18.2451C158.037 18.1201 153.261 19.3857 151.276 21.2035C150.646 21.7503 150.349 22.3441 150.349 22.9326C150.349 23.2712 150.474 23.7347 151.068 24.1149C151.787 24.5785 153.094 24.7503 154.49 24.7503C156.261 24.7503 158.203 24.4951 159.302 24.2868L156.979 33.3649C140.042 31.8441 129.823 17.0628 126.443 12.2035C126.021 11.5732 125.682 11.1097 125.474 10.8545C124.203 9.37533 120.745 7.72949 118.464 8.48991C117.828 8.69824 117.11 9.16699 116.771 10.1774C111.578 3.71908 104.818 4.43262 101.401 6.58887C99.5419 7.77116 98.5679 9.33366 98.6564 10.8128C95.7398 8.61491 89.9533 5.19303 82.6044 5.82845C77.2814 6.25033 73.9064 9.07845 73.8231 11.443C73.7762 12.3337 74.245 13.0941 75.0471 13.5576C61.995 16.9378 55.6617 23.693 55.1096 29.0576C54.8596 31.4639 55.87 33.3649 57.771 34.2503C58.1512 34.4222 58.5731 34.5055 58.9533 34.5055C60.9794 34.5055 63.1356 32.3493 65.7554 29.7764C69.9794 25.5524 75.7189 19.8493 84.1669 20.0628C83.4898 20.6514 82.7762 21.542 82.9012 22.3441C82.9846 23.016 83.5783 23.4847 84.6304 23.7764C85.1825 23.9066 85.8596 23.9482 86.6617 23.7764C88.1356 24.2868 89.0262 25.7607 88.9429 26.818C88.896 27.4951 88.4325 27.917 87.6304 28.0003C86.4064 28.1253 85.3908 28.6774 84.7189 29.5212C84.2502 30.1149 83.9585 30.8753 83.87 31.6774C81.8856 30.0732 80.1148 29.818 78.8439 29.8597C77.4533 29.943 76.146 30.5368 75.4273 31.4639C74.6669 32.391 74.245 34.2087 74.9169 35.943C75.4689 37.4639 76.7762 38.516 78.5523 38.9795C78.2971 40.3337 77.5367 41.4326 76.3127 42.2764C73.6096 44.1357 68.7085 44.641 64.1044 43.542C59.0835 42.318 54.1408 39.6982 49.4117 37.167C46.8752 35.8128 44.2554 34.4639 41.6825 33.2816L38.3856 13.2191L47.8023 11.8232L47.3804 9.07845L37.9221 10.5576L36.9064 4.30762H34.12L35.1773 10.9378L25.8023 12.3337L26.1825 15.0785L35.5992 13.6826L38.5106 32.016C34.5002 30.5785 30.4898 30.2399 27.4064 30.1566C20.2241 29.9014 10.6825 31.6357 5.40123 37.292C3.16165 39.6566 1.64082 43.8389 3.03665 46.0368C3.7554 47.1774 4.89602 47.891 6.20332 48.0628C6.37519 48.1045 6.58353 48.1045 6.7554 48.1045C7.72415 48.1045 8.60957 47.766 9.28665 47.1357C10.0471 46.417 10.5106 45.4847 10.9325 44.5993C11.6096 43.1201 12.245 41.8128 14.146 41.391C13.2971 42.5732 12.7919 43.9639 13.2137 44.9378C13.4273 45.4014 13.8908 45.9482 15.1148 45.9951C16.0887 46.0368 17.271 45.1878 18.7033 44.0941C20.5627 44.4743 22.4637 46.417 23.9846 49.3701C26.7294 54.818 26.8127 60.3962 25.4637 63.1826C22.8439 64.9118 19.3387 67.7035 17.3127 71.1618C16.6356 72.3493 16.5939 74.3753 17.2294 77.2451L17.1825 77.2035C14.8179 78.9795 8.98978 77.1201 6.7554 75.4743C5.78144 74.6722 4.68248 74.5003 3.71373 75.0941C2.69811 75.6826 2.15123 76.9482 2.40123 78.1305C2.53144 78.8493 3.20332 80.6253 6.41686 81.1305C11.8648 81.9743 16.1304 85.818 16.2137 89.8753C15.7085 89.4535 15.1148 89.2816 14.5679 89.4118C12.8335 88.7347 11.4429 90.2139 10.5106 91.1826C10.2606 91.4795 9.8804 91.8597 9.75019 91.9014L9.36998 91.9847L9.45852 92.3649C9.66686 93.4639 10.8492 93.8857 11.3544 94.0107C11.6929 96.2503 12.7085 96.9274 13.3856 97.1357C11.4012 98.318 9.66686 101.698 8.98977 103.052C7.93769 101.912 6.16165 99.8857 5.78144 99.2503L5.52623 98.8285L5.40123 98.9535C5.52623 98.6566 5.61477 98.3649 5.61477 97.943C5.57311 97.1826 5.1929 96.8857 4.97936 96.7555C4.81269 96.6722 4.59915 96.5889 4.43248 96.5889C4.17727 96.2503 3.92207 96.0837 3.58352 96.0003C2.91165 95.8701 2.3179 96.4222 1.89602 96.8024L1.77102 96.9274C1.26061 97.391 1.21894 98.4899 1.43248 99.292C1.64082 100.266 2.15123 101.021 2.86998 101.532C3.16165 103.052 5.99498 106.896 8.35957 107.568C10.3023 108.12 11.8648 106.558 12.5835 105.625C12.7919 106.177 13.1721 106.979 13.5939 107.74C13.0887 108.964 8.02102 112.047 5.78144 113.438L5.14602 113.818L4.97936 113.865C4.21894 115.089 4.55748 116.058 4.93769 116.61C5.95332 118.042 8.65123 118.802 11.146 118.802C11.6929 118.802 12.245 118.761 12.7502 118.677C12.1148 122.016 11.7346 125.099 11.6929 127.209C10.7658 126.87 9.96373 126.87 9.41165 127.292C9.24498 127.422 9.07832 127.631 9.03144 127.886C8.65123 129.068 9.96373 130.756 10.3856 131.261C11.271 132.318 12.5835 133.417 13.6356 133.417C13.6773 133.417 13.7658 133.417 13.8075 133.417C14.1044 133.375 14.3127 133.292 14.5679 133.162C15.1564 132.823 15.4116 132.11 15.3283 131.219C16.0887 130.375 16.7606 127.506 17.9898 121.719C18.4533 119.479 18.9585 117.157 19.3804 115.511C19.8439 118.719 20.4794 120.365 21.4064 121.125C21.7866 121.422 22.2554 121.547 22.7189 121.547C26.2242 123.662 33.2346 121.969 38.3856 120.745C40.12 120.323 41.6408 119.943 42.6096 119.86C43.3283 119.776 43.4117 119.901 43.4533 119.901C43.5835 120.115 42.9481 121.214 42.6512 121.719C42.021 122.776 41.4273 123.787 41.7242 124.506C41.8075 124.719 42.021 125.011 42.4846 125.141C43.6252 125.479 46.7085 124.589 50.2971 123.62C53.5887 122.729 59.0835 121.214 59.6304 122.016C59.8856 122.396 60.0939 122.86 60.3075 123.407C61.1096 125.224 62.1617 127.714 66.4273 127.714C66.5158 127.714 66.5992 127.714 66.6825 127.714C69.4273 127.672 72.3023 126.49 74.8335 125.433C77.1981 124.464 79.4377 123.578 80.6617 124C81.0419 124.381 81.3804 124.672 81.7189 124.927C78.4221 126.953 74.0731 129.828 71.4117 139.287L71.3283 139.542L71.5419 139.709C71.2867 139.709 71.0314 139.584 70.9064 139.5C70.8231 139.412 68.7502 137.261 66.9377 137.938L66.5992 138.063L66.6408 138.401C67.1877 141.823 70.2294 145.37 72.8492 146.808L73.146 146.974L73.3544 146.719C74.2867 145.709 75.1304 144.016 75.5106 142.917L76.4794 143.677L79.1408 134.433C81.0419 133.5 85.0106 130.631 86.1929 129.745C88.8127 133.459 91.1356 135.615 93.7971 134.516C95.8648 133.672 100.344 129.615 100.469 128.266C100.469 128.094 100.469 127.927 100.427 127.756C100.682 127.802 100.979 127.886 101.229 128.094C101.401 128.224 101.568 128.646 101.74 128.985C102.073 129.745 102.495 130.714 103.427 130.714C103.469 130.714 103.511 130.714 103.511 130.714H103.766L103.849 130.459C105.37 126.953 101.443 122.308 101.271 122.141L101.063 121.927L100.766 122.058C100.682 122.099 99.2033 122.688 98.146 124.084C98.1044 124.042 98.1044 124.042 98.0627 124L97.7658 123.745L93.7971 127.802C93.3335 125.688 91.771 123.912 90.6721 122.729C90.5054 122.521 90.3335 122.349 90.1669 122.183C90.3335 121.761 90.3335 121.297 90.2085 120.745C91.7294 120.073 92.6564 120.323 93.7554 120.62C94.4742 120.834 95.2762 121.042 96.3335 121.042C96.7137 121.042 97.1356 121 97.5992 120.959C98.7814 120.787 99.7919 120.198 100.891 119.604C103.255 118.297 105.959 116.818 111.156 119.141C112.505 120.662 113.818 121.802 115.084 122.479C115.464 122.688 115.886 122.901 116.307 123.157C120.11 125.266 125.813 128.433 129.401 128.771C131.219 128.938 133.875 128.646 136.75 128.349C140.172 127.969 143.719 127.589 146.25 127.927C147.985 128.136 149.969 128.813 152.078 129.532C155.12 130.547 158.5 131.688 161.88 131.688C162.302 131.688 162.682 131.688 163.104 131.641C164.495 131.516 165.766 131.349 166.906 131.094C169.985 130.459 171.084 129.573 171.125 129.532L171.339 129.365L169.693 124.506C170.578 124.125 171.505 123.407 172.438 122.349C184.011 122.776 186.037 121.464 186.5 120.24C187.094 118.761 185.104 117.115 183.375 115.636C182.87 115.172 182.36 114.75 181.979 114.37C181.854 114.245 181.557 113.907 181.646 113.735C182.193 112.594 189.245 112.427 196.469 113.313C203.688 114.245 210.49 110.948 211.927 105.881C212.729 103.558 213.068 97.8545 202.422 93.0003ZM162.891 23.9482C164.115 23.7764 165.255 23.818 166.146 23.9482C165.891 24.1566 165.807 24.3701 165.807 24.667C165.807 25.5107 167.073 26.141 168.38 26.3128C168.422 28.0003 167.834 29.4795 166.651 30.7451C164.964 32.5212 162.344 33.4899 160.443 33.6201L162.891 23.9482Z" fill="black"/>
</g>
<path d="M13.7658 66.1403L16.8908 67.234L14.146 65.4215C13.2971 64.8695 12.7085 63.0986 12.1616 61.3642C11.4429 59.1247 10.7241 56.8486 9.16164 56.1715C8.44289 55.8747 7.64081 55.958 6.75539 56.3799C5.90643 56.8017 5.48456 57.5622 5.5731 58.5778C5.6981 60.984 8.56789 64.3642 13.7658 66.1403Z" fill="black"/>
<path d="M15.1563 20.5675C16.9323 20.354 18.7917 20.1457 19.6771 20.6509L22.5052 22.3853L20.1823 20.0207C16.3802 16.0467 12.1146 14.8644 9.88023 15.7082C8.94794 16.0884 8.40106 16.8071 8.35939 17.7394C8.31773 18.7082 8.60939 19.4686 9.16148 19.9738C10.4271 21.1144 12.8334 20.8644 15.1563 20.5675Z" fill="black"/>
<path d="M183.12 33.1514C183.922 34.9274 184.39 37.2087 184.724 39.7868C183.036 33.1097 176.661 33.3232 174.125 32.4795C171.594 31.5889 169.015 27.2816 176.281 28.7191C175.562 27.5785 172.099 25.7607 169.437 25.891C169.229 25.891 168.974 25.891 168.76 25.891C166.437 25.7191 164.833 24.1149 167.875 23.818C167.875 23.818 165.344 23.1045 162.51 23.568L163.776 18.667C167.239 19.3024 178.39 22.2972 183.12 33.1514Z" fill="#CADBEA"/>
<path d="M177.63 14.6979L176.828 17.3177L164.917 14.401L162.385 13.7656L150.391 10.8125L151.359 8.23438L163.062 11.1094L165.594 11.7396L177.63 14.6979Z" fill="#3B3A3A"/>
<path d="M19.4636 79.484C19.1719 81.1298 20.224 85.9007 21.4949 87.76C22.2553 87.8017 23.5626 87.635 24.448 87.2548C26.7292 89.9579 31.8803 94.6038 37.5417 98.8694C39.1042 100.052 40.6667 101.192 42.2292 102.25C44.7657 103.937 47.2136 105.458 49.4949 106.599C49.4115 105.666 49.8751 105.244 50.5522 105.078C50.0417 105.333 49.6199 106.765 50.7605 108.328C51.3074 109.088 52.198 109.89 53.6303 110.567C54.5626 111.031 55.3647 111.328 56.0417 111.453C57.8959 111.875 58.6563 111.203 58.6563 111.203L60.4324 111.541C62.1615 110.739 63.3907 110.906 64.2345 109.171C63.599 109.385 60.2188 110.02 60.5574 107.359C60.8959 104.656 65.9636 104.739 67.3595 103.557C68.7501 102.375 64.0209 100.64 64.3178 98.9111C64.6563 97.1819 70.6928 97.3069 72.2136 95.8694C73.2709 94.859 68.922 93.885 66.0053 93.0413C64.823 92.7027 63.8542 92.3642 63.6407 92.109C62.922 91.1819 64.6563 89.7444 70.6095 88.859C70.948 88.8173 71.2032 88.8173 71.4115 88.734C71.1199 88.7757 70.8647 88.8173 70.6095 88.859C68.2032 89.0309 63.1772 88.3954 64.4845 85.9475C65.1615 84.6767 68.0365 84.1298 71.2865 84.4267C70.4428 83.4111 68.2865 80.6246 66.2188 78.0465C64.573 76.0204 62.9688 74.1194 62.0782 73.4007C61.4063 74.0361 60.599 74.5413 59.797 75.0048C59.1251 75.385 58.448 75.6819 57.6876 75.7652C56.9272 75.8538 56.1251 75.6402 55.6199 75.0934C55.448 74.9215 55.3647 74.7548 55.2813 74.5413C55.2397 74.3746 55.2813 74.1611 55.2813 73.9527C55.4063 73.2757 55.7032 72.6402 56.1251 72.0934C54.9428 73.1507 53.4636 73.8642 51.9011 74.1194C51.1824 74.2444 50.422 74.2444 49.7032 73.9944C49.323 73.8225 48.9428 73.5725 48.8178 73.1923C48.7345 72.9788 48.7345 72.7236 48.7761 72.4736C48.9011 71.4579 49.5365 70.4892 50.3803 69.8954C51.7761 68.9267 53.7605 68.9267 54.9011 67.6559C55.1511 67.4059 55.323 66.984 55.1928 66.6454C54.9845 66.1402 54.2657 66.1402 53.7188 66.2652C53.422 66.3486 53.0834 66.4319 52.7865 66.5152C51.6876 66.8121 50.5938 67.0673 49.4949 66.7704C49.198 66.6871 48.9428 66.5621 48.7345 66.3486C48.3959 65.9684 48.3542 65.4215 48.4376 64.9111C48.5209 64.6194 48.6511 64.3225 48.8178 64.0673C48.8178 64.0673 45.5261 64.3225 43.6667 64.0673C41.8074 63.8173 37.4167 59.7184 34.1615 59.5934C33.0209 59.5517 29.349 61.0257 25.5886 63.4788C28.5469 57.5621 23.9844 44.5986 18.4115 43.6715C21.3647 41.3486 25.3803 37.8434 29.9792 38.6871C26.0938 40.2079 26.1824 42.3173 27.4897 42.9944C30.3178 44.4319 36.9949 36.5309 39.6095 36.3225L41.3438 47.2184C42.1459 47.51 42.948 48.0204 43.7917 48.5673L41.3022 33.6194C48.8595 36.9527 56.1667 42.109 64.0209 44.0048C70.4011 45.5673 78.422 44.2184 79.0574 38.7288C74.4949 37.8434 74.4949 33.4059 75.8074 31.8017C77.1147 30.1975 80.7865 29.1819 84.3386 32.6871C84.1251 31.0829 84.8855 28.8017 87.672 28.4632C90.4584 28.1246 89.5313 24.2392 86.7032 23.3954C90.8386 22.6767 97.5574 18.4579 100.302 19.7236C103.552 21.2444 101.484 23.1038 105.156 25.2548C108.833 27.4111 114.026 23.4371 117.068 27.4111C111.115 31.2965 117.615 37.3746 128.724 34.4215C127.162 38.0934 131.047 43.8382 149.505 37.885C148.656 40.9215 153.979 41.01 156.052 38.0934L146.672 74.5413V74.6246C147.474 74.8382 148.406 74.9632 149.333 74.8798L159.807 34.0829C162.891 34.1663 169.182 31.5465 168.719 25.9736C168.932 25.9736 169.182 25.9736 169.396 25.9736C172.057 25.8486 175.521 27.6194 176.24 28.76C168.974 27.3225 171.552 31.635 174.083 32.5204C176.62 33.3642 182.995 33.1507 184.682 39.8277C186.797 55.8746 182.698 84.5517 202.214 93.4215C220.078 101.531 210.193 114.578 196.635 112.849C189.922 112.005 178.854 111.708 181.771 114.625C184.682 117.536 194.016 122.687 172.354 121.843C171.214 123.239 170.156 123.911 169.271 124.166C166.734 124.885 165.719 121.843 167.75 120.536C168.849 119.817 166.354 120.703 163.401 121.296C160.443 121.885 161.12 118.593 163.401 118.421C165.635 118.255 165.719 115.718 163.906 114.625C162.089 113.484 157.146 112.302 157.146 108.458C155.458 109.218 154.193 109.13 153.641 108.458C153.01 107.656 153.474 106.005 155.755 104.192C155.292 104.359 154.87 104.484 154.49 104.614C150.854 105.583 151.828 103.599 153.26 102.796C153.813 102.5 154.276 101.994 154.49 101.448C154.87 100.432 154.359 99.3329 151.787 99.2496C151.318 99.2079 150.771 99.2496 150.266 99.2913C148.573 99.4163 146.714 99.7965 145.151 99.9684C143.042 100.177 141.604 99.9684 142.073 98.234C138.271 99.0361 135.734 101.359 132.781 102.119C129.823 102.88 129.823 101.953 130.245 100.812C126.359 102.88 126.443 100.895 127.922 99.5882C129.401 98.2757 136.156 96.885 134.766 95.7027C133.37 94.4788 129.526 97.3486 128.766 95.2809C128.682 95.0257 128.641 94.8121 128.682 94.6038C128.849 92.9579 131.891 92.1559 133.115 92.5361L126.318 89.6611C124.672 89.9996 123.531 89.5777 123.151 88.8173C122.813 88.0986 123.151 87.0882 124.417 86.1142C123.276 85.5204 119.391 86.5361 116.141 87.5517C115.844 87.635 115.589 87.7184 115.339 87.76C113.141 88.1819 114.281 86.2809 115.292 85.0152C115.292 85.0152 111.833 83.3694 111.787 83.3694C111.281 83.4111 110.734 83.4527 110.141 83.5777C109.677 83.7913 102.412 88.6038 102.162 92.3642C102.115 92.6611 102.162 92.9579 102.162 93.2496C102.495 97.01 106.13 101.911 106.13 101.911C105.495 105.88 106.047 110.567 107.354 112.849C108.156 114.244 109.677 116.651 111.537 118.718C103.682 115.171 101.313 119.901 97.6407 120.453C93.9636 121 93.0782 118.802 89.7865 120.453C89.6563 120.073 89.448 119.645 89.2345 119.224C89.1928 118.421 88.5626 112.932 86.9532 112.427C85.4792 111.963 83.6615 112.385 80.9584 113.817L78.1303 111.921C79.4792 111.161 80.2813 110.062 80.4115 108.416C80.073 108.541 79.6511 108.583 78.6355 108.369L79.3959 107.401C78.8022 107.484 77.9584 107.276 76.8178 106.937C75.6772 106.599 72.7657 106.557 72.4272 108.708C71.3282 109.343 71.7084 110.781 73.2292 111.286H73.2709C73.3126 111.666 73.3542 112.005 73.3126 112.302C73.1459 112.974 73.4845 114.453 75.3386 114.411C75.6772 114.411 75.974 114.369 76.2292 114.286L76.8178 115.088C73.3959 116.692 71.2865 119.776 71.2865 119.776C71.2865 119.776 65.7136 118.296 64.698 117.875C63.3022 114.453 61.3595 114.916 60.1355 116.312C58.9115 117.703 59.8855 118.932 60.9792 118.802C61.2761 119.354 61.8699 119.604 62.7553 119.984C62.672 120.114 62.5886 120.239 62.5001 120.364C66.3855 124.671 69.5105 125.099 71.5417 124.843C72.724 124.671 76.099 122.687 78.7188 121.083C78.7188 121.083 79.6042 122.604 80.7865 123.828C78.0001 122.776 71.9636 127.375 66.5574 127.505C61.1511 127.63 61.0678 123.828 59.8386 121.968C58.6147 120.114 44.8074 125.604 42.4845 124.927C40.1199 124.25 46.3699 119.14 42.4845 119.604C38.599 120.073 27.1928 124.166 22.7605 121.296C24.323 121.083 27.0261 118.255 28.3334 116.312C28.4636 117.073 29.474 118.802 30.2344 118.718C30.9949 118.635 31.2084 117.198 31.0782 115.005C30.9532 112.807 29.474 110.823 28.2084 111.963C28.1251 111.875 27.9949 111.791 27.9115 111.708C26.474 112.046 24.2813 115.171 24.2813 115.171C24.7865 112.13 23.7709 109.932 23.099 107.823C24.1094 105.88 22.0001 100.515 22.0001 100.515H25.2917C25.2917 100.515 26.224 103.557 27.573 104.359C27.6563 104.823 26.9011 105.796 27.323 106.807C27.7449 107.823 28.4167 107.145 28.4167 107.145C29.0938 108.203 29.8959 108.119 30.7397 106.937C31.5886 105.755 30.6563 104.531 29.4324 103.39C29.7292 101.953 28.6303 99.6298 27.6563 97.8121C26.3907 95.3642 17.099 96.0413 17.099 96.0413L16.8074 95.2809C17.0574 94.6871 17.2292 92.7444 17.0157 92.0257C16.9324 91.7757 16.7188 91.3069 16.4272 90.885C17.0574 86.4944 12.7501 81.7236 6.3282 80.7496C-0.0884674 79.7809 3.11987 73.1923 6.3282 75.8954C8.73966 77.6663 14.7761 79.5257 17.2709 77.6246H17.5626C17.9011 79.1454 18.323 80.2444 18.323 80.2444C18.4949 79.484 18.9167 79.2704 19.4636 79.484Z" fill="#4A8BDF"/>
<path d="M167.917 2.74512L165.594 11.7399L163.062 11.1097L165.469 1.77637L167.917 2.74512Z" fill="#3B3A3A"/>
<path d="M165.766 127.422L166.948 130.63C165.932 130.839 164.667 131.052 163.188 131.177L162.552 128.688C162.807 128.604 165.766 127.422 165.766 127.422Z" fill="#CADBEA"/>
<path d="M161.12 18.708L159.807 23.7341C159.047 24.0726 150.729 25.3382 150.729 22.9737C150.729 20.5257 157.698 18.3695 161.12 18.708Z" fill="#CADBEA"/>
<path d="M157.063 111.922L161.078 118.042L157.063 119.312L152.755 113.396C152.755 113.354 156.432 112.214 157.063 111.922Z" fill="#CADBEA"/>
<path d="M157.187 33.786L156.094 38.01C154.021 40.9214 148.703 40.8381 149.547 37.7964C131.047 43.7548 127.203 38.01 128.766 34.3381C117.661 37.2496 111.156 31.2079 117.109 27.3225C114.068 23.3121 108.875 27.3225 105.198 25.1714C101.526 23.0152 103.594 21.161 100.344 19.6402C97.5989 18.3694 90.8854 22.5933 86.7448 23.3121C85.9843 23.4371 85.3073 23.4839 84.802 23.3121C81.2552 22.3433 85.3489 19.6402 85.3489 19.6402C69.7656 18.3277 63.302 36.1923 57.9843 33.8277C52.3229 31.2964 55.6198 18.4579 76.6093 13.5985C71.75 12.8381 74.75 6.88498 82.6458 6.24956C90.5468 5.61415 96.7135 9.7131 99.4166 11.9944C96.7968 7.34852 109.255 0.421435 116.943 11.2339C117.151 6.92664 123.318 9.07769 125.052 11.1506C126.781 13.1766 137.635 32.3069 157.187 33.786Z" fill="#CADBEA"/>
<path d="M154.531 101.49C153.177 100.011 148.11 101.698 147.052 102.459C145.958 103.261 143.719 106.047 145.026 107.36C146.339 108.667 151.49 107.865 154.531 104.657C154.912 104.573 155.333 104.401 155.797 104.235C153.516 106.047 153.011 107.657 153.682 108.5C151.11 110.021 146.802 111.073 143.422 109.724C142.156 109.219 141.563 108.037 141.521 106.641C142.828 103.474 144.307 100.896 150.266 99.3337C150.813 99.292 151.318 99.292 151.787 99.292C154.401 99.417 154.912 100.516 154.531 101.49Z" fill="black"/>
<path d="M154.531 101.49C154.318 102.036 153.854 102.542 153.302 102.838C151.87 103.641 150.896 105.625 154.531 104.656C151.489 107.906 146.338 108.708 145.026 107.359C143.719 106.047 145.958 103.26 147.052 102.458C148.109 101.698 153.177 100.052 154.531 101.49Z" fill="#CADBEA"/>
<path d="M149.375 74.8385C148.406 74.8802 147.521 74.7969 146.713 74.5833V74.5L156.094 38.0521L157.187 33.8281L159.807 23.7344L161.12 18.7083L162.385 13.7656L164.917 14.401L163.823 18.6667L162.552 23.5677L159.849 34.0417L149.375 74.8385Z" fill="#3B3A3A"/>
<path d="M146.422 127.422C141.735 126.828 133.495 128.646 129.568 128.266C128.005 124.63 120.615 115.932 120.615 115.932C123.49 115.677 137.594 112.047 137.594 112.047C140.505 114.156 145.662 123.026 146.422 127.422Z" fill="#CADBEA"/>
<path d="M119.01 103.896L137.635 112.047C137.635 112.047 123.531 115.677 120.656 115.932C120.656 115.932 116.432 114.328 112.885 112.468C112.885 112.468 115.505 108.286 119.01 103.896Z" fill="#CADBEA"/>
<path d="M126.359 89.6611L133.161 92.5361C131.932 92.1559 128.896 92.9997 128.724 94.6038C125.557 96.2913 121.969 100.177 119.01 103.896L108.62 99.333C108.62 99.333 110.057 95.9528 114.156 93.1247C117.281 93.5882 122.432 92.4893 126.359 89.6611Z" fill="#3B3A3A"/>
<path d="M119.01 103.896C121.969 100.177 125.557 96.292 128.724 94.6045C128.682 94.8128 128.724 95.068 128.807 95.2816C129.568 97.3493 133.411 94.4795 134.807 95.7035C136.198 96.9274 129.443 98.318 127.963 99.5889C126.484 100.896 126.401 102.881 130.286 100.813C129.864 101.953 129.864 102.881 132.823 102.12C135.776 101.318 138.271 98.9951 142.114 98.2347C141.646 100.011 143.083 100.177 145.198 99.9691C142.917 101.401 141.479 104.276 141.562 106.599C141.604 107.99 142.198 109.172 143.463 109.683C146.844 111.032 151.151 110.021 153.729 108.459C154.276 109.131 155.542 109.219 157.234 108.459C157.234 112.256 162.172 113.485 163.989 114.625C165.807 115.761 165.719 118.256 163.484 118.422C161.203 118.594 160.526 121.886 163.484 121.297C166.437 120.703 168.89 119.818 167.833 120.537C165.849 121.802 166.859 124.886 169.354 124.167L169.396 124.25L171.042 129.11C171.042 129.11 170.031 129.953 166.989 130.589L165.807 127.375C165.807 127.375 162.849 128.558 162.594 128.646L163.229 131.136C157.234 131.641 151.151 128.011 146.463 127.422C145.703 123.026 140.552 114.157 137.635 112.047L119.01 103.896ZM161.078 118.042L157.062 111.922C156.432 112.214 152.755 113.396 152.755 113.396L157.062 119.313L161.078 118.042Z" fill="#3B3A3A"/>
<path d="M123.193 88.8174C123.573 89.5778 124.714 89.9997 126.36 89.6611C122.474 92.4893 117.281 93.5882 114.156 93.1247C113.776 93.083 113.396 92.9997 113.099 92.8695C110.224 91.9424 110.86 87.1715 115.339 84.9736C114.365 86.2393 113.183 88.1403 115.38 87.7184C113.438 89.0309 113.943 89.8747 114.448 90.3382C114.959 90.8018 118.084 91.734 123.193 88.8174Z" fill="black"/>
<path d="M116.182 87.5521C119.432 86.5365 123.318 85.5208 124.458 86.1146C123.151 87.0886 122.812 88.099 123.193 88.8177C118.083 91.7344 114.958 90.8021 114.448 90.3802C113.943 89.9583 113.437 89.0729 115.38 87.7604C115.588 87.7188 115.885 87.6771 116.182 87.5521Z" fill="#CADBEA"/>
<path d="M108.62 99.333L119.011 103.896C115.505 108.286 112.927 112.468 112.927 112.468C111.073 111.453 109.38 110.401 108.662 109.468C106.511 106.765 107.735 100.135 108.62 99.333Z" fill="#CADBEA"/>
<path d="M115.339 85.0158C110.859 87.2137 110.224 91.9428 113.099 92.9168C113.438 93.0001 113.776 93.0835 114.156 93.1668C110.057 96.0001 108.62 99.3751 108.62 99.3751C107.734 100.177 106.51 106.807 108.62 109.511C109.339 110.443 111.026 111.495 112.885 112.511C116.432 114.37 120.656 115.974 120.656 115.974C120.656 115.974 128.047 124.719 129.609 128.307C125.724 127.969 118.927 123.958 115.464 122.057C114.109 121.297 112.76 120.115 111.578 118.761C109.719 116.651 108.156 114.245 107.396 112.891C106.089 110.651 105.578 105.964 106.172 101.953L107.016 98.573C107.016 98.573 103.005 95.6616 102.203 93.3387C102.161 93.0418 102.161 92.7449 102.203 92.448C102.453 88.6928 109.719 83.8751 110.182 83.6668C110.776 83.5783 111.323 83.4949 111.833 83.4533C111.875 83.3699 115.339 85.0158 115.339 85.0158Z" fill="#3B3A3A"/>
<path d="M107.016 98.4893L106.172 101.869C106.172 101.869 102.542 96.9684 102.203 93.208C103.005 95.5726 107.016 98.4893 107.016 98.4893Z" fill="#3B3A3A"/>
<path d="M101.063 122.438C101.063 122.438 104.948 127.042 103.552 130.333C102.453 130.417 102.245 128.349 101.568 127.802C100.932 127.25 99.9637 127.333 99.9637 127.333C99.7085 126.531 99.1616 125.521 98.3179 124.719C99.3283 123.109 101.063 122.438 101.063 122.438Z" fill="#4A8BDF"/>
<path d="M99.9637 127.333C100.089 127.714 100.13 128.01 100.089 128.266C100.005 129.193 96.12 133.161 93.672 134.177C91.2189 135.193 89.0262 133.078 86.3231 129.193C86.3231 129.193 80.9168 133.25 78.8022 134.177L76.2293 143.005L75.3387 142.286L72.2137 139.839L71.7085 139.458C74.495 129.615 79.0158 127.083 82.396 124.969C82.6043 125.052 82.7762 125.141 82.9845 125.182C85.0106 125.687 88.4741 124.339 89.745 122.141C90.7554 123.406 93.3752 125.771 93.5418 128.646L97.8491 124.25C98.021 124.38 98.146 124.505 98.2762 124.63C99.1616 125.521 99.7502 126.531 99.9637 127.333Z" fill="#CADBEA"/>
<path d="M78.8019 120.958C76.1873 122.604 72.8071 124.588 71.6248 124.718C69.5988 124.968 66.4738 124.547 62.5884 120.239C62.63 120.114 62.7134 119.984 62.8384 119.859C63.5155 118.932 64.7811 117.791 64.7811 117.791C65.7967 118.213 71.3696 119.692 71.3696 119.692C71.3696 119.692 73.4842 116.567 76.9009 115.005C77.9582 114.494 79.1821 114.156 80.4946 114.073C82.6873 113.989 84.8436 114.916 86.5728 116.229C87.755 117.114 88.729 118.213 89.3175 119.224C89.5728 119.645 89.7863 120.073 89.8696 120.453C90.078 121.125 90.1248 121.76 89.828 122.182C88.5623 124.38 85.0988 125.729 83.0675 125.224C82.8592 125.182 82.6873 125.099 82.479 125.01C81.9269 124.718 81.38 124.25 80.8748 123.703C79.6925 122.437 78.8019 120.958 78.8019 120.958Z" fill="#C41830"/>
<path d="M86.9948 112.427C88.6042 112.933 89.1927 118.464 89.276 119.224C88.6875 118.214 87.7135 117.115 86.5312 116.23C84.8437 114.917 82.6875 113.99 80.4531 114.073C80.6198 113.99 80.8333 113.865 81 113.776C83.7448 112.344 85.5208 111.922 86.9948 112.427Z" fill="#C41830"/>
<path d="M76.3125 114.198C77.4531 113.865 77.9167 112.891 78.1719 111.875L81 113.776C80.8333 113.865 80.6198 113.99 80.4531 114.073C79.1406 114.115 77.9583 114.495 76.8594 115.005L76.3125 114.198Z" fill="#3B3A3A"/>
<path d="M78.172 111.875C77.8751 112.932 77.4532 113.864 76.3126 114.198C76.0574 114.286 75.7657 114.328 75.4272 114.328C73.5678 114.369 73.2292 112.849 73.3959 112.213C73.4845 111.922 73.3959 111.583 73.3542 111.203C73.3126 110.692 73.2709 110.104 73.6095 109.552C74.3282 110.229 75.7657 110.271 76.3126 110.104C76.2709 111.031 77.3282 111.963 78.172 111.875Z" fill="#3B3A3A"/>
<path d="M72.3019 139.881L75.4269 142.328L75.3384 142.412C75.0467 143.386 74.1144 145.412 73.104 146.511C70.5259 145.073 67.6144 141.651 67.104 138.401C68.5415 137.896 70.3123 139.584 70.6092 139.881C70.9061 140.172 71.7915 140.511 72.3019 139.881Z" fill="#4A8BDF"/>
<path d="M78.1718 111.875C77.328 111.922 76.2707 111.032 76.3124 110.146C75.7655 110.313 74.3697 110.313 73.6093 109.599C73.2707 110.146 73.3124 110.693 73.3541 111.245H73.3124C71.7916 110.74 71.4114 109.344 72.5103 108.667C72.8489 106.516 75.7187 106.558 76.9009 106.896C78.0884 107.229 78.8905 107.401 79.4791 107.36L78.7187 108.328C79.7343 108.542 80.1978 108.5 80.4947 108.37C80.3228 110.021 79.5624 111.115 78.1718 111.875Z" fill="black"/>
<path d="M65.9634 93.083C68.88 93.9268 73.229 94.9007 72.1717 95.9111C70.6509 97.307 64.6144 97.2236 64.2759 98.9528C63.9373 100.687 68.7082 102.416 67.3175 103.599C65.9217 104.781 60.8123 104.739 60.5155 107.401C60.1769 110.062 63.5571 109.427 64.1925 109.218C63.3488 110.948 62.1196 110.781 60.3905 111.583L58.6144 111.244C58.1925 109.807 56.8436 107.739 55.4061 106.599C54.5207 105.88 51.9842 104.823 50.5519 105.078C49.8748 105.203 49.4113 105.625 49.4946 106.599C47.255 105.5 44.7655 103.979 42.229 102.25C40.6665 101.192 39.104 100.052 37.5415 98.8695C37.7082 97.0518 38.4686 94.307 39.4009 92.0674C45.8592 96.9268 52.0259 100.937 52.0259 100.937L48.0155 94.2236L49.0311 93.6299L54.6457 101.614C58.0675 100.218 64.4425 94.5205 65.9634 93.083Z" fill="#C41830"/>
<path d="M64.4844 85.9479C63.1354 88.4375 68.2031 89.0729 70.6094 88.8594C64.6563 89.7448 62.9219 91.1823 63.6406 92.1094C63.8542 92.4063 64.8229 92.7031 66.0052 93.0417C64.4844 94.5208 58.1094 100.177 54.6458 101.615L49.0312 93.6302C49.0312 93.6302 64.6979 80.0729 66.3021 78.0469C68.3698 80.625 70.526 83.3698 71.3698 84.4271C67.9896 84.1302 65.1615 84.6771 64.4844 85.9479Z" fill="#CADBEA"/>
<path d="M61.0675 118.719C59.9685 118.891 58.9946 117.62 60.2185 116.229C61.4477 114.833 63.3904 114.37 64.781 117.792C64.781 117.792 63.4738 118.974 62.8383 119.859C61.9529 119.521 61.406 119.271 61.0675 118.719Z" fill="#3B3A3A"/>
<path d="M55.3644 106.599C56.8019 107.739 58.1509 109.807 58.5727 111.245C58.5727 111.245 57.8123 111.875 55.9529 111.495C57.5623 110.401 54.8592 108.12 54.0102 107.656C52.8279 106.937 50.255 106.766 50.7186 108.37C49.5779 106.807 49.9998 105.375 50.505 105.12C51.9425 104.823 54.4373 105.88 55.3644 106.599Z" fill="black"/>
<path d="M54.0573 107.656C54.8594 108.161 57.6042 110.401 56 111.495C55.3646 111.37 54.5625 111.073 53.5886 110.609C52.1979 109.891 51.2657 109.089 50.7188 108.37C50.2552 106.724 52.8282 106.938 54.0573 107.656Z" fill="#CADBEA"/>
<path d="M55.3228 73.9533C55.2811 74.1616 55.2811 74.3335 55.3228 74.5418C55.3644 74.7553 55.4894 74.922 55.6613 75.0939C56.1665 75.6408 56.9686 75.8543 57.729 75.7658C58.4894 75.6824 59.1665 75.3439 59.8384 75.0053C60.6457 74.5418 61.4894 74.0366 62.1196 73.4012C63.0103 74.1616 64.6144 76.021 66.2603 78.047C64.6561 80.0731 48.9842 93.6303 48.9842 93.6303L47.9738 94.2241L47.6353 93.6303L41.3853 88.521L34.2446 82.7345C34.2446 82.7345 41.6405 71.7137 52.9165 66.4741C53.2082 66.3908 53.5467 66.3074 53.8436 66.2241C54.3905 66.0939 55.1092 66.0939 55.3228 66.6043C55.4478 66.9428 55.2811 67.3231 55.0259 67.6147C53.8853 68.8856 51.9009 68.8856 50.505 69.8543C49.6613 70.4481 49.0728 71.3751 48.9009 72.4324C48.8592 72.6824 48.8592 72.896 48.9425 73.1512C49.0728 73.5314 49.453 73.8231 49.8332 73.9533C50.505 74.2449 51.2655 74.2033 52.0259 74.0783C53.5884 73.8231 55.0675 73.1043 56.2498 72.0522C55.7446 72.5991 55.4478 73.2762 55.3228 73.9533Z" fill="#C41830"/>
<path d="M47.974 94.2236L51.9844 100.937C51.9844 100.937 45.8177 96.9268 39.3594 92.0674C39.9896 90.4632 40.7083 89.1559 41.3021 88.5205L47.5521 93.6299L47.974 94.2236Z" fill="#CADBEA"/>
<path d="M49.6196 66.7295C50.6769 67.068 51.8175 66.7712 52.9165 66.4743C41.5936 71.7139 34.2446 82.7347 34.2446 82.7347C33.9113 82.7347 27.2342 81.1305 26.6457 80.667L26.604 80.6253C26.604 80.2868 31.6717 68.167 43.8748 64.0264C45.7342 64.2816 49.0311 64.0264 49.0311 64.0264C48.8592 64.2816 48.6925 64.5732 48.6509 64.8701C48.5207 65.3805 48.5623 65.9274 48.9425 66.3076C49.0311 66.516 49.3228 66.6462 49.6196 66.7295Z" fill="#CADBEA"/>
<path d="M47.0417 9.62988L47.2969 11.5309L37.9219 12.9215L35.9792 13.2184L26.5625 14.6143L26.2656 12.7132L35.6823 11.3174L37.5833 11.0205L47.0417 9.62988Z" fill="#3B3A3A"/>
<path d="M41.3019 33.6198L43.7498 48.5677C42.9061 48.0625 42.104 47.5573 41.3019 47.2188L39.6092 36.3229L39.0623 32.6875L35.979 13.2188L37.9217 12.9219L41.3019 33.6198Z" fill="#3B3A3A"/>
<path d="M34.203 82.734L41.3436 88.5205C40.7498 89.1143 40.0311 90.4632 39.4009 92.0674C34.3748 88.2705 29.1769 84.0049 26.604 80.708C27.1925 81.1299 33.8644 82.734 34.203 82.734Z" fill="#CADBEA"/>
<path d="M39.0208 32.6461L39.5677 36.2815C36.9479 36.4898 30.276 44.3857 27.5729 42.995C26.2239 42.318 26.1823 40.1669 30.0677 38.6877C25.4635 37.8857 21.4479 41.3492 18.4948 43.6721C17.0573 44.7659 15.9167 45.6148 15.0312 45.568C12.3281 45.443 13.3854 42.6565 15.0312 40.7971C10.5104 41.0523 11.0208 44.8544 8.90624 46.7971C7.3854 48.2294 4.59895 47.8492 3.33332 45.7815C2.10936 43.8388 3.45832 39.87 5.65624 37.5471C11.401 31.3805 21.7031 30.3232 27.3646 30.5367C31.4167 30.7034 35.2604 31.2086 39.0208 32.6461Z" fill="#CADBEA"/>
<path d="M36.5677 4.72949L37.5833 11.0212L35.6823 11.318L34.625 4.72949H36.5677Z" fill="#3B3A3A"/>
<path d="M31.1667 114.875C31.3333 117.031 31.0781 118.463 30.3177 118.594C29.5573 118.677 28.5469 116.989 28.4167 116.187C28.7969 115.635 29.0521 115.172 29.1354 114.833C29.5156 113.568 29.0104 112.51 28.25 111.792C29.5573 110.693 30.9948 112.724 31.1667 114.875Z" fill="#CADBEA"/>
<path d="M28.2914 111.833C29.0518 112.51 29.5154 113.609 29.1768 114.875C29.0935 115.214 28.8435 115.677 28.4633 116.229C27.1508 118.172 24.4476 121 22.8851 121.214C20.8591 121.464 20.0987 118.172 19.5935 113.693C18.2393 116.734 16.2549 130.5 14.906 131.094C14.8174 130.63 14.6924 130.25 14.5674 130.078C14.057 129.193 13.1299 128.349 12.1612 127.844V127.802C12.1143 125.479 12.6247 121.719 13.3435 118.13C14.0154 114.625 14.9476 111.286 15.7081 109.766C17.1404 110.359 22.2081 109.599 23.2237 107.656C23.9008 109.766 24.9112 111.964 24.406 115.005C24.406 115.005 26.6039 111.875 28.0362 111.542C28.0831 111.667 28.1664 111.75 28.2914 111.833Z" fill="#C41830"/>
<path d="M27.4062 106.683C26.9844 105.667 27.7448 104.74 27.6562 104.235C27.9948 104.443 28.3333 104.485 28.7135 104.318C29.1771 104.104 29.4323 103.724 29.5156 103.261C30.7396 104.36 31.6719 105.625 30.8281 106.808C29.9791 107.99 29.1771 108.078 28.5052 107.021C28.5052 107.021 27.8281 107.698 27.4062 106.683Z" fill="#3B3A3A"/>
<path d="M23.9428 86.6198C24.1095 86.8333 24.2813 87.0417 24.448 87.2552C23.5626 87.5938 22.2553 87.8021 21.4949 87.7604C20.2657 85.901 19.172 81.1302 19.4636 79.4844C20.8595 79.9479 23.1824 82.8646 23.9428 86.6198Z" fill="black"/>
<path d="M19.4637 79.4841C18.9168 79.3122 18.4949 79.4841 18.3699 80.1611C18.3699 80.1611 17.9897 79.0205 17.6095 77.5414C17.1408 75.5153 16.7605 72.8122 17.6095 71.4164C19.422 68.333 22.5887 65.5882 25.7137 63.5205C29.4741 61.0674 33.1512 59.5518 34.2918 59.6351C37.5835 59.7601 41.9741 63.8591 43.7918 64.1091C31.5887 68.1664 26.521 80.3278 26.521 80.6664C26.521 80.6664 26.521 80.708 26.5626 80.708C29.1355 84.0049 34.3335 88.3122 39.3595 92.0674C38.4272 94.3486 37.6668 97.0934 37.5001 98.8695C31.8803 94.6039 26.7293 89.958 24.4064 87.2549C24.198 86.9997 24.0262 86.7914 23.9012 86.6195C23.1824 82.8643 20.8595 79.9476 19.4637 79.4841Z" fill="#C41830"/>
<path d="M19.8854 20.3126C17.2708 18.7084 8.65104 22.8907 8.78124 17.7397C8.86458 14.9063 14.776 14.9949 19.8854 20.3126Z" fill="#CADBEA"/>
<path d="M17.2292 95.9531L17.3542 96.2917C17.2292 97.3073 15.6667 98.9531 14.0573 97.7292L13.8906 96.8021C14.1042 96.8021 14.2708 96.7135 14.4844 96.6302C15.3281 96.25 15.7917 95.7865 15.9167 95.2396L16.8073 94.8594L16.9323 95.2396L17.2292 95.9531Z" fill="#3B3A3A"/>
<path d="M13.8908 96.7555C12.8752 96.8441 11.9064 96.0003 11.6095 93.6305C11.5679 93.4222 11.5679 93.2087 11.5679 93.0003C11.9481 92.2816 13.4689 91.6462 14.1043 91.4795C14.1043 91.4795 15.0314 92.9587 15.3283 93.0003C15.62 93.0837 16.3804 92.2399 16.3804 92.2399C16.9741 92.6201 17.4793 94.2243 16.5939 94.266L16.8491 94.8128L15.9585 95.193C15.8335 95.7451 15.37 96.2503 14.5262 96.5889C14.271 96.6722 14.0575 96.7139 13.8908 96.7555Z" fill="#3B3A3A"/>
<path d="M14.3126 132.823C14.1459 132.912 13.9741 132.995 13.7241 132.995C12.1147 133.203 8.94803 129.49 9.41157 128.011C10.7241 128.136 13.8491 130.672 14.3126 132.823Z" fill="#CADBEA"/>
<path d="M13.8907 107.656C14.4376 108.625 15.073 109.552 15.6667 109.807C14.8594 111.37 13.974 114.667 13.2969 118.172C9.41153 119.016 3.3334 117.328 5.31778 114.115C8.10424 112.385 13.6355 109.047 13.8907 107.656Z" fill="#4A8BDF"/>
<path d="M11.526 92.9586C11.526 93.1669 11.5677 93.4221 11.5677 93.5888H11.526C11.526 93.5888 9.96354 93.3388 9.75 92.1982C10.5521 91.9846 12.2448 88.7346 14.4375 89.745C15.2865 89.4534 16 90.0836 16.5104 90.7607C16.8073 91.1825 17.0156 91.6461 17.099 91.9013C17.3542 92.62 17.1406 94.5627 16.8906 95.1513L16.7604 94.7711L16.5104 94.2242C17.3958 94.1825 16.8906 92.5784 16.2969 92.1982C16.2969 92.1982 15.5365 93.0419 15.2396 92.9586C14.9479 92.87 14.0156 91.4377 14.0156 91.4377C13.4687 91.6044 11.9063 92.2398 11.526 92.9586Z" fill="black"/>
<path d="M14.3127 132.823C13.8075 130.672 10.7241 128.135 9.41162 128.052C9.4585 127.885 9.54183 127.755 9.66683 127.672C10.2189 127.208 11.1877 127.375 12.1147 127.885C13.0887 128.39 14.0158 129.234 14.5262 130.119C14.6095 130.291 14.7762 130.672 14.8595 131.135C14.9481 131.729 14.9064 132.489 14.3127 132.823Z" fill="#CADBEA"/>
<path d="M6.92188 56.719C11.526 54.4378 11.3125 64.0263 13.8906 65.7138C6.92188 63.3492 4.38542 57.9846 6.92188 56.719Z" fill="#CADBEA"/>
<path d="M4.8125 99.8858L5.31771 99.4587C5.82292 100.391 8.98958 103.813 8.98958 103.813C8.98958 103.813 11.401 98.1514 13.974 97.266L14.0573 97.7296C15.6667 98.9535 17.2292 97.3077 17.3542 96.2921L17.2292 95.9535C17.2292 95.9535 26.5208 95.2817 27.7865 97.7296C28.7135 99.5889 29.8125 101.912 29.5156 103.302C29.4323 103.771 29.1771 104.151 28.7135 104.36C28.3333 104.532 27.9948 104.485 27.6562 104.276C26.3073 103.474 25.3802 100.433 25.3802 100.433H22.0833C22.0833 100.433 24.1979 105.797 23.1823 107.74C22.1667 109.683 17.099 110.443 15.6667 109.849C15.0729 109.599 14.4375 108.709 13.8906 107.698C13.1302 106.302 12.5417 104.782 12.5417 104.782C12.5417 104.782 10.6823 107.907 8.31771 107.23C5.95313 106.558 3.07812 102.417 3.07812 101.36C4.05208 101.021 4.59896 100.308 4.8125 99.8858Z" fill="#CADBEA"/>
<path d="M1.6875 99.2082C2.10937 99.7968 4.34375 99.0363 4.09375 97.052C4.43229 96.8853 5.02083 97.0936 5.0625 97.9426C5.10417 98.7863 4.38542 99.3332 4.8125 99.8853C4.59896 100.307 4.09375 101.068 3.11979 101.276C2.31771 100.812 1.85417 99.9686 1.6875 99.2082Z" fill="#3B3A3A"/>
<path d="M4.09379 97.0104C4.34379 99.0364 2.15108 99.7552 1.68754 99.1666C1.474 98.276 1.599 97.4739 1.89587 97.2239C2.48963 96.7135 3.37504 95.7031 4.09379 97.0104Z" fill="#3B3A3A"/>
<path d="M57.349 76.1875C56.5469 76.1875 55.7865 75.8958 55.323 75.3854C55.1094 75.1354 54.9844 74.8802 54.9011 74.625C54.8594 74.375 54.8594 74.1198 54.9011 73.8646C54.9428 73.7396 54.9428 73.5729 54.9844 73.4427C54.0573 73.9948 53.0417 74.3333 52.0261 74.5416C51.0573 74.7135 50.2969 74.625 49.6198 74.375C49.073 74.1198 48.6511 73.7812 48.5209 73.3177C48.4376 73.0625 48.4376 72.7708 48.4792 72.4323C48.6511 71.2916 49.2813 70.2344 50.2553 69.5989C50.8855 69.1354 51.6459 68.9271 52.3646 68.6719C53.2969 68.375 54.1407 68.0833 54.6876 67.4479C54.8178 67.276 54.9844 67.026 54.9011 66.8541C54.8178 66.6458 54.3074 66.6041 53.9271 66.7291C53.6303 66.8125 53.3386 66.8958 53.0001 66.9844C51.9844 67.2344 50.7188 67.5729 49.4948 67.2344C49.073 67.1094 48.7761 66.9427 48.5209 66.6875C48.1407 66.2656 47.974 65.5885 48.1407 64.8698C48.2292 64.5312 48.3959 64.1979 48.6094 63.901C48.9428 63.4375 49.4532 62.9687 50.0417 62.6302C50.5521 62.3385 51.0573 62.125 51.5626 61.9166C51.9011 61.7864 52.2396 61.6614 52.5365 61.4948C52.8282 61.3229 53.1667 61.1562 53.2969 60.901C53.5053 60.3073 53.4636 59.8021 53.1667 59.4219C52.7865 58.9166 51.9844 58.6614 51.0157 58.7448L50.9271 57.901C52.198 57.8177 53.2084 58.1562 53.8021 58.9166C54.2657 59.5521 54.3907 60.3541 54.0573 61.1979C53.8438 61.7448 53.3386 62.0416 52.8751 62.2969C52.5365 62.4635 52.198 62.5885 51.8594 62.7187C51.3542 62.9271 50.8855 63.0989 50.4219 63.3906C49.9167 63.6875 49.4948 64.026 49.2396 64.4062C49.073 64.6614 48.9428 64.8698 48.9011 65.125C48.8178 65.4635 48.8178 65.8854 49.073 66.1406C49.198 66.2656 49.3646 66.3906 49.6615 66.4739C50.5938 66.7291 51.5626 66.5156 52.7032 66.2239C53.0001 66.1406 53.3386 66.0521 53.6303 65.9687C54.6042 65.7604 55.3646 66.0104 55.6198 66.6458C55.7865 67.0677 55.6615 67.6146 55.2396 68.0833C54.5209 68.8854 53.5053 69.2187 52.5365 69.5573C51.8594 69.8125 51.1824 70.026 50.6355 70.4062C49.8751 70.9114 49.323 71.7552 49.2396 72.6823C49.198 72.8958 49.198 73.0625 49.2396 73.1927C49.323 73.401 49.5365 73.6146 49.8751 73.7396C50.3803 73.9531 51.0157 73.9948 51.8178 73.8646C53.2969 73.6146 54.7292 72.9375 55.8282 71.9219L56.4219 72.5156C56.0417 72.9791 55.7448 73.5729 55.6615 74.2031C55.6198 74.3333 55.6198 74.5 55.6615 74.625C55.7032 74.7135 55.7448 74.8802 55.8698 74.9635C56.2501 75.3854 56.8855 75.5989 57.6042 75.5156C58.323 75.4271 58.9949 75.0937 59.5469 74.7969C60.2188 74.4166 61.0678 73.9114 61.7396 73.276C62.1198 72.9375 62.4167 72.5573 62.6303 72.1354C63.4324 70.6562 64.4011 69.0104 65.9219 68.5885C66.7657 68.3333 67.7396 68.5052 68.7501 69.0521L68.3282 69.8125C67.4844 69.3489 66.7657 69.2187 66.1355 69.4323C65.0365 69.7708 64.2344 70.9114 63.349 72.5573C63.0938 73.0208 62.7553 73.4844 62.3334 73.9114C61.573 74.625 60.6876 75.1771 59.9688 75.5573C59.3334 75.8958 58.5313 76.276 57.6876 76.3594C57.6042 76.1875 57.474 76.1875 57.349 76.1875Z" fill="black"/>
<path d="M78.2967 69.0936L78.0415 68.2916C79.3957 67.828 80.1561 67.3645 80.2811 66.8541C80.453 66.2655 79.8592 65.5051 79.2238 64.703C78.2551 63.4791 77.0311 61.9166 78.4634 60.3072C80.1978 58.4114 83.3644 59.6353 86.4478 60.8176C88.5624 61.6197 90.7134 62.4634 91.7707 61.8749C92.0207 61.703 92.0207 61.6197 92.0676 61.578C92.1092 61.1561 91.2603 60.2655 90.5051 59.4634C88.729 57.6509 86.2811 55.1145 88.729 52.5364C91.0103 50.1301 93.7967 51.9478 96.2863 53.552C98.229 54.8176 100.088 55.9999 101.312 54.9478C102.625 53.8489 102.114 53.0884 101.443 51.9895C100.765 50.8905 99.8801 49.4999 101.739 47.8905C102.37 47.3436 103.172 47.177 104.057 47.427C105.958 47.9374 107.901 50.2603 109.213 52.1145C110.693 54.1874 112 56.6353 112.547 58.2395C113.687 61.6614 115.292 61.5364 116.562 61.4478C116.812 61.4478 116.901 61.1978 116.943 60.2239C116.984 59.1249 117.068 57.6093 118.63 57.0155C119.896 56.5103 121.208 57.6093 122.687 58.8749C124.458 60.3541 126.484 62.0416 128.682 61.2811L128.937 62.0832C126.276 63.0103 123.953 61.0676 122.135 59.5051C120.911 58.453 119.729 57.4791 118.927 57.8176C117.911 58.1978 117.828 59.0832 117.786 60.3072C117.745 61.1561 117.703 62.2499 116.646 62.3384C114.911 62.4634 112.969 62.2499 111.745 58.5364C110.734 55.4947 106.719 49.078 103.807 48.2707C103.213 48.1041 102.708 48.1874 102.245 48.5676C100.932 49.7082 101.443 50.4686 102.114 51.5676C102.792 52.6666 103.682 54.0572 101.781 55.6197C100.047 57.0572 97.8957 55.6197 95.7394 54.2707C93.3332 52.7082 91.0519 51.2707 89.2759 53.1301C87.5467 54.9895 88.9842 56.7603 91.0519 58.8749C92.1092 59.9739 92.9947 60.8593 92.8697 61.703C92.828 62.0832 92.5728 62.3801 92.1926 62.6301C90.8384 63.4374 88.5624 62.5468 86.1509 61.6197C83.3644 60.5207 80.453 59.4218 79.0988 60.9009C78.2134 61.9166 78.8019 62.802 79.9009 64.1978C80.6197 65.1249 81.4217 66.0936 81.0832 67.1093C80.8332 67.9114 79.9426 68.5468 78.2967 69.0936Z" fill="black"/>
<path d="M164.833 77.7965L164.412 74.9215C164.156 73.1924 161.88 68.2913 159.177 66.8955C158.287 66.432 157.443 66.3903 156.599 66.8122C155.037 67.6143 154.781 69.0101 154.49 70.5309C154.063 72.6403 153.641 75.0049 149.417 75.2601C148.448 75.3018 147.474 75.2184 146.589 75.0049C143.886 74.2913 141.734 72.1351 141.141 69.5986C140.636 67.4059 141.313 65.2913 143.042 63.7705L143.589 64.4059C142.115 65.6715 141.521 67.4893 141.984 69.3903C142.495 71.6715 144.438 73.5309 146.844 74.2028C147.646 74.4163 148.49 74.4997 149.375 74.458C152.969 74.2445 153.261 72.432 153.682 70.4059C153.979 68.8382 154.318 67.0674 156.261 66.0934C157.318 65.5465 158.458 65.5882 159.599 66.182C162.047 67.4476 163.99 70.9945 164.875 73.3174C165.552 71.4997 167.031 70.0257 169.182 70.0674C172.688 70.1924 174.589 74.0361 174.886 77.5413L174.042 77.6247C173.662 73.1038 171.255 70.9528 169.182 70.9111C167.24 70.8695 165.719 72.432 165.344 74.9632L164.833 77.7965Z" fill="black"/>
<path d="M175.604 97.9428C174.38 97.9428 173.24 97.4324 172.354 96.5053C171.255 95.3647 170.745 93.6772 170.958 92.0678L171.802 92.1563C171.635 93.547 172.057 94.9428 172.984 95.9116C173.786 96.7553 174.802 97.1824 175.901 97.0938C178.474 96.8855 179.026 95.448 179.531 94.0105C179.953 92.8282 180.375 91.6459 181.979 91.6876C183.078 91.7345 184.177 92.4063 185.234 93.0834C186.458 93.8438 187.599 94.5626 188.526 94.2657C189.161 94.0522 189.75 93.297 190.177 91.9845L190.979 92.2813C190.427 93.8438 189.708 94.7709 188.823 95.0678C187.516 95.5313 186.12 94.6459 184.812 93.8438C183.839 93.2501 182.828 92.6199 181.979 92.5782C181.052 92.5366 180.755 93.1668 180.333 94.3491C179.786 95.7866 179.068 97.7709 175.943 97.9845C175.818 97.9428 175.687 97.9428 175.604 97.9428Z" fill="black"/>
<path d="M101.146 85.7341C100.849 85.7341 100.599 85.6925 100.386 85.6508C99.4168 85.3539 98.8647 84.3852 98.9897 83.2446C99.2032 81.6352 100.849 79.7394 104.734 79.4008C104.146 78.3852 104.229 77.2446 104.906 76.2758C106.089 74.6717 108.875 73.781 112.505 75.4737L112.125 76.2342C108.958 74.755 106.511 75.4269 105.578 76.7394C104.948 77.6248 105.073 78.6404 105.833 79.4425L106.511 80.1196L105.537 80.1612C101.865 80.2446 100.005 81.8071 99.8386 83.3279C99.7501 84.0466 100.047 84.6352 100.641 84.8071C101.443 85.0154 103.682 84.5102 105.833 84.005C107.271 83.6664 108.75 83.3279 110.099 83.1144C110.776 83.031 111.323 82.9477 111.787 82.906C112.969 82.8227 113.776 82.9477 114.365 83.2446L113.943 83.9581C113.521 83.7498 112.802 83.6664 111.833 83.7081C111.365 83.7498 110.859 83.7914 110.224 83.8748C108.917 84.0883 107.438 84.4269 106.047 84.7654C104.057 85.3123 102.287 85.7341 101.146 85.7341Z" fill="black"/>
<path d="M162.005 131.641C158.625 131.641 155.245 130.5 152.208 129.49C150.094 128.771 148.11 128.094 146.38 127.886C143.844 127.547 140.339 127.927 136.875 128.308C134.047 128.604 131.344 128.896 129.526 128.729C125.938 128.391 120.235 125.224 116.432 123.11C116.011 122.86 115.589 122.646 115.208 122.438C113.943 121.761 112.589 120.578 111.24 119.058C109.13 116.693 107.568 114.115 106.974 113.104C105.667 110.823 105.115 106.094 105.708 102.078C105.073 101.235 102.073 96.8857 101.74 93.3805C101.693 93.042 101.693 92.7035 101.74 92.4066C102.031 88.3545 109.511 83.4535 110.016 83.2868L110.099 83.2451H110.182V83.7087V83.667L110.354 84.0472H110.313C109.844 84.2555 102.833 88.943 102.583 92.4482C102.583 92.7035 102.583 92.9587 102.583 93.2972C102.922 96.8857 106.469 101.698 106.469 101.74L106.552 101.87L106.511 102.037C105.917 105.922 106.38 110.526 107.651 112.683C108.115 113.438 109.677 116.141 111.787 118.511C113.099 119.985 114.365 121.084 115.547 121.719C115.927 121.927 116.349 122.141 116.771 122.396C120.276 124.339 126.146 127.631 129.526 127.927C131.261 128.094 133.917 127.802 136.708 127.506C140.172 127.125 143.802 126.745 146.38 127.084C148.235 127.334 150.224 128.011 152.375 128.729C155.672 129.87 159.427 131.136 163.063 130.797C164.412 130.672 165.677 130.5 166.776 130.25C168.849 129.828 169.943 129.276 170.412 129.026L168.849 124.464L169.651 124.209L171.38 129.365L171.172 129.532C171.125 129.573 170.031 130.417 166.948 131.094C165.807 131.349 164.495 131.516 163.146 131.641C162.807 131.599 162.427 131.641 162.005 131.641Z" fill="black"/>
<path d="M58.828 113.015L58.2759 112.385C58.8696 111.875 59.505 111.494 60.1353 111.203C60.6457 110.989 61.1092 110.823 61.5311 110.692C62.2082 110.484 62.755 110.271 63.2186 109.849C62.4165 109.932 61.3592 109.89 60.6873 109.343C60.3071 109.047 59.8853 108.458 60.0519 107.359C60.3071 105.375 62.7134 104.698 64.6561 104.192C65.6717 103.937 66.5988 103.682 67.0207 103.302C67.1457 103.218 67.1457 103.135 67.1457 103.135C67.1457 102.797 66.3853 102.208 65.8384 101.739C64.8228 100.937 63.6821 99.9684 63.8957 98.9111C64.1509 97.6872 66.1353 97.2653 68.2863 96.8434C69.8071 96.5465 71.328 96.208 71.9217 95.6611C71.5832 95.1507 68.7082 94.3486 67.1873 93.9268C66.7238 93.8018 66.3019 93.6768 65.88 93.5465C64.2342 93.083 63.5571 92.7861 63.3019 92.4476C63.0519 92.109 63.0103 91.734 63.1353 91.3538C63.5988 90.1663 66.2603 89.1559 70.5259 88.5205L70.6509 89.3643C66.0936 90.0413 64.1509 91.0153 63.8957 91.6872C63.854 91.7757 63.854 91.859 63.9373 91.9424C64.0207 92.0674 64.4842 92.2809 66.0936 92.7445C66.5155 92.8695 66.9373 92.9997 67.3592 93.1247C70.8228 94.0986 72.5103 94.6455 72.7238 95.4893C72.7655 95.6611 72.7655 95.9997 72.4269 96.2913C71.6665 97.0101 70.0623 97.3486 68.3696 97.6872C66.7655 98.0257 64.7811 98.4059 64.6561 99.1247C64.5311 99.7132 65.5415 100.515 66.3019 101.151C67.1873 101.869 67.9478 102.5 67.9478 103.218C67.9478 103.432 67.8644 103.724 67.5259 104.021C66.9373 104.484 65.9634 104.781 64.8228 105.078C63.0519 105.541 61.0259 106.093 60.854 107.567C60.7707 108.161 60.8957 108.541 61.1925 108.791C61.9113 109.385 63.4738 109.088 63.979 108.963L64.953 108.625L64.4842 109.552C63.8123 110.948 62.8384 111.286 61.7811 111.625C61.3592 111.75 60.9373 111.875 60.4738 112.088C59.9269 112.213 59.3748 112.552 58.828 113.015Z" fill="black"/>
<path d="M70.6092 89.2812L70.5259 88.4375C70.7811 88.3958 71.0728 88.3542 71.328 88.3125L71.4998 89.1562C71.2863 89.2396 70.9894 89.2812 70.6092 89.2812Z" fill="black"/>
<path d="M81.7606 90.0835C79.6513 86.7919 74.9169 85.2294 71.245 84.8492C68.12 84.5523 65.4169 85.0992 64.8648 86.1565C64.5731 86.6617 64.6981 86.9585 64.8231 87.1304C65.5419 88.2242 68.6669 88.6044 70.5679 88.4377L70.6096 89.2815C68.9221 89.4117 65.12 89.1565 64.1044 87.594C63.8544 87.2137 63.6408 86.5783 64.1044 85.7346C64.8648 84.3387 67.6981 83.6669 71.3283 84.0054C75.2138 84.3856 80.1565 86.0315 82.4794 89.62L81.7606 90.0835Z" fill="black"/>
<path d="M36.8229 51.9482C36.0625 51.9482 34.8385 51.6097 32.6406 50.6409L32.9792 49.8805C36.1458 51.2295 36.9479 51.1878 37.1615 51.0212C37.3281 50.8909 37.2448 50.3857 37.2031 49.9222C37.0781 48.9066 36.9063 47.3857 38.599 46.7087C39.4844 46.3753 40.4115 46.3753 41.5104 46.7972C42.3542 47.1357 43.1563 47.6409 44.0052 48.1462L44.0885 48.1878C45.9063 49.3284 47.8021 50.5107 49.7448 49.792L50.0417 50.5941C47.7188 51.443 45.5677 50.0889 43.6667 48.9066L43.5833 48.8649C42.7344 48.3597 41.974 47.8493 41.2135 47.5576C40.3281 47.2191 39.6094 47.1774 38.9375 47.4691C37.9219 47.891 37.9219 48.6514 38.0469 49.792C38.1302 50.5107 38.2187 51.2295 37.6667 51.6514C37.4583 51.8232 37.2031 51.9482 36.8229 51.9482Z" fill="black"/>
<path d="M58.9946 34.4636C58.6144 34.4636 58.1925 34.3803 57.8123 34.2084C55.9113 33.3647 54.9008 31.422 55.1508 29.0157C55.6613 23.6511 62.0363 16.8959 75.0883 13.5157C74.2446 13.0522 73.8227 12.3334 73.8644 11.4011C73.9477 9.03656 77.3279 6.20843 82.6456 5.78655C89.9946 5.1928 95.781 8.61468 98.6977 10.7709C98.6092 9.29176 99.5831 7.6876 101.443 6.54697C104.864 4.39072 111.62 3.67197 116.729 10.1355C117.068 9.11989 117.786 8.65635 118.422 8.44801C120.698 7.6876 124.161 9.33343 125.432 10.8126C125.64 11.0678 125.979 11.5313 126.401 12.1616C129.823 17.0626 140.172 32.0574 157.318 33.3647L157.276 34.2084C139.62 32.8595 129.104 17.6511 125.64 12.672C125.219 12.0782 124.88 11.6147 124.713 11.4011C123.656 10.1355 120.489 8.65635 118.63 9.29176C117.828 9.54697 117.406 10.2188 117.364 11.2345L117.323 12.4584L116.604 11.4897C111.745 4.64593 105.156 5.23447 101.864 7.30739C100.172 8.36468 98.906 10.1772 99.7915 11.7813L100.932 13.8126L99.1613 12.3334C96.88 10.4324 90.755 6.04176 82.6873 6.71364C77.5779 7.13551 74.7498 9.79697 74.6665 11.5313C74.6248 12.7553 75.8904 13.1355 76.6508 13.2188L78.8019 13.5574L76.6925 14.0626C61.1508 17.698 56.38 25.2553 55.9998 29.1824C55.7863 31.2084 56.5883 32.8178 58.1925 33.5313C60.0519 34.3803 62.3331 32.0991 65.2029 29.2241C69.7238 24.7084 75.8904 18.5418 85.3904 19.3438L86.6196 19.4272L85.604 20.1043C84.8019 20.6511 83.7029 21.6668 83.7863 22.297C83.8279 22.7241 84.5467 22.9324 84.9269 23.0574C85.3904 23.1876 85.9842 23.1876 86.7029 23.0574L86.8696 23.9063C86.0258 24.073 85.3071 24.073 84.7185 23.9063C83.6613 23.6095 83.0675 23.1459 82.9842 22.4688C82.8592 21.6251 83.5779 20.7813 84.2498 20.1876C75.7654 19.9741 70.0623 25.6772 65.8383 29.9011C63.1769 32.3074 61.0258 34.4636 58.9946 34.4636Z" fill="black"/>
<path d="M136.286 40.7968C132.104 40.7968 130.078 39.5729 129.146 38.5572C128.219 37.5468 127.88 36.2343 128.177 34.927C121.078 36.5729 115.969 34.6302 114.745 31.8854C114.026 30.2812 114.661 28.5937 116.521 27.2395C115 25.552 112.885 25.8072 110.646 26.0572C108.703 26.2708 106.76 26.5208 105.031 25.5104C103.047 24.3281 102.625 23.2291 102.245 22.2552C101.906 21.3697 101.651 20.6927 100.219 20.0208C98.6979 19.302 95.5729 20.5677 92.5312 21.7916C90.5469 22.5937 88.5156 23.4374 86.8698 23.6927L86.7031 22.8489C88.2656 22.552 90.25 21.7499 92.1927 20.9895C95.526 19.6406 98.6979 18.3697 100.552 19.2187C102.286 20.0208 102.667 20.9895 103.047 21.9166C103.385 22.8072 103.724 23.7343 105.495 24.7499C106.974 25.6354 108.75 25.427 110.604 25.1718C113.099 24.8749 115.672 24.5364 117.531 26.9895L117.786 27.3229L117.406 27.5781C115.63 28.7187 114.958 30.1562 115.547 31.4635C116.688 34.0416 121.927 35.6458 128.724 33.8697L129.568 33.6614L129.229 34.4635C128.724 35.6874 128.938 36.9531 129.823 37.927C131.047 39.276 135.396 41.8958 149.505 37.3333L150.266 37.0833L150.052 37.8437C149.844 38.5572 150.052 39.1093 150.688 39.4062C152.036 40.0364 154.615 39.4479 155.839 37.7135L156.516 38.2239C155.036 40.2916 151.995 41.0104 150.307 40.2083C149.547 39.8281 149.125 39.1927 149.125 38.3906C143.422 40.2083 139.281 40.7968 136.286 40.7968Z" fill="black"/>
<path d="M6.7083 48.1038C6.54164 48.1038 6.32809 48.1038 6.16143 48.0622C4.85414 47.8903 3.71351 47.1351 2.99476 46.0361C1.64059 43.8382 3.16143 39.6559 5.35934 37.2913C10.6406 31.6351 20.2239 29.9007 27.4062 30.1559C30.6562 30.2809 34.9635 30.6194 39.1875 32.2653L38.8906 33.0674C35.6823 31.8017 32.1354 31.1663 27.3646 30.9997C20.3541 30.7444 11.1041 32.3903 5.99476 37.8851C3.79684 40.2497 2.69789 43.9632 3.75518 45.6142C4.34372 46.5413 5.27601 47.1351 6.32809 47.2601C7.26038 47.3851 8.10413 47.1351 8.73955 46.5413C9.36976 45.9476 9.79164 45.1038 10.1718 44.2601C10.9739 42.5726 11.8646 40.6299 15.1146 40.4163L16.1302 40.3747L15.4531 41.1351C14.3125 42.4007 13.6771 43.9215 13.9739 44.6403C14.1458 44.9788 14.526 45.1872 15.1562 45.1872C15.9166 45.234 17.0989 44.3434 18.3229 43.3747L18.9166 42.9111C21.7864 40.6299 25.7604 37.5049 30.2343 38.2653L31.7135 38.5153L30.3177 39.0674C28.4635 39.7861 27.3229 40.7549 27.2812 41.6819C27.2812 42.109 27.4896 42.4424 27.8698 42.6559C29.1771 43.333 32.1771 40.9684 34.5416 39.0674C36.6146 37.4163 38.4271 35.984 39.651 35.9007L39.7396 36.7444C38.7656 36.8278 36.9062 38.3069 35.0937 39.7392C32.2604 42.0205 29.3073 44.3434 27.4896 43.4163C26.7708 43.0361 26.3906 42.4007 26.4323 41.6403C26.4739 41.0517 26.8125 39.9944 28.5468 39.0257C25.0833 39.1507 22 41.5986 19.4635 43.583L18.875 44.0517C17.3958 45.234 16.1718 46.1194 15.1562 46.0778C13.9323 46.0361 13.4687 45.484 13.2552 45.0205C12.8333 44.0517 13.3854 42.6559 14.1875 41.4736C12.2448 41.8955 11.651 43.2028 10.9739 44.6819C10.5521 45.5674 10.1302 46.4997 9.32809 47.2184C8.56768 47.7653 7.68226 48.1038 6.7083 48.1038Z" fill="black"/>
<path d="M69.0054 44.9788C67.3595 44.9788 65.6252 44.7653 63.9377 44.3851C58.7866 43.1611 53.8439 40.4997 49.0314 37.9684C46.4533 36.6143 43.7918 35.182 41.1304 33.9997L41.4689 33.2393C44.1304 34.4215 46.8335 35.8538 49.4116 37.208C54.1825 39.7393 59.0835 42.359 64.1043 43.583C68.7085 44.7236 73.6512 44.1768 76.3127 42.3174C77.5366 41.4736 78.297 40.333 78.5522 39.0257C76.7762 38.557 75.5106 37.5049 74.9168 35.984C74.2866 34.2497 74.7085 32.4372 75.4272 31.5049C76.1877 30.5778 77.4533 29.984 78.8439 29.9007C80.0731 29.8174 81.8856 30.1143 83.87 31.7184C83.9585 30.9163 84.2502 30.1559 84.7189 29.5622C85.3908 28.7184 86.3647 28.2132 87.6304 28.0413C88.4325 27.958 88.8543 27.5361 88.9429 26.859C89.0262 25.7601 88.1356 24.2861 86.62 23.7757L86.745 23.3955V22.9736H86.87C88.8543 23.609 89.9116 25.5101 89.7866 26.9424C89.6981 28.0413 88.896 28.7601 87.7554 28.8851C86.745 29.0153 85.9429 29.3955 85.3908 30.0726C84.8856 30.7445 84.6304 31.6768 84.7606 32.6038L84.9272 33.7861L84.0418 32.9424C82.0158 30.958 80.1564 30.6611 78.9325 30.7445C77.7918 30.8278 76.6929 31.3382 76.0991 32.057C75.5106 32.7705 75.172 34.2913 75.7189 35.7288C76.0575 36.7028 76.9481 37.9268 79.0991 38.307L79.4793 38.3903L79.4377 38.7705C79.2241 40.4997 78.3387 41.9372 76.7762 43.0361C74.9585 44.3018 72.1304 44.9788 69.0054 44.9788Z" fill="black"/>
<path d="M60.3906 112.006H60.3073L58.276 111.625L58.1927 111.37C57.8125 110.104 56.5885 108.12 55.1093 106.938C54.1823 106.219 51.8593 105.287 50.5937 105.5C50.0416 105.584 49.8333 105.922 49.875 106.558L49.9583 107.318L49.2812 106.979C47.1302 105.922 44.677 104.443 41.9739 102.631C40.4114 101.573 38.8489 100.433 37.2448 99.2503C31.8385 95.1514 26.5625 90.4639 24.1093 87.5941C23.901 87.3389 23.7291 87.1305 23.5625 86.917L23.5208 86.8337V86.7503C22.802 83.1566 20.6041 80.3285 19.3385 79.9066C19.1718 79.8649 19.0416 79.8649 18.9583 79.8649C18.875 79.9066 18.8333 80.0316 18.7916 80.2451L18.4948 81.8076L17.9895 80.2868C17.9895 80.2451 17.5625 79.1045 17.2291 77.6253C16.5104 74.5837 16.552 72.4326 17.2708 71.2087C19.3385 67.7035 22.8854 64.9118 25.5468 63.1826L26.0104 63.9014C23.4375 65.5889 19.9739 68.292 18.0312 71.6722C17.4375 72.6826 17.4791 74.7555 18.1145 77.5003C18.2812 78.1774 18.4531 78.766 18.5781 79.2295C18.5781 79.2295 18.5781 79.2295 18.6198 79.1878C18.8333 79.0628 19.1718 78.9795 19.677 79.1462C21.3229 79.693 23.6458 82.8649 24.4062 86.5368C24.5312 86.7087 24.7031 86.917 24.8698 87.0889C27.2812 89.917 32.5156 94.5628 37.8802 98.6566C39.4427 99.8389 41.0052 100.979 42.5677 102.037C45.0156 103.683 47.2135 105.037 49.1979 106.047C49.3229 105.375 49.8333 104.953 50.552 104.823C52.1979 104.485 54.8593 105.714 55.7448 106.427C57.0937 107.485 58.4895 109.469 59.0364 111.032L60.6875 111.328L60.3906 112.006Z" fill="black"/>
<path d="M45.9894 64.573C45.229 64.573 44.3853 64.5314 43.7498 64.448C42.9061 64.323 41.7238 63.5626 40.2863 62.7189C38.4269 61.5366 36.104 60.0574 34.2446 60.0157C33.3175 59.9741 29.7707 61.323 25.9269 63.8595L25.4634 63.1407C29.3071 60.6043 33.0207 59.1251 34.2915 59.172C36.3592 59.2553 38.6821 60.7345 40.7498 62.0001C42.0207 62.8022 43.203 63.5209 43.8748 63.6459C45.6509 63.9011 48.9009 63.6459 48.9425 63.6459L49.0311 64.4897C48.9009 64.4897 47.4686 64.573 45.9894 64.573Z" fill="black"/>
<path d="M70.9479 84.6768C70.6094 84.2549 70.0625 83.5778 69.4271 82.734C68.4167 81.4268 67.1458 79.8226 65.9219 78.3018C63.9375 75.8538 62.5885 74.2913 61.8281 73.6976L61.7812 73.6559L62.375 73.0622L62.0781 73.359L62.3333 73.0205L62.375 73.0622C63.1354 73.6976 64.4844 75.2184 66.5573 77.7497C67.8229 79.2705 69.0469 80.9215 70.0625 82.1872C70.7396 83.0309 71.2448 83.708 71.5833 84.1299L70.9479 84.6768Z" fill="black"/>
<path d="M34.2033 83.1562C33.8647 83.1562 27.0679 81.5521 26.3491 81.0052L26.8543 80.3281C27.3647 80.6667 32.8127 82.0156 34.0366 82.2708C35.1772 80.6667 42.3543 70.9115 52.745 66.0938L53.0835 66.8542C42.021 71.9687 34.6252 82.8646 34.5835 82.9479L34.4585 83.1146H34.2033V83.1562Z" fill="black"/>
<path d="M26.349 81.0469C26.224 80.9635 26.1406 80.7917 26.1406 80.6667C26.1406 79.9896 31.5469 67.7865 43.7083 63.6875L43.9635 64.4896C31.7552 68.6302 26.9844 80.625 26.9844 80.75L26.6458 80.6667L26.349 81.0469ZM26.6042 80.625L26.9427 80.6667C26.9427 80.5 26.8542 80.4115 26.8125 80.3698L26.6042 80.625Z" fill="black"/>
<path d="M53.297 102.291L51.7762 101.276C51.6877 101.234 45.5262 97.182 39.146 92.3643C32.8543 87.6351 28.547 83.7913 26.3491 80.9632L26.2241 80.8799V80.6247H26.5627L26.771 80.4997L26.9012 80.2861L26.9845 80.3278L27.0262 80.3695C29.1772 83.1559 33.4429 86.958 39.7397 91.6872C44.2137 95.0257 48.5627 98.0257 50.8022 99.5466L47.422 93.8851L34.0783 83.0726L34.6252 82.3955L48.0991 93.3382L53.297 102.291Z" fill="black"/>
<path d="M37.9219 98.9111L37.0781 98.8278C37.2448 97.0518 38.0052 94.2653 38.9375 91.9007C39.3594 90.8851 40.1615 89.0309 41.0052 88.2236L41.5938 88.8174C41.0885 89.3226 40.3698 90.5934 39.7396 92.2393C38.849 94.5622 38.0885 97.2653 37.9219 98.9111Z" fill="black"/>
<path d="M54.4377 102.161L48.396 93.5885L48.6929 93.3385C48.8595 93.2083 64.3595 79.7813 65.922 77.7969L66.5991 78.3021C65.0783 80.2031 51.7762 91.776 49.5783 93.6771L54.8179 101.068C58.2762 99.4583 64.3595 94.0104 65.7554 92.7031L66.3439 93.2969C64.8231 94.7708 58.4064 100.474 54.8595 101.953L54.4377 102.161Z" fill="black"/>
<path d="M9.1613 104.573L8.73942 104.104C8.60921 103.979 6.20296 101.359 5.27588 100.094L5.104 100.219L4.55713 99.5885L5.48421 98.8281L5.73942 99.25C6.07796 99.8854 7.89567 101.911 8.94775 103.052C9.6665 101.531 11.6925 97.6458 13.8905 96.8438L14.1873 97.6458C12.2446 98.3177 10.13 102.458 9.45817 103.979L9.1613 104.573Z" fill="black"/>
<path d="M17.099 110.442C16.4271 110.442 15.875 110.359 15.4948 110.229C14.9063 109.979 14.2292 109.218 13.5104 107.906C13.0469 107.104 12.6667 106.218 12.4115 105.625C11.651 106.599 10.0885 108.161 8.1875 107.567C5.65625 106.807 2.65625 102.583 2.65625 101.276H3.5C3.5 102.208 6.24479 106.135 8.44271 106.765C10.4688 107.359 12.1615 104.531 12.1615 104.531L12.625 103.771L12.9167 104.573C12.9167 104.573 13.5104 106.093 14.2292 107.442C15.0313 108.922 15.5365 109.302 15.7917 109.385C17.099 109.932 21.875 109.172 22.7604 107.484C23.5208 106.047 22.2083 101.994 21.6615 100.515L21.4479 99.9268H25.6719L25.7604 100.218C26.0104 101.021 26.901 103.26 27.8698 103.854C28.125 104.021 28.3333 104.021 28.5469 103.937C28.8854 103.771 29.0521 103.557 29.1354 103.177C29.4323 101.781 27.9948 99.0361 27.4062 97.8538C26.5625 96.2497 20.7344 96.0413 17.2292 96.2913L17.1406 95.4476C18.1146 95.3643 26.7708 94.8122 28.125 97.432C29.224 99.5882 30.2344 101.781 29.8958 103.302C29.7708 103.937 29.3906 104.401 28.8438 104.656C28.375 104.864 27.8698 104.823 27.3646 104.531C26.1406 103.812 25.2917 101.573 25 100.729H22.5885C23.1406 102.25 24.3646 106.093 23.4375 107.823C22.6771 109.552 19.3385 110.442 17.099 110.442Z" fill="black"/>
<path d="M11.6928 127.843C11.6511 125.646 12.073 122.015 12.875 118.083C13.6355 114.244 14.5261 111.073 15.2865 109.599L16.0469 109.979C15.3282 111.411 14.4375 114.453 13.724 118.213C12.9636 122.015 12.5417 125.687 12.5834 127.802L11.6928 127.843Z" fill="black"/>
<path d="M15.0314 131.474L14.6929 130.714C15.3283 130.25 16.4272 125.052 17.1408 121.594C17.8595 118.131 18.5783 114.834 19.172 113.526L19.8022 112.089L19.9741 113.61C20.2658 116.354 20.7762 119.604 21.9585 120.495C22.2085 120.703 22.4637 120.745 22.8022 120.745C24.0679 120.578 26.646 118.084 28.0835 115.933C28.4168 115.427 28.672 114.959 28.7554 114.709C29.1356 113.396 28.4637 112.511 27.995 112.089C27.9533 112.047 27.9116 112.047 27.87 112.006C26.8127 112.427 25.2085 114.453 24.6616 115.214L23.6043 116.735L23.9012 114.917C24.3231 112.427 23.6877 110.526 23.0575 108.709C22.9689 108.37 22.8439 108.078 22.7606 107.782L23.5627 107.526C23.646 107.823 23.771 108.12 23.8595 108.459C24.3647 109.933 24.9116 111.584 24.87 113.568C25.672 112.594 26.8543 111.328 27.8283 111.115L28.0366 111.073L28.2085 111.203C28.3335 111.287 28.4637 111.37 28.547 111.453C29.5575 112.386 29.896 113.651 29.5575 114.917C29.4325 115.381 29.0522 115.974 28.7554 116.396C27.4064 118.339 24.62 121.339 22.8856 121.547C22.3387 121.636 21.8283 121.464 21.4064 121.125C20.4793 120.365 19.8439 118.719 19.3804 115.511C18.9585 117.157 18.4533 119.438 17.9897 121.719C16.5939 128.224 15.8752 131.094 15.0314 131.474Z" fill="black"/>
<path d="M84 125.771C83.6198 125.771 83.2813 125.729 82.9844 125.646C82.7292 125.604 82.5208 125.479 82.3073 125.391C81.7604 125.099 81.1667 124.63 80.5781 124C79.7344 123.109 79.0156 122.099 78.6771 121.547C75.0052 123.828 72.6823 125.052 71.6667 125.141C68.5417 125.521 65.375 123.958 62.2917 120.536L62.0781 120.323L62.2083 120.073C62.2917 119.943 62.375 119.818 62.4583 119.646C63.1354 118.719 64.401 117.578 64.4427 117.495L64.6562 117.328L64.9115 117.411C65.7552 117.75 70.0208 118.932 71.1615 119.224C71.75 118.422 73.7344 116.016 76.6927 114.625C77.9167 114.031 79.1823 113.734 80.4115 113.693C82.4792 113.609 84.7604 114.37 86.7448 115.932C87.9271 116.818 88.9427 117.917 89.6146 119.057C89.8698 119.521 90.0781 119.943 90.2083 120.365C90.4583 121.167 90.4583 121.885 90.1667 122.437C88.9844 124.505 86.1094 125.771 84 125.771ZM79.3958 121.083C79.7344 121.594 80.4115 122.562 81.1667 123.406C81.7188 124 82.224 124.38 82.6875 124.63C82.8594 124.719 83.026 124.802 83.1979 124.844C85.0104 125.307 88.2656 124.083 89.4896 122.016C89.6562 121.677 89.6562 121.214 89.4896 120.62C89.3646 120.281 89.1927 119.859 88.9844 119.479C88.3906 118.464 87.4219 117.453 86.3229 116.609C84.4635 115.214 82.4375 114.453 80.5365 114.536C79.3958 114.578 78.2552 114.875 77.1146 115.427C73.8646 116.948 71.7917 119.943 71.75 119.984L71.5833 120.24L71.2865 120.156C71.0729 120.115 66.3854 118.844 64.9115 118.339C64.5313 118.677 63.6823 119.521 63.2188 120.198C63.1771 120.24 63.1771 120.24 63.1771 120.281C66.0469 123.406 68.7969 124.719 71.625 124.38C72.1302 124.339 73.6927 123.745 78.6354 120.661C80.4531 119.521 81.9271 118.552 81.9271 118.552L82.3958 119.271C82.3073 119.182 81.0417 120.026 79.3958 121.083Z" fill="black"/>
<path d="M76.521 143.724L71.2866 139.625L71.37 139.37C74.1147 129.615 78.6772 126.87 81.9741 124.844L82.2658 124.672L82.6877 125.391L82.396 125.562C79.0575 127.589 74.8752 130.12 72.2137 139.328L76.0158 142.328L78.4637 133.88L78.6356 133.797C80.6616 132.911 85.9845 128.896 86.0679 128.854L86.4064 128.604L86.6616 128.984C89.6564 133.25 91.5575 134.641 93.4585 133.797C95.9064 132.781 99.5418 128.896 99.6252 128.224C99.6252 128.094 99.6252 127.844 99.5002 127.464C99.245 126.615 98.6564 125.688 97.9793 125.01C97.9377 124.969 97.896 124.927 97.8491 124.885L93.2502 129.656L93.2085 128.729C93.0783 126.531 91.3491 124.547 90.2085 123.281C89.9533 122.984 89.6981 122.729 89.5314 122.479L90.2085 121.969C90.3752 122.182 90.5887 122.438 90.8856 122.729C91.9793 123.958 93.5418 125.688 94.0106 127.802L97.9793 123.745L98.2762 124C98.4429 124.125 98.5679 124.25 98.7397 124.422C99.5418 125.224 100.172 126.281 100.469 127.25C100.599 127.672 100.641 128.01 100.641 128.349C100.511 129.745 96.0366 133.755 93.9637 134.599C91.3075 135.698 88.9845 133.5 86.3647 129.828C85.1825 130.714 81.2137 133.583 79.3127 134.516L76.521 143.724Z" fill="black"/>
<path d="M88.8543 119.271C88.7293 117.198 87.9272 113.146 86.87 112.807C85.521 112.385 83.8283 112.766 81.2137 114.156L81.0418 114.245C80.9168 114.287 80.7866 114.37 80.6616 114.453L80.2397 113.734C80.3647 113.651 80.495 113.609 80.62 113.526L80.7866 113.438C83.62 111.922 85.521 111.495 87.1252 112.005C89.1929 112.682 89.6981 119.141 89.6981 119.182L88.8543 119.271Z" fill="black"/>
<path d="M86.1406 116.062L86.8333 114.614L87.599 114.984L86.901 116.427L86.1406 116.062Z" fill="black"/>
<path d="M75.3386 114.792C74.2865 114.792 73.7345 114.328 73.3959 113.948C72.9324 113.354 72.849 112.594 72.974 112.131C73.0157 111.964 72.974 111.709 72.9324 111.412V111.287C72.849 110.693 72.849 110.021 73.2292 109.386L73.4845 108.964L73.8647 109.302C74.4532 109.891 75.7188 109.891 76.1459 109.766L76.7345 109.599L76.6928 110.188C76.6928 110.485 76.8595 110.823 77.1147 111.073C77.4115 111.37 77.7917 111.542 78.0886 111.495L78.6772 111.453L78.5105 112.047C78.2136 113.104 77.7501 114.287 76.3542 114.667C76.0574 114.75 75.7657 114.792 75.3386 114.834C75.4272 114.792 75.3855 114.792 75.3386 114.792ZM73.823 110.229C73.7345 110.526 73.7761 110.865 73.823 111.162V111.287C73.8647 111.667 73.9063 111.964 73.823 112.302C73.7761 112.511 73.7761 113.016 74.073 113.396C74.3699 113.735 74.7917 113.907 75.4272 113.907C75.7188 113.907 75.974 113.865 76.1876 113.776C76.9897 113.568 77.3699 112.974 77.6199 112.214C77.2397 112.131 76.9011 111.922 76.5678 111.625C76.2709 111.328 76.0574 110.99 75.9324 110.61C75.3386 110.693 74.4949 110.61 73.823 110.229Z" fill="black"/>
<path d="M78.3801 112.255L77.9582 111.541C79.0572 110.906 79.7343 110.062 79.9426 108.922C79.6041 108.922 79.1405 108.88 78.5936 108.75L77.9166 108.625L78.5936 107.781C78.0884 107.698 77.453 107.526 76.7343 107.317C75.9739 107.104 74.5364 107.021 73.6093 107.609C73.1874 107.864 72.9322 108.244 72.8905 108.75L72.8489 108.963L72.6822 109.047C72.3853 109.218 72.2134 109.468 72.2551 109.765C72.302 110.187 72.7655 110.609 73.3957 110.823L73.1457 111.625C72.1718 111.286 71.4999 110.609 71.4114 109.849C71.3697 109.302 71.5832 108.791 72.0468 108.416C72.1718 107.781 72.552 107.229 73.1457 106.896C74.328 106.135 76.0989 106.26 76.9478 106.515C77.8332 106.765 78.7603 107.021 79.3541 106.979L80.3645 106.849L79.3957 108.036C79.8593 108.078 80.0728 108.036 80.2395 107.989L80.8749 107.739L80.8332 108.416C80.7447 110.146 79.9009 111.369 78.3801 112.255Z" fill="black"/>
<path d="M75.9688 114.458L76.6458 113.958L77.224 114.739L76.5417 115.239L75.9688 114.458Z" fill="black"/>
<path d="M77.9272 112.214L78.4012 111.516L81.2345 113.432L80.7606 114.13L77.9272 112.214Z" fill="black"/>
<path d="M103.469 130.755C102.542 130.755 102.114 129.786 101.781 129.026C101.609 128.646 101.443 128.266 101.271 128.135C100.765 127.714 100.005 127.802 100.005 127.802L99.9217 126.953C99.9634 126.953 101.062 126.828 101.823 127.505C102.114 127.755 102.328 128.224 102.542 128.729C102.792 129.318 103.005 129.745 103.255 129.911C104.057 127.333 101.651 123.958 100.932 123.026C100.427 123.281 99.3696 123.911 98.6978 125.01L97.979 124.589C99.0363 122.901 100.807 122.182 100.89 122.141L101.187 122.016L101.401 122.224C101.568 122.437 105.453 127.042 103.974 130.547L103.89 130.797H103.635C103.552 130.755 103.51 130.755 103.469 130.755Z" fill="black"/>
<mask id="mask1_5546_11427" style="mask-type:luminance" maskUnits="userSpaceOnUse" x="65" y="137" width="12" height="11">
<path d="M65.6665 137.667H76.3332V147.422H65.6665V137.667Z" fill="white"/>
</mask>
<g mask="url(#mask1_5546_11427)">
<path d="M73.1875 147.016L72.8906 146.849C70.2708 145.412 67.2344 141.865 66.6823 138.443L66.6406 138.104L66.9792 137.979C68.75 137.344 70.8646 139.458 70.9479 139.542C71.0312 139.625 71.3281 139.75 71.5833 139.792C71.75 139.792 71.8802 139.708 72.0052 139.583L72.6354 140.13C72.3854 140.469 72.0052 140.641 71.625 140.641C71.0729 140.641 70.6094 140.427 70.3594 140.13C69.9375 139.708 68.6667 138.651 67.6562 138.698C68.2865 141.609 70.7813 144.568 73.1042 145.958C73.9479 144.906 74.75 143.214 75.0469 142.245L75.849 142.495C75.5104 143.51 74.625 145.578 73.526 146.76L73.1875 147.016Z" fill="black"/>
</g>
<path d="M62.6717 120.281C61.7394 119.901 61.0675 119.604 60.6873 118.932C60.5571 118.718 60.5155 118.51 60.4321 118.297L61.2342 118.13C61.2759 118.297 61.3175 118.422 61.4061 118.552C61.6144 118.932 62.0363 119.182 62.9686 119.562L62.6717 120.281Z" fill="black"/>
<path d="M60.8958 119.141C60.2656 119.141 59.7135 118.802 59.4166 118.255C59.0364 117.578 59.2499 116.693 59.927 115.932C60.7291 115.047 61.6562 114.625 62.5416 114.792C63.5989 114.958 64.4843 115.932 65.2031 117.62L64.4426 117.958C63.8541 116.568 63.177 115.76 62.4166 115.635C61.6145 115.51 60.8958 116.141 60.5572 116.521C60.1354 116.99 59.9687 117.495 60.177 117.875C60.3489 118.172 60.6874 118.338 61.026 118.297L61.151 119.141C61.0676 119.141 60.9791 119.141 60.8958 119.141Z" fill="black"/>
<path d="M66.3854 127.755C62.1198 127.755 61.026 125.266 60.2656 123.448C60.0521 122.943 59.8385 122.437 59.5885 122.057C59.0365 121.255 53.5469 122.776 50.2552 123.661C46.6615 124.63 43.5833 125.521 42.4427 125.182C41.9323 125.052 41.7656 124.76 41.6823 124.547C41.3854 123.786 41.974 122.818 42.6094 121.76C42.9063 121.255 43.5833 120.156 43.4115 119.943C43.4115 119.943 43.2865 119.818 42.5677 119.901C41.5938 120.026 40.0781 120.364 38.3438 120.786C33.151 122.057 26.0104 123.745 22.5469 121.547L23.0156 120.833C26.1823 122.859 33.401 121.125 38.1302 119.984C39.9063 119.562 41.4271 119.182 42.4427 119.057C42.9896 119.016 43.75 118.974 44.0885 119.479C44.5104 120.156 43.9635 121.083 43.2865 122.182C42.8646 122.859 42.2708 123.87 42.3958 124.25C42.3958 124.25 42.4427 124.338 42.6094 124.38C43.5365 124.63 46.9583 123.703 49.9583 122.859C55.7865 121.255 59.4167 120.364 60.2188 121.588C60.5156 122.016 60.7292 122.562 60.9792 123.109C61.7396 124.885 62.6302 126.911 66.3438 126.911C66.4271 126.911 66.5156 126.911 66.599 126.911C69.1771 126.87 71.9635 125.729 74.4531 124.719C77.1146 123.62 79.4375 122.687 81 123.281L80.7031 124.083C79.4375 123.62 77.1979 124.547 74.7917 125.521C72.2552 126.573 69.3854 127.713 66.6406 127.802C66.5573 127.755 66.474 127.755 66.3854 127.755Z" fill="black"/>
<path d="M96.5 120.959C95.4427 120.959 94.6406 120.745 93.9219 120.537C92.6979 120.198 91.7708 119.943 90.0365 120.787L89.6562 120.026C91.6406 119.058 92.8698 119.354 94.1354 119.693C95.1042 119.943 96.0781 120.198 97.6406 119.985C98.6563 119.818 99.625 119.313 100.682 118.719C103.089 117.37 106.13 115.719 111.786 118.256L111.453 119.016C106.172 116.61 103.469 118.131 101.104 119.438C100.005 120.026 98.9896 120.62 97.8073 120.787C97.3021 120.959 96.8802 120.959 96.5 120.959Z" fill="black"/>
<path d="M15.2396 98.5729C14.7344 98.5729 14.2708 98.4063 13.8073 98.0677L13.6771 97.9844L13.5104 97.224C12.7917 97.1354 11.4844 96.5469 11.1458 93.7188C11.1042 93.5052 11.1042 93.2969 11.0625 93.0417V92.9167L11.1042 92.8281C11.651 91.8177 13.7656 91.099 13.849 91.099L14.1458 91.0156L14.3125 91.2656C14.651 91.776 15.0729 92.3646 15.2396 92.5781C15.4115 92.4896 15.6667 92.2396 15.9167 91.9844L16.1719 91.7344L16.4688 91.9427C17.0573 92.3229 17.4792 93.3802 17.3125 94.0521C17.2708 94.2656 17.1406 94.4323 17.0156 94.5625L17.7344 96.25V96.3333C17.651 97.0104 17.0573 97.9844 16.0885 98.4062C15.8333 98.4896 15.5365 98.5729 15.2396 98.5729ZM14.4375 97.4323C14.8594 97.7292 15.3281 97.7708 15.7917 97.6042C16.3802 97.349 16.8073 96.7552 16.9323 96.2917L15.9167 93.8854L16.5104 93.8438C16.5521 93.8438 16.5521 93.8438 16.5521 93.8438C16.5521 93.8438 16.5938 93.7604 16.5938 93.5885C16.5938 93.3385 16.4688 93.0417 16.3385 92.8281C15.6198 93.5052 15.2865 93.4219 15.1562 93.3802C15.0312 93.3385 14.7344 93.25 13.8906 91.9427C13.1719 92.1979 12.2865 92.6615 11.9896 93.0833C11.9896 93.25 12.0312 93.4219 12.0312 93.5469C12.2448 95.3646 12.9167 96.375 13.849 96.3333C13.974 96.3333 14.1458 96.2917 14.2708 96.2083C14.776 96 15.3698 95.6198 15.4531 95.1094L16.2969 95.2812C16.1719 96 15.5781 96.5885 14.6094 97.0104C14.526 97.0521 14.4375 97.0938 14.3542 97.0938L14.4375 97.4323Z" fill="black"/>
<path d="M17.3123 95.3648L16.5519 95.0262C16.7603 94.521 16.9321 92.6616 16.7186 92.0679C16.6353 91.8179 16.4269 91.4377 16.1717 91.0158C15.7915 90.5054 15.2394 89.9168 14.5675 90.1668L14.3957 90.2137L14.229 90.1252C13.0467 89.62 12.0728 90.5054 10.9738 91.646C10.6821 91.9429 10.4269 92.1981 10.2186 92.3648C10.5519 92.9585 11.5259 93.1252 11.5675 93.1668L11.4425 94.0106C11.354 94.0106 9.62484 93.7189 9.32796 92.2814L9.24463 91.9012L9.62484 91.8179C9.74984 91.7762 10.13 91.396 10.3853 91.0991C11.3123 90.1252 12.7082 88.6512 14.4373 89.3231C15.2863 89.1148 16.13 89.5783 16.8071 90.547C17.1405 91.0158 17.354 91.4793 17.479 91.8179C17.7759 92.62 17.5623 94.6877 17.3123 95.3648Z" fill="black"/>
<path d="M3.0366 101.739L2.9116 101.656C2.10952 101.192 1.55743 100.349 1.30743 99.2913L2.10952 99.1246C2.19285 99.5882 2.48973 100.349 3.1616 100.854C3.75535 100.64 4.13556 100.218 4.30222 99.885C4.13556 99.5048 4.30222 99.0778 4.43243 98.7861C4.55743 98.5309 4.64077 98.2757 4.64077 97.984C4.64077 97.7288 4.55743 97.5153 4.43243 97.4736C4.34389 97.4319 4.30222 97.4319 4.26056 97.4319L3.88035 97.6038L3.71368 97.2236C3.63035 97.0517 3.45848 96.8434 3.29181 96.8017C3.0366 96.7548 2.57306 97.135 2.31785 97.3903L2.15118 97.5153C2.06264 97.6038 1.85431 98.1923 2.06264 99.0778L1.26056 99.2496C1.09389 98.4475 1.09389 97.3486 1.5991 96.885L1.72931 96.7548C2.15118 96.3746 2.73973 95.8278 3.41681 95.9528C3.75535 95.9996 4.01056 96.208 4.26056 96.5465C4.43243 96.5465 4.64077 96.5882 4.81264 96.7132C5.02097 96.8434 5.40118 97.1819 5.44285 97.8955C5.48452 98.3642 5.31785 98.7861 5.19285 99.0778C5.02098 99.458 5.02097 99.5465 5.10431 99.6298L5.27618 99.8382L5.14597 100.093C4.97931 100.432 4.43243 101.359 3.20327 101.698L3.0366 101.739Z" fill="black"/>
<path d="M29.5572 108.203C29.5156 108.203 29.5156 108.203 29.5572 108.203C29.1354 108.203 28.7551 107.989 28.4166 107.609C28.2499 107.656 28.0833 107.698 27.8281 107.656C27.4895 107.567 27.1927 107.317 27.026 106.849C26.6874 106.047 26.9427 105.333 27.1093 104.823C27.151 104.656 27.2343 104.401 27.2343 104.359V104.317H27.6562L28.0833 104.276C28.1249 104.531 28.0364 104.823 27.9114 105.161C27.7447 105.625 27.5729 106.135 27.7864 106.599C27.8697 106.807 27.9531 106.896 27.9947 106.896C28.0364 106.896 28.1666 106.849 28.2083 106.807L28.5885 106.474L28.8437 106.896C29.0104 107.146 29.2239 107.442 29.5156 107.442C29.8124 107.442 30.1093 107.187 30.4895 106.682C31.0364 105.88 30.6562 104.994 29.2656 103.682L29.8124 103.052C30.5312 103.682 32.3906 105.416 31.1666 107.146C30.6562 107.823 30.1093 108.203 29.5572 108.203Z" fill="black"/>
<path d="M2.19287 99.7972C1.85433 99.7972 1.55745 99.6722 1.34912 99.4587L1.68766 99.2087L1.97933 98.9118L2.021 98.9535C2.06266 98.9951 2.44287 98.9951 2.86995 98.7868C3.16162 98.6149 3.79704 98.1097 3.67204 97.0941L4.51579 97.0107C4.68245 98.4482 3.79704 99.3337 2.99495 99.6722C2.69808 99.7555 2.44287 99.7972 2.19287 99.7972Z" fill="black"/>
<path d="M13.6355 133.459C12.5834 133.459 11.2709 132.36 10.3855 131.308C9.96365 130.797 8.69802 129.11 9.03135 127.928C9.11989 127.672 9.24489 127.506 9.41156 127.334C10.047 126.829 11.1043 126.87 12.2866 127.506C13.3439 128.053 14.3543 128.985 14.8595 129.912C14.9897 130.12 15.1564 130.589 15.2397 131.053C15.4116 132.068 15.1564 132.823 14.5261 133.204C14.3126 133.334 14.0574 133.417 13.7657 133.459C13.7241 133.417 13.6772 133.459 13.6355 133.459ZM10.5105 127.844C10.2605 127.844 10.0886 127.886 9.92198 128.011C9.88031 128.053 9.83864 128.094 9.79177 128.178C9.6251 128.688 10.1303 129.745 10.9741 130.756C11.9064 131.896 13.047 132.657 13.6772 132.615C13.8491 132.615 13.9741 132.573 14.1043 132.49C14.5261 132.235 14.4845 131.558 14.4376 131.178C14.3543 130.756 14.2293 130.417 14.1876 130.292C13.7657 129.532 12.8751 128.688 11.948 128.224C11.4011 127.969 10.8907 127.844 10.5105 127.844Z" fill="black"/>
<path d="M13.8906 132.911C13.4271 130.927 10.4271 128.515 9.36979 128.432H9.32812L9.36979 128.224V127.63C9.36979 127.63 9.41146 127.63 9.45833 127.63C10.9323 127.802 14.1875 130.416 14.6927 132.739L13.8906 132.911Z" fill="black"/>
<path d="M30.2759 119.015C29.1353 119.015 28.1665 116.989 27.9946 116.27L28.8436 116.098C28.9686 116.859 29.9373 118.213 30.2759 118.171C30.5311 118.13 30.953 117.411 30.7394 114.916C30.6561 113.567 29.979 112.255 29.3071 111.963C29.1353 111.921 28.8853 111.833 28.5884 112.13L28.0363 111.494C28.505 111.072 29.0936 110.947 29.6457 111.161C30.6561 111.583 31.4998 113.104 31.63 114.833C31.8384 117.494 31.4582 118.843 30.4478 118.973C30.3592 119.015 30.3175 119.015 30.2759 119.015Z" fill="black"/>
<path d="M21.7448 88.182C21.6614 88.182 21.5364 88.182 21.4479 88.182H21.2396L21.1146 88.0153C19.8021 86.0309 18.75 81.1299 19.0416 79.4424L19.8854 79.5674C19.6354 81.0465 20.6041 85.4372 21.7448 87.3799C22.4218 87.3799 23.5208 87.2132 24.3229 86.9163L24.6198 87.7184C23.7708 87.9736 22.5885 88.182 21.7448 88.182Z" fill="black"/>
<path d="M57.0936 112.047C56.7603 112.047 56.3332 112.005 55.8697 111.922C55.1092 111.75 54.2655 111.453 53.3801 110.989C52.0259 110.312 51.0155 109.51 50.3801 108.625C49.4113 107.276 49.5363 106.177 49.6197 105.755C49.7447 105.286 49.9582 104.906 50.2967 104.739L50.6769 105.5C50.6353 105.541 50.5051 105.666 50.4217 105.963C50.3384 106.26 50.2551 107.104 51.0155 108.161C51.604 108.963 52.4947 109.682 53.7186 110.271C54.5624 110.692 55.3228 110.989 55.9999 111.114C57.604 111.453 58.2342 110.948 58.2342 110.948L58.7863 111.583C58.7863 111.625 58.2342 112.047 57.0936 112.047Z" fill="black"/>
<path d="M55.9532 111.922V111.495H55.5313V111.287L55.7032 111.162C56 110.948 56.0417 110.782 56.0417 110.61C56 109.766 54.5625 108.459 53.8021 107.99C53 107.526 51.6459 107.36 51.1823 107.698C51.1407 107.74 50.974 107.865 51.099 108.204L50.2969 108.459C50.0417 107.657 50.4219 107.23 50.6771 107.021C51.5625 106.344 53.3386 106.683 54.224 107.23C54.7292 107.526 56.8438 109.089 56.8438 110.526C56.8438 110.823 56.7605 111.287 56.3334 111.625V111.834L55.9532 111.922Z" fill="black"/>
<path d="M148.984 74.7188L159.469 33.9375L160.286 34.1458L149.802 74.9271L148.984 74.7188Z" fill="black"/>
<path d="M159.474 33.943L164.516 14.3076L165.333 14.516L160.297 34.1514L159.474 33.943Z" fill="black"/>
<mask id="mask2_5546_11427" style="mask-type:luminance" maskUnits="userSpaceOnUse" x="161" y="0" width="9" height="13">
<path d="M161.667 0.421875H169.667V12.3333H161.667V0.421875Z" fill="white"/>
</mask>
<g mask="url(#mask2_5546_11427)">
<path d="M165.974 11.8232L165.172 11.6566L167.411 2.95866L165.766 2.32324L163.484 11.2347L162.641 11.0212L165.172 1.18262L168.38 2.44824L165.974 11.8232Z" fill="black"/>
</g>
<path d="M146.312 74.3802L161.984 13.6562L162.802 13.8646L147.13 74.5938L146.312 74.3802Z" fill="black"/>
<path d="M177.083 17.8232L149.844 11.1097L151.109 7.72949L178.141 14.4014L177.083 17.8232ZM150.938 10.516L176.531 16.8076L177.083 15.0368L151.615 8.74512L150.938 10.516Z" fill="black"/>
<path d="M154.443 24.75C153.052 24.75 151.739 24.5781 151.026 24.1146C150.432 23.7344 150.307 23.2708 150.307 22.9323C150.307 22.3438 150.604 21.75 151.234 21.2031C153.302 19.3021 158.417 18.0313 161.161 18.2865L161.078 19.1302C158.583 18.8802 153.682 20.1042 151.828 21.8333C151.406 22.2135 151.193 22.5938 151.193 22.9323C151.193 23.0573 151.234 23.2292 151.531 23.4375C153.135 24.4948 159.047 23.651 159.724 23.3542L160.062 24.1146C159.599 24.2396 156.896 24.75 154.443 24.75Z" fill="black"/>
<path d="M131.089 102.88C130.542 102.88 130.162 102.755 129.906 102.459C129.698 102.209 129.651 101.953 129.651 101.656C128.136 102.334 127.162 102.375 126.74 101.781C126.276 101.11 126.865 100.052 127.667 99.3336C128.302 98.7867 129.74 98.2346 131.219 97.6877C132.401 97.2659 134.344 96.5055 134.552 96.0836C134.552 96.0836 134.552 96.0419 134.511 96.0419C134.047 95.62 132.99 95.9117 131.974 96.1669C130.625 96.5055 128.896 96.9273 128.344 95.4482C128.219 95.1513 128.177 94.8596 128.219 94.5627C128.302 93.9273 128.682 93.3388 129.401 92.87C130.287 92.2815 131.641 91.943 132.61 92.0263C132.651 91.5627 132.823 91.1409 133.203 90.844C133.917 90.2555 135.057 90.2555 135.735 90.5471C136.37 90.8023 138.141 91.0575 138.901 91.0159C138.563 90.7607 138.057 90.4638 137.511 90.1252C135.818 89.1565 133.667 87.9325 134.297 86.2398C134.552 85.5211 135.188 85.0575 136.115 84.8909C137.297 84.6773 138.86 85.0159 139.792 85.6096C140 84.9325 140.339 84.5107 140.844 84.2555C141.943 83.7502 143.677 84.2971 145.959 85.9482L145.49 86.62C143.547 85.2711 141.985 84.6773 141.224 85.0159C140.844 85.1877 140.594 85.6513 140.505 86.4117L140.422 87.4221L139.792 86.6617C139.37 86.1148 137.594 85.5211 136.287 85.7346C135.651 85.818 135.271 86.1148 135.104 86.5367C134.724 87.594 136.495 88.6044 137.932 89.4117C138.563 89.7867 139.156 90.1252 139.578 90.4638C140.084 90.9273 140 91.2659 139.917 91.4377C139.37 92.3232 135.818 91.4794 135.438 91.3075C134.974 91.0992 134.172 91.1409 133.75 91.4794C133.495 91.6877 133.412 91.9846 133.495 92.4482L133.625 93.1252L132.948 92.9169C132.271 92.7034 130.839 92.9586 129.865 93.5471C129.526 93.7607 129.104 94.1409 129.063 94.6044C129.063 94.7711 129.063 94.943 129.104 95.1096C129.36 95.8284 130.287 95.6617 131.724 95.3232C132.948 95.0263 134.214 94.6877 135.016 95.4065C135.354 95.7034 135.354 96.0419 135.354 96.2086C135.188 97.0107 133.792 97.6044 131.469 98.4482C130.12 98.9534 128.724 99.4586 128.177 99.9273C127.5 100.516 127.328 101.151 127.417 101.235C127.417 101.235 127.88 101.615 130.078 100.433L131.089 99.8857L130.667 100.938C130.412 101.615 130.5 101.781 130.542 101.828C130.584 101.87 130.922 102.162 132.693 101.698C133.964 101.36 135.146 100.729 136.412 100.052C138.099 99.1669 139.792 98.2346 141.985 97.7711L142.662 97.6461L142.495 98.318C142.365 98.745 142.406 99.0784 142.537 99.2502C142.959 99.7555 144.604 99.5888 145.11 99.5471L145.198 100.391C143.927 100.516 142.537 100.558 141.901 99.7971C141.693 99.5471 141.563 99.1669 141.563 98.7867C139.75 99.2502 138.271 100.052 136.792 100.813C135.485 101.531 134.255 102.162 132.906 102.542C132.188 102.755 131.552 102.88 131.089 102.88Z" fill="black"/>
<path d="M145.239 100.432L145.151 99.5882C145.828 99.5049 146.588 99.4163 147.39 99.2913C148.364 99.1663 149.333 98.9945 150.265 98.9111L150.349 99.7549C149.463 99.8382 148.489 99.9684 147.521 100.135C146.672 100.265 145.911 100.349 145.239 100.432Z" fill="black"/>
<path d="M152.922 105.333C152.375 105.333 151.828 105.203 151.656 104.698C151.359 103.979 152.167 102.964 153.094 102.458C153.557 102.208 153.979 101.74 154.151 101.318C154.276 100.979 154.276 100.687 154.109 100.474C153.813 100.01 153.01 99.7552 151.786 99.6719C151.359 99.6719 150.896 99.6719 150.307 99.7135L150.266 98.8698C150.896 98.8281 151.406 98.8281 151.87 98.8281C153.391 98.9115 154.359 99.2917 154.823 100.01C155.12 100.474 155.161 101.021 154.953 101.615C154.698 102.25 154.193 102.839 153.516 103.177C152.755 103.599 152.417 104.234 152.458 104.359C152.458 104.359 152.755 104.656 154.443 104.193L154.656 104.995C154.276 105.161 153.599 105.333 152.922 105.333Z" fill="black"/>
<path d="M168.594 124.719C167.536 124.719 166.859 124.083 166.526 123.406C166.187 122.688 166.229 121.76 166.734 120.958C166.651 121 166.526 121 166.437 121.042C165.635 121.255 164.625 121.505 163.526 121.719C162.26 121.969 161.667 121.594 161.37 121.255C160.989 120.833 160.948 120.198 161.203 119.562C161.583 118.719 162.427 118.13 163.401 118.042C164.156 118 164.625 117.62 164.75 117.073C164.917 116.354 164.495 115.51 163.693 115.005C163.312 114.792 162.807 114.536 162.172 114.245C160.146 113.312 157.146 111.922 156.724 109.089C155.203 109.641 153.896 109.552 153.26 108.75C152.969 108.417 152.838 107.948 152.922 107.443C153.01 106.641 153.557 105.714 154.443 104.781L154.318 104.234C154.698 104.151 155.12 104.021 155.583 103.854L157.995 103.01L156.005 104.615C154.698 105.667 153.896 106.724 153.812 107.568C153.771 107.865 153.854 108.078 153.979 108.245C154.359 108.708 155.417 108.839 156.979 108.12L157.568 107.823V108.5C157.568 111.203 160.443 112.552 162.552 113.526C163.187 113.818 163.734 114.073 164.156 114.328C165.255 115.005 165.849 116.229 165.594 117.281C165.385 118.214 164.583 118.802 163.484 118.891C162.682 118.932 162.172 119.479 162.005 119.901C161.88 120.24 161.88 120.536 162.047 120.745C162.26 121 162.724 121.083 163.401 120.958C164.453 120.745 165.469 120.495 166.271 120.281C168 119.859 168.255 119.776 168.469 120.198C168.635 120.578 168.255 120.833 168.042 120.958C167.156 121.547 167.031 122.479 167.328 123.109C167.578 123.661 168.213 124.125 169.229 123.828C170.114 123.578 171.083 122.818 172.099 121.635L172.224 121.464H172.437C182.911 121.885 185.531 120.833 185.911 119.901C186.245 118.974 184.391 117.411 183.036 116.229C182.489 115.76 181.979 115.339 181.557 114.917C180.838 114.198 180.885 113.651 181.052 113.312C182.318 110.693 196.594 112.427 196.766 112.427C203.604 113.271 209.984 110.271 211.292 105.583C211.885 103.557 212.135 98.3646 202.125 93.8021C186.583 86.75 185.781 67.276 185.151 51.651C184.979 47.3854 184.812 43.3333 184.349 39.8698C183.969 37.0833 183.458 34.9688 182.739 33.3229C177.885 22.1719 166.057 19.4687 163.734 19.0469L163.906 18.2031C166.312 18.625 178.516 21.4115 183.542 32.9427C184.26 34.6302 184.812 36.8281 185.193 39.6979C185.656 43.1615 185.823 47.2188 185.995 51.526C186.625 66.9427 187.427 86.1146 202.463 92.9583C213.068 97.7708 212.729 103.516 212.094 105.755C210.656 110.823 203.859 114.115 196.635 113.188C189.417 112.302 182.318 112.469 181.812 113.609C181.729 113.818 182.026 114.115 182.151 114.245C182.531 114.625 183.036 115.047 183.542 115.51C185.276 116.99 187.219 118.635 186.667 120.115C186.203 121.339 184.177 122.646 172.604 122.224C171.552 123.448 170.495 124.25 169.479 124.547C169.141 124.672 168.849 124.719 168.594 124.719Z" fill="black"/>
<path d="M184.39 40.0364L184.349 39.9114C183.078 34.7603 178.896 33.9114 175.901 33.3228C175.182 33.1978 174.547 33.0259 174.042 32.8593C172.479 32.3072 170.875 30.578 171.213 29.2655C171.422 28.5051 172.265 27.7499 175.057 28.0832C173.745 27.1978 171.422 26.2291 169.521 26.3124C169.271 26.3124 169.057 26.3124 168.802 26.3124C167.37 26.2291 165.849 25.552 165.849 24.6197C165.849 24.328 165.974 24.1145 166.187 23.9061C165.255 23.7759 163.948 23.7343 162.64 23.9478L162.51 23.1041C165.385 22.6353 167.958 23.3124 168.042 23.3541L170.156 23.9478L168 24.1561C166.859 24.2864 166.693 24.5364 166.693 24.5364C166.734 24.7082 167.495 25.2968 168.89 25.3801C169.099 25.3801 169.312 25.3801 169.521 25.3801C172.307 25.2134 175.943 27.1145 176.745 28.3801L177.25 29.1822L176.323 29.0155C173.406 28.4634 172.224 28.8436 172.099 29.3957C171.885 30.1561 173.156 31.5468 174.38 31.9686C174.844 32.1405 175.437 32.2655 176.151 32.3905C179.193 33.0259 183.838 33.9582 185.276 39.6145V39.6978H184.896L184.39 40.0364Z" fill="black"/>
<path d="M160.021 34.4632C159.979 34.4632 159.891 34.4632 159.849 34.4632V33.6195C161.75 33.6611 164.75 32.6872 166.61 30.7028C167.917 29.3538 168.511 27.7497 168.339 25.932L169.182 25.8486C169.354 27.8747 168.677 29.7757 167.198 31.2549C165.255 33.4059 162.13 34.4632 160.021 34.4632Z" fill="black"/>
<path d="M37.479 12.9792L38.3123 12.8438L44.1925 48.474L43.3592 48.6094L37.479 12.9792Z" fill="black"/>
<path d="M35.2603 11.3597L34.1196 4.30762H36.9061L38.005 10.9378L37.1613 11.1097L36.1873 5.15137H35.1353L36.0623 11.2347L35.2603 11.3597Z" fill="black"/>
<path d="M35.5415 13.2868L36.3748 13.1514L41.7394 47.1514L40.9061 47.2868L35.5415 13.2868Z" fill="black"/>
<path d="M26.1825 15.0785L25.8022 12.3337L47.3804 9.12012L47.8022 11.8701L26.1825 15.0785ZM26.7293 13.0524L26.9012 14.1045L46.8335 11.1514L46.6616 10.0941L26.7293 13.0524Z" fill="black"/>
<path d="M115.589 93.6774C115.042 93.6774 114.578 93.6305 114.109 93.5889C113.688 93.5472 113.307 93.4639 112.969 93.3389C111.786 92.9587 111.026 91.9847 110.943 90.6357C110.818 88.7347 112.042 86.1566 115.167 84.6357L115.547 85.3962C112.802 86.7503 111.703 89.0316 111.786 90.5472C111.875 91.5212 112.38 92.1982 113.224 92.4899C113.521 92.5785 113.859 92.6618 114.24 92.7035C117.193 93.1253 122.26 92.1097 126.104 89.2816L126.318 89.1566L133.328 92.1097L132.99 92.8701L126.401 90.0837C122.938 92.5368 118.672 93.6774 115.589 93.6774Z" fill="black"/>
<path d="M115.125 85.3962C113.86 84.8076 111.833 83.8337 111.662 83.792L111.787 83.4118L111.745 82.9482C111.917 82.9482 111.917 82.9482 115.464 84.6357L115.125 85.3962Z" fill="black"/>
<path d="M146.927 110.782C145.661 110.782 144.39 110.568 143.255 110.104C141.901 109.552 141.14 108.328 141.099 106.641C141.015 104.063 142.661 101.068 144.942 99.6305L145.026 99.5889H145.151V100.011L145.364 100.349C143.338 101.615 141.859 104.318 141.942 106.599C141.984 107.526 142.281 108.75 143.588 109.302C146.844 110.61 150.979 109.599 153.474 108.12L153.896 108.839C152.12 109.933 149.505 110.782 146.927 110.782Z" fill="black"/>
<path d="M141.86 106.979L141.099 106.64C141.099 106.599 141.141 106.557 141.141 106.474C142.448 103.302 144.016 100.557 150.052 98.9528L150.094 98.9111H150.266V99.333L150.557 99.6299L150.474 99.7132L150.349 99.7549C144.563 101.276 143.167 103.724 141.901 106.807C141.901 106.849 141.901 106.937 141.86 106.979Z" fill="black"/>
<path d="M147.094 108.417C146 108.417 145.198 108.162 144.729 107.698C144.349 107.318 144.182 106.807 144.224 106.177C144.349 104.573 146 102.755 146.802 102.162C147.813 101.401 153.177 99.4585 154.823 101.235L154.193 101.828C153.052 100.599 148.281 102.12 147.266 102.88C146.547 103.432 145.109 105.037 145.026 106.302C144.984 106.682 145.068 106.938 145.281 107.146C145.578 107.443 146.292 107.656 147.141 107.61C149.167 107.568 152.12 106.599 154.151 104.401L154.74 104.995C152.547 107.36 149.333 108.417 147.094 108.459C147.141 108.417 147.141 108.417 147.094 108.417Z" fill="black"/>
<path d="M125.26 90.2137C124.078 90.2137 123.193 89.7866 122.812 89.0314C122.432 88.2241 122.687 87.297 123.531 86.4116C122.557 86.3699 120.531 86.6616 116.307 88.0158C115.969 88.0991 115.719 88.1824 115.463 88.2241L115.292 87.3804C115.505 87.3387 115.76 87.297 116.052 87.2137C123.109 85.0158 124.292 85.6095 124.672 85.7762L125.26 86.0731L124.713 86.4949C123.698 87.2554 123.276 88.0991 123.531 88.6512C123.781 89.1564 124.713 89.5783 126.234 89.2397L126.401 90.0418C126.021 90.1668 125.599 90.2137 125.26 90.2137Z" fill="black"/>
<path d="M114.828 88.2708C114.448 88.2708 114.026 88.1823 113.818 87.8021C113.604 87.4219 113.479 86.7083 114.958 84.7656L115 84.7188L115.292 85.0573L115.63 85.3125C114.536 86.75 114.489 87.3385 114.536 87.3802C114.536 87.4219 114.745 87.4687 115.292 87.3802L115.463 88.224C115.338 88.224 115.083 88.2708 114.828 88.2708Z" fill="black"/>
<path d="M116.604 91.3076C115.38 91.3076 114.536 91.016 114.156 90.7191C113.604 90.2555 113.521 89.7868 113.562 89.4535C113.604 88.7764 114.109 88.141 115.125 87.4222L115.208 87.3389H115.338V87.7607L115.547 88.0993C114.536 88.7764 114.365 89.2399 114.323 89.4535C114.323 89.5368 114.323 89.7451 114.62 90.042C114.958 90.3389 117.911 91.266 122.854 88.4378L123.276 89.1566C120.573 90.8024 118.25 91.3076 116.604 91.3076Z" fill="black"/>
<path d="M106.594 101.995L105.792 101.782L106.552 98.6566C105.667 97.9847 102.583 95.5316 101.823 93.3805L101.781 93.3389V93.2087H102.203L102.583 93.042V93.0837C103.344 95.2816 107.229 98.1097 107.271 98.1514L107.479 98.318L106.594 101.995Z" fill="black"/>
<path d="M146.042 127.505C145.323 123.448 140.422 114.792 137.552 112.51C135.776 112.974 123.443 116.141 120.698 116.354H120.615L120.532 116.312C120.49 116.312 116.224 114.667 112.719 112.807C110.438 111.583 109 110.568 108.282 109.682C106.13 106.896 107.188 100.01 108.323 98.9948L108.537 98.8281L137.891 111.708C140.886 113.906 146.084 122.984 146.844 127.333L146.042 127.505ZM108.75 99.8385C107.99 101.151 107.099 106.807 108.959 109.172C109.552 109.932 110.943 110.906 113.099 112.047C116.266 113.734 120.068 115.214 120.698 115.469C123.193 115.214 132.948 112.766 136.328 111.922L108.75 99.8385Z" fill="black"/>
<path d="M129.188 128.474C127.667 124.927 120.365 116.312 120.318 116.229L120.953 115.677C121.25 116.057 128.386 124.505 129.948 128.135L129.188 128.474Z" fill="black"/>
<path d="M113.266 112.682L112.547 112.255C112.589 112.214 115.208 107.99 118.672 103.641C122.474 98.8698 125.812 95.7031 128.516 94.2656L128.896 95.026C126.276 96.4219 123.021 99.5052 119.307 104.193C115.885 108.5 113.266 112.635 113.266 112.682Z" fill="black"/>
<path d="M109 99.5049L108.24 99.1663C108.281 99.0361 109.802 95.6611 113.943 92.7861L114.406 93.4632C110.479 96.208 109 99.458 109 99.5049Z" fill="black"/>
<path d="M156.938 119.776L152.078 113.146L152.63 112.974C153.641 112.636 156.385 111.792 156.896 111.542L157.234 111.37L161.75 118.256L156.938 119.776ZM153.432 113.61L157.234 118.802L160.401 117.792L156.896 112.427C156.094 112.766 154.359 113.313 153.432 113.61Z" fill="black"/>
<path d="M162.766 131.261L162.047 128.433L162.427 128.308C162.594 128.266 164.411 127.506 165.635 127.042L166.057 126.87L167.411 130.459L166.609 130.756L165.552 127.969C164.917 128.224 163.693 128.688 163.062 128.938L163.609 131.052L162.766 131.261Z" fill="black"/>
<path d="M11.1457 118.802C8.6509 118.802 5.99465 118.041 4.93736 116.609C4.51548 116.015 4.17694 115.088 4.97903 113.864L5.02069 113.776L5.65611 113.396C7.93736 112.005 13.2967 108.708 13.5103 107.567L13.9322 107.656H14.354V107.739C14.1457 109.088 10.3436 111.541 6.11965 114.114L5.65611 114.369C5.2759 115.005 5.2759 115.593 5.65611 116.099C6.66652 117.578 10.3853 118.338 13.2134 117.703L13.3853 118.552C12.6665 118.718 11.9061 118.802 11.1457 118.802Z" fill="black"/>
<path d="M26.0938 63.6878L25.7135 63.5212H25.2917V63.4378L25.3385 63.3493C26.7292 60.6045 26.6875 54.9482 23.901 49.4535C22.3385 46.417 20.3542 44.4743 18.4531 44.1357L18.5781 43.292C20.776 43.6722 22.9271 45.6982 24.6198 49.0785C26.8542 53.3857 28.0833 59.8024 26.0938 63.6878Z" fill="black"/>
<path d="M16.9323 90.8439L16.0886 90.7189C16.6771 86.37 12.2448 81.9325 6.32817 81.047C3.11984 80.5835 2.44276 78.8075 2.31776 78.047C2.10942 76.8647 2.61463 75.5991 3.63026 75.0054C4.55734 74.4585 5.69797 74.5835 6.66672 75.3856C8.9063 77.0366 14.7344 78.8908 17.099 77.12L17.6094 77.797C16.3803 78.7241 14.3125 78.9377 11.7344 78.3856C9.66672 77.922 7.4688 77.0366 6.16151 76.0627C5.44276 75.4741 4.72401 75.3439 4.0938 75.7241C3.41672 76.146 3.03651 77.0366 3.16151 77.8804C3.37505 79.0627 4.59901 79.9064 6.45838 80.2033C12.7917 81.2137 17.5625 86.0731 16.9323 90.8439Z" fill="black"/>
<path d="M36.3177 109.219C35.8542 109.219 35.3021 109.172 34.6719 109.047L34.7969 108.203C36.1458 108.459 36.9948 108.417 37.4583 108.078C37.8385 107.823 37.9219 107.318 38.0052 106.516C38.2187 104.995 38.4687 102.922 42.0625 101.87L42.3125 102.672C39.2708 103.558 39.0625 105.203 38.849 106.641C38.724 107.485 38.6406 108.287 37.9635 108.797C37.5833 109.089 37.0781 109.219 36.3177 109.219Z" fill="black"/>
<path d="M169.776 57.057L169.182 56.4215C171.338 54.4372 173.703 46.2445 172.224 41.5986L173.026 41.3486C174.63 46.3278 172.099 54.9059 169.776 57.057Z" fill="black"/>
<path d="M109.042 41.474H108.198C108.198 38.0937 104.484 30.6615 99.9219 27.875L100.344 27.1562C105.286 30.1979 109.042 37.9271 109.042 41.474Z" fill="black"/>
<path d="M93.2083 93.8857L92.401 93.5889C93.3333 91.1826 92.5729 86.1982 90.6719 81.9326C89.0677 78.3857 86.9531 76.0212 84.7188 75.2191L85.0104 74.417C87.4635 75.3024 89.7448 77.8389 91.4323 81.5524C93.5 86.0732 94.2188 91.2243 93.2083 93.8857Z" fill="black"/>
<path d="M16.8905 67.234L13.7655 66.1403C8.56762 64.3642 5.69783 60.984 5.57283 58.5778C5.52595 57.5622 5.95303 56.7601 6.75512 56.3799C7.64053 55.958 8.44262 55.8747 9.16137 56.1715C10.7239 56.8486 11.4426 59.1247 12.1614 61.3642C12.7082 63.0986 13.2968 64.8695 14.1457 65.4215L16.8905 67.234ZM8.22908 56.8017C7.89574 56.8017 7.51553 56.8903 7.13533 57.0986C6.62491 57.3538 6.37491 57.8174 6.41658 58.4945C6.54158 60.3538 8.69783 63.0101 12.5832 64.7445C12.1145 63.859 11.7343 62.7184 11.3541 61.5778C10.7239 59.5517 10.0051 57.4372 8.82283 56.8903C8.60928 56.8486 8.44262 56.8017 8.22908 56.8017Z" fill="black"/>
<path d="M22.4636 22.4267L19.6354 20.6923C18.75 20.1455 16.8906 20.3538 15.1146 20.609C12.7917 20.9059 10.3854 21.1611 9.16148 20.0621C8.60939 19.5517 8.31773 18.7913 8.35939 17.8225C8.40106 16.8955 8.90627 16.1767 9.88023 15.7965C12.1146 14.8642 16.3802 16.0465 20.1823 20.0205L22.4636 22.4267ZM11.4844 16.3017C10.974 16.3017 10.5521 16.385 10.1719 16.5152C9.54168 16.7652 9.24481 17.1871 9.20314 17.7809C9.20314 18.5413 9.36981 19.0465 9.75002 19.385C10.724 20.2705 12.9167 20.0205 15.0313 19.7236C16.2552 19.5986 17.4375 19.4267 18.4115 19.51C15.9167 17.3173 13.3438 16.3017 11.4844 16.3017Z" fill="black"/>
</svg>
