<svg width="220" height="145" viewBox="0 0 220 145" fill="none" xmlns="http://www.w3.org/2000/svg">
<path d="M121.68 31.5793C122.607 31.5793 125.039 31.621 128.393 31.6731C135.477 31.7877 146.044 31.9543 154.435 31.9543C160.747 31.9543 165.831 31.8554 167.258 31.5689C168.513 31.3189 168.925 30.7304 169.055 30.2773C169.237 29.621 168.919 28.8606 168.18 28.1887C166.706 26.845 163.768 25.9231 160.524 26.8137C160.654 26.3033 160.685 25.7304 160.617 25.1523C165.242 25.1471 197.388 25.0898 201.195 24.1731C202.107 23.9543 202.393 23.5064 202.471 23.1679C202.56 22.7773 202.466 22.1471 201.492 21.3346C199.258 19.4752 193.878 17.8085 189.513 19.2877C189.732 16.6991 187.617 14.1106 184.18 12.9127C179.393 11.2512 173.284 12.621 170.133 19.2981C169.607 18.8606 168.836 18.595 168.081 18.6366C167.388 18.6731 166.169 19.0012 165.341 20.6679C164.878 20.3762 164.227 20.2252 163.497 20.2564C162.211 20.2981 160.524 20.8971 159.388 22.4075C158.711 21.6783 157.529 20.9231 155.617 21.1418C156.914 19.0585 157.003 16.6887 155.82 14.6262C154.164 11.7512 150.487 10.3398 146.451 11.0273C140.638 12.0221 136.06 17.0377 135.185 23.1939C134.383 22.4752 133.112 22.1991 131.758 22.5325C129.925 22.9908 128.263 24.5741 128.44 27.1418C123.633 26.5898 120.497 27.7043 119.508 29.1106C119.154 29.6158 119.086 30.1418 119.32 30.595C119.638 31.2356 120.477 31.5793 121.68 31.5793Z" fill="black"/>
<path d="M219.268 103.855C219.05 103.189 218.289 102.527 215.878 103.173L215.805 103.199C215.435 103.376 215.034 103.538 214.596 103.678V75.5585H201.477V63.1366H182.638V49.3554H159.857V68.5845H139.617V82.2616H121.471V101.064C109.758 105.116 100.039 106.553 91.7631 105.465C78.6329 99.496 68.6954 88.4335 63.7735 74.2981C59.6485 62.4439 59.56 49.7616 63.5496 41.9543C66.9558 38.647 73.0444 35.4022 77.6798 35.8554C86.0548 36.6835 89.5548 40.4647 92.9402 44.1262C94.9506 46.3033 96.8517 48.3606 99.6589 49.6731C100.529 50.0845 101.195 50.2304 101.701 50.2304C102.279 50.2304 102.654 50.0377 102.893 49.8137C103.294 49.4335 103.451 48.8397 103.336 48.1314C105.466 48.9074 106.477 48.0949 106.909 47.4908C108.195 45.6835 107.268 41.7668 105.055 39.1991C105.617 38.897 106.013 38.2564 106.133 37.397C106.55 34.3241 103.013 25.2252 81.9923 19.9699C81.3464 18.1418 79.8725 16.2095 77.9506 14.621C79.2319 14.6679 79.9819 14.2616 80.4246 13.8345C81.1746 13.1054 81.3933 11.9335 81.0339 10.5376C80.1485 7.10536 75.9454 2.51161 68.7839 0.532441C61.9975 -1.34256 46.5808 1.62619 35.2839 12.0793C30.4298 16.5689 26.0444 22.0637 21.7996 27.3762C15.0287 35.8658 8.6329 43.8814 1.6329 45.9439L0.42978 46.3033L1.59124 46.772C2.30478 47.0585 3.09124 47.2043 3.9402 47.2043C4.58082 47.2043 5.2527 47.121 5.96624 46.9543C2.76832 49.6887 0.747488 52.8397 0.0964463 56.1783C-0.0181377 56.7564 -0.0858457 57.4231 0.221446 58.0116C0.711029 58.9439 1.91936 59.2824 3.45061 58.9179C5.51832 58.4283 7.41415 57.397 9.24228 56.4074C11.3725 55.2564 13.3829 54.1679 15.6537 53.8293C16.1173 53.7564 16.7892 53.6939 17.3204 53.9491C17.711 54.147 18.0392 54.6158 17.9037 55.0168C17.7944 55.3449 17.4142 55.5897 17.0339 55.8137L16.3985 56.1783C13.2058 58.022 9.89853 59.9283 8.09124 63.1627C7.5027 64.2199 7.24749 65.1679 7.30999 66.0689C7.39332 67.2512 8.11728 68.272 9.10165 68.6106C9.40895 68.7147 9.73186 68.7564 10.0392 68.7564C10.3256 68.7564 10.6017 68.7252 10.8569 68.6887C11.4767 68.6002 12.0808 68.4647 12.6746 68.272C10.1746 70.9127 8.40895 74.0116 7.42978 77.5064C4.1902 89.0949 2.16936 104.423 10.5079 112.496C8.05999 112.887 5.38811 114.788 4.11207 117.142C3.18499 118.855 3.16936 120.548 4.05999 121.913C5.42978 124.017 9.61207 126.319 21.711 125.329C35.8933 124.168 54.2631 129.72 72.0287 135.095C87.336 139.725 101.852 144.116 113.07 144.116C113.815 144.116 114.544 144.1 115.263 144.053C127.357 143.381 139.867 139.626 151.961 135.996C163.94 132.407 175.248 129.006 185.128 128.897C201.018 128.72 208.852 124.725 209.149 122.079C209.206 121.512 209.013 120.486 206.992 120.006C204.524 119.423 203.07 118.506 203.003 117.496C202.951 116.819 203.544 114.975 210.013 112.475C215.685 110.282 219.909 105.829 219.268 103.855Z" fill="black"/>
<path d="M142.638 112.538C129.102 116.387 126.06 128.371 112.43 124.215C126.925 130.235 137.623 119.756 144.315 121.095C151.003 122.433 160.586 128.235 162.591 125.892C164.602 123.548 162.591 120.324 156.8 119.928C162.591 119.314 166.034 124.887 171.341 124.887C176.638 124.887 167.638 109.949 148.43 111.506C146.289 111.683 144.378 112.043 142.638 112.538ZM57.0652 125.131C64.5808 133.043 73.2319 134.366 79.7892 134.142C86.3361 133.918 94.9298 134.001 91.7423 131.85C88.5548 129.699 82.81 130.985 84.7736 129.34C86.7423 127.689 93.2423 128.157 95.9871 127.22C100.633 125.626 100.513 122.913 96.0965 123.772C91.6746 124.626 88.3777 128.366 83.1538 125.918C77.9298 123.465 73.0183 122.532 74.4558 124.626C75.8986 126.73 82.3517 128.767 80.3933 130.064C78.4246 131.366 66.8986 131.652 57.0652 125.131ZM91.6486 105.887C103.06 107.413 115.112 103.746 121.914 101.376C123.466 100.829 124.732 100.36 125.669 100.032C125.56 100.105 125.456 100.183 125.362 100.251C125.539 100.126 125.716 100.006 125.888 99.8813C125.909 99.8709 125.925 99.8553 125.945 99.8501C129.227 97.699 137.982 93.7719 143.268 93.5636C148.909 93.3396 152.237 97.5688 154.576 100.251C156.914 102.928 164.612 102.48 162.268 99.1365C165.836 101.475 173.305 99.4699 170.185 97.0167C170.727 96.9021 171.143 96.6105 171.352 96.1886C176.263 102.022 203.331 107.413 214.232 104.256V104.251C214.878 104.069 215.471 103.85 215.998 103.6C222.242 101.928 217.602 109.084 209.873 112.069C200.06 115.866 201.274 119.095 206.909 120.428C212.544 121.767 205.117 128.235 185.143 128.459C165.169 128.678 139.258 142.277 115.253 143.616C91.2579 144.954 48.8933 122.657 21.6902 124.892C-5.5077 127.121 4.74751 112.85 11.435 112.85L11.4871 112.788C18.1694 118.553 28.7163 117.881 36.6277 114.855C29.9402 116.637 15.8933 116.418 13.6642 100.808C11.435 85.199 23.8725 75.8709 28.8881 77.6209C33.909 79.3709 39.4558 76.7303 36.8881 73.8865C45.4663 77.1209 47.4506 70.4594 39.1486 67.0844C39.659 67.2042 51.1798 69.8709 52.409 67.5428C53.6642 65.1678 48.2944 61.0428 40.9142 59.8813C33.3361 58.6886 21.7423 60.548 14.2631 67.3344L14.159 67.2251C13.1017 67.7355 11.9663 68.0792 10.8048 68.2511C10.284 68.324 9.75272 68.3657 9.25793 68.1938C8.37251 67.8917 7.82043 66.9594 7.75272 66.0324C7.68501 65.1001 8.02876 64.1886 8.47668 63.3761C10.3413 60.0271 13.9402 58.1105 17.2579 56.1886C17.6954 55.9334 18.159 55.6365 18.3204 55.1574C18.5288 54.5428 18.0965 53.8449 17.5131 53.5584C16.9298 53.2667 16.2371 53.2928 15.5965 53.3917C11.2058 54.048 7.6746 57.4542 3.35689 58.4855C2.3673 58.7251 1.08605 58.7042 0.612094 57.8084C0.362094 57.3396 0.424596 56.7771 0.528761 56.2563C1.38814 51.8292 4.54439 48.3032 8.32564 45.6886C16.7527 41.949 27.3881 29.5688 32.7788 25.0896C39.7215 19.3344 53.4611 15.9334 61.5808 22.7303C55.9715 23.9542 48.0183 34.5584 51.2163 33.4594C54.4142 32.3657 59.1694 29.8032 59.0756 31.9021C58.9871 34.0063 48.3881 47.4438 52.5913 48.0844C56.7944 48.7199 59.1694 37.298 63.1902 37.9386C64.5496 38.1521 63.2475 41.5428 63.1954 41.6834L63.1902 41.6886C55.6486 56.3501 61.4558 92.2147 91.6486 105.887ZM65.8308 103.038C71.8517 100.355 55.3517 95.0167 48.8829 84.0844C54.685 101.475 59.81 105.715 65.8308 103.038ZM44.6486 109.496C48.6642 107.272 39.0756 105.762 35.0652 98.0428C35.9506 105.267 40.6381 111.73 44.6486 109.496Z" fill="#4A8BDF"/>
<path d="M163.946 89.9225C162.711 89.5319 161.3 89.1621 159.696 88.834C147.232 86.2767 135.841 92.9538 125.94 99.8496C125.92 99.8548 125.904 99.8704 125.883 99.8809C125.81 99.9329 125.743 99.9798 125.675 100.027C125.67 100.027 125.67 100.027 125.664 100.032C124.732 100.36 123.461 100.829 121.909 101.376V82.6986H140.055V69.0163H160.295V49.7871H182.206V63.5684H201.045V75.9954H214.159V104.037L214.227 104.245V104.251C203.326 107.412 176.253 102.016 171.347 96.1829C171.888 95.1048 171.081 93.1934 167.644 91.4121C166.644 90.8965 165.42 90.3965 163.946 89.9225Z" fill="#3B3A3A"/>
<path d="M188.945 19.9801C195.643 17.053 205.133 22.7717 201.086 23.7509C197.065 24.7249 160.576 24.7197 160.102 24.7197C159.977 24.1676 159.748 23.6259 159.419 23.1467C161.039 20.3967 164.664 20.1832 165.503 21.4072C166.753 18.0322 169.685 19.0009 170.248 20.1207C175.544 7.55819 190.758 13.4228 188.945 19.9801Z" fill="#CADBEA"/>
<path d="M160.102 24.715C160.331 25.7411 160.206 26.7983 159.774 27.5119C166.055 25.1421 171.357 30.3036 167.169 31.1421C162.987 31.9806 125.998 31.1421 121.675 31.1421C117.352 31.1421 119.862 26.3973 128.93 27.6525C128.091 22.6317 134.513 21.5119 135.487 24.4442C135.909 17.6056 140.789 12.4442 146.513 11.4702C154.263 10.1421 158.794 16.7671 154.607 21.7931C156.992 21.1369 158.56 21.9181 159.414 23.1473C159.748 23.6213 159.977 24.1681 160.102 24.715Z" fill="#CADBEA"/>
<path d="M125.94 99.8499C135.841 92.9541 147.237 86.277 159.696 88.8343C161.305 89.1624 162.711 89.5322 163.946 89.9228C165.42 90.3968 166.644 90.8968 167.644 91.4176C171.081 93.1936 171.883 95.1103 171.347 96.1884C171.138 96.6155 170.727 96.902 170.18 97.0166C173.3 99.4697 165.831 101.475 162.263 99.1363C164.607 102.48 156.909 102.928 154.571 100.251C152.232 97.5686 148.904 93.3395 143.263 93.5634C137.977 93.7718 129.222 97.6988 125.94 99.8499Z" fill="#CADBEA"/>
<path d="M144.315 121.094C137.622 119.756 126.924 130.235 112.43 124.214C126.06 128.365 129.102 116.381 142.638 112.537C144.378 112.042 146.294 111.688 148.43 111.511C167.643 109.949 176.643 124.891 171.341 124.891C166.039 124.891 162.596 119.313 156.799 119.933C162.596 120.329 164.607 123.553 162.596 125.896C160.586 128.23 151.003 122.433 144.315 121.094Z" fill="#CADBEA"/>
<path d="M104.232 38.9489C107.982 42.6051 108.529 50.2822 102.675 47.3604C103.404 49.1833 102.659 50.5947 99.8466 49.277C92.4403 45.8031 91.2528 36.751 77.7268 35.4229C73.1643 34.9697 66.9455 38.0322 63.1955 41.6885C63.2476 41.5479 64.5497 38.1572 63.1903 37.9385C59.1695 37.2979 56.7945 48.7249 52.5913 48.0843C48.3882 47.4489 58.9872 34.0114 59.0757 31.9072C59.1695 29.8083 54.4143 32.3708 51.2163 33.4645C48.0184 34.5635 55.9716 23.9593 61.5809 22.7301C69.7111 29.5322 77.0914 27.902 71.9247 21.8499C80.1903 26.1208 82.7945 23.8499 81.6747 20.3291C107.284 26.6572 107.617 39.0374 104.232 38.9489Z" fill="#CADBEA"/>
<path d="M96.1016 123.777C100.518 122.918 100.638 125.631 95.9922 127.225C93.2474 128.163 86.7422 127.694 84.7786 129.345C82.8151 130.991 88.5599 129.704 91.7474 131.85C94.9349 134.006 86.3411 133.923 79.7891 134.147C73.237 134.371 64.5859 133.043 57.0703 125.136C66.9036 131.657 78.4297 131.366 80.3984 130.069C82.3568 128.777 75.9036 126.735 74.4609 124.636C73.0234 122.538 77.9349 123.475 83.1589 125.928C88.3828 128.366 91.6797 124.631 96.1016 123.777Z" fill="#CADBEA"/>
<path d="M8.33073 45.6886C5.89323 46.7667 3.64323 47.1261 1.75781 46.3604C13.2839 42.9646 22.8828 24.1365 35.5859 12.3865C46.8203 1.99065 62.2109 -0.847891 68.6745 0.938568C81.237 4.40732 84.487 16.225 76.2057 13.8604C79.0599 15.725 81.013 18.2407 81.6745 20.3188C82.7943 23.8396 80.1901 26.1157 71.9245 21.8396C77.0911 27.9021 69.7109 29.5219 61.5807 22.725C53.4609 15.9282 39.7214 19.3292 32.7786 25.0896C27.388 29.5688 16.7578 41.9542 8.33073 45.6886Z" fill="#CADBEA"/>
<path d="M48.8882 84.0898C55.3517 95.0221 71.8517 100.361 65.8309 103.043C59.8101 105.715 54.6851 101.475 48.8882 84.0898Z" fill="#CADBEA"/>
<path d="M39.1435 67.0848C47.4456 70.4598 45.4612 77.1212 36.8831 73.8868C39.456 76.7254 33.9092 79.3712 28.8831 77.6212C23.8623 75.8712 11.43 85.1993 13.6592 100.809C15.8883 116.418 29.9352 116.642 36.6227 114.856C28.7112 117.882 18.1644 118.554 11.4821 112.788C5.3675 107.507 2.4925 96.8295 7.86229 77.6212C9.04979 73.3764 11.3415 69.9806 14.2581 67.3348C21.7425 60.5483 33.331 58.6889 40.9092 59.8816C48.2894 61.0431 53.654 65.1681 52.404 67.5431C51.18 69.8712 39.6487 67.2045 39.1435 67.0848Z" fill="#CADBEA"/>
<path d="M35.0601 98.0479C39.0705 105.767 48.6642 107.272 44.6486 109.501C40.6382 111.73 35.9507 105.267 35.0601 98.0479Z" fill="#CADBEA"/>
<path d="M3.9401 47.2037C3.09115 47.2037 2.30469 47.0578 1.59115 46.7714L0.429688 46.3026L1.63281 45.9432C8.63281 43.8807 15.0286 35.8599 21.7995 27.3755C26.0443 22.063 30.4245 16.5682 35.2891 12.0735C46.5859 1.62033 62.0026 -1.34842 68.7891 0.526581C75.9505 2.50575 80.1589 7.0995 81.0391 10.5318C81.3984 11.9276 81.1797 13.0995 80.4297 13.8339C79.9922 14.2557 79.237 14.6672 77.9557 14.6151C79.9609 16.2714 81.487 18.3078 82.0859 20.1985C82.5964 21.8078 82.3724 23.1151 81.4557 23.8964C80.4297 24.7557 78.1901 25.2401 73.3151 23.0162C74.6276 25.1985 73.9193 26.3443 73.487 26.787C71.7995 28.4849 66.6641 27.5526 61.2995 23.063C53.1536 16.2557 39.4245 20.1412 33.0547 25.4276C31.4609 26.7505 29.4193 28.761 27.0547 31.0787C21.4557 36.5839 14.487 43.438 8.5026 46.0891C6.83073 46.8339 5.30469 47.2037 3.9401 47.2037ZM3.27865 46.2974C4.66927 46.4485 6.29948 46.1099 8.14844 45.2922C13.9922 42.7037 20.8984 35.912 26.4453 30.4589C28.8255 28.1203 30.8776 26.1047 32.4974 24.7557C36.1641 21.7141 41.4661 19.4745 46.6797 18.7714C52.7005 17.9537 58.0911 19.2401 61.862 22.3964C67.0547 26.7349 71.6693 27.3807 72.8672 26.1672C73.5964 25.4276 73.1172 23.9224 71.5911 22.1307L70.1432 20.438L72.1224 21.4589C78.2057 24.5995 80.2839 23.7401 80.8932 23.2245C81.7422 22.5057 81.487 21.1828 81.2526 20.4589C80.5703 18.3026 78.5391 15.9172 75.9609 14.2349L73.5391 12.6568L76.3203 13.4485C77.9349 13.912 79.1797 13.8235 79.8151 13.2037C80.3307 12.6985 80.4609 11.8287 80.1849 10.7453C79.3411 7.44846 75.0703 3.17241 68.5547 1.37033C58.4349 -1.43175 42.8099 6.30262 35.8776 12.7193C31.0703 17.1672 26.7057 22.6307 22.487 27.9224C16.0703 35.9641 9.98698 43.5891 3.27865 46.2974Z" fill="black"/>
<path d="M101.706 50.2253C101.195 50.2253 100.534 50.0794 99.6641 49.668C96.8568 48.3555 94.9557 46.2982 92.9401 44.1211C89.5599 40.4648 86.0599 36.6784 77.6849 35.8503C73.0339 35.3971 66.9089 38.6732 63.5078 41.9961L62.8984 41.3711L62.9036 41.3659C66.4401 37.9076 72.8568 34.4961 77.7734 34.9857C86.4766 35.8451 90.2526 39.9232 93.5859 43.5273C95.5391 45.6367 97.388 47.6367 100.039 48.8815C101.112 49.3867 101.961 49.4961 102.305 49.1732C102.586 48.9076 102.581 48.2721 102.279 47.5221L101.857 46.4544L102.883 46.9701C104.003 47.5273 105.492 47.9857 106.211 46.9753C107.232 45.5482 106.362 41.6315 103.94 39.2617L103.143 38.4805L104.253 38.5117C104.784 38.5221 105.174 38.0586 105.284 37.2669C105.508 35.6211 104.503 32.7565 101.029 29.6628C98.1172 27.069 92.3828 23.4232 81.5703 20.7513L81.7839 19.9023C103.003 25.1471 106.56 34.3034 106.143 37.3867C106.029 38.2461 105.633 38.8867 105.065 39.1888C107.279 41.7565 108.206 45.6732 106.924 47.4805C106.492 48.0846 105.477 48.8971 103.352 48.1211C103.456 48.8346 103.31 49.4232 102.904 49.8086C102.659 50.0326 102.284 50.2253 101.706 50.2253Z" fill="black"/>
<path d="M52.9351 48.5531C52.7996 48.5531 52.6642 48.5426 52.5288 48.5218C51.8153 48.4124 51.4871 48.0062 51.3413 47.6885C50.5184 45.9229 52.8517 41.876 55.9924 36.7666C57.284 34.6572 58.6174 32.4854 58.6434 31.8864C58.6538 31.6729 58.5913 31.626 58.5705 31.6156C58.0184 31.2301 55.5965 32.2093 53.8205 32.9281C52.9871 33.2666 52.1278 33.6104 51.3621 33.876C50.883 34.0374 50.5236 34.0062 50.284 33.777C50.0444 33.5531 49.9871 33.2093 50.1174 32.7406C50.7528 30.4333 56.8517 23.3135 61.4924 22.2979L61.6799 23.152C57.034 24.1729 51.0757 31.6572 50.9246 33.0947C50.9611 33.0843 51.0132 33.0687 51.0809 33.0479C51.8205 32.7926 52.6799 32.4489 53.4976 32.1156C56.383 30.9489 58.2007 30.2822 59.0757 30.902C59.2892 31.0531 59.5444 31.3499 59.5184 31.9229C59.4819 32.7093 58.4924 34.3604 56.7371 37.2145C54.6278 40.6468 51.4455 45.8291 52.1278 47.3135C52.1903 47.4437 52.2996 47.5947 52.6538 47.652C54.4924 47.9333 56.0861 45.277 57.633 42.7041C59.2788 39.9697 60.9819 37.1416 63.2684 37.5062C63.6017 37.5583 63.8621 37.7406 64.034 38.0322C64.5861 38.9854 63.9246 41.0062 63.6121 41.8291L62.7944 41.5322C63.2371 40.3551 63.5444 38.9333 63.2788 38.4749C63.2476 38.4124 63.2059 38.3812 63.133 38.376C61.4299 38.1051 59.883 40.6729 58.383 43.1624C56.7892 45.8135 55.1382 48.5531 52.9351 48.5531Z" fill="black"/>
<path d="M154.435 31.9544C146.044 31.9544 135.477 31.7877 128.393 31.6731C125.034 31.621 122.607 31.5794 121.68 31.5794C120.482 31.5794 119.643 31.2356 119.32 30.6054C119.086 30.1523 119.154 29.6262 119.508 29.121C120.497 27.72 123.633 26.595 128.44 27.1523C128.263 24.5898 129.925 23.0065 131.758 22.5481C133.112 22.2096 134.383 22.4856 135.185 23.2044C136.06 17.0533 140.643 12.0273 146.451 11.0429C150.487 10.3554 154.159 11.7669 155.82 14.6367C157.003 16.6939 156.914 19.069 155.617 21.1575C157.966 20.8919 159.216 22.0898 159.779 22.9075C160.133 23.4127 160.388 24.0065 160.529 24.6315C160.695 25.3867 160.69 26.1523 160.524 26.8242C163.768 25.9283 166.711 26.8554 168.18 28.1992C168.919 28.871 169.237 29.6315 169.055 30.2877C168.925 30.7356 168.513 31.3294 167.258 31.5794C165.831 31.8606 160.747 31.9544 154.435 31.9544ZM126.05 27.8867C122.727 27.8867 120.784 28.8346 120.216 29.6315C120.107 29.7929 119.992 30.0169 120.091 30.2096C120.216 30.4544 120.701 30.7096 121.68 30.7096C122.617 30.7096 125.05 30.7512 128.409 30.8033C139.914 30.9856 163.852 31.371 167.086 30.72C167.727 30.595 168.128 30.3554 168.211 30.0481C168.3 29.7304 168.065 29.2773 167.586 28.8398C166.404 27.7565 163.388 26.621 159.93 27.9283L158.758 28.371L159.399 27.2981C159.768 26.6783 159.872 25.7304 159.669 24.8137C159.555 24.3033 159.346 23.8137 159.055 23.4023C158.164 22.1158 156.628 21.6992 154.727 22.22L153.378 22.5898L154.274 21.5169C155.935 19.5221 156.232 17.1106 155.055 15.0742C153.586 12.5221 150.268 11.2721 146.591 11.9023C140.794 12.8867 136.31 18.1731 135.925 24.4752L135.784 26.7304L135.076 24.5846C134.68 23.3971 133.211 23.0898 131.966 23.3971C130.503 23.7565 128.94 25.069 129.362 27.5846L129.461 28.1731L128.872 28.0898C127.841 27.9492 126.899 27.8867 126.05 27.8867Z" fill="black"/>
<path d="M160.112 25.1524C160.107 25.1524 160.107 25.1524 160.107 25.1524L160.091 24.2826C160.097 24.2826 160.097 24.2826 160.102 24.2826C161.742 24.2826 197.076 24.2669 200.977 23.3242C201.409 23.2201 201.586 23.0742 201.612 22.9753C201.638 22.8503 201.529 22.5117 200.919 22.0117C198.732 20.194 193.268 18.5638 189.112 20.3867L188.268 20.7565L188.518 19.8659C189.263 17.168 186.748 14.7513 183.883 13.7513C179.336 12.1628 173.477 13.5794 170.643 20.293L170.274 21.168L169.847 20.319C169.638 19.8971 168.893 19.4753 168.117 19.5169C167.44 19.5534 166.503 19.9388 165.899 21.5638L165.607 22.3503L165.128 21.6576C164.893 21.3138 164.253 21.1159 163.513 21.1419C162.326 21.1784 160.722 21.7878 159.784 23.3763L159.029 22.9336C160.143 21.043 162.06 20.3138 163.482 20.2669C164.216 20.2461 164.862 20.3919 165.331 20.6784C166.154 19.0117 167.373 18.6888 168.065 18.6471C168.826 18.6107 169.591 18.8711 170.117 19.3086C173.268 12.6315 179.383 11.2617 184.164 12.9284C187.602 14.1211 189.716 16.7149 189.498 19.3034C193.857 17.8242 199.248 19.4909 201.477 21.3451C202.451 22.1524 202.55 22.7878 202.456 23.1784C202.378 23.5169 202.091 23.9649 201.18 24.1836C197.185 25.1419 161.748 25.1524 160.112 25.1524Z" fill="black"/>
<path d="M214.596 104.038H213.721V76.4336H200.607V64.0117H181.763V50.2253H160.727V69.4596H140.492V83.1315H122.352V101.48H121.477V82.2565H139.617V68.5846H159.857V49.3555H182.638V63.1419H201.477V75.5586H214.596V104.038Z" fill="black"/>
<path d="M163.508 56.5947H164.383V62.4593H163.508V56.5947Z" fill="black"/>
<path d="M167.201 56.5947H168.076V62.4593H167.201V56.5947Z" fill="black"/>
<path d="M170.904 56.5947H171.779V62.4593H170.904V56.5947Z" fill="black"/>
<path d="M174.602 56.5947H175.477V62.4593H174.602V56.5947Z" fill="black"/>
<path d="M178.294 56.5947H179.169V62.4593H178.294V56.5947Z" fill="black"/>
<path d="M125.523 85.9072H126.393V91.7666H125.523V85.9072Z" fill="black"/>
<path d="M129.222 85.9072H130.097V91.7666H129.222V85.9072Z" fill="black"/>
<path d="M132.919 85.9072H133.789V91.7666H132.919V85.9072Z" fill="black"/>
<path d="M136.617 85.9072H137.492V91.7666H136.617V85.9072Z" fill="black"/>
<path d="M163.508 66.3711H164.383V72.2305H163.508V66.3711Z" fill="black"/>
<path d="M167.201 66.3711H168.076V72.2305H167.201V66.3711Z" fill="black"/>
<path d="M170.904 66.3711H171.779V72.2305H170.904V66.3711Z" fill="black"/>
<path d="M174.602 66.3711H175.477V72.2305H174.602V66.3711Z" fill="black"/>
<path d="M178.294 66.3711H179.169V72.2305H178.294V66.3711Z" fill="black"/>
<path d="M163.508 76.1367H164.383V82.0013H163.508V76.1367Z" fill="black"/>
<path d="M167.201 76.1367H168.076V82.0013H167.201V76.1367Z" fill="black"/>
<path d="M170.904 76.1367H171.779V82.0013H170.904V76.1367Z" fill="black"/>
<path d="M174.602 76.1367H175.477V82.0013H174.602V76.1367Z" fill="black"/>
<path d="M178.294 76.1367H179.169V82.0013H178.294V76.1367Z" fill="black"/>
<path d="M163.508 85.9072H164.383V89.9229H163.508V85.9072Z" fill="black"/>
<path d="M167.201 85.9072H168.076V91.7666H167.201V85.9072Z" fill="black"/>
<path d="M170.904 85.9072H171.779V91.7666H170.904V85.9072Z" fill="black"/>
<path d="M174.602 85.9072H175.477V91.7666H174.602V85.9072Z" fill="black"/>
<path d="M178.294 85.9072H179.169V91.7666H178.294V85.9072Z" fill="black"/>
<path d="M184.695 69.2979H185.57V95.5374H184.695V69.2979Z" fill="black"/>
<path d="M190.206 69.2979H191.081V95.5374H190.206V69.2979Z" fill="black"/>
<path d="M195.722 69.2979H196.591V95.5374H195.722V69.2979Z" fill="black"/>
<path d="M202.716 80.168H211.091V81.0378H202.716V80.168Z" fill="black"/>
<path d="M143.263 73.7461H157.779V74.6211H143.263V73.7461Z" fill="black"/>
<path d="M143.263 78.6309H157.779V79.5007H143.263V78.6309Z" fill="black"/>
<path d="M143.263 83.5117H157.779V84.3867H143.263V83.5117Z" fill="black"/>
<path d="M202.716 83.6523H211.091V84.5273H202.716V83.6523Z" fill="black"/>
<path d="M202.716 87.1465H211.091V88.0163H202.716V87.1465Z" fill="black"/>
<path d="M202.716 90.6367H211.091V91.5117H202.716V90.6367Z" fill="black"/>
<path d="M202.716 94.1211H211.091V94.9909H202.716V94.1211Z" fill="black"/>
<path d="M202.716 97.6104H211.091V98.4854H202.716V97.6104Z" fill="black"/>
<path d="M125.935 100.376L125.414 99.6781C125.487 99.626 125.565 99.5739 125.648 99.5166L126.128 100.251C126.055 100.293 125.997 100.334 125.935 100.376Z" fill="black"/>
<path d="M159.404 102.412C157.493 102.412 155.336 101.793 154.243 100.537L153.847 100.079C151.55 97.428 148.42 93.7874 143.284 93.9957C138.039 94.204 129.237 98.2093 126.18 100.209L125.69 99.4905C136.112 92.2353 147.456 85.8759 159.784 88.402C161.305 88.7145 162.748 89.0843 164.076 89.5061L164.383 89.6051C165.69 90.0374 166.852 90.5113 167.841 91.027C171.696 93.0166 172.347 95.152 171.737 96.3811C171.571 96.7145 171.31 96.9853 170.977 97.1832C171.644 98.0165 171.289 98.7249 171.076 99.0218C169.993 100.532 165.951 101.147 163.123 100.058C163.232 100.881 162.732 101.402 162.446 101.631C161.774 102.152 160.638 102.412 159.404 102.412ZM143.685 93.1155C148.972 93.1155 152.289 96.9488 154.503 99.5113L154.899 99.9593C156.383 101.657 160.524 102.027 161.904 100.938C162.206 100.704 162.534 100.287 161.904 99.3863L160.597 97.5218L162.498 98.7718C164.956 100.381 169.446 99.7926 170.368 98.5165C170.466 98.3759 170.727 98.0113 169.909 97.3655L169.17 96.7874L170.086 96.5947C170.503 96.5061 170.81 96.2926 170.951 95.9957C171.404 95.0895 170.503 93.3915 167.44 91.8082C166.42 91.277 165.196 90.7874 163.81 90.3447L163.503 90.2457C162.289 89.8707 160.977 89.5426 159.607 89.2613C150.039 87.303 141.008 90.8811 132.55 96.0322C136.128 94.5374 140.206 93.2457 143.248 93.1207C143.399 93.1207 143.539 93.1155 143.685 93.1155Z" fill="black"/>
<path d="M126.034 100.074L125.623 99.5371C125.649 99.5163 125.701 99.4746 125.774 99.4434L126.034 100.074Z" fill="black"/>
<path d="M125.607 100.611L125.097 99.9076C125.19 99.8294 125.305 99.7513 125.42 99.6732V99.6784L125.633 99.5273L126.133 100.241L125.607 100.611Z" fill="black"/>
<path d="M113.081 144.11C101.862 144.11 87.352 139.72 72.0343 135.084C54.2687 129.709 35.9041 124.157 21.7166 125.319C9.61763 126.313 5.44054 124.011 4.06554 121.902C3.17492 120.537 3.19575 118.845 4.11763 117.136C5.55513 114.48 8.76346 112.407 11.4249 112.407V113.277C9.09679 113.277 6.1645 115.194 4.88846 117.553C4.34158 118.553 3.89367 120.032 4.79471 121.423C5.81033 122.985 9.35721 125.454 21.6437 124.449C35.9978 123.272 54.4458 128.85 72.2843 134.246C88.5343 139.162 103.883 143.803 115.217 143.173C127.217 142.506 139.67 138.767 151.711 135.152C163.748 131.537 175.118 128.126 185.128 128.011C200.112 127.845 208.055 124.053 208.29 121.975C208.362 121.319 207.388 120.991 206.8 120.85C203.847 120.147 202.237 119.006 202.138 117.548C202.003 115.631 204.555 113.647 209.706 111.657C215.138 109.553 218.842 105.371 218.435 104.121C218.295 103.709 217.42 103.662 216.144 104.001C215.691 104.215 215.196 104.407 214.659 104.574L214.347 104.668C203.67 107.761 176.128 102.548 171.008 96.4645L171.649 95.876H171.654C176.232 101.319 202.394 107.006 213.821 103.907L214.107 103.824C214.732 103.652 215.305 103.438 215.805 103.199L215.878 103.173C218.29 102.527 219.045 103.188 219.269 103.855C219.909 105.829 215.685 110.287 210.019 112.47C203.555 114.975 202.967 116.813 203.008 117.491C203.081 118.501 204.534 119.418 207.003 120.006C209.024 120.48 209.222 121.506 209.154 122.074C208.862 124.72 201.024 128.715 185.138 128.892C175.253 129.001 163.946 132.397 151.972 135.991C139.878 139.626 127.373 143.381 115.269 144.053C114.555 144.09 113.826 144.11 113.081 144.11Z" fill="black"/>
<path d="M24.6641 117.548C19.81 117.548 14.935 116.345 11.1954 113.116C2.06518 105.235 4.11206 89.3969 7.44018 77.5011C8.5756 73.4386 10.7735 69.9073 13.961 67.0115C21.5912 60.0948 33.31 58.2407 40.9766 59.449C46.336 60.2875 51.3777 62.9177 52.6954 65.5532C53.0964 66.35 53.1277 67.1052 52.7891 67.7459C51.81 69.6052 46.0652 68.8917 42.086 68.1469C44.5652 69.8657 45.2475 71.8552 44.7058 73.2511C44.0756 74.8552 41.7371 75.8344 37.8621 74.6782C38.06 75.3084 37.9766 75.949 37.5912 76.5323C36.4246 78.2927 32.5027 79.3396 28.7475 78.0271C26.9089 77.3865 23.9662 78.4125 21.2631 80.6417C19.1537 82.3761 12.4141 88.949 14.0964 100.741C14.8673 106.105 17.1068 110.053 20.7683 112.475C25.6589 115.709 32.1121 115.605 36.5183 114.433L36.7839 115.262C33.3048 116.59 28.9923 117.548 24.6641 117.548ZM36.31 59.9802C29.2683 59.9802 20.586 62.1886 14.5496 67.6573C11.4818 70.4386 9.37247 73.8292 8.28393 77.7407C3.61206 94.449 4.81518 106.454 11.7683 112.459C16.935 116.918 24.4193 117.329 30.8516 116.058C27.3048 116.079 23.4819 115.329 20.2787 113.209C16.4037 110.642 14.0287 106.496 13.2266 100.876C11.4766 88.6261 18.5027 81.7823 20.7006 79.975C23.685 77.5219 26.8777 76.4646 29.0287 77.2146C32.3152 78.3605 35.8777 77.5532 36.8621 76.0584C37.2527 75.4698 37.1537 74.8396 36.56 74.1886L35.3412 72.85L37.0339 73.4855C41.0131 74.9855 43.3777 74.2511 43.8933 72.9386C44.4558 71.5063 42.9506 69.1313 39.06 67.5271H38.961L38.8152 67.3969L39.1225 67.0896L39.1433 66.6573L39.2735 66.673C44.935 67.9907 51.3204 68.6677 52.0131 67.3448C52.2162 66.9594 52.185 66.4907 51.9141 65.949C50.8881 63.9021 46.6589 61.2302 40.8412 60.3188C39.4506 60.0948 37.9194 59.9802 36.31 59.9802Z" fill="black"/>
<path d="M10.0498 68.751C9.73726 68.751 9.42476 68.7145 9.11226 68.6051C8.12788 68.2666 7.40393 67.2458 7.31538 66.0635C7.25288 65.1624 7.50809 64.2145 8.10184 63.1572C9.90913 59.9229 13.2112 58.0166 16.4039 56.1729L17.0393 55.8083C17.4248 55.5895 17.7998 55.3395 17.9143 55.0114C18.0446 54.6156 17.7164 54.1416 17.3258 53.9489C16.7998 53.6885 16.1227 53.7562 15.6643 53.8239C13.3935 54.1624 11.3831 55.251 9.25288 56.402C7.41955 57.3968 5.52372 58.4176 3.46122 58.9124C1.92997 59.277 0.721635 58.9385 0.232051 58.0062C-0.0804494 57.4229 -0.00753204 56.751 0.107051 56.1729C0.888301 52.1468 3.64872 48.3968 8.08622 45.3291C9.17476 44.5687 10.3675 43.8551 11.6175 43.2041L12.0185 43.9801C10.7998 44.6156 9.64351 45.3135 8.58101 46.0531C4.33622 48.9906 1.7008 52.5531 0.961217 56.3499C0.877884 56.777 0.820592 57.2562 1.00288 57.6104C1.34663 58.2666 2.3883 58.277 3.25288 58.0687C5.20601 57.6051 7.05497 56.6051 8.83622 55.6468C10.9352 54.5062 13.1123 53.3343 15.5289 52.9697C16.1018 52.8812 16.9612 52.8031 17.7112 53.1729C18.4404 53.5322 19.0289 54.4281 18.7373 55.2979C18.5341 55.9176 17.9821 56.2822 17.4768 56.5687L16.8362 56.9385C13.7425 58.7197 10.5446 60.5635 8.86226 63.5947C8.35705 64.4958 8.13309 65.2874 8.18518 66.0062C8.24768 66.8291 8.74768 67.5635 9.39351 67.7874C9.81018 67.9333 10.2841 67.8864 10.7321 67.8239C11.8466 67.6624 12.9352 67.3291 13.9612 66.8395L14.3414 67.626C13.232 68.1572 12.0654 68.5166 10.8571 68.6937C10.6071 68.7197 10.3362 68.751 10.0498 68.751Z" fill="black"/>
<path d="M62.6745 104.214C61.763 104.214 60.8828 104.021 60.0234 103.641C55.9609 101.85 52.2943 95.6829 48.4766 84.2246L47.1797 80.334L49.263 83.8652C52.3516 89.0892 57.8828 93.0944 61.9141 96.0267C65.4141 98.5684 67.7214 100.24 67.5599 101.798C67.4922 102.469 66.9818 103.006 66.013 103.438C64.8411 103.954 63.737 104.214 62.6745 104.214ZM50.3464 86.9746C53.7005 96.2454 56.9141 101.318 60.3724 102.844C61.9974 103.563 63.7266 103.495 65.6536 102.636C66.3047 102.35 66.6536 102.032 66.6901 101.704C66.7995 100.646 64.2995 98.8288 61.3984 96.7298C58.0078 94.2715 53.5755 91.0579 50.3464 86.9746Z" fill="black"/>
<path d="M42.9769 110.386C42.3206 110.386 41.654 110.219 40.9873 109.881C37.9561 108.339 35.279 103.386 34.6279 98.0996L34.3311 95.6934L35.4456 97.8496C37.4092 101.62 40.7165 103.855 43.1279 105.485C44.9092 106.688 46.0863 107.485 46.0394 108.459C46.0133 109.162 45.3467 109.61 44.8571 109.881C44.2581 110.219 43.6227 110.386 42.9769 110.386ZM35.8936 100.209C36.8623 104.334 39.0081 107.891 41.3883 109.1C42.4561 109.641 43.4821 109.652 44.4352 109.115C44.904 108.855 45.1644 108.605 45.1748 108.417C45.1956 107.933 43.9561 107.094 42.6436 106.209C40.7061 104.902 37.9561 103.042 35.8936 100.209Z" fill="black"/>
<path d="M161.024 126.881C159.091 126.881 156.159 125.725 152.722 124.371C149.82 123.225 146.815 122.037 144.232 121.522C141.899 121.058 138.94 122.141 135.508 123.397C129.315 125.673 121.607 128.496 112.263 124.621L112.56 123.798C120.518 126.225 124.831 122.949 129.82 119.157C133.195 116.589 137.029 113.678 142.518 112.115C144.399 111.584 146.32 111.246 148.399 111.074C153.972 110.621 159.331 111.527 163.888 113.699C167.456 115.402 170.461 117.85 172.138 120.412C173.216 122.063 173.55 123.537 173.06 124.449C172.841 124.845 172.367 125.318 171.341 125.318C168.742 125.318 166.565 124.037 164.461 122.803C163.977 122.522 163.503 122.24 163.029 121.975C163.248 122.246 163.419 122.537 163.55 122.839C164.013 123.954 163.784 125.162 162.925 126.167C162.498 126.673 161.857 126.881 161.024 126.881ZM143.05 120.537C143.513 120.537 143.966 120.579 144.399 120.667C147.06 121.199 150.102 122.397 153.044 123.558C157.076 125.147 161.248 126.787 162.263 125.605C162.914 124.85 163.081 123.99 162.748 123.183C162.242 121.98 160.409 120.61 156.774 120.365L156.753 119.496C159.972 119.152 162.482 120.626 164.904 122.053C166.998 123.287 168.977 124.454 171.341 124.454C171.815 124.454 172.133 124.313 172.284 124.037C172.534 123.563 172.44 122.49 171.393 120.897C169.081 117.345 161.31 110.902 148.461 111.943C146.435 112.11 144.565 112.443 142.748 112.959C137.414 114.475 133.654 117.334 130.341 119.855C126.69 122.636 123.383 125.147 118.805 125.485C125.128 126.272 130.591 124.272 135.195 122.584C138.159 121.501 140.774 120.537 143.05 120.537Z" fill="black"/>
<path d="M78.5339 134.6C69.862 134.6 62.5339 131.522 56.7474 125.434L54.0859 122.637L57.3047 124.767C66.8984 131.126 78.2891 130.928 80.1484 129.699C80.2682 129.621 80.3203 129.548 80.3203 129.522C80.3151 129.1 78.7318 128.173 77.6849 127.559C76.2474 126.71 74.7578 125.84 74.0964 124.876C73.6016 124.152 73.7526 123.704 73.9661 123.454C75.0859 122.137 80.5911 124.23 83.3464 125.522C86.6953 127.095 89.2109 125.986 91.8724 124.809C93.1797 124.23 94.5339 123.632 96.0182 123.345C98.1432 122.928 99.5755 123.283 99.8411 124.283C100.154 125.444 98.6953 126.762 96.1328 127.637C94.9609 128.038 93.2109 128.184 91.3568 128.345C88.9036 128.548 86.1172 128.788 85.0599 129.678C85.013 129.72 84.9661 129.757 84.9349 129.788C85.2526 129.866 85.8568 129.923 86.3672 129.97C88.0286 130.126 90.2995 130.35 91.9922 131.491C92.2474 131.663 93.0391 132.199 92.8359 132.892C92.4818 134.105 89.3516 134.319 82.2995 134.507C81.4557 134.527 80.612 134.553 79.8047 134.579C79.3776 134.595 78.9557 134.6 78.5339 134.6ZM60.1849 127.449C65.612 131.918 72.0599 133.965 79.7786 133.71C80.5911 133.684 81.4297 133.658 82.2786 133.632C85.7474 133.543 91.5547 133.382 91.9974 132.642C91.987 132.642 91.9089 132.491 91.5026 132.21C89.9974 131.199 87.8516 130.991 86.2839 130.845C84.9036 130.71 84.1484 130.637 83.9714 130.069C83.8203 129.579 84.3151 129.163 84.4974 129.012C85.7682 127.944 88.5703 127.71 91.2786 127.475C93.0807 127.319 94.7786 127.178 95.8516 126.814C98.2005 126.007 99.1172 124.96 99.0026 124.512C98.9193 124.199 98.0807 123.84 96.1901 124.204C94.8047 124.475 93.4974 125.053 92.2318 125.611C89.5078 126.814 86.6901 128.059 82.9818 126.319C78.263 124.105 75.0078 123.642 74.6432 124.017C74.6484 124.017 74.6536 124.132 74.8255 124.387C75.3724 125.184 76.8411 126.043 78.1328 126.809C79.8359 127.809 81.1797 128.595 81.2057 129.507C81.2057 129.757 81.1172 130.121 80.638 130.434C78.8151 131.626 69.3464 132.074 60.1849 127.449Z" fill="black"/>
<path d="M68.3569 119.355C62.6642 119.355 57.9403 117.97 53.3726 116.631C48.4299 115.183 43.7684 113.814 38.7007 114.616L38.5601 113.751C43.8309 112.918 48.5861 114.308 53.6226 115.788C58.1694 117.121 62.8882 118.491 68.5028 118.475C74.9351 118.449 84.5861 115.371 93.9194 112.397C97.3621 111.303 100.607 110.267 103.643 109.397C108.315 108.064 111.597 107.386 113.977 107.282C124.211 106.829 139.414 110.527 142.826 112.142L142.456 112.933C138.982 111.282 123.737 107.725 114.013 108.157C111.706 108.261 108.487 108.918 103.888 110.235C100.862 111.1 97.6174 112.136 94.1903 113.23C84.7944 116.225 75.0757 119.329 68.508 119.355C68.4559 119.355 68.4038 119.355 68.3569 119.355Z" fill="black"/>
<path d="M194.05 111.834C185.826 111.834 169.19 105.881 164.05 102.35L164.545 101.631C169.477 105.021 186.123 110.964 194.055 110.964C194.118 110.964 194.185 110.964 194.253 110.964L194.269 111.834C194.19 111.834 194.123 111.834 194.05 111.834Z" fill="black"/>
<path d="M157.685 109.48C154.425 108.761 144.18 102.402 141.315 99.3236L141.956 98.7246C144.888 101.881 155.034 108.001 157.873 108.626L157.685 109.48Z" fill="black"/>
<path d="M104.31 110.382C104.091 110.335 103.878 110.293 103.664 110.246C99.3519 109.34 95.2477 108.007 91.4664 106.288C78.0862 100.23 67.956 88.9701 62.9508 74.5846C58.7425 62.4857 58.6852 49.5013 62.805 41.4961L63.581 41.8919C59.5654 49.694 59.6383 62.4128 63.7737 74.2982C68.7008 88.4492 78.6644 99.5326 91.8258 105.491C95.5498 107.184 99.5914 108.496 103.847 109.387C104.06 109.439 104.274 109.48 104.482 109.527L104.31 110.382Z" fill="black"/>
<path d="M97.305 106.689C95.3311 106.689 93.4248 106.569 91.5863 106.324C90.7008 106.21 89.7998 106.053 88.9248 105.871L89.1019 105.017C89.9613 105.194 90.8311 105.345 91.7008 105.454C100.06 106.574 109.894 105.105 121.769 100.965C122.638 100.658 123.42 100.376 124.107 100.126C124.602 99.9492 125.039 99.7878 125.425 99.6523L125.482 99.5951L125.67 99.5898V100.027L125.966 100.34L125.899 100.408L125.805 100.444C125.399 100.585 124.93 100.757 124.404 100.949C123.716 101.199 122.93 101.48 122.05 101.788C112.649 105.069 104.487 106.689 97.305 106.689Z" fill="black"/>
</svg>
