<svg width="221" height="147" viewBox="0 0 221 147" fill="none" xmlns="http://www.w3.org/2000/svg">
<path d="M159.193 36.9689C160.443 37.5939 178.052 37.646 183.792 37.646C184.235 37.646 184.604 37.646 184.891 37.646C196.531 37.6304 209.667 37.422 211.011 36.9949C211.985 36.6929 212.177 36.0106 212.037 35.4793C211.667 34.0835 208.896 32.547 205.573 32.8908C206.396 31.4116 206.021 30.5887 205.516 30.146C204.735 29.4689 203.172 29.4897 202.089 29.9272C202.047 29.3231 201.766 28.797 201.266 28.4012C200.646 27.9116 199.709 27.6877 198.901 27.7762C199.854 24.8908 199.698 22.6199 198.438 21.0158C196.063 18.0002 190.584 18.4637 188.959 18.6772C186.229 19.0366 184.084 20.4481 183.235 22.4429C182.771 23.5314 182.709 24.7085 183.037 25.896C180.906 24.4116 178.557 24.5783 176.88 25.6356C175.365 26.5835 174.552 28.0783 174.62 29.5522C172.646 28.172 170.313 28.5366 168.755 29.6304C167.36 30.6147 166.698 32.0314 166.948 33.3283C163.011 32.3543 159.292 34.1043 158.662 35.5887C158.427 36.1564 158.63 36.6877 159.193 36.9689Z" fill="black"/>
<path d="M31.2502 59.4793C32.0679 59.8907 42.12 59.9428 47.3908 59.9428C47.7502 59.9428 48.0887 59.9428 48.4012 59.9428C54.3804 59.9324 64.771 59.8334 65.8127 59.5053C66.5575 59.2709 66.7033 58.7397 66.5887 58.3178C66.3387 57.3751 64.5627 56.3439 62.396 56.4636C62.844 55.4845 62.5002 54.948 62.2033 54.698C61.6721 54.2397 60.7033 54.2189 59.9533 54.4636C59.8804 54.0939 59.6825 53.7709 59.37 53.5261C58.9794 53.2189 58.4273 53.0574 57.9169 53.0678C58.495 51.198 58.3596 49.7136 57.5158 48.6459C55.9377 46.6355 52.4898 46.8543 51.0835 47.0366C49.2137 47.2814 47.745 48.2501 47.1565 49.6303C46.9012 50.2397 46.8231 50.8855 46.9221 51.547C45.5106 50.5886 44.0523 50.5678 43.021 51.1043C41.9012 51.6824 41.3387 52.8439 41.4429 54.2189C39.7502 53.1303 38.245 53.4168 37.3179 54.1511C36.4898 54.8074 36.1096 55.7918 36.2554 56.7189C33.6565 56.1824 31.245 57.3647 30.8231 58.3647C30.6408 58.8178 30.8023 59.2553 31.2502 59.4793Z" fill="black"/>
<mask id="mask0_5546_11871" style="mask-type:luminance" maskUnits="userSpaceOnUse" x="0" y="0" width="221" height="147">
<path d="M0.666504 0.421875H220.667V147H0.666504V0.421875Z" fill="white"/>
</mask>
<g mask="url(#mask0_5546_11871)">
<path d="M211.286 114.838C212.656 113.651 214.667 113.073 216.437 112.567C218.312 112.026 219.792 111.604 220.213 110.573C220.417 110.078 220.333 109.515 219.984 108.885C219.151 107.406 216.219 106.406 213.391 105.442C211.604 104.833 208.901 103.911 208.87 103.302C208.865 103.187 209.088 102.885 209.927 102.489C218.24 102.458 219.068 101.687 219.375 101.396L219.792 101.005L219.307 100.703C213.927 97.3486 210.167 94.2601 207.422 92.0101C204.609 89.6976 202.911 88.307 201.521 88.307C199.932 88.307 197.422 90.5622 194.51 93.182C192.5 94.9841 190.427 96.8434 188.661 97.9268C188.125 97.5882 187.469 97.1716 186.719 96.6872H186.984L186.969 93.5882C187.75 94.2288 188.713 94.5049 189.698 94.3122C190.911 94.083 191.88 93.2236 192.109 92.1768C192.203 91.7236 192.219 90.9268 191.505 90.1195C192.448 89.7601 193.25 88.9424 193.635 88.1559C194.042 87.3226 194.036 86.5101 193.615 85.9268C193.177 85.3278 192.385 85.0205 191.25 85.0153C191.615 84.4268 191.755 83.6924 191.635 82.9059C191.437 81.6038 190.573 80.5361 189.479 80.2601C188.833 80.0882 187.599 80.083 186.167 81.6143C185.74 80.5934 184.948 79.9059 183.88 79.6351C182.338 79.2497 180.505 79.8695 179.432 81.1559C178.448 82.333 178.219 83.9007 178.781 85.5049C178.302 85.6611 177.87 85.9945 177.521 86.4841C176.896 87.3799 176.641 88.6507 176.792 89.8903C170.703 85.458 165.865 81.4059 162.401 77.8278C160.411 75.7705 158.479 73.9007 156.432 71.9216C148.318 64.0778 139.922 55.9684 127.844 35.8955C127.354 35.0882 126.51 34.7757 125.51 34.9841C127.479 30.7705 126.172 23.9736 122.271 19.1038C117.693 13.3955 111.042 11.6715 103.948 14.3382C103.396 12.2965 100.917 10.2653 97.4218 9.06217C93.1927 7.60384 87.3854 7.40072 83.427 11.0518C81.9947 8.12988 76.3697 4.3278 69.9479 5.96842C66.9739 6.73405 61.1041 7.97884 55.2552 7.79655C48.5677 7.59342 44.0572 5.58301 41.8541 1.82259L41.0781 0.489258L41.0416 2.03092C40.9166 7.36947 43.3489 12.4059 47.8854 16.208C53.4062 20.8434 61.2187 23.0153 67.8854 21.7913C70.9843 27.3851 80.1927 28.1247 89.1041 28.8382C99.0729 29.6351 108.505 30.3955 109.995 37.2132C108.906 37.1924 107.484 37.6663 106.042 39.5934C101.042 46.2497 80.9739 72.1143 74.026 77.0361C71.4427 78.8643 65.0729 83.2705 57.4531 88.2445C56.3489 87.6038 51.6927 84.9632 49.3385 84.7601C47.8854 84.6247 46.6927 85.2341 45.4322 85.8747C44.3385 86.4268 43.2083 87.0049 41.8385 87.1038C40.6041 87.1976 39.2604 85.6872 37.8333 84.083C36.177 82.2184 34.2916 80.1091 32.0468 80.0674C32.0364 80.0674 32.0208 80.0674 32.0052 80.0674C29.3072 80.0674 22.3177 85.0726 16.1406 89.4945C12.8385 91.8538 9.97911 93.9007 8.4739 94.6768C4.2812 94.9372 0.973904 96.4372 0.760361 98.182C0.692653 98.7132 0.874945 99.6924 2.79682 100.286C4.0364 100.672 5.89057 100.994 7.85932 101.338C11.2916 101.937 15.5729 102.687 16.2812 103.802C16.3593 103.916 16.3749 104.021 16.3385 104.14C16.0781 105.093 12.5937 106.411 9.79161 107.468C5.60411 109.047 1.98432 110.411 2.03119 112.203C2.14578 116.448 14.5885 117.088 19.9322 117.166C25.0156 117.244 25.7499 118.494 25.8281 119.026C25.9947 120.161 24.0989 121.89 21.9218 122.593C16.526 124.328 11.1666 127.229 11.3593 129.812C11.4739 131.333 13.2864 132.364 16.901 132.953C25.7812 134.406 42.3437 136.062 49.9583 136.453C47.6145 137.26 46.3749 138.328 46.4843 139.526C46.6614 141.531 50.4895 143.203 57.8645 144.494C66.5676 146.021 79.302 146.838 95.7239 146.937C96.8854 146.948 98.026 146.948 99.1458 146.948C112.828 146.948 123.151 146.427 129.859 145.411C135.776 144.51 138.979 143.203 139.641 141.432C140.297 139.672 138.432 138.078 137.177 137.005C136.781 136.661 136.583 136.359 136.646 136.192C136.948 135.416 140.646 134.755 147.13 134.979C147.615 134.994 148.12 135.005 148.651 135.021C153.13 135.114 159.26 135.25 166.526 138.812C174.776 142.864 194.088 140.812 203.151 139.161C208.557 138.177 214.167 135.422 214.417 132.057C214.594 129.651 212.172 127.427 207.198 125.432C213.255 125.083 219.49 123.39 220 121.073C220.208 120.135 219.536 119.307 218.01 118.609C215.875 117.625 213.896 117.146 212.453 116.797C211.547 116.578 210.307 116.281 210.25 116.041C210.25 116.041 210.198 115.776 211.286 114.838Z" fill="black"/>
</g>
<path d="M57.5312 127.323C58.6509 127.323 59.677 128.198 59.3332 130.167C60.1457 129.401 60.8593 128.985 61.4582 128.818L60.8489 118.823C64.5312 121.443 67.3437 119.959 68.828 117.584C68.0051 121.318 70.7968 125.823 75.8853 124.979V134.521C77.0103 134.542 77.9218 135.037 78.1301 135.771C78.3957 135.568 78.6457 135.407 78.8749 135.276L78.4218 127.782L78.5259 127.776C81.0468 128.667 83.2082 127.933 84.2864 126.672C97.2187 128.813 148.864 127.089 156.63 122.584C164.396 118.078 136.281 118.229 138.766 114.344C141.234 110.49 175.198 111.896 183.062 109.146C183.906 111.256 186.177 113.177 189.099 112.969C184.687 114.813 188.594 119.823 192.193 117.417H192.219L191.828 124.334C192.193 124.771 192.385 125.391 192.385 126.157C193.536 125.521 194.521 125.282 195.307 125.302V125.297L195.01 117.563C200.719 123.631 209.208 112.396 201.323 110.667C204.948 109.511 204.542 102.042 197.864 105.802C199.26 104.677 199.656 103.198 199.469 101.792C199.661 101.802 204.823 102.063 209.823 102.047C204.073 104.688 217.833 105.964 219.599 109.099C221.364 112.235 214.411 111.558 210.995 114.506C207.578 117.459 212.083 116.37 217.833 119.011C223.578 121.657 214.255 125.068 204.937 125.068C221.713 130.818 211.62 137.183 203.078 138.74C194.531 140.297 174.958 142.474 166.724 138.427C158.489 134.391 151.656 134.698 147.151 134.547C142.646 134.391 133.635 134.547 136.896 137.344C140.161 140.136 148.083 146.813 95.7291 146.506C43.3801 146.198 40.578 138.427 53.1666 136.099C48.8176 136.256 27.3801 134.235 16.9739 132.526C6.55719 130.818 13.7082 125.688 22.052 123.011C25.9322 121.766 30.0728 116.886 19.9374 116.735C9.80198 116.584 2.54157 115 2.46865 112.198C2.39053 109.401 16.078 106.75 16.7603 104.256C17.4374 101.761 6.85407 101.078 2.92178 99.8701C-1.00531 98.6566 2.09365 95.4847 8.59886 95.1045C10.5624 96.917 22.2134 95.0264 25.6145 96.0107C29.0155 96.9951 24.1718 98.2816 23.4166 99.2607C22.6614 100.245 25.7916 100.802 30.0989 101.099C31.1145 101.714 32.6353 101.594 33.578 100.584C33.3801 101.87 33.1145 103.542 33.0259 103.584C27.2707 106.698 22.2291 109.016 18.9582 109.688C21.453 112.943 44.5989 111.104 50.5937 111.636C51.0416 112.104 51.6145 112.542 52.3332 112.943C48.4062 115.969 51.6978 122.006 58.2603 119.146V127.313H57.5312V127.323Z" fill="#4CAF50"/>
<path d="M204.677 33.4738C209.469 32.4477 213.344 35.8019 210.886 36.5779C208.427 37.354 161.198 37.479 159.391 36.5779C157.584 35.6717 162.495 32.1821 167.667 33.9894C165.865 30.88 171.834 26.6144 175.433 30.8852C173.38 26.9894 180.151 22.0154 184.62 28.0779C181.521 23.8488 184.099 19.7602 189.021 19.1092C193.938 18.4633 201.698 19.3696 198.209 28.4321C199.375 27.7863 202.214 28.4321 201.573 30.755C202.74 29.5936 207.651 29.4686 204.677 33.4738Z" fill="#CADBEA"/>
<path d="M219.078 101.078C218.286 101.818 214.12 102.037 209.828 102.047C204.833 102.063 199.667 101.802 199.474 101.792C199.203 99.7972 197.755 97.9378 196.307 97.4014C194.708 96.818 191.635 97.2555 190.13 99.3545C190.13 99.3545 189.615 99.0472 188.719 98.4847L188.797 98.3649C193.042 95.7972 199.036 88.7451 201.516 88.7451C204.005 88.7503 208.354 94.3962 219.078 101.078Z" fill="#794426"/>
<path d="M199.474 101.797C199.667 103.208 199.266 104.682 197.87 105.807C204.547 102.041 204.953 109.515 201.328 110.666C209.214 112.396 200.724 123.63 195.016 117.567L194.839 113.047L197.943 108.958L194.677 110.599L193.687 105.26L192.776 110.859L189.089 109.885L192.464 112.89L192.219 117.422H192.187C188.589 119.828 184.687 114.817 189.094 112.974C186.177 113.187 183.906 111.26 183.062 109.151C181.927 106.291 183.432 103.093 189.547 104.411C188.937 102.156 189.292 100.51 190.125 99.3591C191.635 97.2602 194.708 96.8175 196.302 97.406C197.755 97.9372 199.208 99.8018 199.474 101.797Z" fill="#4CAF50"/>
<path d="M195.313 125.297C194.526 125.281 193.542 125.521 192.386 126.156C192.386 125.391 192.193 124.766 191.833 124.333L192.219 117.417L192.474 112.88L189.099 109.88L192.781 110.854L193.698 105.25L194.682 110.589L197.953 108.948L194.849 113.036L195.021 117.557L195.313 125.297Z" fill="#CE636F"/>
<path d="M190.13 85.5363C195.776 84.7654 193.208 89.7967 190.573 89.88C193.989 92.2967 188.943 96.0467 186.536 92.4634L189.099 88.7498L186.146 89.9738L186.766 84.6925L183.969 89.6144L181.75 88.9894L183.969 91.4477C183.969 91.4477 183.12 93.4477 181.745 93.9165C180.406 92.9998 178.974 92.005 177.495 90.9425C176.651 88.6144 177.687 85.8592 179.396 85.8592C176.906 80.3436 184.984 77.6248 185.995 82.5207C189.792 77.5363 193.026 83.7498 190.13 85.5363Z" fill="#4CAF50"/>
<path d="M40.7658 99.1983C44.2762 97.1254 47.8647 94.9067 51.3439 92.7036C53.4325 91.3754 55.4897 90.0577 57.4585 88.7713C65.1356 83.7661 71.5679 79.3233 74.2762 77.4015C81.745 72.1098 103.662 43.49 106.386 39.8598C107.724 38.0786 109.172 37.4431 110.531 37.714C111.927 37.9848 113.229 39.214 114.208 41.1098C115 38.615 119.667 35.5942 122.026 39.7452C121.839 38.2504 123.13 36.5994 124.547 35.8181V35.8129C125.667 35.1983 126.87 35.1254 127.464 36.1254C142.604 61.2765 152.151 67.8754 162.089 78.1358C166.401 82.589 172.25 87.1723 177.49 90.9327C178.969 91.9952 180.396 92.9952 181.735 93.9067C182.505 94.4379 183.261 94.9327 183.958 95.4067C184.698 95.9015 185.391 96.3546 186.031 96.7713C187.115 97.4744 188.031 98.0577 188.719 98.4848C189.615 99.0473 190.13 99.3598 190.13 99.3598C189.297 100.511 188.938 102.157 189.552 104.412C183.438 103.089 181.932 106.287 183.063 109.151C175.198 111.901 141.235 110.495 138.766 114.349C136.276 118.23 164.396 118.084 156.63 122.589C148.865 127.094 97.2189 128.818 84.2866 126.678C85.4325 125.323 85.3335 123.375 83.0783 122.178C85.9845 121.646 89.4116 118.282 85.0158 116.834C87.6825 112.938 80.9689 108.714 77.4689 114.063C76.9429 112.938 72.4585 111.688 69.7189 115.553C70.2866 113.516 69.9741 111.464 68.5418 110.917C72.3908 108.537 70.0158 103.329 64.797 104.797C67.7502 98.8234 57.995 93.4692 56.1877 104.006C52.1356 101.678 46.8127 107.683 50.5939 111.651C44.5939 111.115 21.4533 112.964 18.9585 109.709C22.2293 109.032 27.271 106.719 33.0262 103.605C33.8595 103.151 34.7085 102.688 35.5731 102.198C35.9116 102.011 36.245 101.818 36.5887 101.625C36.5939 101.625 36.5939 101.625 36.5939 101.625C37.9637 100.839 39.3543 100.026 40.7658 99.1983Z" fill="#794426"/>
<path d="M189.094 88.75L186.531 92.4635L186.552 96.6927L186.031 96.7708C185.391 96.3542 184.698 95.901 183.958 95.4062V91.4427L181.74 88.9844L183.958 89.6094L186.761 84.6875L186.136 89.974L189.094 88.75Z" fill="#CE636F"/>
<path d="M183.964 91.4375V95.3958L183.958 95.401C183.261 94.9323 182.511 94.4323 181.74 93.901C183.115 93.4375 183.964 91.4375 183.964 91.4375Z" fill="#4CAF50"/>
<path d="M103.62 14.9378C120.547 8.10449 129.76 28.266 124.547 35.8128V35.818C123.13 36.5993 121.838 38.2555 122.026 39.7451C119.666 35.5941 115 38.6149 114.208 41.1097C113.229 39.2139 111.927 37.9847 110.531 37.7139C108.37 23.167 74.0936 33.2607 68.1196 21.3024C56.5467 23.6305 41.1665 15.2451 41.4738 2.04199C46.7602 11.0524 63.38 8.09928 70.0623 6.39095C76.7394 4.68783 82.4894 9.03158 83.2654 11.8285C89.7915 4.99512 103.151 10.1201 103.62 14.9378Z" fill="#CADBEA"/>
<path d="M84.2812 126.677C83.203 127.937 81.0416 128.672 78.5207 127.781L78.4166 127.786L78.3228 126.265L81.5155 123.099L78.3905 123.854V121.698L81.8853 116.568L77.6666 118.958L75.1562 117.422L76.276 120.505V122.047L72.7135 120.812L75.8801 124.104V124.979C70.7916 125.823 67.9947 121.312 68.8176 117.583C69.2187 116.948 69.5103 116.25 69.7082 115.552V115.547C72.4478 111.687 76.9322 112.932 77.4582 114.057C80.9582 108.713 87.6718 112.932 85.0103 116.828C89.4062 118.281 85.9739 121.646 83.0728 122.172C85.328 123.375 85.4322 125.323 84.2812 126.677Z" fill="#4CAF50"/>
<path d="M75.8854 124.985V124.11L72.7188 120.818L76.2812 122.052V120.511L75.1562 117.427L77.6719 118.964L81.8906 116.573L78.3958 121.698V123.854L81.5208 123.104L78.3281 126.271L78.4219 127.792L78.875 135.282C78.6406 135.417 78.3906 135.578 78.1302 135.782C77.9219 135.047 77.0104 134.547 75.8854 134.532V124.985Z" fill="#CE636F"/>
<path d="M68.5415 110.917C69.9738 111.464 70.2863 113.516 69.7186 115.553V115.558C69.2759 116.178 68.9842 116.87 68.8279 117.584C67.3436 119.959 64.5311 121.443 60.8488 118.829L60.7498 117.183L64.6561 111.704L60.7186 114.292L60.3123 113.073L61.0727 106.964L58.5259 113.073L55.2498 109.938L58.255 116.266V119.162C51.6925 122.016 48.4009 115.985 52.3279 112.964C51.6092 112.563 51.0311 112.12 50.5884 111.652C46.8019 107.683 52.13 101.678 56.1821 104.006C57.9946 93.4744 67.7446 98.8234 64.7967 104.797C70.0102 103.323 72.3904 108.537 68.5415 110.917Z" fill="#4CAF50"/>
<path d="M61.5521 57.0211C64.7397 56.3441 67.3178 58.5732 65.6824 59.0889C64.0417 59.6045 32.6459 59.6878 31.4428 59.0889C30.2344 58.4847 33.5053 56.1618 36.9428 57.3701C35.7396 55.3024 38.6771 52.0941 42.1094 55.3024C40.7709 51.3024 45.2449 49.4066 48.2136 53.4378C46.1511 50.6305 47.8646 47.9066 51.1355 47.4743C54.4063 47.042 59.5678 47.6461 57.2396 53.667C58.0157 53.2347 59.9115 53.667 59.4792 55.2191C60.2605 54.443 63.5313 54.3545 61.5521 57.0211Z" fill="#CADBEA"/>
<path d="M58.2606 119.156V116.265L55.2554 109.932L58.5262 113.073L61.0783 106.958L60.3179 113.073L60.7241 114.286L64.6616 111.698L60.7554 117.177L60.8543 118.823L61.4637 128.817C60.8647 128.984 60.1512 129.396 59.3387 130.166C59.6825 128.198 58.6564 127.323 57.5366 127.323H58.2658V119.156H58.2606Z" fill="#CE636F"/>
<path d="M57.4634 88.7705C55.4946 90.057 53.4373 91.3799 51.3488 92.7028C51.3905 91.9476 50.729 91.0518 49.3019 92.1768C49.7446 88.9112 44.9425 88.5622 44.1613 93.5726C43.3748 92.6039 42.2655 92.2497 41.9478 93.5674C41.7238 92.0466 40.2655 90.8226 37.9946 91.6143C39.3853 89.5258 35.2603 86.4476 34.0728 91.1195C26.8696 89.031 26.9217 95.6872 29.2498 97.9997C28.7238 99.5205 29.2342 100.583 30.104 101.104C25.7967 100.802 22.6665 100.25 23.4217 99.2653C24.1769 98.2862 29.0207 96.9997 25.6196 96.0153C22.2134 95.031 10.5675 96.9164 8.604 95.1091C12.8332 92.9893 28.1092 80.432 32.0415 80.5101C35.9738 80.5883 38.8488 87.7653 41.8748 87.5466C44.9009 87.3174 46.7498 84.9737 49.3019 85.2028C51.854 85.4268 57.4634 88.7705 57.4634 88.7705Z" fill="#794426"/>
<path d="M49.2967 92.1827C50.7238 91.0525 51.3853 91.9484 51.3436 92.7088C47.8592 94.9119 44.2707 97.1307 40.7655 99.1984C40.7967 99.0682 41.1092 97.6879 39.8228 96.9327C41.4946 96.2452 42.13 94.8129 41.9425 93.5786V93.5734C42.2603 92.2557 43.3696 92.6046 44.1613 93.5786C44.9373 88.5682 49.7394 88.9171 49.2967 92.1827Z" fill="#4CAF50"/>
<path d="M41.9429 93.5732C42.1304 94.8076 41.495 96.2399 39.8231 96.9274C41.1096 97.6826 40.7971 99.0628 40.7658 99.193C40.7606 99.1982 40.7658 99.1982 40.7658 99.1982C39.3544 100.026 37.9637 100.839 36.594 101.62C36.594 101.62 36.594 101.62 36.5887 101.62C36.5106 101.62 35.7137 100.646 35.7137 99.7191L35.7398 99.2503L38.2762 95.8701L36.0106 96.5732L35.3544 93.2503L34.2033 96.5055L31.5679 95.7868L33.7867 99.1253C33.7867 99.1253 33.6929 99.7764 33.5731 100.589C32.6304 101.599 31.1148 101.724 30.094 101.11C29.2242 100.584 28.7137 99.5211 29.2398 98.0055C26.9117 95.6878 26.8596 89.0368 34.0627 91.1201C35.2606 86.4482 39.3752 89.5264 37.9846 91.6201C40.2554 90.8232 41.719 92.0472 41.9429 93.5732Z" fill="#4CAF50"/>
<path d="M33.578 100.589C33.6978 99.7813 33.7915 99.125 33.7915 99.125L31.5728 95.7865L34.203 96.5052L35.354 93.25L36.0103 96.5729L38.2759 95.8698L35.7394 99.25L35.7134 99.7188L35.5728 102.193C34.7134 102.682 33.8592 103.146 33.0259 103.599C33.1144 103.552 33.38 101.875 33.578 100.589Z" fill="#CE636F"/>
<path d="M183.797 37.646C178.052 37.646 160.448 37.5939 159.198 36.9741C158.63 36.6929 158.427 36.1616 158.672 35.5887C159.297 34.1043 163.016 32.3543 166.958 33.3283C166.703 32.0366 167.365 30.6147 168.766 29.6304C170.323 28.5366 172.651 28.1772 174.63 29.5522C174.557 28.0783 175.38 26.5835 176.891 25.6356C178.568 24.5835 180.906 24.4116 183.047 25.896C182.719 24.7085 182.776 23.5314 183.24 22.4429C184.094 20.4481 186.234 19.0366 188.969 18.6772C190.594 18.4637 196.073 18.0002 198.443 21.0158C199.703 22.6147 199.865 24.8908 198.912 27.7762C199.719 27.6877 200.651 27.9116 201.271 28.4012C201.771 28.797 202.052 29.3231 202.099 29.9272C203.182 29.4897 204.74 29.4689 205.521 30.146C206.037 30.5887 206.406 31.4116 205.578 32.8908C208.901 32.547 211.677 34.0835 212.042 35.4793C212.182 36.0106 211.99 36.6877 211.021 36.9949C209.672 37.422 196.537 37.6304 184.901 37.646C184.604 37.646 184.24 37.646 183.797 37.646ZM164.635 33.9168C161.958 33.9168 159.823 35.1147 159.479 35.922C159.427 36.047 159.422 36.0991 159.589 36.1824C161.432 36.9533 208.297 36.9324 210.755 36.1564C211.276 35.9949 211.224 35.7866 211.203 35.6981C210.964 34.8074 208.219 33.1616 204.771 33.896L203.641 34.1408L204.333 33.2085C204.828 32.5366 205.573 31.3335 204.958 30.797C204.307 30.2345 202.469 30.4793 201.885 31.0574L200.714 32.2241L201.156 30.6252C201.344 29.9637 201.203 29.4429 200.734 29.0731C200.073 28.547 198.969 28.4949 198.427 28.797L197.37 29.3856L197.807 28.2606C198.948 25.297 198.938 23.0314 197.766 21.547C195.677 18.896 190.594 19.3335 189.089 19.5366C186.667 19.8595 184.781 21.0679 184.052 22.7814C183.401 24.3179 183.729 26.0991 184.984 27.8127L184.281 28.3283C181.938 25.1512 179.089 25.2866 177.365 26.3647C175.948 27.2554 174.964 29.021 175.833 30.672L177.719 34.2554L175.115 31.1616C173.313 29.021 170.885 29.2085 169.281 30.3387C168.182 31.1095 167.333 32.5106 168.063 33.7658L168.656 34.7866L167.542 34.396C166.531 34.0627 165.552 33.9168 164.635 33.9168Z" fill="black"/>
<path d="M47.3904 59.943C42.1196 59.943 32.0675 59.8909 31.2498 59.4794C30.8071 59.2555 30.6404 58.818 30.8331 58.3649C31.255 57.3701 33.6612 56.1878 36.2654 56.7242C36.1196 55.7972 36.4998 54.8076 37.3279 54.1565C38.255 53.4169 39.755 53.1305 41.4477 54.219C41.3487 52.8492 41.9112 51.6878 43.031 51.1097C44.0675 50.5732 45.5206 50.594 46.9321 51.5524C46.8279 50.8857 46.906 50.2451 47.1664 49.6305C47.755 48.2555 49.2237 47.2867 51.0935 47.0419C52.4998 46.8544 55.9477 46.6357 57.5258 48.6461C58.3696 49.7138 58.4998 51.2034 57.9268 53.0732C58.4373 53.0576 58.9893 53.2242 59.38 53.5315C59.6925 53.7763 59.8904 54.0992 59.9581 54.469C60.7081 54.219 61.6873 54.2451 62.2133 54.6982C62.505 54.9534 62.8539 55.4899 62.406 56.469C64.5727 56.344 66.3487 57.3805 66.5987 58.3232C66.7081 58.7451 66.5623 59.2763 65.8227 59.5107C64.7706 59.8388 54.38 59.9378 48.4112 59.9482C48.0883 59.943 47.7498 59.943 47.3904 59.943ZM31.6456 58.6826C33.5883 59.2138 63.8748 59.193 65.5518 58.6669C65.6925 58.6201 65.7446 58.5732 65.7498 58.5576C65.7498 58.5367 65.7185 58.4013 65.4893 58.1982C64.9216 57.6878 63.4268 57.0628 61.6456 57.4482L60.5154 57.693L61.2029 56.7607C61.7081 56.0784 61.8696 55.5576 61.6352 55.3544C61.2706 55.0315 60.13 55.1878 59.7966 55.5211L58.6248 56.693L59.0675 55.094C59.1716 54.7086 59.0987 54.4169 58.8331 54.2138C58.4425 53.9065 57.7758 53.8701 57.4633 54.0472L56.406 54.6409L56.8435 53.5055C57.5883 51.5888 57.5831 50.1305 56.8383 49.1826C55.4998 47.4794 52.1873 47.7763 51.2029 47.9065C49.6456 48.1149 48.4321 48.8857 47.9685 49.9742C47.5518 50.943 47.7706 52.0836 48.5727 53.1774L47.8696 53.693C46.3643 51.6513 44.5154 51.3232 43.4321 51.8857C42.3852 52.4274 42.0362 53.6878 42.5362 55.1617L43.0831 56.7972L41.8227 55.6201C40.156 54.0524 38.6925 54.193 37.88 54.8336C37.1456 55.4222 36.9112 56.4117 37.3331 57.1461L37.9321 58.1722L36.8123 57.7763C34.9477 57.1253 33.1821 57.5784 32.2341 58.1669C31.8435 58.3961 31.6925 58.5888 31.6456 58.6826Z" fill="black"/>
<path d="M64.5783 120.651C63.3022 120.651 61.9689 120.156 60.5991 119.182L61.1043 118.474C62.6147 119.547 64.0522 119.958 65.3647 119.698C66.5627 119.458 67.6616 118.625 68.4533 117.354C68.8179 116.771 69.1043 116.125 69.297 115.438L70.1408 115.677C69.922 116.443 69.6043 117.167 69.1929 117.818C68.2762 119.292 66.9793 120.271 65.5366 120.557C65.2189 120.615 64.9012 120.651 64.5783 120.651Z" fill="black"/>
<path d="M55.0262 120.338C52.9949 120.338 51.5001 119.401 50.7605 118.14C49.7762 116.479 50.1303 114.442 51.5939 113.015C51.0835 112.687 50.646 112.333 50.2762 111.948C48.0574 109.619 48.7814 106.875 50.073 105.229C51.3387 103.614 53.6303 102.432 55.8647 103.354C56.7397 99.1611 58.823 98.0101 60.0158 97.6924C61.6616 97.2601 63.4793 97.9111 64.6512 99.3486C65.771 100.718 66.073 102.474 65.521 104.177C68.1303 103.75 69.922 104.953 70.5835 106.458C71.1564 107.765 70.9585 109.567 69.3439 110.875C70.4012 111.739 70.7293 113.552 70.1408 115.661L69.297 115.427C69.7553 113.791 69.6668 111.807 68.3803 111.317L67.5574 111L68.3074 110.536C69.7918 109.619 70.3699 108.156 69.7814 106.812C69.198 105.494 67.4741 104.489 64.9168 105.208L63.9689 105.479L64.4064 104.593C65.2085 102.968 65.047 101.218 63.9689 99.9007C63.0105 98.7288 61.547 98.1924 60.2345 98.5413C58.4324 99.0153 57.146 100.979 56.6147 104.073L56.5105 104.692L55.9637 104.38C54.0158 103.26 51.9012 104.312 50.7605 105.765C49.6824 107.135 49.073 109.422 50.9064 111.343C51.3335 111.791 51.8855 112.203 52.5418 112.567L53.1199 112.89L52.5939 113.297C50.8491 114.646 50.7866 116.479 51.5053 117.692C52.422 119.244 54.8074 120.177 58.0783 118.755L58.1355 118.729C58.1772 118.708 58.2189 118.692 58.2605 118.672L58.6355 119.463C58.5835 119.489 58.5262 119.51 58.4741 119.536L58.4272 119.557C57.1824 120.104 56.0366 120.338 55.0262 120.338Z" fill="black"/>
<path d="M30.0675 101.542C24.2655 101.136 23.2082 100.474 22.9373 99.8753C22.8644 99.7087 22.7863 99.3805 23.0728 99.0003C23.3644 98.6201 24.005 98.2816 24.7498 97.8857C25.2759 97.6097 26.2394 97.0993 26.3644 96.8337C26.3175 96.7764 26.13 96.6201 25.4894 96.4378C24.0832 96.0264 20.9842 96.1462 17.9946 96.2607C13.6509 96.4222 9.54671 96.5837 8.30192 95.4326L7.83838 95.0055L8.40609 94.7191C9.89046 93.9743 12.7915 91.9014 16.1457 89.5003C22.3228 85.0785 29.3123 80.0732 32.0103 80.0732C32.0207 80.0732 32.0363 80.0732 32.0519 80.0732C34.2967 80.1201 36.1821 82.2243 37.8384 84.0889C39.2655 85.6878 40.6092 87.1982 41.8436 87.1097C43.2082 87.0055 44.3436 86.4326 45.4373 85.8805C46.6978 85.2399 47.8905 84.6305 49.3436 84.766C51.9634 84.9899 57.4582 88.2503 57.6873 88.3857L57.2394 89.1357C57.1821 89.1045 51.6925 85.8441 49.2655 85.6357C48.0623 85.5264 47.0311 86.0524 45.8332 86.6566C44.7186 87.2243 43.453 87.8597 41.9113 87.9795C40.2498 88.0993 38.7603 86.4326 37.1925 84.667C35.5728 82.8545 33.9009 80.9795 32.0363 80.943C32.0311 80.943 32.0155 80.943 32.0103 80.943C29.5988 80.943 22.1248 86.292 16.6613 90.2035C13.7394 92.2972 11.1665 94.141 9.51546 95.1045C11.13 95.6357 14.8748 95.4951 17.9686 95.3805C21.1717 95.2555 24.1978 95.141 25.7394 95.5889C26.4113 95.7816 27.1873 96.0837 27.2498 96.7295C27.3332 97.5055 26.328 98.0368 25.1665 98.6566C24.5936 98.9535 23.9478 99.2972 23.7707 99.5264C23.7655 99.5316 23.7655 99.5368 23.7603 99.5368C23.9009 99.6878 24.7863 100.287 30.1353 100.667L30.0675 101.542Z" fill="black"/>
<path d="M99.151 146.953C98.0312 146.953 96.8906 146.953 95.7291 146.948C79.3072 146.849 66.5677 146.026 57.8697 144.505C50.4947 143.213 46.6614 141.541 46.4843 139.531C46.3802 138.338 47.6197 137.265 49.9635 136.463C42.3437 136.073 25.7812 134.416 16.9062 132.963C13.2864 132.369 11.4791 131.338 11.3645 129.817C11.1718 127.239 16.526 124.333 21.927 122.599C24.1041 121.901 26.0052 120.172 25.8333 119.036C25.7552 118.505 25.0208 117.255 19.9374 117.177C14.5937 117.099 2.14578 116.458 2.0364 112.213C1.98953 110.422 5.60932 109.057 9.79682 107.474C12.5989 106.422 16.0781 105.104 16.3437 104.146C16.3749 104.026 16.3593 103.922 16.2864 103.807C15.5729 102.687 11.302 101.942 7.86453 101.343C5.89578 101.005 4.04161 100.677 2.80203 100.297C0.874945 99.7028 0.703069 98.7236 0.765569 98.1924C0.979111 96.4372 4.33328 94.9215 8.57807 94.6768L8.62494 95.5518C4.24474 95.807 1.74474 97.307 1.63015 98.3018C1.55203 98.932 2.5989 99.3278 3.05724 99.4632C4.23953 99.8278 6.07286 100.146 8.01557 100.484C12.901 101.338 16.1666 102 17.0208 103.343C17.2291 103.666 17.2812 104.026 17.1874 104.385C16.8333 105.682 14.276 106.729 10.1041 108.302C7.05724 109.453 2.87494 111.026 2.90619 112.198C2.9739 114.864 11.5156 116.182 19.9427 116.307C24.177 116.375 26.4479 117.244 26.6927 118.911C26.9583 120.672 24.5729 122.677 22.1874 123.437C16.3854 125.307 12.1041 128.026 12.2343 129.76C12.3072 130.776 14.0156 131.609 17.0468 132.109C27.3072 133.791 48.8906 135.828 53.151 135.672L53.2499 136.536C49.0677 137.312 47.276 138.562 47.3593 139.458C47.4114 140.01 48.3229 141.948 58.0208 143.646C66.677 145.161 79.3645 145.979 95.7343 146.078C129.76 146.276 137.948 143.505 138.828 141.135C139.271 139.953 137.687 138.599 136.641 137.703C135.885 137.052 135.625 136.453 135.844 135.885C136.568 134.026 143.25 133.979 147.172 134.119C147.651 134.135 148.156 134.146 148.682 134.156C153.245 134.26 159.484 134.396 166.927 138.047C170.427 139.76 176.599 140.531 184.776 140.255C191.63 140.026 198.687 139.104 203.005 138.317C207.958 137.416 213.338 134.901 213.552 132.01C213.672 130.442 212.25 128.041 204.802 125.489L202.318 124.635H204.943C212.156 124.635 218.786 122.583 219.156 120.896C219.292 120.271 218.276 119.698 217.656 119.411C215.594 118.463 213.667 118 212.26 117.661C210.594 117.26 209.594 117.015 209.411 116.26C209.271 115.703 209.656 115.099 210.719 114.182C212.24 112.869 214.344 112.26 216.198 111.729C217.713 111.297 219.146 110.885 219.406 110.244C219.443 110.161 219.547 109.901 219.229 109.323C218.557 108.135 215.542 107.109 213.115 106.276C209.885 105.177 208.062 104.5 208.005 103.359C207.958 102.531 208.927 101.994 209.651 101.661L210.016 102.458C209.104 102.875 208.87 103.192 208.875 103.312C208.906 103.916 211.609 104.843 213.396 105.453C216.229 106.416 219.156 107.416 219.99 108.896C220.338 109.521 220.417 110.088 220.219 110.583C219.797 111.614 218.312 112.036 216.437 112.573C214.672 113.083 212.661 113.661 211.286 114.849C210.203 115.786 210.255 116.047 210.255 116.062C210.312 116.297 211.557 116.599 212.463 116.817C213.906 117.161 215.88 117.64 218.021 118.625C219.547 119.323 220.213 120.156 220.01 121.088C219.5 123.406 213.266 125.104 207.203 125.448C212.182 127.448 214.604 129.677 214.422 132.078C214.172 135.442 208.568 138.192 203.161 139.177C194.099 140.828 174.786 142.88 166.536 138.833C159.266 135.265 153.135 135.135 148.661 135.036C148.13 135.026 147.62 135.015 147.141 134.994C140.656 134.771 136.953 135.437 136.656 136.208C136.589 136.38 136.786 136.682 137.187 137.021C138.443 138.099 140.307 139.692 139.651 141.448C138.99 143.229 135.786 144.526 129.865 145.427C123.156 146.437 112.833 146.953 99.151 146.953Z" fill="black"/>
<path d="M209.448 102.49C205.114 102.49 200.76 102.292 199.505 102.24H199.458L199.474 101.365L199.547 101.37C200.838 101.427 205.38 101.63 209.828 101.62C215.068 101.599 217.255 101.286 218.172 101.031C213.104 97.8125 209.521 94.8698 206.87 92.6927C204.297 90.5833 202.604 89.1927 201.521 89.1927C200.271 89.1927 197.64 91.5521 195.094 93.8385C193.021 95.7031 190.875 97.6302 189.026 98.7448L188.573 97.9948C190.354 96.9167 192.469 95.0208 194.51 93.1875C197.422 90.5729 199.932 88.3125 201.521 88.3125C202.917 88.3125 204.609 89.7031 207.422 92.0156C210.167 94.2656 213.927 97.3542 219.307 100.708L219.792 101.01L219.375 101.401C219.062 101.693 218.234 102.464 209.828 102.49C209.703 102.49 209.578 102.49 209.448 102.49Z" fill="black"/>
<path d="M102.912 128.016C94.797 128.016 87.922 127.719 84.2085 127.104L84.2814 126.688L84.2762 126.235L84.3491 126.24C97.2866 128.386 148.755 126.646 156.406 122.203C157.531 121.552 157.563 121.188 157.547 121.089C157.354 120.011 151.896 119.063 148.281 118.438C142.469 117.433 138.896 116.714 138.266 115.287C138.156 115.026 138.078 114.61 138.396 114.115C139.792 111.938 148.307 111.391 162.162 110.75C170.677 110.354 179.485 109.943 182.922 108.74C182.927 108.735 182.958 108.729 182.985 108.714L183.031 108.698L183.354 109.511C183.323 109.521 183.297 109.532 183.271 109.542L183.229 109.558C179.656 110.808 171.177 111.203 162.203 111.62C151.979 112.094 140.386 112.636 139.136 114.589C139.005 114.792 139.052 114.891 139.073 114.938C139.557 116.042 144.479 116.891 148.432 117.578C154.432 118.615 158.12 119.334 158.412 120.938C158.594 121.948 157.276 122.714 156.849 122.964C151.313 126.177 123.235 128.016 102.912 128.016Z" fill="black"/>
<path d="M101.083 108.203L100.328 107.765C102.807 103.422 115.651 58.7497 115.609 56.3382L116.484 56.3174C116.526 58.7549 103.583 103.823 101.083 108.203Z" fill="black"/>
<path d="M140.339 95.6823C138.797 93.8646 126.036 67.2708 126.365 62.2031L127.24 62.2604C126.932 67 139.531 93.3802 141.005 95.1146L140.339 95.6823Z" fill="black"/>
<path d="M165.922 101.161C162.885 99.8851 150.167 85.4268 148.917 82.7705L149.708 82.3955C150.885 84.9059 163.437 99.1611 166.26 100.354L165.922 101.161Z" fill="black"/>
<path d="M63.8647 131.391L63.1304 130.922C63.3491 130.516 63.2866 129.948 62.9793 129.562C62.7658 129.297 62.3491 129.021 61.5783 129.24C60.9897 129.401 60.3439 129.818 59.6356 130.49L58.6772 131.385L58.9064 130.094C59.047 129.281 58.9429 128.635 58.5991 128.224C58.3491 127.927 57.9689 127.766 57.5366 127.766C56.8231 127.766 55.9481 128.219 55.6825 129.208L54.8335 128.99C55.2137 127.547 56.5002 126.891 57.5314 126.891C58.2293 126.891 58.8439 127.167 59.2658 127.667C59.521 127.969 59.7814 128.453 59.8335 129.188C60.3543 128.802 60.8647 128.542 61.3439 128.406C62.2814 128.135 63.1304 128.359 63.6616 129.026C63.896 129.313 64.0418 129.661 64.0991 130.021C64.9481 129.521 65.896 129.536 66.5835 129.76C67.37 130.026 67.8752 130.563 67.8752 131.135H67.0002C67.0002 131.005 66.7554 130.74 66.3075 130.594C65.5939 130.349 64.5783 130.432 63.8647 131.391Z" fill="black"/>
<path d="M198.797 119.787C197.313 119.787 195.886 119.131 194.698 117.865L195.323 117.25C197.443 119.511 199.641 118.974 200.766 118.453C202.776 117.526 204.261 115.354 204.068 113.604C203.932 112.344 202.953 111.474 201.235 111.094L199.641 110.75L201.198 110.25C202.198 109.933 202.953 108.969 203.13 107.802C203.276 106.834 202.969 105.964 202.344 105.537C201.448 104.917 199.932 105.151 198.084 106.188L197.594 105.469C199.037 104.308 199.177 102.865 199.042 101.854C198.771 99.8962 197.365 98.2607 196.151 97.8128C194.709 97.2816 191.849 97.7139 190.485 99.6149C189.615 100.808 189.448 102.375 189.969 104.297L190.156 104.99L189.453 104.839C186.729 104.25 184.709 104.547 183.75 105.677C183.068 106.479 182.964 107.719 183.464 108.985C184.203 110.834 186.271 112.735 189.057 112.537L191.724 112.344L189.261 113.375C188.219 113.808 187.62 114.474 187.573 115.245C187.521 116.006 188.011 116.797 188.802 117.256C189.776 117.813 190.917 117.745 191.938 117.058L192.427 117.787C191.141 118.646 189.62 118.735 188.37 118.016C187.287 117.391 186.63 116.287 186.698 115.193C186.729 114.735 186.901 114.006 187.646 113.349C185.167 112.948 183.37 111.11 182.651 109.313C182.026 107.735 182.188 106.167 183.084 105.115C183.865 104.193 185.516 103.256 188.969 103.854C188.594 101.979 188.87 100.349 189.776 99.0993C191.443 96.7764 194.787 96.3805 196.453 96.9951C198.141 97.6201 199.625 99.6566 199.912 101.735C200.052 102.782 199.88 103.766 199.422 104.62C201.125 104.058 202.198 104.37 202.839 104.813C203.745 105.433 204.188 106.625 203.995 107.922C203.839 109.006 203.276 109.953 202.474 110.552C204.401 111.313 204.849 112.688 204.938 113.511C205.172 115.641 203.5 118.162 201.13 119.25C200.354 119.61 199.568 119.787 198.797 119.787Z" fill="black"/>
<path d="M61.0207 128.844L60.3019 117.047L62.9478 113.344L60.4842 114.964L59.8696 113.115L60.2446 110.089L58.6873 113.828L56.6717 111.896L58.6978 116.162V127.323H57.8228V116.36L53.8384 107.964L58.3696 112.313L61.9113 103.823L60.7603 113.021L60.953 113.604L66.3748 110.047L61.1925 117.302L61.8957 128.792L61.0207 128.844Z" fill="black"/>
<path d="M80.7185 128.615C79.9997 128.615 79.2185 128.49 78.3799 128.193L78.6768 127.37C81.1924 128.261 83.0935 127.401 83.9528 126.391C84.4528 125.802 84.6612 125.12 84.5362 124.474C84.3956 123.724 83.8226 123.068 82.8851 122.563L81.7653 121.974L83.0101 121.75C84.7862 121.422 86.6091 120.011 86.6872 118.891C86.7445 118.042 85.7393 117.526 84.8903 117.245L84.3383 117.068L84.6664 116.589C85.2653 115.714 85.3591 114.756 84.9372 113.886C84.4164 112.818 83.2185 112.068 81.8956 111.985C80.9841 111.927 79.2497 112.151 77.8435 114.308L77.4164 114.964L77.0831 114.25C76.9476 113.964 76.1508 113.5 75.0101 113.401C74.1091 113.323 71.8539 113.386 70.1456 115.724L70.0883 115.818C69.6924 116.37 69.4164 117 69.2653 117.688C68.8591 119.547 69.432 121.641 70.7341 123.011C71.9997 124.349 73.8122 124.896 75.8278 124.563C75.8956 124.552 75.9581 124.542 76.0101 124.532L76.182 125.391C76.1091 125.401 76.0258 125.422 75.9476 125.427C73.6508 125.813 71.5726 125.167 70.0935 123.615C68.5778 122.011 67.9268 119.667 68.406 117.5C68.5726 116.745 68.8643 116.052 69.2862 115.427L69.3643 115.308C71.3487 112.516 74.0206 112.433 75.0831 112.532C76.0466 112.62 76.9164 112.933 77.4424 113.365C78.6299 111.823 80.2393 111.011 81.9476 111.12C83.5831 111.224 85.0674 112.162 85.7237 113.511C86.2133 114.516 86.1924 115.599 85.6716 116.615C87.3018 117.297 87.6091 118.25 87.5622 118.959C87.4581 120.391 85.8331 121.74 84.1456 122.354C84.9841 123.032 85.2966 123.771 85.406 124.323C85.5778 125.235 85.3018 126.177 84.6247 126.969C83.8695 127.828 82.5049 128.615 80.7185 128.615Z" fill="black"/>
<path d="M77.88 136.51L77.703 135.891C77.5519 135.359 76.8019 134.979 75.8748 134.964C74.8592 134.948 73.8228 135.359 73.005 136.094L72.4165 135.448C73.3905 134.562 74.6509 134.068 75.8853 134.089C76.9425 134.104 77.828 134.5 78.2811 135.125C78.4061 135.047 78.5259 134.969 78.6509 134.901C80.1353 134.089 81.0467 134.562 81.3696 134.802C81.8123 135.135 82.0467 135.667 81.9425 136.13L81.0884 135.948C81.1092 135.854 81.0415 135.656 80.8384 135.505C80.6509 135.365 80.1092 135.104 79.0728 135.667C78.8436 135.792 78.6092 135.948 78.3853 136.12L77.88 136.51Z" fill="black"/>
<path d="M78.8698 135.282H78.4323L77.8802 126.099L80.1042 123.896L77.9583 124.412V121.563L80.4688 117.875L77.6562 119.469L75.9948 118.448L76.7188 120.433V122.662L74.2917 121.823L76.3229 123.933V134.526L75.4427 134.532V124.287L71.1406 119.808L75.8438 121.438V120.584L74.3177 116.401L77.6771 118.453L83.3073 115.261L78.8281 121.834V123.297L82.9427 122.313L78.776 126.443L79.3073 135.25L78.8698 135.282Z" fill="black"/>
<path d="M33.8957 112.125C25.8019 112.125 19.953 111.719 18.6092 109.964L18.1821 109.411L18.8644 109.271C21.8175 108.661 26.5103 106.62 32.8175 103.208C33.6457 102.76 34.4946 102.292 35.354 101.807C35.6925 101.62 36.0259 101.432 36.3644 101.234L36.8019 101.995C36.4634 102.193 36.1248 102.38 35.7863 102.573C34.9217 103.057 34.0675 103.526 33.2342 103.974C27.4478 107.109 22.9738 109.099 19.9321 109.911C22.9686 111.479 33.9165 111.297 41.38 111.167C45.3488 111.104 48.7811 111.042 50.63 111.208L50.5467 112.078C48.7446 111.917 45.3384 111.979 41.3905 112.042C38.7446 112.094 36.229 112.125 33.8957 112.125Z" fill="black"/>
<path d="M36.8073 102L36.375 101.24C37.7344 100.469 39.1354 99.6566 40.5417 98.8232L40.9844 99.5785C39.5781 100.407 38.1719 101.224 36.8073 102Z" fill="black"/>
<path d="M40.9896 99.5732L40.5469 98.818C43.724 96.943 47.2812 94.7607 51.1146 92.3337C53.2656 90.9743 55.3229 89.6514 57.224 88.4066C64.9427 83.3649 71.4219 78.891 74.0312 77.0368C80.974 72.1201 101.047 46.2555 106.042 39.5993C107.781 37.2816 109.495 37.0576 110.625 37.2816C111.938 37.5368 113.177 38.5472 114.172 40.1514C114.979 38.792 116.661 37.4639 118.458 37.2764C119.708 37.141 120.833 37.5889 121.708 38.5524C122.083 37.2503 123.203 36.0576 124.333 35.4326L124.755 36.193C123.5 36.891 122.302 38.3857 122.458 39.6878L122.724 41.8649L121.646 39.9587C120.896 38.6357 119.828 38.0107 118.552 38.141C116.76 38.3285 115.047 39.9222 114.63 41.2347L114.307 42.2451L113.823 41.3076C112.901 39.5055 111.698 38.3805 110.458 38.141C109.188 37.891 107.906 38.5732 106.74 40.1201C106.505 40.4378 82.5156 72.0993 74.5365 77.7503C71.9219 79.6045 65.4375 84.0889 57.7031 89.1357C55.7969 90.3805 53.7396 91.7035 51.5833 93.068C47.7396 95.5055 44.1719 97.693 40.9896 99.5732Z" fill="black"/>
<path d="M189.901 99.7343C189.901 99.7343 189.391 99.4218 188.49 98.8541C187.797 98.4218 186.88 97.8437 185.792 97.1354C185.151 96.7187 184.464 96.2604 183.714 95.7708L183.438 95.5833C182.818 95.1666 182.167 94.7343 181.49 94.2708C180.026 93.2708 178.594 92.2708 177.235 91.2916C170.651 86.5573 165.453 82.2343 161.776 78.4375C159.797 76.3958 157.865 74.526 155.823 72.5573C147.667 64.6718 139.229 56.5208 127.089 36.3489C126.485 35.3489 125.151 35.9791 124.755 36.1927L124.333 35.4323C125.828 34.6093 127.172 34.7864 127.839 35.901C139.917 55.9739 148.313 64.0833 156.427 71.9271C158.474 73.9062 160.412 75.776 162.401 77.8333C166.042 81.5937 171.198 85.8802 177.745 90.5833C179.094 91.5573 180.521 92.5521 181.979 93.5521C182.651 94.0104 183.307 94.4479 183.922 94.8593L184.198 95.0416C184.938 95.5364 185.63 95.9948 186.266 96.4062C187.349 97.1093 188.266 97.6875 188.948 98.1198C189.839 98.6823 190.349 98.9896 190.349 98.9896L189.901 99.7343Z" fill="black"/>
<path d="M40.7656 99.6357H40.4688L40.2448 99.0993L40.3594 98.9847C40.4115 98.6462 40.4427 97.8076 39.599 97.3076L38.8438 96.8597L39.6562 96.5264C41.25 95.8701 41.651 94.5628 41.5104 93.641L42.375 93.5107C42.5573 94.6826 42.0625 96.141 40.6302 97.016C41.1094 97.5316 41.276 98.1878 41.2604 98.766H41.7552L41.0938 99.4951L41.0833 99.5107L40.776 99.2139V99.6357H40.7656Z" fill="black"/>
<path d="M31.4841 101.921C30.9216 101.921 30.3591 101.776 29.8695 101.479C28.7445 100.807 28.3383 99.5568 28.7498 98.1141C27.4945 96.6766 26.88 93.9579 27.9789 92.0881C28.5518 91.1089 30.0623 89.6454 33.7602 90.5881C34.3435 88.786 35.3539 88.3537 35.932 88.2652C36.8175 88.1245 37.7758 88.5881 38.3123 89.4266C38.6352 89.9214 38.7602 90.4683 38.682 90.9839C39.7393 90.812 40.4998 91.0777 40.9841 91.3745C41.7289 91.8224 42.2341 92.6037 42.3695 93.5099L41.505 93.6402C41.4112 92.9943 41.057 92.437 40.531 92.1245C39.8956 91.7391 39.0675 91.7079 38.13 92.036L36.9008 92.4631L37.6248 91.3797C38.0414 90.7547 37.7341 90.1402 37.5831 89.9058C37.2289 89.3589 36.6248 89.0464 36.0727 89.1349C35.3695 89.2443 34.807 89.9943 34.4893 91.2339L34.38 91.6766L33.9425 91.5464C31.3591 90.7964 29.557 91.1454 28.7341 92.5412C27.8123 94.1089 28.406 96.5568 29.557 97.6974L29.7498 97.8902L29.6612 98.1506C29.2654 99.2964 29.5102 100.244 30.3279 100.734C31.1248 101.218 32.4373 101.182 33.2602 100.296L33.3904 100.156H33.5779L33.5987 100.583L33.9008 100.895H33.8904C33.2602 101.567 32.3695 101.921 31.4841 101.921Z" fill="black"/>
<path d="M36.5936 102.057C36.0728 102.057 35.2759 100.641 35.2759 99.7188H36.1509C36.1509 100.396 36.7134 101.161 36.8332 101.26C36.8019 101.229 36.7134 101.177 36.5884 101.177L36.5936 102.057Z" fill="black"/>
<path d="M33.2238 103.985L32.8332 103.203C32.6925 103.276 32.6509 103.386 32.6457 103.391C32.6613 103.344 32.7759 102.969 33.1405 100.526C33.2238 99.9639 33.2967 99.4691 33.328 99.2295L30.5571 95.0576L33.9217 95.9795L35.4686 91.6045L36.3384 96.016L39.4321 95.0524L36.1665 99.4118L36.0103 102.214L35.1353 102.167L35.3123 99.0993L37.1092 96.693L35.6717 97.141L35.229 94.9066L34.4738 97.042L32.5832 96.5264L34.2498 99.0264L34.2238 99.1878C34.2238 99.1878 34.1353 99.8493 34.0103 100.662C33.5311 103.834 33.4686 103.86 33.2238 103.985Z" fill="black"/>
<path d="M44.4427 94.6142L43.8229 93.8538C43.3906 93.3278 42.9375 93.1038 42.7083 93.1559C42.5104 93.1975 42.4115 93.4996 42.3698 93.6715L41.9479 93.5725L41.5 93.5778L41.5156 93.4684C41.7135 92.6455 42.1719 92.3798 42.5104 92.2965C42.9427 92.2028 43.4271 92.3538 43.8906 92.7028C44.5521 90.2236 46.2813 89.1298 47.7865 89.3486C48.6979 89.4788 49.5885 90.1663 49.7396 91.3798C50.3437 91.109 50.7812 91.1923 51.0729 91.3434C51.5365 91.583 51.8125 92.1298 51.7812 92.7236L50.9115 92.6767C50.9219 92.4736 50.8542 92.2132 50.6667 92.1194C50.4427 92.0048 50.0365 92.1559 49.5677 92.5205L48.7188 93.1923L48.8646 92.1142C49.0052 91.083 48.5313 90.3382 47.6615 90.2132C46.6667 90.0673 45.0208 90.859 44.5885 93.6403L44.4427 94.6142Z" fill="black"/>
<path d="M196.953 128.152L197.266 127.136C197.302 127.016 197.281 126.782 197.083 126.511C196.917 126.287 196.412 125.756 195.307 125.74C194.521 125.73 193.583 126 192.599 126.542L191.948 126.907V126.162C191.948 125.511 191.792 124.974 191.49 124.615C191.214 124.271 190.818 124.089 190.328 124.079C189.156 124.032 187.682 124.907 186.224 126.459L185.583 125.865C187.235 124.099 188.927 123.146 190.354 123.204C191.099 123.23 191.724 123.527 192.162 124.063C192.474 124.438 192.677 124.917 192.766 125.474C193.677 125.058 194.526 124.86 195.318 124.865C196.365 124.881 197.266 125.292 197.787 126C197.932 126.204 198.042 126.422 198.099 126.636C198.917 126.402 199.802 126.485 200.375 126.698C200.828 126.865 201.13 127.125 201.25 127.438L200.432 127.75C200.422 127.719 200.333 127.615 200.068 127.521C199.505 127.308 198.573 127.292 197.886 127.662L196.953 128.152Z" fill="black"/>
<path d="M194.88 125.312L194.401 112.906L196.458 110.188L194.354 111.245L193.719 107.802L193.13 111.401L190.755 110.776L192.917 112.698L192.271 124.359L191.396 124.312L192.021 113.073L187.432 108.984L192.422 110.307L193.661 102.703L195.005 109.938L199.437 107.719L195.286 113.182L195.75 125.281L194.88 125.312Z" fill="black"/>
<path d="M186.094 92.4639H186.969L186.99 96.6878L186.115 96.693L186.094 92.4639Z" fill="black"/>
<path d="M181.88 94.3177L181.599 93.4896C182.771 93.0885 183.557 91.2865 183.563 91.2656L184.365 91.6094C184.328 91.6979 183.427 93.7969 181.88 94.3177Z" fill="black"/>
<path d="M184.401 95.4011H183.526V91.6095L180.401 88.1511L183.755 89.1043L187.453 82.6043L186.662 89.2918L190.297 87.7866L187.068 92.4636C187.719 93.2761 188.61 93.6407 189.537 93.4689C190.401 93.3022 191.104 92.698 191.261 92.0001C191.396 91.3751 191.073 90.7709 190.323 90.2449L189.255 89.4949L190.563 89.4532C191.537 89.422 192.474 88.573 192.86 87.7814C192.979 87.5314 193.235 86.8959 192.917 86.448C192.709 86.1668 192.078 85.7189 190.193 85.9793L188.136 86.2605L189.901 85.172C190.589 84.7501 190.917 83.9532 190.776 83.047C190.63 82.0991 190.011 81.3022 189.271 81.1147C188.38 80.8803 187.339 81.4793 186.339 82.7814L185.755 83.5418L185.563 82.6043C185.334 81.4897 184.662 80.7345 183.677 80.4897C182.443 80.1772 180.979 80.6876 180.11 81.7241C179.229 82.7761 179.115 84.1772 179.787 85.672L180.068 86.2918H179.396C178.854 86.2918 178.474 86.672 178.25 86.9949C177.594 87.9272 177.448 89.4376 177.875 90.7032L177.933 90.7605L177.938 90.948H177.495L177.183 91.2501L177.115 91.1772L177.078 91.0886C176.511 89.5261 176.688 87.6824 177.526 86.4897C177.87 86.0001 178.302 85.6616 178.781 85.5105C178.224 83.9011 178.453 82.3438 179.438 81.1616C180.516 79.8751 182.339 79.2501 183.886 79.6407C184.953 79.9064 185.745 80.5991 186.172 81.6199C187.599 80.0886 188.839 80.0939 189.485 80.2605C190.578 80.5418 191.443 81.6043 191.641 82.9116C191.761 83.7032 191.62 84.4324 191.255 85.0209C192.391 85.0209 193.183 85.3282 193.62 85.9324C194.042 86.5157 194.047 87.3282 193.641 88.1564C193.25 88.9532 192.453 89.7657 191.511 90.1251C192.224 90.9324 192.214 91.7293 192.11 92.1824C191.886 93.2241 190.917 94.0886 189.698 94.3178C188.339 94.5782 187.021 93.9793 186.167 92.7084L186 92.4636L187.891 89.7241L185.615 90.6668L186.078 86.7866L184.177 90.1303L183.089 89.823L184.401 91.2761V95.4011Z" fill="black"/>
<path d="M78.2082 95.0674L77.5884 94.4528C81.5988 90.3903 100.781 59.9997 102.594 56.1455L103.385 56.5153C101.505 60.5205 82.4321 90.7966 78.2082 95.0674Z" fill="black"/>
<mask id="mask1_5546_11871" style="mask-type:luminance" maskUnits="userSpaceOnUse" x="40" y="0" width="88" height="39">
<path d="M40.6665 0.421875H127.333V39H40.6665V0.421875Z" fill="white"/>
</mask>
<g mask="url(#mask1_5546_11871)">
<path d="M110.099 37.7809C109.01 30.4424 99.3438 29.6663 89.099 28.8434C80.1875 28.1247 70.974 27.3903 67.8802 21.7966C61.2188 23.0153 53.4011 20.8434 47.8802 16.2132C43.3438 12.4059 40.9167 7.36947 41.0417 2.03092L41.0782 0.489258L41.8542 1.81738C44.0573 5.5778 48.5677 7.58822 55.2552 7.79655C61.099 7.97363 66.974 6.72363 69.948 5.96322C76.3698 4.32259 81.9948 8.12467 83.4271 11.0465C87.3855 7.40072 93.1875 7.59863 97.4219 9.05697C100.917 10.2653 103.391 12.2913 103.948 14.333C111.042 11.6663 117.693 13.3903 122.266 19.1038C126.51 24.4059 127.698 32.0153 124.906 36.057L124.859 36.1091L124.734 36.2445L124.542 36.2497V35.8174H124.099L124.286 35.6299L124.182 35.557C126.771 31.8122 125.604 24.6768 121.578 19.6455C117.156 14.1247 110.672 12.5518 103.776 15.333L103.234 15.5518L103.177 14.9684C102.995 13.1143 100.568 11.0674 97.1355 9.87988C92.9844 8.44238 87.2448 8.28092 83.5782 12.1195L83.0469 12.6768L82.8386 11.9372C82.0938 9.25488 76.573 5.16634 70.1667 6.80697C65.0209 8.12467 48.3802 11.5986 41.9427 3.48926C42.2552 8.02051 44.5261 12.2497 48.4375 15.5309C53.849 20.0726 61.5417 22.1663 68.0261 20.8643L68.3542 20.7966L68.5052 21.0986C71.2136 26.5205 80.3386 27.2549 89.1667 27.958C99.2917 28.7705 109.766 29.609 110.964 37.6403L110.099 37.7809Z" fill="black"/>
</g>
</svg>
