<svg width="192" height="144" viewBox="0 0 192 144" fill="none" xmlns="http://www.w3.org/2000/svg">
<path d="M183.447 115.405C184.645 114.368 186.395 113.868 187.937 113.425C189.567 112.951 190.858 112.582 191.223 111.681C191.4 111.254 191.332 110.759 191.025 110.212C190.301 108.92 187.749 108.05 185.286 107.212C183.723 106.681 181.374 105.884 181.348 105.353C181.343 105.248 181.536 104.988 182.265 104.639C189.509 104.613 190.228 103.946 190.499 103.691L190.864 103.353L190.442 103.087C185.754 100.165 182.478 97.4723 180.088 95.5088C177.634 93.4984 176.155 92.2848 174.942 92.2848C173.546 92.2848 171.207 94.3369 168.499 96.7067C166.739 98.2536 164.926 99.8369 163.431 100.774C163.088 100.618 162.692 100.431 162.265 100.228V96.8838C162.942 97.4463 163.786 97.6807 164.645 97.514C165.702 97.3161 166.546 96.5661 166.744 95.6546C166.827 95.2588 166.843 94.5661 166.218 93.8629C167.041 93.5504 167.733 92.8421 168.077 92.1494C168.431 91.4254 168.421 90.7171 168.056 90.2067C167.676 89.6859 166.989 89.415 165.999 89.4098C166.317 88.8994 166.437 88.2588 166.332 87.5765C166.161 86.4411 165.411 85.514 164.457 85.2692C163.895 85.1234 162.812 85.1129 161.567 86.4515C161.197 85.5609 160.504 84.9567 159.577 84.7223C158.228 84.3838 156.64 84.9307 155.702 86.0504C154.843 87.0713 154.645 88.4254 155.124 89.8213C154.358 90.0088 153.681 90.5817 153.421 91.3213C153.088 92.2379 153.421 93.2379 154.338 94.1077C154.228 94.3734 154.207 94.7067 154.27 95.0713C154.338 95.4723 154.536 95.9567 154.874 96.3838C148.431 92.7432 143.275 89.0088 139.921 85.5452C138.041 83.6025 136.259 81.9098 134.536 80.2692C128.197 74.2536 122.213 68.5609 111.9 51.4307C111.692 51.0765 111.395 51.0244 111.239 51.0348C110.952 51.0452 110.562 51.1911 109.937 52.0348C110.827 48.7536 113.353 45.639 117.483 42.764C118.765 41.8734 119.499 40.2848 119.317 38.8161C119.187 37.7692 118.593 36.9775 117.697 36.639C116.046 36.0244 113.598 36.9619 110.713 39.29C112.483 34.8161 116.114 27.889 120.681 24.8994C124.832 22.1859 127.806 17.9671 127.447 15.2952C127.296 14.139 126.546 13.3057 125.291 12.8994C121.244 11.5817 116.723 15.4567 112.973 19.5765C113.588 17.3161 113.437 14.9932 112.494 13.6494C111.999 12.9463 111.322 12.5504 110.504 12.4671C111.207 10.9827 111.062 8.91503 110.088 7.43587C109.108 5.9567 107.509 5.35253 105.697 5.79003C102.296 6.59732 101.457 10.0661 100.296 14.8629C100.041 15.9254 99.7595 17.0817 99.4314 18.29C98.6449 14.9463 96.0199 11.3161 93.7491 10.8421C93.1345 10.7171 92.0824 10.7275 91.2543 11.9463C89.3793 7.15462 85.2282 0.581699 81.8584 0.0400324C80.7751 -0.13705 79.8428 0.274406 79.0876 1.25357C77.0303 3.91503 79.5928 7.45149 82.5616 11.54C84.3949 14.0765 86.4157 16.8682 87.5824 19.7796C86.4418 18.4723 85.197 17.9254 84.223 17.8838C83.2855 17.8473 82.4782 18.2536 82.072 18.9775C81.8532 19.3734 81.7595 19.8369 81.8012 20.3421C80.4678 18.9671 78.6553 17.4827 76.7387 16.2275C74.8897 15.0192 71.3949 13.0036 68.7491 13.139C67.5512 13.2015 66.697 13.6911 66.2126 14.5973C64.3012 18.165 67.4574 19.9515 72.2282 22.6598C73.697 23.4932 75.3637 24.4359 77.098 25.5504C80.2126 27.5557 83.4418 32.6702 85.9574 39.5713C88.0564 45.3317 89.2126 51.2744 88.723 53.7796C87.6293 55.2275 70.572 77.7015 63.8428 82.4671C61.5876 84.0661 56.0251 87.9098 49.4053 92.2379C48.4418 91.6754 44.3845 89.3734 42.3324 89.1963C41.072 89.0817 40.0303 89.6077 38.9314 90.165C37.9782 90.6494 36.9939 91.1494 35.8012 91.2379C34.7334 91.3161 33.5564 90.0036 32.3116 88.6077C30.8636 86.9879 29.2282 85.1494 27.2699 85.113C27.2543 85.113 27.2439 85.113 27.2334 85.113C24.8897 85.113 18.8012 89.4671 13.4262 93.3109C10.5407 95.3786 8.04594 97.1598 6.72823 97.8317C3.07719 98.0661 0.191775 99.3734 0.00948455 100.894C-0.0478075 101.358 0.108443 102.212 1.78032 102.728C2.86365 103.061 4.48344 103.342 6.19698 103.644C9.19178 104.165 12.9157 104.816 13.5355 105.79C13.598 105.889 13.6137 105.983 13.5824 106.082C13.3532 106.92 10.3168 108.066 7.87407 108.988C4.22303 110.368 1.07719 111.55 1.11886 113.118C1.21782 116.816 12.0564 117.373 16.7126 117.441C21.1449 117.509 21.7855 118.592 21.8532 119.056C21.9991 120.045 20.3428 121.556 18.447 122.165C13.7439 123.681 9.07719 126.207 9.24386 128.457C9.34282 129.785 10.9262 130.681 14.072 131.196C21.8168 132.467 36.2439 133.905 42.8793 134.248C40.8376 134.946 39.7595 135.879 39.848 136.92C40.0043 138.67 43.3428 140.129 49.7647 141.254C57.3532 142.582 68.447 143.295 82.7543 143.379C83.7699 143.389 84.7595 143.389 85.7386 143.389C97.6605 143.389 106.655 142.936 112.499 142.05C117.655 141.264 120.447 140.129 121.025 138.582C121.593 137.05 119.973 135.665 118.879 134.728C118.53 134.425 118.358 134.165 118.416 134.014C118.676 133.342 121.9 132.764 127.551 132.957C127.973 132.972 128.421 132.983 128.89 132.993C132.786 133.082 138.124 133.196 144.452 136.3C151.624 139.826 168.463 138.045 176.364 136.603C181.072 135.748 185.963 133.347 186.176 130.415C186.338 128.321 184.223 126.379 179.89 124.644C185.166 124.342 190.603 122.863 191.046 120.837C191.223 120.024 190.64 119.3 189.312 118.691C187.447 117.837 185.728 117.42 184.468 117.118C183.681 116.925 182.598 116.665 182.546 116.457C182.546 116.451 182.499 116.222 183.447 115.405ZM158.291 97.1546C158.687 97.0036 159.004 96.7275 159.259 96.4307V98.7432C158.4 98.3004 157.546 97.8473 156.702 97.3994C157.145 97.4463 157.676 97.3942 158.291 97.1546Z" fill="black"/>
<path d="M133.973 54.0981L130.499 54.4158L133.963 54.8533C146.259 56.4106 147.296 57.9314 151.666 64.3168C152.213 65.1241 152.843 66.0408 153.546 67.0304C154.952 69.0252 157.067 70.2595 158.775 70.2595C159.296 70.2595 159.785 70.145 160.197 69.895C161.843 68.9158 162.062 67.02 160.78 64.8273C157.244 58.7752 148.358 52.7752 133.973 54.0981Z" fill="black"/>
<path d="M81.02 47.3219L78.3117 45.1761C68.7596 37.6344 59.6919 37.8376 54.395 40.5303C52.4784 41.5042 51.7284 43.0199 52.4367 44.4834C53.2127 46.0615 55.9992 46.5355 58.5252 45.5199C59.4784 45.1344 60.3325 44.7751 61.1086 44.4469C67.2596 41.8532 68.5461 41.3115 77.9054 45.8219L81.02 47.3219Z" fill="black"/>
<path d="M177.369 42.5452L177.062 42.4307L176.286 43.8265C175.895 43.9255 175.161 44.139 175.062 44.165L174.832 44.2327L174.791 44.4671C174.536 45.9202 174.567 46.0869 174.577 46.1442C174.598 46.2588 174.624 46.4411 175.661 47.3577L175.806 47.488L176.452 47.3473L177.624 48.1338L179.76 46.3473L179.775 46.1859C179.942 43.7848 179.905 43.7275 179.817 43.5973C179.744 43.4775 179.702 43.415 177.369 42.5452Z" fill="black"/>
<path d="M181.661 73.1605L181.864 73.6501L181.333 74.7178L183.208 76.2021L183.364 76.1865C185.452 75.973 185.499 75.9365 185.598 75.8376C185.713 75.7438 185.754 75.7074 186.202 73.7282L186.28 73.3896L184.942 72.9626C184.801 72.6605 184.541 72.1501 184.504 72.0824L184.4 71.874H184.166C182.885 71.8844 182.749 71.9313 182.702 71.9469C182.588 71.9782 182.442 72.0251 181.78 72.9886L181.661 73.1605Z" fill="black"/>
<path d="M30.5304 71.7646V66.7074L27.9419 65.7594L27.8534 65.5563C30.7179 62.1188 37.9679 54.3063 46.4731 51.7907L46.2544 51.0615C37.7856 53.5667 30.5825 61.1501 27.5148 64.7751L26.8221 63.1917H22.0044L18.77 70.4417L25.3117 74.9157L30.5304 71.7646Z" fill="black"/>
<path d="M57.2073 70.0667C56.374 71.1032 56.0094 72.0771 56.1292 72.9574C56.2177 73.6605 56.6188 74.2855 57.2802 74.7699C57.6813 75.0563 58.1083 75.2021 58.5563 75.2021C58.775 75.2021 58.999 75.1709 59.2177 75.098C60.6136 74.6553 61.7333 72.8844 61.9417 72.2542C62.1396 71.6605 66.15 64.8428 72.1292 63.6136L72.0302 62.8584C65.4104 63.2751 59.0094 67.8324 57.2073 70.0667Z" fill="black"/>
<path d="M147.541 23.6862L147.681 24.4362C158.936 22.3164 167.129 22.1706 173.447 23.9622L174.884 26.8372L177.53 29.6185L180.811 26.9154L182.176 24.3945L179.686 21.0039H176.738L173.327 23.1393C166.931 21.4102 158.718 21.582 147.541 23.6862Z" fill="black"/>
<path d="M119.999 40.2747L120.546 40.806C125.275 35.957 132.822 36.4466 135.348 36.7747L136.28 39.6654L139.239 40.9518L142.103 40.1289L143.202 36.8841L141.983 35.2956L140.744 35.3477L139.416 33.9258H138.296L138.192 34.0091C138.114 34.0716 137.588 34.5352 136.442 35.556L135.858 36.0768C133.765 35.7591 125.265 34.8789 119.999 40.2747Z" fill="black"/>
<path d="M46.3479 18.5928C49.6499 18.8533 53.0666 19.1293 54.8427 20.0928L55.7697 20.5928L55.3791 19.6137C54.3166 16.9522 43.5302 10.9053 38.4416 11.3428C36.3999 11.5199 35.7385 12.6606 35.5458 13.5876C35.3583 14.4783 35.5041 15.2543 35.9885 15.9001C37.4729 17.8845 41.7802 18.2283 46.3479 18.5928Z" fill="black"/>
<path d="M150.447 6.97254C151.978 7.24337 153.431 7.48816 154.905 7.54545C157.879 7.66524 159.327 6.10274 159.41 4.61316C159.494 3.08191 158.129 1.33191 154.942 1.10275C148.983 0.68087 141.801 4.10274 137.322 7.68087L137.749 8.31108C142.426 5.58191 146.504 6.29025 150.447 6.97254Z" fill="black"/>
<path d="M68.0666 133.217L67.6708 126.691L67.7645 126.686C69.9572 127.462 71.8479 126.821 72.7854 125.717C84.0562 127.587 129.051 126.087 135.817 122.16C142.587 118.233 118.087 118.368 120.249 114.983C122.405 111.618 151.999 112.847 158.853 110.446C159.582 112.285 161.561 113.962 164.108 113.785C160.27 115.389 163.671 119.754 166.806 117.66H166.832L166.494 123.681C166.806 124.061 166.978 124.603 166.978 125.274C167.983 124.717 168.843 124.514 169.525 124.53V124.524L169.265 117.785C174.238 123.066 181.634 113.28 174.77 111.774C177.926 110.769 177.572 104.264 171.754 107.54C172.968 106.561 173.311 105.269 173.155 104.045C173.317 104.05 177.811 104.28 182.166 104.264C177.171 106.566 189.15 107.67 190.692 110.41C192.228 113.139 186.171 112.55 183.192 115.123C180.218 117.691 184.145 116.743 189.15 119.05C194.16 121.347 186.035 124.326 177.916 124.326C192.535 129.332 183.739 134.884 176.296 136.238C168.848 137.592 151.796 139.488 144.619 135.967C137.442 132.446 131.488 132.717 127.561 132.582C123.64 132.446 115.785 132.582 118.629 135.019C121.473 137.451 128.374 143.274 82.7541 143.004C37.1447 142.733 34.702 135.967 45.6708 133.936C41.8791 134.071 23.202 132.311 14.1291 130.821C5.05621 129.332 11.2854 124.863 18.5562 122.53C21.9364 121.441 25.5458 117.196 16.7125 117.061C7.88433 116.931 1.55621 115.545 1.49371 113.108C1.426 110.67 13.3531 108.363 13.9468 106.186C14.5354 104.014 5.31662 103.42 1.88954 102.368C-1.53234 101.311 1.16558 98.5452 6.83225 98.2119C8.54579 99.7952 18.6968 98.1494 21.6604 99.0036C24.6291 99.863 20.4052 100.978 19.7489 101.837C19.0875 102.696 21.8166 103.181 25.5666 103.441C26.4208 103.957 27.6864 103.879 28.5093 103.076C28.3635 104.243 28.1916 105.566 28.1187 105.608C23.1031 108.316 18.7125 110.337 15.8583 110.925C18.0354 113.759 38.202 112.155 43.426 112.618C43.8166 113.03 44.3166 113.41 44.9416 113.759C41.5197 116.394 44.3895 121.655 50.1083 119.165V126.28H49.4729C50.4468 126.28 51.3427 127.04 51.0406 128.754C51.7489 128.092 52.3739 127.728 52.8947 127.582L52.3635 118.873C55.5718 121.155 58.025 119.858 59.3166 117.79C58.5979 121.045 61.0302 124.972 65.4677 124.238V132.55C66.4468 132.566 67.2385 132.998 67.4208 133.639C67.65 133.472 67.8635 133.332 68.0666 133.217Z" fill="#4CAF50"/>
<path d="M184.66 73.2695L185.832 73.6445C185.832 73.6445 185.41 75.4987 185.348 75.5508C185.285 75.6081 183.322 75.806 183.322 75.806L181.806 74.6133L182.285 73.6654L182.093 73.2018C182.093 73.2018 182.676 72.3477 182.811 72.306C182.947 72.2643 184.166 72.2539 184.166 72.2539C184.166 72.2539 184.587 73.0716 184.66 73.2695Z" fill="#C41830"/>
<path d="M182.171 104.265C177.822 104.275 173.322 104.051 173.155 104.041C172.921 102.301 171.655 100.676 170.395 100.213C168.999 99.7021 166.327 100.088 165.015 101.916C165.015 101.916 164.442 101.671 163.458 101.218C167.155 98.9782 172.775 92.6709 174.942 92.6709C177.109 92.6709 180.9 97.5876 190.239 103.416C189.546 104.062 185.911 104.254 182.171 104.265Z" fill="#794426"/>
<path d="M173.718 23.6341L173.598 23.4102L176.848 21.3789H179.489L181.723 24.4258L180.51 26.6654L177.556 29.0977L175.223 26.6654L173.718 23.6341Z" fill="#C41830"/>
<path d="M179.504 43.8109C179.557 43.8942 179.4 46.165 179.4 46.165L177.609 47.6598L176.536 46.9411L175.921 47.0765C175.921 47.0765 174.984 46.2432 174.958 46.0869C174.932 45.9255 175.171 44.5348 175.171 44.5348C175.171 44.5348 176.27 44.2119 176.541 44.1598L177.239 42.8994C177.234 42.8994 179.452 43.7327 179.504 43.8109Z" fill="#C41830"/>
<path d="M158.853 110.446C157.864 107.957 159.176 105.175 164.504 106.316C163.973 104.358 164.285 102.925 165.009 101.92C166.327 100.092 168.999 99.7014 170.39 100.212C171.655 100.681 172.916 102.306 173.155 104.045C173.317 105.274 172.968 106.561 171.754 107.54C177.572 104.259 177.926 110.769 174.77 111.774C181.634 113.28 174.239 123.066 169.265 117.785L169.114 113.842L171.817 110.28L168.973 111.712L168.108 107.056L167.311 111.941L164.103 111.092L167.041 113.712L166.832 117.655H166.806C163.671 119.754 160.27 115.384 164.108 113.78C161.567 113.962 159.582 112.285 158.853 110.446Z" fill="#4CAF50"/>
<path d="M169.275 117.78L169.535 124.52V124.525C168.848 124.509 167.988 124.717 166.983 125.27C166.983 124.598 166.806 124.056 166.504 123.681L166.837 117.655L167.056 113.702L164.119 111.087L167.327 111.936L168.124 107.051L168.983 111.707L171.832 110.275L169.129 113.837L169.275 117.78Z" fill="#C41830"/>
<path d="M165.015 89.8733C169.931 89.1963 167.697 93.5817 165.4 93.6546C168.379 95.7588 163.978 99.0296 161.879 95.9046L164.114 92.6702L161.541 93.7379L162.082 89.139L159.645 93.4202L157.707 92.8786L159.645 95.0192C159.645 95.0192 159.166 96.415 158.161 96.8056C157.223 97.1702 156.452 97.0713 155.874 96.7484C154.733 96.1181 154.332 94.5973 154.822 94.04C152.504 92.1077 154.171 90.1442 155.661 90.1442C153.489 85.3421 160.53 82.9723 161.411 87.2379C164.718 82.8994 167.536 88.3161 165.015 89.8733Z" fill="#4CAF50"/>
<path d="M165.015 101.921C164.285 102.926 163.973 104.358 164.509 106.317C159.181 105.171 157.869 107.952 158.858 110.447C152.004 112.848 122.41 111.619 120.254 114.983C118.088 118.364 142.593 118.233 135.822 122.161C129.056 126.088 84.0615 127.588 72.7855 125.718C73.7855 124.541 73.6917 122.843 71.7334 121.801C74.2647 121.343 77.2542 118.411 73.4209 117.145C75.7438 113.754 69.8949 110.067 66.8428 114.733C66.3844 113.754 62.4782 112.661 60.0928 116.03C60.5824 114.254 60.3115 112.468 59.0667 111.989C62.4209 109.916 60.3532 105.374 55.8063 106.661C58.3792 101.452 49.8792 96.7804 48.3011 105.968C44.7699 103.937 40.1344 109.171 43.4261 112.629C38.2021 112.166 18.0355 113.77 15.8584 110.937C18.7126 110.348 23.1032 108.332 28.1188 105.619C28.8428 105.223 29.5876 104.817 30.3376 104.395C30.6344 104.228 30.9261 104.067 31.223 103.895C31.2282 103.895 31.2282 103.895 31.2282 103.895C32.4209 103.223 33.6292 102.515 34.8584 101.786C37.9157 99.9835 41.0511 98.0512 44.0824 96.1293C45.9001 94.9731 47.6917 93.8168 49.4053 92.7022C56.098 88.3429 61.7021 84.4679 64.0615 82.7908C70.5719 78.1814 86.7178 57.1085 89.0824 53.947C91.4574 50.7856 95.6553 53.671 93.7699 63.6241C94.4626 61.447 101.202 53.0095 105.582 64.4314C105.395 62.9366 107.426 57.2856 109.218 53.947C110.218 52.0824 111.145 50.9366 111.567 51.6397C124.759 73.5616 130.983 76.8793 139.645 85.822C143.978 90.296 150.338 94.3272 155.603 97.2439C157.051 98.0408 158.421 98.7595 159.64 99.3793C160.463 99.796 161.213 100.161 161.879 100.483C162.478 100.77 163.015 101.02 163.457 101.223C164.442 101.676 165.015 101.921 165.015 101.921Z" fill="#794426"/>
<path d="M164.108 92.6702L161.874 95.9046V100.472C161.213 100.155 160.457 99.7848 159.64 99.3682V95.0192L157.702 92.8734L159.64 93.4202L162.077 89.1338L161.53 93.738L164.108 92.6702Z" fill="#C41830"/>
<path d="M154.921 1.47793C160.609 1.88939 160.202 7.36856 154.921 7.16543C149.645 6.96231 144.166 4.11856 137.567 7.97793C142.14 4.32689 149.234 1.07689 154.921 1.47793Z" fill="#F9CA06"/>
<path d="M135.973 36.4779C136.624 35.9049 138.317 34.3893 138.421 34.3008H139.244L140.587 35.7331L141.801 35.681L142.775 36.9518L141.801 39.8164L139.264 40.5456L136.593 39.3789L135.728 36.707C135.728 36.707 135.817 36.6185 135.973 36.4779Z" fill="#C41830"/>
<path d="M134.009 54.4778C148.374 53.1549 157.103 59.2903 160.442 65.0195C161.452 66.7434 161.624 68.5976 159.994 69.5663C158.369 70.5299 155.541 69.2018 153.848 66.8111C147.608 57.9778 148.056 56.2538 134.009 54.4778Z" fill="#F9CA06"/>
<path d="M125.171 13.2594C129.541 14.6813 125.822 21.0824 120.478 24.5824C115.129 28.0772 111.239 36.5563 109.832 40.5407C118.983 32.3428 120.827 39.9782 117.265 42.4522C113.707 44.9313 109.608 48.723 109.218 53.9365C107.426 57.2751 105.395 62.9261 105.582 64.4209C101.207 52.999 94.4677 61.4365 93.7698 63.6084C95.6552 53.6605 91.4521 50.7751 89.0823 53.9365C90.15 48.8896 84.5562 29.9053 77.301 25.2334C70.051 20.5667 64.2593 19.0407 66.5406 14.7803C68.8271 10.5199 80.0562 18.0199 82.9677 22.3376C80.0562 18.0199 85.8062 15.8844 88.7385 22.3376C87.1083 13.6605 75.9364 5.94694 79.3896 1.47819C82.8375 -2.98535 89.1864 7.16569 91.1864 12.8532C93.4 7.77507 99.2906 15.2855 99.2906 20.1605C101.525 12.8532 101.525 7.16569 105.785 6.15007C110.056 5.13444 111.64 10.4157 109.832 12.8532C113.301 12.4417 113.707 17.723 111.879 21.3792C115.733 16.9105 120.801 11.8376 125.171 13.2594Z" fill="#C41830"/>
<path d="M72.7857 125.717C71.8482 126.821 69.9576 127.462 67.7649 126.686L67.6711 126.691L67.593 125.368L70.3742 122.608L67.6503 123.061V120.613L70.6971 116.915L67.0149 118.879L64.8274 117.665L65.8065 119.389V121.347L62.7024 120.613L65.4576 123.28V124.248C61.0305 124.983 58.593 121.056 59.3065 117.8V117.795C59.6555 117.248 59.9107 116.639 60.0774 116.035C60.0826 116.035 60.0826 116.03 60.0826 116.03C62.4732 112.66 66.3794 113.754 66.8378 114.733C69.8846 110.071 75.7388 113.754 73.4159 117.144C77.244 118.41 74.2544 121.342 71.7284 121.8C73.6919 122.842 73.7805 124.54 72.7857 125.717Z" fill="#4CAF50"/>
<path d="M65.4626 124.243V123.274L62.7021 120.608L65.8115 121.342V119.384L64.8324 117.66L67.0146 118.879L70.6969 116.915L67.6501 120.608V123.061L70.3792 122.603L67.5928 125.363L67.6761 126.686L68.0719 133.212C67.8688 133.326 67.6501 133.472 67.4209 133.644C67.2386 133.009 66.4469 132.576 65.4678 132.561L65.4626 124.243Z" fill="#C41830"/>
<path d="M78.0721 45.4776C67.3481 40.3162 66.8637 41.7433 58.3846 45.1651C56.0825 46.0922 53.4783 45.7433 52.7804 44.3162C52.0825 42.8839 53.0565 41.6443 54.5669 40.8787C59.5617 38.3266 68.5565 37.962 78.0721 45.4776Z" fill="#F9CA06"/>
<path d="M72.0509 63.2383C65.9832 64.4883 61.827 71.3841 61.577 72.1341C61.327 72.8841 59.3999 75.8424 57.5041 74.4622C56.5874 73.8008 55.7593 72.4674 57.5041 70.306C59.2488 68.1445 65.4884 63.6549 72.0509 63.2383Z" fill="#C41830"/>
<path d="M59.0665 111.983C60.3113 112.462 60.5821 114.249 60.0926 116.025C60.0926 116.025 60.0926 116.03 60.0873 116.03C59.7019 116.567 59.4571 117.171 59.3165 117.796C58.0248 119.863 55.5717 121.155 52.3634 118.879L52.2748 117.447L55.6811 112.671L51.9988 115.056L51.8946 113.869L52.5613 108.541L50.4832 113.52L47.4884 111.129L50.103 116.764V119.171C44.3894 121.66 41.5144 116.405 44.9363 113.77C44.3165 113.421 43.8113 113.035 43.4207 112.629C40.1238 109.171 44.7644 103.936 48.2957 105.968C49.8738 96.7801 58.3738 101.452 55.8009 106.655C60.3478 105.369 62.4207 109.91 59.0665 111.983Z" fill="#4CAF50"/>
<path d="M50.1086 119.17V116.764L47.4888 111.129L50.4888 113.519L52.5669 108.54L51.9002 113.868L52.0044 115.056L55.6867 112.67L52.2804 117.446L52.369 118.879L52.895 127.587C52.3794 127.733 51.7544 128.092 51.0461 128.764C51.3481 127.05 50.4523 126.29 49.4784 126.29H50.1138V119.17H50.1086Z" fill="#C41830"/>
<path d="M49.4103 92.6917C47.6916 93.8115 45.9051 94.9625 44.0822 96.1188V96.1135C44.1239 95.4521 43.5457 94.676 42.3009 95.6552C42.6864 92.8167 38.5041 92.5094 37.827 96.874C37.1343 96.025 36.1707 95.7229 35.8947 96.8688C35.6968 95.5406 34.4259 94.4781 32.4468 95.1656C33.6603 93.3479 30.0666 90.6656 29.0301 94.7333C22.7541 92.9156 22.8009 98.7125 24.8322 100.733C24.3687 102.056 24.8166 102.983 25.5718 103.436C21.8166 103.171 19.0926 102.692 19.7541 101.832C20.4103 100.978 24.6291 99.8583 21.6655 99.0042C18.702 98.1448 8.55095 99.7906 6.8374 98.2073C10.5249 96.3635 23.8322 85.426 27.2645 85.4885C30.6864 85.5615 33.1968 91.8167 35.8322 91.6188C38.4676 91.4208 40.077 89.3792 42.3009 89.5771C44.5249 89.775 49.4103 92.6865 49.4103 92.6917Z" fill="#794426"/>
<path d="M44.0824 96.1186C41.0459 98.0404 37.9105 99.9727 34.8584 101.78C34.8584 101.78 35.2126 100.494 34.0459 99.8008C35.499 99.2019 36.0511 97.9519 35.8896 96.879V96.8738C36.1657 95.7279 37.1344 96.03 37.8219 96.879C38.499 92.5144 42.6865 92.8165 42.2959 95.655C43.5407 94.6758 44.1188 95.4519 44.0824 96.1186Z" fill="#4CAF50"/>
<path d="M35.9211 13.6654C37.1606 7.78002 53.8065 16.7123 55.0304 19.7592C50.1554 17.1186 34.6763 19.5561 35.9211 13.6654Z" fill="#C41830"/>
<path d="M35.8896 96.8789C36.051 97.9519 35.499 99.2019 34.0458 99.8008C35.2125 100.494 34.8583 101.78 34.8583 101.78C33.6292 102.509 32.4208 103.212 31.2281 103.889C31.2281 103.889 31.2281 103.889 31.2229 103.889C31.1552 103.889 30.4625 103.04 30.4625 102.233L30.5146 101.353L32.749 98.5664L30.2958 99.6289L30.0667 96.5925L29.1396 99.7071L26.8115 98.9206L28.7073 101.316C28.7073 101.316 28.6135 102.145 28.5094 103.082C27.6865 103.879 26.4208 103.962 25.5667 103.447C24.8115 102.983 24.3687 102.061 24.8271 100.738C22.7958 98.7227 22.749 92.9258 29.025 94.7383C30.0667 90.6706 33.6552 93.3529 32.4469 95.1758C34.4208 94.4779 35.6917 95.5456 35.8896 96.8789Z" fill="#4CAF50"/>
<path d="M28.5094 103.077C28.6136 102.145 28.7074 101.312 28.7074 101.312L26.8115 98.9157L29.1396 99.7074L30.0667 96.5928L30.2959 99.624L32.749 98.5615L30.5146 101.353L30.4626 102.228L30.3376 104.384C29.5876 104.812 28.848 105.218 28.1188 105.608C28.1917 105.572 28.3636 104.244 28.5094 103.077Z" fill="#C41830"/>
<path d="M27.4105 65.4987L27.6605 66.0612L30.1501 66.9779V71.5508L25.3324 74.457L19.249 70.3008L22.2542 63.5664C22.2542 63.5664 26.3324 63.5664 26.5771 63.5664L27.4105 65.4987Z" fill="#C41830"/>
<path d="M55.6086 120.462C54.4992 120.462 53.3377 120.035 52.145 119.191L52.5825 118.572C53.9002 119.509 55.1502 119.868 56.2961 119.639C57.3377 119.426 58.2961 118.702 58.9836 117.598L59.6346 117.999C58.8273 119.285 57.6971 120.134 56.4471 120.384C56.1711 120.436 55.895 120.462 55.6086 120.462Z" fill="black"/>
<path d="M59.6346 117.999L58.9888 117.592C59.3117 117.077 59.5565 116.52 59.7179 115.926L60.4523 116.129C60.27 116.796 59.994 117.421 59.6346 117.999Z" fill="black"/>
<path d="M47.2853 120.197C45.5197 120.197 44.2176 119.379 43.5718 118.285C42.7124 116.837 43.0249 115.066 44.301 113.822C43.8582 113.535 43.4728 113.223 43.1499 112.889C41.2176 110.858 41.8478 108.468 42.9728 107.035C44.077 105.629 46.0718 104.598 48.0197 105.4C48.7853 101.749 50.5926 100.744 51.6395 100.468C53.0718 100.093 54.6551 100.66 55.676 101.91C56.6499 103.103 56.9155 104.634 56.4312 106.119C58.7072 105.744 60.2645 106.79 60.8426 108.103C61.3478 109.244 61.176 110.811 59.7645 111.952C60.6864 112.707 60.9728 114.285 60.4572 116.124L59.7228 115.921C60.1239 114.494 60.0405 112.759 58.926 112.337L58.2072 112.061L58.8635 111.655C60.4364 110.686 60.5405 109.301 60.1447 108.405C59.6395 107.259 58.1343 106.384 55.9103 107.014L55.0822 107.249L55.4624 106.478C56.1603 105.061 56.0197 103.535 55.0822 102.389C54.2489 101.369 52.9676 100.9 51.827 101.202C50.2593 101.613 49.1343 103.327 48.6707 106.025L48.5822 106.561L48.1082 106.29C46.4103 105.316 44.5666 106.233 43.5718 107.499C42.6343 108.691 42.103 110.686 43.6968 112.358C44.0718 112.749 44.551 113.108 45.1239 113.426L45.6291 113.707L45.1707 114.061C43.6499 115.238 43.5926 116.832 44.2228 117.895C45.0197 119.244 47.0978 120.056 49.952 118.816L50.0093 118.79C50.0405 118.775 50.077 118.764 50.1082 118.749L50.4312 119.441C50.3895 119.457 50.3426 119.478 50.301 119.499L50.2541 119.514C49.1707 119.994 48.1707 120.197 47.2853 120.197Z" fill="black"/>
<path d="M25.5407 103.822C20.4886 103.462 19.5667 102.884 19.3324 102.363C19.2646 102.217 19.1969 101.931 19.4469 101.603C19.7021 101.264 20.2646 100.973 20.9157 100.629C21.3688 100.384 22.2074 99.9466 22.3219 99.7122C22.2751 99.6654 22.1136 99.5299 21.5563 99.3685C20.3324 99.0143 17.6344 99.1185 15.0303 99.2122C11.2438 99.3529 7.66048 99.4935 6.57715 98.4883L6.1709 98.1133L6.66569 97.8685C7.96777 97.2174 10.4938 95.4102 13.4261 93.3112C18.8011 89.4674 24.8897 85.1133 27.2334 85.1133C27.2438 85.1133 27.2542 85.1133 27.2699 85.1133C29.223 85.1497 30.8636 86.9883 32.3115 88.6081C33.5563 90.0039 34.7334 91.3164 35.8011 91.2383C36.9938 91.1497 37.9782 90.6497 38.9313 90.1654C40.0303 89.6081 41.0719 89.082 42.3324 89.1966C44.6188 89.3945 49.4053 92.2383 49.6084 92.3529L49.2178 93.0091C49.1657 92.9831 44.3792 90.1393 42.2646 89.9518C41.2178 89.8581 40.3219 90.3164 39.2751 90.8424C38.3011 91.3372 37.2022 91.8945 35.8584 91.9935C34.4105 92.0924 33.1136 90.6497 31.7386 89.1081C30.3324 87.5299 28.874 85.8997 27.2542 85.8633C27.2438 85.8633 27.2334 85.8633 27.223 85.8633C25.1344 85.8633 18.624 90.5195 13.8688 93.9258C11.3167 95.7487 9.06673 97.3581 7.62402 98.2018C9.03548 98.6706 12.3011 98.5456 14.999 98.4414C17.7855 98.3372 20.4209 98.2383 21.7646 98.6289C22.348 98.7956 23.0251 99.0612 23.0824 99.6237C23.1501 100.301 22.2751 100.759 21.2699 101.296C20.7699 101.556 20.2021 101.858 20.0459 102.061C20.0407 102.061 20.0407 102.066 20.0407 102.066C20.1605 102.202 20.9365 102.723 25.5928 103.051L25.5407 103.822Z" fill="black"/>
<path d="M85.7386 143.395C84.7595 143.395 83.7699 143.389 82.7543 143.384C68.447 143.301 57.348 142.587 49.7647 141.259C43.3428 140.134 40.0043 138.676 39.848 136.926C39.7595 135.879 40.8376 134.952 42.8793 134.249C36.2439 133.91 21.8168 132.473 14.072 131.202C10.9209 130.686 9.34282 129.785 9.24386 128.462C9.07719 126.212 13.7439 123.681 18.447 122.171C20.3428 121.561 22.0043 120.051 21.8532 119.061C21.7855 118.598 21.1449 117.509 16.7126 117.447C12.0564 117.379 1.21782 116.816 1.11886 113.124C1.07719 111.561 4.22823 110.368 7.87407 108.993C10.3168 108.072 13.3532 106.926 13.5824 106.087C13.6084 105.983 13.598 105.895 13.5355 105.796C12.9157 104.822 9.19178 104.171 6.19698 103.645C4.48344 103.348 2.86365 103.066 1.78032 102.733C0.108443 102.217 -0.0478075 101.363 0.00948455 100.9C0.191775 99.3685 3.11886 98.0508 6.81678 97.832L6.85844 98.5977C3.04594 98.8164 0.86886 100.129 0.764693 100.993C0.702193 101.54 1.60844 101.884 2.00948 102.004C3.04073 102.322 4.63969 102.603 6.3324 102.895C10.5928 103.639 13.4366 104.212 14.1814 105.384C14.3584 105.665 14.4105 105.978 14.322 106.285C14.0147 107.421 11.7803 108.332 8.1449 109.702C5.48865 110.707 1.85323 112.077 1.88448 113.098C1.93657 115.113 7.90011 116.551 16.7282 116.681C20.4157 116.738 22.3949 117.499 22.6084 118.947C22.8376 120.478 20.7647 122.223 18.6866 122.895C13.6241 124.52 9.8949 126.889 10.0095 128.405C10.0772 129.29 11.5616 130.014 14.2022 130.447C23.1553 131.915 41.9574 133.686 45.6657 133.551L45.7491 134.306C42.1084 134.978 40.5459 136.066 40.6137 136.853C40.6553 137.337 41.4522 139.025 49.9053 140.504C57.447 141.822 68.5043 142.535 82.7647 142.618C112.411 142.79 119.546 140.379 120.317 138.316C120.697 137.285 119.322 136.103 118.405 135.322C117.744 134.754 117.52 134.228 117.713 133.738C118.338 132.129 124.161 132.077 127.582 132.197C128.004 132.212 128.447 132.217 128.916 132.233C132.884 132.316 138.317 132.441 144.791 135.618C147.843 137.113 153.218 137.78 160.348 137.54C166.312 137.342 172.463 136.54 176.228 135.853C180.546 135.072 185.233 132.879 185.421 130.358C185.525 128.993 184.286 126.9 177.796 124.676L175.629 123.936H177.916C184.202 123.936 189.978 122.139 190.301 120.676C190.416 120.129 189.536 119.629 188.994 119.384C187.197 118.561 185.515 118.155 184.286 117.858C182.838 117.509 181.968 117.296 181.806 116.639C181.687 116.15 182.02 115.629 182.947 114.827C184.27 113.686 186.103 113.155 187.718 112.691C189.041 112.311 190.286 111.952 190.52 111.389C190.546 111.316 190.64 111.087 190.358 110.587C189.775 109.551 187.145 108.655 185.036 107.931C182.223 106.978 180.629 106.384 180.582 105.389C180.541 104.676 181.379 104.207 182.009 103.915L182.166 104.254L182.431 104.54L182.332 104.608C181.541 104.973 181.338 105.249 181.343 105.353C181.369 105.884 183.723 106.681 185.28 107.212C187.749 108.056 190.296 108.926 191.025 110.212C191.327 110.759 191.4 111.254 191.223 111.681C190.853 112.582 189.567 112.952 187.931 113.426C186.39 113.868 184.64 114.368 183.442 115.405C182.499 116.223 182.541 116.452 182.541 116.462C182.593 116.671 183.676 116.931 184.463 117.118C185.723 117.421 187.447 117.837 189.306 118.697C190.634 119.306 191.218 120.03 191.041 120.842C190.603 122.863 185.166 124.342 179.884 124.645C184.218 126.389 186.332 128.327 186.176 130.421C185.952 133.353 181.072 135.749 176.358 136.608C168.463 138.046 151.624 139.827 144.447 136.306C138.119 133.202 132.786 133.082 128.89 132.999C128.416 132.983 127.968 132.978 127.546 132.962C121.895 132.77 118.671 133.348 118.411 134.02C118.353 134.165 118.525 134.431 118.874 134.728C119.968 135.665 121.593 137.056 121.02 138.587C120.442 140.134 117.655 141.27 112.494 142.056C106.655 142.941 97.6605 143.395 85.7386 143.395Z" fill="black"/>
<path d="M181.848 104.645C177.905 104.645 173.936 104.463 173.166 104.426L173.155 103.66H173.197C173.988 103.702 178.15 103.89 182.171 103.879C186.744 103.864 188.65 103.588 189.447 103.369C185.03 100.562 181.91 97.999 179.598 96.1032C177.358 94.2646 175.879 93.0511 174.942 93.0511C173.832 93.0511 171.374 95.2074 168.999 97.2855C167.15 98.9053 165.233 100.582 163.65 101.541L163.259 100.89C164.785 99.9678 166.671 98.3115 168.494 96.7178C171.207 94.3428 173.541 92.2959 174.942 92.2959C176.155 92.2959 177.629 93.5094 180.082 95.5199C182.473 97.4834 185.749 100.171 190.436 103.098L190.858 103.358L190.494 103.702C190.223 103.952 189.504 104.629 182.171 104.65C182.067 104.645 181.952 104.645 181.848 104.645Z" fill="black"/>
<path d="M89.0461 126.884C81.9627 126.884 75.9575 126.629 72.7231 126.092L72.7804 125.738L72.7752 125.337H72.8429C84.1138 127.212 128.958 125.697 135.624 121.827C136.609 121.254 136.635 120.941 136.619 120.853C136.452 119.915 131.697 119.087 128.546 118.546C123.484 117.665 120.369 117.046 119.822 115.801C119.723 115.572 119.661 115.207 119.931 114.78C121.15 112.879 128.567 112.4 140.64 111.837C148.062 111.493 155.739 111.139 158.728 110.087L158.827 110.051L159.109 110.759C159.083 110.77 159.062 110.78 159.036 110.785L158.989 110.801C155.879 111.895 148.489 112.238 140.671 112.603C131.76 113.014 121.661 113.483 120.567 115.186C120.458 115.363 120.494 115.447 120.515 115.488C120.942 116.452 125.228 117.191 128.676 117.79C133.9 118.697 137.114 119.322 137.369 120.723C137.525 121.603 136.379 122.27 136.004 122.488C131.187 125.285 106.749 126.884 89.0461 126.884Z" fill="black"/>
<path d="M87.4259 109.618L86.7593 109.243C88.9259 105.457 100.119 66.5296 100.077 64.4307L100.837 64.415C100.879 66.5348 89.603 105.806 87.4259 109.618Z" fill="black"/>
<path d="M121.624 98.7119C120.285 97.1286 109.171 73.9515 109.452 69.54L110.212 69.5921C109.947 73.7119 120.926 96.7067 122.207 98.2223L121.624 98.7119Z" fill="black"/>
<path d="M143.921 103.488C141.28 102.379 130.186 89.7744 129.103 87.4619L129.791 87.1338C130.822 89.3213 141.754 101.748 144.212 102.78L143.921 103.488Z" fill="black"/>
<path d="M54.9886 129.826L54.3532 129.42C54.5407 129.066 54.4834 128.566 54.223 128.238C54.0355 128.004 53.6709 127.759 52.999 127.951C52.4886 128.092 51.9209 128.457 51.3063 129.04L50.473 129.821L50.6709 128.696C50.7907 127.988 50.7021 127.425 50.4001 127.066C50.1865 126.811 49.8532 126.665 49.4782 126.665C48.8584 126.665 48.0928 127.061 47.8636 127.92L47.124 127.728C47.4053 126.649 48.3688 125.899 49.473 125.899C50.0824 125.899 50.6188 126.144 50.9834 126.576C51.2074 126.842 51.4313 127.264 51.4782 127.905C51.9313 127.566 52.3792 127.342 52.7959 127.222C53.6136 126.988 54.3532 127.186 54.8167 127.759C55.0146 128.014 55.1449 128.316 55.2021 128.629C55.9417 128.191 56.7646 128.207 57.3636 128.405C58.0459 128.634 58.4938 129.103 58.4938 129.603H57.7282C57.7282 129.488 57.5199 129.259 57.124 129.129C56.499 128.92 55.6136 128.998 54.9886 129.826Z" fill="black"/>
<path d="M172.561 119.712C171.275 119.712 170.035 119.15 168.994 118.04L169.535 117.504C171.384 119.468 173.306 119.004 174.285 118.556C176.035 117.749 177.327 115.853 177.16 114.332C177.046 113.228 176.192 112.473 174.697 112.139L173.306 111.837L174.66 111.405C175.535 111.129 176.192 110.29 176.343 109.27C176.473 108.431 176.207 107.671 175.66 107.296C174.879 106.759 173.556 106.962 171.947 107.869L171.525 107.238C172.78 106.228 172.9 104.973 172.78 104.093C172.546 102.379 171.322 100.957 170.264 100.567C169.004 100.103 166.52 100.478 165.322 102.139C164.572 103.176 164.421 104.546 164.874 106.212L165.041 106.817L164.426 106.686C162.056 106.176 160.291 106.436 159.457 107.421C158.858 108.129 158.77 109.181 159.212 110.301C159.853 111.915 161.645 113.567 164.087 113.395L166.405 113.228L164.259 114.129C163.353 114.504 162.827 115.082 162.785 115.759C162.744 116.421 163.171 117.108 163.863 117.509C164.707 117.999 165.702 117.936 166.593 117.337L167.02 117.973C165.9 118.723 164.572 118.801 163.483 118.171C162.541 117.629 161.962 116.665 162.025 115.712C162.051 115.317 162.207 114.681 162.853 114.103C160.692 113.754 159.119 112.155 158.499 110.582C157.957 109.212 158.098 107.848 158.874 106.931C159.556 106.129 160.994 105.311 164.004 105.832C163.676 104.202 163.921 102.78 164.707 101.697C166.166 99.6707 169.072 99.3217 170.53 99.853C171.999 100.4 173.291 102.176 173.541 103.994C173.66 104.9 173.514 105.759 173.113 106.504C174.598 106.009 175.53 106.285 176.093 106.671C176.879 107.212 177.264 108.249 177.098 109.384C176.962 110.322 176.473 111.15 175.775 111.671C177.452 112.332 177.843 113.525 177.921 114.249C178.124 116.098 176.666 118.296 174.603 119.244C173.921 119.561 173.238 119.712 172.561 119.712Z" fill="black"/>
<path d="M52.5145 127.613L51.8895 117.332L54.2124 114.071L51.6707 115.712L51.5145 113.858L51.8374 111.264L50.6447 114.129L48.5145 112.431L50.4884 116.675V126.285H49.7228V116.842L46.4624 109.821L50.327 112.899L53.2853 105.806L52.2749 113.873L52.3218 114.384L57.1499 111.259L52.6655 117.556L53.2749 127.566L52.5145 127.613Z" fill="black"/>
<path d="M69.6814 127.416C69.0564 127.416 68.3741 127.301 67.6345 127.041L67.8949 126.322C69.9522 127.056 71.6918 126.421 72.4991 125.468C72.9314 124.952 73.1085 124.364 73.0043 123.796C72.8741 123.145 72.3793 122.567 71.5616 122.134L70.5876 121.619L71.671 121.421C73.2178 121.14 74.8064 119.91 74.8741 118.936C74.9262 118.197 74.0512 117.744 73.3064 117.499L72.8272 117.338L73.1137 116.921C73.6345 116.16 73.7178 115.327 73.348 114.567C72.8949 113.634 71.8533 112.983 70.697 112.91C69.9053 112.864 68.3949 113.056 67.171 114.931L66.796 115.504L66.5043 114.884C66.3845 114.629 65.6918 114.233 64.697 114.14C63.9158 114.072 61.9626 114.129 60.4783 116.145V116.4H60.296C60.0199 116.827 59.822 117.311 59.697 117.838L59.6918 117.869C59.3324 119.494 59.8324 121.317 60.973 122.509C62.072 123.676 63.6501 124.155 65.4053 123.864C65.4678 123.853 65.5199 123.843 65.572 123.838L65.7178 124.588C65.6501 124.598 65.5824 124.614 65.5199 124.619C63.5199 124.952 61.7022 124.39 60.421 123.041C59.1033 121.655 58.5355 119.629 58.9366 117.754L58.9418 117.707C59.0928 117.041 59.3533 116.436 59.7126 115.9L59.723 115.884C59.7439 115.858 59.7595 115.832 59.7751 115.806L59.8949 115.645C61.6085 113.369 63.8585 113.301 64.7595 113.379C65.6033 113.457 66.3585 113.733 66.8168 114.108C67.8533 112.765 69.2595 112.061 70.7439 112.15C72.1658 112.239 73.4626 113.056 74.0355 114.233C74.4574 115.108 74.4418 116.051 73.9887 116.942C75.4105 117.535 75.6762 118.369 75.6345 118.989C75.546 120.233 74.1293 121.41 72.6553 121.942C73.3897 122.53 73.6658 123.176 73.7543 123.655C73.9105 124.452 73.671 125.27 73.0876 125.957C72.4314 126.723 71.2439 127.416 69.6814 127.416Z" fill="black"/>
<path d="M67.202 134.296L67.0509 133.754C66.9155 133.29 66.2645 132.957 65.4572 132.941C64.5718 132.926 63.6707 133.285 62.9572 133.931L62.4468 133.369C63.2957 132.593 64.3895 132.165 65.4676 132.181C66.3843 132.197 67.1603 132.54 67.5509 133.082C67.6603 133.014 67.7645 132.947 67.8739 132.889C69.1655 132.181 69.9624 132.593 70.2437 132.806C70.6291 133.098 70.8322 133.561 70.7437 133.962L69.9989 133.801C70.0145 133.718 69.9572 133.546 69.7853 133.415C69.6187 133.296 69.1447 133.066 68.2437 133.556C68.0405 133.665 67.8374 133.806 67.6447 133.952L67.202 134.296Z" fill="black"/>
<path d="M67.6867 133.243L67.2023 125.217L69.2596 123.181L67.27 123.509V120.473L69.1815 118.155L67.0096 119.311L65.8325 118.655L66.1919 119.285V121.827L63.9679 121.301L65.8481 123.118V132.561H65.0825V123.436L61.4419 119.921L65.4315 120.863V119.488L63.8273 116.665L67.0148 118.441L72.2075 115.676L68.0304 120.749V122.613L71.494 122.035L67.9836 125.514L68.4471 133.197L67.6867 133.243Z" fill="black"/>
<path d="M28.8792 113.04C21.8271 113.04 16.7282 112.686 15.5563 111.16L15.1865 110.676L15.7803 110.556C18.3532 110.02 22.4417 108.243 27.9365 105.27C28.6605 104.879 29.4001 104.467 30.1501 104.051C30.4417 103.884 30.7334 103.723 31.0303 103.551L31.4105 104.212C31.1136 104.384 30.8167 104.551 30.5251 104.712C29.7751 105.139 29.0251 105.546 28.3011 105.941C23.2594 108.665 19.3636 110.405 16.7126 111.113C19.3532 112.478 28.8949 112.316 35.4001 112.207C38.8584 112.145 41.848 112.098 43.4626 112.243L43.3896 112.999C41.8219 112.858 38.848 112.91 35.4105 112.967C33.1032 113.014 30.9053 113.04 28.8792 113.04Z" fill="black"/>
<path d="M31.4155 104.217L31.0405 103.556C32.1812 102.91 33.3687 102.222 34.6655 101.451C37.4937 99.7795 40.5926 97.8785 43.8791 95.7951C45.8426 94.5503 47.7541 93.3108 49.202 92.3681C55.9155 87.9878 61.5666 84.0868 63.8426 82.4722C70.7541 77.5712 88.5978 53.9462 88.7801 53.7118C89.702 52.4774 90.9259 52.0347 92.0509 52.5295C93.6551 53.2378 95.1239 56.0347 94.4624 61.6233C95.6551 60.0243 97.6551 58.2587 99.8322 58.191C102.004 58.1337 103.874 59.7222 105.363 62.9306C105.884 60.4931 107.478 56.3628 108.874 53.7587C110.155 51.3733 110.806 51.0556 111.228 51.0451C111.379 51.0347 111.676 51.0868 111.889 51.4358C122.197 68.5712 128.186 74.2535 134.525 80.2795C136.244 81.9149 138.03 83.6076 139.91 85.5503C143.421 89.1806 148.91 93.1024 155.775 96.9045C157.082 97.6233 158.442 98.3368 159.806 99.0295C160.572 99.4201 161.322 99.7899 162.035 100.134C162.639 100.415 163.166 100.67 163.608 100.873C164.577 101.321 165.15 101.571 165.16 101.571L164.858 102.269C164.853 102.264 164.27 102.014 163.291 101.561C162.843 101.352 162.317 101.102 161.712 100.816C160.994 100.472 160.233 100.097 159.468 99.7066C158.093 99.0087 156.728 98.2899 155.416 97.566C148.379 93.6753 142.983 89.8108 139.363 86.0764C137.499 84.1441 135.723 82.4566 133.999 80.8264C127.624 74.7691 121.598 69.0451 111.238 51.8264C111.233 51.8212 111.228 51.8108 111.223 51.8108C111.113 51.8524 110.603 52.1441 109.551 54.1181C107.702 57.5556 105.791 63.0191 105.957 64.3733L106.348 67.4878L105.223 64.5608C103.775 60.7795 101.988 58.8889 99.8582 58.9514C97.077 59.0347 94.5145 62.5295 94.1343 63.7274L93.3947 63.5399C94.5509 57.4306 93.3999 53.9618 91.7437 53.2274C90.9572 52.8785 90.0926 53.2222 89.3895 54.1649C89.2124 54.4045 71.2957 78.1285 64.2853 83.092C61.9989 84.7118 56.3426 88.6233 49.6187 93.0139C48.1655 93.9514 46.2489 95.1962 44.2853 96.441C40.9937 98.5243 37.8895 100.431 35.0509 102.108C33.7489 102.884 32.5614 103.571 31.4155 104.217Z" fill="black"/>
<path d="M35.228 101.879L34.4937 101.676C34.5041 101.639 34.7489 100.66 33.8478 100.129L33.1968 99.7383L33.8999 99.4466C35.2853 98.8737 35.6343 97.7331 35.5145 96.931L36.2697 96.8164C36.4259 97.8372 35.9937 99.1081 34.7384 99.8685C35.3582 100.546 35.3478 101.436 35.228 101.879Z" fill="black"/>
<path d="M26.7751 104.15C26.2856 104.15 25.796 104.025 25.3689 103.765C24.3949 103.176 24.0356 102.088 24.3949 100.832C23.3012 99.5771 22.7647 97.2125 23.7178 95.5823C24.2231 94.7281 25.5356 93.4521 28.7595 94.2698C29.2699 92.7021 30.1501 92.3271 30.6501 92.249C31.421 92.124 32.2595 92.5302 32.7335 93.2594C33.0095 93.6969 33.1189 94.1708 33.0512 94.6188C33.9731 94.4729 34.6397 94.7021 35.0564 94.9573C35.7074 95.3531 36.1501 96.0302 36.2699 96.8219L35.5147 96.9313C35.4314 96.3688 35.1241 95.8844 34.6658 95.6136C34.1137 95.275 33.3845 95.2542 32.572 95.5354L31.4991 95.9104L32.1293 94.9625C32.4939 94.4156 32.2283 93.8844 32.0981 93.6813C31.7856 93.2021 31.2595 92.9313 30.7803 93.0042C30.1658 93.1031 29.6762 93.7542 29.4001 94.8323L29.3012 95.2177L28.9262 95.1083C26.671 94.4573 25.1033 94.7594 24.3845 95.9781C23.5824 97.3479 24.0981 99.4781 25.1033 100.473L25.2699 100.645L25.1918 100.869C24.8428 101.874 25.0616 102.697 25.7699 103.124C26.5303 103.582 27.5928 103.447 28.2491 102.811L28.2908 102.775C28.3064 102.765 28.322 102.749 28.3324 102.728L28.9001 103.239C28.8637 103.28 28.8168 103.327 28.7595 103.374C28.2126 103.884 27.4939 104.15 26.7751 104.15Z" fill="black"/>
<path d="M31.2284 104.264C30.7752 104.264 30.0825 103.024 30.0825 102.228H30.8429C30.8429 102.821 31.3325 103.488 31.4367 103.571C31.4106 103.545 31.3325 103.504 31.2231 103.504L31.2284 104.264Z" fill="black"/>
<path d="M28.3062 105.941L27.9364 105.275C27.8166 105.342 27.7853 105.447 27.7801 105.447C27.853 105.228 28.0614 103.572 28.1291 103.035C28.2072 102.348 28.2749 101.712 28.3062 101.431L25.7124 98.1445L28.8843 99.2174L30.2957 94.5039L30.6291 99.0664L34.0041 97.6029L30.8843 101.499L30.7176 104.41L29.9572 104.368L30.1395 101.207L31.4937 99.5195L29.952 100.186L29.8374 98.6862L29.3895 100.191L27.9103 99.6914L29.0978 101.197L29.0822 101.353C29.0822 101.353 28.9937 102.186 28.8843 103.124C28.5509 105.806 28.5197 105.822 28.3062 105.941Z" fill="black"/>
<path d="M38.0669 97.7849L37.5252 97.1182C37.1346 96.6391 36.7492 96.4672 36.5565 96.5089C36.3846 96.5505 36.2961 96.8109 36.2596 96.962L35.895 96.8734H35.5044L35.52 96.7797C35.6919 96.0609 36.0877 95.8318 36.3898 95.7641C36.7596 95.6807 37.1867 95.8109 37.5929 96.1182C38.1711 93.9516 39.6711 93.0036 40.9836 93.1911C41.7752 93.3057 42.5565 93.9047 42.6867 94.962C43.2075 94.7276 43.5929 94.8005 43.8429 94.9307C44.2492 95.1391 44.4888 95.613 44.4575 96.1339L43.6971 96.087C43.7075 95.9151 43.6502 95.6859 43.494 95.6078C43.2961 95.5089 42.9367 95.6339 42.5304 95.9568L41.7909 96.5401L41.9211 95.6078C42.0409 94.712 41.6346 94.0609 40.8742 93.9516C40.0044 93.8214 38.5721 94.5141 38.1971 96.9411L38.0669 97.7849Z" fill="black"/>
<path d="M170.958 127.009L171.228 126.123C171.26 126.014 171.239 125.811 171.067 125.582C170.921 125.378 170.484 124.92 169.52 124.904C168.838 124.894 168.02 125.134 167.161 125.608L166.593 125.92V125.274C166.593 124.707 166.458 124.243 166.197 123.925C165.958 123.628 165.614 123.472 165.187 123.457C164.171 123.42 162.879 124.18 161.609 125.535L161.051 125.014C162.494 123.477 163.952 122.639 165.208 122.696C165.853 122.717 166.405 122.972 166.786 123.441C167.051 123.769 167.234 124.191 167.312 124.675C168.103 124.311 168.843 124.139 169.536 124.144C170.447 124.154 171.234 124.514 171.681 125.134C171.812 125.311 171.905 125.498 171.958 125.686C172.666 125.483 173.437 125.55 173.931 125.738C174.333 125.884 174.598 126.108 174.702 126.384L173.989 126.654C173.978 126.628 173.9 126.535 173.671 126.446C173.181 126.264 172.374 126.248 171.77 126.571L170.958 127.009Z" fill="black"/>
<path d="M169.15 124.535L168.733 113.718L170.53 111.353L168.697 112.275L168.139 109.27L167.629 112.41L165.551 111.864L167.442 113.541L166.879 123.697L166.113 123.655L166.66 113.869L162.666 110.312L167.009 111.463L168.093 104.827L169.259 111.14L173.124 109.197L169.504 113.963L169.91 124.504L169.15 124.535Z" fill="black"/>
<path d="M161.499 95.9053H162.259V100.473H161.499V95.9053Z" fill="black"/>
<path d="M160.02 99.3687H159.26V96.4312C159.004 96.728 158.687 96.9989 158.291 97.1551C157.088 97.6291 156.208 97.3739 155.681 97.077C154.806 96.5926 154.374 95.728 154.26 95.077C154.197 94.7176 154.223 94.3843 154.333 94.1135C153.416 93.2489 153.077 92.2489 153.411 91.327C153.681 90.5926 154.353 90.0145 155.114 89.827C154.635 88.4312 154.838 87.0822 155.692 86.0562C156.629 84.9416 158.223 84.3895 159.567 84.7333C160.499 84.9676 161.187 85.5718 161.556 86.4572C162.806 85.1239 163.885 85.1343 164.447 85.2749C165.4 85.5197 166.155 86.4468 166.327 87.5822C166.431 88.2697 166.306 88.9051 165.989 89.4208C166.978 89.426 167.671 89.6916 168.046 90.2176C168.416 90.7228 168.421 91.4312 168.067 92.1551C167.728 92.8478 167.036 93.5562 166.213 93.8687C166.838 94.5718 166.822 95.2645 166.734 95.6603C166.536 96.5718 165.697 97.3218 164.635 97.5249C163.452 97.7489 162.301 97.228 161.556 96.1187L161.411 95.8999L163.056 93.5197L161.072 94.3426L161.473 90.9572L159.817 93.8687L158.869 93.5978L160.015 94.8687L160.02 99.3687ZM162.343 95.8999C162.911 96.6135 163.681 96.9312 164.494 96.7749C165.244 96.6291 165.859 96.103 165.994 95.4989C166.114 94.9572 165.827 94.4312 165.176 93.9676L164.249 93.3062L165.385 93.2749C166.228 93.2489 167.051 92.5041 167.385 91.8166C167.494 91.5978 167.718 91.0458 167.437 90.6551C167.254 90.4051 166.708 90.0145 165.062 90.2437L163.275 90.4885L164.812 89.5405C165.411 89.1708 165.697 88.478 165.572 87.6864C165.447 86.8583 164.905 86.1655 164.26 86.0041C163.484 85.8062 162.572 86.3218 161.702 87.4572L161.197 88.1187L161.03 87.301C160.833 86.327 160.244 85.676 159.385 85.4572C158.312 85.1864 157.036 85.6343 156.28 86.5353C155.51 87.452 155.411 88.676 155.999 89.9728L156.239 90.5145H155.65C154.999 90.5145 154.348 90.9676 154.129 91.577C153.879 92.2593 154.213 93.0249 155.062 93.7333L155.364 93.9833L155.109 94.2749C154.999 94.3947 154.968 94.6499 155.02 94.9364C155.098 95.3947 155.416 96.0458 156.056 96.4051C156.609 96.7124 157.286 96.7228 158.015 96.4364C158.635 96.1968 159.036 95.452 159.197 95.0874L156.536 92.1395L159.452 92.9624L162.676 87.3062L161.989 93.1343L165.155 91.8218L162.343 95.8999Z" fill="black"/>
<path d="M67.4937 98.1813L66.9468 97.6449C70.4468 94.098 87.1603 67.6188 88.7384 64.2646L89.4312 64.5876C87.7905 68.0719 71.1707 94.4521 67.4937 98.1813Z" fill="black"/>
<path d="M158.77 70.2595C157.061 70.2595 154.952 69.02 153.541 67.0304C152.843 66.0408 152.212 65.1241 151.66 64.3168C147.296 57.9314 146.254 56.4158 133.957 54.8533L130.494 54.4158L133.968 54.0981C148.353 52.7752 157.244 58.7752 160.77 64.8273C162.051 67.02 161.837 68.9158 160.186 69.895C159.78 70.145 159.291 70.2595 158.77 70.2595ZM138.093 54.6762C147.004 56.145 148.306 58.0564 152.291 63.8845C152.843 64.6918 153.468 65.6033 154.166 66.5929C155.759 68.8429 158.389 70.0825 159.801 69.2387C161.587 68.1762 160.619 66.072 160.113 65.2127C157.046 59.947 149.744 54.7283 138.093 54.6762Z" fill="black"/>
<path d="M81.0198 47.3219L77.9052 45.8219C68.5458 41.3115 67.2594 41.848 61.1083 44.4469C60.3323 44.7751 59.4781 45.1344 58.525 45.5199C55.9989 46.5355 53.2125 46.0615 52.4364 44.4834C51.7281 43.0199 52.4729 41.5094 54.3948 40.5303C59.6917 37.8376 68.7594 37.6344 78.3114 45.1761L81.0198 47.3219ZM61.9937 39.5876C59.1552 39.5876 56.6812 40.223 54.7385 41.2126C54.0042 41.5876 52.3792 42.6188 53.1239 44.1501C53.7177 45.3636 56.1083 45.6709 58.2385 44.8115C59.1864 44.4261 60.0354 44.0667 60.8114 43.7438C66.15 41.4938 68.0146 40.7022 74.4417 43.4001C69.9417 40.6553 65.6656 39.5876 61.9937 39.5876Z" fill="black"/>
<path d="M177.525 29.6136L174.884 26.8324L173.103 23.2699L176.733 20.999H179.681L182.171 24.3949L180.806 26.9105L177.525 29.6136ZM175.541 26.4417L177.587 28.5771L180.207 26.4209L181.275 24.4574L179.296 21.7646H176.957L174.103 23.5511L175.541 26.4417Z" fill="black"/>
<path d="M139.239 40.9469L136.28 39.6605L135.286 36.5876L135.468 36.4209C135.468 36.4209 135.562 36.3324 135.728 36.1917L136.442 35.5563C137.588 34.5303 138.114 34.0667 138.192 34.0042L138.296 33.9209H139.416L140.744 35.3428L141.984 35.2907L143.202 36.8792L142.103 40.1292L139.239 40.9469ZM136.9 39.098L139.291 40.1396L141.51 39.5042L142.348 37.0199L141.624 36.0719L140.426 36.1188L139.088 34.6865H138.567C138.291 34.9313 137.499 35.6344 136.952 36.124L136.234 36.7646C136.208 36.7803 136.187 36.8011 136.166 36.8219L136.9 39.098Z" fill="black"/>
<path d="M177.629 48.1396L176.457 47.3532L175.812 47.4938L175.666 47.3636C174.629 46.4417 174.598 46.2646 174.582 46.1501C174.567 46.0876 174.541 45.9261 174.796 44.4678L174.838 44.2386L175.067 44.1709C175.161 44.1449 175.895 43.9313 176.286 43.8324L177.067 42.4365L177.374 42.5511C179.702 43.4209 179.744 43.4834 179.827 43.6032C179.911 43.7334 179.952 43.7907 179.786 46.1969L179.775 46.3584L177.629 48.1396ZM176.614 46.5355L177.582 47.1865L179.025 45.9782C179.082 45.2178 179.124 44.4105 179.129 44.0511C178.817 43.9157 178.108 43.6396 177.405 43.374L176.775 44.499L176.603 44.5355C176.442 44.5719 175.874 44.7282 175.504 44.8324C175.426 45.3011 175.353 45.7855 175.338 45.9834C175.447 46.1136 175.744 46.4001 176.03 46.6605L176.614 46.5355Z" fill="black"/>
<path d="M183.208 76.2021L181.333 74.7178L181.864 73.6501L181.661 73.1605L181.78 72.9886C182.442 72.0303 182.588 71.9782 182.702 71.9469C182.749 71.9313 182.885 71.8844 184.166 71.874H184.4L184.504 72.0824C184.541 72.1501 184.801 72.6605 184.942 72.9626L186.28 73.3896L186.202 73.7282C185.754 75.7074 185.708 75.7438 185.598 75.8376C185.494 75.9365 185.452 75.973 183.364 76.1865L183.208 76.2021ZM182.291 74.5042L183.437 75.4053C184.077 75.3428 184.744 75.2646 185.062 75.2178C185.135 74.9574 185.26 74.4313 185.385 73.8949L184.374 73.5771L184.312 73.4105C184.27 73.3011 184.088 72.9365 183.931 72.6396C183.541 72.6396 183.14 72.6501 182.973 72.6657C182.874 72.7699 182.697 73.0146 182.525 73.249L182.702 73.6761L182.291 74.5042Z" fill="black"/>
<path d="M25.3218 74.9154L18.7749 70.4414L22.0093 63.1914H26.8322L27.9468 65.7591L30.5405 66.707V71.7643L25.3218 74.9154ZM19.728 70.1706L25.3426 74.0091L29.7697 71.3372V67.2435L27.3739 66.3633L26.327 63.9518H22.4989L19.728 70.1706Z" fill="black"/>
<path d="M25.4782 68.6136L24.8584 68.1657C25.5615 67.1969 26.3167 66.2126 27.1188 65.2542C29.9209 61.8584 37.4053 53.6761 46.2594 51.0615L46.4782 51.7907C37.8271 54.348 30.4678 62.3949 27.7074 65.7386C26.9209 66.6865 26.1709 67.6553 25.4782 68.6136Z" fill="black"/>
<path d="M58.5563 75.2074C58.1136 75.2074 57.6813 75.0615 57.2802 74.7699C56.6188 74.2855 56.2177 73.6605 56.1292 72.9574C56.0094 72.0771 56.374 71.1032 57.2073 70.0667C59.0094 67.8324 65.4104 63.2751 72.0302 62.8584L72.1292 63.6136C66.1448 64.8428 62.1396 71.6605 61.9417 72.2542C61.7281 72.8844 60.6083 74.6553 59.2177 75.098C58.9938 75.1657 58.7698 75.2074 58.5563 75.2074ZM68.4938 64.2386C63.5094 65.6032 59.2021 68.8115 57.8011 70.5459C57.0979 71.4157 56.7906 72.1917 56.8792 72.8584C56.9625 73.4782 57.3844 73.9053 57.7281 74.1501C58.124 74.4417 58.5354 74.5146 58.9833 74.3688C60.1083 74.0094 61.0667 72.4574 61.2177 72.0146C61.5094 71.1396 64.3323 66.6605 68.4938 64.2386Z" fill="black"/>
<path d="M176.264 24.9308C175.4 24.5714 174.509 24.2589 173.613 24.0037C167.27 22.1599 159.035 22.3006 147.681 24.436L147.541 23.686C159.009 21.5245 167.363 21.3943 173.822 23.2693C174.744 23.5349 175.666 23.8579 176.556 24.2329L176.264 24.9308Z" fill="black"/>
<path d="M120.546 40.8062L119.999 40.275C125.426 34.7021 134.312 35.8219 136.035 36.1031C136.702 36.2073 137.285 36.3375 137.687 36.4677L137.442 37.1917C137.093 37.0719 136.535 36.9521 135.916 36.8531C134.254 36.5875 125.718 35.5042 120.546 40.8062Z" fill="black"/>
<path d="M89.4573 54.0191L88.7125 53.8577C89.2333 51.3941 88.0719 45.3889 85.9573 39.5816C83.4416 32.6754 80.2125 27.566 77.0979 25.5608C75.3635 24.441 73.6969 23.4983 72.2281 22.665C67.4521 19.9618 64.301 18.1754 66.2125 14.6077C66.7021 13.6962 67.551 13.2014 68.7489 13.1441C71.3948 13.0139 74.8896 15.0243 76.7385 16.2327C78.6552 17.4879 80.4677 18.9723 81.801 20.3473C81.7594 19.8473 81.8531 19.3837 82.0719 18.9827C82.4781 18.2639 83.2854 17.8473 84.2229 17.8889C85.1969 17.9306 86.4416 18.4775 87.5823 19.79C86.4208 16.8733 84.3948 14.0816 82.5614 11.5504C79.5927 7.45664 77.0302 3.92018 79.0875 1.25872C79.8427 0.279552 80.775 -0.126699 81.8583 0.0451769C85.2281 0.592052 89.3739 7.15976 91.2541 11.9514C92.0823 10.7327 93.1344 10.7223 93.7489 10.8473C96.0198 11.3264 98.6448 14.9514 99.4312 18.2952C99.7594 17.0868 100.041 15.9306 100.296 14.8733C101.457 10.0712 102.291 6.60768 105.697 5.79518C107.509 5.36288 109.108 5.96184 110.087 7.44622C111.061 8.92018 111.207 10.9931 110.504 12.4775C111.322 12.5504 111.999 12.9566 112.494 13.6598C113.436 15.0035 113.582 17.3264 112.973 19.5816C116.723 15.4671 121.244 11.5921 125.291 12.9046C126.551 13.316 127.296 14.1441 127.447 15.3056C127.806 17.9723 124.837 22.1962 120.681 24.9098C116.114 27.8993 112.483 34.8212 110.702 39.3056C113.587 36.9827 116.041 36.0452 117.686 36.6598C118.587 36.9983 119.181 37.79 119.311 38.8316C119.494 40.3004 118.759 41.8889 117.478 42.7796C112.546 46.2171 109.895 49.9879 109.593 53.9827L108.832 53.9254C109.15 49.691 111.91 45.7327 117.041 42.1598C118.077 41.4358 118.702 40.1077 118.551 38.9306C118.499 38.4879 118.275 37.7014 117.421 37.3785C116.686 37.1025 114.494 36.8889 110.082 40.8421L108.973 41.8316L109.468 40.4306C109.895 39.2223 113.817 28.4983 120.265 24.2796C124.119 21.7535 127.004 17.7743 126.686 15.4098C126.572 14.5504 126.02 13.9514 125.051 13.6337C120.916 12.29 115.994 17.2118 112.16 21.6441L110.166 23.9566L111.53 21.2223C112.775 18.7379 112.921 15.6077 111.858 14.0973C111.395 13.4306 110.718 13.1441 109.869 13.2431L108.994 13.3473L109.52 12.6389C110.431 11.4098 110.4 9.3108 109.447 7.86289C108.983 7.15976 107.9 6.05039 105.869 6.53997C102.916 7.23789 102.124 10.5191 101.03 15.0504C100.65 16.6285 100.218 18.4202 99.6448 20.29L98.9 22.7327V20.1806C98.9 16.8264 95.9677 12.0921 93.5823 11.5973C92.7125 11.415 92.0198 11.8941 91.5302 13.0191L91.1448 13.9098L90.8219 12.9931C89.1448 8.24309 84.8791 1.30559 81.7281 0.795177C80.9364 0.664967 80.2646 0.97226 79.6812 1.72747C77.9781 3.9358 80.3844 7.25872 83.1708 11.1077C85.5927 14.4566 88.3479 18.2535 89.1083 22.2848L89.6916 25.3889L88.3896 22.5139C87.1291 19.7483 85.3896 18.7118 84.1812 18.6546C83.5198 18.6285 82.9989 18.8837 82.7281 19.3577C82.3479 20.0452 82.551 21.0556 83.2802 22.1389L82.65 22.5608C81.5146 20.8837 79.0302 18.6546 76.3114 16.8733C73.2958 14.8993 70.551 13.816 68.775 13.9098C67.8531 13.9514 67.2333 14.3004 66.8739 14.9723C65.3739 17.7639 67.5458 19.1441 72.5927 22.0087C74.0666 22.8473 75.7437 23.7952 77.5041 24.9254C84.7646 29.5868 90.5823 48.6962 89.4573 54.0191Z" fill="black"/>
<path d="M55.7749 20.5928L54.8479 20.0928C53.0666 19.1293 49.6499 18.8532 46.3479 18.5928C41.7854 18.2282 37.4729 17.8845 35.9937 15.9001C35.5093 15.2543 35.3583 14.4782 35.5458 13.5876C35.7437 12.6605 36.4051 11.5199 38.4468 11.3428C43.5354 10.9053 54.3218 16.9574 55.3843 19.6137L55.7749 20.5928ZM39.0562 12.0772C38.8687 12.0772 38.6864 12.0876 38.5041 12.1032C37.2229 12.2126 36.4989 12.7491 36.2906 13.7439C36.1499 14.4157 36.2489 14.973 36.5979 15.4418C37.8739 17.1553 42.2072 17.4991 46.4051 17.8324C49.2333 18.0616 51.9364 18.2751 53.8895 18.8845C51.3426 16.3897 43.5979 12.0772 39.0562 12.0772Z" fill="black"/>
<path d="M137.759 8.31108L137.327 7.68087C141.812 4.10274 148.994 0.68087 154.952 1.10275C158.14 1.33191 159.499 3.08191 159.416 4.61316C159.338 6.10274 157.884 7.66524 154.91 7.54545C153.437 7.48816 151.989 7.23816 150.452 6.97254C146.504 6.29025 142.426 5.58191 137.759 8.31108ZM144.952 5.58191C146.89 5.58191 148.749 5.90483 150.577 6.22254C152.088 6.48295 153.509 6.72775 154.937 6.78504C157.4 6.884 158.588 5.7017 158.65 4.5715C158.718 3.39962 157.567 2.05066 154.895 1.86316C150.343 1.54024 145.03 3.55587 140.848 6.1392C142.265 5.73295 143.629 5.58191 144.952 5.58191Z" fill="black"/>
<path d="M89.0718 33.931L89.8166 33.7852L93.327 51.3424L92.577 51.4935L89.0718 33.931Z" fill="black"/>
<path d="M96.0148 51.4209H95.2544C95.2544 50.6396 94.2284 30.0719 93.395 25.3011L94.145 25.1709C94.9836 29.973 96.0148 50.6396 96.0148 51.4209Z" fill="black"/>
<path d="M100.077 55.306C99.9207 51.9674 102.072 34.556 102.166 33.8164L102.921 33.9102C102.9 34.0872 100.692 51.9987 100.843 55.2747L100.077 55.306Z" fill="black"/>
<path d="M105.759 49.2126L104.999 49.1865C105.207 42.3949 107.457 32.7021 109.473 27.0303L110.192 27.2907C108.197 32.9053 105.968 42.4938 105.759 49.2126Z" fill="black"/>
</svg>
