<svg width="225" height="86" viewBox="0 0 225 86" fill="none" xmlns="http://www.w3.org/2000/svg">
<path d="M40.7259 68.4416C36.8499 71.5932 28.724 72.6388 22.3498 68.8343C19.736 67.2731 16.3908 64.2006 15.295 58.465L15.1371 57.6419L14.608 58.033C12.3682 59.6965 8.95701 59.4322 6.67399 57.4181C5.38321 56.278 3.85357 54.0703 3.8942 50.0007L3.89787 49.593L3.64748 49.391C0.0787491 46.5574 -0.910838 41.7176 1.00953 36.4515C3.87696 28.5817 9.96734 26.2262 13.8577 28.9517L14.2549 29.2303L14.4742 28.7023C17.8729 20.5885 22.7609 16.3247 28.9965 16.0209C38.2995 15.5511 47.6691 24.2203 50.098 28.9855L50.5586 29.8879L50.9102 28.9057C53.8428 20.7076 60.6475 19.509 64.2258 21.811L64.6015 22.0509L64.8239 21.5674C72.9121 3.90805 88.5525 -1.54469 99.6614 0.865082C106.402 2.32999 111.122 6.4372 112.291 11.8627L112.516 12.9071L113.075 12.1678C116.537 7.60468 121.154 8.1152 122.976 8.55112C125.463 9.13831 127.025 10.4376 127.298 11.128L127.603 11.8988L128.045 11.3002C134.704 2.29074 145.773 1.80384 153.237 5.16685C158.274 7.44099 161.677 11.4004 162.338 15.7595L162.497 16.8113L163.097 16.1679C165.673 13.3913 169.714 12.998 172.911 15.1998C174.473 16.2756 177.117 18.8877 177.236 24.3089L177.265 25.5177L177.975 24.868C184.787 18.6436 191.289 19.9403 195.542 22.1198C200.813 24.8279 204.934 30.1754 205.733 33.591C203.463 33.9669 201.259 35.1612 199.784 37.275L200.467 38.2277C201.84 36.2619 203.908 35.1801 206.026 34.8724L206.036 34.9115L206.059 34.8634C208.221 34.5464 210.436 35.0427 212.03 36.2174L212.461 35.0222C210.918 33.8852 208.838 33.337 206.735 33.4759C209.57 27.8741 213.803 28.5421 216.601 30.8571C218.918 32.7833 220.847 36.4187 219.852 39.379L219.581 40.1876L220.209 40.3427C222.282 40.857 223.704 42.4661 224.227 44.8811C224.823 47.6355 224.129 50.925 222.505 53.0649C221.423 54.4871 219.018 56.5479 215.09 54.3918L214.511 54.0719L214.45 54.9445C214.226 58.1419 210.3 61.1532 207.807 60.7739L207.487 60.7242L207.339 61.1289C205.652 65.7823 201.754 68.8321 196.639 69.4796C191.232 70.1632 185.747 67.8752 183.583 64.0373L183.373 63.6656L183.056 63.8183C180.214 65.1627 178.279 64.962 174.976 60.184L174.673 59.7392L174.338 60.1239C170.229 64.8454 158.793 69.9152 151.582 62.7831L151.149 62.3558L150.894 62.9955C149.818 65.7061 147.208 68.0132 144.24 68.8806C142.134 69.4956 138.022 69.9044 134.112 65.791L133.847 65.5159L133.57 65.7619C131.237 67.8486 133.418 69.3971 124.184 72.1005C122.226 79.7841 109.135 74.207 108.562 70.5888C117.299 77.8137 99.0358 67.4854 99.1676 68.504C97.5108 70.0532 95.1007 72.8112 95.5174 75.4296C95.7661 76.9913 96.9196 77.9966 98.9516 78.4308C99.9438 68.271 98.5177 75.5556 101.345 79.2551C97.4931 83.5604 89.3731 86.6492 82.802 84.5265C78.5013 83.1428 75.3855 79.7102 73.786 74.6121L73.6336 74.1281L73.2668 74.214C71.2117 74.6984 69.5422 74.2232 68.3141 72.7996C67.1225 71.4195 66.6972 69.5061 66.6777 68.7941L66.6407 67.4436L65.901 68.2705C60.4834 74.3298 52.8299 74.6758 47.4724 72.9752C43.9356 71.8499 41.8658 70.0338 41.3884 68.7244L41.1558 68.0879L40.7259 68.4416Z" fill="#CADBEA"/>
<path d="M40.7259 68.4416C36.8499 71.5932 28.724 72.6388 22.3498 68.8343C19.736 67.2731 16.3908 64.2006 15.295 58.465L15.1371 57.6419L14.608 58.033C12.3682 59.6965 8.95701 59.4322 6.67399 57.4181C5.38321 56.278 3.85357 54.0703 3.8942 50.0007L3.89787 49.593L3.64748 49.391C0.0787491 46.5574 -0.910838 41.7176 1.00953 36.4515C3.87696 28.5817 9.96734 26.2262 13.8577 28.9517L14.2549 29.2303L14.4742 28.7023C17.8729 20.5885 22.7609 16.3247 28.9965 16.0209C38.2995 15.5511 47.6691 24.2203 50.098 28.9855L50.5586 29.8879L50.9102 28.9057C53.8428 20.7076 60.6475 19.509 64.2258 21.811L64.6015 22.0509L64.8239 21.5674C72.9121 3.90805 88.5525 -1.54469 99.6614 0.865082C106.402 2.32999 111.122 6.4372 112.291 11.8627L112.516 12.9071L113.075 12.1678C116.537 7.60468 121.154 8.1152 122.976 8.55112C125.463 9.13831 127.025 10.4376 127.298 11.128L127.603 11.8988L128.045 11.3002C134.704 2.29074 145.773 1.80384 153.237 5.16685C158.274 7.44099 161.677 11.4004 162.338 15.7595L162.497 16.8113L163.097 16.1679C165.673 13.3913 169.714 12.998 172.911 15.1998C174.473 16.2756 177.117 18.8877 177.236 24.3089L177.265 25.5177L177.975 24.868C184.787 18.6436 191.289 19.9403 195.542 22.1198C200.813 24.8279 204.934 30.1754 205.733 33.591C203.463 33.9669 201.259 35.1612 199.784 37.275L200.467 38.2277C201.84 36.2619 203.908 35.1801 206.026 34.8724L206.036 34.9115L206.059 34.8634C208.221 34.5464 210.436 35.0427 212.03 36.2174L212.461 35.0222C210.918 33.8852 208.838 33.337 206.735 33.4759C209.57 27.8741 213.803 28.5421 216.601 30.8571C218.918 32.7833 220.847 36.4187 219.852 39.379L219.581 40.1876L220.209 40.3427C222.282 40.857 223.704 42.4661 224.227 44.8811C224.823 47.6355 224.129 50.925 222.505 53.0649C221.423 54.4871 219.018 56.5479 215.09 54.3918L214.511 54.0719L214.45 54.9445C214.226 58.1419 210.3 61.1532 207.807 60.7739L207.487 60.7242L207.339 61.1289C205.652 65.7823 201.754 68.8321 196.639 69.4796C191.232 70.1632 185.747 67.8752 183.583 64.0373L183.373 63.6656L183.056 63.8183C180.214 65.1627 178.279 64.962 174.976 60.184L174.673 59.7392L174.338 60.1239C170.229 64.8454 158.793 69.9152 151.582 62.7831L151.149 62.3558L150.894 62.9955C149.818 65.7061 147.208 68.0132 144.24 68.8806C142.134 69.4956 138.022 69.9044 134.112 65.791L133.847 65.5159L133.57 65.7619C131.237 67.8486 133.418 69.3971 124.184 72.1005C122.226 79.7841 109.135 74.207 108.562 70.5888C117.299 77.8137 99.0358 67.4854 99.1676 68.504C97.5108 70.0532 95.1007 72.8112 95.5174 75.4296C95.7661 76.9913 96.9196 77.9966 98.9516 78.4308C99.9438 68.271 98.5177 75.5556 101.345 79.2551C97.4931 83.5604 89.3731 86.6492 82.802 84.5265C78.5013 83.1428 75.3855 79.7102 73.786 74.6121L73.6336 74.1281L73.2668 74.214C71.2117 74.6984 69.5422 74.2232 68.3141 72.7996C67.1225 71.4195 66.6972 69.5061 66.6777 68.7941L66.6407 67.4436L65.901 68.2705C60.4834 74.3298 52.8299 74.6758 47.4724 72.9752C43.9356 71.8499 41.8658 70.0338 41.3884 68.7244L41.1558 68.0879L40.7259 68.4416Z" fill="#CADBEA"/>
<path d="M40.7259 68.4416C36.8499 71.5932 28.724 72.6388 22.3498 68.8343C19.736 67.2731 16.3908 64.2006 15.295 58.465L15.1371 57.6419L14.608 58.033C12.3682 59.6965 8.95701 59.4322 6.67399 57.4181C5.38321 56.278 3.85357 54.0703 3.8942 50.0007L3.89787 49.593L3.64748 49.391C0.0787491 46.5574 -0.910838 41.7176 1.00953 36.4515C3.87696 28.5817 9.96734 26.2262 13.8577 28.9517L14.2549 29.2303L14.4742 28.7023C17.8729 20.5885 22.7609 16.3247 28.9965 16.0209C38.2995 15.5511 47.6691 24.2203 50.098 28.9855L50.5586 29.8879L50.9102 28.9057C53.8428 20.7076 60.6475 19.509 64.2258 21.811L64.6015 22.0509L64.8239 21.5674C72.9121 3.90805 88.5525 -1.54469 99.6614 0.865082C106.402 2.32999 111.122 6.4372 112.291 11.8627L112.516 12.9071L113.075 12.1678C116.537 7.60468 121.154 8.1152 122.976 8.55112C125.463 9.13831 127.025 10.4376 127.298 11.128L127.603 11.8988L128.045 11.3002C134.704 2.29074 145.773 1.80384 153.237 5.16685C158.274 7.44099 161.677 11.4004 162.338 15.7595L162.497 16.8113L163.097 16.1679C165.673 13.3913 169.714 12.998 172.911 15.1998C174.473 16.2756 177.117 18.8877 177.236 24.3089L177.265 25.5177L177.975 24.868C184.787 18.6436 191.289 19.9403 195.542 22.1198C200.813 24.8279 204.934 30.1754 205.733 33.591C203.463 33.9669 201.259 35.1612 199.784 37.275L200.467 38.2277C201.84 36.2619 203.908 35.1801 206.026 34.8724L206.036 34.9115L206.059 34.8634C208.221 34.5464 210.436 35.0427 212.03 36.2174L212.461 35.0222C210.918 33.8852 208.838 33.337 206.735 33.4759C209.57 27.8741 213.803 28.5421 216.601 30.8571C218.918 32.7833 220.847 36.4187 219.852 39.379L219.581 40.1876L220.209 40.3427C222.282 40.857 223.704 42.4661 224.227 44.8811C224.823 47.6355 224.129 50.925 222.505 53.0649C221.423 54.4871 219.018 56.5479 215.09 54.3918L214.511 54.0719L214.45 54.9445C214.226 58.1419 210.3 61.1532 207.807 60.7739L207.487 60.7242L207.339 61.1289C205.652 65.7823 201.754 68.8321 196.639 69.4796C191.232 70.1632 185.747 67.8752 183.583 64.0373L183.373 63.6656L183.056 63.8183C180.214 65.1627 178.279 64.962 174.976 60.184L174.673 59.7392L174.338 60.1239C170.229 64.8454 158.793 69.9152 151.582 62.7831L151.149 62.3558L150.894 62.9955C149.818 65.7061 147.208 68.0132 144.24 68.8806C142.134 69.4956 138.022 69.9044 134.112 65.791L133.847 65.5159L133.57 65.7619C131.237 67.8486 133.418 69.3971 124.184 72.1005C122.226 79.7841 109.135 74.207 108.562 70.5888C117.299 77.8137 99.0358 67.4854 99.1676 68.504C97.5108 70.0532 95.1007 72.8112 95.5174 75.4296C95.7661 76.9913 96.9196 77.9966 98.9516 78.4308C99.9438 68.271 98.5177 75.5556 101.345 79.2551C97.4931 83.5604 89.3731 86.6492 82.802 84.5265C78.5013 83.1428 75.3855 79.7102 73.786 74.6121L73.6336 74.1281L73.2668 74.214C71.2117 74.6984 69.5422 74.2232 68.3141 72.7996C67.1225 71.4195 66.6972 69.5061 66.6777 68.7941L66.6407 67.4436L65.901 68.2705C60.4834 74.3298 52.8299 74.6758 47.4724 72.9752C43.9356 71.8499 41.8658 70.0338 41.3884 68.7244L41.1558 68.0879L40.7259 68.4416Z" fill="#CADBEA"/>
<path d="M40.7259 68.4416C36.8499 71.5932 28.724 72.6388 22.3498 68.8343C19.736 67.2731 16.3908 64.2006 15.295 58.465L15.1371 57.6419L14.608 58.033C12.3682 59.6965 8.95701 59.4322 6.67399 57.4181C5.38321 56.278 3.85357 54.0703 3.8942 50.0007L3.89787 49.593L3.64748 49.391C0.0787491 46.5574 -0.910838 41.7176 1.00953 36.4515C3.87696 28.5817 9.96734 26.2262 13.8577 28.9517L14.2549 29.2303L14.4742 28.7023C17.8729 20.5885 22.7609 16.3247 28.9965 16.0209C38.2995 15.5511 47.6691 24.2203 50.098 28.9855L50.5586 29.8879L50.9102 28.9057C53.8428 20.7076 60.6475 19.509 64.2258 21.811L64.6015 22.0509L64.8239 21.5674C72.9121 3.90805 88.5525 -1.54469 99.6614 0.865082C106.402 2.32999 111.122 6.4372 112.291 11.8627L112.516 12.9071L113.075 12.1678C116.537 7.60468 121.154 8.1152 122.976 8.55112C125.463 9.13831 127.025 10.4376 127.298 11.128L127.603 11.8988L128.045 11.3002C134.704 2.29074 145.773 1.80384 153.237 5.16685C158.274 7.44099 161.677 11.4004 162.338 15.7595L162.497 16.8113L163.097 16.1679C165.673 13.3913 169.714 12.998 172.911 15.1998C174.473 16.2756 177.117 18.8877 177.236 24.3089L177.265 25.5177L177.975 24.868C184.787 18.6436 191.289 19.9403 195.542 22.1198C200.813 24.8279 204.934 30.1754 205.733 33.591C203.463 33.9669 201.259 35.1612 199.784 37.275L200.467 38.2277C201.84 36.2619 203.908 35.1801 206.026 34.8724L206.036 34.9115L206.059 34.8634C208.221 34.5464 210.436 35.0427 212.03 36.2174L212.461 35.0222C210.918 33.8852 208.838 33.337 206.735 33.4759C209.57 27.8741 213.803 28.5421 216.601 30.8571C218.918 32.7833 220.847 36.4187 219.852 39.379L219.581 40.1876L220.209 40.3427C222.282 40.857 223.704 42.4661 224.227 44.8811C224.823 47.6355 224.129 50.925 222.505 53.0649C221.423 54.4871 219.018 56.5479 215.09 54.3918L214.511 54.0719L214.45 54.9445C214.226 58.1419 210.3 61.1532 207.807 60.7739L207.487 60.7242L207.339 61.1289C205.652 65.7823 201.754 68.8321 196.639 69.4796C191.232 70.1632 185.747 67.8752 183.583 64.0373L183.373 63.6656L183.056 63.8183C180.214 65.1627 178.279 64.962 174.976 60.184L174.673 59.7392L174.338 60.1239C170.229 64.8454 158.793 69.9152 151.582 62.7831L151.149 62.3558L150.894 62.9955C149.818 65.7061 147.208 68.0132 144.24 68.8806C142.134 69.4956 138.022 69.9044 134.112 65.791L133.847 65.5159L133.57 65.7619C131.237 67.8486 133.418 69.3971 124.184 72.1005C122.226 79.7841 109.135 74.207 108.562 70.5888C117.299 77.8137 99.0358 67.4854 99.1676 68.504C97.5108 70.0532 95.1007 72.8112 95.5174 75.4296C95.7661 76.9913 96.9196 77.9966 98.9516 78.4308C99.9438 68.271 98.5177 75.5556 101.345 79.2551C97.4931 83.5604 89.3731 86.6492 82.802 84.5265C78.5013 83.1428 75.3855 79.7102 73.786 74.6121L73.6336 74.1281L73.2668 74.214C71.2117 74.6984 69.5422 74.2232 68.3141 72.7996C67.1225 71.4195 66.6972 69.5061 66.6777 68.7941L66.6407 67.4436L65.901 68.2705C60.4834 74.3298 52.8299 74.6758 47.4724 72.9752C43.9356 71.8499 41.8658 70.0338 41.3884 68.7244L41.1558 68.0879L40.7259 68.4416Z" fill="#CADBEA"/>
<path d="M40.7259 68.4416C36.8499 71.5932 28.724 72.6388 22.3498 68.8343C19.736 67.2731 16.3908 64.2006 15.295 58.465L15.1371 57.6419L14.608 58.033C12.3682 59.6965 8.95701 59.4322 6.67399 57.4181C5.38321 56.278 3.85357 54.0703 3.8942 50.0007L3.89787 49.593L3.64748 49.391C0.0787491 46.5574 -0.910838 41.7176 1.00953 36.4515C3.87696 28.5817 9.96734 26.2262 13.8577 28.9517L14.2549 29.2303L14.4742 28.7023C17.8729 20.5885 22.7609 16.3247 28.9965 16.0209C38.2995 15.5511 47.6691 24.2203 50.098 28.9855L50.5586 29.8879L50.9102 28.9057C53.8428 20.7076 60.6475 19.509 64.2258 21.811L64.6015 22.0509L64.8239 21.5674C72.9121 3.90805 88.5525 -1.54469 99.6614 0.865082C106.402 2.32999 111.122 6.4372 112.291 11.8627L112.516 12.9071L113.075 12.1678C116.537 7.60468 121.154 8.1152 122.976 8.55112C125.463 9.13831 127.025 10.4376 127.298 11.128L127.603 11.8988L128.045 11.3002C134.704 2.29074 145.773 1.80384 153.237 5.16685C158.274 7.44099 161.677 11.4004 162.338 15.7595L162.497 16.8113L163.097 16.1679C165.673 13.3913 169.714 12.998 172.911 15.1998C174.473 16.2756 177.117 18.8877 177.236 24.3089L177.265 25.5177L177.975 24.868C184.787 18.6436 191.289 19.9403 195.542 22.1198C200.813 24.8279 204.934 30.1754 205.733 33.591C203.463 33.9669 201.259 35.1612 199.784 37.275L200.467 38.2277C201.84 36.2619 203.908 35.1801 206.026 34.8724L206.036 34.9115L206.059 34.8634C208.221 34.5464 210.436 35.0427 212.03 36.2174L212.461 35.0222C210.918 33.8852 208.838 33.337 206.735 33.4759C209.57 27.8741 213.803 28.5421 216.601 30.8571C218.918 32.7833 220.847 36.4187 219.852 39.379L219.581 40.1876L220.209 40.3427C222.282 40.857 223.704 42.4661 224.227 44.8811C224.823 47.6355 224.129 50.925 222.505 53.0649C221.423 54.4871 219.018 56.5479 215.09 54.3918L214.511 54.0719L214.45 54.9445C214.226 58.1419 210.3 61.1532 207.807 60.7739L207.487 60.7242L207.339 61.1289C205.652 65.7823 201.754 68.8321 196.639 69.4796C191.232 70.1632 185.747 67.8752 183.583 64.0373L183.373 63.6656L183.056 63.8183C180.214 65.1627 178.279 64.962 174.976 60.184L174.673 59.7392L174.338 60.1239C170.229 64.8454 158.793 69.9152 151.582 62.7831L151.149 62.3558L150.894 62.9955C149.818 65.7061 147.208 68.0132 144.24 68.8806C142.134 69.4956 138.022 69.9044 134.112 65.791L133.847 65.5159L133.57 65.7619C131.237 67.8486 133.418 69.3971 124.184 72.1005C122.226 79.7841 109.135 74.207 108.562 70.5888C117.299 77.8137 99.0358 67.4854 99.1676 68.504C97.5108 70.0532 95.1007 72.8112 95.5174 75.4296C95.7661 76.9913 96.9196 77.9966 98.9516 78.4308C99.9438 68.271 98.5177 75.5556 101.345 79.2551C97.4931 83.5604 89.3731 86.6492 82.802 84.5265C78.5013 83.1428 75.3855 79.7102 73.786 74.6121L73.6336 74.1281L73.2668 74.214C71.2117 74.6984 69.5422 74.2232 68.3141 72.7996C67.1225 71.4195 66.6972 69.5061 66.6777 68.7941L66.6407 67.4436L65.901 68.2705C60.4834 74.3298 52.8299 74.6758 47.4724 72.9752C43.9356 71.8499 41.8658 70.0338 41.3884 68.7244L41.1558 68.0879L40.7259 68.4416Z" stroke="black"/>
</svg>
