<svg width="146" height="58" viewBox="0 0 146 58" fill="none" xmlns="http://www.w3.org/2000/svg">
<mask id="path-1-inside-1_5642_6331" fill="white">
<path d="M23.0815 42.3925C24.3207 44.6081 26.9923 45.6559 29.083 45.5857C29.1575 45.5832 29.2295 45.5808 29.3061 45.573C30.9188 45.461 32.1491 44.7212 32.8038 43.4899C34.6831 44.3834 36.3937 43.8996 37.3935 43.1218C38.0945 42.5735 38.5541 41.8104 38.6921 40.9721L38.0913 40.7482C37.9921 41.336 37.6386 41.8955 37.0917 42.3211C35.9319 43.2217 34.2378 43.3014 32.7773 42.5254L32.5445 42.4016L32.4134 42.7044C31.9197 43.846 30.7669 44.5639 29.2574 44.6725C26.9663 44.8406 24.5706 43.6431 23.5562 41.8289L23.0815 42.3925ZM26.9647 46.2272C24.4562 48.328 19.1942 49.0205 15.0641 46.4771C13.3705 45.4334 11.2024 43.3806 10.4896 39.5519L10.3869 39.0024L10.0444 39.2631C8.59478 40.3719 6.38547 40.1932 4.90583 38.8475C4.06927 38.0857 3.07744 36.6113 3.10155 33.8952L3.10371 33.6231L2.94144 33.4881C0.628697 31.5946 -0.0148102 28.3638 1.22601 24.8504C3.07877 19.6 7.02178 18.032 9.54278 19.8536L9.80015 20.0398L9.94187 19.6875C12.1386 14.2745 15.3018 11.4321 19.34 11.2335C25.3646 10.9262 31.4373 16.7182 33.0129 19.9002L33.3117 20.5027L33.5389 19.8475C35.4337 14.3779 39.8399 13.5825 42.1586 15.1213L42.402 15.2816L42.5457 14.9591C47.7743 3.17846 57.9005 -0.450345 65.0962 1.16533C69.4622 2.14749 72.5214 4.89181 73.2814 8.5136L73.4278 9.21076L73.7891 8.71772C76.0291 5.67459 79.019 6.01838 80.1995 6.31052C81.8104 6.70407 82.8229 7.57228 83.0001 8.03322L83.198 8.54787L83.4837 8.14863C87.7916 2.14009 94.9596 1.82248 99.7952 4.07193C103.059 5.59305 105.265 8.23786 105.695 11.1476L105.799 11.8497L106.187 11.4207C107.854 9.56921 110.471 9.30946 112.542 10.781C113.554 11.5001 115.268 13.2452 115.348 16.8634L115.368 17.6702L115.827 17.237C120.235 13.0874 124.447 13.9571 127.203 15.4145C130.617 17.2255 133.29 20.7972 133.808 23.0773C132.339 23.3267 130.912 24.1222 129.958 25.532L130.401 26.1684C131.289 24.8573 132.628 24.1366 133.999 23.9327L134.006 23.9588L134.02 23.9267C135.42 23.7165 136.855 24.0493 137.888 24.8343L138.167 24.0369C137.167 23.2771 135.82 22.9098 134.458 23.0011C136.29 19.2643 139.032 19.7129 140.845 21.2599C142.347 22.547 143.598 24.9745 142.956 26.9496L142.781 27.4891L143.187 27.593C144.53 27.9377 145.452 29.0125 145.792 30.6247C146.18 32.4634 145.732 34.6583 144.681 36.0854C143.981 37.0339 142.425 38.4077 139.88 36.9661L139.505 36.7522L139.466 37.3345C139.322 39.4684 136.781 41.4755 135.167 41.2207L134.959 41.1873L134.863 41.4573C133.774 44.5619 131.251 46.5948 127.939 47.0235C124.437 47.4762 120.884 45.9455 119.48 43.3826L119.344 43.1344L119.139 43.2361C117.299 44.1315 116.046 43.9963 113.904 40.8052L113.707 40.5082L113.491 40.7646C110.832 43.9131 103.429 47.2891 98.7547 42.5243L98.4742 42.2389L98.3092 42.6656C97.614 44.474 95.925 46.012 94.0031 46.589C92.64 46.998 89.9769 47.2681 87.4425 44.5202L87.2705 44.3364L87.0912 44.5004C86.1268 45.3893 85.0068 45.5041 83.8379 44.8465C84.5645 43.525 84.7131 42.0211 84.2248 40.7281C85.2411 43.419 90.2575 45.9452 81.0163 48.7246C79.7521 53.8514 71.2714 50.1206 70.8981 47.7053C76.5602 52.5331 64.7272 45.6278 64.8131 46.3077C63.741 47.3406 62.1816 49.1796 62.4529 50.9275C62.6148 51.9699 63.3624 52.6416 64.6786 52.9327L64.7623 52.0418C63.7544 51.8229 63.1495 51.3587 63.0557 50.744C62.9227 49.8797 63.6647 48.5489 65.0119 47.2084C65.2816 48.0191 65.7618 48.6647 66.2873 48.9454C65.7689 49.9334 65.5387 50.9153 65.6185 51.8095C65.6769 52.4517 65.8847 53.0204 66.229 53.4845C63.7368 56.3553 58.4797 58.4114 54.223 56.9903C51.437 56.064 49.4173 53.771 48.3786 50.3674L48.2796 50.0443L48.0421 50.1014C46.7115 50.4233 45.63 50.1051 44.8339 49.1541C44.0614 48.2322 43.785 46.9549 43.772 46.4797L43.7473 45.5784L43.2686 46.1298C39.7634 50.1702 34.8069 50.3961 31.3364 49.2575C29.0453 48.5041 27.7038 47.2906 27.3939 46.4164L27.2429 45.9915L26.9647 46.2272ZM116.945 37.0103L116.624 36.233C115.251 37.4217 112.942 37.2499 112.024 35.2411L111.514 35.7339C112.207 37.2517 113.494 37.9247 114.761 37.8822C115.545 37.8559 116.325 37.5577 116.945 37.0103ZM107.784 28.0554L107.229 27.6387C105.963 31.3302 102.017 32.5403 98.4329 30.3401L98.2216 30.212L98.0772 30.4661C97.1482 32.1191 95.0369 32.5795 92.4138 29.8802L98.0772 30.4661L91.9422 30.119C91.5828 31.9529 88.6934 35.497 86.3689 35.8926L86.4486 36.7869C88.7397 36.3976 91.6026 33.2476 92.3897 30.9324C95.0676 33.4807 97.2875 32.9937 98.4097 31.2922C102.229 33.5038 106.402 32.086 107.784 28.0554ZM60.6564 37.4447L60.3371 36.6656C58.9346 37.8728 54.7176 39.1709 53.272 36.0881L53.7634 36.8628C54.6169 38.6824 55.1408 38.9654 56.6555 38.9146C58.2829 38.86 59.8996 38.1037 60.6564 37.4447ZM21.9248 29.3727L21.3066 29.3478C21.3049 29.8551 21.165 30.2722 20.8937 30.5885C20.3502 31.2281 19.3347 31.3885 18.1114 31.0223L17.8836 30.9527L17.7802 31.2563C17.5132 32.0341 16.1353 32.8245 14.7663 32.6668C14.0445 32.5857 12.7716 32.1667 12.3224 30.2827L11.7415 30.5655C12.161 32.3276 13.2233 33.3925 14.7296 33.5649C14.9032 33.5854 15.08 33.5935 15.2576 33.5876C16.4998 33.5459 17.7154 32.8803 18.2021 31.9671C19.533 32.3121 20.6221 32.0755 21.2855 31.2967C21.6975 30.8108 21.9208 30.1469 21.9248 29.3727Z"/>
<path d="M23.0815 42.3925C24.3207 44.6081 26.9923 45.6559 29.083 45.5857C29.1575 45.5832 29.2295 45.5808 29.3061 45.573C30.9188 45.461 32.1491 44.7212 32.8038 43.4899C34.6831 44.3834 36.3937 43.8996 37.3935 43.1218C38.0945 42.5735 38.5541 41.8104 38.6921 40.9721L38.0913 40.7482C37.9921 41.336 37.6386 41.8955 37.0917 42.3211C35.9319 43.2217 34.2378 43.3014 32.7773 42.5254L32.5445 42.4016L32.4134 42.7044C31.9197 43.846 30.7669 44.5639 29.2574 44.6725C26.9663 44.8406 24.5706 43.6431 23.5562 41.8289L23.0815 42.3925ZM26.9647 46.2272C24.4562 48.328 19.1942 49.0205 15.0641 46.4771C13.3705 45.4334 11.2024 43.3806 10.4896 39.5519L10.3869 39.0024L10.0444 39.2631C8.59478 40.3719 6.38547 40.1932 4.90583 38.8475C4.06927 38.0857 3.07744 36.6113 3.10155 33.8952L3.10371 33.6231L2.94144 33.4881C0.628697 31.5946 -0.0148102 28.3638 1.22601 24.8504C3.07877 19.6 7.02178 18.032 9.54278 19.8536L9.80015 20.0398L9.94187 19.6875C12.1386 14.2745 15.3018 11.4321 19.34 11.2335C25.3646 10.9262 31.4373 16.7182 33.0129 19.9002L33.3117 20.5027L33.5389 19.8475C35.4337 14.3779 39.8399 13.5825 42.1586 15.1213L42.402 15.2816L42.5457 14.9591C47.7743 3.17846 57.9005 -0.450345 65.0962 1.16533C69.4622 2.14749 72.5214 4.89181 73.2814 8.5136L73.4278 9.21076L73.7891 8.71772C76.0291 5.67459 79.019 6.01838 80.1995 6.31052C81.8104 6.70407 82.8229 7.57228 83.0001 8.03322L83.198 8.54787L83.4837 8.14863C87.7916 2.14009 94.9596 1.82248 99.7952 4.07193C103.059 5.59305 105.265 8.23786 105.695 11.1476L105.799 11.8497L106.187 11.4207C107.854 9.56921 110.471 9.30946 112.542 10.781C113.554 11.5001 115.268 13.2452 115.348 16.8634L115.368 17.6702L115.827 17.237C120.235 13.0874 124.447 13.9571 127.203 15.4145C130.617 17.2255 133.29 20.7972 133.808 23.0773C132.339 23.3267 130.912 24.1222 129.958 25.532L130.401 26.1684C131.289 24.8573 132.628 24.1366 133.999 23.9327L134.006 23.9588L134.02 23.9267C135.42 23.7165 136.855 24.0493 137.888 24.8343L138.167 24.0369C137.167 23.2771 135.82 22.9098 134.458 23.0011C136.29 19.2643 139.032 19.7129 140.845 21.2599C142.347 22.547 143.598 24.9745 142.956 26.9496L142.781 27.4891L143.187 27.593C144.53 27.9377 145.452 29.0125 145.792 30.6247C146.18 32.4634 145.732 34.6583 144.681 36.0854C143.981 37.0339 142.425 38.4077 139.88 36.9661L139.505 36.7522L139.466 37.3345C139.322 39.4684 136.781 41.4755 135.167 41.2207L134.959 41.1873L134.863 41.4573C133.774 44.5619 131.251 46.5948 127.939 47.0235C124.437 47.4762 120.884 45.9455 119.48 43.3826L119.344 43.1344L119.139 43.2361C117.299 44.1315 116.046 43.9963 113.904 40.8052L113.707 40.5082L113.491 40.7646C110.832 43.9131 103.429 47.2891 98.7547 42.5243L98.4742 42.2389L98.3092 42.6656C97.614 44.474 95.925 46.012 94.0031 46.589C92.64 46.998 89.9769 47.2681 87.4425 44.5202L87.2705 44.3364L87.0912 44.5004C86.1268 45.3893 85.0068 45.5041 83.8379 44.8465C84.5645 43.525 84.7131 42.0211 84.2248 40.7281C85.2411 43.419 90.2575 45.9452 81.0163 48.7246C79.7521 53.8514 71.2714 50.1206 70.8981 47.7053C76.5602 52.5331 64.7272 45.6278 64.8131 46.3077C63.741 47.3406 62.1816 49.1796 62.4529 50.9275C62.6148 51.9699 63.3624 52.6416 64.6786 52.9327L64.7623 52.0418C63.7544 51.8229 63.1495 51.3587 63.0557 50.744C62.9227 49.8797 63.6647 48.5489 65.0119 47.2084C65.2816 48.0191 65.7618 48.6647 66.2873 48.9454C65.7689 49.9334 65.5387 50.9153 65.6185 51.8095C65.6769 52.4517 65.8847 53.0204 66.229 53.4845C63.7368 56.3553 58.4797 58.4114 54.223 56.9903C51.437 56.064 49.4173 53.771 48.3786 50.3674L48.2796 50.0443L48.0421 50.1014C46.7115 50.4233 45.63 50.1051 44.8339 49.1541C44.0614 48.2322 43.785 46.9549 43.772 46.4797L43.7473 45.5784L43.2686 46.1298C39.7634 50.1702 34.8069 50.3961 31.3364 49.2575C29.0453 48.5041 27.7038 47.2906 27.3939 46.4164L27.2429 45.9915L26.9647 46.2272ZM116.945 37.0103L116.624 36.233C115.251 37.4217 112.942 37.2499 112.024 35.2411L111.514 35.7339C112.207 37.2517 113.494 37.9247 114.761 37.8822C115.545 37.8559 116.325 37.5577 116.945 37.0103ZM107.784 28.0554L107.229 27.6387C105.963 31.3302 102.017 32.5403 98.4329 30.3401L98.2216 30.212L98.0772 30.4661C97.1482 32.1191 95.0369 32.5795 92.4138 29.8802L98.0772 30.4661L91.9422 30.119C91.5828 31.9529 88.6934 35.497 86.3689 35.8926L86.4486 36.7869C88.7397 36.3976 91.6026 33.2476 92.3897 30.9324C95.0676 33.4807 97.2875 32.9937 98.4097 31.2922C102.229 33.5038 106.402 32.086 107.784 28.0554ZM60.6564 37.4447L60.3371 36.6656C58.9346 37.8728 54.7176 39.1709 53.272 36.0881L53.7634 36.8628C54.6169 38.6824 55.1408 38.9654 56.6555 38.9146C58.2829 38.86 59.8996 38.1037 60.6564 37.4447ZM21.9248 29.3727L21.3066 29.3478C21.3049 29.8551 21.165 30.2722 20.8937 30.5885C20.3502 31.2281 19.3347 31.3885 18.1114 31.0223L17.8836 30.9527L17.7802 31.2563C17.5132 32.0341 16.1353 32.8245 14.7663 32.6668C14.0445 32.5857 12.7716 32.1667 12.3224 30.2827L11.7415 30.5655C12.161 32.3276 13.2233 33.3925 14.7296 33.5649C14.9032 33.5854 15.08 33.5935 15.2576 33.5876C16.4998 33.5459 17.7154 32.8803 18.2021 31.9671C19.533 32.3121 20.6221 32.0755 21.2855 31.2967C21.6975 30.8108 21.9208 30.1469 21.9248 29.3727Z"/>
<path d="M23.0815 42.3925C24.3207 44.6081 26.9923 45.6559 29.083 45.5857C29.1575 45.5832 29.2295 45.5808 29.3061 45.573C30.9188 45.461 32.1491 44.7212 32.8038 43.4899C34.6831 44.3834 36.3937 43.8996 37.3935 43.1218C38.0945 42.5735 38.5541 41.8104 38.6921 40.9721L38.0913 40.7482C37.9921 41.336 37.6386 41.8955 37.0917 42.3211C35.9319 43.2217 34.2378 43.3014 32.7773 42.5254L32.5445 42.4016L32.4134 42.7044C31.9197 43.846 30.7669 44.5639 29.2574 44.6725C26.9663 44.8406 24.5706 43.6431 23.5562 41.8289L23.0815 42.3925ZM26.9647 46.2272C24.4562 48.328 19.1942 49.0205 15.0641 46.4771C13.3705 45.4334 11.2024 43.3806 10.4896 39.5519L10.3869 39.0024L10.0444 39.2631C8.59478 40.3719 6.38547 40.1932 4.90583 38.8475C4.06927 38.0857 3.07744 36.6113 3.10155 33.8952L3.10371 33.6231L2.94144 33.4881C0.628697 31.5946 -0.0148102 28.3638 1.22601 24.8504C3.07877 19.6 7.02178 18.032 9.54278 19.8536L9.80015 20.0398L9.94187 19.6875C12.1386 14.2745 15.3018 11.4321 19.34 11.2335C25.3646 10.9262 31.4373 16.7182 33.0129 19.9002L33.3117 20.5027L33.5389 19.8475C35.4337 14.3779 39.8399 13.5825 42.1586 15.1213L42.402 15.2816L42.5457 14.9591C47.7743 3.17846 57.9005 -0.450345 65.0962 1.16533C69.4622 2.14749 72.5214 4.89181 73.2814 8.5136L73.4278 9.21076L73.7891 8.71772C76.0291 5.67459 79.019 6.01838 80.1995 6.31052C81.8104 6.70407 82.8229 7.57228 83.0001 8.03322L83.198 8.54787L83.4837 8.14863C87.7916 2.14009 94.9596 1.82248 99.7952 4.07193C103.059 5.59305 105.265 8.23786 105.695 11.1476L105.799 11.8497L106.187 11.4207C107.854 9.56921 110.471 9.30946 112.542 10.781C113.554 11.5001 115.268 13.2452 115.348 16.8634L115.368 17.6702L115.827 17.237C120.235 13.0874 124.447 13.9571 127.203 15.4145C130.617 17.2255 133.29 20.7972 133.808 23.0773C132.339 23.3267 130.912 24.1222 129.958 25.532L130.401 26.1684C131.289 24.8573 132.628 24.1366 133.999 23.9327L134.006 23.9588L134.02 23.9267C135.42 23.7165 136.855 24.0493 137.888 24.8343L138.167 24.0369C137.167 23.2771 135.82 22.9098 134.458 23.0011C136.29 19.2643 139.032 19.7129 140.845 21.2599C142.347 22.547 143.598 24.9745 142.956 26.9496L142.781 27.4891L143.187 27.593C144.53 27.9377 145.452 29.0125 145.792 30.6247C146.18 32.4634 145.732 34.6583 144.681 36.0854C143.981 37.0339 142.425 38.4077 139.88 36.9661L139.505 36.7522L139.466 37.3345C139.322 39.4684 136.781 41.4755 135.167 41.2207L134.959 41.1873L134.863 41.4573C133.774 44.5619 131.251 46.5948 127.939 47.0235C124.437 47.4762 120.884 45.9455 119.48 43.3826L119.344 43.1344L119.139 43.2361C117.299 44.1315 116.046 43.9963 113.904 40.8052L113.707 40.5082L113.491 40.7646C110.832 43.9131 103.429 47.2891 98.7547 42.5243L98.4742 42.2389L98.3092 42.6656C97.614 44.474 95.925 46.012 94.0031 46.589C92.64 46.998 89.9769 47.2681 87.4425 44.5202L87.2705 44.3364L87.0912 44.5004C86.1268 45.3893 85.0068 45.5041 83.8379 44.8465C84.5645 43.525 84.7131 42.0211 84.2248 40.7281C85.2411 43.419 90.2575 45.9452 81.0163 48.7246C79.7521 53.8514 71.2714 50.1206 70.8981 47.7053C76.5602 52.5331 64.7272 45.6278 64.8131 46.3077C63.741 47.3406 62.1816 49.1796 62.4529 50.9275C62.6148 51.9699 63.3624 52.6416 64.6786 52.9327L64.7623 52.0418C63.7544 51.8229 63.1495 51.3587 63.0557 50.744C62.9227 49.8797 63.6647 48.5489 65.0119 47.2084C65.2816 48.0191 65.7618 48.6647 66.2873 48.9454C65.7689 49.9334 65.5387 50.9153 65.6185 51.8095C65.6769 52.4517 65.8847 53.0204 66.229 53.4845C63.7368 56.3553 58.4797 58.4114 54.223 56.9903C51.437 56.064 49.4173 53.771 48.3786 50.3674L48.2796 50.0443L48.0421 50.1014C46.7115 50.4233 45.63 50.1051 44.8339 49.1541C44.0614 48.2322 43.785 46.9549 43.772 46.4797L43.7473 45.5784L43.2686 46.1298C39.7634 50.1702 34.8069 50.3961 31.3364 49.2575C29.0453 48.5041 27.7038 47.2906 27.3939 46.4164L27.2429 45.9915L26.9647 46.2272ZM116.945 37.0103L116.624 36.233C115.251 37.4217 112.942 37.2499 112.024 35.2411L111.514 35.7339C112.207 37.2517 113.494 37.9247 114.761 37.8822C115.545 37.8559 116.325 37.5577 116.945 37.0103ZM107.784 28.0554L107.229 27.6387C105.963 31.3302 102.017 32.5403 98.4329 30.3401L98.2216 30.212L98.0772 30.4661C97.1482 32.1191 95.0369 32.5795 92.4138 29.8802L98.0772 30.4661L91.9422 30.119C91.5828 31.9529 88.6934 35.497 86.3689 35.8926L86.4486 36.7869C88.7397 36.3976 91.6026 33.2476 92.3897 30.9324C95.0676 33.4807 97.2875 32.9937 98.4097 31.2922C102.229 33.5038 106.402 32.086 107.784 28.0554ZM60.6564 37.4447L60.3371 36.6656C58.9346 37.8728 54.7176 39.1709 53.272 36.0881L53.7634 36.8628C54.6169 38.6824 55.1408 38.9654 56.6555 38.9146C58.2829 38.86 59.8996 38.1037 60.6564 37.4447ZM21.9248 29.3727L21.3066 29.3478C21.3049 29.8551 21.165 30.2722 20.8937 30.5885C20.3502 31.2281 19.3347 31.3885 18.1114 31.0223L17.8836 30.9527L17.7802 31.2563C17.5132 32.0341 16.1353 32.8245 14.7663 32.6668C14.0445 32.5857 12.7716 32.1667 12.3224 30.2827L11.7415 30.5655C12.161 32.3276 13.2233 33.3925 14.7296 33.5649C14.9032 33.5854 15.08 33.5935 15.2576 33.5876C16.4998 33.5459 17.7154 32.8803 18.2021 31.9671C19.533 32.3121 20.6221 32.0755 21.2855 31.2967C21.6975 30.8108 21.9208 30.1469 21.9248 29.3727Z"/>
<path d="M23.0815 42.3925C24.3207 44.6081 26.9923 45.6559 29.083 45.5857C29.1575 45.5832 29.2295 45.5808 29.3061 45.573C30.9188 45.461 32.1491 44.7212 32.8038 43.4899C34.6831 44.3834 36.3937 43.8996 37.3935 43.1218C38.0945 42.5735 38.5541 41.8104 38.6921 40.9721L38.0913 40.7482C37.9921 41.336 37.6386 41.8955 37.0917 42.3211C35.9319 43.2217 34.2378 43.3014 32.7773 42.5254L32.5445 42.4016L32.4134 42.7044C31.9197 43.846 30.7669 44.5639 29.2574 44.6725C26.9663 44.8406 24.5706 43.6431 23.5562 41.8289L23.0815 42.3925ZM26.9647 46.2272C24.4562 48.328 19.1942 49.0205 15.0641 46.4771C13.3705 45.4334 11.2024 43.3806 10.4896 39.5519L10.3869 39.0024L10.0444 39.2631C8.59478 40.3719 6.38547 40.1932 4.90583 38.8475C4.06927 38.0857 3.07744 36.6113 3.10155 33.8952L3.10371 33.6231L2.94144 33.4881C0.628697 31.5946 -0.0148102 28.3638 1.22601 24.8504C3.07877 19.6 7.02178 18.032 9.54278 19.8536L9.80015 20.0398L9.94187 19.6875C12.1386 14.2745 15.3018 11.4321 19.34 11.2335C25.3646 10.9262 31.4373 16.7182 33.0129 19.9002L33.3117 20.5027L33.5389 19.8475C35.4337 14.3779 39.8399 13.5825 42.1586 15.1213L42.402 15.2816L42.5457 14.9591C47.7743 3.17846 57.9005 -0.450345 65.0962 1.16533C69.4622 2.14749 72.5214 4.89181 73.2814 8.5136L73.4278 9.21076L73.7891 8.71772C76.0291 5.67459 79.019 6.01838 80.1995 6.31052C81.8104 6.70407 82.8229 7.57228 83.0001 8.03322L83.198 8.54787L83.4837 8.14863C87.7916 2.14009 94.9596 1.82248 99.7952 4.07193C103.059 5.59305 105.265 8.23786 105.695 11.1476L105.799 11.8497L106.187 11.4207C107.854 9.56921 110.471 9.30946 112.542 10.781C113.554 11.5001 115.268 13.2452 115.348 16.8634L115.368 17.6702L115.827 17.237C120.235 13.0874 124.447 13.9571 127.203 15.4145C130.617 17.2255 133.29 20.7972 133.808 23.0773C132.339 23.3267 130.912 24.1222 129.958 25.532L130.401 26.1684C131.289 24.8573 132.628 24.1366 133.999 23.9327L134.006 23.9588L134.02 23.9267C135.42 23.7165 136.855 24.0493 137.888 24.8343L138.167 24.0369C137.167 23.2771 135.82 22.9098 134.458 23.0011C136.29 19.2643 139.032 19.7129 140.845 21.2599C142.347 22.547 143.598 24.9745 142.956 26.9496L142.781 27.4891L143.187 27.593C144.53 27.9377 145.452 29.0125 145.792 30.6247C146.18 32.4634 145.732 34.6583 144.681 36.0854C143.981 37.0339 142.425 38.4077 139.88 36.9661L139.505 36.7522L139.466 37.3345C139.322 39.4684 136.781 41.4755 135.167 41.2207L134.959 41.1873L134.863 41.4573C133.774 44.5619 131.251 46.5948 127.939 47.0235C124.437 47.4762 120.884 45.9455 119.48 43.3826L119.344 43.1344L119.139 43.2361C117.299 44.1315 116.046 43.9963 113.904 40.8052L113.707 40.5082L113.491 40.7646C110.832 43.9131 103.429 47.2891 98.7547 42.5243L98.4742 42.2389L98.3092 42.6656C97.614 44.474 95.925 46.012 94.0031 46.589C92.64 46.998 89.9769 47.2681 87.4425 44.5202L87.2705 44.3364L87.0912 44.5004C86.1268 45.3893 85.0068 45.5041 83.8379 44.8465C84.5645 43.525 84.7131 42.0211 84.2248 40.7281C85.2411 43.419 90.2575 45.9452 81.0163 48.7246C79.7521 53.8514 71.2714 50.1206 70.8981 47.7053C76.5602 52.5331 64.7272 45.6278 64.8131 46.3077C63.741 47.3406 62.1816 49.1796 62.4529 50.9275C62.6148 51.9699 63.3624 52.6416 64.6786 52.9327L64.7623 52.0418C63.7544 51.8229 63.1495 51.3587 63.0557 50.744C62.9227 49.8797 63.6647 48.5489 65.0119 47.2084C65.2816 48.0191 65.7618 48.6647 66.2873 48.9454C65.7689 49.9334 65.5387 50.9153 65.6185 51.8095C65.6769 52.4517 65.8847 53.0204 66.229 53.4845C63.7368 56.3553 58.4797 58.4114 54.223 56.9903C51.437 56.064 49.4173 53.771 48.3786 50.3674L48.2796 50.0443L48.0421 50.1014C46.7115 50.4233 45.63 50.1051 44.8339 49.1541C44.0614 48.2322 43.785 46.9549 43.772 46.4797L43.7473 45.5784L43.2686 46.1298C39.7634 50.1702 34.8069 50.3961 31.3364 49.2575C29.0453 48.5041 27.7038 47.2906 27.3939 46.4164L27.2429 45.9915L26.9647 46.2272ZM116.945 37.0103L116.624 36.233C115.251 37.4217 112.942 37.2499 112.024 35.2411L111.514 35.7339C112.207 37.2517 113.494 37.9247 114.761 37.8822C115.545 37.8559 116.325 37.5577 116.945 37.0103ZM107.784 28.0554L107.229 27.6387C105.963 31.3302 102.017 32.5403 98.4329 30.3401L98.2216 30.212L98.0772 30.4661C97.1482 32.1191 95.0369 32.5795 92.4138 29.8802L98.0772 30.4661L91.9422 30.119C91.5828 31.9529 88.6934 35.497 86.3689 35.8926L86.4486 36.7869C88.7397 36.3976 91.6026 33.2476 92.3897 30.9324C95.0676 33.4807 97.2875 32.9937 98.4097 31.2922C102.229 33.5038 106.402 32.086 107.784 28.0554ZM60.6564 37.4447L60.3371 36.6656C58.9346 37.8728 54.7176 39.1709 53.272 36.0881L53.7634 36.8628C54.6169 38.6824 55.1408 38.9654 56.6555 38.9146C58.2829 38.86 59.8996 38.1037 60.6564 37.4447ZM21.9248 29.3727L21.3066 29.3478C21.3049 29.8551 21.165 30.2722 20.8937 30.5885C20.3502 31.2281 19.3347 31.3885 18.1114 31.0223L17.8836 30.9527L17.7802 31.2563C17.5132 32.0341 16.1353 32.8245 14.7663 32.6668C14.0445 32.5857 12.7716 32.1667 12.3224 30.2827L11.7415 30.5655C12.161 32.3276 13.2233 33.3925 14.7296 33.5649C14.9032 33.5854 15.08 33.5935 15.2576 33.5876C16.4998 33.5459 17.7154 32.8803 18.2021 31.9671C19.533 32.3121 20.6221 32.0755 21.2855 31.2967C21.6975 30.8108 21.9208 30.1469 21.9248 29.3727Z"/>
</mask>
<path d="M23.0815 42.3925C24.3207 44.6081 26.9923 45.6559 29.083 45.5857C29.1575 45.5832 29.2295 45.5808 29.3061 45.573C30.9188 45.461 32.1491 44.7212 32.8038 43.4899C34.6831 44.3834 36.3937 43.8996 37.3935 43.1218C38.0945 42.5735 38.5541 41.8104 38.6921 40.9721L38.0913 40.7482C37.9921 41.336 37.6386 41.8955 37.0917 42.3211C35.9319 43.2217 34.2378 43.3014 32.7773 42.5254L32.5445 42.4016L32.4134 42.7044C31.9197 43.846 30.7669 44.5639 29.2574 44.6725C26.9663 44.8406 24.5706 43.6431 23.5562 41.8289L23.0815 42.3925ZM26.9647 46.2272C24.4562 48.328 19.1942 49.0205 15.0641 46.4771C13.3705 45.4334 11.2024 43.3806 10.4896 39.5519L10.3869 39.0024L10.0444 39.2631C8.59478 40.3719 6.38547 40.1932 4.90583 38.8475C4.06927 38.0857 3.07744 36.6113 3.10155 33.8952L3.10371 33.6231L2.94144 33.4881C0.628697 31.5946 -0.0148102 28.3638 1.22601 24.8504C3.07877 19.6 7.02178 18.032 9.54278 19.8536L9.80015 20.0398L9.94187 19.6875C12.1386 14.2745 15.3018 11.4321 19.34 11.2335C25.3646 10.9262 31.4373 16.7182 33.0129 19.9002L33.3117 20.5027L33.5389 19.8475C35.4337 14.3779 39.8399 13.5825 42.1586 15.1213L42.402 15.2816L42.5457 14.9591C47.7743 3.17846 57.9005 -0.450345 65.0962 1.16533C69.4622 2.14749 72.5214 4.89181 73.2814 8.5136L73.4278 9.21076L73.7891 8.71772C76.0291 5.67459 79.019 6.01838 80.1995 6.31052C81.8104 6.70407 82.8229 7.57228 83.0001 8.03322L83.198 8.54787L83.4837 8.14863C87.7916 2.14009 94.9596 1.82248 99.7952 4.07193C103.059 5.59305 105.265 8.23786 105.695 11.1476L105.799 11.8497L106.187 11.4207C107.854 9.56921 110.471 9.30946 112.542 10.781C113.554 11.5001 115.268 13.2452 115.348 16.8634L115.368 17.6702L115.827 17.237C120.235 13.0874 124.447 13.9571 127.203 15.4145C130.617 17.2255 133.29 20.7972 133.808 23.0773C132.339 23.3267 130.912 24.1222 129.958 25.532L130.401 26.1684C131.289 24.8573 132.628 24.1366 133.999 23.9327L134.006 23.9588L134.02 23.9267C135.42 23.7165 136.855 24.0493 137.888 24.8343L138.167 24.0369C137.167 23.2771 135.82 22.9098 134.458 23.0011C136.29 19.2643 139.032 19.7129 140.845 21.2599C142.347 22.547 143.598 24.9745 142.956 26.9496L142.781 27.4891L143.187 27.593C144.53 27.9377 145.452 29.0125 145.792 30.6247C146.18 32.4634 145.732 34.6583 144.681 36.0854C143.981 37.0339 142.425 38.4077 139.88 36.9661L139.505 36.7522L139.466 37.3345C139.322 39.4684 136.781 41.4755 135.167 41.2207L134.959 41.1873L134.863 41.4573C133.774 44.5619 131.251 46.5948 127.939 47.0235C124.437 47.4762 120.884 45.9455 119.48 43.3826L119.344 43.1344L119.139 43.2361C117.299 44.1315 116.046 43.9963 113.904 40.8052L113.707 40.5082L113.491 40.7646C110.832 43.9131 103.429 47.2891 98.7547 42.5243L98.4742 42.2389L98.3092 42.6656C97.614 44.474 95.925 46.012 94.0031 46.589C92.64 46.998 89.9769 47.2681 87.4425 44.5202L87.2705 44.3364L87.0912 44.5004C86.1268 45.3893 85.0068 45.5041 83.8379 44.8465C84.5645 43.525 84.7131 42.0211 84.2248 40.7281C85.2411 43.419 90.2575 45.9452 81.0163 48.7246C79.7521 53.8514 71.2714 50.1206 70.8981 47.7053C76.5602 52.5331 64.7272 45.6278 64.8131 46.3077C63.741 47.3406 62.1816 49.1796 62.4529 50.9275C62.6148 51.9699 63.3624 52.6416 64.6786 52.9327L64.7623 52.0418C63.7544 51.8229 63.1495 51.3587 63.0557 50.744C62.9227 49.8797 63.6647 48.5489 65.0119 47.2084C65.2816 48.0191 65.7618 48.6647 66.2873 48.9454C65.7689 49.9334 65.5387 50.9153 65.6185 51.8095C65.6769 52.4517 65.8847 53.0204 66.229 53.4845C63.7368 56.3553 58.4797 58.4114 54.223 56.9903C51.437 56.064 49.4173 53.771 48.3786 50.3674L48.2796 50.0443L48.0421 50.1014C46.7115 50.4233 45.63 50.1051 44.8339 49.1541C44.0614 48.2322 43.785 46.9549 43.772 46.4797L43.7473 45.5784L43.2686 46.1298C39.7634 50.1702 34.8069 50.3961 31.3364 49.2575C29.0453 48.5041 27.7038 47.2906 27.3939 46.4164L27.2429 45.9915L26.9647 46.2272ZM116.945 37.0103L116.624 36.233C115.251 37.4217 112.942 37.2499 112.024 35.2411L111.514 35.7339C112.207 37.2517 113.494 37.9247 114.761 37.8822C115.545 37.8559 116.325 37.5577 116.945 37.0103ZM107.784 28.0554L107.229 27.6387C105.963 31.3302 102.017 32.5403 98.4329 30.3401L98.2216 30.212L98.0772 30.4661C97.1482 32.1191 95.0369 32.5795 92.4138 29.8802L98.0772 30.4661L91.9422 30.119C91.5828 31.9529 88.6934 35.497 86.3689 35.8926L86.4486 36.7869C88.7397 36.3976 91.6026 33.2476 92.3897 30.9324C95.0676 33.4807 97.2875 32.9937 98.4097 31.2922C102.229 33.5038 106.402 32.086 107.784 28.0554ZM60.6564 37.4447L60.3371 36.6656C58.9346 37.8728 54.7176 39.1709 53.272 36.0881L53.7634 36.8628C54.6169 38.6824 55.1408 38.9654 56.6555 38.9146C58.2829 38.86 59.8996 38.1037 60.6564 37.4447ZM21.9248 29.3727L21.3066 29.3478C21.3049 29.8551 21.165 30.2722 20.8937 30.5885C20.3502 31.2281 19.3347 31.3885 18.1114 31.0223L17.8836 30.9527L17.7802 31.2563C17.5132 32.0341 16.1353 32.8245 14.7663 32.6668C14.0445 32.5857 12.7716 32.1667 12.3224 30.2827L11.7415 30.5655C12.161 32.3276 13.2233 33.3925 14.7296 33.5649C14.9032 33.5854 15.08 33.5935 15.2576 33.5876C16.4998 33.5459 17.7154 32.8803 18.2021 31.9671C19.533 32.3121 20.6221 32.0755 21.2855 31.2967C21.6975 30.8108 21.9208 30.1469 21.9248 29.3727Z" fill="#CADBEA"/>
<path d="M23.0815 42.3925C24.3207 44.6081 26.9923 45.6559 29.083 45.5857C29.1575 45.5832 29.2295 45.5808 29.3061 45.573C30.9188 45.461 32.1491 44.7212 32.8038 43.4899C34.6831 44.3834 36.3937 43.8996 37.3935 43.1218C38.0945 42.5735 38.5541 41.8104 38.6921 40.9721L38.0913 40.7482C37.9921 41.336 37.6386 41.8955 37.0917 42.3211C35.9319 43.2217 34.2378 43.3014 32.7773 42.5254L32.5445 42.4016L32.4134 42.7044C31.9197 43.846 30.7669 44.5639 29.2574 44.6725C26.9663 44.8406 24.5706 43.6431 23.5562 41.8289L23.0815 42.3925ZM26.9647 46.2272C24.4562 48.328 19.1942 49.0205 15.0641 46.4771C13.3705 45.4334 11.2024 43.3806 10.4896 39.5519L10.3869 39.0024L10.0444 39.2631C8.59478 40.3719 6.38547 40.1932 4.90583 38.8475C4.06927 38.0857 3.07744 36.6113 3.10155 33.8952L3.10371 33.6231L2.94144 33.4881C0.628697 31.5946 -0.0148102 28.3638 1.22601 24.8504C3.07877 19.6 7.02178 18.032 9.54278 19.8536L9.80015 20.0398L9.94187 19.6875C12.1386 14.2745 15.3018 11.4321 19.34 11.2335C25.3646 10.9262 31.4373 16.7182 33.0129 19.9002L33.3117 20.5027L33.5389 19.8475C35.4337 14.3779 39.8399 13.5825 42.1586 15.1213L42.402 15.2816L42.5457 14.9591C47.7743 3.17846 57.9005 -0.450345 65.0962 1.16533C69.4622 2.14749 72.5214 4.89181 73.2814 8.5136L73.4278 9.21076L73.7891 8.71772C76.0291 5.67459 79.019 6.01838 80.1995 6.31052C81.8104 6.70407 82.8229 7.57228 83.0001 8.03322L83.198 8.54787L83.4837 8.14863C87.7916 2.14009 94.9596 1.82248 99.7952 4.07193C103.059 5.59305 105.265 8.23786 105.695 11.1476L105.799 11.8497L106.187 11.4207C107.854 9.56921 110.471 9.30946 112.542 10.781C113.554 11.5001 115.268 13.2452 115.348 16.8634L115.368 17.6702L115.827 17.237C120.235 13.0874 124.447 13.9571 127.203 15.4145C130.617 17.2255 133.29 20.7972 133.808 23.0773C132.339 23.3267 130.912 24.1222 129.958 25.532L130.401 26.1684C131.289 24.8573 132.628 24.1366 133.999 23.9327L134.006 23.9588L134.02 23.9267C135.42 23.7165 136.855 24.0493 137.888 24.8343L138.167 24.0369C137.167 23.2771 135.82 22.9098 134.458 23.0011C136.29 19.2643 139.032 19.7129 140.845 21.2599C142.347 22.547 143.598 24.9745 142.956 26.9496L142.781 27.4891L143.187 27.593C144.53 27.9377 145.452 29.0125 145.792 30.6247C146.18 32.4634 145.732 34.6583 144.681 36.0854C143.981 37.0339 142.425 38.4077 139.88 36.9661L139.505 36.7522L139.466 37.3345C139.322 39.4684 136.781 41.4755 135.167 41.2207L134.959 41.1873L134.863 41.4573C133.774 44.5619 131.251 46.5948 127.939 47.0235C124.437 47.4762 120.884 45.9455 119.48 43.3826L119.344 43.1344L119.139 43.2361C117.299 44.1315 116.046 43.9963 113.904 40.8052L113.707 40.5082L113.491 40.7646C110.832 43.9131 103.429 47.2891 98.7547 42.5243L98.4742 42.2389L98.3092 42.6656C97.614 44.474 95.925 46.012 94.0031 46.589C92.64 46.998 89.9769 47.2681 87.4425 44.5202L87.2705 44.3364L87.0912 44.5004C86.1268 45.3893 85.0068 45.5041 83.8379 44.8465C84.5645 43.525 84.7131 42.0211 84.2248 40.7281C85.2411 43.419 90.2575 45.9452 81.0163 48.7246C79.7521 53.8514 71.2714 50.1206 70.8981 47.7053C76.5602 52.5331 64.7272 45.6278 64.8131 46.3077C63.741 47.3406 62.1816 49.1796 62.4529 50.9275C62.6148 51.9699 63.3624 52.6416 64.6786 52.9327L64.7623 52.0418C63.7544 51.8229 63.1495 51.3587 63.0557 50.744C62.9227 49.8797 63.6647 48.5489 65.0119 47.2084C65.2816 48.0191 65.7618 48.6647 66.2873 48.9454C65.7689 49.9334 65.5387 50.9153 65.6185 51.8095C65.6769 52.4517 65.8847 53.0204 66.229 53.4845C63.7368 56.3553 58.4797 58.4114 54.223 56.9903C51.437 56.064 49.4173 53.771 48.3786 50.3674L48.2796 50.0443L48.0421 50.1014C46.7115 50.4233 45.63 50.1051 44.8339 49.1541C44.0614 48.2322 43.785 46.9549 43.772 46.4797L43.7473 45.5784L43.2686 46.1298C39.7634 50.1702 34.8069 50.3961 31.3364 49.2575C29.0453 48.5041 27.7038 47.2906 27.3939 46.4164L27.2429 45.9915L26.9647 46.2272ZM116.945 37.0103L116.624 36.233C115.251 37.4217 112.942 37.2499 112.024 35.2411L111.514 35.7339C112.207 37.2517 113.494 37.9247 114.761 37.8822C115.545 37.8559 116.325 37.5577 116.945 37.0103ZM107.784 28.0554L107.229 27.6387C105.963 31.3302 102.017 32.5403 98.4329 30.3401L98.2216 30.212L98.0772 30.4661C97.1482 32.1191 95.0369 32.5795 92.4138 29.8802L98.0772 30.4661L91.9422 30.119C91.5828 31.9529 88.6934 35.497 86.3689 35.8926L86.4486 36.7869C88.7397 36.3976 91.6026 33.2476 92.3897 30.9324C95.0676 33.4807 97.2875 32.9937 98.4097 31.2922C102.229 33.5038 106.402 32.086 107.784 28.0554ZM60.6564 37.4447L60.3371 36.6656C58.9346 37.8728 54.7176 39.1709 53.272 36.0881L53.7634 36.8628C54.6169 38.6824 55.1408 38.9654 56.6555 38.9146C58.2829 38.86 59.8996 38.1037 60.6564 37.4447ZM21.9248 29.3727L21.3066 29.3478C21.3049 29.8551 21.165 30.2722 20.8937 30.5885C20.3502 31.2281 19.3347 31.3885 18.1114 31.0223L17.8836 30.9527L17.7802 31.2563C17.5132 32.0341 16.1353 32.8245 14.7663 32.6668C14.0445 32.5857 12.7716 32.1667 12.3224 30.2827L11.7415 30.5655C12.161 32.3276 13.2233 33.3925 14.7296 33.5649C14.9032 33.5854 15.08 33.5935 15.2576 33.5876C16.4998 33.5459 17.7154 32.8803 18.2021 31.9671C19.533 32.3121 20.6221 32.0755 21.2855 31.2967C21.6975 30.8108 21.9208 30.1469 21.9248 29.3727Z" fill="#CADBEA"/>
<path d="M23.0815 42.3925C24.3207 44.6081 26.9923 45.6559 29.083 45.5857C29.1575 45.5832 29.2295 45.5808 29.3061 45.573C30.9188 45.461 32.1491 44.7212 32.8038 43.4899C34.6831 44.3834 36.3937 43.8996 37.3935 43.1218C38.0945 42.5735 38.5541 41.8104 38.6921 40.9721L38.0913 40.7482C37.9921 41.336 37.6386 41.8955 37.0917 42.3211C35.9319 43.2217 34.2378 43.3014 32.7773 42.5254L32.5445 42.4016L32.4134 42.7044C31.9197 43.846 30.7669 44.5639 29.2574 44.6725C26.9663 44.8406 24.5706 43.6431 23.5562 41.8289L23.0815 42.3925ZM26.9647 46.2272C24.4562 48.328 19.1942 49.0205 15.0641 46.4771C13.3705 45.4334 11.2024 43.3806 10.4896 39.5519L10.3869 39.0024L10.0444 39.2631C8.59478 40.3719 6.38547 40.1932 4.90583 38.8475C4.06927 38.0857 3.07744 36.6113 3.10155 33.8952L3.10371 33.6231L2.94144 33.4881C0.628697 31.5946 -0.0148102 28.3638 1.22601 24.8504C3.07877 19.6 7.02178 18.032 9.54278 19.8536L9.80015 20.0398L9.94187 19.6875C12.1386 14.2745 15.3018 11.4321 19.34 11.2335C25.3646 10.9262 31.4373 16.7182 33.0129 19.9002L33.3117 20.5027L33.5389 19.8475C35.4337 14.3779 39.8399 13.5825 42.1586 15.1213L42.402 15.2816L42.5457 14.9591C47.7743 3.17846 57.9005 -0.450345 65.0962 1.16533C69.4622 2.14749 72.5214 4.89181 73.2814 8.5136L73.4278 9.21076L73.7891 8.71772C76.0291 5.67459 79.019 6.01838 80.1995 6.31052C81.8104 6.70407 82.8229 7.57228 83.0001 8.03322L83.198 8.54787L83.4837 8.14863C87.7916 2.14009 94.9596 1.82248 99.7952 4.07193C103.059 5.59305 105.265 8.23786 105.695 11.1476L105.799 11.8497L106.187 11.4207C107.854 9.56921 110.471 9.30946 112.542 10.781C113.554 11.5001 115.268 13.2452 115.348 16.8634L115.368 17.6702L115.827 17.237C120.235 13.0874 124.447 13.9571 127.203 15.4145C130.617 17.2255 133.29 20.7972 133.808 23.0773C132.339 23.3267 130.912 24.1222 129.958 25.532L130.401 26.1684C131.289 24.8573 132.628 24.1366 133.999 23.9327L134.006 23.9588L134.02 23.9267C135.42 23.7165 136.855 24.0493 137.888 24.8343L138.167 24.0369C137.167 23.2771 135.82 22.9098 134.458 23.0011C136.29 19.2643 139.032 19.7129 140.845 21.2599C142.347 22.547 143.598 24.9745 142.956 26.9496L142.781 27.4891L143.187 27.593C144.53 27.9377 145.452 29.0125 145.792 30.6247C146.18 32.4634 145.732 34.6583 144.681 36.0854C143.981 37.0339 142.425 38.4077 139.88 36.9661L139.505 36.7522L139.466 37.3345C139.322 39.4684 136.781 41.4755 135.167 41.2207L134.959 41.1873L134.863 41.4573C133.774 44.5619 131.251 46.5948 127.939 47.0235C124.437 47.4762 120.884 45.9455 119.48 43.3826L119.344 43.1344L119.139 43.2361C117.299 44.1315 116.046 43.9963 113.904 40.8052L113.707 40.5082L113.491 40.7646C110.832 43.9131 103.429 47.2891 98.7547 42.5243L98.4742 42.2389L98.3092 42.6656C97.614 44.474 95.925 46.012 94.0031 46.589C92.64 46.998 89.9769 47.2681 87.4425 44.5202L87.2705 44.3364L87.0912 44.5004C86.1268 45.3893 85.0068 45.5041 83.8379 44.8465C84.5645 43.525 84.7131 42.0211 84.2248 40.7281C85.2411 43.419 90.2575 45.9452 81.0163 48.7246C79.7521 53.8514 71.2714 50.1206 70.8981 47.7053C76.5602 52.5331 64.7272 45.6278 64.8131 46.3077C63.741 47.3406 62.1816 49.1796 62.4529 50.9275C62.6148 51.9699 63.3624 52.6416 64.6786 52.9327L64.7623 52.0418C63.7544 51.8229 63.1495 51.3587 63.0557 50.744C62.9227 49.8797 63.6647 48.5489 65.0119 47.2084C65.2816 48.0191 65.7618 48.6647 66.2873 48.9454C65.7689 49.9334 65.5387 50.9153 65.6185 51.8095C65.6769 52.4517 65.8847 53.0204 66.229 53.4845C63.7368 56.3553 58.4797 58.4114 54.223 56.9903C51.437 56.064 49.4173 53.771 48.3786 50.3674L48.2796 50.0443L48.0421 50.1014C46.7115 50.4233 45.63 50.1051 44.8339 49.1541C44.0614 48.2322 43.785 46.9549 43.772 46.4797L43.7473 45.5784L43.2686 46.1298C39.7634 50.1702 34.8069 50.3961 31.3364 49.2575C29.0453 48.5041 27.7038 47.2906 27.3939 46.4164L27.2429 45.9915L26.9647 46.2272ZM116.945 37.0103L116.624 36.233C115.251 37.4217 112.942 37.2499 112.024 35.2411L111.514 35.7339C112.207 37.2517 113.494 37.9247 114.761 37.8822C115.545 37.8559 116.325 37.5577 116.945 37.0103ZM107.784 28.0554L107.229 27.6387C105.963 31.3302 102.017 32.5403 98.4329 30.3401L98.2216 30.212L98.0772 30.4661C97.1482 32.1191 95.0369 32.5795 92.4138 29.8802L98.0772 30.4661L91.9422 30.119C91.5828 31.9529 88.6934 35.497 86.3689 35.8926L86.4486 36.7869C88.7397 36.3976 91.6026 33.2476 92.3897 30.9324C95.0676 33.4807 97.2875 32.9937 98.4097 31.2922C102.229 33.5038 106.402 32.086 107.784 28.0554ZM60.6564 37.4447L60.3371 36.6656C58.9346 37.8728 54.7176 39.1709 53.272 36.0881L53.7634 36.8628C54.6169 38.6824 55.1408 38.9654 56.6555 38.9146C58.2829 38.86 59.8996 38.1037 60.6564 37.4447ZM21.9248 29.3727L21.3066 29.3478C21.3049 29.8551 21.165 30.2722 20.8937 30.5885C20.3502 31.2281 19.3347 31.3885 18.1114 31.0223L17.8836 30.9527L17.7802 31.2563C17.5132 32.0341 16.1353 32.8245 14.7663 32.6668C14.0445 32.5857 12.7716 32.1667 12.3224 30.2827L11.7415 30.5655C12.161 32.3276 13.2233 33.3925 14.7296 33.5649C14.9032 33.5854 15.08 33.5935 15.2576 33.5876C16.4998 33.5459 17.7154 32.8803 18.2021 31.9671C19.533 32.3121 20.6221 32.0755 21.2855 31.2967C21.6975 30.8108 21.9208 30.1469 21.9248 29.3727Z" fill="#CADBEA"/>
<path d="M23.0815 42.3925C24.3207 44.6081 26.9923 45.6559 29.083 45.5857C29.1575 45.5832 29.2295 45.5808 29.3061 45.573C30.9188 45.461 32.1491 44.7212 32.8038 43.4899C34.6831 44.3834 36.3937 43.8996 37.3935 43.1218C38.0945 42.5735 38.5541 41.8104 38.6921 40.9721L38.0913 40.7482C37.9921 41.336 37.6386 41.8955 37.0917 42.3211C35.9319 43.2217 34.2378 43.3014 32.7773 42.5254L32.5445 42.4016L32.4134 42.7044C31.9197 43.846 30.7669 44.5639 29.2574 44.6725C26.9663 44.8406 24.5706 43.6431 23.5562 41.8289L23.0815 42.3925ZM26.9647 46.2272C24.4562 48.328 19.1942 49.0205 15.0641 46.4771C13.3705 45.4334 11.2024 43.3806 10.4896 39.5519L10.3869 39.0024L10.0444 39.2631C8.59478 40.3719 6.38547 40.1932 4.90583 38.8475C4.06927 38.0857 3.07744 36.6113 3.10155 33.8952L3.10371 33.6231L2.94144 33.4881C0.628697 31.5946 -0.0148102 28.3638 1.22601 24.8504C3.07877 19.6 7.02178 18.032 9.54278 19.8536L9.80015 20.0398L9.94187 19.6875C12.1386 14.2745 15.3018 11.4321 19.34 11.2335C25.3646 10.9262 31.4373 16.7182 33.0129 19.9002L33.3117 20.5027L33.5389 19.8475C35.4337 14.3779 39.8399 13.5825 42.1586 15.1213L42.402 15.2816L42.5457 14.9591C47.7743 3.17846 57.9005 -0.450345 65.0962 1.16533C69.4622 2.14749 72.5214 4.89181 73.2814 8.5136L73.4278 9.21076L73.7891 8.71772C76.0291 5.67459 79.019 6.01838 80.1995 6.31052C81.8104 6.70407 82.8229 7.57228 83.0001 8.03322L83.198 8.54787L83.4837 8.14863C87.7916 2.14009 94.9596 1.82248 99.7952 4.07193C103.059 5.59305 105.265 8.23786 105.695 11.1476L105.799 11.8497L106.187 11.4207C107.854 9.56921 110.471 9.30946 112.542 10.781C113.554 11.5001 115.268 13.2452 115.348 16.8634L115.368 17.6702L115.827 17.237C120.235 13.0874 124.447 13.9571 127.203 15.4145C130.617 17.2255 133.29 20.7972 133.808 23.0773C132.339 23.3267 130.912 24.1222 129.958 25.532L130.401 26.1684C131.289 24.8573 132.628 24.1366 133.999 23.9327L134.006 23.9588L134.02 23.9267C135.42 23.7165 136.855 24.0493 137.888 24.8343L138.167 24.0369C137.167 23.2771 135.82 22.9098 134.458 23.0011C136.29 19.2643 139.032 19.7129 140.845 21.2599C142.347 22.547 143.598 24.9745 142.956 26.9496L142.781 27.4891L143.187 27.593C144.53 27.9377 145.452 29.0125 145.792 30.6247C146.18 32.4634 145.732 34.6583 144.681 36.0854C143.981 37.0339 142.425 38.4077 139.88 36.9661L139.505 36.7522L139.466 37.3345C139.322 39.4684 136.781 41.4755 135.167 41.2207L134.959 41.1873L134.863 41.4573C133.774 44.5619 131.251 46.5948 127.939 47.0235C124.437 47.4762 120.884 45.9455 119.48 43.3826L119.344 43.1344L119.139 43.2361C117.299 44.1315 116.046 43.9963 113.904 40.8052L113.707 40.5082L113.491 40.7646C110.832 43.9131 103.429 47.2891 98.7547 42.5243L98.4742 42.2389L98.3092 42.6656C97.614 44.474 95.925 46.012 94.0031 46.589C92.64 46.998 89.9769 47.2681 87.4425 44.5202L87.2705 44.3364L87.0912 44.5004C86.1268 45.3893 85.0068 45.5041 83.8379 44.8465C84.5645 43.525 84.7131 42.0211 84.2248 40.7281C85.2411 43.419 90.2575 45.9452 81.0163 48.7246C79.7521 53.8514 71.2714 50.1206 70.8981 47.7053C76.5602 52.5331 64.7272 45.6278 64.8131 46.3077C63.741 47.3406 62.1816 49.1796 62.4529 50.9275C62.6148 51.9699 63.3624 52.6416 64.6786 52.9327L64.7623 52.0418C63.7544 51.8229 63.1495 51.3587 63.0557 50.744C62.9227 49.8797 63.6647 48.5489 65.0119 47.2084C65.2816 48.0191 65.7618 48.6647 66.2873 48.9454C65.7689 49.9334 65.5387 50.9153 65.6185 51.8095C65.6769 52.4517 65.8847 53.0204 66.229 53.4845C63.7368 56.3553 58.4797 58.4114 54.223 56.9903C51.437 56.064 49.4173 53.771 48.3786 50.3674L48.2796 50.0443L48.0421 50.1014C46.7115 50.4233 45.63 50.1051 44.8339 49.1541C44.0614 48.2322 43.785 46.9549 43.772 46.4797L43.7473 45.5784L43.2686 46.1298C39.7634 50.1702 34.8069 50.3961 31.3364 49.2575C29.0453 48.5041 27.7038 47.2906 27.3939 46.4164L27.2429 45.9915L26.9647 46.2272ZM116.945 37.0103L116.624 36.233C115.251 37.4217 112.942 37.2499 112.024 35.2411L111.514 35.7339C112.207 37.2517 113.494 37.9247 114.761 37.8822C115.545 37.8559 116.325 37.5577 116.945 37.0103ZM107.784 28.0554L107.229 27.6387C105.963 31.3302 102.017 32.5403 98.4329 30.3401L98.2216 30.212L98.0772 30.4661C97.1482 32.1191 95.0369 32.5795 92.4138 29.8802L98.0772 30.4661L91.9422 30.119C91.5828 31.9529 88.6934 35.497 86.3689 35.8926L86.4486 36.7869C88.7397 36.3976 91.6026 33.2476 92.3897 30.9324C95.0676 33.4807 97.2875 32.9937 98.4097 31.2922C102.229 33.5038 106.402 32.086 107.784 28.0554ZM60.6564 37.4447L60.3371 36.6656C58.9346 37.8728 54.7176 39.1709 53.272 36.0881L53.7634 36.8628C54.6169 38.6824 55.1408 38.9654 56.6555 38.9146C58.2829 38.86 59.8996 38.1037 60.6564 37.4447ZM21.9248 29.3727L21.3066 29.3478C21.3049 29.8551 21.165 30.2722 20.8937 30.5885C20.3502 31.2281 19.3347 31.3885 18.1114 31.0223L17.8836 30.9527L17.7802 31.2563C17.5132 32.0341 16.1353 32.8245 14.7663 32.6668C14.0445 32.5857 12.7716 32.1667 12.3224 30.2827L11.7415 30.5655C12.161 32.3276 13.2233 33.3925 14.7296 33.5649C14.9032 33.5854 15.08 33.5935 15.2576 33.5876C16.4998 33.5459 17.7154 32.8803 18.2021 31.9671C19.533 32.3121 20.6221 32.0755 21.2855 31.2967C21.6975 30.8108 21.9208 30.1469 21.9248 29.3727Z" fill="#CADBEA"/>
<path d="M23.0815 42.3925L22.7001 42.0716L22.4763 42.3372L22.6449 42.6387L23.0815 42.3925ZM29.3061 45.573L29.2746 45.0741L29.2664 45.0747L29.2583 45.0755L29.3061 45.573ZM32.8038 43.4899L33.0206 43.038L32.5885 42.8325L32.3627 43.2572L32.8038 43.4899ZM37.3935 43.1218L37.6989 43.5159L37.6999 43.5151L37.3935 43.1218ZM38.6921 40.9721L39.1854 41.0504L39.2519 40.6459L38.8691 40.5033L38.6921 40.9721ZM38.0913 40.7482L38.2683 40.2795L37.6997 40.0676L37.5984 40.6679L38.0913 40.7482ZM37.0917 42.3211L37.3967 42.7154L37.3971 42.7151L37.0917 42.3211ZM32.7773 42.5254L32.5406 42.9673L32.5408 42.9674L32.7773 42.5254ZM32.5445 42.4016L32.7813 41.9597L32.3025 41.7051L32.086 42.2052L32.5445 42.4016ZM32.4134 42.7044L31.9549 42.508L31.9548 42.5082L32.4134 42.7044ZM29.2574 44.6725L29.2246 44.1736L29.2239 44.1737L29.2574 44.6725ZM23.5562 41.8289L23.9929 41.5828L23.6414 40.9541L23.1748 41.508L23.5562 41.8289ZM26.9647 46.2272L27.2842 46.6099L27.2864 46.608L26.9647 46.2272ZM15.0641 46.4771L14.8 46.9033L14.8002 46.9034L15.0641 46.4771ZM10.4896 39.5519L10.9811 39.4574L10.981 39.457L10.4896 39.5519ZM10.3869 39.0024L10.8783 38.9076L10.73 38.1146L10.0857 38.6052L10.3869 39.0024ZM10.0444 39.2631L9.74322 38.8659L9.74234 38.8665L10.0444 39.2631ZM4.90583 38.8475L4.56809 39.2182L4.56831 39.2184L4.90583 38.8475ZM3.10155 33.8952L3.60144 33.8966L3.60144 33.8961L3.10155 33.8952ZM3.10371 33.6231L3.6036 33.624L3.60546 33.3881L3.4247 33.2377L3.10371 33.6231ZM2.94144 33.4881L3.26244 33.1027L3.25947 33.1003L2.94144 33.4881ZM1.22601 24.8504L1.69725 25.0145L1.69729 25.0143L1.22601 24.8504ZM9.54278 19.8536L9.83734 19.4477L9.83711 19.4476L9.54278 19.8536ZM9.80015 20.0398L9.50559 20.4456L10.0238 20.8205L10.2638 20.224L9.80015 20.0398ZM9.94187 19.6875L9.47884 19.5018L9.47827 19.5032L9.94187 19.6875ZM19.34 11.2335L19.3615 11.733L19.3624 11.733L19.34 11.2335ZM33.0129 19.9002L32.5647 20.1244L32.5648 20.1246L33.0129 19.9002ZM33.3117 20.5027L32.8636 20.7272L33.3925 21.7935L33.7839 20.664L33.3117 20.5027ZM33.5389 19.8475L34.0111 20.0087L34.0111 20.0086L33.5389 19.8475ZM42.1586 15.1213L41.8804 15.5385L41.8819 15.5395L42.1586 15.1213ZM42.402 15.2816L42.1253 15.6998L42.6173 16.0238L42.8584 15.4829L42.402 15.2816ZM42.5457 14.9591L43.0021 15.1604L43.0024 15.1597L42.5457 14.9591ZM65.0962 1.16533L65.2087 0.677382L65.2085 0.677338L65.0962 1.16533ZM73.2814 8.5136L72.7921 8.6192L72.7921 8.6193L73.2814 8.5136ZM73.4278 9.21076L72.9386 9.31647L73.168 10.4087L73.8304 9.50483L73.4278 9.21076ZM73.7891 8.71772L73.3872 8.4228L73.3866 8.42366L73.7891 8.71772ZM80.1995 6.31052L80.0766 6.79603L80.0781 6.79638L80.1995 6.31052ZM83.0001 8.03322L82.5333 8.21522L82.5334 8.21525L83.0001 8.03322ZM83.198 8.54787L82.7313 8.72991L83.0631 9.5928L83.6038 8.83738L83.198 8.54787ZM83.4837 8.14863L83.0781 7.85881L83.0779 7.85912L83.4837 8.14863ZM99.7952 4.07193L100.009 3.61839L100.008 3.61824L99.7952 4.07193ZM105.695 11.1476L106.19 11.0718L106.19 11.0714L105.695 11.1476ZM105.799 11.8497L105.304 11.9255L105.458 12.9692L106.168 12.1841L105.799 11.8497ZM106.187 11.4207L106.557 11.7551L106.557 11.7541L106.187 11.4207ZM112.542 10.781L112.833 10.3727L112.833 10.3727L112.542 10.781ZM115.348 16.8634L114.848 16.8775L114.849 16.8787L115.348 16.8634ZM115.368 17.6702L114.868 17.6854L114.895 18.8013L115.71 18.033L115.368 17.6702ZM115.827 17.237L115.486 16.8738L115.485 16.8742L115.827 17.237ZM127.203 15.4145L127.439 14.9724L127.439 14.9721L127.203 15.4145ZM133.808 23.0773L133.889 23.5703L134.414 23.4813L134.296 22.9634L133.808 23.0773ZM129.958 25.532L129.545 25.2535L129.352 25.5385L129.547 25.8194L129.958 25.532ZM130.401 26.1684L129.99 26.4557L130.405 27.0518L130.814 26.4471L130.401 26.1684ZM133.999 23.9327L134.483 23.805L134.371 23.3722L133.928 23.438L133.999 23.9327ZM134.006 23.9588L133.522 24.0865L133.872 25.4445L134.46 24.1654L134.006 23.9588ZM134.02 23.9267L133.949 23.4322L133.68 23.4726L133.566 23.7201L134.02 23.9267ZM137.888 24.8343L137.584 25.2332L138.132 25.6495L138.36 24.9967L137.888 24.8343ZM138.167 24.0369L138.639 24.1993L138.758 23.8565L138.471 23.638L138.167 24.0369ZM134.458 23.0011L134.009 22.783L133.629 23.5577L134.488 23.5001L134.458 23.0011ZM140.845 21.2599L141.172 20.8792L141.171 20.8785L140.845 21.2599ZM142.956 26.9496L142.48 26.7975L142.48 26.7979L142.956 26.9496ZM142.781 27.4891L142.305 27.3373L142.141 27.8425L142.654 27.9736L142.781 27.4891ZM143.187 27.593L143.314 27.1086L143.314 27.1085L143.187 27.593ZM145.792 30.6247L145.303 30.7307L145.303 30.7308L145.792 30.6247ZM144.681 36.0854L145.083 36.3808L145.083 36.3804L144.681 36.0854ZM139.88 36.9661L139.63 37.4008L139.631 37.4016L139.88 36.9661ZM139.505 36.7522L139.755 36.3175L139.06 35.9211L139.006 36.7216L139.505 36.7522ZM139.466 37.3345L138.967 37.3038L138.967 37.304L139.466 37.3345ZM135.167 41.2207L135.084 41.7145L135.086 41.7147L135.167 41.2207ZM134.959 41.1873L135.042 40.6936L134.629 40.6271L134.488 41.0224L134.959 41.1873ZM134.863 41.4573L134.392 41.2924L134.392 41.2942L134.863 41.4573ZM127.939 47.0235L128 47.5195L128 47.5195L127.939 47.0235ZM119.48 43.3826L119.919 43.1403L119.919 43.1394L119.48 43.3826ZM119.344 43.1344L119.782 42.8912L119.553 42.4742L119.124 42.6866L119.344 43.1344ZM119.139 43.2361L119.355 43.6856L119.359 43.6839L119.139 43.2361ZM113.904 40.8052L113.487 41.0832L113.489 41.0857L113.904 40.8052ZM113.707 40.5082L114.125 40.2302L113.758 39.6758L113.326 40.1869L113.707 40.5082ZM113.491 40.7646L113.872 41.086L113.872 41.0859L113.491 40.7646ZM98.7547 42.5243L99.1125 42.173L99.1122 42.1726L98.7547 42.5243ZM98.4742 42.2389L98.8317 41.8872L98.2887 41.3346L98.008 42.061L98.4742 42.2389ZM98.3092 42.6656L97.8431 42.4878L97.8428 42.4886L98.3092 42.6656ZM94.0031 46.589L94.144 47.0679L94.1441 47.0679L94.0031 46.589ZM87.4425 44.5202L87.8109 44.1799L87.8084 44.1772L87.4425 44.5202ZM87.2705 44.3364L87.6364 43.9934L87.3 43.634L86.9344 43.9683L87.2705 44.3364ZM87.0912 44.5004L86.7551 44.1322L86.7537 44.1336L87.0912 44.5004ZM83.8379 44.8465L83.4002 44.6075L83.1617 45.0413L83.5908 45.2827L83.8379 44.8465ZM81.0163 48.7246L80.875 48.2458L80.5998 48.3286L80.531 48.6077L81.0163 48.7246ZM70.8981 47.7053L71.2237 47.3239L70.1976 46.449L70.4041 47.7847L70.8981 47.7053ZM64.8131 46.3077L65.1587 46.6669L65.3406 46.4916L65.309 46.242L64.8131 46.3077ZM62.4529 50.9275L61.9589 51.0072L61.9589 51.0072L62.4529 50.9275ZM64.6786 52.9327L64.5678 53.4211L65.123 53.5439L65.1763 52.9765L64.6786 52.9327ZM64.7623 52.0418L65.26 52.0856L65.3013 51.6465L64.8713 51.5531L64.7623 52.0418ZM63.0557 50.744L63.5499 50.6657L63.5498 50.665L63.0557 50.744ZM65.0119 47.2084L65.4864 47.0479L65.2327 46.2855L64.6605 46.8549L65.0119 47.2084ZM66.2873 48.9454L66.7296 49.1757L66.96 48.7365L66.5249 48.504L66.2873 48.9454ZM65.6185 51.8095L65.1206 51.857L65.1207 51.8579L65.6185 51.8095ZM66.229 53.4845L66.6056 53.8111L66.8698 53.5067L66.6311 53.1849L66.229 53.4845ZM54.223 56.9903L54.3839 56.5159L54.3833 56.5157L54.223 56.9903ZM48.3786 50.3674L48.8568 50.2187L48.8566 50.2183L48.3786 50.3674ZM48.2796 50.0443L48.7577 49.8951L48.621 49.4486L48.1656 49.5581L48.2796 50.0443ZM48.0421 50.1014L47.9281 49.6152L47.9274 49.6153L48.0421 50.1014ZM44.8339 49.1541L45.218 48.8316L45.2178 48.8315L44.8339 49.1541ZM43.7473 45.5784L44.247 45.5616L44.212 44.2827L43.3707 45.2518L43.7473 45.5784ZM43.2686 46.1298L42.8921 45.8032L42.892 45.8033L43.2686 46.1298ZM31.3364 49.2575L31.1777 49.7327L31.178 49.7328L31.3364 49.2575ZM27.3939 46.4164L27.8652 46.2467L27.8651 46.2464L27.3939 46.4164ZM27.2429 45.9915L27.7141 45.8214L27.4731 45.1431L26.9212 45.6107L27.2429 45.9915ZM116.945 37.0103L117.275 37.3845L117.544 37.1469L117.407 36.8166L116.945 37.0103ZM116.624 36.233L117.086 36.0393L116.822 35.4019L116.298 35.8557L116.624 36.233ZM112.024 35.2411L112.479 35.031L112.187 34.3911L111.678 34.8823L112.024 35.2411ZM111.514 35.7339L111.168 35.3751L110.912 35.6221L111.059 35.9439L111.514 35.7339ZM107.784 28.0554L108.257 28.215L108.374 27.8718L108.086 27.6549L107.784 28.0554ZM107.229 27.6387L107.531 27.2382L106.981 26.8247L106.757 27.479L107.229 27.6387ZM98.4329 30.3401L98.6963 29.9134L98.6938 29.9119L98.4329 30.3401ZM98.2216 30.212L98.4825 29.7839L98.0428 29.5174L97.7874 29.9669L98.2216 30.212ZM92.4138 29.8802L92.4682 29.3828L91.0927 29.2405L92.0543 30.23L92.4138 29.8802ZM91.9422 30.119L91.9734 29.6197L91.536 29.5949L91.4516 30.0257L91.9422 30.119ZM86.3689 35.8926L86.2879 35.3996L85.8297 35.4776L85.8709 35.9401L86.3689 35.8926ZM86.4486 36.7869L85.9507 36.8343L85.9985 37.3701L86.5294 37.2799L86.4486 36.7869ZM92.3897 30.9324L92.7354 30.5691L92.1694 30.0304L91.9165 30.774L92.3897 30.9324ZM98.4097 31.2922L98.6622 30.859L98.2541 30.6227L97.993 31.0185L98.4097 31.2922ZM60.6564 37.4447L60.9833 37.8211L61.2551 37.5844L61.1191 37.2526L60.6564 37.4447ZM60.3371 36.6656L60.7999 36.4735L60.5382 35.8348L60.0124 36.2874L60.3371 36.6656ZM53.272 36.0881L53.6946 35.8183L52.8192 36.3028L53.272 36.0881ZM53.7634 36.8628L54.2162 36.6481L54.2028 36.6196L54.186 36.593L53.7634 36.8628ZM21.9248 29.3727L22.4247 29.3722L22.4272 28.8923L21.948 28.873L21.9248 29.3727ZM21.3066 29.3478L21.3298 28.8481L20.8085 28.8271L20.8067 29.3491L21.3066 29.3478ZM20.8937 30.5885L20.5152 30.2642L20.5137 30.2659L20.8937 30.5885ZM18.1114 31.0223L17.9627 31.5007L17.9654 31.5015L18.1114 31.0223ZM17.8836 30.9527L18.0323 30.4744L17.5677 30.3324L17.4105 30.794L17.8836 30.9527ZM17.7802 31.2563L18.2529 31.4162L18.2533 31.415L17.7802 31.2563ZM14.7663 32.6668L14.8265 32.17L14.8251 32.1698L14.7663 32.6668ZM12.3224 30.2827L12.8087 30.1638L12.665 29.5611L12.1059 29.8333L12.3224 30.2827ZM11.7415 30.5655L11.525 30.116L11.162 30.2927L11.2551 30.6841L11.7415 30.5655ZM14.7296 33.5649L14.7913 33.0683L14.7894 33.068L14.7296 33.5649ZM18.2021 31.9671L18.3303 31.4829L17.9479 31.3838L17.7613 31.7339L18.2021 31.9671ZM21.2855 31.2967L21.6652 31.6198L21.666 31.6188L21.2855 31.2967ZM22.6449 42.6387C23.9956 45.0537 26.867 46.1603 29.0967 46.0856L29.0694 45.0859C27.1176 45.1514 24.6458 44.1624 23.5181 42.1463L22.6449 42.6387ZM29.0967 46.0856C29.169 46.0831 29.2577 46.0803 29.3539 46.0705L29.2583 45.0755C29.2013 45.0813 29.1459 45.0834 29.0694 45.0859L29.0967 46.0856ZM29.3377 46.0719C31.0932 45.95 32.4953 45.1323 33.2448 43.7226L32.3627 43.2572C31.803 44.31 30.7445 44.972 29.2746 45.0741L29.3377 46.0719ZM32.5869 43.9418C34.6533 44.9243 36.5646 44.3982 37.6989 43.5159L37.0882 42.7277C36.2228 43.4009 34.7128 43.8426 33.0206 43.038L32.5869 43.9418ZM37.6999 43.5151C38.4961 42.8923 39.026 42.0186 39.1854 41.0504L38.1989 40.8937C38.0822 41.6022 37.6929 42.2547 37.0871 42.7286L37.6999 43.5151ZM38.8691 40.5033L38.2683 40.2795L37.9144 41.217L38.5151 41.4408L38.8691 40.5033ZM37.5984 40.6679C37.5233 41.1132 37.2494 41.5667 36.7863 41.927L37.3971 42.7151C38.0279 42.2243 38.461 41.5589 38.5842 40.8286L37.5984 40.6679ZM36.7866 41.9267C35.8076 42.6871 34.3301 42.7827 33.0139 42.0834L32.5408 42.9674C34.1455 43.82 36.0561 43.7564 37.3967 42.7154L36.7866 41.9267ZM33.0141 42.0835L32.7813 41.9597L32.3077 42.8435L32.5406 42.9673L33.0141 42.0835ZM32.086 42.2052L31.9549 42.508L32.872 42.9007L33.0031 42.5979L32.086 42.2052ZM31.9548 42.5082C31.5536 43.436 30.5969 44.075 29.2246 44.1736L29.2902 45.1713C30.937 45.0528 32.2859 44.256 32.8721 42.9006L31.9548 42.5082ZM29.2239 44.1737C27.1016 44.3294 24.9018 43.2085 23.9929 41.5828L23.1196 42.0751C24.2393 44.0777 26.8311 45.3517 29.291 45.1712L29.2239 44.1737ZM23.1748 41.508L22.7001 42.0716L23.463 42.7134L23.9377 42.1498L23.1748 41.508ZM26.6452 45.8446C25.4937 46.8089 23.6635 47.481 21.5982 47.5944C19.5409 47.7074 17.2961 47.2628 15.3281 46.0508L14.8002 46.9034C16.9622 48.2349 19.4135 48.7157 21.6469 48.5931C23.8722 48.4709 25.9272 47.7463 27.2842 46.6099L26.6452 45.8446ZM15.3282 46.0509C13.7259 45.0634 11.6627 43.1189 10.9811 39.4574L9.99814 39.6463C10.742 43.6423 13.0151 45.8034 14.8 46.9033L15.3282 46.0509ZM10.981 39.457L10.8783 38.9076L9.89547 39.0973L9.99821 39.6467L10.981 39.457ZM10.0857 38.6052L9.74322 38.8659L10.3456 39.6604L10.6881 39.3997L10.0857 38.6052ZM9.74234 38.8665C8.51244 39.8072 6.57152 39.6845 5.24336 38.4765L4.56831 39.2184C6.19943 40.702 8.67712 40.9366 10.3465 39.6597L9.74234 38.8665ZM5.24358 38.4767C4.51177 37.8103 3.57858 36.4713 3.60144 33.8966L2.60167 33.8938C2.5763 36.7513 3.62678 38.3611 4.56809 39.2182L5.24358 38.4767ZM3.60144 33.8961L3.6036 33.624L2.60382 33.6222L2.60166 33.8943L3.60144 33.8961ZM3.4247 33.2377L3.26243 33.1028L2.62044 33.8734L2.78271 34.0084L3.4247 33.2377ZM3.25947 33.1003C1.15305 31.3757 0.505288 28.3895 1.69725 25.0145L0.754773 24.6864C-0.534908 28.3381 0.10434 31.8134 2.62341 33.8759L3.25947 33.1003ZM1.69729 25.0143C2.59352 22.4745 3.97351 20.8871 5.36761 20.1406C6.75211 19.3992 8.1605 19.4735 9.24844 20.2596L9.83711 19.4476C8.40405 18.4121 6.58044 18.3596 4.89999 19.2594C3.22915 20.1541 1.71126 21.9759 0.754729 24.6865L1.69729 25.0143ZM9.24822 20.2594L9.50559 20.4456L10.0947 19.6339L9.83734 19.4477L9.24822 20.2594ZM10.2638 20.224L10.4055 19.8717L9.47827 19.5032L9.33655 19.8555L10.2638 20.224ZM10.4049 19.8732C12.5653 14.5497 15.6014 11.9179 19.3615 11.733L19.3185 10.734C15.0022 10.9463 11.7118 13.9994 9.47884 19.5018L10.4049 19.8732ZM19.3624 11.733C22.2135 11.5875 25.1255 12.8887 27.548 14.6625C29.971 16.4368 31.8214 18.6232 32.5647 20.1244L33.4611 19.676C32.6289 17.9953 30.6551 15.6946 28.1417 13.8542C25.6278 12.0134 22.4911 10.5722 19.3176 10.7341L19.3624 11.733ZM32.5648 20.1246L32.8636 20.7272L33.7598 20.2783L33.461 19.6757L32.5648 20.1246ZM33.7839 20.664L34.0111 20.0087L33.0666 19.6862L32.8395 20.3415L33.7839 20.664ZM34.0111 20.0086C35.825 14.7725 39.8975 14.2226 41.8804 15.5385L42.4367 14.704C39.7823 12.9424 35.0423 13.9834 33.0666 19.6863L34.0111 20.0086ZM41.8819 15.5395L42.1253 15.6998L42.6787 14.8634L42.4352 14.7031L41.8819 15.5395ZM42.8584 15.4829L43.0021 15.1604L42.0894 14.7578L41.9456 15.0803L42.8584 15.4829ZM43.0024 15.1597C48.1416 3.58047 58.0398 0.0941391 64.9839 1.65332L65.2085 0.677338C57.7612 -0.99483 47.407 2.77645 42.0891 14.7585L43.0024 15.1597ZM64.9837 1.65327C69.2091 2.60381 72.0816 5.2327 72.7921 8.6192L73.7707 8.408C72.9614 4.55092 69.7153 1.69118 65.2087 0.677382L64.9837 1.65327ZM72.7921 8.6193L72.9386 9.31647L73.9171 9.10506L73.7706 8.40789L72.7921 8.6193ZM73.8304 9.50483L74.1917 9.01179L73.3866 8.42366L73.0253 8.9167L73.8304 9.50483ZM74.191 9.01265C76.2534 6.21077 78.9797 6.52457 80.0766 6.79603L80.3223 5.82502C79.0582 5.51219 75.8048 5.1384 73.3872 8.4228L74.191 9.01265ZM80.0781 6.79638C80.8261 6.97912 81.4273 7.27037 81.8548 7.56083C82.0688 7.70621 82.2342 7.848 82.3512 7.97093C82.4742 8.1002 82.5221 8.18591 82.5333 8.21522L83.4668 7.85121C83.3895 7.65006 83.2443 7.45439 83.0773 7.27893C82.9043 7.09713 82.6827 6.91085 82.42 6.73236C81.8942 6.3751 81.1838 6.03547 80.3209 5.82466L80.0781 6.79638ZM82.5334 8.21525L82.7313 8.72991L83.6647 8.36583L83.4668 7.85118L82.5334 8.21525ZM83.6038 8.83738L83.8896 8.43814L83.0779 7.85912L82.7921 8.25836L83.6038 8.83738ZM83.8894 8.43846C88.0207 2.67621 94.9038 2.34931 99.5822 4.52563L100.008 3.61824C95.0154 1.29564 87.5626 1.60397 83.0781 7.85881L83.8894 8.43846ZM99.5818 4.52548C102.733 5.99437 104.8 8.51795 105.201 11.2237L106.19 11.0714C105.729 7.95776 103.384 5.19174 100.009 3.61839L99.5818 4.52548ZM105.201 11.2234L105.304 11.9255L106.293 11.7739L106.19 11.0718L105.201 11.2234ZM106.168 12.1841L106.557 11.7551L105.817 11.0863L105.429 11.5153L106.168 12.1841ZM106.557 11.7541C108.046 10.1005 110.377 9.85782 112.251 11.1894L112.833 10.3727C110.565 8.76109 107.662 9.03791 105.816 11.0872L106.557 11.7541ZM112.251 11.1893C113.158 11.8339 114.773 13.4429 114.848 16.8775L115.848 16.8493C115.764 13.0474 113.95 11.1663 112.833 10.3727L112.251 11.1893ZM114.849 16.8787L114.868 17.6854L115.868 17.6549L115.848 16.8482L114.849 16.8787ZM115.71 18.033L116.169 17.5998L115.485 16.8742L115.026 17.3073L115.71 18.033ZM116.168 17.6002C118.296 15.5977 120.342 14.8335 122.162 14.7223C123.992 14.6104 125.642 15.1563 126.967 15.857L127.439 14.9721C126.007 14.2154 124.174 13.5976 122.107 13.724C120.03 13.8509 117.766 14.7267 115.486 16.8738L116.168 17.6002ZM126.967 15.8567C128.606 16.7261 130.079 18.0259 131.205 19.3899C132.338 20.7614 133.085 22.1549 133.321 23.1911L134.296 22.9634C134.013 21.7196 133.164 20.1871 131.978 18.75C130.785 17.3054 129.214 15.9138 127.439 14.9724L126.967 15.8567ZM133.728 22.5842C132.138 22.854 130.584 23.7176 129.545 25.2535L130.372 25.8106C131.24 24.5269 132.54 23.7993 133.889 23.5703L133.728 22.5842ZM129.547 25.8194L129.99 26.4557L130.812 25.881L130.369 25.2447L129.547 25.8194ZM130.814 26.4471C131.614 25.2662 132.821 24.6131 134.069 24.4273L133.928 23.438C132.435 23.6602 130.964 24.4484 129.988 25.8896L130.814 26.4471ZM133.515 24.0604L133.522 24.0865L134.49 23.8311L134.483 23.805L133.515 24.0604ZM134.46 24.1654L134.474 24.1333L133.566 23.7201L133.552 23.7522L134.46 24.1654ZM134.092 24.4213C135.373 24.2289 136.669 24.5378 137.584 25.2332L138.192 24.4354C137.041 23.5608 135.468 23.2042 133.949 23.4322L134.092 24.4213ZM138.36 24.9967L138.639 24.1993L137.695 23.8745L137.416 24.672L138.36 24.9967ZM138.471 23.638C137.364 22.7972 135.895 22.4037 134.427 22.5021L134.488 23.5001C135.745 23.4158 136.969 23.757 137.863 24.4358L138.471 23.638ZM134.906 23.2192C135.775 21.4467 136.801 20.7752 137.726 20.6442C138.676 20.5097 139.677 20.9223 140.519 21.6412L141.171 20.8785C140.2 20.0505 138.924 19.4654 137.592 19.6539C136.234 19.8462 134.973 20.8186 134.009 22.783L134.906 23.2192ZM140.519 21.6405C141.21 22.2332 141.852 23.0979 142.243 24.0406C142.634 24.9858 142.753 25.9592 142.48 26.7975L143.431 27.1018C143.801 25.965 143.616 24.737 143.167 23.6529C142.717 22.5663 141.982 21.5736 141.172 20.8792L140.519 21.6405ZM142.48 26.7979L142.305 27.3373L143.256 27.6408L143.431 27.1014L142.48 26.7979ZM142.654 27.9736L143.06 28.0776L143.314 27.1085L142.907 27.0045L142.654 27.9736ZM143.06 28.0775C144.181 28.3652 144.993 29.2607 145.303 30.7307L146.281 30.5186C145.911 28.7643 144.879 27.5101 143.314 27.1086L143.06 28.0775ZM145.303 30.7308C145.663 32.4396 145.239 34.4866 144.279 35.7905L145.083 36.3804C146.224 34.83 146.696 32.4872 146.281 30.5185L145.303 30.7308ZM144.28 35.7901C143.961 36.2223 143.471 36.7158 142.808 36.9508C142.169 37.1775 141.293 37.1906 140.128 36.5305L139.631 37.4016C141.011 38.1832 142.187 38.2302 143.137 37.8933C144.064 37.5647 144.702 36.897 145.083 36.3808L144.28 35.7901ZM140.129 36.5313L139.755 36.3175L139.255 37.187L139.63 37.4008L140.129 36.5313ZM139.006 36.7216L138.967 37.3038L139.964 37.3652L140.004 36.7829L139.006 36.7216ZM138.967 37.304C138.907 38.1926 138.335 39.1128 137.543 39.7953C136.738 40.4888 135.845 40.821 135.248 40.7267L135.086 41.7147C136.103 41.8753 137.288 41.3312 138.193 40.5514C139.111 39.7606 139.881 38.6102 139.964 37.365L138.967 37.304ZM135.249 40.727L135.042 40.6936L134.877 41.6811L135.084 41.7145L135.249 40.727ZM134.488 41.0224L134.392 41.2924L135.334 41.6222L135.43 41.3522L134.488 41.0224ZM134.392 41.2942C133.366 44.2163 131.005 46.1228 127.878 46.5276L128 47.5195C131.498 47.0668 134.181 44.9075 135.335 41.6204L134.392 41.2942ZM127.878 46.5276C124.527 46.9607 121.202 45.4816 119.919 43.1403L119.042 43.625C120.567 46.4094 124.347 47.9917 128 47.5195L127.878 46.5276ZM119.919 43.1394L119.782 42.8912L118.906 43.3777L119.042 43.6258L119.919 43.1394ZM119.124 42.6866L118.919 42.7883L119.359 43.6839L119.564 43.5823L119.124 42.6866ZM118.922 42.7867C118.044 43.2141 117.435 43.3306 116.821 43.0879C116.16 42.8266 115.383 42.109 114.32 40.5247L113.489 41.0857C114.567 42.6925 115.487 43.638 116.448 44.0183C117.457 44.4171 118.394 44.1536 119.355 43.6856L118.922 42.7867ZM114.321 40.5272L114.125 40.2302L113.29 40.7861L113.487 41.0832L114.321 40.5272ZM113.326 40.1869L113.11 40.4434L113.872 41.0859L114.089 40.8294L113.326 40.1869ZM113.11 40.4433C111.855 41.9299 109.436 43.506 106.768 44.1248C104.118 44.7397 101.295 44.3975 99.1125 42.173L98.3968 42.8757C100.889 45.416 104.105 45.7681 106.989 45.0991C109.856 44.434 112.469 42.7478 113.872 41.086L113.11 40.4433ZM99.1122 42.1726L98.8317 41.8872L98.1166 42.5906L98.3971 42.876L99.1122 42.1726ZM98.008 42.061L97.8431 42.4878L98.7754 42.8435L98.9403 42.4167L98.008 42.061ZM97.8428 42.4886C97.2059 44.1452 95.6413 45.5759 93.8621 46.11L94.1441 47.0679C96.2087 46.4481 98.0221 44.8028 98.7757 42.8427L97.8428 42.4886ZM93.8622 46.11C92.6239 46.4816 90.18 46.7486 87.8109 44.1799L87.0741 44.8606C89.7738 47.7876 92.6561 47.5144 94.144 47.0679L93.8622 46.11ZM87.8084 44.1772L87.6364 43.9934L86.9046 44.6794L87.0766 44.8632L87.8084 44.1772ZM86.9344 43.9683L86.7551 44.1322L87.4272 44.8686L87.6065 44.7046L86.9344 43.9683ZM86.7537 44.1336C86.337 44.5176 85.9135 44.7116 85.4919 44.756C85.0685 44.8006 84.5991 44.6995 84.085 44.4102L83.5908 45.2827C84.2456 45.6511 84.9206 45.8213 85.5906 45.7507C86.2623 45.6799 86.881 45.3721 87.4287 44.8672L86.7537 44.1336ZM84.2756 45.0854C85.0645 43.6506 85.2384 41.994 84.6926 40.5489L83.757 40.9074C84.1879 42.0482 84.0645 43.3994 83.4002 44.6075L84.2756 45.0854ZM83.757 40.9074C84.0398 41.6562 84.5958 42.384 85.044 43.0136C85.5232 43.6869 85.8837 44.2526 85.9744 44.7808C86.0167 45.027 85.998 45.2582 85.9 45.4908C85.8 45.7283 85.6039 45.9984 85.2429 46.2957C84.509 46.9 83.1685 47.556 80.875 48.2458L81.1575 49.2035C83.4847 48.5036 84.9827 47.8015 85.8755 47.0663C86.3278 46.6939 86.6422 46.2989 86.821 45.8743C87.002 45.4448 87.0305 45.017 86.9598 44.6055C86.8246 43.8184 86.318 43.0742 85.8596 42.4302C85.3701 41.7425 84.9179 41.1455 84.6926 40.5489L83.757 40.9074ZM80.531 48.6077C80.2564 49.7212 79.6138 50.3159 78.7959 50.5946C77.9442 50.8848 76.8614 50.8426 75.7496 50.5586C74.6447 50.2764 73.5653 49.7689 72.7477 49.1946C72.3393 48.9077 72.0077 48.6121 71.7725 48.3307C71.5328 48.0438 71.4196 47.8036 71.3921 47.626L70.4041 47.7847C70.4699 48.2109 70.7035 48.6156 71.0039 48.975C71.3088 49.3399 71.711 49.692 72.1698 50.0143C73.0869 50.6586 74.2767 51.2162 75.4967 51.5278C76.7097 51.8376 78.0075 51.9178 79.1131 51.5412C80.2525 51.1529 81.1441 50.2915 81.5016 48.8416L80.531 48.6077ZM70.5725 48.0868C71.2795 48.6896 71.6811 49.0829 71.8669 49.3164C71.9115 49.3725 71.9353 49.4091 71.9464 49.4288C71.9605 49.4541 71.9425 49.4316 71.9355 49.3746C71.9268 49.3035 71.937 49.1665 72.0478 49.0492C72.1417 48.9497 72.244 48.9346 72.26 48.9325C72.2856 48.929 72.2496 48.9362 72.106 48.8992C71.9807 48.8668 71.817 48.8128 71.6174 48.7374C71.2193 48.587 70.7161 48.366 70.159 48.1079C69.0308 47.5851 67.7744 46.9543 66.7395 46.4656C66.2353 46.2276 65.7857 46.0245 65.4604 45.9022C65.3053 45.844 65.143 45.7902 65.0063 45.7698C64.9529 45.7618 64.8172 45.7435 64.6738 45.7946C64.589 45.8248 64.4745 45.8894 64.3941 46.0183C64.3131 46.148 64.3054 46.2807 64.3171 46.3734L65.309 46.242C65.3181 46.3134 65.3135 46.4285 65.2412 46.5443C65.1695 46.6592 65.0694 46.7133 65.0043 46.7365C64.9003 46.7736 64.8255 46.7549 64.8526 46.759C64.877 46.7626 64.9546 46.7828 65.1038 46.8388C65.3871 46.9452 65.8036 47.1324 66.3082 47.3706C67.2909 47.8346 68.6227 48.5009 69.7343 49.016C70.2971 49.2768 70.8266 49.5099 71.2592 49.6734C71.475 49.7549 71.6762 49.8227 71.8509 49.8678C72.0073 49.9081 72.2063 49.9482 72.3879 49.9236C72.4818 49.9109 72.6422 49.8718 72.7726 49.7337C72.92 49.5776 72.9451 49.3873 72.9279 49.247C72.9125 49.1208 72.8626 49.0133 72.8197 48.9365C72.7736 48.8542 72.7152 48.7717 72.6506 48.6905C72.3995 48.375 71.9322 47.928 71.2237 47.3239L70.5725 48.0868ZM64.4675 45.9485C63.9157 46.48 63.2239 47.2324 62.7023 48.0919C62.1853 48.9438 61.7971 49.9648 61.9589 51.0072L62.9469 50.8478C62.8374 50.1423 63.0932 49.3699 63.5561 48.6071C64.0144 47.8518 64.6383 47.1682 65.1587 46.6669L64.4675 45.9485ZM61.9589 51.0072C62.0565 51.6356 62.3364 52.1696 62.7972 52.5845C63.2508 52.9928 63.8537 53.2631 64.5678 53.4211L64.7894 52.4444C64.1873 52.3112 63.7583 52.1001 63.4686 51.8392C63.1861 51.5849 63.0112 51.2618 62.9469 50.8477L61.9589 51.0072ZM65.1763 52.9765L65.26 52.0856L64.2646 51.998L64.1809 52.889L65.1763 52.9765ZM64.8713 51.5531C63.9198 51.3464 63.5951 50.9616 63.5499 50.6657L62.5615 50.8224C62.7039 51.7558 63.589 52.2993 64.6534 52.5305L64.8713 51.5531ZM63.5498 50.665C63.5082 50.3947 63.5993 49.9657 63.9156 49.3953C64.224 48.8391 64.7135 48.2085 65.3634 47.5619L64.6605 46.8549C63.9632 47.5488 63.4081 48.2539 63.042 48.9143C62.6837 49.5604 62.4702 50.229 62.5616 50.8231L63.5498 50.665ZM64.5375 47.369C64.8314 48.2524 65.3746 49.0261 66.0497 49.3869L66.5249 48.504C66.149 48.3032 65.7318 47.7857 65.4864 47.0479L64.5375 47.369ZM65.8449 48.7151C65.2927 49.7677 65.0304 50.8458 65.1206 51.857L66.1164 51.762C66.0471 50.9847 66.2451 50.0992 66.7296 49.1757L65.8449 48.7151ZM65.1207 51.8579C65.1865 52.581 65.4225 53.239 65.8269 53.7841L66.6311 53.1849C66.3469 52.8018 66.1674 52.3224 66.1163 51.7611L65.1207 51.8579ZM65.8524 53.1579C64.6759 54.5132 62.822 55.6993 60.7371 56.371C58.6538 57.0422 56.3876 57.1848 54.3839 56.5159L54.0621 57.4648C56.3151 58.217 58.8058 58.0421 61.0383 57.3228C63.2692 56.6041 65.2899 55.3266 66.6056 53.8111L65.8524 53.1579ZM54.3833 56.5157C51.7835 55.6512 49.8599 53.5058 48.8568 50.2187L47.9004 50.5161C48.9746 54.0362 51.0905 56.4768 54.0627 57.465L54.3833 56.5157ZM48.8566 50.2183L48.7577 49.8951L47.8016 50.1934L47.9005 50.5166L48.8566 50.2183ZM48.1656 49.5581L47.9281 49.6152L48.1562 50.5876L48.3937 50.5305L48.1656 49.5581ZM47.9274 49.6153C47.3291 49.7601 46.8173 49.7539 46.3817 49.6253C45.949 49.4977 45.5601 49.2404 45.218 48.8316L44.4499 49.4766C44.9038 50.0188 45.4537 50.3961 46.0935 50.5848C46.7302 50.7727 47.4245 50.7646 48.1568 50.5874L47.9274 49.6153ZM45.2178 48.8315C44.8825 48.4313 44.6459 47.9417 44.4917 47.4863C44.3361 47.0269 44.2765 46.6389 44.2717 46.463L43.2723 46.4965C43.2805 46.7958 43.3656 47.2841 43.5446 47.8125C43.725 48.3451 44.0128 48.955 44.45 49.4768L45.2178 48.8315ZM44.2717 46.463L44.247 45.5616L43.2476 45.5951L43.2723 46.4965L44.2717 46.463ZM43.3707 45.2518L42.8921 45.8032L43.6452 46.4564L44.1239 45.905L43.3707 45.2518ZM42.892 45.8033C39.5568 49.6476 34.8344 49.8778 31.4948 48.7822L31.178 49.7328C34.7794 50.9143 39.97 50.6927 43.6453 46.4562L42.892 45.8033ZM31.4951 48.7823C30.396 48.4209 29.5389 47.9536 28.928 47.4848C28.3061 47.0076 27.9753 46.5574 27.8652 46.2467L26.9227 46.5861C27.1224 47.1496 27.6172 47.7433 28.3164 48.2798C29.0264 48.8246 29.9857 49.3407 31.1777 49.7327L31.4951 48.7823ZM27.8651 46.2464L27.7141 45.8214L26.7718 46.1615L26.9228 46.5865L27.8651 46.2464ZM26.9212 45.6107L26.643 45.8464L27.2864 46.608L27.5647 46.3723L26.9212 45.6107ZM117.407 36.8166L117.086 36.0393L116.162 36.4267L116.483 37.204L117.407 36.8166ZM116.298 35.8557C115.14 36.8583 113.239 36.694 112.479 35.031L111.569 35.4513C112.645 37.8058 115.362 37.9851 116.949 36.6103L116.298 35.8557ZM111.678 34.8823L111.168 35.3751L111.86 36.0927L112.37 35.5999L111.678 34.8823ZM111.059 35.9439C111.834 37.6421 113.304 38.4313 114.775 38.382L114.747 37.3823C113.683 37.418 112.579 36.8613 111.969 35.5239L111.059 35.9439ZM114.775 38.382C115.673 38.3519 116.565 38.0105 117.275 37.3845L116.616 36.6361C116.085 37.1049 115.417 37.3599 114.747 37.3823L114.775 38.382ZM108.086 27.6549L107.531 27.2382L106.928 28.0392L107.482 28.4559L108.086 27.6549ZM106.757 27.479C106.173 29.1804 104.987 30.2816 103.556 30.7208C102.12 31.1617 100.384 30.9498 98.6963 29.9134L98.1696 30.7668C100.065 31.9306 102.095 32.2137 103.844 31.6768C105.599 31.1381 107.02 29.7886 107.702 27.7984L106.757 27.479ZM98.6938 29.9119L98.4825 29.7839L97.9607 30.6402L98.172 30.7683L98.6938 29.9119ZM97.7874 29.9669L97.643 30.2209L98.5114 30.7113L98.6558 30.4572L97.7874 29.9669ZM97.6418 30.2231C97.2515 30.9174 96.6484 31.3174 95.8919 31.3052C95.1054 31.2925 94.0389 30.833 92.7732 29.5305L92.0543 30.23C93.4117 31.6268 94.7125 32.2866 95.8697 32.3053C97.0568 32.3244 97.9738 31.6678 98.5126 30.7092L97.6418 30.2231ZM92.3593 30.3777L98.0227 30.9636L98.1316 29.9687L92.4682 29.3828L92.3593 30.3777ZM98.1085 29.9668L91.9734 29.6197L91.9109 30.6183L98.0459 30.9654L98.1085 29.9668ZM91.4516 30.0257C91.3777 30.403 91.1619 30.9111 90.8184 31.4838C90.479 32.0495 90.0317 32.6504 89.5234 33.2101C88.4849 34.3535 87.2782 35.2311 86.2879 35.3996L86.4498 36.3856C87.784 36.1585 89.1843 35.0662 90.2615 33.8802C90.811 33.2752 91.2987 32.6215 91.6748 31.9946C92.0468 31.3746 92.327 30.7519 92.4327 30.2123L91.4516 30.0257ZM85.8709 35.9401L85.9507 36.8343L86.9465 36.7394L86.8668 35.8452L85.8709 35.9401ZM86.5294 37.2799C87.8319 37.0586 89.2132 36.0823 90.3395 34.9304C91.4753 33.7687 92.4382 32.3399 92.8629 31.0908L91.9165 30.774C91.5541 31.84 90.692 33.1438 89.6268 34.2333C88.552 35.3325 87.3564 36.1259 86.3678 36.2938L86.5294 37.2799ZM92.044 31.2958C93.4369 32.6213 94.7806 33.2246 95.9877 33.206C97.2121 33.1871 98.1905 32.53 98.8265 31.5658L97.993 31.0185C97.5067 31.7559 96.814 32.193 95.9784 32.2059C95.1256 32.2191 94.0204 31.7918 92.7354 30.5691L92.044 31.2958ZM98.1573 31.7254C100.176 32.8942 102.324 33.1221 104.171 32.4875C106.021 31.8516 107.519 30.3667 108.257 28.215L107.311 27.8958C106.667 29.7747 105.387 31.014 103.851 31.5417C102.311 32.0708 100.463 31.9017 98.6622 30.859L98.1573 31.7254ZM61.1191 37.2526L60.7999 36.4735L59.8744 36.8577L60.1937 37.6368L61.1191 37.2526ZM60.0124 36.2874C59.4 36.8145 58.1012 37.4029 56.7919 37.4865C55.5071 37.5686 54.3318 37.1678 53.7248 35.8735L52.8192 36.3028C53.6578 38.0912 55.3138 38.5828 56.8495 38.4847C58.3608 38.3881 59.8718 37.7239 60.6619 37.0438L60.0124 36.2874ZM52.8495 36.3579L53.3408 37.1326L54.186 36.593L53.6946 35.8183L52.8495 36.3579ZM53.3106 37.0775C53.7388 37.9904 54.13 38.6292 54.6778 39.0036C55.2449 39.3912 55.8961 39.4403 56.6692 39.4144L56.6418 38.4148C55.9002 38.4396 55.5321 38.3727 55.2452 38.1766C54.939 37.9673 54.6415 37.5548 54.2162 36.6481L53.3106 37.0775ZM56.6692 39.4144C58.4132 39.3559 60.1402 38.5552 60.9833 37.8211L60.3295 37.0684C59.659 37.6522 58.1527 38.3641 56.6418 38.4148L56.6692 39.4144ZM21.948 28.873L21.3298 28.8481L21.2835 29.8475L21.9016 29.8724L21.948 28.873ZM20.8067 29.3491C20.8053 29.7632 20.6931 30.0568 20.5152 30.2642L21.2723 30.9128C21.6369 30.4877 21.8045 29.947 21.8065 29.3464L20.8067 29.3491ZM20.5137 30.2659C20.1617 30.6802 19.4032 30.8861 18.2573 30.5431L17.9654 31.5015C19.2663 31.8909 20.5388 31.776 21.2738 30.9111L20.5137 30.2659ZM18.2601 30.544L18.0323 30.4744L17.7349 31.4311L17.9627 31.5007L18.2601 30.544ZM17.4105 30.794L17.3071 31.0976L18.2533 31.415L18.3567 31.1114L17.4105 30.794ZM17.3075 31.0965C17.235 31.3077 16.9576 31.6185 16.4648 31.8655C15.991 32.1029 15.4018 32.2362 14.8265 32.17L14.7061 33.1636C15.4998 33.255 16.284 33.072 16.9082 32.7592C17.5133 32.4559 18.0584 31.9827 18.2529 31.4162L17.3075 31.0965ZM14.8251 32.1698C14.5229 32.1358 14.1176 32.0321 13.7446 31.7508C13.3796 31.4756 13.0088 31.0031 12.8087 30.1638L11.8361 30.4015C12.0852 31.4464 12.5754 32.1253 13.1396 32.5508C13.6958 32.9703 14.2878 33.1166 14.7075 33.1637L14.8251 32.1698ZM12.1059 29.8333L11.525 30.116L11.958 31.0149L12.5389 30.7321L12.1059 29.8333ZM11.2551 30.6841C11.711 32.5993 12.9083 33.8602 14.6698 34.0618L14.7894 33.068C13.5382 32.9248 12.6109 32.056 12.2278 30.4468L11.2551 30.6841ZM14.668 34.0616C14.8654 34.0849 15.0675 34.0942 15.2713 34.0874L15.2439 33.0878C15.0925 33.0928 14.9409 33.0859 14.7913 33.0683L14.668 34.0616ZM15.2713 34.0874C16.6479 34.0412 18.0522 33.3086 18.6429 32.2003L17.7613 31.7339C17.3786 32.452 16.3518 33.0506 15.2439 33.0878L15.2713 34.0874ZM18.0739 32.4512C19.5141 32.8246 20.8326 32.597 21.6652 31.6198L20.9059 30.9737C20.4116 31.5539 19.5519 31.7996 18.3303 31.4829L18.0739 32.4512ZM21.666 31.6188C22.169 31.0254 22.4202 30.2398 22.4247 29.3722L21.4249 29.3732C21.4214 30.0539 21.226 30.5961 20.9051 30.9747L21.666 31.6188Z" fill="black" mask="url(#path-1-inside-1_5642_6331)"/>
</svg>
