<svg width="335" height="134" viewBox="0 0 335 134" fill="none" xmlns="http://www.w3.org/2000/svg">
<mask id="path-1-inside-1_5642_6334" fill="white">
<path d="M296.663 34.5605C293.611 29.424 287.134 27.0823 282.091 27.334C281.911 27.343 281.738 27.3516 281.553 27.3732C277.664 27.703 274.716 29.4869 273.171 32.3976C268.611 30.3839 264.496 31.5886 262.105 33.4517C260.429 34.765 259.342 36.5712 259.032 38.5402L260.488 39.0391C260.711 37.6585 261.548 36.3336 262.856 35.3142C265.63 33.1565 269.716 32.8991 273.262 34.655L273.827 34.9353L274.135 34.2208C275.294 31.5267 278.056 29.7973 281.696 29.4799C287.22 28.9904 293.035 31.6941 295.534 35.9L296.663 34.5605ZM287.185 25.7432C293.179 20.7186 305.858 18.8767 315.896 24.6598C320.012 27.033 325.302 31.7493 327.13 40.6853L327.393 41.9676L328.212 41.3427C331.679 38.6857 337.016 39.0116 340.624 42.101C342.664 43.8498 345.099 47.261 345.117 53.6223L345.12 54.2596L345.515 54.5689C351.149 58.9062 352.793 66.4448 349.897 74.724C345.574 87.0967 336.102 90.9335 329.968 86.7734L329.341 86.3482L329.009 87.179C323.86 99.9465 316.307 106.735 306.567 107.369C292.038 108.341 277.22 95.032 273.329 87.6467L272.591 86.2482L272.061 87.7922C267.642 100.68 257.031 102.727 251.393 99.2204L250.801 98.8552L250.463 99.6164C238.177 127.422 213.842 136.344 196.432 132.861C185.869 130.744 178.409 124.446 176.474 115.997L176.101 114.37L175.243 115.54C169.923 122.76 162.698 122.08 159.841 121.445C155.942 120.591 153.475 118.6 153.034 117.528L152.542 116.331L151.864 117.278C141.637 131.529 124.348 132.573 112.616 127.508C104.697 124.082 99.2997 117.981 98.1792 111.185L97.9101 109.546L96.9852 110.566C93.014 114.972 86.7071 115.69 81.6663 112.33C79.204 110.689 75.0188 106.674 74.7243 98.2046L74.6542 96.3163L73.5586 97.3498C63.0377 107.252 52.8499 105.391 46.158 102.094C37.8674 97.996 31.3185 89.744 30.0021 84.4263C33.5414 83.7808 36.9627 81.8581 39.2245 78.5168L38.1383 77.0452C36.0325 80.1525 32.8216 81.8961 29.5186 82.4311L29.5016 82.3703L29.4669 82.446C26.0949 82.9968 22.6225 82.2777 20.1076 80.4826L19.458 82.3616C21.8922 84.099 25.1534 84.9027 28.438 84.6318C24.1197 93.4591 17.491 92.5233 13.0722 88.9767C9.41129 86.0256 6.32426 80.3932 7.81964 75.7413L8.22683 74.4707L7.24298 74.2443C3.99268 73.4935 1.73748 71.0151 0.872488 67.2541C-0.115319 62.9646 0.904243 57.8059 3.3992 54.4201C5.06085 52.1698 8.77839 48.8875 14.9614 52.1568L15.8716 52.6419L15.9501 51.2768C16.2362 46.2739 22.3118 41.4674 26.2147 41.9964L26.7164 42.0659L26.9403 41.4296C29.4831 34.1139 35.5128 29.248 43.4939 28.1053C51.9308 26.8987 60.5487 30.3344 64.0079 36.2772L64.3445 36.8526L64.8364 36.606C69.2513 34.4322 72.279 34.6964 77.5368 42.0793L78.0199 42.7667L78.5349 42.157C84.8626 34.6729 102.634 26.4573 114.047 37.4195L114.732 38.0762L115.118 37.0699C116.745 32.8062 120.777 29.1339 125.399 27.7023C128.677 26.6874 135.096 25.9435 141.289 32.2721L141.709 32.6953L142.138 32.3038C144.44 30.1819 147.139 29.8663 149.979 31.3573C148.262 34.4821 147.946 38.0101 149.16 41.0175C146.633 34.7587 134.456 29.0531 156.679 22.1576C159.585 10.0993 180.156 18.4808 181.124 24.1209C167.325 13.0528 196.074 28.7276 195.848 27.1391C198.406 24.6755 202.117 20.3036 201.414 16.2221C200.994 13.7878 199.171 12.2461 195.986 11.6195L195.809 13.7093C198.248 14.1798 199.72 15.2414 199.964 16.6769C200.309 18.6954 198.556 21.8427 195.343 25.0381C194.669 23.1512 193.492 21.6595 192.216 21.024C193.439 18.6887 193.967 16.3798 193.75 14.2892C193.591 12.7878 193.073 11.4647 192.229 10.3923C198.163 3.56532 210.791 -1.46956 221.103 1.6801C227.853 3.73268 232.791 9.01766 235.393 16.9444L235.641 17.697L236.212 17.5533C239.414 16.7437 242.033 17.4437 243.981 19.6372C245.871 21.7637 246.574 24.7432 246.619 25.8554L246.704 27.9651L247.843 26.6539C256.189 17.0457 268.143 16.3092 276.55 18.8301C282.1 20.4984 285.371 23.2839 286.144 25.3181L286.52 26.3069L287.185 25.7432ZM70.3046 51.0932L71.1026 52.8999C74.3825 50.0589 79.9589 50.3646 82.2295 55.0301L83.4471 53.8549C81.7329 50.3295 78.6082 48.8076 75.5509 48.9601C73.6603 49.0545 71.7867 49.7855 70.3046 51.0932ZM92.6643 71.6795L94.0139 72.632C96.9653 63.9346 106.456 60.9358 115.166 65.938L115.679 66.229L116.021 65.628C118.216 61.7184 123.298 60.5517 129.704 66.7628L116.021 65.628L130.835 66.1841C131.651 61.8745 138.524 53.4543 144.122 52.4305L143.905 50.3398C138.387 51.3473 131.567 58.8436 129.732 64.298C123.199 58.4428 117.855 59.676 115.195 63.7075C105.916 58.6885 95.8852 62.1831 92.6643 71.6795ZM206.127 47.7196L206.92 49.5308C210.27 46.6451 220.41 43.4288 223.985 50.5873L222.778 48.7938C220.667 44.5685 219.395 43.9278 215.741 44.1101C211.815 44.3061 207.935 46.1448 206.127 47.7196ZM299.82 65.0007L301.313 65.0331C301.303 63.8451 301.629 62.8624 302.274 62.1104C303.568 60.59 306.014 60.1718 308.977 60.9781L309.528 61.1315L309.769 60.4162C310.392 58.5838 313.694 56.6753 317.003 56.9872C318.747 57.1469 321.83 58.0746 322.967 62.4677L324.361 61.7813C323.299 57.6723 320.706 55.2231 317.066 54.8825C316.646 54.8418 316.22 54.8302 315.791 54.8515C312.795 55.0011 309.88 56.6106 308.731 58.7695C305.51 58.0173 302.888 58.617 301.309 60.4683C300.329 61.6236 299.808 63.1876 299.82 65.0007Z"/>
<path d="M296.663 34.5605C293.611 29.424 287.134 27.0823 282.091 27.334C281.911 27.343 281.738 27.3516 281.553 27.3732C277.664 27.703 274.716 29.4869 273.171 32.3976C268.611 30.3839 264.496 31.5886 262.105 33.4517C260.429 34.765 259.342 36.5712 259.032 38.5402L260.488 39.0391C260.711 37.6585 261.548 36.3336 262.856 35.3142C265.63 33.1565 269.716 32.8991 273.262 34.655L273.827 34.9353L274.135 34.2208C275.294 31.5267 278.056 29.7973 281.696 29.4799C287.22 28.9904 293.035 31.6941 295.534 35.9L296.663 34.5605ZM287.185 25.7432C293.179 20.7186 305.858 18.8767 315.896 24.6598C320.012 27.033 325.302 31.7493 327.13 40.6853L327.393 41.9676L328.212 41.3427C331.679 38.6857 337.016 39.0116 340.624 42.101C342.664 43.8498 345.099 47.261 345.117 53.6223L345.12 54.2596L345.515 54.5689C351.149 58.9062 352.793 66.4448 349.897 74.724C345.574 87.0967 336.102 90.9335 329.968 86.7734L329.341 86.3482L329.009 87.179C323.86 99.9465 316.307 106.735 306.567 107.369C292.038 108.341 277.22 95.032 273.329 87.6467L272.591 86.2482L272.061 87.7922C267.642 100.68 257.031 102.727 251.393 99.2204L250.801 98.8552L250.463 99.6164C238.177 127.422 213.842 136.344 196.432 132.861C185.869 130.744 178.409 124.446 176.474 115.997L176.101 114.37L175.243 115.54C169.923 122.76 162.698 122.08 159.841 121.445C155.942 120.591 153.475 118.6 153.034 117.528L152.542 116.331L151.864 117.278C141.637 131.529 124.348 132.573 112.616 127.508C104.697 124.082 99.2997 117.981 98.1792 111.185L97.9101 109.546L96.9852 110.566C93.014 114.972 86.7071 115.69 81.6663 112.33C79.204 110.689 75.0188 106.674 74.7243 98.2046L74.6542 96.3163L73.5586 97.3498C63.0377 107.252 52.8499 105.391 46.158 102.094C37.8674 97.996 31.3185 89.744 30.0021 84.4263C33.5414 83.7808 36.9627 81.8581 39.2245 78.5168L38.1383 77.0452C36.0325 80.1525 32.8216 81.8961 29.5186 82.4311L29.5016 82.3703L29.4669 82.446C26.0949 82.9968 22.6225 82.2777 20.1076 80.4826L19.458 82.3616C21.8922 84.099 25.1534 84.9027 28.438 84.6318C24.1197 93.4591 17.491 92.5233 13.0722 88.9767C9.41129 86.0256 6.32426 80.3932 7.81964 75.7413L8.22683 74.4707L7.24298 74.2443C3.99268 73.4935 1.73748 71.0151 0.872488 67.2541C-0.115319 62.9646 0.904243 57.8059 3.3992 54.4201C5.06085 52.1698 8.77839 48.8875 14.9614 52.1568L15.8716 52.6419L15.9501 51.2768C16.2362 46.2739 22.3118 41.4674 26.2147 41.9964L26.7164 42.0659L26.9403 41.4296C29.4831 34.1139 35.5128 29.248 43.4939 28.1053C51.9308 26.8987 60.5487 30.3344 64.0079 36.2772L64.3445 36.8526L64.8364 36.606C69.2513 34.4322 72.279 34.6964 77.5368 42.0793L78.0199 42.7667L78.5349 42.157C84.8626 34.6729 102.634 26.4573 114.047 37.4195L114.732 38.0762L115.118 37.0699C116.745 32.8062 120.777 29.1339 125.399 27.7023C128.677 26.6874 135.096 25.9435 141.289 32.2721L141.709 32.6953L142.138 32.3038C144.44 30.1819 147.139 29.8663 149.979 31.3573C148.262 34.4821 147.946 38.0101 149.16 41.0175C146.633 34.7587 134.456 29.0531 156.679 22.1576C159.585 10.0993 180.156 18.4808 181.124 24.1209C167.325 13.0528 196.074 28.7276 195.848 27.1391C198.406 24.6755 202.117 20.3036 201.414 16.2221C200.994 13.7878 199.171 12.2461 195.986 11.6195L195.809 13.7093C198.248 14.1798 199.72 15.2414 199.964 16.6769C200.309 18.6954 198.556 21.8427 195.343 25.0381C194.669 23.1512 193.492 21.6595 192.216 21.024C193.439 18.6887 193.967 16.3798 193.75 14.2892C193.591 12.7878 193.073 11.4647 192.229 10.3923C198.163 3.56532 210.791 -1.46956 221.103 1.6801C227.853 3.73268 232.791 9.01766 235.393 16.9444L235.641 17.697L236.212 17.5533C239.414 16.7437 242.033 17.4437 243.981 19.6372C245.871 21.7637 246.574 24.7432 246.619 25.8554L246.704 27.9651L247.843 26.6539C256.189 17.0457 268.143 16.3092 276.55 18.8301C282.1 20.4984 285.371 23.2839 286.144 25.3181L286.52 26.3069L287.185 25.7432ZM70.3046 51.0932L71.1026 52.8999C74.3825 50.0589 79.9589 50.3646 82.2295 55.0301L83.4471 53.8549C81.7329 50.3295 78.6082 48.8076 75.5509 48.9601C73.6603 49.0545 71.7867 49.7855 70.3046 51.0932ZM92.6643 71.6795L94.0139 72.632C96.9653 63.9346 106.456 60.9358 115.166 65.938L115.679 66.229L116.021 65.628C118.216 61.7184 123.298 60.5517 129.704 66.7628L116.021 65.628L130.835 66.1841C131.651 61.8745 138.524 53.4543 144.122 52.4305L143.905 50.3398C138.387 51.3473 131.567 58.8436 129.732 64.298C123.199 58.4428 117.855 59.676 115.195 63.7075C105.916 58.6885 95.8852 62.1831 92.6643 71.6795ZM206.127 47.7196L206.92 49.5308C210.27 46.6451 220.41 43.4288 223.985 50.5873L222.778 48.7938C220.667 44.5685 219.395 43.9278 215.741 44.1101C211.815 44.3061 207.935 46.1448 206.127 47.7196ZM299.82 65.0007L301.313 65.0331C301.303 63.8451 301.629 62.8624 302.274 62.1104C303.568 60.59 306.014 60.1718 308.977 60.9781L309.528 61.1315L309.769 60.4162C310.392 58.5838 313.694 56.6753 317.003 56.9872C318.747 57.1469 321.83 58.0746 322.967 62.4677L324.361 61.7813C323.299 57.6723 320.706 55.2231 317.066 54.8825C316.646 54.8418 316.22 54.8302 315.791 54.8515C312.795 55.0011 309.88 56.6106 308.731 58.7695C305.51 58.0173 302.888 58.617 301.309 60.4683C300.329 61.6236 299.808 63.1876 299.82 65.0007Z"/>
<path d="M296.663 34.5605C293.611 29.424 287.134 27.0823 282.091 27.334C281.911 27.343 281.738 27.3516 281.553 27.3732C277.664 27.703 274.716 29.4869 273.171 32.3976C268.611 30.3839 264.496 31.5886 262.105 33.4517C260.429 34.765 259.342 36.5712 259.032 38.5402L260.488 39.0391C260.711 37.6585 261.548 36.3336 262.856 35.3142C265.63 33.1565 269.716 32.8991 273.262 34.655L273.827 34.9353L274.135 34.2208C275.294 31.5267 278.056 29.7973 281.696 29.4799C287.22 28.9904 293.035 31.6941 295.534 35.9L296.663 34.5605ZM287.185 25.7432C293.179 20.7186 305.858 18.8767 315.896 24.6598C320.012 27.033 325.302 31.7493 327.13 40.6853L327.393 41.9676L328.212 41.3427C331.679 38.6857 337.016 39.0116 340.624 42.101C342.664 43.8498 345.099 47.261 345.117 53.6223L345.12 54.2596L345.515 54.5689C351.149 58.9062 352.793 66.4448 349.897 74.724C345.574 87.0967 336.102 90.9335 329.968 86.7734L329.341 86.3482L329.009 87.179C323.86 99.9465 316.307 106.735 306.567 107.369C292.038 108.341 277.22 95.032 273.329 87.6467L272.591 86.2482L272.061 87.7922C267.642 100.68 257.031 102.727 251.393 99.2204L250.801 98.8552L250.463 99.6164C238.177 127.422 213.842 136.344 196.432 132.861C185.869 130.744 178.409 124.446 176.474 115.997L176.101 114.37L175.243 115.54C169.923 122.76 162.698 122.08 159.841 121.445C155.942 120.591 153.475 118.6 153.034 117.528L152.542 116.331L151.864 117.278C141.637 131.529 124.348 132.573 112.616 127.508C104.697 124.082 99.2997 117.981 98.1792 111.185L97.9101 109.546L96.9852 110.566C93.014 114.972 86.7071 115.69 81.6663 112.33C79.204 110.689 75.0188 106.674 74.7243 98.2046L74.6542 96.3163L73.5586 97.3498C63.0377 107.252 52.8499 105.391 46.158 102.094C37.8674 97.996 31.3185 89.744 30.0021 84.4263C33.5414 83.7808 36.9627 81.8581 39.2245 78.5168L38.1383 77.0452C36.0325 80.1525 32.8216 81.8961 29.5186 82.4311L29.5016 82.3703L29.4669 82.446C26.0949 82.9968 22.6225 82.2777 20.1076 80.4826L19.458 82.3616C21.8922 84.099 25.1534 84.9027 28.438 84.6318C24.1197 93.4591 17.491 92.5233 13.0722 88.9767C9.41129 86.0256 6.32426 80.3932 7.81964 75.7413L8.22683 74.4707L7.24298 74.2443C3.99268 73.4935 1.73748 71.0151 0.872488 67.2541C-0.115319 62.9646 0.904243 57.8059 3.3992 54.4201C5.06085 52.1698 8.77839 48.8875 14.9614 52.1568L15.8716 52.6419L15.9501 51.2768C16.2362 46.2739 22.3118 41.4674 26.2147 41.9964L26.7164 42.0659L26.9403 41.4296C29.4831 34.1139 35.5128 29.248 43.4939 28.1053C51.9308 26.8987 60.5487 30.3344 64.0079 36.2772L64.3445 36.8526L64.8364 36.606C69.2513 34.4322 72.279 34.6964 77.5368 42.0793L78.0199 42.7667L78.5349 42.157C84.8626 34.6729 102.634 26.4573 114.047 37.4195L114.732 38.0762L115.118 37.0699C116.745 32.8062 120.777 29.1339 125.399 27.7023C128.677 26.6874 135.096 25.9435 141.289 32.2721L141.709 32.6953L142.138 32.3038C144.44 30.1819 147.139 29.8663 149.979 31.3573C148.262 34.4821 147.946 38.0101 149.16 41.0175C146.633 34.7587 134.456 29.0531 156.679 22.1576C159.585 10.0993 180.156 18.4808 181.124 24.1209C167.325 13.0528 196.074 28.7276 195.848 27.1391C198.406 24.6755 202.117 20.3036 201.414 16.2221C200.994 13.7878 199.171 12.2461 195.986 11.6195L195.809 13.7093C198.248 14.1798 199.72 15.2414 199.964 16.6769C200.309 18.6954 198.556 21.8427 195.343 25.0381C194.669 23.1512 193.492 21.6595 192.216 21.024C193.439 18.6887 193.967 16.3798 193.75 14.2892C193.591 12.7878 193.073 11.4647 192.229 10.3923C198.163 3.56532 210.791 -1.46956 221.103 1.6801C227.853 3.73268 232.791 9.01766 235.393 16.9444L235.641 17.697L236.212 17.5533C239.414 16.7437 242.033 17.4437 243.981 19.6372C245.871 21.7637 246.574 24.7432 246.619 25.8554L246.704 27.9651L247.843 26.6539C256.189 17.0457 268.143 16.3092 276.55 18.8301C282.1 20.4984 285.371 23.2839 286.144 25.3181L286.52 26.3069L287.185 25.7432ZM70.3046 51.0932L71.1026 52.8999C74.3825 50.0589 79.9589 50.3646 82.2295 55.0301L83.4471 53.8549C81.7329 50.3295 78.6082 48.8076 75.5509 48.9601C73.6603 49.0545 71.7867 49.7855 70.3046 51.0932ZM92.6643 71.6795L94.0139 72.632C96.9653 63.9346 106.456 60.9358 115.166 65.938L115.679 66.229L116.021 65.628C118.216 61.7184 123.298 60.5517 129.704 66.7628L116.021 65.628L130.835 66.1841C131.651 61.8745 138.524 53.4543 144.122 52.4305L143.905 50.3398C138.387 51.3473 131.567 58.8436 129.732 64.298C123.199 58.4428 117.855 59.676 115.195 63.7075C105.916 58.6885 95.8852 62.1831 92.6643 71.6795ZM206.127 47.7196L206.92 49.5308C210.27 46.6451 220.41 43.4288 223.985 50.5873L222.778 48.7938C220.667 44.5685 219.395 43.9278 215.741 44.1101C211.815 44.3061 207.935 46.1448 206.127 47.7196ZM299.82 65.0007L301.313 65.0331C301.303 63.8451 301.629 62.8624 302.274 62.1104C303.568 60.59 306.014 60.1718 308.977 60.9781L309.528 61.1315L309.769 60.4162C310.392 58.5838 313.694 56.6753 317.003 56.9872C318.747 57.1469 321.83 58.0746 322.967 62.4677L324.361 61.7813C323.299 57.6723 320.706 55.2231 317.066 54.8825C316.646 54.8418 316.22 54.8302 315.791 54.8515C312.795 55.0011 309.88 56.6106 308.731 58.7695C305.51 58.0173 302.888 58.617 301.309 60.4683C300.329 61.6236 299.808 63.1876 299.82 65.0007Z"/>
<path d="M296.663 34.5605C293.611 29.424 287.134 27.0823 282.091 27.334C281.911 27.343 281.738 27.3516 281.553 27.3732C277.664 27.703 274.716 29.4869 273.171 32.3976C268.611 30.3839 264.496 31.5886 262.105 33.4517C260.429 34.765 259.342 36.5712 259.032 38.5402L260.488 39.0391C260.711 37.6585 261.548 36.3336 262.856 35.3142C265.63 33.1565 269.716 32.8991 273.262 34.655L273.827 34.9353L274.135 34.2208C275.294 31.5267 278.056 29.7973 281.696 29.4799C287.22 28.9904 293.035 31.6941 295.534 35.9L296.663 34.5605ZM287.185 25.7432C293.179 20.7186 305.858 18.8767 315.896 24.6598C320.012 27.033 325.302 31.7493 327.13 40.6853L327.393 41.9676L328.212 41.3427C331.679 38.6857 337.016 39.0116 340.624 42.101C342.664 43.8498 345.099 47.261 345.117 53.6223L345.12 54.2596L345.515 54.5689C351.149 58.9062 352.793 66.4448 349.897 74.724C345.574 87.0967 336.102 90.9335 329.968 86.7734L329.341 86.3482L329.009 87.179C323.86 99.9465 316.307 106.735 306.567 107.369C292.038 108.341 277.22 95.032 273.329 87.6467L272.591 86.2482L272.061 87.7922C267.642 100.68 257.031 102.727 251.393 99.2204L250.801 98.8552L250.463 99.6164C238.177 127.422 213.842 136.344 196.432 132.861C185.869 130.744 178.409 124.446 176.474 115.997L176.101 114.37L175.243 115.54C169.923 122.76 162.698 122.08 159.841 121.445C155.942 120.591 153.475 118.6 153.034 117.528L152.542 116.331L151.864 117.278C141.637 131.529 124.348 132.573 112.616 127.508C104.697 124.082 99.2997 117.981 98.1792 111.185L97.9101 109.546L96.9852 110.566C93.014 114.972 86.7071 115.69 81.6663 112.33C79.204 110.689 75.0188 106.674 74.7243 98.2046L74.6542 96.3163L73.5586 97.3498C63.0377 107.252 52.8499 105.391 46.158 102.094C37.8674 97.996 31.3185 89.744 30.0021 84.4263C33.5414 83.7808 36.9627 81.8581 39.2245 78.5168L38.1383 77.0452C36.0325 80.1525 32.8216 81.8961 29.5186 82.4311L29.5016 82.3703L29.4669 82.446C26.0949 82.9968 22.6225 82.2777 20.1076 80.4826L19.458 82.3616C21.8922 84.099 25.1534 84.9027 28.438 84.6318C24.1197 93.4591 17.491 92.5233 13.0722 88.9767C9.41129 86.0256 6.32426 80.3932 7.81964 75.7413L8.22683 74.4707L7.24298 74.2443C3.99268 73.4935 1.73748 71.0151 0.872488 67.2541C-0.115319 62.9646 0.904243 57.8059 3.3992 54.4201C5.06085 52.1698 8.77839 48.8875 14.9614 52.1568L15.8716 52.6419L15.9501 51.2768C16.2362 46.2739 22.3118 41.4674 26.2147 41.9964L26.7164 42.0659L26.9403 41.4296C29.4831 34.1139 35.5128 29.248 43.4939 28.1053C51.9308 26.8987 60.5487 30.3344 64.0079 36.2772L64.3445 36.8526L64.8364 36.606C69.2513 34.4322 72.279 34.6964 77.5368 42.0793L78.0199 42.7667L78.5349 42.157C84.8626 34.6729 102.634 26.4573 114.047 37.4195L114.732 38.0762L115.118 37.0699C116.745 32.8062 120.777 29.1339 125.399 27.7023C128.677 26.6874 135.096 25.9435 141.289 32.2721L141.709 32.6953L142.138 32.3038C144.44 30.1819 147.139 29.8663 149.979 31.3573C148.262 34.4821 147.946 38.0101 149.16 41.0175C146.633 34.7587 134.456 29.0531 156.679 22.1576C159.585 10.0993 180.156 18.4808 181.124 24.1209C167.325 13.0528 196.074 28.7276 195.848 27.1391C198.406 24.6755 202.117 20.3036 201.414 16.2221C200.994 13.7878 199.171 12.2461 195.986 11.6195L195.809 13.7093C198.248 14.1798 199.72 15.2414 199.964 16.6769C200.309 18.6954 198.556 21.8427 195.343 25.0381C194.669 23.1512 193.492 21.6595 192.216 21.024C193.439 18.6887 193.967 16.3798 193.75 14.2892C193.591 12.7878 193.073 11.4647 192.229 10.3923C198.163 3.56532 210.791 -1.46956 221.103 1.6801C227.853 3.73268 232.791 9.01766 235.393 16.9444L235.641 17.697L236.212 17.5533C239.414 16.7437 242.033 17.4437 243.981 19.6372C245.871 21.7637 246.574 24.7432 246.619 25.8554L246.704 27.9651L247.843 26.6539C256.189 17.0457 268.143 16.3092 276.55 18.8301C282.1 20.4984 285.371 23.2839 286.144 25.3181L286.52 26.3069L287.185 25.7432ZM70.3046 51.0932L71.1026 52.8999C74.3825 50.0589 79.9589 50.3646 82.2295 55.0301L83.4471 53.8549C81.7329 50.3295 78.6082 48.8076 75.5509 48.9601C73.6603 49.0545 71.7867 49.7855 70.3046 51.0932ZM92.6643 71.6795L94.0139 72.632C96.9653 63.9346 106.456 60.9358 115.166 65.938L115.679 66.229L116.021 65.628C118.216 61.7184 123.298 60.5517 129.704 66.7628L116.021 65.628L130.835 66.1841C131.651 61.8745 138.524 53.4543 144.122 52.4305L143.905 50.3398C138.387 51.3473 131.567 58.8436 129.732 64.298C123.199 58.4428 117.855 59.676 115.195 63.7075C105.916 58.6885 95.8852 62.1831 92.6643 71.6795ZM206.127 47.7196L206.92 49.5308C210.27 46.6451 220.41 43.4288 223.985 50.5873L222.778 48.7938C220.667 44.5685 219.395 43.9278 215.741 44.1101C211.815 44.3061 207.935 46.1448 206.127 47.7196ZM299.82 65.0007L301.313 65.0331C301.303 63.8451 301.629 62.8624 302.274 62.1104C303.568 60.59 306.014 60.1718 308.977 60.9781L309.528 61.1315L309.769 60.4162C310.392 58.5838 313.694 56.6753 317.003 56.9872C318.747 57.1469 321.83 58.0746 322.967 62.4677L324.361 61.7813C323.299 57.6723 320.706 55.2231 317.066 54.8825C316.646 54.8418 316.22 54.8302 315.791 54.8515C312.795 55.0011 309.88 56.6106 308.731 58.7695C305.51 58.0173 302.888 58.617 301.309 60.4683C300.329 61.6236 299.808 63.1876 299.82 65.0007Z"/>
</mask>
<path d="M296.663 34.5605C293.611 29.424 287.134 27.0823 282.091 27.334C281.911 27.343 281.738 27.3516 281.553 27.3732C277.664 27.703 274.716 29.4869 273.171 32.3976C268.611 30.3839 264.496 31.5886 262.105 33.4517C260.429 34.765 259.342 36.5712 259.032 38.5402L260.488 39.0391C260.711 37.6585 261.548 36.3336 262.856 35.3142C265.63 33.1565 269.716 32.8991 273.262 34.655L273.827 34.9353L274.135 34.2208C275.294 31.5267 278.056 29.7973 281.696 29.4799C287.22 28.9904 293.035 31.6941 295.534 35.9L296.663 34.5605ZM287.185 25.7432C293.179 20.7186 305.858 18.8767 315.896 24.6598C320.012 27.033 325.302 31.7493 327.13 40.6853L327.393 41.9676L328.212 41.3427C331.679 38.6857 337.016 39.0116 340.624 42.101C342.664 43.8498 345.099 47.261 345.117 53.6223L345.12 54.2596L345.515 54.5689C351.149 58.9062 352.793 66.4448 349.897 74.724C345.574 87.0967 336.102 90.9335 329.968 86.7734L329.341 86.3482L329.009 87.179C323.86 99.9465 316.307 106.735 306.567 107.369C292.038 108.341 277.22 95.032 273.329 87.6467L272.591 86.2482L272.061 87.7922C267.642 100.68 257.031 102.727 251.393 99.2204L250.801 98.8552L250.463 99.6164C238.177 127.422 213.842 136.344 196.432 132.861C185.869 130.744 178.409 124.446 176.474 115.997L176.101 114.37L175.243 115.54C169.923 122.76 162.698 122.08 159.841 121.445C155.942 120.591 153.475 118.6 153.034 117.528L152.542 116.331L151.864 117.278C141.637 131.529 124.348 132.573 112.616 127.508C104.697 124.082 99.2997 117.981 98.1792 111.185L97.9101 109.546L96.9852 110.566C93.014 114.972 86.7071 115.69 81.6663 112.33C79.204 110.689 75.0188 106.674 74.7243 98.2046L74.6542 96.3163L73.5586 97.3498C63.0377 107.252 52.8499 105.391 46.158 102.094C37.8674 97.996 31.3185 89.744 30.0021 84.4263C33.5414 83.7808 36.9627 81.8581 39.2245 78.5168L38.1383 77.0452C36.0325 80.1525 32.8216 81.8961 29.5186 82.4311L29.5016 82.3703L29.4669 82.446C26.0949 82.9968 22.6225 82.2777 20.1076 80.4826L19.458 82.3616C21.8922 84.099 25.1534 84.9027 28.438 84.6318C24.1197 93.4591 17.491 92.5233 13.0722 88.9767C9.41129 86.0256 6.32426 80.3932 7.81964 75.7413L8.22683 74.4707L7.24298 74.2443C3.99268 73.4935 1.73748 71.0151 0.872488 67.2541C-0.115319 62.9646 0.904243 57.8059 3.3992 54.4201C5.06085 52.1698 8.77839 48.8875 14.9614 52.1568L15.8716 52.6419L15.9501 51.2768C16.2362 46.2739 22.3118 41.4674 26.2147 41.9964L26.7164 42.0659L26.9403 41.4296C29.4831 34.1139 35.5128 29.248 43.4939 28.1053C51.9308 26.8987 60.5487 30.3344 64.0079 36.2772L64.3445 36.8526L64.8364 36.606C69.2513 34.4322 72.279 34.6964 77.5368 42.0793L78.0199 42.7667L78.5349 42.157C84.8626 34.6729 102.634 26.4573 114.047 37.4195L114.732 38.0762L115.118 37.0699C116.745 32.8062 120.777 29.1339 125.399 27.7023C128.677 26.6874 135.096 25.9435 141.289 32.2721L141.709 32.6953L142.138 32.3038C144.44 30.1819 147.139 29.8663 149.979 31.3573C148.262 34.4821 147.946 38.0101 149.16 41.0175C146.633 34.7587 134.456 29.0531 156.679 22.1576C159.585 10.0993 180.156 18.4808 181.124 24.1209C167.325 13.0528 196.074 28.7276 195.848 27.1391C198.406 24.6755 202.117 20.3036 201.414 16.2221C200.994 13.7878 199.171 12.2461 195.986 11.6195L195.809 13.7093C198.248 14.1798 199.72 15.2414 199.964 16.6769C200.309 18.6954 198.556 21.8427 195.343 25.0381C194.669 23.1512 193.492 21.6595 192.216 21.024C193.439 18.6887 193.967 16.3798 193.75 14.2892C193.591 12.7878 193.073 11.4647 192.229 10.3923C198.163 3.56532 210.791 -1.46956 221.103 1.6801C227.853 3.73268 232.791 9.01766 235.393 16.9444L235.641 17.697L236.212 17.5533C239.414 16.7437 242.033 17.4437 243.981 19.6372C245.871 21.7637 246.574 24.7432 246.619 25.8554L246.704 27.9651L247.843 26.6539C256.189 17.0457 268.143 16.3092 276.55 18.8301C282.1 20.4984 285.371 23.2839 286.144 25.3181L286.52 26.3069L287.185 25.7432ZM70.3046 51.0932L71.1026 52.8999C74.3825 50.0589 79.9589 50.3646 82.2295 55.0301L83.4471 53.8549C81.7329 50.3295 78.6082 48.8076 75.5509 48.9601C73.6603 49.0545 71.7867 49.7855 70.3046 51.0932ZM92.6643 71.6795L94.0139 72.632C96.9653 63.9346 106.456 60.9358 115.166 65.938L115.679 66.229L116.021 65.628C118.216 61.7184 123.298 60.5517 129.704 66.7628L116.021 65.628L130.835 66.1841C131.651 61.8745 138.524 53.4543 144.122 52.4305L143.905 50.3398C138.387 51.3473 131.567 58.8436 129.732 64.298C123.199 58.4428 117.855 59.676 115.195 63.7075C105.916 58.6885 95.8852 62.1831 92.6643 71.6795ZM206.127 47.7196L206.92 49.5308C210.27 46.6451 220.41 43.4288 223.985 50.5873L222.778 48.7938C220.667 44.5685 219.395 43.9278 215.741 44.1101C211.815 44.3061 207.935 46.1448 206.127 47.7196ZM299.82 65.0007L301.313 65.0331C301.303 63.8451 301.629 62.8624 302.274 62.1104C303.568 60.59 306.014 60.1718 308.977 60.9781L309.528 61.1315L309.769 60.4162C310.392 58.5838 313.694 56.6753 317.003 56.9872C318.747 57.1469 321.83 58.0746 322.967 62.4677L324.361 61.7813C323.299 57.6723 320.706 55.2231 317.066 54.8825C316.646 54.8418 316.22 54.8302 315.791 54.8515C312.795 55.0011 309.88 56.6106 308.731 58.7695C305.51 58.0173 302.888 58.617 301.309 60.4683C300.329 61.6236 299.808 63.1876 299.82 65.0007Z" fill="#CADBEA"/>
<path d="M296.663 34.5605C293.611 29.424 287.134 27.0823 282.091 27.334C281.911 27.343 281.738 27.3516 281.553 27.3732C277.664 27.703 274.716 29.4869 273.171 32.3976C268.611 30.3839 264.496 31.5886 262.105 33.4517C260.429 34.765 259.342 36.5712 259.032 38.5402L260.488 39.0391C260.711 37.6585 261.548 36.3336 262.856 35.3142C265.63 33.1565 269.716 32.8991 273.262 34.655L273.827 34.9353L274.135 34.2208C275.294 31.5267 278.056 29.7973 281.696 29.4799C287.22 28.9904 293.035 31.6941 295.534 35.9L296.663 34.5605ZM287.185 25.7432C293.179 20.7186 305.858 18.8767 315.896 24.6598C320.012 27.033 325.302 31.7493 327.13 40.6853L327.393 41.9676L328.212 41.3427C331.679 38.6857 337.016 39.0116 340.624 42.101C342.664 43.8498 345.099 47.261 345.117 53.6223L345.12 54.2596L345.515 54.5689C351.149 58.9062 352.793 66.4448 349.897 74.724C345.574 87.0967 336.102 90.9335 329.968 86.7734L329.341 86.3482L329.009 87.179C323.86 99.9465 316.307 106.735 306.567 107.369C292.038 108.341 277.22 95.032 273.329 87.6467L272.591 86.2482L272.061 87.7922C267.642 100.68 257.031 102.727 251.393 99.2204L250.801 98.8552L250.463 99.6164C238.177 127.422 213.842 136.344 196.432 132.861C185.869 130.744 178.409 124.446 176.474 115.997L176.101 114.37L175.243 115.54C169.923 122.76 162.698 122.08 159.841 121.445C155.942 120.591 153.475 118.6 153.034 117.528L152.542 116.331L151.864 117.278C141.637 131.529 124.348 132.573 112.616 127.508C104.697 124.082 99.2997 117.981 98.1792 111.185L97.9101 109.546L96.9852 110.566C93.014 114.972 86.7071 115.69 81.6663 112.33C79.204 110.689 75.0188 106.674 74.7243 98.2046L74.6542 96.3163L73.5586 97.3498C63.0377 107.252 52.8499 105.391 46.158 102.094C37.8674 97.996 31.3185 89.744 30.0021 84.4263C33.5414 83.7808 36.9627 81.8581 39.2245 78.5168L38.1383 77.0452C36.0325 80.1525 32.8216 81.8961 29.5186 82.4311L29.5016 82.3703L29.4669 82.446C26.0949 82.9968 22.6225 82.2777 20.1076 80.4826L19.458 82.3616C21.8922 84.099 25.1534 84.9027 28.438 84.6318C24.1197 93.4591 17.491 92.5233 13.0722 88.9767C9.41129 86.0256 6.32426 80.3932 7.81964 75.7413L8.22683 74.4707L7.24298 74.2443C3.99268 73.4935 1.73748 71.0151 0.872488 67.2541C-0.115319 62.9646 0.904243 57.8059 3.3992 54.4201C5.06085 52.1698 8.77839 48.8875 14.9614 52.1568L15.8716 52.6419L15.9501 51.2768C16.2362 46.2739 22.3118 41.4674 26.2147 41.9964L26.7164 42.0659L26.9403 41.4296C29.4831 34.1139 35.5128 29.248 43.4939 28.1053C51.9308 26.8987 60.5487 30.3344 64.0079 36.2772L64.3445 36.8526L64.8364 36.606C69.2513 34.4322 72.279 34.6964 77.5368 42.0793L78.0199 42.7667L78.5349 42.157C84.8626 34.6729 102.634 26.4573 114.047 37.4195L114.732 38.0762L115.118 37.0699C116.745 32.8062 120.777 29.1339 125.399 27.7023C128.677 26.6874 135.096 25.9435 141.289 32.2721L141.709 32.6953L142.138 32.3038C144.44 30.1819 147.139 29.8663 149.979 31.3573C148.262 34.4821 147.946 38.0101 149.16 41.0175C146.633 34.7587 134.456 29.0531 156.679 22.1576C159.585 10.0993 180.156 18.4808 181.124 24.1209C167.325 13.0528 196.074 28.7276 195.848 27.1391C198.406 24.6755 202.117 20.3036 201.414 16.2221C200.994 13.7878 199.171 12.2461 195.986 11.6195L195.809 13.7093C198.248 14.1798 199.72 15.2414 199.964 16.6769C200.309 18.6954 198.556 21.8427 195.343 25.0381C194.669 23.1512 193.492 21.6595 192.216 21.024C193.439 18.6887 193.967 16.3798 193.75 14.2892C193.591 12.7878 193.073 11.4647 192.229 10.3923C198.163 3.56532 210.791 -1.46956 221.103 1.6801C227.853 3.73268 232.791 9.01766 235.393 16.9444L235.641 17.697L236.212 17.5533C239.414 16.7437 242.033 17.4437 243.981 19.6372C245.871 21.7637 246.574 24.7432 246.619 25.8554L246.704 27.9651L247.843 26.6539C256.189 17.0457 268.143 16.3092 276.55 18.8301C282.1 20.4984 285.371 23.2839 286.144 25.3181L286.52 26.3069L287.185 25.7432ZM70.3046 51.0932L71.1026 52.8999C74.3825 50.0589 79.9589 50.3646 82.2295 55.0301L83.4471 53.8549C81.7329 50.3295 78.6082 48.8076 75.5509 48.9601C73.6603 49.0545 71.7867 49.7855 70.3046 51.0932ZM92.6643 71.6795L94.0139 72.632C96.9653 63.9346 106.456 60.9358 115.166 65.938L115.679 66.229L116.021 65.628C118.216 61.7184 123.298 60.5517 129.704 66.7628L116.021 65.628L130.835 66.1841C131.651 61.8745 138.524 53.4543 144.122 52.4305L143.905 50.3398C138.387 51.3473 131.567 58.8436 129.732 64.298C123.199 58.4428 117.855 59.676 115.195 63.7075C105.916 58.6885 95.8852 62.1831 92.6643 71.6795ZM206.127 47.7196L206.92 49.5308C210.27 46.6451 220.41 43.4288 223.985 50.5873L222.778 48.7938C220.667 44.5685 219.395 43.9278 215.741 44.1101C211.815 44.3061 207.935 46.1448 206.127 47.7196ZM299.82 65.0007L301.313 65.0331C301.303 63.8451 301.629 62.8624 302.274 62.1104C303.568 60.59 306.014 60.1718 308.977 60.9781L309.528 61.1315L309.769 60.4162C310.392 58.5838 313.694 56.6753 317.003 56.9872C318.747 57.1469 321.83 58.0746 322.967 62.4677L324.361 61.7813C323.299 57.6723 320.706 55.2231 317.066 54.8825C316.646 54.8418 316.22 54.8302 315.791 54.8515C312.795 55.0011 309.88 56.6106 308.731 58.7695C305.51 58.0173 302.888 58.617 301.309 60.4683C300.329 61.6236 299.808 63.1876 299.82 65.0007Z" fill="#CADBEA"/>
<path d="M296.663 34.5605C293.611 29.424 287.134 27.0823 282.091 27.334C281.911 27.343 281.738 27.3516 281.553 27.3732C277.664 27.703 274.716 29.4869 273.171 32.3976C268.611 30.3839 264.496 31.5886 262.105 33.4517C260.429 34.765 259.342 36.5712 259.032 38.5402L260.488 39.0391C260.711 37.6585 261.548 36.3336 262.856 35.3142C265.63 33.1565 269.716 32.8991 273.262 34.655L273.827 34.9353L274.135 34.2208C275.294 31.5267 278.056 29.7973 281.696 29.4799C287.22 28.9904 293.035 31.6941 295.534 35.9L296.663 34.5605ZM287.185 25.7432C293.179 20.7186 305.858 18.8767 315.896 24.6598C320.012 27.033 325.302 31.7493 327.13 40.6853L327.393 41.9676L328.212 41.3427C331.679 38.6857 337.016 39.0116 340.624 42.101C342.664 43.8498 345.099 47.261 345.117 53.6223L345.12 54.2596L345.515 54.5689C351.149 58.9062 352.793 66.4448 349.897 74.724C345.574 87.0967 336.102 90.9335 329.968 86.7734L329.341 86.3482L329.009 87.179C323.86 99.9465 316.307 106.735 306.567 107.369C292.038 108.341 277.22 95.032 273.329 87.6467L272.591 86.2482L272.061 87.7922C267.642 100.68 257.031 102.727 251.393 99.2204L250.801 98.8552L250.463 99.6164C238.177 127.422 213.842 136.344 196.432 132.861C185.869 130.744 178.409 124.446 176.474 115.997L176.101 114.37L175.243 115.54C169.923 122.76 162.698 122.08 159.841 121.445C155.942 120.591 153.475 118.6 153.034 117.528L152.542 116.331L151.864 117.278C141.637 131.529 124.348 132.573 112.616 127.508C104.697 124.082 99.2997 117.981 98.1792 111.185L97.9101 109.546L96.9852 110.566C93.014 114.972 86.7071 115.69 81.6663 112.33C79.204 110.689 75.0188 106.674 74.7243 98.2046L74.6542 96.3163L73.5586 97.3498C63.0377 107.252 52.8499 105.391 46.158 102.094C37.8674 97.996 31.3185 89.744 30.0021 84.4263C33.5414 83.7808 36.9627 81.8581 39.2245 78.5168L38.1383 77.0452C36.0325 80.1525 32.8216 81.8961 29.5186 82.4311L29.5016 82.3703L29.4669 82.446C26.0949 82.9968 22.6225 82.2777 20.1076 80.4826L19.458 82.3616C21.8922 84.099 25.1534 84.9027 28.438 84.6318C24.1197 93.4591 17.491 92.5233 13.0722 88.9767C9.41129 86.0256 6.32426 80.3932 7.81964 75.7413L8.22683 74.4707L7.24298 74.2443C3.99268 73.4935 1.73748 71.0151 0.872488 67.2541C-0.115319 62.9646 0.904243 57.8059 3.3992 54.4201C5.06085 52.1698 8.77839 48.8875 14.9614 52.1568L15.8716 52.6419L15.9501 51.2768C16.2362 46.2739 22.3118 41.4674 26.2147 41.9964L26.7164 42.0659L26.9403 41.4296C29.4831 34.1139 35.5128 29.248 43.4939 28.1053C51.9308 26.8987 60.5487 30.3344 64.0079 36.2772L64.3445 36.8526L64.8364 36.606C69.2513 34.4322 72.279 34.6964 77.5368 42.0793L78.0199 42.7667L78.5349 42.157C84.8626 34.6729 102.634 26.4573 114.047 37.4195L114.732 38.0762L115.118 37.0699C116.745 32.8062 120.777 29.1339 125.399 27.7023C128.677 26.6874 135.096 25.9435 141.289 32.2721L141.709 32.6953L142.138 32.3038C144.44 30.1819 147.139 29.8663 149.979 31.3573C148.262 34.4821 147.946 38.0101 149.16 41.0175C146.633 34.7587 134.456 29.0531 156.679 22.1576C159.585 10.0993 180.156 18.4808 181.124 24.1209C167.325 13.0528 196.074 28.7276 195.848 27.1391C198.406 24.6755 202.117 20.3036 201.414 16.2221C200.994 13.7878 199.171 12.2461 195.986 11.6195L195.809 13.7093C198.248 14.1798 199.72 15.2414 199.964 16.6769C200.309 18.6954 198.556 21.8427 195.343 25.0381C194.669 23.1512 193.492 21.6595 192.216 21.024C193.439 18.6887 193.967 16.3798 193.75 14.2892C193.591 12.7878 193.073 11.4647 192.229 10.3923C198.163 3.56532 210.791 -1.46956 221.103 1.6801C227.853 3.73268 232.791 9.01766 235.393 16.9444L235.641 17.697L236.212 17.5533C239.414 16.7437 242.033 17.4437 243.981 19.6372C245.871 21.7637 246.574 24.7432 246.619 25.8554L246.704 27.9651L247.843 26.6539C256.189 17.0457 268.143 16.3092 276.55 18.8301C282.1 20.4984 285.371 23.2839 286.144 25.3181L286.52 26.3069L287.185 25.7432ZM70.3046 51.0932L71.1026 52.8999C74.3825 50.0589 79.9589 50.3646 82.2295 55.0301L83.4471 53.8549C81.7329 50.3295 78.6082 48.8076 75.5509 48.9601C73.6603 49.0545 71.7867 49.7855 70.3046 51.0932ZM92.6643 71.6795L94.0139 72.632C96.9653 63.9346 106.456 60.9358 115.166 65.938L115.679 66.229L116.021 65.628C118.216 61.7184 123.298 60.5517 129.704 66.7628L116.021 65.628L130.835 66.1841C131.651 61.8745 138.524 53.4543 144.122 52.4305L143.905 50.3398C138.387 51.3473 131.567 58.8436 129.732 64.298C123.199 58.4428 117.855 59.676 115.195 63.7075C105.916 58.6885 95.8852 62.1831 92.6643 71.6795ZM206.127 47.7196L206.92 49.5308C210.27 46.6451 220.41 43.4288 223.985 50.5873L222.778 48.7938C220.667 44.5685 219.395 43.9278 215.741 44.1101C211.815 44.3061 207.935 46.1448 206.127 47.7196ZM299.82 65.0007L301.313 65.0331C301.303 63.8451 301.629 62.8624 302.274 62.1104C303.568 60.59 306.014 60.1718 308.977 60.9781L309.528 61.1315L309.769 60.4162C310.392 58.5838 313.694 56.6753 317.003 56.9872C318.747 57.1469 321.83 58.0746 322.967 62.4677L324.361 61.7813C323.299 57.6723 320.706 55.2231 317.066 54.8825C316.646 54.8418 316.22 54.8302 315.791 54.8515C312.795 55.0011 309.88 56.6106 308.731 58.7695C305.51 58.0173 302.888 58.617 301.309 60.4683C300.329 61.6236 299.808 63.1876 299.82 65.0007Z" fill="#CADBEA"/>
<path d="M296.663 34.5605C293.611 29.424 287.134 27.0823 282.091 27.334C281.911 27.343 281.738 27.3516 281.553 27.3732C277.664 27.703 274.716 29.4869 273.171 32.3976C268.611 30.3839 264.496 31.5886 262.105 33.4517C260.429 34.765 259.342 36.5712 259.032 38.5402L260.488 39.0391C260.711 37.6585 261.548 36.3336 262.856 35.3142C265.63 33.1565 269.716 32.8991 273.262 34.655L273.827 34.9353L274.135 34.2208C275.294 31.5267 278.056 29.7973 281.696 29.4799C287.22 28.9904 293.035 31.6941 295.534 35.9L296.663 34.5605ZM287.185 25.7432C293.179 20.7186 305.858 18.8767 315.896 24.6598C320.012 27.033 325.302 31.7493 327.13 40.6853L327.393 41.9676L328.212 41.3427C331.679 38.6857 337.016 39.0116 340.624 42.101C342.664 43.8498 345.099 47.261 345.117 53.6223L345.12 54.2596L345.515 54.5689C351.149 58.9062 352.793 66.4448 349.897 74.724C345.574 87.0967 336.102 90.9335 329.968 86.7734L329.341 86.3482L329.009 87.179C323.86 99.9465 316.307 106.735 306.567 107.369C292.038 108.341 277.22 95.032 273.329 87.6467L272.591 86.2482L272.061 87.7922C267.642 100.68 257.031 102.727 251.393 99.2204L250.801 98.8552L250.463 99.6164C238.177 127.422 213.842 136.344 196.432 132.861C185.869 130.744 178.409 124.446 176.474 115.997L176.101 114.37L175.243 115.54C169.923 122.76 162.698 122.08 159.841 121.445C155.942 120.591 153.475 118.6 153.034 117.528L152.542 116.331L151.864 117.278C141.637 131.529 124.348 132.573 112.616 127.508C104.697 124.082 99.2997 117.981 98.1792 111.185L97.9101 109.546L96.9852 110.566C93.014 114.972 86.7071 115.69 81.6663 112.33C79.204 110.689 75.0188 106.674 74.7243 98.2046L74.6542 96.3163L73.5586 97.3498C63.0377 107.252 52.8499 105.391 46.158 102.094C37.8674 97.996 31.3185 89.744 30.0021 84.4263C33.5414 83.7808 36.9627 81.8581 39.2245 78.5168L38.1383 77.0452C36.0325 80.1525 32.8216 81.8961 29.5186 82.4311L29.5016 82.3703L29.4669 82.446C26.0949 82.9968 22.6225 82.2777 20.1076 80.4826L19.458 82.3616C21.8922 84.099 25.1534 84.9027 28.438 84.6318C24.1197 93.4591 17.491 92.5233 13.0722 88.9767C9.41129 86.0256 6.32426 80.3932 7.81964 75.7413L8.22683 74.4707L7.24298 74.2443C3.99268 73.4935 1.73748 71.0151 0.872488 67.2541C-0.115319 62.9646 0.904243 57.8059 3.3992 54.4201C5.06085 52.1698 8.77839 48.8875 14.9614 52.1568L15.8716 52.6419L15.9501 51.2768C16.2362 46.2739 22.3118 41.4674 26.2147 41.9964L26.7164 42.0659L26.9403 41.4296C29.4831 34.1139 35.5128 29.248 43.4939 28.1053C51.9308 26.8987 60.5487 30.3344 64.0079 36.2772L64.3445 36.8526L64.8364 36.606C69.2513 34.4322 72.279 34.6964 77.5368 42.0793L78.0199 42.7667L78.5349 42.157C84.8626 34.6729 102.634 26.4573 114.047 37.4195L114.732 38.0762L115.118 37.0699C116.745 32.8062 120.777 29.1339 125.399 27.7023C128.677 26.6874 135.096 25.9435 141.289 32.2721L141.709 32.6953L142.138 32.3038C144.44 30.1819 147.139 29.8663 149.979 31.3573C148.262 34.4821 147.946 38.0101 149.16 41.0175C146.633 34.7587 134.456 29.0531 156.679 22.1576C159.585 10.0993 180.156 18.4808 181.124 24.1209C167.325 13.0528 196.074 28.7276 195.848 27.1391C198.406 24.6755 202.117 20.3036 201.414 16.2221C200.994 13.7878 199.171 12.2461 195.986 11.6195L195.809 13.7093C198.248 14.1798 199.72 15.2414 199.964 16.6769C200.309 18.6954 198.556 21.8427 195.343 25.0381C194.669 23.1512 193.492 21.6595 192.216 21.024C193.439 18.6887 193.967 16.3798 193.75 14.2892C193.591 12.7878 193.073 11.4647 192.229 10.3923C198.163 3.56532 210.791 -1.46956 221.103 1.6801C227.853 3.73268 232.791 9.01766 235.393 16.9444L235.641 17.697L236.212 17.5533C239.414 16.7437 242.033 17.4437 243.981 19.6372C245.871 21.7637 246.574 24.7432 246.619 25.8554L246.704 27.9651L247.843 26.6539C256.189 17.0457 268.143 16.3092 276.55 18.8301C282.1 20.4984 285.371 23.2839 286.144 25.3181L286.52 26.3069L287.185 25.7432ZM70.3046 51.0932L71.1026 52.8999C74.3825 50.0589 79.9589 50.3646 82.2295 55.0301L83.4471 53.8549C81.7329 50.3295 78.6082 48.8076 75.5509 48.9601C73.6603 49.0545 71.7867 49.7855 70.3046 51.0932ZM92.6643 71.6795L94.0139 72.632C96.9653 63.9346 106.456 60.9358 115.166 65.938L115.679 66.229L116.021 65.628C118.216 61.7184 123.298 60.5517 129.704 66.7628L116.021 65.628L130.835 66.1841C131.651 61.8745 138.524 53.4543 144.122 52.4305L143.905 50.3398C138.387 51.3473 131.567 58.8436 129.732 64.298C123.199 58.4428 117.855 59.676 115.195 63.7075C105.916 58.6885 95.8852 62.1831 92.6643 71.6795ZM206.127 47.7196L206.92 49.5308C210.27 46.6451 220.41 43.4288 223.985 50.5873L222.778 48.7938C220.667 44.5685 219.395 43.9278 215.741 44.1101C211.815 44.3061 207.935 46.1448 206.127 47.7196ZM299.82 65.0007L301.313 65.0331C301.303 63.8451 301.629 62.8624 302.274 62.1104C303.568 60.59 306.014 60.1718 308.977 60.9781L309.528 61.1315L309.769 60.4162C310.392 58.5838 313.694 56.6753 317.003 56.9872C318.747 57.1469 321.83 58.0746 322.967 62.4677L324.361 61.7813C323.299 57.6723 320.706 55.2231 317.066 54.8825C316.646 54.8418 316.22 54.8302 315.791 54.8515C312.795 55.0011 309.88 56.6106 308.731 58.7695C305.51 58.0173 302.888 58.617 301.309 60.4683C300.329 61.6236 299.808 63.1876 299.82 65.0007Z" fill="#CADBEA"/>
<path d="M296.663 34.5605L297.044 34.881L297.275 34.6071L297.094 34.3017L296.663 34.5605ZM281.553 27.3732L281.59 27.8716L281.598 27.871L281.606 27.87L281.553 27.3732ZM273.171 32.3976L272.966 32.8556L273.392 33.0438L273.612 32.629L273.171 32.3976ZM262.105 33.4517L261.801 33.0581L261.8 33.0589L262.105 33.4517ZM259.032 38.5402L258.538 38.4671L258.474 38.8791L258.866 39.0136L259.032 38.5402ZM260.488 39.0391L260.322 39.5126L260.886 39.7058L260.982 39.1143L260.488 39.0391ZM262.856 35.3142L262.552 34.9204L262.552 34.9206L262.856 35.3142ZM273.262 34.655L273.487 34.2064L273.487 34.2063L273.262 34.655ZM273.827 34.9353L273.602 35.384L274.075 35.6185L274.286 35.1296L273.827 34.9353ZM274.135 34.2208L274.594 34.4151L274.594 34.4149L274.135 34.2208ZM281.696 29.4799L281.734 29.9783L281.735 29.9782L281.696 29.4799ZM295.534 35.9L295.103 36.1587L295.46 36.759L295.914 36.2205L295.534 35.9ZM287.185 25.7432L286.866 25.361L286.864 25.3628L287.185 25.7432ZM315.896 24.6598L316.149 24.2257L316.148 24.2257L315.896 24.6598ZM327.13 40.6853L326.64 40.7901L326.64 40.7905L327.13 40.6853ZM327.393 41.9676L326.903 42.0728L327.062 42.846L327.694 42.3643L327.393 41.9676ZM328.212 41.3427L328.513 41.7395L328.513 41.7388L328.212 41.3427ZM340.624 42.101L340.951 41.7197L340.951 41.7195L340.624 42.101ZM345.117 53.6223L344.617 53.6286L344.617 53.629L345.117 53.6223ZM345.12 54.2596L344.62 54.2664L344.621 54.5072L344.81 54.6549L345.12 54.2596ZM345.515 54.5689L345.205 54.9642L345.208 54.9665L345.515 54.5689ZM349.897 74.724L349.426 74.5628L349.426 74.563L349.897 74.724ZM329.968 86.7734L329.684 87.1882L329.685 87.1884L329.968 86.7734ZM329.341 86.3482L329.625 85.9333L329.11 85.5841L328.878 86.1662L329.341 86.3482ZM329.009 87.179L329.472 87.3624L329.473 87.361L329.009 87.179ZM306.567 107.369L306.54 106.87L306.539 106.87L306.567 107.369ZM273.329 87.6467L273.771 87.41L273.771 87.4098L273.329 87.6467ZM272.591 86.2482L273.033 86.0113L272.495 84.9916L272.118 86.0899L272.591 86.2482ZM272.061 87.7922L271.589 87.6339L271.589 87.6339L272.061 87.7922ZM251.393 99.2204L251.66 98.7948L251.658 98.7939L251.393 99.2204ZM250.801 98.8552L251.066 98.4287L250.579 98.1279L250.345 98.6558L250.801 98.8552ZM250.463 99.6164L250.007 99.417L250.006 99.4178L250.463 99.6164ZM196.432 132.861L196.33 133.352L196.33 133.352L196.432 132.861ZM176.474 115.997L176.961 115.88L176.961 115.88L176.474 115.997ZM176.101 114.37L176.588 114.254L176.345 113.195L175.699 114.077L176.101 114.37ZM175.243 115.54L175.644 115.834L175.645 115.833L175.243 115.54ZM159.841 121.445L159.954 120.957L159.952 120.956L159.841 121.445ZM153.034 117.528L153.497 117.334L153.497 117.334L153.034 117.528ZM152.542 116.331L153.005 116.137L152.664 115.308L152.137 116.042L152.542 116.331ZM151.864 117.278L152.269 117.567L152.269 117.567L151.864 117.278ZM112.616 127.508L112.414 127.967L112.414 127.967L112.616 127.508ZM98.1792 111.185L97.686 111.271L97.686 111.271L98.1792 111.185ZM97.9101 109.546L98.4033 109.46L98.2366 108.444L97.5413 109.212L97.9101 109.546ZM96.9852 110.566L96.6164 110.232L96.6155 110.233L96.9852 110.566ZM81.6663 112.33L81.3865 112.748L81.3866 112.748L81.6663 112.33ZM74.7243 98.2046L75.2238 98.1824L75.2238 98.1812L74.7243 98.2046ZM74.6542 96.3163L75.1536 96.2929L75.113 95.1994L74.3132 95.9538L74.6542 96.3163ZM73.5586 97.3498L73.8991 97.7126L73.8995 97.7122L73.5586 97.3498ZM46.158 102.094L45.9332 102.543L45.9338 102.543L46.158 102.094ZM30.0021 84.4263L29.9171 83.9342L29.3881 84.0306L29.5169 84.5509L30.0021 84.4263ZM39.2245 78.5168L39.6374 78.7946L39.8366 78.5004L39.6275 78.2171L39.2245 78.5168ZM38.1383 77.0452L38.5413 76.7455L38.1237 76.1797L37.7255 76.7672L38.1383 77.0452ZM29.5186 82.4311L29.0371 82.57L29.156 82.9958L29.5938 82.9249L29.5186 82.4311ZM29.5016 82.3703L29.9831 82.2314L29.6174 80.921L29.0476 82.1655L29.5016 82.3703ZM29.4669 82.446L29.5428 82.9397L29.8085 82.8963L29.9209 82.6508L29.4669 82.446ZM20.1076 80.4826L20.4004 80.0744L19.8559 79.6857L19.6355 80.3231L20.1076 80.4826ZM19.458 82.3616L18.9859 82.2021L18.8639 82.5547L19.1652 82.7698L19.458 82.3616ZM28.438 84.6318L28.8864 84.8483L29.2713 84.0616L28.4017 84.1333L28.438 84.6318ZM13.0722 88.9767L12.7564 89.3674L12.7572 89.3681L13.0722 88.9767ZM7.81964 75.7413L8.29526 75.8903L8.2954 75.8899L7.81964 75.7413ZM8.22683 74.4707L8.70262 74.6193L8.86781 74.1039L8.3433 73.9832L8.22683 74.4707ZM7.24298 74.2443L7.12617 74.7317L7.12654 74.7318L7.24298 74.2443ZM0.872488 67.2541L1.35959 67.1375L1.35955 67.1373L0.872488 67.2541ZM3.3992 54.4201L2.99827 54.1253L2.99799 54.1257L3.3992 54.4201ZM14.9614 52.1568L15.1996 51.7148L15.1982 51.7141L14.9614 52.1568ZM15.8716 52.6419L15.6334 53.084L16.3253 53.4527L16.3706 52.6659L15.8716 52.6419ZM15.9501 51.2768L16.4491 51.3007L16.4491 51.3005L15.9501 51.2768ZM26.2147 41.9964L26.2879 41.5009L26.2864 41.5007L26.2147 41.9964ZM26.7164 42.0659L26.6432 42.5614L27.0505 42.6179L27.1877 42.228L26.7164 42.0659ZM26.9403 41.4296L27.4115 41.5918L27.4122 41.5899L26.9403 41.4296ZM43.4939 28.1053L43.4279 27.6101L43.4278 27.6101L43.4939 28.1053ZM64.0079 36.2772L63.5755 36.5321L63.576 36.533L64.0079 36.2772ZM64.3445 36.8526L63.9125 37.1084L64.1468 37.509L64.5648 37.2994L64.3445 36.8526ZM64.8364 36.606L64.6193 36.1576L64.616 36.1592L64.8364 36.606ZM77.5368 42.0793L77.9465 41.7889L77.9447 41.7864L77.5368 42.0793ZM78.0199 42.7667L77.6102 43.0571L77.9806 43.5842L78.4002 43.0875L78.0199 42.7667ZM78.5349 42.157L78.1547 41.836L78.1546 41.8362L78.5349 42.157ZM114.047 37.4195L113.699 37.782L113.699 37.7823L114.047 37.4195ZM114.732 38.0762L114.384 38.439L114.927 38.9591L115.198 38.2515L114.732 38.0762ZM115.118 37.0699L115.584 37.2452L115.585 37.2444L115.118 37.0699ZM125.399 27.7023L125.256 27.2246L125.256 27.2246L125.399 27.7023ZM141.289 32.2721L140.93 32.6239L140.933 32.6265L141.289 32.2721ZM141.709 32.6953L141.353 33.0496L141.689 33.388L142.045 33.0631L141.709 32.6953ZM142.138 32.3038L142.473 32.6716L142.474 32.6703L142.138 32.3038ZM149.979 31.3573L150.416 31.595L150.661 31.1486L150.214 30.9138L149.979 31.3573ZM156.679 22.1576L156.822 22.6352L157.097 22.55L157.164 22.2705L156.679 22.1576ZM181.124 24.1209L180.809 24.5124L181.842 25.3403L181.617 24.0316L181.124 24.1209ZM195.848 27.1391L195.503 26.7803L195.317 26.9598L195.353 27.2144L195.848 27.1391ZM201.414 16.2221L201.906 16.1324L201.906 16.1323L201.414 16.2221ZM195.986 11.6195L196.087 11.1286L195.536 11.0202L195.488 11.582L195.986 11.6195ZM195.809 13.7093L195.311 13.6718L195.274 14.1163L195.71 14.2005L195.809 13.7093ZM199.964 16.6769L199.471 16.7652L199.471 16.7659L199.964 16.6769ZM195.343 25.0381L194.872 25.2104L195.135 25.9467L195.693 25.3913L195.343 25.0381ZM192.216 21.024L191.774 20.7951L191.537 21.2468L191.99 21.4723L192.216 21.024ZM193.75 14.2892L194.247 14.2326L194.247 14.2317L193.75 14.2892ZM192.229 10.3923L191.854 10.066L191.581 10.3801L191.836 10.7041L192.229 10.3923ZM221.103 1.6801L220.953 2.15866L220.954 2.15883L221.103 1.6801ZM235.393 16.9444L234.918 17.1046L234.918 17.1051L235.393 16.9444ZM235.641 17.697L235.166 17.8577L235.31 18.2947L235.758 18.182L235.641 17.697ZM236.212 17.5533L236.33 18.0384L236.33 18.0382L236.212 17.5533ZM243.981 19.6372L243.606 19.9715L243.606 19.9717L243.981 19.6372ZM246.704 27.9651L246.204 27.99L246.255 29.2403L247.079 28.2913L246.704 27.9651ZM247.843 26.6539L248.219 26.9801L248.219 26.98L247.843 26.6539ZM276.55 18.8301L276.698 18.3509L276.698 18.3509L276.55 18.8301ZM286.144 25.3181L285.676 25.4997L285.676 25.5L286.144 25.3181ZM286.52 26.3069L286.053 26.4889L286.302 27.1441L286.841 26.6873L286.52 26.3069ZM70.3046 51.0932L69.9762 50.7194L69.6991 50.9638L69.8472 51.2991L70.3046 51.0932ZM71.1026 52.8999L70.6452 53.1059L70.9163 53.7197L71.4276 53.2768L71.1026 52.8999ZM82.2295 55.0301L81.7798 55.2527L82.0789 55.8672L82.5747 55.3886L82.2295 55.0301ZM83.4471 53.8549L83.7922 54.2133L84.0557 53.959L83.8969 53.6325L83.4471 53.8549ZM92.6643 71.6795L92.1912 71.5228L92.0715 71.8759L92.3737 72.0892L92.6643 71.6795ZM94.0139 72.632L93.7233 73.0418L94.2702 73.4278L94.487 72.7888L94.0139 72.632ZM115.166 65.938L114.914 66.3725L114.916 66.3739L115.166 65.938ZM115.679 66.229L115.43 66.6649L115.864 66.9111L116.113 66.4731L115.679 66.229ZM129.704 66.7628L129.658 67.2614L131.06 67.3776L130.053 66.402L129.704 66.7628ZM130.835 66.1841L130.812 66.684L131.245 66.7002L131.326 66.2726L130.835 66.1841ZM144.122 52.4305L144.208 52.9226L144.668 52.8384L144.619 52.374L144.122 52.4305ZM143.905 50.3398L144.402 50.2833L144.347 49.7516L143.82 49.8478L143.905 50.3398ZM129.732 64.298L129.397 64.6721L129.962 65.1784L130.206 64.4535L129.732 64.298ZM115.195 63.7075L114.954 64.1481L115.357 64.3659L115.611 63.9804L115.195 63.7075ZM206.127 47.7196L205.801 47.3437L205.522 47.5871L205.669 47.924L206.127 47.7196ZM206.92 49.5308L206.462 49.7351L206.731 50.3503L207.244 49.9086L206.92 49.5308ZM223.985 50.5873L223.57 50.8696L224.433 50.3602L223.985 50.5873ZM222.778 48.7938L222.33 49.0209L222.345 49.0495L222.362 49.076L222.778 48.7938ZM299.82 65.0007L299.321 65.0088L299.324 65.4903L299.805 65.5008L299.82 65.0007ZM301.313 65.0331L301.297 65.5332L301.817 65.5445L301.813 65.0241L301.313 65.0331ZM302.274 62.1104L302.652 62.4344L302.654 62.4326L302.274 62.1104ZM308.977 60.9781L309.115 60.496L309.112 60.4953L308.977 60.9781ZM309.528 61.1315L309.39 61.6136L309.849 61.7411L310.002 61.2873L309.528 61.1315ZM309.769 60.4162L309.296 60.2593L309.296 60.2605L309.769 60.4162ZM317.003 56.9872L316.951 57.4852L316.952 57.4854L317.003 56.9872ZM322.967 62.4677L322.483 62.5975L322.636 63.1864L323.184 62.9161L322.967 62.4677ZM324.361 61.7813L324.578 62.2297L324.947 62.0479L324.845 61.6517L324.361 61.7813ZM317.066 54.8825L317.013 55.3804L317.015 55.3806L317.066 54.8825ZM308.731 58.7695L308.613 59.2567L308.989 59.3445L309.172 59.0014L308.731 58.7695ZM301.309 60.4683L300.93 60.1457L300.929 60.1466L301.309 60.4683ZM297.094 34.3017C293.923 28.9675 287.246 26.5761 282.071 26.8344L282.111 27.8336C287.023 27.5885 293.298 29.8805 296.233 34.8192L297.094 34.3017ZM282.071 26.8344C281.893 26.8433 281.704 26.8526 281.5 26.8763L281.606 27.87C281.772 27.8507 281.929 27.8427 282.111 27.8336L282.071 26.8344ZM281.515 26.8748C277.491 27.2161 274.371 29.0752 272.73 32.1663L273.612 32.629C275.061 29.8987 277.838 28.1899 281.59 27.8716L281.515 26.8748ZM273.376 31.9397C268.633 29.8449 264.324 31.092 261.801 33.0581L262.41 33.8452C264.669 32.0852 268.589 30.9228 272.966 32.8556L273.376 31.9397ZM261.8 33.0589C260.029 34.4461 258.869 36.3638 258.538 38.4671L259.526 38.6133C259.814 36.7787 260.829 35.0839 262.411 33.8444L261.8 33.0589ZM258.866 39.0136L260.322 39.5126L260.654 38.5657L259.198 38.0668L258.866 39.0136ZM260.982 39.1143C261.181 37.8807 261.936 36.6628 263.161 35.7078L262.552 34.9206C261.161 36.0044 260.241 37.4364 259.995 38.964L260.982 39.1143ZM263.161 35.708C265.758 33.6877 269.633 33.4183 273.037 35.1038L273.487 34.2063C269.799 32.3799 265.502 32.6253 262.552 34.9204L263.161 35.708ZM273.037 35.1037L273.602 35.384L274.052 34.4866L273.487 34.2064L273.037 35.1037ZM274.286 35.1296L274.594 34.4151L273.676 34.0265L273.369 34.741L274.286 35.1296ZM274.594 34.4149C275.66 31.9375 278.224 30.2843 281.734 29.9783L281.657 28.9816C277.888 29.3103 274.929 31.116 273.676 34.0266L274.594 34.4149ZM281.735 29.9782C287.099 29.5029 292.716 32.1404 295.103 36.1587L295.964 35.6413C293.354 31.2479 287.341 28.4779 281.656 28.9817L281.735 29.9782ZM295.914 36.2205L297.044 34.881L296.283 34.24L295.153 35.5795L295.914 36.2205ZM287.504 26.1254C290.399 23.6981 294.958 22.0078 300.054 21.6476C305.143 21.2879 310.721 22.2582 315.644 25.0939L316.148 24.2257C311.033 21.2783 305.252 20.278 299.994 20.6497C294.743 21.0207 289.965 22.7637 286.866 25.361L287.504 26.1254ZM315.643 25.0939C319.669 27.4148 324.847 32.0255 326.64 40.7901L327.619 40.5804C325.757 31.4731 320.355 26.6511 316.149 24.2257L315.643 25.0939ZM326.64 40.7905L326.903 42.0728L327.883 41.8624L327.619 40.58L326.64 40.7905ZM327.694 42.3643L328.513 41.7395L327.911 40.946L327.092 41.5708L327.694 42.3643ZM328.513 41.7388C331.767 39.2452 336.842 39.5243 340.297 42.4824L340.951 41.7195C337.189 38.4988 331.591 38.1262 327.911 40.9466L328.513 41.7388ZM340.297 42.4822C342.229 44.1389 344.6 47.4141 344.617 53.6286L345.617 53.6161C345.598 47.1079 343.099 43.5608 340.951 41.7197L340.297 42.4822ZM344.617 53.629L344.62 54.2664L345.619 54.2529L345.617 53.6156L344.617 53.629ZM344.81 54.6549L345.205 54.9642L345.825 54.1737L345.43 53.8644L344.81 54.6549ZM345.208 54.9665C350.629 59.1394 352.271 66.4285 349.426 74.5628L350.369 74.8853C353.315 66.4611 351.67 58.6729 345.822 54.1713L345.208 54.9665ZM349.426 74.563C347.295 80.6605 343.916 84.5968 340.378 86.5088C336.846 88.4172 333.146 88.3217 330.251 86.3584L329.685 87.1884C332.924 89.3852 337.027 89.4513 340.846 87.3882C344.657 85.3287 348.176 81.1603 350.369 74.8851L349.426 74.563ZM330.251 86.3586L329.625 85.9333L329.058 86.763L329.684 87.1882L330.251 86.3586ZM328.878 86.1662L328.545 86.9971L329.473 87.361L329.805 86.5301L328.878 86.1662ZM328.546 86.9956C323.436 99.6673 316.009 106.253 306.54 106.87L306.595 107.868C316.604 107.217 324.285 100.226 329.472 87.3624L328.546 86.9956ZM306.539 106.87C299.43 107.346 292.204 104.325 286.244 100.229C280.283 96.1309 275.67 91.0128 273.771 87.41L272.886 87.8834C274.879 91.666 279.621 96.8951 285.673 101.055C291.727 105.216 299.175 108.365 306.596 107.868L306.539 106.87ZM273.771 87.4098L273.033 86.0113L272.148 86.4852L272.886 87.8836L273.771 87.4098ZM272.118 86.0899L271.589 87.6339L272.534 87.9506L273.063 86.4066L272.118 86.0899ZM271.589 87.6339C267.253 100.278 256.972 102.098 251.66 98.7948L251.126 99.646C257.091 103.355 268.031 101.081 272.534 87.9505L271.589 87.6339ZM251.658 98.7939L251.066 98.4287L250.536 99.2817L251.128 99.6469L251.658 98.7939ZM250.345 98.6558L250.007 99.417L250.92 99.8158L251.257 99.0545L250.345 98.6558ZM250.006 99.4178C237.811 127.017 213.704 135.805 196.535 132.371L196.33 133.352C213.981 136.882 238.542 127.827 250.92 99.815L250.006 99.4178ZM196.535 132.371C186.105 130.281 178.841 124.089 176.961 115.88L175.986 116.113C177.977 124.803 185.632 131.208 196.33 133.352L196.535 132.371ZM176.961 115.88L176.588 114.254L175.614 114.486L175.986 116.113L176.961 115.88ZM175.699 114.077L174.841 115.246L175.645 115.833L176.503 114.664L175.699 114.077ZM174.841 115.245C169.697 122.227 162.732 121.574 159.954 120.957L159.728 121.933C162.664 122.586 170.148 123.293 175.644 115.834L174.841 115.245ZM159.952 120.956C158.059 120.542 156.522 119.853 155.412 119.146C154.857 118.792 154.414 118.437 154.089 118.115C153.757 117.787 153.571 117.515 153.497 117.334L152.572 117.722C152.718 118.077 153.006 118.457 153.382 118.83C153.765 119.209 154.266 119.606 154.87 119.991C156.078 120.761 157.724 121.494 159.73 121.934L159.952 120.956ZM153.497 117.334L153.005 116.137L152.08 116.526L152.572 117.722L153.497 117.334ZM152.137 116.042L151.459 116.989L152.269 117.567L152.947 116.62L152.137 116.042ZM151.459 116.989C141.407 130.996 124.398 132.047 112.817 127.048L112.414 127.967C124.299 133.098 141.867 132.062 152.269 117.567L151.459 116.989ZM112.818 127.048C105.009 123.67 99.7583 117.686 98.6723 111.099L97.686 111.271C98.8411 118.277 104.386 124.494 112.414 127.967L112.818 127.048ZM98.6724 111.1L98.4033 109.46L97.4169 109.631L97.686 111.271L98.6724 111.1ZM97.5413 109.212L96.6164 110.232L97.3539 110.901L98.2789 109.88L97.5413 109.212ZM96.6155 110.233C92.82 114.444 86.7918 115.142 81.9461 111.913L81.3866 112.748C86.6224 116.237 93.208 115.5 97.3548 110.9L96.6155 110.233ZM81.9461 111.913C79.589 110.342 75.5116 106.462 75.2238 98.1824L74.2249 98.2268C74.5259 106.887 78.819 111.036 81.3865 112.748L81.9461 111.913ZM75.2238 98.1812L75.1536 96.2929L74.1547 96.3397L74.2249 98.228L75.2238 98.1812ZM74.3132 95.9538L73.2177 96.9873L73.8995 97.7122L74.9951 96.6788L74.3132 95.9538ZM73.2181 96.9869C68.0342 101.866 62.9632 103.822 58.389 104.173C53.805 104.524 49.6751 103.267 46.3822 101.645L45.9338 102.543C49.3328 104.218 53.6426 105.539 58.4558 105.17C63.2787 104.8 68.562 102.736 73.8991 97.7126L73.2181 96.9869ZM46.3827 101.645C42.3053 99.6295 38.6452 96.5859 35.8419 93.3857C33.0316 90.1775 31.1192 86.8545 30.4873 84.3016L29.5169 84.5509C30.2013 87.3157 32.2216 90.7776 35.0875 94.0493C37.9604 97.3289 41.7201 100.46 45.9332 102.543L46.3827 101.645ZM30.0871 84.9184C33.7419 84.2518 37.2897 82.2628 39.6374 78.7946L38.8116 78.2389C36.6357 81.4533 33.341 83.3097 29.9171 83.9342L30.0871 84.9184ZM39.6275 78.2171L38.5413 76.7455L37.7353 77.3449L38.8215 78.8165L39.6275 78.2171ZM37.7255 76.7672C35.7084 79.7435 32.6289 81.4214 29.4434 81.9373L29.5938 82.9249C33.0143 82.3709 36.3565 80.5615 38.551 77.3233L37.7255 76.7672ZM30 82.2923L29.9831 82.2314L29.0201 82.5091L29.0371 82.57L30 82.2923ZM29.0476 82.1655L29.0129 82.2413L29.9209 82.6508L29.9556 82.575L29.0476 82.1655ZM29.391 81.9524C26.133 82.4845 22.7966 81.7847 20.4004 80.0744L19.8148 80.8908C22.4484 82.7706 26.0568 83.5091 29.5428 82.9397L29.391 81.9524ZM19.6355 80.3231L18.9859 82.2021L19.9301 82.5211L20.5798 80.6421L19.6355 80.3231ZM19.1652 82.7698C21.7069 84.5838 25.0882 85.4096 28.4743 85.1303L28.4017 84.1333C25.2185 84.3958 22.0776 83.6141 19.7508 81.9534L19.1652 82.7698ZM27.9895 84.4153C25.8793 88.729 23.2603 90.5566 20.7209 90.9502C18.1557 91.3477 15.5304 90.3055 13.3871 88.5853L12.7572 89.3681C15.0328 91.1945 17.9312 92.3934 20.8646 91.9388C23.8239 91.4801 26.6784 89.362 28.8864 84.8483L27.9895 84.4153ZM13.3879 88.5859C11.618 87.1592 9.97991 85.0764 8.9697 82.7908C7.95831 80.5026 7.59712 78.0622 8.29526 75.8903L7.34402 75.5922C6.54678 78.0723 6.98143 80.7741 8.05494 83.2028C9.12959 85.6342 10.8655 87.8431 12.7564 89.3674L13.3879 88.5859ZM8.2954 75.8899L8.70262 74.6193L7.75108 74.3221L7.34388 75.5926L8.2954 75.8899ZM8.3433 73.9832L7.35942 73.7567L7.12654 74.7318L8.11039 74.9583L8.3433 73.9832ZM7.35982 73.7568C4.32719 73.0563 2.19038 70.7498 1.35959 67.1375L0.385386 67.3708C1.28458 71.2805 3.65814 73.9307 7.12617 74.7317L7.35982 73.7568ZM1.35955 67.1373C0.402684 62.9821 1.3976 57.9752 3.80041 54.7145L2.99799 54.1257C0.410854 57.6366 -0.633291 62.9471 0.385422 67.3709L1.35955 67.1373ZM3.80012 54.7149C4.59904 53.6329 5.87029 52.335 7.65116 51.6887C9.41102 51.05 11.7399 51.0214 14.7247 52.5996L15.1982 51.7141C11.9999 50.0229 9.37852 50.0008 7.31843 50.7485C5.27935 51.4886 3.86101 52.9569 2.99827 54.1253L3.80012 54.7149ZM14.7232 52.5989L15.6334 53.084L16.1098 52.1999L15.1996 51.7148L14.7232 52.5989ZM16.3706 52.6659L16.4491 51.3007L15.4512 51.2528L15.3726 52.618L16.3706 52.6659ZM16.4491 51.3005C16.5816 48.9828 18.069 46.6477 20.0501 44.9398C22.0418 43.2228 24.3953 42.2552 26.1429 42.4921L26.2864 41.5007C24.1312 41.2085 21.4954 42.3797 19.402 44.1844C17.2981 45.9982 15.6047 48.5678 15.4511 51.253L16.4491 51.3005ZM26.1414 42.4919L26.6432 42.5614L26.7896 41.5704L26.2879 41.5009L26.1414 42.4919ZM27.1877 42.228L27.4115 41.5918L26.4691 41.2675L26.2452 41.9038L27.1877 42.228ZM27.4122 41.5899C29.8898 34.4617 35.7563 29.7177 43.56 28.6004L43.4278 27.6101C35.2693 28.7782 29.0764 33.7661 26.4684 41.2694L27.4122 41.5899ZM43.5599 28.6004C51.8544 27.4142 60.244 30.8088 63.5755 36.5321L64.4404 36.0223C60.8534 29.86 52.0072 26.3831 43.4279 27.6101L43.5599 28.6004ZM63.576 36.533L63.9125 37.1084L64.7764 36.5969L64.4399 36.0215L63.576 36.533ZM64.5648 37.2994L65.0568 37.0528L64.616 36.1592L64.124 36.4058L64.5648 37.2994ZM65.0535 37.0544C67.2198 35.9878 68.9225 35.5823 70.6954 36.2291C72.5113 36.8915 74.509 38.6935 77.1289 42.3723L77.9447 41.7864C75.3067 38.0823 73.1617 36.0607 71.0456 35.2887C68.8865 34.5011 66.8678 35.0504 64.6193 36.1576L65.0535 37.0544ZM77.1271 42.3698L77.6102 43.0571L78.4296 42.4763L77.9465 41.7889L77.1271 42.3698ZM78.4002 43.0875L78.9153 42.4778L78.1546 41.8362L77.6395 42.4459L78.4002 43.0875ZM78.9152 42.478C82.0048 38.8237 87.9335 34.9527 94.4976 33.3569C101.047 31.7648 108.15 32.4521 113.699 37.782L114.395 37.057C108.531 31.4246 101.042 30.7388 94.2705 32.3849C87.5137 34.0275 81.3927 38.0063 78.1547 41.836L78.9152 42.478ZM113.699 37.7823L114.384 38.439L115.079 37.7134L114.394 37.0566L113.699 37.7823ZM115.198 38.2515L115.584 37.2452L114.652 36.8945L114.266 37.9008L115.198 38.2515ZM115.585 37.2444C117.152 33.1362 121.059 29.569 125.543 28.1801L125.256 27.2246C120.496 28.6988 116.338 32.4762 114.651 36.8954L115.585 37.2444ZM125.543 28.1801C128.702 27.2019 134.906 26.4672 140.93 32.6239L141.648 31.9203C135.286 25.4197 128.652 26.1729 125.256 27.2246L125.543 28.1801ZM140.933 32.6265L141.353 33.0496L142.066 32.3409L141.645 31.9178L140.933 32.6265ZM142.045 33.0631L142.473 32.6716L141.802 31.936L141.374 32.3275L142.045 33.0631ZM142.474 32.6703C143.56 31.6697 144.715 31.1157 145.911 30.9724C147.11 30.8289 148.394 31.0922 149.743 31.8007L150.214 30.9138C148.724 30.1314 147.239 29.807 145.802 29.979C144.363 30.1513 143.017 30.816 141.801 31.9373L142.474 32.6703ZM149.541 31.1195C147.761 34.3602 147.419 38.0458 148.697 41.2088L149.624 40.8262C148.472 37.9744 148.763 34.6041 150.416 31.595L149.541 31.1195ZM149.624 40.8262C148.961 39.1847 147.671 37.5895 146.543 36.0959C145.382 34.5577 144.395 33.1317 144.129 31.7285C144 31.046 144.043 30.3745 144.328 29.6946C144.615 29.0089 145.162 28.2824 146.089 27.5183C147.954 25.9805 151.283 24.3542 156.822 22.6352L156.535 21.6799C150.963 23.4087 147.48 25.0815 145.458 26.7485C144.441 27.5867 143.774 28.439 143.407 29.3153C143.037 30.1975 142.985 31.0713 143.147 31.9241C143.463 33.5917 144.606 35.1965 145.744 36.7039C146.916 38.2558 148.096 39.7208 148.697 41.2088L149.624 40.8262ZM157.164 22.2705C157.849 19.4297 159.552 17.8237 161.749 17.0562C163.978 16.2773 166.748 16.3547 169.512 16.9899C172.269 17.6235 174.967 18.8002 177.027 20.1576C178.057 20.8362 178.915 21.5521 179.54 22.2567C180.17 22.967 180.532 23.6326 180.632 24.2103L181.617 24.0316C181.474 23.1993 180.982 22.3691 180.29 21.5886C179.593 20.8024 178.663 20.0323 177.582 19.3204C175.422 17.8968 172.614 16.6742 169.744 16.0147C166.881 15.3568 163.903 15.2472 161.428 16.112C158.92 16.9881 156.961 18.8563 156.193 22.0447L157.164 22.2705ZM181.439 23.7294C179.715 22.3463 178.688 21.4067 178.187 20.813C178.064 20.6669 177.981 20.5519 177.93 20.4649C177.874 20.372 177.871 20.339 177.873 20.3522C177.877 20.3818 177.876 20.4856 177.789 20.5778C177.722 20.6494 177.662 20.6475 177.704 20.6413C177.791 20.6283 177.996 20.641 178.353 20.7238C178.692 20.8024 179.115 20.9312 179.61 21.1035C180.6 21.4477 181.84 21.9522 183.195 22.5351C185.921 23.7069 189.024 25.1552 191.498 26.2397C192.722 26.7763 193.789 27.2224 194.547 27.4845C194.919 27.6131 195.251 27.7098 195.5 27.7416C195.61 27.7557 195.786 27.7696 195.953 27.7086C196.049 27.6737 196.174 27.6025 196.261 27.4633C196.349 27.3214 196.358 27.1737 196.343 27.0639L195.353 27.2144C195.344 27.1542 195.346 27.0478 195.414 26.939C195.481 26.8329 195.571 26.7867 195.619 26.769C195.692 26.7426 195.721 26.76 195.636 26.7492C195.496 26.7314 195.247 26.665 194.881 26.5386C194.165 26.2908 193.13 25.8594 191.906 25.3227C189.485 24.2609 186.306 22.78 183.597 21.6153C182.236 21.0299 180.97 20.5141 179.947 20.1581C179.435 19.9803 178.975 19.839 178.587 19.7491C178.218 19.6633 177.854 19.6089 177.566 19.6518C177.42 19.6735 177.221 19.7303 177.066 19.894C176.892 20.0783 176.857 20.3077 176.883 20.4989C176.907 20.6738 176.984 20.8385 177.069 20.9823C177.158 21.1318 177.277 21.2922 177.421 21.463C177.99 22.1368 179.084 23.1285 180.809 24.5124L181.439 23.7294ZM196.192 27.498C197.487 26.2513 199.089 24.5077 200.28 22.544C201.467 20.5885 202.288 18.3465 201.906 16.1324L200.921 16.3117C201.243 18.1792 200.56 20.1639 199.427 22.0307C198.3 23.8892 196.767 25.5634 195.503 26.7803L196.192 27.498ZM201.906 16.1323C201.677 14.8046 201.059 13.7054 200.062 12.8598C199.072 12.0213 197.734 11.4526 196.087 11.1286L195.885 12.1104C197.423 12.413 198.588 12.9285 199.411 13.626C200.226 14.3165 200.73 15.2053 200.921 16.3118L201.906 16.1323ZM195.488 11.582L195.311 13.6718L196.307 13.7468L196.484 11.657L195.488 11.582ZM195.71 14.2005C198.1 14.6618 199.283 15.6537 199.471 16.7652L200.457 16.5886C200.158 14.8291 198.395 13.6979 195.908 13.2181L195.71 14.2005ZM199.471 16.7659C199.615 17.6086 199.327 18.776 198.551 20.1768C197.784 21.5626 196.575 23.1107 194.992 24.685L195.693 25.3913C197.323 23.7701 198.598 22.1469 199.424 20.6555C200.242 19.1792 200.658 17.7636 200.457 16.5879L199.471 16.7659ZM195.813 24.8659C195.113 22.9032 193.869 21.2862 192.442 20.5757L191.99 21.4723C193.116 22.0328 194.225 23.3991 194.872 25.2104L195.813 24.8659ZM192.658 21.2529C193.916 18.852 194.477 16.4438 194.247 14.2326L193.253 14.3457C193.458 16.3159 192.963 18.5253 191.774 20.7951L192.658 21.2529ZM194.247 14.2317C194.079 12.6467 193.53 11.2331 192.623 10.0804L191.836 10.7041C192.616 11.6962 193.102 12.9289 193.253 14.3466L194.247 14.2317ZM192.605 10.7185C195.502 7.38509 200.06 4.4647 205.177 2.76969C210.293 1.07527 215.919 0.621072 220.953 2.15866L221.254 1.20153C215.975 -0.410557 210.132 0.0778761 204.871 1.82021C199.613 3.56197 194.89 6.5725 191.854 10.066L192.605 10.7185ZM220.954 2.15883C227.519 4.15549 232.356 9.29864 234.918 17.1046L235.868 16.7841C233.226 8.73668 228.186 3.30986 221.253 1.20136L220.954 2.15883ZM234.918 17.1051L235.166 17.8577L236.116 17.5362L235.868 16.7837L234.918 17.1051ZM235.758 18.182L236.33 18.0384L236.095 17.0682L235.524 17.2119L235.758 18.182ZM236.33 18.0382C239.379 17.2674 241.798 17.9356 243.606 19.9715L244.356 19.3029C242.268 16.9518 239.45 16.2199 236.094 17.0684L236.33 18.0382ZM243.606 19.9717C244.498 20.9751 245.119 22.1914 245.522 23.3015C245.927 24.4162 246.1 25.3878 246.119 25.8804L247.118 25.8305C247.093 25.2108 246.892 24.1365 246.462 22.9518C246.03 21.7625 245.354 20.4258 244.356 19.3028L243.606 19.9717ZM246.119 25.8804L246.204 27.99L247.203 27.9401L247.118 25.8305L246.119 25.8804ZM247.079 28.2913L248.219 26.9801L247.468 26.3276L246.328 27.6389L247.079 28.2913ZM248.219 26.98C256.396 17.5653 268.122 16.8263 276.402 19.3094L276.698 18.3509C268.165 15.7921 255.981 16.526 247.467 26.3277L248.219 26.98ZM276.402 19.3093C279.132 20.1298 281.286 21.2207 282.844 22.3438C284.414 23.4753 285.339 24.6103 285.676 25.4997L286.611 25.1365C286.176 23.9917 285.08 22.7168 283.433 21.53C281.775 20.3347 279.519 19.1988 276.698 18.3509L276.402 19.3093ZM285.676 25.5L286.053 26.4889L286.987 26.1249L286.611 25.1361L285.676 25.5ZM286.841 26.6873L287.506 26.1236L286.864 25.3628L286.199 25.9265L286.841 26.6873ZM69.8472 51.2991L70.6452 53.1059L71.5601 52.694L70.7621 50.8873L69.8472 51.2991ZM71.4276 53.2768C74.5022 50.6136 79.6761 50.9302 81.7798 55.2527L82.6792 54.8076C80.2416 49.799 74.2627 49.5043 70.7776 52.5231L71.4276 53.2768ZM82.5747 55.3886L83.7922 54.2133L83.102 53.4964L81.8844 54.6717L82.5747 55.3886ZM83.8969 53.6325C82.094 49.9248 78.7822 48.2983 75.5308 48.4605L75.571 49.4597C78.4342 49.3168 81.3718 50.7343 82.9973 54.0772L83.8969 53.6325ZM75.5308 48.4605C73.5299 48.5604 71.5465 49.3337 69.9762 50.7194L70.6331 51.467C72.0268 50.2373 73.7907 49.5486 75.571 49.4597L75.5308 48.4605ZM92.3737 72.0892L93.7233 73.0418L94.3046 72.2223L92.955 71.2698L92.3737 72.0892ZM94.487 72.7888C95.9122 68.589 98.9035 65.7865 102.577 64.6245C106.256 63.4606 110.663 63.931 114.914 66.3725L115.417 65.5035C110.959 62.9428 106.265 62.4116 102.284 63.6708C98.2966 64.9321 95.0671 67.9777 93.5408 72.4753L94.487 72.7888ZM114.916 66.3739L115.43 66.6649L115.929 65.7932L115.415 65.5021L114.916 66.3739ZM116.113 66.4731L116.454 65.872L115.587 65.384L115.245 65.985L116.113 66.4731ZM116.456 65.8699C117.477 64.0504 119.141 62.904 121.279 62.9004C123.445 62.8967 126.2 64.0651 129.354 67.1237L130.053 66.402C126.802 63.2495 123.813 61.8957 121.287 61.8999C118.734 61.9043 116.759 63.296 115.585 65.3861L116.456 65.8699ZM129.75 66.2643L116.067 65.1295L115.974 66.1265L129.658 67.2614L129.75 66.2643ZM115.997 66.1279L130.812 66.684L130.859 65.6842L116.044 65.1281L115.997 66.1279ZM131.326 66.2726C131.514 65.2786 132.064 64.0031 132.896 62.6154C133.724 61.2349 134.814 59.7731 136.053 58.4098C138.553 55.6608 141.576 53.4038 144.208 52.9226L144.037 51.9385C141.07 52.481 137.858 54.946 135.317 57.7404C134.036 59.1489 132.905 60.6641 132.04 62.1065C131.18 63.5417 130.564 64.9348 130.344 66.0955L131.326 66.2726ZM144.619 52.374L144.402 50.2833L143.408 50.3964L143.625 52.4871L144.619 52.374ZM143.82 49.8478C140.908 50.3794 137.733 52.594 135.082 55.3031C132.423 58.0207 130.207 61.3217 129.259 64.1425L130.206 64.4535C131.091 61.8198 133.204 58.6456 135.793 55.9995C138.39 53.345 141.384 51.3077 143.99 50.8319L143.82 49.8478ZM130.068 63.9239C126.744 60.9458 123.656 59.7094 121 59.7953C118.327 59.8817 116.185 61.3034 114.779 63.4346L115.611 63.9804C116.865 62.0801 118.725 60.8695 121.022 60.7952C123.336 60.7204 126.186 61.795 129.397 64.6721L130.068 63.9239ZM115.436 63.2669C110.688 60.6987 105.714 60.293 101.496 61.7785C97.2731 63.2656 93.8494 66.6339 92.1912 71.5228L93.1374 71.8362C94.7001 67.2287 97.9021 64.1015 101.82 62.7219C105.741 61.3409 110.423 61.6973 114.954 64.1481L115.436 63.2669ZM205.669 47.924L206.462 49.7351L207.378 49.3264L206.586 47.5153L205.669 47.924ZM207.244 49.9086C208.831 48.5416 212.1 47.0534 215.403 46.7911C218.687 46.5304 221.873 47.4809 223.538 50.8144L224.433 50.3602C222.523 46.5352 218.851 45.5146 215.334 45.7938C211.836 46.0715 208.359 47.6343 206.596 49.1529L207.244 49.9086ZM224.401 50.305L223.193 48.5115L222.362 49.076L223.57 50.8696L224.401 50.305ZM223.225 48.5666C222.168 46.4495 221.272 45.1215 220.11 44.3771C218.932 43.622 217.562 43.5186 215.721 43.6105L215.761 44.6097C217.574 44.5193 218.667 44.6451 219.566 45.2211C220.481 45.8078 221.277 46.9128 222.33 49.0209L223.225 48.5666ZM215.721 43.6105C211.683 43.8121 207.695 45.6942 205.801 47.3437L206.453 48.0956C208.176 46.5953 211.948 44.8001 215.761 44.6097L215.721 43.6105ZM299.805 65.5008L301.297 65.5332L301.328 64.533L299.836 64.5006L299.805 65.5008ZM301.813 65.0241C301.803 63.9332 302.101 63.0763 302.652 62.4344L301.897 61.7865C301.157 62.6484 300.802 63.757 300.813 65.0422L301.813 65.0241ZM302.654 62.4326C303.758 61.1339 305.953 60.6747 308.841 61.4609L309.112 60.4953C306.076 59.6689 303.377 60.0461 301.895 61.7882L302.654 62.4326ZM308.838 61.4601L309.39 61.6136L309.666 60.6495L309.115 60.496L308.838 61.4601ZM310.002 61.2873L310.243 60.572L309.296 60.2605L309.055 60.9758L310.002 61.2873ZM310.242 60.5732C310.492 59.8376 311.337 58.9838 312.601 58.3435C313.845 57.7135 315.403 57.3392 316.951 57.4852L317.054 56.4892C315.294 56.3232 313.547 56.7473 312.156 57.4517C310.786 58.1457 309.669 59.1625 309.296 60.2593L310.242 60.5732ZM316.952 57.4854C317.768 57.56 318.882 57.8135 319.921 58.5492C320.951 59.2786 321.942 60.5067 322.483 62.5975L323.451 62.3379C322.855 60.0357 321.736 58.6034 320.504 57.7307C319.281 56.8644 317.982 56.5741 317.053 56.4891L316.952 57.4854ZM323.184 62.9161L324.578 62.2297L324.144 61.3329L322.75 62.0193L323.184 62.9161ZM324.845 61.6517C323.742 57.3825 321.005 54.7483 317.117 54.3845L317.015 55.3806C320.407 55.698 322.857 57.9621 323.877 61.9109L324.845 61.6517ZM317.119 54.3846C316.676 54.3416 316.225 54.3293 315.771 54.3519L315.811 55.3511C316.214 55.331 316.617 55.3419 317.013 55.3804L317.119 54.3846ZM315.771 54.3519C312.647 54.5079 309.544 56.1822 308.29 58.5377L309.172 59.0014C310.216 57.0391 312.942 55.4943 315.811 55.3511L315.771 54.3519ZM308.849 58.2823C305.523 57.5057 302.676 58.0983 300.93 60.1457L301.688 60.791C303.1 59.1356 305.496 58.5289 308.613 59.2567L308.849 58.2823ZM300.929 60.1466C299.857 61.4104 299.308 63.0985 299.321 65.0088L300.32 64.9926C300.309 63.2768 300.8 61.8367 301.689 60.79L300.929 60.1466Z" fill="black" mask="url(#path-1-inside-1_5642_6334)"/>
</svg>
