<svg width="225" height="86" viewBox="0 0 225 86" fill="none" xmlns="http://www.w3.org/2000/svg">
<path d="M34.7346 62.7021C36.6453 66.0199 40.7692 67.5857 43.9976 67.4775C44.1125 67.4736 44.2237 67.4699 44.3421 67.458C46.8324 67.2877 48.7331 66.1773 49.7454 64.3315C52.6462 65.6674 55.2882 64.9398 56.8329 63.7729C57.916 62.9503 58.6266 61.8062 58.8408 60.5499L57.9134 60.2154C57.7595 61.0963 57.213 61.9351 56.3679 62.5736C54.5759 63.9249 51.9599 64.0468 49.7059 62.8864L49.3465 62.7012L49.1437 63.1551C48.38 64.8664 46.599 65.9438 44.2681 66.1088C40.7302 66.3642 37.0323 64.5737 35.4683 61.857L34.7346 62.7021ZM40.7259 68.4419C36.8499 71.5935 28.7239 72.6391 22.3498 68.8346C19.736 67.2734 16.3908 64.2009 15.295 58.4653L15.1371 57.6422L14.608 58.0333C12.3682 59.6969 8.957 59.4326 6.67397 57.4184C5.38319 56.2783 3.85355 54.0706 3.89418 50.001L3.89786 49.5933L3.64746 49.3913C0.0787299 46.5577 -0.910858 41.7179 1.00951 36.4518C3.87695 28.582 9.96733 26.2266 13.8577 28.952L14.2549 29.2306L14.4742 28.7026C17.8729 20.5888 22.7609 16.325 28.9965 16.0212C38.2994 15.5515 47.6691 24.2206 50.098 28.9858L50.5586 29.8882L50.9101 28.906C53.8428 20.7079 60.6475 19.5093 64.2258 21.8113L64.6015 22.0512L64.8239 21.5678C72.9121 3.90836 88.5525 -1.54437 99.6613 0.865395C106.402 2.3303 111.122 6.43751 112.291 11.863L112.516 12.9074L113.075 12.1681C116.537 7.60499 121.154 8.11552 122.976 8.55143C125.463 9.13862 127.025 10.4379 127.298 11.1283L127.603 11.8991L128.045 11.3005C134.704 2.29105 145.773 1.80415 153.237 5.16717C158.274 7.4413 161.677 11.4007 162.338 15.7598L162.497 16.8116L163.097 16.1682C165.673 13.3916 169.714 12.9983 172.911 15.2001C174.473 16.2759 177.117 18.888 177.236 24.3093L177.265 25.518L177.975 24.8683C184.787 18.6439 191.289 19.9406 195.542 22.1201C200.813 24.8282 204.934 30.1757 205.733 33.5913C203.463 33.9672 201.259 35.1615 199.784 37.2753L200.467 38.228C201.84 36.2623 203.908 35.1804 206.026 34.8727L206.036 34.9118L206.059 34.8637C208.221 34.5467 210.436 35.043 212.03 36.2177L212.461 35.0225C210.918 33.8855 208.838 33.3373 206.735 33.4762C209.57 27.8744 213.803 28.5424 216.601 30.8574C218.918 32.7836 220.847 36.419 219.852 39.3794L219.581 40.1879L220.209 40.343C222.282 40.8573 223.704 42.4664 224.227 44.8814C224.823 47.6358 224.129 50.9253 222.505 53.0652C221.423 54.4874 219.018 56.5483 215.09 54.3921L214.511 54.0722L214.45 54.9448C214.226 58.1422 210.3 61.1535 207.807 60.7742L207.487 60.7245L207.339 61.1292C205.652 65.7826 201.754 68.8324 196.639 69.4799C191.232 70.1636 185.747 67.8755 183.583 64.0376L183.373 63.666L183.056 63.8186C180.214 65.163 178.279 64.9623 174.976 60.1843L174.673 59.7395L174.338 60.1242C170.229 64.8457 158.793 69.9155 151.582 62.7834L151.149 62.3561L150.894 62.9958C149.818 65.7064 147.208 68.0135 144.24 68.8809C142.134 69.4959 138.022 69.9047 134.112 65.7913L133.847 65.5162L133.57 65.7622C132.079 67.0955 130.35 67.2692 128.546 66.2857C129.669 64.3046 129.901 62.051 129.148 60.1144C130.714 64.1447 138.457 67.9221 124.184 72.1008C122.226 79.7844 109.135 74.2073 108.562 70.5891C117.299 77.814 99.0358 67.4857 99.1676 68.5043C97.5108 70.0536 95.1007 72.8115 95.5174 75.4299C95.7661 76.9916 96.9196 77.9969 98.9516 78.4311L99.082 77.096C97.526 76.7695 96.5925 76.075 96.4485 75.1541C96.2442 73.8593 97.3916 71.8642 99.4735 69.8536C99.8889 71.0678 100.63 72.0344 101.441 72.4542C100.639 73.9354 100.282 75.4069 100.404 76.7466C100.494 77.7088 100.814 78.5606 101.345 79.2555C97.4931 83.5607 89.3731 86.6495 82.802 84.5268C78.5013 83.1431 75.3855 79.7105 73.7859 74.6124L73.6336 74.1284L73.2668 74.2143C71.2117 74.6987 69.5422 74.2235 68.3141 72.7999C67.1225 71.4198 66.6972 69.5064 66.6777 68.7944L66.6407 67.4439L65.901 68.2708C60.4834 74.3301 52.8299 74.6762 47.4724 72.9755C43.9356 71.8502 41.8658 70.0341 41.3884 68.7247L41.1558 68.0882L40.7259 68.4419ZM179.677 54.4936L179.181 53.3295C177.06 55.1126 173.495 54.8587 172.08 51.8503L171.292 52.5894C172.36 54.8626 174.346 55.8689 176.303 55.8033C177.513 55.7627 178.718 55.3147 179.677 54.4936ZM165.542 41.0903L164.686 40.4668C162.727 45.9998 156.631 47.8189 151.1 44.5278L150.774 44.3363L150.551 44.7172C149.114 47.1953 145.853 47.8884 141.806 43.8481L150.551 44.7172L141.078 44.2065C140.521 46.9549 136.055 52.2696 132.465 52.8659L132.587 54.2057C136.125 53.6189 140.55 48.8947 141.768 45.4246C145.9 49.2386 149.328 48.5056 151.063 45.9544C156.958 49.2622 163.403 47.1316 165.542 41.0903ZM92.7604 55.231L92.2684 54.0641C90.1013 55.875 83.588 57.8265 81.3598 53.2097L82.1176 54.3697C83.4333 57.0947 84.2418 57.5179 86.5807 57.4395C89.0937 57.3552 91.591 56.2195 92.7604 55.231ZM32.9649 43.1958L32.0104 43.1595C32.0071 43.9196 31.7905 44.5449 31.3713 45.0191C30.5313 45.9783 28.963 46.2202 27.0745 45.6734L26.7229 45.5695L26.5628 46.0246C26.1496 47.1903 24.021 48.3767 21.9073 48.1425C20.7928 48.0221 18.828 47.3964 18.1366 44.5741L17.2393 44.9987C17.8848 47.6384 19.5238 49.2323 21.8496 49.4883C22.1175 49.5187 22.3905 49.5306 22.6648 49.5214C24.583 49.4571 26.4607 48.4579 27.2134 47.0888C29.268 47.6037 30.95 47.2475 31.9754 46.0797C32.6121 45.351 32.9577 44.3558 32.9649 43.1958Z" fill="#CADBEA"/>
<path d="M34.7346 62.7021C36.6453 66.0199 40.7692 67.5857 43.9976 67.4775C44.1125 67.4736 44.2237 67.4699 44.3421 67.458C46.8324 67.2877 48.7331 66.1773 49.7454 64.3315C52.6462 65.6674 55.2882 64.9398 56.8329 63.7729C57.916 62.9503 58.6266 61.8062 58.8408 60.5499L57.9134 60.2154C57.7595 61.0963 57.213 61.9351 56.3679 62.5736C54.5759 63.9249 51.9599 64.0468 49.7059 62.8864L49.3465 62.7012L49.1437 63.1551C48.38 64.8664 46.599 65.9438 44.2681 66.1088C40.7302 66.3642 37.0323 64.5737 35.4683 61.857L34.7346 62.7021ZM40.7259 68.4419C36.8499 71.5935 28.7239 72.6391 22.3498 68.8346C19.736 67.2734 16.3908 64.2009 15.295 58.4653L15.1371 57.6422L14.608 58.0333C12.3682 59.6969 8.957 59.4326 6.67397 57.4184C5.38319 56.2783 3.85355 54.0706 3.89418 50.001L3.89786 49.5933L3.64746 49.3913C0.0787299 46.5577 -0.910858 41.7179 1.00951 36.4518C3.87695 28.582 9.96733 26.2266 13.8577 28.952L14.2549 29.2306L14.4742 28.7026C17.8729 20.5888 22.7609 16.325 28.9965 16.0212C38.2994 15.5515 47.6691 24.2206 50.098 28.9858L50.5586 29.8882L50.9101 28.906C53.8428 20.7079 60.6475 19.5093 64.2258 21.8113L64.6015 22.0512L64.8239 21.5678C72.9121 3.90836 88.5525 -1.54437 99.6613 0.865395C106.402 2.3303 111.122 6.43751 112.291 11.863L112.516 12.9074L113.075 12.1681C116.537 7.60499 121.154 8.11552 122.976 8.55143C125.463 9.13862 127.025 10.4379 127.298 11.1283L127.603 11.8991L128.045 11.3005C134.704 2.29105 145.773 1.80415 153.237 5.16717C158.274 7.4413 161.677 11.4007 162.338 15.7598L162.497 16.8116L163.097 16.1682C165.673 13.3916 169.714 12.9983 172.911 15.2001C174.473 16.2759 177.117 18.888 177.236 24.3093L177.265 25.518L177.975 24.8683C184.787 18.6439 191.289 19.9406 195.542 22.1201C200.813 24.8282 204.934 30.1757 205.733 33.5913C203.463 33.9672 201.259 35.1615 199.784 37.2753L200.467 38.228C201.84 36.2623 203.908 35.1804 206.026 34.8727L206.036 34.9118L206.059 34.8637C208.221 34.5467 210.436 35.043 212.03 36.2177L212.461 35.0225C210.918 33.8855 208.838 33.3373 206.735 33.4762C209.57 27.8744 213.803 28.5424 216.601 30.8574C218.918 32.7836 220.847 36.419 219.852 39.3794L219.581 40.1879L220.209 40.343C222.282 40.8573 223.704 42.4664 224.227 44.8814C224.823 47.6358 224.129 50.9253 222.505 53.0652C221.423 54.4874 219.018 56.5483 215.09 54.3921L214.511 54.0722L214.45 54.9448C214.226 58.1422 210.3 61.1535 207.807 60.7742L207.487 60.7245L207.339 61.1292C205.652 65.7826 201.754 68.8324 196.639 69.4799C191.232 70.1636 185.747 67.8755 183.583 64.0376L183.373 63.666L183.056 63.8186C180.214 65.163 178.279 64.9623 174.976 60.1843L174.673 59.7395L174.338 60.1242C170.229 64.8457 158.793 69.9155 151.582 62.7834L151.149 62.3561L150.894 62.9958C149.818 65.7064 147.208 68.0135 144.24 68.8809C142.134 69.4959 138.022 69.9047 134.112 65.7913L133.847 65.5162L133.57 65.7622C132.079 67.0955 130.35 67.2692 128.546 66.2857C129.669 64.3046 129.901 62.051 129.148 60.1144C130.714 64.1447 138.457 67.9221 124.184 72.1008C122.226 79.7844 109.135 74.2073 108.562 70.5891C117.299 77.814 99.0358 67.4857 99.1676 68.5043C97.5108 70.0536 95.1007 72.8115 95.5174 75.4299C95.7661 76.9916 96.9196 77.9969 98.9516 78.4311L99.082 77.096C97.526 76.7695 96.5925 76.075 96.4485 75.1541C96.2442 73.8593 97.3916 71.8642 99.4735 69.8536C99.8889 71.0678 100.63 72.0344 101.441 72.4542C100.639 73.9354 100.282 75.4069 100.404 76.7466C100.494 77.7088 100.814 78.5606 101.345 79.2555C97.4931 83.5607 89.3731 86.6495 82.802 84.5268C78.5013 83.1431 75.3855 79.7105 73.7859 74.6124L73.6336 74.1284L73.2668 74.2143C71.2117 74.6987 69.5422 74.2235 68.3141 72.7999C67.1225 71.4198 66.6972 69.5064 66.6777 68.7944L66.6407 67.4439L65.901 68.2708C60.4834 74.3301 52.8299 74.6762 47.4724 72.9755C43.9356 71.8502 41.8658 70.0341 41.3884 68.7247L41.1558 68.0882L40.7259 68.4419ZM179.677 54.4936L179.181 53.3295C177.06 55.1126 173.495 54.8587 172.08 51.8503L171.292 52.5894C172.36 54.8626 174.346 55.8689 176.303 55.8033C177.513 55.7627 178.718 55.3147 179.677 54.4936ZM165.542 41.0903L164.686 40.4668C162.727 45.9998 156.631 47.8189 151.1 44.5278L150.774 44.3363L150.551 44.7172C149.114 47.1953 145.853 47.8884 141.806 43.8481L150.551 44.7172L141.078 44.2065C140.521 46.9549 136.055 52.2696 132.465 52.8659L132.587 54.2057C136.125 53.6189 140.55 48.8947 141.768 45.4246C145.9 49.2386 149.328 48.5056 151.063 45.9544C156.958 49.2622 163.403 47.1316 165.542 41.0903ZM92.7604 55.231L92.2684 54.0641C90.1013 55.875 83.588 57.8265 81.3598 53.2097L82.1176 54.3697C83.4333 57.0947 84.2418 57.5179 86.5807 57.4395C89.0937 57.3552 91.591 56.2195 92.7604 55.231ZM32.9649 43.1958L32.0104 43.1595C32.0071 43.9196 31.7905 44.5449 31.3713 45.0191C30.5313 45.9783 28.963 46.2202 27.0745 45.6734L26.7229 45.5695L26.5628 46.0246C26.1496 47.1903 24.021 48.3767 21.9073 48.1425C20.7928 48.0221 18.828 47.3964 18.1366 44.5741L17.2393 44.9987C17.8848 47.6384 19.5238 49.2323 21.8496 49.4883C22.1175 49.5187 22.3905 49.5306 22.6648 49.5214C24.583 49.4571 26.4607 48.4579 27.2134 47.0888C29.268 47.6037 30.95 47.2475 31.9754 46.0797C32.6121 45.351 32.9577 44.3558 32.9649 43.1958Z" fill="#CADBEA"/>
<path d="M34.7346 62.7021C36.6453 66.0199 40.7692 67.5857 43.9976 67.4775C44.1125 67.4736 44.2237 67.4699 44.3421 67.458C46.8324 67.2877 48.7331 66.1773 49.7454 64.3315C52.6462 65.6674 55.2882 64.9398 56.8329 63.7729C57.916 62.9503 58.6266 61.8062 58.8408 60.5499L57.9134 60.2154C57.7595 61.0963 57.213 61.9351 56.3679 62.5736C54.5759 63.9249 51.9599 64.0468 49.7059 62.8864L49.3465 62.7012L49.1437 63.1551C48.38 64.8664 46.599 65.9438 44.2681 66.1088C40.7302 66.3642 37.0323 64.5737 35.4683 61.857L34.7346 62.7021ZM40.7259 68.4419C36.8499 71.5935 28.7239 72.6391 22.3498 68.8346C19.736 67.2734 16.3908 64.2009 15.295 58.4653L15.1371 57.6422L14.608 58.0333C12.3682 59.6969 8.957 59.4326 6.67397 57.4184C5.38319 56.2783 3.85355 54.0706 3.89418 50.001L3.89786 49.5933L3.64746 49.3913C0.0787299 46.5577 -0.910858 41.7179 1.00951 36.4518C3.87695 28.582 9.96733 26.2266 13.8577 28.952L14.2549 29.2306L14.4742 28.7026C17.8729 20.5888 22.7609 16.325 28.9965 16.0212C38.2994 15.5515 47.6691 24.2206 50.098 28.9858L50.5586 29.8882L50.9101 28.906C53.8428 20.7079 60.6475 19.5093 64.2258 21.8113L64.6015 22.0512L64.8239 21.5678C72.9121 3.90836 88.5525 -1.54437 99.6613 0.865395C106.402 2.3303 111.122 6.43751 112.291 11.863L112.516 12.9074L113.075 12.1681C116.537 7.60499 121.154 8.11552 122.976 8.55143C125.463 9.13862 127.025 10.4379 127.298 11.1283L127.603 11.8991L128.045 11.3005C134.704 2.29105 145.773 1.80415 153.237 5.16717C158.274 7.4413 161.677 11.4007 162.338 15.7598L162.497 16.8116L163.097 16.1682C165.673 13.3916 169.714 12.9983 172.911 15.2001C174.473 16.2759 177.117 18.888 177.236 24.3093L177.265 25.518L177.975 24.8683C184.787 18.6439 191.289 19.9406 195.542 22.1201C200.813 24.8282 204.934 30.1757 205.733 33.5913C203.463 33.9672 201.259 35.1615 199.784 37.2753L200.467 38.228C201.84 36.2623 203.908 35.1804 206.026 34.8727L206.036 34.9118L206.059 34.8637C208.221 34.5467 210.436 35.043 212.03 36.2177L212.461 35.0225C210.918 33.8855 208.838 33.3373 206.735 33.4762C209.57 27.8744 213.803 28.5424 216.601 30.8574C218.918 32.7836 220.847 36.419 219.852 39.3794L219.581 40.1879L220.209 40.343C222.282 40.8573 223.704 42.4664 224.227 44.8814C224.823 47.6358 224.129 50.9253 222.505 53.0652C221.423 54.4874 219.018 56.5483 215.09 54.3921L214.511 54.0722L214.45 54.9448C214.226 58.1422 210.3 61.1535 207.807 60.7742L207.487 60.7245L207.339 61.1292C205.652 65.7826 201.754 68.8324 196.639 69.4799C191.232 70.1636 185.747 67.8755 183.583 64.0376L183.373 63.666L183.056 63.8186C180.214 65.163 178.279 64.9623 174.976 60.1843L174.673 59.7395L174.338 60.1242C170.229 64.8457 158.793 69.9155 151.582 62.7834L151.149 62.3561L150.894 62.9958C149.818 65.7064 147.208 68.0135 144.24 68.8809C142.134 69.4959 138.022 69.9047 134.112 65.7913L133.847 65.5162L133.57 65.7622C132.079 67.0955 130.35 67.2692 128.546 66.2857C129.669 64.3046 129.901 62.051 129.148 60.1144C130.714 64.1447 138.457 67.9221 124.184 72.1008C122.226 79.7844 109.135 74.2073 108.562 70.5891C117.299 77.814 99.0358 67.4857 99.1676 68.5043C97.5108 70.0536 95.1007 72.8115 95.5174 75.4299C95.7661 76.9916 96.9196 77.9969 98.9516 78.4311L99.082 77.096C97.526 76.7695 96.5925 76.075 96.4485 75.1541C96.2442 73.8593 97.3916 71.8642 99.4735 69.8536C99.8889 71.0678 100.63 72.0344 101.441 72.4542C100.639 73.9354 100.282 75.4069 100.404 76.7466C100.494 77.7088 100.814 78.5606 101.345 79.2555C97.4931 83.5607 89.3731 86.6495 82.802 84.5268C78.5013 83.1431 75.3855 79.7105 73.7859 74.6124L73.6336 74.1284L73.2668 74.2143C71.2117 74.6987 69.5422 74.2235 68.3141 72.7999C67.1225 71.4198 66.6972 69.5064 66.6777 68.7944L66.6407 67.4439L65.901 68.2708C60.4834 74.3301 52.8299 74.6762 47.4724 72.9755C43.9356 71.8502 41.8658 70.0341 41.3884 68.7247L41.1558 68.0882L40.7259 68.4419ZM179.677 54.4936L179.181 53.3295C177.06 55.1126 173.495 54.8587 172.08 51.8503L171.292 52.5894C172.36 54.8626 174.346 55.8689 176.303 55.8033C177.513 55.7627 178.718 55.3147 179.677 54.4936ZM165.542 41.0903L164.686 40.4668C162.727 45.9998 156.631 47.8189 151.1 44.5278L150.774 44.3363L150.551 44.7172C149.114 47.1953 145.853 47.8884 141.806 43.8481L150.551 44.7172L141.078 44.2065C140.521 46.9549 136.055 52.2696 132.465 52.8659L132.587 54.2057C136.125 53.6189 140.55 48.8947 141.768 45.4246C145.9 49.2386 149.328 48.5056 151.063 45.9544C156.958 49.2622 163.403 47.1316 165.542 41.0903ZM92.7604 55.231L92.2684 54.0641C90.1013 55.875 83.588 57.8265 81.3598 53.2097L82.1176 54.3697C83.4333 57.0947 84.2418 57.5179 86.5807 57.4395C89.0937 57.3552 91.591 56.2195 92.7604 55.231ZM32.9649 43.1958L32.0104 43.1595C32.0071 43.9196 31.7905 44.5449 31.3713 45.0191C30.5313 45.9783 28.963 46.2202 27.0745 45.6734L26.7229 45.5695L26.5628 46.0246C26.1496 47.1903 24.021 48.3767 21.9073 48.1425C20.7928 48.0221 18.828 47.3964 18.1366 44.5741L17.2393 44.9987C17.8848 47.6384 19.5238 49.2323 21.8496 49.4883C22.1175 49.5187 22.3905 49.5306 22.6648 49.5214C24.583 49.4571 26.4607 48.4579 27.2134 47.0888C29.268 47.6037 30.95 47.2475 31.9754 46.0797C32.6121 45.351 32.9577 44.3558 32.9649 43.1958Z" fill="#CADBEA"/>
<path d="M34.7346 62.7021C36.6453 66.0199 40.7692 67.5857 43.9976 67.4775C44.1125 67.4736 44.2237 67.4699 44.3421 67.458C46.8324 67.2877 48.7331 66.1773 49.7454 64.3315C52.6462 65.6674 55.2882 64.9398 56.8329 63.7729C57.916 62.9503 58.6266 61.8062 58.8408 60.5499L57.9134 60.2154C57.7595 61.0963 57.213 61.9351 56.3679 62.5736C54.5759 63.9249 51.9599 64.0468 49.7059 62.8864L49.3465 62.7012L49.1437 63.1551C48.38 64.8664 46.599 65.9438 44.2681 66.1088C40.7302 66.3642 37.0323 64.5737 35.4683 61.857L34.7346 62.7021ZM40.7259 68.4419C36.8499 71.5935 28.7239 72.6391 22.3498 68.8346C19.736 67.2734 16.3908 64.2009 15.295 58.4653L15.1371 57.6422L14.608 58.0333C12.3682 59.6969 8.957 59.4326 6.67397 57.4184C5.38319 56.2783 3.85355 54.0706 3.89418 50.001L3.89786 49.5933L3.64746 49.3913C0.0787299 46.5577 -0.910858 41.7179 1.00951 36.4518C3.87695 28.582 9.96733 26.2266 13.8577 28.952L14.2549 29.2306L14.4742 28.7026C17.8729 20.5888 22.7609 16.325 28.9965 16.0212C38.2994 15.5515 47.6691 24.2206 50.098 28.9858L50.5586 29.8882L50.9101 28.906C53.8428 20.7079 60.6475 19.5093 64.2258 21.8113L64.6015 22.0512L64.8239 21.5678C72.9121 3.90836 88.5525 -1.54437 99.6613 0.865395C106.402 2.3303 111.122 6.43751 112.291 11.863L112.516 12.9074L113.075 12.1681C116.537 7.60499 121.154 8.11552 122.976 8.55143C125.463 9.13862 127.025 10.4379 127.298 11.1283L127.603 11.8991L128.045 11.3005C134.704 2.29105 145.773 1.80415 153.237 5.16717C158.274 7.4413 161.677 11.4007 162.338 15.7598L162.497 16.8116L163.097 16.1682C165.673 13.3916 169.714 12.9983 172.911 15.2001C174.473 16.2759 177.117 18.888 177.236 24.3093L177.265 25.518L177.975 24.8683C184.787 18.6439 191.289 19.9406 195.542 22.1201C200.813 24.8282 204.934 30.1757 205.733 33.5913C203.463 33.9672 201.259 35.1615 199.784 37.2753L200.467 38.228C201.84 36.2623 203.908 35.1804 206.026 34.8727L206.036 34.9118L206.059 34.8637C208.221 34.5467 210.436 35.043 212.03 36.2177L212.461 35.0225C210.918 33.8855 208.838 33.3373 206.735 33.4762C209.57 27.8744 213.803 28.5424 216.601 30.8574C218.918 32.7836 220.847 36.419 219.852 39.3794L219.581 40.1879L220.209 40.343C222.282 40.8573 223.704 42.4664 224.227 44.8814C224.823 47.6358 224.129 50.9253 222.505 53.0652C221.423 54.4874 219.018 56.5483 215.09 54.3921L214.511 54.0722L214.45 54.9448C214.226 58.1422 210.3 61.1535 207.807 60.7742L207.487 60.7245L207.339 61.1292C205.652 65.7826 201.754 68.8324 196.639 69.4799C191.232 70.1636 185.747 67.8755 183.583 64.0376L183.373 63.666L183.056 63.8186C180.214 65.163 178.279 64.9623 174.976 60.1843L174.673 59.7395L174.338 60.1242C170.229 64.8457 158.793 69.9155 151.582 62.7834L151.149 62.3561L150.894 62.9958C149.818 65.7064 147.208 68.0135 144.24 68.8809C142.134 69.4959 138.022 69.9047 134.112 65.7913L133.847 65.5162L133.57 65.7622C132.079 67.0955 130.35 67.2692 128.546 66.2857C129.669 64.3046 129.901 62.051 129.148 60.1144C130.714 64.1447 138.457 67.9221 124.184 72.1008C122.226 79.7844 109.135 74.2073 108.562 70.5891C117.299 77.814 99.0358 67.4857 99.1676 68.5043C97.5108 70.0536 95.1007 72.8115 95.5174 75.4299C95.7661 76.9916 96.9196 77.9969 98.9516 78.4311L99.082 77.096C97.526 76.7695 96.5925 76.075 96.4485 75.1541C96.2442 73.8593 97.3916 71.8642 99.4735 69.8536C99.8889 71.0678 100.63 72.0344 101.441 72.4542C100.639 73.9354 100.282 75.4069 100.404 76.7466C100.494 77.7088 100.814 78.5606 101.345 79.2555C97.4931 83.5607 89.3731 86.6495 82.802 84.5268C78.5013 83.1431 75.3855 79.7105 73.7859 74.6124L73.6336 74.1284L73.2668 74.2143C71.2117 74.6987 69.5422 74.2235 68.3141 72.7999C67.1225 71.4198 66.6972 69.5064 66.6777 68.7944L66.6407 67.4439L65.901 68.2708C60.4834 74.3301 52.8299 74.6762 47.4724 72.9755C43.9356 71.8502 41.8658 70.0341 41.3884 68.7247L41.1558 68.0882L40.7259 68.4419ZM179.677 54.4936L179.181 53.3295C177.06 55.1126 173.495 54.8587 172.08 51.8503L171.292 52.5894C172.36 54.8626 174.346 55.8689 176.303 55.8033C177.513 55.7627 178.718 55.3147 179.677 54.4936ZM165.542 41.0903L164.686 40.4668C162.727 45.9998 156.631 47.8189 151.1 44.5278L150.774 44.3363L150.551 44.7172C149.114 47.1953 145.853 47.8884 141.806 43.8481L150.551 44.7172L141.078 44.2065C140.521 46.9549 136.055 52.2696 132.465 52.8659L132.587 54.2057C136.125 53.6189 140.55 48.8947 141.768 45.4246C145.9 49.2386 149.328 48.5056 151.063 45.9544C156.958 49.2622 163.403 47.1316 165.542 41.0903ZM92.7604 55.231L92.2684 54.0641C90.1013 55.875 83.588 57.8265 81.3598 53.2097L82.1176 54.3697C83.4333 57.0947 84.2418 57.5179 86.5807 57.4395C89.0937 57.3552 91.591 56.2195 92.7604 55.231ZM32.9649 43.1958L32.0104 43.1595C32.0071 43.9196 31.7905 44.5449 31.3713 45.0191C30.5313 45.9783 28.963 46.2202 27.0745 45.6734L26.7229 45.5695L26.5628 46.0246C26.1496 47.1903 24.021 48.3767 21.9073 48.1425C20.7928 48.0221 18.828 47.3964 18.1366 44.5741L17.2393 44.9987C17.8848 47.6384 19.5238 49.2323 21.8496 49.4883C22.1175 49.5187 22.3905 49.5306 22.6648 49.5214C24.583 49.4571 26.4607 48.4579 27.2134 47.0888C29.268 47.6037 30.95 47.2475 31.9754 46.0797C32.6121 45.351 32.9577 44.3558 32.9649 43.1958Z" fill="#CADBEA"/>
<path d="M150.551 44.7172L150.774 44.3363L151.1 44.5278C156.631 47.8189 162.727 45.9998 164.686 40.4668L165.542 41.0903C163.403 47.1316 156.958 49.2622 151.063 45.9544C149.328 48.5056 145.9 49.2386 141.768 45.4246C140.55 48.8947 136.125 53.6189 132.587 54.2057L132.465 52.8659C136.055 52.2696 140.521 46.9549 141.078 44.2065L150.551 44.7172ZM150.551 44.7172C149.114 47.1953 145.853 47.8884 141.806 43.8481L150.551 44.7172ZM34.7346 62.7021C36.6453 66.0199 40.7692 67.5857 43.9976 67.4775C44.1125 67.4736 44.2237 67.4699 44.3421 67.458C46.8324 67.2877 48.7331 66.1773 49.7454 64.3315C52.6462 65.6674 55.2882 64.9398 56.8329 63.7729C57.916 62.9503 58.6266 61.8062 58.8408 60.5499L57.9134 60.2154C57.7595 61.0963 57.213 61.9351 56.3679 62.5736C54.5759 63.9249 51.9599 64.0468 49.7059 62.8864L49.3465 62.7012L49.1437 63.1551C48.38 64.8664 46.599 65.9438 44.2681 66.1088C40.7302 66.3642 37.0323 64.5737 35.4683 61.857L34.7346 62.7021ZM40.7259 68.4419C36.8499 71.5935 28.7239 72.6391 22.3498 68.8346C19.736 67.2734 16.3908 64.2009 15.295 58.4653L15.1371 57.6422L14.608 58.0333C12.3682 59.6969 8.957 59.4326 6.67397 57.4184C5.38319 56.2783 3.85355 54.0706 3.89418 50.001L3.89786 49.5933L3.64746 49.3913C0.0787299 46.5577 -0.910858 41.7179 1.00951 36.4518C3.87695 28.582 9.96733 26.2266 13.8577 28.952L14.2549 29.2306L14.4742 28.7026C17.8729 20.5888 22.7609 16.325 28.9965 16.0212C38.2994 15.5515 47.6691 24.2206 50.098 28.9858L50.5586 29.8882L50.9101 28.906C53.8428 20.7079 60.6475 19.5093 64.2258 21.8113L64.6015 22.0512L64.8239 21.5678C72.9121 3.90836 88.5525 -1.54437 99.6613 0.865395C106.402 2.3303 111.122 6.43751 112.291 11.863L112.516 12.9074L113.075 12.1681C116.537 7.60499 121.154 8.11552 122.976 8.55143C125.463 9.13862 127.025 10.4379 127.298 11.1283L127.603 11.8991L128.045 11.3005C134.704 2.29105 145.773 1.80415 153.237 5.16717C158.274 7.4413 161.677 11.4007 162.338 15.7598L162.497 16.8116L163.097 16.1682C165.673 13.3916 169.714 12.9983 172.911 15.2001C174.473 16.2759 177.117 18.888 177.236 24.3093L177.265 25.518L177.975 24.8683C184.787 18.6439 191.289 19.9406 195.542 22.1201C200.813 24.8282 204.934 30.1757 205.733 33.5913C203.463 33.9672 201.259 35.1615 199.784 37.2753L200.467 38.228C201.84 36.2623 203.908 35.1804 206.026 34.8727L206.036 34.9118L206.059 34.8637C208.221 34.5467 210.436 35.043 212.03 36.2177L212.461 35.0225C210.918 33.8855 208.838 33.3373 206.735 33.4762C209.57 27.8744 213.803 28.5424 216.601 30.8574C218.918 32.7836 220.847 36.419 219.852 39.3794L219.581 40.1879L220.209 40.343C222.282 40.8573 223.704 42.4664 224.227 44.8814C224.823 47.6358 224.129 50.9253 222.505 53.0652C221.423 54.4874 219.018 56.5483 215.09 54.3921L214.511 54.0722L214.45 54.9448C214.226 58.1422 210.3 61.1535 207.807 60.7742L207.487 60.7245L207.339 61.1292C205.652 65.7826 201.754 68.8324 196.639 69.4799C191.232 70.1636 185.747 67.8755 183.583 64.0376L183.373 63.666L183.056 63.8186C180.214 65.163 178.279 64.9623 174.976 60.1843L174.673 59.7395L174.338 60.1242C170.229 64.8457 158.793 69.9155 151.582 62.7834L151.149 62.3561L150.894 62.9958C149.818 65.7064 147.208 68.0135 144.24 68.8809C142.134 69.4959 138.022 69.9047 134.112 65.7913L133.847 65.5162L133.57 65.7622C132.079 67.0955 130.35 67.2692 128.546 66.2857C129.669 64.3046 129.901 62.051 129.148 60.1144C130.714 64.1447 138.457 67.9221 124.184 72.1008C122.226 79.7844 109.135 74.2073 108.562 70.5891C117.299 77.814 99.0358 67.4857 99.1676 68.5043C97.5108 70.0536 95.1007 72.8115 95.5174 75.4299C95.7661 76.9916 96.9196 77.9969 98.9516 78.4311L99.082 77.096C97.526 76.7695 96.5925 76.075 96.4485 75.1541C96.2442 73.8593 97.3916 71.8642 99.4735 69.8536C99.8889 71.0678 100.63 72.0344 101.441 72.4542C100.639 73.9354 100.282 75.4069 100.404 76.7466C100.494 77.7088 100.814 78.5606 101.345 79.2555C97.4931 83.5607 89.3731 86.6495 82.802 84.5268C78.5013 83.1431 75.3855 79.7105 73.7859 74.6124L73.6336 74.1284L73.2668 74.2143C71.2117 74.6987 69.5422 74.2235 68.3141 72.7999C67.1225 71.4198 66.6972 69.5064 66.6777 68.7944L66.6407 67.4439L65.901 68.2708C60.4834 74.3301 52.8299 74.6762 47.4724 72.9755C43.9356 71.8502 41.8658 70.0341 41.3884 68.7247L41.1558 68.0882L40.7259 68.4419ZM179.677 54.4936L179.181 53.3295C177.06 55.1126 173.495 54.8587 172.08 51.8503L171.292 52.5894C172.36 54.8626 174.346 55.8689 176.303 55.8033C177.513 55.7627 178.718 55.3147 179.677 54.4936ZM92.7604 55.231L92.2684 54.0641C90.1013 55.875 83.588 57.8265 81.3598 53.2097L82.1176 54.3697C83.4333 57.0947 84.2418 57.5179 86.5807 57.4395C89.0937 57.3552 91.591 56.2195 92.7604 55.231ZM32.9649 43.1958L32.0104 43.1595C32.0071 43.9196 31.7905 44.5449 31.3713 45.0191C30.5313 45.9783 28.963 46.2202 27.0745 45.6734L26.7229 45.5695L26.5628 46.0246C26.1496 47.1903 24.021 48.3767 21.9073 48.1425C20.7928 48.0221 18.828 47.3964 18.1366 44.5741L17.2393 44.9987C17.8848 47.6384 19.5238 49.2323 21.8496 49.4883C22.1175 49.5187 22.3905 49.5306 22.6648 49.5214C24.583 49.4571 26.4607 48.4579 27.2134 47.0888C29.268 47.6037 30.95 47.2475 31.9754 46.0797C32.6121 45.351 32.9577 44.3558 32.9649 43.1958Z" stroke="black"/>
</svg>
