<svg width="201" height="148" viewBox="0 0 201 148" fill="none" xmlns="http://www.w3.org/2000/svg">
<path d="M135.547 56.3076L138.782 51.5941L138.787 51.4795C139.047 44.5368 138.802 44.167 138.719 44.042C138.459 43.6566 133.469 40.0264 130.521 37.9014L130.36 37.7868L128.521 38.3441C133.813 32.6618 142.125 27.7972 143.808 27.1462L143.516 26.4014C141.459 27.1982 132.339 32.6097 127.063 38.792L122.006 40.3389L121.938 40.5316C121.849 40.8076 119.891 45.5889 118.599 48.7399L118.573 48.8128V54.2503L126.245 59.0941L135.547 56.3076Z" fill="black"/>
<path d="M144.615 35.542L143.75 40.1514L145.844 42.318L150.557 43.141L150.688 43.0628C155.375 40.1253 155.375 39.4743 155.375 39.2607C155.375 38.8076 155.828 36.2816 156.135 34.6982L156.193 34.4066L151.141 31.7451L148.484 32.7764L147.635 35.4326C146.964 35.3441 145.844 35.417 144.906 35.5107L144.615 35.542Z" fill="black"/>
<path d="M174.224 25.4115L174.381 25.2656C177.62 22.1927 177.62 21.8125 177.62 21.6354C177.62 21.2135 176.881 19.3177 176.563 18.526L176.521 18.4271L174.24 16.6094H171.209L171.125 16.651C170.563 16.9375 169.318 18.5104 169.073 18.8229L168.964 18.9688L170 24.4062L174.224 25.4115Z" fill="black"/>
<path d="M140 20.8021L144.651 17.1303L144.537 16.8542C142.896 12.7501 142.506 12.7292 142.245 12.7449C142.026 12.7292 140.953 12.2865 140.094 11.8803L140.073 11.8751C139.381 11.5938 136.485 11.8021 135.907 11.8438L135.729 11.8594L133.948 14.2396L135.886 19.2344L140 20.8021Z" fill="black"/>
<path d="M111.37 28.974L112.563 26.599L108.089 24.4375L107.927 24.8333C107.677 25.4531 107.047 26.7187 107.042 26.7344L106.948 26.9167L108.058 28.9792H111.37V28.974Z" fill="black"/>
<path d="M84.8229 35.5628L86.4583 34.292L88.099 32.391L85.7812 29.2295L85.4844 29.3805C85.4531 29.3962 82.4375 31.6305 82.4375 32.1774C82.4375 32.3389 82.4375 32.443 84.5781 35.2451L84.8229 35.5628Z" fill="black"/>
<path d="M112.76 54.193C113.047 53.4691 112.807 52.0785 112.781 51.9222L112.755 51.766L111.073 50.542L110.911 50.5732C110.109 50.7087 106.922 52.2347 106.562 52.4118L106.38 52.4951L106.344 52.693C106.135 53.8024 105.958 55.2243 106.318 55.6618C106.427 55.7868 106.573 55.8597 106.734 55.8597C106.854 55.8597 107.156 55.8753 107.542 55.891C108.734 55.9482 109.531 55.9743 110.073 55.9743C111.073 55.9743 111.198 55.8857 111.318 55.7035L111.437 55.4899L111.432 55.4795C111.51 55.417 111.615 55.3441 111.703 55.2764C112.094 55.0003 112.578 54.6514 112.76 54.193Z" fill="black"/>
<path d="M114.219 46.1927L113.604 43.625H113.292C112.87 43.625 111.542 44.3021 110.792 44.7031L110.583 44.8125V47.8958H113.563L114.219 46.1927Z" fill="black"/>
<path d="M161.016 15.526C161.469 15.526 161.901 15.474 161.969 15.4688L162.141 15.4479L163.453 13.6458L161.844 11.7344H159.974V15.3854L160.276 15.4583C160.49 15.5104 160.755 15.526 161.016 15.526Z" fill="black"/>
<mask id="mask0_5558_5498" style="mask-type:luminance" maskUnits="userSpaceOnUse" x="0" y="12" width="201" height="136">
<path d="M0.666992 12H200.667V147.693H0.666992V12Z" fill="white"/>
</mask>
<g mask="url(#mask0_5558_5498)">
<path d="M197.224 96.4164C195.818 91.4164 194.708 87.4632 196.031 84.9945C204.693 68.8799 197.797 55.8018 193.318 52.3122C190.802 50.3486 193.484 43.6299 195.854 37.7028C197.589 33.3747 199.224 29.2861 199.078 26.7601C198.74 20.6143 191.531 13.6455 191.224 13.3486L190.917 13.0518L190.646 13.3799C184.745 20.4476 173.464 33.9268 173.021 34.3747C172.552 34.8278 162.167 42.1924 155.302 47.0309L155.24 47.083C154.886 47.458 146.552 56.2236 143.438 61.7236L131.912 60.5726L125.552 67.8434C124.583 68.1924 119.792 70.333 118.792 70.7861L118.495 70.9216L119.917 77.083C119.87 77.0882 119.828 77.0934 119.781 77.0934L119.766 77.083C115.891 73.8278 108.24 69.1455 101.391 65.8122C102.667 64.7966 102.87 64.5361 102.938 64.3695C103.125 63.9736 104.318 59.208 104.557 58.2549L104.609 58.0413L104.458 57.8851C103.833 57.2341 101.938 55.2966 100.927 54.6455C104.912 44.9528 111.542 38.7445 114.391 36.0778C114.896 35.6091 115.261 35.2653 115.479 35.0257L114.896 34.4893C114.693 34.708 114.318 35.057 113.844 35.4997C110.948 38.208 104.198 44.5309 100.151 54.432C99.9168 54.4372 99.2761 54.3747 98.7032 54.3174C95.5574 54.0049 94.0834 53.9684 93.672 54.5986C93.1407 55.4007 91.7241 60.1351 91.5678 60.6716L91.5626 61.9268C90.4064 61.6247 89.4272 61.4736 88.6459 61.4736C85.922 61.4736 81.7553 63.0986 77.3439 64.8226C71.5157 67.0934 64.9168 69.6663 60.2657 69.0726C56.3803 68.5778 51.7814 65.5882 47.3282 62.6924C42.2449 59.3851 37.4324 56.2601 33.3647 56.3591C26.5939 56.5153 17.6407 65.1663 8.98448 73.5413C7.7449 74.7393 6.52094 75.9268 5.31781 77.0674C2.21365 78.7653 0.807396 80.3695 1.03135 81.9789C1.5574 85.807 11.448 88.057 20.1772 90.0414C24.1616 90.9476 29.6147 92.1924 29.797 92.9424C29.4897 93.8382 26.5053 95.7184 23.3439 97.7132C17.3855 101.474 9.97406 106.156 9.76573 110.26C9.70844 111.38 10.1876 112.385 11.1772 113.255C9.39073 115.666 8.76052 118.474 9.3699 121.406C10.6095 127.38 16.7657 133.583 26.6928 138.885L26.823 138.953L26.9636 138.922C34.2501 137.437 58.5314 138.057 72.6043 142.817C82.9532 146.317 94.948 147.151 103.193 147.234C103.698 147.239 104.208 147.244 104.724 147.244C107.88 147.244 111.073 147.146 114.24 146.942C123.141 146.38 131.323 145.052 135.589 143.484C143.839 140.442 161.005 134.114 193.037 135.849L193.068 135.458L193.386 135.672C203.844 119.974 200.016 106.359 197.224 96.4164Z" fill="black"/>
</g>
<path d="M145.24 22.3122L145.011 21.5518C142.63 22.2653 131.714 27.3538 130.333 29.1247L130.958 29.6143C132.125 28.1195 142.688 23.0778 145.24 22.3122Z" fill="black"/>
<mask id="mask1_5558_5498" style="mask-type:luminance" maskUnits="userSpaceOnUse" x="168" y="0" width="13" height="11">
<path d="M168.667 0.692383H180.667V10.6663H168.667V0.692383Z" fill="white"/>
</mask>
<g mask="url(#mask1_5558_5498)">
<path d="M169.146 8.87435L179.542 0.744141L180.031 1.36914L169.636 9.49414L169.146 8.87435Z" fill="black"/>
</g>
<path d="M181.469 43.7497L180.438 46.4476C180.438 46.4476 179.281 50.307 179.151 50.9476C179.021 51.5882 175.292 51.8486 175.292 51.8486L168.089 52.6195L166.677 48.4424L169.5 45.4163V43.7445L170.792 39.7549H176.833L181.469 43.7497Z" fill="#794426"/>
<path d="M174.104 17.0049L176.193 18.6715C176.193 18.6715 177.229 21.2445 177.229 21.6351C177.229 22.0205 174.104 24.9788 174.104 24.9788L170.349 24.0778L169.391 19.0622C169.391 19.0622 170.797 17.2601 171.307 17.0049H174.104Z" fill="#C41830"/>
<path d="M169.38 63.578C169.641 63.8593 164.88 66.9009 164.235 67.4114C163.594 67.9218 158.708 63.9426 158.708 63.9426L161.281 59.6978C161.281 59.6978 167.068 60.2082 167.453 59.6978C167.833 59.177 169.12 63.2968 169.38 63.578Z" fill="#C41830"/>
<path d="M161.667 12.1299L162.953 13.6611L161.927 15.0726C161.927 15.0726 160.896 15.2028 160.38 15.0726V12.1299H161.667Z" fill="#C41830"/>
<path d="M151.12 32.1768L155.75 34.6195C155.75 34.6195 154.979 38.609 154.979 39.2601C154.979 39.9059 150.479 42.7236 150.479 42.7236L146.047 41.9476L144.177 40.0205L144.953 35.9007C144.953 35.9007 147.521 35.6507 147.912 35.9007L148.813 33.0726L151.12 32.1768Z" fill="#794426"/>
<path d="M143.662 62.1354L147.907 69.9844L141.532 75.1927L137.24 74.4635L135.87 85.9896C135.87 85.9896 123.058 82.1823 121.381 81.6198L121.224 80.9323L121.006 80.0156L120.417 77.4375H120.412L118.964 71.1458C118.964 71.1458 125.266 68.3177 125.787 68.1875L132.084 60.9844L143.662 62.1354Z" fill="#794426"/>
<path d="M141.557 19.0624L139.932 20.3488L136.203 18.9321L134.406 14.3071L135.943 12.2446C135.943 12.2446 139.292 11.9842 139.932 12.2446C139.932 12.2446 141.859 13.1457 142.245 13.1457C142.635 13.1457 144.177 17.0051 144.177 17.0051L141.557 19.0624Z" fill="#794426"/>
<path d="M127.287 39.1403L130.287 38.2236L131.063 43.8747L135.469 46.0205L134.401 52.6247L122.688 56.3903L118.964 54.0361V48.8903C118.964 48.8903 122.183 41.0413 122.313 40.6611L127.287 39.1403Z" fill="#794426"/>
<path d="M130.287 38.2236C130.287 38.2236 138.13 43.8747 138.391 44.2653C138.646 44.6559 138.391 51.4684 138.391 51.4684L135.302 55.9684L126.297 58.6716L122.693 56.3903L134.406 52.6247L135.474 46.0205L131.063 43.8747L130.287 38.2236Z" fill="#C41830"/>
<path d="M136.651 106.792L138.396 113.589L130.864 117.646L121.073 114.422C121.073 114.422 119.328 111.682 119.078 111.521C118.833 111.349 122.891 104.469 122.891 104.469C122.891 104.469 128.114 104.885 128.974 104.969L133.338 104.141L136.651 106.792Z" fill="#C41830"/>
<path d="M129.005 127.328L130 129.01L128.234 133.688C128.234 133.688 125.172 133.375 124.786 133.453C124.406 133.531 121.651 135.828 121.651 135.828L114.438 134.833L112.062 131.385L113.672 129.703H116.812L121.005 125.219L129.005 127.328Z" fill="#794426"/>
<path d="M121.38 81.6149C123.057 82.1774 135.87 85.9847 135.87 85.9847L137.24 74.4639L141.531 75.1878L147.906 69.9795L146.365 80.9118L142.12 84.3805L138.261 89.3962L122.375 85.9274L121.667 82.8545L121.38 81.6149Z" fill="#C41830"/>
<path d="M114.235 146.526C46.62 106.614 87.5992 95.5361 121.224 80.9268L121.386 81.6143L121.672 82.859L110.078 93.9893L98.1982 93.0674L94.7763 101.192H92.8336C92.8336 101.192 86.5471 106.63 86.2398 106.786C85.9377 106.942 88.8492 113.187 88.8492 113.187C88.8492 113.187 98.1982 112.385 98.4273 112.302C98.6617 112.229 103.334 115.369 103.334 115.369L105.766 114.994C105.573 115.812 105.427 116.468 105.396 116.593C105.323 116.979 108.844 117.286 109.078 117.286C109.308 117.286 115.667 117.817 116.052 117.817L117.584 117.13L118.167 115.093C130.401 122.406 173.198 133.13 193.073 135.437C161.662 133.739 144.828 139.646 135.474 143.093C131.547 144.541 123.656 145.937 114.235 146.526ZM130 129.01L129.005 127.328L121.005 125.213L116.813 129.698H113.672L112.063 131.385L114.438 134.828L121.651 135.828C121.651 135.828 124.406 133.526 124.787 133.453C125.177 133.369 128.235 133.682 128.235 133.682L130 129.01Z" fill="#87AAD2"/>
<mask id="mask2_5558_5498" style="mask-type:luminance" maskUnits="userSpaceOnUse" x="71" y="80" width="51" height="68">
<path d="M71.3335 80H122V147.693H71.3335V80Z" fill="white"/>
</mask>
<g mask="url(#mask2_5558_5498)">
<path d="M121.224 80.9274C87.5939 95.5368 46.6147 106.615 114.235 146.526V146.532C110.729 146.756 107.011 146.865 103.208 146.823L103.214 146.526C39.0418 106.104 86.7866 92.8076 121.005 80.0107L121.224 80.9274Z" fill="#794426"/>
</g>
<mask id="mask3_5558_5498" style="mask-type:luminance" maskUnits="userSpaceOnUse" x="8" y="77" width="115" height="71">
<path d="M8.66699 77.333H122V147.692H8.66699V77.333Z" fill="white"/>
</mask>
<g mask="url(#mask3_5558_5498)">
<path d="M120.417 77.4316L121.006 80.0098C86.7868 92.8066 39.0473 106.104 103.214 146.525L103.209 146.822C92.8598 146.723 81.865 145.515 72.74 142.426C58.2504 137.525 33.9535 137.083 26.8962 138.525C11.1566 130.13 6.1983 120.156 11.7296 113.187C12.2973 112.468 12.9848 111.781 13.7764 111.13C20.7035 105.468 64.7243 88.5358 99.1462 80.9264C99.6827 81.7077 100.224 82.3848 100.454 82.3327C100.964 82.2025 103.797 82.2077 104.177 82.3327C104.563 82.4577 107.907 80.015 107.907 80.015L108.052 79.1348C112.125 78.4004 115.985 77.8483 119.532 77.515C119.834 77.4837 120.125 77.4577 120.417 77.4316ZM60.6879 131.057C61.5212 128.166 61.7035 123.989 61.1827 119.557C61.2973 117.031 61.3702 114.114 61.3702 110.421C61.1827 108.9 60.9743 107.64 60.7608 106.614C60.0316 103.135 59.2556 102.239 59.2556 102.239C59.2556 102.239 52.8337 101.697 48.3389 101.979C44.7243 102.208 42.7035 102.546 42.5056 102.51C41.0733 103.531 39.9379 104.765 39.0525 106.104C37.5577 108.364 36.7816 110.926 36.5733 113.291C34.141 115.421 32.2035 118.442 31.1254 121.604C30.7816 122.63 30.5264 123.666 30.3702 124.697C30.2087 125.729 30.1566 126.755 30.2243 127.744C30.7139 127.89 31.4796 128.025 32.4483 128.156V128.166C32.6046 129.536 33.2191 130.588 33.7087 131.057H36.1983C36.8129 130.541 37.1254 129.671 37.2608 128.624V128.604C43.0004 128.979 50.7973 129.062 56.3806 128.468C56.3806 129.364 56.8077 130.588 57.2921 131.057H60.6879Z" fill="#87AAD2"/>
</g>
<path d="M118.969 112.302C118.969 112.302 118.193 111.552 117.354 110.771L118.969 102.511C118.969 102.511 115.854 100.881 114.985 100.881C114.115 100.881 110.073 93.9951 110.073 93.9951L121.667 82.8649L122.375 85.9326L138.261 89.4066L142.12 84.391L146.365 80.917L147.907 69.9847L143.662 62.141C146.683 56.6462 155.537 47.3545 155.537 47.3545C155.537 47.3545 172.735 35.2347 173.308 34.6514C173.881 34.0785 190.953 13.6357 190.953 13.6357C190.953 13.6357 198.354 20.7243 198.688 26.7764C199.026 32.8337 188.464 49.0264 193.078 52.6253C197.688 56.2191 204.042 69.2712 195.688 84.8076C191.615 92.3701 208.844 111.74 193.078 135.438C173.209 133.131 130.407 122.412 118.172 115.099L118.969 112.302ZM119.084 111.521C119.334 111.683 121.073 114.422 121.073 114.422L130.87 117.646L138.396 113.589L136.657 106.792L133.339 104.141L128.979 104.974C128.12 104.886 122.896 104.474 122.896 104.474C122.896 104.474 118.834 111.354 119.084 111.521ZM180.438 46.4535L181.469 43.7555L176.839 39.766H170.797L169.506 43.7555V45.4222L166.677 48.4482L168.094 52.6305L175.297 51.8545C175.297 51.8545 179.026 51.5941 179.157 50.9535C179.282 50.3076 180.438 46.4535 180.438 46.4535ZM164.235 67.4118C164.875 66.9014 169.636 63.8597 169.381 63.5785C169.12 63.2972 167.839 59.1826 167.453 59.6982C167.068 60.2087 161.282 59.6982 161.282 59.6982L158.709 63.943C158.709 63.943 163.594 67.9222 164.235 67.4118Z" fill="#794426"/>
<path d="M118.969 102.506L117.354 110.766C116.49 109.959 115.557 109.125 115.365 109.084C114.979 109.006 110.724 108.547 110.724 108.547L106.703 110.927C106.703 110.927 106.151 113.318 105.766 114.995L103.334 115.375C103.334 115.375 98.6616 112.229 98.4273 112.308C98.1981 112.386 88.8491 113.193 88.8491 113.193C88.8491 113.193 85.9377 106.943 86.2398 106.792C86.547 106.641 92.8335 101.198 92.8335 101.198H94.7762L98.1981 93.0732L110.078 93.9951C110.078 93.9951 114.12 100.881 114.99 100.881C115.854 100.87 118.969 102.506 118.969 102.506Z" fill="#794426"/>
<path d="M118.172 115.099L117.589 117.135L116.057 117.823C115.672 117.823 109.312 117.286 109.078 117.286C108.849 117.286 105.328 116.979 105.401 116.599C105.432 116.474 105.578 115.818 105.771 114.995C106.156 113.318 106.708 110.927 106.708 110.927L110.729 108.547C110.729 108.547 114.984 109.01 115.37 109.083C115.562 109.125 116.495 109.958 117.359 110.766C118.198 111.547 118.969 112.297 118.969 112.297L118.172 115.099Z" fill="#C41830"/>
<path d="M119.537 77.516C115.99 77.8545 112.131 78.4014 108.058 79.1357L108.334 77.3857H119.526L119.537 77.516Z" fill="#5FB6BE"/>
<path d="M113.292 44.0205L113.808 46.1663L113.292 47.4945H110.979V45.0518C110.979 45.0465 112.907 44.0205 113.292 44.0205Z" fill="#C41830"/>
<path d="M112.391 51.9948C112.391 51.9948 112.646 53.4115 112.391 54.0521C112.13 54.6927 110.849 55.2083 110.974 55.4635C111.104 55.724 107.245 55.4635 106.729 55.4635C106.214 55.4635 106.729 52.7656 106.729 52.7656C106.729 52.7656 110.198 51.099 110.974 50.9688L112.391 51.9948Z" fill="#794426"/>
<path d="M112.031 26.7764L111.13 28.5732H108.297L107.396 26.9066C107.396 26.9066 108.042 25.6201 108.297 24.9795L112.031 26.7764Z" fill="#C41830"/>
<path d="M106.24 72.6826L108.683 75.1878L108.334 77.3805L108.052 79.1305L107.907 80.0107C107.907 80.0107 104.563 82.4535 104.177 82.3285C103.792 82.2035 100.964 82.1982 100.453 82.3285C100.224 82.3857 99.6878 81.7087 99.1462 80.9274C98.443 79.9118 97.7451 78.7243 97.7451 78.7243C97.7451 78.7243 97.9222 78.141 98.141 77.3753C98.5212 76.0524 99.0368 74.2087 99.0368 73.9691C99.0368 73.5837 105.724 72.8128 106.24 72.6826Z" fill="#C41830"/>
<path d="M94.0212 54.8026C94.5368 54.0317 99.8076 54.938 100.323 54.8078C100.349 54.8026 100.386 54.8026 100.433 54.8182C101.188 55.0526 104.177 58.1567 104.177 58.1567C104.177 58.1567 102.766 63.813 102.589 64.2036C102.469 64.464 101.36 65.3442 100.651 65.8911C100.308 66.1515 100.068 66.339 100.068 66.339C100.068 66.339 97.6253 65.6151 97.1097 65.6151C96.5993 65.6151 95.4378 66.5161 95.0524 67.0682L91.9639 65.7401V60.7765C91.9691 60.7765 93.5107 55.5838 94.0212 54.8026Z" fill="#794426"/>
<path d="M97.7554 78.7295C97.7554 78.7295 98.4481 79.917 99.1512 80.9274C64.7293 88.5368 20.7085 105.469 13.7814 111.131C12.9845 111.782 12.3075 112.469 11.7345 113.188C3.73975 106.948 29.0679 96.266 30.1877 93.068C31.3075 89.8701 -11.8592 86.8545 5.57308 77.3857H98.1408C97.9272 78.1462 97.7554 78.7295 97.7554 78.7295Z" fill="#5FB6BE"/>
<path d="M97.1094 65.6091C97.6198 65.6091 100.068 66.3382 100.068 66.3382C100.068 66.3382 100.312 66.1507 100.651 65.8851C107.703 69.2549 115.547 74.0414 119.521 77.3799H108.333L108.682 75.1872L106.24 72.682C105.729 72.8122 99.0365 73.583 99.0365 73.9736C99.0365 74.2132 98.526 76.0622 98.1458 77.3799H5.57812C15.0313 68.3903 25.8073 56.9164 33.3958 56.7393C40.9896 56.5622 51.9375 68.3903 60.2344 69.4528C68.5313 70.5101 82.4844 61.8591 88.6667 61.8591C89.5469 61.8591 90.6719 62.0622 91.9688 62.4216V65.7341L95.0573 67.0622C95.4375 66.5101 96.599 65.6091 97.1094 65.6091Z" fill="#87AAD2"/>
<path d="M85.6668 29.7344L87.5939 32.3698L86.2085 33.974L84.8908 35.0052C84.8908 35.0052 82.8335 32.3073 82.8335 32.1771C82.8335 32.0469 85.1564 29.9948 85.6668 29.7344Z" fill="#794426"/>
<path d="M61.1823 119.558C61.6979 123.99 61.5208 128.167 60.6875 131.058H57.2865C56.8021 130.584 56.375 129.365 56.375 128.469C58.026 128.292 59.4948 128.052 60.651 127.75C60.8542 125.157 61.0469 122.651 61.1823 119.558Z" fill="#5FB6BE"/>
<path d="M51.8493 122.318C51.4431 122.568 50.5264 125.157 50.5264 125.157L58.6306 124.735V121.604L51.8493 122.318ZM37.49 125.157L36.5681 122.401L31.1202 121.61C32.1983 118.443 34.141 115.422 36.5681 113.297C39.5733 115.349 54.5785 115.573 59.2556 113.703C59.2556 113.703 59.9223 111.875 60.4171 109.099C60.5525 108.339 60.6775 107.506 60.766 106.62C60.9796 107.651 61.1931 108.907 61.3754 110.433C61.3702 114.115 61.3025 117.032 61.1879 119.563C61.0473 122.662 60.8546 125.162 60.6514 127.756C59.4952 128.063 58.0316 128.297 56.3754 128.474C50.7921 129.068 42.9952 128.985 37.2556 128.615C35.3858 128.49 33.7348 128.334 32.4431 128.162C31.4796 128.037 30.7139 127.896 30.2243 127.756C30.1566 126.766 30.2035 125.735 30.365 124.703L37.49 125.157ZM49.4483 125L49.7504 122.849H38.0681L38.3754 125H49.4483Z" fill="#C41830"/>
<path d="M58.8441 103.812L60.4118 109.094C59.9222 111.875 59.2503 113.698 59.2503 113.698L58.2139 106.104C58.2139 106.104 58.5107 105.062 58.8441 103.812Z" fill="#5FB6BE"/>
<path d="M59.25 102.239C59.25 102.239 60.0313 103.135 60.7604 106.614C60.6667 107.5 60.5417 108.328 60.4062 109.093L58.8438 103.807C58.9792 103.307 59.125 102.76 59.25 102.239Z" fill="#5FB6BE"/>
<path d="M58.2137 106.104L59.2502 113.698C54.5783 115.573 39.5679 115.344 36.5679 113.292C36.7762 110.927 37.5522 108.365 39.0418 106.104C39.7762 106.276 51.4429 107.276 58.2137 106.104Z" fill="#5FB6BE"/>
<path d="M59.25 102.239C59.1198 102.76 58.9792 103.307 58.8438 103.812C58.5052 105.062 58.2135 106.104 58.2135 106.104C51.4427 107.276 39.7708 106.276 39.0469 106.104C39.9323 104.765 41.0729 103.536 42.5 102.51C42.6979 102.552 44.7187 102.208 48.3333 101.984C52.8281 101.698 59.25 102.239 59.25 102.239Z" fill="#C41830"/>
<path d="M58.6305 121.609V124.74L50.5264 125.161C50.5264 125.161 51.443 122.573 51.8493 122.323L58.6305 121.609Z" fill="#794426"/>
<path d="M49.7502 122.854L49.4481 125H38.3752L38.0679 122.854H49.7502Z" fill="#5FB6BE"/>
<path d="M36.5677 122.401L37.4896 125.157L30.3594 124.698C30.5156 123.667 30.776 122.631 31.1198 121.604L36.5677 122.401Z" fill="#794426"/>
<path d="M37.2502 128.604V128.625C37.12 129.677 36.8022 130.542 36.1929 131.057H33.6981C33.2137 130.583 32.5991 129.536 32.4429 128.167V128.156C33.7293 128.328 35.3804 128.484 37.2502 128.604Z" fill="#5FB6BE"/>
<path d="M120.615 77.7764H108.333V76.9847H118.406C114.25 73.7243 106.953 69.3389 100.484 66.2451L100.828 65.5264C107.823 68.8701 115.797 73.7295 119.781 77.0785L120.615 77.7764Z" fill="black"/>
<path d="M98.1462 77.7763H4.58887L5.30762 77.094C6.52116 75.9378 7.76074 74.7398 9.01074 73.5315C17.667 65.1565 26.6201 56.5003 33.391 56.3492C37.4587 56.245 42.266 59.3753 47.3545 62.6825C51.8024 65.5784 56.4014 68.5628 60.292 69.0628C64.9326 69.6565 71.542 67.0836 77.3701 64.8128C81.7816 63.0888 85.9535 61.4638 88.667 61.4638C89.5576 61.4638 90.7035 61.6565 92.0785 62.0471L91.8649 62.8128C90.5628 62.443 89.4847 62.2555 88.667 62.2555C86.0993 62.2555 82.0003 63.8544 77.6566 65.5471C71.7399 67.8544 65.0368 70.469 60.193 69.8492C56.1253 69.3284 51.4482 66.2867 46.9222 63.344C42.167 60.2503 37.2503 57.0575 33.4118 57.1409C26.9535 57.2867 18.1149 65.8336 9.56803 74.1044C8.55762 75.0784 7.56283 76.0419 6.57845 76.9846H98.1566V77.7763H98.1462Z" fill="black"/>
<mask id="mask4_5558_5498" style="mask-type:luminance" maskUnits="userSpaceOnUse" x="8" y="80" width="187" height="68">
<path d="M8.66699 80H194V147.693H8.66699V80Z" fill="white"/>
</mask>
<g mask="url(#mask4_5558_5498)">
<path d="M104.745 147.229C104.229 147.229 103.719 147.224 103.208 147.218C94.9689 147.135 82.9689 146.302 72.62 142.802C58.5522 138.041 34.271 137.422 26.9793 138.906L26.8439 138.932L26.7137 138.864C16.7866 133.573 10.6252 127.364 9.39079 121.39C8.75537 118.338 9.4585 115.416 11.4272 112.932C12.0106 112.198 12.7189 111.484 13.5314 110.817C20.7085 104.953 64.797 88.109 99.0679 80.5361L99.2397 81.3122C65.0627 88.8643 21.1564 105.614 14.0366 111.432C13.2658 112.062 12.5991 112.734 12.0522 113.427C10.2033 115.75 9.57308 118.369 10.1668 121.224C11.3543 126.937 17.3127 132.927 26.9637 138.099C34.495 136.63 58.7762 137.276 72.8752 142.041C83.1304 145.515 95.0366 146.338 103.224 146.416C106.854 146.453 110.552 146.359 114.214 146.125C123.047 145.567 131.141 144.26 135.339 142.718C142.974 139.901 158.24 134.276 185.714 134.765C164.511 131.234 129.063 122.062 117.969 115.427L117.922 115.401C117.875 115.369 117.833 115.343 117.781 115.317L118.214 114.651C118.25 114.672 118.292 114.692 118.323 114.718L118.375 114.744C130.807 122.177 174.073 132.828 193.125 135.036L193.057 135.828C161.026 134.093 143.86 140.422 135.61 143.463C131.344 145.031 123.162 146.354 114.261 146.916C111.094 147.13 107.896 147.229 104.745 147.229Z" fill="black"/>
</g>
<path d="M108.125 79.5264L107.99 78.7451C112.141 77.9951 116.016 77.4535 119.5 77.1201C119.818 77.0889 120.104 77.0628 120.38 77.042L120.443 77.8285C120.172 77.8545 119.886 77.8753 119.61 77.9066C116.104 78.2347 112.255 78.7816 108.125 79.5264Z" fill="black"/>
<path d="M121.766 136.25L114.214 135.203L111.558 131.349L113.506 129.302H116.646L120.886 124.771L129.266 126.984L130.443 128.974L128.506 134.114L128.198 134.083C126.756 133.937 125.115 133.812 124.87 133.849C124.62 133.948 123.162 135.093 121.907 136.135L121.766 136.25ZM114.672 134.468L121.532 135.416C122.802 134.359 124.328 133.146 124.709 133.067C125.068 132.994 126.927 133.161 127.974 133.265L129.563 129.052L128.745 127.672L121.136 125.661L116.99 130.093H113.844L112.578 131.427L114.672 134.468Z" fill="black"/>
<path d="M116.136 118.219H116.052C115.839 118.219 114.172 118.084 111.844 117.896C110.542 117.797 109.198 117.688 109.078 117.683C109.047 117.683 105.584 117.479 105.115 116.912C105.021 116.802 104.985 116.657 105.011 116.521C105.042 116.386 105.188 115.724 105.38 114.901C105.761 113.219 106.318 110.834 106.318 110.834L106.36 110.667L110.641 108.136L110.771 108.151C111.209 108.198 115.052 108.62 115.443 108.693C115.589 108.719 115.802 108.766 117.63 110.474C118.474 111.261 119.25 112.016 119.25 112.016L119.422 112.183L117.922 117.422L116.136 118.219ZM105.839 116.438C106.516 116.657 108.755 116.886 109.078 116.891C109.183 116.891 109.979 116.953 111.906 117.11C113.448 117.235 115.516 117.401 115.979 117.422L117.255 116.844L118.521 112.422C118.25 112.162 117.683 111.62 117.084 111.058C115.709 109.771 115.339 109.516 115.255 109.464C114.865 109.401 112.464 109.136 110.813 108.959L107.052 111.177C106.922 111.745 106.474 113.662 106.151 115.084C106.016 115.657 105.906 116.151 105.839 116.438Z" fill="black"/>
<path d="M103.24 115.787L103.11 115.698C101.11 114.349 98.8596 112.907 98.4064 112.709C97.6929 112.808 94.4898 113.099 88.8804 113.584L88.6044 113.604L88.4898 113.354C85.4116 106.761 85.6721 106.631 86.0627 106.433C86.37 106.235 90.1252 103.011 92.5731 100.891L92.6877 100.797H94.5158L97.9481 92.6514L110.318 93.6097L110.417 93.792C112.193 96.8076 114.443 100.203 115.031 100.479C115.985 100.516 118.63 101.881 119.156 102.157L119.417 102.292L117.75 110.844L116.974 110.693L118.526 102.724C117.339 102.115 115.516 101.271 114.995 101.271C114.104 101.271 111.724 97.5628 109.844 94.3701L98.4585 93.4847L95.0471 101.589H92.9898C91.2346 103.104 87.6096 106.235 86.6512 106.985C86.8335 107.698 87.9741 110.339 89.0991 112.771C92.7294 112.453 98.0002 111.99 98.3387 111.922C98.5314 111.854 98.7241 111.792 103.432 114.959L105.714 114.604L105.839 115.386L103.24 115.787ZM98.5419 112.677C98.5262 112.683 98.5002 112.688 98.4585 112.693C98.4846 112.693 98.5106 112.688 98.5419 112.677ZM86.4846 107.094C86.4533 107.115 86.4325 107.131 86.4169 107.141C86.4429 107.125 86.4637 107.11 86.4846 107.094Z" fill="black"/>
<path d="M130.906 118.078L120.818 114.756L120.74 114.636C119.948 113.391 119.021 112.006 118.838 111.834C118.495 111.599 118.307 111.474 122.552 104.271L122.682 104.052L122.927 104.073C123.141 104.089 127.958 104.479 128.958 104.573L133.443 103.714L137.005 106.563L138.854 113.792L130.906 118.078ZM121.328 114.089L130.828 117.219L137.932 113.386L136.297 107.021L133.229 104.563L128.984 105.375L128.927 105.37C128.193 105.292 124.151 104.969 123.109 104.886C121.5 107.615 119.797 110.641 119.5 111.401C119.828 111.792 120.443 112.688 121.328 114.089ZM119.323 111.203C119.333 111.214 119.344 111.224 119.359 111.235C119.344 111.229 119.333 111.214 119.323 111.203Z" fill="black"/>
<path d="M138.422 89.8434L122.042 86.2653L118.505 70.9163L118.802 70.7809C119.802 70.3278 124.589 68.1872 125.563 67.8382L131.927 60.5674L143.917 61.7601L148.318 69.9059L146.74 81.1195L142.412 84.6611L138.422 89.8434ZM122.703 85.5934L138.099 88.958L141.865 84.0778L145.99 80.7028L147.49 70.0518L143.412 62.5049L132.25 61.3955L126.005 68.5309L125.886 68.5622C125.537 68.6559 121.86 70.2757 119.427 71.3695L122.703 85.5934Z" fill="black"/>
<path d="M126.24 59.0986L118.568 54.2549V48.8122L118.594 48.7445C119.886 45.5934 121.844 40.807 121.938 40.5361L122 40.3434L130.354 37.7861L130.516 37.9007C133.464 40.0257 138.453 43.6559 138.714 44.0413C138.797 44.1663 139.042 44.5361 138.781 51.4788L138.776 51.5934L135.542 56.307L126.24 59.0986ZM119.36 53.8174L126.36 58.2393L135.052 55.6299L138 51.3382C138.11 48.3122 138.156 44.9945 138.042 44.4632C137.599 44.0309 133.104 40.7393 130.219 38.6611L122.62 40.9893C122.156 42.1715 119.776 47.9736 119.365 48.9736V53.8174H119.36Z" fill="black"/>
<path d="M150.557 43.141L145.844 42.318L143.75 40.1514L144.615 35.542L144.906 35.5107C145.844 35.4222 146.969 35.3441 147.641 35.4378L148.49 32.7816L151.146 31.7451L156.193 34.4118L156.141 34.6982C155.833 36.292 155.375 38.818 155.375 39.2607C155.375 39.4795 155.375 40.1305 150.693 43.0628L150.557 43.141ZM146.234 41.5837L150.396 42.3076C152.271 41.1253 154.349 39.6462 154.583 39.2139C154.609 38.5316 155.12 35.7868 155.307 34.8337L151.099 32.6097L149.13 33.3753L148.125 36.5212L147.698 36.2451C147.453 36.1514 146.318 36.1826 145.281 36.2712L144.604 39.891L146.234 41.5837Z" fill="black"/>
<path d="M167.818 53.057L166.229 48.3486L169.11 45.2653L169.131 43.6247L170.511 39.3643H176.985L181.938 43.6299L180.808 46.5882C180.417 47.8851 179.636 50.5257 179.542 51.0205C179.495 51.2549 179.349 51.9632 175.323 52.2393L167.818 53.057ZM167.136 48.5413L168.37 52.1976L175.256 51.458C176.907 51.3434 178.485 51.0518 178.776 50.8174C178.948 50.0361 180.011 46.4893 180.063 46.3382L180.995 43.8695L176.688 40.1611H171.089L169.901 43.8122V45.5778L167.136 48.5413Z" fill="black"/>
<path d="M164.13 67.8437C163.573 67.8437 162.203 67.3073 158.458 64.25L158.193 64.0312L161.068 59.2812L161.313 59.2968C163.781 59.5208 166.693 59.6198 167.172 59.4114C167.287 59.2916 167.438 59.2343 167.594 59.2552C168.052 59.3177 168.37 59.9687 169.219 62.1666C169.396 62.6354 169.62 63.2187 169.693 63.3281C169.761 63.401 169.797 63.5208 169.787 63.6562C169.745 64.0312 169.224 64.4791 165.875 66.7552C165.224 67.1927 164.667 67.5781 164.485 67.7187C164.422 67.7708 164.333 67.8437 164.13 67.8437ZM159.229 63.8489C161.182 65.4218 163.469 67.0208 164.042 67.0625C164.276 66.8802 164.787 66.5364 165.422 66.1041C166.422 65.4218 168.412 64.0729 168.922 63.5781C168.828 63.375 168.693 63.0468 168.474 62.4531C168.224 61.8125 167.745 60.5677 167.474 60.1302C166.974 60.3125 165.599 60.4687 161.49 60.1146L159.229 63.8489Z" fill="black"/>
<path d="M174.224 25.4111L170.005 24.4007L168.969 18.958L169.083 18.8174C169.323 18.5049 170.568 16.932 171.135 16.6455L171.219 16.5986H174.25L176.531 18.4215L176.568 18.5153C176.891 19.3122 177.63 21.208 177.63 21.6247C177.63 21.8018 177.63 22.1768 174.385 25.2549L174.224 25.4111ZM170.688 23.7497L173.99 24.5361C175.234 23.3486 176.589 21.958 176.823 21.583C176.755 21.2445 176.297 19.9945 175.865 18.9163L173.969 17.3955H171.422C171.115 17.6143 170.401 18.4268 169.812 19.1611L170.688 23.7497Z" fill="black"/>
<path d="M140 20.8017L135.896 19.2444L133.953 14.2444L135.734 11.8642L135.917 11.8538C136.49 11.8121 139.391 11.6038 140.083 11.8798L140.104 11.8903C140.964 12.2913 142.031 12.734 142.255 12.7548C142.516 12.7392 142.906 12.7548 144.547 16.8642L144.656 17.1403L140 20.8017ZM136.51 18.6246L139.865 19.9007L143.698 16.8798C143.109 15.4371 142.385 13.8642 142.109 13.5309C141.599 13.4423 140.464 12.9319 139.781 12.6142C139.427 12.484 137.698 12.5205 136.156 12.6298L134.859 14.3694L136.51 18.6246Z" fill="black"/>
<path d="M111.37 28.9743H108.058L106.948 26.9118L107.042 26.7295C107.047 26.7191 107.677 25.4535 107.927 24.8285L108.089 24.4326L112.563 26.5941L111.37 28.9743ZM108.537 28.1774H110.881L111.49 26.9587L108.5 25.5107C108.282 26.0003 107.99 26.5993 107.844 26.8962L108.537 28.1774Z" fill="black"/>
<path d="M100.417 82.7295C100.084 82.7295 99.6982 82.4066 98.8285 81.1514C98.1253 80.141 97.443 78.9795 97.4118 78.9274L97.3232 78.7816L97.3701 78.6201C97.3701 78.6201 97.5472 78.0316 97.7607 77.2712C98.5316 74.568 98.6305 74.0576 98.641 73.9587C98.641 73.5003 98.641 73.3441 104.558 72.5316C105.308 72.4274 106.011 72.3285 106.136 72.2972L106.36 72.2451L109.104 75.0576L108.276 80.2347L108.146 80.3337C104.631 82.8962 104.245 82.7712 104.058 82.7087C103.735 82.6201 101.016 82.5941 100.552 82.7139C100.511 82.7295 100.464 82.7295 100.417 82.7295ZM104.292 81.9482C104.292 81.9482 104.302 81.9535 104.308 81.9535C104.297 81.9482 104.292 81.9482 104.292 81.9482ZM102.318 81.8389C103.11 81.8389 103.907 81.8701 104.224 81.9326C104.615 81.818 106.198 80.766 107.547 79.792L108.261 75.3285L106.104 73.1149C105.839 73.1618 105.381 73.2243 104.667 73.318C103.157 73.5264 100.11 73.9482 99.4066 74.1982C99.3493 74.516 99.1514 75.2972 98.5264 77.4899C98.3805 78.0107 98.2503 78.4535 98.1826 78.6774C98.391 79.0264 98.9326 79.9222 99.4743 80.7035C100.094 81.5889 100.365 81.8493 100.464 81.9222C100.813 81.8649 101.563 81.8389 102.318 81.8389Z" fill="black"/>
<path d="M95.1981 67.557L91.5679 65.9997L91.5887 60.6664C91.745 60.1299 93.1616 55.3904 93.6877 54.5883C94.1043 53.9685 95.5783 54.0049 98.7241 54.3122C99.3647 54.3747 100.083 54.4476 100.24 54.4216C100.339 54.3956 100.448 54.4112 100.531 54.4268L100.552 54.4372C101.344 54.682 103.75 57.1351 104.464 57.8799L104.615 58.0414L104.563 58.2497C104.328 59.2029 103.136 63.9633 102.948 64.3695C102.865 64.5518 102.63 64.8591 100.896 66.2029C100.552 66.4685 100.307 66.656 100.307 66.656L100.146 66.7758L99.9533 66.7185C98.9637 66.4216 97.422 66.0101 97.1095 66.0101C96.8075 66.0101 95.7606 66.7497 95.3804 67.2914L95.1981 67.557ZM92.3647 65.4737L94.9377 66.5779C95.4585 66.0049 96.4897 65.2133 97.1095 65.2133C97.5939 65.2133 99.3179 65.7029 99.9845 65.8956C100.089 65.8174 100.24 65.7081 100.412 65.5726C101.953 64.3799 102.198 64.0831 102.24 64.0154C102.36 63.7289 103.208 60.4268 103.745 58.2654C102.375 56.8539 100.792 55.3799 100.349 55.2029C100.104 55.2341 99.6616 55.1924 98.646 55.0935C97.4741 54.9789 94.7293 54.7081 94.3387 55.0414C94.0054 55.5466 92.9793 58.7654 92.3647 60.8331V65.4737Z" fill="black"/>
<path d="M84.8231 35.5628L84.5783 35.2451C82.4429 32.443 82.4429 32.3389 82.4429 32.1774C82.4429 31.6305 85.4585 29.391 85.4897 29.3805L85.7866 29.2295L88.1043 32.391L86.4637 34.292L84.8231 35.5628ZM83.3231 32.2191C83.5991 32.6201 84.2814 33.5472 84.9689 34.443L85.9377 33.6878L87.0887 32.3493L85.5679 30.2712C84.9637 30.7243 83.7554 31.7868 83.3231 32.2191Z" fill="black"/>
<path d="M110.068 55.9743C109.526 55.9743 108.729 55.9482 107.537 55.891C107.151 55.8701 106.854 55.8597 106.734 55.8597C106.568 55.8597 106.422 55.7868 106.313 55.6618C105.953 55.2243 106.125 53.8024 106.344 52.693L106.38 52.4951L106.557 52.4118C106.917 52.2347 110.104 50.7139 110.906 50.5732L111.068 50.542L112.75 51.766L112.776 51.9222C112.807 52.0785 113.047 53.4691 112.76 54.193C112.573 54.6514 112.089 54.9951 111.693 55.2764C111.604 55.3337 111.505 55.4118 111.422 55.4743L111.432 55.4847L111.307 55.7035C111.198 55.8805 111.068 55.9743 110.068 55.9743ZM106.917 55.0732C107.073 55.0732 107.307 55.0889 107.573 55.0993C108.349 55.1357 110.057 55.2139 110.641 55.167C110.76 54.9743 111 54.8024 111.24 54.6357C111.531 54.4274 111.932 54.141 112.026 53.9014C112.167 53.5472 112.109 52.7451 112.031 52.2243L110.891 51.391C110.208 51.5941 108.323 52.4482 107.094 53.0368C106.938 53.8857 106.87 54.7399 106.917 55.0732Z" fill="black"/>
<path d="M113.563 47.891H110.583V44.8076L110.792 44.6982C111.547 44.2972 112.875 43.6201 113.292 43.6201H113.604L114.219 46.1878L113.563 47.891ZM111.375 47.0993H113.021L113.391 46.1357L113 44.516C112.615 44.667 111.964 44.9795 111.375 45.2868V47.0993Z" fill="black"/>
<path d="M161.016 15.5264C160.756 15.5264 160.49 15.5107 160.282 15.4587L159.979 15.3805V11.7295H161.849L163.453 13.6462L162.146 15.443L161.974 15.4639C161.901 15.4743 161.469 15.5264 161.016 15.5264ZM160.776 14.7295C161.063 14.7451 161.433 14.7243 161.703 14.6982L162.448 13.6774L161.479 12.5264H160.771V14.7295H160.776Z" fill="black"/>
<path d="M145.432 102.437L144.812 101.942C146.943 99.2757 149.661 97.0257 152.677 95.4372C153.406 95.057 154.172 94.6976 154.906 94.3538C156.776 93.4841 158.703 92.5882 160.177 91.1716C161.224 90.1716 162.042 88.9007 162.823 87.682C163.01 87.3955 163.193 87.109 163.375 86.833C166.49 82.1299 170.625 78.0101 175.328 74.9268C175.719 74.6716 176.109 74.4215 176.51 74.1715C179.396 72.3278 182.375 70.4268 183.302 67.3174L184.062 67.5413C183.052 70.9372 179.943 72.9215 176.938 74.8382C176.542 75.0934 176.146 75.3434 175.766 75.5934C171.146 78.6195 167.089 82.6559 164.036 87.2705C163.854 87.5465 163.672 87.8278 163.49 88.1091C162.677 89.3747 161.839 90.682 160.724 91.7445C159.156 93.2497 157.161 94.1768 155.24 95.0778C154.51 95.4163 153.755 95.7653 153.036 96.1403C150.13 97.6768 147.5 99.8538 145.432 102.437Z" fill="black"/>
<path d="M124.115 99.182L123.552 98.6247C125.485 96.682 127.896 95.2236 130.521 94.4163C131.464 94.1247 132.438 93.9163 133.386 93.7184C134.604 93.458 135.865 93.1924 137.031 92.7497C140.005 91.6195 142.307 89.4528 144.745 87.1611C146.511 85.5049 148.333 83.7913 150.427 82.5205L150.839 83.1976C148.813 84.4215 147.021 86.109 145.287 87.7393C142.901 89.984 140.432 92.2965 137.307 93.484C136.089 93.9528 134.797 94.2236 133.547 94.4893C132.62 94.6872 131.656 94.8903 130.75 95.1715C128.25 95.9424 125.958 97.333 124.115 99.182Z" fill="black"/>
<path d="M109.797 93.7035L121.391 82.5732L121.943 83.1462L110.344 94.2764L109.797 93.7035Z" fill="black"/>
<path d="M193.406 135.661L192.745 135.219C202.979 119.839 199.214 106.427 196.458 96.6302C195.005 91.4531 193.854 87.3646 195.333 84.6198C203.76 68.9479 197.146 56.3021 192.833 52.9375C189.844 50.6094 192.526 43.8958 195.125 37.4062C196.823 33.1615 198.422 29.151 198.292 26.8021C198.01 21.6563 192.359 15.625 190.979 14.2188C188.698 16.9531 174.13 34.3854 173.589 34.9323C173.01 35.5104 157.708 46.3073 155.797 47.651C155.255 48.2188 146.891 57.0885 144.01 62.3281L143.312 61.9427C146.323 56.4635 154.885 47.4583 155.25 47.0729L155.307 47.0208C162.177 42.1823 172.562 34.8177 173.031 34.3646C173.474 33.9167 184.75 20.4427 190.651 13.375L190.922 13.0469L191.229 13.3385C191.536 13.6354 198.75 20.6094 199.089 26.75C199.229 29.276 197.594 33.3646 195.865 37.6927C193.495 43.6198 190.802 50.3385 193.328 52.3073C197.807 55.7969 204.703 68.875 196.042 84.9844C194.714 87.4479 195.823 91.401 197.229 96.4062C200.016 106.359 203.844 119.974 193.406 135.661Z" fill="black"/>
<mask id="mask5_5558_5498" style="mask-type:luminance" maskUnits="userSpaceOnUse" x="70" y="78" width="52" height="70">
<path d="M70 78.667H122V147.693H70V78.667Z" fill="white"/>
</mask>
<g mask="url(#mask5_5558_5498)">
<path d="M103.006 146.86C80.5681 132.724 70.1827 120.943 71.2504 110.834C72.6879 97.2868 94.8754 89.167 114.448 82.0003C116.62 81.2087 118.766 80.4222 120.87 79.6357L121.146 80.3805C119.047 81.167 116.896 81.9535 114.724 82.7451C95.365 89.8337 73.4275 97.8649 72.042 110.917C71.0056 120.698 81.2712 132.235 103.427 146.188L103.006 146.86Z" fill="black"/>
</g>
<mask id="mask6_5558_5498" style="mask-type:luminance" maskUnits="userSpaceOnUse" x="76" y="80" width="47" height="68">
<path d="M76.667 80H122V147.693H76.667V80Z" fill="white"/>
</mask>
<g mask="url(#mask6_5558_5498)">
<path d="M114.032 146.87C88.7191 131.927 76.7451 119.849 77.4222 109.959C78.2086 98.542 94.9847 91.5212 112.745 84.0941C115.49 82.9482 118.323 81.7607 121.068 80.5732L121.381 81.3024C118.631 82.4951 115.797 83.6826 113.052 84.8337C95.5211 92.1618 78.9639 99.0941 78.2191 110.016C77.5576 119.584 89.4066 131.417 114.438 146.193L114.032 146.87Z" fill="black"/>
</g>
<path d="M136.208 86.5052L135.761 86.3698C135.24 86.2135 122.922 82.5521 121.255 81.9896L121.511 81.2344C122.979 81.7292 133.24 84.7917 135.531 85.474L136.891 74L141.412 74.7656L147.651 69.6719L148.151 70.2865L141.636 75.6042L137.578 74.9219L136.208 86.5052Z" fill="black"/>
<path d="M176.854 49.9474L175.38 46.3485C174.349 46.0516 172.682 45.7287 172.052 45.9839L171.75 45.2495C172.901 44.786 175.495 45.5516 175.786 45.6402L175.969 45.6974L177.589 49.6506L176.854 49.9474Z" fill="black"/>
<path d="M122.813 56.7708L122.568 56.0156L134.052 52.3229L135.037 46.25L130.698 44.1458L129.896 38.276L130.682 38.1719L131.427 43.6146L135.912 45.7917L134.755 52.9271L122.813 56.7708Z" fill="black"/>
<path d="M150.776 39.8177H147.906V39.026H150.49L152.802 37.1406L153.302 37.7552L150.776 39.8177Z" fill="black"/>
<path d="M173.469 22.2965L173.146 21.5726L174.938 20.7757L173.729 17.1247L174.479 16.8799L175.917 21.208L173.469 22.2965Z" fill="black"/>
<path d="M141.422 19.432L137.568 18.0205L138.792 15.8955L136.729 13.9163L137.282 13.3486L139.787 15.7497L138.724 17.5986L141.698 18.6872L141.422 19.432Z" fill="black"/>
<path d="M94.516 65.1149L93.9795 64.5264L96.568 62.1514C93.5368 59.5889 93.7243 59.318 93.9118 59.0264C94.1045 58.7399 96.693 56.2191 97.7972 55.1514L98.3545 55.7191C97.141 56.891 95.2503 58.7451 94.7087 59.318C95.068 59.7712 96.318 60.9066 97.4274 61.8285L97.7764 62.1201L94.516 65.1149Z" fill="black"/>
<path d="M103.292 79.9951L99.5835 78.6566L99.8491 77.9118L103.146 79.0993L104.875 77.7243L105.464 74.1045L106.245 74.2295L105.61 78.1566L103.292 79.9951Z" fill="black"/>
<path d="M103.219 110.698L99.016 107.526C97.9847 107.511 91.0837 107.401 89.8232 107.526L89.7451 106.735C91.1462 106.599 98.8285 106.729 99.1566 106.735L99.2868 106.74L103.219 109.709L110.615 104.193L106.058 100.11L108.323 95.3701L109.042 95.7139L107.026 99.9118L111.865 104.25L103.219 110.698Z" fill="black"/>
<path d="M130.953 115.062L130.708 114.573C130.385 113.937 129.724 112.547 129.615 111.744C129.026 111.833 127.62 112.291 126.974 112.5C126.146 112.776 125.948 112.833 125.818 112.833V112.432L125.781 112.041C125.875 112.026 126.333 111.875 126.729 111.744C129.302 110.906 129.927 110.786 130.25 111.088C130.38 111.203 130.432 111.38 130.385 111.552C130.354 111.797 130.74 112.786 131.177 113.718L133.12 111.771L135.13 108.349L135.818 108.755L133.719 112.297L130.953 115.062Z" fill="black"/>
<path d="M114.542 115.766H110.073V114.974H113.927L114.818 111.37L115.589 111.563L114.542 115.766Z" fill="black"/>
<path d="M122.854 132.364L120.375 130.109L117.089 132.187L116.667 131.515L120.464 129.114L122.907 131.338L126.417 128.739L126.891 129.375L122.854 132.364Z" fill="black"/>
<path d="M46.6249 129.296C43.1666 129.296 39.8176 129.171 37.2291 128.999C35.3593 128.874 33.6874 128.718 32.3906 128.552C31.3853 128.416 30.6197 128.276 30.1093 128.124L29.8437 128.052L29.8228 127.776C29.7551 126.77 29.802 125.718 29.9687 124.64C30.1249 123.609 30.3853 122.546 30.7447 121.484C31.8385 118.265 33.8176 115.218 36.1874 113.104C36.3697 111.249 36.9635 108.541 38.7187 105.89C39.6822 104.437 40.8749 103.187 42.2656 102.192L42.4062 102.093L42.5728 102.13C42.6249 102.13 42.9947 102.083 43.3958 102.036C44.3697 101.927 46.0103 101.734 48.3072 101.593C52.776 101.312 59.2135 101.848 59.2812 101.854L59.4374 101.864L59.5468 101.989C59.6353 102.088 60.4114 103.067 61.1458 106.541C61.3801 107.671 61.5885 108.963 61.7603 110.385L61.7656 110.432C61.7603 113.807 61.7031 116.802 61.5781 119.583C61.4426 122.593 61.2603 124.979 61.0364 127.786L61.0156 128.067L60.7447 128.14C59.6093 128.437 58.151 128.687 56.4062 128.869C53.4635 129.177 49.9999 129.296 46.6249 129.296ZM30.5989 127.437C31.0624 127.552 31.7083 127.661 32.4947 127.765C33.7708 127.937 35.427 128.088 37.2812 128.213C42.3697 128.541 50.4114 128.703 56.3333 128.078C57.8958 127.906 59.2187 127.697 60.276 127.437C60.4895 124.76 60.6614 122.437 60.7916 119.541C60.9114 116.781 60.9791 113.807 60.9791 110.453C60.8124 109.067 60.6093 107.802 60.3801 106.697C59.8281 104.078 59.2499 102.968 59.0416 102.63C57.9583 102.541 52.3541 102.13 48.3697 102.38C46.0885 102.526 44.4687 102.713 43.4999 102.822C43.0312 102.88 42.7864 102.901 42.6406 102.911C41.3697 103.838 40.276 104.989 39.3906 106.328C37.677 108.921 37.1301 111.567 36.9739 113.333L36.9583 113.489L36.8385 113.593C34.5156 115.624 32.5728 118.593 31.5051 121.734C31.1614 122.749 30.9114 123.77 30.7656 124.76C30.6093 125.677 30.5624 126.578 30.5989 127.437Z" fill="black"/>
<path d="M48.4948 115.385C43.2813 115.385 38.0313 114.776 36.3438 113.619L36.7917 112.963C39.625 114.896 53.901 115.166 58.8177 113.437L57.875 106.562C51.0365 107.635 39.6719 106.656 38.9583 106.494L39.1406 105.718C39.8542 105.885 51.4635 106.869 58.1458 105.713L58.5521 105.646L59.6927 113.948L59.401 114.062C57.1823 114.958 52.849 115.385 48.4948 115.385Z" fill="black"/>
<path d="M38.0524 125.594L30.3389 125.094L30.391 124.302L36.9274 124.724L36.2712 122.761L31.0628 122L31.1774 121.214L36.8701 122.042L38.0524 125.594Z" fill="black"/>
<path d="M49.9531 125.584L50.1562 125.026C50.5937 123.787 51.2083 122.245 51.6406 121.979L51.7188 121.933L59.0312 121.167V125.115L49.9531 125.584ZM52.026 122.698C51.8333 122.964 51.4479 123.844 51.1042 124.735L58.2344 124.36V122.047L52.026 122.698Z" fill="black"/>
<path d="M36.3387 131.453H33.5418L33.4272 131.344C32.896 130.828 32.2189 129.703 32.0522 128.214L32.8387 128.125C32.9637 129.234 33.4325 130.172 33.87 130.667H36.0418C36.4689 130.245 36.7397 129.562 36.8595 128.583L37.6512 128.682C37.495 129.943 37.0991 130.823 36.4481 131.37L36.3387 131.453Z" fill="black"/>
<path d="M60.9845 131.453H57.1252L57.0106 131.344C56.4481 130.802 55.9741 129.485 55.9741 128.469H56.771C56.771 129.193 57.0939 130.198 57.4637 130.662H60.3856C61.1356 127.849 61.2866 123.839 60.7918 119.604L61.5835 119.511C62.1043 123.995 61.9168 128.245 61.0679 131.167L60.9845 131.453Z" fill="black"/>
<path d="M58.5939 106.214L57.8335 105.995C57.8335 105.995 58.1304 104.953 58.4637 103.708C58.5991 103.203 58.7397 102.661 58.87 102.141L59.6408 102.339C59.5054 102.859 59.3647 103.406 59.2293 103.917C58.896 105.172 58.5939 106.214 58.5939 106.214Z" fill="black"/>
<path d="M59.6252 113.834L58.8804 113.563C58.8908 113.547 59.5418 111.735 60.021 109.026C60.1668 108.193 60.2866 107.37 60.37 106.573L61.1564 106.651C61.0731 107.469 60.9533 108.313 60.8022 109.162C60.3127 111.943 59.6564 113.756 59.6252 113.834Z" fill="black"/>
<path d="M58.4688 103.927L59.2292 103.703L60.7969 108.984L60.0365 109.214L58.4688 103.927Z" fill="black"/>
<path d="M49.7918 125.396H38.0314L37.6147 122.458H50.2085L49.7918 125.396ZM38.7189 124.604H49.1043L49.2918 123.25H38.5262L38.7189 124.604Z" fill="black"/>
<path d="M125.172 42.9062L124.464 42.5417C125.058 41.3906 125.907 40.1615 126.985 38.8854C132.25 32.6667 141.448 27.2083 143.516 26.4062L143.808 27.151C142.021 27.8385 132.776 33.2708 127.589 39.3958C126.552 40.625 125.74 41.8073 125.172 42.9062Z" fill="black"/>
<path d="M130.958 29.6201L130.333 29.1305C131.714 27.3545 142.63 22.2712 145.011 21.5576L145.24 22.318C142.688 23.0785 132.125 28.1201 130.958 29.6201Z" fill="black"/>
<path d="M100.094 56.8698L99.3438 56.6146C99.5573 55.9896 99.8021 55.3333 100.068 54.6719C104.104 44.625 110.943 38.2292 113.865 35.4948C114.339 35.0573 114.714 34.7031 114.911 34.4844L115.5 35.0208C115.276 35.2604 114.911 35.6042 114.411 36.0729C111.531 38.7708 104.781 45.0833 100.812 54.9688C100.542 55.6146 100.307 56.2604 100.094 56.8698Z" fill="black"/>
<mask id="mask7_5558_5498" style="mask-type:luminance" maskUnits="userSpaceOnUse" x="168" y="0" width="13" height="11">
<path d="M168.667 0.692383H180.667V10.6663H168.667V0.692383Z" fill="white"/>
</mask>
<g mask="url(#mask7_5558_5498)">
<path d="M169.146 8.87435L179.542 0.744141L180.031 1.36914L169.636 9.49414L169.146 8.87435Z" fill="black"/>
</g>
<path d="M164.568 119.922L164.25 119.193L164.406 119.563L164.24 119.203C165.146 118.677 171.422 108.782 175.156 102.667L175.219 102.573L175.318 102.521L192.891 93.6357L193.25 94.3493L175.776 103.177C173.375 107.099 165.776 119.401 164.568 119.922Z" fill="black"/>
<path d="M11.4897 113.5C10.3022 112.568 9.72407 111.474 9.78657 110.25C9.9897 106.141 17.4064 101.464 23.3647 97.7035C26.5209 95.7087 29.5105 93.8232 29.8178 92.9326C29.6303 92.1826 24.1772 90.9378 20.1928 90.0316C11.4689 88.0472 1.58345 85.7972 1.0522 81.9639C0.82824 80.3545 2.24491 78.7347 5.39074 77.0264L5.77095 77.7243C2.9897 79.2347 1.66678 80.6253 1.83866 81.8597C2.29699 85.141 12.7449 87.5212 20.3699 89.2607C26.448 90.641 29.9168 91.4743 30.5053 92.5472C30.6199 92.7555 30.6459 92.9795 30.5678 93.1982C30.1824 94.2972 27.8647 95.8024 23.7866 98.3701C18.2918 101.839 10.7605 106.589 10.5782 110.287C10.5314 111.25 10.9897 112.094 11.9845 112.87L11.4897 113.5Z" fill="black"/>
<path d="M24.62 84.0882L24.271 83.3747C26.6564 82.2132 29.3595 82.458 31.9845 82.6924C34.6512 82.932 37.1772 83.1559 39.37 82.0205L39.7345 82.7288C37.3283 83.9684 34.5783 83.7184 31.9116 83.4788C29.2866 83.2445 26.8022 83.0205 24.62 84.0882Z" fill="black"/>
<path d="M39.6566 87.4788L39.4326 86.7184C42.7868 85.7393 46.3389 86.0518 49.7816 86.359C53.3024 86.6663 56.943 86.9893 60.266 85.8799L60.516 86.6299C57.0368 87.8018 53.3128 87.4684 49.7087 87.1507C46.3441 86.8486 42.8649 86.5465 39.6566 87.4788Z" fill="black"/>
</svg>
