<svg width="197" height="148" viewBox="0 0 197 148" fill="none" xmlns="http://www.w3.org/2000/svg">
<mask id="mask0_5546_11872" style="mask-type:luminance" maskUnits="userSpaceOnUse" x="0" y="29" width="197" height="113">
<path d="M0.447754 29.667H197V141.667H0.447754V29.667Z" fill="white"/>
</mask>
<g mask="url(#mask0_5546_11872)">
<path d="M176.464 86.7607C186.969 86.7607 196.885 80.8545 196.943 78.1462C196.953 77.5212 196.568 76.7712 194.719 76.667L186.469 67.5785L183.234 68.2191L173.531 56.7399L166.01 60.568L154.703 49.1462L151.427 52.9378L148.135 53.0316L148.021 53.1514C148.021 53.1514 147.188 54.0107 146.135 55.0837L141.271 51.5003L140.802 52.141L145.573 55.6566C143.411 57.8701 142.354 58.8962 142.052 59.1514C141.505 59.0785 139.151 58.4847 137.036 57.9066L136.88 57.8597L134.521 59.1774L126.094 53.3962L125.859 53.6201C122.5 56.8493 118.417 60.2243 117.646 60.0576C116.349 59.4587 114.318 59.167 114.234 59.1566L114.057 59.1305L109.094 63.2243L101.276 62.568L97.9219 60.5316L96.0208 61.8649L53.8802 30.8545L53.4115 31.4951L95.3281 62.3441L87.7969 67.6097H83.2344C82.1927 67.6097 81.25 68.1878 80.7812 69.1149L80.401 69.8597L77.5156 67.917L73.1771 70.9066L62.7552 61.4482L59.9375 62.0316C54.0208 56.7087 53.776 56.8753 53.474 57.0732C53.2083 57.2555 47.9115 61.167 46.6979 62.0628L36.4583 54.4326L33 55.6462C32.0938 53.6878 31.1875 51.5889 31.1458 51.2764C31.1458 51.0576 31.1458 50.6045 25.1719 45.6253L24.8281 45.3389L24.5833 45.7087C19.7813 53.0628 12.4688 64.193 12 64.6982C11.3229 65.391 3.95833 75.318 0.770833 79.6253L0.4375 80.0785L0.822917 80.1982C3.44792 85.1514 13.9427 85.4326 21.6302 85.641C24.5833 85.7191 28.625 85.8232 28.875 86.3805C28.875 86.4899 28.6875 87.1149 24.7865 88.9587C20.7812 90.8493 19.0833 92.9795 19.724 95.292C21.2396 100.761 37.0417 105.5 51.7396 105.5C51.8021 105.5 51.8646 105.5 51.9323 105.5C43.5833 107.386 39.3385 110.042 39.5677 113.276C40.0729 120.407 62.474 127.422 85.6667 127.709C87.8385 127.735 89.974 127.745 92.0365 127.745C92.6771 127.745 93.3125 127.745 93.9375 127.74L111.818 140.922L112.292 140.282L95.2656 127.756C118.401 127.578 136.177 125.688 149.578 121.964L158.271 128.365L158.745 127.724L150.547 121.688C154.25 120.62 157.583 119.412 160.719 118.011L179.969 132.183L180.443 131.542L161.542 117.631C163.5 116.719 165.349 115.745 167.146 114.667C170.427 112.703 171.922 110.224 171.344 107.703C170.5 104 165.349 101.193 158.224 100.547C156.177 100.36 156.229 99.2555 156.25 98.891C156.432 95.0889 166.214 86.7712 176.271 86.7712C176.333 86.7607 176.401 86.7607 176.464 86.7607Z" fill="black"/>
</g>
<path d="M13.3438 21.6927L13.8177 21.0469L51.0938 48.4792L50.6198 49.125L13.3438 21.6927Z" fill="black"/>
<mask id="mask1_5546_11872" style="mask-type:luminance" maskUnits="userSpaceOnUse" x="62" y="0" width="38" height="29">
<path d="M62.3335 0.421875H99.6668V28.3333H62.3335V0.421875Z" fill="white"/>
</mask>
<g mask="url(#mask1_5546_11872)">
<path d="M62.4429 1.5472L62.9168 0.901367L98.6304 27.1826L98.1564 27.8285L62.4429 1.5472Z" fill="black"/>
</g>
<path d="M132.469 8.73438L132.943 8.09375L185.401 46.7083L184.932 47.349L132.469 8.73438Z" fill="black"/>
<path d="M13.9272 100.026L14.4012 99.3857L62.2397 134.594L61.7658 135.235L13.9272 100.026Z" fill="black"/>
<path d="M108.328 12.5469L108.802 11.9062L133.651 30.1927L133.177 30.8385L108.328 12.5469Z" fill="black"/>
<path d="M30.9482 28.7396C32.8752 30.1562 35.1409 31.3541 36.5107 31.3541C36.9586 31.3541 37.3127 31.2239 37.5315 30.9375C38.3961 29.7552 36.0367 27.1875 33.4742 25.3021C30.9169 23.4166 27.7659 21.9219 26.8909 23.1041C26.4846 23.651 26.7398 24.5052 27.6357 25.6562C28.4065 26.6354 29.5784 27.7344 30.9482 28.7396Z" fill="black"/>
<path d="M80.8592 33.6455C78.3019 31.7601 75.1456 30.2653 74.2758 31.4528C73.8748 31.9997 74.1196 32.8539 75.0206 33.9997C75.7862 34.9893 76.9633 36.083 78.3279 37.0883C80.255 38.5101 82.5258 39.7028 83.8956 39.7028C84.3435 39.7028 84.6977 39.5726 84.9112 39.281C85.0727 39.0674 85.1248 38.7914 85.0779 38.4737C84.9008 37.3122 83.2029 35.3747 80.8592 33.6455Z" fill="black"/>
<path d="M42.7919 17.3174C44.3179 18.4372 46.1044 19.3747 47.219 19.3747C47.594 19.3747 47.8908 19.2653 48.0731 19.0205C48.1669 18.8903 48.2763 18.6611 48.219 18.3226C48.0731 17.3747 46.7658 15.8694 44.8804 14.484C42.9898 13.0934 41.1617 12.2861 40.219 12.4319C39.8752 12.484 39.6929 12.6507 39.5992 12.7809C39.2554 13.2444 39.4533 13.9528 40.1773 14.8799C40.7867 15.6611 41.7138 16.5257 42.7919 17.3174Z" fill="black"/>
<path d="M147.135 131.317C144.578 129.432 141.422 127.937 140.552 129.125C139.687 130.307 142.047 132.875 144.609 134.76C146.536 136.182 148.797 137.375 150.172 137.375C150.625 137.375 150.979 137.245 151.193 136.953C151.354 136.739 151.411 136.468 151.365 136.146C151.182 134.984 149.484 133.041 147.135 131.317Z" fill="black"/>
<path d="M170.057 91.7238C169 91.3228 168.297 91.3436 167.964 91.7916C167.87 91.9166 167.771 92.1405 167.818 92.4738C167.958 93.3749 169.208 94.8124 171.005 96.1353C172.458 97.203 174.161 98.0936 175.224 98.0936C175.589 98.0936 175.88 97.9895 176.057 97.7499C176.844 96.6718 174.516 94.5103 173.016 93.4061C171.995 92.6561 170.943 92.0572 170.057 91.7238Z" fill="black"/>
<path d="M29.8594 124.974C26.0104 122.141 21.5052 120.099 20.349 121.672C19.8177 122.396 20.1927 123.625 21.4479 125.229C22.5833 126.677 24.3177 128.292 26.3281 129.776C29.2552 131.927 32.5573 133.625 34.4844 133.625C35.0938 133.625 35.5625 133.458 35.8386 133.078C37.0052 131.505 33.7136 127.813 29.8594 124.974Z" fill="black"/>
<path d="M117.141 49.5049C118.078 50.1976 119.422 50.958 120.271 50.958C120.338 50.958 120.396 50.958 120.453 50.9476C120.734 50.9059 120.885 50.7653 120.963 50.6559C121.734 49.6091 119.042 47.5778 118.734 47.3487C117.724 46.6039 116.255 45.7809 115.422 45.9112C115.141 45.9528 114.99 46.0882 114.906 46.2028C114.141 47.2445 116.828 49.2757 117.141 49.5049Z" fill="black"/>
<mask id="mask2_5546_11872" style="mask-type:luminance" maskUnits="userSpaceOnUse" x="142" y="141" width="9" height="7">
<path d="M142.333 141.667H150.333V147.422H142.333V141.667Z" fill="white"/>
</mask>
<g mask="url(#mask2_5546_11872)">
<path d="M146.667 143.401C145.656 142.662 144.193 141.839 143.354 141.964C143.073 142.011 142.922 142.146 142.844 142.256C142.073 143.308 144.766 145.334 145.078 145.563C146.016 146.256 147.354 147.021 148.208 147.021C148.271 147.021 148.328 147.016 148.391 147.006C148.667 146.964 148.823 146.828 148.901 146.719C148.979 146.61 149.062 146.427 149.026 146.146C148.901 145.308 147.677 144.146 146.667 143.401Z" fill="black"/>
</g>
<path d="M165.135 16.9795C166.073 17.6722 167.411 18.4326 168.265 18.4326C168.328 18.4326 168.39 18.4274 168.442 18.417C168.724 18.3753 168.875 18.2399 168.953 18.1305C169.724 17.0836 167.031 15.0524 166.724 14.8284C165.719 14.0836 164.245 13.2607 163.411 13.3857C163.135 13.4274 162.979 13.568 162.901 13.6774C162.13 14.7191 164.823 16.7555 165.135 16.9795Z" fill="black"/>
<path d="M117.437 33.953C117.781 33.9009 117.969 33.7343 118.062 33.6041C118.781 32.6301 116.901 30.5624 114.854 29.052C112.953 27.6561 111.115 26.8436 110.172 26.9895C109.833 27.0416 109.641 27.2082 109.547 27.3384C108.828 28.3124 110.708 30.3853 112.76 31.8957C114.505 33.1822 116.208 33.9686 117.203 33.9686C117.286 33.9738 117.365 33.9686 117.437 33.953Z" fill="black"/>
<path d="M181.86 58.7864C181.115 59.8072 183.089 61.9739 185.235 63.5572C187.073 64.9062 188.854 65.7343 189.896 65.7343C189.979 65.7343 190.063 65.7291 190.141 65.7187C190.49 65.6614 190.682 65.4947 190.781 65.3593C190.88 65.2239 190.985 64.9947 190.932 64.6405C190.781 63.6458 189.401 62.0624 187.406 60.5989C185.266 59.0155 182.615 57.7812 181.86 58.7864Z" fill="black"/>
<path d="M158.479 40.0159C155.917 38.1305 152.766 36.6357 151.896 37.818C151.49 38.3649 151.74 39.2191 152.636 40.3649C153.406 41.3493 154.583 42.4482 155.948 43.4482C158.125 45.0524 160.307 46.0628 161.537 46.0628C161.636 46.0628 161.724 46.0576 161.813 46.042C162.13 45.9951 162.37 45.8597 162.531 45.6409C162.932 45.0993 162.688 44.2399 161.792 43.0941C161.016 42.1097 159.844 41.0159 158.479 40.0159Z" fill="black"/>
<mask id="mask3_5546_11872" style="mask-type:luminance" maskUnits="userSpaceOnUse" x="79" y="0" width="10" height="7">
<path d="M79.6665 0.421875H88.9998V7H79.6665V0.421875Z" fill="white"/>
</mask>
<g mask="url(#mask3_5546_11872)">
<path d="M83.5937 4.57862C84.552 5.28175 86.1197 6.21404 87.1249 6.21404C87.4426 6.21404 87.703 6.12029 87.8645 5.89633C87.953 5.78175 88.0416 5.57862 87.9999 5.28175C87.8593 4.35467 86.4791 3.04737 85.3385 2.20883C84.1978 1.37029 82.5416 0.437999 81.6145 0.578624C81.3124 0.625499 81.151 0.771333 81.0676 0.885916C80.7708 1.28696 80.927 1.8755 81.526 2.64112C82.0051 3.26091 82.7395 3.94842 83.5937 4.57862Z" fill="black"/>
</g>
<path d="M160.771 117.547C157.667 118.948 154.036 120.302 149.656 121.526L110.776 92.9119C112.042 92.7348 113.078 92.615 113.687 92.615C114.015 92.615 114.411 92.6202 114.854 92.6254C117.823 92.6566 123.078 92.7816 126.713 92.615C127.495 92.5785 128.713 92.3858 130.229 92.1098C132.875 91.6306 136.422 90.8962 140.057 90.3025C140.609 90.2139 141.172 90.1254 141.724 90.0421L141.687 89.7921L138.239 78.7556C140.562 79.1306 145.156 78.516 149.661 77.9223C149.88 78.1046 150.114 78.2764 150.349 78.4535C153.109 80.4848 155.807 81.5056 156.38 80.7348C156.786 80.1723 155.963 78.8181 154.427 77.3389C156.849 77.0785 158.948 76.9535 160.265 77.1566C164.646 77.8337 175.14 78.5108 176.989 77.0577L187.844 77.9587L194.255 77.0577C194.349 77.0577 194.443 77.0577 194.526 77.0577C201.489 77.2973 189.203 86.4223 176.349 86.365C163.083 86.3129 150.505 100.245 158.193 100.938C170.62 102.063 175.094 109.438 166.943 114.323C165.125 115.412 163.099 116.495 160.771 117.547Z" fill="#CADBEA"/>
<path d="M146.177 55.6146C147.338 54.4271 148.307 53.4271 148.307 53.4271L151.614 53.3333L154.724 49.7344L165.932 61.0573L173.432 57.2344L183.083 68.651L186.328 68.0104L194.526 77.0521V77.0573C194.443 77.0521 194.349 77.0521 194.255 77.0521L187.844 77.9531L176.989 77.0521C175.14 78.5052 164.646 77.8333 160.265 77.151C158.948 76.9479 156.849 77.0729 154.427 77.3333C153.844 76.7813 153.161 76.2083 152.411 75.651C149.651 73.6198 146.953 72.599 146.38 73.375C145.859 74.0781 147.302 76.0417 149.661 77.9219C145.156 78.5156 140.562 79.125 138.239 78.75L135.401 69.6615C135.094 68.6823 134.187 68.0104 133.156 68.0104H103.338V67.75L96.0103 62.3594L97.9321 61.0156L101.14 62.9583L109.213 63.6354L114.172 59.5521C114.172 59.5521 116.213 59.8438 117.479 60.4219C118.75 61.0104 126.135 53.9115 126.135 53.9115L134.495 59.6458L136.927 58.2865C136.927 58.2865 141.89 59.6458 142.177 59.5521C142.354 59.4948 144.479 57.349 146.177 55.6146Z" fill="#4A8BDF"/>
<path d="M187.177 60.9168C189.464 62.5991 190.932 64.4845 190.464 65.1199C189.995 65.7605 187.755 64.9168 185.469 63.2345C183.182 61.547 181.714 59.6668 182.182 59.0262C182.656 58.3855 184.885 59.2345 187.177 60.9168Z" fill="#CADBEA"/>
<path d="M172.781 93.7294C174.834 95.2398 176.156 96.9325 175.74 97.5159C175.313 98.0888 173.302 97.3336 171.245 95.818C169.193 94.3075 167.865 92.6096 168.287 92.0315C168.709 91.4534 170.719 92.2138 172.781 93.7294Z" fill="#CADBEA"/>
<path d="M166.484 15.1409C167.979 16.2398 168.943 17.469 168.635 17.8909C168.328 18.3076 166.87 17.7607 165.37 16.6565C163.875 15.5575 162.917 14.3284 163.219 13.9065C163.531 13.4898 164.995 14.0419 166.484 15.1409Z" fill="#CADBEA"/>
<path d="M158.24 40.3333C161 42.3593 162.776 44.6302 162.208 45.4062C161.641 46.1822 158.943 45.1614 156.177 43.1249C153.422 41.0989 151.641 38.8281 152.214 38.052C152.781 37.2812 155.484 38.302 158.24 40.3333Z" fill="#CADBEA"/>
<path d="M149.661 77.9221C147.302 76.0419 145.859 74.0784 146.38 73.3753C146.948 72.6044 149.651 73.6253 152.411 75.6565C153.161 76.2086 153.844 76.7867 154.427 77.3388C155.963 78.818 156.786 80.1721 156.38 80.7346C155.807 81.5055 153.109 80.4846 150.349 78.4534C150.114 78.2763 149.88 78.0992 149.661 77.9221Z" fill="#CADBEA"/>
<path d="M146.901 131.641C149.661 133.667 151.438 135.943 150.87 136.713C150.297 137.49 147.599 136.469 144.839 134.437C142.078 132.406 140.307 130.135 140.87 129.359C141.443 128.588 144.141 129.604 146.901 131.641Z" fill="#CADBEA"/>
<path d="M69.4217 92.281C71.2811 92.5779 73.2082 92.9894 74.953 93.3644C77.078 93.8227 78.9426 94.2237 80.1457 94.3175C82.6821 94.5154 91.1613 94.0987 95.8384 94.1456C96.9061 94.1612 97.7707 94.1925 98.328 94.2602C100.609 94.5571 106.812 93.4581 110.776 92.906L149.656 121.521C137.854 124.828 120.667 127.229 94.0571 127.354C91.3592 127.37 88.5571 127.354 85.6613 127.323C50.1405 126.885 19.1873 110.802 57.7446 104.828C36.5519 106.937 8.46859 97.1248 24.953 89.3279C41.4425 81.5258 5.69255 89.3592 1.08838 79.8748C3.9113 80.7446 4.00504 80.5519 7.99463 79.6769C11.2707 78.9581 14.8019 78.7862 18.3384 78.906C18.3644 78.9269 18.3905 78.9477 18.4165 78.9633C21.1769 80.9998 23.8748 82.0206 24.4478 81.2446C24.7186 80.8748 24.453 80.1665 23.8071 79.3019C31.0936 80.0675 37.7759 81.5779 41.4478 81.5258C42.8592 81.505 45.0259 81.3331 47.6196 81.0883L62.3019 91.8956C63.104 91.8748 63.8644 91.8592 64.5832 91.8435C66.0103 91.8175 67.6873 91.9998 69.4217 92.281ZM96.5467 111.14C97.1196 110.364 95.3384 108.094 92.5832 106.067C89.8176 104.036 87.1196 103.015 86.5519 103.786C85.9842 104.562 87.7603 106.833 90.5207 108.859C93.2863 110.896 95.979 111.916 96.5467 111.14ZM68.2811 113.521C68.6509 113.021 67.4946 111.541 65.703 110.224C63.9113 108.896 62.1561 108.234 61.7863 108.739C61.4217 109.245 62.5728 110.719 64.3644 112.041C66.1613 113.359 67.9113 114.021 68.2811 113.521Z" fill="#CADBEA"/>
<path d="M146.432 143.724C147.927 144.828 148.89 146.057 148.583 146.474C148.276 146.891 146.812 146.344 145.318 145.245C143.823 144.141 142.859 142.911 143.166 142.49C143.474 142.073 144.932 142.625 146.432 143.724Z" fill="#CADBEA"/>
<path d="M140.042 90.1878L140.062 90.3024C136.427 90.8962 132.875 91.6305 130.234 92.1097L127.448 70.4482H132.364C133.401 70.4482 134.318 71.1253 134.614 72.1201L140.042 90.1878Z" fill="#CADBEA"/>
<path d="M113.693 92.6149C113.083 92.6149 112.042 92.7347 110.776 92.9118L110.146 92.4378C110.854 92.1566 111.396 91.5368 111.562 90.7503L115.318 73.292C115.63 71.8285 114.51 70.443 113.021 70.443H84.5208C83.6302 70.443 82.8125 70.9535 82.4115 71.7555L73.7552 89.2139C73.099 90.5524 73.8281 92.0837 75.1406 92.5055L74.9531 93.3649C73.2083 92.9899 71.2813 92.5785 69.4219 92.2816L76.0156 79.3493L80.5573 70.443L81.1406 69.2972C81.5365 68.5055 82.3542 68.0107 83.2344 68.0107H133.156C134.188 68.0107 135.094 68.6826 135.401 69.6618L138.24 78.7503L141.688 89.792L141.724 90.0368C141.172 90.1201 140.609 90.2087 140.057 90.2972L140.036 90.1826L134.609 72.1149C134.312 71.1201 133.396 70.443 132.359 70.443H121.521C120.411 70.443 119.453 71.2139 119.224 72.3024C118.094 77.5941 114.938 92.3753 114.854 92.6149V92.6253C114.411 92.6201 114.021 92.6149 113.693 92.6149Z" fill="#C41830"/>
<path d="M130.234 92.1091C128.724 92.3851 127.5 92.5778 126.719 92.6143C123.083 92.7861 117.823 92.6559 114.859 92.6247V92.6143C114.938 92.3747 118.094 77.5934 119.229 72.3018C119.458 71.2132 120.417 70.4424 121.526 70.4424H127.448L130.234 92.1091Z" fill="#CADBEA"/>
<path d="M118.495 47.6719C119.984 48.7709 120.948 50.0001 120.64 50.4219C120.338 50.8386 118.875 50.2865 117.375 49.1876C115.885 48.0886 114.922 46.8594 115.229 46.4376C115.531 46.0157 116.995 46.5678 118.495 47.6719Z" fill="#CADBEA"/>
<path d="M114.62 29.37C116.792 30.9742 118.193 32.7659 117.745 33.37C117.292 33.9794 115.167 33.1721 112.995 31.5784C110.823 29.9742 109.422 28.1877 109.87 27.5784C110.318 26.969 112.443 27.7763 114.62 29.37Z" fill="#CADBEA"/>
<path d="M110.141 92.443C109.865 92.5576 109.573 92.6201 109.261 92.6201H75.8699C75.6095 92.6201 75.3699 92.5785 75.1407 92.5107C73.8282 92.0941 73.0991 90.5576 73.7553 89.2191L82.4116 71.7555C82.8074 70.9535 83.6251 70.4482 84.521 70.4482H113.021C114.511 70.4482 115.63 71.8285 115.318 73.292L111.563 90.7503C111.391 91.5368 110.844 92.1618 110.141 92.443Z" fill="#CADBEA"/>
<path d="M109.261 92.6146C109.573 92.6146 109.865 92.5573 110.141 92.4375L110.776 92.9115C106.813 93.4583 100.61 94.5625 98.3283 94.2656C97.771 94.1927 96.9064 94.1615 95.8387 94.151L93.7554 92.6198H109.261V92.6146Z" fill="#C41830"/>
<path d="M103.344 67.75V68.0104H87.9272L96.0106 62.3594L103.344 67.75Z" fill="#4A8BDF"/>
<path d="M92.5832 106.068C95.3384 108.094 97.1197 110.365 96.5468 111.141C95.9791 111.917 93.2811 110.896 90.5207 108.859C87.7603 106.833 85.9843 104.562 86.552 103.786C87.1249 103.016 89.8176 104.036 92.5832 106.068Z" fill="#CADBEA"/>
<mask id="mask4_5546_11872" style="mask-type:luminance" maskUnits="userSpaceOnUse" x="81" y="0" width="7" height="7">
<path d="M81 0.421875H87.6667V7H81V0.421875Z" fill="white"/>
</mask>
<g mask="url(#mask4_5546_11872)">
<path d="M85.0987 2.53079C86.8018 3.78079 87.8956 5.18183 87.5414 5.65579C87.1925 6.13496 85.531 5.50475 83.8279 4.25475C82.13 2.99954 81.0362 1.60371 81.3852 1.12454C81.7341 0.650584 83.3956 1.28079 85.0987 2.53079Z" fill="#CADBEA"/>
</g>
<path d="M80.6198 33.9692C83.3803 36.0004 85.1563 38.2765 84.5834 39.0473C84.0209 39.8182 81.3178 38.7973 78.5573 36.7713C75.7969 34.7348 74.0209 32.464 74.5886 31.6932C75.1615 30.9171 77.8646 31.9327 80.6198 33.9692Z" fill="#CADBEA"/>
<path d="M47.6196 81.0934C45.0259 81.3382 42.8592 81.5101 41.4478 81.5309C37.7759 81.5882 31.0936 80.0778 23.8071 79.3122C23.0936 78.3695 21.9165 77.2393 20.479 76.1768C17.7186 74.1455 15.0207 73.1247 14.4478 73.9007C13.88 74.6663 15.6196 76.9007 18.3384 78.9163C14.8019 78.7913 11.2707 78.9632 7.99463 79.6872C4.01025 80.5622 3.9113 80.7549 1.08838 79.8799C1.08838 79.8799 11.8853 65.2966 12.2707 65.0049C12.6613 64.7132 24.9113 45.9424 24.9113 45.9424C24.9113 45.9424 30.7446 50.807 30.7446 51.2913C30.7446 51.7809 32.7863 56.1559 32.7863 56.1559L36.3853 54.8903L46.6925 62.5674C46.6925 62.5674 53.4009 57.609 53.6925 57.4163C53.9842 57.2184 59.8228 62.4684 59.8228 62.4684L62.6405 61.8903L73.1457 71.4216L77.5207 68.4007L80.5571 70.4424L76.0207 79.3486C70.7707 78.5674 56.6353 80.2549 47.6196 81.0934ZM50.1665 72.3538C50.6457 71.708 49.1457 69.7966 46.828 68.0934C44.5103 66.3799 42.2394 65.5257 41.7603 66.1716C41.2811 66.8226 42.7811 68.7341 45.0988 70.4372C47.4165 72.1455 49.6873 73.0049 50.1665 72.3538ZM36.6561 64.1038C36.9686 63.6872 36.005 62.4528 34.505 61.3486C33.0155 60.2497 31.5467 59.6976 31.2394 60.1143C30.9321 60.5309 31.8957 61.7653 33.3905 62.8695C34.8905 63.9684 36.3488 64.5205 36.6561 64.1038Z" fill="#4A8BDF"/>
<path d="M75.8646 92.6143H93.7552L95.8385 94.1455C91.1563 94.0986 82.6771 94.5153 80.1406 94.3174C78.9427 94.2236 77.0729 93.8174 74.9531 93.3643L75.1354 92.5049C75.3698 92.5778 75.6094 92.6143 75.8646 92.6143Z" fill="#C41830"/>
<path d="M76.0155 79.3487L69.4217 92.281C67.6873 91.9998 66.0103 91.8175 64.5832 91.8487C63.8592 91.8643 63.104 91.88 62.3019 91.9008L47.6196 81.0935C56.6353 80.255 70.7707 78.5675 76.0155 79.3487Z" fill="#CADBEA"/>
<path d="M65.7033 110.224C67.495 111.542 68.6564 113.021 68.2814 113.521C67.9117 114.021 66.1564 113.36 64.3648 112.042C62.5731 110.719 61.4169 109.245 61.7867 108.74C62.1564 108.235 63.9117 108.896 65.7033 110.224Z" fill="#CADBEA"/>
<path d="M46.8283 68.0935C49.146 69.7966 50.646 71.7081 50.1668 72.3539C49.6877 73.005 47.4168 72.1456 45.0991 70.4373C42.7814 68.7341 41.2814 66.8227 41.7606 66.1716C42.2397 65.5206 44.5054 66.38 46.8283 68.0935Z" fill="#CADBEA"/>
<path d="M44.6406 14.8022C46.8073 16.396 48.1979 18.1772 47.75 18.7814C47.3021 19.3855 45.1927 18.5835 43.026 16.9949C40.8646 15.4012 39.4687 13.6199 39.9167 13.0158C40.3646 12.4116 42.4792 13.2137 44.6406 14.8022Z" fill="#CADBEA"/>
<path d="M33.2395 25.6194C35.9999 27.6507 37.7707 29.9215 37.2082 30.6975C36.6353 31.4684 33.9374 30.4423 31.177 28.4163C28.4166 26.385 26.6405 24.1142 27.2082 23.3382C27.7811 22.5673 30.4791 23.5882 33.2395 25.6194Z" fill="#CADBEA"/>
<path d="M34.5102 61.3539C36.005 62.4529 36.9738 63.6873 36.6613 64.1039C36.354 64.5206 34.8904 63.9737 33.3957 62.8696C31.9009 61.7706 30.9373 60.5414 31.2446 60.1196C31.5519 59.6977 33.0154 60.255 34.5102 61.3539Z" fill="#CADBEA"/>
<path d="M29.6251 125.297C33.7292 128.318 36.3647 131.698 35.5209 132.844C34.6772 133.99 30.6667 132.474 26.5626 129.453C22.4636 126.438 19.823 123.063 20.672 121.912C21.5157 120.766 25.5261 122.282 29.6251 125.297Z" fill="#CADBEA"/>
<path d="M23.8022 79.312C24.448 80.1714 24.7136 80.8849 24.4428 81.2547C23.8751 82.0255 21.1719 81.0047 18.4115 78.9735C18.3855 78.9526 18.3594 78.9318 18.3334 78.9162C15.6147 76.9005 13.8803 74.6662 14.4428 73.9005C15.0157 73.1245 17.7136 74.1453 20.474 76.1766C21.9167 77.2339 23.0938 78.3641 23.8022 79.312Z" fill="#CADBEA"/>
<path d="M69.6043 92.7966L68.896 92.432L69.0679 92.0986L80.7866 69.1143C81.2554 68.1924 82.1929 67.6143 83.2345 67.6143H133.156C134.365 67.6143 135.422 68.3903 135.781 69.5465L142.073 89.6768L141.313 89.9111L135.021 69.7809C134.766 68.958 134.011 68.4111 133.156 68.4111H83.2345C82.495 68.4111 81.8283 68.8174 81.5002 69.4736L69.6043 92.7966Z" fill="black"/>
<path d="M109.26 93.0153H75.8696C75.5779 93.0153 75.2966 92.9736 75.0206 92.8851C74.2654 92.6403 73.6456 92.0778 73.3331 91.333C73.0206 90.5986 73.0466 89.7601 73.4008 89.0413L82.0571 71.583C82.5258 70.6351 83.4737 70.0518 84.5206 70.0518H113.021C113.849 70.0518 114.635 70.4268 115.156 71.0726C115.682 71.7236 115.885 72.5622 115.708 73.3747L111.953 90.8382C111.76 91.7341 111.14 92.4684 110.291 92.8122C109.969 92.9424 109.625 93.0153 109.26 93.0153ZM75.2602 92.1247C75.4529 92.1872 75.6612 92.2184 75.8644 92.2184H109.255C109.51 92.2184 109.755 92.1715 109.984 92.0726C110.594 91.8278 111.031 91.307 111.166 90.6716L114.922 73.208C115.047 72.6299 114.901 72.0309 114.531 71.5726C114.156 71.109 113.604 70.8434 113.01 70.8434H84.5154C83.7654 70.8434 83.0935 71.2601 82.7602 71.932L74.1039 89.3903C73.8487 89.9111 73.8331 90.4893 74.0571 91.0205C74.2862 91.5518 74.7237 91.9528 75.2602 92.1247Z" fill="black"/>
<path d="M115.235 92.7396L114.474 92.5C114.589 92.0938 117.219 79.776 118.485 73.8542L118.833 72.2188C119.104 70.9583 120.235 70.0469 121.521 70.0469H132.36C133.563 70.0469 134.646 70.849 134.99 72L140.417 90.0677L139.656 90.2969L134.229 72.2344C133.979 71.4167 133.214 70.8438 132.36 70.8438H121.521C120.61 70.8438 119.802 71.4896 119.615 72.3854L119.266 74.0208C116.386 87.4948 115.292 92.5677 115.235 92.7396Z" fill="black"/>
<path d="M33.8231 96.1247C33.6408 96.1247 33.4585 96.1247 33.271 96.1195L33.2762 95.3227C39.9168 95.3956 43.745 94.2341 46.8179 93.3122C48.4168 92.8331 49.797 92.4164 51.3075 92.2185C54.9272 91.7445 58.896 91.5883 62.2918 91.505C62.9116 91.4841 63.5158 91.4737 64.0939 91.4633L64.5783 91.4529C65.8752 91.4216 67.4845 91.5675 69.4897 91.8852C71.4012 92.1925 73.4168 92.6247 75.0418 92.9737L75.271 93.0258C77.297 93.4581 79.0522 93.8331 80.1772 93.9216C81.5679 94.031 84.7866 93.9529 88.1981 93.8643C90.9325 93.7966 93.7554 93.7289 95.8439 93.7497C97.047 93.7602 97.8543 93.8018 98.3804 93.8695C100.13 94.0935 104.485 93.4425 107.99 92.9112C108.964 92.7654 109.896 92.6247 110.724 92.5102C112.219 92.3018 113.13 92.2133 113.693 92.2133C113.979 92.2133 114.318 92.2185 114.693 92.2237H114.86C115.36 92.2237 115.917 92.2393 116.526 92.2445C119.547 92.2914 123.682 92.3539 126.698 92.2133C127.375 92.182 128.443 92.031 130.156 91.7185C131.047 91.557 132.042 91.3643 133.11 91.1612C135.203 90.755 137.583 90.3018 139.995 89.9008C140.552 89.8175 141.11 89.7237 141.667 89.6456C147.828 88.7341 151.865 88.6925 154.354 89.5102L154.11 90.2706C151.766 89.4997 147.735 89.5518 141.781 90.432C141.235 90.5102 140.672 90.5987 140.12 90.6872C137.719 91.0831 135.349 91.5362 133.261 91.9425C132.188 92.1456 131.193 92.3383 130.297 92.505C128.547 92.8227 127.448 92.9789 126.735 93.0102C123.693 93.1508 119.542 93.0883 116.511 93.0414C115.901 93.0362 115.344 93.0258 114.844 93.0206H114.677C114.302 93.0154 113.969 93.0102 113.682 93.0102C113.162 93.0102 112.281 93.1039 110.823 93.3018C109.99 93.4164 109.068 93.557 108.099 93.7029C104.36 94.2654 100.13 94.8956 98.2658 94.656C97.771 94.5935 96.995 94.5622 95.8231 94.5466C93.7554 94.5206 90.9377 94.5935 88.2085 94.656C84.771 94.7445 81.5314 94.8227 80.0991 94.7081C78.922 94.6195 77.146 94.2393 75.0887 93.7966L74.8595 93.7497C73.245 93.406 71.2397 92.9737 69.3491 92.6716C67.396 92.3539 65.8335 92.2185 64.5783 92.2445L64.0991 92.255C63.521 92.2706 62.922 92.2862 62.3022 92.3018C58.922 92.3852 54.9845 92.5414 51.4012 93.0102C49.9533 93.1977 48.5991 93.6039 47.0418 94.0779C44.0106 94.9945 40.2397 96.1247 33.8231 96.1247Z" fill="black"/>
<path d="M194.229 77.3232L186.177 68.4482L182.927 69.0941L173.323 57.7399L165.849 61.5472L154.739 50.3232L151.797 53.7295L148.474 53.8232C148.187 54.1201 147.385 54.9482 146.458 55.8962C142.614 59.8285 142.432 59.891 142.307 59.9378C142.172 59.9795 141.901 60.068 136.979 58.7243L134.474 60.1201L126.177 54.4326C123.781 56.7243 118.635 61.4066 117.312 60.792C116.328 60.3389 114.802 60.0628 114.292 59.9795L109.349 64.0524L101.021 63.3493L97.953 61.4951L88.1509 68.3441L87.6978 67.693L97.9217 60.542L101.276 62.5732L109.094 63.2295L114.057 59.141L114.234 59.1618C114.318 59.1722 116.349 59.4691 117.646 60.068C118.417 60.2295 122.5 56.8545 125.859 53.6305L126.094 53.4066L134.521 59.1878L136.88 57.8701L137.036 57.9118C139.151 58.4951 141.505 59.0941 142.052 59.1566C142.37 58.891 143.51 57.7816 145.896 55.3389C147.057 54.1514 148.021 53.1566 148.021 53.1566L148.135 53.0368L151.427 52.943L154.703 49.1514L166.01 60.5785L173.531 56.7399L183.234 68.2191L186.469 67.5785L194.823 76.7868L194.229 77.3232Z" fill="black"/>
<path d="M41.2446 81.9273C39.1353 81.9273 36.1248 81.4638 32.6613 80.9273C29.9634 80.5106 26.9009 80.0367 23.7603 79.7033L23.8436 78.9117C27.005 79.2398 30.078 79.719 32.7863 80.1356C36.3332 80.6877 39.3905 81.1669 41.4373 81.1252C42.6821 81.1096 44.578 80.9794 47.5832 80.6929C49.1561 80.5523 50.8853 80.3752 52.6925 80.1981C61.1561 79.3492 71.6925 78.3023 76.078 78.9533L75.9582 79.745C71.6769 79.1096 61.1925 80.1513 52.7707 80.995C50.9582 81.1721 49.229 81.3492 47.6561 81.495C44.63 81.7763 42.7186 81.9117 41.453 81.9273C41.3853 81.9273 41.3123 81.9273 41.2446 81.9273Z" fill="black"/>
<mask id="mask5_5546_11872" style="mask-type:luminance" maskUnits="userSpaceOnUse" x="0" y="44" width="81" height="38">
<path d="M0.447754 44.333H80.9998V81.6663H0.447754V44.333Z" fill="white"/>
</mask>
<g mask="url(#mask5_5546_11872)">
<path d="M3.82292 80.8431C3.03646 80.8431 2.28125 80.6608 0.973958 80.2598L0.4375 80.0931L0.770833 79.64C3.95833 75.3327 11.3229 65.4056 12 64.7129C12.4688 64.2025 19.7813 53.0775 24.5833 45.7233L24.8281 45.3535L25.1719 45.64C31.1458 50.6191 31.1458 51.0723 31.1458 51.291C31.1875 51.6087 32.0938 53.7025 33 55.6608L36.4583 54.4473L46.6979 62.0775C47.9115 61.1816 53.2083 57.265 53.474 57.0879C53.776 56.8848 54.0208 56.7233 59.9375 62.0462L62.7552 61.4629L73.1771 70.9212L77.5156 67.9316L80.776 70.1243L80.3333 70.7858L77.5156 68.89L73.1042 71.9316L62.5156 62.3275L59.6979 62.9108L59.5521 62.7754C57.1563 60.6243 54.4583 58.3118 53.75 57.8743C52.849 58.5254 48.6302 61.64 46.9271 62.9004L46.6875 63.0775L36.3125 55.3431L32.5677 56.6556L32.4167 56.3327C31.6771 54.7493 30.4635 52.0775 30.349 51.39C30.0625 50.9264 27.4844 48.6348 24.9948 46.5462C20.3802 53.6139 12.8854 65.0462 12.5052 65.3327C12.1042 65.7285 5.96875 73.9577 1.73958 79.6712C3.6875 80.2494 4.10417 80.1556 6.80208 79.5514C7.13021 79.4785 7.49479 79.3952 7.90104 79.3066C10.9271 78.6452 14.3438 78.3848 18.3438 78.5306L18.3177 79.3275C14.3802 79.1869 11.0313 79.4369 8.06771 80.0827C7.66667 80.1764 7.30208 80.2546 6.97396 80.3275C5.47396 80.6556 4.63021 80.8431 3.82292 80.8431ZM30.349 51.291C30.349 51.2962 30.349 51.3066 30.349 51.3118C30.349 51.3066 30.349 51.291 30.349 51.291Z" fill="black"/>
</g>
<path d="M114.265 117.651C106.245 117.651 97.505 116.766 89.7655 115.974C81.1509 115.099 73.7082 114.339 69.3019 114.927L69.1978 114.136C73.6978 113.537 81.1821 114.302 89.8488 115.183C104.312 116.657 122.323 118.485 132.297 114.162L132.614 114.896C127.849 116.964 121.338 117.651 114.265 117.651Z" fill="black"/>
<path d="M127.052 70.4948L127.844 70.3906L130.625 92.0573L129.833 92.1615L127.052 70.4948Z" fill="black"/>
<path d="M140.016 79.2653C139.313 79.2653 138.693 79.2288 138.177 79.1403L138.307 78.3538C140.542 78.7236 145.063 78.1247 149.443 77.5465L149.667 77.5205V77.932L149.719 78.3122L149.547 78.3382C146.078 78.7965 142.521 79.2653 140.016 79.2653Z" fill="black"/>
<mask id="mask6_5546_11872" style="mask-type:luminance" maskUnits="userSpaceOnUse" x="0" y="76" width="197" height="53">
<path d="M0.447754 76.333H197V128.333H0.447754V76.333Z" fill="white"/>
</mask>
<g mask="url(#mask6_5546_11872)">
<path d="M92.0259 127.766C89.9634 127.766 87.828 127.755 85.6561 127.724C62.4634 127.443 40.0623 120.427 39.5571 113.297C39.328 110.062 43.578 107.406 51.9269 105.521C51.8644 105.521 51.8019 105.521 51.7342 105.521C37.0311 105.521 21.229 100.781 19.7134 95.3125C19.0728 93 20.7811 90.8698 24.7811 88.974C28.6769 87.1302 28.8696 86.5052 28.8696 86.401C28.6144 85.8438 24.578 85.7396 21.6248 85.6562C13.8488 85.4479 3.20817 85.1667 0.729004 80.0521L1.44255 79.7031C3.71338 84.3802 14.505 84.6667 21.6457 84.8594C27.0207 85 29.4113 85.1146 29.6457 86.2344C29.7967 86.9531 29.0832 87.8177 25.1196 89.6927C22.6405 90.8646 19.828 92.75 20.479 95.0938C22.0884 100.906 42.2707 105.974 57.703 104.438L57.8071 105.224C42.2915 107.63 40.2082 111.276 40.3488 113.234C40.7707 119.188 61.078 126.625 85.6665 126.927C88.5519 126.964 91.3801 126.974 94.0571 126.964C117.812 126.849 135.963 124.948 149.547 121.141C153.614 120.005 157.229 118.714 160.599 117.188C162.765 116.208 164.771 115.156 166.734 113.979C169.698 112.203 171.057 110.036 170.562 107.875C169.797 104.516 164.922 101.948 158.151 101.333C155.708 101.115 155.411 99.6823 155.453 98.849C155.646 94.6979 165.609 85.9688 176.265 85.9688C176.333 85.9688 176.396 85.9688 176.463 85.9688C186.51 85.9688 196.099 80.2865 196.14 78.1354C196.156 77.5729 195.005 77.474 194.51 77.4583C194.432 77.4531 194.359 77.4531 194.286 77.4531L187.854 78.3594L187.812 78.3542L177.104 77.4635C174.719 78.974 163.995 78.1354 160.208 77.5469C159.094 77.375 157.271 77.4323 154.479 77.7292L154.39 76.9375C157.297 76.625 159.13 76.5729 160.333 76.7552C165.14 77.5052 175.146 78.0052 176.75 76.7396L176.875 76.6406L187.833 77.5573L194.26 76.651C194.359 76.651 194.458 76.651 194.547 76.6562C196.552 76.724 196.958 77.5052 196.943 78.1458C196.896 80.8542 186.979 86.7604 176.469 86.7604C176.401 86.7604 176.333 86.7604 176.271 86.7604C166.213 86.7604 156.432 95.0833 156.255 98.8854C156.239 99.25 156.182 100.354 158.229 100.536C165.349 101.182 170.505 103.995 171.349 107.693C171.927 110.219 170.437 112.693 167.151 114.656C165.161 115.854 163.13 116.917 160.937 117.906C157.526 119.453 153.875 120.76 149.771 121.911C136.12 125.734 117.901 127.646 94.0676 127.76C93.3957 127.766 92.7134 127.766 92.0259 127.766Z" fill="black"/>
</g>
<path d="M13.3438 21.6927L13.8177 21.0469L51.0938 48.4792L50.6198 49.125L13.3438 21.6927Z" fill="black"/>
<path d="M53.4062 31.5L53.8802 30.8594L103.578 67.4271L103.104 68.0729L53.4062 31.5Z" fill="black"/>
<mask id="mask7_5546_11872" style="mask-type:luminance" maskUnits="userSpaceOnUse" x="62" y="0" width="38" height="29">
<path d="M62.3335 0.421875H99.6668V28.3333H62.3335V0.421875Z" fill="white"/>
</mask>
<g mask="url(#mask7_5546_11872)">
<path d="M62.4429 1.5472L62.9168 0.901367L98.6304 27.1826L98.1564 27.8285L62.4429 1.5472Z" fill="black"/>
</g>
<path d="M132.469 8.73438L132.943 8.09375L185.401 46.7083L184.932 47.349L132.469 8.73438Z" fill="black"/>
<path d="M140.797 52.1406L141.271 51.5L169.828 72.5156L169.354 73.1615L140.797 52.1406Z" fill="black"/>
<path d="M151.417 111.151L151.89 110.505L180.443 131.526L179.974 132.166L151.417 111.151Z" fill="black"/>
<path d="M82.1665 84.5889L82.6405 83.9482L111.193 104.959L110.719 105.599L82.1665 84.5889Z" fill="black"/>
<path d="M87.6875 76.4062L88.1615 75.7656L158.745 127.714L158.271 128.359L87.6875 76.4062Z" fill="black"/>
<path d="M13.9272 100.026L14.4012 99.3857L62.2397 134.594L61.7658 135.235L13.9272 100.026Z" fill="black"/>
<path d="M108.328 12.5469L108.802 11.9062L133.651 30.1927L133.177 30.8385L108.328 12.5469Z" fill="black"/>
<path d="M86.9688 122.63L87.4375 121.989L112.292 140.276L111.818 140.916L86.9688 122.63Z" fill="black"/>
<path d="M20.021 61.2705L20.495 60.6299L70.1877 97.2028L69.7137 97.8486L20.021 61.2705Z" fill="black"/>
<path d="M36.5103 31.3541C35.1405 31.3541 32.8749 30.1562 30.9478 28.7396C29.5832 27.7344 28.4061 26.6354 27.6353 25.6562C26.7395 24.5104 26.4895 23.651 26.8905 23.1041C27.7655 21.9219 30.9166 23.4166 33.4738 25.3021C36.0311 27.1823 38.3957 29.7552 37.5311 30.9375C37.3124 31.2239 36.9582 31.3541 36.5103 31.3541ZM27.8905 23.4635C27.7082 23.4635 27.5832 23.5052 27.5311 23.5729C27.4582 23.6719 27.4582 24.1354 28.2603 25.1614C28.9843 26.0885 30.1041 27.1302 31.4166 28.0937C34.4374 30.3177 36.6093 30.8229 36.8853 30.4583C37.1509 30.0937 36.0207 28.1666 32.9999 25.9427C30.5624 24.1406 28.6718 23.4635 27.8905 23.4635Z" fill="black"/>
<path d="M83.8907 39.7028C82.5209 39.7028 80.2553 38.5101 78.323 37.0883C76.9584 36.083 75.7865 34.9893 75.0157 33.9997C74.1198 32.8591 73.8698 31.9997 74.2709 31.4528C75.1459 30.2653 78.2969 31.7601 80.8542 33.6455C83.2032 35.3747 84.8959 37.3122 85.073 38.4737C85.1198 38.7966 85.0626 39.0674 84.9011 39.281C84.6928 39.5726 84.3386 39.7028 83.8907 39.7028ZM75.2761 31.8174C75.0886 31.8174 74.9688 31.8539 74.9115 31.9268C74.8438 32.0205 74.8438 32.4893 75.6407 33.5101C76.3646 34.4424 77.4844 35.4841 78.7917 36.4476C81.823 38.6716 83.9948 39.1716 84.2605 38.8122C84.2917 38.7705 84.2969 38.6924 84.2813 38.5935C84.1615 37.7914 82.7813 36.057 80.3803 34.2862C77.9428 32.4945 76.0573 31.8174 75.2761 31.8174Z" fill="black"/>
<path d="M47.219 19.3747C46.1096 19.3747 44.3179 18.4372 42.7919 17.3174C41.7138 16.5257 40.7867 15.6611 40.1773 14.8799C39.4533 13.9528 39.2554 13.2444 39.5992 12.7809C39.6929 12.6507 39.8752 12.484 40.219 12.4319C41.1617 12.2861 42.9898 13.0934 44.8804 14.484C46.7658 15.8694 48.0731 17.3747 48.219 18.3226C48.271 18.6611 48.1669 18.8903 48.0731 19.0205C47.8908 19.2653 47.594 19.3747 47.219 19.3747ZM40.4481 13.2028C40.3388 13.2028 40.271 13.2236 40.2398 13.2497C40.0992 13.5049 40.9638 14.984 43.2658 16.6715C45.5575 18.359 47.219 18.7497 47.4273 18.5465C47.5627 18.2861 46.7033 16.8122 44.4065 15.1247C42.4013 13.6507 40.9742 13.2028 40.4481 13.2028Z" fill="black"/>
<path d="M49.5835 72.9737C49.2033 72.9737 48.7398 72.8643 48.1773 72.656C47.1877 72.281 46.0054 71.6039 44.8544 70.7601C43.7033 69.9164 42.7138 68.9893 42.0627 68.156C41.2867 67.1664 41.0783 66.4216 41.4377 65.9372C41.7919 65.4529 42.5679 65.432 43.7398 65.8747C44.7294 66.2497 45.9065 66.9216 47.0575 67.7706C48.2138 68.6143 49.2033 69.5414 49.8544 70.3747C50.6304 71.3591 50.8388 72.1091 50.4794 72.5883C50.2971 72.8435 49.995 72.9737 49.5835 72.9737ZM42.3388 66.3539C42.1773 66.3539 42.094 66.3904 42.0783 66.4112C42.0471 66.4581 42.0419 66.8331 42.6929 67.6612C43.3023 68.4424 44.2398 69.3122 45.3335 70.1143C46.4273 70.9216 47.5419 71.557 48.4638 71.906C49.4481 72.281 49.8075 72.1664 49.844 72.1195C49.8804 72.0726 49.8804 71.6924 49.2294 70.8643C48.62 70.0883 47.6825 69.2133 46.5888 68.4112C45.495 67.6091 44.3856 66.9685 43.4585 66.6195C42.9117 66.4112 42.5523 66.3539 42.3388 66.3539Z" fill="black"/>
<path d="M23.7449 81.9115C22.3699 81.9115 20.1095 80.7136 18.1824 79.2917C18.1459 79.2709 18.1147 79.2396 18.0834 79.2188C15.5834 77.3646 13.2657 74.8282 14.1303 73.6615C15.0001 72.4792 18.1564 73.9688 20.7137 75.8594C22.1459 76.9115 23.3595 78.0521 24.1251 79.073C24.9376 80.1511 25.1564 80.9636 24.7709 81.4896C24.5522 81.7813 24.1928 81.9115 23.7449 81.9115ZM15.1303 74.0261C14.9428 74.0261 14.823 74.0625 14.7657 74.1355C14.5001 74.4948 15.6043 76.3959 18.573 78.5938C18.6095 78.6198 18.6251 78.6303 18.6459 78.6459C21.6772 80.8803 23.8543 81.3803 24.1251 81.0157C24.1876 80.9271 24.198 80.4948 23.4845 79.5469C22.7709 78.6042 21.5887 77.4896 20.2397 76.5C17.797 74.698 15.9116 74.0261 15.1303 74.0261Z" fill="black"/>
<path d="M67.8333 114.083C66.7865 114.083 65.1406 113.104 64.1302 112.359C62.8021 111.385 60.75 109.479 61.4636 108.505C61.7656 108.094 62.4011 108.062 63.349 108.422C64.125 108.714 65.0417 109.24 65.9375 109.901C67.1406 110.781 68.5938 112.156 68.7396 113.125C68.7865 113.432 68.6927 113.635 68.6042 113.75C68.4323 113.984 68.1667 114.083 67.8333 114.083ZM62.1146 108.979C62.0938 109.297 62.8958 110.464 64.6042 111.719C66.3125 112.979 67.6667 113.391 67.9583 113.281C67.974 112.958 67.1771 111.797 65.474 110.542C63.7604 109.281 62.4115 108.87 62.1146 108.979ZM67.9792 113.266C67.974 113.266 67.974 113.266 67.9792 113.266V113.266Z" fill="black"/>
<path d="M95.8699 111.797C94.6407 111.797 92.4584 110.782 90.2813 109.183C87.9376 107.459 86.2397 105.521 86.0678 104.36C86.0209 104.042 86.073 103.771 86.2345 103.552C86.3907 103.339 86.6355 103.203 86.9532 103.151C88.1147 102.969 90.4688 104.016 92.8178 105.745C95.1615 107.469 96.8595 109.407 97.0365 110.568C97.0834 110.891 97.0261 111.162 96.8699 111.375C96.7136 111.594 96.4688 111.729 96.1459 111.776C96.0626 111.792 95.9688 111.797 95.8699 111.797ZM87.2553 103.927C87.1876 103.927 87.1303 103.933 87.0782 103.943C86.9792 103.959 86.9063 103.99 86.8803 104.026C86.849 104.063 86.8438 104.141 86.8595 104.245C86.9792 105.042 88.3595 106.776 90.7605 108.542C93.1667 110.313 95.2345 111.12 96.0313 110.99C96.1355 110.974 96.2032 110.948 96.2345 110.912C96.2605 110.87 96.2709 110.792 96.2501 110.693C96.1303 109.896 94.7501 108.162 92.349 106.396C90.1042 104.735 88.1511 103.927 87.2553 103.927Z" fill="black"/>
<path d="M150.167 137.37C148.797 137.37 146.536 136.177 144.604 134.755C142.042 132.875 139.682 130.302 140.547 129.12C141.422 127.937 144.573 129.427 147.13 131.312C149.479 133.041 151.177 134.979 151.354 136.14C151.401 136.463 151.344 136.734 151.182 136.948C150.974 137.239 150.62 137.37 150.167 137.37ZM141.552 129.484C141.37 129.484 141.25 129.526 141.193 129.599C140.927 129.963 142.052 131.89 145.078 134.114C148.104 136.338 150.281 136.844 150.552 136.479C150.578 136.437 150.583 136.364 150.568 136.26C150.448 135.458 149.068 133.729 146.661 131.963C144.224 130.161 142.333 129.484 141.552 129.484Z" fill="black"/>
<path d="M175.224 98.0985C174.161 98.0985 172.453 97.2027 171.005 96.1402C169.208 94.8173 167.958 93.3746 167.818 92.4787C167.766 92.1454 167.87 91.9214 167.963 91.7964C168.297 91.3485 169 91.3277 170.057 91.7287C170.943 92.0621 171.995 92.6558 173.016 93.4058C174.516 94.5152 176.849 96.6766 176.057 97.7496C175.88 97.9891 175.588 98.0985 175.224 98.0985ZM168.786 92.2339C168.698 92.2339 168.635 92.2496 168.604 92.2704C168.516 92.4996 169.25 93.8537 171.484 95.4996C173.693 97.1246 175.198 97.4319 175.417 97.2808C175.5 97.0256 174.76 95.6819 172.542 94.0464C170.656 92.661 169.281 92.2339 168.786 92.2339Z" fill="black"/>
<path d="M34.4897 133.625C32.5626 133.625 29.2553 131.927 26.3334 129.776C24.323 128.292 22.5886 126.677 21.4532 125.229C20.2032 123.625 19.823 122.396 20.349 121.672C21.5105 120.099 26.0157 122.141 29.8647 124.974C33.7136 127.807 37.0053 131.505 35.849 133.078C35.5626 133.458 35.0938 133.625 34.4897 133.625ZM21.6928 121.917C21.3438 121.917 21.1043 121.995 20.9897 122.151C20.7813 122.438 20.9376 123.281 22.073 124.734C23.1668 126.13 24.8438 127.693 26.797 129.135C31.198 132.37 34.6563 133.339 35.1928 132.609C35.7345 131.87 33.7866 128.859 29.3803 125.62C25.9063 123.057 23.0157 121.917 21.6928 121.917Z" fill="black"/>
<path d="M155.677 81.3854C154.307 81.3854 152.042 80.1927 150.115 78.7708C149.87 78.5937 149.636 78.4166 149.406 78.2291C147.344 76.5885 145.224 74.2604 146.057 73.1354C146.927 71.9531 150.084 73.4479 152.641 75.3333C153.386 75.8802 154.078 76.4531 154.698 77.0469C155.552 77.875 157.469 79.9114 156.698 80.9635C156.485 81.2604 156.13 81.3854 155.677 81.3854ZM147.063 73.5052C146.88 73.5052 146.755 73.5416 146.703 73.6146C146.469 73.9323 147.365 75.5833 149.912 77.6146C150.125 77.7916 150.354 77.9635 150.584 78.1302C153.615 80.3594 155.787 80.8594 156.057 80.5C156.193 80.3073 155.906 79.3177 154.151 77.6302C153.552 77.0573 152.886 76.5052 152.172 75.9791C149.735 74.1771 147.844 73.5052 147.063 73.5052Z" fill="black"/>
<path d="M120.271 50.9583C119.422 50.9583 118.078 50.1927 117.135 49.5C116.828 49.276 114.135 47.2448 114.906 46.1979C114.984 46.0885 115.135 45.9479 115.417 45.9062C116.25 45.7812 117.719 46.6041 118.729 47.3437C119.042 47.5729 121.729 49.5989 120.963 50.651C120.88 50.7656 120.729 50.901 120.448 50.9427C120.396 50.9531 120.333 50.9583 120.271 50.9583ZM115.573 46.6875C115.646 47.0104 116.307 47.901 117.615 48.8594C118.917 49.8177 119.969 50.1927 120.292 50.1614C120.224 49.8385 119.557 48.9479 118.255 47.9896C116.953 47.0364 115.917 46.6666 115.573 46.6875Z" fill="black"/>
<mask id="mask8_5546_11872" style="mask-type:luminance" maskUnits="userSpaceOnUse" x="142" y="141" width="9" height="7">
<path d="M142.333 141.667H150.333V147.422H142.333V141.667Z" fill="white"/>
</mask>
<g mask="url(#mask8_5546_11872)">
<path d="M148.208 147.016C147.359 147.016 146.021 146.251 145.078 145.563C144.766 145.334 142.073 143.308 142.844 142.251C142.922 142.141 143.073 142.006 143.354 141.959C144.193 141.839 145.656 142.657 146.667 143.402C147.677 144.141 148.901 145.308 149.026 146.136C149.068 146.412 148.984 146.6 148.901 146.709C148.823 146.818 148.667 146.959 148.391 146.995C148.328 147.006 148.271 147.016 148.208 147.016ZM143.51 142.745C143.583 143.068 144.245 143.959 145.547 144.917C146.854 145.881 147.917 146.24 148.229 146.219C148.161 145.902 147.495 145.006 146.193 144.042C144.891 143.089 143.849 142.73 143.51 142.745Z" fill="black"/>
</g>
<path d="M168.265 18.4267C167.411 18.4267 166.073 17.6663 165.135 16.9788C164.823 16.7497 162.13 14.7184 162.901 13.6715C162.979 13.5622 163.135 13.4215 163.411 13.3799C164.245 13.2549 165.719 14.0778 166.724 14.8226C167.031 15.0517 169.724 17.0778 168.953 18.1247C168.875 18.234 168.724 18.3694 168.442 18.4163C168.39 18.4215 168.328 18.4267 168.265 18.4267ZM163.573 14.1611C163.64 14.484 164.307 15.3747 165.604 16.3382C166.906 17.2965 167.958 17.6663 168.286 17.6351C168.213 17.3122 167.552 16.4215 166.25 15.4632C164.875 14.4476 163.875 14.1455 163.573 14.1611Z" fill="black"/>
<path d="M36.2864 64.6409C35.4374 64.6409 34.0989 63.8805 33.1562 63.1878C32.8437 62.9586 30.151 60.9326 30.9218 59.8805C30.9999 59.7711 31.1562 59.6357 31.4322 59.5888C32.2656 59.4638 33.7343 60.2868 34.7447 61.0316C35.7552 61.7711 36.9791 62.9378 37.1041 63.7659C37.1458 64.042 37.0624 64.2347 36.9791 64.3388C36.901 64.4482 36.7447 64.5836 36.4687 64.6253C36.4114 64.6357 36.3489 64.6409 36.2864 64.6409ZM31.5885 60.3753C31.6614 60.693 32.3281 61.5888 33.6249 62.5472C34.9322 63.5055 35.9843 63.8805 36.3124 63.8493C36.2395 63.5263 35.5781 62.6305 34.2708 61.6722C32.9687 60.7138 31.927 60.3441 31.5885 60.3753Z" fill="black"/>
<path d="M117.203 33.9736C116.203 33.9736 114.505 33.1872 112.76 31.9007C110.713 30.3851 108.833 28.3174 109.547 27.3434C109.641 27.2132 109.828 27.0465 110.172 26.9944C111.115 26.8486 112.953 27.6559 114.854 29.0517C116.901 30.5622 118.781 32.6351 118.062 33.609C117.969 33.7392 117.781 33.9059 117.437 33.958C117.365 33.9684 117.286 33.9736 117.203 33.9736ZM110.396 27.7653C110.292 27.7653 110.224 27.7861 110.187 27.8174C110.057 28.0726 110.927 29.5622 113.229 31.2601C115.542 32.958 117.213 33.3434 117.422 33.1351C117.552 32.8799 116.682 31.3903 114.38 29.6924C112.443 28.2653 110.948 27.7653 110.396 27.7653Z" fill="black"/>
<path d="M189.896 65.7341C188.854 65.7341 187.068 64.906 185.235 63.5571C183.089 61.9737 181.115 59.8071 181.86 58.7862C182.615 57.781 185.266 59.0102 187.417 60.5935C189.401 62.0519 190.787 63.6404 190.938 64.6352C190.995 64.9894 190.891 65.2237 190.792 65.3539C190.693 65.4894 190.5 65.656 190.146 65.7133C190.063 65.7289 189.985 65.7341 189.896 65.7341ZM182.729 59.1977C182.61 59.1977 182.531 59.2185 182.5 59.2602C182.323 59.4998 183.219 61.0831 185.703 62.9112C187.656 64.3487 189.386 65.0206 190.016 64.9216C190.099 64.9112 190.136 64.8904 190.141 64.88C190.141 64.8748 190.156 64.8383 190.141 64.755C190.047 64.1196 188.891 62.6716 186.938 61.2341C184.886 59.7289 183.318 59.1977 182.729 59.1977Z" fill="black"/>
<path d="M161.531 46.0628C160.302 46.0628 158.12 45.0472 155.943 43.4482C154.578 42.4482 153.406 41.3493 152.635 40.3649C151.739 39.2191 151.489 38.3649 151.891 37.818C152.766 36.6357 155.917 38.1305 158.474 40.0159C159.838 41.0159 161.01 42.1149 161.781 43.0993C162.677 44.2451 162.927 45.0993 162.526 45.6461C162.37 45.8649 162.125 45.9951 161.802 46.0472C161.719 46.0576 161.63 46.0628 161.531 46.0628ZM152.896 38.1826C152.713 38.1826 152.588 38.2243 152.536 38.292C152.463 38.3857 152.463 38.8545 153.26 39.8753C153.989 40.8076 155.109 41.8493 156.417 42.8076C158.818 44.5784 160.88 45.3857 161.682 45.2555C161.781 45.2399 161.859 45.2086 161.885 45.1774C161.953 45.0784 161.953 44.6149 161.156 43.5888C160.432 42.6618 159.312 41.6201 158.005 40.6618C155.562 38.8545 153.677 38.1826 152.896 38.1826Z" fill="black"/>
<mask id="mask9_5546_11872" style="mask-type:luminance" maskUnits="userSpaceOnUse" x="79" y="0" width="10" height="7">
<path d="M79.6665 0.421875H88.9998V7H79.6665V0.421875Z" fill="white"/>
</mask>
<g mask="url(#mask9_5546_11872)">
<path d="M87.1249 6.21867C86.1197 6.21867 84.552 5.28638 83.5937 4.58325C82.7395 3.95304 82.0103 3.26554 81.526 2.64575C80.927 1.88013 80.7708 1.29158 81.0676 0.89575C81.151 0.781168 81.3124 0.630125 81.6145 0.588459C82.5416 0.447835 84.1978 1.37492 85.3385 2.21346C86.4791 3.052 87.8593 4.35929 87.9999 5.28638C88.0416 5.58846 87.953 5.78638 87.8645 5.90096C87.6978 6.11971 87.4374 6.21867 87.1249 6.21867ZM81.7187 1.36971C81.7343 1.65096 82.3697 2.68221 84.0676 3.93742C85.7656 5.18221 86.9374 5.48429 87.2135 5.41658C87.1978 5.12492 86.5624 4.09888 84.8645 2.85408C83.1666 1.60408 81.9895 1.302 81.7187 1.36971Z" fill="black"/>
</g>
</svg>
