<svg width="232" height="147" viewBox="0 0 232 147" fill="none" xmlns="http://www.w3.org/2000/svg">
<mask id="mask0_5558_5492" style="mask-type:luminance" maskUnits="userSpaceOnUse" x="0" y="0" width="232" height="147">
<path d="M0.880371 0H231.88V146.604H0.880371V0Z" fill="white"/>
</mask>
<g mask="url(#mask0_5558_5492)">
<path d="M223.057 108.89L228.943 95.5936L215.833 86.0884L218.672 71.88L210.667 69.4894V58.8436L204.979 56.8905L201.906 41.1404L201.625 41.0675C199.698 40.5832 183.599 36.5207 180.761 36.0832C180.703 35.8957 180.656 35.7082 180.604 35.5207C180.865 35.1977 181.255 34.5102 181.5 33.1457C181.922 30.8019 178.682 21.0102 170.781 16.8332C167.849 14.7707 164.912 14.3488 162.87 14.3696L161.854 12.9009L162.224 12.5623L162.261 12.4321C162.287 12.3488 162.766 10.4165 161.896 7.18733C161.974 7.11962 162.063 7.05191 162.13 6.98941L162.328 6.80712L162.266 6.5467C161.714 4.16128 160.089 2.13524 157.818 0.989409C155.844 -0.00538325 153.651 -0.192882 152.083 0.4842C150.537 1.16649 148.568 2.71337 147.688 5.04149C147.031 6.78108 147.104 8.66128 147.896 10.4946L146.677 12.4425L147.391 12.5311C147.724 12.5727 148.078 12.5936 148.443 12.5936C149.037 12.5936 149.682 12.5259 150.36 12.4269C150.61 12.7707 150.74 13.2707 150.86 13.7655C150.974 14.2342 151.078 14.6821 151.297 15.0415C151.807 15.8957 152.807 16.5832 153.912 16.8332C154.625 16.9946 155.302 16.9634 155.87 16.7446L156.162 17.5519C153.318 20.3957 148.62 25.2082 146.365 27.5363L143.896 24.4061L139.573 25.3644V17.9477L127.287 13.1352L109.063 25.9009L105.88 35.0467L108.932 41.4998L106.031 46.8332L102.458 49.0519L100.781 51.9477C99.5054 51.1144 98.2398 50.4113 97.0106 49.8644V49.4842C98.3179 48.7759 99.3908 46.9321 99.2189 45.63C99.1252 44.9582 98.7606 44.38 98.4377 43.8644C98.1929 43.4738 97.9533 43.104 97.9012 42.7759C98.8491 42.203 99.6356 41.5936 100.245 40.9529L100.74 40.4269L98.5575 39.7186C97.9897 37.8019 96.8387 36.3123 95.2189 35.3957C93.0522 34.1769 90.547 34.2446 88.9272 34.7238C87.2918 35.2029 85.7293 36.7602 84.8543 38.7863C83.8387 41.1196 83.896 43.7134 85.0002 45.9009L85.12 46.1405L85.3908 46.1509C85.521 46.1561 85.6668 46.1561 85.8127 46.1561C85.896 46.1561 85.9897 46.1561 86.0835 46.1561C86.2241 47.3071 86.6564 48.1144 87.1564 48.6561C80.6929 49.88 76.8335 53.9634 74.7137 56.2082C74.6356 56.2915 74.5575 56.3748 74.4845 56.453L67.8491 49.8852L67.7137 49.8592C67.4272 49.7967 67.1252 49.7863 66.8075 49.8071C66.646 48.7915 66.0731 46.9321 64.0418 46.1977C61.8491 45.3957 57.3752 46.5259 56.2658 48.1196L54.7814 49.1925L52.9377 43.5988L55.2814 39.854L55.271 39.6977C55.0939 37.8904 54.8595 35.2029 54.896 34.8748L54.9116 34.6873L54.7918 34.5363C54.7241 34.4529 53.0679 32.4582 51.4325 33.4529L51.1981 33.5936L51.4845 38.6509L49.3491 42.4425L51.8283 51.3384L47.4325 54.5363L41.2189 53.979L32.0158 34.0832L31.8179 34.0207C30.8387 33.7082 28.7241 33.5675 27.7293 35.3071L27.6043 35.5154L27.7137 35.7394C27.7137 35.7394 30.2137 40.729 32.7189 45.7186C33.9793 48.2134 35.2345 50.7082 36.1825 52.578C36.8595 53.9113 37.2762 54.729 37.5522 55.229L31.6668 57.5207L27.3231 69.9738L27.5627 70.1769C27.6877 70.2967 30.6304 72.8488 31.5731 73.5363C31.547 74.4373 29.7189 78.5675 28.7189 80.8175C27.6772 83.1665 27.2502 84.1509 27.1616 84.5936C26.87 84.854 25.4064 85.7238 18.4793 88.5988C15.9845 89.63 13.9012 90.4582 13.8856 90.4686L13.6616 90.5571L11.62 98.9738L6.32308 100.646L0.880371 110.312L18.3231 118.349L21.922 125.312L15.9012 130.838V136.911L24.6981 142.776L48.0627 138.411L69.4429 143.51L69.5262 143.526L91.3127 140.672L94.6147 135.333L127.115 135.838L130.969 141.234L164.594 138.411L172.011 142.5L193.771 140.969L205.578 146.099L214.724 143.677L215.74 136.042L231.901 133.479V115.198L223.057 108.89Z" fill="black"/>
</g>
<path d="M147.536 110.104L206.458 99.7451L217.989 106.438L222.484 109.052L231.437 115.438V133.089L215.323 135.646L212.182 131.229L202.958 130.703L201.672 132.568H199.922C199.922 132.568 198.515 122.641 198.401 122.292C198.286 121.943 166.864 124.042 166.864 124.042V128.25L140.463 129.302L134.385 140.495L131.182 140.766L127.349 135.396L125.015 131.167L118.948 120.177L123.474 114.334L147.536 110.104Z" fill="#3B3A3A"/>
<path d="M106.515 97.7552L106.005 101.964C106.302 101.953 106.599 101.948 106.896 101.943C106 104.76 105.672 109.615 105.646 110.958L121.213 106.635L122.25 104.948C122.25 104.948 117.63 104.078 116.239 103.849C114.844 103.62 115.047 101.948 115.047 101.948C115.469 101.958 115.693 101.964 115.693 101.964C115.693 101.964 115.729 101.37 115.792 100.38L117.328 97.5208L120.948 96.9427L121.885 94.8385L124.896 93.3229L130.406 87.2448H136.015L138.469 88.7604L143.838 87.0104V81.1719L145.75 75.3281L148.39 74.9688L158.198 73.6562L159.724 73.4531L163.578 76.375L173.042 88.7552L181.448 85.9531L187.286 88.2917L193.13 91.6771L195.932 93.1927L200.604 89.6927L203.172 82.3333C203.172 82.3333 207.864 81.7031 208.302 81.7448C208.307 81.7448 208.312 81.7448 208.318 81.7448L211.114 82.2188L215.312 86.2917L228.354 95.7552L222.474 109.052L217.979 106.438L206.443 99.7448L147.521 110.104L123.463 114.333L118.943 120.177L125.005 131.167L124.885 131.234L115.047 128.391L114.042 121.76L102.682 118.182L90.4217 127.234L89.8957 129.771H88.2134L86.1665 121.078L83.0259 119.766C83.9894 118.484 84.88 117.24 85.7082 116.016C86.5675 114.75 87.354 113.516 88.0832 112.286C93.4113 103.25 95.2498 95.0625 95.2498 84.0833L108.099 84.7552L106.927 94.3073L106.515 97.7552Z" fill="#3B3A3A"/>
<path d="M180.406 36.5C181.682 36.5 201.516 41.5156 201.516 41.5156L204.583 57.2448L210.208 59.1771V69.8385L218.141 72.2083L215.323 86.2917L211.13 82.2188L208.328 81.7448C208.323 81.7448 208.323 81.7448 208.318 81.7448L202.135 80.6979L201.042 82.7292C200.281 81.6198 197.396 79.0365 194.224 76.3438C193.089 75.375 191.906 74.3958 190.776 73.4583C187.234 70.526 184.146 68.0885 184.146 68.0885L182.87 61.3802L180.641 49.6302L183.089 47.8281C183.089 47.8281 182.635 45.4375 181.818 42.0052C181.583 41.0417 181.328 40 181.042 38.901C180.844 38.125 180.625 37.3177 180.406 36.5Z" fill="#3B3A3A"/>
<mask id="mask1_5558_5492" style="mask-type:luminance" maskUnits="userSpaceOnUse" x="193" y="130" width="23" height="17">
<path d="M193 130.667H215.667V146.604H193V130.667Z" fill="white"/>
</mask>
<g mask="url(#mask1_5558_5492)">
<path d="M212.182 131.229L215.323 135.646L214.297 143.313L205.604 145.62L193.844 140.506V135.386L197.229 132.563H201.667L202.953 130.698L212.182 131.229Z" fill="#3B3A3A"/>
</g>
<path d="M208.318 81.7451C207.875 81.7035 203.188 82.3337 203.188 82.3337L200.62 89.693L195.948 93.193L193.141 91.6774L194.396 90.6357L198.75 87.0055L201.047 82.7243L202.141 80.6982L208.318 81.7451Z" fill="#3B3A3A"/>
<path d="M201.042 82.7292L198.75 87.0104L194.391 90.6406C191.312 88.7917 188.312 86.4688 185.531 83.8854L185.609 83.7969L194.224 76.3438C197.396 79.0365 200.281 81.6198 201.042 82.7292Z" fill="#C41830"/>
<path d="M199.917 132.562H197.229L193.844 135.385V140.505L172.104 142.036L164.693 137.943L134.391 140.484L140.469 129.292L166.87 128.24V124.036C166.87 124.036 198.292 121.932 198.406 122.281C198.516 122.641 199.917 132.562 199.917 132.562Z" fill="#3B3A3A"/>
<path d="M194.391 90.641L193.141 91.6826L187.297 88.2972L181.458 85.9587L173.047 88.7607L163.589 76.3805L159.734 73.4587L158.208 73.6618L157.104 70.2139L155.76 66.0003C155.76 66.0003 155.76 66.0003 155.755 66.0003L153.891 60.1514C153.891 60.1514 163.938 57.9222 169.896 57.1045C169.812 63.5993 175.151 73.1357 182.641 81.0264C183.568 82.0055 184.536 82.9639 185.531 83.8857C188.312 86.4691 191.312 88.792 194.391 90.641Z" fill="#3B3A3A"/>
<path d="M194.224 76.3434L185.609 83.7965L185.531 83.8851C184.536 82.9632 183.568 82.0049 182.641 81.0257L182.745 80.932L190.776 73.458C191.911 74.3955 193.089 75.3747 194.224 76.3434Z" fill="#F9CA06"/>
<path d="M190.776 73.458L182.745 80.932L182.641 81.0257C175.151 73.1351 169.813 63.5986 169.896 57.1038C163.932 57.9216 153.891 60.1507 153.891 60.1507L155.755 65.9997C155.5 66.0466 146.031 67.9528 145.761 68.1143C144.037 63.208 142.271 57.1195 143.261 55.0153C143.521 54.4684 143.818 53.9528 144.167 53.4736C146.182 50.6663 149.781 48.859 155.761 47.0674C160.547 50.5726 169.193 53.1455 180.641 49.6351L182.87 61.3799L184.146 68.0882C184.146 68.083 187.235 70.5257 190.776 73.458Z" fill="#C41830"/>
<path d="M183.094 47.8229L180.646 49.625C169.198 53.1302 160.552 50.5625 155.766 47.0573L158.682 41.5156C165.693 45.3073 177.401 44.4271 181.828 42C182.641 45.4375 183.094 47.8229 183.094 47.8229Z" fill="#C41830"/>
<path d="M181.047 38.9014C181.333 40.0003 181.589 41.042 181.823 42.0055C177.396 44.4274 165.688 45.3128 158.682 41.5212C158.682 41.5212 158.469 40.3805 158.146 38.9066C163.823 40.6305 177.948 41.4847 181.047 38.9014Z" fill="#F9CA06"/>
<path d="M156.464 33.0679C150.089 39.271 143.224 42.9221 138.448 44.9273C136.953 43.9898 134.172 41.2398 133.984 38.146V38.1408C136.688 36.8231 139.62 35.2033 140.896 33.8543C141.766 32.9377 143.865 30.7606 146.328 28.2241C149.885 24.5627 154.208 20.146 156.698 17.6668C157.745 16.6148 158.474 15.9116 158.682 15.7502C159.115 15.4221 160.615 14.9012 162.635 14.8387C164.88 14.7658 167.771 15.271 170.547 17.2293C171.443 17.8648 172.323 18.6512 173.172 19.6148C175.958 22.7971 178.354 29.3908 180.094 35.4012C180.198 35.7762 180.302 36.1408 180.411 36.5106C180.635 37.3283 180.854 38.1356 181.052 38.9116C177.953 41.4898 163.828 40.6408 158.151 38.9116C157.703 36.9169 157.063 34.3231 156.464 33.0679Z" fill="#C41830"/>
<path d="M170.542 17.2236C178.562 21.4476 181.385 31.182 181.047 33.0674C180.708 34.9476 180.088 35.3955 180.088 35.3955C178.349 29.3851 175.953 22.7913 173.167 19.609C172.318 18.6455 171.437 17.8643 170.542 17.2236Z" fill="#C41830"/>
<path d="M161.25 12.833L162.635 14.8382C160.615 14.9007 159.115 15.4215 158.682 15.7497C158.474 15.9111 157.745 16.6143 156.698 17.6663L156.13 16.0934C154.818 16.9736 152.531 16.208 151.693 14.8018C151.25 14.0622 151.286 12.6455 150.562 11.932C152.349 11.6195 154.255 10.9788 156.016 10.1924C157.182 10.9059 157.333 12.2393 156.349 13.0049C157.068 13.5361 160.354 13.6559 160.354 13.6559L161.25 12.833Z" fill="#794426"/>
<path d="M161.375 7.02637C162.328 10.3493 161.818 12.3128 161.818 12.3128L161.25 12.8285L160.349 13.6514C160.349 13.6514 157.062 13.5316 156.344 13.0003C157.333 12.2347 157.177 10.9014 156.01 10.1878C158.161 9.22949 160.114 8.05762 161.375 7.02637Z" fill="black"/>
<path d="M157.104 70.208L158.208 73.6559L148.401 74.9684C148.37 74.9111 147.839 73.6507 147.115 71.7757L157.104 70.208Z" fill="#C41830"/>
<path d="M155.76 65.9951L157.104 70.2087L147.115 71.7764C146.865 71.1357 146.604 70.4222 146.323 69.6722C146.141 69.1722 145.953 68.6462 145.766 68.1097C146.031 67.9482 155.505 66.0472 155.76 65.9951Z" fill="#F9CA06"/>
<path d="M161.375 7.026C160.109 8.05725 158.156 9.22913 156.01 10.1927C154.25 10.9791 152.344 11.625 150.557 11.9323C149.458 12.125 148.401 12.1875 147.448 12.0729L148.411 10.5312C146.271 5.92704 149.364 2.18225 152.265 0.911417C155.172 -0.354209 160.667 1.70308 161.818 6.65621C161.682 6.776 161.536 6.901 161.375 7.026Z" fill="#F9CA06"/>
<path d="M145.765 68.1091C145.958 68.6455 146.146 69.1716 146.323 69.6716L139.099 69.1507L133.786 76.958L130.083 77.432L126.114 84.7497L122.114 83.2809L119.12 85.0361C119.12 85.0361 116.88 83.6507 116.495 83.5622C116.5 82.8955 116.495 82.2809 116.484 81.7497C116.448 80.3955 116.021 79.2653 115.307 78.3226L117.917 70.9945C117.917 70.9945 122.239 70.4268 122.588 70.2184C122.937 69.9997 127.609 65.1715 127.609 65.1715L128.276 59.8903L128.89 55.0153L140.89 51.8486L144.172 53.4684C143.823 53.9476 143.526 54.4632 143.265 55.0101C142.271 57.1195 144.036 63.2028 145.765 68.1091Z" fill="#3B3A3A"/>
<path d="M145.761 75.3281L143.849 81.1719V87.0104L138.469 88.7604L136.021 87.2448L139.99 79.0625L145.761 75.3281Z" fill="#3B3A3A"/>
<path d="M131.224 46.4479C129.87 45.5625 127.729 43.7813 128.141 41.5156C128.193 41.2292 128.286 40.9375 128.427 40.6302C128.427 40.6302 129.646 40.1406 131.344 39.375C131 42.1042 133.604 45.2969 135.354 46.1146V46.1198C133.432 46.7917 132.286 47.0573 132.286 47.0573C132.286 47.0573 131.833 46.8437 131.224 46.4479Z" fill="#C41830"/>
<path d="M133.979 38.1406C134.172 41.2344 136.948 43.9844 138.443 44.9271C137.276 45.4167 136.229 45.8125 135.354 46.1198V46.1146C133.599 45.2969 131 42.1042 131.339 39.375C132.141 39.0208 133.047 38.599 133.979 38.1406Z" fill="#F9CA06"/>
<path d="M127.495 59.6719C127.083 58.9167 126.088 58.7396 122.594 59.6146C122.771 59.5365 125.734 58.1875 125.37 57.5104C125.125 57.0573 124.021 56.901 122.109 57.4948L121.208 55.0104L113.12 51.026L116.479 44.1354L113.12 40.6302L109.448 26.1875L120.193 18.6615L127.349 13.6562L139.114 18.2604V25.9323L143.713 24.9115L146.323 28.224C143.859 30.7604 141.76 32.9375 140.89 33.8542C139.614 35.2031 136.682 36.8229 133.979 38.1406C133.047 38.6042 132.14 39.0208 131.344 39.3802C129.646 40.1406 128.427 40.6354 128.427 40.6354C128.286 40.9427 128.193 41.2344 128.14 41.5208C126.557 40.875 119.604 41.4792 119.432 42.7552C119.255 44.026 121.208 44.1042 121.208 44.1042C118.963 45.0833 119.255 47.026 121.651 46.349C119.901 48.4115 121.89 48.875 123 48.5312C124.104 48.1823 126.328 47.9479 127.552 48.2396C128.734 48.5208 130.292 47.5573 131.224 46.4583C131.833 46.8542 132.286 47.0677 132.286 47.0677C132.286 47.0677 133.432 46.8021 135.354 46.1302C136.234 45.8229 137.281 45.4323 138.448 44.9323C143.224 42.9271 150.088 39.276 156.463 33.0729C157.062 34.3281 157.708 36.9219 158.146 38.9062C158.474 40.3802 158.682 41.5208 158.682 41.5208L155.76 47.0625C149.781 48.8594 146.182 50.6615 144.167 53.4688L140.885 51.849L128.89 55.0156L128.276 59.8906L127.515 59.7917C127.521 59.7448 127.51 59.7083 127.495 59.6719Z" fill="#3B3A3A"/>
<path d="M121.651 46.3384C119.255 47.0155 118.969 45.0728 121.208 44.0936C121.208 44.0936 119.255 44.0207 119.432 42.7446C119.604 41.4686 126.557 40.8644 128.141 41.5103C127.724 43.7759 129.87 45.5571 131.224 46.4426C130.292 47.5467 128.734 48.5051 127.552 48.2238C126.323 47.9269 124.104 48.1613 123 48.5155C121.891 48.8644 119.901 48.4061 121.651 46.3384Z" fill="#794426"/>
<path d="M126.844 63.6455C127.375 63.0622 126.557 61.5986 123.286 61.7809C123.844 61.6663 127.521 60.5465 127.521 59.7861L128.276 59.8851L127.609 65.1663C127.609 65.1663 122.937 69.9945 122.588 70.2132C122.234 70.4215 117.917 70.9945 117.917 70.9945L115.307 78.3174C113 75.2445 107.693 74.083 102.963 73.458C102.38 72.7132 101.922 71.4997 101.594 70.2184C101.344 69.2705 101.161 68.2757 101.057 67.4111C100.896 66.1768 100.864 65.1924 100.969 64.932C103.937 67.6299 105.906 68.4215 108.245 69.0101C110.583 69.5934 115.109 69.3018 119.083 66.2184C119.109 65.9111 119.12 65.6247 119.12 65.3486C121.265 65.8122 123 63.9997 124.312 63.6507C125.63 63.2965 126.323 64.2288 126.844 63.6455Z" fill="#3B3A3A"/>
<path d="M122.594 59.6142C126.089 58.7392 127.083 58.9163 127.495 59.6715C127.511 59.708 127.521 59.7444 127.521 59.7861C127.521 60.5465 123.849 61.6663 123.287 61.7809C126.557 61.5986 127.375 63.0621 126.844 63.6455C126.323 64.2288 125.625 63.2965 124.307 63.6455C122.995 63.9996 121.261 65.8069 119.115 65.3434C119.115 60.8486 115.761 60.8225 115.693 60.8225C115.401 58.8538 116.511 56.9996 117.563 57.0257C118.615 57.0465 118.203 59.2652 118.203 59.2652C119.745 58.3902 121.052 57.8277 122.11 57.4996C124.021 56.9059 125.125 57.0621 125.37 57.5152C125.735 58.1923 122.771 59.5361 122.594 59.6142Z" fill="#794426"/>
<path d="M125.016 131.161L127.349 135.385L94.3542 134.88L91.8021 129.765H89.9062L90.4271 127.224L102.693 118.177L114.057 121.75L115.057 128.385L124.896 131.229L125.016 131.161Z" fill="#3B3A3A"/>
<path d="M122.245 104.948L121.208 106.636L105.646 110.959C105.667 109.615 105.995 104.761 106.891 101.943C110.453 101.875 113.708 101.922 115.047 101.948C115.047 101.948 114.844 103.62 116.24 103.849C117.625 104.079 122.245 104.948 122.245 104.948Z" fill="black"/>
<path d="M121.208 55.0101L122.109 57.4945C121.052 57.8278 119.745 58.3903 118.203 59.2601C118.203 59.2601 118.614 57.0413 117.562 57.0205C116.51 56.9997 115.401 58.8486 115.693 60.8174C115.693 60.8174 111.015 60.7445 110.068 61.0413C108.755 59.3122 105.265 55.5049 100.932 52.583L101.01 52.4736L102.802 49.3747L106.38 47.1507L109.453 41.5101L113.125 40.6299L116.484 44.1299L113.125 51.0257L121.208 55.0101Z" fill="#3B3A3A"/>
<path d="M80.7656 64.6298C76.1667 66.7392 75.8958 66.1558 72.9948 66.5933C70.099 67.036 61.4062 54.3225 61.4062 54.3225C61.4792 54.1142 61.5781 53.9006 61.7031 53.6975C62.5781 52.1819 64.6094 50.6454 66.3958 50.3225C66.8229 50.2392 67.2292 50.2287 67.6146 50.3069L74.4844 57.1089C76.5938 54.9214 80.6823 49.9735 88.1979 48.9423C88.7448 48.8694 89.3177 48.8173 89.9062 48.7808C91.2552 48.7131 92.6146 48.8902 93.9635 49.2496C94.8333 49.4839 95.7031 49.7912 96.5521 50.161C98.0677 50.8173 99.5417 51.6558 100.927 52.5881C105.26 55.51 108.755 59.3173 110.068 61.0464C111.01 60.7496 115.688 60.8225 115.688 60.8225C115.76 60.8225 119.109 60.8485 119.109 65.3433C119.109 65.6194 119.104 65.9058 119.073 66.2131C115.099 69.2964 110.573 69.5881 108.234 69.0048C105.891 68.4214 103.927 67.6246 100.958 64.9267C100.859 65.1923 100.885 66.1767 101.047 67.4058C98.375 69.2756 83.2188 73.1923 80.3646 73.2183C80.3646 72.8954 80.3646 72.5777 80.3698 72.2548C80.3958 69.6923 80.5521 67.036 80.7656 64.6298Z" fill="#C41830"/>
<path d="M117.328 97.5212L115.792 100.381C115.833 99.6826 115.885 98.7868 115.943 97.7607C116 96.7191 116.068 95.542 116.125 94.3076C116.307 90.7087 116.479 86.5576 116.495 83.5628C116.885 83.6566 119.12 85.0368 119.12 85.0368L122.114 83.2816L126.114 84.7503L130.083 77.4326L133.786 76.9587L139.099 69.1514L146.323 69.6722C146.604 70.4222 146.864 71.1305 147.114 71.7764C147.838 73.6514 148.37 74.9118 148.401 74.9691L145.76 75.3285L139.989 79.0628L136.021 87.2451H130.411L124.901 93.318L121.89 94.8337L120.953 96.9378L117.328 97.5212Z" fill="#3B3A3A"/>
<path d="M83.3283 91.0729C83.1252 87.7344 82.9585 84.1719 83.0314 82.1146C89.0314 82.9167 99.271 80.6146 102.958 73.4531C107.693 74.0781 113 75.2396 115.302 78.3125C116.016 79.2604 116.443 80.3906 116.479 81.7396C116.49 82.2708 116.495 82.8854 116.49 83.5573C116.474 86.5469 116.302 90.6979 116.12 94.2969H106.932L108.099 84.7448L95.2502 84.0729C95.2502 95.0573 93.422 103.245 88.0887 112.276L78.7085 108.932L83.9168 99.151C83.9168 99.1563 83.5887 95.2969 83.3283 91.0729Z" fill="#C41830"/>
<path d="M106.932 94.3018H116.12C116.062 95.5413 116 96.7132 115.937 97.7549H106.51L106.932 94.3018Z" fill="#F9CA06"/>
<path d="M106.891 101.942C106.594 101.948 106.302 101.953 106 101.963L106.51 97.7549H115.938C115.88 98.7861 115.828 99.682 115.786 100.38C115.724 101.364 115.688 101.958 115.688 101.958C115.688 101.958 115.458 101.953 115.042 101.942C113.708 101.922 110.453 101.875 106.891 101.942Z" fill="#C41830"/>
<path d="M109.448 26.1875L113.125 40.6302L109.448 41.5156L106.38 35.0208L109.448 26.1875Z" fill="#3B3A3A"/>
<path d="M83.0311 82.1198C82.3748 82.0313 81.7707 81.9063 81.2342 81.7448C80.8384 80.3385 80.5988 78.5469 80.479 76.5521C88.5675 76.776 98.6613 72.6146 101.594 70.2188C101.922 71.5 102.375 72.7083 102.963 73.4583C99.2707 80.6146 89.0311 82.9219 83.0311 82.1198Z" fill="#C41830"/>
<path d="M101.052 67.4111C101.162 68.2757 101.344 69.2705 101.589 70.2184C98.6564 72.6195 88.5627 76.7757 80.4741 76.5518C80.4012 75.4893 80.37 74.3695 80.3647 73.2184C83.2189 73.1976 98.3804 69.2757 101.052 67.4111Z" fill="#F9CA06"/>
<path d="M97.4217 42.5205C97.3332 43.5361 98.5936 44.4788 98.7603 45.6924C98.9269 46.9007 97.7498 48.708 96.5519 49.1924V50.1559C95.703 49.7861 94.8332 49.4788 93.9634 49.2445C97.6509 47.9372 96.2082 44.9372 96.5519 42.9997C96.8488 42.8434 97.1405 42.682 97.4217 42.5205Z" fill="#794426"/>
<path d="M96.5521 42.9951C96.2031 44.9378 97.651 47.9378 93.9635 49.2399C92.6146 48.8805 91.2552 48.7087 89.9062 48.7764C89.3177 48.8076 88.7448 48.8597 88.1979 48.9378C87.349 48.4066 86.5729 47.4118 86.4844 45.667C89.2292 45.542 93.349 44.6097 96.5521 42.9951Z" fill="black"/>
<path d="M70.3175 119.276L73.7655 118.219V118.214L76.9634 117.229L83.0363 119.761L86.1769 121.068L88.2238 129.766H91.8019L94.354 134.881L91.0363 140.245L69.5519 143.063L48.0675 137.948L31.9582 140.953L23.88 135.386L22.479 130L27.6092 122.245L22.479 115.115L25.8123 103.177L25.8175 103.167L54.203 101.026L67.2498 108.276L70.3175 119.276Z" fill="#3B3A3A"/>
<path d="M78.7082 108.933L88.0884 112.282C87.3592 113.511 86.5728 114.745 85.7134 116.011L76.9165 112.282L78.7082 108.933Z" fill="#F9CA06"/>
<path d="M97.422 42.5213C97.1407 42.6827 96.8491 42.8442 96.5522 43.0005C93.3491 44.6098 89.2345 45.5421 86.4793 45.6775C86.0835 45.6984 85.7241 45.7036 85.396 45.688C83.0991 41.1515 86.0001 36.0473 89.0418 35.1567C92.0887 34.2713 96.8595 35.1567 98.172 40.0734L99.9012 40.6307C99.2449 41.3286 98.396 41.9588 97.422 42.5213Z" fill="#F9CA06"/>
<path d="M76.9217 112.276L85.7134 116.011C84.8905 117.235 83.9946 118.474 83.0363 119.756L76.9634 117.229L73.7603 118.214L76.9217 112.276Z" fill="#C41830"/>
<path d="M83.9165 99.1562L78.7082 108.932L76.9217 112.281L73.7603 118.219V118.224L70.3176 119.281L67.2498 108.281L54.203 101.031L25.8228 103.172L25.8175 103.182C25.6144 103.557 19.1665 115.484 18.6613 118.005L1.52588 110.104L6.64567 101.026L12.0103 99.3281L14.1821 101.729L18.6613 89.026C22.5884 87.3958 27.6092 85.224 27.6092 84.75C27.6092 84.75 31.8228 87.3594 32.1717 87.0104C32.3123 86.875 33.2394 87.7031 34.3123 88.7604C35.9373 90.375 37.8957 92.5 37.8957 92.5L42.104 84.75C42.104 84.75 50.0467 85.8437 50.3957 85.9583C50.7498 86.0781 53.3123 87.5938 53.3123 87.5938L57.755 87.0104L60.4373 91.0208L62.0623 90.7865L71.4165 89.4323L78.5467 93.5469L83.3228 91.0781C83.5884 95.2969 83.9165 99.1562 83.9165 99.1562Z" fill="#3B3A3A"/>
<path d="M80.4793 76.5521C80.5991 78.5469 80.8439 80.3385 81.2345 81.7448C81.771 81.9063 82.3752 82.0313 83.0314 82.1198C82.9585 84.1771 83.1252 87.7396 83.3283 91.0781L78.5522 93.5469L71.422 89.4323L62.0627 90.7865L62.6616 86.1927L59.0366 71.8229L62.896 72.526L71.0679 74.6302L74.8075 71.125L80.3647 72.2656H80.37C80.3647 72.5885 80.3647 72.9063 80.3647 73.2292C80.3752 74.375 80.4064 75.4948 80.4793 76.5521Z" fill="#3B3A3A"/>
<path d="M63.875 46.6197C65.9375 47.3697 66.3333 49.427 66.3958 50.3177C64.6094 50.6458 62.5781 52.177 61.7031 53.6927L61.6979 53.6875C60.1406 52.901 59.2917 49.8958 59.2917 49.8958C59.2917 49.8958 57.6563 48.9583 56.5781 48.4479C57.4219 47.0416 61.8177 45.8697 63.875 46.6197Z" fill="#794426"/>
<path d="M59.0365 71.8174L62.6615 86.1872L62.0625 90.7861L60.4375 91.0153L57.7552 87.0101L53.3125 87.5934L54.7135 80.9372L54.0156 76.0309L59.0365 71.8174Z" fill="#3B3A3A"/>
<path d="M61.4064 54.3232C61.4064 54.3232 70.0991 67.0368 72.995 66.5941C75.896 66.1566 76.1668 66.7399 80.7658 64.6305C80.547 67.0368 80.396 69.693 80.37 72.2607H80.3647L74.8075 71.1201L71.0679 74.6253L62.896 72.5212L59.0366 71.818L54.0158 76.0316L54.7137 80.9378L53.3075 87.5941C53.3075 87.5941 50.745 86.0785 50.3908 85.9587C50.0366 85.8441 42.0991 84.7503 42.0991 84.7503L37.4429 85.1982L38.2033 72.5264L33.3335 68.318L37.0054 55.9378L38.2033 55.4691L40.9064 54.417L47.5522 55.0055L52.3439 51.5212L54.5314 49.9274L56.5783 48.4482C57.6512 48.9587 59.2866 49.8962 59.2866 49.8962C59.2866 49.8962 60.1356 52.9014 61.6929 53.6878L61.6981 53.693C61.5783 53.9014 61.4793 54.1149 61.4064 54.3232Z" fill="#3B3A3A"/>
<path d="M54.797 39.7391L52.4168 43.536L54.5314 49.9266L52.3439 51.5203L49.8335 42.4995L51.9429 38.7547L51.6616 33.838C52.9741 33.0464 54.422 34.8224 54.422 34.8224C54.3752 35.3433 54.797 39.7391 54.797 39.7391Z" fill="black"/>
<path d="M42.1042 84.75L37.8958 92.5C37.8958 92.5 35.9375 90.375 34.3125 88.7604L35.5625 85.375L37.4479 85.1979L42.1042 84.75Z" fill="#3B3A3A"/>
<path d="M31.6823 34.4536L40.9062 54.4171L38.2031 55.4692C38.1198 55.4952 28.125 35.5317 28.125 35.5317C29.2031 33.6619 31.6823 34.4536 31.6823 34.4536Z" fill="black"/>
<path d="M38.2031 72.5264L37.4479 85.1982L35.5625 85.3753L34.3125 88.7607C33.2396 87.7035 32.3125 86.8753 32.1719 87.0107C31.8177 87.3649 27.6094 84.7503 27.6094 84.7503C27.6094 83.9847 32.7292 73.7555 31.9583 73.2451L38.2031 72.5264Z" fill="#3B3A3A"/>
<path d="M38.2033 72.5264L31.9585 73.2451C31.1929 72.7347 27.8647 69.8389 27.8647 69.8389L33.3335 68.3232L38.2033 72.5264Z" fill="#3B3A3A"/>
<path d="M37.0106 55.9375L33.3387 68.3177L27.8647 69.8333L32.0366 57.8698L37.0106 55.9375Z" fill="#3B3A3A"/>
<path d="M31.9582 140.953L24.7915 142.291L16.354 136.666V131.041L22.4946 125.416L18.6613 118C19.1613 115.484 25.6144 103.552 25.8175 103.177L22.479 115.119L27.6092 122.25L22.479 130.005L23.88 135.39L31.9582 140.953Z" fill="#3B3A3A"/>
<path d="M18.6613 89.0264L14.1821 101.729L12.0103 99.3285L14.0571 90.891C14.0571 90.891 16.1353 90.068 18.6613 89.0264Z" fill="#3B3A3A"/>
<path d="M101.401 52.7035L100.609 52.2503L102.458 49.0472L106.031 46.8285L108.932 41.5003L105.88 35.042L109.062 25.9014L127.286 13.1357L139.573 17.9482V25.3597L143.896 24.4014L146.688 27.9378L145.964 28.5055L143.531 25.4222L138.651 26.5055V18.5732L127.411 14.1722L109.833 26.4795L106.875 34.9899L109.964 41.5316L106.719 47.4847L103.141 49.7087L101.401 52.7035Z" fill="black"/>
<mask id="mask2_5558_5492" style="mask-type:luminance" maskUnits="userSpaceOnUse" x="0" y="36" width="232" height="111">
<path d="M0.880371 36H231.88V146.604H0.880371V36Z" fill="white"/>
</mask>
<g mask="url(#mask2_5558_5492)">
<path d="M205.568 146.104L193.761 140.974L172 142.506L164.583 138.417L130.958 141.24L127.104 135.844L94.6043 135.339L91.3022 140.677L69.5158 143.532L69.4325 143.516L48.0522 138.417L24.6877 142.782L15.8908 136.917V130.839L21.9168 125.313L18.3179 118.349L0.880371 110.313L6.32829 100.641L11.6252 98.9691L13.6668 90.5524L13.8908 90.4639C13.9116 90.4535 15.9897 89.6305 18.4845 88.5941C25.4168 85.7191 26.8752 84.8493 27.1668 84.5889C27.2554 84.1462 27.6825 83.167 28.7241 80.8128C29.7241 78.5628 31.5522 74.4326 31.5783 73.5368C30.6304 72.8493 27.6929 70.292 27.5627 70.1774L27.3283 69.9743L31.672 57.516L40.8387 53.943L47.422 54.5316L56.5262 47.9066L56.7762 48.0264C57.8491 48.542 59.4481 49.4587 59.521 49.4951L59.6825 49.5889L59.7293 49.766C59.9533 50.5472 60.7762 52.7035 61.9064 53.2764L61.4897 54.0941C59.9897 53.3337 59.1252 50.9014 58.9064 50.2035C58.5106 49.9795 57.4533 49.391 56.6252 48.9743L47.6929 55.4795L40.9793 54.8753L32.4064 58.2139L28.4116 69.6878C29.6095 70.7243 31.672 72.4847 32.2241 72.8493C32.8595 73.2764 32.5991 74.3597 29.5731 81.1826C28.8908 82.7191 28.12 84.4587 28.0783 84.7712C28.0783 85.1878 28.0783 85.6045 18.8439 89.443C16.8127 90.2764 15.0575 90.9847 14.4585 91.2243L12.4064 99.6826L6.9585 101.401L2.17204 109.891L19.0002 117.646L23.0679 125.511L16.8231 131.24V136.417L24.9012 141.802L48.0887 137.469L48.1877 137.495L69.5835 142.589L90.7658 139.813L94.1095 134.407L127.594 134.922L131.412 140.271L134.349 140.026L164.787 137.464L164.906 137.532L172.208 141.552L193.922 140.026L205.641 145.12L213.886 142.938L214.912 135.229L230.974 132.677V115.662L221.912 109.188L227.797 95.8857L214.813 86.4847L217.604 72.5212L209.75 70.1774V59.5003L204.182 57.5837L201.12 41.8857C193.167 39.8753 181.287 36.9587 180.406 36.9587V36.042C181.703 36.042 199.594 40.5524 201.625 41.068L201.906 41.141L204.979 56.891L210.667 58.8441V69.4899L218.672 71.8805L215.833 86.0889L228.943 95.5941L223.057 108.891L231.896 115.203V133.485L215.729 136.047L214.714 143.677L205.568 146.104Z" fill="black"/>
</g>
<path d="M93.9427 135.084L91.5156 130.224H87.8594L85.7812 121.401L76.9427 117.719L73.8958 118.651L73.625 117.771L76.9896 116.745L86.5729 120.735L88.5833 129.308H92.0833L94.7656 134.672L93.9427 135.084Z" fill="black"/>
<path d="M70.0002 119.854L66.8595 108.589L54.1043 101.49L25.8543 103.625L25.7866 102.714L54.3075 100.558L67.6408 107.974L70.6356 118.698L73.6252 117.776L73.896 118.657L70.0002 119.854Z" fill="black"/>
<path d="M19.1144 118.088L18.2134 117.906C18.7342 115.281 25.3488 103.083 25.4165 102.958L26.2238 103.396C24.38 106.781 19.5259 116.015 19.1144 118.088Z" fill="black"/>
<path d="M124.771 131.667L114.651 128.745L113.646 122.11L102.781 118.683L90.8438 127.49L90.3542 129.854L89.4531 129.672L90.0156 126.959L102.609 117.667L114.469 121.401L115.469 128.026L125.026 130.787L124.771 131.667Z" fill="black"/>
<path d="M126.948 135.61L118.406 120.131L123.224 113.912L123.401 113.881L206.542 99.2607L222.719 108.651L222.255 109.448L206.37 100.224L123.734 114.75L119.5 120.214L127.75 135.167L126.948 135.61Z" fill="black"/>
<path d="M134.786 140.708L133.979 140.271L140.182 128.844L166.396 127.797V123.609L166.828 123.583C166.906 123.578 174.771 123.052 182.552 122.573C198.646 121.588 198.672 121.672 198.828 122.146C198.953 122.49 199.948 129.505 200.37 132.5L199.458 132.63C198.963 129.141 198.224 124.005 198.01 122.703C195.568 122.667 178.797 123.703 167.318 124.469V128.682L140.734 129.74L134.786 140.708Z" fill="black"/>
<path d="M194.302 140.505H193.385V135.172L197.062 132.104H201.427L202.719 130.224L212.427 130.781L215.693 135.375L214.948 135.911L211.932 131.672L203.182 131.172L201.911 133.026H197.396L194.302 135.604V140.505Z" fill="black"/>
<path d="M215 86.6201L210.911 82.6514L208.25 82.1982L208.406 81.292L211.349 81.792L215.646 85.9587L215 86.6201Z" fill="black"/>
<path d="M116.099 100.782L115.287 100.339L117.031 97.1045L120.63 96.5264L121.531 94.5003L124.615 92.9482L130.208 86.7868H135.729L139.63 78.7451L145.594 74.8857L148.339 74.516L159.865 72.9795L163.953 76.0993L173.214 88.2243L181.479 85.4691L187.531 87.8962L193.094 91.1253L198.386 86.7139L201.886 80.193L208.391 81.292L208.24 82.1982L202.386 81.2087L199.115 87.3076L193.188 92.2399L187.099 88.7087L181.443 86.4482L172.886 89.3024L163.261 76.7087L159.61 73.943L145.922 75.766L140.349 79.3805L136.307 87.7035H130.615L125.182 93.693L122.24 95.1722L121.266 97.3545L117.63 97.9378L116.099 100.782Z" fill="black"/>
<path d="M195.984 93.745L192.922 92.0836L193.359 91.2763L195.906 92.6513L200.229 89.4117L202.844 81.9221L203.125 81.8805C204.24 81.7294 207.917 81.245 208.359 81.2867L208.318 82.2086C207.99 82.1878 205.661 82.469 203.531 82.7555L201.005 89.9794L195.984 93.745Z" fill="black"/>
<path d="M169.703 103.063L167.688 97.917L175.542 93.0628L172.677 89.0264L173.422 88.4951L176.865 93.3337L168.828 98.292L170.557 102.729L169.703 103.063Z" fill="black"/>
<path d="M171.99 96.042L168.172 93.6826L161.922 94.8805L161.75 93.9743L168.349 92.7139L172.474 95.266L171.99 96.042Z" fill="black"/>
<path d="M138.411 89.266L135.776 87.6357L136.26 86.8545L138.531 88.2607L143.385 86.6722L143.411 81.0264L145.323 75.1826L146.198 75.4691L144.307 81.2451V87.3441L138.411 89.266Z" fill="black"/>
<path d="M146.75 95.0104L148.094 89.0521L143.688 87.4427L144.005 86.5781L149.172 88.4688L147.958 93.8438L153.807 92.7448L153.979 93.651L146.75 95.0104Z" fill="black"/>
<path d="M127.984 32L127.469 30.2604L121.807 28.6823L124.026 21.4531L119.963 19.0573L120.427 18.2656L125.12 21.026L122.958 28.0521L128.208 29.5104L128.864 31.7448L127.984 32Z" fill="black"/>
<path d="M119.542 31.1771H118.62V26.7552L118.937 26.6458C120.667 26.0625 122.693 25.2708 122.963 25.0156C122.963 25.0156 122.922 25.0573 122.901 25.1354L123.776 25.4062C123.708 25.625 123.583 26.026 119.547 27.4115V31.1771H119.542Z" fill="black"/>
<path d="M57.2866 65.7451H54.9585V61.4535L49.1304 62.3545L47.1147 55.1357L48.0002 54.8857L49.7918 61.318L55.8804 60.3805V64.8232H57.2866V65.7451Z" fill="black"/>
<path d="M44.2762 66.5576L43.6616 65.8753L46.6772 63.1514L45.4585 61.8597L48.2293 58.4326L48.9481 59.0107L46.6772 61.8128L47.9845 63.2035L44.2762 66.5576Z" fill="black"/>
<path d="M78.5366 94.0729L71.3283 89.9062L60.2189 91.5104L57.5314 87.4948L53.2189 88.0625L53.0783 87.9844C51.8543 87.2604 50.4585 86.4635 50.2397 86.3854C49.9064 86.3021 45.4533 85.6719 42.3491 85.2448L37.9897 93.2812L37.5522 92.8073C37.5366 92.7865 35.5835 90.6771 33.9845 89.0833C32.8439 87.9635 32.3856 87.6042 32.2085 87.4896C31.7762 87.5469 30.7085 87.2031 27.3647 85.1406L27.8491 84.3594C29.4689 85.3594 31.4429 86.4479 31.9897 86.5677C32.3543 86.3646 32.8856 86.7083 34.6356 88.4323C35.7866 89.5781 37.1252 90.9948 37.797 91.7135L41.8491 84.25L42.1668 84.2917C44.0366 84.5469 50.1772 85.3958 50.5366 85.5156C50.8908 85.6354 52.6825 86.6771 53.4116 87.1146L57.9793 86.5104L60.6668 90.5156L71.5158 88.9531L78.5627 93.0208L83.2241 90.6094L83.6512 91.4271L78.5366 94.0729Z" fill="black"/>
<path d="M53.7604 87.6927L52.8594 87.5L54.2448 80.9219L53.526 75.8385L58.9115 71.3281L62.9792 72.0729L70.9427 74.1146L74.6667 70.625L80.4635 71.8073L80.276 72.7083L74.9531 71.6198L71.2031 75.1354L62.7812 72.9688L59.1667 72.3125L54.5052 76.2188L55.1823 80.9479L53.7604 87.6927Z" fill="black"/>
<path d="M72.5469 84.9215L71.6927 84.5778L74.375 77.9736L70.7812 74.9788L71.3646 74.2705L75.4792 77.6976L72.5469 84.9215Z" fill="black"/>
<path d="M73.2656 81.5264L73.875 80.8389L78.6198 85.0264L78.0104 85.7139L73.2656 81.5264Z" fill="black"/>
<path d="M62.5155 90.8434L61.6092 90.7236L62.1925 86.2184L58.5884 71.9372L59.4842 71.708L63.1248 86.1663L62.5155 90.8434Z" fill="black"/>
<path d="M34.7396 88.9219L33.875 88.599L35.2292 84.9427L42.0573 84.2969L42.1458 85.2083L35.8906 85.8073L34.7396 88.9219Z" fill="black"/>
<path d="M14.3594 102.61L11.6719 99.641L12.3542 99.0212L14.0052 100.849L18.2292 88.8701L18.6562 89.0212L19.1198 89.016V89.0941L19.0938 89.1774L14.3594 102.61Z" fill="black"/>
<path d="M37.9062 85.2191L36.9844 85.167L37.7292 72.7243L32.8125 68.4691L36.5677 55.8076L37.4479 56.0628L33.8646 68.167L38.6771 72.3285L37.9062 85.2191Z" fill="black"/>
<path d="M31.9116 72.7861L38.1512 72.0674L38.2606 72.9788L32.0158 73.6976L31.9116 72.7861Z" fill="black"/>
<path d="M27.7397 69.3955L33.2137 67.8799L33.4585 68.7653L27.9897 70.2809L27.7397 69.3955Z" fill="black"/>
<path d="M109.557 41.9639L109.339 41.068L112.562 40.2972L109 26.3024L109.896 26.0732L113.682 40.9691L109.557 41.9639Z" fill="black"/>
<path d="M121.682 57.6562L120.838 55.3385L112.51 51.2396L115.922 44.224L112.792 40.9531L113.453 40.3125L117.031 44.0469L113.734 50.8229L121.578 54.6771L122.547 57.3385L121.682 57.6562Z" fill="black"/>
<path d="M194.156 91.0312C191.141 89.2188 188.136 86.9271 185.219 84.2188C184.229 83.3073 183.255 82.3385 182.313 81.349C174.63 73.25 169.641 64.0313 169.448 57.6354C164.297 58.3802 156.511 60.0521 154.485 60.4896L156.198 65.8594L155.323 66.1406L153.302 59.8125L153.797 59.7031C153.896 59.6771 163.927 57.4583 169.839 56.651L170.365 56.5781L170.36 57.1146C170.281 63.2917 175.235 72.5521 182.979 80.7135C183.906 81.6927 184.875 82.6458 185.844 83.5521C188.714 86.2188 191.667 88.4688 194.625 90.25L194.156 91.0312Z" fill="black"/>
<path d="M155.323 66.1406L156.198 65.8594L158.64 73.5208L157.765 73.8021L155.323 66.1406Z" fill="black"/>
<path d="M200.667 82.9893C200.229 82.3591 198.708 80.755 193.927 76.6925C192.938 75.8539 191.818 74.9112 190.484 73.8175C186.984 70.9164 183.891 68.4685 183.865 68.4477L183.729 68.3383L180.141 49.4321L182.589 47.63C182.448 46.8956 182.026 44.8227 181.38 42.1091C181.146 41.156 180.891 40.1143 180.604 39.0154C180.401 38.2446 180.188 37.4425 179.964 36.6248C179.854 36.2602 179.75 35.8904 179.646 35.5154C177.401 27.7706 175.099 22.5154 172.818 19.9164C172.042 19.0258 171.182 18.2498 170.271 17.6039C167.417 15.5883 164.542 15.2393 162.646 15.2966C160.708 15.3591 159.292 15.8643 158.964 16.1196C158.875 16.1873 158.516 16.4946 157.016 17.9946C154.047 20.9529 148.781 26.3591 146.651 28.5466C144.313 30.9529 142.13 33.2133 141.224 34.1716C140.109 35.3487 137.74 36.8227 134.177 38.5571C133.354 38.9633 132.49 39.3696 131.526 39.8018C130.208 40.3904 129.172 40.8279 128.771 40.9946C128.688 41.2029 128.625 41.406 128.594 41.6039C128.229 43.6091 130.24 45.2602 131.474 46.0727C131.849 46.3175 132.167 46.4841 132.339 46.5779C132.714 46.4841 133.734 46.2081 135.203 45.6977C136.266 45.3227 137.271 44.9321 138.266 44.5154C142.901 42.5675 149.76 38.9529 156.146 32.7498L156.599 32.3071L156.88 32.8852C157.505 34.1925 158.156 36.8279 158.599 38.8175C158.922 40.281 159.135 41.4373 159.135 41.4477L159.167 41.6091L156.083 47.4633L155.901 47.5206C149.677 49.3904 146.385 51.1925 144.547 53.755C144.219 54.2081 143.938 54.6873 143.682 55.2289C143.26 56.1196 143.037 58.9633 146.203 67.9789C146.391 68.5154 146.573 69.0362 146.76 69.5362C147.037 70.2914 147.302 70.9946 147.552 71.63C148.25 73.4581 148.781 74.7185 148.823 74.8018L148.859 74.8904V74.9946H148.396L147.984 75.1821C147.958 75.1248 147.422 73.8539 146.693 71.9633C146.443 71.3227 146.172 70.6143 145.896 69.8539C145.708 69.3539 145.521 68.8279 145.333 68.2862C142.833 61.1768 141.995 56.6508 142.844 54.8331C143.125 54.2446 143.438 53.7133 143.797 53.2133C145.75 50.4998 149.125 48.6091 155.448 46.6925L158.198 41.4581C158.13 41.0987 157.948 40.1508 157.698 39.0154C157.198 36.7498 156.714 34.9737 156.297 33.88C149.953 39.9008 143.214 43.4477 138.625 45.3696C137.609 45.7966 136.589 46.1977 135.51 46.5727C133.589 47.2498 132.438 47.5154 132.391 47.5258L132.234 47.5623L132.089 47.4946C132.073 47.4841 131.604 47.2602 130.979 46.8539C129.552 45.9164 127.234 43.9789 127.698 41.4477C127.75 41.1352 127.859 40.8018 128.016 40.4633L128.089 40.2966L128.26 40.2237C128.276 40.2237 129.49 39.7289 131.156 38.9789C132.109 38.5518 132.969 38.1508 133.781 37.7498C137.198 36.0883 139.542 34.6404 140.557 33.5571C141.469 32.5987 143.656 30.3279 145.995 27.9216C148.125 25.7341 153.396 20.3279 156.37 17.3591C158.068 15.6612 158.318 15.4685 158.401 15.406C158.969 14.9685 160.646 14.4581 162.615 14.4008C164.667 14.3383 167.745 14.7133 170.802 16.8748C171.776 17.5623 172.682 18.3852 173.51 19.3279C175.88 22.031 178.245 27.4008 180.537 35.2862C180.635 35.6664 180.74 36.031 180.849 36.3956C181.073 37.2237 181.292 38.0258 181.495 38.8018C181.781 39.906 182.042 40.9529 182.276 41.9112C183.089 45.3227 183.547 47.7341 183.552 47.755L183.604 48.0414L181.156 49.8435L184.578 67.8487C185.208 68.3539 187.984 70.5623 191.083 73.1248C192.417 74.2289 193.547 75.1716 194.531 76.0154C198.432 79.3279 200.755 81.505 201.432 82.4946L200.667 82.9893Z" fill="black"/>
<path d="M156.786 33.3903L156.135 32.7445C156.172 32.708 159.713 29.1299 160.724 27.1143L161.547 27.5257C160.474 29.6663 156.937 33.2393 156.786 33.3903Z" fill="black"/>
<path d="M170.802 44.5465C166.489 44.5465 161.917 43.7861 158.463 41.9215L158.901 41.1143C165.781 44.8382 177.239 43.9893 181.604 41.6038L182.052 42.4111C179.703 43.6872 175.401 44.5465 170.802 44.5465Z" fill="black"/>
<path d="M171.911 40.9795C166.786 40.9795 161.015 40.2555 158.01 39.3389L158.276 38.4639C164.057 40.2243 177.864 40.9587 180.75 38.5472L181.344 39.2555C179.844 40.5003 176.088 40.9795 171.911 40.9795Z" fill="black"/>
<path d="M170.042 51.776C162.49 51.776 157.62 48.9844 155.49 47.4271L156.037 46.6875C158.927 48.8073 167.115 53.2865 180.511 49.1823L180.781 50.0625C176.74 51.3021 173.162 51.776 170.042 51.776Z" fill="black"/>
<path d="M145.688 68.6982L145.432 68.4274L145.766 68.1149H145.302L145.547 67.7503L145.531 67.7191C145.542 67.7139 145.557 67.7035 145.589 67.693L145.594 67.6826L145.61 67.6878C146.485 67.3962 153.474 65.9899 155.672 65.5524L155.766 65.542L155.771 66.0107L155.86 66.4535C153.844 66.8545 146.625 68.3232 145.979 68.5316L145.688 68.6982Z" fill="black"/>
<path d="M147.047 71.3177L157.031 69.75L157.177 70.6562L147.188 72.2292L147.047 71.3177Z" fill="black"/>
<path d="M182.432 80.5882L190.458 73.1143L191.088 73.7861L183.057 81.2601L182.432 80.5882Z" fill="black"/>
<path d="M185.312 83.4424L193.927 75.9893L194.526 76.6872L185.917 84.1403L185.312 83.4424Z" fill="black"/>
<path d="M202.771 74.2607L199.51 67.516H194.62L193.802 62.417L189.854 60.1618L182.979 61.8232L182.766 60.9274L189.99 59.1826L194.646 61.8389L195.401 66.5941H200.089L203.604 73.8597L202.771 74.2607Z" fill="black"/>
<path d="M115.74 78.4691L114.875 78.1566L117.578 70.568L117.854 70.5316C119.802 70.2712 121.979 69.9378 122.354 69.8076C122.75 69.4847 125.453 66.7243 127.172 64.9482L128.479 54.641L140.948 51.3545L144.38 53.0524L143.974 53.8753L140.849 52.3337L129.318 55.3701L128.052 65.3701L127.948 65.4795C126.526 66.943 123.198 70.3753 122.833 70.5941C122.49 70.8024 120.219 71.1462 118.26 71.4066L115.74 78.4691Z" fill="black"/>
<path d="M105.479 102.438L107.583 85.1878L89.8804 84.2555L89.9272 83.3389L108.615 84.3232L106.516 101.495C106.63 101.495 106.75 101.49 106.87 101.49C110.667 101.417 114.089 101.479 115.052 101.495L115.261 101.5L115.354 99.9014C115.391 99.2868 115.432 98.5524 115.479 97.7399C115.542 96.6982 115.604 95.5264 115.667 94.2868C115.823 91.141 116.011 86.7243 116.037 83.5628C116.042 82.9014 116.037 82.292 116.021 81.7607C115.99 80.5732 115.625 79.5107 114.938 78.5993C112.636 75.5316 106.964 74.4587 102.901 73.9222L103.021 73.0107C107.604 73.6149 113.182 74.7399 115.672 78.0472C116.474 79.1149 116.901 80.3597 116.943 81.7451C116.953 82.2868 116.958 82.9014 116.953 83.5732C116.938 86.7503 116.74 91.1774 116.583 94.3337C116.526 95.5732 116.458 96.7503 116.401 97.792C116.36 98.6045 116.313 99.3389 116.276 99.9587L116.125 102.438L115.031 102.417C114.078 102.396 110.672 102.339 106.901 102.412C106.599 102.417 106.302 102.422 106.016 102.427L105.479 102.438Z" fill="black"/>
<path d="M83.4009 120.032L82.6665 119.479C83.6248 118.203 84.5207 116.953 85.3332 115.75C86.1665 114.532 86.953 113.282 87.6873 112.042C92.729 103.5 94.7915 95.3962 94.7915 84.0732H95.7082C95.7082 95.5785 93.6144 103.818 88.4842 112.506C87.7394 113.766 86.9373 115.032 86.0936 116.261C85.2759 117.485 84.3696 118.75 83.4009 120.032Z" fill="black"/>
<path d="M74.1668 118.427L73.7658 118.219H73.3022V118.099L83.4481 99.0628C83.3856 98.3389 83.0991 94.8441 82.8647 91.0993C82.6043 86.8597 82.5106 83.8285 82.5679 82.0993L82.5731 82.042L83.495 82.0472C83.495 82.0837 83.495 82.1201 83.4897 82.1618C83.4272 83.8649 83.5314 86.8545 83.7866 91.0472C84.0418 95.2191 84.3752 99.0837 84.3752 99.1201L84.3856 99.2555L74.1668 118.427Z" fill="black"/>
<path d="M105.63 111.438L105.489 111.391C101.271 109.896 96.4998 108.286 95.9478 108.266L95.953 107.344C96.7863 107.344 103.896 109.849 105.667 110.479L120.917 106.24L123.818 101.516L133.229 99.2969L133.443 100.193L124.401 102.323L121.515 107.031L105.63 111.438Z" fill="black"/>
<path d="M122.161 105.401C122.115 105.39 117.526 104.531 116.161 104.302C114.714 104.062 114.5 102.625 114.589 101.896L115.505 102.005C115.49 102.13 115.391 103.244 116.312 103.396C117.693 103.619 122.286 104.484 122.333 104.494L122.161 105.401Z" fill="black"/>
<path d="M106.104 110.964L105.188 110.948C105.208 109.495 105.557 104.625 106.453 101.808L106.49 101.714L107.073 102.006L106.901 101.922L107.344 102.047L107.328 102.089C106.464 104.802 106.13 109.547 106.104 110.964Z" fill="black"/>
<path d="M85.396 82.7243C84.5314 82.7243 83.7137 82.6722 82.9741 82.5733C82.2866 82.4795 81.6616 82.3493 81.1043 82.1827L80.8647 82.1097L80.797 81.865C80.4064 80.4952 80.1512 78.7191 80.021 76.5733C79.9533 75.5629 79.9168 74.4327 79.9116 73.2191C79.9116 72.891 79.9116 72.5681 79.9168 72.2452C79.9377 70.0993 80.047 67.7295 80.2397 65.365C77.3075 66.6566 76.2658 66.74 74.87 66.8493C74.3647 66.891 73.797 66.9327 73.0731 67.042C70.0418 67.5108 62.5106 56.74 61.0314 54.5785L60.896 54.3806L60.9741 54.1618C61.0575 53.9275 61.172 53.6879 61.3127 53.4535C62.2762 51.7764 64.4741 50.1983 66.3179 49.8597C66.8075 49.7608 67.2814 49.7556 67.7085 49.8441L67.8439 49.8754L74.4793 56.4379C74.5522 56.3597 74.6304 56.2764 74.7085 56.1931C76.9325 53.8389 81.0731 49.4431 88.1356 48.4795C88.7189 48.4014 89.3075 48.3441 89.8856 48.3129C91.2189 48.2452 92.6304 48.4066 94.0835 48.792C94.9637 49.0264 95.8543 49.3441 96.7345 49.7243C98.1772 50.3493 99.672 51.1827 101.188 52.1983C105.432 55.0577 108.865 58.7608 110.255 60.5212C111.625 60.2972 115.255 60.3493 115.698 60.3545C117.031 60.3545 119.573 61.391 119.573 65.3337C119.573 65.6618 119.563 65.9639 119.537 66.2504L119.521 66.4483L119.36 66.5733C114.985 69.9639 110.245 69.9743 108.13 69.4431C105.833 68.8702 103.932 68.0837 101.37 65.891C101.386 66.2504 101.427 66.74 101.505 67.3441C101.589 68.0004 101.75 69.0056 102.031 70.0993C102.391 71.49 102.833 72.5472 103.318 73.167L103.5 73.4014L103.365 73.6618C100.021 80.167 91.4793 82.7243 85.396 82.7243ZM81.6095 81.3754C82.0575 81.4952 82.5575 81.5941 83.0939 81.6618C88.7345 82.417 98.6877 80.3285 102.417 73.4952C101.922 72.766 101.5 71.7035 101.146 70.3389C100.849 69.1983 100.682 68.1514 100.594 67.4743C100.531 66.9743 100.328 65.3025 100.531 64.7712L100.776 64.1358L101.271 64.5889C104.089 67.1462 105.932 67.9587 108.354 68.5629C110.849 69.1879 115.104 68.6358 118.641 65.9743C118.656 65.7764 118.662 65.5681 118.662 65.3441C118.662 61.3389 115.813 61.2816 115.693 61.2816C113.906 61.2556 110.844 61.2816 110.203 61.4795L109.896 61.5785L109.698 61.3233C108.474 59.7087 105.011 55.8962 100.667 52.9691C99.2033 51.9847 97.7554 51.1827 96.3647 50.5785C95.521 50.2087 94.672 49.9118 93.8387 49.6879C92.4793 49.3285 91.1616 49.1775 89.9272 49.24C89.37 49.2712 88.8075 49.3233 88.2554 49.3962C81.5106 50.3233 77.6668 54.3962 75.37 56.8337C75.172 57.042 74.9845 57.2452 74.8127 57.4222L74.4897 57.7556L67.3908 50.7295C67.1147 50.6931 66.8075 50.6983 66.4793 50.766C64.9012 51.0577 62.9377 52.4691 62.1043 53.9222C62.0314 54.0368 61.9741 54.1462 61.922 54.2608C65.2502 59.0889 71.0627 66.4379 72.9272 66.1306C73.6877 66.016 74.2762 65.9691 74.7918 65.9275C76.2241 65.8181 77.1825 65.74 80.3335 64.3129C80.6043 61.365 80.995 58.641 81.3752 56.99L82.271 57.1983C81.8856 58.8597 81.5002 61.6514 81.2241 64.6618C80.9897 67.266 80.8543 69.891 80.8387 72.2556C80.8335 72.5785 80.8335 72.8962 80.8335 73.2139C80.8387 74.4066 80.8752 75.516 80.9377 76.516C81.0522 78.4743 81.2762 80.0993 81.6095 81.3754Z" fill="black"/>
<path d="M100.604 65.2139C100.438 65.0003 96.474 59.9482 96.0938 57.0837L97.0052 56.9639C97.349 59.5785 101.281 64.5941 101.323 64.6462L100.604 65.2139Z" fill="black"/>
<path d="M81.1304 77.0205C80.9116 77.0205 80.6981 77.0153 80.4845 77.0101C80.4533 77.0101 80.4168 77.0101 80.3856 77.0101L80.3647 76.0934H80.422L80.4533 76.0882L80.4793 76.0934C88.4012 76.3174 98.4533 72.182 101.292 69.8643L101.875 70.5778C99.1356 72.8278 89.4637 77.0205 81.1304 77.0205Z" fill="black"/>
<path d="M80.3752 73.6823L80.3647 72.7604C83.0522 72.7344 98.2137 68.8281 100.787 67.0312L101.313 67.7865C98.6147 69.6771 83.2866 73.6563 80.3752 73.6823Z" fill="black"/>
<path d="M38.1717 55.9482C37.8957 55.9482 37.6509 55.4586 36.1873 52.5784C35.2394 50.7086 33.9842 48.2138 32.7238 45.719C30.2186 40.7294 27.7186 35.7399 27.7186 35.7399L27.604 35.5159L27.729 35.3076C28.729 33.568 30.8436 33.7086 31.8228 34.0211L32.0207 34.0836L41.328 54.2242L40.4946 54.6096L31.3592 34.844C30.8488 34.7242 29.4321 34.5107 28.6613 35.5576C32.5259 43.2867 38.2811 54.7242 38.578 55.2034L38.1978 55.4482L38.3592 55.9013C38.2863 55.9274 38.229 55.9482 38.1717 55.9482Z" fill="black"/>
<path d="M51.9062 51.6458L49.3438 42.4427L51.4792 38.651L51.1927 33.5937L51.4271 33.4531C53.0625 32.4635 54.7187 34.4531 54.7865 34.5364L54.9062 34.6875L54.8906 34.875C54.8594 35.1979 55.0885 37.8906 55.2656 39.6979L55.276 39.8541L52.9323 43.5989L54.9792 49.7916L54.1042 50.0781L51.9167 43.4739L54.3281 39.6302C54.2396 38.7239 53.974 35.9062 53.9635 35.0052C53.6771 34.6979 52.875 33.9375 52.1406 34.1354L52.4062 38.8698L50.3281 42.5677L52.7865 51.4062L51.9062 51.6458Z" fill="black"/>
<path d="M65.9373 50.3438C65.8853 49.5782 65.5675 47.7188 63.7186 47.0522C61.8175 46.3595 57.6665 47.5261 56.9738 48.6824L56.1821 48.2084C57.1717 46.5626 61.7915 45.3751 64.0311 46.1928C66.453 47.073 66.8071 49.5522 66.854 50.2917L65.9373 50.3438Z" fill="black"/>
<path d="M85.8022 46.1563C85.6564 46.1563 85.5105 46.1511 85.3803 46.1459L85.1095 46.1354L84.9897 45.8959C83.8855 43.7084 83.8334 41.1146 84.8439 38.7813C85.7189 36.7552 87.2814 35.1979 88.9168 34.7188C90.547 34.2448 93.047 34.1719 95.2084 35.3907C96.8282 36.3021 97.9793 37.7969 98.547 39.7136L100.734 40.4219L100.234 40.9479C99.5782 41.6459 98.7084 42.3073 97.6512 42.9219C97.3647 43.0886 97.0626 43.25 96.7553 43.4063C93.3855 45.1042 89.1772 46 86.4949 46.1354C86.2501 46.1511 86.0157 46.1563 85.8022 46.1563ZM85.6928 45.2344C85.922 45.2344 86.1824 45.2292 86.4584 45.2188C89.0366 45.0938 93.0939 44.2292 96.3439 42.5886C96.6355 42.4375 96.922 42.2813 97.1928 42.125C97.9064 41.7136 98.5209 41.2813 99.0262 40.8334L97.7866 40.4323L97.7241 40.1927C97.2397 38.3802 96.2397 37.0313 94.7553 36.1979C92.8387 35.1146 90.6095 35.1823 89.1668 35.599C87.8074 36 86.4376 37.3959 85.6772 39.1459C85.172 40.3282 84.5053 42.6719 85.6928 45.2344Z" fill="black"/>
<path d="M97.0103 50.1559H96.0884V48.8851L96.3748 48.7705C97.4113 48.3486 98.4373 46.7393 98.3019 45.7497C98.2394 45.2757 97.9425 44.807 97.6561 44.3538C97.2863 43.7705 96.9061 43.1663 96.9686 42.4736L97.88 42.557C97.8488 42.932 98.13 43.3799 98.4321 43.859C98.755 44.3695 99.1196 44.9476 99.2134 45.6247C99.3905 46.9268 98.3123 48.7653 97.0103 49.4736V50.1559Z" fill="black"/>
<path d="M87.9533 49.3333C87.1304 48.8177 86.1252 47.7656 86.021 45.7031L86.4793 45.6719L86.9429 45.6771C87.0262 47.3281 87.8022 48.1563 88.4429 48.5521L87.9533 49.3333Z" fill="black"/>
<path d="M94.1146 49.6774L93.8125 48.8128C96.2344 47.9535 96.151 46.3597 96.0677 44.6722C96.0313 44.0472 96.0052 43.4587 96.1042 42.917L96.5417 42.9951H97.0104L97.0052 43.0785C96.9271 43.5264 96.9531 44.0628 96.9792 44.6305C97.0677 46.3962 97.1823 48.5941 94.1146 49.6774Z" fill="black"/>
<path d="M148.443 12.588C148.078 12.588 147.724 12.5672 147.391 12.5255L146.677 12.437L147.896 10.4891C147.104 8.65573 147.031 6.77552 147.688 5.03594C148.568 2.71302 150.537 1.16094 152.083 0.483852C153.651 -0.19844 155.844 -0.00573047 157.818 0.983852C160.089 2.12969 161.714 4.15573 162.266 6.54114L162.328 6.80156L162.13 6.98385C161.99 7.11406 161.833 7.24948 161.656 7.38489C160.318 8.47344 158.318 9.65052 156.193 10.6089C154.255 11.4786 152.333 12.088 150.63 12.3797C149.854 12.5151 149.12 12.588 148.443 12.588ZM148.245 11.6661C148.922 11.6818 149.667 11.6193 150.474 11.4786C152.099 11.1974 153.948 10.6089 155.818 9.77552C157.844 8.86406 159.813 7.7026 161.083 6.66614C161.162 6.60885 161.229 6.54635 161.302 6.49427C160.568 3.7651 158.557 2.39531 157.401 1.81198C155.693 0.952603 153.75 0.765103 152.448 1.33281C151.073 1.93177 149.323 3.30677 148.542 5.36927C147.938 6.96302 148.037 8.63489 148.823 10.338L148.932 10.562L148.245 11.6661Z" fill="black"/>
<path d="M156.266 17.8226L155.87 16.734C155.297 16.9528 154.625 16.984 153.911 16.8226C152.807 16.5726 151.807 15.8851 151.297 15.0309C151.078 14.6715 150.974 14.2288 150.859 13.7549C150.719 13.182 150.573 12.5882 150.234 12.2549L150.88 11.5986C151.401 12.1143 151.589 12.8747 151.75 13.5413C151.849 13.9424 151.938 14.3174 152.083 14.5622C152.464 15.208 153.24 15.7288 154.109 15.9215C154.797 16.0778 155.422 15.9997 155.865 15.708L156.354 15.3799L157.13 17.5049L156.266 17.8226Z" fill="black"/>
<path d="M151.776 122.558L151.104 121.933L155.109 117.594L146.807 110.058L147.427 109.386L147.844 109.761L156.417 117.537L151.776 122.558Z" fill="black"/>
<path d="M206.208 115.698L199.859 110.646L190.125 115.526L189.713 114.703L199.974 109.557L206.234 114.541L217.713 106.067L218.265 106.807L206.208 115.698Z" fill="black"/>
<path d="M49.5835 118.339L42.9272 113.979L52.8856 110.615L53.7502 100.984L54.6616 101.068L53.745 111.297L45.0106 114.245L50.0887 117.568L49.5835 118.339Z" fill="black"/>
<path d="M31.6981 141.333L23.4793 135.667L21.9793 129.917L27.0522 122.255L21.9741 115.208L25.4012 102.969L25.8439 103.182L26.2554 103.302L22.9793 115.031L28.172 122.234L22.9741 130.083L24.2814 135.104L32.2241 140.578L31.6981 141.333Z" fill="black"/>
<path d="M70.854 129.932L67.4946 128.125L69.8748 119.161L70.7603 119.39L68.5675 127.661L71.2915 129.125L70.854 129.932Z" fill="black"/>
<path d="M180.359 35.7653L179.823 35.0205C179.823 35.0205 180.307 34.5778 180.594 32.9841C180.865 31.4528 178.224 21.7913 170.328 17.6299L170.755 16.8174C178.677 20.9893 181.927 30.7965 181.505 33.1455C181.151 35.109 180.49 35.6768 180.359 35.7653Z" fill="black"/>
<path d="M160.521 14.1195L160.328 14.1143C159.755 14.0934 156.865 13.9632 156.068 13.3747L155.578 13.0101L156.062 12.6403C156.385 12.3903 156.557 12.0518 156.531 11.6976C156.51 11.2705 156.229 10.8695 155.771 10.5882L156.25 9.80176C156.974 10.2445 157.411 10.9163 157.453 11.6455C157.474 12.0674 157.359 12.4736 157.13 12.8278C157.875 13.0153 159.188 13.1403 160.177 13.1872L161.396 12.0726C161.479 11.609 161.708 9.83301 160.932 7.15072L161.818 6.89551C162.797 10.3018 162.286 12.3486 162.26 12.432L162.224 12.5622L160.521 14.1195Z" fill="black"/>
<path d="M160.87 13.0885L161.625 12.5625L163.005 14.5677L162.25 15.0885L160.87 13.0885Z" fill="black"/>
<path d="M135.156 46.5316C133.214 45.6201 130.516 42.2712 130.885 39.3232L131.797 39.4378C131.49 41.8597 133.865 44.9118 135.547 45.7035L135.156 46.5316Z" fill="black"/>
<path d="M138.203 45.318C136.5 44.2503 133.719 41.3701 133.521 38.1774L134.443 38.1201C134.625 41.0785 137.386 43.7243 138.693 44.542L138.203 45.318Z" fill="black"/>
<path d="M122.281 49.0829C121.646 49.0829 121.005 48.8693 120.698 48.4058C120.495 48.0985 120.375 47.6245 120.698 46.937C119.885 46.9266 119.443 46.5412 119.286 46.1037C119.109 45.5933 119.286 44.8902 120.005 44.2912C119.734 44.1818 119.474 44.0152 119.276 43.7808C119.026 43.4787 118.917 43.0985 118.974 42.6818C119.021 42.3589 119.245 42.0777 119.651 41.8485C121.406 40.8329 126.833 40.4839 128.312 41.0881L127.963 41.9423C126.469 41.3277 120.271 42.0048 119.88 42.8277C119.859 42.9683 119.891 43.0881 119.979 43.1923C120.24 43.4995 120.932 43.6193 121.229 43.635L123.24 43.7079L121.396 44.5152C120.354 44.9683 120.073 45.5725 120.151 45.7912C120.213 45.9631 120.641 46.1454 121.526 45.8954L122.979 45.4839L122 46.6402C121.432 47.3068 121.349 47.7287 121.458 47.9006C121.635 48.161 122.323 48.2495 122.854 48.0829C124.088 47.6975 126.365 47.4787 127.656 47.786C128.641 48.0204 130.052 47.1193 130.87 46.1558L130.937 46.0673L131.672 46.6193L131.588 46.7287C130.578 47.9162 128.865 49.0204 127.437 48.6818C126.344 48.4162 124.224 48.6141 123.125 48.9631C122.87 49.0412 122.578 49.0829 122.281 49.0829Z" fill="black"/>
<path d="M121.86 46.75L121.443 45.9323C122.995 45.1459 125.703 45.2292 125.818 45.2344L125.781 46.1563C125.755 46.1511 123.193 46.073 121.86 46.75Z" fill="black"/>
<path d="M121.292 44.5472L121.13 43.641C122.797 43.3389 124.74 43.0889 125.37 43.0889V44.0107C124.86 44.0107 123.005 44.2399 121.292 44.5472Z" fill="black"/>
<path d="M119.828 65.8802C119.562 65.8802 119.297 65.8489 119.026 65.7916L119.219 64.8906C120.489 65.1666 121.64 64.5052 122.656 63.9218C123.198 63.6145 123.703 63.3229 124.193 63.1927C124.974 62.9843 125.573 63.1562 126.005 63.2812C126.422 63.401 126.458 63.3854 126.51 63.3281C126.568 63.2604 126.521 63.1458 126.505 63.0989C126.323 62.7239 125.443 62.1093 123.323 62.2239L123.203 61.3125C124.052 61.1354 126.562 60.2552 127.021 59.7708C126.739 59.4166 125.922 59.25 122.823 60.0156L122.776 60.0572L122.588 60.0625V59.5989L122.286 59.2552L122.37 59.177L122.479 59.151C125.984 58.2708 127.302 58.3437 127.896 59.4375C127.948 59.552 127.979 59.6614 127.979 59.7708C127.979 60.4375 126.797 61.052 125.63 61.5C126.802 61.8333 127.213 62.4479 127.328 62.6979C127.536 63.1354 127.479 63.6093 127.187 63.9322C126.734 64.4375 126.187 64.2812 125.745 64.1562C125.364 64.0416 124.963 63.927 124.427 64.0729C124.052 64.1666 123.594 64.4322 123.109 64.7083C122.193 65.25 121.094 65.8802 119.828 65.8802Z" fill="black"/>
<path d="M115.24 60.8906C115.047 59.5677 115.417 58.1458 116.188 57.276C116.599 56.8073 117.094 56.5729 117.573 56.5625C117.891 56.5729 118.167 56.7083 118.375 56.9531C118.683 57.3281 118.75 57.9323 118.745 58.4427C119.906 57.8333 120.995 57.3698 121.974 57.0573C123.938 56.4427 125.365 56.5313 125.776 57.2917C125.844 57.4219 125.906 57.6302 125.818 57.901C125.531 58.7292 123.604 59.6667 122.787 60.0312L122.412 59.1927C123.558 58.6771 124.646 58.0104 124.901 57.6823C124.683 57.5729 123.933 57.4115 122.255 57.9375C121.115 58.2917 119.834 58.875 118.433 59.6615L117.578 60.151L117.755 59.1823C117.844 58.6771 117.88 57.8073 117.662 57.5312C117.636 57.5 117.615 57.4896 117.558 57.4896C117.349 57.474 117.11 57.625 116.88 57.8854C116.391 58.4375 115.974 59.5417 116.151 60.7604L115.24 60.8906Z" fill="black"/>
<path d="M119.109 85.5732L118.875 85.4326C117.854 84.8024 116.614 84.0785 116.38 84.0107L116.271 83.9743L116.167 83.8857L116.479 83.5785V83.1045L116.588 83.1514L116.599 83.1201C116.974 83.2087 118.344 84.0316 119.12 84.5055L122.062 82.7816L125.896 84.1878L129.786 77.0107L133.515 76.5368L138.864 68.6826L146.359 69.2295L146.292 70.1462L139.328 69.6462L134.047 77.4066L130.375 77.8753L126.328 85.3389L122.161 83.8076L119.109 85.5732Z" fill="black"/>
<path d="M190.135 50.7712L189.719 49.9535L197.469 45.9951L197.13 40.5628L198.052 40.5107L198.422 46.542L190.135 50.7712Z" fill="black"/>
<path d="M193.479 48.3854L194.385 48.25L195.463 55.3229L194.552 55.4635L193.479 48.3854Z" fill="black"/>
<path d="M115.948 98.2135H106.516L106.505 97.2969H115.943L115.948 98.2135Z" fill="black"/>
<path d="M106.932 93.8389H116.125V94.766H106.932V93.8389Z" fill="black"/>
<path d="M76.7446 112.708L77.104 111.859L85.8957 115.594L85.5363 116.443L76.7446 112.708Z" fill="black"/>
<path d="M78.5571 109.365L78.8644 108.5L88.2446 111.844L87.9373 112.708L78.5571 109.365Z" fill="black"/>
</svg>
