<svg width="236" height="148" viewBox="0 0 236 148" fill="none" xmlns="http://www.w3.org/2000/svg">
<mask id="mask0_5546_11442" style="mask-type:luminance" maskUnits="userSpaceOnUse" x="0" y="0" width="236" height="148">
<path d="M0.40625 0.666992H235.667V147.334H0.40625V0.666992Z" fill="white"/>
</mask>
<g mask="url(#mask0_5546_11442)">
<path d="M230.068 127.677C231.182 126.688 232.635 122.964 233.568 119.985C234.911 115.693 235.557 111.943 235.292 109.958C235.156 108.948 234.786 108.323 234.182 108.094C233.714 107.917 233.151 108.005 232.49 108.37C233.661 104.052 232.995 97.5731 231.38 95.4428C230.812 94.6981 230.229 94.6043 229.844 94.6564C229.161 94.7501 228.516 95.3647 227.896 96.521C227.375 94.1043 226.151 91.3595 224.375 91.0314C223.188 90.8126 222.021 91.6408 220.88 93.4897C220.172 87.2397 216.188 79.8022 212.359 77.9949C210.969 77.3387 209.661 77.4481 208.589 78.3022C207.63 79.0678 207.094 79.9741 206.99 80.9949C206.75 83.3439 208.792 85.8022 210.771 88.172C211.062 88.5262 211.354 88.8751 211.625 89.2137C211.094 89.1356 210.573 89.2553 210.125 89.5731C208.849 90.4897 208.339 92.9533 209.865 96.4168C207.979 95.5314 206.182 95.9845 205.12 96.9845C204.021 98.0106 203.51 99.797 204.385 101.818L199.302 98.8803L206.057 72.3387C212.031 68.5678 216.01 61.8751 217.891 52.4428L225.141 54.2866L225.812 51.6199L212.219 48.1564L213.651 42.5158L210.984 41.8335L209.547 47.4793L195.953 44.0158L195.271 46.6876L201.719 48.3231C202.01 56.1772 199.734 62.2606 195.276 65.4793C191.724 68.047 187.047 68.5001 182.443 66.7345C179.443 65.5835 176.422 63.1408 173.219 60.5574C165.531 54.3543 156.828 47.3231 143.526 52.7189L143.875 53.5887C156.661 48.4012 165.146 55.2449 172.63 61.2814C175.891 63.9168 178.969 66.4012 182.104 67.6095C184.062 68.3595 186.042 68.7345 187.948 68.7345C190.818 68.7345 193.536 67.896 195.823 66.2397C200.49 62.8699 202.906 56.6043 202.661 48.5626L208.87 50.146L203.083 72.8803C199.01 74.7241 194.177 75.3595 188.693 74.7553C185.083 74.3543 180.453 72.5939 175.094 70.547C164.953 66.6876 153.464 62.3126 143.495 64.9949L143.74 65.9012C153.417 63.297 164.755 67.6199 174.766 71.4272C180.188 73.4897 184.87 75.2762 188.594 75.6876C189.974 75.8439 191.318 75.922 192.625 75.922C196.365 75.922 199.771 75.2814 202.797 74.0262L196.828 97.4585L194.016 95.8335H179.016L166.323 78.4064H138.365L141.484 83.5053H137.208C130.995 80.1251 125.969 76.1876 122.25 71.797C132.401 69.9116 133.047 66.5158 132.995 65.5001C132.885 63.3439 129.948 61.771 125.51 61.4793L125.448 62.4168C129.917 62.7085 131.99 64.2033 132.062 65.547C132.151 67.3231 128.938 69.672 121.568 70.9689C117.333 65.6512 114.932 59.6512 114.438 53.1199C130.443 51.6095 143.734 46.7501 144.167 42.2137C144.276 41.0731 143.615 39.4897 139.833 38.4116L139.573 39.3126C141 39.7241 143.375 40.6356 143.234 42.1251C142.943 45.1772 132.505 50.4741 114.38 52.1772C114.182 47.9897 114.75 43.6095 116.073 39.1251C123.797 38.5991 131.49 36.8647 131.516 34.1408C131.542 31.6772 125.26 30.5678 119.698 30.0783C120.859 27.7762 122.214 25.4481 123.75 23.1408C124.417 22.6095 124.818 22.0001 124.948 21.3178C125.583 18.0053 119.641 14.6512 114.547 12.4168C107.542 9.34389 97.9792 6.56264 87.6198 4.57826C68.474 0.901177 48.0208 0.541802 46.7708 6.26576C44.4115 11.7814 42.75 17.3439 41.8281 22.8022C41.0156 27.5991 40.7708 32.3856 41.0938 37.047C27.3177 33.6616 22.849 29.797 23.2917 27.297C23.7969 24.4012 30.8542 22.0158 41.3594 23.2033L41.4635 22.271C31.2656 21.1147 23.0573 23.2085 22.3646 27.1356C21.6823 30.9949 28.5312 34.9637 41.1562 38.0366C41.4115 41.0158 41.901 43.9741 42.6198 46.8595C37.0677 44.9533 34.0781 42.6564 33.9948 41.3126C33.9844 41.1564 33.9531 40.6824 34.9167 40.2293L34.526 39.3803C33.2448 39.9689 33.0208 40.7866 33.0573 41.3647C33.1875 43.4481 37.0417 46.0158 42.901 47.9376C45.75 58.5053 51.6667 68.2293 60.0573 76.146C52.5833 75.7553 46.5156 74.5939 42.4427 72.7658C38.9479 71.1981 36.9427 69.1512 36.8177 67.0001C36.6354 63.9428 40.2969 61.1095 45.5312 60.2606L45.3802 59.3335C39.5729 60.2762 35.6615 63.4481 35.875 67.0574C36.2812 73.7345 49.1458 76.6408 61.1198 77.1356C64.0885 79.8335 67.3229 82.2658 70.75 84.3699C75.8646 87.5106 82.724 89.6616 89.9844 91.9376C102.391 95.8283 115.198 99.8491 119.104 109.162L106.844 111.693L107.391 114.333L119.917 111.745C120.573 114.708 120.406 117.969 119.411 121.688L115.974 120.203L114.214 124.281L118.005 125.917C115.719 131.662 111.635 138.365 105.865 145.849H52.8646C52.9115 144.682 53.2865 142.833 53.9323 140.542C54.3542 140.625 54.7917 140.667 55.2552 140.667C60.349 140.667 68.0312 135.958 71.7552 132.089C73.0833 130.714 74.5625 128.755 74.0677 127.276C73.8906 126.755 73.5052 126.36 72.9219 126.089C74.9323 124.719 76.6458 122.193 76.1458 120.323C75.8854 119.344 74.9635 118.261 72.2083 118.193C74.4167 116.38 76.9479 113.125 76.1719 111.25C75.7292 110.188 74.3958 109.849 72.1979 110.235C73.7396 108.714 75.4635 106.641 76.8229 104.63C78.3802 102.339 80.0469 99.2866 79.1458 97.7762C78.5365 96.7553 77.0417 96.672 74.599 97.5522C74.8177 96.7814 74.7656 96.1043 74.4375 95.5835C74.0625 94.9845 73.3646 94.6824 72.4896 94.7345C69.9427 94.8803 65.6146 97.9533 61.276 105.948C61.2604 105.25 61.0885 104.755 60.7656 104.458C60.5833 104.292 60.1823 104.047 59.5417 104.261C57.5729 104.943 54.099 110.115 52.526 117.886C52.0729 117.203 51.4427 116.708 50.724 116.495C49.7135 116.198 48.0469 116.302 45.8594 118.49C44.2917 120.063 43.7083 123.49 44.3021 127.667C44.9063 131.917 46.9167 137.557 50.5938 139.87C49.4896 142.36 48.5938 144.61 48.2135 145.844H17.5885C17.8438 144.802 18.3438 143.026 19.0885 140.469H19.2135V140.214C20.8385 138.776 26.4792 137.969 31.4896 137.25C33.75 136.927 36.0833 136.594 38.0729 136.208C41.3021 135.578 42.0781 134.125 42.1615 133.011C42.2969 131.12 40.3854 128.875 37.651 127.573C40 126.417 42.2396 123.474 41.8333 121C41.7552 120.516 41.4583 119.589 40.3854 119.193C42.9323 117.953 47.7969 115.396 49.8542 113.021C50.9219 111.781 50.75 110.985 50.4115 110.531C49.6875 109.552 47.5938 109.474 45.3542 109.958C48.4531 107.469 52.5104 103.287 52.2708 100.953C52.1927 100.229 51.9271 99.7397 51.4688 99.5053C50.4427 98.9793 48.8177 99.896 46.5729 101.172C45.8594 101.573 45.0833 102.011 44.2656 102.438C45.2969 101 47.9896 98.2345 50.2448 95.9168C56.4844 89.5053 60.901 84.7762 60.8646 82.3699C60.8594 81.9428 60.7135 81.5887 60.4427 81.3283C58.3854 79.3283 53.0365 82.4116 44.5365 90.4793C44.8385 90.0053 45.1406 89.5158 45.4375 89.021C47.6563 85.2814 48.3542 82.922 47.5833 81.8074C47.375 81.5106 46.9635 81.1564 46.1823 81.2033C44.4635 81.2762 41.4896 83.2501 38.224 86.4793C35.0156 89.6512 31.8385 93.7293 29.1302 98.1095C29.1927 96.3283 28.7552 95.0418 27.8438 94.396C26.9167 93.7345 25.6094 93.8283 24.2552 94.646C22.4271 95.7501 20.7552 97.9585 19.6615 100.708C18.4271 103.823 17.9948 107.458 18.401 111.25C16.776 110.886 14.5313 111.182 12.4271 112.068C9.53646 113.287 7.36458 115.375 6.30729 117.943C2.70833 126.688 6.05208 129.891 9.59896 133.287C11.3281 134.948 13.1146 136.662 14.1615 139.136C13.3385 140.839 11.6823 144.328 11.1771 145.849H0.421875V146.787H105.13L104.854 147.141L106.146 146.787H234.88V145.849H232.292C232.531 142.271 231.646 135 230.068 127.677ZM142.688 112.333L142.885 112.36L140.917 122.615L144.432 124.985L139.526 128.917V132.198C138.354 132.229 134.802 132.193 132.521 132.162L132.167 132.156L128.073 145.844H109.104C124.911 140.167 139.74 123.865 142.688 112.333ZM213.833 120.693C217.115 124.026 224.88 126.922 227.073 127.693C228.115 134.521 228.521 141.537 228.125 145.854H213.828V120.693H213.833ZM206.391 70.9793L211.521 50.8178L216.969 52.2085C215.234 60.9481 211.682 67.2606 206.391 70.9793ZM130.562 34.1251C130.552 35.3595 126.021 37.4585 116.359 38.1564C117.109 35.7918 118.073 33.3856 119.234 30.9741C128.177 31.7345 130.573 33.3074 130.562 34.1251Z" fill="black"/>
</g>
<path d="M88.5103 108.657L99.7342 110.396L92.4998 103.292L88.5103 108.657Z" fill="black"/>
<path d="M91.3853 127.464C91.3853 128.724 92.4165 129.756 93.6821 129.756C94.9478 129.756 95.9738 128.724 95.9738 127.464C95.9738 126.193 94.9478 125.167 93.6821 125.167C92.4165 125.167 91.3853 126.198 91.3853 127.464Z" fill="black"/>
<path d="M97.896 121.229C97.896 121.984 98.5158 122.599 99.2658 122.599C100.021 122.599 100.63 121.984 100.63 121.229C100.63 120.469 100.016 119.859 99.2658 119.859C98.5106 119.854 97.896 120.469 97.896 121.229Z" fill="black"/>
<path d="M104.948 117.073C104.948 116.182 104.219 115.458 103.323 115.458C102.432 115.458 101.703 116.182 101.703 117.073C101.703 117.968 102.432 118.692 103.323 118.692C104.219 118.692 104.948 117.968 104.948 117.073Z" fill="black"/>
<path d="M231.568 109.604C238.912 103.26 232.12 125.625 229.672 127.401L229.537 127.427C227.583 118.495 224.542 109.297 221.01 105.927C224.167 111.385 226.292 119.541 227.5 127.338C226.078 126.849 215.896 123.219 213.37 119.39V111.969H221.01L205.719 103.13C201.974 98.3591 206.974 94.13 211.094 97.8071C207.318 91.2394 210.641 87.6768 213.375 90.7966C211.094 87.1248 204.563 82.1143 208.885 78.6612C213.208 75.2133 220.385 86.6768 220.526 95.13C224.448 87.0102 227.344 94.3539 227.677 98.1404C231.339 88.7914 234.234 103.479 231.568 109.604Z" fill="#4CAF50"/>
<path d="M227.495 127.338C226.287 119.541 224.156 111.385 221.005 105.927C224.537 109.297 227.578 118.494 229.531 127.427C231.261 135.333 232.151 143.026 231.781 146.317H228.552C229 142.25 228.688 134.963 227.495 127.338Z" fill="#FF9F43"/>
<path d="M217.521 51.8646L211.182 50.25L209.432 49.8021L202.167 47.9531H202.161L195.828 46.3438L196.281 44.5781L209.875 48.0417L211.635 48.4948L225.234 51.9531L224.792 53.7135L217.526 51.8646H217.521Z" fill="#FF9F43"/>
<path d="M221.005 111.968H179.261L152.13 96.2861H193.875L197.115 98.1663L198.75 99.1038L205.714 103.135L221.005 111.968Z" fill="#C41830"/>
<path d="M213.365 119.396V146.323H178.766V111.974H213.365V119.396ZM210.536 128.182V121.229H203.469V128.182H210.536Z" fill="#FF9F43"/>
<path d="M213.073 42.8486L211.635 48.4945L209.875 48.0413L211.318 42.3955L213.073 42.8486Z" fill="#FF9F43"/>
<path d="M211.182 50.2497L205.635 72.0466C204.927 72.4841 204.208 72.8695 203.469 73.2132L209.432 49.8018L211.182 50.2497Z" fill="#FF9F43"/>
<path d="M203.469 121.229H210.536V128.183H203.469V121.229Z" fill="#87AAD2"/>
<path d="M205.64 72.0469L198.75 99.1042L197.12 98.1615V98.1562L203.474 73.2083C204.208 72.8646 204.932 72.4844 205.64 72.0469Z" fill="#FF9F43"/>
<path d="M146.891 102.146V99.1403L152.135 96.2861L179.26 111.968H178.766V146.312H128.422L132.51 132.63C132.51 132.63 139.99 132.739 139.99 132.63C139.99 132.515 139.99 129.14 139.99 129.14L145.219 124.948L141.438 122.39L143.443 111.963L142.328 111.791L137.318 111.036L136.318 102.583L146.891 102.146ZM169.141 124.619V113.885H158.406V124.619H169.141Z" fill="#FF9F43"/>
<path d="M166.073 78.8643L178.765 96.2861H152.13L132.51 83.9684H142.307L139.187 78.8643H166.073Z" fill="#C41830"/>
<path d="M158.406 113.886H169.141V124.62H158.406V113.886Z" fill="#87AAD2"/>
<path d="M43.2811 47.5726C42.4426 44.4007 41.8697 41.0934 41.5936 37.6559C41.2186 32.9632 41.4113 28.0205 42.2811 22.8799C43.1718 17.5986 44.7707 12.0986 47.203 6.41113C46.2759 11.2653 62.8176 18.5153 84.1613 22.5986C102.875 26.1872 119.057 26.1507 123.38 22.8174C121.739 25.2809 120.239 27.8382 118.953 30.4684C117.646 33.1455 116.536 35.8903 115.698 38.6716C114.302 43.2913 113.63 48.0153 113.917 52.6872C114.318 59.1768 116.583 65.5778 121.359 71.4684C125.021 75.9893 130.161 80.2184 137.073 83.9684H132.51L152.135 96.2913L146.891 99.1455V102.151L136.318 102.599L137.318 111.052L142.328 111.807L142.302 111.974C139.318 124.297 122.516 141.843 106.083 146.323C112.37 138.187 116.385 131.396 118.599 125.672L124.344 128.151L125.734 124.932L119.724 122.338C120.963 117.989 121.062 114.323 120.271 111.198L125.458 110.125L125.104 108.406L119.745 109.515C113.943 94.0882 85.1301 92.6559 70.9947 83.9736C67.6405 81.9163 64.3749 79.4788 61.3072 76.682H61.302C53.1457 69.2653 46.4009 59.3799 43.2811 47.5726ZM141.489 92.3382C141.489 91.9216 141.151 91.583 140.739 91.583C140.323 91.583 139.989 91.9216 139.989 92.3382C139.989 92.7549 140.323 93.0882 140.739 93.0882C141.151 93.0882 141.489 92.7549 141.489 92.3382ZM139.62 98.1455C139.62 97.6195 139.198 97.1924 138.672 97.1924C138.146 97.1924 137.719 97.6195 137.719 98.1455C137.719 98.6715 138.146 99.1038 138.672 99.1038C139.198 99.1038 139.62 98.6715 139.62 98.1455ZM135.667 120.177C135.667 119.093 134.786 118.224 133.708 118.224C132.635 118.224 131.76 119.099 131.76 120.177C131.76 121.25 132.635 122.13 133.708 122.13C134.786 122.13 135.667 121.255 135.667 120.177ZM135.047 108.656L131.297 100.458L128.474 101.75L132.229 109.948L135.047 108.656ZM124.318 102.244L128.073 95.7445L124.099 93.4424L120.344 99.9528L124.318 102.244ZM121.911 87.1351C121.911 86.5518 121.437 86.0726 120.849 86.0726C120.26 86.0726 119.786 86.5518 119.786 87.1351C119.786 87.7236 120.26 88.1976 120.849 88.1976C121.443 88.1976 121.911 87.7236 121.911 87.1351ZM121.323 82.307C121.323 81.8851 120.979 81.5413 120.557 81.5413C120.135 81.5413 119.792 81.8851 119.792 82.307C119.792 82.7341 120.135 83.0726 120.557 83.0726C120.979 83.0726 121.323 82.7341 121.323 82.307ZM109.864 88.8851L118.859 79.9007L116.323 77.3643L107.338 86.3591L109.864 88.8851ZM113.588 93.2913C113.588 92.8486 113.224 92.4841 112.781 92.4841C112.338 92.4841 111.979 92.8486 111.979 93.2913C111.979 93.7288 112.338 94.0934 112.781 94.0934C113.224 94.0934 113.588 93.7288 113.588 93.2913ZM106.125 76.2913C106.125 75.6924 105.641 75.208 105.042 75.208C104.453 75.208 103.969 75.6924 103.969 76.2913C103.969 76.8851 104.453 77.3695 105.042 77.3695C105.641 77.3695 106.125 76.8851 106.125 76.2913ZM101.823 74.3851C101.823 73.932 101.448 73.5622 100.989 73.5622C100.531 73.5622 100.161 73.932 100.161 74.3851C100.161 74.8434 100.531 75.2132 100.989 75.2132C101.448 75.208 101.823 74.8434 101.823 74.3851ZM94.4061 81.5466C94.4061 80.4528 93.5207 79.5674 92.427 79.5674C91.3384 79.5674 90.453 80.458 90.453 81.5466C90.453 82.6403 91.3436 83.5257 92.427 83.5257C93.5207 83.5257 94.4061 82.6403 94.4061 81.5466ZM93.453 69.557V63.7445H90.453V69.557H93.453Z" fill="#87AAD2"/>
<path d="M141.49 92.3382C141.49 92.5413 141.417 92.7184 141.271 92.8695C141.125 93.0153 140.948 93.0882 140.74 93.0882C140.531 93.0882 140.354 93.0153 140.208 92.8695C140.063 92.7184 139.99 92.5413 139.99 92.3382C139.99 92.1299 140.063 91.9528 140.208 91.8018C140.354 91.6559 140.531 91.583 140.74 91.583C140.948 91.583 141.125 91.6559 141.271 91.8018C141.417 91.9528 141.49 92.1299 141.49 92.3382Z" fill="#FF9F43"/>
<path d="M138.672 97.1924C139.198 97.1924 139.62 97.6195 139.62 98.1455C139.62 98.6715 139.198 99.1038 138.672 99.1038C138.146 99.1038 137.719 98.6715 137.719 98.1455C137.719 97.6195 138.146 97.1924 138.672 97.1924Z" fill="#C41830"/>
<path d="M133.708 118.224C134.792 118.224 135.667 119.099 135.667 120.177C135.667 121.25 134.786 122.13 133.708 122.13C132.635 122.13 131.76 121.25 131.76 120.177C131.76 119.099 132.635 118.224 133.708 118.224Z" fill="#4CAF50"/>
<path d="M128.474 101.755L131.292 100.458L135.047 108.651L132.229 109.942L128.474 101.755Z" fill="#C41830"/>
<path d="M128.078 95.7445L124.318 102.244L120.344 99.9528L124.099 93.4424L128.078 95.7445Z" fill="#FF9F43"/>
<path d="M125.729 124.932L124.339 128.146L118.599 125.666L114.818 124.036L116.208 120.817L119.719 122.333V122.338L125.729 124.932Z" fill="#4CAF50"/>
<path d="M125.099 108.401L125.453 110.125L120.266 111.193L107.74 113.782L107.391 112.063L119.74 109.511L125.099 108.401Z" fill="#FF9F43"/>
<path d="M87.5208 5.03146C108.859 9.12 125.406 16.37 124.474 21.2242C124.099 21.7502 123.734 22.2867 123.38 22.8179C119.057 26.1565 102.87 26.1929 84.1562 22.5992C62.8125 18.5158 46.2708 11.2658 47.2031 6.41167C48.1354 1.56271 66.1875 0.942916 87.5208 5.03146Z" fill="#87AAD2"/>
<path d="M121.917 87.1357C121.917 87.4274 121.812 87.6774 121.604 87.8857C121.396 88.0941 121.146 88.1982 120.854 88.1982C120.562 88.1982 120.312 88.0941 120.104 87.8857C119.896 87.6774 119.792 87.4274 119.792 87.1357C119.792 86.8441 119.896 86.5941 120.104 86.3857C120.312 86.1774 120.562 86.0732 120.854 86.0732C121.146 86.0732 121.396 86.1774 121.604 86.3857C121.812 86.5941 121.917 86.8441 121.917 87.1357Z" fill="#FF9F43"/>
<path d="M121.323 82.3076C121.323 82.5212 121.25 82.7035 121.099 82.8493C120.953 83.0003 120.771 83.0732 120.557 83.0732C120.349 83.0732 120.167 83.0003 120.015 82.8493C119.87 82.7035 119.792 82.5212 119.792 82.3076C119.792 82.0993 119.87 81.917 120.015 81.766C120.167 81.6201 120.349 81.542 120.557 81.542C120.771 81.542 120.953 81.6201 121.099 81.766C121.25 81.917 121.323 82.0993 121.323 82.3076Z" fill="#FF9F43"/>
<path d="M118.865 79.8955L109.865 88.8851L107.344 86.359L116.328 77.3643L118.865 79.8955Z" fill="#C41830"/>
<path d="M113.588 93.2917C113.588 93.5104 113.505 93.7031 113.349 93.8594C113.193 94.0156 113.005 94.0938 112.781 94.0938C112.562 94.0938 112.37 94.0156 112.213 93.8594C112.057 93.7031 111.979 93.5104 111.979 93.2917C111.979 93.0677 112.057 92.8802 112.213 92.724C112.37 92.5625 112.562 92.4844 112.781 92.4844C113.005 92.4844 113.193 92.5625 113.349 92.724C113.505 92.8802 113.588 93.0677 113.588 93.2917Z" fill="#FF9F43"/>
<path d="M105.047 75.208C105.646 75.208 106.13 75.6924 106.13 76.2913C106.13 76.8851 105.646 77.3695 105.047 77.3695C104.458 77.3695 103.974 76.8851 103.974 76.2913C103.974 75.6924 104.458 75.208 105.047 75.208Z" fill="#C41830"/>
<path d="M103.318 115.922C103.958 115.922 104.474 116.432 104.474 117.073C104.474 117.714 103.958 118.229 103.318 118.229C102.682 118.229 102.162 117.714 102.162 117.073C102.162 116.432 102.688 115.922 103.318 115.922Z" fill="#FF9F43"/>
<path d="M100.99 73.5625C101.448 73.5625 101.823 73.9323 101.823 74.3854C101.823 74.8438 101.448 75.2135 100.99 75.2135C100.531 75.2135 100.162 74.8438 100.162 74.3854C100.162 73.9323 100.531 73.5625 100.99 73.5625Z" fill="#FF9F43"/>
<path d="M99.2658 120.323C99.7658 120.323 100.167 120.729 100.167 121.229C100.167 121.729 99.7658 122.136 99.2658 122.136C98.7658 122.136 98.3647 121.729 98.3647 121.229C98.3647 120.729 98.7658 120.323 99.2658 120.323Z" fill="#FF9F43"/>
<path d="M98.3647 109.713L89.3491 108.312C89.3491 108.312 92.2554 104.411 92.5575 104.005L98.3647 109.713Z" fill="#C41830"/>
<path d="M93.6821 125.636C94.6925 125.636 95.505 126.459 95.505 127.464C95.505 128.469 94.6873 129.287 93.6821 129.287C92.6665 129.287 91.854 128.469 91.854 127.464C91.854 126.459 92.6717 125.636 93.6821 125.636Z" fill="#C41830"/>
<path d="M92.4271 79.5674C93.5208 79.5674 94.4062 80.458 94.4062 81.5465C94.4062 82.6403 93.5208 83.5257 92.4271 83.5257C91.3385 83.5257 90.4531 82.6403 90.4531 81.5465C90.4531 80.4528 91.3385 79.5674 92.4271 79.5674Z" fill="#4CAF50"/>
<path d="M90.4531 63.7451H93.4583V69.5576H90.4531V63.7451Z" fill="#FF9F43"/>
<path d="M53.9583 133.886C52.9374 135.875 51.9947 137.881 51.1822 139.698C45.1718 136.391 42.5885 122.433 46.1874 118.828C49.7916 115.224 52.1926 117.224 52.6978 119.526C54.7968 106.511 62.6718 99.7972 60.3905 108.714C68.2239 92.3909 76.4322 93.4899 73.7239 98.3961C84.9374 93.693 75.2291 107.313 70.5208 111.115C80.3333 108.313 74.2239 116.724 70.6197 118.735C79.026 117.927 75.427 124.542 71.7239 126.24C79.7968 127.537 60.8905 142.12 53.5989 139.99C54.4374 137.11 55.6353 133.714 56.9739 130.412V130.407C57.8072 128.375 58.677 126.375 59.5624 124.547C58.9635 125.328 58.3593 126.214 57.7447 127.177C56.4583 129.188 55.1614 131.532 53.9583 133.886Z" fill="#4CAF50"/>
<path d="M53.5991 139.984C52.797 142.74 52.3387 145.021 52.396 146.318H48.5679C48.8543 145.224 49.8283 142.719 51.1877 139.698C52.0002 137.885 52.9429 135.88 53.9637 133.885C55.1616 131.531 56.4637 129.188 57.745 127.172C58.3595 126.208 58.9637 125.323 59.5627 124.547C58.6772 126.37 57.8075 128.365 56.9741 130.401V130.406C55.6408 133.714 54.4377 137.104 53.5991 139.984Z" fill="#FF9F43"/>
<path d="M41.4168 94.1823C46.1981 89.375 57.2085 78.849 60.1147 81.6615C63.0158 84.474 42.4845 101.604 43.3856 103.401C47.9949 101.198 51.5001 98.0938 51.797 101C52.0991 103.906 44.5887 110.411 42.3856 111.417C46.8908 109.411 52.0991 109.714 49.4949 112.714C46.8908 115.714 39.4793 119.125 38.5783 119.521C43.8908 118.823 40.896 126.635 36.3335 127.536C41.1876 129.24 44.6876 134.443 37.9793 135.75C31.271 137.052 20.9533 137.698 18.7397 140.005C19.9272 135.958 21.5158 130.75 22.9533 126.208C23.4949 124.49 24.021 122.859 24.4897 121.427C23.3178 122.729 20.9064 126.974 18.4689 131.615C17.146 134.146 15.8126 136.786 14.672 139.141C11.521 131.328 1.45847 130.948 6.73451 118.125C9.00014 112.615 16.047 110.719 18.9533 111.922C16.7501 95.599 30.8699 88.4896 28.3647 100.307C35.7762 87.3855 45.5887 79.7761 47.1928 82.0782C48.771 84.3438 41.6147 93.9115 41.4168 94.1823Z" fill="#4CAF50"/>
<path d="M18.4689 131.609C20.9064 126.969 23.3231 122.729 24.4897 121.422C24.0158 122.854 23.4897 124.484 22.9533 126.203C21.5158 130.745 19.9272 135.953 18.7397 140V140.005C17.8752 142.958 17.2189 145.292 16.995 146.312H11.521C11.745 145.401 13.0002 142.583 14.672 139.135C15.8127 136.786 17.146 134.141 18.4689 131.609Z" fill="#FF9F43"/>
<path d="M109.458 25.7968C102.427 25.7968 93.5679 24.8853 84.0679 23.0624C64.8543 19.3749 45.6356 12.1093 46.7397 6.3228C47.8543 0.525923 68.396 0.885299 87.6147 4.56759C97.9637 6.55197 107.531 9.33842 114.542 12.4113C119.636 14.6405 125.573 17.9947 124.938 21.3072C124.807 22.0155 124.38 22.6405 123.667 23.1874C121.412 24.9322 116.307 25.7968 109.458 25.7968ZM62.3179 2.78634C53.521 2.78634 48.1043 4.21342 47.6616 6.50509C46.8908 10.5207 61.4116 17.7707 84.245 22.1457C102.458 25.6353 118.802 25.7655 123.094 22.4478C123.615 22.052 123.922 21.6093 124.011 21.1405C124.406 19.0884 120.724 16.1509 114.162 13.2759C107.208 10.2291 97.7189 7.46863 87.4325 5.49988C77.5887 3.60405 68.9845 2.78634 62.3179 2.78634Z" fill="black"/>
<path d="M136.849 84.3747C130.187 80.7653 124.849 76.5205 120.989 71.7601C116.422 66.1143 113.875 59.7028 113.443 52.708C113.167 48.1716 113.776 43.4007 115.245 38.5309C116.062 35.8226 117.167 33.0361 118.531 30.2653C119.781 27.7132 121.281 25.1195 122.995 22.557C123.349 22.0205 123.719 21.484 124.094 20.958L124.859 21.4945C124.489 22.0153 124.125 22.5465 123.771 23.0778C122.083 25.609 120.604 28.1611 119.37 30.6768C118.036 33.4059 116.948 36.1403 116.14 38.807C114.698 43.5674 114.109 48.2236 114.38 52.6507C114.802 59.4476 117.271 65.682 121.719 71.1716C125.5 75.8278 130.739 79.9945 137.297 83.5518L136.849 84.3747Z" fill="black"/>
<path d="M120.167 122.464L119.266 122.203C120.448 118.078 120.625 114.516 119.812 111.307L120.724 111.078C121.562 114.406 121.375 118.234 120.167 122.464Z" fill="black"/>
<path d="M104.854 147.141L105.713 146.031C111.698 138.292 115.885 131.38 118.161 125.5L119.036 125.839C116.844 131.51 112.906 138.115 107.328 145.464C123.51 140.37 139.021 123.526 141.849 111.859L142.76 112.078C139.792 124.323 123.177 142.146 106.208 146.771L104.854 147.141Z" fill="black"/>
<path d="M60.979 77.0257C52.0259 68.8903 45.7498 58.7445 42.828 47.6976C41.9686 44.4372 41.3957 41.0726 41.1248 37.6976C40.7342 32.8278 40.9686 27.8226 41.8175 22.8018C42.7394 17.3278 44.4061 11.7549 46.7707 6.22363L47.6352 6.59863C45.3019 12.057 43.6561 17.557 42.7446 22.958C41.9165 27.9007 41.6821 32.833 42.0675 37.6195C42.328 40.9424 42.8905 44.2497 43.7394 47.4528C46.6144 58.3278 52.7967 68.3122 61.6144 76.3226L60.979 77.0257Z" fill="black"/>
<path d="M119.302 109.672C115.661 99.9893 102.604 95.8955 89.9792 91.9372C82.724 89.6611 75.8646 87.5101 70.7448 84.3695C67.2708 82.2393 63.9948 79.7653 60.9844 77.0257L61.6198 76.333C64.5781 79.0361 67.8177 81.4736 71.2396 83.5674C76.2552 86.6507 83.0573 88.7861 90.2604 91.0413C103.104 95.0726 116.385 99.2341 120.188 109.343L119.302 109.672Z" fill="black"/>
<path d="M63.4638 41.8701C54.9846 40.844 47.5888 39.5836 41.4846 38.1148C28.6461 35.0263 21.6773 31.0263 22.3648 27.1357C23.0575 23.2086 31.2659 21.1148 41.4638 22.2711L41.3596 23.2034C30.8544 22.0159 23.8023 24.4013 23.2919 27.2971C22.844 29.8388 27.4429 33.7763 41.7034 37.1982C47.7763 38.6617 55.1357 39.9221 63.5732 40.9326L63.4638 41.8701Z" fill="black"/>
<path d="M109.938 39.3229C104.839 39.3229 99.4429 38.9219 94.0679 38.1354L94.2033 37.2083C103.547 38.5781 111.037 38.5052 115.667 38.2083C125.813 37.5625 130.552 35.3906 130.563 34.1302C130.573 33.3021 128.125 31.6979 118.917 30.9479L118.995 30.0156C124.714 30.4792 131.526 31.5729 131.5 34.1406C131.479 36.901 123.563 38.6458 115.729 39.1458C113.849 39.2604 111.917 39.3229 109.938 39.3229Z" fill="black"/>
<path d="M103.422 53.6198C99.5625 53.6198 95.6823 53.4375 91.8125 53.0677L91.901 52.1302C99.2604 52.8333 106.656 52.8698 113.875 52.2188C132.307 50.5677 142.922 45.1979 143.214 42.1198C143.354 40.625 140.984 39.7187 139.557 39.3073L139.812 38.4062C143.589 39.4896 144.26 41.0729 144.151 42.2083C143.714 46.7865 130.167 51.7031 113.958 53.1562C110.474 53.4635 106.958 53.6198 103.422 53.6198Z" fill="black"/>
<path d="M57.3696 50.4632C51.2342 50.2601 46.2446 49.0205 43.1353 48.0205C37.1405 46.0882 33.1873 43.4736 33.0519 41.3643C33.0155 40.7861 33.2394 39.9684 34.5207 39.3799L34.9165 40.2288C33.953 40.6768 33.979 41.1507 33.9894 41.3122C34.0728 42.7184 37.3436 45.1715 43.4217 47.1299C46.4738 48.1143 51.3748 49.3278 57.4009 49.5257L57.3696 50.4632Z" fill="black"/>
<path d="M66.0885 77.2341C64.427 77.2341 62.8229 77.2028 61.2812 77.1403C49.2656 76.6663 36.276 73.7653 35.875 67.057C35.6562 63.4476 39.5625 60.2757 45.3802 59.333L45.526 60.2601C40.2916 61.1038 36.625 63.9424 36.8125 66.9997C36.9427 69.1507 38.9427 71.1976 42.4375 72.7653C46.7395 74.6976 53.2656 75.8851 61.3125 76.208C66.0468 76.3955 71.3854 76.2913 77.1822 75.8955L77.25 76.833C73.302 77.1038 69.5677 77.2341 66.0885 77.2341Z" fill="black"/>
<path d="M111.328 72.8594L111.297 71.9219C115.005 71.8125 118.359 71.5052 121.276 71.0052C128.844 69.724 132.135 67.3281 132.042 65.5312C131.974 64.1823 129.906 62.6927 125.432 62.401L125.49 61.4688C129.927 61.7604 132.87 63.3385 132.979 65.4844C133.026 66.526 132.354 70.0729 121.432 71.9323C118.479 72.4375 115.073 72.7552 111.328 72.8594Z" fill="black"/>
<path d="M222.75 112.443H213.364V111.5H219.255L193.75 96.7555H153.885L179.495 111.563L179.026 112.375L150.385 95.8232H193.995L222.75 112.443Z" fill="black"/>
<path d="M213.833 146.318H212.901V112.443H179.234V146.318H178.292V111.5H213.833V146.318Z" fill="black"/>
<mask id="mask1_5546_11442" style="mask-type:luminance" maskUnits="userSpaceOnUse" x="0" y="144" width="236" height="4">
<path d="M0.40625 144.667H235.667V147.334H0.40625V144.667Z" fill="white"/>
</mask>
<g mask="url(#mask1_5546_11442)">
<path d="M0.421875 145.85H234.88V146.787H0.421875V145.85Z" fill="black"/>
</g>
<path d="M128.865 146.453L127.969 146.187L132.161 132.166L132.516 132.172C134.802 132.203 138.349 132.234 139.521 132.208V128.927L144.427 124.994L140.911 122.625L142.88 112.369L136.891 111.468L135.792 102.156L146.417 101.708V98.8747L151.203 96.2757L130.875 83.5101H141.464L138.344 78.4111H166.297L179.135 96.0309L178.38 96.583L165.823 79.3486H140.016L143.135 84.4528H134.13L153.057 96.333L147.354 99.4372V102.609L136.839 103.052L137.734 110.651L143.984 111.593L141.953 122.198L146.005 124.937L140.458 129.39V132.849L140.318 132.989C140.141 133.161 140.073 133.229 132.854 133.125L128.865 146.453Z" fill="black"/>
<path d="M169.609 125.088H157.938V113.411H169.609V125.088ZM158.875 124.156H168.677V114.354H158.875V124.156Z" fill="black"/>
<path d="M145.839 139.631L141.958 135.448L142.646 134.813L145.49 137.881L147.422 132.729L153.026 136.011L152.552 136.823L147.906 134.099L145.839 139.631Z" fill="black"/>
<path d="M139.646 132.953L140.333 132.312L142.646 134.802L141.953 135.443L139.646 132.953Z" fill="black"/>
<path d="M151.667 108.922V105.532L146.651 102.552L147.13 101.745L152.604 104.995V107.834L160.948 106.578L161.088 107.506L151.667 108.922Z" fill="black"/>
<path d="M152.323 105.688L151.943 104.828L154.089 103.881L153.151 101.302L154.037 100.979L155.266 104.386L152.323 105.688Z" fill="black"/>
<path d="M149.406 134.131L153.391 132.214L153.797 133.058L149.812 134.974L149.406 134.131Z" fill="black"/>
<path d="M142.771 140.312H141.833V135.13L142.771 135.125V140.312Z" fill="black"/>
<path d="M211 128.651H202.995V120.755H211V128.651ZM203.932 127.713H210.062V121.698H203.932V127.713Z" fill="black"/>
<path d="M227.521 127.849C227.521 127.849 227.458 127.828 227.338 127.782C225.401 127.115 215.557 123.563 212.979 119.651L213.76 119.136C216.224 122.87 226.489 126.5 227.651 126.901C227.76 126.943 227.812 126.953 227.818 126.959L227.521 127.849Z" fill="black"/>
<path d="M229.943 127.781L229.396 127.021C230.948 125.891 234.911 114.198 234.359 110.083C234.276 109.458 234.094 109.063 233.849 108.969C233.677 108.901 233.135 108.865 231.87 109.953L230.312 111.302L231.135 109.417C232.771 105.667 232.219 98.1042 230.625 96C230.39 95.698 230.177 95.5521 229.969 95.5782C229.771 95.6042 229.057 95.8855 228.104 98.3073L227.375 100.162L227.203 98.1771C226.989 95.7657 225.745 92.2292 224.198 91.948C223.234 91.7761 222.078 92.974 220.937 95.3334L220.078 97.1094L220.047 95.1355C219.943 88.9011 215.859 80.6719 211.953 78.8386C210.89 78.3386 209.958 78.4011 209.167 79.0313C208.401 79.6407 207.995 80.3125 207.911 81.0834C207.719 83.0417 209.719 85.448 211.484 87.5678C212.359 88.6146 213.187 89.6094 213.765 90.5469L213.01 91.099C212.198 90.1719 211.297 89.875 210.661 90.323C209.745 90.9792 209.161 93.5261 211.489 97.5678L212.943 100.089L210.771 98.1459C208.818 96.4011 206.797 96.6667 205.745 97.6563C204.75 98.5834 204.245 100.5 206.078 102.828L205.338 103.406C203.255 100.755 203.724 98.2657 205.104 96.9688C206.167 95.974 207.963 95.5157 209.849 96.4063C208.328 92.9375 208.833 90.474 210.114 89.5573C210.557 89.2396 211.078 89.1198 211.609 89.198C211.338 88.8594 211.052 88.5105 210.755 88.1615C208.776 85.7865 206.734 83.3282 206.974 80.9792C207.078 79.9584 207.62 79.0521 208.578 78.2865C209.651 77.4323 210.953 77.323 212.344 77.9844C216.167 79.7865 220.151 87.224 220.87 93.4792C222.005 91.625 223.172 90.8021 224.359 91.0157C226.13 91.3386 227.359 94.0834 227.88 96.5105C228.5 95.3542 229.146 94.7396 229.833 94.6407C230.224 94.5886 230.802 94.6823 231.364 95.4271C232.974 97.5573 233.646 104.042 232.479 108.354C233.14 107.99 233.698 107.901 234.167 108.083C234.771 108.313 235.146 108.938 235.276 109.948C235.542 111.927 234.896 115.672 233.552 119.974C232.604 123.068 231.078 126.958 229.943 127.781Z" fill="black"/>
<path d="M232.25 146.369L231.323 146.265C231.688 142.948 230.766 135.244 229.078 127.526C227.635 120.906 225.901 115.406 224.078 111.505C225.693 115.875 227.031 121.271 227.969 127.265C229.089 134.474 229.505 141.968 229.031 146.364L228.099 146.265C228.568 141.942 228.151 134.541 227.042 127.411C225.651 118.479 223.365 110.932 220.604 106.161L218.969 103.333L221.333 105.588C225.786 109.828 228.875 122.198 229.995 127.328C231.703 135.135 232.63 142.963 232.25 146.369Z" fill="black"/>
<path d="M198.276 98.9841L210.734 50.1299L211.646 50.3643L199.187 99.2132L198.276 98.9841Z" fill="black"/>
<path d="M212.089 48.6094L211.177 48.375L212.5 43.1875L211.651 42.9688L210.333 48.1615L209.422 47.9271L210.979 41.8281L213.641 42.5104L212.089 48.6094Z" fill="black"/>
<path d="M196.651 98.0368L208.984 49.6826L209.89 49.917L197.562 98.2712L196.651 98.0368Z" fill="black"/>
<path d="M225.13 54.2816L195.26 46.6826L195.943 44.0107L225.807 51.6149L225.13 54.2816ZM217.578 51.3962L217.64 51.4118L224.448 53.1462L224.661 52.2972L196.614 45.1566L196.396 46.0055L217.578 51.3962Z" fill="black"/>
<path d="M19.078 140.328L18.4009 139.677C20.078 137.938 25.5519 137.156 31.354 136.323C33.5988 136.005 35.9217 135.672 37.8905 135.292C39.3488 135.005 41.1144 134.37 41.2186 132.948C41.3436 131.261 39.0311 128.984 36.1717 127.984L34.5467 127.417L36.2342 127.083C39.1405 126.511 41.1978 122.984 40.8957 121.162C40.7394 120.208 39.979 119.818 38.63 119.99L35.38 120.417L38.3748 119.099C40.6092 118.115 46.8905 114.995 49.1248 112.412C49.3644 112.136 49.8957 111.448 49.6353 111.094C49.0988 110.37 45.8905 110.365 42.5623 111.849L42.1769 110.995C44.479 109.948 51.578 103.573 51.3175 101.057C51.2863 100.787 51.2134 100.448 51.0155 100.349C50.4425 100.057 48.6978 101.037 47.0103 101.99C45.9842 102.573 44.8123 103.234 43.5675 103.833L43.1561 104.031L42.9478 103.62C42.4738 102.667 44.1717 100.797 49.5519 95.2709C53.9321 90.7657 59.9373 84.5991 59.9061 82.3959C59.9009 82.1616 59.828 82.0678 59.7655 82.0105C59.0988 81.3647 55.828 80.3543 41.729 94.5209L41.0571 93.8647L41.0623 93.8595C51.578 83.2918 58.0936 79.0782 60.4165 81.3334C60.6925 81.5991 60.8332 81.948 60.8384 82.3751C60.88 84.7814 56.4634 89.5053 50.2238 95.922C47.9686 98.2397 45.2759 101.005 44.2394 102.443C45.0571 102.016 45.8384 101.573 46.5467 101.172C48.7915 99.9012 50.4165 98.9793 51.4425 99.5105C51.9009 99.7449 52.1717 100.234 52.2446 100.958C52.4842 103.292 48.4321 107.474 45.328 109.964C47.5728 109.479 49.6613 109.563 50.3853 110.531C50.7238 110.99 50.9009 111.792 49.8332 113.026C47.7759 115.401 42.9113 117.958 40.3644 119.198C41.4373 119.594 41.729 120.516 41.8123 121.005C42.2134 123.479 39.979 126.422 37.6248 127.573C40.3592 128.88 42.2759 131.125 42.1353 133.016C42.0571 134.125 41.2811 135.583 38.0467 136.208C36.0675 136.594 33.7238 136.932 31.4634 137.255C26.354 137.984 20.5311 138.818 19.078 140.328Z" fill="black"/>
<path d="M14.2342 139.317C13.1978 136.744 11.3644 134.989 9.58838 133.286C6.04671 129.895 2.69776 126.687 6.29671 117.942C7.35921 115.374 9.52588 113.286 12.4165 112.067C14.5259 111.182 16.7707 110.885 18.3957 111.249C17.9842 107.458 18.4165 103.822 19.6509 100.708C20.7446 97.9578 22.4165 95.7495 24.2446 94.6453C25.604 93.8276 26.9061 93.7339 27.8332 94.3953C28.7446 95.0412 29.1821 96.3276 29.1196 98.1089C31.828 93.7287 35.0103 89.6505 38.2186 86.4787C41.479 83.2495 44.453 81.2755 46.1717 81.2026C46.9582 81.161 47.3644 81.5099 47.5728 81.8068C48.3488 82.9214 47.6457 85.2807 45.4269 89.0203C43.9009 91.5932 42.1353 93.9943 41.7967 94.4474L41.0311 93.9057C44.5884 89.1245 47.703 83.6297 46.8071 82.3432C46.7707 82.286 46.6509 82.1141 46.2186 82.1349C43.3332 82.2599 35.104 89.4943 28.7707 100.536L27.2863 103.124L27.9061 100.208C28.4478 97.661 28.2238 95.8224 27.2967 95.1662C26.6925 94.7339 25.7603 94.838 24.7394 95.4578C21.9373 97.1453 18.2134 102.906 19.4217 111.854L19.5311 112.661L18.7811 112.354C17.3957 111.776 14.9894 112.015 12.7915 112.937C11.2498 113.588 8.4738 115.145 7.17171 118.307C3.81755 126.458 6.79671 129.307 10.2446 132.614C12.0936 134.385 13.9998 136.208 15.1144 138.968L14.2342 139.317Z" fill="black"/>
<path d="M55.2552 140.666C54.625 140.666 54.0313 140.593 53.4896 140.437C53.4583 140.432 53.4219 140.421 53.3854 140.411L53.6302 139.505L53.5261 139.963L53.6875 139.52C57.1042 140.52 65.5938 137.13 71.0781 131.442C72.6771 129.781 73.4427 128.369 73.1719 127.572C73.0261 127.135 72.5104 126.838 71.6511 126.703L70.1302 126.458L71.5313 125.812C73.7448 124.791 75.6511 122.098 75.2344 120.572C74.9323 119.437 73.3073 118.947 70.6667 119.197L68.4375 119.411L70.3906 118.317C72.7656 117 75.8854 113.041 75.2969 111.619C74.974 110.833 73.2761 110.817 70.6511 111.567L68.4323 112.203L70.2292 110.755C73.7865 107.88 79.4323 100.114 78.3334 98.2704C78.1511 97.9579 77.349 97.3902 73.9063 98.8329L72.6615 99.3537L73.3125 98.1766C73.7969 97.312 73.9115 96.5308 73.6406 96.0881C73.4011 95.7079 72.9115 95.6558 72.5417 95.6766C70.4896 95.7964 65.7136 98.7183 60.8177 108.916L59.9375 108.598C60.5313 106.286 60.3386 105.348 60.125 105.156C60.1094 105.135 60.0521 105.083 59.8438 105.156C58.2396 105.713 54.5209 111.161 53.1615 119.604L52.7709 122.046L52.2448 119.63C52.0521 118.75 51.4792 117.708 50.4584 117.406C49.3542 117.088 47.9896 117.687 46.5208 119.161C45.1771 120.505 44.6823 123.718 45.2292 127.546C45.8698 132.052 48.0313 137.432 51.4115 139.286L50.9584 140.109C47.0469 137.958 44.9271 132.067 44.3021 127.677C43.7031 123.5 44.2865 120.072 45.8594 118.5C48.0469 116.312 49.7136 116.208 50.724 116.505C51.4427 116.718 52.0729 117.208 52.5261 117.895C54.0938 110.125 57.5729 104.953 59.5417 104.27C60.1823 104.052 60.5833 104.296 60.7656 104.468C61.0833 104.765 61.2552 105.255 61.2761 105.958C65.6146 97.9579 69.9427 94.8849 72.4896 94.7391C73.3646 94.6922 74.0625 94.9943 74.4375 95.5933C74.7656 96.1141 74.8177 96.7964 74.599 97.562C77.0417 96.687 78.5365 96.7599 79.1459 97.786C80.0469 99.2964 78.3802 102.348 76.8229 104.64C75.4636 106.651 73.7396 108.723 72.1979 110.244C74.3906 109.854 75.724 110.192 76.1719 111.26C76.9479 113.13 74.4219 116.385 72.2083 118.203C74.9636 118.265 75.8854 119.354 76.1459 120.333C76.6511 122.192 74.9323 124.729 72.9219 126.098C73.5052 126.369 73.8906 126.76 74.0677 127.281C74.5625 128.765 73.0833 130.723 71.7552 132.098C68.0313 135.963 60.3438 140.666 55.2552 140.666Z" fill="black"/>
<path d="M99.7344 110.396L88.5156 108.657L92.5052 103.292L99.7344 110.396ZM90.1927 107.964L96.9948 109.021L92.6094 104.714L90.1927 107.964Z" fill="black"/>
<path d="M93.6821 129.756C92.4165 129.756 91.3853 128.724 91.3853 127.464C91.3853 126.193 92.4165 125.167 93.6821 125.167C94.9478 125.167 95.9738 126.193 95.9738 127.464C95.9738 128.724 94.9478 129.756 93.6821 129.756ZM93.6821 126.104C92.9321 126.104 92.3228 126.714 92.3228 127.464C92.3228 128.209 92.9373 128.818 93.6821 128.818C94.4321 128.818 95.0363 128.209 95.0363 127.464C95.0415 126.714 94.4321 126.104 93.6821 126.104Z" fill="black"/>
<path d="M99.2658 122.599C98.5106 122.599 97.896 121.984 97.896 121.229C97.896 120.469 98.5158 119.859 99.2658 119.859C100.021 119.859 100.63 120.474 100.63 121.229C100.63 121.984 100.021 122.599 99.2658 122.599ZM99.2658 120.797C99.0262 120.797 98.8335 120.99 98.8335 121.229C98.8335 121.469 99.0262 121.667 99.2658 121.667C99.5054 121.667 99.6981 121.469 99.6981 121.229C99.6981 120.99 99.5054 120.797 99.2658 120.797Z" fill="black"/>
<path d="M103.318 118.692C102.427 118.692 101.698 117.968 101.698 117.073C101.698 116.182 102.427 115.458 103.318 115.458C104.213 115.458 104.943 116.182 104.943 117.073C104.948 117.968 104.219 118.692 103.318 118.692ZM103.318 116.39C102.943 116.39 102.635 116.698 102.635 117.073C102.635 117.448 102.937 117.76 103.318 117.76C103.698 117.76 104.005 117.453 104.005 117.073C104.005 116.698 103.698 116.39 103.318 116.39Z" fill="black"/>
<path d="M92.4271 83.9945C91.0781 83.9945 89.9844 82.8955 89.9844 81.5465C89.9844 80.1976 91.0781 79.0986 92.4271 79.0986C93.776 79.0986 94.875 80.1976 94.875 81.5465C94.875 82.8955 93.776 83.9945 92.4271 83.9945ZM92.4271 80.0361C91.599 80.0361 90.9271 80.7132 90.9271 81.5413C90.9271 82.3747 91.6042 83.0518 92.4271 83.0518C93.2604 83.0518 93.9375 82.3747 93.9375 81.5413C93.9375 80.7132 93.2604 80.0361 92.4271 80.0361Z" fill="black"/>
<path d="M120.854 88.6663C120.016 88.6663 119.328 87.9788 119.328 87.1403C119.328 86.2965 120.016 85.6143 120.854 85.6143C121.698 85.6143 122.38 86.2965 122.38 87.1403C122.38 87.9788 121.698 88.6663 120.854 88.6663ZM120.854 86.5465C120.531 86.5465 120.26 86.8122 120.26 87.1403C120.26 87.4632 120.526 87.7288 120.854 87.7288C121.177 87.7288 121.448 87.4684 121.448 87.1403C121.448 86.8122 121.177 86.5465 120.854 86.5465Z" fill="black"/>
<path d="M120.557 83.5465C119.875 83.5465 119.328 82.9893 119.328 82.3122C119.328 81.6351 119.88 81.083 120.557 81.083C121.24 81.083 121.792 81.6351 121.792 82.3122C121.792 82.9893 121.24 83.5465 120.557 83.5465ZM120.557 82.0205C120.396 82.0205 120.26 82.1507 120.26 82.3122C120.26 82.4788 120.396 82.609 120.557 82.609C120.724 82.609 120.854 82.4788 120.854 82.3122C120.854 82.1507 120.724 82.0205 120.557 82.0205Z" fill="black"/>
<path d="M112.781 94.557C112.083 94.557 111.516 93.9893 111.516 93.2913C111.516 92.5882 112.083 92.0205 112.781 92.0205C113.484 92.0205 114.052 92.5882 114.052 93.2913C114.057 93.9893 113.484 94.557 112.781 94.557ZM112.781 92.958C112.604 92.958 112.448 93.1038 112.448 93.2913C112.448 93.4684 112.599 93.6247 112.781 93.6247C112.964 93.6247 113.115 93.4736 113.115 93.2913C113.115 93.1038 112.964 92.958 112.781 92.958Z" fill="black"/>
<path d="M100.989 75.6823C100.276 75.6823 99.6978 75.099 99.6978 74.3854C99.6978 73.6771 100.281 73.0938 100.989 73.0938C101.703 73.0938 102.286 73.6771 102.286 74.3854C102.286 75.099 101.708 75.6823 100.989 75.6823ZM100.989 74.0312C100.792 74.0312 100.63 74.1927 100.63 74.3854C100.63 74.5833 100.792 74.7448 100.989 74.7448C101.187 74.7448 101.349 74.5833 101.349 74.3854C101.349 74.1927 101.193 74.0312 100.989 74.0312Z" fill="black"/>
<path d="M105.047 77.8389C104.198 77.8389 103.505 77.141 103.505 76.292C103.505 75.443 104.198 74.7451 105.047 74.7451C105.906 74.7451 106.594 75.443 106.594 76.292C106.594 77.141 105.901 77.8389 105.047 77.8389ZM105.047 75.6826C104.714 75.6826 104.443 75.9535 104.443 76.292C104.443 76.6305 104.714 76.9014 105.047 76.9014C105.386 76.9014 105.662 76.6305 105.662 76.292C105.662 75.9535 105.38 75.6826 105.047 75.6826Z" fill="black"/>
<path d="M109.865 89.5521L106.677 86.3594L116.323 76.7031L119.521 79.901L109.865 89.5521ZM108.005 86.3594L109.87 88.224L118.198 79.901L116.328 78.0312L108.005 86.3594Z" fill="black"/>
<path d="M93.9219 70.026H89.9844V63.2812H93.9219V70.026ZM90.9271 69.0885H92.9896V64.2135H90.9271V69.0885Z" fill="black"/>
<path d="M124.49 102.885L119.703 100.119L123.927 92.8018L128.714 95.5674L124.49 102.885ZM120.979 99.7757L124.146 101.604L127.432 95.9111L124.271 94.083L120.979 99.7757Z" fill="black"/>
<path d="M132 110.573L127.849 101.526L131.521 99.8389L135.667 108.886L132 110.573ZM129.094 101.985L132.458 109.328L134.422 108.422L131.057 101.084L129.094 101.985Z" fill="black"/>
<path d="M107.38 114.333L106.833 111.693L125.464 107.844L126.011 110.484L107.38 114.333ZM107.943 112.422L108.11 113.224L124.901 109.76L124.735 108.953L107.943 112.422Z" fill="black"/>
<path d="M124.583 128.766L114.203 124.281L115.958 120.203L126.344 124.688L124.583 128.766ZM115.438 123.792L124.099 127.531L125.115 125.177L116.453 121.438L115.438 123.792Z" fill="black"/>
<path d="M133.708 122.599C132.375 122.599 131.292 121.515 131.292 120.177C131.292 118.838 132.375 117.755 133.708 117.755C135.042 117.755 136.135 118.838 136.135 120.177C136.135 121.515 135.047 122.599 133.708 122.599ZM133.708 118.692C132.89 118.692 132.229 119.364 132.229 120.177C132.229 120.994 132.896 121.661 133.708 121.661C134.526 121.661 135.193 120.994 135.193 120.177C135.198 119.359 134.531 118.692 133.708 118.692Z" fill="black"/>
<path d="M140.74 93.5576C140.068 93.5576 139.521 93.0107 139.521 92.3389C139.521 91.667 140.068 91.1201 140.74 91.1201C141.412 91.1201 141.958 91.667 141.958 92.3389C141.958 93.0107 141.412 93.5576 140.74 93.5576ZM140.74 92.0524C140.583 92.0524 140.458 92.1826 140.458 92.3389C140.458 92.4951 140.578 92.6201 140.74 92.6201C140.896 92.6201 141.021 92.4899 141.021 92.3389C141.021 92.1878 140.896 92.0524 140.74 92.0524Z" fill="black"/>
<path d="M138.672 99.568C137.885 99.568 137.25 98.9274 137.25 98.1462C137.25 97.3649 137.891 96.7295 138.672 96.7295C139.453 96.7295 140.083 97.3701 140.083 98.1462C140.089 98.9274 139.453 99.568 138.672 99.568ZM138.672 97.667C138.401 97.667 138.188 97.8805 138.188 98.1462C138.188 98.417 138.401 98.6305 138.672 98.6305C138.932 98.6305 139.151 98.417 139.151 98.1462C139.151 97.8805 138.932 97.667 138.672 97.667Z" fill="black"/>
<path d="M11.974 146.432L11.0625 146.203C11.3854 144.916 13.401 140.692 14.25 138.937C15.4219 136.515 16.7708 133.843 18.0573 131.396C19.7031 128.25 22.6927 122.734 24.1406 121.109L25.6458 119.427L24.9375 121.573C24.5156 122.859 24.026 124.375 23.401 126.349C22.0156 130.729 20.4531 135.849 19.2135 140.067V140.468H19.0885C18.1823 143.583 17.6458 145.526 17.4479 146.416L16.5312 146.213C16.7396 145.276 17.3125 143.203 18.2865 139.869L18.3906 139.531C19.6146 135.359 21.1458 130.354 22.5052 126.062C22.6979 125.453 22.8802 124.88 23.0521 124.349C21.9531 126.151 20.5208 128.713 18.8854 131.828C17.6094 134.26 16.2604 136.932 15.0938 139.338C13.375 142.896 12.1771 145.614 11.974 146.432Z" fill="black"/>
<path d="M23.3644 126.433L22.5415 125.985C24.3384 122.714 31.8957 114.552 34.4373 113.136L34.8957 113.953C32.505 115.287 25.0675 123.334 23.3644 126.433Z" fill="black"/>
<path d="M24.9168 121.619L24.0679 121.224C26.4168 116.198 27.1929 108.411 26.8179 106.01L27.745 105.864C28.1408 108.364 27.3439 116.437 24.9168 121.619Z" fill="black"/>
<path d="M18.9325 131.672L18.0054 131.558C18.3283 129.011 17.0939 120.162 16.3491 118.683L17.1929 118.261C18.0939 120.058 19.2658 129.084 18.9325 131.672Z" fill="black"/>
<path d="M51.9271 146.339C51.8542 144.708 52.5521 141.917 53.1511 139.854C53.974 137.005 55.1771 133.589 56.5365 130.234L57.4063 130.589C56.0574 133.911 54.8699 137.302 54.0521 140.115C53.2292 142.932 52.8126 145.13 52.8646 146.297L51.9271 146.339Z" fill="black"/>
<path d="M49.021 146.438L48.1147 146.198C48.4168 145.026 49.4585 142.401 50.7554 139.506C51.6304 137.542 52.5939 135.521 53.5366 133.672C54.8595 131.078 56.1408 128.813 57.3439 126.922C57.9897 125.912 58.6095 125.021 59.1877 124.261L61.9845 120.604L59.9793 124.75C59.1356 126.5 58.2658 128.464 57.4064 130.584L56.5366 130.229C56.6095 130.063 56.672 129.891 56.745 129.724C55.9741 131.052 55.1825 132.516 54.37 134.099C53.4377 135.938 52.4793 137.938 51.6043 139.891C50.3283 142.74 49.3127 145.308 49.021 146.438Z" fill="black"/>
<path d="M57.3387 130.693L56.9741 130.401H56.5054V130.235L56.6095 130.11C57.7085 128.724 60.8283 126.339 63.2241 125.745L63.4481 126.662C61.271 127.198 58.3335 129.443 57.3387 130.693Z" fill="black"/>
<path d="M58.1668 127.37L57.3179 126.974C58.8439 123.688 58.9689 116.292 58.7345 114.438L59.6668 114.323C59.922 116.302 59.797 123.87 58.1668 127.37Z" fill="black"/>
<path d="M54.4061 134.01L53.505 133.76C53.9842 132.036 52.1457 126.744 50.979 125.276L51.7134 124.692C52.9478 126.25 55.0207 131.833 54.4061 134.01Z" fill="black"/>
<path d="M59.9688 124.787L59.1562 124.308C60.5937 121.875 65.7656 116.229 67.5052 114.698L68.1302 115.401C66.4063 116.912 61.3073 122.506 59.9688 124.787Z" fill="black"/>
<path d="M192.609 75.9118C191.307 75.9118 189.964 75.8337 188.578 75.6826C184.854 75.266 180.167 73.4847 174.75 71.417C164.745 67.6097 153.406 63.2868 143.729 65.891L143.484 64.9847C153.453 62.3024 164.948 66.6774 175.078 70.542C180.443 72.5837 185.068 74.3441 188.677 74.7451C194.25 75.3597 199.156 74.7035 203.271 72.7868C204.01 72.443 204.719 72.0628 205.391 71.6514C211.323 67.9795 215.255 61.292 217.057 51.7764L217.505 51.8649L217.984 51.8597L217.974 51.9535C216.115 61.7347 212.042 68.6253 205.88 72.4482C205.177 72.8805 204.432 73.2816 203.661 73.6357C200.427 75.1514 196.724 75.9118 192.609 75.9118Z" fill="black"/>
<path d="M187.943 68.7292C186.031 68.7292 184.052 68.3594 182.094 67.6042C178.964 66.401 175.88 63.9115 172.62 61.2812C165.135 55.2396 156.651 48.3958 143.87 53.5833L143.516 52.7135C156.812 47.3177 165.526 54.349 173.208 60.5521C176.417 63.1354 179.438 65.5729 182.432 66.7292C187.036 68.5 191.714 68.0417 195.266 65.474C199.792 62.2083 202.073 55.9948 201.698 47.9792L202.63 47.9375C203.026 56.2813 200.604 62.776 195.812 66.2396C193.521 67.8906 190.807 68.7292 187.943 68.7292Z" fill="black"/>
</svg>
