<svg width="217" height="143" viewBox="0 0 217 143" fill="none" xmlns="http://www.w3.org/2000/svg">
<mask id="mask0_5558_5493" style="mask-type:luminance" maskUnits="userSpaceOnUse" x="0" y="0" width="217" height="143">
<path d="M0.15625 0H216.156V142.604H0.15625V0Z" fill="white"/>
</mask>
<g mask="url(#mask0_5558_5493)">
<path d="M199.115 79.8697L199.042 79.802L190.156 77.1666L197.161 71.4218L188.328 65.7708V38.1093H184.766C187.24 35.3333 189.12 28.2343 187.49 24.8541C186.891 23.6093 185.62 22.3437 182.911 22.8593C183.99 21.2447 184.708 19.0729 184.917 16.7083C185.167 13.9426 184.646 11.5312 183.562 10.4166C183.026 9.86973 181.938 9.21348 180.255 10.2551C180.818 6.03119 179.406 2.82807 177.635 1.44786C176.573 0.619733 175.365 0.437442 174.307 0.94265C173.229 1.46348 171.448 3.14577 171.208 8.58327C170.422 8.17702 169.292 8.19265 168.318 8.71348C166.812 9.51557 165.807 11.4843 167.188 14.6666C166.333 14.5624 165.526 14.8176 164.896 15.3801C163.833 16.3333 163.443 17.9947 163.786 19.9218L160.01 18.5729L141.292 25.2656V26.7135C140.677 26.4322 139.917 26.2499 139.042 26.1874C137.885 26.1093 136.896 26.4635 136.167 27.2135C135.698 26.2239 134.536 25.1301 132.635 24.8124C131.911 24.6979 131.193 24.7343 130.484 24.776C129.823 24.8124 129.188 24.8385 128.583 24.7447C128.604 22.2187 128.672 10.8749 128.578 10.1614L128.552 9.9114L111.286 2.91661L93.974 9.92182V19.1926L72.3542 26.651V42.3072H68.1667C68.0469 40.8906 67.8646 40.2343 67.724 39.9114C68.5677 38.776 69.1146 37.3489 69.1927 36.0364C69.25 34.9843 69 34.1354 68.4896 33.6301C68.2031 33.3489 67.8438 33.1822 67.4375 33.1458C67.1042 32.2551 66.5312 31.8802 66.0885 31.7187C65.2865 31.427 64.2917 31.6249 63.3333 32.2499C62.224 32.0156 61.625 32.1041 60.7552 33.427C60.0365 33.5364 59.4792 33.9583 59.1354 34.6249C59.2292 33.3697 59.0729 31.0416 55.0781 30.2135C56.4167 28.5729 57.0833 25.5051 56.0052 23.651C55.4583 22.7083 54.0365 21.3854 50.5521 22.5885C51.5417 18.4739 50.7083 14.7135 48.2656 12.401C46.4792 10.7135 44.125 10.1666 41.9688 10.9426C39.0052 11.9999 36.8958 15.3281 36.099 20.1354C35.2656 19.4374 34.0208 19.0885 32.599 19.1874C30.6198 19.3176 28.2188 20.401 27.3125 22.5104C26.7656 23.7968 26.5938 25.8749 28.6719 28.6926C27.1875 28.9062 26.0938 29.9583 25.6667 31.6406C25.0052 34.2291 26.0677 37.8176 28.8854 39.4114L23.8698 46.1458V65.4479L0.15625 77.0781V84.2239L22.2083 97.9791L8.34896 110.99L49.9167 131.755H69.875L100.005 142.208L181.984 120.297V113.844L216.307 95.3801L199.115 79.8697Z" fill="black"/>
</g>
<mask id="mask1_5558_5493" style="mask-type:luminance" maskUnits="userSpaceOnUse" x="0" y="65" width="217" height="78">
<path d="M0.333496 65.333H216.156V142.604H0.333496V65.333Z" fill="white"/>
</mask>
<g mask="url(#mask1_5558_5493)">
<path d="M64.1512 110.875C64.1616 110.875 64.1772 110.875 64.1825 110.88C64.1981 110.88 64.1825 110.875 64.1512 110.875ZM144.641 84.0729C143.938 81.1719 141.5 81.0885 140.083 82.1615C139.865 82.3333 139.583 82.651 139.266 83.0885L139.177 83.0208C138.886 82.5938 138.448 80.599 138.141 79.0938C138.141 79.0938 138.141 79.0938 138.141 79.0885C138.177 79.0208 138.547 78.2865 138.5 77.4375C138.5 76.5417 137.271 71.25 135.578 66.3229C135.641 66.2396 135.708 66.1302 135.776 66.0104H187.906L196.432 71.4635L189.261 77.349L198.828 80.1823L215.568 95.2865L181.552 113.583V119.964L100.016 141.755L69.9429 131.323H50.0158L9.09391 110.88L22.9116 97.9062L0.583496 83.9844V77.349L24.297 65.7083H36.6877L27.5679 77.349L43.2866 81.5417L36.6981 83.8073L37.6356 85.0208L30.7606 87.6302L42.0783 86.026L40.9897 84.5938L47.3752 82.625L53.0939 84.1458L30.3075 96.8594L51.8752 102.688L44.5158 108.729L64.0939 110.854L51.5418 106.536L58.0783 101.661L38.0783 95.9479L50.5522 89.901L56.4325 91.5417L52.9429 94.776L66.4585 95.8958L57.7918 92.8125L60.8856 89.8438L53.5314 87.4479C59.2241 84.6302 62.4377 83.0208 62.4377 83.0208L33.9481 75.8177L45.8752 65.7083H72.5158C72.271 68.0937 72.1929 69.8854 72.1929 69.8854C72.3491 69.974 72.521 70.0573 72.6981 70.1354C66.7502 79.6875 66.1408 90.8125 71.2033 91.4219C76.2658 92.0313 80.047 77.2396 80.047 77.2396C80.047 77.2396 83.4377 89.9219 83.3283 94.474C83.2137 99.0365 83.3283 110.88 83.3283 110.88H84.771C84.7137 112.109 85.0054 113.359 85.7814 114.547L85.9585 114.448C86.2189 115 86.7814 115.38 87.7189 115.495C93.0939 116.151 100.495 106.958 99.2502 103.76C99.2502 103.755 99.245 103.755 99.245 103.755C99.1616 103.547 99.047 103.365 98.8908 103.219C97.521 101.365 95.1095 100.656 92.5835 101.271V101.266C92.771 97.849 92.5522 79.9635 90.0627 70.9219C90.4272 70.7656 90.7554 70.5938 91.0366 70.401L92.2866 65.7083H98.62V65.7031C98.8595 65.8333 99.1095 65.9323 99.3804 66.0156C98.8595 67.2083 96.1095 69.1823 96.1095 70.9271C96.1095 72.3438 96.8387 72.3802 97.7345 72.2188C97.0054 74.2865 98.9637 74.3385 99.62 74.2865C100.271 74.2292 104.313 74.0729 103.88 66.1146C104.495 66 105 65.8437 105.287 65.7083H120.927C119.802 66.4844 118.927 69.526 118.891 73.1042C118.844 76.875 119.219 80.1198 122.094 79.7969C124.969 79.474 124.688 73.849 124.583 72.2448C124.932 72.3594 125.375 72.5573 125.938 72.8646L126 72.8542C126.052 73.2344 126.141 73.6042 126.271 73.9583L130.094 75.8281H130.099C130.948 79.6458 131.761 83.9948 131.761 83.9948C131.761 83.9948 132.563 84.375 133.87 83.9948L133.969 83.9531C134.641 85.7188 135.417 88.1354 135.865 90.6354H135.875C135.724 92.9115 137.011 95.0885 137.719 95.3021C137.912 95.4427 138.167 95.5208 138.505 95.5365C140.412 95.599 141.531 93.151 143.052 90.0469C144.167 87.7604 144.995 85.2344 144.641 84.0729ZM168.25 105.552L185.438 101.901L173.964 102.026L176.328 98.7708C176.328 98.7708 169.36 97.9479 164.13 97.8073L182.115 88.2448L168.406 83.6771L180.099 80.3906L175.552 77.776L182.87 74.2917L170.261 77.151L174.052 79.4219L164 81.6042L157.932 77.7135L174.151 69.4844L147.162 77.8594L159.505 83.0104L153.057 85.1406L169.323 88.2656L137.802 103.693L126.339 105.406L130.672 99.9688L109.578 102.682C109.578 102.682 124.464 103.323 124.651 103.224C124.839 103.13 117.828 110.339 117.828 110.339L129.485 107.797L135.651 110.432L101.432 131.323L144.724 112.323L159.172 112.328L149.12 105.786L159.386 100.328L171.662 101.281L168.25 105.552Z" fill="#3B3A3A"/>
</g>
<path d="M187.901 38.5413V66.0101H135.776C136.807 64.2445 138.677 59.0622 138.5 56.5413C138.854 56.4893 139.182 56.4216 139.495 56.3434C139.167 54.3538 138.245 52.8799 138.901 51.7913C139.364 51.0101 141.802 49.4424 142.812 46.6872C144.453 48.083 150.443 50.3018 152.786 48.9216C155.13 47.5413 156.427 35.3799 156.427 35.3799L155.943 34.6559C156.599 33.8278 157.25 32.5986 157.474 30.9893C157.542 30.5309 157.547 30.0934 157.505 29.6976C157.38 28.3747 156.708 27.458 155.713 27.458C155.76 26.807 154.87 26.0726 153.771 26.609C151.698 25.3538 151.088 27.7757 151.088 27.7757C151.088 27.7757 150.229 27.5153 149.635 28.5622C149.375 29.0101 149.396 29.5674 149.583 30.1507C149.864 31.0465 150.526 32.0361 151.187 32.8643C151.109 33.0674 149.854 37.9945 148.646 41.4216C147.708 40.9736 144.271 39.1663 142.088 37.9945C141.474 37.6611 140.958 37.3851 140.635 37.1976C139.599 36.6143 140.13 35.5466 140.13 35.5466L140.125 35.5049C141.187 35.2966 142.021 34.6768 142.422 33.6611C142.922 32.3955 141.792 31.7288 142.422 29.4215C142.651 28.6768 142.411 27.9736 141.729 27.458V25.5622L160.021 19.0205L164.385 20.583L178.318 25.5622V38.5361H183.64L187.901 38.5413ZM174.187 47.2705V39.8955H166.818V47.2705H174.187Z" fill="#87AAD2"/>
<path d="M129.484 107.802L117.828 110.343C117.828 110.343 124.838 103.14 124.651 103.234C124.463 103.328 109.578 102.687 109.578 102.687L130.672 99.9736L126.338 105.411L137.802 103.698L169.323 88.2705L153.057 85.1403L159.505 83.0153L147.161 77.8643L174.151 69.4893L157.932 77.7184L164 81.609L174.052 79.4268L170.26 77.1507L182.87 74.2965L175.552 77.7809L180.099 80.3955L168.406 83.682L182.114 88.2497L164.13 97.8122C169.354 97.9528 176.328 98.7757 176.328 98.7757L173.963 102.026L185.437 101.906L168.25 105.557L171.661 101.286L159.385 100.333L149.12 105.791L159.172 112.333L144.724 112.328L101.432 131.323L135.651 110.437L129.484 107.802Z" fill="black"/>
<path d="M181.786 23.6149C191.271 20.3857 187.354 36.1669 183.646 38.5419H178.323V25.568L164.385 20.5888C163.312 16.6774 165.432 14.3024 167.984 15.3024C164.614 8.98986 170.594 7.61486 171.62 9.53153C171.76 -4.40597 181.781 0.880486 179.656 11.2555C185.156 6.37528 186.255 18.8076 181.786 23.6149Z" fill="#5FB6BE"/>
<path d="M166.818 39.8955H174.188V47.2705H166.818V39.8955Z" fill="#FF9F43"/>
<path d="M157.505 29.6982C157.547 30.0993 157.542 30.5316 157.474 30.9899C157.25 32.5993 156.599 33.8285 155.943 34.6566C155.786 34.8597 155.625 35.0316 155.479 35.1774C153.755 34.9378 152.661 34.6097 151.906 33.7139C151.682 33.4587 151.443 33.1722 151.193 32.8545C150.531 32.0264 149.87 31.042 149.588 30.1462L150.432 30.1149C150.906 30.5941 151.797 31.141 152.693 30.4639C152.786 30.3962 152.854 30.3285 152.906 30.2503C153.021 30.641 153.734 30.8441 154.042 30.6253H154.057C154.068 30.7347 154.088 30.8337 154.125 30.9222C154.453 31.818 156.302 31.818 156.734 29.7712L157.505 29.6982Z" fill="#FF9F43"/>
<path d="M157.505 29.6976L156.735 29.7705C156.302 31.8174 154.453 31.8174 154.125 30.9268C154.089 30.8382 154.068 30.7393 154.058 30.6299C153.933 29.7184 154.521 28.3695 155.714 27.458C156.709 27.458 157.38 28.3747 157.505 29.6976Z" fill="#FF9F43"/>
<path d="M148.651 41.4167C149.854 37.9844 151.115 33.0625 151.193 32.8594C151.443 33.1771 151.682 33.4583 151.906 33.7188C152.661 34.6146 153.755 34.9427 155.479 35.1823C155.63 35.0313 155.792 34.8594 155.943 34.6615L156.427 35.3854C156.427 35.3854 155.13 47.5469 152.786 48.9271C150.443 50.3073 144.448 48.0885 142.812 46.6927C141.802 49.4479 139.365 51.0104 138.901 51.7969C138.245 52.8906 139.172 54.3594 139.495 56.349C139.182 56.4271 138.854 56.4948 138.5 56.5469C134.667 57.1146 128.766 56.0885 125.797 54.8385C125.255 54.6042 124.812 54.375 124.495 54.1354C124.495 54.1354 127.026 51.6302 127.359 50.5469C127.693 49.4583 127.786 43.8438 127.359 41.4271C125.516 40.8333 123.401 40.4271 122.339 40.7448C120.49 41.2917 119.292 48.7448 119.292 48.7448C119.292 48.7448 119.016 48.8229 118.599 48.8802C117.682 49 116.057 49.0052 114.974 47.8281C114.797 47.6406 114.641 47.4219 114.5 47.1667C114.5 47.1667 115.318 38.8333 118.312 36.276C121.089 33.9063 128.948 34.2448 133.464 35.3021C132.172 39.1354 135.568 40.4167 136.609 40.6979C137.651 40.9792 141.552 41.1406 142.099 37.9948C144.271 39.1615 147.714 40.9688 148.651 41.4167Z" fill="black"/>
<path d="M153.771 26.6092C154.87 26.0728 155.755 26.8071 155.713 27.4582C154.521 28.3696 153.932 29.7186 154.057 30.63H154.036C153.729 30.854 153.021 30.6457 152.901 30.255C153.193 29.8436 152.958 29.3071 152.432 28.7759C152.406 28.2082 152.864 27.078 153.771 26.6092Z" fill="#FF9F43"/>
<path d="M152.432 28.7761C152.959 29.3074 153.193 29.8438 152.901 30.2553C152.849 30.3334 152.781 30.4011 152.688 30.4688C151.797 31.1459 150.906 30.6043 150.427 30.1199L149.584 30.1511C149.396 29.5626 149.375 29.0053 149.636 28.5574C150.229 27.5105 151.089 27.7709 151.089 27.7709C151.62 28.0834 152.094 28.4272 152.432 28.7761Z" fill="#FF9F43"/>
<path d="M151.094 27.7707C151.094 27.7707 151.698 25.3489 153.776 26.6041C152.865 27.078 152.411 28.203 152.432 28.7707C152.094 28.427 151.62 28.0832 151.094 27.7707Z" fill="#FF9F43"/>
<path d="M144.636 84.073C145 85.2396 144.167 87.7605 143.057 90.0313C141.537 93.1407 140.412 95.5886 138.511 95.5209C138.172 95.5105 137.917 95.4323 137.724 95.2865C136.818 94.6511 137.328 92.724 138.037 90.4948C138.896 87.7813 140.813 83.5209 143.724 83.4167C144.214 83.4011 144.505 83.6459 144.636 84.073Z" fill="#87AAD2"/>
<path d="M144.64 84.0727C144.505 83.6508 144.218 83.406 143.718 83.4217C140.812 83.5258 138.89 87.7863 138.031 90.4998C137.323 92.729 136.817 94.6508 137.718 95.2915C137.01 95.0831 135.729 92.9008 135.875 90.63C135.896 90.3852 135.927 90.1456 135.979 89.9008C136.39 87.9165 138.062 84.7342 139.26 83.0935C139.578 82.6613 139.859 82.3383 140.078 82.1665C141.5 81.0831 143.937 81.1717 144.64 84.0727Z" fill="#87AAD2"/>
<path d="M142.427 29.4219C141.797 31.7292 142.927 32.3906 142.427 33.6615C142.026 34.6771 141.193 35.2969 140.125 35.5052C139.599 35.6146 139.005 35.6198 138.38 35.5104C137.219 35.3125 136.458 34.7292 135.995 33.9688C135.562 33.276 135.385 32.4115 135.385 31.5677C136.578 31.5677 136.719 30.0937 138.005 30.1406C139.286 30.1823 141.281 30.5677 142.427 29.4219ZM140.661 33.5104C140.781 33.1198 140.646 32.7396 140.37 32.6562C140.088 32.5729 139.771 32.8281 139.661 33.2135C139.542 33.6094 139.677 33.9896 139.953 34.0677C140.229 34.151 140.547 33.901 140.661 33.5104Z" fill="#FF9F43"/>
<path d="M135.38 30.2553C135.448 29.4637 135.656 28.7449 135.995 28.1616V28.1564C136.589 27.1251 137.604 26.5158 139.021 26.6199C140.234 26.7033 141.141 27.0158 141.729 27.4585C142.411 27.9741 142.656 28.6772 142.427 29.4272C141.281 30.573 139.286 30.1876 138.005 30.1408C136.719 30.0939 136.578 31.5678 135.385 31.5678C135.344 31.1147 135.344 30.6772 135.38 30.2553Z" fill="#3B3A3A"/>
<path d="M140.635 37.1976C140.963 37.3851 141.479 37.6611 142.094 37.9945C141.547 41.1403 137.646 40.9736 136.604 40.6976C135.562 40.4111 132.167 39.1351 133.463 35.3018C133.828 35.3851 134.167 35.4736 134.484 35.5726C135.609 35.5986 135.995 33.9736 135.995 33.9736C136.458 34.734 137.219 35.3174 138.38 35.5153C139.005 35.6195 139.594 35.6195 140.125 35.5101L140.135 35.5518C140.135 35.5465 139.604 36.609 140.635 37.1976Z" fill="#FF9F43"/>
<path d="M140.37 32.6564C140.646 32.7398 140.776 33.12 140.661 33.5106C140.547 33.9012 140.234 34.1512 139.953 34.0679C139.677 33.9898 139.547 33.6095 139.661 33.2137C139.771 32.8283 140.094 32.5731 140.37 32.6564Z" fill="#FF9F43"/>
<path d="M139.177 83.0209L139.266 83.0886C138.073 84.7293 136.401 87.9116 135.979 89.8959C135.927 90.1407 135.901 90.3803 135.88 90.6251H135.87C135.422 88.1199 134.651 85.7032 133.974 83.9428C133.542 82.797 133.151 81.9324 132.922 81.4897C134.74 78.1303 136.51 77.3334 137.802 77.3439C137.802 77.3439 137.938 78.1095 138.141 79.0834C138.141 79.0886 138.141 79.0886 138.141 79.0886C138.448 80.5991 138.885 82.5939 139.177 83.0209Z" fill="#FF9F43"/>
<path d="M135.573 66.3232C137.265 71.2503 138.495 76.542 138.495 77.4378C138.286 77.3857 138.057 77.3545 137.802 77.3493C136.515 77.3337 134.739 78.1357 132.922 81.4951C132.531 82.2035 132.146 83.0264 131.76 83.9847C131.76 83.9847 130.948 79.641 130.099 75.818C129.646 73.8024 129.182 71.9326 128.823 70.9222C128.573 70.2295 128.135 69.1878 127.64 67.9535C127.359 67.2607 127.068 66.4951 126.781 65.6982C125.458 62.0107 124.307 57.5316 125.786 54.8389C128.755 56.0837 134.656 57.1149 138.495 56.5472C138.672 59.068 136.797 64.2503 135.771 66.016H135.765C135.703 66.1305 135.635 66.2399 135.573 66.3232Z" fill="#5FB6BE"/>
<path d="M135.995 28.1559C135.651 28.7445 135.448 29.4632 135.38 30.2549C133.333 29.4268 131.484 31.1351 128.49 30.4684C125.49 29.8018 124.875 26.4736 125.729 23.2861C126.474 24.4007 127.302 24.8955 128.167 25.1038C129.594 25.4476 131.12 24.9997 132.573 25.2393C134.901 25.6195 135.979 27.2288 135.995 28.1559Z" fill="#3B3A3A"/>
<path d="M133.464 35.2972C128.943 34.2347 121.083 33.9014 118.307 36.2712C115.313 38.8337 114.495 47.167 114.495 47.167C114.641 47.4222 114.797 47.6357 114.974 47.8285C112.375 54.068 115.526 55.4274 116.037 55.6566C116.542 55.891 118.13 56.4014 118.136 54.5316C118.813 54.9222 119.401 55.0889 119.807 53.9587C120.307 52.5576 118.677 49.9795 118.599 48.8701C119.016 48.818 119.292 48.7399 119.292 48.7399C119.292 48.7399 120.49 41.2816 122.339 40.7347C123.401 40.4222 125.516 40.8232 127.36 41.4222C127.787 43.8389 127.693 49.4482 127.36 50.5368C127.026 51.6253 124.495 54.1305 124.495 54.1305C124.813 54.3649 125.255 54.5941 125.797 54.8285C124.313 57.5264 125.464 62.0003 126.792 65.6878L126.766 65.6982H123.208C122.599 65.3597 121.823 65.2764 121.125 65.5889C121.063 65.6201 121 65.6566 120.938 65.7035L120.932 65.6982H105.297C105.386 65.6566 105.453 65.6097 105.5 65.5732C106.964 60.3232 108.86 52.5785 107.052 50.3389C105.24 48.1045 94.8856 46.6774 88.521 46.5889H88.495L88.4272 45.8232C89.9012 45.0264 90.4793 43.266 90.6668 41.5524H90.6772C91.4897 41.4535 92.6616 39.4066 91.7866 37.2712C90.9064 35.141 87.1668 32.9535 85.1147 34.1566C82.7918 34.0003 80.3075 36.0107 80.4897 39.1305C80.6772 42.2503 81.5783 43.3597 82.7502 43.8597L82.7606 43.8545C82.8595 44.0524 82.9741 44.2451 83.1043 44.417L83.0731 44.4378L82.8543 46.3962C73.3335 47.2607 68.7814 49.9378 67.5366 51.2295C67.8283 48.7399 67.9325 45.2191 67.771 42.7243H72.7814V26.9587L94.4012 19.5003V10.2139L111.287 3.38574L128.167 10.2139C128.261 10.9691 128.167 25.1045 128.167 25.1045C127.302 24.8962 126.474 24.4014 125.729 23.2868C124.87 26.4743 125.485 29.8024 128.49 30.4691C131.485 31.1357 133.333 29.4274 135.38 30.2555C135.344 30.6722 135.344 31.1149 135.386 31.5628C135.386 32.4066 135.563 33.2712 135.995 33.9691C135.995 33.9691 135.604 35.5941 134.485 35.5628C134.167 35.4691 133.828 35.3805 133.464 35.2972ZM120.531 22.7139V15.3389H113.162V22.7139H120.531ZM101.432 34.1722V26.8024H94.0575V34.1774H101.432V34.1722Z" fill="#87AAD2"/>
<path d="M133.974 83.943L133.87 83.9847C132.568 84.3649 131.766 83.9847 131.766 83.9847C132.151 83.0264 132.536 82.2035 132.927 81.4951C133.151 81.9326 133.542 82.7972 133.974 83.943Z" fill="#5FB6BE"/>
<path d="M130.104 75.818L126.276 73.9482C126.146 73.5941 126.057 73.2295 126.005 72.8493C125.786 71.3545 126.161 69.7191 127.083 68.542C127.255 68.3285 127.443 68.1305 127.646 67.9482C128.135 69.1826 128.578 70.2243 128.828 70.9222C129.187 71.9326 129.651 73.7972 130.104 75.818Z" fill="#5FB6BE"/>
<path d="M127.646 67.9535C127.438 68.1357 127.255 68.3337 127.083 68.5472C127.083 68.5472 124.776 68.0316 124.25 66.9326C124.083 66.417 123.698 65.9795 123.208 65.7087H126.766L126.792 65.6982C127.073 66.4951 127.37 67.2607 127.646 67.9535Z" fill="#3B3A3A"/>
<path d="M126.005 72.8542L125.943 72.8594C125.38 72.5521 124.932 72.3542 124.588 72.2396C123.661 71.9115 123.432 72.1302 123.432 72.1302C121.406 71.0313 121.687 67.5469 124.245 66.9375C124.771 68.0365 127.078 68.5521 127.078 68.5521C126.161 69.724 125.792 71.3542 126.005 72.8542Z" fill="#FF9F43"/>
<path d="M124.589 72.2341C124.693 73.8435 124.979 79.4685 122.094 79.7914C119.219 80.1143 118.849 76.8748 118.891 73.0935C118.932 69.5206 119.813 66.4737 120.932 65.7029C120.995 65.656 121.057 65.6196 121.125 65.5883C121.818 65.2758 122.594 65.3591 123.203 65.6977C123.693 65.9737 124.078 66.406 124.245 66.9268C121.688 67.5362 121.406 71.0258 123.432 72.1196C123.438 72.13 123.661 71.9112 124.589 72.2341Z" fill="#87AAD2"/>
<path d="M113.167 15.3389H120.536V22.7139H113.167V15.3389Z" fill="#FF9F43"/>
<path d="M118.135 54.5365C118.13 56.401 116.541 55.8906 116.036 55.6615C115.531 55.4323 112.375 54.0729 114.974 47.8281C116.057 49.0052 117.682 49 118.594 48.8802C118.677 49.9896 120.307 52.5573 119.802 53.9635C119.406 55.0938 118.812 54.9219 118.135 54.5365Z" fill="#FF9F43"/>
<path d="M67.7706 42.734C67.9373 45.2288 67.8279 48.7445 67.5363 51.2393C68.7758 49.9424 73.3331 47.2705 82.854 46.4059L82.6977 47.8018C83.4373 49.8174 87.4061 50.5674 88.6196 47.8851L88.4946 46.5986H88.5206C94.8852 46.682 105.239 48.109 107.052 50.3486C108.859 52.583 106.963 60.3278 105.5 65.583C105.453 65.6195 105.385 65.6611 105.297 65.708C105.005 65.8486 104.505 66.0049 103.885 66.1143C102.609 66.3643 100.828 66.458 99.3904 66.0101C99.1248 65.9268 98.8748 65.8278 98.6352 65.6976C98.5571 65.6611 98.479 65.6195 98.4061 65.5778C98.5415 64.8903 101.63 54.8799 101.63 54.8799C100.083 54.5153 95.1873 54.8799 95.1873 54.8799L92.3019 65.6976L91.0467 70.3903C90.7654 70.5882 90.4425 70.7601 90.0727 70.9111C85.9321 72.6768 76.8748 71.9997 72.7081 70.1195C72.5258 70.0413 72.3592 69.958 72.2029 69.8747C72.2029 69.8747 72.2863 68.0778 72.5258 65.6924C72.8383 62.6663 73.3904 58.6872 74.354 56.1872C72.8956 56.8747 65.4061 61.0049 61.7915 59.7184C58.1821 58.432 59.1248 41.3018 60.4113 40.734C60.5988 41.0518 60.8019 41.359 61.0206 41.6507C62.5779 42.0465 65.2081 41.4684 66.5258 40.6143C66.7863 40.3799 67.0206 40.1299 67.229 39.8643L67.2342 39.8695C67.4946 40.2757 67.6717 41.3434 67.7706 42.734Z" fill="#5FB6BE"/>
<path d="M97.7446 72.2139C96.8436 72.3753 96.1196 72.3389 96.1196 70.9222C96.1196 69.1774 98.8696 67.2087 99.3853 66.0107C100.823 66.4535 102.604 66.3649 103.885 66.1149C104.318 74.0732 100.281 74.2295 99.6248 74.2868C98.9738 74.3389 97.0155 74.2868 97.7446 72.2139Z" fill="#FF9F43"/>
<path d="M94.0625 26.8018H101.438V34.1768H94.0625V26.8018Z" fill="#FF9F43"/>
<path d="M101.625 54.8851C101.625 54.8851 98.5417 64.8903 98.401 65.583C98.474 65.6247 98.5521 65.6664 98.6302 65.7028V65.708H92.2969L95.1823 54.8903C95.1823 54.8851 100.078 54.5257 101.625 54.8851Z" fill="#87AAD2"/>
<path d="M99.2553 103.76C100.495 106.958 93.0991 116.151 87.7241 115.494C86.7866 115.38 86.2241 115.005 85.9637 114.447C84.4637 111.265 92.9897 102.177 97.6772 102.708C98.2137 102.765 98.6199 102.942 98.896 103.213C99.0262 103.38 99.1408 103.562 99.2501 103.75C99.2501 103.755 99.2553 103.755 99.2553 103.76Z" fill="#87AAD2"/>
<path d="M98.8956 103.214C98.6195 102.943 98.2185 102.766 97.6768 102.709C92.9945 102.183 84.4685 111.266 85.9685 114.448L85.7914 114.547C85.0102 113.354 84.7237 112.11 84.781 110.881C84.9373 106.823 88.7654 102.953 90.6768 101.979C91.3123 101.657 91.9529 101.422 92.5935 101.271C95.1091 100.657 97.5258 101.365 98.8956 103.214Z" fill="#5FB6BE"/>
<path d="M90.0731 70.9222C92.5627 79.9639 92.7814 97.8493 92.5887 101.266V101.271C91.9533 101.422 91.3127 101.662 90.672 101.979C88.7606 102.953 84.9377 106.823 84.7762 110.881H83.3335C83.3335 110.881 83.2189 99.0368 83.3335 94.4743C83.4377 89.9222 80.0522 77.2399 80.0522 77.2399C80.0522 77.2399 76.2658 92.0316 71.2033 91.4222C66.1408 90.8128 66.7606 79.6878 72.7033 70.1357C76.8699 72.0107 85.9272 72.6878 90.0731 70.9222Z" fill="#87AAD2"/>
<path d="M91.7866 37.281C92.6669 39.4112 91.4898 41.4685 90.6773 41.5674H90.6669C90.771 40.5935 90.7502 39.6351 90.6877 38.8747C88.2137 39.2653 86.2346 37.5049 85.1408 36.1508C83.0991 40.7393 81.9012 39.9216 80.995 39.8955C81.0366 40.4685 81.37 41.7758 82.2554 41.4841C82.2033 42.3174 82.3908 43.1403 82.7554 43.8591L82.745 43.8695C81.5731 43.3695 80.6721 42.2601 80.4846 39.1351C80.3023 36.0205 82.7866 34.0101 85.1096 34.1664C87.1616 32.9633 90.9064 35.1455 91.7866 37.281Z" fill="black"/>
<path d="M90.6873 38.8701C90.7498 39.6305 90.7707 40.5889 90.6665 41.5628C90.479 43.2764 89.9009 45.0316 88.4269 45.8337C87.9009 46.1201 87.2603 46.2816 86.4842 46.2764C85.0728 46.2764 83.854 45.5212 83.0988 44.4222C82.9686 44.2451 82.854 44.0576 82.755 43.8597C82.3905 43.141 82.203 42.318 82.255 41.4847C81.3644 41.7764 81.0363 40.4691 80.9946 39.8962C81.9009 39.9222 83.0936 40.7399 85.1405 36.1514C86.2342 37.5003 88.2134 39.2607 90.6873 38.8701ZM87.5988 43.9326C87.7498 43.4274 87.578 42.9274 87.2186 42.8232C86.854 42.7191 86.4478 43.0472 86.3019 43.5524C86.1509 44.0524 86.3228 44.5472 86.6821 44.6566C87.0415 44.7607 87.453 44.4326 87.5988 43.9326Z" fill="#FF9F43"/>
<path d="M88.4946 46.599L88.6196 47.8854C87.4113 50.5677 83.4425 49.8229 82.6978 47.8021L82.854 46.4062L83.0728 44.4479L83.104 44.4219C83.8592 45.5208 85.078 46.276 86.4894 46.276C87.2655 46.2813 87.9009 46.1146 88.4321 45.8333L88.4946 46.599Z" fill="#FF9F43"/>
<path d="M87.2189 42.8277C87.5782 42.9318 87.7449 43.4266 87.5991 43.9371C87.4532 44.4371 87.0418 44.7652 86.6824 44.661C86.323 44.5516 86.1564 44.0621 86.3022 43.5568C86.448 43.0464 86.8595 42.7183 87.2189 42.8277Z" fill="black"/>
<path d="M74.3491 56.1976C73.3856 58.7028 72.8283 62.682 72.521 65.708H24.3022V46.2757L29.5314 39.2601L32.4845 35.2913L58.646 35.2393H59.3439C59.2918 35.3903 59.2554 35.5518 59.2241 35.7184C58.995 37.1247 59.4429 39.0882 60.396 40.7393C59.12 41.3122 58.172 58.4372 61.7814 59.7288C65.4012 61.0205 72.8804 56.8851 74.3491 56.1976ZM40.797 55.8434V47.0361H31.9845V55.8434H40.797Z" fill="#87AAD2"/>
<path d="M67.1196 33.5679C68.3019 33.4846 68.8435 34.5784 68.7602 36.0106L67.5363 35.9794C67.5363 35.9794 66.1144 37.5367 64.906 36.6304C64.1352 36.0523 64.4633 35.1617 65.3019 34.4742C65.7758 34.0784 66.4217 33.745 67.1196 33.5679Z" fill="#FF9F43"/>
<path d="M67.5314 35.9792L68.7605 36.0104C68.6876 37.224 68.1772 38.6875 67.2137 39.8698C67.0053 40.1406 66.7762 40.3906 66.5157 40.625C65.198 41.474 62.5626 42.0521 61.0053 41.6562C60.7866 41.3698 60.5834 41.0625 60.3959 40.7396C59.4428 39.0885 58.9949 37.1302 59.2241 35.7188L60.0939 35.8073C60.0939 35.8073 60.3074 36.9427 61.5887 37.7917C62.6824 38.5052 63.4793 37.4531 63.4949 36.7552C64.0834 37.0104 64.9012 36.6302 64.9012 36.6302C66.1095 37.5365 67.5314 35.9792 67.5314 35.9792Z" fill="#FF9F43"/>
<path d="M66.4585 95.8955L52.9429 94.7757L56.4325 91.5466L50.5522 89.9059L38.0783 95.9528L58.0783 101.666L51.5418 106.541L64.0939 110.859L44.5158 108.734L51.8752 102.687L30.3075 96.8591L53.0939 84.1455L47.3752 82.6247L40.9897 84.5934L42.0783 86.0257L30.7606 87.6299L37.6356 85.0205L36.6981 83.807L43.2866 81.5413L27.5679 77.3486L36.6877 65.708H45.8752L33.9481 75.8174L62.4377 83.0205C62.4377 83.0205 59.2241 84.6299 53.5314 87.4476L60.8856 89.8434L57.7918 92.8122L66.4585 95.8955Z" fill="black"/>
<path d="M63.4219 32.7033C64.8802 31.6721 66.599 31.6721 67.1146 33.5679C66.4167 33.745 65.776 34.0731 65.2969 34.4742C64.9948 33.9585 64.3542 32.8127 63.4219 32.7033Z" fill="#FF9F43"/>
<path d="M63.422 32.7028C64.3543 32.8122 64.995 33.9528 65.3022 34.4736C64.4637 35.1611 64.1304 36.0518 64.9012 36.6299C64.9012 36.6299 64.0835 37.0101 63.495 36.7549C63.495 36.6247 63.4689 36.5101 63.422 36.4164C63.0679 35.8226 61.9064 33.8851 61.0054 33.8226C61.87 32.4476 62.3022 32.4476 63.422 32.7028Z" fill="#FF9F43"/>
<path d="M63.422 36.4215C63.4689 36.5101 63.495 36.6299 63.495 36.7601C63.4793 37.4528 62.6825 38.5101 61.5887 37.7965C60.3075 36.9476 60.0939 35.8122 60.0939 35.8122L59.2241 35.7236C59.2554 35.5518 59.2918 35.3903 59.3439 35.2445C59.5939 34.432 60.1356 33.8903 61.0054 33.833C61.9064 33.8903 63.0731 35.8226 63.422 36.4215Z" fill="#FF9F43"/>
<path d="M54.1876 30.4944C59.5834 31.2339 58.6824 34.4006 58.6459 35.2391L32.4845 35.2912L29.5313 39.26C24.7449 37.0777 24.6563 28.7339 29.5313 29.0829C22.724 20.8954 34.0938 17.3016 36.3855 21.1246C38.4532 4.7131 53.7345 10.3954 49.9167 23.286C57.7813 19.9944 56.8855 28.411 54.1876 30.4944Z" fill="#5FB6BE"/>
<path d="M31.9844 47.0361H40.7969V55.8434H31.9844V47.0361Z" fill="#FF9F43"/>
<path d="M62.1925 42.2189C61.7342 42.2189 61.2915 42.1772 60.9009 42.0782L60.755 42.0366L60.6665 41.9168C60.4373 41.6147 60.2186 41.2918 60.0259 40.9585C59.0363 39.2449 58.5571 37.1616 58.8019 35.646C58.828 35.4949 58.8696 35.2918 58.9373 35.0991C59.229 34.146 59.8696 33.5574 60.755 33.4168C61.6248 32.0939 62.2238 32.0053 63.3332 32.2397C64.2863 31.6199 65.2863 31.4272 66.0884 31.7085C66.5311 31.8699 67.104 32.2449 67.4373 33.1355C67.8436 33.1772 68.203 33.3387 68.4894 33.6199C68.9998 34.1251 69.2498 34.9793 69.1925 36.0262C69.1144 37.4272 68.4998 38.9637 67.5519 40.1355C67.3384 40.4168 67.0832 40.6876 66.8019 40.9376L66.7498 40.9793C65.6978 41.6668 63.8019 42.2189 62.1925 42.2189ZM61.2603 41.271C62.7342 41.573 65.0988 41.0105 66.255 40.2814C66.4842 40.073 66.6978 39.8439 66.88 39.6095C67.7186 38.5678 68.2603 37.2137 68.328 35.9845C68.3748 35.198 68.2134 34.5626 67.8853 34.2397C67.6925 34.0522 67.453 33.9741 67.1509 33.9949L66.7967 34.021L66.6978 33.6824C66.5363 33.073 66.229 32.6772 65.7915 32.521C65.2238 32.3178 64.4321 32.521 63.6665 33.0522L63.5103 33.1668L63.3228 33.1251C62.354 32.9012 62.1248 32.8491 61.3748 34.0522L61.2603 34.2397L61.0363 34.2501C60.4009 34.2918 59.9686 34.6668 59.755 35.3647C59.7134 35.4845 59.6821 35.6095 59.6561 35.7918C59.4373 37.1095 59.8748 38.9689 60.7759 40.521C60.9217 40.7866 61.0832 41.0366 61.2603 41.271Z" fill="black"/>
<path d="M83.3332 72.3799C79.3488 72.3799 75.0416 71.6559 72.5259 70.5205C72.3436 70.4424 72.1666 70.3591 71.9895 70.2601L71.7551 70.1351L71.7655 69.8591C71.7655 69.8434 71.8541 68.0257 72.0936 65.6559C72.4686 61.9736 72.9738 59.083 73.5988 57.0466C71.0051 58.3434 64.9218 61.3018 61.6405 60.1351C59.5936 59.4007 58.9947 54.8903 58.8593 51.234C58.7291 47.8226 58.9999 40.8955 60.2238 40.3486L60.5728 41.1351C60.6041 41.1195 60.6197 41.1038 60.6197 41.1038C59.9113 41.8278 59.0728 50.958 60.3124 56.3174C60.703 58.0257 61.2811 59.0934 61.9322 59.3226C64.9843 60.4111 71.3801 57.1976 73.4895 56.1455C73.7759 55.9945 74.0103 55.8799 74.1718 55.807L75.1405 55.3538L74.7551 56.3486C74.0051 58.2965 73.3853 61.5413 72.953 65.7445C72.7707 67.557 72.677 69.0361 72.6457 69.6247C72.7186 69.6559 72.7968 69.6976 72.8801 69.7236C76.8905 71.5361 85.8645 72.2445 89.9061 70.5153C90.1978 70.3955 90.453 70.2601 90.6718 70.1247L95.7082 51.2601L96.5363 51.484L91.4218 70.6507L91.2916 70.7445C90.9947 70.9476 90.6457 71.1351 90.2395 71.3018C88.4999 72.057 85.9895 72.3799 83.3332 72.3799Z" fill="black"/>
<path d="M101.698 66.75C100.927 66.75 100.062 66.6719 99.255 66.4219C98.9425 66.3229 98.6665 66.2135 98.4217 66.0781C98.3644 66.0521 98.2707 66 98.1873 65.9531L97.9217 65.7969L97.9842 65.5C98.1092 64.8698 100.411 57.3698 101.073 55.2292C99.255 55.026 95.2603 55.3125 95.2134 55.3177L95.1509 54.4635C95.354 54.4427 100.13 54.099 101.724 54.4688L102.177 54.5729L102.042 55.0156C101.265 57.5417 99.328 63.8333 98.9061 65.3594C99.0988 65.4531 99.2915 65.5313 99.5155 65.6042C101.213 66.1302 103.229 65.8125 103.807 65.6979C104.349 65.5938 104.833 65.4531 105.104 65.3229C105.114 65.3177 105.12 65.3125 105.13 65.3073C107.417 57.0885 107.948 52.1458 106.713 50.6198C105.177 48.7187 95.6665 47.125 88.5103 47.0312L88.5207 46.1719C93.8853 46.2448 105.297 47.5 107.385 50.0781C108.849 51.8958 108.385 56.8594 105.911 65.6979L105.875 65.8281L105.771 65.9115C105.698 65.974 105.604 66.0365 105.489 66.0885C105.146 66.2604 104.594 66.4219 103.969 66.5417C103.604 66.6094 102.734 66.75 101.698 66.75Z" fill="black"/>
<path d="M67.6408 53.2448L66.8022 53.0417C66.9064 52.5833 67.0106 51.9583 67.1095 51.1823C67.4064 48.6406 67.5002 45.1771 67.3387 42.7552C67.1981 40.7396 66.9429 40.224 66.8647 40.1146L67.5731 39.625C67.6877 39.7917 68.0314 40.2917 68.1981 42.6927C68.3595 45.1615 68.2658 48.6927 67.9637 51.2812C67.8647 52.1094 67.7606 52.75 67.6408 53.2448Z" fill="black"/>
<path d="M67.8438 51.5368L67.2188 50.9482L67.224 50.943C67.6094 50.5472 71.2917 47.0264 82.8177 45.9795L82.8958 46.8389C73.7865 47.6566 69.1458 50.1774 67.8438 51.5368Z" fill="black"/>
<path d="M84.7762 111.308H82.9012V110.886C82.9012 110.771 82.7866 98.9795 82.9012 94.4639C82.9793 90.9587 80.9168 82.3962 80.0262 78.8857C78.9064 82.6462 75.7241 91.8649 71.5002 91.8649C71.3804 91.8649 71.2658 91.8545 71.1512 91.8441C69.8387 91.6826 68.8023 90.8857 68.1512 89.5316C66.1616 85.3753 67.9533 76.9378 72.3283 69.9014L73.0575 70.3545C69.4116 76.2191 66.8648 84.8597 68.9273 89.1566C69.4481 90.2503 70.2346 90.8649 71.2502 90.9899C75.0939 91.4691 78.5991 81.141 79.6252 77.1253L80.0314 75.5368L80.4585 77.1253C80.5939 77.641 83.8596 89.917 83.7502 94.4795C83.6512 98.4951 83.7293 108.287 83.745 110.448H84.7658V111.308H84.7762Z" fill="black"/>
<path d="M88.297 115.959C88.0886 115.959 87.8803 115.943 87.672 115.917C86.6147 115.787 85.9116 115.355 85.573 114.631C84.8074 113.006 86.2605 110.573 87.1928 109.266C89.7918 105.631 94.5574 101.933 97.7241 102.282C98.3386 102.349 98.8386 102.563 99.198 102.907C99.3907 103.094 99.5418 103.323 99.6511 103.594L98.8491 103.907C98.7918 103.756 98.7084 103.631 98.5991 103.526C98.3855 103.313 98.0574 103.183 97.6303 103.136C94.8647 102.823 90.3647 106.313 87.8907 109.766C86.5105 111.698 85.9376 113.381 86.3543 114.266C86.5574 114.709 87.0366 114.974 87.7761 115.068C90.6876 115.428 94.2918 112.62 96.573 109.683C98.3751 107.365 99.2918 105.047 98.8543 103.912L99.6564 103.605C100.328 105.334 98.8543 108.151 97.2501 110.214C95.1355 112.938 91.5939 115.959 88.297 115.959Z" fill="black"/>
<path d="M85.4269 114.787C84.6457 113.594 84.2811 112.271 84.3488 110.865C84.5102 106.693 88.3644 102.677 90.479 101.599C91.1404 101.266 91.8123 101.016 92.4894 100.854C95.2029 100.193 97.7915 101.005 99.2446 102.964C99.3644 103.12 99.4842 103.297 99.5988 103.5L99.6873 103.584V103.766H99.2342H99.255L98.9477 104.063L98.8957 103.953L98.8748 103.964C98.7707 103.781 98.6613 103.62 98.5519 103.474C97.3071 101.792 95.0571 101.11 92.6873 101.688C92.0727 101.834 91.4582 102.058 90.8592 102.36C88.9634 103.323 85.3488 107.11 85.2029 110.896C85.1457 112.125 85.4634 113.266 86.1457 114.313L85.4269 114.787Z" fill="black"/>
<path d="M93.0208 101.287L92.1562 101.24C92.3229 98.2607 92.1823 80.2243 89.6562 71.0368L90.4844 70.8076C93.0417 80.0993 93.1823 98.2868 93.0208 101.287Z" fill="black"/>
<path d="M99.3387 74.7292C98.7866 74.7292 97.9325 74.6146 97.4689 74.0052C97.2033 73.6667 97.1095 73.2292 97.1825 72.7135C96.8283 72.7135 96.495 72.651 96.2137 72.4219C95.8647 72.125 95.6929 71.6354 95.6929 70.9271C95.6929 69.6719 96.8179 68.4271 97.8127 67.3385C98.3387 66.7656 98.8283 66.224 99.0002 65.8438L99.7866 66.1875C99.5575 66.6979 99.047 67.2604 98.4481 67.9219C97.5991 68.849 96.5522 70.0052 96.5522 70.9271C96.5522 71.3542 96.6252 71.6458 96.7606 71.7604C96.9377 71.9063 97.3387 71.8542 97.672 71.7917L98.4012 71.6615L98.1564 72.3594C97.9741 72.875 97.9741 73.25 98.1512 73.4844C98.4168 73.8229 99.0939 73.8958 99.5991 73.8594L99.6408 73.8542C102.365 73.6354 103.719 70.8958 103.458 66.1406L104.318 66.0938C104.708 73.2396 101.599 74.5573 99.7137 74.7135H99.6668C99.5731 74.724 99.4637 74.7292 99.3387 74.7292Z" fill="black"/>
<path d="M97.8804 72.6247L97.6147 71.807C98.6408 71.4788 99.3022 71.0101 99.6356 70.3799L100.401 70.7861C99.9481 71.6195 99.1252 72.2184 97.8804 72.6247Z" fill="black"/>
<path d="M117.047 56.3285C116.526 56.3285 116.041 56.1357 115.854 56.0472C114.64 55.5055 112.099 53.6045 114.573 47.6618L114.588 47.6201L115.364 47.9951L114.979 47.8024L115.385 47.9482L115.359 48.016C113.812 51.7399 114.109 54.318 116.198 55.2607C116.62 55.4535 117.146 55.5628 117.416 55.3805C117.656 55.2295 117.708 54.8389 117.708 54.5368V53.7972L118.354 54.1618C118.568 54.2868 118.87 54.443 119.036 54.391C119.156 54.3389 119.297 54.1357 119.406 53.818C119.672 53.0837 119.151 51.7712 118.734 50.7191C118.448 50.0003 118.203 49.3805 118.172 48.9118L119.026 48.8493C119.052 49.1878 119.286 49.7764 119.531 50.4014C120.026 51.6514 120.588 53.068 120.213 54.1045C120.005 54.6982 119.713 55.0524 119.328 55.193C119.047 55.2972 118.765 55.266 118.495 55.1774C118.396 55.5993 118.187 55.9118 117.875 56.1097C117.62 56.2712 117.333 56.3285 117.047 56.3285Z" fill="black"/>
<path d="M117.875 54.8753C116.979 54.1878 116.479 53.4535 116.354 52.641L117.208 52.5107C117.297 53.0941 117.687 53.6514 118.406 54.1982L117.875 54.8753Z" fill="black"/>
<path d="M136.052 57.1351C132.438 57.1351 128.125 56.2757 125.63 55.2288C125.021 54.9736 124.568 54.7236 124.235 54.4788L123.833 54.182L124.188 53.833C125.141 52.8903 126.724 51.1351 126.943 50.4163C127.25 49.4268 127.354 43.8799 126.927 41.4997L127.776 41.3486C128.208 43.7757 128.141 49.458 127.766 50.6663C127.485 51.5934 125.917 53.2809 125.172 54.057C125.391 54.182 125.656 54.307 125.958 54.4372C128.901 55.6663 134.75 56.6611 138.432 56.1143C138.62 56.0882 138.802 56.0518 138.99 56.0153C138.886 55.5205 138.75 55.0622 138.625 54.6195C138.287 53.4528 137.99 52.4528 138.521 51.5674C138.693 51.2861 139.011 50.9736 139.458 50.5465C140.36 49.682 141.729 48.3695 142.396 46.5413C142.818 45.4163 142.922 44.2028 142.714 42.9268L143.557 42.7861C143.797 44.208 143.677 45.5674 143.203 46.8382C142.464 48.8486 141.016 50.2445 140.052 51.1611C139.688 51.5153 139.37 51.8226 139.261 52.0049C138.922 52.5674 139.156 53.3643 139.448 54.3747C139.615 54.9372 139.797 55.5726 139.912 56.2705L139.974 56.6611L139.589 56.7549C139.245 56.8434 138.901 56.9111 138.557 56.9632C137.792 57.083 136.943 57.1351 136.052 57.1351Z" fill="black"/>
<path d="M150.771 49.7861C149.552 49.7861 148.271 49.5049 147.417 49.2653C145.443 48.7184 143.437 47.7913 142.526 47.0153L143.083 46.359C144.599 47.6507 150.427 49.8122 152.562 48.5518C154.114 47.6351 155.469 40.1247 155.979 35.4893L155.578 34.8955L156.292 34.4111L156.87 35.2653L156.854 35.4163C156.719 36.6872 155.458 47.833 152.995 49.2861C152.385 49.6611 151.594 49.7861 150.771 49.7861Z" fill="black"/>
<path d="M147.807 44.4531L147.083 43.9896C147.391 43.5104 147.792 42.5729 148.24 41.2708C149.172 38.625 150.146 35.0521 150.557 33.526C150.729 32.8958 150.766 32.7656 150.787 32.7031L151.594 33.0104L151.188 32.8542L151.594 33C151.573 33.0677 151.5 33.3333 151.391 33.7448C150.969 35.2813 149.995 38.8802 149.052 41.5521C148.578 42.9375 148.156 43.9115 147.807 44.4531Z" fill="black"/>
<path d="M148.667 41.8545L148.479 41.7764L148.469 41.8024C147.526 41.3545 144.099 39.5628 141.89 38.3701C141.271 38.0368 140.755 37.7555 140.427 37.5732C139.328 36.943 139.505 35.8493 139.75 35.3545L140.521 35.7399C140.463 35.8545 140.219 36.4587 140.854 36.8232C141.177 37.0055 141.693 37.2868 142.302 37.6149C144.5 38.7972 147.906 40.5837 148.838 41.0264L148.901 41.0576L148.953 41.1097L148.661 41.4014V41.8545H148.667Z" fill="black"/>
<path d="M132.75 84.5781C132.037 84.5781 131.609 84.3854 131.583 84.375L131.386 84.276L131.349 84.0625C131.339 84.0208 130.526 79.6823 129.688 75.9115C129.162 73.5729 128.74 71.9427 128.427 71.0729C128.266 70.625 128.021 70.026 127.74 69.3229C127.589 68.9479 127.427 68.5417 127.255 68.1094C127.031 67.5625 126.703 66.724 126.391 65.8333C124.495 60.5573 124.177 56.8854 125.422 54.625L125.797 54.8281H126.229V54.9479L126.177 55.0417C125.057 57.0781 125.391 60.5156 127.198 65.5521C127.511 66.4271 127.833 67.25 128.052 67.7917C128.224 68.224 128.386 68.6302 128.537 69.0052C128.823 69.7083 129.068 70.3177 129.234 70.7812C129.557 71.6875 129.995 73.3542 130.526 75.7292C131.25 78.9948 131.958 82.6771 132.146 83.6615C132.422 83.7292 132.979 83.7969 133.761 83.5729L133.995 84.401C133.516 84.5313 133.104 84.5781 132.75 84.5781Z" fill="black"/>
<path d="M132.167 84.1455L131.365 83.8226C131.74 82.8799 132.141 82.0309 132.547 81.2913C134.511 77.6559 136.479 76.9216 137.807 76.9216C137.875 76.9216 137.943 76.9216 138.016 76.9268C137.755 75.2809 136.615 70.6663 135.167 66.4684C134.031 63.1559 132.901 60.6455 131.886 59.1976L132.594 58.708C133.927 60.609 135.172 63.8278 135.979 66.1924C137.61 70.9268 138.927 76.3903 138.927 77.4424V77.9945L138.396 77.8643C138.198 77.8122 138 77.7861 137.797 77.7861C137.787 77.7861 137.781 77.7861 137.771 77.7861C136.235 77.7861 134.693 79.1351 133.302 81.7028C132.912 82.4111 132.531 83.2288 132.167 84.1455Z" fill="black"/>
<path d="M135.927 66.5729L135.224 66.0781C135.276 66 135.344 65.9063 135.401 65.7969L136.151 66.224C136.073 66.3542 135.995 66.474 135.927 66.5729Z" fill="black"/>
<path d="M136.151 66.2243L135.406 65.792C136.417 64.0576 138.24 58.9691 138.068 56.5732L138.927 56.5107C139.109 59.1097 137.234 64.3649 136.151 66.2243Z" fill="black"/>
<path d="M129.912 76.2031L125.932 74.2604L125.875 74.099C125.734 73.7187 125.636 73.3177 125.578 72.9062C125.344 71.2448 125.781 69.5104 126.745 68.276C126.948 68.026 127.151 67.8177 127.365 67.625L127.932 68.276C127.755 68.4271 127.589 68.6094 127.422 68.8125C126.594 69.8594 126.224 71.349 126.432 72.7865C126.469 73.0833 126.537 73.3646 126.625 73.6406L130.287 75.4323L129.912 76.2031Z" fill="black"/>
<path d="M125.734 73.2347C125.239 72.9639 124.807 72.766 124.453 72.6462C123.974 72.4743 123.745 72.4847 123.672 72.4951L123.5 72.6514L123.229 72.5055C122.12 71.9066 121.521 70.641 121.698 69.2764C121.88 67.891 122.817 66.8337 124.146 66.516L124.484 66.4326L124.635 66.7451C124.953 67.4066 126.364 67.943 127.177 68.1253L126.995 68.9639C126.76 68.9118 124.854 68.4535 124.062 67.4378C123.234 67.7451 122.677 68.4535 122.552 69.3857C122.432 70.318 122.791 71.1878 123.479 71.6514C123.729 71.5993 124.125 71.6149 124.734 71.8285C125.13 71.9639 125.609 72.1826 126.156 72.4795L125.734 73.2347Z" fill="black"/>
<path d="M121.713 80.2445C121 80.2445 120.39 80.0257 119.906 79.5882C118.583 78.3903 118.432 75.7549 118.458 73.0882C118.5 69.4111 119.416 66.2288 120.687 65.3538C120.765 65.2913 120.864 65.2392 120.937 65.2028C121.713 64.8538 122.635 64.9007 123.411 65.3278C124.026 65.6663 124.458 66.1924 124.656 66.8017L123.833 67.0622C123.708 66.6715 123.401 66.3122 122.995 66.0778C122.463 65.7861 121.828 65.7497 121.302 65.9892C121.255 66.0101 121.224 66.0257 121.203 66.0413C120.312 66.6559 119.364 69.3278 119.323 73.1038C119.297 75.4476 119.416 77.9788 120.489 78.9528C120.875 79.307 121.385 79.4424 122.047 79.3642C123.672 79.1872 124.437 76.5934 124.161 72.2653L125.021 72.208C125.427 78.5205 123.682 80.0517 122.146 80.2236C121.995 80.2392 121.854 80.2445 121.713 80.2445Z" fill="black"/>
<path d="M139.271 36.0156C138.958 36.0156 138.635 35.9844 138.307 35.9271C137.109 35.724 136.208 35.1406 135.625 34.1927C135.068 33.3021 134.953 32.2656 134.953 31.5625V31.1354H135.38C135.755 31.1354 135.969 30.9323 136.312 30.5677C136.693 30.1719 137.172 29.6823 138.016 29.7083C138.224 29.7187 138.458 29.7344 138.698 29.75C139.859 29.8333 141.297 29.9427 142.115 29.1198L143.266 27.9688L142.839 29.5365C142.521 30.6875 142.688 31.3906 142.833 32.0052C142.964 32.5521 143.099 33.1198 142.818 33.8177C142.375 34.9323 141.448 35.6823 140.203 35.9271C139.906 35.9844 139.594 36.0156 139.271 36.0156ZM135.828 31.9375C135.865 32.4896 135.995 33.1562 136.359 33.7396C136.802 34.474 137.505 34.9219 138.448 35.0885C139.016 35.1875 139.552 35.1823 140.036 35.0885C141 34.901 141.682 34.349 142.026 33.5052C142.203 33.0573 142.12 32.724 142 32.2083C141.88 31.7135 141.745 31.1406 141.818 30.3385C140.807 30.7656 139.589 30.6823 138.641 30.6094C138.406 30.5937 138.188 30.5781 137.984 30.5729C137.547 30.5573 137.307 30.776 136.938 31.1667C136.661 31.4531 136.328 31.8073 135.828 31.9375Z" fill="black"/>
<path d="M134.958 31.6038C134.917 31.1351 134.911 30.6715 134.953 30.2236C135.031 29.3434 135.255 28.5778 135.625 27.9424L136.365 28.3747C136.062 28.8955 135.875 29.557 135.807 30.2965C135.776 30.6924 135.776 31.109 135.812 31.5257L134.958 31.6038Z" fill="black"/>
<path d="M142.839 29.5523L142.016 29.3023C142.24 28.5784 141.844 28.0888 141.474 27.8075C140.922 27.3856 140.068 27.1252 138.99 27.0523C137.823 26.9638 136.922 27.4221 136.365 28.3752L135.625 27.9429C136.344 26.7086 137.568 26.0836 139.052 26.1929C140.292 26.2815 141.307 26.6044 141.99 27.1252C142.812 27.7398 143.12 28.6252 142.839 29.5523Z" fill="black"/>
<path d="M129.927 31.0573C129.443 31.0573 128.938 31.0104 128.391 30.8906C127.219 30.6302 126.318 29.9948 125.724 29.0052C124.849 27.5625 124.703 25.4427 125.307 23.1771L125.552 22.2656L126.083 23.0469C126.698 23.9531 127.385 24.474 128.266 24.6875C128.969 24.8542 129.714 24.8125 130.5 24.7708C131.198 24.7344 131.927 24.6927 132.646 24.8125C135.198 25.2292 136.411 27.0521 136.427 28.1458L135.568 28.1562C135.557 27.4583 134.651 26.0104 132.51 25.6562C131.885 25.5521 131.234 25.5937 130.547 25.625C129.734 25.6719 128.891 25.7187 128.068 25.5208C127.255 25.3229 126.557 24.9115 125.953 24.2604C125.646 25.9635 125.823 27.5 126.464 28.5573C126.932 29.3385 127.646 29.8385 128.578 30.0469C130 30.3594 131.13 30.1094 132.224 29.875C133.344 29.625 134.401 29.3958 135.542 29.8542L135.38 30.25V30.6875H135.292L135.214 30.6562C134.328 30.2917 133.438 30.4896 132.411 30.7135C131.661 30.8802 130.854 31.0573 129.927 31.0573Z" fill="black"/>
<path d="M155.63 35.6356L155.417 35.6043C153.682 35.3647 152.437 35.0106 151.578 33.9949C151.364 33.7501 151.109 33.4533 150.859 33.1199C150 32.047 149.432 31.0887 149.177 30.2762C148.932 29.5158 148.963 28.8595 149.265 28.3439C149.713 27.5626 150.338 27.3283 150.802 27.3126C150.969 26.896 151.338 26.2241 152.015 25.9428C152.552 25.7241 153.151 25.7814 153.802 26.1251C154.396 25.9064 155.021 25.9585 155.5 26.2814C155.792 26.4793 156 26.7606 156.094 27.0626C157.094 27.2553 157.802 28.2345 157.937 29.6564C157.984 30.0887 157.974 30.5626 157.901 31.0418C157.646 32.8751 156.88 34.1668 156.281 34.922C156.135 35.1095 155.974 35.2918 155.786 35.4793L155.63 35.6356ZM150.849 28.172C150.661 28.172 150.307 28.2501 150.01 28.7762C149.833 29.0783 149.833 29.4949 149.995 30.021C150.219 30.7241 150.745 31.6095 151.526 32.5939C151.776 32.9116 152.021 33.1981 152.229 33.4376C152.818 34.1356 153.63 34.4793 155.318 34.7293C155.422 34.6147 155.515 34.5053 155.599 34.4012C156.135 33.7241 156.818 32.5783 157.047 30.9376C157.109 30.5158 157.114 30.1199 157.078 29.7501C156.989 28.8543 156.588 27.896 155.713 27.896H155.25L155.281 27.4324C155.292 27.2918 155.187 27.1199 155.015 27.0001C154.88 26.9116 154.51 26.7293 153.958 27.0001L153.75 27.0991L153.547 26.9793C153.068 26.6928 152.661 26.6147 152.338 26.7449C151.844 26.9481 151.568 27.6356 151.505 27.8856L151.39 28.3178L150.963 28.1928C150.958 28.1824 150.911 28.172 150.849 28.172Z" fill="black"/>
<path d="M151.812 31.2139C151.167 31.2139 150.562 30.8649 150.125 30.4222L150.734 29.818C151.073 30.1566 151.745 30.6462 152.432 30.1253C152.484 30.0837 152.521 30.0524 152.547 30.016C152.74 29.7347 152.276 29.2295 152.13 29.0785C151.823 28.766 151.391 28.4482 150.88 28.1462L151.312 27.4014C151.896 27.7399 152.385 28.1097 152.74 28.4743C153.724 29.4691 153.484 30.167 153.255 30.4951C153.182 30.6045 153.083 30.7087 152.953 30.8076C152.578 31.0941 152.188 31.2139 151.812 31.2139Z" fill="black"/>
<path d="M152 28.792C151.974 28.0732 152.51 26.7868 153.578 26.2295L153.974 26.9899C153.219 27.3805 152.849 28.3493 152.865 28.7555L152 28.792Z" fill="black"/>
<path d="M155.052 31.9274C154.443 31.9274 153.912 31.5941 153.724 31.0732C153.682 30.9587 153.651 30.8285 153.63 30.6826C153.474 29.5264 154.224 28.0628 155.453 27.1201L155.974 27.8024C154.875 28.641 154.391 29.8545 154.485 30.5732C154.495 30.6618 154.511 30.7243 154.526 30.7764C154.599 30.9691 154.833 31.0889 155.115 31.068C155.563 31.0368 156.11 30.6566 156.313 29.6878L157.156 29.8649C156.849 31.2972 155.932 31.8701 155.177 31.9222C155.13 31.9274 155.094 31.9274 155.052 31.9274Z" fill="black"/>
<path d="M153.703 31.1507C153.557 31.1507 153.401 31.1247 153.245 31.0726C152.86 30.9424 152.589 30.6872 152.49 30.3799L153.318 30.1299C153.323 30.1507 153.386 30.2132 153.505 30.2549C153.656 30.307 153.766 30.2965 153.792 30.2809L154.292 30.9788C154.136 31.0934 153.927 31.1507 153.703 31.1507Z" fill="black"/>
<path d="M117.818 49.3538C116.844 49.3538 115.583 49.1247 114.656 48.1143C114.458 47.9059 114.276 47.6507 114.12 47.3695L114.057 47.2549L114.068 47.1195C114.104 46.7757 114.937 38.5882 118.026 35.9424C120.979 33.4215 129.036 33.8174 133.557 34.8799C133.885 34.9528 134.208 35.0361 134.542 35.1351C135.255 35.0986 135.573 33.8799 135.573 33.8643L136.406 34.0674C136.385 34.1455 135.906 36.0361 134.469 35.9893L134.354 35.9736C134.021 35.8747 133.693 35.7861 133.359 35.7132C128.838 34.6507 121.187 34.3643 118.583 36.5882C115.953 38.8382 115.052 45.984 114.932 47.0674C115.036 47.2393 115.156 47.3955 115.281 47.5257C116.245 48.5674 117.734 48.5518 118.536 48.4424C118.682 48.4268 118.812 48.4007 118.911 48.3851C119.208 46.6247 120.328 40.8851 122.213 40.3278C123.745 39.8695 126.635 40.734 127.484 41.0153C128.979 41.4945 130.193 42.0622 130.734 42.5361L130.172 43.182C129.724 42.7913 128.568 42.2653 127.219 41.8278C125.172 41.1663 123.302 40.8955 122.453 41.1507C121.359 41.4736 120.187 45.8226 119.708 48.807L119.667 49.0726L119.401 49.1507C119.39 49.1507 119.094 49.234 118.646 49.2965C118.417 49.333 118.135 49.3538 117.818 49.3538Z" fill="black"/>
<path d="M137.89 41.2601C137.302 41.2601 136.797 41.1924 136.489 41.109C135.776 40.9111 134.015 40.2861 133.182 38.7236C132.64 37.708 132.599 36.5101 133.052 35.1611L133.458 35.2913H133.896V35.3643L133.87 35.4268C133.495 36.5465 133.515 37.5153 133.943 38.307C134.635 39.6143 136.245 40.1403 136.719 40.2705C137.37 40.4424 139.219 40.557 140.479 39.7549C141.135 39.333 141.536 38.7184 141.677 37.9111L142.521 38.0622C142.338 39.109 141.802 39.9268 140.937 40.4788C140.005 41.083 138.838 41.2601 137.89 41.2601Z" fill="black"/>
<path d="M73.2135 43.1618H67.7708L67.7656 42.3024H72.3542V26.6514L93.974 19.193V9.9222L111.286 2.91699L128.557 9.90658L128.589 10.1566C128.682 10.917 128.604 23.6566 128.594 25.1045L127.734 25.0993C127.766 19.8441 127.797 12.0472 127.75 10.5055L111.286 3.84408L94.8333 10.4951V19.8024L73.2135 27.2607V43.1618Z" fill="black"/>
<path d="M188.333 66.443H135.776V65.5837H187.474V38.9691H177.89V25.8701L160.026 19.4847L142.161 25.8701V27.4587H141.297V25.266L160.026 18.5732L178.75 25.266V38.1097H188.333V66.443Z" fill="black"/>
<path d="M129.594 108.229H129.495V107.812L129.182 107.494L129.318 107.442L129.495 107.364V107.771L129.531 107.838L129.786 108.104L129.547 107.859L129.708 108.172L129.594 108.229Z" fill="black"/>
<path d="M101.604 131.719L101.208 130.958L134.714 110.505L129.443 108.255L116.521 111.068L117.516 110.042C119.557 107.948 122.432 104.974 123.688 103.656C122.146 103.63 118.479 103.5 109.557 103.115L109.526 102.255L131.672 99.4115L127.36 104.823L137.672 103.281L167.979 88.4531L151.354 85.2552L158.281 82.9688L145.901 77.8073L174.026 69.0781L174.344 69.875L158.797 77.7656L164.083 81.151L172.906 79.2396L169.125 76.974L186.557 73.0208L176.485 77.8125L181.208 80.5312L169.88 83.7135L183.208 88.1562L165.745 97.4375C170.662 97.6719 176.318 98.3385 176.386 98.3438L177.115 98.4323L174.823 101.583L185.443 101.469L185.537 102.323L167.172 106.224L170.828 101.646L159.49 100.771L149.974 105.823L160.63 112.76L144.828 112.755L101.604 131.719ZM129.526 107.354L136.589 110.37L107.11 128.37L144.636 111.896L157.724 111.906L148.271 105.755L159.292 99.8958L172.5 100.922L169.333 104.885L181.13 102.38L173.115 102.464L175.552 99.1198C173.625 98.9063 168.287 98.349 164.125 98.2396L162.49 98.1979L181.031 88.3438L166.948 83.6458L179.005 80.2604L174.636 77.75L179.193 75.5781L171.406 77.349L175.208 79.6302L163.922 82.0833L157.073 77.6875L169.422 71.4219L148.422 77.9427L160.745 83.0781L154.771 85.0521L170.672 88.1146L137.865 104.135L125.323 106.016L129.672 100.552L114.646 102.479C119.266 102.667 123.875 102.839 124.531 102.818L124.781 102.688L125 102.984C125.229 103.292 125.229 103.292 123.917 104.672C123.276 105.339 122.422 106.224 121.563 107.115C120.672 108.031 119.776 108.953 119.13 109.625L129.526 107.354Z" fill="black"/>
<path d="M138.583 95.9534C138.552 95.9534 138.521 95.9534 138.495 95.9534C138.068 95.9378 137.734 95.8336 137.469 95.6409C136.318 94.8284 136.859 92.7711 137.625 90.3701C138.318 88.193 140.286 83.1149 143.708 82.9951C144.37 82.9638 144.854 83.318 145.047 83.9482C145.573 85.6461 143.953 89.1826 143.443 90.2242L143.276 90.5576C141.807 93.568 140.64 95.9534 138.583 95.9534ZM143.771 83.8492C143.76 83.8492 143.745 83.8492 143.734 83.8492C140.781 83.9534 138.932 89.0628 138.437 90.6305C137.989 92.0472 137.229 94.4222 137.963 94.943C138.094 95.0367 138.276 95.0836 138.521 95.0992C138.542 95.0992 138.557 95.0992 138.578 95.0992C140.104 95.0992 141.167 92.9222 142.505 90.1826L142.667 89.844C143.88 87.3701 144.5 85.0992 144.219 84.2034V84.1982C144.146 83.943 144.021 83.8492 143.771 83.8492Z" fill="black"/>
<path d="M137.599 95.7032C136.636 95.4167 135.292 93.0157 135.448 90.599C135.469 90.3073 135.505 90.0521 135.557 89.8125C135.979 87.8177 137.63 84.599 138.917 82.8386C139.261 82.3594 139.563 82.0209 139.818 81.8282C140.734 81.1302 141.922 80.9167 142.922 81.2709C143.662 81.5365 144.63 82.2188 145.057 83.9792C145.063 83.9948 145.078 84.0469 145.083 84.0886L144.24 84.224L144.662 84.1563L144.24 84.2396L144.219 84.1771C143.958 83.0782 143.406 82.3594 142.63 82.0834C141.901 81.823 141.026 81.9844 140.339 82.5105C140.234 82.5938 139.995 82.8021 139.609 83.3438C138.401 85 136.787 88.1355 136.396 89.9948C136.354 90.198 136.323 90.4167 136.307 90.6615C136.162 92.823 137.406 94.7552 137.839 94.8855L137.599 95.7032Z" fill="black"/>
<path d="M135.443 90.7031C134.974 88.0677 134.172 85.6563 133.573 84.0938C133.14 82.9531 132.755 82.1042 132.542 81.6927L133.302 81.2969C133.526 81.7292 133.927 82.6146 134.375 83.7917C134.979 85.3906 135.802 87.8594 136.286 90.5521L135.443 90.7031Z" fill="black"/>
<path d="M138.818 83.2607C138.708 83.1045 138.427 82.6826 137.713 79.1826L138.557 79.0107C139.182 82.1045 139.463 82.6774 139.531 82.7764L138.818 83.2607Z" fill="black"/>
<path d="M137.719 79.1774C137.521 78.1982 137.38 77.4274 137.38 77.4274L138.229 77.2764C138.229 77.2764 138.37 78.0368 138.563 79.0107L137.719 79.1774Z" fill="black"/>
<path d="M138.516 79.3024L138.141 79.0941L137.708 79.0993V78.9847L137.766 78.8805C137.771 78.8805 138.115 78.2191 138.073 77.4691L138.932 77.417C138.99 78.443 138.521 79.292 138.516 79.3024Z" fill="black"/>
<path d="M72.5259 66.1354H23.8696V46.1354L32.2655 34.8646L59.3384 34.8125V35.6719H58.6457L32.6978 35.724L24.729 46.4219V65.276H72.5207L72.5259 66.1354Z" fill="black"/>
<path d="M98.6304 66.1357H92.297L92.2866 65.2764H98.6304V66.1357Z" fill="black"/>
<path d="M105.297 65.2764H120.932V66.1357H105.297V65.2764Z" fill="black"/>
<path d="M64.0521 111.286L63.9375 111.26L64.25 110.458L64.0938 110.859L64.1979 110.442L64.2552 110.453L64.0521 111.286Z" fill="black"/>
<path d="M64.1825 111.307H64.0106L63.9533 111.26L60.1147 109.896L64.6095 110.494L64.6147 110.906L64.5887 111.307H64.1825Z" fill="black"/>
<path d="M67.8696 111.703L43.453 109.047L50.9582 102.885L29.1717 96.9997L51.953 84.2966L47.3853 83.0778L41.6978 84.8278L42.8592 86.3538L26.9894 88.6091L36.9425 84.833L35.9946 83.6038L41.8123 81.6038L26.8228 77.609L36.3384 65.4528L37.0207 65.984L28.3019 77.1143L44.755 81.4997L37.4009 84.0309L38.328 85.2341L34.5259 86.6768L41.2863 85.7184L40.2707 84.3747L47.3644 82.1924L54.2238 84.0205L31.4373 96.7184L52.7915 102.484L45.578 108.411L60.3228 110.015L50.63 106.682L57.1196 101.843L36.8748 96.0622L50.505 89.4528L57.2863 91.3434L53.9478 94.432L63.1978 95.1976L56.9842 92.9893L60.0623 90.0309L52.3905 87.5309L53.3332 87.0674C57.1353 85.182 59.828 83.8434 61.203 83.1559L33.0259 76.0309L45.5936 65.3799L46.1509 66.0361L34.8592 75.6038L63.6561 82.8851L62.6196 83.4059C62.6196 83.4059 59.755 84.833 54.6561 87.3643L61.6925 89.6559L58.578 92.6403L69.6978 96.5986L51.9217 95.1299L55.5623 91.7549L50.578 90.3695L39.2811 95.8486L59.0311 101.489L52.453 106.401L67.8696 111.703Z" fill="black"/>
<path d="M101.865 34.6045H93.6304V26.3701H101.865V34.6045ZM94.4897 33.7451H101.005V27.2295H94.4897V33.7451Z" fill="black"/>
<path d="M120.964 23.1403H112.734V14.9111H120.964V23.1403ZM113.594 22.2809H120.104V15.7705H113.594V22.2809Z" fill="black"/>
<path d="M174.614 47.7031H166.385V39.4688H174.614V47.7031ZM167.245 46.8385H173.755V40.3281H167.245V46.8385Z" fill="black"/>
<path d="M86.5104 46.7083C86.5052 46.7083 86.4896 46.7083 86.4844 46.7083C85 46.7083 83.6406 45.9635 82.75 44.6719C82.6198 44.4948 82.4948 44.2917 82.375 44.0573C82.0365 43.3854 81.849 42.6667 81.8229 41.9427C81.6771 41.9167 81.5365 41.8594 81.4115 41.776C80.6875 41.2917 80.5781 40.0677 80.5625 39.9271L80.5312 39.4531L81.0104 39.4688C81.1302 39.474 81.2552 39.4896 81.3906 39.5104C82.1042 39.6042 83.0781 39.7292 84.75 35.9792L85.0365 35.3438L85.474 35.8854C86.3854 37.0052 88.2552 38.8281 90.625 38.4531L91.0833 38.3802L91.1146 38.8438C91.1667 39.5104 91.2083 40.5312 91.0938 41.6146C90.8438 43.9167 90.0208 45.4635 88.6302 46.2188C88.0156 46.5417 87.3021 46.7083 86.5104 46.7083ZM82.724 40.8802L82.6875 41.5104C82.6458 42.2396 82.7969 42.9844 83.1458 43.6667C83.2396 43.8594 83.3385 44.0208 83.4479 44.1667C84.1823 45.2344 85.2917 45.8438 86.4896 45.8438C87.1458 45.8438 87.724 45.7187 88.224 45.4479C89.3437 44.8385 90.0208 43.5156 90.2396 41.5104C90.3281 40.7083 90.3177 39.9427 90.2865 39.3385C88.0625 39.4792 86.3073 38.0833 85.2448 36.9271C83.724 40.1042 82.599 40.4635 81.5104 40.375C81.599 40.6719 81.7292 40.9479 81.8854 41.0521C81.9323 41.0885 81.9948 41.1146 82.1146 41.0677L82.724 40.8802Z" fill="black"/>
<path d="M85.8073 50.0524C85.7552 50.0524 85.7031 50.0524 85.651 50.0472C84.1094 49.9899 82.7292 49.1305 82.2969 47.9587L82.2656 47.8597L82.6458 44.4014L83.5 44.5003L83.1406 47.7503C83.4896 48.5472 84.5417 49.1514 85.6823 49.193C86.224 49.2087 87.5313 49.1149 88.1823 47.8128L88.0052 45.8701L88.8594 45.7972L89.0573 47.9587L89.0104 48.0628C88.4479 49.318 87.25 50.0524 85.8073 50.0524Z" fill="black"/>
<path d="M82.578 44.2708C81.0103 43.5937 80.2291 42.0208 80.0624 39.1666C79.9739 37.6093 80.4947 36.1822 81.5416 35.1406C82.4791 34.2135 83.7655 33.6927 85.0103 33.7395C85.8385 33.3072 86.9322 33.2864 88.1197 33.6874C89.901 34.2864 91.6093 35.7291 92.1822 37.1197C92.8072 38.6354 92.4843 40.1041 91.9739 40.9739C91.6249 41.5677 91.1718 41.9374 90.7291 41.9947L90.6249 41.1406C90.7343 41.1302 90.9895 40.9583 91.2291 40.5416C91.6353 39.8489 91.8905 38.6718 91.3905 37.4531C90.9114 36.2864 89.3853 35.0208 87.8437 34.4999C86.8437 34.1666 85.953 34.177 85.328 34.5416L85.2135 34.6041L85.0832 34.5989C84.0416 34.5312 82.9426 34.9583 82.1457 35.7499C81.276 36.6093 80.8385 37.8072 80.9166 39.1093C81.1041 42.2812 82.0364 43.0989 82.9166 43.4791L82.578 44.2708Z" fill="black"/>
<path d="M86.8175 45.1092C86.7342 45.1092 86.6457 45.0935 86.5623 45.0675C85.9582 44.8852 85.6717 44.1664 85.8904 43.4269C86.005 43.0206 86.2602 42.6769 86.5884 42.4998C86.8279 42.3644 87.0988 42.3331 87.3384 42.4112C87.5779 42.4789 87.7863 42.6508 87.9165 42.8956C88.0936 43.2185 88.13 43.6404 88.0102 44.0467C87.8227 44.6873 87.3332 45.1092 86.8175 45.1092ZM87.0779 43.2342C87.0467 43.2342 87.0207 43.2498 86.9998 43.2602C86.9061 43.3123 86.7811 43.4477 86.7134 43.6717C86.6248 43.9789 86.7238 44.2185 86.8071 44.2446C86.8852 44.2706 87.0988 44.1144 87.1873 43.8123V43.8071C87.2498 43.5831 87.2238 43.4008 87.1717 43.3019C87.1613 43.2862 87.1352 43.2446 87.0988 43.2342C87.0936 43.2394 87.0832 43.2342 87.0779 43.2342Z" fill="black"/>
<path d="M65.724 37.3438C65.3646 37.3438 64.9949 37.2396 64.6459 36.974C64.1563 36.6094 64.0469 36.1719 64.0417 35.8698C64.0313 35.2917 64.3803 34.6771 65.0261 34.1458C65.573 33.6875 66.2761 33.3385 67.0157 33.1562L67.2292 33.9896C66.6146 34.1458 66.0261 34.4323 65.5782 34.8073C65.1511 35.1615 64.8959 35.5469 64.9011 35.849C64.9063 36.0156 64.9949 36.1563 65.1667 36.2865C66.0417 36.9427 67.2084 35.6979 67.2188 35.6875L67.8542 36.2656C67.4376 36.7187 66.599 37.3438 65.724 37.3438Z" fill="black"/>
<path d="M64.9269 34.6878L64.9061 34.6514C64.6353 34.1826 64.0675 33.2087 63.3696 33.1305L63.4686 32.2764C64.5936 32.4066 65.3071 33.6305 65.6509 34.2191L65.6717 34.2555L64.9269 34.6878Z" fill="black"/>
<path d="M62.3075 38.4583C61.995 38.4583 61.6668 38.3542 61.3595 38.151C59.9377 37.2135 59.6825 35.9427 59.6772 35.8906L60.521 35.7344C60.5314 35.7708 60.7293 36.7135 61.8335 37.4375C62.1147 37.625 62.3595 37.6563 62.5783 37.5365C62.8752 37.3802 63.0627 37.0104 63.0627 36.7552C63.0627 36.6875 63.0575 36.651 63.047 36.6406C62.0418 34.9219 61.3022 34.2865 60.9793 34.2656L61.0366 33.4062C61.8127 33.4583 62.7137 34.375 63.7918 36.2135C63.8856 36.3802 63.9272 36.5729 63.9272 36.7812C63.9168 37.2917 63.5887 37.9844 62.9845 38.3021C62.7658 38.401 62.5418 38.4583 62.3075 38.4583Z" fill="black"/>
<path d="M63.9686 37.2757C63.755 37.2757 63.5311 37.2393 63.3228 37.1507L63.6665 36.359C63.9998 36.5049 64.5571 36.3174 64.7238 36.2393L65.0832 37.0205C65.0103 37.0518 64.5155 37.2757 63.9686 37.2757Z" fill="black"/>
<path d="M140.062 34.5209C139.984 34.5209 139.911 34.5105 139.833 34.4844C139.318 34.3334 139.062 33.7188 139.25 33.0938C139.344 32.7553 139.562 32.474 139.833 32.323C140.047 32.2084 140.276 32.1772 140.489 32.2397C141.005 32.3907 141.26 33.0053 141.073 33.6355C140.911 34.1719 140.495 34.5209 140.062 34.5209ZM140.229 33.0626C140.229 33.0782 140.125 33.1615 140.073 33.3334C140.021 33.5105 140.062 33.6407 140.088 33.6667C140.088 33.6511 140.198 33.5626 140.25 33.3907C140.302 33.2136 140.26 33.0834 140.229 33.0626Z" fill="black"/>
<path d="M41.2241 56.276H31.5522V46.6094H41.2241V56.276ZM32.4116 55.4167H40.3647V47.4688H32.4116V55.4167Z" fill="black"/>
<path d="M123.208 65.2764H126.761V66.1357H123.208V65.2764Z" fill="black"/>
<path d="M29.354 39.6514C26.1873 38.2087 24.9686 34.3701 25.6665 31.6357C26.0936 29.9535 27.1873 28.9014 28.6717 28.6878C26.5936 25.8701 26.7654 23.7868 27.3123 22.5055C28.2186 20.3962 30.6196 19.318 32.5988 19.1826C34.0259 19.0889 35.2654 19.4326 36.0988 20.1357C36.8957 15.3285 39.005 11.9951 41.9686 10.9378C44.1248 10.1618 46.479 10.7139 48.2654 12.4014C50.7082 14.7087 51.5415 18.4743 50.5519 22.5837C54.0363 21.3805 55.4582 22.7035 56.005 23.6462C57.0884 25.5003 56.4165 28.568 55.0779 30.2087C59.5207 31.1305 59.2186 33.9118 59.0988 34.9951C59.0884 35.0993 59.0779 35.1878 59.0727 35.2555L58.2134 35.2191C58.2186 35.1357 58.229 35.0264 58.2446 34.9014C58.3592 33.8076 58.6144 31.5264 54.13 30.917L53.1144 30.7764L53.9269 30.1514C55.3592 29.0368 56.2863 25.8285 55.2602 24.0732C54.2654 22.3701 51.9009 22.9222 50.0884 23.6774L49.255 24.0264L49.5102 23.1618C50.729 19.042 50.0415 15.2503 47.6769 13.016C46.13 11.5576 44.1092 11.0785 42.2602 11.7399C39.4321 12.7555 37.4477 16.193 36.8175 21.167L36.6665 22.4014L36.0259 21.3337C35.4686 20.4118 34.2134 19.9274 32.6613 20.0316C30.9425 20.1462 28.8696 21.0576 28.1092 22.8337C27.3957 24.5003 27.9998 26.568 29.8644 28.8076L30.5102 29.5785L29.4998 29.5055C27.4425 29.3545 26.7394 30.9066 26.4998 31.8389C25.8852 34.2451 27.0311 37.641 29.7134 38.8597L29.354 39.6514Z" fill="black"/>
<path d="M183.875 38.9013L183.411 38.1774C184.557 37.4482 185.833 35.1409 186.599 32.4482C187.432 29.5055 187.479 26.8076 186.719 25.2294C185.937 23.6096 184.328 23.2034 181.927 24.0211L180.312 24.568L181.474 23.318C184.458 20.1044 184.917 13.0367 182.953 11.0211C182.214 10.2659 181.203 10.4534 179.948 11.568L178.979 12.4274L179.24 11.1565C180.135 6.78152 178.766 3.40652 177.115 2.12527C176.307 1.49506 175.448 1.34923 174.687 1.71381C173.917 2.0836 172.115 3.59402 172.052 9.52631L172.036 11.2086L171.245 9.72943C170.901 9.08881 169.677 8.9586 168.734 9.46381C167.089 10.344 166.958 12.443 168.365 15.094L168.917 16.1201L167.828 15.6982C166.932 15.3492 166.094 15.4586 165.479 16.0159C164.521 16.8753 164.271 18.5419 164.802 20.469L163.974 20.6982C163.354 18.4482 163.698 16.4586 164.901 15.3753C165.531 14.8076 166.344 14.5628 167.198 14.6617C165.812 11.4794 166.823 9.51068 168.328 8.7086C169.297 8.18777 170.427 8.17735 171.219 8.57839C171.458 3.1461 173.24 1.4586 174.318 0.937767C175.37 0.432559 176.583 0.614851 177.646 1.44298C179.417 2.82318 180.828 6.02631 180.266 10.2503C181.937 9.2086 183.031 9.86485 183.568 10.4169C184.656 11.5263 185.177 13.9378 184.927 16.7034C184.714 19.0732 183.995 21.2451 182.922 22.8544C185.625 22.344 186.896 23.5992 187.5 24.8492C189.318 28.6357 186.75 37.0628 183.875 38.9013Z" fill="black"/>
<mask id="mask2_5558_5493" style="mask-type:luminance" maskUnits="userSpaceOnUse" x="0" y="64" width="217" height="79">
<path d="M0.15625 64H216.156V142.604H0.15625V64Z" fill="white"/>
</mask>
<g mask="url(#mask2_5558_5493)">
<path d="M100 142.208L69.8698 131.755H49.9167L8.34896 110.989L22.2083 97.9788L0.15625 84.2236V77.0778L24.1094 65.3174L24.4844 66.0882L1.01562 77.6143V83.7393L23.6146 97.8382L9.83333 110.776L50.1198 130.896H70.0156L70.0833 130.916L100.036 141.307L181.12 119.635V113.328L214.823 95.2028L198.615 80.5674L188.365 77.5309L195.703 71.5049L187.672 66.3695L188.135 65.6507L197.167 71.4215L190.161 77.1663L199.047 79.8018L199.115 79.8695L216.307 95.3799L181.984 113.843V120.297L100 142.208Z" fill="black"/>
</g>
</svg>
