<svg width="217" height="148" viewBox="0 0 217 148" fill="none" xmlns="http://www.w3.org/2000/svg">
<mask id="mask0_5516_26839" style="mask-type:luminance" maskUnits="userSpaceOnUse" x="0" y="0" width="217" height="148">
<path d="M0.150879 0.604492H216.151V147.604H0.150879V0.604492Z" fill="white"/>
</mask>
<g mask="url(#mask0_5516_26839)">
<path d="M216.276 42.8701L199.062 2.71387L198.953 2.46387L176.849 1.57845L176.76 1.32845L165.609 8.90137L157.193 9.60449L157.177 9.52637L132.599 16.5785L133.906 25.6722H115.693V38.016H102.984V47.042H92.0521V32.9639H76.7969L79.0573 23.4118L57.6927 16.5993L57.7448 16.4014L47.9531 17.3389L46.4062 3.19303L48.2812 2.63574L22.7604 0.614909L22.6719 0.604492L0.552083 7.84928L2.08333 8.05762L6.83333 41.9222L6.83854 41.9535L7.26562 41.9014L6.83854 41.9639L9.04167 57.6514L0.1875 64.0107V109.521L0.380208 109.563L16.5208 129.032L16.6458 129.183L53.974 130.479L91.4479 147.151L91.5312 147.188H146.391L170.427 136.922C171.115 136.849 177.052 136.245 183.021 135.667C190.766 134.907 195.318 134.511 196.193 134.511C198.432 134.511 213.766 124.282 215.974 122.802H216.276V42.8701Z" fill="black"/>
</g>
<mask id="mask1_5516_26839" style="mask-type:luminance" maskUnits="userSpaceOnUse" x="191" y="39" width="26" height="85">
<path d="M191.333 39.667H216.151V123.667H191.333V39.667Z" fill="white"/>
</mask>
<g mask="url(#mask1_5516_26839)">
<path d="M215.844 108.745V122.359H191.755L191.938 46.1302L203.104 40.5156C203.104 40.5156 204.292 48.0521 205.182 47.4635C206.068 46.875 215.844 42.9583 215.844 42.9583V108.745Z" fill="#FF9F43"/>
</g>
<mask id="mask2_5516_26839" style="mask-type:luminance" maskUnits="userSpaceOnUse" x="175" y="1" width="42" height="47">
<path d="M175.333 1H216.151V47.6667H175.333V1Z" fill="white"/>
</mask>
<g mask="url(#mask2_5516_26839)">
<path d="M198.662 2.88021L215.844 42.9583C215.844 42.9583 206.068 46.875 205.183 47.4635C204.292 48.0521 203.104 40.5156 203.104 40.5156L191.938 46.1302L176.542 2L198.662 2.88021Z" fill="#FF9F43"/>
</g>
<mask id="mask3_5516_26839" style="mask-type:luminance" maskUnits="userSpaceOnUse" x="130" y="71" width="87" height="65">
<path d="M130 71.667H216.151V135.667H130V71.667Z" fill="white"/>
</mask>
<g mask="url(#mask3_5516_26839)">
<path d="M191.761 122.365H215.844C215.844 122.365 198.401 134.073 196.188 134.073C195.115 134.073 188.995 134.641 182.974 135.235V135.229L131.026 75.5212C129.875 74.2243 130.792 72.1826 132.526 72.1826H141.047L141.917 78.2295L150.177 82.3128L148.995 91.2295L159.953 100.756L167.058 99.292L191.761 122.365Z" fill="#3B3A3A"/>
</g>
<path d="M170.323 60.7917L160.63 33.7031L154.62 16.8854L157.745 14.7604L165.755 9.32292L176.542 2L191.943 46.1302L191.76 122.365L167.062 99.2969V59.901L170.323 60.7917Z" fill="#5FB6BE"/>
<mask id="mask4_5516_26839" style="mask-type:luminance" maskUnits="userSpaceOnUse" x="32" y="65" width="152" height="83">
<path d="M32.6665 65H183.333V147.604H32.6665V65Z" fill="white"/>
</mask>
<g mask="url(#mask4_5516_26839)">
<path d="M49.0778 111.229L80.682 75.8232C82.1091 74.2243 81.1872 72.1826 79.4528 72.1826H70.9945V65.7868H139.521L140.114 65.6982L141.047 72.1826H132.526C130.797 72.1826 129.875 74.2243 131.026 75.5212L182.979 135.229V135.235C176.593 135.854 170.323 136.495 170.323 136.495L146.307 146.756H91.6195L120.354 134.62L138.771 137.959L156.807 112.558L141.078 108.323L147.375 103.693L141.203 102.146L144.177 97.9899L137.041 102.979L141.437 104.636L137.281 107.25L127.901 104.407L134.911 92.6514L122.088 89.0837L126.005 82.792L108.911 78.8753L111.166 76.3076L102.494 74.1253L96.807 70.7347L100.713 74.8337L106.651 76.9743L103.682 78.9899L118.172 84.5732L109.864 91.4587L124.823 95.8545L114.14 106.183L124.218 112.235H128.255L130.896 113.688L117.218 116.037L117.927 119.719L108.312 116.037L99.0518 121.615L108.427 117.339L120.302 123.245L120.14 117.61L134.963 115.933L140.125 118.766L130.786 130.157H119.078L91.6143 146.75L54.0674 130.047L32.9268 129.313L49.0778 111.229ZM96.3018 120.104C97.2705 116.766 97.4736 111.933 96.8747 106.797C97.0101 103.87 97.0934 100.495 97.0986 96.2295C96.8799 94.4691 96.6403 93.0107 96.3955 91.8232C95.5518 87.8024 94.6455 86.766 94.6455 86.766C94.6455 86.766 87.208 86.1357 82.0101 86.4587C77.833 86.7295 75.8747 86.9639 75.2653 87.0732C73.6195 88.2607 72.2966 89.6878 71.2705 91.2295C69.5361 93.8493 68.6455 96.8128 68.4007 99.5472C65.5882 102.016 63.3382 105.506 62.0934 109.172C61.6872 110.354 61.3955 111.558 61.2184 112.745C61.0361 113.943 60.9788 115.131 61.0518 116.276C61.6195 116.438 62.5049 116.599 63.6247 116.75V116.766C63.807 118.349 64.5153 119.558 65.083 120.104H67.9684C68.6768 119.511 69.0413 118.506 69.1924 117.297V117.271C75.833 117.703 84.8591 117.802 91.3174 117.11C91.3174 118.151 91.8122 119.563 92.3747 120.104H96.3018Z" fill="#3B3A3A"/>
</g>
<path d="M160.63 33.7031L170.323 60.7917L167.062 59.901V78.2292H162.911L161.135 80.9323L157.635 79.4375L150.177 82.3177L141.917 78.2292L141.047 72.1823L140.109 65.6979L134.401 26.0938L133.078 16.8854L156.844 10.0625L157.745 14.7604L154.62 16.8854L160.63 33.7031Z" fill="#9C7C6A"/>
<path d="M167.062 78.2295V99.2972L159.953 100.761L162.911 78.2295H167.062Z" fill="#3B3A3A"/>
<path d="M165.755 9.32324L157.745 14.7607L156.844 10.0628L165.755 9.32324Z" fill="#3B3A3A"/>
<path d="M162.911 78.2295L159.953 100.761L148.995 91.2295L150.177 82.318L157.635 79.4378L161.135 80.9326L162.911 78.2295Z" fill="#9C7C6A"/>
<path d="M116.125 34.1354V26.099H134.365L134.401 26.0938L140.11 65.6979L139.516 65.7865H70.9897V55.5677L76.2502 33.3958H91.62V47.4635H103.412V38.4375H116.125V34.1354Z" fill="#FF9F43"/>
<mask id="mask5_5516_26839" style="mask-type:luminance" maskUnits="userSpaceOnUse" x="91" y="70" width="67" height="78">
<path d="M91.3335 70.333H158V147.604H91.3335V70.333Z" fill="white"/>
</mask>
<g mask="url(#mask5_5516_26839)">
<path d="M108.313 116.031L117.927 119.713L117.219 116.031L130.896 113.687L128.256 112.234H124.219L114.136 106.182L124.818 95.8483L109.854 91.4577L118.167 84.5723L103.683 78.9889L106.651 76.9733L100.714 74.8327L96.8076 70.7285L102.49 74.1191L111.162 76.3014L108.907 78.8691L126.006 82.7858L122.089 89.0775L134.912 92.6452L127.901 104.4L137.282 107.249L141.438 104.635L137.042 102.979L144.183 97.9837L141.203 102.14L147.375 103.687L141.084 108.317L156.813 112.551L138.771 137.952L120.36 134.614L91.6201 146.749L119.084 130.156H130.792L140.131 118.765L134.969 115.932L120.146 117.609L120.308 123.244L108.433 117.338L99.0524 121.614L108.313 116.031Z" fill="black"/>
</g>
<path d="M96.875 106.797C97.4687 111.927 97.2708 116.766 96.3021 120.104H92.3646C91.8021 119.562 91.3125 118.151 91.3125 117.109C93.224 116.901 94.9219 116.63 96.2552 116.281C96.4948 113.281 96.724 110.385 96.875 106.797Z" fill="#9C7C6A"/>
<path d="M97.0988 96.2295C97.0936 100.495 97.0103 103.87 96.8749 106.797C96.7186 110.386 96.4895 113.282 96.2551 116.276C94.9165 116.631 93.2238 116.896 91.3124 117.104C84.8488 117.792 75.828 117.693 69.1822 117.266C67.0207 117.125 65.1093 116.948 63.6197 116.745C62.4999 116.594 61.6145 116.438 61.0468 116.271C60.9686 115.125 61.0259 113.938 61.2082 112.74L69.4582 113.276L68.3905 110.089L62.0884 109.172C63.3332 105.506 65.578 102.016 68.3905 99.5472C71.8697 101.922 89.2343 102.183 94.6405 100.016C94.6405 100.016 95.8905 96.5889 96.3853 91.8232H96.3905C96.6457 93.0107 96.8801 94.4639 97.0988 96.2295ZM93.9218 112.792V109.172L86.0728 109.99C85.604 110.276 84.5363 113.276 84.5363 113.276L93.9218 112.792ZM82.5363 113.099L82.8905 110.615H70.979L71.3332 113.099H82.5363Z" fill="#FF9F43"/>
<path d="M96.396 91.8232C95.8908 96.5941 94.646 100.016 94.646 100.016L93.4429 91.2295C93.4429 91.2295 94.12 88.8441 94.646 86.7607C94.646 86.766 95.5522 87.8024 96.396 91.8232Z" fill="#5FB6BE"/>
<path d="M93.4429 91.2295L94.646 100.016C89.2345 102.183 71.8752 101.922 68.396 99.5472C68.646 96.8128 69.5314 93.8441 71.2658 91.2295C72.1043 91.4274 85.6095 92.5889 93.4429 91.2295Z" fill="#5FB6BE"/>
<path d="M94.646 86.766C94.12 88.8441 93.4429 91.2347 93.4429 91.2347C85.6095 92.5941 72.1095 91.4326 71.271 91.2347C72.297 89.6878 73.62 88.266 75.2658 87.0785C75.87 86.9639 77.8335 86.7295 82.0106 86.4639C87.2033 86.1306 94.646 86.766 94.646 86.766Z" fill="#FF9F43"/>
<path d="M93.9217 109.177V112.797L84.5415 113.286C84.5415 113.286 85.6092 110.286 86.078 109.994L93.9217 109.177Z" fill="#5FB6BE"/>
<path d="M82.8853 110.614L82.5363 113.099H71.3332L70.979 110.614H82.8853Z" fill="#5FB6BE"/>
<path d="M79.4533 72.1826C81.1877 72.1826 82.1095 74.2243 80.6825 75.8232L49.0783 111.229L44.3804 108.745L52.1304 98.5576C52.1304 98.5576 47.87 95.3076 47.7137 95.417L50.5418 93.3337L70.9897 76.5732V72.1826H79.4533Z" fill="#3B3A3A"/>
<path d="M70.9896 72.1826V76.5732L50.5417 93.3337V55.5785C50.5417 55.5785 49.0937 55.4378 48.7031 55.5055C49.1875 55.0264 51.2812 51.8805 51.2812 51.8805L50.8073 47.5524L50.3906 43.7555V43.7503L57.1719 16.8857L78.5469 23.6982L76.25 33.3962L70.9948 55.568V72.1826H70.9896Z" fill="#5FB6BE"/>
<path d="M68.3957 110.094L69.4582 113.281L61.2134 112.745C61.3905 111.557 61.6873 110.354 62.0936 109.172L68.3957 110.094Z" fill="#5FB6BE"/>
<path d="M69.1821 117.266V117.292C69.0311 118.506 68.6717 119.506 67.9582 120.099H65.0728C64.5103 119.558 63.7967 118.344 63.6196 116.761V116.745C65.1092 116.948 67.0207 117.125 69.1821 117.266Z" fill="#9C7C6A"/>
<path d="M57.172 16.8857L50.396 43.7503L47.5679 17.8024L57.172 16.8857Z" fill="#5FB6BE"/>
<mask id="mask6_5516_26839" style="mask-type:luminance" maskUnits="userSpaceOnUse" x="0" y="94" width="53" height="37">
<path d="M0.150879 94.333H52.6665V130.333H0.150879V94.333Z" fill="white"/>
</mask>
<g mask="url(#mask6_5516_26839)">
<path d="M52.13 98.5623L44.38 108.745L49.078 111.234L32.9321 129.318L16.854 128.765L0.619629 109.177L22.5415 113.974L29.0519 109.177L44.3853 97.8748L47.7186 95.4165C47.8696 95.3123 52.13 98.5623 52.13 98.5623Z" fill="#3B3A3A"/>
</g>
<path d="M27.146 62.9424L21.8022 10.0622C22.3595 9.87988 45.9429 2.87988 45.9429 2.87988L47.5679 17.8018L50.3908 43.7497V43.7549L50.8075 47.5518L51.2814 51.8799C51.2814 51.8799 49.1877 55.0257 48.7033 55.5049C48.6304 55.5205 48.5939 55.5361 48.6095 55.5674C48.6147 55.583 48.6512 55.5622 48.7033 55.5049C49.0991 55.4372 50.5418 55.5778 50.5418 55.5778V93.333L47.7137 95.4163L44.3804 97.8747V82.3122L29.047 90.3382V109.177L22.5418 113.974V66.0726L27.146 62.9424Z" fill="#FF9F43"/>
<path d="M44.3802 82.3174V97.8747L29.0469 109.177V90.3382L44.3802 82.3174Z" fill="#FF9F43"/>
<path d="M7.25505 41.8542L2.46338 7.67188C2.46338 7.67188 21.255 10.2552 21.8019 10.0677L27.1457 62.9427L18.5988 62.1823L9.49984 57.8438L7.26025 41.901C7.26025 41.8854 7.25505 41.8698 7.25505 41.8542Z" fill="#9C7C6A"/>
<mask id="mask7_5516_26839" style="mask-type:luminance" maskUnits="userSpaceOnUse" x="0" y="57" width="28" height="11">
<path d="M0.150879 57H27.3332V67.6667H0.150879V57Z" fill="white"/>
</mask>
<g mask="url(#mask7_5516_26839)">
<path d="M27.1457 62.9427L22.5415 66.0729L11.1196 64.2292L6.74984 67.3125L0.619629 64.2292L9.49984 57.8438L18.5988 62.1823L27.1457 62.9427Z" fill="#9C7C6A"/>
</g>
<mask id="mask8_5516_26839" style="mask-type:luminance" maskUnits="userSpaceOnUse" x="0" y="63" width="24" height="52">
<path d="M0.150879 63.667H23.3332V114.334H0.150879V63.667Z" fill="white"/>
</mask>
<g mask="url(#mask8_5516_26839)">
<path d="M6.74984 67.3128L11.1196 64.2295L22.5415 66.0732V113.969L0.619629 109.177V64.2295L6.74984 67.3128Z" fill="#9C7C6A"/>
</g>
<path d="M21.8019 10.0628C21.255 10.2503 2.46338 7.6722 2.46338 7.6722L22.7238 1.04199L45.9425 2.88053C45.9425 2.88053 22.3592 9.88053 21.8019 10.0628Z" fill="#9C7C6A"/>
<mask id="mask9_5516_26839" style="mask-type:luminance" maskUnits="userSpaceOnUse" x="0" y="0" width="49" height="12">
<path d="M0.150879 0.604492H48.6665V11.667H0.150879V0.604492Z" fill="white"/>
</mask>
<g mask="url(#mask9_5516_26839)">
<path d="M21.7393 10.4899C20.1715 10.4899 10.5049 9.21387 2.40592 8.10449L0.551758 7.84928L22.6716 0.604492L22.7601 0.614909L48.2809 2.64095L46.0622 3.2972C45.8226 3.36491 22.4841 10.2972 21.9372 10.4743C21.9059 10.4847 21.8434 10.4899 21.7393 10.4899ZM4.37988 7.50033C11.5153 8.46908 20.8747 9.70345 21.708 9.65137C22.6924 9.34408 37.7966 4.85449 43.6038 3.13053L22.7757 1.47949L4.37988 7.50033Z" fill="black"/>
</g>
<path d="M22.1094 114.817V65.8434L26.9062 62.5829L27.3906 63.2965L22.9688 66.2965V113.114L50.1146 93.1142V55.9736C49.5781 55.9319 48.9635 55.9007 48.776 55.9371L48.6302 55.0882C49.0625 55.0152 50.3385 55.1246 50.5885 55.1507L50.974 55.1923V93.5569L22.1094 114.817Z" fill="black"/>
<path d="M48.6198 56.0055C48.599 56.0055 48.5781 56.0055 48.5573 56.0003L48.3333 55.9691L48.125 55.5628L48.2344 55.3441C48.3437 55.1357 48.5625 55.0993 48.6302 55.0889L49.8854 54.8701L49.0208 55.8076C48.9687 55.8545 48.8333 56.0055 48.6198 56.0055ZM48.7188 55.6045L48.7708 55.9378C48.7708 55.9378 48.776 55.9378 48.7812 55.9378C48.8333 55.9222 48.9323 55.8649 48.9948 55.7451L48.7188 55.6045ZM48.6146 55.1462C48.4948 55.1462 48.4063 55.2035 48.3802 55.2295L48.6354 55.4482L48.6927 55.1514C48.6667 55.1514 48.6406 55.1462 48.6146 55.1462Z" fill="black"/>
<path d="M49.005 55.8128L48.4009 55.2035C48.7186 54.891 49.9998 53.0316 50.8384 51.7764L49.9686 43.8076L50.8228 43.7139L51.729 51.9951L51.6405 52.1253C51.4217 52.4482 49.505 55.3232 49.005 55.8128Z" fill="black"/>
<path d="M45.5103 2.92676L46.3644 2.83301L50.8228 43.7028L49.9686 43.7966L45.5103 2.92676Z" fill="black"/>
<path d="M38.1042 64.8486L31.5521 61.5726L26.776 63.557L21.375 10.109L22.2344 10.0205L27.5156 62.3174L31.5885 60.6247L37.5677 63.6143L39.5625 56.7028L44.0833 57.8955L45.526 52.8278L46.3542 53.0622L44.6771 58.9476L40.1562 57.7497L38.1042 64.8486Z" fill="black"/>
<path d="M50.8123 43.8597L50.4009 43.7555H49.9634L49.979 43.6514L56.6092 17.3701L47.6092 18.2347L47.5259 17.3753L57.7394 16.4014L50.8123 43.8597Z" fill="black"/>
<path d="M50.8179 93.6663L50.271 92.9997L70.5627 76.3695L70.5731 55.4684L78.0366 23.9893L57.0418 17.2965L57.3075 16.4736L79.0575 23.4111L71.422 55.6195V76.7757L50.8179 93.6663Z" fill="black"/>
<path d="M103.844 47.891H91.1927V33.8285H76.25V32.9639H92.0521V47.0316H102.984V38.0107H115.693V25.667H134.365V26.5264H116.552V38.8701H103.844V47.891Z" fill="black"/>
<path d="M149.99 82.6982L141.526 78.5107L132.599 16.5732L157.177 9.52637L158.167 14.6826L157.323 14.8441L156.511 10.6097L133.557 17.193L142.313 77.943L150.37 81.9274L149.99 82.6982Z" fill="black"/>
<path d="M192.187 123.349L166.63 99.4792V59.3385L169.64 60.1562L154.104 16.7135L176.76 1.32812L192.37 46.0625V46.1354L192.187 123.349ZM167.489 99.1094L191.333 121.375L191.51 46.2031L176.318 2.67188L155.135 17.0521L171 61.4219L167.489 60.4688V99.1094Z" fill="black"/>
<mask id="mask10_5516_26839" style="mask-type:luminance" maskUnits="userSpaceOnUse" x="91" y="67" width="67" height="81">
<path d="M91.3335 67.667H158V147.604H91.3335V67.667Z" fill="white"/>
</mask>
<g mask="url(#mask10_5516_26839)">
<path d="M91.7866 147.152L91.396 146.386L118.964 129.73H130.589L139.474 118.896L134.886 116.376L120.589 118.001L120.761 123.954L108.427 117.824L99.2397 122.011L98.8335 121.251L108.276 115.563L117.365 119.042L116.714 115.693L129.61 113.475L128.151 112.673H124.104L113.432 106.266L123.985 96.0632L108.958 91.6517L117.323 84.7142L102.755 79.1048L105.708 77.0996L100.469 75.209L94.3179 68.7559L102.656 73.7298L111.948 76.0684L109.703 78.6204L126.682 82.5111L122.75 88.8288L135.568 92.3913L128.552 104.157L137.219 106.792L140.474 104.74L136.13 103.1L146 96.2038L141.922 101.891L148.365 103.501L142.057 108.146L157.521 112.313L138.964 138.443L120.406 135.079L91.7866 147.152ZM119.203 130.589L96.9533 144.037L120.307 134.173L138.578 137.485L156.104 112.808L140.11 108.501L146.386 103.881L140.485 102.402L142.365 99.7819L137.958 102.855L142.401 104.537L137.349 107.714L127.255 104.646L134.255 92.9017L121.422 89.3392L125.323 83.0684L108.11 79.1204L110.38 76.5423L102.281 74.485L99.297 72.7038L100.964 74.4538L107.599 76.8444L104.61 78.8757L119.016 84.4225L110.766 91.2663L125.656 95.6413L114.844 106.089L124.349 111.792H128.38L132.188 113.891L117.729 116.376L118.505 120.386L108.36 116.506L105.703 118.105L108.448 116.855L119.86 122.532L119.708 117.225L135.063 115.48L140.797 118.631L131 130.584H119.203V130.589Z" fill="black"/>
</g>
<path d="M29.479 109.177H28.6196V90.0837L44.8123 81.6045V97.8753H43.9478V83.0264L29.479 90.5993V109.177Z" fill="black"/>
<path d="M79.5311 58.583L78.729 58.2653C79.2342 56.9997 79.7967 55.5622 79.8853 55.2757V55.1455L80.0207 55.0101C80.1925 54.8434 80.2498 54.8278 82.203 54.8955C82.8019 54.9163 83.6457 54.9424 84.0571 54.932C84.1196 54.2184 84.0675 52.0361 83.9686 50.083L83.953 49.7653L91.479 47.0518L91.7707 47.8643L84.8436 50.3538C85.0936 55.458 84.8696 55.5726 84.5884 55.708C84.3905 55.8122 84.0311 55.8122 82.1717 55.7549C81.6509 55.734 80.9894 55.7132 80.6405 55.7184C80.505 56.1038 80.2082 56.8903 79.5311 58.583ZM80.7446 55.359C80.7446 55.3799 80.7342 55.4163 80.7238 55.4736C80.7342 55.4372 80.7394 55.4007 80.7446 55.359Z" fill="black"/>
<path d="M118.26 59.6462L114.661 54.1878L112.328 55.417L110.125 49.318L106.286 52.2555L103.062 47.7139L103.766 47.2139L106.474 51.0316L110.531 47.917L112.802 54.1878L114.948 53.0576L118.984 59.1722L118.26 59.6462Z" fill="black"/>
<path d="M111.406 50.7132L110.635 50.3382L113.135 45.1715L115.588 48.3122L118.281 44.8018L118.963 45.3226L115.599 49.7184L113.307 46.7913L111.406 50.7132Z" fill="black"/>
<path d="M125.182 43.0622L124.271 39.4111L121.49 40.1976L119.636 33.9684L116.198 34.5622L116.052 33.7132L120.24 32.9893L122.073 39.1351L124.891 38.3434L126.016 42.8538L125.182 43.0622Z" fill="black"/>
<path d="M182.656 135.51L130.698 75.8021C130.057 75.0781 129.906 74.0729 130.302 73.1875C130.698 72.3021 131.552 71.75 132.526 71.75H141.047V72.6094H132.526C131.896 72.6094 131.349 72.9635 131.089 73.5365C130.828 74.1146 130.927 74.7604 131.349 75.2344L183.307 134.948L182.656 135.51Z" fill="black"/>
<path d="M33.2552 129.599L32.6094 129.026L80.3594 75.5365C80.9323 74.8906 81.1042 74.1146 80.8125 73.4688C80.5729 72.9271 80.0625 72.6094 79.4531 72.6094H70.9323V71.75H79.4531C80.401 71.75 81.224 72.2708 81.599 73.1198C82.026 74.0729 81.7969 75.2187 81.0052 76.1094L33.2552 129.599Z" fill="black"/>
<path d="M70.9897 65.3545H139.516V66.2139H70.9897V65.3545Z" fill="black"/>
<path d="M80.047 118.037C76.047 118.037 72.1615 117.891 69.1563 117.698C66.9792 117.558 65.0417 117.375 63.5626 117.177C62.3855 117.021 61.5001 116.855 60.9272 116.693L60.6407 116.61L60.6199 116.308C60.5417 115.151 60.599 113.933 60.7865 112.683C60.9636 111.485 61.2657 110.256 61.6824 109.037C62.9428 105.318 65.2397 101.792 67.9845 99.3441C68.1928 97.1931 68.8803 94.0576 70.9063 91.0003C72.0157 89.3285 73.3907 87.891 75.0105 86.7295L75.0886 86.6722L75.1824 86.6566C75.8959 86.516 78.0574 86.2816 81.9792 86.0316C87.1511 85.7087 94.6095 86.3285 94.6824 86.3389L94.8542 86.3545L94.9688 86.4795C95.0678 86.5941 95.9688 87.7191 96.8126 91.7347C97.0782 93.0108 97.323 94.5056 97.5261 96.1774L97.5313 96.2295C97.5261 100.193 97.4532 103.657 97.3074 106.818C97.1511 110.438 96.9115 113.422 96.6824 116.308L96.6563 116.61L96.3647 116.688C95.073 117.021 93.3907 117.308 91.3542 117.532C87.9532 117.896 83.948 118.037 80.047 118.037ZM61.4584 115.938C61.9897 116.068 62.7292 116.193 63.6772 116.323C65.1407 116.516 67.0522 116.693 69.2136 116.839C75.1147 117.224 84.4324 117.407 91.2657 116.683C93.1042 116.485 94.6459 116.235 95.849 115.938C96.0678 113.157 96.2917 110.261 96.448 106.782C96.5938 103.641 96.6667 100.198 96.672 96.2556C96.4688 94.6253 96.2345 93.1566 95.974 91.9118C95.3282 88.8441 94.6511 87.5628 94.4115 87.1826C93.1928 87.0889 86.672 86.6045 82.0365 86.891C77.4636 87.1878 75.8647 87.4118 75.4376 87.4847C73.9428 88.5785 72.6563 89.917 71.6303 91.4743C69.6511 94.4639 69.0105 97.5368 68.8282 99.5889L68.8126 99.7608L68.6824 99.8753C65.9897 102.235 63.7345 105.672 62.5001 109.313C62.0938 110.485 61.8126 111.662 61.6355 112.808C61.474 113.891 61.4167 114.943 61.4584 115.938Z" fill="black"/>
<path d="M82.1927 101.938C76.1615 101.938 70.099 101.229 68.1562 99.9066L68.6406 99.193C71.9219 101.433 88.5 101.745 94.1719 99.7347L93.0729 91.7295C85.1562 92.9743 71.9948 91.8389 71.1719 91.6514L71.3646 90.8128C72.1927 91.0003 85.6146 92.1514 93.3698 90.8076L93.8073 90.7295L95.1198 100.292L94.8073 100.417C92.2344 101.448 87.2292 101.938 82.1927 101.938Z" fill="black"/>
<path d="M70.0675 113.75L61.1821 113.177L61.2394 112.318L68.8488 112.808L68.0728 110.479L62.0259 109.599L62.1509 108.745L68.7186 109.703L70.0675 113.75Z" fill="black"/>
<path d="M83.9219 113.744L84.1354 113.135C84.5573 111.958 85.3333 109.942 85.849 109.625L85.9323 109.573L94.349 108.692V113.203L83.9219 113.744ZM86.2656 110.406C86.0365 110.703 85.5781 111.76 85.1719 112.817L93.4948 112.385V109.651L86.2656 110.406Z" fill="black"/>
<path d="M68.12 120.532H64.9012L64.7762 120.412C64.1668 119.823 63.3908 118.526 63.1929 116.813L64.0522 116.714C64.1981 118.011 64.745 119.099 65.2606 119.672H67.8022C68.3075 119.183 68.62 118.381 68.7606 117.24L69.6147 117.349C69.4325 118.802 68.9845 119.808 68.2397 120.433L68.12 120.532Z" fill="black"/>
<path d="M96.6252 120.532H92.1877L92.0627 120.412C91.4168 119.792 90.8804 118.276 90.8804 117.104H91.7397C91.7397 117.959 92.12 119.131 92.5522 119.672H95.9741C96.8491 116.417 97.021 111.771 96.4481 106.844L97.3075 106.745C97.9064 111.943 97.6877 116.849 96.7137 120.224L96.6252 120.532Z" fill="black"/>
<path d="M93.854 91.3538L93.0259 91.1195C93.0363 91.0934 93.7082 88.7132 94.229 86.6611L95.0623 86.8747C94.5415 88.932 93.8592 91.3278 93.854 91.3538Z" fill="black"/>
<path d="M95.047 100.167L94.2397 99.8701C94.2554 99.8337 95.4793 96.4326 95.9637 91.7764L96.8179 91.8649C96.3231 96.6357 95.0991 100.026 95.047 100.167Z" fill="black"/>
<path d="M82.9113 113.531H70.953L70.479 110.188H83.3748L82.9113 113.531ZM71.7082 112.672H82.1665L82.3957 111.052H71.479L71.7082 112.672Z" fill="black"/>
<path d="M159.833 101.224L148.537 91.4062L149.787 82.0052L157.646 78.974L160.979 80.3958L162.682 77.7969H167.063V78.6615H163.146L161.297 81.4688L157.63 79.9062L150.573 82.6198L149.453 91.0573L160.073 100.292L166.974 98.8698L167.151 99.7188L159.833 101.224Z" fill="black"/>
<path d="M156.802 9.6403L165.719 8.89551L165.792 9.75488L156.875 10.4945L156.802 9.6403Z" fill="black"/>
<mask id="mask11_5516_26839" style="mask-type:luminance" maskUnits="userSpaceOnUse" x="0" y="41" width="24" height="75">
<path d="M0.150879 41H23.3332V115.667H0.150879V41Z" fill="white"/>
</mask>
<g mask="url(#mask11_5516_26839)">
<path d="M22.4479 114.391L0.1875 109.521V64.0107L9.03646 57.6462L6.83854 41.9587L7.6875 41.8389L9.96354 58.042L1.04688 64.4482V108.828L22.6354 113.547L22.4479 114.391Z" fill="black"/>
</g>
<path d="M2.03662 7.73405L2.89079 7.61426L7.68245 41.7966L6.8335 41.9163L2.03662 7.73405Z" fill="black"/>
<mask id="mask12_5516_26839" style="mask-type:luminance" maskUnits="userSpaceOnUse" x="175" y="1" width="42" height="123">
<path d="M175.333 1H216.151V123.667H175.333V1Z" fill="white"/>
</mask>
<g mask="url(#mask12_5516_26839)">
<path d="M216.276 122.791H191.761V121.932H215.417V43.0413L198.375 3.30176L176.521 2.42676L176.557 1.56738L198.953 2.46322L199.063 2.71322L216.276 42.8695V122.791Z" fill="black"/>
</g>
<mask id="mask13_5516_26839" style="mask-type:luminance" maskUnits="userSpaceOnUse" x="191" y="39" width="26" height="10">
<path d="M191.333 39.667H216.151V49.0003H191.333V39.667Z" fill="white"/>
</mask>
<g mask="url(#mask13_5516_26839)">
<path d="M205.083 47.9274C205 47.9274 204.912 47.9118 204.828 47.8753C203.964 47.4899 203.203 43.7399 202.776 41.167L192.136 46.5212L191.755 45.7503L203.448 39.8701L203.537 40.4535C203.969 43.193 204.677 46.3389 205.125 47.0055C206.656 46.1878 214.729 42.943 215.688 42.5576L216.005 43.3597C212.094 44.9274 206.047 47.4066 205.422 47.8232C205.313 47.891 205.198 47.9274 205.083 47.9274Z" fill="black"/>
</g>
<path d="M170.708 60.9847L169.932 60.5993L176.547 47.3805L179.109 52.7972L182.588 46.3701L183.349 46.7816L179.057 54.6982L176.526 49.3493L170.708 60.9847Z" fill="black"/>
<mask id="mask14_5516_26839" style="mask-type:luminance" maskUnits="userSpaceOnUse" x="0" y="63" width="24" height="6">
<path d="M0.150879 63.667H23.3332V69.0003H0.150879V63.667Z" fill="white"/>
</mask>
<g mask="url(#mask14_5516_26839)">
<path d="M6.79134 67.8073L0.426758 64.6146L0.806966 63.8438L6.71322 66.8073L11.0153 63.7812L22.6091 65.6458L22.4684 66.5L11.2236 64.6823L6.79134 67.8073Z" fill="black"/>
</g>
<path d="M27.1094 63.3698L18.4792 62.6042L9.3125 58.2292L9.6875 57.4531L18.7135 61.7604L27.1875 62.5104L27.1094 63.3698Z" fill="black"/>
<path d="M56.5521 56.1826L58.3281 50.542L50.4062 47.8701L50.6875 47.0576L50.9479 47.1514L59.4062 49.9951L57.7969 55.0993L63.1094 54.2139L63.2552 55.0576L56.5521 56.1826Z" fill="black"/>
<path d="M152.114 37.8594L142.838 37.5156L142.875 36.6562L151.635 36.974L154.401 32.3438L160.698 33.276L160.573 34.1302L154.838 33.2812L152.114 37.8594Z" fill="black"/>
<path d="M27.625 16.9323L28.4792 16.8438L29.5521 26.9479L28.6927 27.0417L27.625 16.9323Z" fill="black"/>
<path d="M32.5054 15.2809L33.3647 15.1924L34.4325 25.3018L33.5783 25.3903L32.5054 15.2809Z" fill="black"/>
<path d="M37.396 13.6305L38.2502 13.542L39.3179 23.6514L38.4637 23.7399L37.396 13.6305Z" fill="black"/>
<path d="M42.2812 11.984L43.1354 11.8955L44.2031 22.0049L43.349 22.0934L42.2812 11.984Z" fill="black"/>
<path d="M140.302 23.4378L141.156 23.3076L142.667 33.5003L141.813 33.6253L140.302 23.4378Z" fill="black"/>
<path d="M145.125 22.042L145.979 21.917L147.484 32.1097L146.635 32.2347L145.125 22.042Z" fill="black"/>
<path d="M149.938 20.667L150.786 20.542L152.297 30.7295L151.448 30.8597L149.938 20.667Z" fill="black"/>
<path d="M143 42.5469L143.849 42.4219L145.354 52.6146L144.505 52.7396L143 42.5469Z" fill="black"/>
<path d="M147.818 41.1562L148.667 41.0312L150.172 51.224L149.323 51.349L147.818 41.1562Z" fill="black"/>
<path d="M152.63 39.7705L153.485 39.6455L154.99 49.8382L154.136 49.9632L152.63 39.7705Z" fill="black"/>
<path d="M145.693 61.6514L146.547 61.5264L148.052 71.7191L147.203 71.8441L145.693 61.6514Z" fill="black"/>
<path d="M150.505 60.2656L151.36 60.1406L152.87 70.3333L152.016 70.4583L150.505 60.2656Z" fill="black"/>
<path d="M155.328 58.8701L156.177 58.7451L157.688 68.9378L156.839 69.0628L155.328 58.8701Z" fill="black"/>
<path d="M29.5312 31.0938L30.3854 31L31.4531 41.1094L30.599 41.1979L29.5312 31.0938Z" fill="black"/>
<path d="M34.4116 29.4372L35.2658 29.3486L36.3439 39.4528L35.4845 39.5465L34.4116 29.4372Z" fill="black"/>
<path d="M39.3022 27.792L40.1564 27.6982L41.2293 37.8076L40.3752 37.8962L39.3022 27.792Z" fill="black"/>
<path d="M44.1821 26.1455L45.0415 26.0518L46.1092 36.1611L45.255 36.2497L44.1821 26.1455Z" fill="black"/>
<path d="M28.9219 81.849L28.9635 71.1719L29.8229 71.1771L29.7812 81.849H28.9219Z" fill="black"/>
<path d="M33.9897 80.1045L34.0314 69.4326L34.8908 69.4378L34.8491 80.1097L33.9897 80.1045Z" fill="black"/>
<path d="M39.0571 78.3643L39.0988 67.6924H39.9582L39.9165 78.3643H39.0571Z" fill="black"/>
<path d="M44.1196 76.625L44.1613 65.9531H45.0207L44.979 76.6302L44.1196 76.625Z" fill="black"/>
<path d="M31.4429 45.2393L32.297 45.1455L33.3647 55.2601L32.5106 55.3486L31.4429 45.2393Z" fill="black"/>
<path d="M36.3281 43.5938L37.1823 43.5L38.25 53.6146L37.3958 53.7031L36.3281 43.5938Z" fill="black"/>
<path d="M41.2134 41.943L42.0675 41.8545L43.1353 51.9691L42.2811 52.0576L41.2134 41.943Z" fill="black"/>
<path d="M46.0991 40.2969L46.9533 40.2031L48.021 50.3177L47.1668 50.4062L46.0991 40.2969Z" fill="black"/>
<path d="M58.7134 25.224L58.979 24.4062L73.9738 29.1927L73.7134 30.0156L58.7134 25.224Z" fill="black"/>
<path d="M57.3438 30.7035L57.6042 29.8857L72.6094 34.6826L72.3438 35.5003L57.3438 30.7035Z" fill="black"/>
<path d="M55.979 36.1823L56.2394 35.3594L71.2342 40.1562L70.9738 40.974L55.979 36.1823Z" fill="black"/>
<path d="M54.6196 41.6615L54.88 40.8438L69.8748 45.6406L69.6144 46.4583L54.6196 41.6615Z" fill="black"/>
<path d="M54.5259 65.2972L67.3696 57.6357L67.8071 58.3753L54.9634 66.0368L54.5259 65.2972Z" fill="black"/>
<path d="M54.5103 71.6559L67.354 63.1924L67.828 63.9111L54.9842 72.3747L54.5103 71.6559Z" fill="black"/>
<path d="M54.4946 78.0208L67.3332 68.75L67.8384 69.4479L54.9998 78.7188L54.4946 78.0208Z" fill="black"/>
<path d="M160.891 20.4479L161.698 20.1406L172.141 47.651L171.333 47.9531L160.891 20.4479Z" fill="black"/>
<path d="M166.656 15.3747L167.469 15.0986L177.052 43.2028L176.24 43.4788L166.656 15.3747Z" fill="black"/>
<path d="M172.87 12.0729L173.682 11.7969L183.375 40.4271L182.557 40.7031L172.87 12.0729Z" fill="black"/>
<path d="M171.417 65.2969H172.281V93.3333H171.417V65.2969Z" fill="black"/>
<path d="M177.693 60.792H178.552V97.1253H177.693V60.792Z" fill="black"/>
<path d="M184.391 62.1826H185.255V103.287H184.391V62.1826Z" fill="black"/>
<mask id="mask15_5516_26839" style="mask-type:luminance" maskUnits="userSpaceOnUse" x="0" y="107" width="217" height="41">
<path d="M0.150879 107.667H216.151V147.604H0.150879V107.667Z" fill="white"/>
</mask>
<g mask="url(#mask15_5516_26839)">
<path d="M146.39 147.183H91.5257L91.4424 147.146L53.9684 130.475L16.6403 129.183L16.5153 129.032L0.286133 109.449L0.947591 108.896L17.057 128.334L54.1663 129.615L54.2445 129.652L91.708 146.324H146.213L170.208 136.074L170.276 136.063C170.333 136.063 176.619 135.417 182.937 134.803C190.812 134.032 195.276 133.641 196.187 133.641C197.703 133.641 208.901 126.506 215.599 122.006L216.078 122.719C214.281 123.928 198.463 134.501 196.187 134.501C195.312 134.501 190.76 134.902 183.021 135.657C177.052 136.24 171.114 136.844 170.427 136.912L146.39 147.183Z" fill="black"/>
</g>
<path d="M56.4427 121.948L47.2552 120.464L48.6094 111.469L43.7344 108.891L51.5312 98.6409C49.776 97.3127 47.9062 95.9482 47.6146 95.8336C47.6615 95.8492 47.8177 95.8804 47.9688 95.7711L47.4635 95.0784C47.776 94.8544 47.875 94.7815 52.3958 98.2242L52.7344 98.4846L45.0312 108.604L49.5521 110.995L48.2344 119.75L56.5833 121.099L56.4427 121.948Z" fill="black"/>
<mask id="mask16_5516_26839" style="mask-type:luminance" maskUnits="userSpaceOnUse" x="200" y="81" width="17" height="30">
<path d="M200.667 81H216.151V110.333H200.667V81Z" fill="white"/>
</mask>
<g mask="url(#mask16_5516_26839)">
<path d="M215.604 109.099L203.38 100.932L207.125 89.5986C205.765 88.1299 200.948 82.9111 200.708 82.5465L201.422 82.0674C201.656 82.3903 205.437 86.5049 207.927 89.1976L208.104 89.3851L204.401 100.578L216.083 108.38L215.604 109.099Z" fill="black"/>
</g>
<path d="M159.531 100.708L162.479 78.1768L163.333 78.2861L160.38 100.817L159.531 100.708Z" fill="black"/>
<path d="M14.9062 86.7184L8.66667 82.4945L11.1094 73.8174L6.40625 67.5674L7.09896 67.0518L12.0521 73.6403L9.66667 82.1299L15.3906 86.0049L14.9062 86.7184Z" fill="black"/>
<path d="M6.83854 41.9482L6.82812 41.8545C6.83854 40.6722 10.4531 31.3128 11.1823 29.4482L11.4062 28.8701L15.4375 32.4899L14.8646 33.1305L11.7604 30.3389C10.1146 34.5889 7.73958 40.9899 7.69271 41.8337C7.69792 41.8545 7.69792 41.8701 7.69792 41.8962H6.83854H7.27083L6.83854 41.9482Z" fill="black"/>
</svg>
