<svg width="221" height="146" viewBox="0 0 221 146" fill="none" xmlns="http://www.w3.org/2000/svg">
<path d="M122.62 32.5159C123.547 32.5159 125.979 32.5575 129.333 32.6096C136.417 32.7242 146.984 32.8909 155.375 32.8909C161.687 32.8909 166.771 32.7919 168.198 32.5054C169.453 32.2554 169.865 31.6669 169.995 31.2138C170.177 30.5575 169.859 29.7971 169.12 29.1252C167.646 27.7815 164.708 26.8596 161.463 27.7502C161.594 27.2398 161.625 26.6669 161.557 26.0888C166.182 26.0836 198.328 26.0263 202.135 25.1096C203.047 24.8909 203.333 24.4429 203.411 24.1044C203.5 23.7138 203.406 23.0836 202.432 22.2711C200.198 20.4117 194.818 18.745 190.453 20.2242C190.672 17.6357 188.557 15.0471 185.12 13.8492C180.333 12.1877 174.224 13.5575 171.073 20.2346C170.547 19.7971 169.776 19.5315 169.021 19.5732C168.328 19.6096 167.109 19.9377 166.281 21.6044C165.818 21.3127 165.167 21.1617 164.437 21.1929C163.151 21.2346 161.463 21.8336 160.328 23.344C159.651 22.6148 158.469 21.8596 156.557 22.0784C157.854 19.995 157.943 17.6252 156.76 15.5627C155.104 12.6877 151.427 11.2763 147.391 11.9638C141.578 12.9586 137 17.9742 136.125 24.1304C135.323 23.4117 134.052 23.1357 132.698 23.469C130.865 23.9273 129.203 25.5107 129.38 28.0784C124.573 27.5263 121.437 28.6409 120.448 30.0471C120.094 30.5523 120.026 31.0784 120.26 31.5315C120.578 32.1721 121.417 32.5159 122.62 32.5159Z" fill="black"/>
<path d="M220.208 104.792C219.99 104.125 219.229 103.464 216.818 104.11L216.745 104.136C216.375 104.313 215.974 104.474 215.536 104.615V76.495H202.417V64.0731H183.578V50.2919H160.797V69.521H140.557V83.1981H122.411V102C110.698 106.052 100.979 107.49 92.7031 106.401C79.5728 100.433 69.6353 89.37 64.7135 75.2346C60.5885 63.3804 60.4999 50.6981 64.4895 42.8908C67.8958 39.5835 73.9843 36.3388 78.6197 36.7919C86.9947 37.62 90.4947 41.4013 93.8801 45.0627C95.8906 47.2398 97.7916 49.2971 100.599 50.6096C101.469 51.021 102.135 51.1669 102.641 51.1669C103.219 51.1669 103.594 50.9742 103.833 50.7502C104.234 50.37 104.391 49.7763 104.276 49.0679C106.406 49.844 107.417 49.0315 107.849 48.4273C109.135 46.62 108.208 42.7033 105.995 40.1356C106.557 39.8335 106.953 39.1929 107.073 38.3335C107.49 35.2606 103.953 26.1617 82.9322 20.9065C82.2864 19.0783 80.8124 17.146 78.8906 15.5575C80.1718 15.6044 80.9218 15.1981 81.3645 14.771C82.1145 14.0419 82.3333 12.87 81.9739 11.4742C81.0885 8.04188 76.8853 3.44813 69.7239 1.46896C62.9374 -0.406036 47.5208 2.56271 36.2239 13.0158C31.3697 17.5054 26.9843 23.0002 22.7395 28.3127C15.9687 36.8023 9.57285 44.8179 2.57285 46.8804L1.36972 47.2398L2.53118 47.7085C3.24472 47.995 4.03118 48.1408 4.88014 48.1408C5.52076 48.1408 6.19264 48.0575 6.90618 47.8908C3.70826 50.6252 1.68743 53.7763 1.03639 57.1148C0.921804 57.6929 0.854096 58.3596 1.16139 58.9481C1.65097 59.8804 2.8593 60.219 4.39055 59.8544C6.45826 59.3648 8.3541 58.3335 10.1822 57.344C12.3124 56.1929 14.3228 55.1044 16.5937 54.7658C17.0572 54.6929 17.7291 54.6304 18.2603 54.8856C18.651 55.0835 18.9791 55.5523 18.8437 55.9533C18.7343 56.2815 18.3541 56.5263 17.9739 56.7502L17.3385 57.1148C14.1458 58.9585 10.8385 60.8648 9.03118 64.0992C8.44264 65.1565 8.18743 66.1044 8.24993 67.0054C8.33326 68.1877 9.05722 69.2085 10.0416 69.5471C10.3489 69.6513 10.6718 69.6929 10.9791 69.6929C11.2656 69.6929 11.5416 69.6617 11.7968 69.6252C12.4166 69.5367 13.0208 69.4013 13.6145 69.2085C11.1145 71.8492 9.34889 74.9481 8.36972 78.4429C5.13014 90.0315 3.1093 105.36 11.4478 113.433C8.99993 113.823 6.32806 115.724 5.05201 118.078C4.12493 119.792 4.1093 121.485 4.99993 122.849C6.36972 124.953 10.552 127.255 22.651 126.266C36.8333 125.104 55.2031 130.656 72.9687 136.031C88.276 140.662 102.792 145.052 114.01 145.052C114.755 145.052 115.484 145.037 116.203 144.99C128.297 144.318 140.807 140.563 152.901 136.933C164.88 133.344 176.187 129.943 186.068 129.834C201.958 129.656 209.792 125.662 210.088 123.016C210.146 122.448 209.953 121.422 207.932 120.943C205.463 120.36 204.01 119.443 203.943 118.433C203.891 117.755 204.484 115.912 210.953 113.412C216.625 111.219 220.849 106.766 220.208 104.792Z" fill="black"/>
<path d="M143.578 113.474C130.042 117.323 127 129.307 113.37 125.151C127.865 131.172 138.562 120.693 145.255 122.031C151.943 123.37 161.526 129.172 163.531 126.828C165.542 124.485 163.531 121.261 157.74 120.865C163.531 120.25 166.974 125.823 172.281 125.823C177.578 125.823 168.578 110.886 149.37 112.443C147.229 112.62 145.318 112.979 143.578 113.474ZM58.0052 126.068C65.5208 133.979 74.1718 135.302 80.7291 135.078C87.276 134.854 95.8697 134.938 92.6822 132.787C89.4947 130.636 83.75 131.922 85.7135 130.276C87.6823 128.625 94.1822 129.094 96.927 128.156C101.573 126.563 101.453 123.849 97.0364 124.708C92.6145 125.563 89.3177 129.302 84.0937 126.854C78.8698 124.401 73.9583 123.469 75.3958 125.563C76.8385 127.667 83.2916 129.703 81.3333 131C79.3645 132.302 67.8385 132.589 58.0052 126.068ZM92.5885 106.823C104 108.349 116.052 104.682 122.854 102.313C124.406 101.766 125.672 101.297 126.609 100.969C126.5 101.042 126.396 101.12 126.302 101.188C126.479 101.063 126.656 100.943 126.828 100.818C126.849 100.807 126.865 100.792 126.885 100.787C130.167 98.6355 138.922 94.7085 144.208 94.5001C149.849 94.2762 153.177 98.5053 155.516 101.188C157.854 103.865 165.552 103.417 163.208 100.073C166.776 102.412 174.245 100.406 171.125 97.9533C171.667 97.8387 172.083 97.547 172.292 97.1251C177.203 102.958 204.271 108.349 215.172 105.193V105.188C215.818 105.005 216.411 104.787 216.937 104.537C223.182 102.865 218.542 110.021 210.812 113.005C201 116.802 202.214 120.031 207.849 121.365C213.484 122.703 206.057 129.172 186.083 129.396C166.109 129.615 140.198 143.214 116.193 144.552C92.1979 145.891 49.8333 123.594 22.6302 125.828C-4.56776 128.057 5.68745 113.787 12.375 113.787L12.427 113.724C19.1093 119.49 29.6562 118.818 37.5677 115.792C30.8802 117.573 16.8333 117.354 14.6041 101.745C12.375 86.1355 24.8125 76.8074 29.8281 78.5574C34.8489 80.3074 40.3958 77.6668 37.8281 74.823C46.4062 78.0574 48.3906 71.396 40.0885 68.021C40.5989 68.1408 52.1197 70.8074 53.3489 68.4793C54.6041 66.1043 49.2343 61.9793 41.8541 60.8178C34.276 59.6251 22.6822 61.4845 15.2031 68.271L15.0989 68.1616C14.0416 68.672 12.9062 69.0158 11.7447 69.1876C11.2239 69.2605 10.6927 69.3022 10.1979 69.1303C9.31245 68.8283 8.76037 67.896 8.69266 66.9689C8.62495 66.0366 8.9687 65.1251 9.41662 64.3126C11.2812 60.9637 14.8802 59.047 18.1979 57.1251C18.6354 56.8699 19.0989 56.573 19.2604 56.0939C19.4687 55.4793 19.0364 54.7814 18.4531 54.4949C17.8697 54.2033 17.177 54.2293 16.5364 54.3283C12.1458 54.9845 8.61454 58.3908 4.29683 59.422C3.30725 59.6616 2.02599 59.6408 1.55204 58.7449C1.30204 58.2762 1.36454 57.7137 1.4687 57.1928C2.32808 52.7658 5.48433 49.2397 9.26558 46.6251C17.6927 42.8855 28.3281 30.5053 33.7187 26.0262C40.6614 20.271 54.401 16.8699 62.5208 23.6668C56.9114 24.8908 48.9583 35.4949 52.1562 34.396C55.3541 33.3022 60.1093 30.7397 60.0156 32.8387C59.927 34.9428 49.3281 48.3803 53.5312 49.021C57.7343 49.6564 60.1093 38.2345 64.1302 38.8751C65.4895 39.0887 64.1875 42.4793 64.1354 42.6199L64.1302 42.6251C56.5885 57.2866 62.3958 93.1512 92.5885 106.823ZM66.7708 103.974C72.7916 101.292 56.2916 95.9533 49.8229 85.021C55.625 102.412 60.75 106.651 66.7708 103.974ZM45.5885 110.432C49.6041 108.208 40.0156 106.698 36.0052 98.9793C36.8906 106.203 41.5781 112.667 45.5885 110.432Z" fill="#4A8BDF"/>
<path d="M164.886 90.8591C163.651 90.4684 162.24 90.0986 160.636 89.7705C148.172 87.2132 136.781 93.8903 126.88 100.786C126.86 100.791 126.844 100.807 126.823 100.817C126.75 100.869 126.682 100.916 126.615 100.963C126.61 100.963 126.61 100.963 126.604 100.968C125.672 101.297 124.401 101.765 122.849 102.312V83.6351H140.995V69.9528H161.235V50.7236H183.146V64.5049H201.985V76.932H215.099V104.974L215.167 105.182V105.187C204.266 108.349 177.193 102.953 172.287 97.1195C172.828 96.0413 172.021 94.1299 168.583 92.3486C167.583 91.833 166.36 91.333 164.886 90.8591Z" fill="#3B3A3A"/>
<path d="M189.885 20.9166C196.583 17.9895 206.073 23.7083 202.026 24.6874C198.005 25.6614 161.516 25.6562 161.042 25.6562C160.917 25.1041 160.688 24.5624 160.359 24.0833C161.979 21.3333 165.604 21.1197 166.443 22.3437C167.693 18.9687 170.625 19.9374 171.188 21.0572C176.484 8.49472 191.698 14.3593 189.885 20.9166Z" fill="#CADBEA"/>
<path d="M161.042 25.6515C161.271 26.6776 161.146 27.7349 160.714 28.4484C166.995 26.0786 172.297 31.2401 168.109 32.0786C163.927 32.9172 126.938 32.0786 122.615 32.0786C118.292 32.0786 120.802 27.3338 129.87 28.589C129.031 23.5682 135.453 22.4484 136.427 25.3807C136.849 18.5422 141.729 13.3807 147.453 12.4067C155.203 11.0786 159.734 17.7036 155.547 22.7297C157.932 22.0734 159.5 22.8547 160.354 24.0838C160.688 24.5578 160.917 25.1047 161.042 25.6515Z" fill="#CADBEA"/>
<path d="M126.88 100.786C136.781 93.8906 148.177 87.2135 160.636 89.7708C162.245 90.0989 163.651 90.4687 164.886 90.8593C166.36 91.3333 167.583 91.8333 168.583 92.3541C172.021 94.1302 172.823 96.0468 172.287 97.125C172.078 97.552 171.667 97.8385 171.12 97.9531C174.24 100.406 166.771 102.411 163.203 100.073C165.547 103.417 157.849 103.865 155.511 101.187C153.172 98.5052 149.844 94.276 144.203 94.5C138.917 94.7083 130.162 98.6354 126.88 100.786Z" fill="#CADBEA"/>
<path d="M145.255 122.031C138.562 120.692 127.864 131.171 113.37 125.151C127 129.302 130.042 117.317 143.578 113.474C145.318 112.979 147.234 112.625 149.37 112.448C168.583 110.885 177.583 125.828 172.281 125.828C166.979 125.828 163.536 120.25 157.739 120.869C163.536 121.265 165.547 124.489 163.536 126.833C161.526 129.166 151.943 123.369 145.255 122.031Z" fill="#CADBEA"/>
<path d="M105.172 39.8854C108.922 43.5417 109.469 51.2188 103.615 48.2969C104.344 50.1198 103.599 51.5313 100.786 50.2135C93.3802 46.7396 92.1927 37.6875 78.6667 36.3594C74.1042 35.9063 67.8855 38.9688 64.1355 42.625C64.1875 42.4844 65.4896 39.0938 64.1302 38.875C60.1094 38.2344 57.7344 49.6615 53.5313 49.0208C49.3282 48.3854 59.9271 34.9479 60.0157 32.8438C60.1094 30.7448 55.3542 33.3073 52.1563 34.401C48.9584 35.5 56.9115 24.8958 62.5209 23.6667C70.6511 30.4688 78.0313 28.8385 72.8646 22.7865C81.1302 27.0573 83.7344 24.7865 82.6146 21.2656C108.224 27.5937 108.557 39.974 105.172 39.8854Z" fill="#CADBEA"/>
<path d="M97.0415 124.714C101.458 123.854 101.578 126.568 96.9321 128.162C94.1873 129.099 87.6821 128.63 85.7186 130.281C83.755 131.927 89.4998 130.641 92.6873 132.787C95.8748 134.943 87.2811 134.859 80.729 135.083C74.1769 135.307 65.5259 133.979 58.0103 126.073C67.8436 132.594 79.3696 132.302 81.3384 131.005C83.2967 129.714 76.8436 127.672 75.4009 125.573C73.9634 123.474 78.8748 124.412 84.0988 126.865C89.3228 129.302 92.6196 125.568 97.0415 124.714Z" fill="#CADBEA"/>
<path d="M9.27067 46.6251C6.83317 47.7032 4.58317 48.0626 2.69775 47.297C14.2238 43.9011 23.8228 25.073 36.5259 13.323C47.7603 2.92717 63.1509 0.0886328 69.6144 1.87509C82.1769 5.34384 85.4269 17.1616 77.1457 14.797C79.9998 16.6616 81.953 19.1772 82.6144 21.2553C83.7342 24.7761 81.13 27.0522 72.8644 22.7761C78.0311 28.8386 70.6509 30.4584 62.5207 23.6616C54.4009 16.8647 40.6613 20.2657 33.7186 26.0261C28.328 30.5053 17.6978 42.8907 9.27067 46.6251Z" fill="#CADBEA"/>
<path d="M49.8281 85.0264C56.2917 95.9587 72.7917 101.297 66.7708 103.979C60.75 106.651 55.625 102.412 49.8281 85.0264Z" fill="#CADBEA"/>
<path d="M40.0835 68.0213C48.3856 71.3963 46.4012 78.0577 37.8231 74.8234C40.396 77.6619 34.8491 80.3077 29.8231 78.5577C24.8022 76.8077 12.3699 86.1359 14.5991 101.745C16.8283 117.355 30.8751 117.579 37.5626 115.792C29.6512 118.818 19.1043 119.49 12.422 113.724C6.30744 108.443 3.43244 97.7661 8.80223 78.5577C9.98973 74.3129 12.2814 70.9171 15.1981 68.2713C22.6824 61.4848 34.271 59.6254 41.8491 60.8182C49.2293 61.9796 54.5939 66.1046 53.3439 68.4796C52.1199 70.8077 40.5887 68.1411 40.0835 68.0213Z" fill="#CADBEA"/>
<path d="M36 98.9844C40.0104 106.703 49.6042 108.208 45.5885 110.438C41.5781 112.667 36.8906 106.203 36 98.9844Z" fill="#CADBEA"/>
<path d="M4.88005 48.1402C4.03109 48.1402 3.24463 47.9944 2.53109 47.7079L1.36963 47.2391L2.57275 46.8798C9.57275 44.8173 15.9686 36.7964 22.7394 28.3121C26.9842 22.9996 31.3644 17.5048 36.229 13.01C47.5259 2.55686 62.9425 -0.411895 69.729 1.4631C76.8905 3.44227 81.0988 8.03602 81.979 11.4683C82.3384 12.8641 82.1196 14.036 81.3696 14.7704C80.9321 15.1923 80.1769 15.6037 78.8957 15.5516C80.9009 17.2079 82.4269 19.2444 83.0259 21.135C83.5363 22.7444 83.3123 24.0516 82.3957 24.8329C81.3696 25.6923 79.1301 26.1766 74.2551 23.9527C75.5676 26.135 74.8592 27.2808 74.4269 27.7235C72.7394 29.4214 67.604 28.4891 62.2394 23.9996C54.0936 17.1923 40.3644 21.0777 33.9946 26.3641C32.4009 27.6871 30.3592 29.6975 27.9946 32.0152C22.3957 37.5204 15.4269 44.3746 9.44255 47.0256C7.77067 47.7704 6.24463 48.1402 4.88005 48.1402ZM4.21859 47.2339C5.60921 47.385 7.23942 47.0464 9.08838 46.2287C14.9321 43.6402 21.8384 36.8485 27.3853 31.3954C29.7655 29.0569 31.8175 27.0412 33.4373 25.6923C37.104 22.6506 42.4061 20.411 47.6196 19.7079C53.6405 18.8902 59.0311 20.1766 62.8019 23.3329C67.9946 27.6714 72.6092 28.3173 73.8071 27.1037C74.5363 26.3641 74.0571 24.8589 72.5311 23.0673L71.0832 21.3746L73.0623 22.3954C79.1457 25.536 81.2238 24.6766 81.8332 24.161C82.6821 23.4423 82.4269 22.1194 82.1926 21.3954C81.5103 19.2391 79.479 16.8537 76.9009 15.1714L74.479 13.5933L77.2603 14.385C78.8748 14.8485 80.1196 14.76 80.7551 14.1402C81.2707 13.635 81.4009 12.7652 81.1248 11.6819C80.2811 8.38498 76.0103 4.10894 69.4946 2.30685C59.3748 -0.495229 43.7498 7.23915 36.8175 13.6558C32.0103 18.1037 27.6457 23.5673 23.4269 28.8589C17.0103 36.9006 10.9269 44.5256 4.21859 47.2339Z" fill="black"/>
<path d="M102.646 51.1618C102.135 51.1618 101.474 51.016 100.604 50.6045C97.7967 49.292 95.8957 47.2347 93.88 45.0576C90.4998 41.4014 86.9998 37.6149 78.6248 36.7868C73.9738 36.3337 67.8488 39.6097 64.4478 42.9326L63.8384 42.3076L63.8436 42.3024C67.38 38.8441 73.7967 35.4326 78.7134 35.9222C87.4165 36.7816 91.1925 40.8597 94.5259 44.4639C96.479 46.5732 98.328 48.5732 100.979 49.818C102.052 50.3232 102.901 50.4326 103.245 50.1097C103.526 49.8441 103.521 49.2087 103.219 48.4587L102.797 47.391L103.823 47.9066C104.943 48.4639 106.432 48.9222 107.151 47.9118C108.172 46.4847 107.302 42.568 104.88 40.1982L104.083 39.417L105.193 39.4482C105.724 39.4587 106.114 38.9951 106.224 38.2035C106.448 36.5576 105.443 33.693 101.969 30.5993C99.0571 28.0055 93.3228 24.3597 82.5103 21.6878L82.7238 20.8389C103.943 26.0837 107.5 35.2399 107.083 38.3232C106.969 39.1826 106.573 39.8232 106.005 40.1253C108.219 42.693 109.146 46.6097 107.864 48.417C107.432 49.0212 106.417 49.8337 104.292 49.0576C104.396 49.7712 104.25 50.3597 103.844 50.7451C103.599 50.9691 103.224 51.1618 102.646 51.1618Z" fill="black"/>
<path d="M53.875 49.4896C53.7396 49.4896 53.6042 49.4792 53.4688 49.4583C52.7552 49.349 52.4271 48.9427 52.2813 48.625C51.4583 46.8594 53.7917 42.8125 56.9323 37.7031C58.224 35.5937 59.5573 33.4219 59.5833 32.8229C59.5938 32.6094 59.5313 32.5625 59.5104 32.5521C58.9583 32.1667 56.5365 33.1458 54.7604 33.8646C53.9271 34.2031 53.0677 34.5469 52.3021 34.8125C51.8229 34.974 51.4635 34.9427 51.224 34.7135C50.9844 34.4896 50.9271 34.1458 51.0573 33.6771C51.6927 31.3698 57.7917 24.25 62.4323 23.2344L62.6198 24.0885C57.974 25.1094 52.0156 32.5937 51.8646 34.0312C51.901 34.0208 51.9531 34.0052 52.0208 33.9844C52.7604 33.7292 53.6198 33.3854 54.4375 33.0521C57.3229 31.8854 59.1406 31.2188 60.0156 31.8385C60.2292 31.9896 60.4844 32.2865 60.4583 32.8594C60.4219 33.6458 59.4323 35.2969 57.6771 38.151C55.5677 41.5833 52.3854 46.7656 53.0677 48.25C53.1302 48.3802 53.2396 48.5313 53.5938 48.5885C55.4323 48.8698 57.026 46.2135 58.5729 43.6406C60.2188 40.9062 61.9219 38.0781 64.2083 38.4427C64.5417 38.4948 64.8021 38.6771 64.974 38.9688C65.526 39.9219 64.8646 41.9427 64.5521 42.7656L63.7344 42.4688C64.1771 41.2917 64.4844 39.8698 64.2188 39.4115C64.1875 39.349 64.1458 39.3177 64.0729 39.3125C62.3698 39.0417 60.8229 41.6094 59.3229 44.099C57.7292 46.75 56.0781 49.4896 53.875 49.4896Z" fill="black"/>
<path d="M155.375 32.8909C146.984 32.8909 136.417 32.7242 129.333 32.6096C125.974 32.5576 123.547 32.5159 122.62 32.5159C121.422 32.5159 120.583 32.1721 120.26 31.5419C120.026 31.0888 120.094 30.5628 120.448 30.0576C121.437 28.6565 124.573 27.5315 129.38 28.0888C129.203 25.5263 130.865 23.943 132.698 23.4846C134.052 23.1461 135.323 23.4221 136.125 24.1409C137 17.9899 141.583 12.9638 147.391 11.9794C151.427 11.2919 155.099 12.7034 156.76 15.5732C157.943 17.6305 157.854 20.0055 156.557 22.094C158.906 21.8284 160.156 23.0263 160.719 23.844C161.073 24.3492 161.328 24.943 161.469 25.568C161.635 26.3232 161.63 27.0888 161.463 27.7607C164.708 26.8649 167.651 27.7919 169.12 29.1357C169.859 29.8076 170.177 30.568 169.995 31.2242C169.865 31.6721 169.453 32.2659 168.198 32.5159C166.771 32.7971 161.687 32.8909 155.375 32.8909ZM126.99 28.8232C123.667 28.8232 121.724 29.7711 121.156 30.568C121.047 30.7294 120.932 30.9534 121.031 31.1461C121.156 31.3909 121.641 31.6461 122.62 31.6461C123.557 31.6461 125.99 31.6878 129.349 31.7398C140.854 31.9221 164.792 32.3076 168.026 31.6565C168.667 31.5315 169.068 31.2919 169.151 30.9846C169.24 30.6669 169.005 30.2138 168.526 29.7763C167.344 28.693 164.328 27.5576 160.87 28.8648L159.698 29.3076L160.338 28.2346C160.708 27.6149 160.812 26.6669 160.609 25.7503C160.495 25.2399 160.286 24.7503 159.995 24.3388C159.104 23.0523 157.568 22.6357 155.667 23.1565L154.318 23.5263L155.213 22.4534C156.875 20.4586 157.172 18.0471 155.995 16.0107C154.526 13.4586 151.208 12.2086 147.531 12.8388C141.734 13.8232 137.25 19.1096 136.865 25.4117L136.724 27.6669L136.016 25.5211C135.62 24.3336 134.151 24.0263 132.906 24.3336C131.443 24.693 129.88 26.0055 130.302 28.5211L130.401 29.1096L129.812 29.0263C128.781 28.8857 127.838 28.8232 126.99 28.8232Z" fill="black"/>
<path d="M161.052 26.0889C161.047 26.0889 161.047 26.0889 161.047 26.0889L161.031 25.2191C161.036 25.2191 161.036 25.2191 161.042 25.2191C162.682 25.2191 198.016 25.2035 201.917 24.2608C202.349 24.1566 202.526 24.0108 202.552 23.9118C202.578 23.7868 202.469 23.4483 201.859 22.9483C199.672 21.1305 194.208 19.5003 190.052 21.3233L189.208 21.693L189.458 20.8024C190.203 18.1045 187.688 15.6878 184.823 14.6878C180.276 13.0993 174.417 14.516 171.583 21.2295L171.214 22.1045L170.786 21.2555C170.578 20.8337 169.833 20.4118 169.057 20.4535C168.38 20.4899 167.443 20.8753 166.839 22.5003L166.547 23.2868L166.068 22.5941C165.833 22.2503 165.193 22.0524 164.453 22.0785C163.266 22.1149 161.661 22.7243 160.724 24.3128L159.969 23.8701C161.083 21.9795 163 21.2503 164.422 21.2035C165.156 21.1826 165.802 21.3285 166.271 21.6149C167.094 19.9483 168.313 19.6253 169.005 19.5837C169.766 19.5472 170.531 19.8076 171.057 20.2451C174.208 13.568 180.323 12.1983 185.104 13.8649C188.542 15.0576 190.656 17.6514 190.438 20.2399C194.797 18.7607 200.188 20.4274 202.417 22.2816C203.391 23.0889 203.49 23.7243 203.396 24.1149C203.318 24.4535 203.031 24.9014 202.12 25.1201C198.125 26.0785 162.688 26.0889 161.052 26.0889Z" fill="black"/>
<path d="M215.536 104.974H214.661V77.3701H201.547V64.9482H182.703V51.1618H161.667V70.3962H141.432V84.068H123.292V102.417H122.417V83.193H140.557V69.5212H160.797V50.292H183.578V64.0785H202.417V76.4951H215.536V104.974Z" fill="black"/>
<path d="M164.448 57.5312H165.323V63.3958H164.448V57.5312Z" fill="black"/>
<path d="M168.141 57.5312H169.016V63.3958H168.141V57.5312Z" fill="black"/>
<path d="M171.844 57.5312H172.719V63.3958H171.844V57.5312Z" fill="black"/>
<path d="M175.542 57.5312H176.417V63.3958H175.542V57.5312Z" fill="black"/>
<path d="M179.234 57.5312H180.109V63.3958H179.234V57.5312Z" fill="black"/>
<path d="M126.463 86.8438H127.333V92.7031H126.463V86.8438Z" fill="black"/>
<path d="M130.162 86.8438H131.037V92.7031H130.162V86.8438Z" fill="black"/>
<path d="M133.859 86.8438H134.729V92.7031H133.859V86.8438Z" fill="black"/>
<path d="M137.557 86.8438H138.432V92.7031H137.557V86.8438Z" fill="black"/>
<path d="M164.448 67.3076H165.323V73.167H164.448V67.3076Z" fill="black"/>
<path d="M168.141 67.3076H169.016V73.167H168.141V67.3076Z" fill="black"/>
<path d="M171.844 67.3076H172.719V73.167H171.844V67.3076Z" fill="black"/>
<path d="M175.542 67.3076H176.417V73.167H175.542V67.3076Z" fill="black"/>
<path d="M179.234 67.3076H180.109V73.167H179.234V67.3076Z" fill="black"/>
<path d="M164.448 77.0732H165.323V82.9378H164.448V77.0732Z" fill="black"/>
<path d="M168.141 77.0732H169.016V82.9378H168.141V77.0732Z" fill="black"/>
<path d="M171.844 77.0732H172.719V82.9378H171.844V77.0732Z" fill="black"/>
<path d="M175.542 77.0732H176.417V82.9378H175.542V77.0732Z" fill="black"/>
<path d="M179.234 77.0732H180.109V82.9378H179.234V77.0732Z" fill="black"/>
<path d="M164.448 86.8438H165.323V90.8594H164.448V86.8438Z" fill="black"/>
<path d="M168.141 86.8438H169.016V92.7031H168.141V86.8438Z" fill="black"/>
<path d="M171.844 86.8438H172.719V92.7031H171.844V86.8438Z" fill="black"/>
<path d="M175.542 86.8438H176.417V92.7031H175.542V86.8438Z" fill="black"/>
<path d="M179.234 86.8438H180.109V92.7031H179.234V86.8438Z" fill="black"/>
<path d="M185.635 70.2344H186.51V96.474H185.635V70.2344Z" fill="black"/>
<path d="M191.146 70.2344H192.021V96.474H191.146V70.2344Z" fill="black"/>
<path d="M196.662 70.2344H197.531V96.474H196.662V70.2344Z" fill="black"/>
<path d="M203.656 81.1045H212.031V81.9743H203.656V81.1045Z" fill="black"/>
<path d="M144.203 74.6826H158.719V75.5576H144.203V74.6826Z" fill="black"/>
<path d="M144.203 79.5674H158.719V80.4372H144.203V79.5674Z" fill="black"/>
<path d="M144.203 84.4482H158.719V85.3232H144.203V84.4482Z" fill="black"/>
<path d="M203.656 84.5889H212.031V85.4639H203.656V84.5889Z" fill="black"/>
<path d="M203.656 88.083H212.031V88.9528H203.656V88.083Z" fill="black"/>
<path d="M203.656 91.5732H212.031V92.4482H203.656V91.5732Z" fill="black"/>
<path d="M203.656 95.0576H212.031V95.9274H203.656V95.0576Z" fill="black"/>
<path d="M203.656 98.5469H212.031V99.4219H203.656V98.5469Z" fill="black"/>
<path d="M126.875 101.312L126.354 100.615C126.427 100.562 126.505 100.51 126.588 100.453L127.068 101.188C126.995 101.229 126.937 101.271 126.875 101.312Z" fill="black"/>
<path d="M160.344 103.349C158.432 103.349 156.276 102.729 155.182 101.474L154.787 101.016C152.49 98.3645 149.36 94.7239 144.224 94.9322C138.979 95.1406 130.177 99.1458 127.12 101.146L126.63 100.427C137.052 93.1718 148.396 86.8124 160.724 89.3385C162.245 89.651 163.688 90.0208 165.016 90.4427L165.323 90.5416C166.63 90.9739 167.792 91.4479 168.781 91.9635C172.636 93.9531 173.287 96.0885 172.677 97.3177C172.511 97.651 172.25 97.9218 171.917 98.1197C172.583 98.9531 172.229 99.6614 172.016 99.9583C170.932 101.469 166.891 102.083 164.063 100.995C164.172 101.818 163.672 102.338 163.386 102.568C162.714 103.088 161.578 103.349 160.344 103.349ZM144.625 94.052C149.912 94.052 153.229 97.8854 155.443 100.448L155.839 100.896C157.323 102.594 161.464 102.963 162.844 101.875C163.146 101.641 163.474 101.224 162.844 100.323L161.537 98.4583L163.438 99.7083C165.896 101.318 170.386 100.729 171.307 99.4531C171.406 99.3124 171.667 98.9479 170.849 98.302L170.11 97.7239L171.026 97.5312C171.443 97.4427 171.75 97.2291 171.891 96.9322C172.344 96.026 171.443 94.3281 168.38 92.7447C167.36 92.2135 166.136 91.7239 164.75 91.2812L164.443 91.1822C163.229 90.8072 161.917 90.4791 160.547 90.1979C150.979 88.2395 141.948 91.8177 133.49 96.9687C137.068 95.4739 141.146 94.1822 144.188 94.0572C144.339 94.0572 144.479 94.052 144.625 94.052Z" fill="black"/>
<path d="M126.974 101.01L126.562 100.474C126.589 100.453 126.641 100.411 126.714 100.38L126.974 101.01Z" fill="black"/>
<path d="M126.547 101.547L126.037 100.844C126.13 100.766 126.245 100.688 126.36 100.61V100.615L126.573 100.464L127.073 101.177L126.547 101.547Z" fill="black"/>
<path d="M114.021 145.047C102.802 145.047 88.2919 140.656 72.9742 136.021C55.2086 130.646 36.844 125.094 22.6565 126.255C10.5576 127.25 6.38048 124.948 5.00548 122.839C4.11486 121.474 4.13569 119.781 5.05757 118.073C6.49507 115.417 9.7034 113.344 12.3649 113.344V114.214C10.0367 114.214 7.10444 116.13 5.8284 118.49C5.28153 119.49 4.83361 120.969 5.73465 122.359C6.75028 123.922 10.2971 126.391 22.5836 125.385C36.9378 124.208 55.3857 129.786 73.2242 135.182C89.4742 140.099 104.823 144.74 116.157 144.109C128.157 143.443 140.61 139.703 152.651 136.089C164.688 132.474 176.058 129.062 186.068 128.948C201.052 128.781 208.995 124.99 209.229 122.911C209.302 122.255 208.328 121.927 207.74 121.786C204.787 121.083 203.177 119.943 203.078 118.484C202.943 116.568 205.495 114.583 210.646 112.594C216.078 110.49 219.782 106.307 219.375 105.057C219.235 104.646 218.36 104.599 217.084 104.938C216.63 105.151 216.136 105.344 215.599 105.51L215.287 105.604C204.61 108.698 177.068 103.484 171.948 97.401L172.589 96.8125H172.594C177.172 102.255 203.334 107.943 214.761 104.844L215.047 104.76C215.672 104.589 216.245 104.375 216.745 104.135L216.818 104.109C219.229 103.464 219.985 104.125 220.209 104.792C220.849 106.766 216.625 111.224 210.959 113.406C204.495 115.911 203.907 117.75 203.948 118.427C204.021 119.438 205.474 120.354 207.943 120.943C209.964 121.417 210.162 122.443 210.094 123.01C209.802 125.656 201.964 129.651 186.078 129.828C176.193 129.938 164.886 133.333 152.912 136.927C140.818 140.563 128.313 144.318 116.209 144.99C115.495 145.026 114.766 145.047 114.021 145.047Z" fill="black"/>
<path d="M25.6041 118.484C20.7499 118.484 15.8749 117.281 12.1353 114.052C3.00513 106.172 5.052 90.3334 8.38012 78.4376C9.51554 74.3751 11.7135 70.8439 14.901 67.948C22.5312 61.0314 34.2499 59.1772 41.9166 60.3855C47.276 61.2241 52.3176 63.8543 53.6353 66.4897C54.0364 67.2866 54.0676 68.0418 53.7291 68.6824C52.7499 70.5418 47.0051 69.8282 43.026 69.0834C45.5051 70.8022 46.1874 72.7918 45.6458 74.1876C45.0155 75.7918 42.677 76.7709 38.802 75.6147C38.9999 76.2449 38.9166 76.8855 38.5312 77.4689C37.3645 79.2293 33.4426 80.2761 29.6874 78.9636C27.8489 78.323 24.9062 79.3491 22.203 81.5782C20.0937 83.3126 13.3541 89.8855 15.0364 101.677C15.8072 107.042 18.0468 110.99 21.7083 113.412C26.5989 116.646 33.052 116.542 37.4583 115.37L37.7239 116.198C34.2447 117.526 29.9322 118.484 25.6041 118.484ZM37.2499 60.9168C30.2083 60.9168 21.526 63.1251 15.4895 68.5939C12.4218 71.3751 10.3124 74.7657 9.22387 78.6772C4.552 95.3855 5.75512 107.391 12.7082 113.396C17.8749 117.854 25.3593 118.266 31.7916 116.995C28.2447 117.016 24.4218 116.266 21.2187 114.146C17.3437 111.578 14.9687 107.432 14.1666 101.813C12.4166 89.5626 19.4426 82.7189 21.6405 80.9116C24.6249 78.4584 27.8176 77.4011 29.9687 78.1511C33.2551 79.297 36.8176 78.4897 37.802 76.9949C38.1926 76.4064 38.0937 75.7761 37.4999 75.1251L36.2812 73.7866L37.9739 74.422C41.953 75.922 44.3176 75.1876 44.8333 73.8751C45.3958 72.4428 43.8905 70.0678 39.9999 68.4636H39.901L39.7551 68.3334L40.0624 68.0261L40.0833 67.5939L40.2135 67.6095C45.8749 68.9272 52.2603 69.6043 52.953 68.2814C53.1562 67.8959 53.1249 67.4272 52.8541 66.8855C51.828 64.8386 47.5989 62.1668 41.7812 61.2553C40.3905 61.0314 38.8593 60.9168 37.2499 60.9168Z" fill="black"/>
<path d="M10.9897 69.6875C10.6772 69.6875 10.3647 69.651 10.0522 69.5417C9.06783 69.2031 8.34387 68.1823 8.25533 67C8.19283 66.099 8.44803 65.151 9.04178 64.0938C10.8491 60.8594 14.1512 58.9531 17.3439 57.1094L17.9793 56.7448C18.3647 56.526 18.7397 56.276 18.8543 55.9479C18.9845 55.5521 18.6564 55.0781 18.2657 54.8854C17.7397 54.625 17.0626 54.6927 16.6043 54.7604C14.3335 55.099 12.323 56.1875 10.1928 57.3385C8.35949 58.3333 6.46366 59.3542 4.40116 59.849C2.86991 60.2135 1.66158 59.875 1.17199 58.9427C0.859492 58.3594 0.932409 57.6875 1.04699 57.1094C1.82824 53.0833 4.58866 49.3333 9.02616 46.2656C10.1147 45.5052 11.3074 44.7917 12.5574 44.1406L12.9585 44.9167C11.7397 45.5521 10.5835 46.25 9.52095 46.9896C5.27616 49.9271 2.64074 53.4896 1.90116 57.2865C1.81783 57.7135 1.76053 58.1927 1.94283 58.5469C2.28658 59.2031 3.32824 59.2135 4.19283 59.0052C6.14595 58.5417 7.99491 57.5417 9.77616 56.5833C11.8751 55.4427 14.0522 54.2708 16.4689 53.9062C17.0418 53.8177 17.9012 53.7396 18.6512 54.1094C19.3803 54.4688 19.9689 55.3646 19.6772 56.2344C19.4741 56.8542 18.922 57.2188 18.4168 57.5052L17.7762 57.875C14.6824 59.6563 11.4845 61.5 9.8022 64.5312C9.29699 65.4323 9.07303 66.224 9.12512 66.9427C9.18762 67.7656 9.68762 68.5 10.3335 68.724C10.7501 68.8698 11.2241 68.8229 11.672 68.7604C12.7866 68.599 13.8751 68.2656 14.9012 67.776L15.2814 68.5625C14.172 69.0938 13.0053 69.4531 11.797 69.6302C11.547 69.6563 11.2762 69.6875 10.9897 69.6875Z" fill="black"/>
<path d="M63.6144 105.151C62.703 105.151 61.8228 104.958 60.9634 104.578C56.9009 102.786 53.2342 96.6195 49.4165 85.1611L48.1196 81.2705L50.203 84.8018C53.2915 90.0257 58.8228 94.0309 62.854 96.9632C66.354 99.5049 68.6613 101.177 68.4998 102.734C68.4321 103.406 67.9217 103.942 66.953 104.375C65.7811 104.89 64.6769 105.151 63.6144 105.151ZM51.2863 87.9111C54.6405 97.182 57.854 102.255 61.3123 103.781C62.9373 104.5 64.6665 104.432 66.5936 103.573C67.2446 103.286 67.5936 102.968 67.63 102.64C67.7394 101.583 65.2394 99.7653 62.3384 97.6663C58.9478 95.208 54.5155 91.9945 51.2863 87.9111Z" fill="black"/>
<path d="M43.9168 111.323C43.2606 111.323 42.5939 111.156 41.9272 110.817C38.896 109.276 36.2189 104.323 35.5679 99.0361L35.271 96.6299L36.3856 98.7861C38.3491 102.557 41.6564 104.791 44.0679 106.422C45.8491 107.625 47.0262 108.422 46.9793 109.396C46.9533 110.099 46.2866 110.547 45.797 110.817C45.1981 111.156 44.5627 111.323 43.9168 111.323ZM36.8335 101.146C37.8022 105.271 39.9481 108.828 42.3283 110.036C43.396 110.578 44.422 110.588 45.3752 110.052C45.8439 109.791 46.1043 109.541 46.1147 109.354C46.1356 108.869 44.896 108.031 43.5835 107.146C41.646 105.838 38.896 103.979 36.8335 101.146Z" fill="black"/>
<path d="M161.964 127.817C160.031 127.817 157.099 126.661 153.661 125.307C150.76 124.161 147.755 122.974 145.172 122.458C142.839 121.995 139.88 123.078 136.448 124.333C130.255 126.609 122.547 129.432 113.203 125.557L113.5 124.734C121.458 127.161 125.771 123.885 130.76 120.094C134.135 117.526 137.969 114.614 143.458 113.052C145.339 112.521 147.26 112.182 149.339 112.01C154.911 111.557 160.271 112.463 164.828 114.635C168.396 116.338 171.401 118.786 173.078 121.349C174.156 123 174.49 124.474 174 125.385C173.781 125.781 173.307 126.255 172.281 126.255C169.682 126.255 167.505 124.974 165.401 123.739C164.917 123.458 164.443 123.177 163.969 122.911C164.188 123.182 164.359 123.474 164.49 123.776C164.953 124.89 164.724 126.099 163.865 127.104C163.438 127.609 162.797 127.817 161.964 127.817ZM143.99 121.474C144.453 121.474 144.906 121.515 145.339 121.604C148 122.135 151.042 123.333 153.984 124.495C158.016 126.083 162.188 127.724 163.203 126.541C163.854 125.786 164.021 124.927 163.688 124.12C163.182 122.916 161.349 121.547 157.714 121.302L157.693 120.432C160.911 120.088 163.422 121.562 165.844 122.989C167.938 124.224 169.917 125.39 172.281 125.39C172.755 125.39 173.073 125.25 173.224 124.974C173.474 124.5 173.38 123.427 172.333 121.833C170.021 118.281 162.25 111.838 149.401 112.88C147.375 113.047 145.505 113.38 143.688 113.896C138.354 115.411 134.594 118.271 131.281 120.791C127.63 123.573 124.323 126.083 119.745 126.422C126.068 127.208 131.531 125.208 136.135 123.521C139.099 122.437 141.714 121.474 143.99 121.474Z" fill="black"/>
<path d="M79.4738 135.537C70.8019 135.537 63.4738 132.459 57.6873 126.37L55.0259 123.573L58.2446 125.703C67.8384 132.063 79.229 131.865 81.0884 130.636C81.2082 130.558 81.2603 130.485 81.2603 130.459C81.255 130.037 79.6717 129.11 78.6248 128.495C77.1873 127.646 75.6978 126.776 75.0363 125.813C74.5415 125.089 74.6925 124.641 74.9061 124.391C76.0259 123.073 81.5311 125.167 84.2863 126.459C87.6353 128.032 90.1509 126.922 92.8123 125.745C94.1196 125.167 95.4738 124.568 96.9582 124.282C99.0832 123.865 100.515 124.219 100.781 125.219C101.094 126.381 99.6353 127.698 97.0728 128.573C95.9009 128.974 94.1509 129.12 92.2967 129.282C89.8436 129.485 87.0571 129.724 85.9998 130.615C85.953 130.657 85.9061 130.693 85.8748 130.724C86.1925 130.802 86.7967 130.86 87.3071 130.907C88.9686 131.063 91.2394 131.287 92.9321 132.427C93.1873 132.599 93.979 133.136 93.7759 133.828C93.4217 135.042 90.2915 135.256 83.2394 135.443C82.3957 135.464 81.5519 135.49 80.7446 135.516C80.3175 135.532 79.8957 135.537 79.4738 135.537ZM61.1248 128.386C66.5519 132.854 72.9998 134.901 80.7186 134.646C81.5311 134.62 82.3696 134.594 83.2186 134.568C86.6873 134.479 92.4946 134.318 92.9373 133.578C92.9269 133.578 92.8488 133.427 92.4425 133.146C90.9373 132.136 88.7915 131.927 87.2238 131.782C85.8436 131.646 85.0884 131.573 84.9113 131.006C84.7603 130.516 85.255 130.099 85.4373 129.948C86.7082 128.881 89.5103 128.646 92.2186 128.412C94.0207 128.256 95.7186 128.115 96.7915 127.75C99.1405 126.943 100.057 125.896 99.9425 125.448C99.8592 125.136 99.0207 124.776 97.13 125.141C95.7446 125.412 94.4373 125.99 93.1717 126.547C90.4478 127.75 87.63 128.995 83.9217 127.256C79.203 125.042 75.9478 124.578 75.5832 124.953C75.5884 124.953 75.5936 125.068 75.7655 125.323C76.3123 126.12 77.7811 126.979 79.0728 127.745C80.7759 128.745 82.1196 129.532 82.1457 130.443C82.1457 130.693 82.0571 131.058 81.578 131.37C79.755 132.563 70.2863 133.011 61.1248 128.386Z" fill="black"/>
<path d="M69.2969 120.292C63.6042 120.292 58.8802 118.906 54.3125 117.568C49.3698 116.12 44.7083 114.75 39.6406 115.552L39.5 114.688C44.7708 113.854 49.526 115.245 54.5625 116.724C59.1094 118.057 63.8281 119.427 69.4427 119.412C75.875 119.386 85.526 116.307 94.8594 113.333C98.3021 112.24 101.547 111.203 104.583 110.333C109.255 109 112.536 108.323 114.917 108.219C125.151 107.766 140.354 111.464 143.766 113.078L143.396 113.87C139.922 112.219 124.677 108.662 114.953 109.094C112.646 109.198 109.427 109.854 104.828 111.172C101.802 112.037 98.5573 113.073 95.1302 114.167C85.7344 117.162 76.0156 120.266 69.4479 120.292C69.3958 120.292 69.3438 120.292 69.2969 120.292Z" fill="black"/>
<path d="M194.99 112.771C186.766 112.771 170.13 106.817 164.99 103.286L165.485 102.567C170.417 105.958 187.063 111.901 194.995 111.901C195.057 111.901 195.125 111.901 195.193 111.901L195.208 112.771C195.13 112.771 195.063 112.771 194.99 112.771Z" fill="black"/>
<path d="M158.625 110.416C155.365 109.698 145.12 103.338 142.255 100.26L142.896 99.6611C145.828 102.817 155.974 108.937 158.813 109.562L158.625 110.416Z" fill="black"/>
<path d="M105.25 111.318C105.031 111.271 104.818 111.229 104.604 111.183C100.292 110.276 96.1876 108.943 92.4064 107.224C79.0262 101.167 68.896 89.9066 63.8908 75.5212C59.6824 63.4222 59.6251 50.4378 63.7449 42.4326L64.521 42.8285C60.5053 50.6305 60.5783 63.3493 64.7137 75.2347C69.6408 89.3857 79.6043 100.469 92.7658 106.427C96.4897 108.12 100.531 109.433 104.787 110.323C105 110.375 105.214 110.417 105.422 110.464L105.25 111.318Z" fill="black"/>
<path d="M98.245 107.625C96.271 107.625 94.3647 107.506 92.5262 107.261C91.6408 107.146 90.7397 106.99 89.8647 106.808L90.0418 105.953C90.9012 106.131 91.771 106.282 92.6408 106.391C101 107.511 110.833 106.042 122.708 101.901C123.578 101.594 124.36 101.313 125.047 101.063C125.542 100.886 125.979 100.724 126.365 100.589L126.422 100.532L126.61 100.526V100.964L126.906 101.276L126.839 101.344L126.745 101.381C126.339 101.521 125.87 101.693 125.344 101.886C124.656 102.136 123.87 102.417 122.99 102.724C113.589 106.006 105.427 107.625 98.245 107.625Z" fill="black"/>
</svg>
